<?xml version="1.0" encoding="UTF-8" standalone="no"?>
<svg
   xmlns:dc="http://purl.org/dc/elements/1.1/"
   xmlns:cc="http://creativecommons.org/ns#"
   xmlns:rdf="http://www.w3.org/1999/02/22-rdf-syntax-ns#"
   xmlns:svg="http://www.w3.org/2000/svg"
   xmlns="http://www.w3.org/2000/svg"
   xmlns:sodipodi="http://sodipodi.sourceforge.net/DTD/sodipodi-0.dtd"
   xmlns:inkscape="http://www.inkscape.org/namespaces/inkscape"
   width="48"
   height="48"
   viewBox="0 0 48 48"
   id="svg2"
   version="1.1"
   inkscape:version="0.48.4 r9939"
   sodipodi:docname="2048.svg">
  <defs
     id="defs10576" />
  <metadata
     id="metadata35">
    <rdf:RDF>
      <cc:Work
         rdf:about="">
        <dc:format>image/svg+xml</dc:format>
        <dc:type
           rdf:resource="http://purl.org/dc/dcmitype/StillImage" />
        <dc:title />
      </cc:Work>
    </rdf:RDF>
  </metadata>
  <sodipodi:namedview
     pagecolor="#ffffff"
     bordercolor="#666666"
     borderopacity="1"
     objecttolerance="10"
     gridtolerance="10"
     guidetolerance="10"
     inkscape:pageopacity="0"
     inkscape:pageshadow="2"
     inkscape:window-width="1024"
     inkscape:window-height="711"
     id="namedview33"
     showgrid="false"
     inkscape:zoom="4.9166667"
     inkscape:cx="-13.016949"
     inkscape:cy="23.59322"
     inkscape:window-x="0"
     inkscape:window-y="0"
     inkscape:window-maximized="1"
     inkscape:current-layer="svg2" />
  <path
     fill="#808080"
     d="M 47.4375 11.546875 L 47.4375 36.453125 C 47.4375 46.703125 47.4375 47.4375 36.453125 47.4375 L 11.550781 47.4375 C 0.5625 47.4375 0.5625 46.703125 0.5625 36.453125 L 0.5625 11.546875 C 0.5625 1.296875 0.5625 0.5625 11.550781 0.5625 L 36.453125 0.5625 C 47.4375 0.5625 47.4375 1.296875 47.4375 11.546875 Z "
     id="path11"
     style="fill:#ecc400;fill-opacity:1" />
  <path
     inkscape:connector-curvature="0"
     id="path15"
     d="m 38.265625,47.4375 c 2.542969,-0.01172 4.378906,-0.08203 5.710937,-0.441406 l -4.230468,-7.25 -4.484375,7.691406 1.191406,0 c 0.640625,0 1.242187,0 1.8125,0 z m 1.480469,-7.691406 -5.125,-8.789063 -5.128906,8.789063 z m 0,0 7.652344,0 c 0.03125,-0.972656 0.03906,-2.0625 0.03906,-3.296875 l 0,-1.097657 -2.5625,-4.394531 z m 5.128906,-8.789063 -5.128906,-8.789062 -5.125,8.789062 z m 0,0 2.5625,0 0,-4.394531 z m -10.253906,0 -5.128906,-8.789062 -5.125,8.789062 z m -10.253906,0 -5.128907,8.789063 10.253907,0 z m 0,0 -5.128907,-8.789062 -5.125,8.789062 z m -10.253907,0 -5.128906,8.789063 10.253906,0 z m 0,0 -5.128906,-8.789062 -5.125,8.789062 z m -10.253906,0 -3.296875,5.648438 c 0,1.167969 0.011719,2.210937 0.039062,3.140625 l 8.382813,0 z m 0,0 -3.296875,-5.648437 0,5.648437 z m 5.125,8.789063 -4.3125,7.394531 c 1.597656,0.292969 3.808594,0.296875 6.878906,0.296875 l 1.921875,0 z m 0,-17.578125 -5.125,-8.789063 -3.296875,5.648438 0,3.140625 z m 0,0 10.253906,0 -5.125,-8.789063 z m 5.128906,-8.789063 -5.128906,-8.789062 -5.125,8.789062 z m 0,0 10.253907,0 -5.128907,-8.789062 z m 5.125,-8.789062 -2.351562,-4.027344 -5.335938,0 c -0.07813,0 -0.140625,0 -0.214843,0 L 8.984375,4.589844 z m 0,0 10.253907,0 -2.351563,-4.027344 -5.550781,0 z m 10.253907,0 10.253906,0 L 37.394531,0.5625 c -0.3125,0 -0.609375,0 -0.941406,0 l -4.609375,0 z m 0,0 -5.125,8.789062 10.253906,0 z m 5.128906,8.789062 10.253906,0 -5.128906,-8.789062 z m 0,0 -5.128906,8.789063 10.253906,0 z m 5.125,8.789063 7.691406,0 0,-4.394531 -2.5625,-4.394532 z m 5.128906,-8.789063 2.5625,0 0,-1.832031 c 0,-0.914063 -0.0078,-1.75 -0.02344,-2.523437 z m -15.382812,8.789063 -5.125,-8.789063 -5.128907,8.789063 z m 10.253906,-17.578125 7.308594,0 C 46.5,1.832031 45.167969,0.960938 42.023438,0.6875 z m -30.761719,0 L 6.679688,0.636719 C 3.019531,0.84375 1.539062,1.632812 0.945312,4.589844 z m -5.125,8.789062 L 0.621094,7.824219 C 0.578125,8.898438 0.5625,10.132812 0.5625,11.546875 l 0,1.832031 z m 15.378906,26.367188 -4.484375,7.691406 8.972656,0 z m 10.253907,0 -4.484376,7.691406 8.972657,0 z M 2.59375,46.367188 0.992188,43.621094 c 0.292968,1.316406 0.785156,2.179687 1.601562,2.746094 z"
     style="fill:#ffffff;fill-opacity:0.09411765" />
  <g
     style="fill:#f9f9f9"
     transform="matrix(3.5359212,0,0,3.5507083,-5.2573839e-7,1.0000004)"
     id="g10555">
    <path
       inkscape:connector-curvature="0"
       d="m 6.5046699,5.914313 -1.6968704,0 0,-0.281634 0.7961961,-0.8144174 C 5.8153528,4.6045027 5.9546569,4.4519886 6.0219085,4.360719 6.0891575,4.2694521 6.1395952,4.1805857 6.1732218,4.0941194 6.2068455,4.0076564 6.2236581,3.9145868 6.2236596,3.8149103 6.2236581,3.6744072 6.1810262,3.5633241 6.0957638,3.4816608 6.0104987,3.3988011 5.8922102,3.3573701 5.7408981,3.3573677 c -0.1092827,2.4e-6 -0.2131604,0.018016 -0.3116333,0.05404 -0.097274,0.036029 -0.2059547,0.1014782 -0.3260442,0.196347 L 4.9447019,3.4042028 C 5.1872831,3.2024543 5.4514807,3.1015789 5.7372954,3.1015762 c 0.247384,2.7e-6 0.441329,0.06365 0.5818356,0.190943 C 6.4596345,3.4186159 6.529887,3.588543 6.5298888,3.8023009 6.529887,3.9692276 6.483052,4.1343511 6.3893836,4.2976718 6.0185295,4.788723 5.6707294,5.1388426 5.2412044,5.632679 l 0.020335,0 1.2431305,0"
       id="path10557" />
    <path
       inkscape:connector-curvature="0"
       d="M 8.767164,4.4525878 C 8.7671621,4.9077294 8.7203269,5.3528931 8.5762209,5.5774608 8.4333123,5.802029 8.2141484,5.9143129 7.9187286,5.914313 7.6353156,5.9143129 7.4197544,5.7996001 7.2720444,5.5702283 7.1243335,5.3396562 7.0702932,4.9504767 7.0702934,4.5061432 7.0702932,4.0474015 7.096713,3.6533915 7.2396203,3.431223 7.3825268,3.2090592 7.6004897,3.0979762 7.8935099,3.0979735 c 0.2858127,2.7e-6 0.5025747,0.1158893 0.6502869,0.3476603 0.1489096,0.2317756 0.2233653,0.5674266 0.2233672,1.006954 m -1.4140589,0.053555 c -5e-7,0.3830877 0.045033,0.7140507 0.1351011,0.8893813 0.090067,0.1741307 0.2335741,0.2611958 0.4305224,0.2611956 0.199348,2e-7 0.3434558,-0.088266 0.4323237,-0.2647983 C 8.4411182,5.2141894 8.4843505,4.8844273 8.4843521,4.5061432 8.4843505,4.1278616 8.4158995,3.7974992 8.3258336,3.622166 8.2369657,3.4456361 8.0928579,3.3573701 7.8935099,3.3573677 7.6965616,3.3573701 7.5530543,3.4444352 7.4629875,3.6185633 7.3729196,3.7914947 7.3531046,4.123058 7.3531051,4.5061432"
       id="path10559" />
  </g>
  <path
     style="fill:#f9f9f9"
     inkscape:connector-curvature="0"
     d="m 23.999999,33.999999 -0.999999,0 0,2 -1.000001,0 0,-2 -5,0 0,-0.999999 4.5,-7 L 23,26 l 0,7 0.999999,0 1e-6,0.999998 M 21.999999,33 l 0,-6 -4,6"
     id="path10561" />
  <path
     style="fill:#f9f9f9"
     inkscape:connector-curvature="0"
     d="m 28.001795,26 c 4.002396,0 3.685573,4.317626 0.885883,4.921525 0.756286,0.362448 1.293761,0.74408 1.61243,1.144895 0.318657,0.39656 0.477986,0.857076 0.477993,1.38155 -7e-6,0.776058 -0.269809,1.396476 -0.809401,1.861257 -0.539607,0.460517 -1.278903,0.690772 -2.217889,0.690772 -0.994228,0 -1.759016,-0.217481 -2.294367,-0.652396 -0.535353,-0.439198 -0.656445,-1.059615 -0.656445,-1.861257 0,-1.070271 0.503487,-1.90389 1.803629,-2.50086 C 24.449344,30.376808 23.999401,26 28.001795,26 m -2.001197,7.511931 c -2e-6,0.511687 0.07436,0.910374 0.427009,1.196064 0.356898,0.28569 0.856135,0.428536 1.497711,0.428536 0.633071,0 1.125935,-0.149237 1.478592,-0.447723 0.352647,-0.298483 0.599078,-0.70783 0.599083,-1.228046 -5e-6,-0.413609 -0.235814,-0.780316 -0.567217,-1.100123 -0.331413,-0.324063 -0.909253,-0.63747 -1.733522,-0.940221 -0.633077,0.272903 -1.09195,0.57565 -1.376619,0.908241 -0.284673,0.328334 -0.325039,0.722758 -0.325037,1.183272 m 1.988451,-6.648463 C 25.171631,27 25.247425,30 27.963559,30.512177 30.711202,30 30.656261,27 27.989049,26.863468"
     id="path10563" />
</svg>
