<?xml version="1.0" encoding="UTF-8" standalone="no"?>
<svg
   xmlns:dc="http://purl.org/dc/elements/1.1/"
   xmlns:cc="http://creativecommons.org/ns#"
   xmlns:rdf="http://www.w3.org/1999/02/22-rdf-syntax-ns#"
   xmlns:svg="http://www.w3.org/2000/svg"
   xmlns="http://www.w3.org/2000/svg"
   xmlns:sodipodi="http://sodipodi.sourceforge.net/DTD/sodipodi-0.dtd"
   xmlns:inkscape="http://www.inkscape.org/namespaces/inkscape"
   width="48"
   height="48"
   viewBox="0 0 48 48"
   id="svg2"
   version="1.1"
   inkscape:version="0.48.4 r9939"
   sodipodi:docname="4kvideodownloader.svg">
  <defs
     id="defs5441" />
  <metadata
     id="metadata35">
    <rdf:RDF>
      <cc:Work
         rdf:about="">
        <dc:format>image/svg+xml</dc:format>
        <dc:type
           rdf:resource="http://purl.org/dc/dcmitype/StillImage" />
        <dc:title />
      </cc:Work>
    </rdf:RDF>
  </metadata>
  <sodipodi:namedview
     pagecolor="#ffffff"
     bordercolor="#666666"
     borderopacity="1"
     objecttolerance="10"
     gridtolerance="10"
     guidetolerance="10"
     inkscape:pageopacity="0"
     inkscape:pageshadow="2"
     inkscape:window-width="1024"
     inkscape:window-height="711"
     id="namedview33"
     showgrid="false"
     inkscape:zoom="9.8333333"
     inkscape:cx="23.751706"
     inkscape:cy="23.59322"
     inkscape:window-x="0"
     inkscape:window-y="0"
     inkscape:window-maximized="1"
     inkscape:current-layer="svg2" />
  <path
     fill="#808080"
     d="M 47.4375 11.546875 L 47.4375 36.453125 C 47.4375 46.703125 47.4375 47.4375 36.453125 47.4375 L 11.550781 47.4375 C 0.5625 47.4375 0.5625 46.703125 0.5625 36.453125 L 0.5625 11.546875 C 0.5625 1.296875 0.5625 0.5625 11.550781 0.5625 L 36.453125 0.5625 C 47.4375 0.5625 47.4375 1.296875 47.4375 11.546875 Z "
     id="path11"
     style="fill:#66a202;fill-opacity:1" />
  <path
     inkscape:connector-curvature="0"
     id="path15"
     d="m 38.265625,47.4375 c 2.542969,-0.01172 4.378906,-0.08203 5.710937,-0.441406 l -4.230468,-7.25 -4.484375,7.691406 1.191406,0 c 0.640625,0 1.242187,0 1.8125,0 z m 1.480469,-7.691406 -5.125,-8.789063 -5.128906,8.789063 z m 0,0 7.652344,0 c 0.03125,-0.972656 0.03906,-2.0625 0.03906,-3.296875 l 0,-1.097657 -2.5625,-4.394531 z m 5.128906,-8.789063 -5.128906,-8.789062 -5.125,8.789062 z m 0,0 2.5625,0 0,-4.394531 z m -10.253906,0 -5.128906,-8.789062 -5.125,8.789062 z m -10.253906,0 -5.128907,8.789063 10.253907,0 z m 0,0 -5.128907,-8.789062 -5.125,8.789062 z m -10.253907,0 -5.128906,8.789063 10.253906,0 z m 0,0 -5.128906,-8.789062 -5.125,8.789062 z m -10.253906,0 -3.296875,5.648438 c 0,1.167969 0.011719,2.210937 0.039062,3.140625 l 8.382813,0 z m 0,0 -3.296875,-5.648437 0,5.648437 z m 5.125,8.789063 -4.3125,7.394531 c 1.597656,0.292969 3.808594,0.296875 6.878906,0.296875 l 1.921875,0 z m 0,-17.578125 -5.125,-8.789063 -3.296875,5.648438 0,3.140625 z m 0,0 10.253906,0 -5.125,-8.789063 z m 5.128906,-8.789063 -5.128906,-8.789062 -5.125,8.789062 z m 0,0 10.253907,0 -5.128907,-8.789062 z m 5.125,-8.789062 -2.351562,-4.027344 -5.335938,0 c -0.07813,0 -0.140625,0 -0.214843,0 L 8.984375,4.589844 z m 0,0 10.253907,0 -2.351563,-4.027344 -5.550781,0 z m 10.253907,0 10.253906,0 L 37.394531,0.5625 c -0.3125,0 -0.609375,0 -0.941406,0 l -4.609375,0 z m 0,0 -5.125,8.789062 10.253906,0 z m 5.128906,8.789062 10.253906,0 -5.128906,-8.789062 z m 0,0 -5.128906,8.789063 10.253906,0 z m 5.125,8.789063 7.691406,0 0,-4.394531 -2.5625,-4.394532 z m 5.128906,-8.789063 2.5625,0 0,-1.832031 c 0,-0.914063 -0.0078,-1.75 -0.02344,-2.523437 z m -15.382812,8.789063 -5.125,-8.789063 -5.128907,8.789063 z m 10.253906,-17.578125 7.308594,0 C 46.5,1.832031 45.167969,0.960938 42.023438,0.6875 z m -30.761719,0 L 6.679688,0.636719 C 3.019531,0.84375 1.539062,1.632812 0.945312,4.589844 z m -5.125,8.789062 L 0.621094,7.824219 C 0.578125,8.898438 0.5625,10.132812 0.5625,11.546875 l 0,1.832031 z m 15.378906,26.367188 -4.484375,7.691406 8.972656,0 z m 10.253907,0 -4.484376,7.691406 8.972657,0 z M 2.59375,46.367188 0.992188,43.621094 c 0.292968,1.316406 0.785156,2.179687 1.601562,2.746094 z"
     style="fill:#ffffff;fill-opacity:0.05882353" />
  <path
     style="fill:#f9f9f9"
     inkscape:connector-curvature="0"
     d="m 21.190284,15.002159 c -0.566217,0.01662 -1.146894,0.110793 -1.717298,0.312463 -2.440361,0.862682 -4.294999,3.363356 -4.839657,6.467972 -1.602525,0.402087 -2.992947,1.855933 -3.465819,3.968273 -0.67121,2.998632 0.736216,6.124413 3.122359,6.967913 0.03886,0.01184 0.05459,0.02062 0.09367,0.03125 C 14.713109,32.89803 15.105326,33 15.476365,33 l 0.530801,0 c 0,0 0.999155,-0.990281 0.999155,-1.99976 l 0,-11.998558 c 0,-0.99988 0.967932,-1.99976 0.967932,-1.99976 l 2.997465,0 c 0,0 -0.967931,0.99988 -0.967931,1.99976 l 0,2.99964 8.024464,0 0,-2.99964 c 0,-0.49994 0.225896,-0.99988 0.468354,-1.374835 -0.139614,0.03185 -0.266624,0.07575 -0.405907,0.124987 -0.458061,0.162191 -0.864761,0.397673 -1.248944,0.718659 -1.315616,-2.220922 -3.420557,-3.531129 -5.651471,-3.468334 z m -2.903794,2.99964 c -0.153078,0.305745 -0.281013,0.652033 -0.281013,0.99988 l 0.999155,0 c 0,-0.347847 0.127931,-0.694137 0.281013,-0.99988 l -0.999156,0 z m 11.021929,0 c -0.153078,0.305745 -0.281013,0.652033 -0.281013,0.99988 l 0.999156,0 c 0,-0.347847 0.127931,-0.694137 0.281012,-0.99988 l -0.999155,0 z m 1.967087,0.09374 c -0.136411,0.288641 -0.249789,0.584091 -0.249789,0.906141 l 0,11.998558 c 0,1.015498 -0.999155,1.99976 -0.999155,1.99976 l 2.747676,0 c 0.619217,0 1.170612,-0.236789 1.654851,-0.624925 1.933944,-1.160421 3.004317,-3.943318 2.404215,-6.624204 -0.443367,-1.980668 -1.680604,-3.403132 -3.153581,-3.90578 -0.01265,-0.06627 -0.0169,-0.121182 -0.03122,-0.187477 -0.362495,-1.618803 -1.252857,-2.883646 -2.373,-3.562073 z m -13.270029,1.906021 0,0.999879 0.999155,0 0,-0.999879 -0.999155,0 z m 11.02193,0 0,0.999879 0.999155,0 0,-0.999879 -0.999155,0 z m -11.02193,1.999759 0,0.99988 0.999155,0 0,-0.99988 -0.999155,0 z m 11.02193,0 0,0.99988 0.999155,0 0,-0.99988 -0.999155,0 z m -9.02362,0.99988 0,4.999399 8.024465,0 0,-4.999399 -8.024465,0 z m -1.99831,0.99988 0,0.99988 0.999155,0 0,-0.99988 -0.999155,0 z m 11.02193,0 0,0.99988 0.999155,0 0,-0.99988 -0.999155,0 z m -11.02193,1.99976 0,0.99988 0.999155,0 0,-0.99988 -0.999155,0 z m 11.02193,0 0,0.99988 0.999155,0 0,-0.99988 -0.999155,0 z m -11.02193,1.999759 0,0.99988 0.999155,0 0,-0.99988 -0.999155,0 z m 11.02193,0 0,0.99988 0.999155,0 0,-0.99988 -0.999155,0 z m -9.02362,0.99988 0,1.99976 c 0,0.978482 -0.999155,1.99976 -0.999155,1.99976 l 8.024464,0 c 0,0 0.999156,-0.99988 0.999156,-1.99976 l 0,-1.99976 -8.024465,0 z m -1.99831,0.99988 0,0.99988 0.999155,0 0,-0.99988 -0.999155,0 z m 11.02193,0 0,0.99988 0.999155,0 0,-0.99988 -0.999155,0 z m -11.302942,1.999761 c -0.296209,0.572941 -0.718143,0.999879 -0.718143,0.999879 l 0.999155,0 c 0,0 0.421935,-0.426938 0.718143,-0.999879 l -0.999155,0 z m 11.02193,0 c -0.296209,0.572941 -0.718143,0.999879 -0.718143,0.999879 l 0.999155,0 c 0,0 0.421934,-0.426938 0.718142,-0.999879 l -0.999154,0 z"
     id="path5430" />
</svg>
