<?xml version="1.0" encoding="UTF-8" standalone="no"?>
<svg
   xmlns:dc="http://purl.org/dc/elements/1.1/"
   xmlns:cc="http://creativecommons.org/ns#"
   xmlns:rdf="http://www.w3.org/1999/02/22-rdf-syntax-ns#"
   xmlns:svg="http://www.w3.org/2000/svg"
   xmlns="http://www.w3.org/2000/svg"
   xmlns:sodipodi="http://sodipodi.sourceforge.net/DTD/sodipodi-0.dtd"
   xmlns:inkscape="http://www.inkscape.org/namespaces/inkscape"
   width="48"
   height="48"
   viewBox="0 0 48 48"
   id="svg2"
   version="1.1"
   inkscape:version="0.48.4 r9939"
   sodipodi:docname="8-ball-pool.svg">
  <defs
     id="defs7" />
  <metadata
     id="metadata35">
    <rdf:RDF>
      <cc:Work
         rdf:about="">
        <dc:format>image/svg+xml</dc:format>
        <dc:type
           rdf:resource="http://purl.org/dc/dcmitype/StillImage" />
        <dc:title />
      </cc:Work>
    </rdf:RDF>
  </metadata>
  <sodipodi:namedview
     pagecolor="#ffffff"
     bordercolor="#666666"
     borderopacity="1"
     objecttolerance="10"
     gridtolerance="10"
     guidetolerance="10"
     inkscape:pageopacity="0"
     inkscape:pageshadow="2"
     inkscape:window-width="1024"
     inkscape:window-height="697"
     id="namedview33"
     showgrid="false"
     inkscape:zoom="8.1611675"
     inkscape:cx="5.549579"
     inkscape:cy="21.261691"
     inkscape:window-x="0"
     inkscape:window-y="24"
     inkscape:window-maximized="1"
     inkscape:current-layer="svg2" />
  <path
     inkscape:connector-curvature="0"
     d="m 47.437,11.547375 0,24.90625 c 0,10.25 0,10.984375 -10.984375,10.984375 l -24.902344,0 C 0.562,47.438 0.562,46.703625 0.562,36.453625 l 0,-24.90625 c 0,-10.2499996 0,-10.9843746 10.988281,-10.9843746 l 24.902344,0 C 47.437,0.5630004 47.437,1.2973754 47.437,11.547375 z"
     id="path11-8"
     style="fill:#0d0d0d;fill-opacity:1" />
  <path
     inkscape:connector-curvature="0"
     d="m 47.437,11.547375 0,20.906625 c 0,10.25 0,10.984 -10.984375,10.984 l -24.902344,0 C 0.562,43.438 0.562,42.704 0.562,32.454 l 0,-20.906625 c 0,-10.2500001 0,-10.9843751 10.988281,-10.9843751 l 24.902344,0 C 47.437,0.5629999 47.437,1.2973749 47.437,11.547375 z"
     id="path11"
     style="fill:#2d2d2d;fill-opacity:1"
     sodipodi:nodetypes="sssssssss" />
  <path
     inkscape:connector-curvature="0"
     id="path15"
     d="m 38.265125,47.438 c 2.542969,-0.01172 4.378906,-0.08203 5.710937,-0.441406 l -4.230468,-7.25 -4.484375,7.691406 1.191406,0 c 0.640625,0 1.242187,0 1.8125,0 z m 1.480469,-7.691406 -5.125,-8.789063 -5.128906,8.789063 z m 0,0 7.652344,0 c 0.03125,-0.972656 0.03906,-2.0625 0.03906,-3.296875 l 0,-1.097657 -2.5625,-4.394531 z m 5.128906,-8.789063 -5.128906,-8.789062 -5.125,8.789062 z m 0,0 2.5625,0 0,-4.394531 z m -10.253906,0 -5.128906,-8.789062 -5.125,8.789062 z m -10.253906,0 -5.128907,8.789063 10.253907,0 z m 0,0 -5.128907,-8.789062 -5.125,8.789062 z m -10.253907,0 -5.128906,8.789063 10.253906,0 z m 0,0 -5.128906,-8.789062 -5.125,8.789062 z m -10.253906,0 L 0.562,36.605969 c 0,1.167969 0.011719,2.210937 0.039062,3.140625 l 8.382813,0 z m 0,0 -3.296875,-5.648437 0,5.648437 z m 5.125,8.789063 -4.3125,7.394531 C 6.269031,47.434094 8.479969,47.438 11.550281,47.438 l 1.921875,0 z m 0,-17.578125 -5.125,-8.789063 -3.296875,5.648438 0,3.140625 z m 0,0 10.253906,0 -5.125,-8.789063 z m 5.128906,-8.789063 -5.128906,-8.7890622 -5.125,8.7890622 z m 0,0 10.253907,0 -5.128907,-8.7890622 z m 5.125,-8.7890622 -2.351562,-4.027344 -5.335938,0 c -0.07813,0 -0.140625,0 -0.214843,0 l -2.351563,4.027344 z m 0,0 10.253907,0 -2.351563,-4.027344 -5.550781,0 z m 10.253907,0 10.253906,0 -2.351563,-4.027344 c -0.3125,0 -0.609375,0 -0.941406,0 l -4.609375,0 z m 0,0 -5.125,8.7890622 10.253906,0 z m 5.128906,8.7890622 10.253906,0 -5.128906,-8.7890622 z m 0,0 -5.128906,8.789063 10.253906,0 z m 5.125,8.789063 7.691406,0 0,-4.394531 -2.5625,-4.394532 z m 5.128906,-8.789063 2.5625,0 0,-1.832031 c 0,-0.914063 -0.0078,-1.75 -0.02344,-2.523437 z m -15.382812,8.789063 -5.125,-8.789063 -5.128907,8.789063 z m 10.253906,-17.5781252 7.308594,0 C 46.4995,1.8325308 45.167469,0.9614378 42.022938,0.6879998 z m -30.761719,0 -2.304687,-3.953125 C 3.019031,0.8442498 1.538562,1.6333118 0.944812,4.5903438 z M 3.858875,13.379406 0.620594,7.8247188 C 0.577625,8.898938 0.562,10.133312 0.562,11.547375 l 0,1.832031 z m 15.378906,26.367188 -4.484375,7.691406 8.972656,0 z m 10.253907,0 -4.484376,7.691406 8.972657,0 z M 2.59325,46.367688 0.991688,43.621594 C 1.284656,44.938 1.776844,45.801281 2.59325,46.367688 z"
     style="fill:#ffffff;fill-opacity:0.04705882" />
  <path
     style="fill:#f9f9f9;fill-opacity:1"
     inkscape:connector-curvature="0"
     d="M 39,24 A 15,15 0 0 1 9,24 15,15 0 1 1 39,24 z"
     id="path4530" />
  <path
     style="fill:#2d2d2d;fill-opacity:1"
     inkscape:connector-curvature="0"
     d="m 32,24 a 8,8.0000001 0 0 1 -16,0 8,8.0000001 0 1 1 16,0 z"
     id="path4532" />
  <g
     style="fill:#f9f9f9;fill-opacity:1"
     transform="matrix(3.7755945,0,0,3.6211042,-1.376691,-0.625749)"
     id="g4534">
    <path
       inkscape:connector-curvature="0"
       d="m 6.720417,5.5579037 c 0.2204849,2.5e-6 0.39522,0.051266 0.5242057,0.1537891 C 7.3736055,5.814221 7.4380976,5.9558832 7.4380993,6.1366798 7.4380976,6.2557441 7.4011663,6.3643334 7.327305,6.462448 7.253441,6.560566 7.1354807,6.6498626 6.9734248,6.7303387 7.169656,6.8240467 7.3091134,6.9227139 7.3917972,7.0263413 7.4744782,7.1288682 7.5158189,7.2479306 7.5158207,7.3835288 7.5158189,7.5841716 7.4458147,7.7445751 7.3058076,7.8647397 7.1657975,7.9838023 6.9739748,8.0433335 6.7303389,8.0433335 6.4723694,8.0433335 6.2739321,7.9871095 6.1350263,7.8746616 5.9961198,7.7611115 5.9266668,7.600708 5.926667,7.3934507 5.9266668,7.1167415 6.0953385,6.9012165 6.4326826,6.7468751 6.2805467,6.6608869 6.1714061,6.5682828 6.1052607,6.4690626 6.0391146,6.3687431 6.0060417,6.2568465 6.006042,6.1333725 6.0060417,5.9580881 6.0705338,5.8186308 6.1995185,5.7150001 6.3296048,5.6102716 6.5032374,5.5579062 6.720417,5.5579037 M 6.1978649,7.4000652 c -5e-7,0.1322922 0.04575,0.2353694 0.1372526,0.3092318 0.092604,0.073863 0.222139,0.1107945 0.3886068,0.1107943 0.164261,2e-7 0.2921428,-0.038585 0.3836458,-0.1157552 0.0915,-0.07717 0.1372511,-0.183003 0.1372526,-0.3175 C 7.2446212,7.279901 7.2016265,7.1850921 7.1156384,7.102409 7.0296475,7.0186253 6.8797171,6.9375967 6.6658467,6.859323 6.5015838,6.9298797 6.3825214,7.0081522 6.3086592,7.0941408 6.2347958,7.1790287 6.1978644,7.2810035 6.1978649,7.4000652 M 6.7171097,5.7811459 C 6.579305,5.7811482 6.471267,5.814221 6.3929951,5.8803647 6.314722,5.9465126 6.2755857,6.0347069 6.2755862,6.144948 c -5e-7,0.1014254 0.032521,0.1885173 0.097565,0.2612761 0.065043,0.072762 0.1852076,0.1455223 0.3604949,0.2182812 C 6.8912926,6.5583609 7.002638,6.4872542 7.0676826,6.411185 7.1338271,6.335119 7.1669,6.2463734 7.1669014,6.144948 7.1669,6.0336045 7.1266613,5.9454102 7.0461852,5.8803647 6.966809,5.814221 6.8571173,5.7811482 6.7171097,5.7811459"
       id="path4536"
       style="fill:#f9f9f9;fill-opacity:1" />
  </g>
</svg>
