<?xml version="1.0" encoding="UTF-8" standalone="no"?>
<svg
   xmlns:dc="http://purl.org/dc/elements/1.1/"
   xmlns:cc="http://creativecommons.org/ns#"
   xmlns:rdf="http://www.w3.org/1999/02/22-rdf-syntax-ns#"
   xmlns:svg="http://www.w3.org/2000/svg"
   xmlns="http://www.w3.org/2000/svg"
   xmlns:sodipodi="http://sodipodi.sourceforge.net/DTD/sodipodi-0.dtd"
   xmlns:inkscape="http://www.inkscape.org/namespaces/inkscape"
   width="48"
   height="48"
   viewBox="0 0 48 48"
   id="svg2"
   version="1.1"
   inkscape:version="0.48.4 r9939"
   sodipodi:docname="abrt.svg">
  <defs
     id="defs7" />
  <metadata
     id="metadata35">
    <rdf:RDF>
      <cc:Work
         rdf:about="">
        <dc:format>image/svg+xml</dc:format>
        <dc:type
           rdf:resource="http://purl.org/dc/dcmitype/StillImage" />
        <dc:title></dc:title>
      </cc:Work>
    </rdf:RDF>
  </metadata>
  <sodipodi:namedview
     pagecolor="#ffffff"
     bordercolor="#666666"
     borderopacity="1"
     objecttolerance="10"
     gridtolerance="10"
     guidetolerance="10"
     inkscape:pageopacity="0"
     inkscape:pageshadow="2"
     inkscape:window-width="1024"
     inkscape:window-height="697"
     id="namedview33"
     showgrid="false"
     inkscape:zoom="7.5273874"
     inkscape:cx="19.105216"
     inkscape:cy="23.9995"
     inkscape:window-x="0"
     inkscape:window-y="24"
     inkscape:window-maximized="1"
     inkscape:current-layer="svg2" />
  <path
     inkscape:connector-curvature="0"
     d="m 47.437,11.547375 0,24.90625 c 0,10.25 0,10.984375 -10.984375,10.984375 l -24.902344,0 C 0.562,47.438 0.562,46.703625 0.562,36.453625 l 0,-24.90625 c 0,-10.2499996 0,-10.9843746 10.988281,-10.9843746 l 24.902344,0 C 47.437,0.5630004 47.437,1.2973754 47.437,11.547375 z"
     id="path11-8"
     style="fill:#013967;fill-opacity:1" />
  <path
     inkscape:connector-curvature="0"
     d="m 47.437,11.547375 0,20.906625 c 0,10.25 0,10.984 -10.984375,10.984 l -24.902344,0 C 0.562,43.438 0.562,42.704 0.562,32.454 l 0,-20.906625 c 0,-10.2500001 0,-10.9843751 10.988281,-10.9843751 l 24.902344,0 C 47.437,0.5629999 47.437,1.2973749 47.437,11.547375 z"
     id="path11"
     style="fill:#215987;fill-opacity:1"
     sodipodi:nodetypes="sssssssss" />
  <path
     inkscape:connector-curvature="0"
     id="path15"
     d="m 38.265125,47.438 c 2.542969,-0.01172 4.378906,-0.08203 5.710937,-0.441406 l -4.230468,-7.25 -4.484375,7.691406 1.191406,0 c 0.640625,0 1.242187,0 1.8125,0 z m 1.480469,-7.691406 -5.125,-8.789063 -5.128906,8.789063 z m 0,0 7.652344,0 c 0.03125,-0.972656 0.03906,-2.0625 0.03906,-3.296875 l 0,-1.097657 -2.5625,-4.394531 z m 5.128906,-8.789063 -5.128906,-8.789062 -5.125,8.789062 z m 0,0 2.5625,0 0,-4.394531 z m -10.253906,0 -5.128906,-8.789062 -5.125,8.789062 z m -10.253906,0 -5.128907,8.789063 10.253907,0 z m 0,0 -5.128907,-8.789062 -5.125,8.789062 z m -10.253907,0 -5.128906,8.789063 10.253906,0 z m 0,0 -5.128906,-8.789062 -5.125,8.789062 z m -10.253906,0 L 0.562,36.605969 c 0,1.167969 0.011719,2.210937 0.039062,3.140625 l 8.382813,0 z m 0,0 -3.296875,-5.648437 0,5.648437 z m 5.125,8.789063 -4.3125,7.394531 C 6.269031,47.434094 8.479969,47.438 11.550281,47.438 l 1.921875,0 z m 0,-17.578125 -5.125,-8.789063 -3.296875,5.648438 0,3.140625 z m 0,0 10.253906,0 -5.125,-8.789063 z m 5.128906,-8.789063 -5.128906,-8.7890622 -5.125,8.7890622 z m 0,0 10.253907,0 -5.128907,-8.7890622 z m 5.125,-8.7890622 -2.351562,-4.027344 -5.335938,0 c -0.07813,0 -0.140625,0 -0.214843,0 l -2.351563,4.027344 z m 0,0 10.253907,0 -2.351563,-4.027344 -5.550781,0 z m 10.253907,0 10.253906,0 -2.351563,-4.027344 c -0.3125,0 -0.609375,0 -0.941406,0 l -4.609375,0 z m 0,0 -5.125,8.7890622 10.253906,0 z m 5.128906,8.7890622 10.253906,0 -5.128906,-8.7890622 z m 0,0 -5.128906,8.789063 10.253906,0 z m 5.125,8.789063 7.691406,0 0,-4.394531 -2.5625,-4.394532 z m 5.128906,-8.789063 2.5625,0 0,-1.832031 c 0,-0.914063 -0.0078,-1.75 -0.02344,-2.523437 z m -15.382812,8.789063 -5.125,-8.789063 -5.128907,8.789063 z m 10.253906,-17.5781252 7.308594,0 C 46.4995,1.8325308 45.167469,0.9614378 42.022938,0.6879998 z m -30.761719,0 -2.304687,-3.953125 C 3.019031,0.8442498 1.538562,1.6333118 0.944812,4.5903438 z M 3.858875,13.379406 0.620594,7.8247188 C 0.577625,8.898938 0.562,10.133312 0.562,11.547375 l 0,1.832031 z m 15.378906,26.367188 -4.484375,7.691406 8.972656,0 z m 10.253907,0 -4.484376,7.691406 8.972657,0 z M 2.59325,46.367688 0.991688,43.621594 C 1.284656,44.938 1.776844,45.801281 2.59325,46.367688 z"
     style="fill:#ffffff;fill-opacity:0.07058824" />
  <g
     style="fill:#f9f9f9"
     transform="matrix(2.7830196,0,0,2.7020905,1.6919999,-765.79435)"
     id="g15860">
    <path
       inkscape:connector-curvature="0"
       d="m 9.0850016,288.86606 c 0,0.56162 -0.4571165,1.017 -1.0207815,1.017 -0.563664,0 -1.0211262,-0.45538 -1.0211262,-1.017 0,-0.56129 0.4574622,-1.017 1.0211262,-1.017 0.563665,0 1.0207815,0.45571 1.0207815,1.017 z m 2.5488654,1.08156 c -0.04742,0.006 -0.09211,0.0263 -0.130264,0.0539 l -3.4878458,0.5418 -3.4692859,-0.54897 c -0.089702,-0.0649 -0.2158412,-0.0842 -0.3158565,-0.0362 -0.1003594,0.0482 -0.1660068,0.16192 -0.1673804,0.27056 -0.00144,0.10853 0.068391,0.2019 0.1673804,0.25245 l 2.718306,0.85916 -0.018574,1.97182 -0.9592619,2.95328 c -0.092452,0.13426 -0.064272,0.30713 0.074243,0.39664 0.1388548,0.0898 0.3351072,0.0625 0.4275604,-0.072 l 1.5480165,-3.18765 1.5188004,3.18217 c 0.082145,0.13936 0.2653344,0.18787 0.4089994,0.1082 0.1436664,-0.08 0.1935014,-0.25756 0.1113584,-0.39694 l -0.9413894,-2.96592 -0.037115,-1.85636 2.7564584,-1.00298 c 0.111356,-0.0759 0.159821,-0.21935 0.111704,-0.34267 -0.04847,-0.12331 -0.180786,-0.1954 -0.316206,-0.18034 h 3.14e-4 z"
       id="path15862"
       style="fill:#f9f9f9;fill-opacity:1" />
  </g>
</svg>
