<?xml version="1.0" encoding="UTF-8" standalone="no"?>
<svg
   xmlns:dc="http://purl.org/dc/elements/1.1/"
   xmlns:cc="http://creativecommons.org/ns#"
   xmlns:rdf="http://www.w3.org/1999/02/22-rdf-syntax-ns#"
   xmlns:svg="http://www.w3.org/2000/svg"
   xmlns="http://www.w3.org/2000/svg"
   xmlns:sodipodi="http://sodipodi.sourceforge.net/DTD/sodipodi-0.dtd"
   xmlns:inkscape="http://www.inkscape.org/namespaces/inkscape"
   width="48"
   height="48"
   viewBox="0 0 48 48"
   id="svg2"
   version="1.1"
   inkscape:version="0.48.4 r9939"
   sodipodi:docname="accessories-podcast.svg">
  <defs
     id="defs7" />
  <metadata
     id="metadata35">
    <rdf:RDF>
      <cc:Work
         rdf:about="">
        <dc:format>image/svg+xml</dc:format>
        <dc:type
           rdf:resource="http://purl.org/dc/dcmitype/StillImage" />
        <dc:title></dc:title>
      </cc:Work>
    </rdf:RDF>
  </metadata>
  <sodipodi:namedview
     pagecolor="#ffffff"
     bordercolor="#666666"
     borderopacity="1"
     objecttolerance="10"
     gridtolerance="10"
     guidetolerance="10"
     inkscape:pageopacity="0"
     inkscape:pageshadow="2"
     inkscape:window-width="1024"
     inkscape:window-height="697"
     id="namedview33"
     showgrid="false"
     inkscape:zoom="7.5273874"
     inkscape:cx="29.733073"
     inkscape:cy="23.9995"
     inkscape:window-x="0"
     inkscape:window-y="24"
     inkscape:window-maximized="1"
     inkscape:current-layer="svg2" />
  <path
     inkscape:connector-curvature="0"
     d="m 47.437,11.547375 0,24.90625 c 0,10.25 0,10.984375 -10.984375,10.984375 l -24.902344,0 C 0.562,47.438 0.562,46.703625 0.562,36.453625 l 0,-24.90625 c 0,-10.2499996 0,-10.9843746 10.988281,-10.9843746 l 24.902344,0 C 47.437,0.5630004 47.437,1.2973754 47.437,11.547375 z"
     id="path11-8"
     style="fill:#666666;fill-opacity:1" />
  <path
     inkscape:connector-curvature="0"
     d="m 47.437,11.547375 0,20.906625 c 0,10.25 0,10.984 -10.984375,10.984 l -24.902344,0 C 0.562,43.438 0.562,42.704 0.562,32.454 l 0,-20.906625 c 0,-10.2500001 0,-10.9843751 10.988281,-10.9843751 l 24.902344,0 C 47.437,0.5629999 47.437,1.2973749 47.437,11.547375 z"
     id="path11"
     style="fill:#868686;fill-opacity:1"
     sodipodi:nodetypes="sssssssss" />
  <path
     inkscape:connector-curvature="0"
     id="path15"
     d="m 38.265125,47.438 c 2.542969,-0.01172 4.378906,-0.08203 5.710937,-0.441406 l -4.230468,-7.25 -4.484375,7.691406 1.191406,0 c 0.640625,0 1.242187,0 1.8125,0 z m 1.480469,-7.691406 -5.125,-8.789063 -5.128906,8.789063 z m 0,0 7.652344,0 c 0.03125,-0.972656 0.03906,-2.0625 0.03906,-3.296875 l 0,-1.097657 -2.5625,-4.394531 z m 5.128906,-8.789063 -5.128906,-8.789062 -5.125,8.789062 z m 0,0 2.5625,0 0,-4.394531 z m -10.253906,0 -5.128906,-8.789062 -5.125,8.789062 z m -10.253906,0 -5.128907,8.789063 10.253907,0 z m 0,0 -5.128907,-8.789062 -5.125,8.789062 z m -10.253907,0 -5.128906,8.789063 10.253906,0 z m 0,0 -5.128906,-8.789062 -5.125,8.789062 z m -10.253906,0 L 0.562,36.605969 c 0,1.167969 0.011719,2.210937 0.039062,3.140625 l 8.382813,0 z m 0,0 -3.296875,-5.648437 0,5.648437 z m 5.125,8.789063 -4.3125,7.394531 C 6.269031,47.434094 8.479969,47.438 11.550281,47.438 l 1.921875,0 z m 0,-17.578125 -5.125,-8.789063 -3.296875,5.648438 0,3.140625 z m 0,0 10.253906,0 -5.125,-8.789063 z m 5.128906,-8.789063 -5.128906,-8.7890622 -5.125,8.7890622 z m 0,0 10.253907,0 -5.128907,-8.7890622 z m 5.125,-8.7890622 -2.351562,-4.027344 -5.335938,0 c -0.07813,0 -0.140625,0 -0.214843,0 l -2.351563,4.027344 z m 0,0 10.253907,0 -2.351563,-4.027344 -5.550781,0 z m 10.253907,0 10.253906,0 -2.351563,-4.027344 c -0.3125,0 -0.609375,0 -0.941406,0 l -4.609375,0 z m 0,0 -5.125,8.7890622 10.253906,0 z m 5.128906,8.7890622 10.253906,0 -5.128906,-8.7890622 z m 0,0 -5.128906,8.789063 10.253906,0 z m 5.125,8.789063 7.691406,0 0,-4.394531 -2.5625,-4.394532 z m 5.128906,-8.789063 2.5625,0 0,-1.832031 c 0,-0.914063 -0.0078,-1.75 -0.02344,-2.523437 z m -15.382812,8.789063 -5.125,-8.789063 -5.128907,8.789063 z m 10.253906,-17.5781252 7.308594,0 C 46.4995,1.8325308 45.167469,0.9614378 42.022938,0.6879998 z m -30.761719,0 -2.304687,-3.953125 C 3.019031,0.8442498 1.538562,1.6333118 0.944812,4.5903438 z M 3.858875,13.379406 0.620594,7.8247188 C 0.577625,8.898938 0.562,10.133312 0.562,11.547375 l 0,1.832031 z m 15.378906,26.367188 -4.484375,7.691406 8.972656,0 z m 10.253907,0 -4.484376,7.691406 8.972657,0 z M 2.59325,46.367688 0.991688,43.621594 C 1.284656,44.938 1.776844,45.801281 2.59325,46.367688 z"
     style="fill:#ffffff;fill-opacity:0.10196079" />
  <path
     style="color:#000000;fill:#f9f9f9;fill-opacity:1"
     inkscape:connector-curvature="0"
     d="m 15.062599,21 -0.0625,6 c -0.01129,1.083368 0.944853,2 2,2 l 4,0 c 0,2 -1,4 -1,6 0,1.083427 1.827786,2 4,2 1.94541,0 4,-0.916573 4,-2 0,-2 -1,-4 -1,-6 l 4,0 c 1.055147,0 2,-0.916573 2,-2 l 0,-6 -17.9375,0 z m 8.9375,12 c 0.552285,0 1,0.447715 1,1 0,0.552285 -0.447715,1 -1,1 -0.552285,0 -1,-0.447715 -1,-1 0,-0.552285 0.447715,-1 1,-1 z"
     id="path9641" />
  <path
     style="fill:#f9f9f9"
     inkscape:connector-curvature="0"
     d="m 19.999769,21 c 0.0031,-4 0.0031,-5 -1.999933,-7.030013 -1.39058,-1.004288 -2.999902,-1.553508 -4.999836,0 2.999901,1.004287 2.999901,4.01715 2.999901,7.030013 z"
     id="path9643" />
  <path
     style="fill:#f9f9f9"
     inkscape:connector-curvature="0"
     d="M 22.999769,21 C 23,19 22.5625,17 22,16 20.60942,14.995712 19.531184,14 16,13.969987 18.999901,14.974274 18.999901,17.987137 18.999901,21 z"
     id="path9645" />
  <path
     style="fill:#f9f9f9"
     inkscape:connector-curvature="0"
     d="m 25.999769,21 c 0.0031,-4 0.0033,-3.969987 -1.999769,-6 -1.346386,-1 -2.624416,-1.661392 -5,-1.5 2,2.030013 2.999901,4.487137 2.999901,7.5 z"
     id="path9647" />
  <path
     style="fill:#f9f9f9"
     inkscape:connector-curvature="0"
     d="M 28.999769,21 C 29.002869,17 30.003033,16.030013 28,14 c -1.39058,-1.004288 -4,-1 -6,1 4,-0.515625 2.999901,2.987137 2.999901,6 z"
     id="path9649" />
  <path
     style="fill:#f9f9f9"
     inkscape:connector-curvature="0"
     d="M 31.999769,21 C 32,16 32,14 29,13 c -1,1 -1.000099,4.987137 -1.000099,8 z"
     id="path9651" />
  <path
     style="fill:#4a4a4a"
     inkscape:connector-curvature="0"
     d="m 23.936989,33.99004 0.01234,0 c 0.0037,0 0.0065,8.39e-4 0.0084,0.0025 0.002,0.0016 0.0029,0.004 0.0029,0.007 0,0.0031 -9.58e-4,0.0053 -0.0029,0.007 -0.002,0.0016 -0.0048,0.0024 -0.0084,0.0024 l -0.0049,0 0,0.01001 -0.0074,0 0,-0.02886 m 0.0074,0.0054 0,0.0081 0.0041,0 c 0.0014,0 0.0025,-3.89e-4 0.0034,-0.0011 7.79e-4,-7.19e-4 0.0011,-0.0017 0.0011,-0.003 0,-0.0013 -3.9e-4,-0.0023 -0.0011,-0.0029 -7.78e-4,-7.19e-4 -0.0019,-10e-4 -0.0034,-10e-4 l -0.0041,0 m 0.0347,-5.09e-4 c -0.0023,0 -0.004,8.39e-4 -0.0053,0.0025 -0.0013,0.0017 -0.0019,0.004 -0.0019,0.0071 0,0.0031 5.99e-4,0.0054 0.0019,0.0071 0.0013,0.0017 0.003,0.0025 0.0053,0.0025 0.0023,0 0.004,-8.39e-4 0.0053,-0.0025 0.0013,-0.0017 0.0019,-0.004 0.0019,-0.0071 0,-0.0031 -5.99e-4,-0.0054 -0.0019,-0.0071 -0.0013,-0.0017 -0.003,-0.0025 -0.0053,-0.0025 m 0,-0.0054 c 0.0046,0 0.0083,0.0013 0.01089,0.004 0.0026,0.0026 0.004,0.0063 0.004,0.011 0,0.0047 -0.0013,0.0083 -0.004,0.01098 -0.0026,0.0026 -0.0063,0.004 -0.01089,0.004 -0.0046,0 -0.0083,-0.0013 -0.01089,-0.004 -0.0026,-0.0026 -0.004,-0.0063 -0.004,-0.01098 0,-0.0047 0.0013,-0.0083 0.004,-0.011 0.0026,-0.0026 0.0063,-0.004 0.01089,-0.004 m 0.02043,5.09e-4 0.0083,0 0.01049,0.01979 0,-0.01979 0.007,0 0,0.02886 -0.0083,0 -0.01049,-0.01979 0,0.01979 -0.007,0 0,-0.02886 m 0.02904,0 0.0081,0 0.0066,0.01028 0.0066,-0.01028 0.0081,0 -0.01098,0.0167 0,0.01216 -0.0074,0 0,-0.01216 -0.01098,-0.0167"
     id="path9653" />
</svg>
