<?xml version="1.0" encoding="UTF-8" standalone="no"?>
<svg
   xmlns:dc="http://purl.org/dc/elements/1.1/"
   xmlns:cc="http://creativecommons.org/ns#"
   xmlns:rdf="http://www.w3.org/1999/02/22-rdf-syntax-ns#"
   xmlns:svg="http://www.w3.org/2000/svg"
   xmlns="http://www.w3.org/2000/svg"
   xmlns:sodipodi="http://sodipodi.sourceforge.net/DTD/sodipodi-0.dtd"
   xmlns:inkscape="http://www.inkscape.org/namespaces/inkscape"
   width="48"
   height="48"
   viewBox="0 0 48 48"
   id="svg2"
   version="1.1"
   inkscape:version="0.48.4 r9939"
   sodipodi:docname="accessories-dictionary.svg">
  <defs
     id="defs7" />
  <metadata
     id="metadata35">
    <rdf:RDF>
      <cc:Work
         rdf:about="">
        <dc:format>image/svg+xml</dc:format>
        <dc:type
           rdf:resource="http://purl.org/dc/dcmitype/StillImage" />
        <dc:title></dc:title>
      </cc:Work>
    </rdf:RDF>
  </metadata>
  <sodipodi:namedview
     pagecolor="#ffffff"
     bordercolor="#666666"
     borderopacity="1"
     objecttolerance="10"
     gridtolerance="10"
     guidetolerance="10"
     inkscape:pageopacity="0"
     inkscape:pageshadow="2"
     inkscape:window-width="1024"
     inkscape:window-height="697"
     id="namedview33"
     showgrid="false"
     inkscape:zoom="7.5273874"
     inkscape:cx="29.733073"
     inkscape:cy="23.9995"
     inkscape:window-x="0"
     inkscape:window-y="24"
     inkscape:window-maximized="1"
     inkscape:current-layer="svg2" />
  <path
     inkscape:connector-curvature="0"
     d="m 47.437,11.547375 0,24.90625 c 0,10.25 0,10.984375 -10.984375,10.984375 l -24.902344,0 C 0.562,47.438 0.562,46.703625 0.562,36.453625 l 0,-24.90625 c 0,-10.2499996 0,-10.9843746 10.988281,-10.9843746 l 24.902344,0 C 47.437,0.5630004 47.437,1.2973754 47.437,11.547375 z"
     id="path11-8"
     style="fill:#ca0606;fill-opacity:1" />
  <path
     inkscape:connector-curvature="0"
     d="m 47.437,11.547375 0,20.906625 c 0,10.25 0,10.984 -10.984375,10.984 l -24.902344,0 C 0.562,43.438 0.562,42.704 0.562,32.454 l 0,-20.906625 c 0,-10.2500001 0,-10.9843751 10.988281,-10.9843751 l 24.902344,0 C 47.437,0.5629999 47.437,1.2973749 47.437,11.547375 z"
     id="path11"
     style="fill:#ea2626;fill-opacity:1"
     sodipodi:nodetypes="sssssssss" />
  <path
     inkscape:connector-curvature="0"
     id="path15"
     d="m 38.265125,47.438 c 2.542969,-0.01172 4.378906,-0.08203 5.710937,-0.441406 l -4.230468,-7.25 -4.484375,7.691406 1.191406,0 c 0.640625,0 1.242187,0 1.8125,0 z m 1.480469,-7.691406 -5.125,-8.789063 -5.128906,8.789063 z m 0,0 7.652344,0 c 0.03125,-0.972656 0.03906,-2.0625 0.03906,-3.296875 l 0,-1.097657 -2.5625,-4.394531 z m 5.128906,-8.789063 -5.128906,-8.789062 -5.125,8.789062 z m 0,0 2.5625,0 0,-4.394531 z m -10.253906,0 -5.128906,-8.789062 -5.125,8.789062 z m -10.253906,0 -5.128907,8.789063 10.253907,0 z m 0,0 -5.128907,-8.789062 -5.125,8.789062 z m -10.253907,0 -5.128906,8.789063 10.253906,0 z m 0,0 -5.128906,-8.789062 -5.125,8.789062 z m -10.253906,0 L 0.562,36.605969 c 0,1.167969 0.011719,2.210937 0.039062,3.140625 l 8.382813,0 z m 0,0 -3.296875,-5.648437 0,5.648437 z m 5.125,8.789063 -4.3125,7.394531 C 6.269031,47.434094 8.479969,47.438 11.550281,47.438 l 1.921875,0 z m 0,-17.578125 -5.125,-8.789063 -3.296875,5.648438 0,3.140625 z m 0,0 10.253906,0 -5.125,-8.789063 z m 5.128906,-8.789063 -5.128906,-8.7890622 -5.125,8.7890622 z m 0,0 10.253907,0 -5.128907,-8.7890622 z m 5.125,-8.7890622 -2.351562,-4.027344 -5.335938,0 c -0.07813,0 -0.140625,0 -0.214843,0 l -2.351563,4.027344 z m 0,0 10.253907,0 -2.351563,-4.027344 -5.550781,0 z m 10.253907,0 10.253906,0 -2.351563,-4.027344 c -0.3125,0 -0.609375,0 -0.941406,0 l -4.609375,0 z m 0,0 -5.125,8.7890622 10.253906,0 z m 5.128906,8.7890622 10.253906,0 -5.128906,-8.7890622 z m 0,0 -5.128906,8.789063 10.253906,0 z m 5.125,8.789063 7.691406,0 0,-4.394531 -2.5625,-4.394532 z m 5.128906,-8.789063 2.5625,0 0,-1.832031 c 0,-0.914063 -0.0078,-1.75 -0.02344,-2.523437 z m -15.382812,8.789063 -5.125,-8.789063 -5.128907,8.789063 z m 10.253906,-17.5781252 7.308594,0 C 46.4995,1.8325308 45.167469,0.9614378 42.022938,0.6879998 z m -30.761719,0 -2.304687,-3.953125 C 3.019031,0.8442498 1.538562,1.6333118 0.944812,4.5903438 z M 3.858875,13.379406 0.620594,7.8247188 C 0.577625,8.898938 0.562,10.133312 0.562,11.547375 l 0,1.832031 z m 15.378906,26.367188 -4.484375,7.691406 8.972656,0 z m 10.253907,0 -4.484376,7.691406 8.972657,0 z M 2.59325,46.367688 0.991688,43.621594 C 1.284656,44.938 1.776844,45.801281 2.59325,46.367688 z"
     style="fill:#ffffff;fill-opacity:0.08235294" />
  <path
     style="line-height:125%;letter-spacing:0;word-spacing:0;fill:#f9f9f9;fill-opacity:1"
     inkscape:connector-curvature="0"
     id="path5003"
     d="m 37.999592,16.664482 c -3.427646,3.049942 -13.683757,14.555939 -15.420432,14.555939 -1.142549,0 -2.102292,-0.797681 -2.422206,-2.017707 C 19.974146,28.45196 20.255304,29.403994 10,34 c 1.028295,-0.6569 8.218166,-6.181638 9.155058,-6.850229 0.936892,-0.668672 5.549248,-3.906077 6.897456,-4.938394 2.467906,-1.923852 3.42765,-3.472287 3.42765,-5.583766 0,-1.642289 -1.005445,-2.627679 -2.605014,-2.627679 -1.005443,0 -1.736677,0.234634 -2.787823,0.844608 -1.736675,1.032317 -3.290546,2.299188 -4.250287,3.425359 -1.736674,2.158408 -3.290545,7.319829 -3.290545,11.120524 0,2.76846 1.416765,4.504522 3.747565,4.504522 2.696416,0 12.174762,-9.22643 15.785216,-12.933271 l 1.920316,-4.297192 M 20.06555,24.885901 c 0.776933,-5.020639 2.879229,-8.91519 4.844414,-8.91519 0.776932,0 1.279656,0.797681 1.279656,1.923771 0,2.346116 -1.23396,3.753768 -6.12407,6.991419" />
</svg>
