<?xml version="1.0" encoding="UTF-8" standalone="no"?>
<svg
   xmlns:dc="http://purl.org/dc/elements/1.1/"
   xmlns:cc="http://creativecommons.org/ns#"
   xmlns:rdf="http://www.w3.org/1999/02/22-rdf-syntax-ns#"
   xmlns:svg="http://www.w3.org/2000/svg"
   xmlns="http://www.w3.org/2000/svg"
   xmlns:sodipodi="http://sodipodi.sourceforge.net/DTD/sodipodi-0.dtd"
   xmlns:inkscape="http://www.inkscape.org/namespaces/inkscape"
   width="48"
   height="48"
   viewBox="0 0 48 48"
   id="svg2"
   version="1.1"
   inkscape:version="0.48.4 r9939"
   sodipodi:docname="accessories-dictionary.svg">
  <defs
     id="defs7713" />
  <metadata
     id="metadata35">
    <rdf:RDF>
      <cc:Work
         rdf:about="">
        <dc:format>image/svg+xml</dc:format>
        <dc:type
           rdf:resource="http://purl.org/dc/dcmitype/StillImage" />
        <dc:title />
      </cc:Work>
    </rdf:RDF>
  </metadata>
  <sodipodi:namedview
     pagecolor="#ffffff"
     bordercolor="#666666"
     borderopacity="1"
     objecttolerance="10"
     gridtolerance="10"
     guidetolerance="10"
     inkscape:pageopacity="0"
     inkscape:pageshadow="2"
     inkscape:window-width="1024"
     inkscape:window-height="711"
     id="namedview33"
     showgrid="false"
     inkscape:zoom="4.9166667"
     inkscape:cx="-15.661017"
     inkscape:cy="23.59322"
     inkscape:window-x="0"
     inkscape:window-y="0"
     inkscape:window-maximized="1"
     inkscape:current-layer="svg2" />
  <path
     fill="#808080"
     d="M 47.4375 11.546875 L 47.4375 36.453125 C 47.4375 46.703125 47.4375 47.4375 36.453125 47.4375 L 11.550781 47.4375 C 0.5625 47.4375 0.5625 46.703125 0.5625 36.453125 L 0.5625 11.546875 C 0.5625 1.296875 0.5625 0.5625 11.550781 0.5625 L 36.453125 0.5625 C 47.4375 0.5625 47.4375 1.296875 47.4375 11.546875 Z "
     id="path11"
     style="fill:#e8282d;fill-opacity:1" />
  <path
     inkscape:connector-curvature="0"
     id="path15"
     d="m 38.265625,47.4375 c 2.542969,-0.01172 4.378906,-0.08203 5.710937,-0.441406 l -4.230468,-7.25 -4.484375,7.691406 1.191406,0 c 0.640625,0 1.242187,0 1.8125,0 z m 1.480469,-7.691406 -5.125,-8.789063 -5.128906,8.789063 z m 0,0 7.652344,0 c 0.03125,-0.972656 0.03906,-2.0625 0.03906,-3.296875 l 0,-1.097657 -2.5625,-4.394531 z m 5.128906,-8.789063 -5.128906,-8.789062 -5.125,8.789062 z m 0,0 2.5625,0 0,-4.394531 z m -10.253906,0 -5.128906,-8.789062 -5.125,8.789062 z m -10.253906,0 -5.128907,8.789063 10.253907,0 z m 0,0 -5.128907,-8.789062 -5.125,8.789062 z m -10.253907,0 -5.128906,8.789063 10.253906,0 z m 0,0 -5.128906,-8.789062 -5.125,8.789062 z m -10.253906,0 -3.296875,5.648438 c 0,1.167969 0.011719,2.210937 0.039062,3.140625 l 8.382813,0 z m 0,0 -3.296875,-5.648437 0,5.648437 z m 5.125,8.789063 -4.3125,7.394531 c 1.597656,0.292969 3.808594,0.296875 6.878906,0.296875 l 1.921875,0 z m 0,-17.578125 -5.125,-8.789063 -3.296875,5.648438 0,3.140625 z m 0,0 10.253906,0 -5.125,-8.789063 z m 5.128906,-8.789063 -5.128906,-8.789062 -5.125,8.789062 z m 0,0 10.253907,0 -5.128907,-8.789062 z m 5.125,-8.789062 -2.351562,-4.027344 -5.335938,0 c -0.07813,0 -0.140625,0 -0.214843,0 L 8.984375,4.589844 z m 0,0 10.253907,0 -2.351563,-4.027344 -5.550781,0 z m 10.253907,0 10.253906,0 L 37.394531,0.5625 c -0.3125,0 -0.609375,0 -0.941406,0 l -4.609375,0 z m 0,0 -5.125,8.789062 10.253906,0 z m 5.128906,8.789062 10.253906,0 -5.128906,-8.789062 z m 0,0 -5.128906,8.789063 10.253906,0 z m 5.125,8.789063 7.691406,0 0,-4.394531 -2.5625,-4.394532 z m 5.128906,-8.789063 2.5625,0 0,-1.832031 c 0,-0.914063 -0.0078,-1.75 -0.02344,-2.523437 z m -15.382812,8.789063 -5.125,-8.789063 -5.128907,8.789063 z m 10.253906,-17.578125 7.308594,0 C 46.5,1.832031 45.167969,0.960938 42.023438,0.6875 z m -30.761719,0 L 6.679688,0.636719 C 3.019531,0.84375 1.539062,1.632812 0.945312,4.589844 z m -5.125,8.789062 L 0.621094,7.824219 C 0.578125,8.898438 0.5625,10.132812 0.5625,11.546875 l 0,1.832031 z m 15.378906,26.367188 -4.484375,7.691406 8.972656,0 z m 10.253907,0 -4.484376,7.691406 8.972657,0 z M 2.59375,46.367188 0.992188,43.621094 c 0.292968,1.316406 0.785156,2.179687 1.601562,2.746094 z"
     style="fill:#ffffff;fill-opacity:0.07058824" />
  <path
     inkscape:connector-curvature="0"
     style="fill:#f9f9f9"
     d="m 12.000001,29.454546 c 0,0 0,5.454545 6,5.454545 l 12,0 C 36,34.909091 36,29.454546 36,29.454546 l 0,-10.909092 c 0,-5.454545 -6,-5.454545 -6,-5.454545 l -12,0 c -6,0 -6,5.454545 -6,5.454545 z"
     id="path7694" />
  <g
     transform="matrix(3.543307,0,0,3.543307,0,1.0000001)"
     style="line-height:125%;letter-spacing:0;word-spacing:0;fill:#e8282d;fill-opacity:1"
     id="g7698">
    <path
       inkscape:connector-curvature="0"
       d="m 6.7444772,7.8642892 -0.3621998,-0.8819444 -1.1662035,0 -0.3582196,0.8819444 -0.3422986,0 1.1502828,-2.7842891 0.2845855,0 1.1443124,2.7842891 -0.3502592,0 M 6.2768018,6.6921564 5.9384832,5.832972 C 5.8946995,5.7242324 5.8495904,5.5908347 5.803156,5.4327778 5.7739664,5.5541659 5.7321741,5.6875639 5.6777789,5.832972 l -0.3422986,0.8591844 0.9413215,0"
       id="path7700"
       style="fill:#e8282d;fill-opacity:1" />
    <path
       inkscape:connector-curvature="0"
       d="m 8.7863287,7.8642892 -0.065674,-0.295878 -0.015922,0 C 8.5959394,7.6986481 8.487147,7.7871586 8.3783559,7.8339428 8.2708887,7.8794623 8.1362248,7.9022221 7.9743636,7.9022224 7.7581048,7.9022221 7.5882823,7.8491159 7.4648958,7.7429033 7.3428358,7.6366908 7.2818056,7.4855907 7.2818059,7.2896029 7.2818056,6.8698107 7.6340546,6.649799 8.3385536,6.6295668 l 0.3701601,-0.011381 0,-0.1289725 C 8.7087123,6.3261023 8.6715636,6.205981 8.5972678,6.1288487 8.5242957,6.0504553 8.4068794,6.0112578 8.2450185,6.0112561 8.0632544,6.0112578 7.8576099,6.0643643 7.6280848,6.1705752 L 7.5265892,5.9297 C 7.6340546,5.874067 7.7514709,5.830444 7.8788384,5.7988308 c 0.128693,-0.031609 0.2573864,-0.047414 0.3860811,-0.047416 0.2600397,2.2e-6 0.4524164,0.055005 0.5771315,0.165009 0.1260383,0.1100079 0.1890586,0.2863964 0.1890603,0.5291669 l 0,1.4186977 -0.2447832,0 M 8.0400372,7.6423792 c 0.2056437,2e-7 0.3668422,-0.053738 0.4835965,-0.1612158 C 8.641712,7.3736868 8.7007517,7.2232191 8.7007535,7.0297596 l 0,-0.1877689 -0.3303581,0.013276 c -0.2626953,0.00885 -0.4524188,0.04805 -0.569171,0.1175926 -0.1154271,0.06828 -0.1731402,0.1751253 -0.1731396,0.3205348 -6e-7,0.1137995 0.035821,0.2004135 0.107466,0.2598416 0.07297,0.059429 0.1744653,0.089143 0.3044864,0.089143"
       id="path7702"
       style="fill:#e8282d;fill-opacity:1" />
  </g>
</svg>
