<?xml version="1.0" encoding="UTF-8" standalone="no"?>
<svg
   xmlns:dc="http://purl.org/dc/elements/1.1/"
   xmlns:cc="http://creativecommons.org/ns#"
   xmlns:rdf="http://www.w3.org/1999/02/22-rdf-syntax-ns#"
   xmlns:svg="http://www.w3.org/2000/svg"
   xmlns="http://www.w3.org/2000/svg"
   xmlns:sodipodi="http://sodipodi.sourceforge.net/DTD/sodipodi-0.dtd"
   xmlns:inkscape="http://www.inkscape.org/namespaces/inkscape"
   width="48"
   height="48"
   viewBox="0 0 48 48"
   id="svg2"
   version="1.1"
   inkscape:version="0.48.4 r9939"
   sodipodi:docname="Template Icon.svg">
  <defs
     id="defs3019" />
  <metadata
     id="metadata35">
    <rdf:RDF>
      <cc:Work
         rdf:about="">
        <dc:format>image/svg+xml</dc:format>
        <dc:type
           rdf:resource="http://purl.org/dc/dcmitype/StillImage" />
        <dc:title></dc:title>
      </cc:Work>
    </rdf:RDF>
  </metadata>
  <sodipodi:namedview
     pagecolor="#ffffff"
     bordercolor="#666666"
     borderopacity="1"
     objecttolerance="10"
     gridtolerance="10"
     guidetolerance="10"
     inkscape:pageopacity="0"
     inkscape:pageshadow="2"
     inkscape:window-width="1024"
     inkscape:window-height="711"
     id="namedview33"
     showgrid="false"
     inkscape:zoom="4.9166667"
     inkscape:cx="6.3875401"
     inkscape:cy="31.728813"
     inkscape:window-x="0"
     inkscape:window-y="0"
     inkscape:window-maximized="1"
     inkscape:current-layer="svg2" />
  <path
     fill="#808080"
     d="M 47.4375 11.546875 L 47.4375 36.453125 C 47.4375 46.703125 47.4375 47.4375 36.453125 47.4375 L 11.550781 47.4375 C 0.5625 47.4375 0.5625 46.703125 0.5625 36.453125 L 0.5625 11.546875 C 0.5625 1.296875 0.5625 0.5625 11.550781 0.5625 L 36.453125 0.5625 C 47.4375 0.5625 47.4375 1.296875 47.4375 11.546875 Z "
     id="path11"
     style="fill:#690082;fill-opacity:1" />
  <path
     inkscape:connector-curvature="0"
     id="path15"
     d="m 38.265625,47.4375 c 2.542969,-0.01172 4.378906,-0.08203 5.710937,-0.441406 l -4.230468,-7.25 -4.484375,7.691406 1.191406,0 c 0.640625,0 1.242187,0 1.8125,0 z m 1.480469,-7.691406 -5.125,-8.789063 -5.128906,8.789063 z m 0,0 7.652344,0 c 0.03125,-0.972656 0.03906,-2.0625 0.03906,-3.296875 l 0,-1.097657 -2.5625,-4.394531 z m 5.128906,-8.789063 -5.128906,-8.789062 -5.125,8.789062 z m 0,0 2.5625,0 0,-4.394531 z m -10.253906,0 -5.128906,-8.789062 -5.125,8.789062 z m -10.253906,0 -5.128907,8.789063 10.253907,0 z m 0,0 -5.128907,-8.789062 -5.125,8.789062 z m -10.253907,0 -5.128906,8.789063 10.253906,0 z m 0,0 -5.128906,-8.789062 -5.125,8.789062 z m -10.253906,0 -3.296875,5.648438 c 0,1.167969 0.011719,2.210937 0.039062,3.140625 l 8.382813,0 z m 0,0 -3.296875,-5.648437 0,5.648437 z m 5.125,8.789063 -4.3125,7.394531 c 1.597656,0.292969 3.808594,0.296875 6.878906,0.296875 l 1.921875,0 z m 0,-17.578125 -5.125,-8.789063 -3.296875,5.648438 0,3.140625 z m 0,0 10.253906,0 -5.125,-8.789063 z m 5.128906,-8.789063 -5.128906,-8.789062 -5.125,8.789062 z m 0,0 10.253907,0 -5.128907,-8.789062 z m 5.125,-8.789062 -2.351562,-4.027344 -5.335938,0 c -0.07813,0 -0.140625,0 -0.214843,0 L 8.984375,4.589844 z m 0,0 10.253907,0 -2.351563,-4.027344 -5.550781,0 z m 10.253907,0 10.253906,0 L 37.394531,0.5625 c -0.3125,0 -0.609375,0 -0.941406,0 l -4.609375,0 z m 0,0 -5.125,8.789062 10.253906,0 z m 5.128906,8.789062 10.253906,0 -5.128906,-8.789062 z m 0,0 -5.128906,8.789063 10.253906,0 z m 5.125,8.789063 7.691406,0 0,-4.394531 -2.5625,-4.394532 z m 5.128906,-8.789063 2.5625,0 0,-1.832031 c 0,-0.914063 -0.0078,-1.75 -0.02344,-2.523437 z m -15.382812,8.789063 -5.125,-8.789063 -5.128907,8.789063 z m 10.253906,-17.578125 7.308594,0 C 46.5,1.832031 45.167969,0.960938 42.023438,0.6875 z m -30.761719,0 L 6.679688,0.636719 C 3.019531,0.84375 1.539062,1.632812 0.945312,4.589844 z m -5.125,8.789062 L 0.621094,7.824219 C 0.578125,8.898438 0.5625,10.132812 0.5625,11.546875 l 0,1.832031 z m 15.378906,26.367188 -4.484375,7.691406 8.972656,0 z m 10.253907,0 -4.484376,7.691406 8.972657,0 z M 2.59375,46.367188 0.992188,43.621094 c 0.292968,1.316406 0.785156,2.179687 1.601562,2.746094 z"
     style="fill:#ffffff;fill-opacity:0.05100002" />
  <path
     sodipodi:type="arc"
     style="fill:#f9f9f9;fill-opacity:1;stroke-width:1.25;stroke-miterlimit:4;stroke-dasharray:none"
     id="path3218"
     sodipodi:cx="10.779661"
     sodipodi:cy="11.898305"
     sodipodi:rx="2.4406779"
     sodipodi:ry="1.7288135"
     d="m 13.220339,11.898305 a 2.4406779,1.7288135 0 1 1 -4.8813557,0 2.4406779,1.7288135 0 1 1 4.8813557,0 z"
     transform="matrix(2.0486112,0,0,2.8921569,1.9166661,-17.412765)" />
  <path
     sodipodi:type="arc"
     style="fill:#f9f9f9;fill-opacity:1;stroke-width:1.25;stroke-miterlimit:4;stroke-dasharray:none"
     id="path3220"
     sodipodi:cx="21.966103"
     sodipodi:cy="22.983051"
     sodipodi:rx="8.7457628"
     sodipodi:ry="5.0847459"
     d="m 30.711865,22.983051 a 8.7457628,5.0847459 0 1 1 -17.491525,0 8.7457628,5.0847459 0 1 1 17.491525,0 z"
     transform="matrix(0.6860465,0,0,1.18,8.9302321,-6.1210007)" />
  <path
     sodipodi:type="arc"
     style="fill:#f9f9f9;fill-opacity:1;stroke-width:1.25;stroke-miterlimit:4;stroke-dasharray:none"
     id="path3222"
     sodipodi:cx="15.864407"
     sodipodi:cy="27.355932"
     sodipodi:rx="5.4915257"
     sodipodi:ry="5.7966104"
     d="m 21.355932,27.355932 a 5.4915257,5.7966104 0 1 1 -10.983051,0 5.4915257,5.7966104 0 1 1 10.983051,0 z"
     transform="matrix(1.0925925,0,0,1.0350877,1.6656676,-1.3177886)" />
  <path
     sodipodi:type="arc"
     style="fill:#f9f9f9;fill-opacity:1;stroke-width:1.25;stroke-miterlimit:4;stroke-dasharray:none"
     id="path3224"
     sodipodi:cx="29.694916"
     sodipodi:cy="31.423729"
     sodipodi:rx="6.9152541"
     sodipodi:ry="7.4237289"
     d="m 36.61017,31.423729 a 6.9152541,7.4237289 0 1 1 -13.830508,0 6.9152541,7.4237289 0 1 1 13.830508,0 z"
     transform="matrix(0.86764707,0,0,0.80821916,3.2342932,1.60074)" />
  <path
     sodipodi:type="arc"
     style="fill:#f9f9f9;fill-opacity:1;stroke-width:1.25;stroke-miterlimit:4;stroke-dasharray:none"
     id="path3226"
     sodipodi:cx="15.152542"
     sodipodi:cy="28.372881"
     sodipodi:rx="4.7796612"
     sodipodi:ry="3.7627118"
     d="m 19.932203,28.372881 a 4.7796612,3.7627118 0 1 1 -9.559322,0 4.7796612,3.7627118 0 1 1 9.559322,0 z"
     transform="matrix(0.8368794,0,0,1.0630631,2.3181496,-3.1641625)" />
  <path
     sodipodi:type="arc"
     style="fill:#f9f9f9;fill-opacity:1;stroke-width:1.25;stroke-miterlimit:4;stroke-dasharray:none"
     id="path3226-2"
     sodipodi:cx="15.152542"
     sodipodi:cy="28.372881"
     sodipodi:rx="4.7796612"
     sodipodi:ry="3.7627118"
     d="m 19.932203,28.372881 a 4.7796612,3.7627118 0 1 1 -9.559322,0 4.7796612,3.7627118 0 1 1 9.559322,0 z"
     transform="matrix(0.8368794,0,0,1.0630631,20.31815,-3.1641625)" />
  <path
     sodipodi:type="arc"
     style="fill:#f9f9f9;fill-opacity:1;stroke-width:1.25;stroke-miterlimit:4;stroke-dasharray:none"
     id="path3246"
     sodipodi:cx="15.457627"
     sodipodi:cy="35.18644"
     sodipodi:rx="2.4406779"
     sodipodi:ry="2.6440678"
     d="m 17.898305,35.18644 a 2.4406779,2.6440678 0 1 1 -4.881356,0 2.4406779,2.6440678 0 1 1 4.881356,0 z"
     transform="matrix(1.6388889,0,0,1.5128205,-6.3343345,-21.232768)" />
  <path
     sodipodi:type="arc"
     style="fill:#f9f9f9;fill-opacity:1;stroke-width:1.25;stroke-miterlimit:4;stroke-dasharray:none"
     id="path3246-7"
     sodipodi:cx="15.457627"
     sodipodi:cy="35.18644"
     sodipodi:rx="2.4406779"
     sodipodi:ry="2.6440678"
     d="m 17.898305,35.18644 a 2.4406779,2.6440678 0 1 1 -4.881356,0 2.4406779,2.6440678 0 1 1 4.881356,0 z"
     transform="matrix(1.6388889,0,0,1.5128205,3.6656661,-21.232767)" />
</svg>
