<?xml version="1.0" encoding="UTF-8" standalone="no"?>
<svg
   xmlns:dc="http://purl.org/dc/elements/1.1/"
   xmlns:cc="http://creativecommons.org/ns#"
   xmlns:rdf="http://www.w3.org/1999/02/22-rdf-syntax-ns#"
   xmlns:svg="http://www.w3.org/2000/svg"
   xmlns="http://www.w3.org/2000/svg"
   xmlns:sodipodi="http://sodipodi.sourceforge.net/DTD/sodipodi-0.dtd"
   xmlns:inkscape="http://www.inkscape.org/namespaces/inkscape"
   width="48"
   height="48"
   viewBox="0 0 48 48"
   id="svg2"
   version="1.1"
   inkscape:version="0.48.4 r9939"
   sodipodi:docname="accessories-thesaurus.svg">
  <defs
     id="defs7" />
  <metadata
     id="metadata35">
    <rdf:RDF>
      <cc:Work
         rdf:about="">
        <dc:format>image/svg+xml</dc:format>
        <dc:type
           rdf:resource="http://purl.org/dc/dcmitype/StillImage" />
        <dc:title></dc:title>
      </cc:Work>
    </rdf:RDF>
  </metadata>
  <sodipodi:namedview
     pagecolor="#ffffff"
     bordercolor="#666666"
     borderopacity="1"
     objecttolerance="10"
     gridtolerance="10"
     guidetolerance="10"
     inkscape:pageopacity="0"
     inkscape:pageshadow="2"
     inkscape:window-width="1024"
     inkscape:window-height="697"
     id="namedview33"
     showgrid="false"
     inkscape:zoom="7.5273874"
     inkscape:cx="29.733073"
     inkscape:cy="23.9995"
     inkscape:window-x="0"
     inkscape:window-y="24"
     inkscape:window-maximized="1"
     inkscape:current-layer="svg2" />
  <path
     inkscape:connector-curvature="0"
     d="m 47.437,11.547375 0,24.90625 c 0,10.25 0,10.984375 -10.984375,10.984375 l -24.902344,0 C 0.562,47.438 0.562,46.703625 0.562,36.453625 l 0,-24.90625 c 0,-10.2499996 0,-10.9843746 10.988281,-10.9843746 l 24.902344,0 C 47.437,0.5630004 47.437,1.2973754 47.437,11.547375 z"
     id="path11-8"
     style="fill:#490062;fill-opacity:1" />
  <path
     inkscape:connector-curvature="0"
     d="m 47.437,11.547375 0,20.906625 c 0,10.25 0,10.984 -10.984375,10.984 l -24.902344,0 C 0.562,43.438 0.562,42.704 0.562,32.454 l 0,-20.906625 c 0,-10.2500001 0,-10.9843751 10.988281,-10.9843751 l 24.902344,0 C 47.437,0.5629999 47.437,1.2973749 47.437,11.547375 z"
     id="path11"
     style="fill:#690082;fill-opacity:1"
     sodipodi:nodetypes="sssssssss" />
  <path
     inkscape:connector-curvature="0"
     id="path15"
     d="m 38.265125,47.438 c 2.542969,-0.01172 4.378906,-0.08203 5.710937,-0.441406 l -4.230468,-7.25 -4.484375,7.691406 1.191406,0 c 0.640625,0 1.242187,0 1.8125,0 z m 1.480469,-7.691406 -5.125,-8.789063 -5.128906,8.789063 z m 0,0 7.652344,0 c 0.03125,-0.972656 0.03906,-2.0625 0.03906,-3.296875 l 0,-1.097657 -2.5625,-4.394531 z m 5.128906,-8.789063 -5.128906,-8.789062 -5.125,8.789062 z m 0,0 2.5625,0 0,-4.394531 z m -10.253906,0 -5.128906,-8.789062 -5.125,8.789062 z m -10.253906,0 -5.128907,8.789063 10.253907,0 z m 0,0 -5.128907,-8.789062 -5.125,8.789062 z m -10.253907,0 -5.128906,8.789063 10.253906,0 z m 0,0 -5.128906,-8.789062 -5.125,8.789062 z m -10.253906,0 L 0.562,36.605969 c 0,1.167969 0.011719,2.210937 0.039062,3.140625 l 8.382813,0 z m 0,0 -3.296875,-5.648437 0,5.648437 z m 5.125,8.789063 -4.3125,7.394531 C 6.269031,47.434094 8.479969,47.438 11.550281,47.438 l 1.921875,0 z m 0,-17.578125 -5.125,-8.789063 -3.296875,5.648438 0,3.140625 z m 0,0 10.253906,0 -5.125,-8.789063 z m 5.128906,-8.789063 -5.128906,-8.7890622 -5.125,8.7890622 z m 0,0 10.253907,0 -5.128907,-8.7890622 z m 5.125,-8.7890622 -2.351562,-4.027344 -5.335938,0 c -0.07813,0 -0.140625,0 -0.214843,0 l -2.351563,4.027344 z m 0,0 10.253907,0 -2.351563,-4.027344 -5.550781,0 z m 10.253907,0 10.253906,0 -2.351563,-4.027344 c -0.3125,0 -0.609375,0 -0.941406,0 l -4.609375,0 z m 0,0 -5.125,8.7890622 10.253906,0 z m 5.128906,8.7890622 10.253906,0 -5.128906,-8.7890622 z m 0,0 -5.128906,8.789063 10.253906,0 z m 5.125,8.789063 7.691406,0 0,-4.394531 -2.5625,-4.394532 z m 5.128906,-8.789063 2.5625,0 0,-1.832031 c 0,-0.914063 -0.0078,-1.75 -0.02344,-2.523437 z m -15.382812,8.789063 -5.125,-8.789063 -5.128907,8.789063 z m 10.253906,-17.5781252 7.308594,0 C 46.4995,1.8325308 45.167469,0.9614378 42.022938,0.6879998 z m -30.761719,0 -2.304687,-3.953125 C 3.019031,0.8442498 1.538562,1.6333118 0.944812,4.5903438 z M 3.858875,13.379406 0.620594,7.8247188 C 0.577625,8.898938 0.562,10.133312 0.562,11.547375 l 0,1.832031 z m 15.378906,26.367188 -4.484375,7.691406 8.972656,0 z m 10.253907,0 -4.484376,7.691406 8.972657,0 z M 2.59325,46.367688 0.991688,43.621594 C 1.284656,44.938 1.776844,45.801281 2.59325,46.367688 z"
     style="fill:#ffffff;fill-opacity:0.06666667" />
  <path
     sodipodi:type="arc"
     style="fill:#f9f9f9;fill-opacity:1;stroke-width:1.25;stroke-miterlimit:4;stroke-dasharray:none"
     id="path3218"
     sodipodi:cx="10.779661"
     sodipodi:cy="11.898305"
     sodipodi:rx="2.4406779"
     sodipodi:ry="1.7288135"
     d="m 13.220339,11.898305 a 2.4406779,1.7288135 0 1 1 -4.8813557,0 2.4406779,1.7288135 0 1 1 4.8813557,0 z"
     transform="matrix(2.0486112,0,0,2.8921569,1.9176661,-17.410765)" />
  <path
     sodipodi:type="arc"
     style="fill:#f9f9f9;fill-opacity:1;stroke-width:1.25;stroke-miterlimit:4;stroke-dasharray:none"
     id="path3220"
     sodipodi:cx="21.966103"
     sodipodi:cy="22.983051"
     sodipodi:rx="8.7457628"
     sodipodi:ry="5.0847459"
     d="m 30.711865,22.983051 a 8.7457628,5.0847459 0 1 1 -17.491525,0 8.7457628,5.0847459 0 1 1 17.491525,0 z"
     transform="matrix(0.6860465,0,0,1.18,8.9312325,-6.1190001)" />
  <path
     sodipodi:type="arc"
     style="fill:#f9f9f9;fill-opacity:1;stroke-width:1.25;stroke-miterlimit:4;stroke-dasharray:none"
     id="path3222"
     sodipodi:cx="15.864407"
     sodipodi:cy="27.355932"
     sodipodi:rx="5.4915257"
     sodipodi:ry="5.7966104"
     d="m 21.355932,27.355932 a 5.4915257,5.7966104 0 1 1 -10.983051,0 5.4915257,5.7966104 0 1 1 10.983051,0 z"
     transform="matrix(1.0925925,0,0,1.0350877,1.6666676,-1.3157881)" />
  <path
     sodipodi:type="arc"
     style="fill:#f9f9f9;fill-opacity:1;stroke-width:1.25;stroke-miterlimit:4;stroke-dasharray:none"
     id="path3224"
     sodipodi:cx="29.694916"
     sodipodi:cy="31.423729"
     sodipodi:rx="6.9152541"
     sodipodi:ry="7.4237289"
     d="m 36.61017,31.423729 a 6.9152541,7.4237289 0 1 1 -13.830508,0 6.9152541,7.4237289 0 1 1 13.830508,0 z"
     transform="matrix(0.86764707,0,0,0.80821916,3.2352935,1.6027399)" />
  <path
     sodipodi:type="arc"
     style="fill:#f9f9f9;fill-opacity:1;stroke-width:1.25;stroke-miterlimit:4;stroke-dasharray:none"
     id="path3226"
     sodipodi:cx="15.152542"
     sodipodi:cy="28.372881"
     sodipodi:rx="4.7796612"
     sodipodi:ry="3.7627118"
     d="m 19.932203,28.372881 a 4.7796612,3.7627118 0 1 1 -9.559322,0 4.7796612,3.7627118 0 1 1 9.559322,0 z"
     transform="matrix(0.8368794,0,0,1.0630631,2.3191496,-3.1621621)" />
  <path
     sodipodi:type="arc"
     style="fill:#f9f9f9;fill-opacity:1;stroke-width:1.25;stroke-miterlimit:4;stroke-dasharray:none"
     id="path3226-2"
     sodipodi:cx="15.152542"
     sodipodi:cy="28.372881"
     sodipodi:rx="4.7796612"
     sodipodi:ry="3.7627118"
     d="m 19.932203,28.372881 a 4.7796612,3.7627118 0 1 1 -9.559322,0 4.7796612,3.7627118 0 1 1 9.559322,0 z"
     transform="matrix(0.8368794,0,0,1.0630631,20.319151,-3.1621621)" />
  <path
     sodipodi:type="arc"
     style="fill:#f9f9f9;fill-opacity:1;stroke-width:1.25;stroke-miterlimit:4;stroke-dasharray:none"
     id="path3246"
     sodipodi:cx="15.457627"
     sodipodi:cy="35.18644"
     sodipodi:rx="2.4406779"
     sodipodi:ry="2.6440678"
     d="m 17.898305,35.18644 a 2.4406779,2.6440678 0 1 1 -4.881356,0 2.4406779,2.6440678 0 1 1 4.881356,0 z"
     transform="matrix(1.6388889,0,0,1.5128205,-6.3333339,-21.230768)" />
  <path
     sodipodi:type="arc"
     style="fill:#f9f9f9;fill-opacity:1;stroke-width:1.25;stroke-miterlimit:4;stroke-dasharray:none"
     id="path3246-7"
     sodipodi:cx="15.457627"
     sodipodi:cy="35.18644"
     sodipodi:rx="2.4406779"
     sodipodi:ry="2.6440678"
     d="m 17.898305,35.18644 a 2.4406779,2.6440678 0 1 1 -4.881356,0 2.4406779,2.6440678 0 1 1 4.881356,0 z"
     transform="matrix(1.6388889,0,0,1.5128205,3.6666665,-21.230767)" />
</svg>
