<svg xmlns="http://www.w3.org/2000/svg" xmlns:svg="http://www.w3.org/2000/svg" xmlns:xlink="http://www.w3.org/1999/xlink" id="svg2" width="48" height="48" version="1.1"><metadata id="metadata42"/><defs id="defs4"><linearGradient id="0" x2="0" y1="1050.36" y2="1006.36" gradientTransform="translate(-47.999983,-2056.7244)" gradientUnits="userSpaceOnUse" xlink:href="#1"/><linearGradient id="1"><stop id="stop8" stop-color="#bebebe"/><stop id="stop10" offset="1" stop-color="#8a8a8a"/></linearGradient><radialGradient id="radial0" cx="148.004" cy="160" r="128" gradientTransform="matrix(0.1831,0,0,0.1831,-3.10029,-5.29688)" gradientUnits="userSpaceOnUse"><stop id="stop7" offset="0" stop-color="#b5d9e4"/><stop id="stop9" offset="1" stop-color="#1c677c"/></radialGradient><radialGradient id="radialGradient3003" cx="148.004" cy="160" r="128" gradientTransform="matrix(0.1831,0,0,0.1831,-3.10079,-5.2963798)" gradientUnits="userSpaceOnUse" xlink:href="#radial0"/></defs><path id="path11" fill="url(#radialGradient3003)" d="m 47.437,11.547375 0,24.90625 c 0,10.25 0,10.984375 -10.984375,10.984375 l -24.902344,0 C 0.562,47.438 0.562,46.703625 0.562,36.453625 l 0,-24.90625 c 0,-10.2499998 0,-10.9843748 10.988281,-10.9843748 l 24.902344,0 C 47.437,0.5630002 47.437,1.2973752 47.437,11.547375 z"/><path id="path15" fill="#fff" fill-opacity=".051" d="m 38.265125,47.438 c 2.542969,-0.01172 4.378906,-0.08203 5.710937,-0.441406 l -4.230468,-7.25 -4.484375,7.691406 1.191406,0 c 0.640625,0 1.242187,0 1.8125,0 z m 1.480469,-7.691406 -5.125,-8.789063 -5.128906,8.789063 z m 0,0 7.652344,0 c 0.03125,-0.972656 0.03906,-2.0625 0.03906,-3.296875 l 0,-1.097657 -2.5625,-4.394531 z m 5.128906,-8.789063 -5.128906,-8.789062 -5.125,8.789062 z m 0,0 2.5625,0 0,-4.394531 z m -10.253906,0 -5.128906,-8.789062 -5.125,8.789062 z m -10.253906,0 -5.128907,8.789063 10.253907,0 z m 0,0 -5.128907,-8.789062 -5.125,8.789062 z m -10.253907,0 -5.128906,8.789063 10.253906,0 z m 0,0 -5.128906,-8.789062 -5.125,8.789062 z m -10.253906,0 L 0.562,36.605969 c 0,1.167969 0.011719,2.210937 0.039062,3.140625 l 8.382813,0 z m 0,0 -3.296875,-5.648437 0,5.648437 z m 5.125,8.789063 -4.3125,7.394531 C 6.2690311,47.434094 8.479969,47.438 11.550281,47.438 l 1.921875,0 z m 0,-17.578125 -5.125,-8.789063 -3.296875,5.648438 0,3.140625 z m 0,0 10.253906,0 -5.125,-8.789063 z m 5.128906,-8.789063 -5.128906,-8.7890618 -5.125,8.7890618 z m 0,0 10.253907,0 -5.128907,-8.7890618 z m 5.125,-8.7890618 -2.351562,-4.027344 -5.335938,0 c -0.07813,0 -0.140625,0 -0.214843,0 l -2.351563,4.027344 z m 0,0 10.253907,0 -2.351563,-4.027344 -5.550781,0 z m 10.253907,0 10.253906,0 -2.351563,-4.027344 c -0.3125,0 -0.609375,0 -0.941406,0 l -4.609375,0 z m 0,0 -5.125,8.7890618 10.253906,0 z m 5.128906,8.7890618 10.253906,0 -5.128906,-8.7890618 z m 0,0 -5.128906,8.789063 10.253906,0 z m 5.125,8.789063 7.691406,0 0,-4.394531 -2.5625,-4.394532 z m 5.128906,-8.789063 2.5625,0 0,-1.832031 c 0,-0.914063 -0.0078,-1.7499998 -0.02344,-2.5234368 z m -15.382812,8.789063 -5.125,-8.789063 -5.128907,8.789063 z m 10.253906,-17.5781248 7.308594,0 C 46.4995,1.8325312 45.167469,0.9614382 42.022938,0.6880002 z m -30.761719,0 -2.3046869,-3.953125 C 3.019031,0.8442502 1.538562,1.6333122 0.944812,4.5903442 z M 3.858875,13.379406 0.620594,7.8247192 C 0.577625,8.8989382 0.562,10.133312 0.562,11.547375 l 0,1.832031 z m 15.378906,26.367188 -4.484375,7.691406 8.972656,0 z m 10.253907,0 -4.484376,7.691406 8.972657,0 z M 2.59325,46.367688 0.991688,43.621594 C 1.284656,44.938 1.776844,45.801281 2.59325,46.367688 z"/><path id="path30" fill="#f9f9f9" d="m 14.9995,12.0005 c 0,0 -1,10e-5 -1,1 l 0,22 c 0,0 0,1 1,1 l 18,0 c 0,0 1,-1e-4 1,-1 l 0,-15 -8,-8 -11,0 z m 9,11 c 0.522318,9e-4 1.023135,0.036 1.53125,0.125 0.998897,0.175 1.943115,0.5482 2.84375,1 1.409736,0.7077 2.722369,1.68705 3.84375,2.78125 0.207704,0.2025 0.405244,0.4057 0.59375,0.625 0.25125,0.2931 0.251228,0.6445 0,0.9375 -0.574596,0.6684 -1.273779,1.2686 -1.96875,1.8125 -1.496608,1.1714 -3.204305,2.13635 -5.09375,2.53125 -0.584263,0.1216 -1.155717,0.1881 -1.75,0.1875 -0.587076,5e-4 -1.165666,-0.0658 -1.75,-0.1875 -1.889409,-0.3949 -3.597144,-1.35985 -5.09375,-2.53125 -0.694972,-0.5439 -1.394154,-1.144 -1.96875,-1.8125 -0.251263,-0.293 -0.251263,-0.6445 0,-0.9375 0.188474,-0.2192 0.386009,-0.4226 0.59375,-0.625 1.121418,-1.0942 2.43391,-2.07355 3.84375,-2.78125 0.900636,-0.4518 1.844887,-0.8251 2.84375,-1 0.508115,-0.089 1.023345,-0.1241 1.53125,-0.125 z m 0,1.59375 c -1.910187,0.0036 -3.46875,1.52905 -3.46875,3.40625 0,1.8782 1.558563,3.40625 3.46875,3.40625 1.926885,-0.0037 3.468785,-1.52805 3.46875,-3.40625 0,-1.8772 -1.541865,-3.40625 -3.46875,-3.40625 z" color="#000"/></svg>