<?xml version="1.0" encoding="UTF-8" standalone="no"?>
<svg
   xmlns:dc="http://purl.org/dc/elements/1.1/"
   xmlns:cc="http://creativecommons.org/ns#"
   xmlns:rdf="http://www.w3.org/1999/02/22-rdf-syntax-ns#"
   xmlns:svg="http://www.w3.org/2000/svg"
   xmlns="http://www.w3.org/2000/svg"
   xmlns:sodipodi="http://sodipodi.sourceforge.net/DTD/sodipodi-0.dtd"
   xmlns:inkscape="http://www.inkscape.org/namespaces/inkscape"
   width="48"
   height="48"
   viewBox="0 0 48 48"
   id="svg2"
   version="1.1"
   inkscape:version="0.48.4 r9939"
   sodipodi:docname="aim.svg">
  <defs
     id="defs3019" />
  <metadata
     id="metadata35">
    <rdf:RDF>
      <cc:Work
         rdf:about="">
        <dc:format>image/svg+xml</dc:format>
        <dc:type
           rdf:resource="http://purl.org/dc/dcmitype/StillImage" />
        <dc:title></dc:title>
      </cc:Work>
    </rdf:RDF>
  </metadata>
  <sodipodi:namedview
     pagecolor="#ffffff"
     bordercolor="#666666"
     borderopacity="1"
     objecttolerance="10"
     gridtolerance="10"
     guidetolerance="10"
     inkscape:pageopacity="0"
     inkscape:pageshadow="2"
     inkscape:window-width="1024"
     inkscape:window-height="711"
     id="namedview33"
     showgrid="false"
     inkscape:zoom="4.9166667"
     inkscape:cx="25.498848"
     inkscape:cy="35.290947"
     inkscape:window-x="0"
     inkscape:window-y="0"
     inkscape:window-maximized="1"
     inkscape:current-layer="svg2" />
  <path
     fill="#808080"
     d="M 47.4375 11.546875 L 47.4375 36.453125 C 47.4375 46.703125 47.4375 47.4375 36.453125 47.4375 L 11.550781 47.4375 C 0.5625 47.4375 0.5625 46.703125 0.5625 36.453125 L 0.5625 11.546875 C 0.5625 1.296875 0.5625 0.5625 11.550781 0.5625 L 36.453125 0.5625 C 47.4375 0.5625 47.4375 1.296875 47.4375 11.546875 Z "
     id="path11"
     style="fill:#ee4a4a;fill-opacity:1" />
  <path
     inkscape:connector-curvature="0"
     id="path15"
     d="m 38.265625,47.4375 c 2.542969,-0.01172 4.378906,-0.08203 5.710937,-0.441406 l -4.230468,-7.25 -4.484375,7.691406 1.191406,0 c 0.640625,0 1.242187,0 1.8125,0 z m 1.480469,-7.691406 -5.125,-8.789063 -5.128906,8.789063 z m 0,0 7.652344,0 c 0.03125,-0.972656 0.03906,-2.0625 0.03906,-3.296875 l 0,-1.097657 -2.5625,-4.394531 z m 5.128906,-8.789063 -5.128906,-8.789062 -5.125,8.789062 z m 0,0 2.5625,0 0,-4.394531 z m -10.253906,0 -5.128906,-8.789062 -5.125,8.789062 z m -10.253906,0 -5.128907,8.789063 10.253907,0 z m 0,0 -5.128907,-8.789062 -5.125,8.789062 z m -10.253907,0 -5.128906,8.789063 10.253906,0 z m 0,0 -5.128906,-8.789062 -5.125,8.789062 z m -10.253906,0 -3.296875,5.648438 c 0,1.167969 0.011719,2.210937 0.039062,3.140625 l 8.382813,0 z m 0,0 -3.296875,-5.648437 0,5.648437 z m 5.125,8.789063 -4.3125,7.394531 c 1.597656,0.292969 3.808594,0.296875 6.878906,0.296875 l 1.921875,0 z m 0,-17.578125 -5.125,-8.789063 -3.296875,5.648438 0,3.140625 z m 0,0 10.253906,0 -5.125,-8.789063 z m 5.128906,-8.789063 -5.128906,-8.789062 -5.125,8.789062 z m 0,0 10.253907,0 -5.128907,-8.789062 z m 5.125,-8.789062 -2.351562,-4.027344 -5.335938,0 c -0.07813,0 -0.140625,0 -0.214843,0 L 8.984375,4.589844 z m 0,0 10.253907,0 -2.351563,-4.027344 -5.550781,0 z m 10.253907,0 10.253906,0 L 37.394531,0.5625 c -0.3125,0 -0.609375,0 -0.941406,0 l -4.609375,0 z m 0,0 -5.125,8.789062 10.253906,0 z m 5.128906,8.789062 10.253906,0 -5.128906,-8.789062 z m 0,0 -5.128906,8.789063 10.253906,0 z m 5.125,8.789063 7.691406,0 0,-4.394531 -2.5625,-4.394532 z m 5.128906,-8.789063 2.5625,0 0,-1.832031 c 0,-0.914063 -0.0078,-1.75 -0.02344,-2.523437 z m -15.382812,8.789063 -5.125,-8.789063 -5.128907,8.789063 z m 10.253906,-17.578125 7.308594,0 C 46.5,1.832031 45.167969,0.960938 42.023438,0.6875 z m -30.761719,0 L 6.679688,0.636719 C 3.019531,0.84375 1.539062,1.632812 0.945312,4.589844 z m -5.125,8.789062 L 0.621094,7.824219 C 0.578125,8.898438 0.5625,10.132812 0.5625,11.546875 l 0,1.832031 z m 15.378906,26.367188 -4.484375,7.691406 8.972656,0 z m 10.253907,0 -4.484376,7.691406 8.972657,0 z M 2.59375,46.367188 0.992188,43.621094 c 0.292968,1.316406 0.785156,2.179687 1.601562,2.746094 z"
     style="fill:#ffffff;fill-opacity:0.08235294" />
  <path
     inkscape:connector-curvature="0"
     style="line-height:normal;color:#000000;fill:#f9f9f9"
     d="m 14.999999,12.000711 c 0,0 -0.999999,8.4e-5 -0.999999,0.999971 l 0,21.999351 c 0,0 0,0.999968 0.999999,0.999968 l 18.000003,0 c 0,0 0.999998,7e-6 0.999998,-0.999882 l 0,-14.998278 -7.999999,-7.999083 c -3.715154,-0.0046 -8.743489,-0.0021 -11.000002,-0.0021 z"
     id="path13225" />
  <path
     inkscape:connector-curvature="0"
     style="fill:#f9f9f9;fill-opacity:1"
     d="M 24.498937,24.000002 C 22.012516,24.000002 20,25.79008 20,27.999583 c 0,2.21076 2.012635,4.000419 4.498937,4.000419 C 26.985124,32.000002 29,30.210343 29,27.999583 29,25.79008 26.985006,24.000002 24.498937,24.000002 z"
     id="path13227" />
  <path
     inkscape:connector-curvature="0"
     style="fill:#ee4a4a"
     d="m 32.811457,27.533767 c -0.188507,-0.219222 -0.395966,-0.425872 -0.60367,-0.628378 -1.121382,-1.094178 -2.409933,-2.069645 -3.819669,-2.777359 -0.900635,-0.451779 -1.864624,-0.817034 -2.863521,-0.992012 -0.508115,-0.08932 -1.006071,-0.135119 -1.528388,-0.136016 -0.507905,8.84e-4 -1.016301,0.04673 -1.524416,0.136016 -0.998863,0.174944 -1.960847,0.540233 -2.861483,0.992012 -1.409841,0.70768 -2.697337,1.683216 -3.818755,2.777359 -0.207741,0.202472 -0.414635,0.409191 -0.603108,0.628378 -0.251263,0.293035 -0.251263,0.6395 0,0.932568 0.574596,0.668445 1.257684,1.263285 1.952655,1.807145 1.496607,1.171408 3.20802,2.151054 5.097429,2.545945 0.584334,0.121716 1.170671,0.181127 1.757748,0.180574 0.594283,6.26e-4 1.177316,-0.05879 1.761579,-0.180574 1.889445,-0.394891 3.604724,-1.374537 5.101333,-2.545945 0.69497,-0.543826 1.377918,-1.138735 1.952515,-1.807145 0.251227,-0.292999 0.250978,-0.639465 -2.71e-4,-0.932568 z m -8.815283,3.870192 c -1.910187,-0.0036 -3.45756,-1.525854 -3.45756,-3.404011 0,-1.87726 1.547373,-3.400005 3.45756,-3.403631 1.926885,0.0036 3.457523,1.526371 3.457523,3.403631 3.5e-5,1.878123 -1.530638,3.400315 -3.457523,3.404011 z"
     id="path13229" />
  <path
     inkscape:connector-curvature="0"
     style="fill:#ee4a4a;fill-opacity:1"
     d="m 23.999646,26.500002 c -0.828807,0 -1.499646,0.671279 -1.499646,1.499843 0,0.829035 0.670878,1.500157 1.499646,1.500157 0.828729,0 1.500354,-0.671122 1.500354,-1.500157 0,-0.828564 -0.671665,-1.499843 -1.500354,-1.499843 z"
     id="path13231" />
</svg>
