<?xml version="1.0" encoding="UTF-8" standalone="no"?>
<svg
   xmlns:dc="http://purl.org/dc/elements/1.1/"
   xmlns:cc="http://creativecommons.org/ns#"
   xmlns:rdf="http://www.w3.org/1999/02/22-rdf-syntax-ns#"
   xmlns:svg="http://www.w3.org/2000/svg"
   xmlns="http://www.w3.org/2000/svg"
   xmlns:xlink="http://www.w3.org/1999/xlink"
   xmlns:sodipodi="http://sodipodi.sourceforge.net/DTD/sodipodi-0.dtd"
   xmlns:inkscape="http://www.inkscape.org/namespaces/inkscape"
   width="48"
   height="48"
   viewBox="0 0 48 48"
   id="svg2"
   version="1.1"
   inkscape:version="0.48.4 r9939"
   sodipodi:docname="alarm-clock.svg">
  <defs
     id="defs3019" />
  <metadata
     id="metadata35">
    <rdf:RDF>
      <cc:Work
         rdf:about="">
        <dc:format>image/svg+xml</dc:format>
        <dc:type
           rdf:resource="http://purl.org/dc/dcmitype/StillImage" />
        <dc:title></dc:title>
      </cc:Work>
    </rdf:RDF>
  </metadata>
  <sodipodi:namedview
     pagecolor="#ffffff"
     bordercolor="#666666"
     borderopacity="1"
     objecttolerance="10"
     gridtolerance="10"
     guidetolerance="10"
     inkscape:pageopacity="0"
     inkscape:pageshadow="2"
     inkscape:window-width="1024"
     inkscape:window-height="692"
     id="namedview33"
     showgrid="false"
     inkscape:zoom="4.9166667"
     inkscape:cx="8.2716045"
     inkscape:cy="19.579923"
     inkscape:window-x="0"
     inkscape:window-y="24"
     inkscape:window-maximized="1"
     inkscape:current-layer="svg2" />
  <path
     fill="#808080"
     d="M 47.4375 11.546875 L 47.4375 36.453125 C 47.4375 46.703125 47.4375 47.4375 36.453125 47.4375 L 11.550781 47.4375 C 0.5625 47.4375 0.5625 46.703125 0.5625 36.453125 L 0.5625 11.546875 C 0.5625 1.296875 0.5625 0.5625 11.550781 0.5625 L 36.453125 0.5625 C 47.4375 0.5625 47.4375 1.296875 47.4375 11.546875 Z "
     id="path11"
     style="fill:#ff9933;fill-opacity:1" />
  <path
     inkscape:connector-curvature="0"
     id="path15"
     d="m 38.265625,47.4375 c 2.542969,-0.01172 4.378906,-0.08203 5.710937,-0.441406 l -4.230468,-7.25 -4.484375,7.691406 1.191406,0 c 0.640625,0 1.242187,0 1.8125,0 z m 1.480469,-7.691406 -5.125,-8.789063 -5.128906,8.789063 z m 0,0 7.652344,0 c 0.03125,-0.972656 0.03906,-2.0625 0.03906,-3.296875 l 0,-1.097657 -2.5625,-4.394531 z m 5.128906,-8.789063 -5.128906,-8.789062 -5.125,8.789062 z m 0,0 2.5625,0 0,-4.394531 z m -10.253906,0 -5.128906,-8.789062 -5.125,8.789062 z m -10.253906,0 -5.128907,8.789063 10.253907,0 z m 0,0 -5.128907,-8.789062 -5.125,8.789062 z m -10.253907,0 -5.128906,8.789063 10.253906,0 z m 0,0 -5.128906,-8.789062 -5.125,8.789062 z m -10.253906,0 -3.296875,5.648438 c 0,1.167969 0.011719,2.210937 0.039062,3.140625 l 8.382813,0 z m 0,0 -3.296875,-5.648437 0,5.648437 z m 5.125,8.789063 -4.3125,7.394531 c 1.597656,0.292969 3.808594,0.296875 6.878906,0.296875 l 1.921875,0 z m 0,-17.578125 -5.125,-8.789063 -3.296875,5.648438 0,3.140625 z m 0,0 10.253906,0 -5.125,-8.789063 z m 5.128906,-8.789063 -5.128906,-8.789062 -5.125,8.789062 z m 0,0 10.253907,0 -5.128907,-8.789062 z m 5.125,-8.789062 -2.351562,-4.027344 -5.335938,0 c -0.07813,0 -0.140625,0 -0.214843,0 L 8.984375,4.589844 z m 0,0 10.253907,0 -2.351563,-4.027344 -5.550781,0 z m 10.253907,0 10.253906,0 L 37.394531,0.5625 c -0.3125,0 -0.609375,0 -0.941406,0 l -4.609375,0 z m 0,0 -5.125,8.789062 10.253906,0 z m 5.128906,8.789062 10.253906,0 -5.128906,-8.789062 z m 0,0 -5.128906,8.789063 10.253906,0 z m 5.125,8.789063 7.691406,0 0,-4.394531 -2.5625,-4.394532 z m 5.128906,-8.789063 2.5625,0 0,-1.832031 c 0,-0.914063 -0.0078,-1.75 -0.02344,-2.523437 z m -15.382812,8.789063 -5.125,-8.789063 -5.128907,8.789063 z m 10.253906,-17.578125 7.308594,0 C 46.5,1.832031 45.167969,0.960938 42.023438,0.6875 z m -30.761719,0 L 6.679688,0.636719 C 3.019531,0.84375 1.539062,1.632812 0.945312,4.589844 z m -5.125,8.789062 L 0.621094,7.824219 C 0.578125,8.898438 0.5625,10.132812 0.5625,11.546875 l 0,1.832031 z m 15.378906,26.367188 -4.484375,7.691406 8.972656,0 z m 10.253907,0 -4.484376,7.691406 8.972657,0 z M 2.59375,46.367188 0.992188,43.621094 c 0.292968,1.316406 0.785156,2.179687 1.601562,2.746094 z"
     style="fill:#ffffff;fill-opacity:0.10196079" />
  <path
     inkscape:connector-curvature="0"
     d="m 18.663325,9.9999996 c 1.33324,1.3393154 1.326557,2.4068174 1.326557,4.0131434 l 0,3.339174 c -4.658981,1.563892 -7.989835,5.768341 -7.989835,10.722058 10e-7,4.254863 2.466791,7.971916 6.114358,9.925625 l 11.771283,0 c 3.647568,-1.953709 6.114359,-5.670762 6.114359,-9.925625 0,-4.953717 -3.346102,-9.158166 -8.005082,-10.722058 l 0,-3.339174 c 0,-1.606326 -0.0067,-2.673828 1.326556,-4.0131434 l -10.658195,0 z"
     id="path21"
     style="fill:#f9f9f9;fill-opacity:1" />
  <path
     inkscape:connector-curvature="0"
     d="m 13.249943,22.999817 c -0.799512,1.523628 -1.24999,3.242936 -1.24999,5.06246 0,4.254829 2.477413,7.983728 6.124951,9.937421 l 11.749908,0 c 3.647539,-1.953693 6.124951,-5.682592 6.124951,-9.937421 0,-1.819524 -0.447875,-3.538832 -1.24999,-5.06246 l -21.49983,0 z"
     id="path23"
     style="fill:#f9f9f9;fill-opacity:1" />
  <g
     style="fill:#f9f9f9;fill-opacity:1"
     transform="matrix(3.543307,0,0,3.543307,4.76e-5,-4e-7)"
     id="g25">
    <use
       height="1052.3622"
       width="744.09448"
       y="0"
       x="0"
       transform="matrix(0.14111,0,0,0.19349,3.66889,3.10559)"
       xlink:href="#2"
       id="use27"
       style="fill:#f9f9f9;fill-opacity:1" />
    <use
       height="1052.3622"
       width="744.09448"
       y="0"
       x="0"
       transform="matrix(0.21167,0,0,0.29024,1.27,-0.98607)"
       xlink:href="#2"
       id="use29"
       style="fill:#f9f9f9;fill-opacity:1" />
    <use
       height="1052.3622"
       width="744.09448"
       y="0"
       x="0"
       transform="matrix(0.28222,0,0,0.38698,-0.28222,-5.35994)"
       xlink:href="#2"
       id="use31"
       style="fill:#f9f9f9;fill-opacity:1" />
    <use
       height="1052.3622"
       width="744.09448"
       y="0"
       x="0"
       transform="matrix(0.42333,0,0,0.58047,-4.23333,-14.38991)"
       xlink:href="#2"
       id="use33"
       style="fill:#f9f9f9;fill-opacity:1" />
    <use
       height="1052.3622"
       width="744.09448"
       y="0"
       x="0"
       transform="matrix(0.35278,0,0,0.48373,-2.96333,-9.73381)"
       xlink:href="#2"
       id="use35"
       style="fill:#f9f9f9;fill-opacity:1" />
  </g>
  <path
     sodipodi:type="arc"
     style="fill:#ff9933;fill-opacity:1"
     id="path6681"
     sodipodi:cx="22.372881"
     sodipodi:cy="26.847458"
     sodipodi:rx="2.0338984"
     sodipodi:ry="1.8305085"
     d="m 24.406779,26.847458 a 2.0338984,1.8305085 0 1 1 -4.067796,0 2.0338984,1.8305085 0 1 1 4.067796,0 z"
     transform="matrix(0.73749998,0,0,0.81944445,9.0000007,0.4999997)" />
  <path
     sodipodi:type="arc"
     style="fill:#ff9933;fill-opacity:1"
     id="path6681-8"
     sodipodi:cx="22.372881"
     sodipodi:cy="26.847458"
     sodipodi:rx="2.0338984"
     sodipodi:ry="1.8305085"
     d="m 24.406779,26.847458 a 2.0338984,1.8305085 0 1 1 -4.067796,0 2.0338984,1.8305085 0 1 1 4.067796,0 z"
     transform="matrix(0.61458332,0,0,0.68287037,9.5000006,8.4166664)" />
  <path
     sodipodi:type="arc"
     style="fill:#ff9933;fill-opacity:1"
     id="path6681-8-9"
     sodipodi:cx="22.372881"
     sodipodi:cy="26.847458"
     sodipodi:rx="2.0338984"
     sodipodi:ry="1.8305085"
     d="m 24.406779,26.847458 a 2.0338984,1.8305085 0 1 1 -4.067796,0 2.0338984,1.8305085 0 1 1 4.067796,0 z"
     transform="matrix(0.49166665,0,0,0.5462963,15.000001,15.333334)" />
  <path
     sodipodi:type="arc"
     style="fill:#ff9933;fill-opacity:1"
     id="path6681-8-9-0"
     sodipodi:cx="22.372881"
     sodipodi:cy="26.847458"
     sodipodi:rx="2.0338984"
     sodipodi:ry="1.8305085"
     d="m 24.406779,26.847458 a 2.0338984,1.8305085 0 1 1 -4.067796,0 2.0338984,1.8305085 0 1 1 4.067796,0 z"
     transform="matrix(0.36874999,0,0,0.40972222,16.5,22.25)" />
  <path
     sodipodi:type="arc"
     style="fill:#ff9933;fill-opacity:1"
     id="path6681-8-9-9"
     sodipodi:cx="22.372881"
     sodipodi:cy="26.847458"
     sodipodi:rx="2.0338984"
     sodipodi:ry="1.8305085"
     d="m 24.406779,26.847458 a 2.0338984,1.8305085 0 1 1 -4.067796,0 2.0338984,1.8305085 0 1 1 4.067796,0 z"
     transform="matrix(0.24583333,0,0,0.27314815,21.000001,28.166666)" />
</svg>
