<?xml version="1.0" encoding="UTF-8" standalone="no"?>
<svg
   xmlns:dc="http://purl.org/dc/elements/1.1/"
   xmlns:cc="http://creativecommons.org/ns#"
   xmlns:rdf="http://www.w3.org/1999/02/22-rdf-syntax-ns#"
   xmlns:svg="http://www.w3.org/2000/svg"
   xmlns="http://www.w3.org/2000/svg"
   xmlns:xlink="http://www.w3.org/1999/xlink"
   xmlns:sodipodi="http://sodipodi.sourceforge.net/DTD/sodipodi-0.dtd"
   xmlns:inkscape="http://www.inkscape.org/namespaces/inkscape"
   width="48"
   height="48"
   viewBox="0 0 48 48"
   id="svg2"
   version="1.1"
   inkscape:version="0.48.4 r9939"
   sodipodi:docname="Amazon Cloud Reader-read.amazon.com.svg">
  <defs
     id="defs3019" />
  <metadata
     id="metadata35">
    <rdf:RDF>
      <cc:Work
         rdf:about="">
        <dc:format>image/svg+xml</dc:format>
        <dc:type
           rdf:resource="http://purl.org/dc/dcmitype/StillImage" />
        <dc:title></dc:title>
      </cc:Work>
    </rdf:RDF>
  </metadata>
  <sodipodi:namedview
     pagecolor="#ffffff"
     bordercolor="#666666"
     borderopacity="1"
     objecttolerance="10"
     gridtolerance="10"
     guidetolerance="10"
     inkscape:pageopacity="0"
     inkscape:pageshadow="2"
     inkscape:window-width="1024"
     inkscape:window-height="692"
     id="namedview33"
     showgrid="false"
     inkscape:zoom="6.9532167"
     inkscape:cx="21.708347"
     inkscape:cy="19.579923"
     inkscape:window-x="0"
     inkscape:window-y="24"
     inkscape:window-maximized="1"
     inkscape:current-layer="svg2" />
  <path
     fill="#808080"
     d="M 47.4375 11.546875 L 47.4375 36.453125 C 47.4375 46.703125 47.4375 47.4375 36.453125 47.4375 L 11.550781 47.4375 C 0.5625 47.4375 0.5625 46.703125 0.5625 36.453125 L 0.5625 11.546875 C 0.5625 1.296875 0.5625 0.5625 11.550781 0.5625 L 36.453125 0.5625 C 47.4375 0.5625 47.4375 1.296875 47.4375 11.546875 Z "
     id="path11"
     style="fill:#309000;fill-opacity:1" />
  <path
     inkscape:connector-curvature="0"
     id="path15"
     d="m 38.265625,47.4375 c 2.542969,-0.01172 4.378906,-0.08203 5.710937,-0.441406 l -4.230468,-7.25 -4.484375,7.691406 1.191406,0 c 0.640625,0 1.242187,0 1.8125,0 z m 1.480469,-7.691406 -5.125,-8.789063 -5.128906,8.789063 z m 0,0 7.652344,0 c 0.03125,-0.972656 0.03906,-2.0625 0.03906,-3.296875 l 0,-1.097657 -2.5625,-4.394531 z m 5.128906,-8.789063 -5.128906,-8.789062 -5.125,8.789062 z m 0,0 2.5625,0 0,-4.394531 z m -10.253906,0 -5.128906,-8.789062 -5.125,8.789062 z m -10.253906,0 -5.128907,8.789063 10.253907,0 z m 0,0 -5.128907,-8.789062 -5.125,8.789062 z m -10.253907,0 -5.128906,8.789063 10.253906,0 z m 0,0 -5.128906,-8.789062 -5.125,8.789062 z m -10.253906,0 -3.296875,5.648438 c 0,1.167969 0.011719,2.210937 0.039062,3.140625 l 8.382813,0 z m 0,0 -3.296875,-5.648437 0,5.648437 z m 5.125,8.789063 -4.3125,7.394531 c 1.597656,0.292969 3.808594,0.296875 6.878906,0.296875 l 1.921875,0 z m 0,-17.578125 -5.125,-8.789063 -3.296875,5.648438 0,3.140625 z m 0,0 10.253906,0 -5.125,-8.789063 z m 5.128906,-8.789063 -5.128906,-8.789062 -5.125,8.789062 z m 0,0 10.253907,0 -5.128907,-8.789062 z m 5.125,-8.789062 -2.351562,-4.027344 -5.335938,0 c -0.07813,0 -0.140625,0 -0.214843,0 L 8.984375,4.589844 z m 0,0 10.253907,0 -2.351563,-4.027344 -5.550781,0 z m 10.253907,0 10.253906,0 L 37.394531,0.5625 c -0.3125,0 -0.609375,0 -0.941406,0 l -4.609375,0 z m 0,0 -5.125,8.789062 10.253906,0 z m 5.128906,8.789062 10.253906,0 -5.128906,-8.789062 z m 0,0 -5.128906,8.789063 10.253906,0 z m 5.125,8.789063 7.691406,0 0,-4.394531 -2.5625,-4.394532 z m 5.128906,-8.789063 2.5625,0 0,-1.832031 c 0,-0.914063 -0.0078,-1.75 -0.02344,-2.523437 z m -15.382812,8.789063 -5.125,-8.789063 -5.128907,8.789063 z m 10.253906,-17.578125 7.308594,0 C 46.5,1.832031 45.167969,0.960938 42.023438,0.6875 z m -30.761719,0 L 6.679688,0.636719 C 3.019531,0.84375 1.539062,1.632812 0.945312,4.589844 z m -5.125,8.789062 L 0.621094,7.824219 C 0.578125,8.898438 0.5625,10.132812 0.5625,11.546875 l 0,1.832031 z m 15.378906,26.367188 -4.484375,7.691406 8.972656,0 z m 10.253907,0 -4.484376,7.691406 8.972657,0 z M 2.59375,46.367188 0.992188,43.621094 c 0.292968,1.316406 0.785156,2.179687 1.601562,2.746094 z"
     style="fill:#ffffff;fill-opacity:0.04313726" />
  <g
     style="fill:#f9f9f9;fill-opacity:1"
     transform="matrix(3.543307,0,0,3.543307,4.76e-5,-4e-7)"
     id="g25">
    <use
       height="1052.3622"
       width="744.09448"
       y="0"
       x="0"
       transform="matrix(0.14111,0,0,0.19349,3.66889,3.10559)"
       xlink:href="#2"
       id="use27"
       style="fill:#f9f9f9;fill-opacity:1" />
    <use
       height="1052.3622"
       width="744.09448"
       y="0"
       x="0"
       transform="matrix(0.21167,0,0,0.29024,1.27,-0.98607)"
       xlink:href="#2"
       id="use29"
       style="fill:#f9f9f9;fill-opacity:1" />
    <use
       height="1052.3622"
       width="744.09448"
       y="0"
       x="0"
       transform="matrix(0.28222,0,0,0.38698,-0.28222,-5.35994)"
       xlink:href="#2"
       id="use31"
       style="fill:#f9f9f9;fill-opacity:1" />
    <use
       height="1052.3622"
       width="744.09448"
       y="0"
       x="0"
       transform="matrix(0.42333,0,0,0.58047,-4.23333,-14.38991)"
       xlink:href="#2"
       id="use33"
       style="fill:#f9f9f9;fill-opacity:1" />
    <use
       height="1052.3622"
       width="744.09448"
       y="0"
       x="0"
       transform="matrix(0.35278,0,0,0.48373,-2.96333,-9.73381)"
       xlink:href="#2"
       id="use35"
       style="fill:#f9f9f9;fill-opacity:1" />
  </g>
  <path
     inkscape:connector-curvature="0"
     id="path7684"
     d="m 25.861751,22.173937 c 0,1.363523 0.03295,2.500613 -0.626055,3.711543 -0.531914,0.984496 -1.374499,1.58996 -2.315937,1.58996 -1.285061,0 -2.033502,-1.023877 -2.033502,-2.535076 0,-2.983016 2.556,-3.524487 4.975494,-3.524487 l 0,0.75806 m 3.37505,8.530641 c -0.221236,0.206743 -0.541329,0.221512 -0.790809,0.08368 -1.110893,-0.9648 -1.308597,-1.412744 -1.920531,-2.333246 -1.835801,1.959143 -3.13498,2.544914 -5.516818,2.544914 -2.814898,0 -5.008442,-1.816391 -5.008442,-5.454094 0,-2.840267 1.473348,-4.774799 3.568044,-5.719912 1.816973,-0.836824 4.354145,-0.984495 6.293506,-1.215851 l 0,-0.452867 c 0,-0.8319 0.0612,-1.816395 -0.404818,-2.535072 -0.409528,-0.644846 -1.190916,-0.91066 -1.878168,-0.91066 -1.275644,0 -2.414784,0.684224 -2.692508,2.101895 -0.05649,0.315039 -0.277728,0.625156 -0.578983,0.639923 l -3.247956,-0.364266 c -0.273018,-0.06399 -0.574278,-0.295349 -0.498963,-0.733445 0.748443,-4.115185 4.302365,-5.35565 7.484424,-5.35565 1.628682,0 3.756328,0.452867 5.04139,1.742554 1.628688,1.589957 1.473348,3.711543 1.473348,6.020183 l 0,5.454098 c 0,1.639185 0.649594,2.357862 1.261529,3.24391 0.216525,0.315039 0.263612,0.694066 -0.0094,0.930345 -0.682604,0.595621 -1.897057,1.703177 -2.56548,2.323408 l -0.0094,-0.0099"
     style="fill:#f9f9f9;fill-rule:evenodd;fill-opacity:1" />
  <path
     style="fill:#f9f9f9;fill-rule:evenodd;fill-opacity:1"
     d="m 34.501576,33.703076 c -2.847069,2.149933 -6.973723,3.296997 -10.526697,3.296997 -4.981841,0 -9.466776,-1.887742 -12.859803,-5.027426 -0.266581,-0.246894 -0.02771,-0.583365 0.29217,-0.391096 3.661738,2.182704 8.189328,3.495822 12.866202,3.495822 3.154169,0 6.623971,-0.668577 9.814396,-2.055981 0.481976,-0.209749 0.885044,0.323362 0.413731,0.681684"
     id="path7688"
     inkscape:connector-curvature="0" />
  <path
     style="fill:#f9f9f9;fill-rule:evenodd;fill-opacity:1"
     d="m 35.685193,32.315674 c -0.362551,-0.476306 -2.405617,-0.225044 -3.32265,-0.113614 -0.279377,0.03496 -0.322029,-0.214119 -0.07038,-0.393281 1.627203,-1.173284 4.297265,-0.834627 4.608629,-0.441347 0.311351,0.395466 -0.08103,3.1375 -1.61014,4.446246 -0.234588,0.201012 -0.458517,0.09397 -0.354016,-0.172594 0.343354,-0.878326 1.113235,-2.846909 0.748554,-3.3254"
     id="path7690"
     inkscape:connector-curvature="0" />
</svg>
