<svg xmlns="http://www.w3.org/2000/svg" xmlns:svg="http://www.w3.org/2000/svg" xmlns:xlink="http://www.w3.org/1999/xlink" id="svg2" width="48" height="48" version="1.1"><metadata id="metadata34"/><defs id="defs4"><linearGradient id="0" x2="0" y1="1050.36" y2="1006.36" gradientTransform="translate(-1.7382813e-5,-1.7382813e-5)" gradientUnits="userSpaceOnUse" xlink:href="#1"/><linearGradient id="1"><stop id="stop8" stop-color="#f7931a"/><stop id="stop10" offset="1" stop-color="#e9af4b"/></linearGradient><radialGradient id="radial0" cx="148.004" cy="160" r="128" gradientTransform="matrix(0.1831,0,0,0.1831,-3.10029,-5.29688)" gradientUnits="userSpaceOnUse"><stop id="stop7" offset="0" stop-color="#fac687" stop-opacity="1"/><stop id="stop9" offset="1" stop-color="#f6951f" stop-opacity="1"/></radialGradient><radialGradient id="radialGradient3001" cx="148.004" cy="160" r="128" gradientTransform="matrix(0.1831,0,0,0.1831,-3.10079,-5.2963804)" gradientUnits="userSpaceOnUse" xlink:href="#radial0"/><linearGradient id="linearGradient3030" x2="0" y1="1050.36" y2="1006.36" gradientTransform="translate(61.220322,-1006.3961)" gradientUnits="userSpaceOnUse" xlink:href="#1"/></defs><path id="path11" fill="url(#radialGradient3001)" d="m 47.437,11.547375 0,24.90625 c 0,10.25 0,10.984375 -10.984375,10.984375 l -24.902344,0 C 0.562,47.438 0.562,46.703625 0.562,36.453625 l 0,-24.90625 c 0,-10.2500004 0,-10.9843754 10.988281,-10.9843754 l 24.902344,0 C 47.437,0.5629996 47.437,1.2973746 47.437,11.547375 z"/><path id="path15" fill="#fff" fill-opacity=".051" d="m 38.265125,47.438 c 2.542969,-0.01172 4.378906,-0.08203 5.710937,-0.441406 l -4.230468,-7.25 -4.484375,7.691406 1.191406,0 c 0.640625,0 1.242187,0 1.8125,0 z m 1.480469,-7.691406 -5.125,-8.789063 -5.128906,8.789063 z m 0,0 7.652344,0 c 0.03125,-0.972656 0.03906,-2.0625 0.03906,-3.296875 l 0,-1.097657 -2.5625,-4.394531 z m 5.128906,-8.789063 -5.128906,-8.789062 -5.125,8.789062 z m 0,0 2.5625,0 0,-4.394531 z m -10.253906,0 -5.128906,-8.789062 -5.125,8.789062 z m -10.253906,0 -5.128907,8.789063 10.253907,0 z m 0,0 -5.128907,-8.789062 -5.125,8.789062 z m -10.253907,0 -5.128906,8.789063 10.253906,0 z m 0,0 -5.128906,-8.789062 -5.125,8.789062 z m -10.253906,0 L 0.562,36.605969 c 0,1.167969 0.01172,2.210937 0.03906,3.140625 l 8.382813,0 z m 0,0 -3.296875,-5.648437 0,5.648437 z m 5.125,8.789063 -4.3125,7.394531 C 6.269031,47.434094 8.479969,47.438 11.550281,47.438 l 1.921875,0 z m 0,-17.578125 -5.125,-8.789063 -3.296875,5.648438 0,3.140625 z m 0,0 10.253906,0 -5.125,-8.789063 z m 5.128906,-8.789063 -5.128906,-8.7890624 -5.125,8.7890624 z m 0,0 10.253907,0 -5.128907,-8.7890624 z m 5.125,-8.7890624 -2.351562,-4.027344 -5.335938,0 c -0.07813,0 -0.140625,0 -0.214843,0 l -2.351563,4.027344 z m 0,0 10.253907,0 -2.351563,-4.027344 -5.550781,0 z m 10.253907,0 10.253906,0 -2.351563,-4.027344 c -0.3125,0 -0.609375,0 -0.941406,0 l -4.609375,0 z m 0,0 -5.125,8.7890624 10.253906,0 z m 5.128906,8.7890624 10.253906,0 -5.128906,-8.7890624 z m 0,0 -5.128906,8.789063 10.253906,0 z m 5.125,8.789063 7.691406,0 0,-4.394531 -2.5625,-4.394532 z m 5.128906,-8.789063 2.5625,0 0,-1.832031 c 0,-0.914063 -0.0078,-1.7500004 -0.02344,-2.5234374 z m -15.382812,8.789063 -5.125,-8.789063 -5.128907,8.789063 z m 10.253906,-17.5781254 7.308594,0 C 46.4995,1.8325306 45.167469,0.9614376 42.022938,0.6879996 z m -30.761719,0 -2.304687,-3.953125 c -3.660157,0.207031 -5.140626,0.996093 -5.734376,3.953125 z m -5.125,8.7890624 -3.238281,-5.5546874 c -0.04297,1.074219 -0.05859,2.3085934 -0.05859,3.7226564 l 0,1.832031 z m 15.378906,26.367188 -4.484375,7.691406 8.972656,0 z m 10.253907,0 -4.484376,7.691406 8.972657,0 z M 2.59325,46.367688 0.991688,43.621594 C 1.284656,44.938 1.776844,45.801281 2.59325,46.367688 z"/><path id="path30" fill="#fff" d="m 23.991074,9.54 c -1.923349,0 -3.481915,1.5587 -3.481915,3.482 0,1.6212 1.135984,2.9637 2.635841,3.3517 l 0,1.7898 c -3.446794,0.418 -6.117756,3.339 -6.117756,6.8988 0,0.9616 0.200852,1.8677 0.553201,2.7009 l -1.171484,0.6834 c -1.088108,-1.0738 -2.777224,-1.3546 -4.16528,-0.5533 -1.665666,0.9617 -2.230782,3.0853 -1.269108,4.751 0.961673,1.6657 3.085354,2.2308 4.751023,1.2692 1.426931,-0.8239 2.049756,-2.4904 1.594519,-4.0026 L 18.459058,29.26 c 1.271505,1.6768 3.26487,2.766 5.532016,2.766 2.419849,0 4.544284,-1.2187 5.792343,-3.0914 l 1.464357,0.8461 c -0.536333,1.5464 0.05942,3.2841 1.529437,4.1328 1.665666,0.9616 3.789348,0.3965 4.75102,-1.2692 0.961674,-1.6657 0.396559,-3.7893 -1.269103,-4.751 -1.349651,-0.7792 -2.976876,-0.5446 -4.067661,0.4556 l -1.659604,-0.9437 c 0.261815,-0.7326 0.423039,-1.5203 0.423039,-2.3429 0,-3.5487 -2.654188,-6.4663 -6.085215,-6.8988 l 0,-1.7898 c 1.499853,-0.388 2.603299,-1.7305 2.603299,-3.3517 0,-1.9233 -1.558566,-3.482 -3.481912,-3.482 z m 0.976238,11.3244 c 0.476121,0 0.875264,0.044 1.204023,0.1627 0.334417,0.119 0.603801,0.2686 0.813533,0.4556 0.215397,0.187 0.391755,0.4184 0.488118,0.6509 0.09638,0.2266 0.130146,0.4566 0.130146,0.6833 -7e-6,0.391 -0.07894,0.7295 -0.260327,1.0413 -0.181417,0.3117 -0.460644,0.5925 -0.846074,0.8135 -0.385441,0.2211 -0.896074,0.3691 -1.496895,0.4882 -0.600831,0.119 -1.308837,0.1952 -2.147726,0.1952 l -0.911154,0 c -0.03968,0.1871 -0.08061,0.3449 -0.09762,0.5206 -0.01134,0.1757 0,0.3677 0,0.5207 0,0.5668 0.145311,1.0012 0.423039,1.3016 0.283393,0.3005 0.737557,0.4231 1.366731,0.4231 0.362757,0 0.687154,-0.014 0.976234,-0.065 0.289063,-0.058 0.538721,-0.1003 0.748453,-0.1627 0.215398,-0.063 0.384615,-0.1442 0.520657,-0.1952 0.136028,-0.058 0.241866,-0.065 0.29289,-0.065 0.05099,0 0.07494,0.026 0.09762,0.065 0.02835,0.034 0.0326,0.063 0.0326,0.1302 -3e-6,0.058 0.01134,0.1484 0,0.2277 -0.01134,0.079 -0.04241,0.1427 -0.06509,0.2279 -0.02268,0.079 -0.05797,0.1541 -0.09762,0.2277 -0.03402,0.074 -0.0523,0.1443 -0.09762,0.1953 -0.068,0.068 -0.182268,0.1271 -0.357952,0.1953 -0.170044,0.063 -0.380229,0.1385 -0.618282,0.1952 -0.238075,0.051 -0.497591,0.096 -0.780991,0.1301 -0.283394,0.034 -0.562667,0.033 -0.846075,0.033 -0.504468,0 -0.954425,-0.05 -1.33419,-0.1627 -0.379764,-0.1134 -0.688624,-0.2882 -0.943688,-0.5206 -0.249414,-0.2381 -0.461045,-0.5272 -0.585745,-0.8787 -0.124689,-0.3513 -0.162708,-0.7604 -0.162708,-1.2365 0,-0.3685 0.02976,-0.7846 0.09762,-1.2041 0.0737,-0.425 0.172382,-0.8227 0.325417,-1.2365 0.153036,-0.4137 0.342,-0.8242 0.585741,-1.204 0.243708,-0.3798 0.544188,-0.7197 0.878616,-1.0088 0.340086,-0.2891 0.729361,-0.5077 1.171484,-0.6834 0.44211,-0.1757 0.941411,-0.2603 1.496895,-0.2603 z m -0.09762,1.1065 c -0.368437,0 -0.692833,0.065 -0.976238,0.1951 -0.283393,0.1248 -0.559934,0.2727 -0.780991,0.4882 -0.215397,0.2153 -0.394494,0.4919 -0.553199,0.781 -0.153035,0.2835 -0.261566,0.5612 -0.357955,0.8786 l 0.846071,0 c 0.595155,0 1.100122,-0.023 1.496898,-0.098 0.402435,-0.074 0.73817,-0.1682 0.976238,-0.2929 0.243709,-0.1304 0.391755,-0.2856 0.488119,-0.4556 0.102012,-0.1701 0.162673,-0.3336 0.162673,-0.5207 -3e-6,-0.289 -0.131244,-0.5401 -0.357952,-0.7158 -0.226736,-0.1815 -0.524253,-0.2603 -0.943692,-0.2603 z"/></svg>