<?xml version="1.0" encoding="UTF-8" standalone="no"?>
<svg
   xmlns:dc="http://purl.org/dc/elements/1.1/"
   xmlns:cc="http://creativecommons.org/ns#"
   xmlns:rdf="http://www.w3.org/1999/02/22-rdf-syntax-ns#"
   xmlns:svg="http://www.w3.org/2000/svg"
   xmlns="http://www.w3.org/2000/svg"
   xmlns:xlink="http://www.w3.org/1999/xlink"
   xmlns:sodipodi="http://sodipodi.sourceforge.net/DTD/sodipodi-0.dtd"
   xmlns:inkscape="http://www.inkscape.org/namespaces/inkscape"
   width="48"
   height="48"
   viewBox="0 0 48 48"
   id="svg2"
   version="1.1"
   inkscape:version="0.48.4 r9939"
   sodipodi:docname="amd.svg">
  <defs
     id="defs3019" />
  <metadata
     id="metadata35">
    <rdf:RDF>
      <cc:Work
         rdf:about="">
        <dc:format>image/svg+xml</dc:format>
        <dc:type
           rdf:resource="http://purl.org/dc/dcmitype/StillImage" />
        <dc:title></dc:title>
      </cc:Work>
    </rdf:RDF>
  </metadata>
  <sodipodi:namedview
     pagecolor="#ffffff"
     bordercolor="#666666"
     borderopacity="1"
     objecttolerance="10"
     gridtolerance="10"
     guidetolerance="10"
     inkscape:pageopacity="0"
     inkscape:pageshadow="2"
     inkscape:window-width="1024"
     inkscape:window-height="692"
     id="namedview33"
     showgrid="false"
     inkscape:zoom="6.9532167"
     inkscape:cx="15.902826"
     inkscape:cy="19.579923"
     inkscape:window-x="0"
     inkscape:window-y="24"
     inkscape:window-maximized="1"
     inkscape:current-layer="svg2" />
  <path
     fill="#808080"
     d="M 47.4375 11.546875 L 47.4375 36.453125 C 47.4375 46.703125 47.4375 47.4375 36.453125 47.4375 L 11.550781 47.4375 C 0.5625 47.4375 0.5625 46.703125 0.5625 36.453125 L 0.5625 11.546875 C 0.5625 1.296875 0.5625 0.5625 11.550781 0.5625 L 36.453125 0.5625 C 47.4375 0.5625 47.4375 1.296875 47.4375 11.546875 Z "
     id="path11"
     style="fill:#f7931a;fill-opacity:1" />
  <path
     inkscape:connector-curvature="0"
     id="path15"
     d="m 38.265625,47.4375 c 2.542969,-0.01172 4.378906,-0.08203 5.710937,-0.441406 l -4.230468,-7.25 -4.484375,7.691406 1.191406,0 c 0.640625,0 1.242187,0 1.8125,0 z m 1.480469,-7.691406 -5.125,-8.789063 -5.128906,8.789063 z m 0,0 7.652344,0 c 0.03125,-0.972656 0.03906,-2.0625 0.03906,-3.296875 l 0,-1.097657 -2.5625,-4.394531 z m 5.128906,-8.789063 -5.128906,-8.789062 -5.125,8.789062 z m 0,0 2.5625,0 0,-4.394531 z m -10.253906,0 -5.128906,-8.789062 -5.125,8.789062 z m -10.253906,0 -5.128907,8.789063 10.253907,0 z m 0,0 -5.128907,-8.789062 -5.125,8.789062 z m -10.253907,0 -5.128906,8.789063 10.253906,0 z m 0,0 -5.128906,-8.789062 -5.125,8.789062 z m -10.253906,0 -3.296875,5.648438 c 0,1.167969 0.011719,2.210937 0.039062,3.140625 l 8.382813,0 z m 0,0 -3.296875,-5.648437 0,5.648437 z m 5.125,8.789063 -4.3125,7.394531 c 1.597656,0.292969 3.808594,0.296875 6.878906,0.296875 l 1.921875,0 z m 0,-17.578125 -5.125,-8.789063 -3.296875,5.648438 0,3.140625 z m 0,0 10.253906,0 -5.125,-8.789063 z m 5.128906,-8.789063 -5.128906,-8.789062 -5.125,8.789062 z m 0,0 10.253907,0 -5.128907,-8.789062 z m 5.125,-8.789062 -2.351562,-4.027344 -5.335938,0 c -0.07813,0 -0.140625,0 -0.214843,0 L 8.984375,4.589844 z m 0,0 10.253907,0 -2.351563,-4.027344 -5.550781,0 z m 10.253907,0 10.253906,0 L 37.394531,0.5625 c -0.3125,0 -0.609375,0 -0.941406,0 l -4.609375,0 z m 0,0 -5.125,8.789062 10.253906,0 z m 5.128906,8.789062 10.253906,0 -5.128906,-8.789062 z m 0,0 -5.128906,8.789063 10.253906,0 z m 5.125,8.789063 7.691406,0 0,-4.394531 -2.5625,-4.394532 z m 5.128906,-8.789063 2.5625,0 0,-1.832031 c 0,-0.914063 -0.0078,-1.75 -0.02344,-2.523437 z m -15.382812,8.789063 -5.125,-8.789063 -5.128907,8.789063 z m 10.253906,-17.578125 7.308594,0 C 46.5,1.832031 45.167969,0.960938 42.023438,0.6875 z m -30.761719,0 L 6.679688,0.636719 C 3.019531,0.84375 1.539062,1.632812 0.945312,4.589844 z m -5.125,8.789062 L 0.621094,7.824219 C 0.578125,8.898438 0.5625,10.132812 0.5625,11.546875 l 0,1.832031 z m 15.378906,26.367188 -4.484375,7.691406 8.972656,0 z m 10.253907,0 -4.484376,7.691406 8.972657,0 z M 2.59375,46.367188 0.992188,43.621094 c 0.292968,1.316406 0.785156,2.179687 1.601562,2.746094 z"
     style="fill:#ffffff;fill-opacity:0.09019608" />
  <g
     style="fill:#f9f9f9;fill-opacity:1"
     transform="matrix(3.543307,0,0,3.543307,4.76e-5,-4e-7)"
     id="g25">
    <use
       height="1052.3622"
       width="744.09448"
       y="0"
       x="0"
       transform="matrix(0.14111,0,0,0.19349,3.66889,3.10559)"
       xlink:href="#2"
       id="use27"
       style="fill:#f9f9f9;fill-opacity:1" />
    <use
       height="1052.3622"
       width="744.09448"
       y="0"
       x="0"
       transform="matrix(0.21167,0,0,0.29024,1.27,-0.98607)"
       xlink:href="#2"
       id="use29"
       style="fill:#f9f9f9;fill-opacity:1" />
    <use
       height="1052.3622"
       width="744.09448"
       y="0"
       x="0"
       transform="matrix(0.28222,0,0,0.38698,-0.28222,-5.35994)"
       xlink:href="#2"
       id="use31"
       style="fill:#f9f9f9;fill-opacity:1" />
    <use
       height="1052.3622"
       width="744.09448"
       y="0"
       x="0"
       transform="matrix(0.42333,0,0,0.58047,-4.23333,-14.38991)"
       xlink:href="#2"
       id="use33"
       style="fill:#f9f9f9;fill-opacity:1" />
    <use
       height="1052.3622"
       width="744.09448"
       y="0"
       x="0"
       transform="matrix(0.35278,0,0,0.48373,-2.96333,-9.73381)"
       xlink:href="#2"
       id="use35"
       style="fill:#f9f9f9;fill-opacity:1" />
  </g>
  <path
     style="fill:#ffffff"
     inkscape:connector-curvature="0"
     d="m 23.739672,9.5400004 c -1.923349,0 -3.481915,1.5586426 -3.481915,3.4819686 0,1.621184 1.135984,2.963681 2.635841,3.351731 l 0,1.789737 c -3.446794,0.418032 -6.117756,3.339017 -6.117756,6.898818 0,0.961663 0.200852,1.867743 0.553201,2.700886 l -1.171484,0.683405 c -1.088108,-1.073774 -2.777224,-1.35461 -4.16528,-0.553252 -1.665667,0.961661 -2.2307826,3.085326 -1.269109,4.751008 0.961674,1.665686 3.085355,2.230793 4.751024,1.269133 1.426931,-0.823863 2.049756,-2.490406 1.594519,-4.002573 l 1.138943,-0.650847 c 1.271505,1.676769 3.26487,2.766005 5.532016,2.766005 2.419849,0 4.544284,-1.218701 5.792343,-3.091426 l 1.464357,0.846115 c -0.536333,1.546356 0.05942,3.284035 1.529437,4.132726 1.665666,0.96166 3.789348,0.396553 4.751019,-1.269133 0.961675,-1.665682 0.39656,-3.789347 -1.269102,-4.751008 -1.349651,-0.779194 -2.976876,-0.544663 -4.067661,0.455574 l -1.659604,-0.943709 c 0.261815,-0.732544 0.423039,-1.520241 0.423039,-2.342904 0,-3.548634 -2.654188,-6.466267 -6.085215,-6.898818 l 0,-1.789737 c 1.499853,-0.38805 2.603299,-1.730547 2.603299,-3.351731 0,-1.923326 -1.558566,-3.4819686 -3.481912,-3.4819686 z M 24.71591,20.864408 c 0.476121,0 0.875264,0.04381 1.204023,0.162713 0.334417,0.118984 0.603801,0.268554 0.813532,0.455574 0.215398,0.187022 0.391756,0.418375 0.488119,0.650845 0.09638,0.226626 0.130146,0.456605 0.130146,0.683318 -7e-6,0.391057 -0.07895,0.729537 -0.260327,1.0413 -0.181417,0.311765 -0.460644,0.592513 -0.846074,0.813557 -0.385441,0.221046 -0.896074,0.369064 -1.496895,0.488133 -0.600831,0.118984 -1.308837,0.195272 -2.147726,0.195272 l -0.911154,0 c -0.03969,0.187022 -0.08061,0.344838 -0.09762,0.520607 -0.01134,0.175684 0,0.367603 0,0.520693 0,0.56674 0.145311,1.001181 0.423039,1.301603 0.283393,0.300437 0.737557,0.423102 1.366731,0.423102 0.362757,0 0.687154,-0.01382 0.976234,-0.0653 0.289063,-0.05754 0.538721,-0.100346 0.748453,-0.162709 0.215398,-0.06272 0.384615,-0.144248 0.520657,-0.195271 0.136028,-0.05754 0.241866,-0.0653 0.29289,-0.0653 0.05099,0 0.07494,0.02587 0.09762,0.0653 0.02835,0.03437 0.0326,0.06272 0.0326,0.130252 -3e-6,0.05754 0.01134,0.148358 0,0.227728 -0.01134,0.07902 -0.04241,0.142689 -0.06509,0.227835 -0.02268,0.07905 -0.05797,0.154134 -0.09762,0.227728 -0.03402,0.07388 -0.0523,0.144248 -0.09762,0.195272 -0.068,0.06785 -0.182268,0.127134 -0.357952,0.195271 -0.170044,0.06272 -0.380229,0.138579 -0.618283,0.195201 -0.238074,0.05071 -0.49759,0.09638 -0.78099,0.130146 -0.283394,0.03437 -0.562667,0.0326 -0.846075,0.0326 -0.504468,0 -0.954425,-0.04982 -1.33419,-0.162708 -0.379764,-0.113386 -0.688624,-0.288213 -0.943689,-0.520587 -0.249413,-0.238145 -0.461044,-0.527222 -0.585744,-0.878676 -0.124688,-0.35128 -0.162708,-0.760464 -0.162708,-1.236571 0,-0.368463 0.02976,-0.784519 0.09762,-1.204012 0.0737,-0.425076 0.172382,-0.822748 0.325417,-1.23657 0.153036,-0.413651 0.342,-0.824209 0.585741,-1.204012 0.243708,-0.379717 0.544188,-0.719658 0.878616,-1.008741 0.340086,-0.289084 0.729361,-0.50772 1.171484,-0.683404 0.442109,-0.175769 0.941411,-0.260305 1.496895,-0.260305 z m -0.09762,1.10642 c -0.368437,0 -0.692834,0.06529 -0.976238,0.195187 -0.283394,0.124742 -0.559934,0.272671 -0.780991,0.488133 -0.215397,0.215373 -0.394494,0.491913 -0.553199,0.780996 -0.153035,0.283497 -0.261567,0.561242 -0.357955,0.878589 l 0.846071,0 c 0.595155,0 1.100122,-0.02321 1.496898,-0.09759 0.402435,-0.07388 0.73817,-0.168126 0.976238,-0.292861 0.243709,-0.130412 0.391755,-0.285647 0.488119,-0.455575 0.102012,-0.1701 0.162673,-0.333669 0.162673,-0.520692 -4e-6,-0.289085 -0.131244,-0.54011 -0.357952,-0.715879 -0.226736,-0.181438 -0.524253,-0.260302 -0.943692,-0.260302 z"
     id="path4461" />
</svg>
