<?xml version="1.0" encoding="UTF-8" standalone="no"?>
<svg
   xmlns:dc="http://purl.org/dc/elements/1.1/"
   xmlns:cc="http://creativecommons.org/ns#"
   xmlns:rdf="http://www.w3.org/1999/02/22-rdf-syntax-ns#"
   xmlns:svg="http://www.w3.org/2000/svg"
   xmlns="http://www.w3.org/2000/svg"
   xmlns:xlink="http://www.w3.org/1999/xlink"
   xmlns:sodipodi="http://sodipodi.sourceforge.net/DTD/sodipodi-0.dtd"
   xmlns:inkscape="http://www.inkscape.org/namespaces/inkscape"
   width="48"
   height="48"
   viewBox="0 0 48 48"
   id="svg2"
   version="1.1"
   inkscape:version="0.48.4 r9939"
   sodipodi:docname="amule.svg">
  <defs
     id="defs3019" />
  <metadata
     id="metadata35">
    <rdf:RDF>
      <cc:Work
         rdf:about="">
        <dc:format>image/svg+xml</dc:format>
        <dc:type
           rdf:resource="http://purl.org/dc/dcmitype/StillImage" />
        <dc:title></dc:title>
      </cc:Work>
    </rdf:RDF>
  </metadata>
  <sodipodi:namedview
     pagecolor="#ffffff"
     bordercolor="#666666"
     borderopacity="1"
     objecttolerance="10"
     gridtolerance="10"
     guidetolerance="10"
     inkscape:pageopacity="0"
     inkscape:pageshadow="2"
     inkscape:window-width="1024"
     inkscape:window-height="692"
     id="namedview33"
     showgrid="false"
     inkscape:zoom="4.9166667"
     inkscape:cx="15.902826"
     inkscape:cy="19.579923"
     inkscape:window-x="0"
     inkscape:window-y="24"
     inkscape:window-maximized="1"
     inkscape:current-layer="svg2" />
  <path
     fill="#808080"
     d="M 47.4375 11.546875 L 47.4375 36.453125 C 47.4375 46.703125 47.4375 47.4375 36.453125 47.4375 L 11.550781 47.4375 C 0.5625 47.4375 0.5625 46.703125 0.5625 36.453125 L 0.5625 11.546875 C 0.5625 1.296875 0.5625 0.5625 11.550781 0.5625 L 36.453125 0.5625 C 47.4375 0.5625 47.4375 1.296875 47.4375 11.546875 Z "
     id="path11"
     style="fill:#698f29;fill-opacity:1" />
  <path
     inkscape:connector-curvature="0"
     id="path15"
     d="m 38.265625,47.4375 c 2.542969,-0.01172 4.378906,-0.08203 5.710937,-0.441406 l -4.230468,-7.25 -4.484375,7.691406 1.191406,0 c 0.640625,0 1.242187,0 1.8125,0 z m 1.480469,-7.691406 -5.125,-8.789063 -5.128906,8.789063 z m 0,0 7.652344,0 c 0.03125,-0.972656 0.03906,-2.0625 0.03906,-3.296875 l 0,-1.097657 -2.5625,-4.394531 z m 5.128906,-8.789063 -5.128906,-8.789062 -5.125,8.789062 z m 0,0 2.5625,0 0,-4.394531 z m -10.253906,0 -5.128906,-8.789062 -5.125,8.789062 z m -10.253906,0 -5.128907,8.789063 10.253907,0 z m 0,0 -5.128907,-8.789062 -5.125,8.789062 z m -10.253907,0 -5.128906,8.789063 10.253906,0 z m 0,0 -5.128906,-8.789062 -5.125,8.789062 z m -10.253906,0 -3.296875,5.648438 c 0,1.167969 0.011719,2.210937 0.039062,3.140625 l 8.382813,0 z m 0,0 -3.296875,-5.648437 0,5.648437 z m 5.125,8.789063 -4.3125,7.394531 c 1.597656,0.292969 3.808594,0.296875 6.878906,0.296875 l 1.921875,0 z m 0,-17.578125 -5.125,-8.789063 -3.296875,5.648438 0,3.140625 z m 0,0 10.253906,0 -5.125,-8.789063 z m 5.128906,-8.789063 -5.128906,-8.789062 -5.125,8.789062 z m 0,0 10.253907,0 -5.128907,-8.789062 z m 5.125,-8.789062 -2.351562,-4.027344 -5.335938,0 c -0.07813,0 -0.140625,0 -0.214843,0 L 8.984375,4.589844 z m 0,0 10.253907,0 -2.351563,-4.027344 -5.550781,0 z m 10.253907,0 10.253906,0 L 37.394531,0.5625 c -0.3125,0 -0.609375,0 -0.941406,0 l -4.609375,0 z m 0,0 -5.125,8.789062 10.253906,0 z m 5.128906,8.789062 10.253906,0 -5.128906,-8.789062 z m 0,0 -5.128906,8.789063 10.253906,0 z m 5.125,8.789063 7.691406,0 0,-4.394531 -2.5625,-4.394532 z m 5.128906,-8.789063 2.5625,0 0,-1.832031 c 0,-0.914063 -0.0078,-1.75 -0.02344,-2.523437 z m -15.382812,8.789063 -5.125,-8.789063 -5.128907,8.789063 z m 10.253906,-17.578125 7.308594,0 C 46.5,1.832031 45.167969,0.960938 42.023438,0.6875 z m -30.761719,0 L 6.679688,0.636719 C 3.019531,0.84375 1.539062,1.632812 0.945312,4.589844 z m -5.125,8.789062 L 0.621094,7.824219 C 0.578125,8.898438 0.5625,10.132812 0.5625,11.546875 l 0,1.832031 z m 15.378906,26.367188 -4.484375,7.691406 8.972656,0 z m 10.253907,0 -4.484376,7.691406 8.972657,0 z M 2.59375,46.367188 0.992188,43.621094 c 0.292968,1.316406 0.785156,2.179687 1.601562,2.746094 z"
     style="fill:#ffffff;fill-opacity:0.0627451" />
  <g
     style="fill:#f9f9f9;fill-opacity:1"
     transform="matrix(3.543307,0,0,3.543307,4.76e-5,-4e-7)"
     id="g25">
    <use
       height="1052.3622"
       width="744.09448"
       y="0"
       x="0"
       transform="matrix(0.14111,0,0,0.19349,3.66889,3.10559)"
       xlink:href="#2"
       id="use27"
       style="fill:#f9f9f9;fill-opacity:1" />
    <use
       height="1052.3622"
       width="744.09448"
       y="0"
       x="0"
       transform="matrix(0.21167,0,0,0.29024,1.27,-0.98607)"
       xlink:href="#2"
       id="use29"
       style="fill:#f9f9f9;fill-opacity:1" />
    <use
       height="1052.3622"
       width="744.09448"
       y="0"
       x="0"
       transform="matrix(0.28222,0,0,0.38698,-0.28222,-5.35994)"
       xlink:href="#2"
       id="use31"
       style="fill:#f9f9f9;fill-opacity:1" />
    <use
       height="1052.3622"
       width="744.09448"
       y="0"
       x="0"
       transform="matrix(0.42333,0,0,0.58047,-4.23333,-14.38991)"
       xlink:href="#2"
       id="use33"
       style="fill:#f9f9f9;fill-opacity:1" />
    <use
       height="1052.3622"
       width="744.09448"
       y="0"
       x="0"
       transform="matrix(0.35278,0,0,0.48373,-2.96333,-9.73381)"
       xlink:href="#2"
       id="use35"
       style="fill:#f9f9f9;fill-opacity:1" />
  </g>
  <g
     style="fill:#f9f9f9"
     transform="matrix(3.543307,0,0,3.543307,0,1.4804212e-4)"
     id="g5115">
    <path
       inkscape:connector-curvature="0"
       d="m 9.4363776,5.3622223 c -0.2438301,0 -0.4052663,0.2139379 -0.4052663,0.4777089 l 0,1.8668045 c 0,0.2638615 0.1614362,0.4777089 0.4052663,0.4777089 0.2438302,0 0.4414004,-0.2138293 0.4414004,-0.4777089 l 0,-1.8668045 C 9.8777953,5.5761602 9.6802251,5.3622223 9.4363776,5.3622223 z m -5.3259503,0 c -0.2439679,0 -0.4415383,0.2139379 -0.4415383,0.4777089 l 0,1.8668045 c 0,0.2638615 0.1975528,0.4777089 0.4415383,0.4777089 0.2439336,0 0.4051284,-0.2138293 0.4051284,-0.4777089 l 0,-1.8668045 C 4.5154189,5.5761602 4.3542748,5.3622223 4.1104273,5.3622223 z"
       id="path5117" />
    <path
       inkscape:connector-curvature="0"
       d="m 17,19 0,11.59375 c 0,0.688921 0.322415,1.406503 1.000142,1.406503 l 2.000016,0 0,3.374747 c 0,0.897029 0.318119,1.625 1.187342,1.625 0.868916,0 1.812682,-0.727971 1.812682,-1.625 l 0,-3.374747 2.000015,0 0,3.374747 c 0,0.897029 0.943449,1.625 1.812303,1.625 0.868855,0 1.187721,-0.727971 1.187721,-1.625 l 0,-3.374747 2.000016,0 C 30.677166,32.000253 31,31.282178 31,30.59375 L 31,19 z m 7.1875,1 c 1.612605,0.04836 0.319663,1.501645 1.6875,2.28125 1.367844,0.779605 2.212172,-0.926953 2.96875,0.375 0.756578,1.301952 -1.286313,0.962057 -1.34375,2.4375 -0.0574,1.475444 1.98101,1.30893 1.125,2.5625 -0.85601,1.253611 -1.543504,-0.50834 -2.96875,0.1875 C 24.231001,28.539588 25.425087,30.048366 23.8125,30 22.19993,29.95164 23.492837,28.498355 22.125,27.71875 c -1.367844,-0.779604 -2.212172,0.926952 -2.96875,-0.375 -0.756578,-1.301952 1.286348,-0.962057 1.34375,-2.4375 0.05741,-1.475444 -1.981017,-1.30891 -1.125,-2.5625 0.85601,-1.253591 1.543501,0.508339 2.96875,-0.1875 1.247078,-0.608859 0.503531,-1.858061 1.375,-2.125 C 23.843265,19.993106 23.985921,19.993976 24.1875,20 z M 24,23.78125 c -0.08847,6.19e-4 -0.191337,0.01365 -0.28125,0.03125 -0.719295,0.140765 -1.184144,0.775256 -1.03125,1.4375 0.152894,0.662243 0.874445,1.078265 1.59375,0.9375 C 25.000577,26.046736 25.465394,25.412244 25.3125,24.75 25.178718,24.170537 24.619302,23.776919 24,23.78125 z"
       transform="scale(0.28222,0.28222)"
       id="path5119" />
    <path
       inkscape:connector-curvature="0"
       d="M 7.7098227,3.7247438 8.074799,3.2049284 C 8.096378,3.1740104 8.091075,3.1335334 8.062753,3.1143164 8.034379,3.0952334 7.993976,3.1046064 7.972188,3.1355924 L 7.5930349,3.6754289 C 7.3433735,3.5788246 7.0658064,3.5250569 6.7733156,3.5250569 c -0.2924041,0 -0.5701272,0.053768 -0.8197886,0.150372 L 5.5743723,3.1355929 c -0.021787,-0.030918 -0.062207,-0.040393 -0.090564,-0.021276 -0.028356,0.019117 -0.033729,0.05966 -0.012063,0.090612 l 0.364977,0.5198156 C 5.256698,3.9894809 4.849603,4.4926906 4.7977779,5.0800001 H 8.7488891 C 8.6970469,4.4926906 8.2899518,3.9894976 7.7098236,3.7247438 z M 5.9398858,4.5438636 c -0.1207231,0 -0.2186879,-0.096002 -0.2186879,-0.2145015 0,-0.1183156 0.097879,-0.2144178 0.2186879,-0.2144178 0.1208092,0 0.218445,0.096102 0.218445,0.2144178 0,0.1184161 -0.097757,0.2145015 -0.218445,0.2145015 z m 1.6941752,0 c -0.1208096,0 -0.2185491,-0.096002 -0.2185491,-0.2145015 0,-0.1183156 0.097757,-0.2144178 0.2185491,-0.2144178 0.1208269,0 0.2185665,0.096102 0.2185665,0.2144178 0,0.1184161 -0.097757,0.2145015 -0.2185665,0.2145015 z"
       id="path5121" />
  </g>
</svg>
