<?xml version="1.0" encoding="UTF-8" standalone="no"?>
<svg
   xmlns:dc="http://purl.org/dc/elements/1.1/"
   xmlns:cc="http://creativecommons.org/ns#"
   xmlns:rdf="http://www.w3.org/1999/02/22-rdf-syntax-ns#"
   xmlns:svg="http://www.w3.org/2000/svg"
   xmlns="http://www.w3.org/2000/svg"
   xmlns:xlink="http://www.w3.org/1999/xlink"
   xmlns:sodipodi="http://sodipodi.sourceforge.net/DTD/sodipodi-0.dtd"
   xmlns:inkscape="http://www.inkscape.org/namespaces/inkscape"
   width="48"
   height="48"
   viewBox="0 0 48 48"
   id="svg2"
   version="1.1"
   inkscape:version="0.48.4 r9939"
   sodipodi:docname="Angry Birds-chrome.angrybirds.com.svg">
  <defs
     id="defs3019" />
  <metadata
     id="metadata35">
    <rdf:RDF>
      <cc:Work
         rdf:about="">
        <dc:format>image/svg+xml</dc:format>
        <dc:type
           rdf:resource="http://purl.org/dc/dcmitype/StillImage" />
        <dc:title></dc:title>
      </cc:Work>
    </rdf:RDF>
  </metadata>
  <sodipodi:namedview
     pagecolor="#ffffff"
     bordercolor="#666666"
     borderopacity="1"
     objecttolerance="10"
     gridtolerance="10"
     guidetolerance="10"
     inkscape:pageopacity="0"
     inkscape:pageshadow="2"
     inkscape:window-width="1024"
     inkscape:window-height="692"
     id="namedview33"
     showgrid="false"
     inkscape:zoom="6.9532168"
     inkscape:cx="14.31119"
     inkscape:cy="27.715516"
     inkscape:window-x="0"
     inkscape:window-y="24"
     inkscape:window-maximized="1"
     inkscape:current-layer="svg2" />
  <path
     fill="#808080"
     d="M 47.4375 11.546875 L 47.4375 36.453125 C 47.4375 46.703125 47.4375 47.4375 36.453125 47.4375 L 11.550781 47.4375 C 0.5625 47.4375 0.5625 46.703125 0.5625 36.453125 L 0.5625 11.546875 C 0.5625 1.296875 0.5625 0.5625 11.550781 0.5625 L 36.453125 0.5625 C 47.4375 0.5625 47.4375 1.296875 47.4375 11.546875 Z "
     id="path11"
     style="fill:#47294f;fill-opacity:1" />
  <path
     inkscape:connector-curvature="0"
     id="path15"
     d="m 38.265625,47.4375 c 2.542969,-0.01172 4.378906,-0.08203 5.710937,-0.441406 l -4.230468,-7.25 -4.484375,7.691406 1.191406,0 c 0.640625,0 1.242187,0 1.8125,0 z m 1.480469,-7.691406 -5.125,-8.789063 -5.128906,8.789063 z m 0,0 7.652344,0 c 0.03125,-0.972656 0.03906,-2.0625 0.03906,-3.296875 l 0,-1.097657 -2.5625,-4.394531 z m 5.128906,-8.789063 -5.128906,-8.789062 -5.125,8.789062 z m 0,0 2.5625,0 0,-4.394531 z m -10.253906,0 -5.128906,-8.789062 -5.125,8.789062 z m -10.253906,0 -5.128907,8.789063 10.253907,0 z m 0,0 -5.128907,-8.789062 -5.125,8.789062 z m -10.253907,0 -5.128906,8.789063 10.253906,0 z m 0,0 -5.128906,-8.789062 -5.125,8.789062 z m -10.253906,0 -3.296875,5.648438 c 0,1.167969 0.011719,2.210937 0.039062,3.140625 l 8.382813,0 z m 0,0 -3.296875,-5.648437 0,5.648437 z m 5.125,8.789063 -4.3125,7.394531 c 1.597656,0.292969 3.808594,0.296875 6.878906,0.296875 l 1.921875,0 z m 0,-17.578125 -5.125,-8.789063 -3.296875,5.648438 0,3.140625 z m 0,0 10.253906,0 -5.125,-8.789063 z m 5.128906,-8.789063 -5.128906,-8.789062 -5.125,8.789062 z m 0,0 10.253907,0 -5.128907,-8.789062 z m 5.125,-8.789062 -2.351562,-4.027344 -5.335938,0 c -0.07813,0 -0.140625,0 -0.214843,0 L 8.984375,4.589844 z m 0,0 10.253907,0 -2.351563,-4.027344 -5.550781,0 z m 10.253907,0 10.253906,0 L 37.394531,0.5625 c -0.3125,0 -0.609375,0 -0.941406,0 l -4.609375,0 z m 0,0 -5.125,8.789062 10.253906,0 z m 5.128906,8.789062 10.253906,0 -5.128906,-8.789062 z m 0,0 -5.128906,8.789063 10.253906,0 z m 5.125,8.789063 7.691406,0 0,-4.394531 -2.5625,-4.394532 z m 5.128906,-8.789063 2.5625,0 0,-1.832031 c 0,-0.914063 -0.0078,-1.75 -0.02344,-2.523437 z m -15.382812,8.789063 -5.125,-8.789063 -5.128907,8.789063 z m 10.253906,-17.578125 7.308594,0 C 46.5,1.832031 45.167969,0.960938 42.023438,0.6875 z m -30.761719,0 L 6.679688,0.636719 C 3.019531,0.84375 1.539062,1.632812 0.945312,4.589844 z m -5.125,8.789062 L 0.621094,7.824219 C 0.578125,8.898438 0.5625,10.132812 0.5625,11.546875 l 0,1.832031 z m 15.378906,26.367188 -4.484375,7.691406 8.972656,0 z m 10.253907,0 -4.484376,7.691406 8.972657,0 z M 2.59375,46.367188 0.992188,43.621094 c 0.292968,1.316406 0.785156,2.179687 1.601562,2.746094 z"
     style="fill:#ffffff;fill-opacity:0.04313726" />
  <g
     style="fill:#f9f9f9;fill-opacity:1"
     transform="matrix(3.543307,0,0,3.543307,4.76e-5,-4e-7)"
     id="g25">
    <use
       height="1052.3622"
       width="744.09448"
       y="0"
       x="0"
       transform="matrix(0.14111,0,0,0.19349,3.66889,3.10559)"
       xlink:href="#2"
       id="use27"
       style="fill:#f9f9f9;fill-opacity:1" />
    <use
       height="1052.3622"
       width="744.09448"
       y="0"
       x="0"
       transform="matrix(0.21167,0,0,0.29024,1.27,-0.98607)"
       xlink:href="#2"
       id="use29"
       style="fill:#f9f9f9;fill-opacity:1" />
    <use
       height="1052.3622"
       width="744.09448"
       y="0"
       x="0"
       transform="matrix(0.28222,0,0,0.38698,-0.28222,-5.35994)"
       xlink:href="#2"
       id="use31"
       style="fill:#f9f9f9;fill-opacity:1" />
    <use
       height="1052.3622"
       width="744.09448"
       y="0"
       x="0"
       transform="matrix(0.42333,0,0,0.58047,-4.23333,-14.38991)"
       xlink:href="#2"
       id="use33"
       style="fill:#f9f9f9;fill-opacity:1" />
    <use
       height="1052.3622"
       width="744.09448"
       y="0"
       x="0"
       transform="matrix(0.35278,0,0,0.48373,-2.96333,-9.73381)"
       xlink:href="#2"
       id="use35"
       style="fill:#f9f9f9;fill-opacity:1" />
  </g>
  <path
     style="color:#000000;fill:#f9f9f9;fill-opacity:1"
     inkscape:connector-curvature="0"
     d="m 24.724094,9.0045815 c -1.407495,0.032244 -2.793068,0.2382662 -4.133641,0.6048556 0.32922,0.1462429 0.653855,0.3021555 0.990945,0.4398929 0.795627,-0.2965037 2.004041,-0.6053802 3.652315,-0.5773586 1.677594,0.028524 4.340699,0.7840876 5.889012,1.2646966 A 15.585291,15.134434 0 0 0 26.677656,9.0595659 c -0.02888,-0.00281 -0.05628,0.00282 -0.08487,0 -0.623622,-0.049689 -1.247567,-0.069279 -1.868627,-0.05503 z m -1.075882,1.0722455 c -0.648815,0.03058 -1.165984,0.07528 -1.613816,0.137466 0.229791,0.09113 0.448742,0.186806 0.679505,0.274943 0.02944,-4.9e-5 0.05533,-1.41e-4 0.08487,0 2.121998,0.0096 4.607749,0.485914 7.502827,1.512137 -1.823497,-0.453223 -3.666467,-0.722135 -5.436018,-0.714833 2.314119,0.843758 4.431793,1.627218 5.549256,2.611882 l -0.113244,1.127238 c 0,0 4.936955,2.129436 8.154019,4.921337 A 15.585291,15.134434 0 0 0 31.405778,10.90163 C 28.089622,10.13005 25.482832,9.9904659 23.648135,10.076827 z m -5.096258,0.247447 c 0.02587,0.315758 0.06401,0.596567 0.141559,0.852298 0.254388,-0.09479 0.521968,-0.199248 0.792751,-0.27494 -0.310461,-0.173065 -0.62828,-0.351248 -0.93431,-0.577361 z m -1.500563,0.742319 c -5.216637,2.937063 -8.8529372,9.070256 -7.8992016,18.723082 9.103e-4,0.0094 -9.099e-4,0.01828 0,0.02746 a 15.585291,15.134434 0 0 0 0.7361291,1.429676 c -0.36976,-4.396689 -0.2210127,-7.518804 1.3306855,-12.097146 0,0 -1.2818931,5.933308 0.537937,14.654036 0.0019,0.0092 -0.0019,0.01807 0,0.02728 a 15.585291,15.134434 0 0 0 1.047566,1.044758 C 10.828395,26.830973 10.711865,15.550285 17.391145,11.78137 17.268681,11.568698 17.150174,11.3291 17.051391,11.066545 z m 4.21857,0.65985 c -0.64535,0.168682 -1.250392,0.411355 -1.840319,0.687336 0.866838,0.8739 2.138743,1.007109 2.746324,0.962268 0,0 -2.13487,0.720777 -3.765573,-0.439893 -4.666149,2.905309 -6.820954,10.036282 -2.434884,24.221783 a 15.585291,15.134434 0 0 0 0.02824,0 A 15.585291,15.134434 0 0 0 23.421637,39 15.585291,15.134434 0 0 0 38.908605,22.228961 c -0.574689,0.865154 -1.302484,2.23737 -1.670439,4.151517 0,0 -7.482969,-4.815912 -13.391836,-1.127229 0,0 -8.122507,-3.956977 -3.057759,-9.512754 0,0 1.562449,0.817902 2.40657,1.182215 -4.173725,2.960049 0.934311,6.515963 0.934311,6.515963 0,0 4.154338,-3.995451 12.032835,0.46739 0,0 0.570625,-1.817125 1.274063,-2.226972 -3.939197,-3.688684 -9.343087,-5.526201 -9.343087,-5.526201 l 0.113244,-1.622118 C 24.890555,12.93452 22.846262,12.319859 21.269932,11.726441 z m 3.595694,2.776843 c 0,0 1.580028,0.494877 2.378254,0.494877 0,0 0.05503,1.138988 -1.075881,1.429668 -0.864745,-0.258385 -1.302373,-1.924545 -1.302373,-1.924545 z"
     id="path18" />
</svg>
