<svg xmlns="http://www.w3.org/2000/svg" xmlns:svg="http://www.w3.org/2000/svg" xmlns:xlink="http://www.w3.org/1999/xlink" id="svg2" width="48" height="48" version="1.1" viewBox="0 0 48 48"><metadata id="metadata21"/><defs id="defs4"><radialGradient id="radial0" cx="148.004" cy="160" r="128" gradientTransform="matrix(.1831 0 0 .1831 -3.10029 -5.29688)" gradientUnits="userSpaceOnUse"><stop id="stop7" offset="0" stop-color="#ffb794" stop-opacity="1"/><stop id="stop9" offset="1" stop-color="#fe5603" stop-opacity="1"/></radialGradient><linearGradient id="0" x2="0" y1="1050.36" y2="1006.36" gradientUnits="userSpaceOnUse" xlink:href="#1"/><linearGradient id="1"><stop id="stop8" stop-color="#ff5400"/><stop id="stop10" offset="1" stop-color="#e58b43"/></linearGradient><linearGradient id="linearGradient4002" x2="0" y1="1050.36" y2="1006.36" gradientTransform="translate(60.61017,-1003.0402)" gradientUnits="userSpaceOnUse" xlink:href="#1"/></defs><path id="path11" fill="url(#radial0)" d="M 47.4375 11.546875 L 47.4375 36.453125 C 47.4375 46.703125 47.4375 47.4375 36.453125 47.4375 L 11.550781 47.4375 C 0.5625 47.4375 0.5625 46.703125 0.5625 36.453125 L 0.5625 11.546875 C 0.5625 1.296875 0.5625 0.5625 11.550781 0.5625 L 36.453125 0.5625 C 47.4375 0.5625 47.4375 1.296875 47.4375 11.546875 Z"/><path id="path15" fill="#fff" fill-opacity=".051" d="m 38.265625,47.4375 c 2.542969,-0.01172 4.378906,-0.08203 5.710937,-0.441406 l -4.230468,-7.25 -4.484375,7.691406 1.191406,0 c 0.640625,0 1.242187,0 1.8125,0 z m 1.480469,-7.691406 -5.125,-8.789063 -5.128906,8.789063 z m 0,0 7.652344,0 c 0.03125,-0.972656 0.03906,-2.0625 0.03906,-3.296875 l 0,-1.097657 -2.5625,-4.394531 z m 5.128906,-8.789063 -5.128906,-8.789062 -5.125,8.789062 z m 0,0 2.5625,0 0,-4.394531 z m -10.253906,0 -5.128906,-8.789062 -5.125,8.789062 z m -10.253906,0 -5.128907,8.789063 10.253907,0 z m 0,0 -5.128907,-8.789062 -5.125,8.789062 z m -10.253907,0 -5.128906,8.789063 10.253906,0 z m 0,0 -5.128906,-8.789062 -5.125,8.789062 z m -10.253906,0 -3.296875,5.648438 c 0,1.167969 0.011719,2.210937 0.039062,3.140625 l 8.382813,0 z m 0,0 -3.296875,-5.648437 0,5.648437 z m 5.125,8.789063 -4.3125,7.394531 c 1.597656,0.292969 3.808594,0.296875 6.878906,0.296875 l 1.921875,0 z m 0,-17.578125 -5.125,-8.789063 -3.296875,5.648438 0,3.140625 z m 0,0 10.253906,0 -5.125,-8.789063 z m 5.128906,-8.789063 -5.128906,-8.789062 -5.125,8.789062 z m 0,0 10.253907,0 -5.128907,-8.789062 z m 5.125,-8.789062 -2.351562,-4.027344 -5.335938,0 c -0.07813,0 -0.140625,0 -0.214843,0 L 8.984375,4.589844 z m 0,0 10.253907,0 -2.351563,-4.027344 -5.550781,0 z m 10.253907,0 10.253906,0 L 37.394531,0.5625 c -0.3125,0 -0.609375,0 -0.941406,0 l -4.609375,0 z m 0,0 -5.125,8.789062 10.253906,0 z m 5.128906,8.789062 10.253906,0 -5.128906,-8.789062 z m 0,0 -5.128906,8.789063 10.253906,0 z m 5.125,8.789063 7.691406,0 0,-4.394531 -2.5625,-4.394532 z m 5.128906,-8.789063 2.5625,0 0,-1.832031 c 0,-0.914063 -0.0078,-1.75 -0.02344,-2.523437 z m -15.382812,8.789063 -5.125,-8.789063 -5.128907,8.789063 z m 10.253906,-17.578125 7.308594,0 C 46.5,1.832031 45.167969,0.960938 42.023438,0.6875 z m -30.761719,0 L 6.679688,0.636719 C 3.019531,0.84375 1.539062,1.632812 0.945312,4.589844 z m -5.125,8.789062 L 0.621094,7.824219 C 0.578125,8.898438 0.5625,10.132812 0.5625,11.546875 l 0,1.832031 z m 15.378906,26.367188 -4.484375,7.691406 8.972656,0 z m 10.253907,0 -4.484376,7.691406 8.972657,0 z M 2.59375,46.367188 0.992188,43.621094 c 0.292968,1.316406 0.785156,2.179687 1.601562,2.746094 z"/><g id="g30" fill="#f9f9f9" transform="matrix(3.543307,0,0,3.543307,-7.7268776e-8,-4e-4)"><path id="path32" d="m 5.6314781,3.3123283 c -0.5930378,0 -1.1878544,0.226719 -1.6403271,0.6794543 -0.9049449,0.9054703 -0.9049449,2.3682644 0,3.2737348 0.904945,0.9054703 2.3757092,0.9054703 3.2806542,0 0.9049449,-0.9054704 0.9049449,-2.3682645 0,-3.2737348 C 6.8193326,3.5390473 6.224516,3.3123283 5.6314781,3.3123283 z m -0.1322844,0.6353339 0.3086637,0 1.2522927,3.1060772 -0.3792154,0 -0.3968533,-0.9882973 -1.2787497,0 -0.3968533,0.9882973 -0.3703964,0 1.2611117,-3.1060772 z M 5.6491161,4.3447459 C 5.6171778,4.480163 5.5675301,4.6237372 5.5080127,4.7859501 l -0.3703965,0.961825 1.0318186,0 -0.3703963,-0.961825 C 5.7511316,4.664644 5.6999234,4.5210695 5.6491161,4.3447459 z"/><g id="g34" transform="matrix(0.17714,-0.17724,0.17714,0.17724,-179.50127,-172.61062)"><rect id="rect36" width="3.415" height="7.544" x="18.04" y="1043.28" rx="0"/><rect id="rect38" width="2.396" height="7.544" x="18.552" y="1035.53" rx="0"/></g></g></svg>