<?xml version="1.0" encoding="UTF-8" standalone="no"?>
<svg
   xmlns:dc="http://purl.org/dc/elements/1.1/"
   xmlns:cc="http://creativecommons.org/ns#"
   xmlns:rdf="http://www.w3.org/1999/02/22-rdf-syntax-ns#"
   xmlns:svg="http://www.w3.org/2000/svg"
   xmlns="http://www.w3.org/2000/svg"
   xmlns:xlink="http://www.w3.org/1999/xlink"
   xmlns:sodipodi="http://sodipodi.sourceforge.net/DTD/sodipodi-0.dtd"
   xmlns:inkscape="http://www.inkscape.org/namespaces/inkscape"
   width="48"
   height="48"
   viewBox="0 0 48 48"
   id="svg2"
   version="1.1"
   inkscape:version="0.48.4 r9939"
   sodipodi:docname="applets-screenshooter.svg">
  <defs
     id="defs3019" />
  <metadata
     id="metadata35">
    <rdf:RDF>
      <cc:Work
         rdf:about="">
        <dc:format>image/svg+xml</dc:format>
        <dc:type
           rdf:resource="http://purl.org/dc/dcmitype/StillImage" />
        <dc:title></dc:title>
      </cc:Work>
    </rdf:RDF>
  </metadata>
  <sodipodi:namedview
     pagecolor="#ffffff"
     bordercolor="#666666"
     borderopacity="1"
     objecttolerance="10"
     gridtolerance="10"
     guidetolerance="10"
     inkscape:pageopacity="0"
     inkscape:pageshadow="2"
     inkscape:window-width="1024"
     inkscape:window-height="692"
     id="namedview33"
     showgrid="false"
     inkscape:zoom="4.9166667"
     inkscape:cx="21.437756"
     inkscape:cy="27.715516"
     inkscape:window-x="0"
     inkscape:window-y="24"
     inkscape:window-maximized="1"
     inkscape:current-layer="svg2" />
  <path
     fill="#808080"
     d="M 47.4375 11.546875 L 47.4375 36.453125 C 47.4375 46.703125 47.4375 47.4375 36.453125 47.4375 L 11.550781 47.4375 C 0.5625 47.4375 0.5625 46.703125 0.5625 36.453125 L 0.5625 11.546875 C 0.5625 1.296875 0.5625 0.5625 11.550781 0.5625 L 36.453125 0.5625 C 47.4375 0.5625 47.4375 1.296875 47.4375 11.546875 Z "
     id="path11"
     style="fill:#2d2d2d;fill-opacity:1" />
  <path
     inkscape:connector-curvature="0"
     id="path15"
     d="m 38.265625,47.4375 c 2.542969,-0.01172 4.378906,-0.08203 5.710937,-0.441406 l -4.230468,-7.25 -4.484375,7.691406 1.191406,0 c 0.640625,0 1.242187,0 1.8125,0 z m 1.480469,-7.691406 -5.125,-8.789063 -5.128906,8.789063 z m 0,0 7.652344,0 c 0.03125,-0.972656 0.03906,-2.0625 0.03906,-3.296875 l 0,-1.097657 -2.5625,-4.394531 z m 5.128906,-8.789063 -5.128906,-8.789062 -5.125,8.789062 z m 0,0 2.5625,0 0,-4.394531 z m -10.253906,0 -5.128906,-8.789062 -5.125,8.789062 z m -10.253906,0 -5.128907,8.789063 10.253907,0 z m 0,0 -5.128907,-8.789062 -5.125,8.789062 z m -10.253907,0 -5.128906,8.789063 10.253906,0 z m 0,0 -5.128906,-8.789062 -5.125,8.789062 z m -10.253906,0 -3.296875,5.648438 c 0,1.167969 0.011719,2.210937 0.039062,3.140625 l 8.382813,0 z m 0,0 -3.296875,-5.648437 0,5.648437 z m 5.125,8.789063 -4.3125,7.394531 c 1.597656,0.292969 3.808594,0.296875 6.878906,0.296875 l 1.921875,0 z m 0,-17.578125 -5.125,-8.789063 -3.296875,5.648438 0,3.140625 z m 0,0 10.253906,0 -5.125,-8.789063 z m 5.128906,-8.789063 -5.128906,-8.789062 -5.125,8.789062 z m 0,0 10.253907,0 -5.128907,-8.789062 z m 5.125,-8.789062 -2.351562,-4.027344 -5.335938,0 c -0.07813,0 -0.140625,0 -0.214843,0 L 8.984375,4.589844 z m 0,0 10.253907,0 -2.351563,-4.027344 -5.550781,0 z m 10.253907,0 10.253906,0 L 37.394531,0.5625 c -0.3125,0 -0.609375,0 -0.941406,0 l -4.609375,0 z m 0,0 -5.125,8.789062 10.253906,0 z m 5.128906,8.789062 10.253906,0 -5.128906,-8.789062 z m 0,0 -5.128906,8.789063 10.253906,0 z m 5.125,8.789063 7.691406,0 0,-4.394531 -2.5625,-4.394532 z m 5.128906,-8.789063 2.5625,0 0,-1.832031 c 0,-0.914063 -0.0078,-1.75 -0.02344,-2.523437 z m -15.382812,8.789063 -5.125,-8.789063 -5.128907,8.789063 z m 10.253906,-17.578125 7.308594,0 C 46.5,1.832031 45.167969,0.960938 42.023438,0.6875 z m -30.761719,0 L 6.679688,0.636719 C 3.019531,0.84375 1.539062,1.632812 0.945312,4.589844 z m -5.125,8.789062 L 0.621094,7.824219 C 0.578125,8.898438 0.5625,10.132812 0.5625,11.546875 l 0,1.832031 z m 15.378906,26.367188 -4.484375,7.691406 8.972656,0 z m 10.253907,0 -4.484376,7.691406 8.972657,0 z M 2.59375,46.367188 0.992188,43.621094 c 0.292968,1.316406 0.785156,2.179687 1.601562,2.746094 z"
     style="fill:#ffffff;fill-opacity:0.03137255" />
  <g
     style="fill:#f9f9f9;fill-opacity:1"
     transform="matrix(3.543307,0,0,3.543307,4.76e-5,-4e-7)"
     id="g25">
    <use
       height="1052.3622"
       width="744.09448"
       y="0"
       x="0"
       transform="matrix(0.14111,0,0,0.19349,3.66889,3.10559)"
       xlink:href="#2"
       id="use27"
       style="fill:#f9f9f9;fill-opacity:1" />
    <use
       height="1052.3622"
       width="744.09448"
       y="0"
       x="0"
       transform="matrix(0.21167,0,0,0.29024,1.27,-0.98607)"
       xlink:href="#2"
       id="use29"
       style="fill:#f9f9f9;fill-opacity:1" />
    <use
       height="1052.3622"
       width="744.09448"
       y="0"
       x="0"
       transform="matrix(0.28222,0,0,0.38698,-0.28222,-5.35994)"
       xlink:href="#2"
       id="use31"
       style="fill:#f9f9f9;fill-opacity:1" />
    <use
       height="1052.3622"
       width="744.09448"
       y="0"
       x="0"
       transform="matrix(0.42333,0,0,0.58047,-4.23333,-14.38991)"
       xlink:href="#2"
       id="use33"
       style="fill:#f9f9f9;fill-opacity:1" />
    <use
       height="1052.3622"
       width="744.09448"
       y="0"
       x="0"
       transform="matrix(0.35278,0,0,0.48373,-2.96333,-9.73381)"
       xlink:href="#2"
       id="use35"
       style="fill:#f9f9f9;fill-opacity:1" />
  </g>
  <path
     style="fill:#f9f9f9;fill-opacity:1"
     inkscape:connector-curvature="0"
     d="m 30.126087,20.057891 c 1.087597,0.347025 0.133653,1.962937 1.690033,2.754453 1.778712,0.90459 2.66298,-1.37819 3.73128,0.251476 1.068304,1.629665 -1.474399,1.376939 -1.402753,3.295015 0.07168,1.918072 2.587872,1.51069 1.643662,3.203225 -0.944209,1.692536 -1.99272,-0.528768 -3.699786,0.484717 -1.707063,1.013485 -0.07512,2.888881 -2.087614,2.951753 -2.012515,0.06288 -0.518326,-1.905716 -2.297033,-2.810305 -1.778709,-0.904592 -2.662974,1.37819 -3.731279,-0.251477 -1.068304,-1.629665 1.474399,-1.376941 1.402755,-3.295016 -0.07167,-1.918072 -2.587872,-1.510687 -1.643662,-3.203224 0.94421,-1.692536 1.992719,0.528769 3.699784,-0.484714 1.707065,-1.013485 0.07511,-2.88888 2.087619,-2.951752 0.251575,-0.0079 0.45162,0.0063 0.60699,0.05584 z m -0.02055,4.883566 c -0.897722,-0.18299 -1.780126,0.366572 -1.970936,1.22749 -0.19081,0.860915 0.38223,1.707171 1.27992,1.890165 0.89769,0.182991 1.780094,-0.366569 1.970904,-1.227488 0.190807,-0.860918 -0.382231,-1.707173 -1.27992,-1.890167 z"
     id="path7898" />
  <path
     style="fill:#f9f9f9;fill-opacity:1"
     inkscape:connector-curvature="0"
     d="m 21.486086,12.057885 c 1.087596,0.347025 0.133661,1.962938 1.690035,2.754453 1.778712,0.90459 2.662978,-1.37819 3.73128,0.251476 1.068303,1.629665 -1.474402,1.37694 -1.402754,3.295015 0.07167,1.918073 2.587871,1.510691 1.643661,3.203225 -0.944208,1.692538 -1.992719,-0.528768 -3.699783,0.484716 -1.707065,1.013485 -0.07511,2.888881 -2.087617,2.951752 -2.012513,0.06288 -0.518323,-1.905714 -2.297032,-2.810302 -1.778709,-0.904592 -2.662973,1.378188 -3.731278,-0.251477 -1.068304,-1.629666 1.474399,-1.376941 1.402754,-3.295016 -0.07167,-1.918073 -2.587872,-1.510688 -1.643662,-3.203224 0.94421,-1.692536 1.992719,0.528768 3.699785,-0.484714 1.707064,-1.013487 0.07511,-2.888882 2.087618,-2.951753 0.251568,-0.0079 0.45162,0.0063 0.606991,0.05584 z m -0.02062,4.883567 c -0.89765,-0.182991 -1.780053,0.366572 -1.970864,1.227489 -0.190811,0.860915 0.38223,1.707171 1.279919,1.890165 0.897691,0.182992 1.780094,-0.366572 1.970904,-1.227488 0.19081,-0.860917 -0.382231,-1.707173 -1.279919,-1.890166 z"
     id="path7900" />
  <path
     style="fill:#f9f9f9;fill-opacity:1"
     inkscape:connector-curvature="0"
     d="m 18.606087,23.057892 c 1.087595,0.347021 0.133664,1.962938 1.690034,2.754453 1.778712,0.90459 2.662978,-1.37819 3.73128,0.251476 1.068304,1.629664 -1.474402,1.376939 -1.402753,3.295015 0.07167,1.918072 2.58787,1.51069 1.643661,3.203224 -0.944209,1.692539 -1.992721,-0.528768 -3.699785,0.484717 -1.707064,1.013485 -0.07511,2.88888 -2.087616,2.951752 -2.012513,0.06288 -0.518323,-1.905714 -2.297032,-2.810302 -1.778709,-0.904592 -2.662974,1.378188 -3.731277,-0.251477 -1.068305,-1.629666 1.474398,-1.376942 1.402753,-3.295016 -0.07167,-1.918073 -2.587872,-1.510688 -1.643662,-3.203224 0.94421,-1.692536 1.992719,0.528768 3.699785,-0.484715 1.707065,-1.013486 0.07511,-2.888881 2.087618,-2.951752 0.251567,-0.0079 0.45162,0.0063 0.60699,0.05584 z m -0.02062,4.883566 c -0.897651,-0.182991 -1.780054,0.366573 -1.970865,1.227489 -0.190812,0.860916 0.38223,1.707171 1.27992,1.890166 0.89769,0.182992 1.780093,-0.366573 1.970904,-1.227488 0.190809,-0.860917 -0.382231,-1.707173 -1.27992,-1.890167 z"
     id="path7902" />
</svg>
