<?xml version="1.0" encoding="UTF-8" standalone="no"?>
<svg
   xmlns:dc="http://purl.org/dc/elements/1.1/"
   xmlns:cc="http://creativecommons.org/ns#"
   xmlns:rdf="http://www.w3.org/1999/02/22-rdf-syntax-ns#"
   xmlns:svg="http://www.w3.org/2000/svg"
   xmlns="http://www.w3.org/2000/svg"
   xmlns:xlink="http://www.w3.org/1999/xlink"
   xmlns:sodipodi="http://sodipodi.sourceforge.net/DTD/sodipodi-0.dtd"
   xmlns:inkscape="http://www.inkscape.org/namespaces/inkscape"
   width="48"
   height="48"
   viewBox="0 0 48 48"
   id="svg2"
   version="1.1"
   inkscape:version="0.48.4 r9939"
   sodipodi:docname="applications-python.svg">
  <defs
     id="defs3019" />
  <metadata
     id="metadata35">
    <rdf:RDF>
      <cc:Work
         rdf:about="">
        <dc:format>image/svg+xml</dc:format>
        <dc:type
           rdf:resource="http://purl.org/dc/dcmitype/StillImage" />
        <dc:title></dc:title>
      </cc:Work>
    </rdf:RDF>
  </metadata>
  <sodipodi:namedview
     pagecolor="#ffffff"
     bordercolor="#666666"
     borderopacity="1"
     objecttolerance="10"
     gridtolerance="10"
     guidetolerance="10"
     inkscape:pageopacity="0"
     inkscape:pageshadow="2"
     inkscape:window-width="1024"
     inkscape:window-height="692"
     id="namedview33"
     showgrid="false"
     inkscape:zoom="4.9166667"
     inkscape:cx="11.990682"
     inkscape:cy="27.715516"
     inkscape:window-x="0"
     inkscape:window-y="24"
     inkscape:window-maximized="1"
     inkscape:current-layer="svg2" />
  <path
     fill="#808080"
     d="M 47.4375 11.546875 L 47.4375 36.453125 C 47.4375 46.703125 47.4375 47.4375 36.453125 47.4375 L 11.550781 47.4375 C 0.5625 47.4375 0.5625 46.703125 0.5625 36.453125 L 0.5625 11.546875 C 0.5625 1.296875 0.5625 0.5625 11.550781 0.5625 L 36.453125 0.5625 C 47.4375 0.5625 47.4375 1.296875 47.4375 11.546875 Z "
     id="path11"
     style="fill:#e54e35;fill-opacity:1" />
  <path
     inkscape:connector-curvature="0"
     id="path15"
     d="m 38.265625,47.4375 c 2.542969,-0.01172 4.378906,-0.08203 5.710937,-0.441406 l -4.230468,-7.25 -4.484375,7.691406 1.191406,0 c 0.640625,0 1.242187,0 1.8125,0 z m 1.480469,-7.691406 -5.125,-8.789063 -5.128906,8.789063 z m 0,0 7.652344,0 c 0.03125,-0.972656 0.03906,-2.0625 0.03906,-3.296875 l 0,-1.097657 -2.5625,-4.394531 z m 5.128906,-8.789063 -5.128906,-8.789062 -5.125,8.789062 z m 0,0 2.5625,0 0,-4.394531 z m -10.253906,0 -5.128906,-8.789062 -5.125,8.789062 z m -10.253906,0 -5.128907,8.789063 10.253907,0 z m 0,0 -5.128907,-8.789062 -5.125,8.789062 z m -10.253907,0 -5.128906,8.789063 10.253906,0 z m 0,0 -5.128906,-8.789062 -5.125,8.789062 z m -10.253906,0 -3.296875,5.648438 c 0,1.167969 0.011719,2.210937 0.039062,3.140625 l 8.382813,0 z m 0,0 -3.296875,-5.648437 0,5.648437 z m 5.125,8.789063 -4.3125,7.394531 c 1.597656,0.292969 3.808594,0.296875 6.878906,0.296875 l 1.921875,0 z m 0,-17.578125 -5.125,-8.789063 -3.296875,5.648438 0,3.140625 z m 0,0 10.253906,0 -5.125,-8.789063 z m 5.128906,-8.789063 -5.128906,-8.789062 -5.125,8.789062 z m 0,0 10.253907,0 -5.128907,-8.789062 z m 5.125,-8.789062 -2.351562,-4.027344 -5.335938,0 c -0.07813,0 -0.140625,0 -0.214843,0 L 8.984375,4.589844 z m 0,0 10.253907,0 -2.351563,-4.027344 -5.550781,0 z m 10.253907,0 10.253906,0 L 37.394531,0.5625 c -0.3125,0 -0.609375,0 -0.941406,0 l -4.609375,0 z m 0,0 -5.125,8.789062 10.253906,0 z m 5.128906,8.789062 10.253906,0 -5.128906,-8.789062 z m 0,0 -5.128906,8.789063 10.253906,0 z m 5.125,8.789063 7.691406,0 0,-4.394531 -2.5625,-4.394532 z m 5.128906,-8.789063 2.5625,0 0,-1.832031 c 0,-0.914063 -0.0078,-1.75 -0.02344,-2.523437 z m -15.382812,8.789063 -5.125,-8.789063 -5.128907,8.789063 z m 10.253906,-17.578125 7.308594,0 C 46.5,1.832031 45.167969,0.960938 42.023438,0.6875 z m -30.761719,0 L 6.679688,0.636719 C 3.019531,0.84375 1.539062,1.632812 0.945312,4.589844 z m -5.125,8.789062 L 0.621094,7.824219 C 0.578125,8.898438 0.5625,10.132812 0.5625,11.546875 l 0,1.832031 z m 15.378906,26.367188 -4.484375,7.691406 8.972656,0 z m 10.253907,0 -4.484376,7.691406 8.972657,0 z M 2.59375,46.367188 0.992188,43.621094 c 0.292968,1.316406 0.785156,2.179687 1.601562,2.746094 z"
     style="fill:#ffffff;fill-opacity:0.09411765" />
  <g
     style="fill:#f9f9f9;fill-opacity:1"
     transform="matrix(3.543307,0,0,3.543307,4.76e-5,-4e-7)"
     id="g25">
    <use
       height="1052.3622"
       width="744.09448"
       y="0"
       x="0"
       transform="matrix(0.14111,0,0,0.19349,3.66889,3.10559)"
       xlink:href="#2"
       id="use27"
       style="fill:#f9f9f9;fill-opacity:1" />
    <use
       height="1052.3622"
       width="744.09448"
       y="0"
       x="0"
       transform="matrix(0.21167,0,0,0.29024,1.27,-0.98607)"
       xlink:href="#2"
       id="use29"
       style="fill:#f9f9f9;fill-opacity:1" />
    <use
       height="1052.3622"
       width="744.09448"
       y="0"
       x="0"
       transform="matrix(0.28222,0,0,0.38698,-0.28222,-5.35994)"
       xlink:href="#2"
       id="use31"
       style="fill:#f9f9f9;fill-opacity:1" />
    <use
       height="1052.3622"
       width="744.09448"
       y="0"
       x="0"
       transform="matrix(0.42333,0,0,0.58047,-4.23333,-14.38991)"
       xlink:href="#2"
       id="use33"
       style="fill:#f9f9f9;fill-opacity:1" />
    <use
       height="1052.3622"
       width="744.09448"
       y="0"
       x="0"
       transform="matrix(0.35278,0,0,0.48373,-2.96333,-9.73381)"
       xlink:href="#2"
       id="use35"
       style="fill:#f9f9f9;fill-opacity:1" />
  </g>
  <path
     style="fill:#f9f9f9"
     inkscape:connector-curvature="0"
     d="m 28.422556,35.814466 c -1.972947,-0.327639 -4.535203,-2.586155 -6.874521,-6.059606 -0.981427,-1.457232 -1.985613,-3.256854 -2.641111,-4.733197 -0.131478,-0.296162 -0.179538,-0.367362 -0.21926,-0.324928 -0.07954,0.085 -0.650643,1.326721 -0.951519,2.068859 -0.506108,1.248354 -0.862822,2.438602 -1.06724,3.561044 -0.130964,0.719065 -0.142225,2.112341 -0.02059,2.54398 0.282685,1.002992 0.895678,1.419862 1.852094,1.259538 0.689421,-0.115583 1.523978,-0.493164 2.409463,-1.090171 0.393249,-0.265121 0.496673,-0.315606 0.648772,-0.316478 0.232576,-0.0014 0.406157,0.125175 0.487504,0.355315 0.05394,0.15255 0.05372,0.196831 -0.0016,0.342656 -0.05307,0.13996 -0.145052,0.222768 -0.56014,0.504217 -0.573259,0.388735 -1.554043,0.889815 -2.055803,1.050315 -1.314642,0.420509 -2.337385,0.266386 -3.058435,-0.460997 -0.661411,-0.667187 -0.946375,-1.746582 -0.858555,-3.252089 0.114285,-1.959264 0.975621,-4.634028 2.336572,-7.255975 l 0.341272,-0.657482 -0.25777,-0.697459 c -0.246704,-0.667484 -0.734617,-2.214954 -0.734617,-2.329899 0,-0.08468 -0.149276,-0.06728 -0.803743,0.09374 -1.499526,0.368884 -2.613694,0.838345 -3.412737,1.438036 -1.570605,1.17876 -1.154593,2.508361 1.199072,3.832303 0.374802,0.21083 0.461372,0.324372 0.461372,0.605051 0,0.146697 -0.02707,0.206908 -0.147292,0.327097 -0.257379,0.257375 -0.497034,0.203719 -1.291649,-0.289095 -1.149246,-0.712781 -1.875857,-1.523853 -2.131789,-2.379579 -0.09347,-0.312506 -0.09381,-0.94203 -6.59e-4,-1.256356 0.135797,-0.458278 0.364351,-0.822241 0.776878,-1.237162 0.924485,-0.929854 2.4576,-1.643825 4.560251,-2.123713 0.428257,-0.09775 0.527168,-0.134319 0.511029,-0.1889 -0.01101,-0.0374 -0.05994,-0.282122 -0.108768,-0.544231 -0.285687,-1.533691 -0.294371,-3.29213 -0.0211,-4.267277 0.315127,-1.124418 0.885671,-1.793647 1.79544,-2.105992 0.371452,-0.127535 1.11498,-0.107309 1.624601,0.04431 0.512533,0.152377 1.148913,0.465708 1.711244,0.842627 0.670171,0.449182 0.86778,0.637673 0.896147,0.854723 0.06518,0.49874 -0.450087,0.767691 -0.87073,0.45449 -1.318923,-0.982026 -2.26037,-1.355705 -3.014683,-1.196565 -0.548166,0.115664 -0.967209,0.679239 -1.178689,1.585276 -0.08411,0.360343 -0.09561,0.531376 -0.096,1.427478 -4.29e-4,1.017109 0.01414,1.180681 0.199821,2.2471 l 0.09333,0.535859 0.220007,-0.02675 c 1.009736,-0.122091 1.879913,-0.206961 2.416499,-0.235725 l 0.636874,-0.03416 0.09932,-0.127718 c 1.075735,-1.383143 2.640262,-2.998317 3.825658,-3.949527 2.270111,-1.821629 4.217102,-2.454255 5.556494,-1.805444 0.756603,0.366481 1.234793,1.115478 1.420229,2.224492 0.121074,0.72401 0.02551,2.437785 -0.162993,2.920508 -0.06509,0.16678 -0.273826,0.286926 -0.498784,0.287157 -0.14159,1.29e-4 -0.215716,-0.02863 -0.324921,-0.126241 -0.129472,-0.115664 -0.141413,-0.147852 -0.140492,-0.379091 6.2e-4,-0.138987 0.03699,-0.535376 0.08103,-0.880873 0.127985,-1.0045 0.03997,-1.933015 -0.234071,-2.4702 -0.133015,-0.260745 -0.405209,-0.539152 -0.640569,-0.655187 -0.176563,-0.08704 -0.26752,-0.10029 -0.680358,-0.09895 -0.433831,0.0014 -0.518712,0.0157 -0.946871,0.161933 -1.324674,0.451767 -2.842495,1.537745 -4.47177,3.199408 -0.311566,0.317771 -0.778843,0.821456 -1.038377,1.119297 l -0.471881,0.541534 0.410201,0.0097 c 5.741868,0.136124 10.581302,1.454687 12.862505,3.504572 0.513323,0.461279 0.955651,1.148493 1.084171,1.684426 0.0652,0.271691 0.06644,0.799261 0.0025,1.081703 -0.235594,1.042233 -1.381443,2.066841 -3.051968,2.729 -0.264047,0.104684 -0.319819,0.113174 -0.462529,0.07042 -0.233717,-0.07 -0.385253,-0.267488 -0.385253,-0.50194 0,-0.27552 0.132732,-0.407854 0.609739,-0.607868 1.037629,-0.435144 1.842301,-1.045162 2.14783,-1.628326 0.106157,-0.202659 0.122137,-0.281434 0.122102,-0.601441 -5e-5,-0.332823 -0.01417,-0.395298 -0.145311,-0.649843 -0.185174,-0.359007 -0.797101,-0.9726 -1.304729,-1.308351 -2.493886,-1.649304 -7.193485,-2.720317 -11.938232,-2.72047 l -0.7827,-2.7e-5 -0.294952,0.400744 c -0.441246,0.599455 -1.398717,2.056617 -1.779726,2.708513 l -0.335987,0.574872 0.230864,0.529857 c 2.316009,5.315369 5.911592,9.803235 8.563591,10.688729 0.576559,0.192508 1.012842,0.201862 1.365499,0.02941 0.659931,-0.32276 1.005598,-1.160876 1.05868,-2.566884 0.08858,-2.346572 -0.756574,-5.589772 -2.332556,-8.950725 -0.16341,-0.348477 -0.261503,-0.614434 -0.261503,-0.708966 0,-0.284247 0.233415,-0.507782 0.526042,-0.503741 0.25982,0.0035 0.373812,0.107631 0.571999,0.522173 1.278062,2.673222 2.130039,5.351233 2.448175,7.695326 0.106973,0.788242 0.107611,2.39259 0.0012,2.965908 -0.17022,0.916994 -0.473084,1.577618 -0.936535,2.042857 -0.564579,0.566759 -1.297319,0.783216 -2.164077,0.639276 z M 19.254091,21.545219 c 0.161794,-0.262088 0.476738,-0.743634 0.699863,-1.070071 0.223136,-0.326448 0.405683,-0.606756 0.405683,-0.622935 0,-0.05569 -2.047022,0.151452 -2.108974,0.213421 -0.03717,0.03739 0.08549,0.493296 0.35804,1.331467 0.19822,0.609553 0.251869,0.733375 0.296603,0.684425 0.03005,-0.03278 0.186973,-0.274227 0.348782,-0.536303 z m 4.367733,3.885948 c -0.650854,-0.232395 -1.0312,-0.775416 -1.022535,-1.459882 0.0045,-0.358357 0.08623,-0.604124 0.295795,-0.889562 0.53094,-0.723281 1.615223,-0.805541 2.267978,-0.172042 0.749773,0.727629 0.527827,2.025921 -0.420561,2.46011 -0.326364,0.149418 -0.801281,0.175419 -1.120665,0.06137 z"
     id="path5279" />
</svg>
