<svg xmlns="http://www.w3.org/2000/svg" xmlns:svg="http://www.w3.org/2000/svg" xmlns:xlink="http://www.w3.org/1999/xlink" id="svg2" width="48" height="48" version="1.1"><metadata id="metadata36"/><defs id="defs4"><linearGradient id="0" x2="0" y1="1050.36" y2="1006.36" gradientUnits="userSpaceOnUse" xlink:href="#1"/><linearGradient id="1"><stop id="stop8" stop-color="#0081bd"/><stop id="stop10" offset="1" stop-color="#00a6d4"/></linearGradient><radialGradient id="radial0" cx="148.004" cy="160" r="128" gradientTransform="matrix(0.1831,0,0,0.1831,-3.10029,-5.29688)" gradientUnits="userSpaceOnUse"><stop id="stop7" offset="0" stop-color="#b5d9e4"/><stop id="stop9" offset="1" stop-color="#006faa" stop-opacity="1"/></radialGradient><radialGradient id="radialGradient3083" cx="148.004" cy="160" r="128" gradientTransform="matrix(0.1831,0,0,0.1831,-3.10079,-5.2963796)" gradientUnits="userSpaceOnUse" xlink:href="#radial0"/><linearGradient id="linearGradient3033" x2="0" y1="1050.36" y2="1006.36" gradientTransform="translate(63.762712,-1002.9384)" gradientUnits="userSpaceOnUse" xlink:href="#1"/></defs><path id="path11" fill="url(#radialGradient3083)" d="m 47.437,11.547375 0,24.90625 c 0,10.25 0,10.984375 -10.984375,10.984375 l -24.902344,0 C 0.562,47.438 0.562,46.703625 0.562,36.453625 l 0,-24.90625 c 0,-10.2499996 0,-10.9843746 10.988281,-10.9843746 l 24.902344,0 C 47.437,0.5630004 47.437,1.2973754 47.437,11.547375 z"/><path id="path15" fill="#fff" fill-opacity=".051" d="m 38.265125,47.438 c 2.542969,-0.01172 4.378906,-0.08203 5.710937,-0.441406 l -4.230468,-7.25 -4.484375,7.691406 1.191406,0 c 0.640625,0 1.242187,0 1.8125,0 z m 1.480469,-7.691406 -5.125,-8.789063 -5.128906,8.789063 z m 0,0 7.652344,0 c 0.03125,-0.972656 0.03906,-2.0625 0.03906,-3.296875 l 0,-1.097657 -2.5625,-4.394531 z m 5.128906,-8.789063 -5.128906,-8.789062 -5.125,8.789062 z m 0,0 2.5625,0 0,-4.394531 z m -10.253906,0 -5.128906,-8.789062 -5.125,8.789062 z m -10.253906,0 -5.128907,8.789063 10.253907,0 z m 0,0 -5.128907,-8.789062 -5.125,8.789062 z m -10.253907,0 -5.128906,8.789063 10.253906,0 z m 0,0 -5.128906,-8.789062 -5.125,8.789062 z m -10.253906,0 L 0.562,36.605969 c 0,1.167969 0.01172,2.210937 0.03906,3.140625 l 8.382813,0 z m 0,0 -3.296875,-5.648437 0,5.648437 z m 5.125,8.789063 -4.3125,7.394531 C 6.269031,47.434094 8.479969,47.438 11.550281,47.438 l 1.921875,0 z m 0,-17.578125 -5.125,-8.789063 -3.296875,5.648438 0,3.140625 z m 0,0 10.253906,0 -5.125,-8.789063 z m 5.128906,-8.789063 -5.128906,-8.7890616 -5.125,8.7890616 z m 0,0 10.253907,0 -5.128907,-8.7890616 z m 5.125,-8.7890616 -2.351562,-4.027344 -5.335938,0 c -0.07813,0 -0.140625,0 -0.214843,0 l -2.351563,4.027344 z m 0,0 10.253907,0 -2.351563,-4.027344 -5.550781,0 z m 10.253907,0 10.253906,0 -2.351563,-4.027344 c -0.3125,0 -0.609375,0 -0.941406,0 l -4.609375,0 z m 0,0 -5.125,8.7890616 10.253906,0 z m 5.128906,8.7890616 10.253906,0 -5.128906,-8.7890616 z m 0,0 -5.128906,8.789063 10.253906,0 z m 5.125,8.789063 7.691406,0 0,-4.394531 -2.5625,-4.394532 z m 5.128906,-8.789063 2.5625,0 0,-1.832031 c 0,-0.914063 -0.0078,-1.7499996 -0.02344,-2.5234366 z m -15.382812,8.789063 -5.125,-8.789063 -5.128907,8.789063 z m 10.253906,-17.5781246 7.308594,0 C 46.4995,1.8325314 45.167469,0.9614384 42.022938,0.6880004 z m -30.761719,0 -2.304687,-3.953125 c -3.660157,0.207031 -5.140626,0.996093 -5.734376,3.953125 z m -5.125,8.7890616 -3.238281,-5.5546866 c -0.04297,1.074219 -0.05859,2.3085926 -0.05859,3.7226556 l 0,1.832031 z m 15.378906,26.367188 -4.484375,7.691406 8.972656,0 z m 10.253907,0 -4.484376,7.691406 8.972657,0 z M 2.59325,46.367688 0.991688,43.621594 C 1.284656,44.938 1.776844,45.801281 2.59325,46.367688 z"/><path id="path30" fill="#f9f9f9" d="M 11.964167,20.0047 C 11.395417,20.0307 11,20.1623 11,20.7689 l 0,12.7736 C 11,34.3514 11.69875,35 12.573542,35 l 22.825833,0 c 0.877502,0 1.600627,-0.6486 1.600627,-1.4575 l 0,-12.7736 c 0,-0.8088 -0.723125,-0.7642 -1.600627,-0.7642 l -22.825833,0 c -0.219373,0 -0.419792,-0.01 -0.609375,0 z"/><path id="path32" fill="#f9f9f9" d="m 15.054375,13.4016 -3.25,4.5984 11.195626,0 0,-7 -5.508126,0 c -0.8125,0 -2.4375,2.4016 -2.4375,2.4016 z M 25,11 l 0,7 11.179376,0 -3.250001,-4.5984 c 0,0 -1.625,-2.4016 -2.4375,-2.4016 z"/></svg>