<?xml version="1.0" encoding="UTF-8" standalone="no"?>
<svg
   xmlns:dc="http://purl.org/dc/elements/1.1/"
   xmlns:cc="http://creativecommons.org/ns#"
   xmlns:rdf="http://www.w3.org/1999/02/22-rdf-syntax-ns#"
   xmlns:svg="http://www.w3.org/2000/svg"
   xmlns="http://www.w3.org/2000/svg"
   xmlns:xlink="http://www.w3.org/1999/xlink"
   xmlns:sodipodi="http://sodipodi.sourceforge.net/DTD/sodipodi-0.dtd"
   xmlns:inkscape="http://www.inkscape.org/namespaces/inkscape"
   width="48"
   height="48"
   viewBox="0 0 48 48"
   id="svg2"
   version="1.1"
   inkscape:version="0.48.4 r9939"
   sodipodi:docname="aptoncd.svg">
  <defs
     id="defs3019" />
  <metadata
     id="metadata35">
    <rdf:RDF>
      <cc:Work
         rdf:about="">
        <dc:format>image/svg+xml</dc:format>
        <dc:type
           rdf:resource="http://purl.org/dc/dcmitype/StillImage" />
        <dc:title></dc:title>
      </cc:Work>
    </rdf:RDF>
  </metadata>
  <sodipodi:namedview
     pagecolor="#ffffff"
     bordercolor="#666666"
     borderopacity="1"
     objecttolerance="10"
     gridtolerance="10"
     guidetolerance="10"
     inkscape:pageopacity="0"
     inkscape:pageshadow="2"
     inkscape:window-width="1024"
     inkscape:window-height="692"
     id="namedview33"
     showgrid="false"
     inkscape:zoom="6.9532167"
     inkscape:cx="13.091479"
     inkscape:cy="29.749414"
     inkscape:window-x="0"
     inkscape:window-y="24"
     inkscape:window-maximized="1"
     inkscape:current-layer="svg2" />
  <path
     fill="#808080"
     d="M 47.4375 11.546875 L 47.4375 36.453125 C 47.4375 46.703125 47.4375 47.4375 36.453125 47.4375 L 11.550781 47.4375 C 0.5625 47.4375 0.5625 46.703125 0.5625 36.453125 L 0.5625 11.546875 C 0.5625 1.296875 0.5625 0.5625 11.550781 0.5625 L 36.453125 0.5625 C 47.4375 0.5625 47.4375 1.296875 47.4375 11.546875 Z "
     id="path11"
     style="fill:#94bce3;fill-opacity:1" />
  <path
     inkscape:connector-curvature="0"
     id="path15"
     d="m 38.265625,47.4375 c 2.542969,-0.01172 4.378906,-0.08203 5.710937,-0.441406 l -4.230468,-7.25 -4.484375,7.691406 1.191406,0 c 0.640625,0 1.242187,0 1.8125,0 z m 1.480469,-7.691406 -5.125,-8.789063 -5.128906,8.789063 z m 0,0 7.652344,0 c 0.03125,-0.972656 0.03906,-2.0625 0.03906,-3.296875 l 0,-1.097657 -2.5625,-4.394531 z m 5.128906,-8.789063 -5.128906,-8.789062 -5.125,8.789062 z m 0,0 2.5625,0 0,-4.394531 z m -10.253906,0 -5.128906,-8.789062 -5.125,8.789062 z m -10.253906,0 -5.128907,8.789063 10.253907,0 z m 0,0 -5.128907,-8.789062 -5.125,8.789062 z m -10.253907,0 -5.128906,8.789063 10.253906,0 z m 0,0 -5.128906,-8.789062 -5.125,8.789062 z m -10.253906,0 -3.296875,5.648438 c 0,1.167969 0.011719,2.210937 0.039062,3.140625 l 8.382813,0 z m 0,0 -3.296875,-5.648437 0,5.648437 z m 5.125,8.789063 -4.3125,7.394531 c 1.597656,0.292969 3.808594,0.296875 6.878906,0.296875 l 1.921875,0 z m 0,-17.578125 -5.125,-8.789063 -3.296875,5.648438 0,3.140625 z m 0,0 10.253906,0 -5.125,-8.789063 z m 5.128906,-8.789063 -5.128906,-8.789062 -5.125,8.789062 z m 0,0 10.253907,0 -5.128907,-8.789062 z m 5.125,-8.789062 -2.351562,-4.027344 -5.335938,0 c -0.07813,0 -0.140625,0 -0.214843,0 L 8.984375,4.589844 z m 0,0 10.253907,0 -2.351563,-4.027344 -5.550781,0 z m 10.253907,0 10.253906,0 L 37.394531,0.5625 c -0.3125,0 -0.609375,0 -0.941406,0 l -4.609375,0 z m 0,0 -5.125,8.789062 10.253906,0 z m 5.128906,8.789062 10.253906,0 -5.128906,-8.789062 z m 0,0 -5.128906,8.789063 10.253906,0 z m 5.125,8.789063 7.691406,0 0,-4.394531 -2.5625,-4.394532 z m 5.128906,-8.789063 2.5625,0 0,-1.832031 c 0,-0.914063 -0.0078,-1.75 -0.02344,-2.523437 z m -15.382812,8.789063 -5.125,-8.789063 -5.128907,8.789063 z m 10.253906,-17.578125 7.308594,0 C 46.5,1.832031 45.167969,0.960938 42.023438,0.6875 z m -30.761719,0 L 6.679688,0.636719 C 3.019531,0.84375 1.539062,1.632812 0.945312,4.589844 z m -5.125,8.789062 L 0.621094,7.824219 C 0.578125,8.898438 0.5625,10.132812 0.5625,11.546875 l 0,1.832031 z m 15.378906,26.367188 -4.484375,7.691406 8.972656,0 z m 10.253907,0 -4.484376,7.691406 8.972657,0 z M 2.59375,46.367188 0.992188,43.621094 c 0.292968,1.316406 0.785156,2.179687 1.601562,2.746094 z"
     style="fill:#ffffff;fill-opacity:0.12156863" />
  <g
     style="fill:#f9f9f9;fill-opacity:1"
     transform="matrix(3.543307,0,0,3.543307,4.76e-5,-4e-7)"
     id="g25">
    <use
       height="1052.3622"
       width="744.09448"
       y="0"
       x="0"
       transform="matrix(0.14111,0,0,0.19349,3.66889,3.10559)"
       xlink:href="#2"
       id="use27"
       style="fill:#f9f9f9;fill-opacity:1" />
    <use
       height="1052.3622"
       width="744.09448"
       y="0"
       x="0"
       transform="matrix(0.21167,0,0,0.29024,1.27,-0.98607)"
       xlink:href="#2"
       id="use29"
       style="fill:#f9f9f9;fill-opacity:1" />
    <use
       height="1052.3622"
       width="744.09448"
       y="0"
       x="0"
       transform="matrix(0.28222,0,0,0.38698,-0.28222,-5.35994)"
       xlink:href="#2"
       id="use31"
       style="fill:#f9f9f9;fill-opacity:1" />
    <use
       height="1052.3622"
       width="744.09448"
       y="0"
       x="0"
       transform="matrix(0.42333,0,0,0.58047,-4.23333,-14.38991)"
       xlink:href="#2"
       id="use33"
       style="fill:#f9f9f9;fill-opacity:1" />
    <use
       height="1052.3622"
       width="744.09448"
       y="0"
       x="0"
       transform="matrix(0.35278,0,0,0.48373,-2.96333,-9.73381)"
       xlink:href="#2"
       id="use35"
       style="fill:#f9f9f9;fill-opacity:1" />
  </g>
  <path
     style="fill:#ffffff;fill-rule:evenodd"
     inkscape:connector-curvature="0"
     d="m 23.353608,11.999987 c -0.05674,0.331001 -0.120508,0.662934 -0.187352,0.993005 -5.315932,0.337181 -10.761423,4.514828 -11.072531,11.297313 l -0.112411,0 0,1.236558 c -1.188743,0.409476 -1.648458,2.33394 -1.498822,3.428533 0.103606,1.408829 0.456199,2.466172 1.910995,2.941428 0.0097,-0.144744 0.02615,-0.302137 0.03747,-0.449688 l 0.01874,0.505899 c 0.442785,0.08752 0.749839,0.126993 0.955498,0.05588 l 0.01874,0.693154 c 0.370771,0.147792 0.577018,0.180567 0.693203,-0.09361 0.0042,0.07958 0.01414,0.164162 0.01874,0.243567 0.463705,0.222803 1.236001,0.276484 1.704908,0.09361 0.150601,-0.09585 0.259164,-0.411507 0.35597,-0.843078 2.537131,3.708319 7.494411,4.842696 11.971823,3.091355 1.37854,-0.449356 2.759971,-1.358889 3.728314,-2.54804 0.07744,0.231696 0.160051,0.422089 0.262293,0.487194 0.468907,0.18287 1.241204,0.129082 1.704907,-0.09372 0.0046,-0.07958 0.01453,-0.163559 0.01874,-0.243567 0.116185,0.274181 0.322434,0.241441 0.693202,0.09372 l 0.01878,-0.693243 c 0.205654,0.07111 0.512713,0.03118 0.955501,-0.05588 l 0.01878,-0.505814 c 0.01134,0.147472 0.02799,0.304937 0.03745,0.449603 1.454761,-0.475257 1.807352,-1.532599 1.910962,-2.941428 0.149634,-1.09459 -0.310075,-3.018972 -1.498819,-3.428534 l 0,-1.236557 -0.09368,0 c -0.206531,-2.535845 -1.088111,-5.097425 -2.697945,-7.15683 -1.981137,-2.53449 -5.067096,-4.306831 -9.255212,-4.346618 -0.07399,-6.78e-4 -0.15069,-7.63e-4 -0.224823,0 -0.141589,-0.322791 -0.274256,-0.641094 -0.39344,-0.974212 z m 0.674469,1.573739 c 3.992206,0.05333 6.841426,1.728912 8.71189,4.121774 1.515246,1.938434 2.359637,4.370661 2.566729,6.782147 l -0.131138,0 0,1.105427 c -0.193464,-0.02962 -0.378574,-0.05588 -0.412175,-0.05588 -0.01949,0.01357 -0.03841,0.03472 -0.0562,0.05588 l 0.01878,-0.880583 c 0,0 -0.5855,-0.187342 -0.637,-0.187342 -0.006,0.0085 -0.0129,0.02707 -0.0186,0.03725 -0.01261,-0.01102 -0.0237,-0.03047 -0.03746,-0.03725 l -1.217791,0 c -0.391942,0.174389 -0.6135,0.562872 -0.768341,0.99292 -2.083668,-4.155975 -5.928904,-7.635724 -8.018694,-11.934343 z m -1.10538,0.05587 c 0.037,0 0.07542,0 0.112412,0 -0.08497,0.377391 -0.180057,0.751397 -0.28103,1.124134 -0.823638,3.986495 -4.004235,6.80475 -6.163895,10.098258 -0.183556,0.277161 -0.351408,0.57811 -0.505852,0.880583 -0.163724,-0.589116 -0.382378,-1.175014 -0.899292,-1.405106 l -1.217792,0 c -0.01378,0.0085 -0.02494,0.02707 -0.03747,0.03725 -0.0057,-0.01102 -0.01279,-0.02881 -0.01874,-0.03725 -0.0515,0 -0.636997,0.187342 -0.636997,0.187342 l 0.01874,0.880582 c -0.01779,-0.02119 -0.03678,-0.04317 -0.0562,-0.05588 -0.03359,0 -0.218714,0.02707 -0.412176,0.05588 l 0,-1.105427 -0.131148,0 c 0.303848,-6.346511 5.301137,-10.219568 10.229441,-10.660367 z m 1.311468,12.102977 c 2.473837,0 4.941462,0.218069 7.569039,0.56211 -0.0282,0.106409 -0.04522,0.219593 -0.07494,0.318472 -0.03592,0.157713 -0.06728,0.358094 -0.09368,0.562025 -0.243018,-0.02622 -0.487665,-0.04486 -0.730675,-0.07448 0.365349,0.638217 0.301507,2.085056 -0.09368,2.696773 -0.495371,0.766722 -1.475773,1.348641 -2.71661,1.423901 -0.57132,0.02445 -1.202181,0 -1.779849,-0.131138 -0.572576,-0.133689 -1.090119,-0.383403 -1.405141,-0.824373 l 0,-0.01878 c -0.356158,-0.448611 -0.463405,-0.957136 -0.468381,-1.461256 -0.005,-0.50937 0.07488,-1.734415 0.0562,-2.153457 -0.311644,0 -0.624922,0.01276 -0.936761,0.01878 -0.01633,0.41591 0.04245,1.63232 0.03747,2.134749 -0.005,0.509442 -0.08407,1.028377 -0.449646,1.480096 -0.31404,0.448503 -0.846211,0.6896 -1.423879,0.824373 -0.577668,0.136914 -1.208529,0.155551 -1.779848,0.130996 -1.240836,-0.07535 -2.221238,-0.657187 -2.716611,-1.423909 -0.360669,-0.558301 -0.451876,-1.930643 -0.187352,-2.52814 -0.214689,0.03809 -0.420335,0.07111 -0.636998,0.112429 -0.03104,-0.342603 -0.05953,-0.652692 -0.112412,-0.899291 2.783633,-0.535789 5.368815,-0.755385 7.943745,-0.749459 z m 1.386408,0.917999 c -0.289003,0.03639 -0.539772,0.08855 -0.71194,0.149917 -1.79e-4,0.419127 -0.06022,0.849685 -0.0562,1.255266 0.0046,0.466026 0.08839,0.8827 0.374705,1.236559 l 0,0.01878 c 0.227076,0.324212 0.657982,0.533835 1.180321,0.655738 0.522339,0.122067 1.121975,0.154489 1.667437,0.131138 1.124739,-0.0686 1.987104,-0.600385 2.398112,-1.236568 0.391421,-0.606031 0.383976,-1.262191 -0.149882,-1.836154 -1.612585,-0.18574 -3.164101,-0.324992 -4.702547,-0.374768 z m -3.297403,0.01878 c -1.54404,0.07026 -3.128693,0.236197 -4.758754,0.505814 -0.0034,0.0085 0.0033,0.01276 0,0.01878 -0.386468,0.532059 -0.352392,1.121935 0,1.667369 0.411008,0.636183 1.273373,1.168409 2.398112,1.236557 0.545462,0.02374 1.145098,-0.0092 1.667437,-0.131138 0.522339,-0.12189 0.953245,-0.331512 1.180321,-0.655738 l 0,-0.01878 c 0.286317,-0.35387 0.370148,-0.770536 0.374704,-1.236563 0.004,-0.405581 -0.03727,-0.836139 -0.03747,-1.255266 -0.159059,-0.05843 -0.389971,-0.09574 -0.655733,-0.131138 l -0.168615,0 z"
     id="path7212" />
</svg>
