<?xml version="1.0" encoding="UTF-8" standalone="no"?>
<svg
   xmlns:dc="http://purl.org/dc/elements/1.1/"
   xmlns:cc="http://creativecommons.org/ns#"
   xmlns:rdf="http://www.w3.org/1999/02/22-rdf-syntax-ns#"
   xmlns:svg="http://www.w3.org/2000/svg"
   xmlns="http://www.w3.org/2000/svg"
   xmlns:xlink="http://www.w3.org/1999/xlink"
   xmlns:sodipodi="http://sodipodi.sourceforge.net/DTD/sodipodi-0.dtd"
   xmlns:inkscape="http://www.inkscape.org/namespaces/inkscape"
   width="48"
   height="48"
   viewBox="0 0 48 48"
   id="svg2"
   version="1.1"
   inkscape:version="0.48.4 r9939"
   sodipodi:docname="ardour.svg">
  <defs
     id="defs3019" />
  <metadata
     id="metadata35">
    <rdf:RDF>
      <cc:Work
         rdf:about="">
        <dc:format>image/svg+xml</dc:format>
        <dc:type
           rdf:resource="http://purl.org/dc/dcmitype/StillImage" />
        <dc:title></dc:title>
      </cc:Work>
    </rdf:RDF>
  </metadata>
  <sodipodi:namedview
     pagecolor="#ffffff"
     bordercolor="#666666"
     borderopacity="1"
     objecttolerance="10"
     gridtolerance="10"
     guidetolerance="10"
     inkscape:pageopacity="0"
     inkscape:pageshadow="2"
     inkscape:window-width="1024"
     inkscape:window-height="692"
     id="namedview33"
     showgrid="false"
     inkscape:zoom="6.9532167"
     inkscape:cx="13.091479"
     inkscape:cy="29.749414"
     inkscape:window-x="0"
     inkscape:window-y="24"
     inkscape:window-maximized="1"
     inkscape:current-layer="svg2" />
  <path
     fill="#808080"
     d="M 47.4375 11.546875 L 47.4375 36.453125 C 47.4375 46.703125 47.4375 47.4375 36.453125 47.4375 L 11.550781 47.4375 C 0.5625 47.4375 0.5625 46.703125 0.5625 36.453125 L 0.5625 11.546875 C 0.5625 1.296875 0.5625 0.5625 11.550781 0.5625 L 36.453125 0.5625 C 47.4375 0.5625 47.4375 1.296875 47.4375 11.546875 Z "
     id="path11"
     style="fill:#00979c;fill-opacity:1" />
  <path
     inkscape:connector-curvature="0"
     id="path15"
     d="m 38.265625,47.4375 c 2.542969,-0.01172 4.378906,-0.08203 5.710937,-0.441406 l -4.230468,-7.25 -4.484375,7.691406 1.191406,0 c 0.640625,0 1.242187,0 1.8125,0 z m 1.480469,-7.691406 -5.125,-8.789063 -5.128906,8.789063 z m 0,0 7.652344,0 c 0.03125,-0.972656 0.03906,-2.0625 0.03906,-3.296875 l 0,-1.097657 -2.5625,-4.394531 z m 5.128906,-8.789063 -5.128906,-8.789062 -5.125,8.789062 z m 0,0 2.5625,0 0,-4.394531 z m -10.253906,0 -5.128906,-8.789062 -5.125,8.789062 z m -10.253906,0 -5.128907,8.789063 10.253907,0 z m 0,0 -5.128907,-8.789062 -5.125,8.789062 z m -10.253907,0 -5.128906,8.789063 10.253906,0 z m 0,0 -5.128906,-8.789062 -5.125,8.789062 z m -10.253906,0 -3.296875,5.648438 c 0,1.167969 0.011719,2.210937 0.039062,3.140625 l 8.382813,0 z m 0,0 -3.296875,-5.648437 0,5.648437 z m 5.125,8.789063 -4.3125,7.394531 c 1.597656,0.292969 3.808594,0.296875 6.878906,0.296875 l 1.921875,0 z m 0,-17.578125 -5.125,-8.789063 -3.296875,5.648438 0,3.140625 z m 0,0 10.253906,0 -5.125,-8.789063 z m 5.128906,-8.789063 -5.128906,-8.789062 -5.125,8.789062 z m 0,0 10.253907,0 -5.128907,-8.789062 z m 5.125,-8.789062 -2.351562,-4.027344 -5.335938,0 c -0.07813,0 -0.140625,0 -0.214843,0 L 8.984375,4.589844 z m 0,0 10.253907,0 -2.351563,-4.027344 -5.550781,0 z m 10.253907,0 10.253906,0 L 37.394531,0.5625 c -0.3125,0 -0.609375,0 -0.941406,0 l -4.609375,0 z m 0,0 -5.125,8.789062 10.253906,0 z m 5.128906,8.789062 10.253906,0 -5.128906,-8.789062 z m 0,0 -5.128906,8.789063 10.253906,0 z m 5.125,8.789063 7.691406,0 0,-4.394531 -2.5625,-4.394532 z m 5.128906,-8.789063 2.5625,0 0,-1.832031 c 0,-0.914063 -0.0078,-1.75 -0.02344,-2.523437 z m -15.382812,8.789063 -5.125,-8.789063 -5.128907,8.789063 z m 10.253906,-17.578125 7.308594,0 C 46.5,1.832031 45.167969,0.960938 42.023438,0.6875 z m -30.761719,0 L 6.679688,0.636719 C 3.019531,0.84375 1.539062,1.632812 0.945312,4.589844 z m -5.125,8.789062 L 0.621094,7.824219 C 0.578125,8.898438 0.5625,10.132812 0.5625,11.546875 l 0,1.832031 z m 15.378906,26.367188 -4.484375,7.691406 8.972656,0 z m 10.253907,0 -4.484376,7.691406 8.972657,0 z M 2.59375,46.367188 0.992188,43.621094 c 0.292968,1.316406 0.785156,2.179687 1.601562,2.746094 z"
     style="fill:#ffffff;fill-opacity:0.06666667" />
  <g
     style="fill:#f9f9f9;fill-opacity:1"
     transform="matrix(3.543307,0,0,3.543307,4.76e-5,-4e-7)"
     id="g25">
    <use
       height="1052.3622"
       width="744.09448"
       y="0"
       x="0"
       transform="matrix(0.14111,0,0,0.19349,3.66889,3.10559)"
       xlink:href="#2"
       id="use27"
       style="fill:#f9f9f9;fill-opacity:1" />
    <use
       height="1052.3622"
       width="744.09448"
       y="0"
       x="0"
       transform="matrix(0.21167,0,0,0.29024,1.27,-0.98607)"
       xlink:href="#2"
       id="use29"
       style="fill:#f9f9f9;fill-opacity:1" />
    <use
       height="1052.3622"
       width="744.09448"
       y="0"
       x="0"
       transform="matrix(0.28222,0,0,0.38698,-0.28222,-5.35994)"
       xlink:href="#2"
       id="use31"
       style="fill:#f9f9f9;fill-opacity:1" />
    <use
       height="1052.3622"
       width="744.09448"
       y="0"
       x="0"
       transform="matrix(0.42333,0,0,0.58047,-4.23333,-14.38991)"
       xlink:href="#2"
       id="use33"
       style="fill:#f9f9f9;fill-opacity:1" />
    <use
       height="1052.3622"
       width="744.09448"
       y="0"
       x="0"
       transform="matrix(0.35278,0,0,0.48373,-2.96333,-9.73381)"
       xlink:href="#2"
       id="use35"
       style="fill:#f9f9f9;fill-opacity:1" />
  </g>
  <path
     style="line-height:normal;color:#000000;fill:#f9f9f9;fill-opacity:1"
     inkscape:connector-curvature="0"
     id="path9597"
     d="m 17.328206,18.000006 c -1.659472,0 -3.274441,0.626546 -4.459748,1.741764 -1.185307,1.115223 -1.868563,2.662219 -1.868563,4.256787 0,1.594564 0.683256,3.137658 1.868563,4.252879 1.171843,1.102572 2.764205,1.723829 4.40387,1.737859 l 0,0.0038 c 0.01772,9.87e-4 0.03685,-8.25e-4 0.05598,0 1.959307,0.08557 3.539835,-0.633551 4.695343,-1.675377 0.796181,-0.717853 1.406409,-1.568789 1.97635,-2.433007 0.570118,0.864609 1.179815,1.714839 1.97635,2.433007 1.155508,1.041826 2.736,1.760947 4.695343,1.675377 0.01772,-8.25e-4 0.03685,9.87e-4 0.05598,0 l 0,-0.0038 c 1.639664,-0.01385 3.231991,-0.635287 4.403868,-1.737859 1.185307,-1.115221 1.868563,-2.658315 1.868563,-4.252879 0,-1.594568 -0.683256,-3.141564 -1.868563,-4.256787 -1.185303,-1.115218 -2.800271,-1.741764 -4.459742,-1.741764 -2.064331,0 -3.694961,0.785038 -4.898976,1.874547 -0.699095,0.632611 -1.258831,1.35709 -1.772717,2.097148 -0.513886,-0.740058 -1.073622,-1.464537 -1.772716,-2.097148 -1.204016,-1.089509 -2.834646,-1.874547 -4.898976,-1.874547 z m 0,2.116675 c 1.54148,0 2.526555,0.494949 3.429673,1.312184 0.711744,0.644073 1.33363,1.541101 1.952398,2.495492 -0.705756,1.114941 -1.385221,2.147767 -2.152028,2.839155 -0.850287,0.766634 -1.730445,1.191036 -3.170161,1.11692 l -0.03189,-0.0038 -0.02835,0 c -1.082622,0 -2.189091,-0.430191 -2.946543,-1.136443 l -0.01063,-0.0118 c -0.757737,-0.712912 -1.205788,-1.739 -1.205788,-2.729806 0,-0.990806 0.448051,-2.016898 1.205788,-2.729808 0.7577,-0.712914 1.870157,-1.152067 2.958519,-1.152067 z m 13.343385,0 c 1.088361,0 2.200818,0.439153 2.958519,1.152067 0.757736,0.712911 1.205787,1.739002 1.205787,2.729809 0,0.990806 -0.448051,2.016894 -1.205787,2.729808 l -0.01063,0.0118 c -0.757453,0.706252 -1.863922,1.136443 -2.946542,1.136443 l -0.02835,0 -0.02835,0.0038 c -1.43971,0.07409 -2.323871,-0.350291 -3.174123,-1.116923 -0.766842,-0.691388 -1.446272,-1.724214 -2.152027,-2.839155 0.618767,-0.954391 1.240618,-1.851419 1.952397,-2.495492 0.903118,-0.817235 1.888193,-1.312184 3.429673,-1.312184 z" />
  <path
     style="line-height:normal;color:#000000;fill:#f9f9f9;fill-opacity:1"
     inkscape:connector-curvature="0"
     id="path9599"
     d="m 29.737292,21.903984 0,0.359337 0,0.814496 -0.8145,0 -0.359327,0 0,0.359334 0,0.495089 0,0.359334 0.359327,0 0.8145,0 0,0.822483 0,0.359337 0.359362,0 0.499075,0 0.359327,0 0,-0.359337 0,-0.822483 0.814498,0 0.359327,0 0,-0.359334 0,-0.495089 0,-0.359334 -0.359327,0 -0.814498,0 0,-0.814496 0,-0.359337 -0.359327,0 -0.499075,0 -0.359362,0 z" />
  <path
     style="line-height:normal;color:#000000;fill:#f9f9f9;fill-opacity:1"
     inkscape:connector-curvature="0"
     id="path9601"
     d="m 15.57147,23.061844 0,0.427213 0,0.399263 0,0.42721 0.427181,0 3.002457,0 0.427216,0 0,-0.42721 0,-0.399263 0,-0.427213 -0.427216,0 -3.002457,0 -0.427181,0 z" />
</svg>
