<svg xmlns="http://www.w3.org/2000/svg" xmlns:svg="http://www.w3.org/2000/svg" xmlns:xlink="http://www.w3.org/1999/xlink" id="svg2" width="48" height="48" version="1.1"><metadata id="metadata44"/><defs id="defs4"><linearGradient id="0" x2="0" y1="1050.36" y2="1006.36" gradientTransform="translate(-1.7382813e-5,-1.7382813e-5)" gradientUnits="userSpaceOnUse" xlink:href="#1"/><linearGradient id="1"><stop id="stop8" stop-color="#004ba0"/><stop id="stop10" offset="1" stop-color="#005ec8"/></linearGradient><radialGradient id="radial0" cx="148.004" cy="160" r="128" gradientTransform="matrix(0.1831,0,0,0.1831,-3.10029,-5.29688)" gradientUnits="userSpaceOnUse"><stop id="stop7" offset="0" stop-color="#8ca7d5" stop-opacity="1"/><stop id="stop9" offset="1" stop-color="#3f68ae" stop-opacity="1"/></radialGradient><radialGradient id="radialGradient3035" cx="148.004" cy="160" r="128" gradientTransform="matrix(0.1831,0,0,0.1831,-3.10079,-5.2963802)" gradientUnits="userSpaceOnUse" xlink:href="#radial0"/><linearGradient id="linearGradient3045" x2="0" y1="1050.36" y2="1006.36" gradientTransform="translate(-1.7382813e-5,-1004.3622)" gradientUnits="userSpaceOnUse" xlink:href="#1"/></defs><path id="path11" fill="url(#radialGradient3035)" d="m 47.437,11.547375 0,24.90625 c 0,10.25 0,10.984375 -10.984375,10.984375 l -24.902344,0 C 0.562,47.438 0.562,46.703625 0.562,36.453625 l 0,-24.90625 c 0,-10.2500002 0,-10.9843752 10.988281,-10.9843752 l 24.902344,0 C 47.437,0.5629998 47.437,1.2973748 47.437,11.547375 z"/><path id="path15" fill="#fff" fill-opacity=".051" d="m 38.265125,47.438 c 2.542969,-0.01172 4.378906,-0.08203 5.710937,-0.441406 l -4.230468,-7.25 -4.484375,7.691406 1.191406,0 c 0.640625,0 1.242187,0 1.8125,0 z m 1.480469,-7.691406 -5.125,-8.789063 -5.128906,8.789063 z m 0,0 7.652344,0 c 0.03125,-0.972656 0.03906,-2.0625 0.03906,-3.296875 l 0,-1.097657 -2.5625,-4.394531 z m 5.128906,-8.789063 -5.128906,-8.789062 -5.125,8.789062 z m 0,0 2.5625,0 0,-4.394531 z m -10.253906,0 -5.128906,-8.789062 -5.125,8.789062 z m -10.253906,0 -5.128907,8.789063 10.253907,0 z m 0,0 -5.128907,-8.789062 -5.125,8.789062 z m -10.253907,0 -5.128906,8.789063 10.253906,0 z m 0,0 -5.128906,-8.789062 -5.125,8.789062 z m -10.253906,0 L 0.562,36.605969 c 0,1.167969 0.01172,2.210937 0.03906,3.140625 l 8.382813,0 z m 0,0 -3.296875,-5.648437 0,5.648437 z m 5.125,8.789063 -4.3125,7.394531 C 6.269031,47.434094 8.479969,47.438 11.550281,47.438 l 1.921875,0 z m 0,-17.578125 -5.125,-8.789063 -3.296875,5.648438 0,3.140625 z m 0,0 10.253906,0 -5.125,-8.789063 z m 5.128906,-8.789063 -5.128906,-8.7890622 -5.125,8.7890622 z m 0,0 10.253907,0 -5.128907,-8.7890622 z m 5.125,-8.7890622 -2.351562,-4.027344 -5.335938,0 c -0.07813,0 -0.140625,0 -0.214843,0 l -2.351563,4.027344 z m 0,0 10.253907,0 -2.351563,-4.027344 -5.550781,0 z m 10.253907,0 10.253906,0 -2.351563,-4.027344 c -0.3125,0 -0.609375,0 -0.941406,0 l -4.609375,0 z m 0,0 -5.125,8.7890622 10.253906,0 z m 5.128906,8.7890622 10.253906,0 -5.128906,-8.7890622 z m 0,0 -5.128906,8.789063 10.253906,0 z m 5.125,8.789063 7.691406,0 0,-4.394531 -2.5625,-4.394532 z m 5.128906,-8.789063 2.5625,0 0,-1.832031 c 0,-0.914063 -0.0078,-1.75 -0.02344,-2.523437 z m -15.382812,8.789063 -5.125,-8.789063 -5.128907,8.789063 z m 10.253906,-17.5781252 7.308594,0 C 46.4995,1.8325308 45.167469,0.9614378 42.022938,0.6879998 z m -30.761719,0 -2.304687,-3.953125 c -3.660157,0.207031 -5.140626,0.996093 -5.734376,3.953125 z m -5.125,8.7890622 -3.238281,-5.554687 c -0.04297,1.074219 -0.05859,2.308593 -0.05859,3.722656 l 0,1.832031 z m 15.378906,26.367188 -4.484375,7.691406 8.972656,0 z m 10.253907,0 -4.484376,7.691406 8.972657,0 z M 2.59325,46.367688 0.991688,43.621594 C 1.284656,44.938 1.776844,45.801281 2.59325,46.367688 z"/><g id="g30" fill="#fff" transform="matrix(3.543307,0,0,3.543307,3.7361934e-4,0.0094)"><g id="g32" transform="matrix(0.23204,0,0,0.23444,-0.38981,-232.72523)"><text id="text34" x="999.41" y="-15.196" font-family="sans-serif" font-size="50" letter-spacing="0" line-height="125%" transform="matrix(0,1,-1,0,0,0)" word-spacing="0" style="line-height:125%"><tspan id="tspan36" x="999.41" y="-15.196">&lt;</tspan></text></g><g id="g38" transform="matrix(0.23204,0,0,0.23444,-0.65195,-1.01105)"><path id="path40" d="m 35.892984,33.185421 c -1.453103,-0.408015 -3.04366,-0.287998 -4.408679,0.33143 -1.365019,0.619427 -2.514961,1.778708 -2.926565,3.391108 -0.250122,0.979824 -0.152852,2.037672 0.280595,2.952429 0.433447,0.914758 1.247826,1.697075 2.362071,1.948194 0.658476,0.148401 1.354108,0.06839 1.965253,-0.235989 0.611146,-0.304378 1.147546,-0.884378 1.29502,-1.661201 0.0852,-0.448806 0.02234,-0.905333 -0.196307,-1.319621 -0.218651,-0.414288 -0.64955,-0.796425 -1.208445,-0.878547 -0.318363,-0.04678 -0.622894,0.0055 -0.915117,0.170637 -0.292222,0.16511 -0.581475,0.510407 -0.621678,0.937691 l 1.493143,0.140582 c -0.0097,0.103223 -0.10321,0.209867 -0.134432,0.227508 -0.03122,0.01764 -0.01043,0.01222 -0.04108,0.0077 0.04722,0.0069 0.05617,0.0098 0.100993,0.09469 0.04482,0.08492 0.0679,0.242921 0.04948,0.339952 -0.05327,0.280612 -0.213071,0.461141 -0.490354,0.59924 -0.277283,0.1381 -0.662623,0.182351 -0.967327,0.11368 -0.630872,-0.14218 -1.061523,-0.548797 -1.33511,-1.126179 -0.273586,-0.577383 -0.34311,-1.314285 -0.183671,-1.938868 0.290964,-1.139809 1.068477,-1.933194 2.093315,-2.398252 1.024838,-0.465057 2.28619,-0.561725 3.382956,-0.253765 3.184607,0.8942 4.905656,4.385629 4.49027,7.599955 l 1.489474,0.191231 c 0.50046,-3.872651 -1.562759,-8.107364 -5.573804,-9.233619 z" color="#000"/></g></g></svg>