<?xml version="1.0" encoding="UTF-8" standalone="no"?>
<svg
   xmlns:dc="http://purl.org/dc/elements/1.1/"
   xmlns:cc="http://creativecommons.org/ns#"
   xmlns:rdf="http://www.w3.org/1999/02/22-rdf-syntax-ns#"
   xmlns:svg="http://www.w3.org/2000/svg"
   xmlns="http://www.w3.org/2000/svg"
   xmlns:xlink="http://www.w3.org/1999/xlink"
   xmlns:sodipodi="http://sodipodi.sourceforge.net/DTD/sodipodi-0.dtd"
   xmlns:inkscape="http://www.inkscape.org/namespaces/inkscape"
   width="48"
   height="48"
   viewBox="0 0 48 48"
   id="svg2"
   version="1.1"
   inkscape:version="0.48.4 r9939"
   sodipodi:docname="as-icon.svg">
  <defs
     id="defs3019" />
  <metadata
     id="metadata35">
    <rdf:RDF>
      <cc:Work
         rdf:about="">
        <dc:format>image/svg+xml</dc:format>
        <dc:type
           rdf:resource="http://purl.org/dc/dcmitype/StillImage" />
        <dc:title></dc:title>
      </cc:Work>
    </rdf:RDF>
  </metadata>
  <sodipodi:namedview
     pagecolor="#ffffff"
     bordercolor="#666666"
     borderopacity="1"
     objecttolerance="10"
     gridtolerance="10"
     guidetolerance="10"
     inkscape:pageopacity="0"
     inkscape:pageshadow="2"
     inkscape:window-width="1024"
     inkscape:window-height="692"
     id="namedview33"
     showgrid="false"
     inkscape:zoom="8"
     inkscape:cx="18.277685"
     inkscape:cy="22.715516"
     inkscape:window-x="0"
     inkscape:window-y="24"
     inkscape:window-maximized="1"
     inkscape:current-layer="svg2" />
  <path
     fill="#808080"
     d="M 47.4375 11.546875 L 47.4375 36.453125 C 47.4375 46.703125 47.4375 47.4375 36.453125 47.4375 L 11.550781 47.4375 C 0.5625 47.4375 0.5625 46.703125 0.5625 36.453125 L 0.5625 11.546875 C 0.5625 1.296875 0.5625 0.5625 11.550781 0.5625 L 36.453125 0.5625 C 47.4375 0.5625 47.4375 1.296875 47.4375 11.546875 Z "
     id="path11"
     style="fill:#d12f2f;fill-opacity:1" />
  <path
     inkscape:connector-curvature="0"
     id="path15"
     d="m 38.265625,47.4375 c 2.542969,-0.01172 4.378906,-0.08203 5.710937,-0.441406 l -4.230468,-7.25 -4.484375,7.691406 1.191406,0 c 0.640625,0 1.242187,0 1.8125,0 z m 1.480469,-7.691406 -5.125,-8.789063 -5.128906,8.789063 z m 0,0 7.652344,0 c 0.03125,-0.972656 0.03906,-2.0625 0.03906,-3.296875 l 0,-1.097657 -2.5625,-4.394531 z m 5.128906,-8.789063 -5.128906,-8.789062 -5.125,8.789062 z m 0,0 2.5625,0 0,-4.394531 z m -10.253906,0 -5.128906,-8.789062 -5.125,8.789062 z m -10.253906,0 -5.128907,8.789063 10.253907,0 z m 0,0 -5.128907,-8.789062 -5.125,8.789062 z m -10.253907,0 -5.128906,8.789063 10.253906,0 z m 0,0 -5.128906,-8.789062 -5.125,8.789062 z m -10.253906,0 -3.296875,5.648438 c 0,1.167969 0.011719,2.210937 0.039062,3.140625 l 8.382813,0 z m 0,0 -3.296875,-5.648437 0,5.648437 z m 5.125,8.789063 -4.3125,7.394531 c 1.597656,0.292969 3.808594,0.296875 6.878906,0.296875 l 1.921875,0 z m 0,-17.578125 -5.125,-8.789063 -3.296875,5.648438 0,3.140625 z m 0,0 10.253906,0 -5.125,-8.789063 z m 5.128906,-8.789063 -5.128906,-8.789062 -5.125,8.789062 z m 0,0 10.253907,0 -5.128907,-8.789062 z m 5.125,-8.789062 -2.351562,-4.027344 -5.335938,0 c -0.07813,0 -0.140625,0 -0.214843,0 L 8.984375,4.589844 z m 0,0 10.253907,0 -2.351563,-4.027344 -5.550781,0 z m 10.253907,0 10.253906,0 L 37.394531,0.5625 c -0.3125,0 -0.609375,0 -0.941406,0 l -4.609375,0 z m 0,0 -5.125,8.789062 10.253906,0 z m 5.128906,8.789062 10.253906,0 -5.128906,-8.789062 z m 0,0 -5.128906,8.789063 10.253906,0 z m 5.125,8.789063 7.691406,0 0,-4.394531 -2.5625,-4.394532 z m 5.128906,-8.789063 2.5625,0 0,-1.832031 c 0,-0.914063 -0.0078,-1.75 -0.02344,-2.523437 z m -15.382812,8.789063 -5.125,-8.789063 -5.128907,8.789063 z m 10.253906,-17.578125 7.308594,0 C 46.5,1.832031 45.167969,0.960938 42.023438,0.6875 z m -30.761719,0 L 6.679688,0.636719 C 3.019531,0.84375 1.539062,1.632812 0.945312,4.589844 z m -5.125,8.789062 L 0.621094,7.824219 C 0.578125,8.898438 0.5625,10.132812 0.5625,11.546875 l 0,1.832031 z m 15.378906,26.367188 -4.484375,7.691406 8.972656,0 z m 10.253907,0 -4.484376,7.691406 8.972657,0 z M 2.59375,46.367188 0.992188,43.621094 c 0.292968,1.316406 0.785156,2.179687 1.601562,2.746094 z"
     style="fill:#ffffff;fill-opacity:0.06666667" />
  <g
     style="fill:#f9f9f9;fill-opacity:1"
     transform="matrix(3.543307,0,0,3.543307,4.76e-5,-4e-7)"
     id="g25">
    <use
       height="1052.3622"
       width="744.09448"
       y="0"
       x="0"
       transform="matrix(0.14111,0,0,0.19349,3.66889,3.10559)"
       xlink:href="#2"
       id="use27"
       style="fill:#f9f9f9;fill-opacity:1" />
    <use
       height="1052.3622"
       width="744.09448"
       y="0"
       x="0"
       transform="matrix(0.21167,0,0,0.29024,1.27,-0.98607)"
       xlink:href="#2"
       id="use29"
       style="fill:#f9f9f9;fill-opacity:1" />
    <use
       height="1052.3622"
       width="744.09448"
       y="0"
       x="0"
       transform="matrix(0.28222,0,0,0.38698,-0.28222,-5.35994)"
       xlink:href="#2"
       id="use31"
       style="fill:#f9f9f9;fill-opacity:1" />
    <use
       height="1052.3622"
       width="744.09448"
       y="0"
       x="0"
       transform="matrix(0.42333,0,0,0.58047,-4.23333,-14.38991)"
       xlink:href="#2"
       id="use33"
       style="fill:#f9f9f9;fill-opacity:1" />
    <use
       height="1052.3622"
       width="744.09448"
       y="0"
       x="0"
       transform="matrix(0.35278,0,0,0.48373,-2.96333,-9.73381)"
       xlink:href="#2"
       id="use35"
       style="fill:#f9f9f9;fill-opacity:1" />
  </g>
  <path
     style="fill:#f9f9f9;fill-opacity:1"
     inkscape:connector-curvature="0"
     d="m 19.807338,12 c -0.799292,0.0012 -1.469949,1.523809 0.09375,1.1875 C 20.510976,12.986222 20.435332,12 19.807338,12 z m 9.187501,1 c -0.4658,0 -0.906972,0.538352 -0.6875,0.84375 0.0596,0.08296 0.36662,0.16872 0.65625,0.1875 0.399869,0.02591 0.5,-0.09611 0.5,-0.5 C 29.463589,13.154837 29.334678,13 28.994839,13 z m -6.84375,0.3125 C 21.221117,13.24162 20.16893,14.05622 19.994838,15 c -0.114199,0.590941 -0.02526,0.951929 -0.53125,0.8125 -0.313926,-0.08653 -1.033511,-0.753717 -1.46875,-0.8125 -0.686598,0.104319 -1.499259,0.896279 -1,2 0.491212,0.577794 0.658602,0.994402 0,1 -1.48513,0.389779 -2.032809,0.72342 -1.53125,2.40625 0.09652,0.28283 0.05956,0.643126 -0.34375,1.0625 -0.604311,0.628359 -0.644844,0.660399 -1.5625,0.375 -1.294817,-0.399388 -2.704597,1.183888 -0.09375,1.15625 1.649675,-0.195145 1.828905,0.194735 0.40625,0.9375 -0.964875,0.503759 -1.274518,0.706509 -1.28125,1.28125 -0.0066,0.566717 0.254143,0.739597 0.96875,1.03125 1.579216,0.557512 2.245772,0.767838 2.4375,2.75 0,0.598278 -0.09643,1.622619 0.46875,1.96875 0.54602,0.334384 0.681482,0.573974 0.59375,0.96875 -0.153836,0.692154 0.320091,0.893789 1.25,0.5625 1.040481,-0.370669 1.18517,-0.102314 0.375,0.625 -0.445046,0.399532 -0.65625,0.858354 -0.65625,1.3125 0.0103,1.029582 3.134365,1.746025 2.625,-0.4375 -0.235403,-0.988503 -0.735502,-1.726758 0.34375,-2 0.717367,-0.257797 1.38455,0.808587 2.000001,1 1.441297,0.448255 2.51044,-0.193905 3.375,-0.9375 0.526231,-0.452597 1.075199,-0.386966 1.40625,-0.3125 1.210461,0.249026 5.907207,0.662397 4.125,-2.28125 -0.735952,-1.071547 -0.587112,-1.283661 0.90625,-1.25 1.224397,0.0276 1.327163,-0.01875 1.40625,-0.5 0.0473,-0.287909 -0.06961,-0.741354 -0.25,-1.03125 -0.272339,-0.43759 -0.261356,-0.563199 0.03125,-0.71875 0.273724,-0.145521 0.06992,-0.934646 -0.25,-1.6875 -0.662233,-2.128785 1.43912,-5.846699 -0.65625,-6.53125 -1.265754,-0.457787 0.415762,-2.93976 -1.5,-2.34375 -0.556473,0.160668 -0.945059,-0.123633 -1.59375,-0.5625 -0.931677,-0.467598 -1.214149,-0.489516 -2.375,-0.4375 -0.990808,0.0405 -1.455322,-1.265474 -2.625,-0.40625 -0.985673,1.030808 -0.749017,0.524814 -2,-0.28125 -0.25,-0.25 -0.53376,-0.382624 -0.84375,-0.40625 z m 13.09375,7.9375 c -0.155874,0.03979 -0.296782,0.147396 -0.46875,0.28125 -0.471568,0.367062 -0.499693,0.395437 -0.09375,0.78125 0.587154,0.558024 1.21513,0.413273 1.3125,-0.3125 0.07674,-0.572055 -0.282377,-0.869383 -0.75,-0.75 z m -11.4375,12.53125 c -0.170212,0.03558 -0.207327,0.221848 -0.15625,0.53125 0.04459,0.270002 0.259447,0.5 0.46875,0.5 0.226509,0 0.389594,0.236551 0.4375,0.59375 0.04415,0.329999 0.198512,0.59375 0.3125,0.59375 0.113953,0 0.264557,-0.263751 0.34375,-0.59375 0.113372,-0.47235 0.03943,-0.864385 -0.5,-1.25 -0.433401,-0.30981 -0.736038,-0.410582 -0.90625,-0.375 z m 2.375,0.3125 c -0.156124,-0.01918 -0.3125,0.05735 -0.3125,0.25 7e-6,0.189996 0.18536,0.34375 0.40625,0.34375 0.220925,0 0.36774,-0.107499 0.3125,-0.25 -0.07839,-0.202279 -0.250126,-0.324567 -0.40625,-0.34375 z m -3.84375,0.375 c -0.139571,0 -0.352964,0.201248 -0.34375,0.53125 0.01587,0.531673 0.150533,0.636675 0.34375,0.25 0.297709,-0.595936 0.297709,-0.78125 0,-0.78125 z"
     id="path4346" />
  <g
     transform="matrix(2.3622046,0,0,2.3622046,59.191576,15.998821)"
     id="g4348"
     style="fill:#d12f2f;fill-opacity:1">
    <path
       style="fill:#d12f2f;fill-opacity:1"
       inkscape:connector-curvature="0"
       transform="scale(0.28222223,0.28222223)"
       d="m -52.78125,24 0,-12 -10.40625,-6 0,12 10.40625,6 z"
       id="path4350" />
    <path
       style="fill:#d12f2f;fill-opacity:1"
       inkscape:connector-curvature="0"
       transform="scale(0.28222223,0.28222223)"
       d="m -42.40625,6 -10.375,6 0,12 10.375,-6 0,-12 z"
       id="path4352" />
    <path
       style="fill:#d12f2f;fill-opacity:1"
       inkscape:connector-curvature="0"
       transform="scale(0.28222223,0.28222223)"
       d="m -52.78125,0 -10.40625,6 10.40625,6 10.375,-6 -10.375,-6 z"
       id="path4354" />
  </g>
</svg>
