<?xml version="1.0" encoding="UTF-8" standalone="no"?>
<svg
   xmlns:dc="http://purl.org/dc/elements/1.1/"
   xmlns:cc="http://creativecommons.org/ns#"
   xmlns:rdf="http://www.w3.org/1999/02/22-rdf-syntax-ns#"
   xmlns:svg="http://www.w3.org/2000/svg"
   xmlns="http://www.w3.org/2000/svg"
   xmlns:xlink="http://www.w3.org/1999/xlink"
   xmlns:sodipodi="http://sodipodi.sourceforge.net/DTD/sodipodi-0.dtd"
   xmlns:inkscape="http://www.inkscape.org/namespaces/inkscape"
   width="48"
   height="48"
   viewBox="0 0 48 48"
   id="svg2"
   version="1.1"
   inkscape:version="0.48.4 r9939"
   sodipodi:docname="assistant.svg">
  <defs
     id="defs3019" />
  <metadata
     id="metadata35">
    <rdf:RDF>
      <cc:Work
         rdf:about="">
        <dc:format>image/svg+xml</dc:format>
        <dc:type
           rdf:resource="http://purl.org/dc/dcmitype/StillImage" />
        <dc:title></dc:title>
      </cc:Work>
    </rdf:RDF>
  </metadata>
  <sodipodi:namedview
     pagecolor="#ffffff"
     bordercolor="#666666"
     borderopacity="1"
     objecttolerance="10"
     gridtolerance="10"
     guidetolerance="10"
     inkscape:pageopacity="0"
     inkscape:pageshadow="2"
     inkscape:window-width="1024"
     inkscape:window-height="692"
     id="namedview33"
     showgrid="false"
     inkscape:zoom="8"
     inkscape:cx="16.666946"
     inkscape:cy="22.715516"
     inkscape:window-x="0"
     inkscape:window-y="24"
     inkscape:window-maximized="1"
     inkscape:current-layer="svg2" />
  <path
     fill="#808080"
     d="M 47.4375 11.546875 L 47.4375 36.453125 C 47.4375 46.703125 47.4375 47.4375 36.453125 47.4375 L 11.550781 47.4375 C 0.5625 47.4375 0.5625 46.703125 0.5625 36.453125 L 0.5625 11.546875 C 0.5625 1.296875 0.5625 0.5625 11.550781 0.5625 L 36.453125 0.5625 C 47.4375 0.5625 47.4375 1.296875 47.4375 11.546875 Z "
     id="path11"
     style="fill:#f07620;fill-opacity:1" />
  <path
     inkscape:connector-curvature="0"
     id="path15"
     d="m 38.265625,47.4375 c 2.542969,-0.01172 4.378906,-0.08203 5.710937,-0.441406 l -4.230468,-7.25 -4.484375,7.691406 1.191406,0 c 0.640625,0 1.242187,0 1.8125,0 z m 1.480469,-7.691406 -5.125,-8.789063 -5.128906,8.789063 z m 0,0 7.652344,0 c 0.03125,-0.972656 0.03906,-2.0625 0.03906,-3.296875 l 0,-1.097657 -2.5625,-4.394531 z m 5.128906,-8.789063 -5.128906,-8.789062 -5.125,8.789062 z m 0,0 2.5625,0 0,-4.394531 z m -10.253906,0 -5.128906,-8.789062 -5.125,8.789062 z m -10.253906,0 -5.128907,8.789063 10.253907,0 z m 0,0 -5.128907,-8.789062 -5.125,8.789062 z m -10.253907,0 -5.128906,8.789063 10.253906,0 z m 0,0 -5.128906,-8.789062 -5.125,8.789062 z m -10.253906,0 -3.296875,5.648438 c 0,1.167969 0.011719,2.210937 0.039062,3.140625 l 8.382813,0 z m 0,0 -3.296875,-5.648437 0,5.648437 z m 5.125,8.789063 -4.3125,7.394531 c 1.597656,0.292969 3.808594,0.296875 6.878906,0.296875 l 1.921875,0 z m 0,-17.578125 -5.125,-8.789063 -3.296875,5.648438 0,3.140625 z m 0,0 10.253906,0 -5.125,-8.789063 z m 5.128906,-8.789063 -5.128906,-8.789062 -5.125,8.789062 z m 0,0 10.253907,0 -5.128907,-8.789062 z m 5.125,-8.789062 -2.351562,-4.027344 -5.335938,0 c -0.07813,0 -0.140625,0 -0.214843,0 L 8.984375,4.589844 z m 0,0 10.253907,0 -2.351563,-4.027344 -5.550781,0 z m 10.253907,0 10.253906,0 L 37.394531,0.5625 c -0.3125,0 -0.609375,0 -0.941406,0 l -4.609375,0 z m 0,0 -5.125,8.789062 10.253906,0 z m 5.128906,8.789062 10.253906,0 -5.128906,-8.789062 z m 0,0 -5.128906,8.789063 10.253906,0 z m 5.125,8.789063 7.691406,0 0,-4.394531 -2.5625,-4.394532 z m 5.128906,-8.789063 2.5625,0 0,-1.832031 c 0,-0.914063 -0.0078,-1.75 -0.02344,-2.523437 z m -15.382812,8.789063 -5.125,-8.789063 -5.128907,8.789063 z m 10.253906,-17.578125 7.308594,0 C 46.5,1.832031 45.167969,0.960938 42.023438,0.6875 z m -30.761719,0 L 6.679688,0.636719 C 3.019531,0.84375 1.539062,1.632812 0.945312,4.589844 z m -5.125,8.789062 L 0.621094,7.824219 C 0.578125,8.898438 0.5625,10.132812 0.5625,11.546875 l 0,1.832031 z m 15.378906,26.367188 -4.484375,7.691406 8.972656,0 z m 10.253907,0 -4.484376,7.691406 8.972657,0 z M 2.59375,46.367188 0.992188,43.621094 c 0.292968,1.316406 0.785156,2.179687 1.601562,2.746094 z"
     style="fill:#ffffff;fill-opacity:0.08627451" />
  <g
     style="fill:#f9f9f9;fill-opacity:1"
     transform="matrix(3.543307,0,0,3.543307,4.76e-5,-4e-7)"
     id="g25">
    <use
       height="1052.3622"
       width="744.09448"
       y="0"
       x="0"
       transform="matrix(0.14111,0,0,0.19349,3.66889,3.10559)"
       xlink:href="#2"
       id="use27"
       style="fill:#f9f9f9;fill-opacity:1" />
    <use
       height="1052.3622"
       width="744.09448"
       y="0"
       x="0"
       transform="matrix(0.21167,0,0,0.29024,1.27,-0.98607)"
       xlink:href="#2"
       id="use29"
       style="fill:#f9f9f9;fill-opacity:1" />
    <use
       height="1052.3622"
       width="744.09448"
       y="0"
       x="0"
       transform="matrix(0.28222,0,0,0.38698,-0.28222,-5.35994)"
       xlink:href="#2"
       id="use31"
       style="fill:#f9f9f9;fill-opacity:1" />
    <use
       height="1052.3622"
       width="744.09448"
       y="0"
       x="0"
       transform="matrix(0.42333,0,0,0.58047,-4.23333,-14.38991)"
       xlink:href="#2"
       id="use33"
       style="fill:#f9f9f9;fill-opacity:1" />
    <use
       height="1052.3622"
       width="744.09448"
       y="0"
       x="0"
       transform="matrix(0.35278,0,0,0.48373,-2.96333,-9.73381)"
       xlink:href="#2"
       id="use35"
       style="fill:#f9f9f9;fill-opacity:1" />
  </g>
  <g
     transform="translate(79.014215,-156.7071)"
     id="g4536"
     style="fill:#f9f9f9;fill-opacity:1">
    <path
       style="color:#000000;fill:#f9f9f9;fill-opacity:1"
       inkscape:connector-curvature="0"
       d="m -58.310705,165.71152 c -1.59867,3.72818 -0.3851,5.99161 0.0452,7.56864 l 2.52764,-0.3365 c -0.53448,-1.95869 -1.4566,-4.21031 -0.1608,-7.23214 z"
       id="path4538" />
    <path
       style="color:#000000;fill:#f9f9f9;fill-opacity:1"
       inkscape:connector-curvature="0"
       d="m -39.014215,171.97938 c -4.18091,0 -8.201,0.80357 -13.34673,2.73214 l 1.76884,1.60715 c 2.57286,-1.28572 6.75377,-2.73215 11.57789,-2.73215 z"
       id="path4540" />
    <path
       style="color:#000000;fill:#f9f9f9;fill-opacity:1"
       inkscape:connector-curvature="0"
       d="m -71.014215,173.42581 0,2.08928 c 1.60804,0.48215 5.14572,0.96429 8.36181,0.96429 l 0.32161,-1.76786 c -3.20509,-0.12488 -5.62814,-0.48215 -8.68342,-1.28571 z"
       id="path4542" />
    <path
       style="color:#000000;fill:#f9f9f9;fill-opacity:1"
       inkscape:connector-curvature="0"
       d="m -52.185075,179.02569 -2.10553,1.95369 c 5.62815,2.73214 10.13066,6.58928 12.70352,11.73214 l 1.92966,-2.57143 c -2.54771,-3.81942 -6.43217,-7.71429 -12.52765,-11.1144 z"
       id="path4544" />
    <path
       style="color:#000000;fill:#f9f9f9;fill-opacity:1"
       inkscape:connector-curvature="0"
       d="m 18,23.34375 c -0.32306,0.007 -0.6506,0.05505 -1,0.09375 -0.98782,0.10947 -1.73338,0.3183 -2.5625,0.625 -0.56205,0.20792 -0.98893,0.41803 -1.625,0.8125 -0.63606,0.39448 -1.28125,0.96875 -1.28125,0.96875 l 1.9375,1.9375 c 0,0 0.91412,-0.68339 1.4375,-0.96875 0.52339,-0.28536 1.23236,-0.40766 1.75,-0.46875 1.33542,-0.15763 2.63171,0.10879 3.25,0.625 0.65942,0.55056 0.93653,0.93528 0.96875,2.40625 -0.59447,-0.0241 -1.20616,0.01335 -1.875,0.03125 -0.59775,0.0161 -1.81295,0.04397 -2.3125,0.125 -1.33079,0.21596 -2.76899,0.44025 -4.15625,1.34375 -0.7392,0.48143 -1.33786,1.20856 -1.65625,2.03125 -0.35843,0.92613 -0.44059,2.01726 -0.15625,2.96875 0.296,0.9906 0.96404,1.95685 1.84375,2.5 1.69049,0.66937 3.89594,0.83903 5.5,0.28125 0.89437,-0.32275 1.59829,-0.59359 2.40625,-1.53125 0.13094,-0.15197 0.24253,-0.41864 0.40625,-0.6875 l 0,2.28125 3.375,0 0,-9.1875 C 24.2126,27.53038 23.41777,25.74621 22,24.5625 20.61838,23.63023 19.3999,23.31149 18,23.34375 z m 2.53125,8.53125 c 0.0642,4.9e-4 0.12493,-7.2e-4 0.1875,0 -9.9e-4,0.0204 0.001,0.0408 0,0.0625 0,0 0.16125,2.62645 -1.28125,3.53125 -1.4425,0.9048 -2.06978,0.93066 -3.125,0.75 C 15.57652,36.09274 14.73504,35.68482 14.4375,35 14.19869,34.45035 14.3783,33.72005 14.75,33.25 c 0.58067,-0.73425 1.64933,-0.91905 2.5625,-1.125 0.83702,-0.18878 2.14157,-0.25699 3.21875,-0.25 z"
       transform="translate(-79.014215,156.71152)"
       id="path4546" />
  </g>
</svg>
