<?xml version="1.0" encoding="UTF-8" standalone="no"?>
<svg
   xmlns:dc="http://purl.org/dc/elements/1.1/"
   xmlns:cc="http://creativecommons.org/ns#"
   xmlns:rdf="http://www.w3.org/1999/02/22-rdf-syntax-ns#"
   xmlns:svg="http://www.w3.org/2000/svg"
   xmlns="http://www.w3.org/2000/svg"
   xmlns:xlink="http://www.w3.org/1999/xlink"
   xmlns:sodipodi="http://sodipodi.sourceforge.net/DTD/sodipodi-0.dtd"
   xmlns:inkscape="http://www.inkscape.org/namespaces/inkscape"
   width="48"
   height="48"
   viewBox="0 0 48 48"
   id="svg2"
   version="1.1"
   inkscape:version="0.48.4 r9939"
   sodipodi:docname="astah_community.svg">
  <defs
     id="defs3019" />
  <metadata
     id="metadata35">
    <rdf:RDF>
      <cc:Work
         rdf:about="">
        <dc:format>image/svg+xml</dc:format>
        <dc:type
           rdf:resource="http://purl.org/dc/dcmitype/StillImage" />
        <dc:title></dc:title>
      </cc:Work>
    </rdf:RDF>
  </metadata>
  <sodipodi:namedview
     pagecolor="#ffffff"
     bordercolor="#666666"
     borderopacity="1"
     objecttolerance="10"
     gridtolerance="10"
     guidetolerance="10"
     inkscape:pageopacity="0"
     inkscape:pageshadow="2"
     inkscape:window-width="1024"
     inkscape:window-height="692"
     id="namedview33"
     showgrid="false"
     inkscape:zoom="8"
     inkscape:cx="22.973993"
     inkscape:cy="22.715516"
     inkscape:window-x="0"
     inkscape:window-y="24"
     inkscape:window-maximized="1"
     inkscape:current-layer="svg2" />
  <path
     fill="#808080"
     d="M 47.4375 11.546875 L 47.4375 36.453125 C 47.4375 46.703125 47.4375 47.4375 36.453125 47.4375 L 11.550781 47.4375 C 0.5625 47.4375 0.5625 46.703125 0.5625 36.453125 L 0.5625 11.546875 C 0.5625 1.296875 0.5625 0.5625 11.550781 0.5625 L 36.453125 0.5625 C 47.4375 0.5625 47.4375 1.296875 47.4375 11.546875 Z "
     id="path11"
     style="fill:#cc93ff;fill-opacity:1" />
  <path
     inkscape:connector-curvature="0"
     id="path15"
     d="m 38.265625,47.4375 c 2.542969,-0.01172 4.378906,-0.08203 5.710937,-0.441406 l -4.230468,-7.25 -4.484375,7.691406 1.191406,0 c 0.640625,0 1.242187,0 1.8125,0 z m 1.480469,-7.691406 -5.125,-8.789063 -5.128906,8.789063 z m 0,0 7.652344,0 c 0.03125,-0.972656 0.03906,-2.0625 0.03906,-3.296875 l 0,-1.097657 -2.5625,-4.394531 z m 5.128906,-8.789063 -5.128906,-8.789062 -5.125,8.789062 z m 0,0 2.5625,0 0,-4.394531 z m -10.253906,0 -5.128906,-8.789062 -5.125,8.789062 z m -10.253906,0 -5.128907,8.789063 10.253907,0 z m 0,0 -5.128907,-8.789062 -5.125,8.789062 z m -10.253907,0 -5.128906,8.789063 10.253906,0 z m 0,0 -5.128906,-8.789062 -5.125,8.789062 z m -10.253906,0 -3.296875,5.648438 c 0,1.167969 0.011719,2.210937 0.039062,3.140625 l 8.382813,0 z m 0,0 -3.296875,-5.648437 0,5.648437 z m 5.125,8.789063 -4.3125,7.394531 c 1.597656,0.292969 3.808594,0.296875 6.878906,0.296875 l 1.921875,0 z m 0,-17.578125 -5.125,-8.789063 -3.296875,5.648438 0,3.140625 z m 0,0 10.253906,0 -5.125,-8.789063 z m 5.128906,-8.789063 -5.128906,-8.789062 -5.125,8.789062 z m 0,0 10.253907,0 -5.128907,-8.789062 z m 5.125,-8.789062 -2.351562,-4.027344 -5.335938,0 c -0.07813,0 -0.140625,0 -0.214843,0 L 8.984375,4.589844 z m 0,0 10.253907,0 -2.351563,-4.027344 -5.550781,0 z m 10.253907,0 10.253906,0 L 37.394531,0.5625 c -0.3125,0 -0.609375,0 -0.941406,0 l -4.609375,0 z m 0,0 -5.125,8.789062 10.253906,0 z m 5.128906,8.789062 10.253906,0 -5.128906,-8.789062 z m 0,0 -5.128906,8.789063 10.253906,0 z m 5.125,8.789063 7.691406,0 0,-4.394531 -2.5625,-4.394532 z m 5.128906,-8.789063 2.5625,0 0,-1.832031 c 0,-0.914063 -0.0078,-1.75 -0.02344,-2.523437 z m -15.382812,8.789063 -5.125,-8.789063 -5.128907,8.789063 z m 10.253906,-17.578125 7.308594,0 C 46.5,1.832031 45.167969,0.960938 42.023438,0.6875 z m -30.761719,0 L 6.679688,0.636719 C 3.019531,0.84375 1.539062,1.632812 0.945312,4.589844 z m -5.125,8.789062 L 0.621094,7.824219 C 0.578125,8.898438 0.5625,10.132812 0.5625,11.546875 l 0,1.832031 z m 15.378906,26.367188 -4.484375,7.691406 8.972656,0 z m 10.253907,0 -4.484376,7.691406 8.972657,0 z M 2.59375,46.367188 0.992188,43.621094 c 0.292968,1.316406 0.785156,2.179687 1.601562,2.746094 z"
     style="fill:#ffffff;fill-opacity:0.13333334" />
  <g
     style="fill:#f9f9f9;fill-opacity:1"
     transform="matrix(3.543307,0,0,3.543307,4.76e-5,-4e-7)"
     id="g25">
    <use
       height="1052.3622"
       width="744.09448"
       y="0"
       x="0"
       transform="matrix(0.14111,0,0,0.19349,3.66889,3.10559)"
       xlink:href="#2"
       id="use27"
       style="fill:#f9f9f9;fill-opacity:1" />
    <use
       height="1052.3622"
       width="744.09448"
       y="0"
       x="0"
       transform="matrix(0.21167,0,0,0.29024,1.27,-0.98607)"
       xlink:href="#2"
       id="use29"
       style="fill:#f9f9f9;fill-opacity:1" />
    <use
       height="1052.3622"
       width="744.09448"
       y="0"
       x="0"
       transform="matrix(0.28222,0,0,0.38698,-0.28222,-5.35994)"
       xlink:href="#2"
       id="use31"
       style="fill:#f9f9f9;fill-opacity:1" />
    <use
       height="1052.3622"
       width="744.09448"
       y="0"
       x="0"
       transform="matrix(0.42333,0,0,0.58047,-4.23333,-14.38991)"
       xlink:href="#2"
       id="use33"
       style="fill:#f9f9f9;fill-opacity:1" />
    <use
       height="1052.3622"
       width="744.09448"
       y="0"
       x="0"
       transform="matrix(0.35278,0,0,0.48373,-2.96333,-9.73381)"
       xlink:href="#2"
       id="use35"
       style="fill:#f9f9f9;fill-opacity:1" />
  </g>
  <path
     style="fill:#f9f9f9;fill-opacity:1"
     inkscape:connector-curvature="0"
     d="m 24.03125,9.0001185 0.312497,3.3749735 -1.28124,2.093734 2.874977,3.281224 -1.031242,1.656237 c 2.148322,0.426326 3.78122,2.322698 3.78122,4.593714 0,2.583257 -2.104202,4.687462 -4.687462,4.687462 -2.583261,0 -4.687463,-2.104205 -4.687463,-4.687462 0,-2.528917 2.022743,-4.570237 4.531214,-4.656214 l 0.499996,-1.21874 -3.156225,-3.531222 1.499988,-2.718728 -1.34374,-2.6249795 C 14.326079,10.503654 9.0001188,16.621874 9.0001188,24.000001 c 0,8.2842 6.7156772,14.99988 14.9998812,14.99988 8.284212,0 14.999881,-6.71568 14.999881,-14.99988 0,-8.273664 -6.698966,-14.9828085 -14.968631,-14.9998825 z M 24,20.25003 c -2.0766,0 -3.749972,1.673324 -3.749972,3.749971 0,2.076638 1.673372,3.74997 3.749972,3.74997 2.076605,0 3.749969,-1.673332 3.749969,-3.74997 0,-2.076647 -1.673364,-3.749971 -3.749969,-3.749971 z m 0,1.406239 c 1.294409,0 2.34373,1.049327 2.34373,2.343732 0,1.294412 -1.049321,2.343731 -2.34373,2.343731 -1.294404,0 -2.343733,-1.049319 -2.343733,-2.343731 0,-1.294405 1.049329,-2.343732 2.343732,-2.343732 z"
     id="path20" />
</svg>
