<svg xmlns="http://www.w3.org/2000/svg" xmlns:svg="http://www.w3.org/2000/svg" xmlns:xlink="http://www.w3.org/1999/xlink" id="svg2" width="48" height="48" version="1.1"><metadata id="metadata34"/><defs id="defs4"><linearGradient id="0" x2="0" y1="1050.36" y2="1006.36" gradientTransform="translate(-47.999983,-2056.7244)" gradientUnits="userSpaceOnUse" xlink:href="#1"/><linearGradient id="1"><stop id="stop8" stop-color="#4b4b4b"/><stop id="stop10" offset="1" stop-color="#2d2d2d"/></linearGradient><radialGradient id="radial0" cx="148.004" cy="160" r="128" gradientTransform="matrix(0.1831,0,0,0.1831,-3.10029,-5.29688)" gradientUnits="userSpaceOnUse"><stop id="stop7" offset="0" stop-color="#d9aeff" stop-opacity="1"/><stop id="stop9" offset="1" stop-color="#9e31ff" stop-opacity="1"/></radialGradient><radialGradient id="radialGradient3069" cx="148.004" cy="160" r="128" gradientTransform="matrix(0.1831,0,0,0.1831,-3.10079,-5.29638)" gradientUnits="userSpaceOnUse" xlink:href="#radial0"/><linearGradient id="linearGradient3028" x2="0" y1="1050.36" y2="1006.36" gradientTransform="translate(-47.999983,-2056.7244)" gradientUnits="userSpaceOnUse" xlink:href="#1"/><linearGradient id="linearGradient3032" x2="0" y1="1050.36" y2="1006.36" gradientTransform="translate(-47.999983,-1052.3622)" gradientUnits="userSpaceOnUse" xlink:href="#1"/></defs><path id="path11" fill="url(#radialGradient3069)" d="m 47.437,11.547375 0,24.90625 c 0,10.25 0,10.984375 -10.984375,10.984375 l -24.902344,0 C 0.562,47.438 0.562,46.703625 0.562,36.453625 l 0,-24.90625 c 0,-10.25 0,-10.984375 10.988281,-10.984375 l 24.902344,0 C 47.437,0.563 47.437,1.297375 47.437,11.547375 z"/><path id="path15" fill="#fff" fill-opacity=".051" d="m 38.265125,47.438 c 2.542969,-0.01172 4.378906,-0.08203 5.710937,-0.441406 l -4.230468,-7.25 -4.484375,7.691406 1.191406,0 c 0.640625,0 1.242187,0 1.8125,0 z m 1.480469,-7.691406 -5.125,-8.789063 -5.128906,8.789063 z m 0,0 7.652344,0 c 0.03125,-0.972656 0.03906,-2.0625 0.03906,-3.296875 l 0,-1.097657 -2.5625,-4.394531 z m 5.128906,-8.789063 -5.128906,-8.789062 -5.125,8.789062 z m 0,0 2.5625,0 0,-4.394531 z m -10.253906,0 -5.128906,-8.789062 -5.125,8.789062 z m -10.253906,0 -5.128907,8.789063 10.253907,0 z m 0,0 -5.128907,-8.789062 -5.125,8.789062 z m -10.253907,0 -5.128906,8.789063 10.253906,0 z m 0,0 -5.128906,-8.789062 -5.125,8.789062 z m -10.253906,0 L 0.562,36.605969 c 0,1.167969 0.01172,2.210937 0.03906,3.140625 l 8.382813,0 z m 0,0 -3.296875,-5.648437 0,5.648437 z m 5.125,8.789063 -4.3125,7.394531 C 6.269031,47.434094 8.479969,47.438 11.550281,47.438 l 1.921875,0 z m 0,-17.578125 -5.125,-8.789063 -3.296875,5.648438 0,3.140625 z m 0,0 10.253906,0 -5.125,-8.789063 z m 5.128906,-8.789063 -5.128906,-8.789062 -5.125,8.789062 z m 0,0 10.253907,0 -5.128907,-8.789062 z m 5.125,-8.789062 -2.351562,-4.027344 -5.335938,0 c -0.07813,0 -0.140625,0 -0.214843,0 L 8.983875,4.590344 z m 0,0 10.253907,0 -2.351563,-4.027344 -5.550781,0 z m 10.253907,0 10.253906,0 L 37.394031,0.563 c -0.3125,0 -0.609375,0 -0.941406,0 l -4.609375,0 z m 0,0 -5.125,8.789062 10.253906,0 z m 5.128906,8.789062 10.253906,0 -5.128906,-8.789062 z m 0,0 -5.128906,8.789063 10.253906,0 z m 5.125,8.789063 7.691406,0 0,-4.394531 -2.5625,-4.394532 z m 5.128906,-8.789063 2.5625,0 0,-1.832031 c 0,-0.914063 -0.0078,-1.75 -0.02344,-2.523437 z m -15.382812,8.789063 -5.125,-8.789063 -5.128907,8.789063 z m 10.253906,-17.578125 7.308594,0 C 46.4995,1.832531 45.167469,0.961438 42.022938,0.688 z m -30.761719,0 L 6.679188,0.637219 C 3.019031,0.84425 1.538562,1.633312 0.944812,4.590344 z m -5.125,8.789062 -3.238281,-5.554687 c -0.04297,1.074219 -0.05859,2.308593 -0.05859,3.722656 l 0,1.832031 z m 15.378906,26.367188 -4.484375,7.691406 8.972656,0 z m 10.253907,0 -4.484376,7.691406 8.972657,0 z M 2.59325,46.367688 0.991688,43.621594 C 1.284656,44.938 1.776844,45.801281 2.59325,46.367688 z"/><path id="path30" fill="#f9f9f9" fill-opacity="1" d="m 24.031132,9.0002 0.312497,3.375 -1.28124,2.0937 2.874978,3.2812 -1.031242,1.6563 c 2.148322,0.4263 3.78122,2.3227 3.78122,4.5937 0,2.5833 -2.104203,4.6875 -4.687463,4.6875 -2.583261,0 -4.687463,-2.1042 -4.687463,-4.6875 0,-2.5289 2.022743,-4.5702 4.531214,-4.6562 l 0.499996,-1.2188 -3.156225,-3.5312 1.499988,-2.7187 -1.343739,-2.625 C 14.325961,10.5038 9,16.622 9,24.0001 9,32.2843 15.715678,39 23.999882,39 c 8.284212,0 14.999881,-6.7157 14.999881,-14.9999 0,-8.2737 -6.698966,-14.9828 -14.968631,-14.9999 z m -0.03125,11.2499 c -2.076599,0 -3.749971,1.6734 -3.749971,3.75 0,2.0766 1.673372,3.75 3.749971,3.75 2.076606,0 3.74997,-1.6734 3.74997,-3.75 0,-2.0766 -1.673364,-3.75 -3.74997,-3.75 z m 0,1.4063 c 1.294411,0 2.343731,1.0493 2.343731,2.3437 0,1.2944 -1.04932,2.3437 -2.343731,2.3437 -1.294403,0 -2.343732,-1.0493 -2.343732,-2.3437 0,-1.2944 1.049329,-2.3437 2.343732,-2.3437 z"/></svg>