<svg xmlns="http://www.w3.org/2000/svg" xmlns:svg="http://www.w3.org/2000/svg" xmlns:xlink="http://www.w3.org/1999/xlink" id="svg2" width="48" height="48" version="1.1" viewBox="0 0 13.547 13.547"><metadata id="metadata36"/><defs id="defs4"><clipPath id="clipPath6" clipPathUnits="userSpaceOnUse"><path id="path8" fill="#fff" fill-rule="evenodd" d="M -670.14006,51.863192 L -114.61564,405.00326 L -257.11075,510.32573 L -514.2215,-71.013029 L -670.14006,51.863192 z"/></clipPath><linearGradient id="linearGradient4460-3"><stop id="stop11" offset="0" stop-color="#c6e8f9" stop-opacity="1"/><stop id="stop13" offset="1" stop-color="#f9f9ff"/></linearGradient><linearGradient id="linearGradient4030" x1="3.387" x2="10.16" gradientTransform="matrix(1,0,0,-1,2.675e-5,13.546796)" gradientUnits="userSpaceOnUse" xlink:href="#linearGradient4460-3"/><linearGradient id="linearGradient4460"><stop id="stop17" offset="0" stop-color="#0c0e10" stop-opacity="1"/><stop id="stop19" offset="1" stop-color="#203e4e" stop-opacity="1"/></linearGradient><linearGradient id="linearGradient4075" x2="0" y1="279.088" y2="267.598" gradientTransform="matrix(1.10528,0,0,1.10528,-134.28289,-295.77061)" gradientUnits="userSpaceOnUse" xlink:href="#linearGradient4460"/><linearGradient id="linearGradient3016" x2="0" y1="279.088" y2="267.598" gradientTransform="matrix(1.10528,0,0,1.10528,-134.28289,-295.77061)" gradientUnits="userSpaceOnUse" xlink:href="#linearGradient4460-5"/><linearGradient id="linearGradient3002" x2="0" y1="279.096" y2="268.33" gradientTransform="matrix(1.10525,0,0,1.10525,-134.27875,-295.76183)" gradientUnits="userSpaceOnUse" xlink:href="#linearGradient4460-5"/><linearGradient id="linearGradient4460-5"><stop id="stop3001" offset="0" stop-color="#dbdbdb"/><stop id="stop3003" offset="1" stop-color="#f9f9f9"/></linearGradient><linearGradient id="linearGradient3800" x2="0" y1="279.096" y2="268.33" gradientTransform="matrix(1.10525,0,0,1.10525,-134.27875,-295.76183)" gradientUnits="userSpaceOnUse" xlink:href="#linearGradient4460-5"/><linearGradient id="linearGradient3803" x2="0" y1="279.096" y2="268.33" gradientTransform="matrix(1.10525,0,0,1.10525,-152.14488,-295.51353)" gradientUnits="userSpaceOnUse" xlink:href="#linearGradient4460-5"/><linearGradient id="linearGradient3005" x2="0" y1="279.096" y2="268.33" gradientTransform="matrix(1.10528,0,0,1.10528,-134.28288,-295.77052)" gradientUnits="userSpaceOnUse" xlink:href="#linearGradient4460-1"/><linearGradient id="linearGradient4460-1"><stop id="stop3007" offset="0" stop-color="#aaa"/><stop id="stop3009" offset="1" stop-color="#c8c8c8"/></linearGradient><linearGradient id="linearGradient3013" x2="0" y1="1050.36" y2="1006.36" gradientTransform="translate(0,-1004.3622)" gradientUnits="userSpaceOnUse" xlink:href="#1"/><linearGradient id="1"><stop id="stop8" stop-color="#dbdbdb"/><stop id="stop10" offset="1" stop-color="#f9f9f9"/></linearGradient><linearGradient id="linearGradient3080" x2="0" y1="1050.36" y2="1006.36" gradientTransform="translate(0,-1004.3622)" gradientUnits="userSpaceOnUse" xlink:href="#1"/><radialGradient id="radial0" cx="148.004" cy="160" r="128" gradientTransform="matrix(0.1831,0,0,0.1831,-3.10029,-5.29688)" gradientUnits="userSpaceOnUse"><stop id="stop7" offset="0" stop-color="#7f9fd0" stop-opacity="1"/><stop id="stop9" offset="1" stop-color="#2d4c7b" stop-opacity="1"/></radialGradient><radialGradient id="radialGradient3120" cx="148.004" cy="160" r="128" gradientTransform="matrix(0.05167489,0,0,0.05167489,-0.88527191,-1.4846014)" gradientUnits="userSpaceOnUse" xlink:href="#radial0"/><clipPath id="clipPath3841" clipPathUnits="userSpaceOnUse"><use id="use3843" width="1" height="1" x="0" y="0" transform="scale(3.543307,3.543307)" xlink:href="#path32"/></clipPath><clipPath id="clipPath3871" clipPathUnits="userSpaceOnUse"><path id="path3873" fill="#f9f9f9" fill-opacity="1" d="M 17.96875,22 16,23 16,22.96875 14,24 16,25.03125 16,25 l 2,1 13,0 0.75,0 1.6875,0 c 0,0 0.563315,-0.32532 0.5625,-2 2.5e-5,-1.61326 -0.625,-2 -0.625,-2 L 31.75,22 31,22 17.96875,22 z" clip-path="url(#clipPath3841)" transform="translate(-4.1338576e-8,0.04519612)"/></clipPath></defs><path id="path11" fill="url(#radialGradient3120)" d="m 13.377616,3.2690807 0,7.0290973 c 0,2.892778 0,3.100035 -3.100035,3.100035 l -7.0279949,0 c -3.10113721,0 -3.10113721,-0.207257 -3.10113721,-3.100035 l 0,-7.0290973 c 0,-2.89277782 0,-3.10003482 3.10113721,-3.10003482 l 7.0279949,0 c 3.100035,0 3.100035,0.207257 3.100035,3.10003482 z"/><path id="path15" fill="#fff" fill-opacity=".051" d="m 10.789109,13.398213 c 0.717682,-0.0033 1.235825,-0.02315 1.611753,-0.124575 l -1.193932,-2.046111 -1.2655903,2.170686 0.3362413,0 c 0.180799,0 0.350573,0 0.511528,0 z M 11.20693,11.227527 9.7605416,8.7470582 8.3130496,11.227527 z m 0,0 2.159662,0 c 0.0088,-0.274505 0.01102,-0.582083 0.01102,-0.930451 l 0,-0.3097835 -0.723194,-1.2402343 z M 12.654422,8.7470582 11.20693,6.2665895 9.7605416,8.7470582 z m 0,0 0.723194,0 0,-1.2402343 z m -2.8938804,0 L 8.3130496,6.2665895 6.866661,8.7470582 z m -2.8938806,0 -1.4474916,2.4804688 2.8938802,0 z m 0,0 L 5.4191694,6.2665895 3.9727805,8.7470582 z m -2.8938805,0 -1.4474913,2.4804688 2.8938802,0 z m 0,0 L 2.5252892,6.2665895 1.0789003,8.7470582 z m -2.8938802,0 -0.93045141,1.5941148 c 0,0.329627 0.00331,0.623976 0.011024,0.886354 l 2.36581611,0 z m 0,0 -0.93045141,-1.5941145 0,1.5941145 z m 1.4463889,2.4804688 -1.2170833,2.086901 c 0.450894,0.08268 1.0748699,0.08379 1.9413802,0.08379 l 0.5423958,0 z m 0,-4.9609375 -1.4463889,-2.4804689 -0.93045141,1.5941147 0,0.8863542 z m 0,0 2.8938802,0 L 3.9727805,3.7861206 z M 3.9727805,3.7861206 2.5252892,1.3056519 1.0789003,3.7861206 z m 0,0 2.8938805,0 -1.4474916,-2.4804687 z m 1.4463889,-2.4804687 -0.663663,-1.13660602 -1.5059203,0 c -0.02205,0 -0.039688,0 -0.060634,0 L 2.5252892,1.3056519 z m 0,0 2.8938802,0 -0.663663,-1.13660602 -1.5665538,0 z m 2.8938802,0 2.8938804,0 -0.663663,-1.13660602 c -0.0882,0 -0.171979,0 -0.265686,0 l -1.3008684,0 z m 0,0 -1.4463886,2.4804687 2.8938806,0 z m 1.447492,2.4804687 2.8938804,0 -1.447492,-2.4804687 z m 0,0 -1.447492,2.4804689 2.8938804,0 z m 1.4463884,2.4804689 2.170686,0 0,-1.2402343 -0.723194,-1.2402346 z m 1.447492,-2.4804689 0.723194,0 0,-0.5170399 c 0,-0.2579689 -0.0022,-0.4938889 -0.0066,-0.71217 z M 8.3130496,6.2665895 6.866661,3.7861206 5.4191694,6.2665895 z m 2.8938804,-4.9609376 2.062648,0 C 13.113033,0.52733578 12.737104,0.28149398 11.849647,0.20432368 z m -8.6816408,0 L 1.8748553,0.18999218 C 0.84187769,0.24842088 0.42405639,0.47111178 0.25648699,1.3056519 z M 1.0789003,3.7861206 0.16498539,2.2184644 c -0.012127,0.3031685 -0.016536,0.6515363 -0.016536,1.0506163 l 0,0.5170399 z m 4.3402691,7.4414064 -1.2655903,2.170686 2.532283,0 z m 2.8938802,0 -1.2655903,2.170686 2.5322833,0 z m -7.59133681,1.86862 -0.4519964,-0.775009 c 0.082682,0.371519 0.2215885,0.615157 0.4519964,0.775009 z"/><path id="path32" fill="#f9f9f9" fill-opacity="1" d="m 10.16,3.9443115 c 0,0 -0.5644442,0.8466667 -1.4111109,0.8466667 -0.7890009,-0.152067 -1.1023301,-0.022664 -1.1288621,0 l 0,3.415667 C 7.582647,8.9260972 6.9932352,9.6470052 6.1143392,9.9785832 4.9993723,10.399296 3.8210414,10.033323 3.4799234,9.1587282 3.1388036,8.2842642 3.7628053,7.2257212 4.8777762,6.8049892 5.7408052,6.4794312 6.5336867,6.56009 7.0555557,7.048756 l 0,-3.3866667 C 8.1844446,2.9113723 9.2338746,3.9327797 10.16,3.9443115 z" color="#000" style="line-height:normal"/><path id="rect3030" fill="#f9f9f9" fill-opacity="1" d="M 17.96875 22 L 16 23 L 16 22.96875 L 14 24 L 16 25.03125 L 16 25 L 18 26 L 31 26 L 31.75 26 L 33.4375 26 C 33.4375 26 34.000815 25.67468 34 24 C 34.000025 22.38674 33.375 22 33.375 22 L 31.75 22 L 31 22 L 17.96875 22 z" clip-path="url(#clipPath3871)" transform="scale(0.28222223,0.28222223)"/></svg>