<?xml version="1.0" encoding="UTF-8" standalone="no"?>
<svg
   xmlns:dc="http://purl.org/dc/elements/1.1/"
   xmlns:cc="http://creativecommons.org/ns#"
   xmlns:rdf="http://www.w3.org/1999/02/22-rdf-syntax-ns#"
   xmlns:svg="http://www.w3.org/2000/svg"
   xmlns="http://www.w3.org/2000/svg"
   xmlns:sodipodi="http://sodipodi.sourceforge.net/DTD/sodipodi-0.dtd"
   xmlns:inkscape="http://www.inkscape.org/namespaces/inkscape"
   width="48"
   height="48"
   viewBox="0 0 48 48"
   id="svg2"
   version="1.1"
   inkscape:version="0.48.4 r9939"
   sodipodi:docname="autokey.svg">
  <defs
     id="defs3019" />
  <metadata
     id="metadata35">
    <rdf:RDF>
      <cc:Work
         rdf:about="">
        <dc:format>image/svg+xml</dc:format>
        <dc:type
           rdf:resource="http://purl.org/dc/dcmitype/StillImage" />
        <dc:title></dc:title>
      </cc:Work>
    </rdf:RDF>
  </metadata>
  <sodipodi:namedview
     pagecolor="#ffffff"
     bordercolor="#666666"
     borderopacity="1"
     objecttolerance="10"
     gridtolerance="10"
     guidetolerance="10"
     inkscape:pageopacity="0"
     inkscape:pageshadow="2"
     inkscape:window-width="1024"
     inkscape:window-height="692"
     id="namedview33"
     showgrid="false"
     inkscape:zoom="4.9166667"
     inkscape:cx="17.569292"
     inkscape:cy="23.59322"
     inkscape:window-x="0"
     inkscape:window-y="24"
     inkscape:window-maximized="1"
     inkscape:current-layer="svg2" />
  <path
     fill="#808080"
     d="M 47.4375 11.546875 L 47.4375 36.453125 C 47.4375 46.703125 47.4375 47.4375 36.453125 47.4375 L 11.550781 47.4375 C 0.5625 47.4375 0.5625 46.703125 0.5625 36.453125 L 0.5625 11.546875 C 0.5625 1.296875 0.5625 0.5625 11.550781 0.5625 L 36.453125 0.5625 C 47.4375 0.5625 47.4375 1.296875 47.4375 11.546875 Z "
     id="path11"
     style="fill:#305bbd;fill-opacity:1" />
  <path
     inkscape:connector-curvature="0"
     id="path15"
     d="m 38.265625,47.4375 c 2.542969,-0.01172 4.378906,-0.08203 5.710937,-0.441406 l -4.230468,-7.25 -4.484375,7.691406 1.191406,0 c 0.640625,0 1.242187,0 1.8125,0 z m 1.480469,-7.691406 -5.125,-8.789063 -5.128906,8.789063 z m 0,0 7.652344,0 c 0.03125,-0.972656 0.03906,-2.0625 0.03906,-3.296875 l 0,-1.097657 -2.5625,-4.394531 z m 5.128906,-8.789063 -5.128906,-8.789062 -5.125,8.789062 z m 0,0 2.5625,0 0,-4.394531 z m -10.253906,0 -5.128906,-8.789062 -5.125,8.789062 z m -10.253906,0 -5.128907,8.789063 10.253907,0 z m 0,0 -5.128907,-8.789062 -5.125,8.789062 z m -10.253907,0 -5.128906,8.789063 10.253906,0 z m 0,0 -5.128906,-8.789062 -5.125,8.789062 z m -10.253906,0 -3.296875,5.648438 c 0,1.167969 0.011719,2.210937 0.039062,3.140625 l 8.382813,0 z m 0,0 -3.296875,-5.648437 0,5.648437 z m 5.125,8.789063 -4.3125,7.394531 c 1.597656,0.292969 3.808594,0.296875 6.878906,0.296875 l 1.921875,0 z m 0,-17.578125 -5.125,-8.789063 -3.296875,5.648438 0,3.140625 z m 0,0 10.253906,0 -5.125,-8.789063 z m 5.128906,-8.789063 -5.128906,-8.789062 -5.125,8.789062 z m 0,0 10.253907,0 -5.128907,-8.789062 z m 5.125,-8.789062 -2.351562,-4.027344 -5.335938,0 c -0.07813,0 -0.140625,0 -0.214843,0 L 8.984375,4.589844 z m 0,0 10.253907,0 -2.351563,-4.027344 -5.550781,0 z m 10.253907,0 10.253906,0 L 37.394531,0.5625 c -0.3125,0 -0.609375,0 -0.941406,0 l -4.609375,0 z m 0,0 -5.125,8.789062 10.253906,0 z m 5.128906,8.789062 10.253906,0 -5.128906,-8.789062 z m 0,0 -5.128906,8.789063 10.253906,0 z m 5.125,8.789063 7.691406,0 0,-4.394531 -2.5625,-4.394532 z m 5.128906,-8.789063 2.5625,0 0,-1.832031 c 0,-0.914063 -0.0078,-1.75 -0.02344,-2.523437 z m -15.382812,8.789063 -5.125,-8.789063 -5.128907,8.789063 z m 10.253906,-17.578125 7.308594,0 C 46.5,1.832031 45.167969,0.960938 42.023438,0.6875 z m -30.761719,0 L 6.679688,0.636719 C 3.019531,0.84375 1.539062,1.632812 0.945312,4.589844 z m -5.125,8.789062 L 0.621094,7.824219 C 0.578125,8.898438 0.5625,10.132812 0.5625,11.546875 l 0,1.832031 z m 15.378906,26.367188 -4.484375,7.691406 8.972656,0 z m 10.253907,0 -4.484376,7.691406 8.972657,0 z M 2.59375,46.367188 0.992188,43.621094 c 0.292968,1.316406 0.785156,2.179687 1.601562,2.746094 z"
     style="fill:#ffffff;fill-opacity:0.07058824" />
  <path
     style="color:#000000;fill:#f9f9f9"
     inkscape:connector-curvature="0"
     d="m 21.287981,11.000002 c -1.653072,0.344069 -3.203887,0.989081 -4.56916,1.884484 0.03981,0.993699 -0.302758,2.010218 -1.061224,2.767837 -0.758477,0.75761 -1.776149,1.099767 -2.770973,1.060023 -0.896419,1.363726 -1.542165,2.912791 -1.886623,4.563987 0.737472,0.674051 1.179139,1.631765 1.179139,2.708946 0,1.077181 -0.441667,2.06435 -1.179139,2.738392 0.344459,1.651204 0.990204,3.170816 1.886623,4.534541 0.994824,-0.03976 2.012496,0.331859 2.770973,1.089468 0.758469,0.757619 1.101016,1.744694 1.061224,2.738392 1.365273,0.895404 2.916088,1.569862 4.56916,1.913928 0.674812,-0.736632 1.633627,-1.207247 2.712019,-1.207247 1.078405,0 2.037203,0.470615 2.712018,1.207247 1.64772,-0.342957 3.207172,-1.022992 4.569162,-1.913928 -0.0019,-0.05324 0,-0.09404 0,-0.147225 0,-0.943476 0.340547,-1.871312 1.061224,-2.591166 0.758477,-0.75761 1.776154,-1.129211 2.770976,-1.089468 0.896417,-1.363726 1.542164,-2.883337 1.886619,-4.534541 -0.737468,-0.674042 -1.179134,-1.661211 -1.179134,-2.738392 0,-1.077181 0.441666,-2.034895 1.179134,-2.708946 -0.344455,-1.651196 -0.990202,-3.200261 -1.886619,-4.563987 -0.994822,0.03976 -2.012499,-0.302412 -2.770976,-1.060023 -0.720659,-0.719854 -1.061224,-1.64769 -1.061224,-2.591167 0,-0.05323 -0.0019,-0.123463 0,-0.176672 C 29.91919,11.993547 28.359738,11.342957 26.712018,11 26.037203,11.736636 25.078405,12.207248 24,12.207248 22.921608,12.207248 21.962793,11.736636 21.287981,11 z m 6.544219,4.151755 c 0.420746,0 0.730736,0.04542 1.120184,0.147225 0.567975,0.148762 1.031489,0.607369 1.031744,1.148358 2.55e-4,0.653991 -0.468843,1.118913 -1.179135,1.118913 -0.338386,0 -0.477326,-0.05889 -0.972793,-0.05889 -1.462313,0 -2.6506,1.189486 -2.653062,2.650056 l 0,2.296716 c 0,0.20671 0.176457,0.353342 0.383219,0.353342 l 1.739232,0 c 0.648638,0 1.178632,0.528212 1.179139,1.177803 0,0.649846 -0.530752,1.177804 -1.179139,1.177804 l -2.122451,0 0,2.650056 c 0,2.770079 -2.238116,5.035107 -5.011335,5.035107 -0.420829,0 -0.730736,-0.04532 -1.12018,-0.147224 -0.567988,-0.148679 -1.031494,-0.636987 -1.031748,-1.177805 0,-0.653822 0.497994,-1.118913 1.208616,-1.118913 0.338053,0 0.448111,0.05889 0.943312,0.05889 1.462298,0 2.65077,-1.160551 2.653058,-2.620612 l 0,-2.326161 c 0,-0.206277 -0.176456,-0.353342 -0.383219,-0.353342 l -1.739225,0 c -0.648793,0 -1.179139,-0.527787 -1.179139,-1.177802 -1.71e-4,-0.653662 0.552949,-1.177803 1.208616,-1.177803 l 2.092967,0 0,-2.650057 c 0,-2.770334 2.237684,-5.005663 5.011339,-5.005663 z"
     id="path16" />
</svg>
