<svg xmlns="http://www.w3.org/2000/svg" xmlns:svg="http://www.w3.org/2000/svg" xmlns:xlink="http://www.w3.org/1999/xlink" id="svg2" width="48" height="48" version="1.1"><metadata id="metadata34"/><defs id="defs4"><linearGradient id="0" x2="0" y1="1050.36" y2="1006.36" gradientTransform="translate(-47.999983,-2056.7244)" gradientUnits="userSpaceOnUse" xlink:href="#1"/><linearGradient id="1"><stop id="stop8" stop-color="#26c2f0"/><stop id="stop10" offset="1" stop-color="#305bbd"/></linearGradient><radialGradient id="radial0" cx="148.004" cy="160" r="128" gradientTransform="matrix(0.1831,0,0,0.1831,-3.10029,-5.29688)" gradientUnits="userSpaceOnUse"><stop id="stop7" offset="0" stop-color="#c0edfb" stop-opacity="1"/><stop id="stop9" offset="1" stop-color="#305bbd" stop-opacity="1"/></radialGradient><radialGradient id="radialGradient3137" cx="148.004" cy="160" r="128" gradientTransform="matrix(0.1831,0,0,0.1831,-3.10079,-5.2963805)" gradientUnits="userSpaceOnUse" xlink:href="#radial0"/><linearGradient id="linearGradient3030" x2="0" y1="1050.36" y2="1006.36" gradientTransform="translate(-7.299396,-1049.6297)" gradientUnits="userSpaceOnUse" xlink:href="#1"/></defs><path id="path11" fill="url(#radialGradient3137)" d="m 47.437,11.547375 0,24.90625 c 0,10.25 0,10.984375 -10.984375,10.984375 l -24.902344,0 C 0.562,47.438 0.562,46.703625 0.562,36.453625 l 0,-24.90625 c 0,-10.2500005 0,-10.98437549 10.988281,-10.98437549 l 24.902344,0 C 47.437,0.56299951 47.437,1.2973745 47.437,11.547375 z"/><path id="path15" fill="#fff" fill-opacity=".051" d="m 38.265125,47.438 c 2.542969,-0.01172 4.378906,-0.08203 5.710937,-0.441406 l -4.230468,-7.25 -4.484375,7.691406 1.191406,0 c 0.640625,0 1.242187,0 1.8125,0 z m 1.480469,-7.691406 -5.125,-8.789063 -5.128906,8.789063 z m 0,0 7.652344,0 c 0.03125,-0.972656 0.03906,-2.0625 0.03906,-3.296875 l 0,-1.097657 -2.5625,-4.394531 z m 5.128906,-8.789063 -5.128906,-8.789062 -5.125,8.789062 z m 0,0 2.5625,0 0,-4.394531 z m -10.253906,0 -5.128906,-8.789062 -5.125,8.789062 z m -10.253906,0 -5.128907,8.789063 10.253907,0 z m 0,0 -5.128907,-8.789062 -5.125,8.789062 z m -10.253907,0 -5.128906,8.789063 10.253906,0 z m 0,0 -5.128906,-8.789062 -5.125,8.789062 z m -10.253906,0 L 0.562,36.605969 c 0,1.167969 0.01172,2.210937 0.03906,3.140625 l 8.382813,0 z m 0,0 -3.296875,-5.648437 0,5.648437 z m 5.125,8.789063 -4.3125,7.394531 C 6.269031,47.434094 8.479969,47.438 11.550281,47.438 l 1.921875,0 z m 0,-17.578125 -5.125,-8.789063 -3.296875,5.648438 0,3.140625 z m 0,0 10.253906,0 -5.125,-8.789063 z m 5.128906,-8.789063 -5.128906,-8.7890625 -5.125,8.7890625 z m 0,0 10.253907,0 -5.128907,-8.7890625 z m 5.125,-8.7890625 -2.351562,-4.02734399 -5.335938,0 c -0.07813,0 -0.140625,0 -0.214843,0 L 8.983875,4.5903435 z m 0,0 10.253907,0 -2.351563,-4.02734399 -5.550781,0 z m 10.253907,0 10.253906,0 -2.351563,-4.02734399 c -0.3125,0 -0.609375,0 -0.941406,0 l -4.609375,0 z m 0,0 -5.125,8.7890625 10.253906,0 z m 5.128906,8.7890625 10.253906,0 -5.128906,-8.7890625 z m 0,0 -5.128906,8.789063 10.253906,0 z m 5.125,8.789063 7.691406,0 0,-4.394531 -2.5625,-4.394532 z m 5.128906,-8.789063 2.5625,0 0,-1.832031 c 0,-0.914063 -0.0078,-1.7500005 -0.02344,-2.5234375 z m -15.382812,8.789063 -5.125,-8.789063 -5.128907,8.789063 z m 10.253906,-17.5781255 7.308594,0 C 46.4995,1.8325305 45.167469,0.96143751 42.022938,0.68799951 z m -30.761719,0 L 6.679188,0.63721851 C 3.019031,0.84424951 1.538562,1.6333115 0.944812,4.5903435 z m -5.125,8.7890625 -3.238281,-5.5546875 c -0.04297,1.074219 -0.05859,2.3085935 -0.05859,3.7226565 l 0,1.832031 z m 15.378906,26.367188 -4.484375,7.691406 8.972656,0 z m 10.253907,0 -4.484376,7.691406 8.972657,0 z M 2.59325,46.367688 0.991688,43.621594 C 1.284656,44.938 1.776844,45.801281 2.59325,46.367688 z"/><path id="path30" fill="#f9f9f9" d="m 21.28798,11 c -1.653072,0.3441 -3.203887,0.9891 -4.569159,1.8845 0.03981,0.9937 -0.302759,2.0102 -1.061225,2.7678 -0.758477,0.7576 -1.776149,1.0998 -2.770972,1.06 -0.896419,1.3638 -1.542165,2.9128 -1.886624,4.564 0.737473,0.6741 1.179139,1.6318 1.179139,2.709 0,1.0771 -0.441666,2.0643 -1.179139,2.7384 0.344459,1.6512 0.990205,3.1708 1.886624,4.5345 0.994823,-0.04 2.012495,0.3319 2.770972,1.0895 0.75847,0.7576 1.101016,1.7447 1.061225,2.7384 1.365272,0.8954 2.916087,1.5698 4.569159,1.9139 0.674812,-0.7366 1.633628,-1.2073 2.712019,-1.2073 1.078405,0 2.037203,0.4707 2.712019,1.2073 1.647719,-0.343 3.207171,-1.023 4.569162,-1.9139 -0.0019,-0.053 0,-0.094 0,-0.1473 0,-0.9434 0.340547,-1.8713 1.061224,-2.5911 0.758476,-0.7576 1.776153,-1.1292 2.770975,-1.0895 0.896418,-1.3637 1.542164,-2.8833 1.88662,-4.5345 -0.737469,-0.6741 -1.179135,-1.6613 -1.179135,-2.7384 0,-1.0772 0.441666,-2.0349 1.179135,-2.709 -0.344456,-1.6512 -0.990202,-3.2002 -1.88662,-4.564 -0.994822,0.04 -2.012499,-0.3024 -2.770975,-1.06 -0.72066,-0.7198 -1.061224,-1.6477 -1.061224,-2.5912 0,-0.053 -0.0019,-0.1234 0,-0.1766 -1.361991,-0.891 -2.921443,-1.5416 -4.569162,-1.8845 -0.674816,0.7366 -1.633614,1.2072 -2.712019,1.2072 -1.078391,0 -2.037207,-0.4706 -2.712019,-1.2072 z m 6.544219,4.1517 c 0.420746,0 0.730736,0.046 1.120185,0.1473 0.567974,0.1487 1.031488,0.6073 1.031743,1.1483 2.55e-4,0.654 -0.468843,1.1189 -1.179134,1.1189 -0.338386,0 -0.477326,-0.059 -0.972794,-0.059 -1.462312,0 -2.650599,1.1895 -2.653062,2.6501 l 0,2.2967 c 0,0.2067 0.176457,0.3534 0.383219,0.3534 l 1.739233,0 c 0.648637,0 1.178631,0.5282 1.179138,1.1778 0,0.6498 -0.530752,1.1778 -1.179138,1.1778 l -2.122452,0 0,2.65 c 0,2.7701 -2.238116,5.0351 -5.011334,5.0351 -0.420829,0 -0.730737,-0.045 -1.120181,-0.1472 -0.567988,-0.1487 -1.031494,-0.637 -1.031748,-1.1778 0,-0.6538 0.497994,-1.1189 1.208616,-1.1189 0.338053,0 0.448111,0.059 0.943313,0.059 1.462298,0 2.650769,-1.1606 2.653058,-2.6206 l 0,-2.3262 c 0,-0.2063 -0.176457,-0.3533 -0.383219,-0.3533 l -1.739226,0 c -0.648793,0 -1.179139,-0.5278 -1.179139,-1.1778 -1.71e-4,-0.6537 0.55295,-1.1778 1.208616,-1.1778 l 2.092968,0 0,-2.6501 c 0,-2.7703 2.237683,-5.0057 5.011338,-5.0057 z" color="#000"/></svg>