<svg xmlns="http://www.w3.org/2000/svg" xmlns:svg="http://www.w3.org/2000/svg" xmlns:xlink="http://www.w3.org/1999/xlink" id="svg2" width="48" height="48" version="1.1"><metadata id="metadata42"/><defs id="defs4"><linearGradient id="0" x2="0" y1="1050.36" y2="1006.36" gradientUnits="userSpaceOnUse" xlink:href="#1"/><linearGradient id="1" x2="0" y1="279.1" y2="268.33" gradientTransform="matrix(3.9163464,0,0,3.9163464,-442.80547,-42.64357)" gradientUnits="userSpaceOnUse"><stop id="stop8" stop-color="#2a3236"/><stop id="stop10" offset="1" stop-color="#4d575b"/></linearGradient><radialGradient id="radial0" cx="148.004" cy="160" r="128" gradientTransform="matrix(0.1831,0,0,0.1831,-3.10029,-5.29688)" gradientUnits="userSpaceOnUse"><stop id="stop7" offset="0" stop-color="#aad7ff" stop-opacity="1"/><stop id="stop9" offset="1" stop-color="#2898ff" stop-opacity="1"/></radialGradient><radialGradient id="radialGradient3171" cx="148.004" cy="160" r="128" gradientTransform="matrix(0.1831,0,0,0.1831,-3.0107903,-5.29638)" gradientUnits="userSpaceOnUse" xlink:href="#radial0"/><linearGradient id="linearGradient3036" x2="0" y1="1050.36" y2="1006.36" gradientUnits="userSpaceOnUse" xlink:href="#1"/><linearGradient id="linearGradient3044" x2="0" y1="1050.36" y2="1006.36" gradientTransform="translate(0,-1004.3622)" gradientUnits="userSpaceOnUse" xlink:href="#1"/></defs><path id="path11" fill="url(#radialGradient3171)" d="m 47.527,11.547375 0,24.90625 c 0,10.25 0,10.984375 -10.984375,10.984375 l -24.902344,0 C 0.652,47.438 0.652,46.703625 0.652,36.453625 l 0,-24.90625 c 0,-10.25 0,-10.984375 10.988281,-10.984375 l 24.902344,0 C 47.527,0.563 47.527,1.297375 47.527,11.547375 z"/><path id="path15" fill="#fff" fill-opacity=".051" d="m 38.355125,47.438 c 2.542969,-0.01172 4.378906,-0.08203 5.710937,-0.441406 l -4.230468,-7.25 -4.484375,7.691406 1.191406,0 c 0.640625,0 1.242187,0 1.8125,0 z m 1.480469,-7.691406 -5.125,-8.789063 -5.128906,8.789063 z m 0,0 7.652344,0 c 0.03125,-0.972656 0.03906,-2.0625 0.03906,-3.296875 l 0,-1.097657 -2.5625,-4.394531 z m 5.128906,-8.789063 -5.128906,-8.789062 -5.125,8.789062 z m 0,0 2.5625,0 0,-4.394531 z m -10.253906,0 -5.128906,-8.789062 -5.125,8.789062 z m -10.253906,0 -5.128907,8.789063 10.253907,0 z m 0,0 -5.128907,-8.789062 -5.125,8.789062 z m -10.253907,0 -5.128906,8.789063 10.253906,0 z m 0,0 -5.128906,-8.789062 -5.125,8.789062 z m -10.253906,0 L 0.652,36.605969 c 0,1.167969 0.011719,2.210937 0.039062,3.140625 l 8.382813,0 z m 0,0 -3.296875,-5.648437 0,5.648437 z m 5.125,8.789063 -4.3125,7.394531 C 6.359031,47.434094 8.569969,47.438 11.640281,47.438 l 1.921875,0 z m 0,-17.578125 -5.125,-8.789063 -3.296875,5.648438 0,3.140625 z m 0,0 10.253906,0 -5.125,-8.789063 z m 5.128906,-8.789063 -5.128906,-8.7890623 -5.125,8.7890623 z m 0,0 10.253907,0 -5.128907,-8.7890623 z m 5.125,-8.7890623 L 16.976219,0.563 l -5.335938,0 c -0.07813,0 -0.140625,0 -0.214843,0 L 9.073875,4.5903437 z m 0,0 10.253907,0 L 27.230125,0.563 l -5.550781,0 z m 10.253907,0 10.253906,0 L 37.484031,0.563 c -0.3125,0 -0.609375,0 -0.941406,0 l -4.609375,0 z m 0,0 -5.125,8.7890623 10.253906,0 z m 5.128906,8.7890623 10.253906,0 -5.128906,-8.7890623 z m 0,0 -5.128906,8.789063 10.253906,0 z m 5.125,8.789063 7.691406,0 0,-4.394531 -2.5625,-4.394532 z m 5.128906,-8.789063 2.5625,0 0,-1.832031 c 0,-0.914063 -0.0078,-1.7500003 -0.02344,-2.5234373 z m -15.382812,8.789063 -5.125,-8.789063 -5.128907,8.789063 z m 10.253906,-17.5781253 7.308594,0 C 46.5895,1.832531 45.257469,0.961438 42.112938,0.688 z m -30.761719,0 L 6.769188,0.637219 C 3.109031,0.84425 1.628562,1.633312 1.034812,4.5903437 z M 3.948875,13.379406 0.710594,7.8247187 C 0.667625,8.8989377 0.652,10.133312 0.652,11.547375 l 0,1.832031 z m 15.378906,26.367188 -4.484375,7.691406 8.972656,0 z m 10.253907,0 -4.484376,7.691406 8.972657,0 z M 2.68325,46.367688 1.081688,43.621594 C 1.374656,44.938 1.866844,45.801281 2.68325,46.367688 z"/><path id="path30" fill="#f9f9f9" fill-opacity="1" d="M 28 12 L 13 16 L 13 32 L 28 36 L 35 33 L 35 15 L 28 12 z M 23 19.40625 L 23 28.34375 L 21 28 L 21 19.71875 L 23 19.40625 z"/></svg>