<?xml version="1.0" encoding="UTF-8" standalone="no"?>
<svg
   xmlns:dc="http://purl.org/dc/elements/1.1/"
   xmlns:cc="http://creativecommons.org/ns#"
   xmlns:rdf="http://www.w3.org/1999/02/22-rdf-syntax-ns#"
   xmlns:svg="http://www.w3.org/2000/svg"
   xmlns="http://www.w3.org/2000/svg"
   xmlns:sodipodi="http://sodipodi.sourceforge.net/DTD/sodipodi-0.dtd"
   xmlns:inkscape="http://www.inkscape.org/namespaces/inkscape"
   width="48"
   height="48"
   viewBox="0 0 48 48"
   id="svg2"
   version="1.1"
   inkscape:version="0.48.4 r9939"
   sodipodi:docname="beatbox.svg">
  <defs
     id="defs7" />
  <metadata
     id="metadata35">
    <rdf:RDF>
      <cc:Work
         rdf:about="">
        <dc:format>image/svg+xml</dc:format>
        <dc:type
           rdf:resource="http://purl.org/dc/dcmitype/StillImage" />
        <dc:title></dc:title>
      </cc:Work>
    </rdf:RDF>
  </metadata>
  <sodipodi:namedview
     pagecolor="#ffffff"
     bordercolor="#666666"
     borderopacity="1"
     objecttolerance="10"
     gridtolerance="10"
     guidetolerance="10"
     inkscape:pageopacity="0"
     inkscape:pageshadow="2"
     inkscape:window-width="1024"
     inkscape:window-height="692"
     id="namedview33"
     showgrid="false"
     inkscape:zoom="6.9532167"
     inkscape:cx="8.4238342"
     inkscape:cy="22.492023"
     inkscape:window-x="0"
     inkscape:window-y="24"
     inkscape:window-maximized="1"
     inkscape:current-layer="svg2"
     showguides="true"
     inkscape:guide-bbox="true">
    <sodipodi:guide
       orientation="1,0"
       position="-30.633304,19.271656"
       id="guide6162" />
  </sodipodi:namedview>
  <path
     fill="#808080"
     d="M 47.4375 11.546875 L 47.4375 36.453125 C 47.4375 46.703125 47.4375 47.4375 36.453125 47.4375 L 11.550781 47.4375 C 0.5625 47.4375 0.5625 46.703125 0.5625 36.453125 L 0.5625 11.546875 C 0.5625 1.296875 0.5625 0.5625 11.550781 0.5625 L 36.453125 0.5625 C 47.4375 0.5625 47.4375 1.296875 47.4375 11.546875 Z "
     id="path11"
     style="fill:#f7931a;fill-opacity:1" />
  <path
     inkscape:connector-curvature="0"
     id="path15"
     d="m 38.265625,47.4375 c 2.542969,-0.01172 4.378906,-0.08203 5.710937,-0.441406 l -4.230468,-7.25 -4.484375,7.691406 1.191406,0 c 0.640625,0 1.242187,0 1.8125,0 z m 1.480469,-7.691406 -5.125,-8.789063 -5.128906,8.789063 z m 0,0 7.652344,0 c 0.03125,-0.972656 0.03906,-2.0625 0.03906,-3.296875 l 0,-1.097657 -2.5625,-4.394531 z m 5.128906,-8.789063 -5.128906,-8.789062 -5.125,8.789062 z m 0,0 2.5625,0 0,-4.394531 z m -10.253906,0 -5.128906,-8.789062 -5.125,8.789062 z m -10.253906,0 -5.128907,8.789063 10.253907,0 z m 0,0 -5.128907,-8.789062 -5.125,8.789062 z m -10.253907,0 -5.128906,8.789063 10.253906,0 z m 0,0 -5.128906,-8.789062 -5.125,8.789062 z m -10.253906,0 -3.296875,5.648438 c 0,1.167969 0.011719,2.210937 0.039062,3.140625 l 8.382813,0 z m 0,0 -3.296875,-5.648437 0,5.648437 z m 5.125,8.789063 -4.3125,7.394531 c 1.597656,0.292969 3.808594,0.296875 6.878906,0.296875 l 1.921875,0 z m 0,-17.578125 -5.125,-8.789063 -3.296875,5.648438 0,3.140625 z m 0,0 10.253906,0 -5.125,-8.789063 z m 5.128906,-8.789063 -5.128906,-8.789062 -5.125,8.789062 z m 0,0 10.253907,0 -5.128907,-8.789062 z m 5.125,-8.789062 -2.351562,-4.027344 -5.335938,0 c -0.07813,0 -0.140625,0 -0.214843,0 L 8.984375,4.589844 z m 0,0 10.253907,0 -2.351563,-4.027344 -5.550781,0 z m 10.253907,0 10.253906,0 L 37.394531,0.5625 c -0.3125,0 -0.609375,0 -0.941406,0 l -4.609375,0 z m 0,0 -5.125,8.789062 10.253906,0 z m 5.128906,8.789062 10.253906,0 -5.128906,-8.789062 z m 0,0 -5.128906,8.789063 10.253906,0 z m 5.125,8.789063 7.691406,0 0,-4.394531 -2.5625,-4.394532 z m 5.128906,-8.789063 2.5625,0 0,-1.832031 c 0,-0.914063 -0.0078,-1.75 -0.02344,-2.523437 z m -15.382812,8.789063 -5.125,-8.789063 -5.128907,8.789063 z m 10.253906,-17.578125 7.308594,0 C 46.5,1.832031 45.167969,0.960938 42.023438,0.6875 z m -30.761719,0 L 6.679688,0.636719 C 3.019531,0.84375 1.539062,1.632812 0.945312,4.589844 z m -5.125,8.789062 L 0.621094,7.824219 C 0.578125,8.898438 0.5625,10.132812 0.5625,11.546875 l 0,1.832031 z m 15.378906,26.367188 -4.484375,7.691406 8.972656,0 z m 10.253907,0 -4.484376,7.691406 8.972657,0 z M 2.59375,46.367188 0.992188,43.621094 c 0.292968,1.316406 0.785156,2.179687 1.601562,2.746094 z"
     style="fill:#ffffff;fill-opacity:0.09019608" />
  <path
     style="fill:#f9f9f9"
     inkscape:connector-curvature="0"
     d="m 30.666862,24.000393 a 6.666667,6.666667 0 0 1 -13.333334,0 6.666667,6.666667 0 1 1 13.333334,0 z"
     id="path6497" />
  <g
     transform="matrix(2.3622047,0,0,2.3622047,8.0001957,8.094229)"
     id="g6499"
     style="fill:#f7931a;fill-opacity:1">
    <path
       inkscape:connector-curvature="0"
       d="m 4.5324409,7.6418998 0.6378812,0 0,-1.8241422 -0.6547664,0.1361017 0,-0.4952594 0.6510142,-0.1361017 0.6866603,0 0,2.3194016 0.6378811,0 0,0.5028207 -1.9586704,0 0,-0.5028207"
       id="path6501"
       style="fill:#f7931a;fill-opacity:1" />
    <path
       inkscape:connector-curvature="0"
       d="m 8.4902481,6.6252024 c 0.1767738,0.047372 0.3108187,0.1299682 0.4021353,0.2477871 0.092483,0.1166068 0.1387257,0.2654004 0.1387279,0.4463812 -2.2e-6,0.2696512 -0.099512,0.4749256 -0.2985284,0.6158239 C 8.5335622,8.0748786 8.243229,8.1447204 7.8615824,8.1447205 7.726951,8.1447204 7.5917354,8.1331813 7.455935,8.1101032 7.321304,8.0882396 7.1878444,8.0548369 7.0555557,8.0098951 l 0,-0.5411233 c 0.1264352,0.065591 0.2516999,0.1153916 0.3757945,0.149401 0.1252642,0.032795 0.2481875,0.049193 0.3687705,0.049193 0.1791158,5e-7 0.3160875,-0.032187 0.4109155,-0.096565 C 8.3070321,7.5064263 8.3550307,7.4141136 8.3550323,7.2938632 8.3550307,7.1699706 8.3058614,7.0764432 8.2075242,7.0132808 8.1103547,6.9489058 7.9663588,6.9167179 7.7755359,6.9167167 l -0.2704316,0 0,-0.451847 0.2844801,0 c 0.1697503,1.5e-6 0.2961856,-0.027328 0.3793065,-0.081989 0.083118,-0.055871 0.1246782,-0.1402894 0.1246796,-0.253253 -1.4e-6,-0.104457 -0.04039,-0.1852307 -0.1211674,-0.2423211 -0.08078,-0.057086 -0.1949226,-0.08563 -0.3424296,-0.085632 -0.108876,2.3e-6 -0.2189216,0.012756 -0.3301373,0.038261 -0.111217,0.02551 -0.2218481,0.063163 -0.3318934,0.1129618 l 0,-0.5137938 C 7.3014021,5.4002376 7.433691,5.3710856 7.56481,5.3516496 c 0.1311175,-0.019432 0.2598943,-0.029149 0.3863309,-0.029151 0.3406722,2.9e-6 0.595299,0.058305 0.7638815,0.1749087 0.1697494,0.1153935 0.254625,0.2896945 0.2546271,0.5229037 -2.1e-6,0.15912 -0.040391,0.2896941 -0.1211674,0.3917222 C 8.7677011,6.51285 8.6482907,6.5839067 8.4902481,6.625203"
       id="path6503"
       style="fill:#f7931a;fill-opacity:1" />
  </g>
  <path
     style="fill:#f9f9f9"
     inkscape:connector-curvature="0"
     d="M 35.47897,16 C 35.007612,15.324479 34.497055,14.663918 33.916469,14.083333 33.283916,13.45078 32.577624,12.877139 31.833137,12.375 c -0.744487,-0.502138 -1.537064,-0.917592 -2.375,-1.270834 -0.837938,-0.353241 -1.712095,-0.626638 -2.625,-0.812499 C 25.920231,10.105805 24.969193,10 23.999803,10 c -0.96939,0 -1.920428,0.105805 -2.833333,0.291667 -0.912906,0.185861 -1.787064,0.459258 -2.625,0.812499 -0.837937,0.353242 -1.630513,0.768696 -2.375,1.270834 -0.744487,0.502139 -1.45078,1.07578 -2.083334,1.708333 C 13.502552,14.663918 12.991995,15.324479 12.520637,16 l 22.958333,0 z"
     id="path6505" />
  <path
     style="fill:#f9f9f9"
     inkscape:connector-curvature="0"
     d="m 12.521029,32 c 0.471358,0.67552 0.981916,1.336082 1.5625,1.916667 0.632554,0.632554 1.338847,1.206193 2.083333,1.708332 0.744487,0.502139 1.537064,0.917592 2.375,1.270833 0.837936,0.353242 1.712095,0.626638 2.625,0.812499 C 22.079768,37.894195 23.030804,38 24.000196,38 c 0.96939,0 1.920428,-0.105805 2.833333,-0.291669 0.912906,-0.185858 1.787064,-0.459257 2.625,-0.812499 0.837937,-0.353241 1.630513,-0.768694 2.375001,-1.270833 0.744486,-0.502139 1.450778,-1.075778 2.083331,-1.708332 C 34.497447,33.336082 35.008004,32.67552 35.479363,32 l -22.958334,0 z"
     id="path6507" />
  <path
     sodipodi:type="arc"
     style="fill:none;stroke:#f9f9f9;stroke-width:11.63588238;stroke-miterlimit:4;stroke-opacity:1;stroke-dasharray:none"
     id="path7076"
     sodipodi:cx="430"
     sodipodi:cy="599.50507"
     sodipodi:rx="152.85715"
     sodipodi:ry="161.42857"
     d="m 582.85715,599.50507 a 152.85715,161.42857 0 1 1 -305.7143,0 152.85715,161.42857 0 1 1 305.7143,0 z"
     transform="matrix(0.08831775,0,0,0.08362832,-13.976632,-26.135601)" />
</svg>
