<?xml version="1.0" encoding="UTF-8" standalone="no"?>
<svg
   xmlns:dc="http://purl.org/dc/elements/1.1/"
   xmlns:cc="http://creativecommons.org/ns#"
   xmlns:rdf="http://www.w3.org/1999/02/22-rdf-syntax-ns#"
   xmlns:svg="http://www.w3.org/2000/svg"
   xmlns="http://www.w3.org/2000/svg"
   xmlns:xlink="http://www.w3.org/1999/xlink"
   xmlns:sodipodi="http://sodipodi.sourceforge.net/DTD/sodipodi-0.dtd"
   xmlns:inkscape="http://www.inkscape.org/namespaces/inkscape"
   width="48"
   height="48"
   viewBox="0 0 48 48"
   id="svg2"
   version="1.1"
   inkscape:version="0.48.4 r9939"
   sodipodi:docname="birdie.svg">
  <defs
     id="defs7" />
  <metadata
     id="metadata35">
    <rdf:RDF>
      <cc:Work
         rdf:about="">
        <dc:format>image/svg+xml</dc:format>
        <dc:type
           rdf:resource="http://purl.org/dc/dcmitype/StillImage" />
        <dc:title />
      </cc:Work>
    </rdf:RDF>
  </metadata>
  <sodipodi:namedview
     pagecolor="#ffffff"
     bordercolor="#666666"
     borderopacity="1"
     objecttolerance="10"
     gridtolerance="10"
     guidetolerance="10"
     inkscape:pageopacity="0"
     inkscape:pageshadow="2"
     inkscape:window-width="1024"
     inkscape:window-height="697"
     id="namedview33"
     showgrid="false"
     inkscape:zoom="6.9532168"
     inkscape:cx="13.735918"
     inkscape:cy="22.492023"
     inkscape:window-x="0"
     inkscape:window-y="24"
     inkscape:window-maximized="1"
     inkscape:current-layer="svg2"
     showguides="true"
     inkscape:guide-bbox="true" />
  <path
     fill="#808080"
     d="M 47.4375 11.546875 L 47.4375 36.453125 C 47.4375 46.703125 47.4375 47.4375 36.453125 47.4375 L 11.550781 47.4375 C 0.5625 47.4375 0.5625 46.703125 0.5625 36.453125 L 0.5625 11.546875 C 0.5625 1.296875 0.5625 0.5625 11.550781 0.5625 L 36.453125 0.5625 C 47.4375 0.5625 47.4375 1.296875 47.4375 11.546875 Z "
     id="path11"
     style="fill:#44a5ca;fill-opacity:1" />
  <path
     inkscape:connector-curvature="0"
     id="path15"
     d="m 38.265625,47.4375 c 2.542969,-0.01172 4.378906,-0.08203 5.710937,-0.441406 l -4.230468,-7.25 -4.484375,7.691406 1.191406,0 c 0.640625,0 1.242187,0 1.8125,0 z m 1.480469,-7.691406 -5.125,-8.789063 -5.128906,8.789063 z m 0,0 7.652344,0 c 0.03125,-0.972656 0.03906,-2.0625 0.03906,-3.296875 l 0,-1.097657 -2.5625,-4.394531 z m 5.128906,-8.789063 -5.128906,-8.789062 -5.125,8.789062 z m 0,0 2.5625,0 0,-4.394531 z m -10.253906,0 -5.128906,-8.789062 -5.125,8.789062 z m -10.253906,0 -5.128907,8.789063 10.253907,0 z m 0,0 -5.128907,-8.789062 -5.125,8.789062 z m -10.253907,0 -5.128906,8.789063 10.253906,0 z m 0,0 -5.128906,-8.789062 -5.125,8.789062 z m -10.253906,0 -3.296875,5.648438 c 0,1.167969 0.011719,2.210937 0.039062,3.140625 l 8.382813,0 z m 0,0 -3.296875,-5.648437 0,5.648437 z m 5.125,8.789063 -4.3125,7.394531 c 1.597656,0.292969 3.808594,0.296875 6.878906,0.296875 l 1.921875,0 z m 0,-17.578125 -5.125,-8.789063 -3.296875,5.648438 0,3.140625 z m 0,0 10.253906,0 -5.125,-8.789063 z m 5.128906,-8.789063 -5.128906,-8.789062 -5.125,8.789062 z m 0,0 10.253907,0 -5.128907,-8.789062 z m 5.125,-8.789062 -2.351562,-4.027344 -5.335938,0 c -0.07813,0 -0.140625,0 -0.214843,0 L 8.984375,4.589844 z m 0,0 10.253907,0 -2.351563,-4.027344 -5.550781,0 z m 10.253907,0 10.253906,0 L 37.394531,0.5625 c -0.3125,0 -0.609375,0 -0.941406,0 l -4.609375,0 z m 0,0 -5.125,8.789062 10.253906,0 z m 5.128906,8.789062 10.253906,0 -5.128906,-8.789062 z m 0,0 -5.128906,8.789063 10.253906,0 z m 5.125,8.789063 7.691406,0 0,-4.394531 -2.5625,-4.394532 z m 5.128906,-8.789063 2.5625,0 0,-1.832031 c 0,-0.914063 -0.0078,-1.75 -0.02344,-2.523437 z m -15.382812,8.789063 -5.125,-8.789063 -5.128907,8.789063 z m 10.253906,-17.578125 7.308594,0 C 46.5,1.832031 45.167969,0.960938 42.023438,0.6875 z m -30.761719,0 L 6.679688,0.636719 C 3.019531,0.84375 1.539062,1.632812 0.945312,4.589844 z m -5.125,8.789062 L 0.621094,7.824219 C 0.578125,8.898438 0.5625,10.132812 0.5625,11.546875 l 0,1.832031 z m 15.378906,26.367188 -4.484375,7.691406 8.972656,0 z m 10.253907,0 -4.484376,7.691406 8.972657,0 z M 2.59375,46.367188 0.992188,43.621094 c 0.292968,1.316406 0.785156,2.179687 1.601562,2.746094 z"
     style="fill:#ffffff;fill-opacity:0.09411765" />
  <path
     sodipodi:type="arc"
     style="fill:#f9f9f9;fill-opacity:1;stroke:none"
     id="path8575"
     sodipodi:cx="24.915255"
     sodipodi:cy="29.38983"
     sodipodi:rx="5.1864405"
     sodipodi:ry="5.1864405"
     d="m 30.101695,29.38983 a 5.1864405,5.1864405 0 1 1 -10.372881,0 5.1864405,5.1864405 0 1 1 10.372881,0 z"
     transform="matrix(2.6993465,0,0,2.6993465,-43.254905,-55.333334)" />
  <path
     id="path3223"
     d="m 20.478104,25.077628 c 0,0 0.09052,-1.286906 1.617965,-2.671654 1.527441,-1.384748 2.159859,-1.244865 2.426134,-1.209898 0.01784,1.578741 -0.105519,6.157832 -0.131071,7.803924 -1.257504,-0.654104 -2.534549,-3.227619 -3.913028,-3.922372 z"
     inkscape:connector-curvature="0"
     style="fill:#44a5ca;fill-opacity:1" />
  <path
     id="path3225"
     d="m 24.534686,21.174218 c 0.361808,0.0108 1.005456,0.194095 2.151031,1.232648 1.527441,1.38474 1.618474,2.670762 1.618474,2.670762 -1.278532,0.64188 -2.655548,3.268268 -3.913059,3.922372 -0.03404,-1.65787 -0.0353,-6.154537 -0.0353,-7.812681 0.05118,-0.0055 0.107734,-0.01526 0.178905,-0.01307 z"
     inkscape:connector-curvature="0"
     style="fill:#44a5ca;fill-opacity:1" />
  <path
     style="fill:#44a5ca;fill-opacity:1"
     inkscape:connector-curvature="0"
     d="m 20.224308,16.705686 a 3.5832967,2.6562263 73.921695 0 1 -4.971382,1.896561 3.5832967,2.6562263 73.921695 1 1 4.971382,-1.896561 z"
     id="0" />
  <path
     sodipodi:type="arc"
     style="fill:#f9f9f9;fill-opacity:1;stroke:none"
     id="path4292"
     sodipodi:cx="16.970562"
     sodipodi:cy="20.674519"
     sodipodi:rx="0.57527328"
     sodipodi:ry="1.0067283"
     d="m 17.545835,20.674519 a 0.57527328,1.0067283 0 1 1 -1.150546,0 0.57527328,1.0067283 0 1 1 1.150546,0 z"
     transform="matrix(1.3604121,0,0,0.77737828,-4.9566793,1.9715565)" />
  <use
     transform="matrix(0.84410754,-0.05190918,0.04970045,0.78317754,14.803564,4.7482497)"
     xlink:href="#0"
     id="use3209"
     x="0"
     y="0"
     width="1"
     height="1" />
  <path
     sodipodi:type="arc"
     style="fill:#f9f9f9;fill-opacity:1;stroke:none"
     id="path4312"
     sodipodi:cx="29.051302"
     sodipodi:cy="21.968884"
     sodipodi:rx="0.71909165"
     sodipodi:ry="1.0067283"
     d="m 29.770394,21.968884 a 0.71909165,1.0067283 0 1 1 -1.438184,0 0.71909165,1.0067283 0 1 1 1.438184,0 z"
     transform="matrix(0.81624718,0,0,0.58303371,6.9405394,4.4522698)" />
</svg>
