<svg xmlns="http://www.w3.org/2000/svg" xmlns:svg="http://www.w3.org/2000/svg" xmlns:xlink="http://www.w3.org/1999/xlink" id="svg2" width="48" height="48" version="1.1"><metadata id="metadata61"/><defs id="defs4"><linearGradient id="0" x2="0" y1="1050.36" y2="1006.36" gradientUnits="userSpaceOnUse" xlink:href="#1"/><linearGradient id="1"><stop id="stop8" stop-color="#44a5ca"/><stop id="stop10" offset="1" stop-color="#8ad7ea"/></linearGradient><clipPath id="2"><path id="path13" d="m 24,1034.3622 c -11.374437,0 -19,1 -23,3 0,14 0.033874,17.997 23,18 23.033874,0 23,-4.003 22.872159,-17.9801 C 42.564647,1035.6724 35.883616,1034.3622 24,1034.3622 z"/></clipPath><clipPath id="clipPath15"><rect id="rect17" width="60" height="45" x="-6.185" y="1045.36" fill="#88c9e0" rx="4"/></clipPath><clipPath id="clipPath19"><rect id="rect21" width="60" height="45" x="-6.185" y="1045.36" fill="#88c9e0" rx="4"/></clipPath><radialGradient id="radialGradient3012" cx="148.004" cy="160" r="128" gradientTransform="matrix(0.1831,0,0,0.1831,-3.10079,-5.2963804)" gradientUnits="userSpaceOnUse" xlink:href="#radial0"/><radialGradient id="radial0" cx="148.004" cy="160" r="128" gradientTransform="matrix(0.1831,0,0,0.1831,-3.10029,-5.29688)" gradientUnits="userSpaceOnUse"><stop id="stop7-9" offset="0" stop-color="#55edff" stop-opacity="1"/><stop id="stop9-3" offset="1" stop-color="#15bddc" stop-opacity="1"/></radialGradient><radialGradient id="radialGradient3009" cx="148.004" cy="160" r="128" gradientTransform="matrix(0.1831,0,0,0.1831,-3.10079,-5.2943796)" gradientUnits="userSpaceOnUse" xlink:href="#radial0"/><linearGradient id="linearGradient3068" x2="0" y1="1050.36" y2="1006.36" gradientTransform="translate(-48.813559,-1003.3453)" gradientUnits="userSpaceOnUse" xlink:href="#1"/></defs><path id="path11" fill="url(#radialGradient3009)" d="m 47.437,11.549375 0,24.90625 c 0,10.25 0,10.984375 -10.984375,10.984375 l -24.902344,0 C 0.562,47.44 0.562,46.705625 0.562,36.455625 l 0,-24.90625 c 0,-10.2499996 0,-10.9843746 10.988281,-10.9843746 l 24.902344,0 C 47.437,0.5650004 47.437,1.2993754 47.437,11.549375 z"/><path id="path15" fill="#fff" fill-opacity=".051" d="m 38.265125,47.44 c 2.542969,-0.01172 4.378906,-0.08203 5.710937,-0.441406 l -4.230468,-7.25 -4.484375,7.691406 1.191406,0 c 0.640625,0 1.242187,0 1.8125,0 z m 1.480469,-7.691406 -5.125,-8.789063 -5.128906,8.789063 z m 0,0 7.652344,0 c 0.03125,-0.972656 0.03906,-2.0625 0.03906,-3.296875 l 0,-1.097657 -2.5625,-4.394531 z m 5.128906,-8.789063 -5.128906,-8.789062 -5.125,8.789062 z m 0,0 2.5625,0 0,-4.394531 z m -10.253906,0 -5.128906,-8.789062 -5.125,8.789062 z m -10.253906,0 -5.128907,8.789063 10.253907,0 z m 0,0 -5.128907,-8.789062 -5.125,8.789062 z m -10.253907,0 -5.128906,8.789063 10.253906,0 z m 0,0 -5.128906,-8.789062 -5.125,8.789062 z m -10.253906,0 L 0.562,36.607969 c 0,1.167969 0.01172,2.210937 0.03906,3.140625 l 8.382813,0 z m 0,0 -3.296875,-5.648437 0,5.648437 z m 5.125,8.789063 -4.3125,7.394531 C 6.269031,47.436094 8.479969,47.44 11.550281,47.44 l 1.921875,0 z m 0,-17.578125 -5.125,-8.789063 -3.296875,5.648438 0,3.140625 z m 0,0 10.253906,0 -5.125,-8.789063 z m 5.128906,-8.789063 -5.128906,-8.7890619 -5.125,8.7890619 z m 0,0 10.253907,0 -5.128907,-8.7890619 z m 5.125,-8.7890619 -2.351562,-4.0273437 -5.335938,0 c -0.07813,0 -0.140625,0 -0.214843,0 L 8.983875,4.5923441 z m 0,0 10.253907,0 -2.351563,-4.0273437 -5.550781,0 z m 10.253907,0 10.253906,0 -2.351563,-4.0273437 c -0.3125,0 -0.609375,0 -0.941406,0 l -4.609375,0 z m 0,0 -5.125,8.7890619 10.253906,0 z m 5.128906,8.7890619 10.253906,0 -5.128906,-8.7890619 z m 0,0 -5.128906,8.789063 10.253906,0 z m 5.125,8.789063 7.691406,0 0,-4.394531 -2.5625,-4.394532 z m 5.128906,-8.789063 2.5625,0 0,-1.832031 c 0,-0.914063 -0.0078,-1.7500002 -0.02344,-2.5234372 z m -15.382812,8.789063 -5.125,-8.789063 -5.128907,8.789063 z m 10.253906,-17.5781249 7.308594,0 C 46.4995,1.8345314 45.167469,0.9634384 42.022938,0.6900004 z m -30.761719,0 L 6.679188,0.6392194 C 3.019031,0.8462504 1.538562,1.6353124 0.944812,4.5923441 z m -5.125,8.7890619 -3.238281,-5.5546872 c -0.04297,1.074219 -0.05859,2.3085942 -0.05859,3.7226562 l 0,1.832031 z M 19.237781,39.748594 14.753406,47.44 l 8.972656,0 z m 10.253907,0 -4.484376,7.691406 8.972657,0 z M 2.59325,46.369688 0.991688,43.623594 C 1.284656,44.94 1.776844,45.803281 2.59325,46.369688 z"/><path id="path41" fill="#f9f9f9" fill-opacity="1" d="m 24.67541,25.04037 c -0.462302,0.01442 -1.286202,0.272125 -2.75,1.65625 -1.951734,1.8456 -2.0625,3.5625 -2.0625,3.5625 0,0 0.36999,0.220643 0.96875,0.46875 0.178393,0.344734 0.558146,0.884238 1.5625,1.46875 1.427019,0.8301 2.124089,0.86475 2.46875,0.84375 0.04147,0.01 0.10282,0 0.15625,0 0.387748,-0.0075 1.08474,-0.12925 2.3125,-0.84375 1.004358,-0.584573 1.384107,-1.124036 1.5625,-1.46875 0.598967,-0.248048 0.96875,-0.46875 0.96875,-0.46875 0,0 -0.110772,-1.7169 -2.0625,-3.5625 -1.463798,-1.3841 -2.287704,-1.64225 -2.75,-1.65625 -0.06548,-0.0014 -0.105729,0.02473 -0.15625,0.03125 -0.01939,-0.0024 -0.0409,0.002 -0.0625,0 -0.05498,-0.0051 -0.08552,-0.03346 -0.15625,-0.03125 z" color="#000"/><path id="3" fill="#f9f9f9" fill-opacity="1" fill-rule="evenodd" d="m 14.80041,16.04037 c -0.248872,0.01246 -0.525529,0.05703 -0.78125,0.125 -2.045768,0.543721 -3.44581,2.734363 -3.125,4.875 0.32081,2.140638 2.266733,3.418722 4.3125,2.875 2.045767,-0.543721 3.445809,-2.734362 3.125,-4.875 -0.280709,-1.873057 -1.789149,-3.087199 -3.53125,-3 z m -0.21875,1.46875 c 0.280719,-0.01598 0.522405,0.06095 0.65625,0.25 0.26769,0.378097 0.02655,1.041876 -0.5625,1.46875 -0.589034,0.426874 -1.294809,0.440596 -1.5625,0.0625 -0.26769,-0.378097 0.0047,-1.010626 0.59375,-1.4375 0.294517,-0.213437 0.594281,-0.327767 0.875,-0.34375 z" color="#000"/><use id="use51" width="48" height="48" x="0" y="0" fill="#f9f9f9" fill-opacity="1" transform="matrix(-1,0,0,1,47.22582,0)" xlink:href="#3"/></svg>