<?xml version="1.0" encoding="UTF-8" standalone="no"?>
<svg
   xmlns:dc="http://purl.org/dc/elements/1.1/"
   xmlns:cc="http://creativecommons.org/ns#"
   xmlns:rdf="http://www.w3.org/1999/02/22-rdf-syntax-ns#"
   xmlns:svg="http://www.w3.org/2000/svg"
   xmlns="http://www.w3.org/2000/svg"
   xmlns:xlink="http://www.w3.org/1999/xlink"
   xmlns:sodipodi="http://sodipodi.sourceforge.net/DTD/sodipodi-0.dtd"
   xmlns:inkscape="http://www.inkscape.org/namespaces/inkscape"
   width="48"
   height="48"
   viewBox="0 0 48 48"
   id="svg2"
   version="1.1"
   inkscape:version="0.48.4 r9939"
   sodipodi:docname="bleachbit.svg">
  <defs
     id="defs7">
    <linearGradient
       gradientTransform="scale(3.543307,3.543307)"
       xlink:href="#linearGradient3863"
       id="linearGradient3869"
       y1="10.169"
       x1="7.823"
       y2="3.0280001"
       x2="7.7709999"
       gradientUnits="userSpaceOnUse" />
    <linearGradient
       id="linearGradient3863">
      <stop
         offset="0"
         style="stop-color:#f7853a"
         id="stop4655" />
      <stop
         offset="1"
         style="stop-color:#fdb273"
         id="stop4657" />
    </linearGradient>
  </defs>
  <metadata
     id="metadata35">
    <rdf:RDF>
      <cc:Work
         rdf:about="">
        <dc:format>image/svg+xml</dc:format>
        <dc:type
           rdf:resource="http://purl.org/dc/dcmitype/StillImage" />
        <dc:title></dc:title>
      </cc:Work>
    </rdf:RDF>
  </metadata>
  <sodipodi:namedview
     pagecolor="#ffffff"
     bordercolor="#666666"
     borderopacity="1"
     objecttolerance="10"
     gridtolerance="10"
     guidetolerance="10"
     inkscape:pageopacity="0"
     inkscape:pageshadow="2"
     inkscape:window-width="1024"
     inkscape:window-height="692"
     id="namedview33"
     showgrid="false"
     inkscape:zoom="6.9532167"
     inkscape:cx="14.31119"
     inkscape:cy="22.492023"
     inkscape:window-x="0"
     inkscape:window-y="24"
     inkscape:window-maximized="1"
     inkscape:current-layer="svg2" />
  <path
     fill="#808080"
     d="M 47.4375 11.546875 L 47.4375 36.453125 C 47.4375 46.703125 47.4375 47.4375 36.453125 47.4375 L 11.550781 47.4375 C 0.5625 47.4375 0.5625 46.703125 0.5625 36.453125 L 0.5625 11.546875 C 0.5625 1.296875 0.5625 0.5625 11.550781 0.5625 L 36.453125 0.5625 C 47.4375 0.5625 47.4375 1.296875 47.4375 11.546875 Z "
     id="path11"
     style="fill:#f7853a;fill-opacity:1" />
  <path
     inkscape:connector-curvature="0"
     id="path15"
     d="m 38.265625,47.4375 c 2.542969,-0.01172 4.378906,-0.08203 5.710937,-0.441406 l -4.230468,-7.25 -4.484375,7.691406 1.191406,0 c 0.640625,0 1.242187,0 1.8125,0 z m 1.480469,-7.691406 -5.125,-8.789063 -5.128906,8.789063 z m 0,0 7.652344,0 c 0.03125,-0.972656 0.03906,-2.0625 0.03906,-3.296875 l 0,-1.097657 -2.5625,-4.394531 z m 5.128906,-8.789063 -5.128906,-8.789062 -5.125,8.789062 z m 0,0 2.5625,0 0,-4.394531 z m -10.253906,0 -5.128906,-8.789062 -5.125,8.789062 z m -10.253906,0 -5.128907,8.789063 10.253907,0 z m 0,0 -5.128907,-8.789062 -5.125,8.789062 z m -10.253907,0 -5.128906,8.789063 10.253906,0 z m 0,0 -5.128906,-8.789062 -5.125,8.789062 z m -10.253906,0 -3.296875,5.648438 c 0,1.167969 0.011719,2.210937 0.039062,3.140625 l 8.382813,0 z m 0,0 -3.296875,-5.648437 0,5.648437 z m 5.125,8.789063 -4.3125,7.394531 c 1.597656,0.292969 3.808594,0.296875 6.878906,0.296875 l 1.921875,0 z m 0,-17.578125 -5.125,-8.789063 -3.296875,5.648438 0,3.140625 z m 0,0 10.253906,0 -5.125,-8.789063 z m 5.128906,-8.789063 -5.128906,-8.789062 -5.125,8.789062 z m 0,0 10.253907,0 -5.128907,-8.789062 z m 5.125,-8.789062 -2.351562,-4.027344 -5.335938,0 c -0.07813,0 -0.140625,0 -0.214843,0 L 8.984375,4.589844 z m 0,0 10.253907,0 -2.351563,-4.027344 -5.550781,0 z m 10.253907,0 10.253906,0 L 37.394531,0.5625 c -0.3125,0 -0.609375,0 -0.941406,0 l -4.609375,0 z m 0,0 -5.125,8.789062 10.253906,0 z m 5.128906,8.789062 10.253906,0 -5.128906,-8.789062 z m 0,0 -5.128906,8.789063 10.253906,0 z m 5.125,8.789063 7.691406,0 0,-4.394531 -2.5625,-4.394532 z m 5.128906,-8.789063 2.5625,0 0,-1.832031 c 0,-0.914063 -0.0078,-1.75 -0.02344,-2.523437 z m -15.382812,8.789063 -5.125,-8.789063 -5.128907,8.789063 z m 10.253906,-17.578125 7.308594,0 C 46.5,1.832031 45.167969,0.960938 42.023438,0.6875 z m -30.761719,0 L 6.679688,0.636719 C 3.019531,0.84375 1.539062,1.632812 0.945312,4.589844 z m -5.125,8.789062 L 0.621094,7.824219 C 0.578125,8.898438 0.5625,10.132812 0.5625,11.546875 l 0,1.832031 z m 15.378906,26.367188 -4.484375,7.691406 8.972656,0 z m 10.253907,0 -4.484376,7.691406 8.972657,0 z M 2.59375,46.367188 0.992188,43.621094 c 0.292968,1.316406 0.785156,2.179687 1.601562,2.746094 z"
     style="fill:#ffffff;fill-opacity:0.09411765" />
  <path
     inkscape:connector-curvature="0"
     style="fill:#f7853a;fill-opacity:1;opacity:1"
     d="m 35.64088,26.906293 a 8.0000485,7.9999922 0 0 1 -16.000097,0 8.0000485,7.9999922 0 1 1 16.000097,0 z"
     id="path4665" />
  <path
     inkscape:connector-curvature="0"
     style="line-height:normal;color:#000000;fill:#f9f9f9;fill-rule:evenodd;fill-opacity:1;opacity:1"
     d="m 24.681756,12 c -0.428865,0 -0.86531,0.160023 -1.22657,0.445614 -0.362923,0.285757 -0.598933,0.666488 -0.629009,1.114157 -0.03008,0.447588 0.137558,0.898875 0.471757,1.209547 l 0,0.03125 c 0.783828,0.697732 1.599745,1.417342 2.390237,2.132676 l -8.869038,0 c -0.630419,0 -1.164488,0.148429 -1.572524,0.477437 -0.408037,0.32901 -0.668143,0.820837 -0.754812,1.368747 -0.169653,1.07263 0.57646,2.291798 1.792678,2.291798 l 3.86841,0 -8.082776,6.748099 c 8.13e-4,0 -0.0072,-0.01726 -0.03147,0 -0.493961,0.427193 -0.842611,1.018933 -0.974952,1.623253 -0.13234,0.604321 -0.06793,1.243426 0.283055,1.750714 0.713656,1.030856 2.146502,1.00446 3.145049,0.0958 l 4.245815,-3.915135 c 0.0068,0.456962 0.113304,1.1695 0.283054,1.782537 0.348548,1.252965 0.942911,2.419833 1.761228,3.437697 0.839042,1.043932 1.862654,1.889109 3.050697,2.48274 1.249952,0.623562 2.593818,0.9256 3.994212,0.923053 1.400323,0 2.745001,-0.32687 3.994212,-0.954959 1.186889,-0.599058 2.243662,-1.436012 3.082148,-2.48274 0.816162,-1.021564 1.38137,-2.184403 1.729776,-3.437697 0.176457,-0.634499 0.300153,-1.29482 0.345968,-1.941573 0.04404,-0.636144 0.01736,-1.274262 -0.06289,-1.909831 -0.15586,-1.24063 -0.516983,-2.410623 -1.100789,-3.469603 -0.457563,-0.83054 -1.065522,-1.553357 -1.72978,-2.196244 l 0.03146,-0.03125 -0.345957,-0.286413 -7.862622,-6.811746 c 5.16e-4,4.11e-4 -0.02916,-0.02877 -0.03146,-0.03125 -0.0044,0 -0.02697,0 -0.03147,0 -0.34123,-0.288872 -0.74036,-0.446429 -1.163648,-0.445607 z m 3.050697,7.161889 c 4.064492,0 7.359414,3.334743 7.359414,7.448385 0,4.113641 -3.294922,7.448302 -7.359414,7.448302 -4.064492,0 -7.359415,-3.334661 -7.359415,-7.448302 0,-4.113642 3.294923,-7.448385 7.359415,-7.448385 z"
     id="path4667" />
  <path
     inkscape:connector-curvature="0"
     style="fill:#f9f9f9;fill-opacity:1;opacity:1"
     d="m 31.650005,26.60167 c 0,2.235831 -1.79086,4.048331 -3.999999,4.048331 -2.20914,0 -4.000001,-1.8125 -4.000001,-4.048331 0,-2.235832 1.790861,-4.048332 4.000001,-4.048332 2.209139,0 3.999999,1.8125 3.999999,4.048332 z"
     id="path4669" />
</svg>
