<?xml version="1.0" encoding="UTF-8" standalone="no"?>
<svg
   xmlns:dc="http://purl.org/dc/elements/1.1/"
   xmlns:cc="http://creativecommons.org/ns#"
   xmlns:rdf="http://www.w3.org/1999/02/22-rdf-syntax-ns#"
   xmlns:svg="http://www.w3.org/2000/svg"
   xmlns="http://www.w3.org/2000/svg"
   xmlns:xlink="http://www.w3.org/1999/xlink"
   xmlns:sodipodi="http://sodipodi.sourceforge.net/DTD/sodipodi-0.dtd"
   xmlns:inkscape="http://www.inkscape.org/namespaces/inkscape"
   width="48"
   height="48"
   viewBox="0 0 48 48"
   id="svg2"
   version="1.1"
   inkscape:version="0.48.4 r9939"
   sodipodi:docname="bluefish.svg">
  <defs
     id="defs7">
    <linearGradient
       gradientTransform="scale(3.543307,3.543307)"
       xlink:href="#linearGradient3863"
       id="linearGradient3869"
       y1="10.169"
       x1="7.823"
       y2="3.0280001"
       x2="7.7709999"
       gradientUnits="userSpaceOnUse" />
    <linearGradient
       id="linearGradient3863">
      <stop
         offset="0"
         style="stop-color:#f7853a"
         id="stop4655" />
      <stop
         offset="1"
         style="stop-color:#fdb273"
         id="stop4657" />
    </linearGradient>
  </defs>
  <metadata
     id="metadata35">
    <rdf:RDF>
      <cc:Work
         rdf:about="">
        <dc:format>image/svg+xml</dc:format>
        <dc:type
           rdf:resource="http://purl.org/dc/dcmitype/StillImage" />
        <dc:title></dc:title>
      </cc:Work>
    </rdf:RDF>
  </metadata>
  <sodipodi:namedview
     pagecolor="#ffffff"
     bordercolor="#666666"
     borderopacity="1"
     objecttolerance="10"
     gridtolerance="10"
     guidetolerance="10"
     inkscape:pageopacity="0"
     inkscape:pageshadow="2"
     inkscape:window-width="1024"
     inkscape:window-height="692"
     id="namedview33"
     showgrid="false"
     inkscape:zoom="4.9166667"
     inkscape:cx="14.31119"
     inkscape:cy="22.492023"
     inkscape:window-x="0"
     inkscape:window-y="24"
     inkscape:window-maximized="1"
     inkscape:current-layer="svg2" />
  <path
     fill="#808080"
     d="M 47.4375 11.546875 L 47.4375 36.453125 C 47.4375 46.703125 47.4375 47.4375 36.453125 47.4375 L 11.550781 47.4375 C 0.5625 47.4375 0.5625 46.703125 0.5625 36.453125 L 0.5625 11.546875 C 0.5625 1.296875 0.5625 0.5625 11.550781 0.5625 L 36.453125 0.5625 C 47.4375 0.5625 47.4375 1.296875 47.4375 11.546875 Z "
     id="path11"
     style="fill:#2e69b0;fill-opacity:1" />
  <path
     inkscape:connector-curvature="0"
     id="path15"
     d="m 38.265625,47.4375 c 2.542969,-0.01172 4.378906,-0.08203 5.710937,-0.441406 l -4.230468,-7.25 -4.484375,7.691406 1.191406,0 c 0.640625,0 1.242187,0 1.8125,0 z m 1.480469,-7.691406 -5.125,-8.789063 -5.128906,8.789063 z m 0,0 7.652344,0 c 0.03125,-0.972656 0.03906,-2.0625 0.03906,-3.296875 l 0,-1.097657 -2.5625,-4.394531 z m 5.128906,-8.789063 -5.128906,-8.789062 -5.125,8.789062 z m 0,0 2.5625,0 0,-4.394531 z m -10.253906,0 -5.128906,-8.789062 -5.125,8.789062 z m -10.253906,0 -5.128907,8.789063 10.253907,0 z m 0,0 -5.128907,-8.789062 -5.125,8.789062 z m -10.253907,0 -5.128906,8.789063 10.253906,0 z m 0,0 -5.128906,-8.789062 -5.125,8.789062 z m -10.253906,0 -3.296875,5.648438 c 0,1.167969 0.011719,2.210937 0.039062,3.140625 l 8.382813,0 z m 0,0 -3.296875,-5.648437 0,5.648437 z m 5.125,8.789063 -4.3125,7.394531 c 1.597656,0.292969 3.808594,0.296875 6.878906,0.296875 l 1.921875,0 z m 0,-17.578125 -5.125,-8.789063 -3.296875,5.648438 0,3.140625 z m 0,0 10.253906,0 -5.125,-8.789063 z m 5.128906,-8.789063 -5.128906,-8.789062 -5.125,8.789062 z m 0,0 10.253907,0 -5.128907,-8.789062 z m 5.125,-8.789062 -2.351562,-4.027344 -5.335938,0 c -0.07813,0 -0.140625,0 -0.214843,0 L 8.984375,4.589844 z m 0,0 10.253907,0 -2.351563,-4.027344 -5.550781,0 z m 10.253907,0 10.253906,0 L 37.394531,0.5625 c -0.3125,0 -0.609375,0 -0.941406,0 l -4.609375,0 z m 0,0 -5.125,8.789062 10.253906,0 z m 5.128906,8.789062 10.253906,0 -5.128906,-8.789062 z m 0,0 -5.128906,8.789063 10.253906,0 z m 5.125,8.789063 7.691406,0 0,-4.394531 -2.5625,-4.394532 z m 5.128906,-8.789063 2.5625,0 0,-1.832031 c 0,-0.914063 -0.0078,-1.75 -0.02344,-2.523437 z m -15.382812,8.789063 -5.125,-8.789063 -5.128907,8.789063 z m 10.253906,-17.578125 7.308594,0 C 46.5,1.832031 45.167969,0.960938 42.023438,0.6875 z m -30.761719,0 L 6.679688,0.636719 C 3.019531,0.84375 1.539062,1.632812 0.945312,4.589844 z m -5.125,8.789062 L 0.621094,7.824219 C 0.578125,8.898438 0.5625,10.132812 0.5625,11.546875 l 0,1.832031 z m 15.378906,26.367188 -4.484375,7.691406 8.972656,0 z m 10.253907,0 -4.484376,7.691406 8.972657,0 z M 2.59375,46.367188 0.992188,43.621094 c 0.292968,1.316406 0.785156,2.179687 1.601562,2.746094 z"
     style="fill:#ffffff;fill-opacity:0.07058824" />
  <path
     inkscape:connector-curvature="0"
     style="fill:#f9f9f9;fill-opacity:1"
     d="m 36.64143,12.499999 c 0,0 -6.752068,1.178127 -5.062657,7.698719 0.145786,0.562691 0.387106,7.750824 0.387106,7.750824 0.617248,1.499426 2.491731,2.526855 5.034123,2.138298 -1.015785,-1.502209 -3.642406,-3.909075 -1.750833,-8.518591 1.367724,-2.393756 -0.800526,-7.501487 1.392261,-9.06925 z"
     id="path18" />
  <path
     inkscape:connector-curvature="0"
     style="fill:#2e69b0;fill-opacity:1"
     d="m 13.867299,30.941949 2.203344,-0.205367 3.791799,-0.188251 -0.153719,-1.249315 5.141135,-2.173467 0.11956,1.437568 -3.245234,3.919086 c 0,0 -1.041892,-0.701671 -1.229774,-0.701671 -0.187884,0 -6.029304,0.136914 -6.029304,0.136914 z"
     id="path20" />
  <path
     inkscape:connector-curvature="0"
     style="fill:#2e69b0;fill-opacity:1"
     d="m 12.426232,20.298308 1.268785,2.689213 0.734513,-0.748982 3.012657,-6.363745 -3.375577,0.0124 -1.719658,1.981538 z"
     id="path22" />
  <path
     inkscape:connector-curvature="0"
     style="fill:#f9f9f9;fill-opacity:1"
     d="m 15.411186,18.807991 a 0.765542,0.76705862 0 0 1 -1.531084,0 0.765542,0.76705862 0 1 1 1.531084,0 z"
     id="path24" />
  <path
     inkscape:connector-curvature="0"
     style="fill:#2e69b0;fill-opacity:1"
     d="m 24.215581,14.995131 c 0,0 -3.248504,1.697008 -3.387329,2.114306 -0.138827,0.417297 -0.44424,8.345945 -0.44424,8.345945 l 4.581223,1.975208 4.803344,-1.780468 -0.360946,-4.70155 -2.637674,-4.757189 z"
     id="path26" />
  <g
     transform="scale(3.543307,3.543307)"
     style="fill:#f9f9f9;fill-opacity:1"
     id="g28">
    <path
       inkscape:connector-curvature="0"
       d="M 5.9666887,6.6542866 C 6.0381564,8.2499329 8.5994505,7.8374724 8.2506874,6.237903 7.9054253,6.7835473 7.200328,7.6829702 5.9666887,6.6542866 z"
       id="path30"
       style="fill:#f9f9f9;fill-opacity:1" />
    <path
       inkscape:connector-curvature="0"
       d="M 5.8997361,5.3386217 C 6.3821629,4.9711511 7.4530602,4.9413609 8.1125287,5.6076843 7.6852811,3.9221631 6.1606991,3.880979 5.8997361,5.3386217 z"
       id="path32"
       style="fill:#f9f9f9;fill-opacity:1" />
  </g>
  <path
     inkscape:connector-curvature="0"
     style="fill:#f9f9f9;fill-opacity:1"
     d="m 26.457729,20.934825 a 1.148313,1.1505543 0 0 1 -2.296626,0 1.148313,1.1505543 0 1 1 2.296626,0 z"
     id="path34" />
  <path
     inkscape:connector-curvature="0"
     style="fill:#f9f9f9;fill-opacity:1"
     d="m 17.65695,16.293715 1.595865,-1.186146 c -7.343016,-2.691624 -11.1077693,4.647127 -5.682246,8.520886 l 0.314337,-0.968282 c -2.927324,-4.7996 -0.214514,-6.895341 3.772044,-6.366458 z"
     id="path36" />
  <path
     inkscape:connector-curvature="0"
     style="fill:#f9f9f9;fill-opacity:1"
     d="m 31.747618,18.791921 c -2.170639,-2.984141 -6.278037,-4.326853 -9.530668,-4.326853 -8.178387,0.466827 -8.833496,8.727301 -8.994274,10.267467 0,1.417197 0.262538,2.799849 0.717628,4.028384 -0.657845,0.335789 -1.31167,1.139259 -0.167453,1.940502 -0.08228,0.03598 -0.14749,0.06662 -0.191396,0.122818 -0.571196,0.733158 0.720611,1.304096 1.291727,1.743994 0.307959,0.237142 1.176869,0.615497 2.368168,0.7369 C 18.666653,34.388827 20.37587,35 22.216895,35 c 3.662388,0 8.259468,-4.27348 10.232924,-7.723622 1.808943,-2.749488 1.496298,-6.088969 -0.702201,-8.484457 z m -7.353863,-3.467137 c 2.776861,-0.224537 8.645029,9.360602 1.332733,11.635367 -5.42128,1.258152 -7.10003,-10.338457 -1.332733,-11.635367 z m 0.04784,12.207969 c 0.0387,0.01382 0.08803,0.0464 0.119605,0.09825 0.252372,0.414739 -0.16239,1.24211 -1.172124,2.382642 -1.00973,1.140524 -1.81799,1.793121 -1.81799,1.793121 0,0 1.267695,-1.318275 0.813312,-1.473798 -0.454384,-0.155525 -1.109584,0.955776 -3.803422,1.129912 -1.682576,0.108755 -4.425365,-0.442139 -4.425365,-0.442139 0,0 2.631257,0.387471 4.521049,0.09825 2.070821,-0.316963 4.292173,-1.550201 3.181479,-1.498363 -1.110698,0.05188 -1.746227,0.02456 -1.746227,0.02456 0,0 1.518003,-0.41227 2.67914,-0.982532 0.870874,-0.427701 1.270602,-1.005713 1.530939,-1.105349 0.0434,-0.01665 0.0809,-0.03844 0.119605,-0.02456 z"
     id="path38" />
</svg>
