<svg xmlns="http://www.w3.org/2000/svg" xmlns:svg="http://www.w3.org/2000/svg" xmlns:xlink="http://www.w3.org/1999/xlink" id="svg2" width="48" height="48" version="1.1"><metadata id="metadata44"/><defs id="defs4"><linearGradient id="0" x2="0" y1="1050.36" y2="1006.36" gradientUnits="userSpaceOnUse" xlink:href="#1"/><linearGradient id="1"><stop id="stop8" stop-color="#1c637c"/><stop id="stop10" offset="1" stop-color="#7fb1c2"/></linearGradient><radialGradient id="radialGradient3036" cx="148.004" cy="160" r="128" gradientTransform="matrix(0.1831,0,0,0.1831,-3.100791,-5.2963979)" gradientUnits="userSpaceOnUse" xlink:href="#radial0"/><radialGradient id="radial0" cx="148.004" cy="160" r="128" gradientTransform="matrix(0.1831,0,0,0.1831,-3.10029,-5.29688)" gradientUnits="userSpaceOnUse"><stop id="stop7" offset="0" stop-color="#7f9fd0" stop-opacity="1"/><stop id="stop9" offset="1" stop-color="#2d4c7b" stop-opacity="1"/></radialGradient><radialGradient id="radialGradient3016" cx="148.004" cy="160" r="128" gradientTransform="matrix(0.1831,0,0,0.1831,-3.100791,-5.296398)" gradientUnits="userSpaceOnUse" xlink:href="#radial0"/><linearGradient id="linearGradient3047" x2="0" y1="1050.36" y2="1006.36" gradientTransform="translate(0,-1004.3622)" gradientUnits="userSpaceOnUse" xlink:href="#1"/></defs><path id="path11" fill="url(#radialGradient3016)" d="m 47.437,11.547357 0,24.90625 c 0,10.25 0,10.984375 -10.984375,10.984375 l -24.902344,0 C 0.562,47.437982 0.562,46.703607 0.562,36.453607 l 0,-24.90625 c 0,-10.25 0,-10.984375 10.988281,-10.984375 l 24.902344,0 C 47.437,0.562982 47.437,1.297357 47.437,11.547357 z"/><path id="path15" fill="#fff" fill-opacity=".051" d="m 38.265125,47.437982 c 2.542968,-0.01169 4.378908,-0.08203 5.710936,-0.441407 l -4.230467,-7.249999 -4.484375,7.691406 1.191406,0 c 0.640626,0 1.242187,0 1.8125,0 z m 1.480469,-7.691406 -5.124999,-8.789063 -5.128908,8.789063 z m 0,0 7.652345,0 c 0.03118,-0.972656 0.03905,-2.062499 0.03905,-3.296874 l 0,-1.097658 -2.562498,-4.394531 z m 5.128908,-8.789063 -5.128908,-8.789062 -5.124999,8.789062 z m 0,0 2.562498,0 0,-4.394531 z m -10.253907,0 -5.128908,-8.789062 -5.124999,8.789062 z m -10.253907,0 -5.128907,8.789063 10.253906,0 z m 0,0 -5.128907,-8.789062 -5.125,8.789062 z m -10.253907,0 -5.128907,8.789063 10.253907,0 z m 0,0 -5.128907,-8.789062 -5.124999,8.789062 z m -10.253906,0 L 0.562,36.605951 c 0,1.16797 0.01173,2.210939 0.03906,3.140625 l 8.382813,0 z m 0,0 -3.296875,-5.648437 0,5.648437 z m 5.124999,8.789063 -4.312499,7.39453 C 6.269031,47.434067 8.479969,47.438 11.550281,47.438 l 1.921875,0 z m 0,-17.578125 -5.124999,-8.789063 -3.296875,5.648438 0,3.140625 z m 0,0 10.253907,0 -5.125,-8.789063 z M 14.112781,13.379388 8.983874,4.5903263 3.858875,13.379388 z m 0,0 10.253907,0 -5.128907,-8.7890617 z m 5.125,-8.7890617 -2.351562,-4.0273443 -5.335938,0 c -0.07813,0 -0.140627,0 -0.214845,0 L 8.983874,4.5903263 z m 0,0 10.253906,0 -2.351562,-4.0273443 -5.550781,0 z m 10.253906,0 10.253907,0 -2.351562,-4.0273443 c -0.31252,0 -0.609375,0 -0.941407,0 l -4.609376,0 z m 0,0 -5.124999,8.7890617 10.253907,0 z m 5.128908,8.7890617 10.253907,0 -5.128908,-8.7890617 z m 0,0 -5.128908,8.789063 10.253907,0 z m 5.124999,8.789063 7.691406,0 0,-4.394531 -2.562498,-4.394532 z m 5.128908,-8.789063 2.562498,0 0,-1.832031 c 0,-0.914063 -0.0078,-1.7499999 -0.02338,-2.5234369 z m -15.382815,8.789063 -5.124999,-8.789063 -5.128907,8.789063 z m 10.253907,-17.5781247 7.308595,0 C 46.499502,1.832513 45.16747,0.96142 42.022937,0.687982 z m -30.76172,0 L 6.679187,0.637201 C 3.019031,0.844232 1.538562,1.633294 0.944812,4.5903263 z M 3.858875,13.379388 0.620593,7.8247011 c -0.04297,1.074219 -0.05859,2.3085929 -0.05859,3.7226559 l 0,1.832031 z m 15.378906,26.367188 -4.484375,7.691406 8.972656,0 z m 10.253906,0 -4.484375,7.691406 8.972657,0 z M 2.59325,46.36767 0.991688,43.621575 c 0.292967,1.316406 0.785156,2.17969 1.601562,2.746095 z"/><g id="g30" fill="#f9f9f9" transform="matrix(0.12999997,0,0,0.1267606,7.3600007,7.7747)"><g id="g32" transform="matrix(3.31816,0,0,3.32488,48.36418,-3291.1817)"><path id="path34" fill-rule="evenodd" d="m 22.778993,1015.4307 0,10.3091 -5.631311,-4.3104 -1.908242,1.5287 7.00578,5.4041 -7.112535,5.404 2.228506,1.6882 5.417802,-4.3849 0,10.2242 10.088322,-7.5275 -6.685515,-5.319 6.472005,-5.2449 -9.874812,-7.7716 z m 2.762279,4.99 3.296052,2.8666 -3.296052,2.5374 0,-5.404 z m -0.106756,10.7338 3.509562,2.5268 -3.296051,2.2827 -0.213511,-4.8095 z"/></g><g id="g36" color="#000" transform="matrix(3.31816,0,0,3.32488,48.36418,-3291.1817)"><path id="path38" d="m 12.319654,1016.6819 c -6.4439638,6.4439 -6.4633557,16.9254 -0.02812,23.3606 l 3.064155,-3.0641 c -4.779678,-4.7797 -4.758114,-12.4461 0.02812,-17.2324 l -3.064156,-3.0641 z m 20.296517,3.036 c 4.779677,4.7797 4.814338,12.5023 0.02812,17.2887 l 3.064154,3.064 c 6.443963,-6.4438 6.407133,-16.9816 -0.02812,-23.4168 l -3.064155,3.0641 z"/><path id="path40" d="m 2.6970349,1007.0593 c -11.7526947,11.7526 -11.7880623,30.8691 -0.05129,42.6058 l 5.588498,-5.5884 c -8.71732044,-8.7173 -8.67799134,-22.6996 0.05129,-31.429 l -5.5885,-5.5884 z m 37.0173981,5.5372 c 8.717318,8.7174 8.780534,22.8021 0.05129,31.5316 l 5.588492,5.5883 c 11.752693,-11.7524 11.685522,-30.9716 -0.05129,-42.7083 l -5.588498,5.5884 z"/></g></g></svg>