<?xml version="1.0" encoding="UTF-8" standalone="no"?>
<svg
   xmlns:dc="http://purl.org/dc/elements/1.1/"
   xmlns:cc="http://creativecommons.org/ns#"
   xmlns:rdf="http://www.w3.org/1999/02/22-rdf-syntax-ns#"
   xmlns:svg="http://www.w3.org/2000/svg"
   xmlns="http://www.w3.org/2000/svg"
   xmlns:xlink="http://www.w3.org/1999/xlink"
   xmlns:sodipodi="http://sodipodi.sourceforge.net/DTD/sodipodi-0.dtd"
   xmlns:inkscape="http://www.inkscape.org/namespaces/inkscape"
   width="48"
   height="48"
   viewBox="0 0 48 48"
   id="svg2"
   version="1.1"
   inkscape:version="0.48.4 r9939"
   sodipodi:docname="blogger.svg">
  <defs
     id="defs7">
    <linearGradient
       gradientTransform="scale(3.543307,3.543307)"
       xlink:href="#linearGradient3863"
       id="linearGradient3869"
       y1="10.169"
       x1="7.823"
       y2="3.0280001"
       x2="7.7709999"
       gradientUnits="userSpaceOnUse" />
    <linearGradient
       id="linearGradient3863">
      <stop
         offset="0"
         style="stop-color:#f7853a"
         id="stop4655" />
      <stop
         offset="1"
         style="stop-color:#fdb273"
         id="stop4657" />
    </linearGradient>
  </defs>
  <metadata
     id="metadata35">
    <rdf:RDF>
      <cc:Work
         rdf:about="">
        <dc:format>image/svg+xml</dc:format>
        <dc:type
           rdf:resource="http://purl.org/dc/dcmitype/StillImage" />
        <dc:title></dc:title>
      </cc:Work>
    </rdf:RDF>
  </metadata>
  <sodipodi:namedview
     pagecolor="#ffffff"
     bordercolor="#666666"
     borderopacity="1"
     objecttolerance="10"
     gridtolerance="10"
     guidetolerance="10"
     inkscape:pageopacity="0"
     inkscape:pageshadow="2"
     inkscape:window-width="1024"
     inkscape:window-height="692"
     id="namedview33"
     showgrid="false"
     inkscape:zoom="6.9532167"
     inkscape:cx="14.31119"
     inkscape:cy="22.492023"
     inkscape:window-x="0"
     inkscape:window-y="24"
     inkscape:window-maximized="1"
     inkscape:current-layer="svg2" />
  <path
     fill="#808080"
     d="M 47.4375 11.546875 L 47.4375 36.453125 C 47.4375 46.703125 47.4375 47.4375 36.453125 47.4375 L 11.550781 47.4375 C 0.5625 47.4375 0.5625 46.703125 0.5625 36.453125 L 0.5625 11.546875 C 0.5625 1.296875 0.5625 0.5625 11.550781 0.5625 L 36.453125 0.5625 C 47.4375 0.5625 47.4375 1.296875 47.4375 11.546875 Z "
     id="path11"
     style="fill:#292929;fill-opacity:1" />
  <path
     inkscape:connector-curvature="0"
     id="path15"
     d="m 38.265625,47.4375 c 2.542969,-0.01172 4.378906,-0.08203 5.710937,-0.441406 l -4.230468,-7.25 -4.484375,7.691406 1.191406,0 c 0.640625,0 1.242187,0 1.8125,0 z m 1.480469,-7.691406 -5.125,-8.789063 -5.128906,8.789063 z m 0,0 7.652344,0 c 0.03125,-0.972656 0.03906,-2.0625 0.03906,-3.296875 l 0,-1.097657 -2.5625,-4.394531 z m 5.128906,-8.789063 -5.128906,-8.789062 -5.125,8.789062 z m 0,0 2.5625,0 0,-4.394531 z m -10.253906,0 -5.128906,-8.789062 -5.125,8.789062 z m -10.253906,0 -5.128907,8.789063 10.253907,0 z m 0,0 -5.128907,-8.789062 -5.125,8.789062 z m -10.253907,0 -5.128906,8.789063 10.253906,0 z m 0,0 -5.128906,-8.789062 -5.125,8.789062 z m -10.253906,0 -3.296875,5.648438 c 0,1.167969 0.011719,2.210937 0.039062,3.140625 l 8.382813,0 z m 0,0 -3.296875,-5.648437 0,5.648437 z m 5.125,8.789063 -4.3125,7.394531 c 1.597656,0.292969 3.808594,0.296875 6.878906,0.296875 l 1.921875,0 z m 0,-17.578125 -5.125,-8.789063 -3.296875,5.648438 0,3.140625 z m 0,0 10.253906,0 -5.125,-8.789063 z m 5.128906,-8.789063 -5.128906,-8.789062 -5.125,8.789062 z m 0,0 10.253907,0 -5.128907,-8.789062 z m 5.125,-8.789062 -2.351562,-4.027344 -5.335938,0 c -0.07813,0 -0.140625,0 -0.214843,0 L 8.984375,4.589844 z m 0,0 10.253907,0 -2.351563,-4.027344 -5.550781,0 z m 10.253907,0 10.253906,0 L 37.394531,0.5625 c -0.3125,0 -0.609375,0 -0.941406,0 l -4.609375,0 z m 0,0 -5.125,8.789062 10.253906,0 z m 5.128906,8.789062 10.253906,0 -5.128906,-8.789062 z m 0,0 -5.128906,8.789063 10.253906,0 z m 5.125,8.789063 7.691406,0 0,-4.394531 -2.5625,-4.394532 z m 5.128906,-8.789063 2.5625,0 0,-1.832031 c 0,-0.914063 -0.0078,-1.75 -0.02344,-2.523437 z m -15.382812,8.789063 -5.125,-8.789063 -5.128907,8.789063 z m 10.253906,-17.578125 7.308594,0 C 46.5,1.832031 45.167969,0.960938 42.023438,0.6875 z m -30.761719,0 L 6.679688,0.636719 C 3.019531,0.84375 1.539062,1.632812 0.945312,4.589844 z m -5.125,8.789062 L 0.621094,7.824219 C 0.578125,8.898438 0.5625,10.132812 0.5625,11.546875 l 0,1.832031 z m 15.378906,26.367188 -4.484375,7.691406 8.972656,0 z m 10.253907,0 -4.484376,7.691406 8.972657,0 z M 2.59375,46.367188 0.992188,43.621094 c 0.292968,1.316406 0.785156,2.179687 1.601562,2.746094 z"
     style="fill:#ffffff;fill-opacity:0.02745098" />
  <path
     style="fill:#f9f9f9;fill-opacity:1"
     inkscape:connector-curvature="0"
     d="m 11,24.999996 0,-1.999999 5,-3 0,0.999999 -4.5,3.000001 4.5,3 0,0.999999 z"
     id="path6078" />
  <path
     style="fill:#f9f9f9;fill-opacity:1"
     inkscape:connector-curvature="0"
     d="m 17,24.000955 a 1.0000003,1 0 1 1 -3.7e-5,-0.0096"
     id="path6080" />
  <g
     style="fill:#f9f9f9;fill-opacity:1"
     transform="matrix(0.43324015,0,0,0.75539762,11.313531,-747.00977)"
     id="g6082">
    <path
       inkscape:connector-curvature="0"
       d="m 47.748273,1021.9913 0,-2.6477 11.540943,-3.9714 0,1.3238 -9.232754,3.9714 9.232754,3.9715 0,1.3238 z m -2.308189,3.9714 0,-1.3238 9.232755,-3.9715 -9.232755,-3.9714 0,-1.3238 11.540944,3.9714 0,2.6477 z"
       id="path6084"
       style="fill:#f9f9f9;fill-opacity:1" />
  </g>
  <path
     style="fill:#f9f9f9;fill-opacity:1"
     inkscape:connector-curvature="0"
     d="m 20.027682,28.999996 q -0.266436,-0.581449 -0.460208,-1.157666 -0.193771,-0.576217 -0.3218,-1.18387 -0.124567,-0.607644 -0.186851,-1.262444 -0.05882,-0.660024 -0.05882,-1.403873 0,-0.749079 0.05882,-1.39864 0.06228,-0.654792 0.186853,-1.257203 0.128029,-0.607644 0.321798,-1.178621 0.193772,-0.576217 0.460208,-1.157675 l 0.972319,0 q -0.276817,0.607643 -0.474049,1.199583 -0.197231,0.59193 -0.325258,1.199574 -0.124568,0.607652 -0.183391,1.251963 -0.05882,0.639079 -0.05882,1.34626 0,0.712413 0.05882,1.356733 0.05882,0.639069 0.183391,1.246722 0.128027,0.607644 0.325258,1.194343 0.197231,0.59193 0.474049,1.204814 l -0.972319,0 z"
     id="path6086" />
  <path
     style="fill:#f9f9f9;fill-opacity:1"
     inkscape:connector-curvature="0"
     d="m 24.027683,28.999996 q -0.266437,-0.581449 -0.460209,-1.157666 -0.193771,-0.576217 -0.321799,-1.18387 -0.124567,-0.607644 -0.186852,-1.262444 -0.05882,-0.660024 -0.05882,-1.403873 0,-0.749079 0.05882,-1.39864 0.06228,-0.654792 0.186852,-1.257203 0.128031,-0.607644 0.321796,-1.178621 0.193773,-0.576217 0.460209,-1.157675 l 0.972319,0 q -0.276817,0.607643 -0.474049,1.199583 -0.197231,0.59193 -0.325258,1.199574 -0.124569,0.607652 -0.183391,1.251963 -0.05882,0.639079 -0.05882,1.34626 0,0.712413 0.05882,1.356733 0.05882,0.639069 0.183391,1.246722 0.128027,0.607644 0.325258,1.194343 0.197231,0.59193 0.474049,1.204814 l -0.972319,0 z"
     id="path6088" />
  <path
     style="fill:#f9f9f9;fill-opacity:1"
     inkscape:connector-curvature="0"
     d="m 28.027682,28.999996 q -0.266435,-0.581449 -0.460207,-1.157666 -0.193772,-0.576217 -0.3218,-1.18387 -0.124567,-0.607644 -0.186851,-1.262444 -0.05882,-0.660024 -0.05882,-1.403873 0,-0.749079 0.05882,-1.39864 0.06228,-0.654792 0.186852,-1.257203 0.128031,-0.607644 0.321796,-1.178621 0.193773,-0.576217 0.460208,-1.157675 l 0.97232,0 q -0.276817,0.607643 -0.474049,1.199583 -0.197231,0.59193 -0.325258,1.199574 -0.124569,0.607652 -0.183391,1.251963 -0.05882,0.639079 -0.05882,1.34626 0,0.712413 0.05882,1.356733 0.05882,0.639069 0.183391,1.246722 0.128027,0.607644 0.325258,1.194343 0.197231,0.59193 0.474049,1.204814 l -0.97232,0 z"
     id="path6090" />
</svg>
