<?xml version="1.0" encoding="UTF-8" standalone="no"?>
<svg
   xmlns:dc="http://purl.org/dc/elements/1.1/"
   xmlns:cc="http://creativecommons.org/ns#"
   xmlns:rdf="http://www.w3.org/1999/02/22-rdf-syntax-ns#"
   xmlns:svg="http://www.w3.org/2000/svg"
   xmlns="http://www.w3.org/2000/svg"
   xmlns:xlink="http://www.w3.org/1999/xlink"
   xmlns:sodipodi="http://sodipodi.sourceforge.net/DTD/sodipodi-0.dtd"
   xmlns:inkscape="http://www.inkscape.org/namespaces/inkscape"
   width="48"
   height="48"
   viewBox="0 0 48 48"
   id="svg2"
   version="1.1"
   inkscape:version="0.48.4 r9939"
   sodipodi:docname="blueradio.svg">
  <defs
     id="defs7">
    <linearGradient
       gradientTransform="scale(3.543307,3.543307)"
       xlink:href="#linearGradient3863"
       id="linearGradient3869"
       y1="10.169"
       x1="7.823"
       y2="3.0280001"
       x2="7.7709999"
       gradientUnits="userSpaceOnUse" />
    <linearGradient
       id="linearGradient3863">
      <stop
         offset="0"
         style="stop-color:#f7853a"
         id="stop4655" />
      <stop
         offset="1"
         style="stop-color:#fdb273"
         id="stop4657" />
    </linearGradient>
  </defs>
  <metadata
     id="metadata35">
    <rdf:RDF>
      <cc:Work
         rdf:about="">
        <dc:format>image/svg+xml</dc:format>
        <dc:type
           rdf:resource="http://purl.org/dc/dcmitype/StillImage" />
        <dc:title></dc:title>
      </cc:Work>
    </rdf:RDF>
  </metadata>
  <sodipodi:namedview
     pagecolor="#ffffff"
     bordercolor="#666666"
     borderopacity="1"
     objecttolerance="10"
     gridtolerance="10"
     guidetolerance="10"
     inkscape:pageopacity="0"
     inkscape:pageshadow="2"
     inkscape:window-width="1024"
     inkscape:window-height="692"
     id="namedview33"
     showgrid="false"
     inkscape:zoom="4.9166667"
     inkscape:cx="14.31119"
     inkscape:cy="22.492023"
     inkscape:window-x="0"
     inkscape:window-y="24"
     inkscape:window-maximized="1"
     inkscape:current-layer="svg2"
     showguides="true"
     inkscape:guide-bbox="true" />
  <path
     fill="#808080"
     d="M 47.4375 11.546875 L 47.4375 36.453125 C 47.4375 46.703125 47.4375 47.4375 36.453125 47.4375 L 11.550781 47.4375 C 0.5625 47.4375 0.5625 46.703125 0.5625 36.453125 L 0.5625 11.546875 C 0.5625 1.296875 0.5625 0.5625 11.550781 0.5625 L 36.453125 0.5625 C 47.4375 0.5625 47.4375 1.296875 47.4375 11.546875 Z "
     id="path11"
     style="fill:#f9bd18;fill-opacity:1" />
  <path
     inkscape:connector-curvature="0"
     id="path15"
     d="m 38.265625,47.4375 c 2.542969,-0.01172 4.378906,-0.08203 5.710937,-0.441406 l -4.230468,-7.25 -4.484375,7.691406 1.191406,0 c 0.640625,0 1.242187,0 1.8125,0 z m 1.480469,-7.691406 -5.125,-8.789063 -5.128906,8.789063 z m 0,0 7.652344,0 c 0.03125,-0.972656 0.03906,-2.0625 0.03906,-3.296875 l 0,-1.097657 -2.5625,-4.394531 z m 5.128906,-8.789063 -5.128906,-8.789062 -5.125,8.789062 z m 0,0 2.5625,0 0,-4.394531 z m -10.253906,0 -5.128906,-8.789062 -5.125,8.789062 z m -10.253906,0 -5.128907,8.789063 10.253907,0 z m 0,0 -5.128907,-8.789062 -5.125,8.789062 z m -10.253907,0 -5.128906,8.789063 10.253906,0 z m 0,0 -5.128906,-8.789062 -5.125,8.789062 z m -10.253906,0 -3.296875,5.648438 c 0,1.167969 0.011719,2.210937 0.039062,3.140625 l 8.382813,0 z m 0,0 -3.296875,-5.648437 0,5.648437 z m 5.125,8.789063 -4.3125,7.394531 c 1.597656,0.292969 3.808594,0.296875 6.878906,0.296875 l 1.921875,0 z m 0,-17.578125 -5.125,-8.789063 -3.296875,5.648438 0,3.140625 z m 0,0 10.253906,0 -5.125,-8.789063 z m 5.128906,-8.789063 -5.128906,-8.789062 -5.125,8.789062 z m 0,0 10.253907,0 -5.128907,-8.789062 z m 5.125,-8.789062 -2.351562,-4.027344 -5.335938,0 c -0.07813,0 -0.140625,0 -0.214843,0 L 8.984375,4.589844 z m 0,0 10.253907,0 -2.351563,-4.027344 -5.550781,0 z m 10.253907,0 10.253906,0 L 37.394531,0.5625 c -0.3125,0 -0.609375,0 -0.941406,0 l -4.609375,0 z m 0,0 -5.125,8.789062 10.253906,0 z m 5.128906,8.789062 10.253906,0 -5.128906,-8.789062 z m 0,0 -5.128906,8.789063 10.253906,0 z m 5.125,8.789063 7.691406,0 0,-4.394531 -2.5625,-4.394532 z m 5.128906,-8.789063 2.5625,0 0,-1.832031 c 0,-0.914063 -0.0078,-1.75 -0.02344,-2.523437 z m -15.382812,8.789063 -5.125,-8.789063 -5.128907,8.789063 z m 10.253906,-17.578125 7.308594,0 C 46.5,1.832031 45.167969,0.960938 42.023438,0.6875 z m -30.761719,0 L 6.679688,0.636719 C 3.019531,0.84375 1.539062,1.632812 0.945312,4.589844 z m -5.125,8.789062 L 0.621094,7.824219 C 0.578125,8.898438 0.5625,10.132812 0.5625,11.546875 l 0,1.832031 z m 15.378906,26.367188 -4.484375,7.691406 8.972656,0 z m 10.253907,0 -4.484376,7.691406 8.972657,0 z M 2.59375,46.367188 0.992188,43.621094 c 0.292968,1.316406 0.785156,2.179687 1.601562,2.746094 z"
     style="fill:#ffffff;fill-opacity:0.10196079" />
  <path
     inkscape:connector-curvature="0"
     id="path96"
     d="m 28.571461,24.000002 c 0,2.524749 -2.046712,4.571461 -4.571461,4.571461 -2.52475,0 -4.571461,-2.046712 -4.571461,-4.571461 0,-2.52475 2.046711,-4.571462 4.571461,-4.571462 2.524749,0 4.571461,2.046712 4.571461,4.571462 z"
     style="color:#000000;fill:#f9f9f9;fill-opacity:1" />
  <path
     inkscape:connector-curvature="0"
     id="path98"
     d="m 12.618967,10.999909 -1.619059,1.619059 5.785755,5.785755 0,0.02378 1.61906,1.619059 C 19.646789,18.293984 21.687557,17.142814 24,17.142814 c 0.893096,0 1.741346,0.189389 2.523828,0.500003 L 28.238126,15.92852 C 26.968098,15.254398 25.537512,14.857083 24,14.857083 c -2.110308,0 -4.04796,0.727678 -5.595277,1.928585 L 12.618967,10.99991 z m 22.762067,0 -5.785755,5.785755 c -0.0088,-0.0069 -0.01502,-0.01708 -0.02378,-0.02378 l -1.619055,1.619064 c 1.760309,1.241234 2.904782,3.301434 2.904782,5.619088 0,0.901028 -0.184131,1.759479 -0.500003,2.547638 l 1.714298,1.714298 c 0.680218,-1.274561 1.071398,-2.716927 1.071398,-4.261974 0,-2.110308 -0.727678,-4.047961 -1.928585,-5.595279 l 5.785758,-5.785755 -1.619058,-1.619059 z m -19.45252,8.738157 c -0.680256,1.274524 -1.071436,2.716889 -1.071436,4.261936 0,2.110308 0.727678,4.04796 1.928585,5.595278 l -5.785755,5.785756 1.619059,1.619059 1.714298,-1.714298 -0.02377,-0.02377 5.690516,-5.690517 C 18.270315,28.32661 17.14281,26.293773 17.14281,24.000005 c 0,-0.901028 0.184132,-1.759479 0.500004,-2.547638 l -1.714299,-1.7143 z m 13.666765,8.214345 C 28.353212,29.706024 26.312444,30.857194 24,30.857194 c -0.919938,0 -1.793666,-0.195233 -2.595256,-0.523813 l -1.714298,1.714298 c 1.285655,0.695707 2.745665,1.095247 4.309554,1.095247 2.110309,0 4.047961,-0.727678 5.595279,-1.928587 l 5.785755,5.785756 1.619058,-1.619059 -3.404785,-3.428595 -2.380969,-2.357161 c 0.0038,-0.0053 -0.0038,-0.01867 0,-0.02378 L 29.595279,27.95245 z"
     style="color:#000000;fill:#f9f9f9;fill-opacity:1" />
</svg>
