<?xml version="1.0" encoding="UTF-8" standalone="no"?>
<svg
   xmlns:dc="http://purl.org/dc/elements/1.1/"
   xmlns:cc="http://creativecommons.org/ns#"
   xmlns:rdf="http://www.w3.org/1999/02/22-rdf-syntax-ns#"
   xmlns:svg="http://www.w3.org/2000/svg"
   xmlns="http://www.w3.org/2000/svg"
   xmlns:xlink="http://www.w3.org/1999/xlink"
   xmlns:sodipodi="http://sodipodi.sourceforge.net/DTD/sodipodi-0.dtd"
   xmlns:inkscape="http://www.inkscape.org/namespaces/inkscape"
   width="48"
   height="48"
   viewBox="0 0 48 48"
   id="svg2"
   version="1.1"
   inkscape:version="0.48.4 r9939"
   sodipodi:docname="brackets.svg">
  <defs
     id="defs7">
    <linearGradient
       gradientTransform="scale(3.543307,3.543307)"
       xlink:href="#linearGradient3863"
       id="linearGradient3869"
       y1="10.169"
       x1="7.823"
       y2="3.0280001"
       x2="7.7709999"
       gradientUnits="userSpaceOnUse" />
    <linearGradient
       id="linearGradient3863">
      <stop
         offset="0"
         style="stop-color:#f7853a"
         id="stop4655" />
      <stop
         offset="1"
         style="stop-color:#fdb273"
         id="stop4657" />
    </linearGradient>
    <inkscape:path-effect
       effect="spiro"
       id="path-effect3851"
       is_visible="true" />
  </defs>
  <metadata
     id="metadata35">
    <rdf:RDF>
      <cc:Work
         rdf:about="">
        <dc:format>image/svg+xml</dc:format>
        <dc:type
           rdf:resource="http://purl.org/dc/dcmitype/StillImage" />
        <dc:title></dc:title>
      </cc:Work>
    </rdf:RDF>
  </metadata>
  <sodipodi:namedview
     pagecolor="#ffffff"
     bordercolor="#666666"
     borderopacity="1"
     objecttolerance="10"
     gridtolerance="10"
     guidetolerance="10"
     inkscape:pageopacity="0"
     inkscape:pageshadow="2"
     inkscape:window-width="1024"
     inkscape:window-height="697"
     id="namedview33"
     showgrid="false"
     inkscape:zoom="2.8284271"
     inkscape:cx="5.7830602"
     inkscape:cy="11.088531"
     inkscape:window-x="0"
     inkscape:window-y="24"
     inkscape:window-maximized="1"
     inkscape:current-layer="svg2"
     showguides="true"
     inkscape:guide-bbox="true" />
  <path
     fill="#808080"
     d="M 47.4375 11.546875 L 47.4375 36.453125 C 47.4375 46.703125 47.4375 47.4375 36.453125 47.4375 L 11.550781 47.4375 C 0.5625 47.4375 0.5625 46.703125 0.5625 36.453125 L 0.5625 11.546875 C 0.5625 1.296875 0.5625 0.5625 11.550781 0.5625 L 36.453125 0.5625 C 47.4375 0.5625 47.4375 1.296875 47.4375 11.546875 Z "
     id="path11"
     style="fill:#9f3c19;fill-opacity:1" />
  <path
     inkscape:connector-curvature="0"
     id="path15"
     d="m 38.265625,47.4375 c 2.542969,-0.01172 4.378906,-0.08203 5.710937,-0.441406 l -4.230468,-7.25 -4.484375,7.691406 1.191406,0 c 0.640625,0 1.242187,0 1.8125,0 z m 1.480469,-7.691406 -5.125,-8.789063 -5.128906,8.789063 z m 0,0 7.652344,0 c 0.03125,-0.972656 0.03906,-2.0625 0.03906,-3.296875 l 0,-1.097657 -2.5625,-4.394531 z m 5.128906,-8.789063 -5.128906,-8.789062 -5.125,8.789062 z m 0,0 2.5625,0 0,-4.394531 z m -10.253906,0 -5.128906,-8.789062 -5.125,8.789062 z m -10.253906,0 -5.128907,8.789063 10.253907,0 z m 0,0 -5.128907,-8.789062 -5.125,8.789062 z m -10.253907,0 -5.128906,8.789063 10.253906,0 z m 0,0 -5.128906,-8.789062 -5.125,8.789062 z m -10.253906,0 -3.296875,5.648438 c 0,1.167969 0.011719,2.210937 0.039062,3.140625 l 8.382813,0 z m 0,0 -3.296875,-5.648437 0,5.648437 z m 5.125,8.789063 -4.3125,7.394531 c 1.597656,0.292969 3.808594,0.296875 6.878906,0.296875 l 1.921875,0 z m 0,-17.578125 -5.125,-8.789063 -3.296875,5.648438 0,3.140625 z m 0,0 10.253906,0 -5.125,-8.789063 z m 5.128906,-8.789063 -5.128906,-8.789062 -5.125,8.789062 z m 0,0 10.253907,0 -5.128907,-8.789062 z m 5.125,-8.789062 -2.351562,-4.027344 -5.335938,0 c -0.07813,0 -0.140625,0 -0.214843,0 L 8.984375,4.589844 z m 0,0 10.253907,0 -2.351563,-4.027344 -5.550781,0 z m 10.253907,0 10.253906,0 L 37.394531,0.5625 c -0.3125,0 -0.609375,0 -0.941406,0 l -4.609375,0 z m 0,0 -5.125,8.789062 10.253906,0 z m 5.128906,8.789062 10.253906,0 -5.128906,-8.789062 z m 0,0 -5.128906,8.789063 10.253906,0 z m 5.125,8.789063 7.691406,0 0,-4.394531 -2.5625,-4.394532 z m 5.128906,-8.789063 2.5625,0 0,-1.832031 c 0,-0.914063 -0.0078,-1.75 -0.02344,-2.523437 z m -15.382812,8.789063 -5.125,-8.789063 -5.128907,8.789063 z m 10.253906,-17.578125 7.308594,0 C 46.5,1.832031 45.167969,0.960938 42.023438,0.6875 z m -30.761719,0 L 6.679688,0.636719 C 3.019531,0.84375 1.539062,1.632812 0.945312,4.589844 z m -5.125,8.789062 L 0.621094,7.824219 C 0.578125,8.898438 0.5625,10.132812 0.5625,11.546875 l 0,1.832031 z m 15.378906,26.367188 -4.484375,7.691406 8.972656,0 z m 10.253907,0 -4.484376,7.691406 8.972657,0 z M 2.59375,46.367188 0.992188,43.621094 c 0.292968,1.316406 0.785156,2.179687 1.601562,2.746094 z"
     style="fill:#ffffff;fill-opacity:0.05490196" />
  <path
     inkscape:connector-curvature="0"
     style="fill:#f9f9f9;fill-opacity:1;stroke:none"
     d="m 3.125,27.198751 c 0.1292875,1.38208 0.3678266,2.710249 0.7499955,4 l 2.1249874,0 0,2.999999 -0.9687443,0 C 5.321616,34.812558 4.2224071,34.666843 4.6,35.199 l 1.3999829,-2.5e-4 36.4685321,0 c 0.608935,-1.127351 1.134251,-2.321528 1.53124,-3.562499 l 0,-0.4375 0.125,0 c 0.38223,-1.28996 0.65198,-2.617684 0.781245,-4 z m 3.8749769,4 3.9999761,2.999999 -3.9999761,0 z m 0.999994,0 3.9999761,0 0,2.999999 z m 4.9999701,0 3.999976,0 -3.999976,2.999999 z m 4.99997,0 0,2.999999 -3.999976,0 z m 0.999994,0 4.99997,2.999999 -4.99997,0 z m 0.999994,0 4.99997,0 0,2.999999 z m 5.999964,0 4.99997,0 -4.99997,2.999999 z m 5.999964,0 0,2.999999 -4.99997,0 z m 0.999994,0 3.999976,2.999999 -3.999976,0 z m 0.999994,0 3.999976,0 0,2.999999 z m 4.99997,0 2.999982,0 -2.999982,2.999999 z"
     id="path3022"
     sodipodi:nodetypes="ccccccccccccccccccccccccccccccccccccccccccccccccccccccccc" />
  <path
     style="fill:#f9f9f9;fill-opacity:1;stroke:none"
     d="m 11.798954,28.502759 c -0.218377,0.03666 -0.433226,0.0943 -0.640625,0.171875 -0.56106,0.209857 -1.07408,0.566666 -1.6661004,0.657988 -0.2960102,0.04566 -0.6104328,0.01907 -0.8744455,-0.122369 -0.1320064,-0.07072 -0.2496547,-0.169595 -0.3367838,-0.291395 -0.087129,-0.1218 -0.1430705,-0.266737 -0.1539202,-0.416099 -0.010996,-0.151376 0.02385,-0.302996 0.07685,-0.445216 0.053001,-0.14222 0.1239716,-0.276914 0.1887749,-0.414159 0.1379493,-0.292158 0.2525634,-0.603646 0.46875,-0.84375 0.1114988,-0.123834 0.2467235,-0.224555 0.358028,-0.348564 0.055652,-0.062 0.1053641,-0.130104 0.1401897,-0.205794 0.034826,-0.07569 0.054371,-0.159396 0.048657,-0.242517 -0.00669,-0.09731 -0.047201,-0.189105 -0.094308,-0.274519 -0.047107,-0.08541 -0.1015463,-0.167116 -0.1400671,-0.256731 -0.059434,-0.138267 -0.078888,-0.292981 -0.058862,-0.442142 0.020026,-0.149161 0.079129,-0.292495 0.1673404,-0.414433 0.1764218,-0.243875 0.466991,-0.394988 0.7665219,-0.424675 0.226072,-0.02241 0.459334,0.0215 0.658424,0.130922 0.199091,0.109424 0.362456,0.284843 0.450951,0.494078 0.0334,0.07896 0.05649,0.164808 0.04687,0.250002 -0.0065,0.05795 -0.02805,0.113452 -0.05638,0.164433 -0.02833,0.05098 -0.06344,0.09784 -0.09906,0.144023 -0.07123,0.09237 -0.147101,0.187113 -0.172688,0.300919 -0.02517,0.11197 0.0021,0.230303 0.05097,0.334134 0.04889,0.103831 0.118431,0.196264 0.183403,0.290866 0.4421,0.643714 0.685039,1.422217 0.687504,2.203123"
     id="path3849"
     inkscape:path-effect="#path-effect3851"
     inkscape:original-d="m 11.798954,28.502759 c -0.195478,-0.01007 -0.416142,0.151467 -0.640625,0.171875 -0.451027,0.041 -2.7742509,0.08512 -3.0312499,-0.171875 -0.289762,-0.289762 0.03728,-0.631026 0.265625,-0.859375 0.213741,-0.213741 0.338344,-0.582939 0.46875,-0.84375 0.129412,-0.258824 0.414024,-0.531173 0.546875,-0.796875 0.06042,-0.120831 -0.181534,-0.425567 -0.234375,-0.53125 -0.247843,-0.495686 0.461371,-1.143374 0.8749999,-1.28125 0.484436,-0.161479 1.004608,0.20593 1.109375,0.625 0.01403,0.05614 0.08643,0.190669 0.04687,0.250002 -0.146608,0.219912 -0.220766,0.394658 -0.328125,0.609375 -0.0588,0.117606 0.173746,0.503742 0.234376,0.625 0.295434,0.590867 0.995083,1.434167 0.6875,2.203125 z"
     inkscape:connector-curvature="0" />
  <rect
     style="fill:#f9f9f9;fill-opacity:1;stroke:none"
     id="rect4509"
     width="5.1880002"
     height="8"
     x="42.25"
     y="27.200169" />
  <rect
     style="fill:#f9f9f9;fill-opacity:1;stroke:none"
     id="rect4531"
     width="4"
     height="4"
     x="0.56199998"
     y="27.198999" />
  <rect
     style="fill:#f9f9f9;fill-opacity:1;stroke:none"
     id="rect4531-7"
     width="5"
     height="1"
     x="0.56199998"
     y="34.200001" />
</svg>
