<?xml version="1.0" encoding="UTF-8" standalone="no"?>
<svg
   xmlns:dc="http://purl.org/dc/elements/1.1/"
   xmlns:cc="http://creativecommons.org/ns#"
   xmlns:rdf="http://www.w3.org/1999/02/22-rdf-syntax-ns#"
   xmlns:svg="http://www.w3.org/2000/svg"
   xmlns="http://www.w3.org/2000/svg"
   xmlns:xlink="http://www.w3.org/1999/xlink"
   xmlns:sodipodi="http://sodipodi.sourceforge.net/DTD/sodipodi-0.dtd"
   xmlns:inkscape="http://www.inkscape.org/namespaces/inkscape"
   width="48"
   height="48"
   viewBox="0 0 48 48"
   id="svg2"
   version="1.1"
   inkscape:version="0.48.4 r9939"
   sodipodi:docname="braid.svg">
  <defs
     id="defs7">
    <linearGradient
       gradientTransform="scale(3.543307,3.543307)"
       xlink:href="#linearGradient3863"
       id="linearGradient3869"
       y1="10.169"
       x1="7.823"
       y2="3.0280001"
       x2="7.7709999"
       gradientUnits="userSpaceOnUse" />
    <linearGradient
       id="linearGradient3863">
      <stop
         offset="0"
         style="stop-color:#f7853a"
         id="stop4655" />
      <stop
         offset="1"
         style="stop-color:#fdb273"
         id="stop4657" />
    </linearGradient>
    <inkscape:path-effect
       effect="spiro"
       id="path-effect3851"
       is_visible="true" />
    <linearGradient
       xlink:href="#E"
       id="P"
       gradientUnits="userSpaceOnUse"
       gradientTransform="matrix(0.11507836,2.6872904,-3.5509212,0.08708977,-92.131011,122.46896)"
       x1="0"
       x2="1" />
    <linearGradient
       x1="0"
       x2="1"
       gradientUnits="userSpaceOnUse"
       gradientTransform="matrix(7.70073,-237.618,-237.618,-7.70073,857.291,1026.93)"
       id="E">
      <stop
         stop-color="#fae017"
         id="stop263" />
      <stop
         offset="1"
         stop-color="#f1511d"
         id="stop265" />
    </linearGradient>
    <linearGradient
       xlink:href="#F"
       id="Q"
       gradientUnits="userSpaceOnUse"
       gradientTransform="matrix(-0.03287282,-4.018518,5.3099736,-0.0248777,-91.154219,125.14714)"
       x1="0"
       x2="1" />
    <linearGradient
       x1="0"
       x2="1"
       gradientUnits="userSpaceOnUse"
       gradientTransform="matrix(-2.19976,355.329,355.329,2.19976,857.059,785.547)"
       id="F">
      <stop
         stop-color="#ee2c21"
         id="stop268" />
      <stop
         offset="1"
         stop-color="#fab318"
         id="stop270" />
    </linearGradient>
    <linearGradient
       gradientTransform="matrix(0,-0.31193,0.31193,0,0.84666,12.7)"
       xlink:href="#8"
       id="1"
       x1="0"
       gradientUnits="userSpaceOnUse"
       x2="38" />
    <linearGradient
       id="8">
      <stop
         stop-color="#2d2d2d"
         id="stop229" />
      <stop
         offset="1"
         stop-color="#4b4b4b"
         id="stop231" />
    </linearGradient>
  </defs>
  <metadata
     id="metadata35">
    <rdf:RDF>
      <cc:Work
         rdf:about="">
        <dc:format>image/svg+xml</dc:format>
        <dc:type
           rdf:resource="http://purl.org/dc/dcmitype/StillImage" />
        <dc:title></dc:title>
      </cc:Work>
    </rdf:RDF>
  </metadata>
  <sodipodi:namedview
     pagecolor="#ffffff"
     bordercolor="#666666"
     borderopacity="1"
     objecttolerance="10"
     gridtolerance="10"
     guidetolerance="10"
     inkscape:pageopacity="0"
     inkscape:pageshadow="2"
     inkscape:window-width="1024"
     inkscape:window-height="697"
     id="namedview33"
     showgrid="false"
     inkscape:zoom="5.6568542"
     inkscape:cx="1.3946808"
     inkscape:cy="17.452492"
     inkscape:window-x="0"
     inkscape:window-y="24"
     inkscape:window-maximized="1"
     inkscape:current-layer="svg2"
     showguides="true"
     inkscape:guide-bbox="true" />
  <path
     fill="#808080"
     d="M 47.4375 11.546875 L 47.4375 36.453125 C 47.4375 46.703125 47.4375 47.4375 36.453125 47.4375 L 11.550781 47.4375 C 0.5625 47.4375 0.5625 46.703125 0.5625 36.453125 L 0.5625 11.546875 C 0.5625 1.296875 0.5625 0.5625 11.550781 0.5625 L 36.453125 0.5625 C 47.4375 0.5625 47.4375 1.296875 47.4375 11.546875 Z "
     id="path11"
     style="fill:#fab318;fill-opacity:1" />
  <path
     inkscape:connector-curvature="0"
     id="path15"
     d="m 38.265625,47.4375 c 2.542969,-0.01172 4.378906,-0.08203 5.710937,-0.441406 l -4.230468,-7.25 -4.484375,7.691406 1.191406,0 c 0.640625,0 1.242187,0 1.8125,0 z m 1.480469,-7.691406 -5.125,-8.789063 -5.128906,8.789063 z m 0,0 7.652344,0 c 0.03125,-0.972656 0.03906,-2.0625 0.03906,-3.296875 l 0,-1.097657 -2.5625,-4.394531 z m 5.128906,-8.789063 -5.128906,-8.789062 -5.125,8.789062 z m 0,0 2.5625,0 0,-4.394531 z m -10.253906,0 -5.128906,-8.789062 -5.125,8.789062 z m -10.253906,0 -5.128907,8.789063 10.253907,0 z m 0,0 -5.128907,-8.789062 -5.125,8.789062 z m -10.253907,0 -5.128906,8.789063 10.253906,0 z m 0,0 -5.128906,-8.789062 -5.125,8.789062 z m -10.253906,0 -3.296875,5.648438 c 0,1.167969 0.011719,2.210937 0.039062,3.140625 l 8.382813,0 z m 0,0 -3.296875,-5.648437 0,5.648437 z m 5.125,8.789063 -4.3125,7.394531 c 1.597656,0.292969 3.808594,0.296875 6.878906,0.296875 l 1.921875,0 z m 0,-17.578125 -5.125,-8.789063 -3.296875,5.648438 0,3.140625 z m 0,0 10.253906,0 -5.125,-8.789063 z m 5.128906,-8.789063 -5.128906,-8.789062 -5.125,8.789062 z m 0,0 10.253907,0 -5.128907,-8.789062 z m 5.125,-8.789062 -2.351562,-4.027344 -5.335938,0 c -0.07813,0 -0.140625,0 -0.214843,0 L 8.984375,4.589844 z m 0,0 10.253907,0 -2.351563,-4.027344 -5.550781,0 z m 10.253907,0 10.253906,0 L 37.394531,0.5625 c -0.3125,0 -0.609375,0 -0.941406,0 l -4.609375,0 z m 0,0 -5.125,8.789062 10.253906,0 z m 5.128906,8.789062 10.253906,0 -5.128906,-8.789062 z m 0,0 -5.128906,8.789063 10.253906,0 z m 5.125,8.789063 7.691406,0 0,-4.394531 -2.5625,-4.394532 z m 5.128906,-8.789063 2.5625,0 0,-1.832031 c 0,-0.914063 -0.0078,-1.75 -0.02344,-2.523437 z m -15.382812,8.789063 -5.125,-8.789063 -5.128907,8.789063 z m 10.253906,-17.578125 7.308594,0 C 46.5,1.832031 45.167969,0.960938 42.023438,0.6875 z m -30.761719,0 L 6.679688,0.636719 C 3.019531,0.84375 1.539062,1.632812 0.945312,4.589844 z m -5.125,8.789062 L 0.621094,7.824219 C 0.578125,8.898438 0.5625,10.132812 0.5625,11.546875 l 0,1.832031 z m 15.378906,26.367188 -4.484375,7.691406 8.972656,0 z m 10.253907,0 -4.484376,7.691406 8.972657,0 z M 2.59375,46.367188 0.992188,43.621094 c 0.292968,1.316406 0.785156,2.179687 1.601562,2.746094 z"
     style="fill:#ffffff;fill-opacity:0.09803922" />
  <path
     style="fill:#f9f9f9;fill-opacity:1"
     inkscape:connector-curvature="0"
     d="M 8.9999999,23.999999 C 8.9999999,32.283306 15.716692,39 24,39 32.283305,39 39,32.283306 39,23.999999 39,15.716694 32.283305,9 24,9 15.716692,9 8.9999998,15.716694 8.9999998,23.999999 z"
     id="path475" />
  <path
     style="fill:#fab318;fill-opacity:1;fill-rule:nonzero"
     inkscape:connector-curvature="0"
     d="m 24,21.857144 c 0.592105,0 1.130169,0.237312 1.517856,0.625 0.387688,0.387687 0.625,0.925751 0.625,1.517856 0,0.592105 -0.237312,1.130169 -0.625,1.517856 -0.387687,0.387688 -0.925751,0.625 -1.517856,0.625 -0.592106,0 -1.130169,-0.237312 -1.517857,-0.625 C 22.094456,25.130169 21.857144,24.592105 21.857144,24 c 0,-0.592105 0.237312,-1.130169 0.624999,-1.517856 0.387688,-0.387688 0.925751,-0.625 1.517857,-0.625 z"
     id="path477" />
  <path
     style="fill:url(#Q);fill-rule:nonzero"
     inkscape:connector-curvature="0"
     d="m 21.700894,10.785722 c 3.120057,5.079994 0.304154,5.892425 -0.290179,9.866066 0.290083,-0.224416 0.572676,-0.457909 0.915178,-0.602678 0.512806,-0.216753 1.082001,-0.334822 1.674107,-0.334822 0.592104,0 1.161301,0.118069 1.674106,0.334822 0.512805,0.216752 0.973919,0.52749 1.361607,0.915178 0.387687,0.387687 0.698425,0.8488 0.915178,1.361606 0.216753,0.512805 0.334821,1.082001 0.334821,1.674106 0,0.592105 -0.118068,1.161301 -0.334821,1.674106 -0.216753,0.512806 -0.527491,0.973919 -0.915178,1.361606 -0.387688,0.387688 -0.848801,0.698426 -1.361607,0.915178 -0.512805,0.216753 -1.082001,0.334822 -1.674106,0.334822 -0.592106,0 -1.161301,-0.118069 -1.674107,-0.334822 -0.512805,-0.216752 -0.973919,-0.52749 -1.361606,-0.915178 -0.387688,-0.387687 -0.698426,-0.8488 -0.915178,-1.361606 C 19.832356,25.161301 19.714287,24.592105 19.714287,24 c 0,-0.592105 0.118069,-1.161301 0.334822,-1.674106 0.08916,-0.210932 0.259105,-0.365991 0.379464,-0.558035 -0.404842,-0.60005 -0.937715,-1.073864 -2.142856,-1.339285 2.857141,4.999997 -3.407162,4.441988 -2.812499,8.794637 -0.768411,-0.212535 -1.474981,-1.645564 -0.892857,-3.415176 -2.010692,2.483897 -1.294643,4.620534 0.133929,6.763388 -1.428572,-1.428569 -1.428574,-0.71427 -2.142856,-2.723212 0.27721,5.245913 4.285467,9.15178 11.830351,9.15178 l 0.535714,0 c 4.728823,0 9.4055,-3.428147 9.91071,-6.852675 -0.664894,0.984796 -1.561083,1.852194 -2.879463,1.852678 3.461238,-2.857625 4.179015,-7.144154 1.09375,-11.249993 0.228123,2.67727 -1.214851,4.108617 -2.477678,5.022318 1.977112,-3.770843 1.983528,-8.068166 -1.89732,-11.852671 0.309424,0.927364 0.547444,1.652607 0.334821,2.499998 0.212628,-1.038033 -2.875653,-5.844124 -7.321425,-7.633924 z"
     id="path479" />
</svg>
