<?xml version="1.0" encoding="UTF-8" standalone="no"?>
<svg
   xmlns:dc="http://purl.org/dc/elements/1.1/"
   xmlns:cc="http://creativecommons.org/ns#"
   xmlns:rdf="http://www.w3.org/1999/02/22-rdf-syntax-ns#"
   xmlns:svg="http://www.w3.org/2000/svg"
   xmlns="http://www.w3.org/2000/svg"
   xmlns:xlink="http://www.w3.org/1999/xlink"
   xmlns:sodipodi="http://sodipodi.sourceforge.net/DTD/sodipodi-0.dtd"
   xmlns:inkscape="http://www.inkscape.org/namespaces/inkscape"
   width="48"
   height="48"
   viewBox="0 0 48 48"
   id="svg2"
   version="1.1"
   inkscape:version="0.48.4 r9939"
   sodipodi:docname="browser.svg">
  <defs
     id="defs7">
    <linearGradient
       gradientTransform="scale(3.543307,3.543307)"
       xlink:href="#linearGradient3863"
       id="linearGradient3869"
       y1="10.169"
       x1="7.823"
       y2="3.0280001"
       x2="7.7709999"
       gradientUnits="userSpaceOnUse" />
    <linearGradient
       id="linearGradient3863">
      <stop
         offset="0"
         style="stop-color:#f7853a"
         id="stop4655" />
      <stop
         offset="1"
         style="stop-color:#fdb273"
         id="stop4657" />
    </linearGradient>
    <inkscape:path-effect
       effect="spiro"
       id="path-effect3851"
       is_visible="true" />
    <linearGradient
       xlink:href="#E"
       id="P"
       gradientUnits="userSpaceOnUse"
       gradientTransform="matrix(0.11507836,2.6872904,-3.5509212,0.08708977,-92.131011,122.46896)"
       x1="0"
       x2="1" />
    <linearGradient
       x1="0"
       x2="1"
       gradientUnits="userSpaceOnUse"
       gradientTransform="matrix(7.70073,-237.618,-237.618,-7.70073,857.291,1026.93)"
       id="E">
      <stop
         stop-color="#fae017"
         id="stop263" />
      <stop
         offset="1"
         stop-color="#f1511d"
         id="stop265" />
    </linearGradient>
    <linearGradient
       xlink:href="#F"
       id="Q"
       gradientUnits="userSpaceOnUse"
       gradientTransform="matrix(-0.03287282,-4.018518,5.3099736,-0.0248777,-91.154219,125.14714)"
       x1="0"
       x2="1" />
    <linearGradient
       x1="0"
       x2="1"
       gradientUnits="userSpaceOnUse"
       gradientTransform="matrix(-2.19976,355.329,355.329,2.19976,857.059,785.547)"
       id="F">
      <stop
         stop-color="#ee2c21"
         id="stop268" />
      <stop
         offset="1"
         stop-color="#fab318"
         id="stop270" />
    </linearGradient>
    <linearGradient
       gradientTransform="matrix(0,-0.31193,0.31193,0,0.84666,12.7)"
       xlink:href="#8"
       id="1"
       x1="0"
       gradientUnits="userSpaceOnUse"
       x2="38" />
    <linearGradient
       id="8">
      <stop
         stop-color="#2d2d2d"
         id="stop229" />
      <stop
         offset="1"
         stop-color="#4b4b4b"
         id="stop231" />
    </linearGradient>
    <linearGradient
       inkscape:collect="always"
       xlink:href="#linearGradient4460"
       id="linearGradient5544"
       gradientUnits="userSpaceOnUse"
       gradientTransform="matrix(1.10525,0,0,1.10525,-134.25208,-295.76214)"
       y1="279.09601"
       x2="0"
       y2="268.32999" />
    <linearGradient
       id="linearGradient4460">
      <stop
         offset="0"
         style="stop-color:#108fc9"
         id="stop5508" />
      <stop
         offset="1"
         style="stop-color:#26afee"
         id="stop5510" />
    </linearGradient>
  </defs>
  <metadata
     id="metadata35">
    <rdf:RDF>
      <cc:Work
         rdf:about="">
        <dc:format>image/svg+xml</dc:format>
        <dc:type
           rdf:resource="http://purl.org/dc/dcmitype/StillImage" />
        <dc:title></dc:title>
      </cc:Work>
    </rdf:RDF>
  </metadata>
  <sodipodi:namedview
     pagecolor="#ffffff"
     bordercolor="#666666"
     borderopacity="1"
     objecttolerance="10"
     gridtolerance="10"
     guidetolerance="10"
     inkscape:pageopacity="0"
     inkscape:pageshadow="2"
     inkscape:window-width="1024"
     inkscape:window-height="697"
     id="namedview33"
     showgrid="false"
     inkscape:zoom="5.6568542"
     inkscape:cx="1.3946808"
     inkscape:cy="17.452492"
     inkscape:window-x="0"
     inkscape:window-y="24"
     inkscape:window-maximized="1"
     inkscape:current-layer="svg2"
     showguides="true"
     inkscape:guide-bbox="true" />
  <path
     fill="#808080"
     d="M 47.4375 11.546875 L 47.4375 36.453125 C 47.4375 46.703125 47.4375 47.4375 36.453125 47.4375 L 11.550781 47.4375 C 0.5625 47.4375 0.5625 46.703125 0.5625 36.453125 L 0.5625 11.546875 C 0.5625 1.296875 0.5625 0.5625 11.550781 0.5625 L 36.453125 0.5625 C 47.4375 0.5625 47.4375 1.296875 47.4375 11.546875 Z "
     id="path11"
     style="fill:#924565;fill-opacity:1" />
  <path
     inkscape:connector-curvature="0"
     id="path15"
     d="m 38.265625,47.4375 c 2.542969,-0.01172 4.378906,-0.08203 5.710937,-0.441406 l -4.230468,-7.25 -4.484375,7.691406 1.191406,0 c 0.640625,0 1.242187,0 1.8125,0 z m 1.480469,-7.691406 -5.125,-8.789063 -5.128906,8.789063 z m 0,0 7.652344,0 c 0.03125,-0.972656 0.03906,-2.0625 0.03906,-3.296875 l 0,-1.097657 -2.5625,-4.394531 z m 5.128906,-8.789063 -5.128906,-8.789062 -5.125,8.789062 z m 0,0 2.5625,0 0,-4.394531 z m -10.253906,0 -5.128906,-8.789062 -5.125,8.789062 z m -10.253906,0 -5.128907,8.789063 10.253907,0 z m 0,0 -5.128907,-8.789062 -5.125,8.789062 z m -10.253907,0 -5.128906,8.789063 10.253906,0 z m 0,0 -5.128906,-8.789062 -5.125,8.789062 z m -10.253906,0 -3.296875,5.648438 c 0,1.167969 0.011719,2.210937 0.039062,3.140625 l 8.382813,0 z m 0,0 -3.296875,-5.648437 0,5.648437 z m 5.125,8.789063 -4.3125,7.394531 c 1.597656,0.292969 3.808594,0.296875 6.878906,0.296875 l 1.921875,0 z m 0,-17.578125 -5.125,-8.789063 -3.296875,5.648438 0,3.140625 z m 0,0 10.253906,0 -5.125,-8.789063 z m 5.128906,-8.789063 -5.128906,-8.789062 -5.125,8.789062 z m 0,0 10.253907,0 -5.128907,-8.789062 z m 5.125,-8.789062 -2.351562,-4.027344 -5.335938,0 c -0.07813,0 -0.140625,0 -0.214843,0 L 8.984375,4.589844 z m 0,0 10.253907,0 -2.351563,-4.027344 -5.550781,0 z m 10.253907,0 10.253906,0 L 37.394531,0.5625 c -0.3125,0 -0.609375,0 -0.941406,0 l -4.609375,0 z m 0,0 -5.125,8.789062 10.253906,0 z m 5.128906,8.789062 10.253906,0 -5.128906,-8.789062 z m 0,0 -5.128906,8.789063 10.253906,0 z m 5.125,8.789063 7.691406,0 0,-4.394531 -2.5625,-4.394532 z m 5.128906,-8.789063 2.5625,0 0,-1.832031 c 0,-0.914063 -0.0078,-1.75 -0.02344,-2.523437 z m -15.382812,8.789063 -5.125,-8.789063 -5.128907,8.789063 z m 10.253906,-17.578125 7.308594,0 C 46.5,1.832031 45.167969,0.960938 42.023438,0.6875 z m -30.761719,0 L 6.679688,0.636719 C 3.019531,0.84375 1.539062,1.632812 0.945312,4.589844 z m -5.125,8.789062 L 0.621094,7.824219 C 0.578125,8.898438 0.5625,10.132812 0.5625,11.546875 l 0,1.832031 z m 15.378906,26.367188 -4.484375,7.691406 8.972656,0 z m 10.253907,0 -4.484376,7.691406 8.972657,0 z M 2.59375,46.367188 0.992188,43.621094 c 0.292968,1.316406 0.785156,2.179687 1.601562,2.746094 z"
     style="fill:#ffffff;fill-opacity:0.07058824" />
  <rect
     ry="20.997637"
     id="rect5517"
     style="fill:#f9f9f9;fill-rule:evenodd;fill-opacity:1"
     height="29.866446"
     rx="20.997637"
     y="9.0667772"
     x="9.1335545"
     width="29.866446" />
  <path
     inkscape:connector-curvature="0"
     style="fill:#924565;fill-opacity:1"
     d="m 9.8552308,24.82442 0.1584492,-0.792253 1.735551,0.724038 1.196966,1.106619 1.02874,0.149977 c -0.367368,0.828775 -1.111134,2.164591 -0.975738,3.08978 0.07875,0.538096 0.631266,1.304919 0.946977,1.742876 0.441046,0.611698 1.271564,0.972963 1.493633,1.743032 l 0.03708,1.267602 0.241794,0.950702 c -0.04826,0.402782 -0.426707,1.101311 -0.177215,1.475253 0.274344,0.411256 1.289311,0.928438 1.760541,1.057735 0.449918,0.123417 0.49904,-0.344946 0.317288,-0.631584 l 0.587691,-0.806672 0.743767,-0.548711 0.523757,-1.80903 1.126581,-0.728156 C 21.06266,32.12613 20.7281,31.553729 20.90082,30.845535 l 0.758976,-2.139079 c -0.858561,-0.320611 -2.087979,-0.714214 -2.693655,-1.426053 l -0.158449,0.07924 -0.158449,-0.713026 -0.950701,-0.475352 -0.158448,0.158448 -0.23769,-1.109153 -1.267604,-0.100452 -0.950701,-0.51972 c -0.410068,-0.05832 -0.954821,0.612968 -1.10915,0.937076 l -0.554577,-0.07924 0.158449,-0.158448 -0.475349,-0.316898 0.07924,0.316898 c -0.341699,-0.353267 -0.400087,-0.798197 -0.316897,-1.267607 l -0.554576,-0.237656 -0.07924,0.237656 c -0.09908,-0.392084 -0.05832,-0.898569 0.237689,-1.188377 -0.434217,-0.296142 -0.72743,-0.01825 -1.029929,0.316897 l -0.633801,-1.267602 c -0.174545,0.38884 -0.111433,0.776884 -0.07924,1.188378 l -0.158449,0 c -0.03499,-0.443343 -0.144503,-0.927806 0.08025,-1.34564 0.420005,-0.780842 1.680374,-1.111607 2.454944,-0.951888 l -0.07924,0.158449 0.713028,0.633801 c 0.0033,-1.211433 0.479233,-1.339459 1.148842,-2.221395 l 0.468777,-0.85056 c 0.519639,-0.571532 1.326309,-0.960844 2.023568,-1.217848 l 0.874647,-0.542931 c -0.282848,-0.489533 -1.027948,-0.348669 -1.505278,-0.316898 0.858323,-0.488424 2.0265,-0.224754 2.614428,-1.109153 -0.641406,-0.466715 -0.641644,-1.684641 -1.663727,-1.188377 l 0.158449,-0.475349 -0.871474,-0.396125 -0.635625,1.325038 -0.869652,1.051714 -0.07924,-0.554574 c -0.33512,-0.155679 -1.258332,-0.427978 -1.276318,-0.871714 -0.01955,-0.482245 1.470262,-1.212408 1.830894,-1.505041 l -0.158448,0.396125 0.613993,-0.05722 c 0.130168,-0.08221 1.366555,-1.823857 1.525085,-0.735035 0.859037,0.325597 0.95585,0.697207 1.822178,0.158449 L 19.203769,12.227607 C 19.116379,11.445164 18.4257,11.435784 17.777715,11.435354 l 2.059855,-0.950701 c 0.229349,0.562507 0.948802,0.677699 1.181564,1.195776 0.165356,0.368105 -0.326091,0.590086 -0.313638,0.943302 0.01532,0.435488 0.438511,0.968847 0.637365,1.34683 l 1.191786,-1.302628 c 0.657648,-0.350643 1.714985,-0.388615 2.238742,-0.955162 0.606389,-0.655999 0.273009,-1.699476 1.402207,-1.703468 -0.22912,-0.09638 -0.59815,-0.169558 -0.792253,0 l -0.237657,-0.237689 0.316898,0 C 25.296934,9.544417 25.185046,9.422112 24.908007,9.37549 24.589676,8.981913 23.857085,9.167418 23.402729,9.124344 21.820364,8.974367 20.11124,9.483139 18.649219,9.982622 c -4.988016,1.704047 -9.4535422,7.188764 -9.6485386,12.623453 -0.022156,0.617005 0.502376,0.891043 0.7622962,1.363385 l 0.09224,0.854918 M 30.849886,11.514555 c -0.278484,0.228013 -0.7528,0.341412 -1.109154,0.396125 l -0.64545,0.890492 -0.755489,0.629363 c -0.121467,0.288551 0.07344,0.724911 0.133327,1.015349 l 0.792249,-0.396125 c 0.113943,0.393671 0.422114,0.49484 0.71303,0.713029 0.469647,-0.891207 0.06529,-1.742772 1.188377,-2.218307 l -0.713029,0.871477 0.237687,-0.158449 0.07925,0.475349 0.07925,-0.633801 c 0.209238,0.71469 -0.0096,1.697955 -0.792254,1.967715 l -0.792253,-0.06631 0,-0.475349 c -0.45064,0.09403 -0.435665,0.318494 -0.316905,0.713025 -0.305819,-0.0869 -0.487629,-0.07162 -0.713024,0.158449 -0.242023,-0.248702 -0.439463,-0.439541 -0.475353,-0.792253 -0.153854,-0.153235 -0.221821,-0.257629 -0.237656,-0.475352 l -0.554577,-0.07921 0.237689,1.267602 c -0.211363,-0.396522 -0.430665,-0.49167 -0.871474,-0.396124 l 0.23769,0.950701 0.316897,-0.07924 -0.237657,-0.07921 0.316897,-0.554576 0.158449,0.871477 0.713028,-0.158449 c -0.199729,0.190867 -0.358335,0.237266 -0.633803,0.237689 l 0.07924,0.23769 -0.396128,0 0.554577,0.950701 c -1.298103,0.01076 -1.313471,0.674761 -1.267602,1.742954 0.253361,0.01824 0.377588,0.05578 0.554576,0.23769 1.048309,-0.552362 1.290657,-1.579276 2.535204,-1.901407 0.201957,0.628018 0.825449,0.5892 0.6338,1.34683 0.611462,-0.12479 0.78259,-0.63919 0.396128,-1.109154 0.520986,0.310316 0.671115,0.947692 1.029927,1.426055 0.252579,-0.331638 0.154007,-0.710811 0.554577,-0.950702 l 0,0.23769 c 0.671118,0.595536 1.133948,0.729267 1.980631,1.029928 -0.290995,0.413081 -0.641886,0.818395 -1.188376,0.784486 -0.668979,-0.04144 -1.522631,-0.697575 -1.980634,0.08699 l -1.27473,-1.010199 c -0.707086,-0.298195 -1.403158,-0.01759 -2.13195,-0.09895 l -0.316897,0.158448 0.158448,0.07924 c -1.451484,0.653054 -2.256092,2.372952 -2.407096,3.802805 l -0.277049,0.950705 c 0.154344,0.92836 0.940165,1.89023 1.600745,2.521972 0.465131,0.444771 0.79946,-0.426149 1.241856,0.01336 0.585552,-0.221659 1.469388,-0.606943 2.006455,0.01174 0.352789,0.406502 -0.01437,0.741704 0.108072,1.176651 0.211758,0.752561 0.716353,1.633939 0.715164,2.455979 l -0.198631,1.980629 c 0.17356,1.206677 0.844382,2.221476 0.854839,3.485908 0.971381,-0.100059 2.062945,-0.588803 2.602389,-1.426051 l 0.231664,-0.705896 0.400248,-0.489616 -0.150756,-0.777991 c 0.226751,-0.544195 1.143379,-0.602111 1.281467,-1.196695 0.188074,-0.809444 -0.303343,-1.769809 -0.01033,-2.613242 0.4519,-1.3004 1.711026,-2.251577 1.745644,-3.723582 l -0.950699,0.07924 c 0.855077,-1.049335 2.667431,-1.577292 1.742952,-3.169005 l -0.396125,0.47535 -0.158441,0 c -0.305916,-0.64189 -0.791714,-0.708202 -0.792347,-1.505287 0.741627,0.638317 1.510107,0.658678 2.218304,1.426054 0.767214,-0.415299 -0.0052,-2.225513 -0.211623,-2.852104 -0.685693,-2.08283 -1.809897,-4.05728 -3.353757,-5.624986 -0.551962,-0.560503 -0.992931,-1.239193 -1.821942,-1.346829 l 0.07925,-0.23769 c -0.643944,-0.08523 -1.721327,-0.09065 -2.218307,-0.554576 l -0.158442,0 z"
     id="path5519" />
</svg>
