<svg xmlns="http://www.w3.org/2000/svg" xmlns:svg="http://www.w3.org/2000/svg" xmlns:xlink="http://www.w3.org/1999/xlink" id="svg2" width="48" height="48" version="1.1" viewBox="0 0 13.547 13.547"><metadata id="metadata113"/><defs id="defs4"><linearGradient id="0"><stop id="stop7" stop-color="#2b9217"/><stop id="stop9" offset="1" stop-color="#76b946"/></linearGradient><clipPath id="clipPath11"><rect id="rect13" width="44" height="44" x="2" y="1006.36" fill="none" rx="4"/></clipPath><linearGradient id="1" x2="0" y1="1050.36" y2="1006.36" gradientTransform="matrix(0.28222223,0,0,0.28222223,0,-283.45331)" gradientUnits="userSpaceOnUse" xlink:href="#0"/><clipPath id="clipPath16"><rect id="rect18" width="44" height="44" x="2" y="1006.36" fill="none" rx="4"/></clipPath><clipPath id="2"><rect id="rect21" width="12.418" height="12.418" x=".564" y=".564" fill="url(#1)" rx="1.129"/></clipPath><radialGradient id="radial0" cx="148.004" cy="160" r="128" gradientTransform="matrix(0.1831,0,0,0.1831,-3.10029,-5.29688)" gradientUnits="userSpaceOnUse"><stop id="stop7-7" offset="0" stop-color="#b7d6e2"/><stop id="stop9-4" offset="1" stop-color="#0677cd"/></radialGradient><radialGradient id="radialGradient3047" cx="148.004" cy="160" r="128" gradientTransform="matrix(0.05167489,0,0,0.05167489,-0.87511151,-1.494761)" gradientUnits="userSpaceOnUse" xlink:href="#radial0"/></defs><path id="path11" fill="url(#radialGradient3047)" d="m 13.387776,3.2589211 0,7.0290969 c 0,2.892778 0,3.100035 -3.100035,3.100035 l -7.0279945,0 c -3.10113721,0 -3.10113721,-0.207257 -3.10113721,-3.100035 l 0,-7.0290969 c 0,-2.89277788 0,-3.10003483 3.10113721,-3.10003483 l 7.0279945,0 c 3.100035,0 3.100035,0.20725695 3.100035,3.10003483 z"/><path id="path15" fill="#fff" fill-opacity=".051" d="m 10.799269,13.388053 c 0.717682,-0.0033 1.235825,-0.02315 1.611753,-0.124575 l -1.193932,-2.046111 -1.2655898,2.170686 0.3362408,0 c 0.180799,0 0.350573,0 0.511528,0 z M 11.21709,11.217367 9.7707016,8.7368986 8.3232103,11.217367 z m 0,0 2.159662,0 c 0.0088,-0.274505 0.01102,-0.582083 0.01102,-0.930451 l 0,-0.3097829 -0.723194,-1.2402345 z M 12.664582,8.7368986 11.21709,6.2564299 9.7707016,8.7368986 z m 0,0 0.723194,0 0,-1.2402343 z m -2.8938804,0 L 8.3232103,6.2564299 6.8768214,8.7368986 z m -2.8938802,0 -1.4474916,2.4804684 2.8938805,0 z m 0,0 L 5.4293298,6.2564299 3.9829409,8.7368986 z m -2.8938805,0 -1.4474913,2.4804684 2.8938802,0 z m 0,0 L 2.5354496,6.2564299 1.0890607,8.7368986 z m -2.8938802,0 -0.93045141,1.5941144 c 0,0.329627 0.00331,0.623976 0.011024,0.886354 l 2.36581611,0 z m 0,0 -0.93045141,-1.5941145 0,1.5941145 z m 1.4463889,2.4804684 -1.2170833,2.086901 c 0.450894,0.08268 1.0748699,0.08379 1.9402778,0.08379 l 0.5434982,0 z m 0,-4.9609371 -1.4463889,-2.4804689 -0.93045141,1.5941147 0,0.8863542 z m 0,0 2.8938802,0 L 3.9829409,3.775961 z M 3.9829409,3.775961 2.5354496,1.2954923 1.0890607,3.775961 z m 0,0 2.8938805,0 -1.4474916,-2.4804687 z m 1.4463889,-2.4804687 -0.663663,-1.13660603 -1.5070227,0 c -0.020946,0 -0.038585,0 -0.059531,0 L 2.5354496,1.2954923 z m 0,0 2.8938805,0 -0.6636633,-1.13660603 -1.5665538,0 z m 2.8938805,0 2.8938797,0 -0.663663,-1.13660603 c -0.0882,0 -0.171979,0 -0.266788,0 l -1.2997656,0 z m 0,0 -1.4463889,2.4804687 2.8938802,0 z m 1.4474913,2.4804687 2.8938804,0 -1.447492,-2.4804687 z m 0,0 -1.4474913,2.4804689 2.8938797,0 z m 1.4463884,2.4804689 2.170686,0 0,-1.2402343 -0.723194,-1.2402346 z m 1.447492,-2.4804689 0.723194,0 0,-0.5170399 c 0,-0.2579689 -0.0022,-0.4938889 -0.0066,-0.71217 z M 8.3232103,6.2564299 6.8768214,3.775961 5.4293298,6.2564299 z m 2.8938797,-4.9609376 2.062648,0 C 13.123193,0.51717614 12.747264,0.27133433 11.859807,0.19416405 z m -8.6816404,0 L 1.8850157,0.17983252 C 0.85203809,0.23826127 0.43421679,0.46095211 0.26664739,1.2954923 z M 1.0890607,3.775961 0.17514589,2.2083048 c -0.012127,0.3031685 -0.016537,0.6515363 -0.016537,1.0506163 l 0,0.5170399 z m 4.3402691,7.441406 -1.2655903,2.170686 2.532283,0 z m 2.8938805,0 -1.2655906,2.170686 2.5322833,0 z m -7.59133711,1.86862 -0.4519964,-0.775009 c 0.082682,0.371519 0.2215885,0.615157 0.4519964,0.775009 z"/><g id="g3029" transform="matrix(0.22577658,0,0,0.2257295,1.3545429,1.3559543)"><path id="path17" fill="#fff" d="m 7.503906,15.796875 0.035156,2.34375 33.050782,0 -0.03516,-2.34375 z"/><path id="path19" fill="#fff" d="m 6.128906,22.828125 0,2.34375 35.742188,0 0,-2.34375 z"/><path id="path21" fill="#fff" d="m 7.59375,29.859375 0,2.34375 32.8125,0 0,-2.34375 z"/><path id="path23" fill="#fff" d="m 22.828125,6.136719 0,35.765625 2.34375,0 0,-35.765625 z"/><g id="g3016"><g id="g25" fill="none" stroke="#fff"><g id="g27" stroke-width="12.5"><path id="path29" d="m 89.770833,7.729167 c -22.875,-52.5 -21.125,-118.374997 0,-175.770837" transform="matrix(0.1875,0,0,0.1875,0,39)"/><path id="path31" d="m 166.22917,7.729167 c 22.875,-52.5 21.125,-118.374997 0,-175.770837" transform="matrix(0.1875,0,0,0.1875,0,39)"/></g><g id="g33"><path id="path35" stroke-linecap="round" stroke-width="1.214" d="m 33.05725,27.317134 c 0,5.029455 -4.074547,9.106025 -9.104002,9.106025 -5.029455,0 -9.104002,-4.07657 -9.104002,-9.106025 0,-5.029455 4.074547,-9.106025 9.104002,-9.106025 5.029455,0 9.104002,4.07657 9.104002,9.106025 z" transform="matrix(1.93081,0,0,1.93081,-22.24924,-28.74428)"/></g></g></g></g></svg>