<svg xmlns="http://www.w3.org/2000/svg" xmlns:svg="http://www.w3.org/2000/svg" xmlns:xlink="http://www.w3.org/1999/xlink" id="svg2" width="48" height="48" version="1.1"><metadata id="metadata34"/><defs id="defs4"><linearGradient id="0" x2="0" y1="1050.36" y2="1006.36" gradientUnits="userSpaceOnUse" xlink:href="#1"/><linearGradient id="1"><stop id="stop8" stop-color="#1c637c"/><stop id="stop10" offset="1" stop-color="#7fb1c2"/></linearGradient><linearGradient id="linearGradient3011" x2="0" y1="1050.36" y2="1006.36" gradientUnits="userSpaceOnUse" xlink:href="#1"/><linearGradient id="linearGradient3015" x2="0" y1="1050.36" y2="1006.36" gradientTransform="translate(0,-1004.3622)" gradientUnits="userSpaceOnUse" xlink:href="#1"/><radialGradient id="radialGradient3036" cx="148.004" cy="160" r="128" gradientTransform="matrix(0.1831,0,0,0.1831,-3.100791,-5.2963979)" gradientUnits="userSpaceOnUse" xlink:href="#radial0"/><radialGradient id="radial0" cx="148.004" cy="160" r="128" gradientTransform="matrix(0.1831,0,0,0.1831,-3.10029,-5.29688)" gradientUnits="userSpaceOnUse"><stop id="stop7" offset="0" stop-color="#7f9fd0" stop-opacity="1"/><stop id="stop9" offset="1" stop-color="#2d4c7b" stop-opacity="1"/></radialGradient><radialGradient id="radialGradient3016" cx="148.004" cy="160" r="128" gradientTransform="matrix(0.1831,0,0,0.1831,-3.100791,-5.296398)" gradientUnits="userSpaceOnUse" xlink:href="#radial0"/></defs><path id="path11" fill="url(#radialGradient3016)" d="m 47.437,11.547357 0,24.90625 c 0,10.25 0,10.984375 -10.984375,10.984375 l -24.902344,0 C 0.562,47.437982 0.562,46.703607 0.562,36.453607 l 0,-24.90625 c 0,-10.25 0,-10.984375 10.988281,-10.984375 l 24.902344,0 C 47.437,0.562982 47.437,1.297357 47.437,11.547357 z"/><path id="path15" fill="#fff" fill-opacity=".051" d="m 38.265125,47.437982 c 2.542968,-0.01169 4.378908,-0.08203 5.710936,-0.441407 l -4.230467,-7.249999 -4.484375,7.691406 1.191406,0 c 0.640626,0 1.242187,0 1.8125,0 z m 1.480469,-7.691406 -5.124999,-8.789063 -5.128908,8.789063 z m 0,0 7.652345,0 c 0.03118,-0.972656 0.03905,-2.062499 0.03905,-3.296874 l 0,-1.097658 -2.562498,-4.394531 z m 5.128908,-8.789063 -5.128908,-8.789062 -5.124999,8.789062 z m 0,0 2.562498,0 0,-4.394531 z m -10.253907,0 -5.128908,-8.789062 -5.124999,8.789062 z m -10.253907,0 -5.128907,8.789063 10.253906,0 z m 0,0 -5.128907,-8.789062 -5.125,8.789062 z m -10.253907,0 -5.128907,8.789063 10.253907,0 z m 0,0 -5.128907,-8.789062 -5.124999,8.789062 z m -10.253906,0 L 0.562,36.605951 c 0,1.16797 0.01173,2.210939 0.03906,3.140625 l 8.382813,0 z m 0,0 -3.296875,-5.648437 0,5.648437 z m 5.124999,8.789063 -4.312499,7.39453 C 6.269031,47.434067 8.479969,47.438 11.550281,47.438 l 1.921875,0 z m 0,-17.578125 -5.124999,-8.789063 -3.296875,5.648438 0,3.140625 z m 0,0 10.253907,0 -5.125,-8.789063 z M 14.112781,13.379388 8.983874,4.5903259 3.858875,13.379388 z m 0,0 10.253907,0 -5.128907,-8.7890621 z m 5.125,-8.7890621 -2.351562,-4.0273439 -5.335938,0 c -0.07813,0 -0.140627,0 -0.214845,0 L 8.983874,4.5903259 z m 0,0 10.253906,0 -2.351562,-4.0273439 -5.550781,0 z m 10.253906,0 10.253907,0 -2.351562,-4.0273439 c -0.31252,0 -0.609375,0 -0.941407,0 l -4.609376,0 z m 0,0 -5.124999,8.7890621 10.253907,0 z m 5.128908,8.7890621 10.253907,0 -5.128908,-8.7890621 z m 0,0 -5.128908,8.789063 10.253907,0 z m 5.124999,8.789063 7.691406,0 0,-4.394531 -2.562498,-4.394532 z m 5.128908,-8.789063 2.562498,0 0,-1.832031 c 0,-0.914063 -0.0078,-1.7500003 -0.02338,-2.5234373 z m -15.382815,8.789063 -5.124999,-8.789063 -5.128907,8.789063 z m 10.253907,-17.5781251 7.308595,0 C 46.499502,1.832513 45.16747,0.96142 42.022937,0.687982 z m -30.76172,0 L 6.679187,0.637201 C 3.019031,0.844232 1.538562,1.633294 0.944812,4.5903259 z M 3.858875,13.379388 0.620593,7.8247007 c -0.04297,1.074219 -0.05859,2.3085933 -0.05859,3.7226563 l 0,1.832031 z m 15.378906,26.367188 -4.484375,7.691406 8.972656,0 z m 10.253906,0 -4.484375,7.691406 8.972657,0 z M 2.59325,46.36767 0.991688,43.621575 c 0.292967,1.316406 0.785156,2.17969 1.601562,2.746095 z"/><path id="path30" fill="#f9f9f9" fill-rule="evenodd" d="m 23.000001,11 0,10.3648 -5.953805,-4.3334 -1.937501,1.5357 L 22.220108,24 15,29.4329 l 2.260871,1.6981 5.73913,-4.45 0,10.319 L 33,29.4329 26.21467,24.0867 32.782607,18.8135 z M 25,16 29,18.5 25,21 z m 0,11 4,2.5 -4,2.5 z"/></svg>