<?xml version="1.0" encoding="UTF-8" standalone="no"?>
<svg
   xmlns:dc="http://purl.org/dc/elements/1.1/"
   xmlns:cc="http://creativecommons.org/ns#"
   xmlns:rdf="http://www.w3.org/1999/02/22-rdf-syntax-ns#"
   xmlns:svg="http://www.w3.org/2000/svg"
   xmlns="http://www.w3.org/2000/svg"
   xmlns:sodipodi="http://sodipodi.sourceforge.net/DTD/sodipodi-0.dtd"
   xmlns:inkscape="http://www.inkscape.org/namespaces/inkscape"
   width="48"
   height="48"
   viewBox="0 0 48 48"
   id="svg2"
   version="1.1"
   inkscape:version="0.48.4 r9939"
   sodipodi:docname="budgie.svg">
  <defs
     id="defs7" />
  <metadata
     id="metadata35">
    <rdf:RDF>
      <cc:Work
         rdf:about="">
        <dc:format>image/svg+xml</dc:format>
        <dc:type
           rdf:resource="http://purl.org/dc/dcmitype/StillImage" />
        <dc:title></dc:title>
      </cc:Work>
    </rdf:RDF>
  </metadata>
  <sodipodi:namedview
     pagecolor="#ffffff"
     bordercolor="#666666"
     borderopacity="1"
     objecttolerance="10"
     gridtolerance="10"
     guidetolerance="10"
     inkscape:pageopacity="0"
     inkscape:pageshadow="2"
     inkscape:window-width="1024"
     inkscape:window-height="697"
     id="namedview33"
     showgrid="false"
     inkscape:zoom="4.9166668"
     inkscape:cx="13.388709"
     inkscape:cy="22.89898"
     inkscape:window-x="0"
     inkscape:window-y="24"
     inkscape:window-maximized="1"
     inkscape:current-layer="svg2"
     showguides="true"
     inkscape:guide-bbox="true" />
  <path
     fill="#808080"
     d="M 47.4375 11.546875 L 47.4375 36.453125 C 47.4375 46.703125 47.4375 47.4375 36.453125 47.4375 L 11.550781 47.4375 C 0.5625 47.4375 0.5625 46.703125 0.5625 36.453125 L 0.5625 11.546875 C 0.5625 1.296875 0.5625 0.5625 11.550781 0.5625 L 36.453125 0.5625 C 47.4375 0.5625 47.4375 1.296875 47.4375 11.546875 Z "
     id="path11"
     style="fill:#db3434;fill-opacity:1" />
  <path
     inkscape:connector-curvature="0"
     id="path15"
     d="m 38.265625,47.4375 c 2.542969,-0.01172 4.378906,-0.08203 5.710937,-0.441406 l -4.230468,-7.25 -4.484375,7.691406 1.191406,0 c 0.640625,0 1.242187,0 1.8125,0 z m 1.480469,-7.691406 -5.125,-8.789063 -5.128906,8.789063 z m 0,0 7.652344,0 c 0.03125,-0.972656 0.03906,-2.0625 0.03906,-3.296875 l 0,-1.097657 -2.5625,-4.394531 z m 5.128906,-8.789063 -5.128906,-8.789062 -5.125,8.789062 z m 0,0 2.5625,0 0,-4.394531 z m -10.253906,0 -5.128906,-8.789062 -5.125,8.789062 z m -10.253906,0 -5.128907,8.789063 10.253907,0 z m 0,0 -5.128907,-8.789062 -5.125,8.789062 z m -10.253907,0 -5.128906,8.789063 10.253906,0 z m 0,0 -5.128906,-8.789062 -5.125,8.789062 z m -10.253906,0 -3.296875,5.648438 c 0,1.167969 0.011719,2.210937 0.039062,3.140625 l 8.382813,0 z m 0,0 -3.296875,-5.648437 0,5.648437 z m 5.125,8.789063 -4.3125,7.394531 c 1.597656,0.292969 3.808594,0.296875 6.878906,0.296875 l 1.921875,0 z m 0,-17.578125 -5.125,-8.789063 -3.296875,5.648438 0,3.140625 z m 0,0 10.253906,0 -5.125,-8.789063 z m 5.128906,-8.789063 -5.128906,-8.789062 -5.125,8.789062 z m 0,0 10.253907,0 -5.128907,-8.789062 z m 5.125,-8.789062 -2.351562,-4.027344 -5.335938,0 c -0.07813,0 -0.140625,0 -0.214843,0 L 8.984375,4.589844 z m 0,0 10.253907,0 -2.351563,-4.027344 -5.550781,0 z m 10.253907,0 10.253906,0 L 37.394531,0.5625 c -0.3125,0 -0.609375,0 -0.941406,0 l -4.609375,0 z m 0,0 -5.125,8.789062 10.253906,0 z m 5.128906,8.789062 10.253906,0 -5.128906,-8.789062 z m 0,0 -5.128906,8.789063 10.253906,0 z m 5.125,8.789063 7.691406,0 0,-4.394531 -2.5625,-4.394532 z m 5.128906,-8.789063 2.5625,0 0,-1.832031 c 0,-0.914063 -0.0078,-1.75 -0.02344,-2.523437 z m -15.382812,8.789063 -5.125,-8.789063 -5.128907,8.789063 z m 10.253906,-17.578125 7.308594,0 C 46.5,1.832031 45.167969,0.960938 42.023438,0.6875 z m -30.761719,0 L 6.679688,0.636719 C 3.019531,0.84375 1.539062,1.632812 0.945312,4.589844 z m -5.125,8.789062 L 0.621094,7.824219 C 0.578125,8.898438 0.5625,10.132812 0.5625,11.546875 l 0,1.832031 z m 15.378906,26.367188 -4.484375,7.691406 8.972656,0 z m 10.253907,0 -4.484376,7.691406 8.972657,0 z M 2.59375,46.367188 0.992188,43.621094 c 0.292968,1.316406 0.785156,2.179687 1.601562,2.746094 z"
     style="fill:#ffffff;fill-opacity:0.07058824" />
  <path
     style="fill:#f9f9f9"
     inkscape:connector-curvature="0"
     d="m 26.632183,10.994695 c -0.169898,0 -0.355729,0.04397 -0.515011,0.141732 -0.159279,0.09776 -0.297323,0.263906 -0.292015,0.478967 0.02122,0.0782 0.01059,0.151512 0.0053,0.234567 0,0.239457 0.212379,0.43498 0.477843,0.43498 0.26016,0 0.472534,-0.195485 0.472534,-0.43498 0,-0.239457 -0.207064,-0.434977 -0.467225,-0.439866 0.09026,-0.05375 0.222995,-0.08309 0.318565,-0.08798 0.376964,0 0.653052,0.195485 0.854808,0.488743 0.201756,0.293244 0.302634,0.684233 0.297326,1.001915 -0.01595,0.791756 -0.440678,1.461327 -1.072493,1.969618 -0.626506,0.513177 -1.460078,0.860184 -2.251174,0.99703 l 0.06371,0.322547 c 0.854821,-0.146622 1.741487,-0.513173 2.426396,-1.070337 0.68491,-0.557164 1.173372,-1.314709 1.19461,-2.213989 0.0053,-0.386103 -0.106172,-0.825973 -0.355714,-1.182748 -0.244251,-0.361623 -0.642451,-0.640205 -1.15746,-0.640205 z"
     id="path8220" />
  <path
     style="fill:#f9f9f9"
     inkscape:connector-curvature="0"
     d="m 21.38652,10.994695 c 0.169898,0 0.355729,0.04397 0.51501,0.141732 0.159279,0.09776 0.297323,0.263906 0.292015,0.478967 -0.02122,0.0782 -0.01059,0.151512 -0.0053,0.234567 0,0.239457 -0.212379,0.43498 -0.477843,0.43498 -0.260157,0 -0.472534,-0.195485 -0.472534,-0.43498 0,-0.239457 0.207064,-0.434977 0.467225,-0.439866 -0.09027,-0.05375 -0.223005,-0.08309 -0.318572,-0.08798 -0.376964,0 -0.653051,0.195485 -0.854808,0.488743 -0.201761,0.293244 -0.302639,0.684233 -0.297327,1.001915 0.01591,0.791756 0.440678,1.461327 1.072494,1.969618 0.626505,0.513177 1.460078,0.860184 2.251174,0.99703 l -0.06371,0.322547 c -0.854809,-0.146622 -1.741475,-0.513173 -2.426384,-1.070337 -0.684909,-0.557164 -1.173372,-1.314709 -1.19461,-2.213989 -0.0053,-0.386103 0.106193,-0.825973 0.355729,-1.182748 0.244233,-0.361669 0.642433,-0.640251 1.157442,-0.640251 z"
     id="path8222" />
  <path
     style="fill:#f9f9f9"
     inkscape:connector-curvature="0"
     d="m 23.665239,14.150858 c -2.033489,0.08309 -4.001085,1.020156 -5.3125,2.4375 -0.6796,0.679351 -1.332984,1.444469 -1.625,2.34375 0.0053,0.141732 0.05126,0.269393 0.09375,0.40625 -0.435368,0.02941 -0.947366,-0.03942 -1.25,0.3125 -0.546866,0.557167 -0.697973,1.347016 -0.96875,2.03125 -1.226465,3.905033 -0.58096,8.368956 2.03125,11.6875 1.417603,1.783899 3.521735,3.169585 5.9375,3.53125 0.403512,0.03402 0.878344,0.13302 1.25,-0.0625 0.138044,-0.107539 0.320693,-0.04972 0.4375,0.0625 0.504391,0.239457 1.073431,0.0012 1.59375,-0.0625 2.468858,-0.498515 4.578906,-2.054813 5.90625,-4 2.458237,-3.494324 2.867539,-8.068611 1.34375,-11.96875 -0.201756,-0.464304 -0.383047,-0.986971 -0.78125,-1.34375 -0.265468,-0.171071 -0.618939,-0.230441 -0.9375,-0.25 0.207064,-0.390993 0.08919,-0.843454 -0.21875,-1.15625 -1.109666,-1.671488 -2.773095,-3.120564 -4.84375,-3.6875 -0.870738,-0.224823 -1.758965,-0.28614 -2.65625,-0.28125 z m -6.4375,6.0625 0.28125,1.0625 1.09375,0.375 -1,0.5625 -0.0625,1.09375 -0.875,-0.71875 -1.15625,0.3125 0.46875,-1.03125 -0.59375,-0.8125 c 0.0084,-0.02138 0.02275,-0.0412 0.03125,-0.0625 l 1.0625,0.0625 0.75,-0.84375 z m 3.65625,1.03125 2.125,2.21875 0.6875,-0.0625 2.46875,-0.28125 -1.625,2.5 1.3125,2.65625 -2.15625,-0.4375 -0.9375,-0.1875 -2.34375,1.96875 -0.28125,-2.90625 -2.78125,-1.4375 2.90625,-1.15625 0.625,-2.875 z m 9.5625,1.34375 0.28125,1.03125 1.09375,0.375 -1,0.5625 -0.0625,1.09375 -0.875,-0.6875 -1.125,0.28125 0.4375,-1 -0.65625,-0.90625 1.1875,0.0625 0.71875,-0.8125 z m -14.125,5.15625 0.875,1.65625 2,0.25 -1.4375,1.28125 0.34375,1.8125 -1.78125,-0.84375 -0.40625,0.15625 c -0.469391,-0.769827 -0.805738,-1.475188 -1.09375,-2.375 l 0.625,-0.28125 0.875,-1.65625 z m 14.59375,0.15625 0.5,2.375 1.21875,0.46875 c -0.564874,1.257839 -1.364543,2.465524 -2.28125,3.375 l -1,-0.875 -2.59375,0.53125 1.09375,-2.21875 -1.34375,-2.125 2.625,0.28125 1.78125,-1.8125 z m -8.78125,4.96875 0.28125,1.03125 1.09375,0.40625 -1,0.5625 -0.03125,1.0625 -0.90625,-0.6875 -1.125,0.28125 0.4375,-1 -0.65625,-0.90625 1.1875,0.09375 0.71875,-0.84375 z"
     id="path8224" />
  <path
     style="fill:#f9f9f9"
     inkscape:connector-curvature="0"
     d="m 23.919092,14.621141 c -0.01059,0 -0.02654,0 -0.04247,0.005 -0.711456,0.04886 -1.43884,0.112395 -2.11844,0.332363 -1.943231,0.625585 -3.424545,2.08203 -4.438636,3.694872 -0.153971,0.249272 -0.04779,0.596261 0.265468,0.620699 2.176843,0.005 4.353685,0 6.530529,0.005 0,0 0,0 0.0053,0 2.176843,-0.005 4.353686,0 6.530529,-0.005 0.313254,-0.02445 0.41944,-0.371441 0.265469,-0.620699 -1.0194,-1.612842 -2.500714,-3.069287 -4.443946,-3.694872 -0.6796,-0.219933 -1.406983,-0.283464 -2.11844,-0.332362 -0.180514,-0.01453 -0.148663,0.03908 -0.233614,0.03908 -0.08495,-0.005 -0.05309,-0.04886 -0.201755,-0.04397 z"
     id="path8226" />
  <g
     style="fill:#f9f9f9;fill-rule:evenodd"
     transform="matrix(1.3591995,0,0,1.2511734,-1.8154389,0.22287444)"
     id="g8228">
    <path
       inkscape:connector-curvature="0"
       d="m 22.785156,14.40625 c 0,1.65625 -1.671875,3 -3.734375,3 -2.0625,0 -3.734375,-1.34375 -3.734375,-3 0,-1.65625 1.671875,-2.996094 3.734375,-2.996094 2.0625,0 3.734375,1.339844 3.734375,2.996094 z"
       id="path8230" />
    <path
       inkscape:connector-curvature="0"
       d="m 17.523438,9.195312 c 0,0.117188 -0.09375,0.214844 -0.207032,0.214844 -0.113281,0 -0.203125,-0.097656 -0.203125,-0.214844 0,-0.117187 0.08984,-0.214843 0.203125,-0.214843 0.113282,0 0.207032,0.097656 0.207032,0.214843 z"
       id="path8232" />
    <path
       inkscape:connector-curvature="0"
       d="m 20.886719,9.195312 c 0,0.117188 -0.08984,0.214844 -0.203125,0.214844 -0.113282,0 -0.207032,-0.097656 -0.207032,-0.214844 0,-0.117187 0.09375,-0.214843 0.207032,-0.214843 0.113281,0 0.203125,0.097656 0.203125,0.214843 z"
       id="path8234" />
  </g>
</svg>
