<svg xmlns="http://www.w3.org/2000/svg" xmlns:svg="http://www.w3.org/2000/svg" xmlns:xlink="http://www.w3.org/1999/xlink" id="svg2" width="48" height="48" version="1.1"><metadata id="metadata165"/><defs id="defs4"><linearGradient id="0" x2="0" y1="1050.36" y2="1006.36" gradientUnits="userSpaceOnUse" xlink:href="#1"/><linearGradient id="1"><stop id="stop8" stop-color="#c09089"/><stop id="stop10" offset="1" stop-color="#e6c9c2"/></linearGradient><radialGradient id="radial0" cx="148.004" cy="160" r="128" gradientTransform="matrix(0.1831,0,0,0.1831,-3.10029,-5.29688)" gradientUnits="userSpaceOnUse"><stop id="stop7" offset="0" stop-color="#ebd6c7" stop-opacity="1"/><stop id="stop9" offset="1" stop-color="#ffb682" stop-opacity="1"/></radialGradient><radialGradient id="radialGradient3018" cx="148.004" cy="160" r="128" gradientTransform="matrix(0.1831,0,0,0.1831,-3.10079,-5.29638)" gradientUnits="userSpaceOnUse" xlink:href="#radial0"/><linearGradient id="linearGradient3228" x2="0" y1="1050.36" y2="1006.36" gradientTransform="translate(-65.288136,-1007.2097)" gradientUnits="userSpaceOnUse" xlink:href="#1"/></defs><path id="path11" fill="url(#radialGradient3018)" fill-opacity="1" d="m 47.437,11.547375 0,24.90625 c 0,10.25 0,10.984375 -10.984375,10.984375 l -24.902344,0 C 0.562,47.438 0.562,46.703625 0.562,36.453625 l 0,-24.90625 c 0,-10.25 0,-10.984375 10.988281,-10.984375 l 24.902344,0 C 47.437,0.563 47.437,1.297375 47.437,11.547375 z"/><path id="path15" fill="#fff" fill-opacity=".051" d="m 38.265125,47.438 c 2.542969,-0.01172 4.378906,-0.08203 5.710937,-0.441406 l -4.230468,-7.25 -4.484375,7.691406 1.191406,0 c 0.640625,0 1.242187,0 1.8125,0 z m 1.480469,-7.691406 -5.125,-8.789063 -5.128906,8.789063 z m 0,0 7.652344,0 c 0.03125,-0.972656 0.03906,-2.0625 0.03906,-3.296875 l 0,-1.097657 -2.5625,-4.394531 z m 5.128906,-8.789063 -5.128906,-8.789062 -5.125,8.789062 z m 0,0 2.5625,0 0,-4.394531 z m -10.253906,0 -5.128906,-8.789062 -5.125,8.789062 z m -10.253906,0 -5.128907,8.789063 10.253907,0 z m 0,0 -5.128907,-8.789062 -5.125,8.789062 z m -10.253907,0 -5.128906,8.789063 10.253906,0 z m 0,0 -5.128906,-8.789062 -5.125,8.789062 z m -10.253906,0 L 0.562,36.605969 c 0,1.167969 0.01172,2.210937 0.03906,3.140625 l 8.382813,0 z m 0,0 -3.296875,-5.648437 0,5.648437 z m 5.125,8.789063 -4.3125,7.394531 C 6.269031,47.434094 8.479969,47.438 11.550281,47.438 l 1.921875,0 z m 0,-17.578125 -5.125,-8.789063 -3.296875,5.648438 0,3.140625 z m 0,0 10.253906,0 -5.125,-8.789063 z m 5.128906,-8.789063 -5.128906,-8.789062 -5.125,8.789062 z m 0,0 10.253907,0 -5.128907,-8.789062 z m 5.125,-8.789062 -2.351562,-4.027344 -5.335938,0 c -0.07813,0 -0.140625,0 -0.214843,0 L 8.983875,4.590344 z m 0,0 10.253907,0 -2.351563,-4.027344 -5.550781,0 z m 10.253907,0 10.253906,0 L 37.394031,0.563 c -0.3125,0 -0.609375,0 -0.941406,0 l -4.609375,0 z m 0,0 -5.125,8.789062 10.253906,0 z m 5.128906,8.789062 10.253906,0 -5.128906,-8.789062 z m 0,0 -5.128906,8.789063 10.253906,0 z m 5.125,8.789063 7.691406,0 0,-4.394531 -2.5625,-4.394532 z m 5.128906,-8.789063 2.5625,0 0,-1.832031 c 0,-0.914063 -0.0078,-1.75 -0.02344,-2.523437 z m -15.382812,8.789063 -5.125,-8.789063 -5.128907,8.789063 z m 10.253906,-17.578125 7.308594,0 C 46.4995,1.832531 45.167469,0.961438 42.022938,0.688 z m -30.761719,0 L 6.679188,0.637219 C 3.019031,0.84425 1.538562,1.633312 0.944812,4.590344 z m -5.125,8.789062 -3.238281,-5.554687 c -0.04297,1.074219 -0.05859,2.308593 -0.05859,3.722656 l 0,1.832031 z m 15.378906,26.367188 -4.484375,7.691406 8.972656,0 z m 10.253907,0 -4.484376,7.691406 8.972657,0 z M 2.59325,46.367688 0.991688,43.621594 C 1.284656,44.938 1.776844,45.801281 2.59325,46.367688 z"/><g id="g43" fill="none" fill-opacity="1" stroke="#f9f9f9" stroke-opacity="1" stroke-width="2.364" transform="matrix(3.5435455,0,0,3.5435391,-5.005e-4,-0.00227628)"><g id="g45" fill="none" fill-opacity="1" stroke="#f9f9f9" stroke-opacity="1" transform="matrix(0.03581,0,0,0.03581,2.18934,9.63833)"><path id="path47" fill="none" fill-opacity="1" stroke="#f9f9f9" stroke-opacity="1" d="M 204.40765,10.351689 164.4403,-23.127803 139.99018,-34.716852 125.88394,-64.333336 101.904,-86.223765 l -0.47018,-12.876746 7.99301,-30.904129"/></g><g id="g49" fill="none" fill-opacity="1" stroke="#f9f9f9" stroke-opacity="1" transform="matrix(0.03581,0,0,0.03581,2.18934,9.63833)"><path id="path51" fill="none" fill-opacity="1" stroke="#f9f9f9" stroke-opacity="1" d="m 162.55958,-24.8447 37.61603,-18.456648"/><path id="path53" fill="none" fill-opacity="1" stroke="#f9f9f9" stroke-opacity="1" d="m 155.97712,-28.278499 30.5629,-25.753441"/><path id="path55" fill="none" fill-opacity="1" stroke="#f9f9f9" stroke-opacity="1" d="m 147.51347,-31.712277 -26.33128,18.456631"/><path id="path57" fill="none" fill-opacity="1" stroke="#f9f9f9" stroke-opacity="1" d="m 138.44142,-39.799826 -28.86058,13.112104 -17.315691,-14.341374 -46.17723,2.868284"/><path id="path59" fill="none" fill-opacity="1" stroke="#f9f9f9" stroke-opacity="1" d="m 124.94358,-66.05022 21.62906,-25.753455 41.84807,-27.899595 14.57642,-2.14611 0.47019,0"/><path id="path61" fill="none" fill-opacity="1" stroke="#f9f9f9" stroke-opacity="1" d="m 136.22828,-80.214625 -4.70177,-18.027416 20.68871,-11.159829"/><path id="path63" fill="none" fill-opacity="1" stroke="#f9f9f9" stroke-opacity="1" d="m 143.2814,-104.2512 -0.47018,-18.88585 13.1659,0.85845 37.61602,-32.19182"/><path id="path65" fill="none" fill-opacity="1" stroke="#f9f9f9" stroke-opacity="1" d="m 101.43382,-97.383597 22.56942,-20.602763"/><path id="path67" fill="none" fill-opacity="1" stroke="#f9f9f9" stroke-opacity="1" d="m 100.96364,-93.520573 -20.219,7.726039 -23.509765,-18.456666 -8.463651,-1.28766"/><path id="path69" fill="none" fill-opacity="1" stroke="#f9f9f9" stroke-opacity="1" d="m 102.37418,-102.96351 -32.444074,-17.16898 -19.748354,0.85845 3.291234,-14.59361"/></g></g><path id="use75" fill="none" fill-opacity="1" stroke="#f9f9f9" stroke-opacity="1" stroke-width="1" d="m 11.500026,11.881296 0.298314,24.34632 8.591855,-0.925923 7.995224,1.198254 7.756577,-0.54466 0.357975,-23.747197 -7.637189,-0.653592 -8.591912,1.25272 -8.770844,-0.925922 z"/><path id="use79" fill="none" fill-opacity="1" stroke="#f9f9f9" stroke-opacity="1" stroke-width="1" d="m 20.27087,12.807218 0,22.548942 0,0"/><path id="use81" fill="none" fill-opacity="1" stroke="#f9f9f9" stroke-opacity="1" stroke-width="1" d="m 28.60918,11.500032 0,24.890983"/><g id="g83" fill="#f9f9f9" fill-opacity="1" stroke="#f9f9f9" stroke-opacity="1" transform="matrix(3.5435455,0,0,3.5435391,-5.005e-4,-0.00227628)"><g id="g85" fill="#f9f9f9" fill-opacity="1" stroke="#f9f9f9" stroke-opacity="1" stroke-width="2.587" transform="matrix(0.03581,0,0,0.03581,2.18934,9.63833)"><path id="path87" fill="#f9f9f9" fill-opacity="1" stroke="#f9f9f9" stroke-opacity="1" d="m 17097.22,140.57626 a 9.339,9.8305265 0 1 1 -18.678,0 9.339,9.8305265 0 1 1 18.678,0 z" transform="matrix(0.47831,0,0,0.43662,-7962.9748,-185.37458)"/><path id="path89" fill="#f9f9f9" fill-opacity="1" stroke="#f9f9f9" stroke-opacity="1" d="m 17064.78,167.61017 a 6.8815,8.3561073 0 1 1 -13.763,0 6.8815,8.3561073 0 1 1 13.763,0 z" transform="matrix(0.47831,0,0,0.43662,-7953.5705,-186.66225)"/><path id="path91" fill="#f9f9f9" fill-opacity="1" stroke="#f9f9f9" stroke-opacity="1" d="m 17046.101,147.45763 a 11.79661,10.81356 0 1 1 -23.593,0 11.79661,10.81356 0 1 1 23.593,0 z" transform="matrix(0.47831,0,0,0.43662,-7951.69,-194.3883)"/><path id="path93" fill="#f9f9f9" fill-opacity="1" stroke="#f9f9f9" stroke-opacity="1" d="m 17067.729,110.10169 a 6.8815,8.8476433 0 1 1 -13.763,0 6.8815,8.8476433 0 1 1 13.763,0 z" transform="matrix(0.47831,0,0,0.43662,-7966.7369,-194.3883)"/><path id="path95" fill="#f9f9f9" fill-opacity="1" stroke="#f9f9f9" stroke-opacity="1" d="m 17030.373,110.10169 a 10.322034,9.8305082 0 1 1 -20.644,0 10.322034,9.8305082 0 1 1 20.644,0 z" transform="matrix(0.47831,0,0,0.43662,-7960.154,-200.82665)"/></g><g id="g97" fill="#f9f9f9" fill-opacity="1" stroke="#f9f9f9" stroke-opacity="1" stroke-width="1.182" transform="matrix(0.03581,0,0,0.03581,2.18934,9.63833)"><g id="g99" fill="#f9f9f9" fill-opacity="1" stroke="#f9f9f9" stroke-opacity="1" stroke-width="2.587"><path id="path101" fill="#f9f9f9" fill-opacity="1" stroke="#f9f9f9" stroke-opacity="1" d="m 17026.44,256.57626 a 5.407,4.9154543 0 1 1 -10.814,0 5.407,4.9154543 0 1 1 10.814,0 z" transform="matrix(0.47831,0,0,0.43662,-7954.9819,-159.62112)"/><path id="path103" fill="#f9f9f9" fill-opacity="1" stroke="#f9f9f9" stroke-opacity="1" d="m 17037.254,282.62711 a 10.322034,9.3389826 0 1 1 -20.644,0 10.322034,9.3389826 0 1 1 20.644,0 z" transform="matrix(0.47831,0,0,0.43662,-7954.9819,-183.65768)"/><path id="path105" fill="#f9f9f9" fill-opacity="1" stroke="#f9f9f9" stroke-opacity="1" d="m 17051.016,307.2034 a 9.8305082,10.322034 0 1 1 -19.661,0 9.8305082,10.322034 0 1 1 19.661,0 z" transform="matrix(0.47831,0,0,0.43662,-7972.8503,-190.95449)"/><path id="path107" fill="#f9f9f9" fill-opacity="1" stroke="#f9f9f9" stroke-opacity="1" d="m 17088.373,335.71185 a 11.79661,8.3559322 0 1 1 -23.593,0 11.79661,8.3559322 0 1 1 23.593,0 z" transform="matrix(0.47831,0,0,0.43662,-7960.154,-186.66225)"/><path id="path109" fill="#f9f9f9" fill-opacity="1" stroke="#f9f9f9" stroke-opacity="1" d="m 17035.288,360.77966 a 5.407,3.9323634 0 1 1 -10.814,0 5.407,3.9323634 0 1 1 10.814,0 z" transform="matrix(0.47831,0,0,0.43662,-7990.7165,-262.63495)"/><path id="path111" fill="#f9f9f9" fill-opacity="1" stroke="#f9f9f9" stroke-opacity="1" d="m 17051.016,354.88135 a 8.356,6.8814116 0 1 1 -16.712,0 8.356,6.8814116 0 1 1 16.712,0 z" transform="matrix(0.47831,0,0,0.43662,-7953.1002,-189.23762)"/><path id="path113" fill="#f9f9f9" fill-opacity="1" stroke="#f9f9f9" stroke-opacity="1" d="m 16905.525,414.35593 a 9.339,9.339 0 1 1 -18.678,0 9.339,9.339 0 1 1 18.678,0 z" transform="matrix(0.47831,0,0,0.43662,-7965.3248,-199.53897)"/><path id="path115" fill="#f9f9f9" fill-opacity="1" stroke="#f9f9f9" stroke-opacity="1" d="m 16959.592,339.15256 a 5.4067798,9.8305082 0 1 1 -10.813,0 5.4067798,9.8305082 0 1 1 10.813,0 z" transform="matrix(0.47831,0,0,0.43662,-7982.2542,-157.475)"/><path id="path117" fill="#f9f9f9" fill-opacity="1" stroke="#f9f9f9" stroke-opacity="1" d="m 16923.22,338.66101 a 9.339,7.3728951 0 1 1 -18.678,0 9.339,7.3728951 0 1 1 18.678,0 z" transform="matrix(0.47831,0,0,0.43662,-7898.5572,-307.70348)"/><path id="path119" fill="#f9f9f9" fill-opacity="1" stroke="#f9f9f9" stroke-opacity="1" d="m 16962.541,287.54236 a 8.3559322,9.3389826 0 1 1 -16.711,0 8.3559322,9.3389826 0 1 1 16.711,0 z" transform="matrix(0.47831,0,0,0.43662,-7980.8426,-249.75821)"/><path id="path121" fill="#f9f9f9" fill-opacity="1" stroke="#f9f9f9" stroke-opacity="1" d="m 16931.084,260.01694 a 7.373,9.3391328 0 1 1 -14.746,0 7.373,9.3391328 0 1 1 14.746,0 z" transform="matrix(0.47831,0,0,0.43662,-7943.6969,-229.15544)"/><path id="path123" fill="#f9f9f9" fill-opacity="1" stroke="#f9f9f9" stroke-opacity="1" d="m 16927.152,211.35593 a 8.8475,7.864444 0 1 1 -17.695,0 8.8475,7.864444 0 1 1 17.695,0 z" transform="matrix(0.47831,0,0,0.43662,-7962.9748,-206.83579)"/></g><path id="path125" fill="#f9f9f9" fill-opacity="1" stroke="#f9f9f9" stroke-opacity="1" stroke-width="3.339" d="m 16904.543,131.72882 a 12.779661,9.8305082 0 1 1 -25.559,0 12.779661,9.8305082 0 1 1 25.559,0 z" transform="matrix(0.23915,0,0,0.52395,-3933.3565,-205.8915)"/><path id="path127" fill="#f9f9f9" fill-opacity="1" stroke="#f9f9f9" stroke-opacity="1" stroke-width="2.587" d="m 16769.864,129.27118 a 9.8305082,13.271187 0 1 1 -19.661,0 9.8305082,13.271187 0 1 1 19.661,0 z" transform="matrix(0.47831,0,0,0.43662,-7970.9686,-189.23762)"/><path id="path129" fill="#f9f9f9" fill-opacity="1" stroke="#f9f9f9" stroke-opacity="1" stroke-width="3.473" d="m 16820,191.20338 a 14.746,12.288334 0 1 1 -29.492,0 14.746,12.288334 0 1 1 29.492,0 z" transform="matrix(0.41453,0,0,0.27944,-6912.3898,-164.54861)"/><g id="g131" fill="#f9f9f9" fill-opacity="1" stroke="#f9f9f9" stroke-opacity="1" stroke-width="2.587"><path id="path133" fill="#f9f9f9" fill-opacity="1" stroke="#f9f9f9" stroke-opacity="1" d="m 16774.78,220.69492 a 12.288136,10.322034 0 1 1 -24.576,0 12.288136,10.322034 0 1 1 24.576,0 z" transform="matrix(0.47831,0,0,0.43662,-7967.2071,-193.95907)"/><path id="path135" fill="#f9f9f9" fill-opacity="1" stroke="#f9f9f9" stroke-opacity="1" d="m 16826.881,308.67798 a 8.8475,6.8813885 0 1 1 -17.695,0 8.8475,6.8813885 0 1 1 17.695,0 z" transform="matrix(0.47831,0,0,0.43662,-7992.5969,-275.9409)"/><path id="path137" fill="#f9f9f9" fill-opacity="1" stroke="#f9f9f9" stroke-opacity="1" d="m 16837.695,331.28815 a 6.39,9.8307688 0 1 1 -12.78,0 6.39,9.8307688 0 1 1 12.78,0 z" transform="matrix(0.47831,0,0,0.43662,-8007.1736,-251.47511)"/><path id="path139" fill="#f9f9f9" fill-opacity="1" stroke="#f9f9f9" stroke-opacity="1" d="m 16817.05,382.89832 a 6.39,6.39 0 1 1 -12.78,0 6.39,6.39 0 1 1 12.78,0 z" transform="matrix(0.47831,0,0,0.43662,-7883.0399,-277.65779)"/><path id="path141" fill="#f9f9f9" fill-opacity="1" stroke="#f9f9f9" stroke-opacity="1" d="m 16835.728,393.71185 a 8.8475,8.355972 0 1 1 -17.695,0 8.8475,8.355972 0 1 1 17.695,0 z" transform="matrix(0.47831,0,0,0.43662,-8008.1142,-204.68967)"/></g><path id="path143" fill="#f9f9f9" fill-opacity="1" stroke="#f9f9f9" stroke-opacity="1" stroke-width="4.533" d="m 16793.458,385.35593 a 21.135593,11.79661 0 1 1 -42.271,0 21.135593,11.79661 0 1 1 42.271,0 z" transform="matrix(0.23359,0,0,0.29108,-3865.1119,-143.45367)"/><g id="g145" fill="#f9f9f9" fill-opacity="1" stroke="#f9f9f9" stroke-opacity="1" stroke-width="2.587"><path id="path147" fill="#f9f9f9" fill-opacity="1" stroke="#f9f9f9" stroke-opacity="1" d="m 16796.407,348.98306 a 9.8305082,7.8644066 0 1 1 -19.661,0 9.8305082,7.8644066 0 1 1 19.661,0 z" transform="matrix(0.47831,0,0,0.43662,-7982.723,-197.39286)"/><path id="path149" fill="#f9f9f9" fill-opacity="1" stroke="#f9f9f9" stroke-opacity="1" d="m 16805.255,333.74576 a 6.39,7.3730769 0 1 1 -12.78,0 6.39,7.3730769 0 1 1 12.78,0 z" transform="matrix(0.47831,0,0,0.43662,-7919.7173,-275.9409)"/></g><path id="path151" fill="#f9f9f9" fill-opacity="1" stroke="#f9f9f9" stroke-opacity="1" stroke-width="2.684" d="m 16774.779,341.11865 a 10.322034,7.8644066 0 1 1 -20.644,0 10.322034,7.8644066 0 1 1 20.644,0 z" transform="matrix(0.54664,0,0,0.35476,-9047.5935,-258.9597)"/><g id="g153" fill="#f9f9f9" fill-opacity="1" stroke="#f9f9f9" stroke-opacity="1" stroke-width="2.587"><path id="path155" fill="#f9f9f9" fill-opacity="1" stroke="#f9f9f9" stroke-opacity="1" d="m 16895.696,284.10168 a 6.8815,7.8645714 0 1 1 -13.763,0 6.8815,7.8645714 0 1 1 13.763,0 z" transform="matrix(0.47831,0,0,0.43662,-7958.2729,-246.75363)"/><path id="path157" fill="#f9f9f9" fill-opacity="1" stroke="#f9f9f9" stroke-opacity="1" d="m 17088.373,290 a 11.305085,14.745763 0 1 1 -22.61,0 11.305085,14.745763 0 1 1 22.61,0 z" transform="matrix(0.47831,0,0,0.43662,-7966.2653,-178.93621)"/><path id="path159" fill="#f9f9f9" fill-opacity="1" stroke="#f9f9f9" stroke-opacity="1" d="m 16837.695,146.96609 a 11.79661,7.3728814 0 1 1 -23.593,0 11.79661,7.3728814 0 1 1 23.593,0 z" transform="matrix(0.47831,0,0,0.43662,-7986.9552,-199.9682)"/><path id="path161" fill="#f9f9f9" fill-opacity="1" stroke="#f9f9f9" stroke-opacity="1" d="m 16945.831,414.35593 a 7.8645,6.3899065 0 1 1 -15.729,0 7.8645,6.3899065 0 1 1 15.729,0 z" transform="matrix(0.47831,0,0,0.43662,-7983.1931,-188.80834)"/></g></g></g></svg>