<?xml version="1.0" encoding="UTF-8" standalone="no"?>
<svg
   xmlns:dc="http://purl.org/dc/elements/1.1/"
   xmlns:cc="http://creativecommons.org/ns#"
   xmlns:rdf="http://www.w3.org/1999/02/22-rdf-syntax-ns#"
   xmlns:svg="http://www.w3.org/2000/svg"
   xmlns="http://www.w3.org/2000/svg"
   xmlns:sodipodi="http://sodipodi.sourceforge.net/DTD/sodipodi-0.dtd"
   xmlns:inkscape="http://www.inkscape.org/namespaces/inkscape"
   width="48"
   height="48"
   viewBox="0 0 48 48"
   id="svg2"
   version="1.1"
   inkscape:version="0.48.4 r9939"
   sodipodi:docname="bum.svg">
  <defs
     id="defs7" />
  <metadata
     id="metadata35">
    <rdf:RDF>
      <cc:Work
         rdf:about="">
        <dc:format>image/svg+xml</dc:format>
        <dc:type
           rdf:resource="http://purl.org/dc/dcmitype/StillImage" />
        <dc:title></dc:title>
      </cc:Work>
    </rdf:RDF>
  </metadata>
  <sodipodi:namedview
     pagecolor="#ffffff"
     bordercolor="#666666"
     borderopacity="1"
     objecttolerance="10"
     gridtolerance="10"
     guidetolerance="10"
     inkscape:pageopacity="0"
     inkscape:pageshadow="2"
     inkscape:window-width="1024"
     inkscape:window-height="697"
     id="namedview33"
     showgrid="false"
     inkscape:zoom="2.4583334"
     inkscape:cx="13.388709"
     inkscape:cy="22.89898"
     inkscape:window-x="0"
     inkscape:window-y="24"
     inkscape:window-maximized="1"
     inkscape:current-layer="svg2"
     showguides="true"
     inkscape:guide-bbox="true" />
  <path
     fill="#808080"
     d="M 47.4375 11.546875 L 47.4375 36.453125 C 47.4375 46.703125 47.4375 47.4375 36.453125 47.4375 L 11.550781 47.4375 C 0.5625 47.4375 0.5625 46.703125 0.5625 36.453125 L 0.5625 11.546875 C 0.5625 1.296875 0.5625 0.5625 11.550781 0.5625 L 36.453125 0.5625 C 47.4375 0.5625 47.4375 1.296875 47.4375 11.546875 Z "
     id="path11"
     style="fill:#c09089;fill-opacity:1" />
  <path
     inkscape:connector-curvature="0"
     id="path15"
     d="m 38.265625,47.4375 c 2.542969,-0.01172 4.378906,-0.08203 5.710937,-0.441406 l -4.230468,-7.25 -4.484375,7.691406 1.191406,0 c 0.640625,0 1.242187,0 1.8125,0 z m 1.480469,-7.691406 -5.125,-8.789063 -5.128906,8.789063 z m 0,0 7.652344,0 c 0.03125,-0.972656 0.03906,-2.0625 0.03906,-3.296875 l 0,-1.097657 -2.5625,-4.394531 z m 5.128906,-8.789063 -5.128906,-8.789062 -5.125,8.789062 z m 0,0 2.5625,0 0,-4.394531 z m -10.253906,0 -5.128906,-8.789062 -5.125,8.789062 z m -10.253906,0 -5.128907,8.789063 10.253907,0 z m 0,0 -5.128907,-8.789062 -5.125,8.789062 z m -10.253907,0 -5.128906,8.789063 10.253906,0 z m 0,0 -5.128906,-8.789062 -5.125,8.789062 z m -10.253906,0 -3.296875,5.648438 c 0,1.167969 0.011719,2.210937 0.039062,3.140625 l 8.382813,0 z m 0,0 -3.296875,-5.648437 0,5.648437 z m 5.125,8.789063 -4.3125,7.394531 c 1.597656,0.292969 3.808594,0.296875 6.878906,0.296875 l 1.921875,0 z m 0,-17.578125 -5.125,-8.789063 -3.296875,5.648438 0,3.140625 z m 0,0 10.253906,0 -5.125,-8.789063 z m 5.128906,-8.789063 -5.128906,-8.789062 -5.125,8.789062 z m 0,0 10.253907,0 -5.128907,-8.789062 z m 5.125,-8.789062 -2.351562,-4.027344 -5.335938,0 c -0.07813,0 -0.140625,0 -0.214843,0 L 8.984375,4.589844 z m 0,0 10.253907,0 -2.351563,-4.027344 -5.550781,0 z m 10.253907,0 10.253906,0 L 37.394531,0.5625 c -0.3125,0 -0.609375,0 -0.941406,0 l -4.609375,0 z m 0,0 -5.125,8.789062 10.253906,0 z m 5.128906,8.789062 10.253906,0 -5.128906,-8.789062 z m 0,0 -5.128906,8.789063 10.253906,0 z m 5.125,8.789063 7.691406,0 0,-4.394531 -2.5625,-4.394532 z m 5.128906,-8.789063 2.5625,0 0,-1.832031 c 0,-0.914063 -0.0078,-1.75 -0.02344,-2.523437 z m -15.382812,8.789063 -5.125,-8.789063 -5.128907,8.789063 z m 10.253906,-17.578125 7.308594,0 C 46.5,1.832031 45.167969,0.960938 42.023438,0.6875 z m -30.761719,0 L 6.679688,0.636719 C 3.019531,0.84375 1.539062,1.632812 0.945312,4.589844 z m -5.125,8.789062 L 0.621094,7.824219 C 0.578125,8.898438 0.5625,10.132812 0.5625,11.546875 l 0,1.832031 z m 15.378906,26.367188 -4.484375,7.691406 8.972656,0 z m 10.253907,0 -4.484376,7.691406 8.972657,0 z M 2.59375,46.367188 0.992188,43.621094 c 0.292968,1.316406 0.785156,2.179687 1.601562,2.746094 z"
     style="fill:#ffffff;fill-opacity:0.10196079" />
  <g
     transform="matrix(0.12688582,0,0,0.12688582,7.7577441,34.151736)"
     id="g10019">
    <path
       inkscape:connector-curvature="0"
       style="fill:none"
       d="m 166.59171,-79.986127 0,-97.757763 1.29287,0.2033 c 0.71124,0.11181 13.9838,1.27764 29.49434,2.5907 15.51105,1.31306 28.29666,2.47415 28.41292,2.58019 0.37833,0.34565 -2.53314,185.530212 -2.92295,185.885923 -0.20806,0.190071 -12.95543,1.225299 -28.32774,2.3005 l -27.94944,1.95489 0,-97.75774 z"
       id="path10021" />
  </g>
  <g
     transform="matrix(3.543307,0,0,3.543307,2.4053609e-4,1.7402306e-4)"
     style="fill:#f9f9f9;fill-opacity:1"
     id="g10023">
    <g
       transform="matrix(0.03581,0,0,0.03581,2.18934,9.63833)"
       id="g10025"
       style="fill:#f9f9f9;fill-opacity:1">
      <path
         inkscape:connector-curvature="0"
         d="m 29.493045,-175.50241 2.350881,191.86324 67.708725,-7.2968142 63.006929,9.4429392 61.12625,-4.292242 2.82105,-187.141793 -60.18541,-5.15069 -67.709169,9.87217 -69.119256,-7.29681 z"
         id="path10027"
         style="fill:#f9f9f9;fill-opacity:1" />
    </g>
    <g
       transform="matrix(0.03581,0,0,0.03581,2.18934,9.63833)"
       id="g10029"
       style="fill:#f9f9f9;fill-opacity:1">
      <path
         inkscape:connector-curvature="0"
         d="m 98.612301,-168.2056 0,177.698847 0,0"
         id="path10031"
         style="fill:#f9f9f9;fill-opacity:1" />
      <path
         inkscape:connector-curvature="0"
         d="m 164.32294,-178.50699 0,196.155494"
         id="path10033"
         style="fill:#f9f9f9;fill-opacity:1" />
    </g>
  </g>
  <g
     transform="matrix(3.543307,0,0,3.543307,2.4053609e-4,1.7402306e-4)"
     style="fill:none;fill-opacity:1;stroke:#c09089;stroke-opacity:1;stroke-width:0.21166667000000000;stroke-miterlimit:4;stroke-dasharray:none"
     id="g10035">
    <g
       style="stroke:#c09089;stroke-width:0.21166667000000000;fill:none;fill-opacity:1;stroke-opacity:1;stroke-miterlimit:4;stroke-dasharray:none"
       id="g10037">
      <g
         transform="matrix(0.03581,0,0,0.03581,2.18934,9.63833)"
         id="g10039"
         style="fill:none;fill-opacity:1;stroke:#c09089;stroke-opacity:1;stroke-width:5.91082579999999957;stroke-miterlimit:4;stroke-dasharray:none">
        <path
           inkscape:connector-curvature="0"
           d="M 204.40765,10.351689 164.4403,-23.127803 139.99018,-34.716852 125.88394,-64.333336 101.904,-86.223765 l -0.47018,-12.876746 7.99301,-30.904129"
           id="path10041"
           style="fill:none;fill-opacity:1;stroke:#c09089;stroke-opacity:1;stroke-width:5.91082579999999957;stroke-miterlimit:4;stroke-dasharray:none" />
      </g>
      <g
         transform="matrix(0.03581,0,0,0.03581,2.18934,9.63833)"
         id="g10043"
         style="fill:none;fill-opacity:1;stroke:#c09089;stroke-opacity:1;stroke-width:5.91082579999999957;stroke-miterlimit:4;stroke-dasharray:none">
        <path
           inkscape:connector-curvature="0"
           d="m 162.55958,-24.8447 37.61603,-18.456648"
           id="path10045"
           style="fill:none;fill-opacity:1;stroke:#c09089;stroke-opacity:1;stroke-width:5.91082579999999957;stroke-miterlimit:4;stroke-dasharray:none" />
        <path
           inkscape:connector-curvature="0"
           d="m 155.97712,-28.278499 30.5629,-25.753441"
           id="path10047"
           style="fill:none;fill-opacity:1;stroke:#c09089;stroke-opacity:1;stroke-width:5.91082579999999957;stroke-miterlimit:4;stroke-dasharray:none" />
        <path
           inkscape:connector-curvature="0"
           d="m 147.51347,-31.712277 -26.33128,18.456631"
           id="path10049"
           style="fill:none;fill-opacity:1;stroke:#c09089;stroke-opacity:1;stroke-width:5.91082579999999957;stroke-miterlimit:4;stroke-dasharray:none" />
        <path
           inkscape:connector-curvature="0"
           d="m 138.44142,-39.799826 -28.86058,13.112104 -17.315691,-14.341374 -46.17723,2.868284"
           id="path10051"
           style="fill:none;fill-opacity:1;stroke:#c09089;stroke-opacity:1;stroke-width:5.91082579999999957;stroke-miterlimit:4;stroke-dasharray:none" />
        <path
           inkscape:connector-curvature="0"
           d="m 124.94358,-66.05022 21.62906,-25.753455 41.84807,-27.899595 14.57642,-2.14611 0.47019,0"
           id="path10053"
           style="fill:none;fill-opacity:1;stroke:#c09089;stroke-opacity:1;stroke-width:5.91082579999999957;stroke-miterlimit:4;stroke-dasharray:none" />
        <path
           inkscape:connector-curvature="0"
           d="m 136.22828,-80.214625 -4.70177,-18.027416 20.68871,-11.159829"
           id="path10055"
           style="fill:none;fill-opacity:1;stroke:#c09089;stroke-opacity:1;stroke-width:5.91082579999999957;stroke-miterlimit:4;stroke-dasharray:none" />
        <path
           inkscape:connector-curvature="0"
           d="m 143.2814,-104.2512 -0.47018,-18.88585 13.1659,0.85845 37.61602,-32.19182"
           id="path10057"
           style="fill:none;fill-opacity:1;stroke:#c09089;stroke-opacity:1;stroke-width:5.91082579999999957;stroke-miterlimit:4;stroke-dasharray:none" />
        <path
           inkscape:connector-curvature="0"
           d="m 101.43382,-97.383597 22.56942,-20.602763"
           id="path10059"
           style="fill:none;fill-opacity:1;stroke:#c09089;stroke-opacity:1;stroke-width:5.91082579999999957;stroke-miterlimit:4;stroke-dasharray:none" />
        <path
           inkscape:connector-curvature="0"
           d="m 100.96364,-93.520573 -20.219,7.726039 -23.509765,-18.456666 -8.463651,-1.28766"
           id="path10061"
           style="fill:none;fill-opacity:1;stroke:#c09089;stroke-opacity:1;stroke-width:5.91082579999999957;stroke-miterlimit:4;stroke-dasharray:none" />
        <path
           inkscape:connector-curvature="0"
           d="m 102.37418,-102.96351 -32.444074,-17.16898 -19.748354,0.85845 3.291234,-14.59361"
           id="path10063"
           style="fill:none;fill-opacity:1;stroke:#c09089;stroke-opacity:1;stroke-width:5.91082579999999957;stroke-miterlimit:4;stroke-dasharray:none" />
      </g>
    </g>
    <g
       style="stroke:#c09089;stroke-width:0.21166667000000000;fill:none;fill-opacity:1;stroke-opacity:1;stroke-miterlimit:4;stroke-dasharray:none"
       id="g10065">
      <g
         transform="matrix(0.03581,0,0,0.03581,2.18934,9.63833)"
         id="g10067"
         style="fill:none;fill-opacity:1;stroke:#c09089;stroke-opacity:1;stroke-width:5.91082579999999957;stroke-miterlimit:4;stroke-dasharray:none">
        <path
           inkscape:connector-curvature="0"
           d="m 29.493045,-175.50241 2.350881,191.86324 67.708725,-7.2968142 63.006929,9.4429392 61.12625,-4.292242 2.82105,-187.141793 -60.18541,-5.15069 -67.709169,9.87217 -69.119256,-7.29681 z"
           id="path10069"
           style="fill:none;fill-opacity:1;stroke:#c09089;stroke-opacity:1;stroke-width:5.91082579999999957;stroke-miterlimit:4;stroke-dasharray:none" />
      </g>
      <g
         transform="matrix(0.03581,0,0,0.03581,2.18934,9.63833)"
         id="g10071"
         style="fill:none;fill-opacity:1;stroke:#c09089;stroke-opacity:1;stroke-width:5.91082579999999957;stroke-miterlimit:4;stroke-dasharray:none">
        <path
           inkscape:connector-curvature="0"
           d="m 98.612301,-168.2056 0,177.698847 0,0"
           id="path10073"
           style="fill:none;fill-opacity:1;stroke:#c09089;stroke-opacity:1;stroke-width:5.91082579999999957;stroke-miterlimit:4;stroke-dasharray:none" />
        <path
           inkscape:connector-curvature="0"
           d="m 164.32294,-178.50699 0,196.155494"
           id="path10075"
           style="fill:none;fill-opacity:1;stroke:#c09089;stroke-opacity:1;stroke-width:5.91082579999999957;stroke-miterlimit:4;stroke-dasharray:none" />
      </g>
    </g>
  </g>
  <g
     transform="matrix(3.543307,0,0,3.543307,2.4053609e-4,1.7402306e-4)"
     style="fill:#c09089;stroke:#c09089;fill-opacity:1;stroke-opacity:1"
     id="g10077">
    <g
       style="stroke-width:2.58699988999999997;fill:#c09089;fill-opacity:1;stroke:#c09089;stroke-opacity:1"
       transform="matrix(0.03581,0,0,0.03581,2.18934,9.63833)"
       id="g10079">
      <path
         inkscape:connector-curvature="0"
         d="m 17097.22,140.57626 a 9.339,9.8305265 0 1 1 -18.678,0 9.339,9.8305265 0 1 1 18.678,0 z"
         transform="matrix(0.47831,0,0,0.43662,-7962.9748,-185.37458)"
         id="path10081"
         style="fill:#c09089;fill-opacity:1;stroke:#c09089;stroke-opacity:1" />
      <path
         inkscape:connector-curvature="0"
         d="m 17064.78,167.61017 a 6.8815,8.3561073 0 1 1 -13.763,0 6.8815,8.3561073 0 1 1 13.763,0 z"
         transform="matrix(0.47831,0,0,0.43662,-7953.5705,-186.66225)"
         id="path10083"
         style="fill:#c09089;fill-opacity:1;stroke:#c09089;stroke-opacity:1" />
      <path
         inkscape:connector-curvature="0"
         d="m 17046.101,147.45763 a 11.79661,10.81356 0 1 1 -23.593,0 11.79661,10.81356 0 1 1 23.593,0 z"
         transform="matrix(0.47831,0,0,0.43662,-7951.69,-194.3883)"
         id="path10085"
         style="fill:#c09089;fill-opacity:1;stroke:#c09089;stroke-opacity:1" />
      <path
         inkscape:connector-curvature="0"
         d="m 17067.729,110.10169 a 6.8815,8.8476433 0 1 1 -13.763,0 6.8815,8.8476433 0 1 1 13.763,0 z"
         transform="matrix(0.47831,0,0,0.43662,-7966.7369,-194.3883)"
         id="path10087"
         style="fill:#c09089;fill-opacity:1;stroke:#c09089;stroke-opacity:1" />
      <path
         inkscape:connector-curvature="0"
         d="m 17030.373,110.10169 a 10.322034,9.8305082 0 1 1 -20.644,0 10.322034,9.8305082 0 1 1 20.644,0 z"
         transform="matrix(0.47831,0,0,0.43662,-7960.154,-200.82665)"
         id="path10089"
         style="fill:#c09089;fill-opacity:1;stroke:#c09089;stroke-opacity:1" />
    </g>
    <g
       style="stroke-width:1.18200003999999992;fill:#c09089;fill-opacity:1;stroke:#c09089;stroke-opacity:1"
       transform="matrix(0.03581,0,0,0.03581,2.18934,9.63833)"
       id="g10091">
      <g
         style="stroke-width:2.58699988999999997;fill:#c09089;fill-opacity:1;stroke:#c09089;stroke-opacity:1"
         id="g10093">
        <path
           inkscape:connector-curvature="0"
           d="m 17026.44,256.57626 a 5.407,4.9154543 0 1 1 -10.814,0 5.407,4.9154543 0 1 1 10.814,0 z"
           transform="matrix(0.47831,0,0,0.43662,-7954.9819,-159.62112)"
           id="path10095"
           style="fill:#c09089;fill-opacity:1;stroke:#c09089;stroke-opacity:1" />
        <path
           inkscape:connector-curvature="0"
           d="m 17037.254,282.62711 a 10.322034,9.3389826 0 1 1 -20.644,0 10.322034,9.3389826 0 1 1 20.644,0 z"
           transform="matrix(0.47831,0,0,0.43662,-7954.9819,-183.65768)"
           id="path10097"
           style="fill:#c09089;fill-opacity:1;stroke:#c09089;stroke-opacity:1" />
        <path
           inkscape:connector-curvature="0"
           d="m 17051.016,307.2034 a 9.8305082,10.322034 0 1 1 -19.661,0 9.8305082,10.322034 0 1 1 19.661,0 z"
           transform="matrix(0.47831,0,0,0.43662,-7972.8503,-190.95449)"
           id="path10099"
           style="fill:#c09089;fill-opacity:1;stroke:#c09089;stroke-opacity:1" />
        <path
           inkscape:connector-curvature="0"
           d="m 17088.373,335.71185 a 11.79661,8.3559322 0 1 1 -23.593,0 11.79661,8.3559322 0 1 1 23.593,0 z"
           transform="matrix(0.47831,0,0,0.43662,-7960.154,-186.66225)"
           id="path10101"
           style="fill:#c09089;fill-opacity:1;stroke:#c09089;stroke-opacity:1" />
        <path
           inkscape:connector-curvature="0"
           d="m 17035.288,360.77966 a 5.407,3.9323634 0 1 1 -10.814,0 5.407,3.9323634 0 1 1 10.814,0 z"
           transform="matrix(0.47831,0,0,0.43662,-7990.7165,-262.63495)"
           id="path10103"
           style="fill:#c09089;fill-opacity:1;stroke:#c09089;stroke-opacity:1" />
        <path
           inkscape:connector-curvature="0"
           d="m 17051.016,354.88135 a 8.356,6.8814116 0 1 1 -16.712,0 8.356,6.8814116 0 1 1 16.712,0 z"
           transform="matrix(0.47831,0,0,0.43662,-7953.1002,-189.23762)"
           id="path10105"
           style="fill:#c09089;fill-opacity:1;stroke:#c09089;stroke-opacity:1" />
        <path
           inkscape:connector-curvature="0"
           d="m 16905.525,414.35593 a 9.339,9.339 0 1 1 -18.678,0 9.339,9.339 0 1 1 18.678,0 z"
           transform="matrix(0.47831,0,0,0.43662,-7965.3248,-199.53897)"
           id="path10107"
           style="fill:#c09089;fill-opacity:1;stroke:#c09089;stroke-opacity:1" />
        <path
           inkscape:connector-curvature="0"
           d="m 16959.592,339.15256 a 5.4067798,9.8305082 0 1 1 -10.813,0 5.4067798,9.8305082 0 1 1 10.813,0 z"
           transform="matrix(0.47831,0,0,0.43662,-7982.2542,-157.475)"
           id="path10109"
           style="fill:#c09089;fill-opacity:1;stroke:#c09089;stroke-opacity:1" />
        <path
           inkscape:connector-curvature="0"
           d="m 16923.22,338.66101 a 9.339,7.3728951 0 1 1 -18.678,0 9.339,7.3728951 0 1 1 18.678,0 z"
           transform="matrix(0.47831,0,0,0.43662,-7898.5572,-307.70348)"
           id="path10111"
           style="fill:#c09089;fill-opacity:1;stroke:#c09089;stroke-opacity:1" />
        <path
           inkscape:connector-curvature="0"
           d="m 16962.541,287.54236 a 8.3559322,9.3389826 0 1 1 -16.711,0 8.3559322,9.3389826 0 1 1 16.711,0 z"
           transform="matrix(0.47831,0,0,0.43662,-7980.8426,-249.75821)"
           id="path10113"
           style="fill:#c09089;fill-opacity:1;stroke:#c09089;stroke-opacity:1" />
        <path
           inkscape:connector-curvature="0"
           d="m 16931.084,260.01694 a 7.373,9.3391328 0 1 1 -14.746,0 7.373,9.3391328 0 1 1 14.746,0 z"
           transform="matrix(0.47831,0,0,0.43662,-7943.6969,-229.15544)"
           id="path10115"
           style="fill:#c09089;fill-opacity:1;stroke:#c09089;stroke-opacity:1" />
        <path
           inkscape:connector-curvature="0"
           d="m 16927.152,211.35593 a 8.8475,7.864444 0 1 1 -17.695,0 8.8475,7.864444 0 1 1 17.695,0 z"
           transform="matrix(0.47831,0,0,0.43662,-7962.9748,-206.83579)"
           id="path10117"
           style="fill:#c09089;fill-opacity:1;stroke:#c09089;stroke-opacity:1" />
      </g>
      <path
         inkscape:connector-curvature="0"
         style="stroke-width:3.33899999000000003;fill:#c09089;fill-opacity:1;stroke:#c09089;stroke-opacity:1"
         d="m 16904.543,131.72882 a 12.779661,9.8305082 0 1 1 -25.559,0 12.779661,9.8305082 0 1 1 25.559,0 z"
         transform="matrix(0.23915,0,0,0.52395,-3933.3565,-205.8915)"
         id="path10119" />
      <path
         inkscape:connector-curvature="0"
         style="stroke-width:2.58699988999999997;fill:#c09089;fill-opacity:1;stroke:#c09089;stroke-opacity:1"
         d="m 16769.864,129.27118 a 9.8305082,13.271187 0 1 1 -19.661,0 9.8305082,13.271187 0 1 1 19.661,0 z"
         transform="matrix(0.47831,0,0,0.43662,-7970.9686,-189.23762)"
         id="path10121" />
      <path
         inkscape:connector-curvature="0"
         style="stroke-width:3.47300005000000001;fill:#c09089;fill-opacity:1;stroke:#c09089;stroke-opacity:1"
         d="m 16820,191.20338 a 14.746,12.288334 0 1 1 -29.492,0 14.746,12.288334 0 1 1 29.492,0 z"
         transform="matrix(0.41453,0,0,0.27944,-6912.3898,-164.54861)"
         id="path10123" />
      <g
         style="stroke-width:2.58699988999999997;fill:#c09089;fill-opacity:1;stroke:#c09089;stroke-opacity:1"
         id="g10125">
        <path
           inkscape:connector-curvature="0"
           d="m 16774.78,220.69492 a 12.288136,10.322034 0 1 1 -24.576,0 12.288136,10.322034 0 1 1 24.576,0 z"
           transform="matrix(0.47831,0,0,0.43662,-7967.2071,-193.95907)"
           id="path10127"
           style="fill:#c09089;fill-opacity:1;stroke:#c09089;stroke-opacity:1" />
        <path
           inkscape:connector-curvature="0"
           d="m 16826.881,308.67798 a 8.8475,6.8813885 0 1 1 -17.695,0 8.8475,6.8813885 0 1 1 17.695,0 z"
           transform="matrix(0.47831,0,0,0.43662,-7992.5969,-275.9409)"
           id="path10129"
           style="fill:#c09089;fill-opacity:1;stroke:#c09089;stroke-opacity:1" />
        <path
           inkscape:connector-curvature="0"
           d="m 16837.695,331.28815 a 6.39,9.8307688 0 1 1 -12.78,0 6.39,9.8307688 0 1 1 12.78,0 z"
           transform="matrix(0.47831,0,0,0.43662,-8007.1736,-251.47511)"
           id="path10131"
           style="fill:#c09089;fill-opacity:1;stroke:#c09089;stroke-opacity:1" />
        <path
           inkscape:connector-curvature="0"
           d="m 16817.05,382.89832 a 6.39,6.39 0 1 1 -12.78,0 6.39,6.39 0 1 1 12.78,0 z"
           transform="matrix(0.47831,0,0,0.43662,-7883.0399,-277.65779)"
           id="path10133"
           style="fill:#c09089;fill-opacity:1;stroke:#c09089;stroke-opacity:1" />
        <path
           inkscape:connector-curvature="0"
           d="m 16835.728,393.71185 a 8.8475,8.355972 0 1 1 -17.695,0 8.8475,8.355972 0 1 1 17.695,0 z"
           transform="matrix(0.47831,0,0,0.43662,-8008.1142,-204.68967)"
           id="path10135"
           style="fill:#c09089;fill-opacity:1;stroke:#c09089;stroke-opacity:1" />
      </g>
      <path
         inkscape:connector-curvature="0"
         style="stroke-width:4.53299999000000042;fill:#c09089;fill-opacity:1;stroke:#c09089;stroke-opacity:1"
         d="m 16793.458,385.35593 a 21.135593,11.79661 0 1 1 -42.271,0 21.135593,11.79661 0 1 1 42.271,0 z"
         transform="matrix(0.23359,0,0,0.29108,-3865.1119,-143.45367)"
         id="path10137" />
      <g
         style="stroke-width:2.58699988999999997;fill:#c09089;fill-opacity:1;stroke:#c09089;stroke-opacity:1"
         id="g10139">
        <path
           inkscape:connector-curvature="0"
           d="m 16796.407,348.98306 a 9.8305082,7.8644066 0 1 1 -19.661,0 9.8305082,7.8644066 0 1 1 19.661,0 z"
           transform="matrix(0.47831,0,0,0.43662,-7982.723,-197.39286)"
           id="path10141"
           style="fill:#c09089;fill-opacity:1;stroke:#c09089;stroke-opacity:1" />
        <path
           inkscape:connector-curvature="0"
           d="m 16805.255,333.74576 a 6.39,7.3730769 0 1 1 -12.78,0 6.39,7.3730769 0 1 1 12.78,0 z"
           transform="matrix(0.47831,0,0,0.43662,-7919.7173,-275.9409)"
           id="path10143"
           style="fill:#c09089;fill-opacity:1;stroke:#c09089;stroke-opacity:1" />
      </g>
      <path
         inkscape:connector-curvature="0"
         style="stroke-width:2.68400002000000004;fill:#c09089;fill-opacity:1;stroke:#c09089;stroke-opacity:1"
         d="m 16774.779,341.11865 a 10.322034,7.8644066 0 1 1 -20.644,0 10.322034,7.8644066 0 1 1 20.644,0 z"
         transform="matrix(0.54664,0,0,0.35476,-9047.5935,-258.9597)"
         id="path10145" />
      <g
         style="stroke-width:2.58699988999999997;fill:#c09089;fill-opacity:1;stroke:#c09089;stroke-opacity:1"
         id="g10147">
        <path
           inkscape:connector-curvature="0"
           d="m 16895.696,284.10168 a 6.8815,7.8645714 0 1 1 -13.763,0 6.8815,7.8645714 0 1 1 13.763,0 z"
           transform="matrix(0.47831,0,0,0.43662,-7958.2729,-246.75363)"
           id="path10149"
           style="fill:#c09089;fill-opacity:1;stroke:#c09089;stroke-opacity:1" />
        <path
           inkscape:connector-curvature="0"
           d="m 17088.373,290 a 11.305085,14.745763 0 1 1 -22.61,0 11.305085,14.745763 0 1 1 22.61,0 z"
           transform="matrix(0.47831,0,0,0.43662,-7966.2653,-178.93621)"
           id="path10151"
           style="fill:#c09089;fill-opacity:1;stroke:#c09089;stroke-opacity:1" />
        <path
           inkscape:connector-curvature="0"
           d="m 16837.695,146.96609 a 11.79661,7.3728814 0 1 1 -23.593,0 11.79661,7.3728814 0 1 1 23.593,0 z"
           transform="matrix(0.47831,0,0,0.43662,-7986.9552,-199.9682)"
           id="path10153"
           style="fill:#c09089;fill-opacity:1;stroke:#c09089;stroke-opacity:1" />
        <path
           inkscape:connector-curvature="0"
           d="m 16945.831,414.35593 a 7.8645,6.3899065 0 1 1 -15.729,0 7.8645,6.3899065 0 1 1 15.729,0 z"
           transform="matrix(0.47831,0,0,0.43662,-7983.1931,-188.80834)"
           id="path10155"
           style="fill:#c09089;fill-opacity:1;stroke:#c09089;stroke-opacity:1" />
      </g>
    </g>
  </g>
</svg>
