<?xml version="1.0" encoding="UTF-8" standalone="no"?>
<svg
   xmlns:dc="http://purl.org/dc/elements/1.1/"
   xmlns:cc="http://creativecommons.org/ns#"
   xmlns:rdf="http://www.w3.org/1999/02/22-rdf-syntax-ns#"
   xmlns:svg="http://www.w3.org/2000/svg"
   xmlns="http://www.w3.org/2000/svg"
   xmlns:sodipodi="http://sodipodi.sourceforge.net/DTD/sodipodi-0.dtd"
   xmlns:inkscape="http://www.inkscape.org/namespaces/inkscape"
   width="48"
   height="48"
   viewBox="0 0 48 48"
   id="svg2"
   version="1.1"
   inkscape:version="0.48.4 r9939"
   sodipodi:docname="cacao-oj6.svg">
  <defs
     id="defs7" />
  <metadata
     id="metadata35">
    <rdf:RDF>
      <cc:Work
         rdf:about="">
        <dc:format>image/svg+xml</dc:format>
        <dc:type
           rdf:resource="http://purl.org/dc/dcmitype/StillImage" />
        <dc:title></dc:title>
      </cc:Work>
    </rdf:RDF>
  </metadata>
  <sodipodi:namedview
     pagecolor="#ffffff"
     bordercolor="#666666"
     borderopacity="1"
     objecttolerance="10"
     gridtolerance="10"
     guidetolerance="10"
     inkscape:pageopacity="0"
     inkscape:pageshadow="2"
     inkscape:window-width="1024"
     inkscape:window-height="697"
     id="namedview33"
     showgrid="false"
     inkscape:zoom="6.9532168"
     inkscape:cx="13.388709"
     inkscape:cy="22.89898"
     inkscape:window-x="0"
     inkscape:window-y="24"
     inkscape:window-maximized="1"
     inkscape:current-layer="svg2"
     showguides="true"
     inkscape:guide-bbox="true" />
  <path
     fill="#808080"
     d="M 47.4375 11.546875 L 47.4375 36.453125 C 47.4375 46.703125 47.4375 47.4375 36.453125 47.4375 L 11.550781 47.4375 C 0.5625 47.4375 0.5625 46.703125 0.5625 36.453125 L 0.5625 11.546875 C 0.5625 1.296875 0.5625 0.5625 11.550781 0.5625 L 36.453125 0.5625 C 47.4375 0.5625 47.4375 1.296875 47.4375 11.546875 Z "
     id="path11"
     style="fill:#785424;fill-opacity:1" />
  <path
     inkscape:connector-curvature="0"
     id="path15"
     d="m 38.265625,47.4375 c 2.542969,-0.01172 4.378906,-0.08203 5.710937,-0.441406 l -4.230468,-7.25 -4.484375,7.691406 1.191406,0 c 0.640625,0 1.242187,0 1.8125,0 z m 1.480469,-7.691406 -5.125,-8.789063 -5.128906,8.789063 z m 0,0 7.652344,0 c 0.03125,-0.972656 0.03906,-2.0625 0.03906,-3.296875 l 0,-1.097657 -2.5625,-4.394531 z m 5.128906,-8.789063 -5.128906,-8.789062 -5.125,8.789062 z m 0,0 2.5625,0 0,-4.394531 z m -10.253906,0 -5.128906,-8.789062 -5.125,8.789062 z m -10.253906,0 -5.128907,8.789063 10.253907,0 z m 0,0 -5.128907,-8.789062 -5.125,8.789062 z m -10.253907,0 -5.128906,8.789063 10.253906,0 z m 0,0 -5.128906,-8.789062 -5.125,8.789062 z m -10.253906,0 -3.296875,5.648438 c 0,1.167969 0.011719,2.210937 0.039062,3.140625 l 8.382813,0 z m 0,0 -3.296875,-5.648437 0,5.648437 z m 5.125,8.789063 -4.3125,7.394531 c 1.597656,0.292969 3.808594,0.296875 6.878906,0.296875 l 1.921875,0 z m 0,-17.578125 -5.125,-8.789063 -3.296875,5.648438 0,3.140625 z m 0,0 10.253906,0 -5.125,-8.789063 z m 5.128906,-8.789063 -5.128906,-8.789062 -5.125,8.789062 z m 0,0 10.253907,0 -5.128907,-8.789062 z m 5.125,-8.789062 -2.351562,-4.027344 -5.335938,0 c -0.07813,0 -0.140625,0 -0.214843,0 L 8.984375,4.589844 z m 0,0 10.253907,0 -2.351563,-4.027344 -5.550781,0 z m 10.253907,0 10.253906,0 L 37.394531,0.5625 c -0.3125,0 -0.609375,0 -0.941406,0 l -4.609375,0 z m 0,0 -5.125,8.789062 10.253906,0 z m 5.128906,8.789062 10.253906,0 -5.128906,-8.789062 z m 0,0 -5.128906,8.789063 10.253906,0 z m 5.125,8.789063 7.691406,0 0,-4.394531 -2.5625,-4.394532 z m 5.128906,-8.789063 2.5625,0 0,-1.832031 c 0,-0.914063 -0.0078,-1.75 -0.02344,-2.523437 z m -15.382812,8.789063 -5.125,-8.789063 -5.128907,8.789063 z m 10.253906,-17.578125 7.308594,0 C 46.5,1.832031 45.167969,0.960938 42.023438,0.6875 z m -30.761719,0 L 6.679688,0.636719 C 3.019531,0.84375 1.539062,1.632812 0.945312,4.589844 z m -5.125,8.789062 L 0.621094,7.824219 C 0.578125,8.898438 0.5625,10.132812 0.5625,11.546875 l 0,1.832031 z m 15.378906,26.367188 -4.484375,7.691406 8.972656,0 z m 10.253907,0 -4.484376,7.691406 8.972657,0 z M 2.59375,46.367188 0.992188,43.621094 c 0.292968,1.316406 0.785156,2.179687 1.601562,2.746094 z"
     style="fill:#ffffff;fill-opacity:0.05098039" />
  <g
     transform="matrix(3.543307,0,0,3.543307,-1.0004114,1.0702483e-4)"
     style="fill:#f9f9f9;fill-opacity:1"
     id="g12120">
    <rect
       width="5.2199998"
       x="3.951"
       y="7.9039998"
       rx="1.5"
       height="2.256"
       ry="1.128"
       id="rect12122"
       style="fill:#f9f9f9;fill-opacity:1" />
    <rect
       width="5.2199998"
       x="3.951"
       y="5.9419999"
       height="3.105"
       id="rect12124"
       style="fill:#f9f9f9;fill-opacity:1" />
    <g
       style="line-height:125%;letter-spacing:0;word-spacing:0;fill:#f9f9f9;fill-opacity:1"
       transform="matrix(-0.09145,0,0,0.08874,17.52601,5.8197)"
       id="g12126">
      <path
         inkscape:connector-curvature="0"
         d="m 94.254036,9.800518 c -3.138034,2.6e-5 -5.6185,1.048202 -7.441406,3.144531 -1.809903,2.083354 -2.71485,4.941424 -2.714844,8.574219 -6e-6,3.73699 0.872389,6.627612 2.617187,8.671875 1.757803,2.031254 4.2578,3.046878 7.5,3.046875 1.99217,3e-6 4.264303,-0.35807 6.816407,-1.074219 l 0,2.910157 c -1.979188,0.742187 -4.420592,1.11328 -7.324219,1.113281 -4.205741,-1e-6 -7.454435,-1.276041 -9.746094,-3.828125 -2.278649,-2.552078 -3.417971,-6.178376 -3.417969,-10.878906 -2e-6,-2.942692 0.546872,-5.520814 1.640625,-7.734375 1.106766,-2.213518 2.695306,-3.9192453 4.765625,-5.117188 2.083323,-1.1978883 4.531237,-1.796846 7.34375,-1.796875 2.994773,2.9e-5 5.611958,0.5469035 7.851562,1.640625 l -1.40625,2.851563 c -2.161478,-1.0156 -4.322934,-1.523412 -6.484374,-1.523438"
         id="path12128"
         style="fill:#f9f9f9;fill-opacity:1" />
    </g>
    <g
       transform="matrix(0.05644,0,0,0.04538,-3.85643,2.41087)"
       id="g12130"
       style="fill:#f9f9f9;fill-opacity:1">
      <path
         inkscape:connector-curvature="0"
         d="m 158.27232,21.558036 c 0.13521,-0.428715 -4.98527,1.661465 -7.96875,3.5 -1.48,0.912047 -4.79654,3.937799 -5.65625,5.09375 -0.88834,1.194442 -1.65598,2.549596 -2.1875,3.9375 -0.53146,1.387687 -0.92939,2.897841 -1,4.375 -0.0711,1.487406 0.0852,3.097173 0.5625,4.5 0.49121,1.443628 1.42013,2.791934 2.34375,4.03125 0.94252,1.264624 2.2235,2.316742 3.28125,3.5 1.0328,1.155323 2.21693,2.218273 3,3.53125 0.78778,1.320881 1.40175,2.840514 1.6875,4.34375 0.25756,1.355032 0.16793,2.848022 -0.0625,4.21875 -0.23021,1.369425 -0.68661,2.759708 -1.3125,4 -0.6615,1.310886 -1.52083,2.589376 -2.53125,3.65625 -1.10374,1.165411 -3.92911,2.626722 -3.8125,3.0625 0.10778,0.402803 4.40332,-1.143087 5.8125,-1.75 1.22095,-0.525845 4.44312,-2.364202 5.46875,-3.28125 0.98224,-0.878227 2.00424,-1.76445 2.78125,-2.8125 0.74662,-1.007071 1.48442,-2.176437 1.78125,-3.375 0.32914,-1.328998 0.31311,-2.820674 0.0937,-4.1875 -0.24127,-1.503255 -0.81728,-3.014485 -1.46875,-4.40625 -0.64775,-1.383824 -1.52542,-2.680873 -2.40625,-3.9375 -0.89082,-1.270931 -1.91334,-2.45998 -2.90625,-3.65625 -0.96771,-1.165933 -2.16405,-2.17215 -2.96875,-3.4375 -0.82524,-1.297641 -1.71883,-2.774134 -1.9375,-4.25 -0.20653,-1.394213 0.19887,-2.97165 0.65625,-4.34375 0.47569,-1.427113 1.31341,-2.766985 2.15625,-4.03125 0.78707,-1.180616 1.82918,-2.198126 2.71875,-3.3125 1.30727,-1.637596 3.52596,-3.86203 3.875,-4.96875 z"
         id="path12132"
         style="fill:#f9f9f9;fill-opacity:1" />
      <path
         inkscape:connector-curvature="0"
         d="m 187.17723,21.558036 c 0.13521,-0.428715 -4.98527,1.661465 -7.96875,3.5 -1.48,0.912047 -4.79654,3.937799 -5.65625,5.09375 -0.88834,1.194442 -1.65598,2.549596 -2.1875,3.9375 -0.53146,1.387687 -0.92939,2.897841 -1,4.375 -0.0711,1.487406 0.0852,3.097173 0.5625,4.5 0.49121,1.443628 1.42013,2.791934 2.34375,4.03125 0.94252,1.264624 2.2235,2.316742 3.28125,3.5 1.0328,1.155323 2.21693,2.218273 3,3.53125 0.78778,1.320881 1.40175,2.840514 1.6875,4.34375 0.25756,1.355032 0.16793,2.848022 -0.0625,4.21875 -0.23021,1.369425 -0.68661,2.759708 -1.3125,4 -0.6615,1.310886 -1.52083,2.589376 -2.53125,3.65625 -1.10374,1.165411 -3.92911,2.626722 -3.8125,3.0625 0.10778,0.402803 4.40332,-1.143087 5.8125,-1.75 1.22095,-0.525845 4.44312,-2.364202 5.46875,-3.28125 0.98224,-0.878227 2.00424,-1.76445 2.78125,-2.8125 0.74662,-1.007071 1.48442,-2.176437 1.78125,-3.375 0.32914,-1.328998 0.31311,-2.820674 0.0937,-4.1875 -0.24127,-1.503255 -0.81728,-3.014485 -1.46875,-4.40625 -0.64775,-1.383824 -1.52542,-2.680873 -2.40625,-3.9375 -0.89082,-1.270931 -1.91334,-2.45998 -2.90625,-3.65625 -0.96771,-1.165933 -2.16405,-2.17215 -2.96875,-3.4375 -0.82524,-1.297641 -1.71883,-2.774134 -1.9375,-4.25 -0.20653,-1.394213 0.19887,-2.97165 0.65625,-4.34375 0.47569,-1.427113 1.31341,-2.766985 2.15625,-4.03125 0.78707,-1.180616 1.82918,-2.198126 2.71875,-3.3125 1.30727,-1.637596 3.52596,-3.86203 3.875,-4.96875 z"
         id="path12134"
         style="fill:#f9f9f9;fill-opacity:1" />
      <path
         inkscape:connector-curvature="0"
         d="m 216.08213,21.558036 c 0.13521,-0.428715 -4.98527,1.661465 -7.96875,3.5 -1.48,0.912047 -4.79654,3.937799 -5.65625,5.09375 -0.88834,1.194442 -1.65598,2.549596 -2.1875,3.9375 -0.53146,1.387687 -0.92939,2.897841 -1,4.375 -0.0711,1.487406 0.0852,3.097173 0.5625,4.5 0.49121,1.443628 1.42013,2.791934 2.34375,4.03125 0.94252,1.264624 2.2235,2.316742 3.28125,3.5 1.0328,1.155323 2.21693,2.218273 3,3.53125 0.78778,1.320881 1.40175,2.840514 1.6875,4.34375 0.25756,1.355032 0.16793,2.848022 -0.0625,4.21875 -0.23021,1.369425 -0.68661,2.759708 -1.3125,4 -0.6615,1.310886 -1.52083,2.589376 -2.53125,3.65625 -1.10374,1.165411 -3.92911,2.626722 -3.8125,3.0625 0.10778,0.402803 4.40332,-1.143087 5.8125,-1.75 1.22095,-0.525845 4.44312,-2.364202 5.46875,-3.28125 0.98224,-0.878227 2.00424,-1.76445 2.78125,-2.8125 0.74662,-1.007071 1.48442,-2.176437 1.78125,-3.375 0.32914,-1.328998 0.31311,-2.820674 0.0937,-4.1875 -0.24127,-1.503255 -0.81728,-3.014485 -1.46875,-4.40625 -0.64775,-1.383824 -1.52542,-2.680873 -2.40625,-3.9375 -0.89082,-1.270931 -1.91334,-2.45998 -2.90625,-3.65625 -0.96771,-1.165933 -2.16405,-2.17215 -2.96875,-3.4375 -0.82524,-1.297641 -1.71883,-2.774134 -1.9375,-4.25 -0.20653,-1.394213 0.19887,-2.97165 0.65625,-4.34375 0.47569,-1.427113 1.31341,-2.766985 2.15625,-4.03125 0.78707,-1.180616 1.82918,-2.198126 2.71875,-3.3125 1.30727,-1.637596 3.52596,-3.86203 3.875,-4.96875 z"
         id="path12136"
         style="fill:#f9f9f9;fill-opacity:1" />
    </g>
  </g>
</svg>
