<svg xmlns="http://www.w3.org/2000/svg" xmlns:svg="http://www.w3.org/2000/svg" xmlns:xlink="http://www.w3.org/1999/xlink" id="svg2" width="48" height="48" version="1.1" viewBox="0 0 13.547 13.547"><metadata id="metadata24"/><defs id="defs4"><linearGradient id="linearGradient4460"><stop id="stop7" offset="0" stop-color="#327ccf" stop-opacity="1"/><stop id="stop9" offset="1" stop-color="#71c2ee" stop-opacity="1"/></linearGradient><linearGradient id="linearGradient3002" x2="0" y1="279.096" y2="268.33" gradientTransform="matrix(1.10525,0,0,1.10525,-134.27874,-295.76183)" gradientUnits="userSpaceOnUse" xlink:href="#linearGradient4460"/><linearGradient id="linearGradient3008" x2="0" y1="279.096" y2="268.33" gradientTransform="matrix(1.10525,0,0,1.10525,-134.27874,-295.76183)" gradientUnits="userSpaceOnUse" xlink:href="#linearGradient4460"/><linearGradient id="linearGradient3011" x2="0" y1="279.096" y2="268.33" gradientTransform="matrix(3.9162401,0,0,3.9162401,-475.7908,-1047.975)" gradientUnits="userSpaceOnUse" xlink:href="#linearGradient4460"/><linearGradient id="linearGradient3014" x2="0" y1="279.096" y2="268.33" gradientTransform="matrix(1.10525,0,0,1.10525,-134.27874,-309.30883)" gradientUnits="userSpaceOnUse" xlink:href="#linearGradient4519"/><linearGradient id="linearGradient4525" x1="7.056" x2="6.773" y1=".564" y2="11.571" gradientUnits="userSpaceOnUse" xlink:href="#linearGradient4519"/><linearGradient id="linearGradient4895" x2="0" y1="280" y2="40" gradientTransform="matrix(.175 0 0 .175 302.79999 215.99997)" gradientUnits="userSpaceOnUse" xlink:href="#outerBackgroundGradient"/><linearGradient id="linearGradient4863" x2="0" y1="230" y2="90" gradientTransform="matrix(.25 0 0 .25 299.99999 131.99999)" gradientUnits="userSpaceOnUse" xlink:href="#outerBackgroundGradient"/><linearGradient id="outerBackgroundGradient"><stop id="stop162" offset="0" stop-color="#dedede"/><stop id="stop164" offset="1" stop-color="#fff"/></linearGradient><linearGradient id="linearGradient4825" x2="0" y1="230" y2="90" gradientTransform="matrix(.375 0 0 .375 298 16)" gradientUnits="userSpaceOnUse" xlink:href="#outerBackgroundGradient"/><linearGradient id="linearGradient4460-3"><stop id="stop156" offset="0" stop-color="#f6aa18"/><stop id="stop158" offset="1" stop-color="#f8bf52"/></linearGradient><linearGradient id="linearGradient3033" x2="0" y1="279.096" y2="268.33" gradientTransform="matrix(1.09524,0,0,1.09524,-133.0015,-293.02234)" gradientUnits="userSpaceOnUse" xlink:href="#linearGradient4460-3"/><clipPath id="clipPath150" clipPathUnits="userSpaceOnUse"><path id="path152" fill="url(#linearGradient7206)" d="m 183.5625,117.5625 c -0.12976,-0.01 -0.24485,0.0155 -0.375,0.0625 l -12.21875,4.4375 c -0.52059,0.1895 -0.81447,0.76065 -0.625,1.28125 l 4.8125,13.15625 c 0.14211,0.3904 0.48572,0.63685 0.875,0.65625 C 176.11041,137.63006 176.50303,138 177,138 l 13,0 c 0.554,0 1,-0.446 1,-1 l 0,-14 c 0,-0.554 -0.446,-1 -1,-1 l -4.15625,0 -1.375,-3.78125 c -0.14211,-0.3904 -0.51697,-0.63685 -0.90625,-0.65625 z m -0.65625,2.28125 L 183.6875,122 177,122 l 5.90625,-2.15625 z m -6.46875,2.34375 C 176.17786,122.36777 176,122.6586 176,123 l 0,10 -3.40625,-9.40625 3.84375,-1.40625 z M 178,124 l 11,0 0,10 -11,0 0,-10 z" color="#bebebe"/></clipPath><clipPath id="clipPath146" clipPathUnits="userSpaceOnUse"><path id="path148" fill="url(#linearGradient7206)" d="m 183.5625,117.5625 c -0.12976,-0.01 -0.24485,0.0155 -0.375,0.0625 l -12.21875,4.4375 c -0.52059,0.1895 -0.81447,0.76065 -0.625,1.28125 l 4.8125,13.15625 c 0.14211,0.3904 0.48572,0.63685 0.875,0.65625 C 176.11041,137.63006 176.50303,138 177,138 l 13,0 c 0.554,0 1,-0.446 1,-1 l 0,-14 c 0,-0.554 -0.446,-1 -1,-1 l -4.15625,0 -1.375,-3.78125 c -0.14211,-0.3904 -0.51697,-0.63685 -0.90625,-0.65625 z m -0.65625,2.28125 L 183.6875,122 177,122 l 5.90625,-2.15625 z m -6.46875,2.34375 C 176.17786,122.36777 176,122.6586 176,123 l 0,10 -3.40625,-9.40625 3.84375,-1.40625 z M 178,124 l 11,0 0,10 -11,0 0,-10 z" color="#bebebe"/></clipPath><clipPath id="clipPath142" clipPathUnits="userSpaceOnUse"><path id="path144" fill="url(#linearGradient7652)" d="m 1174.0312,475.53125 -8.4374,3.0625 L 1169,488 l 9,0 0,-10 -3.0625,0 -0.9063,-2.46875 z m -0.5937,1.28125 0.4375,1.1875 -3.7188,0 3.2813,-1.1875 z m -4.4375,1.59375 0,6.6875 -2.125,-5.90625 2.125,-0.78125 z m 1,0.59375 4.25,0 1.0625,0 1.6875,0 0,4.625 0,1.4375 0,0.9375 -2.5312,0 -4.4688,0 0,-0.5 0,-6.5 z" color="#bebebe"/></clipPath><clipPath id="clipPath138" clipPathUnits="userSpaceOnUse"><path id="path140" fill="url(#linearGradient7206)" d="m 183.5625,117.5625 c -0.12976,-0.01 -0.24485,0.0155 -0.375,0.0625 l -12.21875,4.4375 c -0.52059,0.1895 -0.81447,0.76065 -0.625,1.28125 l 4.8125,13.15625 c 0.14211,0.3904 0.48572,0.63685 0.875,0.65625 C 176.11041,137.63006 176.50303,138 177,138 l 13,0 c 0.554,0 1,-0.446 1,-1 l 0,-14 c 0,-0.554 -0.446,-1 -1,-1 l -4.15625,0 -1.375,-3.78125 c -0.14211,-0.3904 -0.51697,-0.63685 -0.90625,-0.65625 z m -0.65625,2.28125 L 183.6875,122 177,122 l 5.90625,-2.15625 z m -6.46875,2.34375 C 176.17786,122.36777 176,122.6586 176,123 l 0,10 -3.40625,-9.40625 3.84375,-1.40625 z M 178,124 l 11,0 0,10 -11,0 0,-10 z" color="#bebebe"/></clipPath><clipPath id="clipPath134" clipPathUnits="userSpaceOnUse"><path id="path136" fill="url(#linearGradient7206)" d="m 183.5625,117.5625 c -0.12976,-0.01 -0.24485,0.0155 -0.375,0.0625 l -12.21875,4.4375 c -0.52059,0.1895 -0.81447,0.76065 -0.625,1.28125 l 4.8125,13.15625 c 0.14211,0.3904 0.48572,0.63685 0.875,0.65625 C 176.11041,137.63006 176.50303,138 177,138 l 13,0 c 0.554,0 1,-0.446 1,-1 l 0,-14 c 0,-0.554 -0.446,-1 -1,-1 l -4.15625,0 -1.375,-3.78125 c -0.14211,-0.3904 -0.51697,-0.63685 -0.90625,-0.65625 z m -0.65625,2.28125 L 183.6875,122 177,122 l 5.90625,-2.15625 z m -6.46875,2.34375 C 176.17786,122.36777 176,122.6586 176,123 l 0,10 -3.40625,-9.40625 3.84375,-1.40625 z M 178,124 l 11,0 0,10 -11,0 0,-10 z" color="#bebebe"/></clipPath><clipPath id="clipPath130" clipPathUnits="userSpaceOnUse"><path id="path132" fill="#c00" d="m 353,161 0,31 c 0,3 -3,3 -3,3 l 0,-34 -23,0 3,-3 20,0 c 0,0 3,0 3,3 z m -9,3 c 3,0 3,3 3,3 l 0,31 c 0,3 -3,3 -3,3 l -23,0 c 0,0 -3,-0.41177 -3,-3 l 0,-28 6,-6 z m 0,3 -19,0 0,4 -4,0 0,27 23,0 z" color="#bebebe"/></clipPath><clipPath id="clipPath126" clipPathUnits="userSpaceOnUse"><path id="path128" fill="url(#linearGradient6521)" d="m 1571,-186 0,84 c 0,7 7,7 7,7 l 0,-91 63,0 -7,-7 -56,0 c 0,0 -7,0 -7,7 z m 21,7 c -7,0 -7,7 -7,7 l 0,84 c 0,7 7,7 7,7 l 63,0 c 0,0 7,0 7,-7 l 0,-77 -14,-14 z m 0,7 52,0 0,11 11,0 0,73 -63,0 z" color="#bebebe"/></clipPath><clipPath id="clipPath122" clipPathUnits="userSpaceOnUse"><path id="path124" fill="url(#linearGradient7398)" d="m 1165.5938,-341.6875 -5.6563,2.0625 2.0625,5.625 6,0 0,-6 -1.8125,0 -0.5937,-1.6875 z m -0.5938,1.28125 0.1562,0.40625 -1.2812,0 1.125,-0.40625 z m -3,1.09375 0,2.40625 -0.7812,-2.125 0.7812,-0.28125 z m 1,0.3125 4,0 0,4 -4,0 0,-4 z" color="#bebebe"/></clipPath><clipPath id="clipPath118" clipPathUnits="userSpaceOnUse"><path id="path120" fill="url(#linearGradient9626)" d="m 1316.0312,171.0625 c -0.1296,-0.01 -0.2447,0.0155 -0.375,0.0625 l -1.875,0.6875 -2.0312,0.75 -2.0312,0.7187 -10.0313,3.6563 c -0.9397,0.342 -0.625,1.2813 -0.625,1.2813 l 5.5,15.0312 1.4063,3.9062 0.031,0 c 0.01,10e-4 0.021,-5e-4 0.031,0 0.079,0.474 0.4718,0.8438 0.9688,0.8438 l 17,0 c 0.554,0 1,-0.446 1,-1 l 0,-20 c 0,-0.554 -0.446,-1 -1,-1 l -2,0 -2.1562,0 -1.3438,0 -1.5625,-4.2812 c -0.1421,-0.3905 -0.517,-0.6369 -0.9063,-0.6563 z m -0.625,2.2813 0.9688,2.6562 -8.2812,0 7.3124,-2.6562 z m -9.375,3.4062 c -0.032,0.1376 -0.031,0.25 -0.031,0.25 l 0,14.375 -4.6875,-12.9062 4.7187,-1.7188 z M 1308,178 l 15,0 0,14 -15,0 0,-14 z" color="#bebebe"/></clipPath><clipPath id="clipPath114" clipPathUnits="userSpaceOnUse"><path id="path116" fill="url(#linearGradient9626)" d="m 1316.0312,171.0625 c -0.1296,-0.01 -0.2447,0.0155 -0.375,0.0625 l -1.875,0.6875 -2.0312,0.75 -2.0312,0.7187 -10.0313,3.6563 c -0.9397,0.342 -0.625,1.2813 -0.625,1.2813 l 5.5,15.0312 1.4063,3.9062 0.031,0 c 0.01,10e-4 0.021,-5e-4 0.031,0 0.079,0.474 0.4718,0.8438 0.9688,0.8438 l 17,0 c 0.554,0 1,-0.446 1,-1 l 0,-20 c 0,-0.554 -0.446,-1 -1,-1 l -2,0 -2.1562,0 -1.3438,0 -1.5625,-4.2812 c -0.1421,-0.3905 -0.517,-0.6369 -0.9063,-0.6563 z m -0.625,2.2813 0.9688,2.6562 -8.2812,0 7.3124,-2.6562 z m -9.375,3.4062 c -0.032,0.1376 -0.031,0.25 -0.031,0.25 l 0,14.375 -4.6875,-12.9062 4.7187,-1.7188 z M 1308,178 l 15,0 0,14 -15,0 0,-14 z" color="#bebebe"/></clipPath><clipPath id="clipPath110" clipPathUnits="userSpaceOnUse"><rect id="rect112" width="240" height="240" x="24" y="36" fill="#986767" color="#bebebe" rx="50"/></clipPath><clipPath id="clipPath106" clipPathUnits="userSpaceOnUse"><path id="path108" fill="#204a87" d="m 331.84375,235.34375 c -0.1947,-0.015 -0.36735,0.0225 -0.5625,0.093 l -17.8282,6.65625 c -0.78075,0.28425 -1.2216,1.1409 -0.9375,1.9218 l 7.21875,19.73445 c 0.2133,0.5856 0.7287,0.9552 1.3125,0.9843 0.1185,0.71085 0.7077,1.2657 1.4532,1.2657 l 19,0 c 0.831,0 1.5,-0.669 1.5,-1.5 l 0,-21 c 0,-0.831 -0.669,-1.5 -1.5,-1.5 l -6.23445,0 -2.0625,-5.67195 c -0.21315,-0.5856 -0.77535,-0.9552 -1.3593,-0.9843 z m -0.98445,3.4218 L 332.03125,242 322.5,242 z m -9.20305,3.5157 C 321.26685,242.5517 321,242.9879 321,243.5 l 0,15 -5.10945,-14.10945 z M 324,245 l 16,0 0,15 -16,0 z" color="#bebebe"/></clipPath><clipPath id="clipPath102" clipPathUnits="userSpaceOnUse"><path style="line-height:normal" id="path104" fill="url(#linearGradient6370)" d="m 1807,-237 c -2,0 -2,2 -2,2 l 0,35.99998 c 0,1.0526 0.9582,2.0052 2,2 l 2,0 0,-4 0,-29.99998 0,-2 1.625,0 16.375,0 6,0 -4,-4 -22,0 z m 5.625,6 c -0.9118,0.172 -1.636,1.0632 -1.625,2 l 0,35.99998 c 0,1.0526 0.9582,2.0052 2,2 l 28,0 c 1.0418,0 1.9946,-0.9474 2,-2 l 0,-29.99999 -8,-7.99999 -22,0 c -0.124,-0.02 -0.2504,-0.02 -0.375,0 z m 2.375,4 18,0 0,3.99999 c 0,2 2,2 2,2 l 4,0 0,25.99999 -24,0 0,-31.99998 z" clip-path="none" color="#000"/></clipPath><clipPath id="clipPath98" clipPathUnits="userSpaceOnUse"><path id="path100" fill="url(#linearGradient9626)" d="m 1316.0312,171.0625 c -0.1296,-0.01 -0.2447,0.0155 -0.375,0.0625 l -1.875,0.6875 -2.0312,0.75 -2.0312,0.7187 -10.0313,3.6563 c -0.9397,0.342 -0.625,1.2813 -0.625,1.2813 l 5.5,15.0312 1.4063,3.9062 0.031,0 c 0.01,10e-4 0.021,-5e-4 0.031,0 0.079,0.474 0.4718,0.8438 0.9688,0.8438 l 17,0 c 0.554,0 1,-0.446 1,-1 l 0,-20 c 0,-0.554 -0.446,-1 -1,-1 l -2,0 -2.1562,0 -1.3438,0 -1.5625,-4.2812 c -0.1421,-0.3905 -0.517,-0.6369 -0.9063,-0.6563 z m -0.625,2.2813 0.9688,2.6562 -8.2812,0 7.3124,-2.6562 z m -9.375,3.4062 c -0.032,0.1376 -0.031,0.25 -0.031,0.25 l 0,14.375 -4.6875,-12.9062 4.7187,-1.7188 z M 1308,178 l 15,0 0,14 -15,0 0,-14 z" color="#bebebe"/></clipPath><clipPath id="clipPath94" clipPathUnits="userSpaceOnUse"><path id="path96" fill="url(#linearGradient9626)" d="m 1316.0312,171.0625 c -0.1296,-0.01 -0.2447,0.0155 -0.375,0.0625 l -1.875,0.6875 -2.0312,0.75 -2.0312,0.7187 -10.0313,3.6563 c -0.9397,0.342 -0.625,1.2813 -0.625,1.2813 l 5.5,15.0312 1.4063,3.9062 0.031,0 c 0.01,10e-4 0.021,-5e-4 0.031,0 0.079,0.474 0.4718,0.8438 0.9688,0.8438 l 17,0 c 0.554,0 1,-0.446 1,-1 l 0,-20 c 0,-0.554 -0.446,-1 -1,-1 l -2,0 -2.1562,0 -1.3438,0 -1.5625,-4.2812 c -0.1421,-0.3905 -0.517,-0.6369 -0.9063,-0.6563 z m -0.625,2.2813 0.9688,2.6562 -8.2812,0 7.3124,-2.6562 z m -9.375,3.4062 c -0.032,0.1376 -0.031,0.25 -0.031,0.25 l 0,14.375 -4.6875,-12.9062 4.7187,-1.7188 z M 1308,178 l 15,0 0,14 -15,0 0,-14 z" color="#bebebe"/></clipPath><clipPath id="clipPath90" clipPathUnits="userSpaceOnUse"><path id="path92" fill="url(#linearGradient6521)" d="m 1571,-186 0,84 c 0,7 7,7 7,7 l 0,-91 63,0 -7,-7 -56,0 c 0,0 -7,0 -7,7 z m 21,7 c -7,0 -7,7 -7,7 l 0,84 c 0,7 7,7 7,7 l 63,0 c 0,0 7,0 7,-7 l 0,-77 -14,-14 z m 0,7 52,0 0,11 11,0 0,73 -63,0 z" color="#bebebe"/></clipPath><clipPath id="clipPath86" clipPathUnits="userSpaceOnUse"><path id="path88" fill="#ba975f" d="m 1426.4688,44.03125 c -0.065,-0.003 -0.1225,0.008 -0.1876,0.03125 l -10.3437,3.75 c -0.2602,0.0947 -0.4072,0.39595 -0.3125,0.65625 l 4.375,11.9375 0,0.09375 c 0,0.277 0.223,0.5 0.5,0.5 l 11,0 c 0.277,0 0.5,-0.223 0.5,-0.5 l 0,-13 c 0,-0.277 -0.223,-0.5 -0.5,-0.5 l -3.625,0 -0.9688,-2.65625 c -0.071,-0.19522 -0.243,-0.30278 -0.4374,-0.3125 z m -0.3126,1.125 0.6563,1.84375 -5.6875,0 5.0312,-1.84375 z m -6.1562,2.25 c -0.01,0.03179 0,0.06006 0,0.09375 l 0,9.46875 -0.1875,0.0625 -3.0625,-8.4375 3.25,-1.1875 z m 1,0.59375 10,0 0,9 -10,0 0,-9 z" color="#000"/></clipPath><clipPath id="clipPath82" clipPathUnits="userSpaceOnUse"><path id="path84" fill="#ba975f" d="m 1426.4688,44.03125 c -0.065,-0.003 -0.1225,0.008 -0.1876,0.03125 l -10.3437,3.75 c -0.2602,0.0947 -0.4072,0.39595 -0.3125,0.65625 l 4.375,11.9375 0,0.09375 c 0,0.277 0.223,0.5 0.5,0.5 l 11,0 c 0.277,0 0.5,-0.223 0.5,-0.5 l 0,-13 c 0,-0.277 -0.223,-0.5 -0.5,-0.5 l -3.625,0 -0.9688,-2.65625 c -0.071,-0.19522 -0.243,-0.30278 -0.4374,-0.3125 z m -0.3126,1.125 0.6563,1.84375 -5.6875,0 5.0312,-1.84375 z m -6.1562,2.25 c -0.01,0.03179 0,0.06006 0,0.09375 l 0,9.46875 -0.1875,0.0625 -3.0625,-8.4375 3.25,-1.1875 z m 1,0.59375 10,0 0,9 -10,0 0,-9 z" color="#000"/></clipPath><clipPath id="clipPath78" clipPathUnits="userSpaceOnUse"><path id="path80" fill="url(#linearGradient6445)" d="m 1795,-132 0,24 c 0,2 2,2 2,2 l 0,-26 18,0 -2,-2 -16,0 c 0,0 -2,0 -2,2 z m 6,2 c -2,0 -2,2 -2,2 l 0,24 c 0,2 2,2 2,2 l 18,0 c 0,0 2,0 2,-2 l 0,-22 -4,-4 z m 0,2 15,0 0,3 3,0 0,21 -18,0 z" color="#bebebe"/></clipPath><clipPath id="clipPath74" clipPathUnits="userSpaceOnUse"><rect id="rect76" width="30" height="30" x="433" y="29" fill="#6d6d6d" color="#bebebe" opacity=".2" rx="4"/></clipPath><clipPath id="clipPath70" clipPathUnits="userSpaceOnUse"><rect id="rect72" width="20" height="20" x="434" y="78" color="#bebebe" rx="4"/></clipPath><clipPath id="clipPath66" clipPathUnits="userSpaceOnUse"><rect id="rect68" width="22" height="22" x="433" y="77" fill="#6d6d6d" color="#bebebe" opacity=".2" rx="3"/></clipPath><clipPath id="clipPath62" clipPathUnits="userSpaceOnUse"><rect id="rect64" width="42" height="42" x="307" y="223" fill="url(#linearGradient4895)" color="#bebebe" rx="9" transform="rotate(90)"/></clipPath><clipPath id="clipPath58" clipPathUnits="userSpaceOnUse"><rect id="rect60" width="22" height="22" x="433" y="77" color="#bebebe" rx="4"/></clipPath><clipPath id="clipPath54" clipPathUnits="userSpaceOnUse"><rect id="rect56" width="30" height="30" x="433" y="29" color="#bebebe" rx="6"/></clipPath><clipPath id="clipPath50" clipPathUnits="userSpaceOnUse"><rect id="rect52" width="90" height="90" x="307" y="31" fill="url(#linearGradient4825)" color="#bebebe" rx="18.75"/></clipPath><clipPath id="clipPath46" clipPathUnits="userSpaceOnUse"><rect id="rect48" width="60" height="60" x="306" y="142" fill="url(#linearGradient4863)" color="#bebebe" rx="12.5" transform="matrix(0 -1 1 0 0 0)"/></clipPath><clipPath id="clipPath42" clipPathUnits="userSpaceOnUse"><rect id="rect44" width="16" height="16" x="432" y="116" fill="#6d6d6d" color="#bebebe" opacity=".2" rx="2"/></clipPath><clipPath id="clipPath38" clipPathUnits="userSpaceOnUse"><path id="path40" d="m 1908,740 0,8 1,0 0,-7 4.5,0 -1,-1 -4.5,0 z m 2,2 0,8 6,0 0,-6.5 -1.5,-1.5 -4.5,0 z m 1,1 3,0 0,1 1,0 0,5 -4,0 0,-6 z" color="#bebebe" opacity=".05"/></clipPath><clipPath id="clipPath34" clipPathUnits="userSpaceOnUse"><path style="line-height:normal" id="path36" fill="url(#linearGradient6370)" d="m 1807,-237 c -2,0 -2,2 -2,2 l 0,35.99998 c 0,1.0526 0.9582,2.0052 2,2 l 2,0 0,-4 0,-29.99998 0,-2 1.625,0 16.375,0 6,0 -4,-4 -22,0 z m 5.625,6 c -0.9118,0.172 -1.636,1.0632 -1.625,2 l 0,35.99998 c 0,1.0526 0.9582,2.0052 2,2 l 28,0 c 1.0418,0 1.9946,-0.9474 2,-2 l 0,-29.99999 -8,-7.99999 -22,0 c -0.124,-0.02 -0.2504,-0.02 -0.375,0 z m 2.375,4 18,0 0,3.99999 c 0,2 2,2 2,2 l 4,0 0,25.99999 -24,0 0,-31.99998 z" clip-path="none" color="#000"/></clipPath><clipPath id="clipPath30" clipPathUnits="userSpaceOnUse"><rect id="rect32" width="16" height="16" x="432" y="116" color="#bebebe" rx="3"/></clipPath><clipPath id="clipPath26" clipPathUnits="userSpaceOnUse"><path id="path28" fill="url(#linearGradient6445)" d="m 1795,-132 0,24 c 0,2 2,2 2,2 l 0,-26 18,0 -2,-2 -16,0 c 0,0 -2,0 -2,2 z m 6,2 c -2,0 -2,2 -2,2 l 0,24 c 0,2 2,2 2,2 l 18,0 c 0,0 2,0 2,-2 l 0,-22 -4,-4 z m 0,2 15,0 0,3 3,0 0,21 -18,0 z" color="#bebebe"/></clipPath><clipPath id="clipPath22" clipPathUnits="userSpaceOnUse"><path style="line-height:normal" id="path24" fill="url(#linearGradient6346)" d="m 1791,-60 c -1,0 -1,1 -1,1 l 0,18 c 0,0.5263 0.4791,1.0026 1,1 l 1,0 0,-2 0,-15 0,-1 0.8125,0 8.1875,0 3,0 -2,-2 -11,0 z m 2.8125,3 c -0.4559,0.086 -0.818,0.5316 -0.8125,1 l 0,18 c 0,0.5263 0.4791,1.0026 1,1 l 14,0 c 0.5209,0 0.9973,-0.4737 1,-1 l 0,-15 -4,-4 -11,0 c -0.062,-0.01 -0.1252,-0.01 -0.1875,0 z m 1.1875,2 9,0 0,2 c 0,1 1,1 1,1 l 2,0 0,13 -12,0 0,-16 z" clip-path="none" color="#000"/></clipPath><clipPath id="clipPath18" clipPathUnits="userSpaceOnUse"><path style="line-height:normal" id="path20" fill="url(#linearGradient6346)" d="m 1791,-60 c -1,0 -1,1 -1,1 l 0,18 c 0,0.5263 0.4791,1.0026 1,1 l 1,0 0,-2 0,-15 0,-1 0.8125,0 8.1875,0 3,0 -2,-2 -11,0 z m 2.8125,3 c -0.4559,0.086 -0.818,0.5316 -0.8125,1 l 0,18 c 0,0.5263 0.4791,1.0026 1,1 l 14,0 c 0.5209,0 0.9973,-0.4737 1,-1 l 0,-15 -4,-4 -11,0 c -0.062,-0.01 -0.1252,-0.01 -0.1875,0 z m 1.1875,2 9,0 0,2 c 0,1 1,1 1,1 l 2,0 0,13 -12,0 0,-16 z" clip-path="none" color="#000"/></clipPath><clipPath id="clipPath14" clipPathUnits="userSpaceOnUse"><rect id="rect16-9" width="22" height="22" x="433" y="77" color="#bebebe" rx="5"/></clipPath><clipPath id="clipPath10" clipPathUnits="userSpaceOnUse"><path id="path12" d="m 1914,-259 0,14 1,0 0,-13 9.5,0 -1,-1 z m 2,2 0,14 11,0 0,-12.5 -1.5,-1.5 z m 1,1 8,0 0,1 1,0 0,11 -9,0 z" color="#bebebe" opacity=".05"/></clipPath><clipPath id="clipPath6" clipPathUnits="userSpaceOnUse"><path id="path8" d="m 1911,-213 0,10 1,0 0,-9 6.5,0 -1,-1 z m 2,2 0,10 8,0 0,-8.5 -1.5,-1.5 z m 1,1 5,0 0,1 1,0 0,7 -6,0 z" color="#bebebe" opacity=".05"/></clipPath><linearGradient id="linearGradient3844"><stop id="stop3846" offset="0" stop-color="#f0ea8c" stop-opacity="1"/><stop id="stop3848" offset="1" stop-color="#e9e057" stop-opacity="1"/></linearGradient><linearGradient id="linearGradient3852"><stop id="stop3854" offset="0" stop-color="#b9dbf2" stop-opacity="1"/><stop id="stop3856" offset="1" stop-color="#80bde8" stop-opacity="1"/></linearGradient><linearGradient id="linearGradient3860"><stop id="stop3862" offset="0" stop-color="#00354c" stop-opacity="1"/><stop id="stop3864" offset="1" stop-color="#002b36" stop-opacity="1"/></linearGradient><linearGradient id="linearGradient4519"><stop id="stop4521" offset="0" stop-color="#e2db6e" stop-opacity="1"/><stop id="stop4523" offset="1" stop-color="#d3bb45" stop-opacity="1"/></linearGradient><linearGradient id="linearGradient3232" x1="7.056" x2="6.773" y1=".564" y2="11.571" gradientTransform="translate(15.918393,0.14633934)" gradientUnits="userSpaceOnUse" xlink:href="#linearGradient4519"/><linearGradient id="0" x2="0" y1="1050.36" y2="1006.36" gradientUnits="userSpaceOnUse" xlink:href="#1"/><linearGradient id="1"><stop id="stop8" stop-color="#c09089"/><stop id="stop10" offset="1" stop-color="#e6c9c2"/></linearGradient><linearGradient id="linearGradient3329" x2="0" y1="1050.36" y2="1006.36" gradientTransform="matrix(0.28222223,0,0,0.28222223,-13.546667,-296.99875)" gradientUnits="userSpaceOnUse" xlink:href="#linearGradient4519"/><radialGradient id="radialGradient3001" cx="148.004" cy="160" r="128" gradientTransform="matrix(0.1831,0,0,0.1831,-3.10079,-5.29638)" gradientUnits="userSpaceOnUse" xlink:href="#radial0"/><radialGradient id="radial0" cx="148.004" cy="160" r="128" gradientTransform="matrix(0.1831,0,0,0.1831,-3.10029,-5.29688)" gradientUnits="userSpaceOnUse"><stop id="stop7-4" offset="0" stop-color="#f8e99b" stop-opacity="1"/><stop id="stop9-2" offset="1" stop-color="#efcc15" stop-opacity="1"/></radialGradient><radialGradient id="radialGradient3009" cx="148.004" cy="160" r="128" gradientTransform="matrix(0.05167489,0,0,0.05167489,-0.87510851,-1.4947615)" gradientUnits="userSpaceOnUse" xlink:href="#radial0"/></defs><path id="path11" fill="url(#radialGradient3009)" d="m 13.387779,3.2589206 0,7.0290974 c 0,2.892778 0,3.100035 -3.100035,3.100035 l -7.0279941,0 c -3.10113801,0 -3.10113801,-0.207257 -3.10113801,-3.100035 l 0,-7.0290974 c 0,-2.89277779 0,-3.10003479 3.10113801,-3.10003479 l 7.0279941,0 c 3.100035,0 3.100035,0.207257 3.100035,3.10003479 z"/><path id="path15" fill="#fff" fill-opacity=".051" d="m 10.799272,13.388053 c 0.717682,-0.0033 1.235825,-0.02315 1.611753,-0.124575 l -1.193932,-2.046111 -1.2655901,2.170686 0.3362411,0 c 0.180799,0 0.350573,0 0.511528,0 z M 11.217093,11.217367 9.7707049,8.7368981 8.3232129,11.217367 z m 0,0 2.159662,0 c 0.0088,-0.274505 0.01102,-0.582083 0.01102,-0.930451 l 0,-0.3097839 -0.723194,-1.240234 z M 12.664585,8.7368981 11.217093,6.2564294 9.7707049,8.7368981 z m 0,0 0.723194,0 0,-1.2402343 z m -2.8938801,0 -1.447492,-2.4804687 -1.446389,2.4804687 z m -2.893881,0 -1.447491,2.4804689 2.89388,0 z m 0,0 -1.447491,-2.4804687 -1.446389,2.4804687 z m -2.89388,0 -1.447491,2.4804689 2.89388,0 z m 0,0 -1.447491,-2.4804687 -1.446389,2.4804687 z m -2.89388,0 -0.93045201,1.5941149 c 0,0.329627 0.0033,0.623976 0.01102,0.886354 l 2.36581601,0 z m 0,0 -0.93045201,-1.5941145 0,1.5941145 z m 1.446389,2.4804689 -1.217084,2.086901 c 0.450894,0.08268 1.07487,0.08379 1.941381,0.08379 l 0.542395,0 z m 0,-4.9609376 -1.446389,-2.4804689 -0.93045201,1.5941147 0,0.8863542 z m 0,0 2.89388,0 -1.446389,-2.4804689 z M 3.9829439,3.7759605 2.5354529,1.2954918 1.0890639,3.7759605 z m 0,0 2.89388,0 -1.447491,-2.4804687 z m 1.446389,-2.4804687 -0.663663,-1.13660599 -1.50592,0 c -0.02205,0 -0.03969,0 -0.06063,0 L 2.5354569,1.2954918 z m 0,0 2.89388,0 -0.663663,-1.13660599 -1.566554,0 z m 2.89388,0 2.8938801,0 -0.663663,-1.13660599 c -0.0882,0 -0.171979,0 -0.265686,0 l -1.3008681,0 z m 0,0 -1.446389,2.4804687 2.893881,0 z m 1.447492,2.4804687 2.8938801,0 -1.447492,-2.4804687 z m 0,0 -1.447492,2.4804689 2.8938801,0 z m 1.4463881,2.4804689 2.170686,0 0,-1.2402343 -0.723194,-1.2402346 z m 1.447492,-2.4804689 0.723194,0 0,-0.5170399 c 0,-0.2579689 -0.0022,-0.4938889 -0.0066,-0.71217 z M 8.3232129,6.2564294 6.8768239,3.7759605 5.4293329,6.2564294 z m 2.8938801,-4.9609376 2.062648,0 C 13.123196,0.51717571 12.747267,0.27133391 11.85981,0.19416361 z m -8.6816401,0 -0.650434,-1.11565969 C 0.85204089,0.23826081 0.43421989,0.46095171 0.26664989,1.2954918 z M 1.0890639,3.7759605 0.17514889,2.2083043 c -0.01213,0.3031685 -0.01654,0.6515363 -0.01654,1.0506163 l 0,0.5170399 z m 4.340269,7.4414065 -1.26559,2.170686 2.532283,0 z m 2.89388,0 -1.26559,2.170686 2.532283,0 z m -7.59133701,1.86862 -0.451996,-0.775009 c 0.08268,0.371519 0.221588,0.615157 0.451996,0.775009 z"/><path id="path3764" fill="#f9f9f9" fill-opacity="1" stroke="none" d="M 13.34375 26 C 12.607628 26 12 26.607628 12 27.34375 L 12 30 L 9 30 L 8 35 L 40 35 L 39 30 L 36 30 L 36 27.34375 C 36 26.607628 35.392372 26 34.65625 26 L 31.34375 26 C 30.607628 26 30 26.607628 30 27.34375 L 30 30 L 27 30 L 27 27.34375 C 27 26.607628 26.392372 26 25.65625 26 L 22.34375 26 C 21.607628 26 21 26.607628 21 27.34375 L 21 30 L 18 30 L 18 27.34375 C 18 26.607628 17.392372 26 16.65625 26 L 13.34375 26 z" transform="scale(0.28222223,0.28222223)"/></svg>