<svg xmlns="http://www.w3.org/2000/svg" xmlns:svg="http://www.w3.org/2000/svg" xmlns:xlink="http://www.w3.org/1999/xlink" id="svg2" width="48" height="48" enable-background="new" version="1.1" viewBox="0 0 13.547 13.547"><metadata id="metadata84"/><defs id="defs4"><linearGradient id="0"><stop id="stop7" stop-color="#c34141"/><stop id="stop9" offset="1" stop-color="#d76464"/></linearGradient><linearGradient id="1" x2="0" y1="299.81" y2="31.619" gradientTransform="matrix(0.11931818,0,0,0.11931818,414.13636,48.22727)" gradientUnits="userSpaceOnUse" xlink:href="#A"/><clipPath id="clipPath12"><rect id="rect14" width="30" height="30" x="417" y="53" fill="url(#1)" color="#bebebe" rx="7"/></clipPath><linearGradient id="2" x2="0" y1="302.86" y2="28.571" gradientTransform="matrix(0.0875,0,0,0.0875,414.9,97.5)" gradientUnits="userSpaceOnUse" xlink:href="#A"/><clipPath id="clipPath17"><rect id="rect19" width="22" height="22" x="417" y="101" fill="url(#2)" color="#bebebe" rx="5"/></clipPath><linearGradient id="3" x2="0" y1="124" y2="28" gradientUnits="userSpaceOnUse" xlink:href="#A"/><clipPath id="clipPath22"><rect id="rect24" width="88" height="88" x="292" y="32" fill="url(#3)" color="#bebebe" rx="18"/></clipPath><linearGradient id="4" x2="0" y1="204" y2="140" gradientUnits="userSpaceOnUse" xlink:href="#A"/><clipPath id="clipPath27"><rect id="rect29" width="60" height="60" x="290" y="142" fill="url(#4)" color="#bebebe" rx="12.5"/></clipPath><linearGradient id="5" x2="0" y1="280" y2="40" gradientTransform="translate(0,-4)" gradientUnits="userSpaceOnUse" xlink:href="#A"/><clipPath id="clipPath32"><rect id="rect34" width="220" height="220" x="34" y="46" fill="url(#5)" color="#bebebe" rx="50"/></clipPath><linearGradient id="6" x2="0" y1="280" y2="40" gradientTransform="matrix(0.06666667,0,0,0.06666667,302.4,209.33333)" gradientUnits="userSpaceOnUse" xlink:href="#A"/><clipPath id="clipPath37"><rect id="rect39" width="16" height="16" x="304" y="212" fill="url(#6)" color="#bebebe" rx="3" transform="matrix(0,1,-1,0,0,0)"/></clipPath><linearGradient id="7" x2="0" y1="291.43" y2="40" gradientTransform="matrix(0.11931818,0,0,0.11931818,430.13636,32.227267)" gradientUnits="userSpaceOnUse" xlink:href="#A"/><clipPath id="clipPath42"><rect id="rect44" width="30" height="30" x="433" y="37" fill="url(#7)" color="#bebebe" rx="6"/></clipPath><linearGradient id="8" x2="0" y1="291.43" y2="40" gradientTransform="matrix(0.0875,0,0,0.0875,430.9,81.499996)" gradientUnits="userSpaceOnUse" xlink:href="#A"/><clipPath id="clipPath47"><rect id="rect49" width="22" height="22" x="433" y="85" fill="url(#8)" color="#bebebe" rx="4"/></clipPath><linearGradient id="9" x2="0" y1="280" y2="40" gradientTransform="matrix(0.175,0,0,0.175,302.79999,215.99997)" gradientUnits="userSpaceOnUse" xlink:href="#A"/><clipPath id="clipPath52"><rect id="rect54" width="42" height="42" x="307" y="223" fill="url(#9)" color="#bebebe" rx="9" transform="matrix(0,1,-1,0,0,0)"/></clipPath><linearGradient id="A"><stop id="stop57" stop-color="#b94642"/><stop id="stop59" offset="1" stop-color="#c66a58"/></linearGradient><linearGradient id="B" x2="0" y1="1050.36" y2="1006.36" gradientTransform="translate(-78.066775,-887.05181)" gradientUnits="userSpaceOnUse" xlink:href="#0"/><linearGradient id="linearGradient3061" x2="0" y1="1050.36" y2="1006.36" gradientTransform="translate(-78.066775,-887.05181)" gradientUnits="userSpaceOnUse" xlink:href="#0"/><linearGradient id="linearGradient3065" x2="0" y1="1050.36" y2="1006.36" gradientTransform="matrix(0.28222223,0,0,0.28222223,6.7059175e-7,-283.45335)" gradientUnits="userSpaceOnUse" xlink:href="#0"/><radialGradient id="radialGradient3052" cx="148.004" cy="160" r="128" gradientTransform="matrix(0.05167489,0,0,0.05167489,-0.87511191,-1.4947612)" gradientUnits="userSpaceOnUse" xlink:href="#radial0"/><radialGradient id="radial0" cx="148.004" cy="160" r="128" gradientTransform="matrix(0.1831,0,0,0.1831,-3.10029,-5.29688)" gradientUnits="userSpaceOnUse"><stop id="stop7-4" offset="0" stop-color="#ffa686" stop-opacity="1"/><stop id="stop9-5" offset="1" stop-color="#d75050" stop-opacity="1"/></radialGradient><radialGradient id="radialGradient3012" cx="148.004" cy="160" r="128" gradientTransform="matrix(0.05167489,0,0,0.05167489,-0.87511191,-1.4947608)" gradientUnits="userSpaceOnUse" xlink:href="#radial0"/></defs><path id="path11" fill="url(#radialGradient3012)" fill-opacity="1" d="m 13.387775,3.2589213 0,7.0290977 c 0,2.892777 0,3.100034 -3.100035,3.100034 l -7.0279939,0 c -3.10113721,0 -3.10113721,-0.207257 -3.10113721,-3.100034 l 0,-7.0290977 c 0,-2.89277789 0,-3.10003479 3.10113721,-3.10003479 l 7.0279939,0 c 3.100035,0 3.100035,0.2072569 3.100035,3.10003479 z"/><path id="path15" fill="#fff" fill-opacity=".051" d="m 10.799268,13.388053 c 0.717682,-0.0033 1.235825,-0.02315 1.611753,-0.124575 l -1.193932,-2.04611 -1.2655885,2.170685 0.3362395,0 c 0.180799,0 0.350573,0 0.511528,0 z M 11.217089,11.217368 9.7707015,8.7368988 8.3232105,11.217368 z m 0,0 2.159662,0 c 0.0088,-0.274505 0.01102,-0.582083 0.01102,-0.930451 l 0,-0.3097839 -0.723193,-1.2402343 z M 12.664581,8.7368988 11.217089,6.2564301 9.7707015,8.7368988 z m 0,0 0.723194,0 0,-1.2402343 z m -2.8938795,0 -1.447491,-2.4804687 -1.446389,2.4804687 z m -2.89388,0 -1.447492,2.4804692 2.893881,0 z m 0,0 -1.447492,-2.4804687 -1.446389,2.4804687 z m -2.893881,0 -1.4474913,2.4804692 2.8938803,0 z m 0,0 L 2.5354492,6.2564301 1.0890604,8.7368988 z m -2.8938801,0 -0.93045151,1.5941152 c 0,0.329627 0.00331,0.623976 0.011024,0.886354 l 2.36581611,0 z m 0,0 -0.93045151,-1.5941145 0,1.5941145 z m 1.4463888,2.4804692 -1.2170833,2.0869 c 0.450894,0.08268 1.0748699,0.08379 1.9413802,0.08379 l 0.5423954,0 z m 0,-4.9609379 -1.4463888,-2.4804689 -0.93045151,1.5941147 0,0.8863542 z m 0,0 2.8938803,0 -1.446389,-2.4804689 z M 3.9829405,3.7759612 2.5354492,1.2954925 1.0890604,3.7759612 z m 0,0 2.893881,0 -1.447492,-2.4804687 z m 1.446389,-2.4804687 -0.663663,-1.13660599 -1.5059204,0 c -0.02205,0 -0.039688,0 -0.060634,0 L 2.5354492,1.2954925 z m 0,0 2.893881,0 -0.663663,-1.13660599 -1.566555,0 z m 2.893881,0 2.8938785,0 -0.663663,-1.13660599 c -0.0882,0 -0.171979,0 -0.265686,0 l -1.3008665,0 z m 0,0 -1.446389,2.4804687 2.89388,0 z m 1.447491,2.4804687 2.8938795,0 -1.447492,-2.4804687 z m 0,0 -1.447491,2.4804689 2.8938785,0 z m 1.4463875,2.4804689 2.170686,0 0,-1.2402343 -0.723194,-1.2402346 z m 1.447492,-2.4804689 0.723194,0 0,-0.5170399 c 0,-0.2579689 -0.0022,-0.4938889 -0.0066,-0.71217 z M 8.3232105,6.2564301 6.8768215,3.7759612 5.4293295,6.2564301 z m 2.8938785,-4.9609376 2.062648,0 C 13.123192,0.51717641 12.747263,0.27133451 11.859806,0.19416431 z m -8.6816398,0 L 1.8850153,0.17983271 C 0.85203769,0.23826171 0.43421639,0.46095231 0.26664699,1.2954925 z M 1.0890604,3.7759612 0.17514539,2.208305 c -0.012127,0.3031685 -0.016536,0.6515363 -0.016536,1.0506163 l 0,0.5170399 z m 4.3402691,7.4414068 -1.26559,2.170685 2.532283,0 z m 2.893881,0 -1.265591,2.170685 2.532284,0 z m -7.59133771,1.868619 -0.4519964,-0.775009 c 0.082682,0.371519 0.2215886,0.615157 0.4519964,0.775009 z"/><path id="path80" fill="#f9f9f9" d="m 7.3377781,10.442222 0,-5.0800001 -1.1288889,0 0,5.0800001 z m -1.4111112,-5.3622223 -2.54,-1.4111112 0,4.7977779 2.54,1.6933336 z M 10.16,8.4666664 l 10e-7,-4.7977779 -2.5400007,1.4111112 0,5.0800003 z M 9.5955559,3.6688885 c -1.1288889,0 -1.6933334,0.1467076 -2.8222223,1.1288889 C 5.6444447,3.8402228 5.0800002,3.6688885 3.9511113,3.6688885 l 2.2577779,1.4111112 1.1288889,0 z"/></svg>