<svg xmlns="http://www.w3.org/2000/svg" xmlns:svg="http://www.w3.org/2000/svg" xmlns:xlink="http://www.w3.org/1999/xlink" id="svg2" width="48" height="48" enable-background="new" version="1.1" viewBox="0 0 13.547 13.547"><metadata id="metadata26"/><defs id="defs4"><linearGradient id="linearGradient3862"><stop id="stop3864" offset="0" stop-color="#0a403e" stop-opacity="1"/><stop id="stop3866" offset="1" stop-color="#0a6363" stop-opacity="1"/></linearGradient><linearGradient id="linearGradient5393"><stop id="stop5395" offset="0" stop-color="#0a403e" stop-opacity="1"/><stop id="stop5397" offset="1" stop-color="#0a6363" stop-opacity="1"/></linearGradient><linearGradient id="linearGradient4460"><stop id="stop7" offset="0" stop-color="#256110" stop-opacity="1"/><stop id="stop9" offset="1" stop-color="#266318" stop-opacity="1"/></linearGradient><linearGradient id="linearGradient3008" x2="0" y1="279.096" y2="268.33" gradientTransform="matrix(1.10525,0,0,1.10525,-134.27874,-295.76183)" gradientUnits="userSpaceOnUse" xlink:href="#linearGradient4460"/><linearGradient id="linearGradient3885" x1="283.81" x2="283.81" y1="299.81" y2="31.619" gradientTransform="matrix(0.11931818,0,0,0.11931818,414.13636,48.22727)" gradientUnits="userSpaceOnUse" xlink:href="#outerBackgroundGradient"/><clipPath id="clipPath3881" clipPathUnits="userSpaceOnUse"><rect id="rect3883" width="30" height="30" x="417" y="53" fill="url(#linearGradient3885)" fill-opacity="1" fill-rule="nonzero" stroke="none" stroke-width="0" color="#bebebe" enable-background="accumulate" overflow="visible" ry="7" visibility="visible" style="marker:none"/></clipPath><linearGradient id="linearGradient3875" x1="286.857" x2="286.857" y1="302.857" y2="28.571" gradientTransform="matrix(0.0875,0,0,0.0875,414.9,97.5)" gradientUnits="userSpaceOnUse" xlink:href="#outerBackgroundGradient"/><clipPath id="clipPath3871" clipPathUnits="userSpaceOnUse"><rect id="rect3873" width="22" height="22" x="417" y="101" fill="url(#linearGradient3875)" fill-opacity="1" fill-rule="nonzero" stroke="none" stroke-width="0" color="#bebebe" enable-background="accumulate" overflow="visible" ry="5" visibility="visible" style="marker:none"/></clipPath><linearGradient id="linearGradient4350" x1="384" x2="384" y1="124" y2="28" gradientUnits="userSpaceOnUse" xlink:href="#outerBackgroundGradient"/><clipPath id="clipPath4346" clipPathUnits="userSpaceOnUse"><rect id="rect4348" width="88" height="88" x="292" y="32" fill="url(#linearGradient4350)" fill-opacity="1" fill-rule="nonzero" stroke="none" stroke-width="0" color="#bebebe" enable-background="accumulate" overflow="visible" ry="18" visibility="visible" style="marker:none"/></clipPath><linearGradient id="linearGradient4191" x1="352" x2="352" y1="204" y2="140" gradientUnits="userSpaceOnUse" xlink:href="#outerBackgroundGradient"/><clipPath id="clipPath4187" clipPathUnits="userSpaceOnUse"><rect id="rect4189" width="60" height="60" x="290" y="142" fill="url(#linearGradient4191)" fill-opacity="1" fill-rule="nonzero" stroke="none" stroke-width="0" color="#bebebe" enable-background="accumulate" overflow="visible" ry="12.5" visibility="visible" style="marker:none"/></clipPath><linearGradient id="linearGradient3866" x1="144" x2="144" y1="280" y2="40" gradientTransform="translate(0,-4)" gradientUnits="userSpaceOnUse" xlink:href="#outerBackgroundGradient"/><clipPath id="clipPath3862" clipPathUnits="userSpaceOnUse"><rect id="rect3864" width="220" height="220" x="34" y="46" fill="url(#linearGradient3866)" fill-opacity="1" fill-rule="nonzero" stroke="none" stroke-width="0" color="#bebebe" enable-background="accumulate" overflow="visible" ry="50" visibility="visible" style="marker:none"/></clipPath><linearGradient id="linearGradient3859" x1="144" x2="144" y1="280" y2="40" gradientTransform="matrix(0.06666667,0,0,0.06666667,302.4,209.33333)" gradientUnits="userSpaceOnUse" xlink:href="#outerBackgroundGradient"/><clipPath id="clipPath3855" clipPathUnits="userSpaceOnUse"><rect id="rect3857" width="16" height="16" x="304" y="212" fill="url(#linearGradient3859)" fill-opacity="1" fill-rule="nonzero" stroke="none" stroke-width="0" color="#bebebe" enable-background="accumulate" overflow="visible" ry="3" transform="matrix(0,1,-1,0,0,0)" visibility="visible" style="marker:none"/></clipPath><linearGradient id="linearGradient4093" x1="149.714" x2="149.714" y1="291.429" y2="40" gradientTransform="matrix(0.11931818,0,0,0.11931818,430.13636,32.227267)" gradientUnits="userSpaceOnUse" xlink:href="#outerBackgroundGradient"/><clipPath id="clipPath4089" clipPathUnits="userSpaceOnUse"><rect id="rect4091" width="30" height="30" x="433" y="37" fill="url(#linearGradient4093)" fill-opacity="1" fill-rule="nonzero" stroke="none" stroke-width="0" color="#bebebe" enable-background="accumulate" overflow="visible" ry="6" visibility="visible" style="marker:none"/></clipPath><linearGradient id="linearGradient4048" x1="149.714" x2="149.714" y1="291.429" y2="40" gradientTransform="matrix(0.0875,0,0,0.0875,430.9,81.499996)" gradientUnits="userSpaceOnUse" xlink:href="#outerBackgroundGradient"/><clipPath id="clipPath4044" clipPathUnits="userSpaceOnUse"><rect id="rect4046" width="22" height="22" x="433" y="85" fill="url(#linearGradient4048)" fill-opacity="1" fill-rule="nonzero" stroke="none" stroke-width="0" color="#bebebe" enable-background="accumulate" overflow="visible" ry="4" visibility="visible" style="marker:none"/></clipPath><linearGradient id="linearGradient4895" x1="144" x2="144" y1="280" y2="40" gradientTransform="matrix(0.175,0,0,0.175,302.79999,215.99997)" gradientUnits="userSpaceOnUse" xlink:href="#outerBackgroundGradient"/><clipPath id="clipPath4891" clipPathUnits="userSpaceOnUse"><rect id="rect4893" width="42" height="42" x="307" y="223" fill="url(#linearGradient4895)" fill-opacity="1" fill-rule="nonzero" stroke="none" stroke-width="0" color="#bebebe" enable-background="accumulate" overflow="visible" ry="9" transform="matrix(0,1,-1,0,0,0)" visibility="visible" style="marker:none"/></clipPath><linearGradient id="outerBackgroundGradient"><stop id="stop3864-8-6" offset="0" stop-color="#b94642" stop-opacity="1"/><stop id="stop3866-9-1" offset="1" stop-color="#c66a58" stop-opacity="1"/></linearGradient><linearGradient id="linearGradient4104" x2="0" y1="279.096" y2="268.33" gradientTransform="matrix(1.10525,0,0,1.10525,-134.27874,-295.76183)" gradientUnits="userSpaceOnUse" xlink:href="#linearGradient4460"/><pattern id="pattern3989" width="47.109" height="65" patternTransform="matrix(0.28222223,0,0,0.28222223,-14.159837,-6.208889)" patternUnits="userSpaceOnUse"><path id="path3958" fill="#2d2d2d" d="m 0,14.561951 4.2148452,6.423828 c 0.272374,-0.441772 0.5821972,-0.861486 0.964846,-1.244138 1.6071165,-1.60711 3.8277566,-2.216754 5.9160118,-1.87891 L 5.1726507,0 z m 11.095703,3.30078 1.091792,1.650396 c 0.4212,0.181453 0.818582,0.394086 1.193354,0.685544 l 0.685545,-1.091795 c -0.893916,-0.665944 -1.916759,-1.073633 -2.970691,-1.244145 z m 2.970691,1.244145 c 0.261921,0.19513 0.524044,0.397084 0.761726,0.634765 2.464345,2.464405 2.642048,6.391379 0.5332,9.064451 l 3.554691,3.554686 -1.117188,1.117189 -3.554693,-3.55469 c -2.196993,1.741791 -5.236955,1.915555 -7.617175,0.558596 L 0,40.561952 0.17266535,52.816988 15.172664,65 37.58257,61.652015 40.172664,28.449416 47.108848,15 37.970049,11.59458 14.622611,1.5945803 z M 6.626955,30.481873 7.3378912,29.390076 C 6.8993219,29.145942 6.4667479,28.849009 6.0937546,28.476016 4.4026546,26.784915 4.0694066,24.274191 5.0273467,22.229917 L 4.2148452,20.985779 c -1.6182496,2.624528 -1.3084335,6.131037 0.964846,8.404297 0.4398236,0.439824 0.9312874,0.797645 1.4472638,1.091797 z M 5.0273467,22.229917 12.236254,25 7.3378912,29.390076 c 2.1001074,1.16902 4.7900338,0.872076 6.5761578,-0.91406 2.159129,-2.159144 2.159129,-5.661182 0,-7.820317 -0.166464,-0.166465 -0.352169,-0.31624 -0.5332,-0.457028 l -0.38086,0.558593 -0.812494,-1.244137 c -2.014313,-0.867811 -4.4457058,-0.50541 -6.0937404,1.142572 -0.468039,0.468041 -0.801287,1.008434 -1.0664079,1.574218 z m 14.2187443,9.978517 3.554688,3.554688 -1.599608,1.599611 -3.554691,-3.554689 z"/></pattern><linearGradient id="linearGradient3007" x2="0" y1="279.096" y2="268.33" gradientTransform="matrix(1.10525,0,0,1.10525,-134.27874,-295.76183)" gradientUnits="userSpaceOnUse" xlink:href="#linearGradient4460-5"/><linearGradient id="linearGradient4460-5"><stop id="stop5312" offset="0" stop-color="#d7d7d7"/><stop id="stop5314" offset="1" stop-color="#efefef"/></linearGradient><linearGradient id="linearGradient5399" x1="8.944" x2="30.556" y1="1025.362" y2="1025.362" gradientUnits="userSpaceOnUse" xlink:href="#linearGradient5393"/><linearGradient id="linearGradient5399-7" x1="8.944" x2="30.556" y1="1025.362" y2="1025.362" gradientUnits="userSpaceOnUse" xlink:href="#linearGradient5393-4"/><linearGradient id="linearGradient5393-4"><stop id="stop5395-7" offset="0" stop-color="#0a403e" stop-opacity="1"/><stop id="stop5397-5" offset="1" stop-color="#0a6363" stop-opacity="1"/></linearGradient><linearGradient id="linearGradient3041-3" x1="8.944" x2="30.556" y1="1025.362" y2="1025.362" gradientUnits="userSpaceOnUse" xlink:href="#linearGradient5393-4"/><linearGradient id="linearGradient3057"><stop id="stop3059" offset="0" stop-color="#0a403e" stop-opacity="1"/><stop id="stop3061" offset="1" stop-color="#0a6363" stop-opacity="1"/></linearGradient><linearGradient id="linearGradient3868" x1="8.944" x2="30.556" y1="1025.362" y2="1025.362" gradientUnits="userSpaceOnUse" xlink:href="#linearGradient3862"/><linearGradient id="linearGradient3801" x2="0" y1="1053.158" y2="1004.847" gradientUnits="userSpaceOnUse" xlink:href="#linearGradient3795"/><linearGradient id="linearGradient3795"><stop id="stop4030" offset="0" stop-color="#cc9f52"/><stop id="stop4032" offset="1" stop-color="#e18559"/></linearGradient><linearGradient id="linearGradient4101" x2="0" y1="1053.158" y2="1004.847" gradientTransform="matrix(0.28222223,0,0,0.28222223,-18.034034,-286.04484)" gradientUnits="userSpaceOnUse" xlink:href="#linearGradient3795"/><radialGradient id="radialGradient4432" cx="148.004" cy="160" r="128" gradientTransform="matrix(0.97656,0,0,0.97656,-16.5349,-236.25)" gradientUnits="userSpaceOnUse" xlink:href="#linearGradient3784-0-9-8"/><linearGradient id="linearGradient3784-0-9-8"><stop id="stop4280" offset="0" stop-color="#e489cd"/><stop id="stop4282" offset="1" stop-color="#772963"/></linearGradient><linearGradient id="linearGradient4104-4" x2="0" y1="279.096" y2="268.33" gradientTransform="matrix(1.10525,0,0,1.10525,-134.27874,-295.76183)" gradientUnits="userSpaceOnUse" xlink:href="#linearGradient4460-1"/><linearGradient id="linearGradient4460-1"><stop id="stop7-5" offset="0" stop-color="#256110" stop-opacity="1"/><stop id="stop9-6" offset="1" stop-color="#266318" stop-opacity="1"/></linearGradient><linearGradient id="B" x2="0" y1="1050.36" y2="1006.36" gradientTransform="translate(-78.066775,-887.05181)" gradientUnits="userSpaceOnUse" xlink:href="#0"/><linearGradient id="0"><stop id="stop7-2" stop-color="#c34141"/><stop id="stop9-2" offset="1" stop-color="#d76464"/></linearGradient><linearGradient id="linearGradient3103" x2="0" y1="1050.36" y2="1006.36" gradientTransform="matrix(0.28222223,0,0,0.28222223,0,-283.45335)" gradientUnits="userSpaceOnUse" xlink:href="#linearGradient4460-1"/><radialGradient id="radial0" cx="148.004" cy="160" r="128" gradientTransform="matrix(0.1831,0,0,0.1831,-3.10029,-5.29688)" gradientUnits="userSpaceOnUse"><stop id="stop7-0" offset="0" stop-color="#b3d687" stop-opacity="1"/><stop id="stop9-3" offset="1" stop-color="#438200" stop-opacity="1"/></radialGradient><radialGradient id="radialGradient3002" cx="148.004" cy="160" r="128" gradientTransform="matrix(0.05167489,0,0,0.05167489,-0.87510911,-1.4947612)" gradientUnits="userSpaceOnUse" xlink:href="#radial0"/></defs><path id="path11" fill="url(#radialGradient3002)" d="m 13.387779,3.2589209 0,7.0290971 c 0,2.892778 0,3.100035 -3.100035,3.100035 l -7.0279951,0 c -3.10113701,0 -3.10113701,-0.207257 -3.10113701,-3.100035 l 0,-7.0290971 c 0,-2.89277779 0,-3.10003479 3.10113701,-3.10003479 l 7.0279951,0 c 3.100035,0 3.100035,0.207257 3.100035,3.10003479 z"/><path id="path15" fill="#fff" fill-opacity=".051" d="m 10.799272,13.388053 c 0.717682,-0.0033 1.235825,-0.02315 1.611753,-0.124575 l -1.193932,-2.046111 -1.2655901,2.170686 0.3362411,0 c 0.180799,0 0.350573,0 0.511528,0 z M 11.217093,11.217367 9.7707039,8.7368984 8.3232129,11.217367 z m 0,0 2.159662,0 c 0.0088,-0.274505 0.01102,-0.582083 0.01102,-0.930451 l 0,-0.3097833 -0.723194,-1.2402343 z M 12.664585,8.7368984 11.217093,6.2564297 9.7707039,8.7368984 z m 0,0 0.723194,0 0,-1.2402343 z m -2.8938811,0 -1.447491,-2.4804687 -1.446389,2.4804687 z m -2.89388,0 -1.447491,2.4804686 2.89388,0 z m 0,0 -1.447491,-2.4804687 -1.446389,2.4804687 z m -2.89388,0 -1.447492,2.4804686 2.893881,0 z m 0,0 -1.447492,-2.4804687 -1.446389,2.4804687 z m -2.893881,0 -0.93045101,1.5941146 c 0,0.329627 0.0033,0.623976 0.01102,0.886354 l 2.36581601,0 z m 0,0 -0.93045101,-1.5941145 0,1.5941145 z m 1.446389,2.4804686 -1.217083,2.086901 c 0.450894,0.08268 1.07487,0.08379 1.940278,0.08379 l 0.543498,0 z m 0,-4.9609373 -1.446389,-2.4804689 -0.93045101,1.5941147 0,0.8863542 z m 0,0 2.893881,0 -1.446389,-2.4804689 z M 3.9829439,3.7759608 2.5354519,1.2954921 1.0890629,3.7759608 z m 0,0 2.89388,0 -1.447491,-2.4804687 z m 1.446389,-2.4804687 -0.663663,-1.13660599 -1.507023,0 c -0.02095,0 -0.03858,0 -0.05953,0 L 2.5354529,1.2954921 z m 0,0 2.89388,0 -0.663663,-1.13660599 -1.566554,0 z m 2.89388,0 2.8938801,0 -0.663663,-1.13660599 c -0.0882,0 -0.171979,0 -0.265686,0 l -1.3008681,0 z m 0,0 -1.446389,2.4804687 2.89388,0 z m 1.447491,2.4804687 2.8938811,0 -1.447492,-2.4804687 z m 0,0 -1.447491,2.4804689 2.8938801,0 z m 1.4463891,2.4804689 2.170686,0 0,-1.2402343 -0.723194,-1.2402346 z m 1.447492,-2.4804689 0.723194,0 0,-0.5170399 c 0,-0.2579689 -0.0022,-0.4938889 -0.0066,-0.71217 z M 8.3232129,6.2564297 6.8768239,3.7759608 5.4293329,6.2564297 z m 2.8938801,-4.9609376 2.062648,0 C 13.123196,0.51717601 12.747267,0.27133421 11.85981,0.19416391 z m -8.6816411,0 -0.650434,-1.11565969 C 0.85204089,0.23826141 0.43421989,0.46095201 0.26664989,1.2954921 z M 1.0890629,3.7759608 0.17514889,2.2083046 c -0.01213,0.3031685 -0.01654,0.6515363 -0.01654,1.0506163 l 0,0.5170399 z m 4.34027,7.4414062 -1.265591,2.170686 2.532283,0 z m 2.89388,0 -1.265591,2.170686 2.532284,0 z m -7.59133701,1.86862 -0.451996,-0.775009 c 0.08268,0.371519 0.221588,0.615157 0.451996,0.775009 z"/><g id="layer6" display="inline" opacity="1" transform="matrix(0.28222223,0,0,0.28222223,22.03218,-33.107606)"><path id="path3912" fill="#f9f9f9" fill-opacity="1" d="m -66.066777,130.31041 0,17 9,6 0,-18 -9,-5 z m 2,0 8,5 4,0 8,-5 c -4,0 -6,0.51983 -10,4 -4,-3.39291 -6,-4 -10,-4 z m 22,0 -9,5 0,8.4375 2.03125,2.03125 c 1.0594,1.06158 3.061186,-0.97146 2,-2.03125 l -2.125,-2.125 c 0.400573,-0.15634 0.825403,-0.24334 1.25,-0.25 0.934112,-0.0145 1.881985,0.31935 2.59375,1.03125 1.035295,1.03548 1.281436,2.56166 0.78125,3.84375 l 1.625,1.625 0.84375,-0.5625 0,-17 z m -14,6 0,18 4,0 0,-18 -4,0 z m 5,10.1875 0,6.8125 5.71875,-3.8125 -1.21875,-1.21875 c -1.281848,0.50027 -2.777205,0.22298 -3.8125,-0.8125 -0.293774,-0.29383 -0.516548,-0.61241 -0.6875,-0.96875 z"/><path id="use3874" fill="#f9f9f9" fill-opacity="1" d="m -66.066777,130.31041 0,17 9,6 0,-18 -9,-5 z m 2,0 8,5 4,0 8,-5 c -4,0 -6,0.51983 -10,4 -4,-3.39291 -6,-4 -10,-4 z m 22,0 -9,5 0,8.4375 2.03125,2.03125 c 1.0594,1.06158 3.061186,-0.97146 2,-2.03125 l -2.125,-2.125 c 0.400573,-0.15634 0.825403,-0.24334 1.25,-0.25 0.934112,-0.0145 1.881985,0.31935 2.59375,1.03125 1.035295,1.03548 1.281436,2.56166 0.78125,3.84375 l 1.625,1.625 0.84375,-0.5625 0,-17 z m -14,6 0,18 4,0 0,-18 -4,0 z m 5,10.1875 0,6.8125 5.71875,-3.8125 -1.21875,-1.21875 c -1.281848,0.50027 -2.777205,0.22298 -3.8125,-0.8125 -0.293774,-0.29383 -0.516548,-0.61241 -0.6875,-0.96875 z"/></g><g id="g5323" transform="matrix(0.26191,-0.26191,0.26191,0.26191,-290.1647,-231.38364)"><path id="path5325" fill="none" stroke="#fff" stroke-width="1.6" d="m 28.374998,19.875002 c 0,5.108634 -4.141366,9.25 -9.25,9.25 -5.108634,0 -9.2499999,-4.141366 -9.2499999,-9.25 0,-5.108634 4.1413659,-9.25 9.2499999,-9.25 5.108634,0 9.25,4.141366 9.25,9.25 z" transform="translate(0.625,1005.4872)"/></g><g id="g5327" fill="#fff" transform="matrix(0.26191,-0.26191,0.26191,0.26191,-290.1647,-231.38364)"><rect id="rect5329" width="3.415" height="7.544" x="18.042" y="1043.276" rx="0"/><rect id="rect5331" width="2.396" height="7.544" x="18.552" y="1035.526" rx="0"/></g><g id="g4291" transform="matrix(0.49508688,0,0,0.46869677,1.1559499,-451.74183)"><path id="path4293" fill="none" stroke="#fff" stroke-width="2.542" d="m 23.019559,1017.7388 c -5.960683,0.3238 -10.704347,5.6209 -10.704347,12.0892 0,6.6769 5.054006,12.0892 11.284478,12.0892 6.230472,0 11.284478,-5.4123 11.284478,-12.0892 0,-6.6769 -5.054006,-12.0892 -11.284478,-12.0892 -0.1947,0 -0.387851,-0.01 -0.580131,0 z"/></g><g id="g4291-7-6" transform="matrix(0.1571696,0,0,0.14879183,-20.729272,-145.9518)"><path id="path4293-3-1" fill="none" stroke="#fff" stroke-width="2.542" d="m 23.019559,1017.7388 c -5.960683,0.3238 -10.704347,5.6209 -10.704347,12.0892 0,6.6769 5.054006,12.0892 11.284478,12.0892 6.230472,0 11.284478,-5.4123 11.284478,-12.0892 0,-6.6769 -5.054006,-12.0892 -11.284478,-12.0892 -0.1947,0 -0.387851,-0.01 -0.580131,0 z"/></g></svg>