<svg xmlns="http://www.w3.org/2000/svg" xmlns:svg="http://www.w3.org/2000/svg" xmlns:xlink="http://www.w3.org/1999/xlink" id="svg2" width="48" height="48" enable-background="new" version="1.1" viewBox="0 0 13.547 13.547"><metadata id="metadata26"/><defs id="defs4"><linearGradient id="linearGradient3862"><stop id="stop3864" offset="0" stop-color="#0a403e" stop-opacity="1"/><stop id="stop3866" offset="1" stop-color="#0a6363" stop-opacity="1"/></linearGradient><linearGradient id="linearGradient5393"><stop id="stop5395" offset="0" stop-color="#0a403e" stop-opacity="1"/><stop id="stop5397" offset="1" stop-color="#0a6363" stop-opacity="1"/></linearGradient><linearGradient id="linearGradient4460"><stop id="stop7" offset="0" stop-color="#0a4140" stop-opacity="1"/><stop id="stop9" offset="1" stop-color="#0a6464" stop-opacity="1"/></linearGradient><linearGradient id="linearGradient3008" x2="0" y1="279.096" y2="268.33" gradientTransform="matrix(1.10525,0,0,1.10525,-134.27874,-295.76183)" gradientUnits="userSpaceOnUse" xlink:href="#linearGradient4460"/><linearGradient id="linearGradient3885" x1="283.81" x2="283.81" y1="299.81" y2="31.619" gradientTransform="matrix(0.11931818,0,0,0.11931818,414.13636,48.22727)" gradientUnits="userSpaceOnUse" xlink:href="#outerBackgroundGradient"/><clipPath id="clipPath3881" clipPathUnits="userSpaceOnUse"><rect id="rect3883" width="30" height="30" x="417" y="53" fill="url(#linearGradient3885)" fill-opacity="1" fill-rule="nonzero" stroke="none" stroke-width="0" color="#bebebe" display="inline" enable-background="accumulate" overflow="visible" ry="7" visibility="visible" style="marker:none"/></clipPath><linearGradient id="linearGradient3875" x1="286.857" x2="286.857" y1="302.857" y2="28.571" gradientTransform="matrix(0.0875,0,0,0.0875,414.9,97.5)" gradientUnits="userSpaceOnUse" xlink:href="#outerBackgroundGradient"/><clipPath id="clipPath3871" clipPathUnits="userSpaceOnUse"><rect id="rect3873" width="22" height="22" x="417" y="101" fill="url(#linearGradient3875)" fill-opacity="1" fill-rule="nonzero" stroke="none" stroke-width="0" color="#bebebe" display="inline" enable-background="accumulate" overflow="visible" ry="5" visibility="visible" style="marker:none"/></clipPath><linearGradient id="linearGradient4350" x1="384" x2="384" y1="124" y2="28" gradientUnits="userSpaceOnUse" xlink:href="#outerBackgroundGradient"/><clipPath id="clipPath4346" clipPathUnits="userSpaceOnUse"><rect id="rect4348" width="88" height="88" x="292" y="32" fill="url(#linearGradient4350)" fill-opacity="1" fill-rule="nonzero" stroke="none" stroke-width="0" color="#bebebe" display="inline" enable-background="accumulate" overflow="visible" ry="18" visibility="visible" style="marker:none"/></clipPath><linearGradient id="linearGradient4191" x1="352" x2="352" y1="204" y2="140" gradientUnits="userSpaceOnUse" xlink:href="#outerBackgroundGradient"/><clipPath id="clipPath4187" clipPathUnits="userSpaceOnUse"><rect id="rect4189" width="60" height="60" x="290" y="142" fill="url(#linearGradient4191)" fill-opacity="1" fill-rule="nonzero" stroke="none" stroke-width="0" color="#bebebe" display="inline" enable-background="accumulate" overflow="visible" ry="12.5" visibility="visible" style="marker:none"/></clipPath><linearGradient id="linearGradient3866" x1="144" x2="144" y1="280" y2="40" gradientTransform="translate(0,-4)" gradientUnits="userSpaceOnUse" xlink:href="#outerBackgroundGradient"/><clipPath id="clipPath3862" clipPathUnits="userSpaceOnUse"><rect id="rect3864" width="220" height="220" x="34" y="46" fill="url(#linearGradient3866)" fill-opacity="1" fill-rule="nonzero" stroke="none" stroke-width="0" color="#bebebe" display="inline" enable-background="accumulate" overflow="visible" ry="50" visibility="visible" style="marker:none"/></clipPath><linearGradient id="linearGradient3859" x1="144" x2="144" y1="280" y2="40" gradientTransform="matrix(0.06666667,0,0,0.06666667,302.4,209.33333)" gradientUnits="userSpaceOnUse" xlink:href="#outerBackgroundGradient"/><clipPath id="clipPath3855" clipPathUnits="userSpaceOnUse"><rect id="rect3857" width="16" height="16" x="304" y="212" fill="url(#linearGradient3859)" fill-opacity="1" fill-rule="nonzero" stroke="none" stroke-width="0" color="#bebebe" display="inline" enable-background="accumulate" overflow="visible" ry="3" transform="matrix(0,1,-1,0,0,0)" visibility="visible" style="marker:none"/></clipPath><linearGradient id="linearGradient4093" x1="149.714" x2="149.714" y1="291.429" y2="40" gradientTransform="matrix(0.11931818,0,0,0.11931818,430.13636,32.227267)" gradientUnits="userSpaceOnUse" xlink:href="#outerBackgroundGradient"/><clipPath id="clipPath4089" clipPathUnits="userSpaceOnUse"><rect id="rect4091" width="30" height="30" x="433" y="37" fill="url(#linearGradient4093)" fill-opacity="1" fill-rule="nonzero" stroke="none" stroke-width="0" color="#bebebe" display="inline" enable-background="accumulate" overflow="visible" ry="6" visibility="visible" style="marker:none"/></clipPath><linearGradient id="linearGradient4048" x1="149.714" x2="149.714" y1="291.429" y2="40" gradientTransform="matrix(0.0875,0,0,0.0875,430.9,81.499996)" gradientUnits="userSpaceOnUse" xlink:href="#outerBackgroundGradient"/><clipPath id="clipPath4044" clipPathUnits="userSpaceOnUse"><rect id="rect4046" width="22" height="22" x="433" y="85" fill="url(#linearGradient4048)" fill-opacity="1" fill-rule="nonzero" stroke="none" stroke-width="0" color="#bebebe" display="inline" enable-background="accumulate" overflow="visible" ry="4" visibility="visible" style="marker:none"/></clipPath><linearGradient id="linearGradient4895" x1="144" x2="144" y1="280" y2="40" gradientTransform="matrix(0.175,0,0,0.175,302.79999,215.99997)" gradientUnits="userSpaceOnUse" xlink:href="#outerBackgroundGradient"/><clipPath id="clipPath4891" clipPathUnits="userSpaceOnUse"><rect id="rect4893" width="42" height="42" x="307" y="223" fill="url(#linearGradient4895)" fill-opacity="1" fill-rule="nonzero" stroke="none" stroke-width="0" color="#bebebe" display="inline" enable-background="accumulate" overflow="visible" ry="9" transform="matrix(0,1,-1,0,0,0)" visibility="visible" style="marker:none"/></clipPath><linearGradient id="outerBackgroundGradient"><stop id="stop3864-8-6" offset="0" stop-color="#b94642" stop-opacity="1"/><stop id="stop3866-9-1" offset="1" stop-color="#c66a58" stop-opacity="1"/></linearGradient><linearGradient id="linearGradient4104" x2="0" y1="279.096" y2="268.33" gradientTransform="matrix(1.10525,0,0,1.10525,-134.27874,-295.76183)" gradientUnits="userSpaceOnUse" xlink:href="#linearGradient4460"/><pattern id="pattern3989" width="47.109" height="65" patternTransform="matrix(0.28222223,0,0,0.28222223,-14.159837,-6.208889)" patternUnits="userSpaceOnUse"><path id="path3958" fill="#2d2d2d" d="m 0,14.561951 4.2148452,6.423828 c 0.272374,-0.441772 0.5821972,-0.861486 0.964846,-1.244138 1.6071165,-1.60711 3.8277566,-2.216754 5.9160118,-1.87891 L 5.1726507,0 z m 11.095703,3.30078 1.091792,1.650396 c 0.4212,0.181453 0.818582,0.394086 1.193354,0.685544 l 0.685545,-1.091795 c -0.893916,-0.665944 -1.916759,-1.073633 -2.970691,-1.244145 z m 2.970691,1.244145 c 0.261921,0.19513 0.524044,0.397084 0.761726,0.634765 2.464345,2.464405 2.642048,6.391379 0.5332,9.064451 l 3.554691,3.554686 -1.117188,1.117189 -3.554693,-3.55469 c -2.196993,1.741791 -5.236955,1.915555 -7.617175,0.558596 L 0,40.561952 0.17266535,52.816988 15.172664,65 37.58257,61.652015 40.172664,28.449416 47.108848,15 37.970049,11.59458 14.622611,1.5945803 z M 6.626955,30.481873 7.3378912,29.390076 C 6.8993219,29.145942 6.4667479,28.849009 6.0937546,28.476016 4.4026546,26.784915 4.0694066,24.274191 5.0273467,22.229917 L 4.2148452,20.985779 c -1.6182496,2.624528 -1.3084335,6.131037 0.964846,8.404297 0.4398236,0.439824 0.9312874,0.797645 1.4472638,1.091797 z M 5.0273467,22.229917 12.236254,25 7.3378912,29.390076 c 2.1001074,1.16902 4.7900338,0.872076 6.5761578,-0.91406 2.159129,-2.159144 2.159129,-5.661182 0,-7.820317 -0.166464,-0.166465 -0.352169,-0.31624 -0.5332,-0.457028 l -0.38086,0.558593 -0.812494,-1.244137 c -2.014313,-0.867811 -4.4457058,-0.50541 -6.0937404,1.142572 -0.468039,0.468041 -0.801287,1.008434 -1.0664079,1.574218 z m 14.2187443,9.978517 3.554688,3.554688 -1.599608,1.599611 -3.554691,-3.554689 z"/></pattern><linearGradient id="linearGradient3007" x2="0" y1="279.096" y2="268.33" gradientTransform="matrix(1.10525,0,0,1.10525,-134.27874,-295.76183)" gradientUnits="userSpaceOnUse" xlink:href="#linearGradient4460-5"/><linearGradient id="linearGradient4460-5"><stop id="stop5312" offset="0" stop-color="#d7d7d7"/><stop id="stop5314" offset="1" stop-color="#efefef"/></linearGradient><linearGradient id="linearGradient5399" x1="8.944" x2="30.556" y1="1025.362" y2="1025.362" gradientUnits="userSpaceOnUse" xlink:href="#linearGradient5393"/><linearGradient id="linearGradient5399-7" x1="8.944" x2="30.556" y1="1025.362" y2="1025.362" gradientUnits="userSpaceOnUse" xlink:href="#linearGradient5393-4"/><linearGradient id="linearGradient5393-4"><stop id="stop5395-7" offset="0" stop-color="#0a403e" stop-opacity="1"/><stop id="stop5397-5" offset="1" stop-color="#0a6363" stop-opacity="1"/></linearGradient><linearGradient id="linearGradient3041-3" x1="8.944" x2="30.556" y1="1025.362" y2="1025.362" gradientUnits="userSpaceOnUse" xlink:href="#linearGradient5393-4"/><linearGradient id="linearGradient3057"><stop id="stop3059" offset="0" stop-color="#0a403e" stop-opacity="1"/><stop id="stop3061" offset="1" stop-color="#0a6363" stop-opacity="1"/></linearGradient><linearGradient id="linearGradient3868" x1="8.944" x2="30.556" y1="1025.362" y2="1025.362" gradientUnits="userSpaceOnUse" xlink:href="#linearGradient3862"/><linearGradient id="linearGradient5393-1"><stop id="stop5395-5" offset="0" stop-color="#0a403e" stop-opacity="1"/><stop id="stop5397-7" offset="1" stop-color="#0a6363" stop-opacity="1"/></linearGradient><linearGradient id="linearGradient3041-9" x1="8.944" x2="30.556" y1="1025.362" y2="1025.362" gradientUnits="userSpaceOnUse" xlink:href="#linearGradient5393-1"/><linearGradient id="linearGradient9318"><stop id="stop9320" offset="0" stop-color="#0c4d4a" stop-opacity="1"/><stop id="stop9322" offset="1" stop-color="#085050" stop-opacity="1"/></linearGradient><linearGradient id="linearGradient14830" x1="9.422" x2="30.078" y1="1025.362" y2="1025.362" gradientUnits="userSpaceOnUse" xlink:href="#linearGradient9318"/><linearGradient id="linearGradient14830-9" x1="9.422" x2="30.078" y1="1025.362" y2="1025.362" gradientUnits="userSpaceOnUse" xlink:href="#linearGradient9318-6"/><linearGradient id="linearGradient9318-6"><stop id="stop9320-1" offset="0" stop-color="#0c4d4a" stop-opacity="1"/><stop id="stop9322-8" offset="1" stop-color="#085050" stop-opacity="1"/></linearGradient><linearGradient id="linearGradient8818" x1="9.422" x2="30.078" y1="1025.362" y2="1025.362" gradientUnits="userSpaceOnUse" xlink:href="#linearGradient9318-6"/><linearGradient id="linearGradient8820"><stop id="stop8822" offset="0" stop-color="#0c4d4a" stop-opacity="1"/><stop id="stop8824" offset="1" stop-color="#085050" stop-opacity="1"/></linearGradient><filter id="filter8861"><feGaussianBlur id="feGaussianBlur8863" stdDeviation=".092"/></filter><linearGradient id="linearGradient9406" x1="8.944" x2="30.556" y1="1025.362" y2="1025.362" gradientUnits="userSpaceOnUse" xlink:href="#linearGradient5393"/><linearGradient id="B" x2="0" y1="1050.36" y2="1006.36" gradientTransform="translate(-78.066775,-887.05181)" gradientUnits="userSpaceOnUse" xlink:href="#0"/><linearGradient id="0"><stop id="stop7-8" stop-color="#c34141"/><stop id="stop9-3" offset="1" stop-color="#d76464"/></linearGradient><linearGradient id="linearGradient3108" x2="0" y1="1050.36" y2="1006.36" gradientTransform="matrix(0.28222223,0,0,0.28222223,5.9916667e-7,-283.45335)" gradientUnits="userSpaceOnUse" xlink:href="#linearGradient4460"/><radialGradient id="radial0" cx="148.004" cy="160" r="128" gradientTransform="matrix(0.1831,0,0,0.1831,-3.10029,-5.29688)" gradientUnits="userSpaceOnUse"><stop id="stop7-2" offset="0" stop-color="#93d1e7"/><stop id="stop9-8" offset="1" stop-color="#037386"/></radialGradient><radialGradient id="radialGradient3002" cx="148.004" cy="160" r="128" gradientTransform="matrix(0.1831,0,0,0.1831,-3.66279,-5.85938)" gradientUnits="userSpaceOnUse" xlink:href="#radial0"/><radialGradient id="radialGradient3118" cx="148.004" cy="160" r="128" gradientTransform="matrix(0.05167489,0,0,0.05167489,-0.87511191,-1.4947612)" gradientUnits="userSpaceOnUse" xlink:href="#radial0"/></defs><path id="path11" fill="url(#radialGradient3118)" d="m 13.387776,3.2589209 0,7.0290971 c 0,2.892778 0,3.100035 -3.100035,3.100035 l -7.0279949,0 c -3.10113721,0 -3.10113721,-0.207257 -3.10113721,-3.100035 l 0,-7.0290971 c 0,-2.89277779 0,-3.10003479 3.10113721,-3.10003479 l 7.0279949,0 c 3.100035,0 3.100035,0.207257 3.100035,3.10003479 z"/><path id="path15" fill="#fff" fill-opacity=".051" d="m 10.799269,13.388053 c 0.717682,-0.0033 1.235825,-0.02315 1.611753,-0.124575 l -1.193932,-2.046111 -1.2655902,2.170686 0.3362412,0 c 0.180799,0 0.350573,0 0.511528,0 z M 11.21709,11.217367 9.7707012,8.7368984 8.3232099,11.217367 z m 0,0 2.159662,0 c 0.0088,-0.274505 0.01102,-0.582083 0.01102,-0.930451 l 0,-0.3097833 -0.723194,-1.2402343 z M 12.664582,8.7368984 11.21709,6.2564297 9.7707012,8.7368984 z m 0,0 0.723194,0 0,-1.2402343 z m -2.8938808,0 L 8.3232099,6.2564297 6.876821,8.7368984 z m -2.8938802,0 -1.4474916,2.4804686 2.8938805,0 z m 0,0 L 5.4293294,6.2564297 3.9829405,8.7368984 z m -2.8938805,0 -1.4474913,2.4804686 2.8938802,0 z m 0,0 L 2.5354492,6.2564297 1.0890603,8.7368984 z m -2.8938802,0 -0.93045141,1.5941146 c 0,0.329627 0.00331,0.623976 0.011024,0.886354 l 2.36581621,0 z m 0,0 -0.93045141,-1.5941145 0,1.5941145 z m 1.4463889,2.4804686 -1.2170833,2.086901 c 0.450894,0.08268 1.0748699,0.08379 1.9413802,0.08379 l 0.5423958,0 z m 0,-4.9609373 -1.4463889,-2.4804689 -0.93045141,1.5941147 0,0.8863542 z m 0,0 2.8938802,0 L 3.9829405,3.7759608 z M 3.9829405,3.7759608 2.5354492,1.2954921 1.0890603,3.7759608 z m 0,0 2.8938805,0 -1.4474916,-2.4804687 z m 1.4463889,-2.4804687 -0.663663,-1.13660599 -1.5070227,0 c -0.020946,0 -0.038585,0 -0.059531,0 L 2.5354493,1.2954921 z m 0,0 2.8938805,0 -0.6636633,-1.13660599 -1.5665538,0 z m 2.8938805,0 2.8938801,0 -0.663663,-1.13660599 c -0.0882,0 -0.171979,0 -0.266788,0 l -1.299766,0 z m 0,0 -1.4463889,2.4804687 2.8938802,0 z m 1.4474913,2.4804687 2.8938808,0 -1.447492,-2.4804687 z m 0,0 -1.4474913,2.4804689 2.8938801,0 z m 1.4463888,2.4804689 2.170686,0 0,-1.2402343 -0.723194,-1.2402346 z m 1.447492,-2.4804689 0.723194,0 0,-0.5170399 c 0,-0.2579689 -0.0022,-0.4938889 -0.0066,-0.71217 z M 8.3232099,6.2564297 6.876821,3.7759608 5.4293294,6.2564297 z m 2.8938801,-4.9609376 2.062648,0 C 13.123193,0.51717601 12.747264,0.27133421 11.859807,0.19416391 z m -8.6816408,0 L 1.8850153,0.17983241 C 0.85203759,0.23826141 0.43421639,0.46095201 0.26664689,1.2954921 z M 1.0890603,3.7759608 0.17514539,2.2083046 c -0.012127,0.3031685 -0.016536,0.6515363 -0.016536,1.0506163 l 0,0.5170399 z m 4.3402691,7.4414062 -1.2655903,2.170686 2.532283,0 z m 2.8938805,0 -1.2655906,2.170686 2.5322833,0 z m -7.59133711,1.86862 -0.4519964,-0.775009 c 0.082682,0.371519 0.2215884,0.615157 0.4519964,0.775009 z"/><g id="layer6" display="inline" opacity="1" transform="matrix(0.28222223,0,0,0.28222223,22.03218,-33.107606)"><path id="path3912" fill="#f9f9f9" fill-opacity="1" d="M 12 13 L 12 30 L 21 36 L 21 18 L 12 13 z M 14 13 L 22 18 L 26 18 L 34 13 C 30 13 28 13.51983 24 17 C 20 13.60709 18 13 14 13 z M 36 13 L 27 18 L 27 24.5625 C 27.235962 24.159464 27.529318 23.783183 27.875 23.4375 C 30.053198 21.259297 33.571802 21.259297 35.75 23.4375 C 35.833777 23.521277 35.922668 23.599873 36 23.6875 L 36 13 z M 22 19 L 22 37 L 26 37 L 26 19 L 22 19 z M 27 30.1875 L 27 36 L 31.59375 32.9375 C 30.240633 32.884329 28.908042 32.345545 27.875 31.3125 C 27.529318 30.966817 27.235962 30.590536 27 30.1875 z" transform="translate(-78.066777,117.31041)"/></g><g id="g5323" transform="matrix(0.26191,-0.26191,0.26191,0.26191,-290.1647,-231.38364)"><path id="path5325" fill="none" stroke="#fff" stroke-width="1.6" d="m 28.374998,19.875002 c 0,5.108634 -4.141366,9.25 -9.25,9.25 -5.108634,0 -9.2499999,-4.141366 -9.2499999,-9.25 0,-5.108634 4.1413659,-9.25 9.2499999,-9.25 5.108634,0 9.25,4.141366 9.25,9.25 z" transform="translate(0.625,1005.4872)"/></g><g id="g5327" fill="#fff" transform="matrix(0.26191,-0.26191,0.26191,0.26191,-290.1647,-231.38364)"><rect id="rect5329" width="3.415" height="7.544" x="18.042" y="1043.276" rx="0"/><rect id="rect5331" width="2.396" height="7.544" x="18.552" y="1035.526" rx="0"/></g><g id="g5337" fill="#fff" fill-opacity="1" stroke-dasharray="none" stroke-miterlimit="4" stroke-width="2.156" transform="matrix(0.08769762,-0.08769769,0.08769762,0.08769769,-82.660515,-80.477797)"><rect id="rect5339" width="3.415" height="7.544" x="18.042" y="1043.276" fill="#fff" fill-opacity="1" stroke-dasharray="none" stroke-miterlimit="4" stroke-width="2.156" rx="0"/><rect id="rect5341" width="2.396" height="7.544" x="18.552" y="1035.526" fill="#fff" fill-opacity="1" stroke-dasharray="none" stroke-miterlimit="4" stroke-width="2.156" rx="0"/></g><g id="g5333" fill="none" stroke="#fff" stroke-dasharray="none" stroke-miterlimit="4" stroke-opacity="1" stroke-width="2.156" transform="matrix(0.08769762,-0.08769769,0.08769762,0.08769769,-82.649683,-80.466968)"><path id="path5335" fill="none" stroke="#fff" stroke-dasharray="none" stroke-miterlimit="4" stroke-opacity="1" stroke-width="2.156" d="m 28.374998,19.875002 c 0,5.108634 -4.141366,9.25 -9.25,9.25 -5.108634,0 -9.2499999,-4.141366 -9.2499999,-9.25 0,-5.108634 4.1413659,-9.25 9.2499999,-9.25 5.108634,0 9.25,4.141366 9.25,9.25 z" transform="translate(0.625,1005.4872)"/></g></svg>