<svg xmlns="http://www.w3.org/2000/svg" xmlns:svg="http://www.w3.org/2000/svg" xmlns:xlink="http://www.w3.org/1999/xlink" id="svg2" width="48" height="48" version="1.1" viewBox="0 0 13.547 13.547"><metadata id="metadata105"/><defs id="defs4"><clipPath id="clipPath6"><path id="path8" d="m 207,155.25 a 63.25,63.25 0 1 1 -126.5,0 A 63.25,63.25 0 1 1 207,155.25 Z" transform="matrix(.69565 0 0 .69565 44.00002 32.00003)"/></clipPath><clipPath id="clipPath10"><g id="g12"><path id="path14" fill="#2e3436" d="m 144,-116.99998 c -25.92184,0 -46.99999,21.078141 -46.99999,46.999986 0,25.921845 21.07815,46.99999 46.99999,46.99999 25.92184,0 46.99999,-21.078145 46.99999,-46.99999 0,-25.921845 -21.07815,-46.999986 -46.99999,-46.999986 z m 0,6 c 22.6792,0 40.99999,18.320784 40.99999,40.999986 0,22.679202 -18.32079,40.999991 -40.99999,40.999991 -22.6792,0 -40.99999,-18.320789 -40.99999,-40.999991 0,-22.679202 18.32079,-40.999986 40.99999,-40.999986 z" color="#000"/><path id="path16" fill="none" stroke="#000" d="m 144,-116.99998 c -25.92184,0 -46.99999,21.078141 -46.99999,46.999986 0,25.921845 21.07815,46.99999 46.99999,46.99999 25.92184,0 46.99999,-21.078145 46.99999,-46.99999 0,-25.921845 -21.07815,-46.999986 -46.99999,-46.999986 z m 0,6 c 22.6792,0 40.99999,18.320784 40.99999,40.999986 0,22.679202 -18.32079,40.999991 -40.99999,40.999991 -22.6792,0 -40.99999,-18.320789 -40.99999,-40.999991 0,-22.679202 18.32079,-40.999986 40.99999,-40.999986 z" color="#000"/></g></clipPath><clipPath id="clipPath18"><path id="path20" d="m 207,155.25 a 63.25,63.25 0 1 1 -126.5,0 63.25,63.25 0 1 1 126.5,0 z" transform="matrix(.69565 0 0 .69565 44.00002 32.00003)"/></clipPath><linearGradient id="1"><stop id="stop23" stop-color="#6c3c3c"/><stop id="stop25" offset="1" stop-color="#9a5757"/></linearGradient><clipPath id="clipPath27"><rect id="rect29" width="42" height="42" x="307" y="223" fill="url(#2)" color="#bebebe" rx="9" transform="matrix(0,1,-1,0,0,0)"/></clipPath><linearGradient id="2" x2="0" y1="280" y2="40" gradientTransform="matrix(0.175,0,0,0.175,302.79999,215.99997)" gradientUnits="userSpaceOnUse" xlink:href="#1"/><clipPath id="clipPath32"><rect id="rect34" width="22" height="22" x="433" y="85" fill="url(#3)" color="#bebebe" rx="4"/></clipPath><linearGradient id="3" x2="0" y1="291.43" y2="40" gradientTransform="matrix(0.0875,0,0,0.0875,430.9,81.499996)" gradientUnits="userSpaceOnUse" xlink:href="#1"/><clipPath id="clipPath37"><rect id="rect39" width="30" height="30" x="433" y="37" fill="url(#4)" color="#bebebe" rx="6"/></clipPath><linearGradient id="4" x2="0" y1="291.43" y2="40" gradientTransform="matrix(0.11931818,0,0,0.11931818,430.13636,32.227267)" gradientUnits="userSpaceOnUse" xlink:href="#1"/><clipPath id="clipPath42"><rect id="rect44" width="16" height="16" x="304" y="212" fill="url(#5)" color="#bebebe" rx="3" transform="matrix(0,1,-1,0,0,0)"/></clipPath><linearGradient id="5" x2="0" y1="280" y2="40" gradientTransform="matrix(0.06666667,0,0,0.06666667,302.4,209.33333)" gradientUnits="userSpaceOnUse" xlink:href="#1"/><clipPath id="clipPath47"><rect id="rect49" width="220" height="220" x="34" y="46" fill="url(#6)" color="#bebebe" rx="50"/></clipPath><linearGradient id="6" x2="0" y1="280" y2="40" gradientTransform="translate(0,-4)" gradientUnits="userSpaceOnUse" xlink:href="#1"/><clipPath id="clipPath52"><rect id="rect54" width="60" height="60" x="290" y="142" fill="url(#7)" color="#bebebe" rx="12.5"/></clipPath><linearGradient id="7" x2="0" y1="204" y2="140" gradientUnits="userSpaceOnUse" xlink:href="#1"/><clipPath id="clipPath57"><rect id="rect59" width="88" height="88" x="292" y="32" fill="url(#8)" color="#bebebe" rx="18"/></clipPath><linearGradient id="8" x2="0" y1="124" y2="28" gradientUnits="userSpaceOnUse" xlink:href="#1"/><clipPath id="clipPath62"><rect id="rect64" width="22" height="22" x="417" y="101" fill="url(#9)" color="#bebebe" rx="5"/></clipPath><linearGradient id="9" x2="0" y1="302.86" y2="28.571" gradientTransform="matrix(0.0875,0,0,0.0875,414.9,97.5)" gradientUnits="userSpaceOnUse" xlink:href="#1"/><clipPath id="clipPath67"><rect id="rect69" width="30" height="30" x="417" y="53" fill="url(#A)" color="#bebebe" rx="7"/></clipPath><linearGradient id="A" x2="0" y1="299.81" y2="31.619" gradientTransform="matrix(0.11931818,0,0,0.11931818,414.13636,48.22727)" gradientUnits="userSpaceOnUse" xlink:href="#1"/><clipPath id="clipPath72"><path id="path74" d="m 354.86109,118 c -1.8996,-12.45313 -13.15124,-10.92696 -20.45752,-20.554999 -4.49745,-5.081917 -6.90039,-18.152021 2.43544,-27.37416 -1.1041,9.579323 0.17861,13.6059 5.45531,17.924775 -2.35422,-4.952062 -3.08439,-11.995623 -0.82801,-16.853182 2.76375,-5.949983 10.39112,-12.87528 10.52102,-19.142434 4.36202,2.178866 7.92821,8.352919 5.94243,14.368984 -3.85543,11.680556 0.10189,12.135543 1.94832,13.248716 -0.37991,-7.072519 1.0237,-8.206151 2.38673,-10.423628 1.02898,7.51113 12.13245,12.469545 11.25168,21.870132 -0.54446,5.811093 -5.52033,11.186756 -9.69301,14.563846 0.37909,-7.615119 0.0767,-8.633953 -7.11146,-14.612521 -2.75975,-2.295398 -3.9291,-3.912975 -5.30916,-6.867919 -0.85908,2.610094 -2.43714,6.487429 3.26799,14.45466 5.21391,7.28145 0.61392,16.7798 0.19057,19.39773 z"/></clipPath><linearGradient id="B"><stop id="stop77" stop-color="#dbdbdb"/><stop id="stop79" offset="1" stop-color="#f9f9f9"/></linearGradient><linearGradient id="C" x2="0" y1="1050.36" y2="1006.36" gradientTransform="matrix(0.28222223,0,0,0.28222223,0,-283.45334)" gradientUnits="userSpaceOnUse" xlink:href="#B"/><radialGradient id="radialGradient3137" cx="148.004" cy="160" r="128" gradientTransform="matrix(0.1831,0,0,0.1831,-3.10079,-5.2963805)" gradientUnits="userSpaceOnUse" xlink:href="#radial0"/><radialGradient id="radial0" cx="148.004" cy="160" r="128" gradientTransform="matrix(0.1831,0,0,0.1831,-3.10029,-5.29688)" gradientUnits="userSpaceOnUse"><stop id="stop7" offset="0" stop-color="#c0edfb" stop-opacity="1"/><stop id="stop9" offset="1" stop-color="#305bbd" stop-opacity="1"/></radialGradient><radialGradient id="radialGradient3009" cx="148.004" cy="160" r="128" gradientTransform="matrix(0.05167489,0,0,0.05167489,-0.87511191,-1.4947894)" gradientUnits="userSpaceOnUse" xlink:href="#radial0"/></defs><path id="path11" fill="url(#radialGradient3009)" d="m 13.387776,3.2588927 0,7.0290973 c 0,2.892778 0,3.100035 -3.100035,3.100035 l -7.0279949,0 c -3.10113721,0 -3.10113721,-0.207257 -3.10113721,-3.100035 l 0,-7.0290973 c 0,-2.89277792 0,-3.10003482 3.10113721,-3.10003482 l 7.0279949,0 c 3.100035,0 3.100035,0.2072569 3.100035,3.10003482 z"/><path id="path15" fill="#fff" fill-opacity=".051" d="m 10.799269,13.388025 c 0.717682,-0.0033 1.235825,-0.02315 1.611753,-0.124575 l -1.193932,-2.046111 -1.2655898,2.170686 0.3362408,0 c 0.180799,0 0.350573,0 0.511528,0 z M 11.21709,11.217339 9.7707012,8.7368702 8.3232102,11.217339 z m 0,0 2.159662,0 c 0.0088,-0.274505 0.01102,-0.582083 0.01102,-0.930451 l 0,-0.3097831 -0.723194,-1.2402347 z M 12.664582,8.7368702 11.21709,6.2564015 9.7707012,8.7368702 z m 0,0 0.723194,0 0,-1.2402343 z m -2.8938808,0 -1.447491,-2.4804687 -1.446389,2.4804687 z m -2.89388,0 -1.447492,2.4804688 2.893881,0 z m 0,0 -1.447492,-2.4804687 -1.446389,2.4804687 z m -2.893881,0 -1.447491,2.4804688 2.89388,0 z m 0,0 -1.447491,-2.4804687 -1.4463889,2.4804687 z m -2.8938799,0 -0.93045141,1.5941148 c 0,0.329627 0.00331,0.623976 0.011024,0.886354 l 2.36581621,0 z m 0,0 -0.93045141,-1.5941145 0,1.5941145 z M 2.5354492,11.217339 1.3183659,13.30424 c 0.450894,0.08268 1.0748699,0.08379 1.9413802,0.08379 l 0.5423961,0 z m 0,-4.9609375 -1.4463889,-2.4804689 -0.93045141,1.5941147 0,0.8863542 z m 0,0 2.89388,0 -1.446389,-2.4804689 z M 3.9829402,3.7759326 2.5354492,1.2954639 1.0890603,3.7759326 z m 0,0 2.893881,0 -1.447492,-2.4804687 z m 1.446389,-2.4804687 -0.663663,-1.13660602 -1.5059201,0 c -0.02205,0 -0.039688,0 -0.060634,0 L 2.5354492,1.2954639 z m 0,0 2.893881,0 -0.663664,-1.13660602 -1.566553,0 z m 2.893881,0 2.8938798,0 -0.663663,-1.13660602 c -0.0882,0 -0.171979,0 -0.265686,0 l -1.3008678,0 z m 0,0 -1.446389,2.4804687 2.89388,0 z m 1.447491,2.4804687 2.8938808,0 -1.447492,-2.4804687 z m 0,0 -1.447491,2.4804689 2.8938798,0 z m 1.4463888,2.4804689 2.170686,0 0,-1.2402343 -0.723194,-1.2402346 z m 1.447492,-2.4804689 0.723194,0 0,-0.5170399 c 0,-0.2579689 -0.0022,-0.4938889 -0.0066,-0.71217 z M 8.3232102,6.2564015 6.8768212,3.7759326 5.4293292,6.2564015 z m 2.8938798,-4.9609376 2.062648,0 C 13.123193,0.51714778 12.747264,0.27130598 11.859807,0.19413568 z m -8.6816408,0 L 1.8850153,0.17980408 C 0.85203769,0.23823288 0.43421639,0.46092368 0.26664699,1.2954639 z M 1.0890603,3.7759326 0.17514539,2.2082764 c -0.012127,0.3031685 -0.0165354,0.6515364 -0.0165354,1.0506163 l 0,0.5170399 z m 4.3402689,7.4414064 -1.26559,2.170686 2.532283,0 z m 2.893881,0 -1.265591,2.170686 2.532283,0 z m -7.59133741,1.86862 -0.4519964,-0.775009 c 0.082682,0.371519 0.2215885,0.615157 0.4519964,0.775009 z"/><path id="path98" fill="#f9f9f9" fill-opacity="1" d="M 5.9266668,5.6277803 C 6.9906419,4.8661896 7.8203811,4.6828309 9.0311113,4.9699499 l 0,2.8390582 C 8.9740623,7.9213942 8.7305345,8.470809 9.877778,8.7820069 l 8e-7,-5.5778128 C 7.7306264,3.0088589 6.5964696,3.0183518 5.0800001,4.0005152 l 0,4.4663244 C 5.4640317,7.8881034 3.5035961,9.8323149 5.9266668,9.2896965 z"/><path id="0" fill="#f9f9f9" fill-opacity="1" d="m 1.7963595,41.590263 a 5.3074265,5.6748638 0 1 1 -10.6148529,0 5.3074265,5.6748638 0 1 1 10.6148529,0 z" transform="matrix(0.21269987,0,0,0.19892793,5.5445814,1.0398686)"/><use id="use101" fill="#f9f9f9" fill-opacity="1" transform="matrix(1 0 0 1 3.951 -0.564)" xlink:href="#0"/></svg>