<svg xmlns="http://www.w3.org/2000/svg" xmlns:svg="http://www.w3.org/2000/svg" xmlns:xlink="http://www.w3.org/1999/xlink" id="svg2" width="48" height="48" version="1.1" viewBox="0 0 13.547 13.547"><metadata id="metadata45"/><defs id="defs4"><linearGradient id="0"><stop id="stop7" stop-color="#c21d1d"/><stop id="stop9" offset="1" stop-color="#c53352"/></linearGradient><linearGradient id="1" x2="0" y1="1050.36" y2="1006.36" gradientTransform="matrix(0.28222223,0,0,0.28222223,0,-283.45334)" gradientUnits="userSpaceOnUse" xlink:href="#0"/><radialGradient id="radialGradient3011" cx="148.004" cy="160" r="128" gradientTransform="matrix(0.1831,0,0,0.1831,-3.10079,-5.29638)" gradientUnits="userSpaceOnUse" xlink:href="#radial0"/><radialGradient id="radial0" cx="148.004" cy="160" r="128" gradientTransform="matrix(0.1831,0,0,0.1831,-3.10029,-5.29688)" gradientUnits="userSpaceOnUse"><stop id="stop7-4" offset="0" stop-color="#ffd0cd"/><stop id="stop9-0" offset="1" stop-color="#a4180c"/></radialGradient><radialGradient id="radialGradient3025" cx="148.004" cy="160" r="128" gradientTransform="matrix(0.05167489,0,0,0.05167489,-0.87511191,-1.4947615)" gradientUnits="userSpaceOnUse" xlink:href="#radial0"/></defs><path id="path11" fill="url(#radialGradient3025)" d="m 13.387776,3.2589206 0,7.0290974 c 0,2.892778 0,3.100035 -3.100035,3.100035 l -7.0279949,0 c -3.10113721,0 -3.10113721,-0.207257 -3.10113721,-3.100035 l 0,-7.0290974 c 0,-2.89277783 0,-3.10003478 3.10113721,-3.10003478 l 7.0279949,0 c 3.100035,0 3.100035,0.20725695 3.100035,3.10003478 z"/><path id="path15" fill="#fff" fill-opacity=".051" d="m 10.799269,13.388053 c 0.717682,-0.0033 1.235825,-0.02315 1.611753,-0.124575 l -1.193932,-2.046111 -1.2655902,2.170686 0.3362412,0 c 0.180799,0 0.350573,0 0.511528,0 z M 11.21709,11.217367 9.7707012,8.7368981 8.3232099,11.217367 z m 0,0 2.159662,0 c 0.0088,-0.274505 0.01102,-0.582083 0.01102,-0.930451 l 0,-0.3097836 -0.723194,-1.2402343 z M 12.664582,8.7368981 11.21709,6.2564294 9.7707012,8.7368981 z m 0,0 0.723194,0 0,-1.2402343 z m -2.8938808,0 L 8.3232099,6.2564294 6.876821,8.7368981 z m -2.8938802,0 -1.4474916,2.4804689 2.8938805,0 z m 0,0 L 5.4293294,6.2564294 3.9829405,8.7368981 z m -2.8938805,0 -1.4474913,2.4804689 2.8938802,0 z m 0,0 L 2.5354492,6.2564294 1.0890603,8.7368981 z m -2.8938802,0 -0.93045141,1.5941149 c 0,0.329627 0.00331,0.623976 0.011024,0.886354 l 2.36581621,0 z m 0,0 -0.93045141,-1.5941145 0,1.5941145 z m 1.4463889,2.4804689 -1.2170833,2.086901 c 0.450894,0.08268 1.0748699,0.08379 1.9413802,0.08379 l 0.5423958,0 z m 0,-4.9609376 -1.4463889,-2.4804689 -0.93045141,1.5941147 0,0.8863542 z m 0,0 2.8938802,0 L 3.9829405,3.7759605 z M 3.9829405,3.7759605 2.5354492,1.2954918 1.0890603,3.7759605 z m 0,0 2.8938805,0 -1.4474916,-2.4804687 z m 1.4463889,-2.4804687 -0.663663,-1.13660598 -1.5070227,0 c -0.020946,0 -0.038585,0 -0.059531,0 L 2.5354493,1.2954918 z m 0,0 2.8938805,0 -0.6636633,-1.13660598 -1.5665538,0 z m 2.8938805,0 2.8938801,0 -0.663663,-1.13660598 c -0.0882,0 -0.171979,0 -0.266788,0 l -1.299766,0 z m 0,0 -1.4463889,2.4804687 2.8938802,0 z m 1.4474913,2.4804687 2.8938808,0 -1.447492,-2.4804687 z m 0,0 -1.4474913,2.4804689 2.8938801,0 z m 1.4463888,2.4804689 2.170686,0 0,-1.2402343 -0.723194,-1.2402346 z m 1.447492,-2.4804689 0.723194,0 0,-0.5170399 c 0,-0.2579689 -0.0022,-0.4938889 -0.0066,-0.71217 z M 8.3232099,6.2564294 6.876821,3.7759605 5.4293294,6.2564294 z m 2.8938801,-4.9609376 2.062648,0 C 13.123193,0.51717569 12.747264,0.27133388 11.859807,0.1941636 z m -8.6816408,0 L 1.8850153,0.17983207 C 0.85203759,0.23826087 0.43421639,0.46095166 0.26664689,1.2954918 z M 1.0890603,3.7759605 0.17514539,2.2083043 c -0.012127,0.3031685 -0.016535,0.6515363 -0.016535,1.0506163 l 0,0.5170399 z m 4.3402691,7.4414065 -1.2655903,2.170686 2.532283,0 z m 2.8938805,0 -1.2655906,2.170686 2.5322833,0 z m -7.59133711,1.86862 -0.4519964,-0.775009 c 0.082682,0.371519 0.2215884,0.615157 0.4519964,0.775009 z"/><g id="g28" fill="#f9f9f9"><path id="2" d="m -74.31529,22.697412 a 22.471529,23.533176 0 1 1 -44.94306,0 22.471529,23.533176 0 1 1 44.94306,0 z" transform="matrix(.05843 0 0 .05597 10.07282 6.51488)"/><use id="use31" transform="matrix(0.91665 0 0 0.91674 5.189 -0.304)" xlink:href="#2"/><path id="path33" d="m 4.8138561,4.6100873 c -0.402871,0 -0.729463,0.327644 -0.729463,0.731812 0,0.404168 0.326592,0.731812 0.729463,0.731812 0.0536,0 0.122014,-0.0073 0.172326,-0.0183 0.125809,-0.267819 0.317881,-0.459963 0.563879,-0.620144 0.0015,-0.01934 -0.0067,-0.07364 -0.0067,-0.09337 0,-0.404168 -0.326592,-0.731812 -0.729463,-0.731812 z"/></g><g id="g37" fill="#f9f9f9"><path id="path39" d="m 7.4786751,7.7797463 c -6.478542,-0.153985 -3.239271,-0.077 0,0 z m 0.06362,4.17e-4 c -0.264348,0.289278 -0.613024,0.463064 -1.027879,0.492657 -0.05172,0.114668 -0.07979,0.273926 -0.07979,0.407971 0,0.5042875 0.40688,0.9147645 0.909549,0.9147645 0.50267,0 0.909549,-0.410477 0.909549,-0.9147645 0,-0.4288 -0.314189,-0.802528 -0.711434,-0.900628 z"/><path id="path41" d="m 5.2658165,6.2625776 c 0.354186,0.139423 0.678763,0.4066269 0.929318,0.7339635 L 8.2086575,4.5587322 7.9505135,5.7645294 C 10.823137,1.4258509 6.5649715,3.9053161 5.2658165,6.2625776 z"/></g></svg>