<svg xmlns="http://www.w3.org/2000/svg" xmlns:svg="http://www.w3.org/2000/svg" xmlns:xlink="http://www.w3.org/1999/xlink" id="svg2" width="48" height="48" version="1.1"><metadata id="metadata42"/><defs id="defs4"><linearGradient id="0" x2="0" y1="1050.36" y2="1006.36" gradientUnits="userSpaceOnUse" xlink:href="#1"/><linearGradient id="1"><stop id="stop8" stop-color="#bebebe"/><stop id="stop10" offset="1" stop-color="#dedede"/></linearGradient><radialGradient id="radial0" cx="148.004" cy="160" r="128" gradientTransform="matrix(0.1831,0,0,0.1831,-3.10029,-5.29688)" gradientUnits="userSpaceOnUse"><stop id="stop7" offset="0" stop-color="#b3ea69"/><stop id="stop9" offset="1" stop-color="#4f8505"/></radialGradient><radialGradient id="radialGradient3024" cx="148.004" cy="160" r="128" gradientTransform="matrix(0.1831,0,0,0.1831,-3.10079,-5.29638)" gradientUnits="userSpaceOnUse" xlink:href="#radial0"/><linearGradient id="linearGradient3046" x2="0" y1="1050.36" y2="1006.36" gradientUnits="userSpaceOnUse" xlink:href="#1"/><linearGradient id="linearGradient3054" x2="0" y1="1050.36" y2="1006.36" gradientTransform="translate(0,-1004.3622)" gradientUnits="userSpaceOnUse" xlink:href="#1"/></defs><path id="path11" fill="url(#radialGradient3024)" d="m 47.437,11.547375 0,24.90625 c 0,10.25 0,10.984375 -10.984375,10.984375 l -24.902344,0 C 0.562,47.438 0.562,46.703625 0.562,36.453625 l 0,-24.90625 c 0,-10.2500002 0,-10.9843752 10.988281,-10.9843752 l 24.902344,0 C 47.437,0.5629998 47.437,1.2973748 47.437,11.547375 z"/><path id="path15" fill="#fff" fill-opacity=".051" d="m 38.265125,47.438 c 2.542969,-0.01172 4.378906,-0.08203 5.710937,-0.441406 l -4.230468,-7.25 -4.484375,7.691406 1.191406,0 c 0.640625,0 1.242187,0 1.8125,0 z m 1.480469,-7.691406 -5.125,-8.789063 -5.128906,8.789063 z m 0,0 7.652344,0 c 0.03125,-0.972656 0.03906,-2.0625 0.03906,-3.296875 l 0,-1.097657 -2.5625,-4.394531 z m 5.128906,-8.789063 -5.128906,-8.789062 -5.125,8.789062 z m 0,0 2.5625,0 0,-4.394531 z m -10.253906,0 -5.128906,-8.789062 -5.125,8.789062 z m -10.253906,0 -5.128907,8.789063 10.253907,0 z m 0,0 -5.128907,-8.789062 -5.125,8.789062 z m -10.253907,0 -5.128906,8.789063 10.253906,0 z m 0,0 -5.128906,-8.789062 -5.125,8.789062 z m -10.253906,0 L 0.562,36.605969 c 0,1.167969 0.011719,2.210937 0.039062,3.140625 l 8.382813,0 z m 0,0 -3.296875,-5.648437 0,5.648437 z m 5.125,8.789063 -4.3125,7.394531 c 1.597656,0.292969 3.808594,0.296875 6.875,0.296875 l 1.925781,0 z m 0,-17.578125 -5.125,-8.789063 -3.296875,5.648438 0,3.140625 z m 0,0 10.253906,0 -5.125,-8.789063 z m 5.128906,-8.789063 -5.128906,-8.7890622 -5.125,8.7890622 z m 0,0 10.253907,0 -5.128907,-8.7890622 z m 5.125,-8.7890622 -2.351562,-4.027344 -5.339844,0 c -0.07422,0 -0.136719,0 -0.210937,0 l -2.351563,4.027344 z m 0,0 10.253907,0 -2.351563,-4.027344 -5.550781,0 z m 10.253907,0 10.253906,0 -2.351563,-4.027344 c -0.3125,0 -0.609375,0 -0.945312,0 l -4.605469,0 z m 0,0 -5.125,8.7890622 10.253906,0 z m 5.128906,8.7890622 10.253906,0 -5.128906,-8.7890622 z m 0,0 -5.128906,8.789063 10.253906,0 z m 5.125,8.789063 7.691406,0 0,-4.394531 -2.5625,-4.394532 z m 5.128906,-8.789063 2.5625,0 0,-1.832031 c 0,-0.914063 -0.0078,-1.7500002 -0.02344,-2.5234372 z m -15.382812,8.789063 -5.125,-8.789063 -5.128907,8.789063 z m 10.253906,-17.5781252 7.308594,0 C 46.4995,1.8325308 45.167469,0.9614378 42.022938,0.6879998 z m -30.761719,0 -2.304687,-3.953125 C 3.019031,0.8442498 1.538562,1.6333118 0.944812,4.5903438 z M 3.858875,13.379406 0.620594,7.8247188 C 0.577625,8.8989378 0.562,10.133312 0.562,11.547375 l 0,1.832031 z m 15.378906,26.367188 -4.484375,7.691406 8.972656,0 z m 10.253907,0 -4.484376,7.691406 8.972657,0 z M 2.59325,46.367688 0.991688,43.621594 C 1.284656,44.938 1.776844,45.801281 2.59325,46.367688 z"/><path id="path32" fill="#f9f9f9" fill-opacity="1" d="M 15.103385,21.181733 C 13.410598,21.181733 12,21.92855 12,24.181665 c 0,1.784963 0.948525,2.909025 3.147095,2.909025 2.587819,0 2.753707,-1.772687 2.753707,-1.772687 l -1.25392,0 c 0,0 -0.268851,0.954524 -1.576279,0.954524 -1.064865,0 -1.830757,-0.748047 -1.830757,-1.796543 l 4.792085,0 0,-0.657947 c 0,-1.037293 -0.633227,-2.636304 -2.928546,-2.636304 z m -0.04371,0.84089 c 1.013641,0 1.704676,0.645752 1.704676,1.6136 l -3.496771,0 c 0,-1.027489 0.901977,-1.6136 1.792095,-1.6136 z"/><path id="path34" fill="#f9f9f9" fill-opacity="1" d="m 18.031042,18.999964 0,6.959221 c 0,0.395027 -0.02711,0.949691 -0.02711,0.949691 l 1.195976,0 c 0,0 0.04293,-0.398368 0.04293,-0.762436 0,0 0.590889,0.961295 2.197561,0.961295 1.691891,0 2.841127,-1.221488 2.841127,-2.971524 0,-1.628033 -1.055611,-2.937433 -2.838395,-2.937433 -1.669452,0 -2.188214,0.937478 -2.188214,0.937478 l 0,-3.136292 z m 3.103385,3.05959 c 1.148925,0 1.879515,0.886721 1.879515,2.076657 0,1.275991 -0.843807,2.110748 -1.87132,2.110748 -1.226245,0 -1.88771,-0.995647 -1.88771,-2.099384 0,-1.028469 0.593552,-2.088021 1.879515,-2.088021 z"/><path id="path36" fill="#f9f9f9" fill-opacity="1" d="m 27.253777,21.181733 c -2.54667,0 -2.709997,1.450065 -2.709997,1.68178 l 1.267579,0 c 0,0 0.06647,-0.846572 1.354999,-0.846572 0.837306,0 1.486128,0.398539 1.486128,1.164746 l 0,0.272721 -1.486128,0 c -1.972941,0 -3.015966,0.600191 -3.015966,1.818141 0,1.198639 0.963722,1.850811 2.266073,1.850811 1.774901,0 2.346661,-1.019864 2.346661,-1.019864 0,0.405646 0.03007,0.80538 0.03007,0.80538 l 1.126865,0 c 0,0 -0.04371,-0.495483 -0.04371,-0.812482 l 0,-2.739995 c 0,-1.796577 -1.393529,-2.174666 -2.622578,-2.174666 z m 1.398709,3.090839 0,0.363628 c 0,0.47427 -0.281429,1.653372 -1.938249,1.653372 -0.907269,0 -1.296264,-0.47086 -1.296264,-1.017023 0,-0.993578 1.309975,-0.999977 3.234513,-0.999977 z"/><path id="path38" fill="#f9f9f9" fill-opacity="1" d="m 29.193783,21.409229 1.426028,0 2.046548,4.263703 2.041865,-4.263703 1.291775,0 -3.719222,7.590735 -1.354999,0 1.073228,-2.116021 z"/></svg>