<svg xmlns="http://www.w3.org/2000/svg" xmlns:svg="http://www.w3.org/2000/svg" xmlns:xlink="http://www.w3.org/1999/xlink" id="svg2" width="48" height="48" version="1.1" viewBox="0 0 13.547 13.547"><metadata id="metadata28"/><defs id="defs4"><linearGradient id="linearGradient4460"><stop id="stop7" offset="0" stop-color="#d7d7d7" stop-opacity="1"/><stop id="stop9" offset="1" stop-color="#f1f1f1" stop-opacity="1"/></linearGradient><linearGradient id="linearGradient3102" x2="0" y1="279.096" y2="268.33" gradientTransform="matrix(1.09524,0,0,1.09524,-133.00183,-293.02198)" gradientUnits="userSpaceOnUse" xlink:href="#linearGradient4460"/><linearGradient id="linearGradient3006" x2="0" y1="279.096" y2="268.33" gradientTransform="matrix(1.09524,0,0,1.09524,-133.00183,-293.02198)" gradientUnits="userSpaceOnUse" xlink:href="#linearGradient4460"/><linearGradient id="linearGradient3093" x2="0" y1="1050.36" y2="1006.36" gradientTransform="matrix(0.28222223,0,0,0.28222223,-14.058004,-283.55521)" gradientUnits="userSpaceOnUse" xlink:href="#linearGradient4460"/><linearGradient id="1"><stop id="stop8" stop-color="#10a7ce"/><stop id="stop10" offset="1" stop-color="#1ac8ef"/></linearGradient><radialGradient id="radial0" cx="148.004" cy="160" r="128" gradientTransform="matrix(0.1831,0,0,0.1831,-3.10029,-5.29688)" gradientUnits="userSpaceOnUse"><stop id="stop7-1" offset="0" stop-color="#8bffc7" stop-opacity="1"/><stop id="stop9-9" offset="1" stop-color="#00984f" stop-opacity="1"/></radialGradient><radialGradient id="radialGradient3001" cx="148.004" cy="160" r="128" gradientTransform="matrix(0.05167489,0,0,0.05167489,-0.87510821,-1.4947617)" gradientUnits="userSpaceOnUse" xlink:href="#radial0"/></defs><path id="path11" fill="url(#radialGradient3001)" d="m 13.38778,3.2589204 0,7.0290976 c 0,2.892778 0,3.100035 -3.100035,3.100035 l -7.0279951,0 c -3.10113701,0 -3.10113701,-0.207257 -3.10113701,-3.100035 l 0,-7.0290976 c 0,-2.89277779 0,-3.10003479 3.10113701,-3.10003479 l 7.0279951,0 c 3.100035,0 3.100035,0.207257 3.100035,3.10003479 z"/><path id="path15" fill="#fff" fill-opacity=".051" d="m 10.799273,13.388053 c 0.717682,-0.0033 1.235825,-0.02315 1.611753,-0.124575 l -1.193932,-2.046111 -1.2655901,2.170686 0.3362411,0 c 0.180799,0 0.350573,0 0.511528,0 z M 11.217094,11.217367 9.7707049,8.7368979 8.3232139,11.217367 z m 0,0 2.159662,0 c 0.0088,-0.274505 0.01102,-0.582083 0.01102,-0.930451 l 0,-0.3097838 -0.723194,-1.2402343 z M 12.664586,8.7368979 11.217094,6.2564292 9.7707049,8.7368979 z m 0,0 0.723194,0 0,-1.2402343 z m -2.8938811,0 -1.447491,-2.4804687 -1.446389,2.4804687 z m -2.89388,0 -1.447492,2.4804691 2.893881,0 z m 0,0 -1.447492,-2.4804687 -1.446389,2.4804687 z m -2.893881,0 -1.447491,2.4804691 2.89388,0 z m 0,0 -1.447491,-2.4804687 -1.446389,2.4804687 z m -2.89388,0 -0.93045101,1.5941151 c 0,0.329627 0.0033,0.623976 0.01102,0.886354 l 2.36581601,0 z m 0,0 -0.93045101,-1.5941145 0,1.5941145 z m 1.446389,2.4804691 -1.217083,2.086901 c 0.450894,0.08268 1.07487,0.08379 1.94138,0.08379 l 0.542396,0 z m 0,-4.9609378 -1.446389,-2.4804689 -0.93045101,1.5941147 0,0.8863542 z m 0,0 2.89388,0 -1.446389,-2.4804689 z M 3.9829439,3.7759603 2.5354529,1.2954916 1.0890639,3.7759603 z m 0,0 2.893881,0 -1.447492,-2.4804687 z m 1.446389,-2.4804687 -0.663663,-1.13660599 -1.50592,0 c -0.02205,0 -0.03969,0 -0.06063,0 L 2.5354569,1.2954916 z m 0,0 2.893881,0 -0.663664,-1.13660599 -1.566553,0 z m 2.893881,0 2.8938801,0 -0.663663,-1.13660599 c -0.0882,0 -0.171979,0 -0.265686,0 l -1.3008681,0 z m 0,0 -1.446389,2.4804687 2.89388,0 z m 1.447491,2.4804687 2.8938811,0 -1.447492,-2.4804687 z m 0,0 -1.447491,2.4804689 2.8938801,0 z m 1.4463891,2.4804689 2.170686,0 0,-1.2402343 -0.723194,-1.2402346 z m 1.447492,-2.4804689 0.723194,0 0,-0.5170399 c 0,-0.2579689 -0.0022,-0.4938889 -0.0066,-0.71217 z M 8.3232139,6.2564292 6.8768249,3.7759603 5.4293329,6.2564292 z m 2.8938801,-4.9609376 2.062648,0 C 13.123197,0.51717551 12.747268,0.27133371 11.859811,0.19416341 z m -8.6816411,0 -0.650434,-1.11565969 C 0.85204089,0.23826091 0.43421989,0.46095141 0.26665089,1.2954916 z M 1.0890639,3.7759603 0.17514889,2.2083041 c -0.01213,0.3031685 -0.01654,0.6515363 -0.01654,1.0506163 l 0,0.5170399 z m 4.340269,7.4414067 -1.26559,2.170686 2.532283,0 z m 2.893881,0 -1.265591,2.170686 2.532283,0 z m -7.59133701,1.86862 -0.451997,-0.775009 c 0.08268,0.371519 0.221589,0.615157 0.451997,0.775009 z"/><rect id="rect18" width="1.693" height="1.693" x="3.387" y="3.669" fill="#f9f9f9" fill-opacity="1"/><rect id="rect3777" width="1.693" height="1.693" x="5.927" y="3.669" fill="#f9f9f9" fill-opacity="1"/><rect id="rect3779" width="1.693" height="1.693" x="8.467" y="3.669" fill="#f9f9f9" fill-opacity="1"/><rect id="rect3781" width="1.693" height="1.693" x="3.387" y="5.927" fill="#f9f9f9" fill-opacity="1"/><rect id="rect3783" width="1.693" height="1.693" x="5.927" y="5.927" fill="#f9f9f9" fill-opacity="1"/><rect id="rect3785" width="1.693" height="1.693" x="8.467" y="5.927" fill="#f9f9f9" fill-opacity="1"/><rect id="rect3787" width="1.693" height="1.693" x="3.387" y="8.184" fill="#f9f9f9" fill-opacity="1"/><rect id="rect3789" width="1.693" height="1.693" x="5.927" y="8.184" fill="#f9f9f9" fill-opacity="1"/><rect id="rect3791" width="1.693" height="1.693" x="8.467" y="8.184" fill="#f9f9f9" fill-opacity="1"/></svg>