<svg xmlns="http://www.w3.org/2000/svg" xmlns:svg="http://www.w3.org/2000/svg" xmlns:xlink="http://www.w3.org/1999/xlink" id="svg2" width="48" height="48" enable-background="new" version="1.1" viewBox="0 0 13.547 13.547"><metadata id="metadata84"/><defs id="defs4"><linearGradient id="0"><stop id="stop7" stop-color="#f5b503"/><stop id="stop9" offset="1" stop-color="#fec420"/></linearGradient><linearGradient id="1" x2="0" y1="299.81" y2="31.619" gradientTransform="matrix(0.11931818,0,0,0.11931818,414.13636,48.22727)" gradientUnits="userSpaceOnUse" xlink:href="#A"/><clipPath id="clipPath12"><rect id="rect14" width="30" height="30" x="417" y="53" fill="url(#1)" color="#bebebe" rx="7"/></clipPath><linearGradient id="2" x2="0" y1="302.86" y2="28.571" gradientTransform="matrix(0.0875,0,0,0.0875,414.9,97.5)" gradientUnits="userSpaceOnUse" xlink:href="#A"/><clipPath id="clipPath17"><rect id="rect19" width="22" height="22" x="417" y="101" fill="url(#2)" color="#bebebe" rx="5"/></clipPath><linearGradient id="3" x2="0" y1="124" y2="28" gradientUnits="userSpaceOnUse" xlink:href="#A"/><clipPath id="clipPath22"><rect id="rect24" width="88" height="88" x="292" y="32" fill="url(#3)" color="#bebebe" rx="18"/></clipPath><linearGradient id="4" x2="0" y1="204" y2="140" gradientUnits="userSpaceOnUse" xlink:href="#A"/><clipPath id="clipPath27"><rect id="rect29" width="60" height="60" x="290" y="142" fill="url(#4)" color="#bebebe" rx="12.5"/></clipPath><linearGradient id="5" x2="0" y1="280" y2="40" gradientTransform="translate(0,-4)" gradientUnits="userSpaceOnUse" xlink:href="#A"/><clipPath id="clipPath32"><rect id="rect34" width="220" height="220" x="34" y="46" fill="url(#5)" color="#bebebe" rx="50"/></clipPath><linearGradient id="6" x2="0" y1="280" y2="40" gradientTransform="matrix(0.06666667,0,0,0.06666667,302.4,209.33333)" gradientUnits="userSpaceOnUse" xlink:href="#A"/><clipPath id="clipPath37"><rect id="rect39" width="16" height="16" x="304" y="212" fill="url(#6)" color="#bebebe" rx="3" transform="matrix(0,1,-1,0,0,0)"/></clipPath><linearGradient id="7" x2="0" y1="291.43" y2="40" gradientTransform="matrix(0.11931818,0,0,0.11931818,430.13636,32.227267)" gradientUnits="userSpaceOnUse" xlink:href="#A"/><clipPath id="clipPath42"><rect id="rect44" width="30" height="30" x="433" y="37" fill="url(#7)" color="#bebebe" rx="6"/></clipPath><linearGradient id="8" x2="0" y1="291.43" y2="40" gradientTransform="matrix(0.0875,0,0,0.0875,430.9,81.499996)" gradientUnits="userSpaceOnUse" xlink:href="#A"/><clipPath id="clipPath47"><rect id="rect49" width="22" height="22" x="433" y="85" fill="url(#8)" color="#bebebe" rx="4"/></clipPath><linearGradient id="9" x2="0" y1="280" y2="40" gradientTransform="matrix(0.175,0,0,0.175,302.79999,215.99997)" gradientUnits="userSpaceOnUse" xlink:href="#A"/><clipPath id="clipPath52"><rect id="rect54" width="42" height="42" x="307" y="223" fill="url(#9)" color="#bebebe" rx="9" transform="matrix(0,1,-1,0,0,0)"/></clipPath><linearGradient id="A"><stop id="stop57" stop-color="#b94642"/><stop id="stop59" offset="1" stop-color="#c66a58"/></linearGradient><linearGradient id="B" x2="0" y1="1050.36" y2="1006.36" gradientTransform="matrix(0.28222223,0,0,0.28222223,0,-283.45334)" gradientUnits="userSpaceOnUse" xlink:href="#0"/><radialGradient id="radialGradient3009" cx="148.004" cy="160" r="128" gradientTransform="matrix(0.05167489,0,0,0.05167489,-0.87510851,-1.4947615)" gradientUnits="userSpaceOnUse" xlink:href="#radial0"/><radialGradient id="radial0" cx="148.004" cy="160" r="128" gradientTransform="matrix(0.1831,0,0,0.1831,-3.10029,-5.29688)" gradientUnits="userSpaceOnUse"><stop id="stop7-4" offset="0" stop-color="#f8e99b" stop-opacity="1"/><stop id="stop9-2" offset="1" stop-color="#efcc15" stop-opacity="1"/></radialGradient><radialGradient id="radialGradient3116" cx="148.004" cy="160" r="128" gradientTransform="matrix(0.05167489,0,0,0.05167489,-0.87510911,-1.4947616)" gradientUnits="userSpaceOnUse" xlink:href="#radial0"/></defs><path id="path11" fill="url(#radialGradient3116)" d="m 13.387779,3.2589205 0,7.0290975 c 0,2.892778 0,3.100035 -3.100035,3.100035 l -7.0279941,0 c -3.10113801,0 -3.10113801,-0.207257 -3.10113801,-3.100035 l 0,-7.0290975 c 0,-2.89277778 0,-3.10003479 3.10113801,-3.10003479 l 7.0279941,0 c 3.100035,0 3.100035,0.20725701 3.100035,3.10003479 z"/><path id="path15" fill="#fff" fill-opacity=".051" d="m 10.799272,13.388053 c 0.717682,-0.0033 1.235825,-0.02315 1.611753,-0.124575 l -1.193932,-2.046111 -1.2655901,2.170686 0.3362411,0 c 0.180799,0 0.350573,0 0.511528,0 z m 0.417821,-2.170686 -1.4463881,-2.480469 -1.447492,2.480469 z m 0,0 2.159662,0 c 0.0088,-0.274505 0.01102,-0.582083 0.01102,-0.930451 l 0,-0.309784 -0.723194,-1.240234 z M 12.664585,8.736898 11.217093,6.2564293 9.7707049,8.736898 z m 0,0 0.723194,0 0,-1.2402343 z m -2.8938801,0 -1.447492,-2.4804687 -1.44639,2.4804687 z m -2.893882,0 -1.447491,2.480469 2.893881,0 z m 0,0 -1.447491,-2.4804687 -1.446388,2.4804687 z m -2.893879,0 -1.447491,2.480469 2.893879,0 z m 0,0 -1.447491,-2.4804687 -1.446389,2.4804687 z m -2.89388,0 -0.93045201,1.594115 c 0,0.329627 0.0033,0.623976 0.01102,0.886354 l 2.36581601,0 z m 0,0 -0.93045201,-1.5941145 0,1.5941145 z m 1.446389,2.480469 -1.217084,2.086901 c 0.450894,0.08268 1.07487,0.08379 1.941381,0.08379 l 0.542395,0 z m 0,-4.9609377 -1.446389,-2.4804689 -0.93045201,1.5941147 0,0.8863542 z m 0,0 2.893879,0 -1.446388,-2.4804689 z M 3.9829439,3.7759604 2.5354529,1.2954917 1.0890639,3.7759604 z m 0,0 2.893879,0 -1.447491,-2.4804687 z m 1.446388,-2.4804687 -0.663662,-1.13660599 -1.50592,0 c -0.02205,0 -0.03969,0 -0.06063,0 L 2.5354569,1.2954917 z m 0,0 2.893881,0 -0.663663,-1.13660599 -1.566554,0 z m 2.893881,0 2.8938801,0 -0.663663,-1.13660599 c -0.0882,0 -0.171979,0 -0.265686,0 l -1.3008691,0 z m 0,0 -1.44639,2.4804687 2.893882,0 z m 1.447492,2.4804687 2.8938801,0 -1.447492,-2.4804687 z m 0,0 -1.447492,2.4804689 2.8938801,0 z m 1.4463881,2.4804689 2.170686,0 0,-1.2402343 -0.723194,-1.2402346 z m 1.447492,-2.4804689 0.723194,0 0,-0.5170399 c 0,-0.2579689 -0.0022,-0.4938889 -0.0066,-0.71217 z M 8.3232129,6.2564293 6.8768229,3.7759604 5.4293319,6.2564293 z m 2.8938801,-4.9609376 2.062648,0 C 13.123196,0.51717562 12.747267,0.27133382 11.85981,0.19416351 z m -8.6816401,0 -0.650434,-1.11565969 C 0.85204089,0.23826101 0.43421989,0.46095161 0.26664989,1.2954917 z M 1.0890639,3.7759604 0.17514889,2.2083042 c -0.01213,0.3031685 -0.01654,0.6515363 -0.01654,1.0506163 l 0,0.5170399 z m 4.340268,7.4414066 -1.26559,2.170686 2.532283,0 z m 2.893881,0 -1.26559,2.170686 2.532283,0 z m -7.59133701,1.86862 -0.451996,-0.775009 c 0.08268,0.371519 0.221588,0.615157 0.451996,0.775009 z"/><path id="path78" fill="#f9f9f9" d="M 12.0625,14 C 11.472174,14 11,14.50374 11,15.125 l 0,12.34375 c 0,0.621262 0.472174,1.125 1.0625,1.125 l 8.4375,0 0,-2.12525 -6.46875,0 c -0.590326,0 -1.0625,-0.503738 -1.0625,-1.125 l 0,-6.937 c 0,-0.621261 0.472174,-1.125 1.0625,-1.125 l 10.9375,0 c 0.590326,0 1.0625,0.503739 1.0625,1.125 l 0,1.9995 2.03125,0 0,-5.281 C 28.0625,14.50374 27.559076,14 26.96875,14 z" color="#000" transform="scale(0.28222223,0.28222223)"/><path id="path80" fill="#f9f9f9" d="m 5.9313081,5.4812226 c -0.1666032,0 -0.3007275,0.1411532 -0.3007275,0.316487 l 0,3.481359 c 0,0.1753339 0.1341243,0.3164872 0.3007275,0.3164872 l 4.2101869,0 c 0.166603,0 0.300728,-0.1411533 0.300728,-0.3164872 l 0,-3.481359 c 0,-0.1753338 -0.134125,-0.316487 -0.300728,-0.316487 z m 0.569056,0.9250229 3.0859389,0 c 0.1666028,0 0.3007278,0.1411538 0.3007278,0.3164872 l 0,1.9576595 c 0,0.1753339 -0.134125,0.3164872 -0.3007278,0.3164872 l -3.0859389,0 c -0.1666031,0 -0.3007278,-0.1411533 -0.3007278,-0.3164872 l 0,-1.9576595 c 0,-0.1753334 0.1341247,-0.3164872 0.3007278,-0.3164872 z" color="#000"/></svg>