<svg xmlns="http://www.w3.org/2000/svg" xmlns:svg="http://www.w3.org/2000/svg" xmlns:xlink="http://www.w3.org/1999/xlink" id="svg2" width="48" height="48" version="1.1" viewBox="0 0 13.547 13.547"><metadata id="metadata40"/><defs id="defs4"><linearGradient id="0"><stop id="stop7" stop-color="#00395d"/><stop id="stop9" offset="1" stop-color="#3c96c2"/></linearGradient><linearGradient id="1" x2="0" y1="1050.36" y2="1006.36" gradientTransform="matrix(0.28222223,0,0,0.28222223,0,-283.45334)" gradientUnits="userSpaceOnUse" xlink:href="#0"/><radialGradient id="radialGradient3003" cx="148.004" cy="160" r="128" gradientTransform="matrix(0.05167489,0,0,0.05167489,-0.87511141,-1.4947612)" gradientUnits="userSpaceOnUse" xlink:href="#radial0"/><radialGradient id="radial0" cx="148.004" cy="160" r="128" gradientTransform="matrix(0.1831,0,0,0.1831,-3.10029,-5.29688)" gradientUnits="userSpaceOnUse"><stop id="stop7-2" offset="0" stop-color="#8edef5"/><stop id="stop9-9" offset="1" stop-color="#0a7392"/></radialGradient><radialGradient id="radialGradient3008" cx="148.004" cy="160" r="128" gradientTransform="matrix(0.05167489,0,0,0.05167489,-0.87511141,-1.4947617)" gradientUnits="userSpaceOnUse" xlink:href="#radial0"/></defs><path id="path11" fill="url(#radialGradient3008)" d="m 13.387776,3.2589204 0,7.0290976 c 0,2.892778 0,3.100035 -3.100035,3.100035 l -7.0279949,0 c -3.10113671,0 -3.10113671,-0.207257 -3.10113671,-3.100035 l 0,-7.0290976 c 0,-2.89277779 0,-3.10003479 3.10113671,-3.10003479 l 7.0279949,0 c 3.100035,0 3.100035,0.207257 3.100035,3.10003479 z"/><path id="path15" fill="#fff" fill-opacity=".051" d="m 10.799269,13.388053 c 0.717682,-0.0033 1.235825,-0.02315 1.611753,-0.124575 l -1.193932,-2.046111 -1.2655899,2.170686 0.3362409,0 c 0.180799,0 0.350573,0 0.511528,0 z M 11.21709,11.217367 9.7707021,8.7368981 8.3232102,11.217367 z m 0,0 2.159662,0 c 0.0088,-0.274505 0.01102,-0.582083 0.01102,-0.930451 l 0,-0.3097839 -0.723193,-1.240234 z M 12.664582,8.7368981 11.21709,6.2564292 9.7707021,8.7368981 z m 0,0 0.723194,0 0,-1.2402345 z m -2.8938799,0 L 8.3232102,6.2564292 6.876821,8.7368981 z m -2.8938811,0 -1.447491,2.4804689 2.8938802,0 z m 0,0 L 5.42933,6.2564292 3.9829411,8.7368981 z m -2.8938799,0 -1.447491,2.4804689 2.8938799,0 z m 0,0 -1.447491,-2.4804689 -1.4463893,2.4804689 z m -2.8938803,0 -0.93045141,1.5941149 c 0,0.329627 0.00331,0.623976 0.011024,0.886354 l 2.36581661,0 z m 0,0 -0.93045141,-1.5941147 0,1.5941147 z m 1.4463893,2.4804689 -1.2170837,2.086901 c 0.450894,0.08268 1.0748697,0.08379 1.9413797,0.08379 l 0.5423961,0 z m 0,-4.9609378 -1.4463893,-2.4804689 -0.93045141,1.5941147 0,0.8863542 z m 0,0 2.8938799,0 L 3.9829411,3.7759603 z M 3.9829411,3.7759603 2.5354501,1.2954916 1.0890608,3.7759603 z m 0,0 2.8938799,0 L 5.42933,1.2954916 z M 5.42933,1.2954916 4.7656672,0.15888561 l -1.5059211,0 c -0.02205,0 -0.03969,0 -0.06063,0 L 2.5354541,1.2954916 z m 0,0 2.8938802,0 -0.6636631,-1.13660599 -1.566554,0 z m 2.8938802,0 2.8938798,0 -0.663663,-1.13660599 c -0.0882,0 -0.171979,0 -0.265686,0 l -1.300868,0 z m 0,0 -1.4463892,2.4804687 2.8938811,0 z m 1.4474919,2.4804687 2.8938799,0 -1.447492,-2.4804687 z m 0,0 -1.4474919,2.4804689 2.8938798,0 z m 1.4463879,2.4804689 2.170686,0 0,-1.2402343 -0.723194,-1.2402346 z m 1.447492,-2.4804689 0.723194,0 0,-0.5170399 c 0,-0.2579689 -0.0022,-0.4938889 -0.0066,-0.71217 z M 8.3232102,6.2564292 6.876821,3.7759603 5.42933,6.2564292 z m 2.8938798,-4.9609376 2.062648,0 C 13.123193,0.51717551 12.747264,0.27133371 11.859807,0.19416341 z m -8.6816399,0 L 1.8850158,0.17983191 C 0.85203809,0.23826091 0.43421689,0.46095151 0.26664739,1.2954916 z M 1.0890608,3.7759603 0.17514589,2.2083041 c -0.012127,0.3031685 -0.016537,0.6515363 -0.016537,1.0506163 l 0,0.5170399 z m 4.3402692,7.4414067 -1.2655909,2.170686 2.532283,0 z m 2.8938802,0 -1.26559,2.170686 2.532283,0 z m -7.59133691,1.86862 -0.4519964,-0.775009 c 0.082682,0.371519 0.2215884,0.615157 0.4519964,0.775009 z"/><path id="path30" fill="none" stroke="#f9f9f9" stroke-opacity="1" stroke-width=".416" d="m 7.2642037,3.9911944 c 0.9049945,0.9049945 0.9049945,2.3722805 0,3.277275 -0.9049945,0.9049945 -2.3722805,0.9049945 -3.277275,0 -0.9049945,-0.9049945 -0.9049945,-2.3722805 0,-3.277275 0.9049945,-0.9049945 2.3722805,-0.9049945 3.277275,0 z"/><rect id="rect34" width=".856" height="1.89" x="-.431" y="12.448" fill="#f9f9f9" fill-opacity="1" rx="0" transform="matrix(0.70710678,-0.70710678,0.70710678,0.70710678,0,0)"/><rect id="rect36" width=".6" height="1.89" x="-.303" y="10.506" fill="#f9f9f9" fill-opacity="1" rx="0" transform="matrix(0.70710678,-0.70710678,0.70710678,0.70710678,0,0)"/></svg>