<svg xmlns="http://www.w3.org/2000/svg" xmlns:svg="http://www.w3.org/2000/svg" xmlns:xlink="http://www.w3.org/1999/xlink" id="svg2" width="48" height="48" version="1.1" viewBox="0 0 13.547 13.547"><metadata id="metadata44"/><defs id="defs4"><linearGradient id="0"><stop id="stop7" stop-color="silver"/><stop id="stop9" offset="1" stop-color="#dedede"/></linearGradient><linearGradient id="1" x2="0" y1="1050.36" y2="1006.36" gradientTransform="matrix(0.28222223,0,0,0.28222223,0,-283.45334)" gradientUnits="userSpaceOnUse" xlink:href="#0"/><radialGradient id="radialGradient3015" cx="148.004" cy="160" r="128" gradientTransform="matrix(0.05167489,0,0,0.05167489,-0.87511191,-1.4947562)" gradientUnits="userSpaceOnUse" xlink:href="#radial0"/><radialGradient id="radial0" cx="148.004" cy="160" r="128" gradientTransform="matrix(0.1831,0,0,0.1831,-3.10029,-5.29688)" gradientUnits="userSpaceOnUse"><stop id="stop7-8" offset="0" stop-color="#00dcff"/><stop id="stop9-2" offset="1" stop-color="#0067ff"/></radialGradient><radialGradient id="radialGradient3033" cx="148.004" cy="160" r="128" gradientTransform="matrix(0.05167489,0,0,0.05167489,-0.87510811,-1.4947559)" gradientUnits="userSpaceOnUse" xlink:href="#radial0"/></defs><path id="path11" fill="url(#radialGradient3033)" d="m 13.387779,3.2589262 0,7.0290968 c 0,2.892778 0,3.100035 -3.100035,3.100035 l -7.0279947,0 c -3.10113641,0 -3.10113641,-0.207257 -3.10113641,-3.100035 l 0,-7.0290968 c 0,-2.89277778 0,-3.10003478 3.10113641,-3.10003478 l 7.0279947,0 c 3.100035,0 3.100035,0.207257 3.100035,3.10003478 z"/><path id="path15" fill="#fff" fill-opacity=".051" d="m 10.799272,13.388058 c 0.717682,-0.0033 1.235825,-0.02315 1.611753,-0.124574 l -1.193932,-2.046112 -1.2655897,2.170686 0.3362407,0 c 0.180799,0 0.350573,0 0.511528,0 z M 11.217093,11.217372 9.7707047,8.7369037 8.3232134,11.217372 z m 0,0 2.159662,0 c 0.0088,-0.274505 0.01102,-0.582083 0.01102,-0.930451 l 0,-0.3097829 -0.723193,-1.2402344 z M 12.664584,8.7369037 11.217093,6.256435 9.7707047,8.7369037 z m 0,0 0.723195,0 0,-1.2402343 z m -2.8938793,0 L 8.3232134,6.256435 6.8768245,8.7369037 z m -2.8938802,0 -1.4474916,2.4804683 2.8938805,0 z m 0,0 L 5.4293329,6.256435 3.982944,8.7369037 z m -2.8938805,0 -1.4474913,2.4804683 2.8938802,0 z m 0,0 L 2.5354527,6.256435 1.0890639,8.7369037 z m -2.8938801,0 -0.93045101,1.5941143 c 0,0.329627 0.0033,0.623976 0.01102,0.886354 l 2.36581581,0 z m 0,0 -0.93045101,-1.5941145 0,1.5941145 z m 1.4463888,2.4804683 -1.2170833,2.086901 c 0.450894,0.08268 1.0748699,0.08378 1.9402778,0.08378 l 0.5434982,0 z m 0,-4.960937 -1.4463888,-2.4804689 -0.93045101,1.5941147 0,0.8863542 z m 0,0 2.8938802,0 L 3.982944,3.7759661 z M 3.982944,3.7759661 2.5354527,1.2954974 1.0890639,3.7759661 z m 0,0 2.8938805,0 -1.4474916,-2.4804687 z m 1.4463889,-2.4804687 -0.663663,-1.13660597 -1.5070227,0 c -0.020946,0 -0.038585,0 -0.059531,0 L 2.5354527,1.2954974 z m 0,0 2.8938805,0 -0.6636633,-1.13660597 -1.5665538,0 z m 2.8938805,0 2.8938796,0 -0.663663,-1.13660597 c -0.08819,0 -0.171979,0 -0.266788,0 l -1.2997655,0 z m 0,0 -1.4463889,2.4804687 2.8938802,0 z m 1.4474913,2.4804687 2.8938793,0 -1.447491,-2.4804687 z m 0,0 -1.4474913,2.4804689 2.8938796,0 z m 1.4463883,2.4804689 2.170686,0 0,-1.2402343 -0.723195,-1.2402346 z m 1.447491,-2.4804689 0.723195,0 0,-0.5170399 c 0,-0.2579689 -0.0022,-0.4938889 -0.0066,-0.71217 z M 8.3232134,6.256435 6.8768245,3.7759661 5.4293329,6.256435 z m 2.8938796,-4.9609376 2.062648,0 C 13.123196,0.51718131 12.747267,0.27133949 11.85981,0.1941692 z m -8.6816403,0 L 1.8850188,0.17983768 C 0.85204089,0.23826643 0.43421989,0.46095731 0.26665089,1.2954974 z M 1.0890639,3.7759661 0.17514889,2.2083099 c -0.01213,0.3031685 -0.01654,0.6515363 -0.01654,1.0506163 l 0,0.5170399 z m 4.340269,7.4414059 -1.2655903,2.170686 2.532283,0 z m 2.8938805,0 -1.2655906,2.170686 2.5322833,0 z m -7.59133751,1.86862 -0.451996,-0.775009 c 0.08268,0.37152 0.221588,0.615157 0.451996,0.775009 z"/><path id="path32" fill="#f9f9f9" fill-opacity="1" d="M 12 15 C 11.454179 15 11 15.45418 11 16 L 11 17 L 11 32 C 11 32.54582 11.454179 33 12 33 L 12.28125 33 L 13 33 L 35 33 L 35.71875 33 L 36 33 C 36.545822 33 37 32.54582 37 32 L 37 17 L 37 16 C 37 15.45418 36.545822 15 36 15 L 35.71875 15 L 13 15 L 12 15 z M 16 17 L 32 17 L 24 22.34375 L 16 17 z M 13 18.34375 L 24 25.65625 L 35 18.34375 L 35 31 L 13 31 L 13 18.34375 z" transform="scale(0.28222223,0.28222223)"/></svg>