<svg xmlns="http://www.w3.org/2000/svg" xmlns:svg="http://www.w3.org/2000/svg" xmlns:xlink="http://www.w3.org/1999/xlink" id="svg2" width="48" height="48" version="1.1"><metadata id="metadata38"/><defs id="defs4"><linearGradient id="0"><stop id="stop7" stop-color="#278818"/><stop id="stop9" offset="1" stop-color="#36bb21"/></linearGradient><linearGradient id="1" x2="0" y1="1050.36" y2="1006.36" gradientTransform="translate(0,-1004.3622)" gradientUnits="userSpaceOnUse" xlink:href="#0"/><radialGradient id="radial0" cx="148.004" cy="160" r="128" gradientTransform="matrix(0.1831,0,0,0.1831,-3.10029,-5.29688)" gradientUnits="userSpaceOnUse"><stop id="stop7-8" offset="0" stop-color="#acdec8"/><stop id="stop9-8" offset="1" stop-color="#198252"/></radialGradient><radialGradient id="radialGradient3019" cx="148.004" cy="160" r="128" gradientTransform="matrix(0.1831,0,0,0.1831,-3.10079,-5.29638)" gradientUnits="userSpaceOnUse" xlink:href="#radial0"/><linearGradient id="linearGradient3032" x2="0" y1="1050.36" y2="1006.36" gradientTransform="translate(0,-1004.3622)" gradientUnits="userSpaceOnUse" xlink:href="#0"/><linearGradient id="linearGradient3038" x2="0" y1="1050.36" y2="1006.36" gradientTransform="translate(0,-1004.3622)" gradientUnits="userSpaceOnUse" xlink:href="#0"/></defs><path id="path11" fill="url(#radialGradient3019)" d="m 47.437,11.547375 0,24.90625 c 0,10.25 0,10.984375 -10.984375,10.984375 l -24.902344,0 C 0.562,47.438 0.562,46.703625 0.562,36.453625 l 0,-24.90625 c 0,-10.25 0,-10.984375 10.988281,-10.984375 l 24.902344,0 C 47.437,0.563 47.437,1.297375 47.437,11.547375 z"/><path id="path13" fill="#fff" fill-opacity=".051" d="m 38.265125,47.438 c 2.542969,-0.01172 4.378906,-0.08203 5.710937,-0.441406 l -4.230468,-7.25 -4.484375,7.691406 1.191406,0 c 0.640625,0 1.242187,0 1.8125,0 z m 1.480469,-7.691406 -5.125,-8.789063 -5.128906,8.789063 z m 0,0 7.652344,0 c 0.03125,-0.972656 0.03906,-2.0625 0.03906,-3.296875 l 0,-1.097657 -2.5625,-4.394531 z m 5.128906,-8.789063 -5.128906,-8.789062 -5.125,8.789062 z m 0,0 2.5625,0 0,-4.394531 z m -10.253906,0 -5.128906,-8.789062 -5.125,8.789062 z m -10.253906,0 -5.128907,8.789063 10.253907,0 z m 0,0 -5.128907,-8.789062 -5.125,8.789062 z m -10.253907,0 -5.128906,8.789063 10.253906,0 z m 0,0 -5.128906,-8.789062 -5.125,8.789062 z m -10.253906,0 L 0.562,36.605969 c 0,1.167969 0.01172,2.210937 0.03906,3.140625 l 8.382813,0 z m 0,0 -3.296875,-5.648437 0,5.648437 z m 5.125,8.789063 -4.3125,7.394531 c 1.597656,0.292969 3.808594,0.296875 6.875,0.296875 l 1.925781,0 z m 0,-17.578125 -5.125,-8.789063 -3.296875,5.648438 0,3.140625 z m 0,0 10.253906,0 -5.125,-8.789063 z m 5.128906,-8.789063 -5.128906,-8.7890625 -5.125,8.7890625 z m 0,0 10.253907,0 -5.128907,-8.7890625 z m 5.125,-8.7890625 L 16.886219,0.563 l -5.339844,0 c -0.07422,0 -0.136719,0 -0.210937,0 L 8.983875,4.5903435 z m 0,0 10.253907,0 L 27.140125,0.563 l -5.550781,0 z m 10.253907,0 10.253906,0 L 37.394031,0.563 c -0.3125,0 -0.609375,0 -0.945312,0 l -4.605469,0 z m 0,0 -5.125,8.7890625 10.253906,0 z m 5.128906,8.7890625 10.253906,0 -5.128906,-8.7890625 z m 0,0 -5.128906,8.789063 10.253906,0 z m 5.125,8.789063 7.691406,0 0,-4.394531 -2.5625,-4.394532 z m 5.128906,-8.789063 2.5625,0 0,-1.832031 c 0,-0.914063 -0.0078,-1.7500005 -0.02344,-2.5234375 z m -15.382812,8.789063 -5.125,-8.789063 -5.128907,8.789063 z m 10.253906,-17.5781255 7.308594,0 C 46.4995,1.832531 45.167469,0.961438 42.022938,0.688 z m -30.761719,0 L 6.679188,0.637219 C 3.019031,0.84425 1.538562,1.633312 0.944812,4.5903435 z m -5.125,8.7890625 -3.238281,-5.5546875 c -0.04297,1.074219 -0.05859,2.3085935 -0.05859,3.7226565 l 0,1.832031 z m 15.378906,26.367188 -4.484375,7.691406 8.972656,0 z m 10.253907,0 -4.484376,7.691406 8.972657,0 z M 2.59325,46.367688 0.991688,43.621594 C 1.284656,44.938 1.776844,45.801281 2.59325,46.367688 z"/><g id="g32" fill="#f9f9f9" transform="matrix(-0.19998425,0,0,0.22914566,49.20259,38.165732)"><path id="path34" d="m 76.026806,-105.45497 c 0,30.716158 0,60.642554 0,87.275562 35.103874,0 69.641104,0 100.000004,0 0,-30.716158 0,-60.642554 0,-87.275562 -34.71345,0 -70.24444,0 -100.000004,0 z m 9.999998,8.727556 45.000006,0 0,17.455111 -45.000006,0 z m 55.000006,0 25,0 0,17.455111 -25,0 z m -55.000006,26.182667 45.000006,0 0,17.455112 -45.000006,0 z m 55.000006,0 25,0 0,17.455112 -25,0 z m -55.000006,26.182668 45.000006,0 0,17.455111 -45.000006,0 z m 55.000006,0 25,0 0,17.455111 -25,0 z" color="#000"/></g></svg>