<svg xmlns="http://www.w3.org/2000/svg" xmlns:svg="http://www.w3.org/2000/svg" xmlns:xlink="http://www.w3.org/1999/xlink" id="svg2" width="48" height="48" enable-background="new" version="1.1" viewBox="0 0 13.547 13.547"><metadata id="metadata86"/><defs id="defs4"><linearGradient id="0"><stop id="stop7" stop-color="#2971cf"/><stop id="stop9" offset="1" stop-color="#81aeea"/></linearGradient><linearGradient id="1" x2="0" y1="299.81" y2="31.619" gradientTransform="matrix(0.11931818,0,0,0.11931818,414.13636,48.22727)" gradientUnits="userSpaceOnUse" xlink:href="#A"/><clipPath id="clipPath12"><rect id="rect14" width="30" height="30" x="417" y="53" fill="url(#1)" color="#bebebe" rx="7"/></clipPath><linearGradient id="2" x2="0" y1="302.86" y2="28.571" gradientTransform="matrix(0.0875,0,0,0.0875,414.9,97.5)" gradientUnits="userSpaceOnUse" xlink:href="#A"/><clipPath id="clipPath17"><rect id="rect19" width="22" height="22" x="417" y="101" fill="url(#2)" color="#bebebe" rx="5"/></clipPath><linearGradient id="3" x2="0" y1="124" y2="28" gradientUnits="userSpaceOnUse" xlink:href="#A"/><clipPath id="clipPath22"><rect id="rect24" width="88" height="88" x="292" y="32" fill="url(#3)" color="#bebebe" rx="18"/></clipPath><linearGradient id="4" x2="0" y1="204" y2="140" gradientUnits="userSpaceOnUse" xlink:href="#A"/><clipPath id="clipPath27"><rect id="rect29" width="60" height="60" x="290" y="142" fill="url(#4)" color="#bebebe" rx="12.5"/></clipPath><linearGradient id="5" x2="0" y1="280" y2="40" gradientTransform="translate(0,-4)" gradientUnits="userSpaceOnUse" xlink:href="#A"/><clipPath id="clipPath32"><rect id="rect34" width="220" height="220" x="34" y="46" fill="url(#5)" color="#bebebe" rx="50"/></clipPath><linearGradient id="6" x2="0" y1="280" y2="40" gradientTransform="matrix(0.06666667,0,0,0.06666667,302.4,209.33333)" gradientUnits="userSpaceOnUse" xlink:href="#A"/><clipPath id="clipPath37"><rect id="rect39" width="16" height="16" x="304" y="212" fill="url(#6)" color="#bebebe" rx="3" transform="matrix(0,1,-1,0,0,0)"/></clipPath><linearGradient id="7" x2="0" y1="291.43" y2="40" gradientTransform="matrix(0.11931818,0,0,0.11931818,430.13636,32.227267)" gradientUnits="userSpaceOnUse" xlink:href="#A"/><clipPath id="clipPath42"><rect id="rect44" width="30" height="30" x="433" y="37" fill="url(#7)" color="#bebebe" rx="6"/></clipPath><linearGradient id="8" x2="0" y1="291.43" y2="40" gradientTransform="matrix(0.0875,0,0,0.0875,430.9,81.499996)" gradientUnits="userSpaceOnUse" xlink:href="#A"/><clipPath id="clipPath47"><rect id="rect49" width="22" height="22" x="433" y="85" fill="url(#8)" color="#bebebe" rx="4"/></clipPath><linearGradient id="9" x2="0" y1="280" y2="40" gradientTransform="matrix(0.175,0,0,0.175,302.79999,215.99997)" gradientUnits="userSpaceOnUse" xlink:href="#A"/><clipPath id="clipPath52"><rect id="rect54" width="42" height="42" x="307" y="223" fill="url(#9)" color="#bebebe" rx="9" transform="matrix(0,1,-1,0,0,0)"/></clipPath><linearGradient id="A"><stop id="stop57" stop-color="#b94642"/><stop id="stop59" offset="1" stop-color="#c66a58"/></linearGradient><linearGradient id="B" x2="0" y1="1050.36" y2="1006.36" gradientTransform="translate(-78.066777,-887.05179)" gradientUnits="userSpaceOnUse" xlink:href="#0"/><radialGradient id="radial0" cx="148.004" cy="160" r="128" gradientTransform="matrix(0.1831,0,0,0.1831,-3.10029,-5.29688)" gradientUnits="userSpaceOnUse"><stop id="stop7-1" offset="0" stop-color="#b5d9e4"/><stop id="stop9-0" offset="1" stop-color="#006faa" stop-opacity="1"/></radialGradient><radialGradient id="radialGradient3018" cx="148.004" cy="160" r="128" gradientTransform="matrix(0.05167489,0,0,0.05167489,-0.87511191,-1.4947615)" gradientUnits="userSpaceOnUse" xlink:href="#radial0"/><linearGradient id="linearGradient3082" x2="0" y1="1050.36" y2="1006.36" gradientTransform="matrix(0.28222223,0,0,0.28222223,1.0614729e-7,-283.45334)" gradientUnits="userSpaceOnUse" xlink:href="#0"/></defs><path id="path11" fill="url(#radialGradient3018)" d="m 13.387776,3.2589206 0,7.0290974 c 0,2.892778 0,3.100035 -3.100035,3.100035 l -7.0279948,0 c -3.10113731,0 -3.10113731,-0.207257 -3.10113731,-3.100035 l 0,-7.0290974 c 0,-2.89277789 0,-3.10003479 3.10113731,-3.10003479 l 7.0279948,0 c 3.100035,0 3.100035,0.2072569 3.100035,3.10003479 z"/><path id="path15" fill="#fff" fill-opacity=".051" d="m 10.799269,13.388053 c 0.717682,-0.0033 1.235825,-0.02315 1.611753,-0.124575 l -1.193932,-2.046111 -1.2655898,2.170686 0.3362408,0 c 0.180799,0 0.350573,0 0.511528,0 z M 11.21709,11.217367 9.7707012,8.7368981 8.3232102,11.217367 z m 0,0 2.159662,0 c 0.0088,-0.274505 0.01102,-0.582083 0.01102,-0.930451 l 0,-0.3097836 -0.723194,-1.2402343 z M 12.664582,8.7368981 11.21709,6.2564294 9.7707012,8.7368981 z m 0,0 0.723194,0 0,-1.2402343 z m -2.8938808,0 -1.447491,-2.4804687 -1.446389,2.4804687 z m -2.89388,0 -1.447492,2.4804689 2.893881,0 z m 0,0 -1.447492,-2.4804687 -1.446389,2.4804687 z m -2.893881,0 -1.447491,2.4804689 2.89388,0 z m 0,0 -1.447491,-2.4804687 -1.4463889,2.4804687 z m -2.8938799,0 -0.93045141,1.5941149 c 0,0.329627 0.00331,0.623976 0.011024,0.886354 l 2.36581621,0 z m 0,0 -0.93045141,-1.5941145 0,1.5941145 z m 1.4463889,2.4804689 -1.2170833,2.086901 c 0.450894,0.08268 1.0748703,0.08379 1.9413803,0.08379 l 0.542396,0 z m 0,-4.9609376 -1.4463889,-2.4804689 -0.93045141,1.5941147 0,0.8863542 z m 0,0 2.89388,0 -1.446389,-2.4804689 z M 3.9829402,3.7759605 2.5354492,1.2954918 1.0890603,3.7759605 z m 0,0 2.893881,0 -1.447492,-2.4804687 z m 1.446389,-2.4804687 -0.663663,-1.13660599 -1.50592,0 c -0.02205,0 -0.03969,0 -0.06063,0 L 2.5354532,1.2954918 z m 0,0 2.893881,0 -0.663664,-1.13660599 -1.566553,0 z m 2.893881,0 2.8938798,0 -0.663663,-1.13660599 c -0.0882,0 -0.171979,0 -0.265686,0 l -1.3008678,0 z m 0,0 -1.446389,2.4804687 2.89388,0 z m 1.447491,2.4804687 2.8938808,0 -1.447492,-2.4804687 z m 0,0 -1.447491,2.4804689 2.8938798,0 z m 1.4463888,2.4804689 2.170686,0 0,-1.2402343 -0.723194,-1.2402346 z m 1.447492,-2.4804689 0.723194,0 0,-0.5170399 c 0,-0.2579689 -0.0022,-0.4938889 -0.0066,-0.71217 z M 8.3232102,6.2564294 6.8768212,3.7759605 5.4293292,6.2564294 z m 2.8938798,-4.9609376 2.062648,0 C 13.123193,0.51717571 12.747264,0.27133391 11.859807,0.19416361 z m -8.6816408,0 -0.650434,-1.11565979 C 0.85203759,0.23826101 0.43421639,0.46095161 0.26664689,1.2954918 z M 1.0890603,3.7759605 0.17514539,2.2083043 c -0.0121268,0.3031685 -0.0165365,0.6515363 -0.0165365,1.0506163 l 0,0.5170399 z m 4.3402689,7.4414065 -1.26559,2.170686 2.532283,0 z m 2.893881,0 -1.265591,2.170686 2.532283,0 z m -7.59133741,1.86862 -0.4519964,-0.775009 c 0.082682,0.371519 0.2215884,0.615157 0.4519964,0.775009 z"/><path id="path82" fill="#f9f9f9" d="m 7.3377781,10.442222 0,-5.0800001 -1.1288889,0 0,5.0800001 z m -1.4111112,-5.3622223 -2.54,-1.4111112 0,4.7977779 2.54,1.6933336 z M 10.16,8.4666664 l 10e-7,-4.7977779 -2.5400007,1.4111112 0,5.0800003 z M 9.5955559,3.6688885 c -1.1288889,0 -1.6933334,0.1467076 -2.8222223,1.1288889 C 5.6444447,3.8402228 5.0800002,3.6688885 3.9511113,3.6688885 l 2.2577779,1.4111112 1.1288889,0 z"/></svg>