<svg xmlns="http://www.w3.org/2000/svg" xmlns:svg="http://www.w3.org/2000/svg" xmlns:xlink="http://www.w3.org/1999/xlink" id="svg2" width="48" height="48" version="1.1"><metadata id="metadata50"/><defs id="defs4"><linearGradient id="0" x2="0" y1="1050.36" y2="1006.36" gradientUnits="userSpaceOnUse" xlink:href="#1"/><linearGradient id="1"><stop id="stop8" stop-color="#2d2d2d"/><stop id="stop10" offset="1" stop-color="#4e4e4e"/></linearGradient><radialGradient id="radialGradient3040" cx="148.004" cy="160" r="128" gradientTransform="matrix(0.05167489,0,0,0.05167489,5.4391535,-4.5658603)" gradientUnits="userSpaceOnUse" spreadMethod="pad" xlink:href="#linearGradient4460-7-2"/><linearGradient id="linearGradient4460-7-2"><stop id="stop8-6-7" offset="0" stop-color="#747474" stop-opacity="1"/><stop id="stop10-2-5" offset="1" stop-color="#2d2d2d" stop-opacity="1"/></linearGradient><radialGradient id="radialGradient3077" cx="148.004" cy="160" r="128" gradientTransform="matrix(0.1831,0,0,0.1831,-3.100791,-5.296398)" gradientUnits="userSpaceOnUse" spreadMethod="pad" xlink:href="#linearGradient4460-7-2"/><linearGradient id="linearGradient3056" x2="0" y1="1050.36" y2="1006.36" gradientTransform="translate(0,-1004.3622)" gradientUnits="userSpaceOnUse" xlink:href="#1"/></defs><path id="path11-4" fill="url(#radialGradient3077)" fill-opacity="1" d="m 47.436998,11.547357 0,24.906249 c 0,10.250001 0,10.984376 -10.984375,10.984376 l -24.902343,0 C 0.562,47.437982 0.562,46.703607 0.562,36.453606 l 0,-24.906249 c 0,-10.2500004 0,-10.9843752 10.98828,-10.9843752 l 24.902343,0 c 10.984375,0 10.984375,0.7343748 10.984375,10.9843752 z"/><path id="path15-5" fill="#fff" fill-opacity=".051" d="m 38.265123,47.437982 c 2.542968,-0.01169 4.378908,-0.08203 5.710936,-0.441407 l -4.230468,-7.25 -4.484374,7.691407 1.191406,0 c 0.640626,0 1.242187,0 1.8125,0 z m 1.480468,-7.691407 -5.125,-8.789062 -5.128905,8.789062 z m 0,0 7.652346,0 c 0.03118,-0.972655 0.03905,-2.062499 0.03905,-3.296873 l 0,-1.097658 -2.562495,-4.394531 z m 5.128909,-8.789062 -5.128909,-8.789062 -5.125,8.789062 z m 0,0 2.562498,0 0,-4.394531 z m -10.253909,0 -5.128905,-8.789062 -5.125,8.789062 z m -10.253905,0 -5.128905,8.789062 10.253905,0 z m 0,0 -5.128905,-8.789062 -5.125,8.789062 z m -10.253905,0 -5.128907,8.789062 10.253907,0 z m 0,0 -5.128907,-8.789062 -5.125,8.789062 z m -10.253907,0 L 0.562,36.605951 c 0,1.167969 0.01169,2.210938 0.03905,3.140624 l 8.382814,0 z m 0,0 -3.296874,-5.648437 0,5.648437 z m 5.125,8.789062 -4.312499,7.394531 C 6.26903,47.434067 8.479968,47.438 11.55028,47.438 l 1.921874,0 z m 0,-17.578124 -5.125,-8.789063 -3.296874,5.648438 0,3.140625 z m 0,0 10.253907,0 -5.125,-8.789063 z m 5.128907,-8.789063 -5.128907,-8.7890622 -5.125,8.7890622 z m 0,0 10.253905,0 -5.128905,-8.7890622 z m 5.125,-8.7890622 -2.351562,-4.027344 -5.335939,0 c -0.07813,0 -0.140627,0 -0.214845,0 l -2.351561,4.027344 z m 0,0 10.253905,0 -2.351562,-4.027344 -5.550781,0 z m 10.253905,0 10.253905,0 -2.351561,-4.027344 c -0.31252,0 -0.609375,0 -0.941407,0 l -4.609375,0 z m 0,0 -5.125,8.7890622 10.253905,0 z m 5.128905,8.7890622 10.253909,0 -5.128909,-8.7890622 z m 0,0 -5.128905,8.789063 10.253905,0 z m 5.125,8.789063 7.691407,0 0,-4.394531 -2.562498,-4.394532 z m 5.128909,-8.789063 2.562498,0 0,-1.832031 c 0,-0.914063 -0.0078,-1.7499997 -0.02339,-2.523437 z m -15.382814,8.789063 -5.125,-8.789063 -5.128905,8.789063 z m 10.253905,-17.5781252 7.308595,0 C 46.499499,1.8325129 45.167468,0.9614196 42.022935,0.6879819 z m -30.761717,0 L 6.679187,0.6372006 C 3.019029,0.8442325 1.538561,1.6332937 0.944812,4.5903258 z m -5.125,8.7890622 -3.238282,-5.5546868 c -0.04298,1.0742187 -0.05857,2.3085928 -0.05857,3.7226558 l 0,1.832031 z m 15.378907,26.367187 -4.484378,7.691407 8.972656,0 z m 10.253905,0 -4.484374,7.691407 8.972656,0 z M 2.59325,46.36767 0.991687,43.621575 c 0.29296,1.316406 0.785157,2.17969 1.601563,2.746095 z"/><path id="path30" fill="#f9f9f9" fill-opacity="1" d="m 28.031942,38.4466 c -2.564097,0.7176 -5.333926,0.7589 -8.030446,0.01 l 1.402823,-3.3973 c 1.753417,0.414 3.536536,0.3934 5.217228,-0.01 l 1.410395,3.3947 z"/><path id="path32" fill="#f9f9f9" fill-opacity="1" d="m 18.039875,33.6693 c -1.534733,-0.9436 -2.783803,-2.2162 -3.692689,-3.6855 l -3.394659,1.4107 c 1.311026,2.3175 3.244767,4.3011 5.684599,5.6722 l 1.402749,-3.3974 z"/><path id="path34" fill="#f9f9f9" fill-opacity="1" d="m 10.935639,16.6383 3.397423,1.4028 c 0.943682,-1.5348 2.216197,-2.7839 3.685409,-3.6927 l -1.41061,-3.3946 c -2.317531,1.3108 -4.301066,3.2446 -5.672222,5.6845 z"/><path id="path36" fill="#f9f9f9" fill-opacity="1" d="m 12.950549,26.6225 c -0.400025,-1.6805 -0.420628,-3.4636 -0.0066,-5.217 L 9.5465298,20.0027 c -0.749679,2.6964 -0.708256,5.4663 0.0094,8.0304 l 3.3947262,-1.4106 z"/><path id="path38" fill="#f9f9f9" fill-opacity="1" d="m 33.668201,29.9625 c -0.943759,1.5348 -2.216198,2.7839 -3.685338,3.6927 l 1.410391,3.3947 c 2.317676,-1.3109 4.301137,-3.2447 5.672216,-5.6846 l -3.397269,-1.4028 z"/><path id="path40" fill="#f9f9f9" fill-opacity="1" d="m 21.379785,12.9516 c 1.680619,-0.4001 3.463666,-0.4206 5.217156,-0.01 L 27.999693,9.5443 C 25.303246,8.7946 22.53342,8.836 19.969175,9.5543 l 1.41061,3.3946 z"/><path id="path42" fill="#f9f9f9" fill-opacity="1" d="m 29.961315,14.3342 c 1.534805,0.9436 2.784021,2.2162 3.69276,3.6854 l 3.394653,-1.4106 c -1.310953,-2.3176 -3.244762,-4.3011 -5.684593,-5.6722 l -1.40282,3.3974 z"/><path id="path44" fill="#f9f9f9" fill-opacity="1" d="m 35.050782,21.381 c 0.400099,1.6805 0.420555,3.4636 0.0066,5.2171 l 3.39735,1.4028 c 0.749676,-2.6965 0.708325,-5.4664 -0.0092,-8.0305 L 35.05083,21.381 z"/><path id="path46" fill="#f9f9f9" fill-opacity="1" d="m 24.000785,15.0016 c -4.970562,0 -8.999999,4.0294 -8.999999,9 0,4.9706 4.029437,9 8.999999,9 4.970563,0 9,-4.0294 9,-9 0,-4.9706 -4.029437,-9 -9,-9 z m 0,4 c 2.761424,0 5,2.2386 5,5 0,2.7614 -2.238576,5 -5,5 -2.761423,0 -4.999999,-2.2386 -4.999999,-5 0,-2.7614 2.238576,-5 4.999999,-5 z"/></svg>