<svg xmlns="http://www.w3.org/2000/svg" xmlns:svg="http://www.w3.org/2000/svg" xmlns:xlink="http://www.w3.org/1999/xlink" id="svg2" width="48" height="48" version="1.1" viewBox="0 0 13.547 13.547"><metadata id="metadata22"/><defs id="defs4"><linearGradient id="linearGradient4460"><stop id="stop7" offset="0" stop-color="#dedede" stop-opacity="1"/><stop id="stop9" offset="1" stop-color="#f9f9f9" stop-opacity="1"/></linearGradient><linearGradient id="linearGradient3001" x2="0" y1="279.096" y2="268.33" gradientTransform="matrix(1.10526,0,0,1.10526,-134.28026,-295.76492)" gradientUnits="userSpaceOnUse" xlink:href="#linearGradient4460"/><linearGradient id="linearGradient3002" x2="0" y1="279.096" y2="268.33" gradientTransform="matrix(1.10526,0,0,1.10526,-134.28026,-295.76492)" gradientUnits="userSpaceOnUse" xlink:href="#linearGradient4460"/><linearGradient id="B" x2="0" y1="1050.36" y2="1006.36" gradientTransform="translate(-78.066775,-887.05181)" gradientUnits="userSpaceOnUse" xlink:href="#0"/><linearGradient id="0"><stop id="stop7-4" stop-color="#c34141"/><stop id="stop9-1" offset="1" stop-color="#d76464"/></linearGradient><linearGradient id="linearGradient3027" x2="0" y1="1050.36" y2="1006.36" gradientTransform="matrix(0.28222223,0,0,0.28222223,9.9916667e-7,-283.45335)" gradientUnits="userSpaceOnUse" xlink:href="#linearGradient4460"/><radialGradient id="radialGradient3017" cx="148.004" cy="160" r="128" gradientTransform="matrix(0.05167489,0,0,0.05167489,-0.87511211,-1.4947611)" gradientUnits="userSpaceOnUse" spreadMethod="pad" xlink:href="#linearGradient4460-7"/><linearGradient id="linearGradient4460-7"><stop id="stop8-6" offset="0" stop-color="#747474" stop-opacity="1"/><stop id="stop10-2" offset="1" stop-color="#2d2d2d" stop-opacity="1"/></linearGradient><radialGradient id="radialGradient3026" cx="148.004" cy="160" r="128" gradientTransform="matrix(0.05167489,0,0,0.05167489,-0.87511211,-1.4947611)" gradientUnits="userSpaceOnUse" spreadMethod="pad" xlink:href="#linearGradient4460-7"/></defs><path id="path11" fill="url(#radialGradient3026)" fill-opacity="1" d="m 13.387776,3.2589209 0,7.0290971 c 0,2.892778 0,3.100035 -3.100035,3.100035 l -7.0279952,0 c -3.10113691,0 -3.10113691,-0.207257 -3.10113691,-3.100035 l 0,-7.0290971 c 0,-2.89277789 0,-3.10003479 3.10113691,-3.10003479 l 7.0279952,0 c 3.100035,0 3.100035,0.2072569 3.100035,3.10003479 z"/><path id="path15" fill="#fff" fill-opacity=".051" d="m 10.799269,13.388053 c 0.717682,-0.0033 1.235825,-0.02315 1.611753,-0.124575 l -1.193932,-2.046111 -1.2655904,2.170686 0.3362414,0 c 0.180799,0 0.350573,0 0.511528,0 z M 11.21709,11.217367 9.7707009,8.7368984 8.3232097,11.217367 z m 0,0 2.159662,0 c 0.0088,-0.274505 0.01102,-0.582083 0.01102,-0.930451 l 0,-0.3097833 -0.723193,-1.2402343 z M 12.664582,8.7368984 11.21709,6.2564297 9.7707009,8.7368984 z m 0,0 0.723194,0 0,-1.2402343 z m -2.8938811,0 -1.4474912,-2.4804687 -1.446389,2.4804687 z m -2.8938802,0 -1.4474915,2.4804686 2.8938805,0 z m 0,0 -1.4474915,-2.4804687 -1.446389,2.4804687 z m -2.8938805,0 -1.4474913,2.4804686 2.8938803,0 z m 0,0 -1.4474913,-2.4804687 -1.446389,2.4804687 z m -2.8938803,0 -0.93045101,1.5941146 c 0,0.329627 0.0033,0.623976 0.01102,0.886354 l 2.36581651,0 z m 0,0 -0.93045101,-1.5941145 0,1.5941145 z m 1.446389,2.4804686 -1.217083,2.086901 c 0.4508937,0.08268 1.0748696,0.08379 1.9413799,0.08379 l 0.5423958,0 z m 0,-4.9609373 -1.446389,-2.4804689 -0.93045101,1.5941147 0,0.8863542 z m 0,0 2.8938803,0 -1.446389,-2.4804689 z M 3.9829402,3.7759608 2.5354489,1.2954921 1.0890599,3.7759608 z m 0,0 2.8938805,0 -1.4474915,-2.4804687 z m 1.446389,-2.4804687 -0.6636631,-1.13660599 -1.5059203,0 c -0.02205,0 -0.039688,0 -0.060634,0 L 2.5354489,1.2954921 z m 0,0 2.8938805,0 -0.6636634,-1.13660599 -1.5665538,0 z m 2.8938805,0 2.8938803,0 -0.663663,-1.13660599 c -0.0882,0 -0.171979,0 -0.265686,0 l -1.3008683,0 z m 0,0 -1.446389,2.4804687 2.8938802,0 z m 1.4474912,2.4804687 2.8938811,0 -1.447492,-2.4804687 z m 0,0 -1.4474912,2.4804689 2.8938803,0 z m 1.4463891,2.4804689 2.170686,0 0,-1.2402343 -0.723194,-1.2402346 z m 1.447492,-2.4804689 0.723194,0 0,-0.5170399 c 0,-0.2579689 -0.0022,-0.4938888 -0.0066,-0.71217 z M 8.3232097,6.2564297 6.8768207,3.7759608 5.4293292,6.2564297 z m 2.8938803,-4.9609376 2.062648,0 C 13.123193,0.51717601 12.747264,0.27133411 11.859807,0.19416391 z m -8.6816411,0 L 1.885015,0.17983231 C 0.85203689,0.23826131 0.43421589,0.46095191 0.26664689,1.2954921 z M 1.0890599,3.7759608 0.17514489,2.2083047 c -0.01213,0.3031684 -0.01653,0.6515362 -0.01653,1.0506162 l 0,0.5170399 z m 4.3402693,7.4414062 -1.2655903,2.170686 2.5322829,0 z m 2.8938805,0 -1.2655906,2.170686 2.5322832,0 z m -7.59133691,1.86862 -0.4519969,-0.775009 c 0.08268,0.371519 0.221589,0.615157 0.4519969,0.775009 z"/><path id="rect3778" fill="#f9f9f9" fill-opacity="1" fill-rule="evenodd" d="m 24,13 c -5.921792,0 -10.947708,3.638529 -13,8.8125 l 11,4.125 3,-12.90625 C 24.667825,13.007877 24.338414,13 24,13 z m 1,0.03125 c -16.6666667,23.3125 -8.333333,11.65625 0,0 z" transform="scale(0.28222223,0.28222223)"/><path id="path3799" fill="#f9f9f9" fill-opacity="1" stroke="none" stroke-linecap="butt" stroke-linejoin="miter" stroke-opacity="1" stroke-width="1" d="M 25 13.03125 L 26 26 L 26.09375 26 L 37 21.8125 C 35.064989 16.934207 30.480438 13.416872 25 13.03125 z" transform="scale(0.28222223,0.28222223)"/><path id="path3005" fill="#f9f9f9" fill-opacity="1" stroke="none" d="m 6.7733335,7.0555557 c -0.7793352,0 -1.4111111,0.6317759 -1.4111111,1.4111112 0,0.7793352 0.6317759,1.4111111 1.4111111,1.4111111 0.7793353,0 1.4111112,-0.6317759 1.4111112,-1.4111111 0,-0.7793353 -0.6317759,-1.4111112 -1.4111112,-1.4111112 z m 0,0.8466667 c 0.3117342,0 0.5644445,0.2527103 0.5644445,0.5644445 0,0.3117342 -0.2527103,0.5644444 -0.5644445,0.5644444 -0.3117342,0 -0.5644444,-0.2527102 -0.5644444,-0.5644444 0,-0.3117342 0.2527102,-0.5644445 0.5644444,-0.5644445 z"/></svg>