<svg xmlns="http://www.w3.org/2000/svg" xmlns:svg="http://www.w3.org/2000/svg" xmlns:xlink="http://www.w3.org/1999/xlink" id="svg2" width="48" height="48" version="1.1" viewBox="0 0 13.547 13.547"><metadata id="metadata34"/><defs id="defs4"><linearGradient id="0"><stop id="stop7" stop-color="#d05a60"/><stop id="stop9" offset="1" stop-color="#ab1a22"/></linearGradient><linearGradient id="1" x2="0" y1="1050.36" y2="1006.36" gradientTransform="matrix(0.28222223,0,0,0.28222223,-13.546667,-296.99999)" gradientUnits="userSpaceOnUse" xlink:href="#0"/><radialGradient id="radialGradient3030" cx="148.004" cy="160" r="128" gradientTransform="matrix(0.1831,0,0,0.1831,-3.10079,-5.2963803)" gradientUnits="userSpaceOnUse" xlink:href="#radial0"/><radialGradient id="radial0" cx="148.004" cy="160" r="128" gradientTransform="matrix(0.1831,0,0,0.1831,-3.10029,-5.29688)" gradientUnits="userSpaceOnUse"><stop id="stop7-3" offset="0" stop-color="#ebc1c1"/><stop id="stop9-4" offset="1" stop-color="#9b2520"/></radialGradient><radialGradient id="radialGradient3010" cx="148.004" cy="160" r="128" gradientTransform="matrix(0.05167489,0,0,0.05167489,-0.87510911,-1.4947613)" gradientUnits="userSpaceOnUse" xlink:href="#radial0"/></defs><path id="path11" fill="url(#radialGradient3010)" d="m 13.387779,3.2589208 0,7.0290972 c 0,2.892778 0,3.100035 -3.100035,3.100035 l -7.0279947,0 c -3.10113741,0 -3.10113741,-0.207257 -3.10113741,-3.100035 l 0,-7.0290972 c 0,-2.89277782 0,-3.10003477 3.10113741,-3.10003477 l 7.0279947,0 c 3.100035,0 3.100035,0.20725695 3.100035,3.10003477 z"/><path id="path15" fill="#fff" fill-opacity=".051" d="m 10.799272,13.388053 c 0.717682,-0.0033 1.235825,-0.02315 1.611753,-0.124575 l -1.193932,-2.046111 -1.26559,2.170686 0.336241,0 c 0.180799,0 0.350573,0 0.511528,0 z M 11.217093,11.217367 9.7707044,8.7368983 8.3232131,11.217367 z m 0,0 2.159662,0 c 0.0088,-0.274505 0.01102,-0.582083 0.01102,-0.930451 l 0,-0.3097834 -0.723194,-1.2402343 z M 12.664585,8.7368983 11.217093,6.2564296 9.7707044,8.7368983 z m 0,0 0.723194,0 0,-1.2402343 z m -2.8938806,0 L 8.3232131,6.2564296 6.8768242,8.7368983 z m -2.8938802,0 -1.4474916,2.4804687 2.8938805,0 z m 0,0 L 5.4293326,6.2564296 3.9829437,8.7368983 z m -2.8938805,0 -1.4474918,2.4804687 2.8938807,0 z m 0,0 -1.4474918,-2.4804687 -1.446388,2.4804687 z m -2.8938798,0 -0.93045201,1.5941147 c 0,0.329627 0.0033,0.623976 0.01102,0.886354 l 2.36581601,0 z m 0,0 -0.93045201,-1.5941145 0,1.5941145 z m 1.446388,2.4804687 -1.217083,2.086901 c 0.450894,0.08268 1.07487,0.08379 1.940278,0.08379 l 0.5434982,0 z m 0,-4.9609374 -1.446388,-2.4804689 -0.93045201,1.5941147 0,0.8863542 z m 0,0 2.8938807,0 L 3.9829437,3.7759607 z M 3.9829437,3.7759607 2.5354519,1.295492 1.0890639,3.7759607 z m 0,0 2.8938805,0 L 5.4293326,1.295492 z M 5.4293326,1.295492 4.7656696,0.15888603 l -1.5070227,0 c -0.020947,0 -0.038585,0 -0.059531,0 L 2.535452,1.295492 z m 0,0 2.8938805,0 -0.6636633,-1.13660597 -1.5665538,0 z m 2.8938805,0 2.8938799,0 -0.663663,-1.13660597 c -0.0882,0 -0.171979,0 -0.266788,0 l -1.2997658,0 z m 0,0 -1.4463889,2.4804687 2.8938802,0 z m 1.4474913,2.4804687 2.8938806,0 -1.447492,-2.4804687 z m 0,0 -1.4474913,2.4804689 2.8938799,0 z m 1.4463886,2.4804689 2.170686,0 0,-1.2402343 -0.723194,-1.2402346 z m 1.447492,-2.4804689 0.723194,0 0,-0.5170399 c 0,-0.2579689 -0.0022,-0.4938889 -0.0066,-0.71217 z M 8.3232131,6.2564296 6.8768242,3.7759607 5.4293326,6.2564296 z m 2.8938799,-4.9609376 2.062648,0 C 13.123196,0.5171759 12.747267,0.27133409 11.85981,0.19416381 z m -8.6816411,0 -0.650433,-1.11565972 C 0.85204089,0.23826108 0.43421989,0.46095187 0.26664989,1.295492 z M 1.0890639,3.7759607 0.17514889,2.2083045 c -0.01213,0.3031685 -0.01654,0.6515364 -0.01654,1.0506163 l 0,0.5170399 z m 4.3402687,7.4414063 -1.2655903,2.170686 2.532283,0 z m 2.8938805,0 -1.2655906,2.170686 2.5322833,0 z m -7.59133721,1.86862 -0.451996,-0.775009 c 0.08268,0.371519 0.221588,0.615157 0.451996,0.775009 z"/><path id="path28" fill="none" stroke="#f9f9f9" stroke-width=".564" d="M 4.8487551,9.0208574 C 4.6909215,8.8547489 4.2692703,7.8348368 3.91175,6.7543857 3.3586191,5.0827883 3.2943854,4.7492942 3.4808789,4.5173354 3.7539874,4.177644 4.2124421,4.166113 4.4747237,4.4923384 4.5842108,4.628518 4.796175,5.1654915 4.9457526,5.6856127 5.0953321,6.2057338 5.2895449,6.6332008 5.3773379,6.6355398 5.4651299,6.6379398 5.691063,6.1633678 5.8794102,5.5810726 6.4687427,3.759086 7.0926227,3.7845234 7.737832,5.6568466 c 0.2135952,0.619828 0.4424669,1.1269611 0.5086023,1.1269611 0.066134,0 0.2493024,-0.4921431 0.4070352,-1.093652 C 8.9566941,4.5338207 9.2074576,4.1810424 9.6607648,4.2730794 10.330284,4.4090157 10.327678,4.8449362 9.6451648,6.8813727 8.9304678,9.0138555 8.6530049,9.4211465 8.0256881,9.2586225 7.6567668,9.1630424 7.3613757,8.6040698 7.0085824,7.3339398 6.8810877,6.8749327 6.6224128,7.1664287 6.3737785,8.0492858 6.0330524,9.2591495 5.4363654,9.6392915 4.8487503,9.0208574 z"/><path id="path30" fill="none" fill-opacity="1" d="M 4.8487551,9.0208574 C 4.6909215,8.8547489 4.2692703,7.8348368 3.91175,6.7543857 3.3586191,5.0827883 3.2943854,4.7492942 3.4808789,4.5173354 3.7539874,4.177644 4.2124421,4.166113 4.4747237,4.4923384 4.5842108,4.628518 4.796175,5.1654915 4.9457526,5.6856127 5.0953321,6.2057338 5.2895449,6.6332008 5.3773379,6.6355398 5.4651299,6.6379398 5.691063,6.1633678 5.8794102,5.5810726 6.4687427,3.759086 7.0926227,3.7845234 7.737832,5.6568466 c 0.2135952,0.619828 0.4424669,1.1269611 0.5086023,1.1269611 0.066134,0 0.2493024,-0.4921431 0.4070352,-1.093652 C 8.9566941,4.5338207 9.2074576,4.1810424 9.6607648,4.2730794 10.330284,4.4090157 10.327678,4.8449362 9.6451648,6.8813727 8.9304678,9.0138555 8.6530049,9.4211465 8.0256881,9.2586225 7.6567668,9.1630424 7.3613757,8.6040698 7.0085824,7.3339398 6.8810877,6.8749327 6.6224128,7.1664287 6.3737785,8.0492858 6.0330524,9.2591495 5.4363654,9.6392915 4.8487503,9.0208574 z"/></svg>