<svg xmlns="http://www.w3.org/2000/svg" xmlns:svg="http://www.w3.org/2000/svg" xmlns:xlink="http://www.w3.org/1999/xlink" id="svg2" width="48" height="48" version="1.1" viewBox="0 0 13.547 13.547"><metadata id="metadata42"/><defs id="defs4"><linearGradient id="0"><stop id="stop7" stop-color="#d73a69"/><stop id="stop9" offset="1" stop-color="#e16b8e"/></linearGradient><linearGradient id="1" x2="0" y1="1050.36" y2="1006.36" gradientTransform="matrix(0.28222223,0,0,0.28222223,0,-283.45334)" gradientUnits="userSpaceOnUse" xlink:href="#linearGradient4460-1"/><radialGradient id="radialGradient3836" cx="6.773" cy="6.773" r="3.669" fx="6.773" fy="6.773" gradientUnits="userSpaceOnUse" xlink:href="#linearGradient3830"/><radialGradient id="radialGradient3826" cx="6.209" cy="5.927" r=".282" fx="6.209" fy="5.927" gradientTransform="translate(0.56444446,1.6933334)" gradientUnits="userSpaceOnUse" xlink:href="#linearGradient3816"/><radialGradient id="radialGradient3822" cx="6.209" cy="5.927" r=".282" fx="6.209" fy="5.927" gradientUnits="userSpaceOnUse" xlink:href="#linearGradient3816"/><linearGradient id="linearGradient3010" x2="0" y1="279.096" y2="268.33" gradientTransform="matrix(1.1052811,0,0,1.1052811,-134.28288,-295.77052)" gradientUnits="userSpaceOnUse" xlink:href="#linearGradient4460"/><linearGradient id="linearGradient3842" x2="0" y1="279.096" y2="268.33" gradientTransform="matrix(1.10525,0,0,1.10525,-134.27874,-295.76183)" gradientUnits="userSpaceOnUse" xlink:href="#linearGradient4460"/><linearGradient id="linearGradient4460"><stop id="stop7-3" offset="0" stop-color="#e7e9e2" stop-opacity="1"/><stop id="stop9-0" offset="1" stop-color="#ececec" stop-opacity="1"/></linearGradient><linearGradient id="linearGradient3816"><stop id="stop3818" offset="0" stop-color="#fff" stop-opacity="1"/><stop id="stop3820" offset="1" stop-color="#fff" stop-opacity="0"/></linearGradient><linearGradient id="linearGradient3830"><stop id="stop3832" offset="0" stop-color="#000" stop-opacity="1"/><stop id="stop3834" offset="1" stop-color="#000" stop-opacity="0"/></linearGradient><radialGradient id="radialGradient3084" cx="6.773" cy="6.773" r="3.669" fx="6.773" fy="6.773" gradientUnits="userSpaceOnUse" xlink:href="#linearGradient3830"/><radialGradient id="radialGradient3087" cx="6.209" cy="5.927" r=".282" fx="6.209" fy="5.927" gradientTransform="translate(0.56444317,1.6933333)" gradientUnits="userSpaceOnUse" xlink:href="#linearGradient3816"/><radialGradient id="radialGradient3090" cx="6.209" cy="5.927" r=".282" fx="6.209" fy="5.927" gradientUnits="userSpaceOnUse" xlink:href="#linearGradient3816"/><radialGradient id="radialGradient3098" cx="6.773" cy="6.773" r="3.669" fx="6.773" fy="6.773" gradientUnits="userSpaceOnUse" xlink:href="#linearGradient3830"/><radialGradient id="radialGradient3102" cx="6.773" cy="6.773" r="3.669" fx="6.773" fy="6.773" gradientUnits="userSpaceOnUse" xlink:href="#linearGradient3830"/><linearGradient id="linearGradient3108" x2="0" y1="279.096" y2="268.33" gradientTransform="matrix(1.1052811,0,0,1.1052811,-120.45399,-295.77052)" gradientUnits="userSpaceOnUse" xlink:href="#linearGradient4460"/><radialGradient id="radialGradient3836-0" cx="6.773" cy="6.773" r="3.669" fx="6.773" fy="6.773" gradientUnits="userSpaceOnUse" xlink:href="#linearGradient3830-1"/><radialGradient id="radialGradient3826-6" cx="6.209" cy="5.927" r=".282" fx="6.209" fy="5.927" gradientTransform="translate(0.56444446,1.6933334)" gradientUnits="userSpaceOnUse" xlink:href="#linearGradient3816-6"/><radialGradient id="radialGradient3822-0" cx="6.209" cy="5.927" r=".282" fx="6.209" fy="5.927" gradientUnits="userSpaceOnUse" xlink:href="#linearGradient3816-6"/><linearGradient id="linearGradient3010-0" x2="0" y1="279.096" y2="268.33" gradientTransform="matrix(1.1052811,0,0,1.1052811,-134.28288,-295.77052)" gradientUnits="userSpaceOnUse" xlink:href="#linearGradient4460-9"/><linearGradient id="linearGradient3842-9" x2="0" y1="279.096" y2="268.33" gradientTransform="matrix(1.10525,0,0,1.10525,-134.27874,-295.76183)" gradientUnits="userSpaceOnUse" xlink:href="#linearGradient4460-9"/><linearGradient id="linearGradient4460-9"><stop id="stop7-9" offset="0" stop-color="#e7e9e2" stop-opacity="1"/><stop id="stop9-7" offset="1" stop-color="#ececec" stop-opacity="1"/></linearGradient><linearGradient id="linearGradient3816-6"><stop id="stop3818-5" offset="0" stop-color="#fff" stop-opacity="1"/><stop id="stop3820-9" offset="1" stop-color="#fff" stop-opacity="0"/></linearGradient><linearGradient id="linearGradient3830-1"><stop id="stop3832-6" offset="0" stop-color="#000" stop-opacity="1"/><stop id="stop3834-2" offset="1" stop-color="#000" stop-opacity="0"/></linearGradient><radialGradient id="radialGradient3944" cx="6.773" cy="6.773" r="3.669" fx="6.773" fy="6.773" gradientUnits="userSpaceOnUse" xlink:href="#linearGradient3830-1"/><radialGradient id="radialGradient3947" cx="6.209" cy="5.927" r=".282" fx="6.209" fy="5.927" gradientTransform="translate(15.4384,1.1575232)" gradientUnits="userSpaceOnUse" xlink:href="#linearGradient3816-6"/><radialGradient id="radialGradient3950" cx="6.209" cy="5.927" r=".282" fx="6.209" fy="5.927" gradientTransform="translate(14.873956,-0.53581016)" gradientUnits="userSpaceOnUse" xlink:href="#linearGradient3816-6"/><radialGradient id="radialGradient3958" cx="6.773" cy="6.773" r="3.669" fx="6.773" fy="6.773" gradientTransform="translate(14.873956,-0.53581016)" gradientUnits="userSpaceOnUse" xlink:href="#linearGradient3830-1"/><radialGradient id="radialGradient3962" cx="6.773" cy="6.773" r="3.669" fx="6.773" fy="6.773" gradientTransform="translate(14.873956,-0.53581016)" gradientUnits="userSpaceOnUse" xlink:href="#linearGradient3830-1"/><linearGradient id="linearGradient3968" x2="0" y1="279.096" y2="268.33" gradientTransform="matrix(1.1052811,0,0,1.1052811,-119.40892,-296.30633)" gradientUnits="userSpaceOnUse" xlink:href="#linearGradient4460-9"/><linearGradient id="linearGradient4298" x1="47" x2="44" y1="24" y2="24" gradientUnits="userSpaceOnUse" xlink:href="#linearGradient4292"/><linearGradient id="linearGradient4290" x1="1" x2="4" y1="24" y2="24" gradientUnits="userSpaceOnUse" xlink:href="#linearGradient4284"/><linearGradient id="linearGradient4101" x1="-13" x2="-13" y1="43" y2="20" gradientUnits="userSpaceOnUse" xlink:href="#linearGradient4103"/><linearGradient id="linearGradient4005" x1="44" x2="47" y1="24" y2="24" gradientTransform="translate(117.99188,1004.8064)" gradientUnits="userSpaceOnUse" xlink:href="#linearGradient3948"/><linearGradient id="linearGradient4002" x1="1" x2="4" y1="24" y2="24" gradientTransform="translate(117.99188,1004.8064)" gradientUnits="userSpaceOnUse" xlink:href="#linearGradient3956"/><linearGradient id="linearGradient3995" x1="-4" x2="-4" y1="35" y2="12" gradientUnits="userSpaceOnUse" xlink:href="#linearGradient3893"/><linearGradient id="linearGradient3993" x1="-4" x2="-4" y1="35" y2="12" gradientUnits="userSpaceOnUse" xlink:href="#linearGradient3873"/><linearGradient id="linearGradient3991" x1="-4" x2="-4" y1="35" y2="12" gradientUnits="userSpaceOnUse" xlink:href="#linearGradient3863"/><linearGradient id="linearGradient3989" x1="-4" x2="-4" y1="35" y2="12" gradientUnits="userSpaceOnUse" xlink:href="#linearGradient3826"/><linearGradient id="linearGradient3987" x1="-4" x2="-4" y1="35" y2="12" gradientUnits="userSpaceOnUse" xlink:href="#linearGradient3826"/><linearGradient id="linearGradient3956"><stop id="stop3958" offset="0" stop-color="#fff" stop-opacity=".686"/><stop id="stop3960" offset="1" stop-color="#fff" stop-opacity=".059"/></linearGradient><linearGradient id="linearGradient3948"><stop id="stop3950" offset="0" stop-color="#fff" stop-opacity=".059"/><stop id="stop3952" offset="1" stop-color="#fff" stop-opacity=".686"/></linearGradient><linearGradient id="linearGradient3924"><stop id="stop3926" offset="0" stop-color="#477eae" stop-opacity="1"/><stop id="stop3928" offset="1" stop-color="#5064aa" stop-opacity="1"/></linearGradient><linearGradient id="linearGradient3893"><stop id="stop3895" offset="0" stop-color="#2e4d72" stop-opacity="1"/><stop id="stop3897" offset="1" stop-color="#353563" stop-opacity="1"/></linearGradient><linearGradient id="linearGradient3873"><stop id="stop3875" offset="0" stop-color="#111b46" stop-opacity="1"/><stop id="stop3877" offset="1" stop-color="#1b447f" stop-opacity="1"/></linearGradient><linearGradient id="linearGradient3863"><stop id="stop3865" offset="0" stop-color="#949498" stop-opacity="1"/><stop id="stop3867" offset="1" stop-color="#d7d7d8" stop-opacity="1"/></linearGradient><linearGradient id="linearGradient3826"><stop id="stop3828" offset="0" stop-color="#949494" stop-opacity="1"/><stop id="stop3830" offset="1" stop-color="#fdfdfd" stop-opacity="1"/></linearGradient><linearGradient id="linearGradient3930" x1="36" x2="41" y1="1014.362" y2="1017.362" gradientTransform="matrix(1.134951,0,0,1.2361642,-4.8508081,-239.56373)" gradientUnits="userSpaceOnUse" xlink:href="#linearGradient3924"/><linearGradient id="linearGradient4065"><stop id="stop4067" offset="0" stop-color="#989993" stop-opacity="1"/><stop id="stop4069" offset="1" stop-color="#f6fbe6" stop-opacity="1"/></linearGradient><linearGradient id="linearGradient4077"><stop id="stop4079" offset="0" stop-color="#a1a399" stop-opacity="1"/><stop id="stop4081" offset="1" stop-color="#f2f6e7" stop-opacity="1"/></linearGradient><linearGradient id="linearGradient4091"><stop id="stop4093" offset="0" stop-color="#bfc3af" stop-opacity="1"/><stop id="stop4095" offset="1" stop-color="#e4ead3" stop-opacity="1"/></linearGradient><linearGradient id="linearGradient4103"><stop id="stop4105" offset="0" stop-color="#4b3052" stop-opacity="1"/><stop id="stop4107" offset="1" stop-color="#72517b" stop-opacity="1"/></linearGradient><linearGradient id="linearGradient4123"><stop id="stop4125" offset="0" stop-color="#5e4b8e" stop-opacity="1"/><stop id="stop4127" offset="1" stop-color="#4b3052" stop-opacity="1"/></linearGradient><linearGradient id="linearGradient4284"><stop id="stop4286" offset="0" stop-color="#63570f" stop-opacity=".686"/><stop id="stop4288" offset="1" stop-color="#63570f" stop-opacity=".059"/></linearGradient><linearGradient id="linearGradient4292"><stop id="stop4294" offset="0" stop-color="#63570f" stop-opacity=".686"/><stop id="stop4296" offset="1" stop-color="#63570f" stop-opacity=".059"/></linearGradient><linearGradient id="linearGradient3250" x1="47" x2="44" y1="24" y2="24" gradientTransform="matrix(0.28222223,0,0,0.28222223,14.429657,0.65994981)" gradientUnits="userSpaceOnUse" xlink:href="#linearGradient4292"/><linearGradient id="linearGradient3253" x1="1" x2="4" y1="24" y2="24" gradientTransform="matrix(0.28222223,0,0,0.28222223,14.429657,0.65994981)" gradientUnits="userSpaceOnUse" xlink:href="#linearGradient4284"/><linearGradient id="linearGradient4039" x1=".564" x2="1.693" y1="6.773" y2="6.773" gradientTransform="scale(3.543307,3.543307)" gradientUnits="userSpaceOnUse" xlink:href="#linearGradient4284"/><linearGradient id="linearGradient4046" x1=".564" x2="1.693" y1="6.773" y2="6.773" gradientTransform="matrix(-1,0,0,1,13.546665,0)" gradientUnits="userSpaceOnUse" xlink:href="#linearGradient4284"/><linearGradient id="linearGradient3938"><stop id="stop3940" offset="0" stop-color="#eb2d2d" stop-opacity="1"/><stop id="stop3942" offset="1" stop-color="#df2525" stop-opacity="1"/></linearGradient><linearGradient id="XMLID_74_-8-1" x1="64.478" x2="78.466" y1="56.301" y2="48.085" gradientUnits="userSpaceOnUse"><stop id="stop155-3-8" offset="0" stop-color="#fff" stop-opacity="1"/><stop id="stop157-94-6" offset="1" stop-color="#e6e6e6" stop-opacity="1"/></linearGradient><radialGradient id="radialGradient3867" cx="558.354" cy="385.484" r="191.619" fx="558.354" fy="385.484" gradientTransform="matrix(1,0,0,1.0499906,0,-19.270593)" gradientUnits="userSpaceOnUse" xlink:href="#XMLID_74_-8-1"/><linearGradient id="SVGID_2_" x1="200.051" x2="200.051" y1="185.074" y2="217.459" gradientUnits="userSpaceOnUse"><stop id="stop13" offset="0" stop-color="#61B74A"/><stop id="stop15" offset="1" stop-color="#449934"/></linearGradient><linearGradient id="linearGradient3021" x1="200.051" x2="200.051" y1="185.074" y2="217.459" gradientTransform="matrix(13.577628,0,0,13.577628,-2026.1619,-2566.7096)" gradientUnits="userSpaceOnUse" xlink:href="#SVGID_2_"/><linearGradient id="linearGradient2460" x1="19.245" x2="19.36" y1="21.031" y2="44.984" gradientUnits="userSpaceOnUse"><stop id="stop3602" offset="0" stop-color="#fafafa" stop-opacity="1"/><stop id="stop3604" offset="1" stop-color="#f0f0f0" stop-opacity="1"/></linearGradient><linearGradient id="linearGradient3096" x1="19.245" x2="19.36" y1="21.031" y2="44.984" gradientTransform="matrix(11.076923,0,0,11.076923,-9.8523013,-20.578025)" gradientUnits="userSpaceOnUse" xlink:href="#linearGradient2460"/><linearGradient id="linearGradient4114-2" x1="1012.513" x2="1006.808" y1="484.417" y2="20.626" gradientTransform="matrix(1.0317796,0,0,1.0317796,-830.86406,592.67791)" gradientUnits="userSpaceOnUse" xlink:href="#ButtonShadow-0-1-1-5"/><linearGradient id="ButtonShadow-0-1-1-5" x1="45.448" x2="45.448" y1="92.54" y2="7.017" gradientTransform="matrix(1.0058652,0,0,0.994169,100,0)" gradientUnits="userSpaceOnUse"><stop id="stop3750-8-9-3-6" offset="0" stop-color="#000" stop-opacity="1"/><stop id="stop3752-5-6-4-2" offset="1" stop-color="#000" stop-opacity=".588"/></linearGradient><linearGradient id="linearGradient4112-2" x1="1012.513" x2="1006.808" y1="484.417" y2="20.626" gradientTransform="matrix(1.0402541,0,0,1.0402541,-837.95116,592.51825)" gradientUnits="userSpaceOnUse" xlink:href="#ButtonShadow-0-1-1-5"/><linearGradient id="linearGradient5292" x1="45.448" x2="45.448" y1="92.54" y2="7.017" gradientTransform="matrix(1.0058652,0,0,0.994169,100,0)" gradientUnits="userSpaceOnUse"><stop id="stop5294" offset="0" stop-color="#000" stop-opacity="1"/><stop id="stop5296" offset="1" stop-color="#000" stop-opacity=".588"/></linearGradient><linearGradient id="linearGradient4110-6" x1="1012.513" x2="1006.808" y1="484.417" y2="20.626" gradientTransform="matrix(1.023305,0,0,1.023305,-823.77704,592.83757)" gradientUnits="userSpaceOnUse" xlink:href="#ButtonShadow-0-1-1-5"/><linearGradient id="linearGradient5299" x1="45.448" x2="45.448" y1="92.54" y2="7.017" gradientTransform="matrix(1.0058652,0,0,0.994169,100,0)" gradientUnits="userSpaceOnUse"><stop id="stop5301" offset="0" stop-color="#000" stop-opacity="1"/><stop id="stop5303" offset="1" stop-color="#000" stop-opacity=".588"/></linearGradient><linearGradient id="linearGradient4116-6" x1="1012.513" x2="1006.808" y1="484.417" y2="20.626" gradientTransform="matrix(1.0148305,0,0,1.0148305,-816.68996,592.99723)" gradientUnits="userSpaceOnUse" xlink:href="#ButtonShadow-0-1-1-5"/><linearGradient id="linearGradient5306" x1="45.448" x2="45.448" y1="92.54" y2="7.017" gradientTransform="matrix(1.0058652,0,0,0.994169,100,0)" gradientUnits="userSpaceOnUse"><stop id="stop5308" offset="0" stop-color="#000" stop-opacity="1"/><stop id="stop5310" offset="1" stop-color="#000" stop-opacity=".588"/></linearGradient><linearGradient id="linearGradient3372" x1="1012.513" x2="1006.808" y1="484.417" y2="20.626" gradientTransform="matrix(1.0074153,0,0,1.0074153,-810.48879,593.1369)" gradientUnits="userSpaceOnUse" xlink:href="#ButtonShadow-0-1-1-5"/><linearGradient id="linearGradient5313" x1="45.448" x2="45.448" y1="92.54" y2="7.017" gradientTransform="matrix(1.0058652,0,0,0.994169,100,0)" gradientUnits="userSpaceOnUse"><stop id="stop5315" offset="0" stop-color="#000" stop-opacity="1"/><stop id="stop5317" offset="1" stop-color="#000" stop-opacity=".588"/></linearGradient><linearGradient id="linearGradient4082" x1="1016.104" x2="1011.953" y1="476.26" y2="251.661" gradientTransform="translate(-146.22032,369.08845)" gradientUnits="userSpaceOnUse" xlink:href="#linearGradient4487"/><linearGradient id="linearGradient4487"><stop id="stop4489" offset="0" stop-color="#000" stop-opacity="1"/><stop id="stop4491" offset="1" stop-color="#000" stop-opacity="0"/></linearGradient><linearGradient id="linearGradient3737"><stop id="stop3739" offset="0" stop-color="#fff" stop-opacity="1"/><stop id="stop3741" offset="1" stop-color="#fff" stop-opacity="0"/></linearGradient><linearGradient id="linearGradient4046-4"><stop id="stop4048" offset="0" stop-color="#000" stop-opacity="1"/><stop id="stop4050" offset="1" stop-color="#fff" stop-opacity=".2"/></linearGradient><linearGradient id="linearGradient5342" x1="1012.513" x2="1006.808" y1="484.417" y2="20.626" gradientTransform="matrix(1.0074153,0,0,1.0074153,-810.48879,593.1369)" gradientUnits="userSpaceOnUse" xlink:href="#ButtonShadow-0-1-1-5"/><linearGradient id="linearGradient4114-2-6" x1="1012.513" x2="1006.808" y1="484.417" y2="20.626" gradientTransform="matrix(1.0317796,0,0,1.0317796,-830.86406,592.67791)" gradientUnits="userSpaceOnUse" xlink:href="#ButtonShadow-0-1-1-5-9"/><linearGradient id="ButtonShadow-0-1-1-5-9" x1="45.448" x2="45.448" y1="92.54" y2="7.017" gradientTransform="matrix(1.0058652,0,0,0.994169,100,0)" gradientUnits="userSpaceOnUse"><stop id="stop3750-8-9-3-6-4" offset="0" stop-color="#000" stop-opacity="1"/><stop id="stop3752-5-6-4-2-9" offset="1" stop-color="#000" stop-opacity=".588"/></linearGradient><linearGradient id="linearGradient4112-2-6" x1="1012.513" x2="1006.808" y1="484.417" y2="20.626" gradientTransform="matrix(1.0402541,0,0,1.0402541,-837.95116,592.51825)" gradientUnits="userSpaceOnUse" xlink:href="#ButtonShadow-0-1-1-5-9"/><linearGradient id="linearGradient5292-5" x1="45.448" x2="45.448" y1="92.54" y2="7.017" gradientTransform="matrix(1.0058652,0,0,0.994169,100,0)" gradientUnits="userSpaceOnUse"><stop id="stop5294-8" offset="0" stop-color="#000" stop-opacity="1"/><stop id="stop5296-4" offset="1" stop-color="#000" stop-opacity=".588"/></linearGradient><linearGradient id="linearGradient4110-6-7" x1="1012.513" x2="1006.808" y1="484.417" y2="20.626" gradientTransform="matrix(1.023305,0,0,1.023305,-823.77704,592.83757)" gradientUnits="userSpaceOnUse" xlink:href="#ButtonShadow-0-1-1-5-9"/><linearGradient id="linearGradient5299-2" x1="45.448" x2="45.448" y1="92.54" y2="7.017" gradientTransform="matrix(1.0058652,0,0,0.994169,100,0)" gradientUnits="userSpaceOnUse"><stop id="stop5301-9" offset="0" stop-color="#000" stop-opacity="1"/><stop id="stop5303-1" offset="1" stop-color="#000" stop-opacity=".588"/></linearGradient><linearGradient id="linearGradient4116-6-3" x1="1012.513" x2="1006.808" y1="484.417" y2="20.626" gradientTransform="matrix(1.0148305,0,0,1.0148305,-816.68996,592.99723)" gradientUnits="userSpaceOnUse" xlink:href="#ButtonShadow-0-1-1-5-9"/><linearGradient id="linearGradient5306-9" x1="45.448" x2="45.448" y1="92.54" y2="7.017" gradientTransform="matrix(1.0058652,0,0,0.994169,100,0)" gradientUnits="userSpaceOnUse"><stop id="stop5308-0" offset="0" stop-color="#000" stop-opacity="1"/><stop id="stop5310-6" offset="1" stop-color="#000" stop-opacity=".588"/></linearGradient><linearGradient id="linearGradient3372-9" x1="1012.513" x2="1006.808" y1="484.417" y2="20.626" gradientTransform="matrix(1.0074153,0,0,1.0074153,-810.48879,593.1369)" gradientUnits="userSpaceOnUse" xlink:href="#ButtonShadow-0-1-1-5-9"/><linearGradient id="linearGradient5313-8" x1="45.448" x2="45.448" y1="92.54" y2="7.017" gradientTransform="matrix(1.0058652,0,0,0.994169,100,0)" gradientUnits="userSpaceOnUse"><stop id="stop5315-8" offset="0" stop-color="#000" stop-opacity="1"/><stop id="stop5317-1" offset="1" stop-color="#000" stop-opacity=".588"/></linearGradient><linearGradient id="linearGradient4082-7" x1="1016.104" x2="1011.953" y1="476.26" y2="251.661" gradientTransform="translate(-146.22032,369.08845)" gradientUnits="userSpaceOnUse" xlink:href="#linearGradient4487-8"/><linearGradient id="linearGradient4487-8"><stop id="stop4489-0" offset="0" stop-color="#000" stop-opacity="1"/><stop id="stop4491-4" offset="1" stop-color="#000" stop-opacity="0"/></linearGradient><linearGradient id="linearGradient4084-7" x1="993.439" x2="988.786" y1="51.512" y2="363.738" gradientTransform="translate(778.59979,-360.55963)" gradientUnits="userSpaceOnUse" xlink:href="#linearGradient3737-8"/><linearGradient id="linearGradient3737-8"><stop id="stop3739-4" offset="0" stop-color="#fff" stop-opacity="1"/><stop id="stop3741-7" offset="1" stop-color="#fff" stop-opacity="0"/></linearGradient><linearGradient id="linearGradient4086-1" x1="1764.649" x2="1763.69" y1="155.597" y2="-55.941" gradientUnits="userSpaceOnUse" xlink:href="#linearGradient4046-2"/><linearGradient id="linearGradient4046-2"><stop id="stop4048-2" offset="0" stop-color="#000" stop-opacity="1"/><stop id="stop4050-7" offset="1" stop-color="#fff" stop-opacity=".2"/></linearGradient><linearGradient id="linearGradient5342-3" x1="1012.513" x2="1006.808" y1="484.417" y2="20.626" gradientTransform="matrix(1.0074153,0,0,1.0074153,-810.48879,593.1369)" gradientUnits="userSpaceOnUse" xlink:href="#ButtonShadow-0-1-1-5-9"/><linearGradient id="linearGradient4487-1"><stop id="stop4489-6" offset="0" stop-color="#000" stop-opacity="1"/><stop id="stop4491-0" offset="1" stop-color="#000" stop-opacity="0"/></linearGradient><linearGradient id="linearGradient4084-8" x1="993.439" x2="988.786" y1="51.512" y2="363.738" gradientTransform="translate(778.59979,-360.55963)" gradientUnits="userSpaceOnUse" xlink:href="#linearGradient3737-9"/><linearGradient id="linearGradient3737-9"><stop id="stop3739-7" offset="0" stop-color="#fff" stop-opacity="1"/><stop id="stop3741-4" offset="1" stop-color="#fff" stop-opacity="0"/></linearGradient><linearGradient id="linearGradient4086-12" x1="1764.649" x2="1763.69" y1="155.597" y2="-55.941" gradientUnits="userSpaceOnUse" xlink:href="#linearGradient4046-3"/><linearGradient id="linearGradient4046-3"><stop id="stop4048-7" offset="0" stop-color="#000" stop-opacity="1"/><stop id="stop4050-73" offset="1" stop-color="#fff" stop-opacity=".2"/></linearGradient><linearGradient id="linearGradient2760"><stop id="stop2770" offset="0" stop-color="#fff" stop-opacity="1"/><stop id="stop2764" offset="1" stop-color="#a9a9a9" stop-opacity="1"/></linearGradient><linearGradient id="linearGradient4846"><stop id="stop4848" offset="0" stop-color="#1a1a1a" stop-opacity="1"/><stop id="stop4856" offset="1" stop-color="#1e1e1e" stop-opacity="1"/></linearGradient><linearGradient id="linearGradient4922"><stop id="stop4924" offset="0" stop-color="#1a1a1a" stop-opacity="1"/><stop id="stop4926" offset=".156" stop-color="#636363" stop-opacity="1"/><stop id="stop4928" offset=".332" stop-color="#b4b4b4" stop-opacity="1"/><stop id="stop4930" offset=".536" stop-color="#636363" stop-opacity="1"/><stop id="stop4932" offset="1" stop-color="#000" stop-opacity="1"/></linearGradient><linearGradient id="linearGradient4884" x1="201.331" x2="166.775" y1="152.12" y2="110.86" gradientTransform="matrix(1.2757694,0,0,1.2757694,-135.89444,2.4500392)" gradientUnits="userSpaceOnUse" spreadMethod="reflect" xlink:href="#linearGradient4888"/><linearGradient id="linearGradient4888"><stop id="stop4892" offset="0" stop-color="#c0821c" stop-opacity="1"/><stop id="stop4894" offset="1" stop-color="#e4ae48" stop-opacity="1"/></linearGradient><linearGradient id="linearGradient4882" x1="13.021" x2="258.222" y1="160.826" y2="158.472" gradientUnits="userSpaceOnUse" xlink:href="#linearGradient4898"/><linearGradient id="linearGradient4898"><stop id="stop4900" offset="0" stop-color="#a86f20" stop-opacity="1"/><stop id="stop4902" offset="1" stop-color="#c68d31" stop-opacity="1"/></linearGradient><linearGradient id="ButtonShadow" x1="45.448" x2="45.448" y1="92.54" y2="7.017" gradientTransform="scale(1.0058652,0.994169)" gradientUnits="userSpaceOnUse"><stop id="stop3750" offset="0" stop-color="#000" stop-opacity="1"/><stop id="stop3752" offset="1" stop-color="#000" stop-opacity=".588"/></linearGradient><filter id="filter3174" color-interpolation-filters="sRGB"><feGaussianBlur id="feGaussianBlur3176" stdDeviation="1.71"/></filter><linearGradient id="linearGradient10386"><stop id="stop10388" offset="0" stop-color="#fff" stop-opacity="1"/><stop id="stop10390" offset="1" stop-color="#fff" stop-opacity="0"/></linearGradient><linearGradient id="linearGradient8264" x1="212.864" x2="214.266" y1="11.425" y2="168.283" gradientTransform="matrix(1.8464564,0,0,1.8464564,-123.73343,86.826257)" gradientUnits="userSpaceOnUse" spreadMethod="reflect" xlink:href="#linearGradient2760"/><linearGradient id="acyl_gradient" x1="0" x2="1" y1="0" y2="1" xlink:href="#linearGradient4321"/><linearGradient id="linearGradient4321"><stop id="stop1" offset="0" stop-color="#ee0c0c" stop-opacity="1"/><stop id="stop2" offset="1" stop-color="#7a0404" stop-opacity="1"/></linearGradient><radialGradient id="radialGradient3928" cx="94.71" cy="98.693" r="150" fx="94.71" fy="98.693" gradientTransform="matrix(2.4249551,-0.00787504,0.00770263,2.3718665,-135.71828,-134.64744)" gradientUnits="userSpaceOnUse" xlink:href="#linearGradient4321"/><radialGradient id="radialGradient3932" cx="94.71" cy="98.693" r="150" fx="94.71" fy="98.693" gradientTransform="matrix(2.4249551,-0.00787504,0.00770263,2.3718665,-135.71828,-134.64744)" gradientUnits="userSpaceOnUse" xlink:href="#linearGradient4321"/><radialGradient id="radialGradient3936" cx="110.737" cy="112.575" r="150" fx="110.737" fy="112.575" gradientTransform="matrix(1.6533901,0.0060994,-0.00539655,1.4623231,-50.506611,-35.439162)" gradientUnits="userSpaceOnUse" xlink:href="#linearGradient3938"/><radialGradient id="radialGradient3140" cx="110.737" cy="112.575" r="150" fx="110.737" fy="112.575" gradientTransform="matrix(1.6533901,0.0060994,-0.00539655,1.4623231,-50.506611,-35.439162)" gradientUnits="userSpaceOnUse" xlink:href="#linearGradient3938"/><linearGradient id="linearGradient3895-9-0-3-2-4-0-6"><stop id="stop4884" offset="0" stop-color="#e0d3b1"/><stop id="stop4886" offset="1" stop-color="#906e17"/></linearGradient><radialGradient id="radialGradient4432-4" cx="148.004" cy="160" r="128" gradientTransform="matrix(0.97656,0,0,0.97656,-16.5349,-236.25)" gradientUnits="userSpaceOnUse" xlink:href="#linearGradient3895-9-0-3-2-4-0-6"/><linearGradient id="linearGradient3784-0-9-8"><stop id="stop4495" offset="0" stop-color="#b4ea69"/><stop id="stop4497" offset="1" stop-color="#508506"/></linearGradient><radialGradient id="radialGradient4432-6" cx="148.004" cy="160" r="128" gradientTransform="matrix(0.97656,0,0,0.97656,-16.5349,-236.25)" gradientUnits="userSpaceOnUse" xlink:href="#linearGradient3784-0-9-8"/><radialGradient id="radialGradient4225" cx="148.004" cy="160" r="128" gradientTransform="matrix(0.05291653,0,0,0.05291653,13.05258,-1.6933338)" gradientUnits="userSpaceOnUse" xlink:href="#linearGradient3895-9-0-3-2-4-0-8"/><radialGradient id="radialGradient4222" cx="148.004" cy="160" r="128" gradientTransform="matrix(0.97656,0,0,0.97656,-16.5349,-236.25)" gradientUnits="userSpaceOnUse" xlink:href="#linearGradient3895-9-0-3-2-4-0-8"/><linearGradient id="linearGradient3895-9-0-3-2-4-0-8"><stop id="stop4183" offset="0" stop-color="#c9dbf6"/><stop id="stop4185" offset="1" stop-color="#094ab1"/></linearGradient><radialGradient id="radialGradient4432-9" cx="148.004" cy="160" r="128" gradientTransform="matrix(0.97656,0,0,0.97656,-16.5349,-236.25)" gradientUnits="userSpaceOnUse" xlink:href="#linearGradient3895-9-0-3-2-4-0-8"/><linearGradient id="linearGradient3895-9-0-3-2-4-0"><stop id="stop3793" offset="0" stop-color="#c3dee0"/><stop id="stop3795" offset="1" stop-color="#1e787f"/></linearGradient><radialGradient id="radialGradient4432" cx="148.004" cy="160" r="128" gradientTransform="matrix(0.97656,0,0,0.97656,-16.5349,-236.25)" gradientUnits="userSpaceOnUse" xlink:href="#linearGradient3895-9-0-3-2-4-0"/><linearGradient id="linearGradient4104" x2="0" y1="279.096" y2="268.33" gradientTransform="matrix(1.10525,0,0,1.10525,-134.27874,-295.76183)" gradientUnits="userSpaceOnUse" xlink:href="#linearGradient4460-1"/><linearGradient id="outerBackgroundGradient"><stop id="stop3864-8-6" offset="0" stop-color="#b94642" stop-opacity="1"/><stop id="stop3866-9-1" offset="1" stop-color="#c66a58" stop-opacity="1"/></linearGradient><clipPath id="clipPath4891" clipPathUnits="userSpaceOnUse"><rect id="rect4893" width="42" height="42" x="307" y="223" fill="url(#linearGradient4895)" fill-opacity="1" fill-rule="nonzero" stroke="none" stroke-width="0" color="#bebebe" display="inline" enable-background="accumulate" overflow="visible" ry="9" transform="matrix(0,1,-1,0,0,0)" visibility="visible" style="marker:none"/></clipPath><linearGradient id="linearGradient4895" x1="144" x2="144" y1="280" y2="40" gradientTransform="matrix(0.175,0,0,0.175,302.79999,215.99997)" gradientUnits="userSpaceOnUse" xlink:href="#outerBackgroundGradient"/><clipPath id="clipPath4044" clipPathUnits="userSpaceOnUse"><rect id="rect4046" width="22" height="22" x="433" y="85" fill="url(#linearGradient4048)" fill-opacity="1" fill-rule="nonzero" stroke="none" stroke-width="0" color="#bebebe" display="inline" enable-background="accumulate" overflow="visible" ry="4" visibility="visible" style="marker:none"/></clipPath><linearGradient id="linearGradient4048" x1="149.714" x2="149.714" y1="291.429" y2="40" gradientTransform="matrix(0.0875,0,0,0.0875,430.9,81.499996)" gradientUnits="userSpaceOnUse" xlink:href="#outerBackgroundGradient"/><clipPath id="clipPath4089" clipPathUnits="userSpaceOnUse"><rect id="rect4091" width="30" height="30" x="433" y="37" fill="url(#linearGradient4093)" fill-opacity="1" fill-rule="nonzero" stroke="none" stroke-width="0" color="#bebebe" display="inline" enable-background="accumulate" overflow="visible" ry="6" visibility="visible" style="marker:none"/></clipPath><linearGradient id="linearGradient4093" x1="149.714" x2="149.714" y1="291.429" y2="40" gradientTransform="matrix(0.11931818,0,0,0.11931818,430.13636,32.227267)" gradientUnits="userSpaceOnUse" xlink:href="#outerBackgroundGradient"/><clipPath id="clipPath3855" clipPathUnits="userSpaceOnUse"><rect id="rect3857" width="16" height="16" x="304" y="212" fill="url(#linearGradient3859)" fill-opacity="1" fill-rule="nonzero" stroke="none" stroke-width="0" color="#bebebe" display="inline" enable-background="accumulate" overflow="visible" ry="3" transform="matrix(0,1,-1,0,0,0)" visibility="visible" style="marker:none"/></clipPath><linearGradient id="linearGradient3859" x1="144" x2="144" y1="280" y2="40" gradientTransform="matrix(0.06666667,0,0,0.06666667,302.4,209.33333)" gradientUnits="userSpaceOnUse" xlink:href="#outerBackgroundGradient"/><clipPath id="clipPath3862" clipPathUnits="userSpaceOnUse"><rect id="rect3864" width="220" height="220" x="34" y="46" fill="url(#linearGradient3866)" fill-opacity="1" fill-rule="nonzero" stroke="none" stroke-width="0" color="#bebebe" display="inline" enable-background="accumulate" overflow="visible" ry="50" visibility="visible" style="marker:none"/></clipPath><linearGradient id="linearGradient3866" x1="144" x2="144" y1="280" y2="40" gradientTransform="translate(0,-4)" gradientUnits="userSpaceOnUse" xlink:href="#outerBackgroundGradient"/><clipPath id="clipPath4187" clipPathUnits="userSpaceOnUse"><rect id="rect4189" width="60" height="60" x="290" y="142" fill="url(#linearGradient4191)" fill-opacity="1" fill-rule="nonzero" stroke="none" stroke-width="0" color="#bebebe" display="inline" enable-background="accumulate" overflow="visible" ry="12.5" visibility="visible" style="marker:none"/></clipPath><linearGradient id="linearGradient4191" x1="352" x2="352" y1="204" y2="140" gradientUnits="userSpaceOnUse" xlink:href="#outerBackgroundGradient"/><clipPath id="clipPath4346" clipPathUnits="userSpaceOnUse"><rect id="rect4348" width="88" height="88" x="292" y="32" fill="url(#linearGradient4350)" fill-opacity="1" fill-rule="nonzero" stroke="none" stroke-width="0" color="#bebebe" display="inline" enable-background="accumulate" overflow="visible" ry="18" visibility="visible" style="marker:none"/></clipPath><linearGradient id="linearGradient4350" x1="384" x2="384" y1="124" y2="28" gradientUnits="userSpaceOnUse" xlink:href="#outerBackgroundGradient"/><clipPath id="clipPath3871" clipPathUnits="userSpaceOnUse"><rect id="rect3873" width="22" height="22" x="417" y="101" fill="url(#linearGradient3875)" fill-opacity="1" fill-rule="nonzero" stroke="none" stroke-width="0" color="#bebebe" display="inline" enable-background="accumulate" overflow="visible" ry="5" visibility="visible" style="marker:none"/></clipPath><linearGradient id="linearGradient3875" x1="286.857" x2="286.857" y1="302.857" y2="28.571" gradientTransform="matrix(0.0875,0,0,0.0875,414.9,97.5)" gradientUnits="userSpaceOnUse" xlink:href="#outerBackgroundGradient"/><clipPath id="clipPath3881" clipPathUnits="userSpaceOnUse"><rect id="rect3883" width="30" height="30" x="417" y="53" fill="url(#linearGradient3885)" fill-opacity="1" fill-rule="nonzero" stroke="none" stroke-width="0" color="#bebebe" display="inline" enable-background="accumulate" overflow="visible" ry="7" visibility="visible" style="marker:none"/></clipPath><linearGradient id="linearGradient3885" x1="283.81" x2="283.81" y1="299.81" y2="31.619" gradientTransform="matrix(0.11931818,0,0,0.11931818,414.13636,48.22727)" gradientUnits="userSpaceOnUse" xlink:href="#outerBackgroundGradient"/><linearGradient id="linearGradient3008" x2="0" y1="279.096" y2="268.33" gradientTransform="matrix(1.10525,0,0,1.10525,-134.27874,-295.76183)" gradientUnits="userSpaceOnUse" xlink:href="#linearGradient4460-1"/><linearGradient id="linearGradient4460-1"><stop id="stop7-7" offset="0" stop-color="#6ebe0a" stop-opacity="1"/><stop id="stop9-6" offset="1" stop-color="#82d11e" stop-opacity="1"/></linearGradient><linearGradient id="linearGradient3547" x2="0" y1="279.096" y2="268.33" gradientTransform="matrix(1.10525,0,0,1.10525,-134.27852,-295.76139)" gradientUnits="userSpaceOnUse" xlink:href="#linearGradient4460-1"/><radialGradient id="radialGradient3015" cx="148.004" cy="160" r="128" gradientTransform="matrix(0.1831,0,0,0.1831,-3.10079,-5.29638)" gradientUnits="userSpaceOnUse" xlink:href="#radial0"/><radialGradient id="radial0" cx="148.004" cy="160" r="128" gradientTransform="matrix(0.1831,0,0,0.1831,-3.10029,-5.29688)" gradientUnits="userSpaceOnUse"><stop id="stop7-9-6" offset="0" stop-color="#b9e5c7"/><stop id="stop9-8" offset="1" stop-color="#028e2e"/></radialGradient><radialGradient id="radialGradient3100" cx="148.004" cy="160" r="128" gradientTransform="matrix(0.05167489,0,0,0.05167489,-0.87511191,-1.4947612)" gradientUnits="userSpaceOnUse" xlink:href="#radial0"/></defs><path id="path11" fill="url(#radialGradient3100)" d="m 13.387776,3.2589209 0,7.0290971 c 0,2.892778 0,3.100035 -3.100035,3.100035 l -7.0279949,0 c -3.10113721,0 -3.10113721,-0.207257 -3.10113721,-3.100035 l 0,-7.0290971 c 0,-2.89277789 0,-3.10003479 3.10113721,-3.10003479 l 7.0279949,0 c 3.100035,0 3.100035,0.2072569 3.100035,3.10003479 z"/><path id="path15" fill="#fff" fill-opacity=".051" d="m 10.799269,13.388053 c 0.717682,-0.0033 1.235825,-0.02315 1.611753,-0.124575 l -1.193932,-2.046111 -1.2655902,2.170686 0.3362412,0 c 0.180799,0 0.350573,0 0.511528,0 z M 11.21709,11.217367 9.7707012,8.7368984 8.3232099,11.217367 z m 0,0 2.159662,0 c 0.0088,-0.274505 0.01102,-0.582083 0.01102,-0.930451 l 0,-0.3097833 -0.723194,-1.2402343 z M 12.664582,8.7368984 11.21709,6.2564297 9.7707012,8.7368984 z m 0,0 0.723194,0 0,-1.2402343 z m -2.8938808,0 L 8.3232099,6.2564297 6.876821,8.7368984 z m -2.8938802,0 -1.4474916,2.4804686 2.8938805,0 z m 0,0 L 5.4293294,6.2564297 3.9829405,8.7368984 z m -2.8938805,0 -1.4474913,2.4804686 2.8938802,0 z m 0,0 L 2.5354492,6.2564297 1.0890603,8.7368984 z m -2.8938802,0 -0.93045141,1.5941146 c 0,0.329627 0.003307,0.623976 0.0110242,0.886354 l 2.36581611,0 z m 0,0 -0.93045141,-1.5941145 0,1.5941145 z m 1.4463889,2.4804686 -1.2170833,2.086901 c 0.450894,0.08268 1.0748699,0.08379 1.9402778,0.08379 l 0.5434982,0 z m 0,-4.9609373 -1.4463889,-2.4804689 -0.93045141,1.5941147 0,0.8863542 z m 0,0 2.8938802,0 L 3.9829405,3.7759608 z M 3.9829405,3.7759608 2.5354492,1.2954921 1.0890603,3.7759608 z m 0,0 2.8938805,0 -1.4474916,-2.4804687 z m 1.4463889,-2.4804687 -0.663663,-1.13660599 -1.5070227,0 c -0.020946,0 -0.038585,0 -0.059531,0 L 2.5354493,1.2954921 z m 0,0 2.8938805,0 -0.6636633,-1.13660599 -1.5665538,0 z m 2.8938805,0 2.8938801,0 -0.663663,-1.13660599 c -0.0882,0 -0.171979,0 -0.265686,0 l -1.300868,0 z m 0,0 -1.4463889,2.4804687 2.8938802,0 z m 1.4474913,2.4804687 2.8938808,0 -1.447492,-2.4804687 z m 0,0 -1.4474913,2.4804689 2.8938801,0 z m 1.4463888,2.4804689 2.170686,0 0,-1.2402343 -0.723194,-1.2402346 z m 1.447492,-2.4804689 0.723194,0 0,-0.5170399 c 0,-0.2579689 -0.0022,-0.4938889 -0.0066,-0.71217 z M 8.3232099,6.2564297 6.876821,3.7759608 5.4293294,6.2564297 z m 2.8938801,-4.9609376 2.062648,0 C 13.123193,0.51717591 12.747264,0.27133411 11.859807,0.19416391 z m -8.6816408,0 L 1.8850153,0.17983231 C 0.85203766,0.23826131 0.43421639,0.46095191 0.26664695,1.2954921 z M 1.0890603,3.7759608 0.17514542,2.2083046 c -0.0121268,0.3031685 -0.0165365,0.6515363 -0.0165365,1.0506163 l 0,0.5170399 z m 4.3402691,7.4414062 -1.2655903,2.170686 2.532283,0 z m 2.8938805,0 -1.2655906,2.170686 2.5322833,0 z M 0.73187279,13.085987 0.2798764,12.310978 c 0.0826821,0.371519 0.22158847,0.615157 0.45199639,0.775009 z"/><path id="path3539" fill="#f9f9f9" fill-opacity="1" fill-rule="nonzero" stroke="none" d="M 9 13 C 9 13 8.995615 21.00433 9.3125 25.28125 C 9.953059 29.048143 12.610502 32.4375 16.65625 32.4375 C 20.267695 32.4375 23.318728 29.794077 24 26.40625 C 24.681413 29.793907 27.732305 32.4375 31.34375 32.4375 C 35.389498 32.4375 38.405662 29.09181 38.6875 25.28125 C 39.003846 21.00433 39 13 39 13 C 39 13 31.217943 14.929771 28.28125 17.3125 C 26.484971 18.733302 24.531673 20.699291 24 23.46875 C 23.468291 20.699291 21.515029 18.733302 19.71875 17.3125 C 16.78204 14.929771 9 13 9 13 z M 16 21 C 18.209139 21 20 22.790861 20 25 C 20 27.209139 18.209139 29 16 29 C 13.790861 29 12 27.209139 12 25 C 12 22.790861 13.790861 21 16 21 z M 32 21 C 34.209139 21 36 22.790861 36 25 C 36 27.209139 34.209139 29 32 29 C 29.790861 29 28 27.209139 28 25 C 28 22.790861 29.790861 21 32 21 z" transform="scale(0.28222223,0.28222223)"/><path id="path3966" fill="#f9f9f9" fill-opacity="1" stroke="none" d="M 6.7735557,6.7737779 C 6.7907669,7.5037653 6.0577346,8.151933 5.3624446,8.184889 L 6.7735557,8.8904446 8.1846668,8.184889 C 7.4069368,8.134469 6.7907669,7.5037653 6.7735557,6.7737779 z"/><path id="path3550" fill="#f9f9f9" fill-opacity="1" stroke="none" d="M 5.6446668,8.4671113 6.7735557,9.5960002 7.9024446,8.4671113 6.7735557,9.0315557 z"/><path id="path4353" fill="#f9f9f9" fill-opacity="1" fill-rule="nonzero" stroke="none" stroke-width="1" d="m 195.84374,209.4565 a 48.029182,50.356007 0 1 1 -96.058362,0 48.029182,50.356007 0 1 1 96.058362,0 z" color="#000" display="inline" enable-background="accumulate" overflow="visible" transform="matrix(0.01175211,0,0,0.01120908,2.7786447,4.7081854)" visibility="visible" style="marker:none"/><path id="path4369" fill="#f9f9f9" fill-opacity="1" fill-rule="nonzero" stroke="none" stroke-width="1" d="m 195.84374,209.4565 a 48.029182,50.356007 0 1 1 -96.058362,0 48.029182,50.356007 0 1 1 96.058362,0 z" color="#000" display="inline" enable-background="accumulate" overflow="visible" transform="matrix(0.01175211,0,0,0.01120908,7.2942003,4.7081854)" visibility="visible" style="marker:none"/><path id="path4320" fill="#f9f9f9" fill-opacity="1" stroke="none" d="M 15 41 C 13.343146 41 12 42.343146 12 44 C 12 44.772386 12.301756 45.468256 12.78125 46 L 17.21875 46 C 17.698244 45.468256 18 44.772386 18 44 C 18 42.343146 16.656854 41 15 41 z" transform="scale(0.28222223,0.28222223)"/><path id="path4322" fill="#f9f9f9" fill-opacity="1" stroke="none" d="M 19.5 42 C 18.119288 42 17 43.119288 17 44.5 C 17 45.059188 17.189806 45.58356 17.5 46 L 21.5 46 C 21.810194 45.58356 22 45.059188 22 44.5 C 22 43.119288 20.880712 42 19.5 42 z" transform="scale(0.28222223,0.28222223)"/><path id="path4348" fill="#f9f9f9" fill-opacity="1" stroke="none" d="M 10.5 42 C 9.1192881 42 8 43.119288 8 44.5 C 8 45.059188 8.1898056 45.58356 8.5 46 L 12.5 46 C 12.810194 45.58356 13 45.059188 13 44.5 C 13 43.119288 11.880712 42 10.5 42 z" transform="scale(0.28222223,0.28222223)"/><path id="path4350" fill="#f9f9f9" fill-opacity="1" stroke="none" d="M 33 41 C 31.343146 41 30 42.343146 30 44 C 30 44.772386 30.301756 45.468256 30.78125 46 L 35.21875 46 C 35.698244 45.468256 36 44.772386 36 44 C 36 42.343146 34.656854 41 33 41 z" transform="scale(0.28222223,0.28222223)"/><path id="path4352" fill="#f9f9f9" fill-opacity="1" stroke="none" d="M 37.5 42 C 36.119288 42 35 43.119288 35 44.5 C 35 45.059188 35.189806 45.58356 35.5 46 L 39.5 46 C 39.810194 45.58356 40 45.059188 40 44.5 C 40 43.119288 38.880712 42 37.5 42 z" transform="scale(0.28222223,0.28222223)"/><path id="path4354" fill="#f9f9f9" fill-opacity="1" stroke="none" d="M 28.5 42 C 27.119288 42 26 43.119288 26 44.5 C 26 45.059188 26.189806 45.58356 26.5 46 L 30.5 46 C 30.810194 45.58356 31 45.059188 31 44.5 C 31 43.119288 29.880712 42 28.5 42 z" transform="scale(0.28222223,0.28222223)"/><rect id="rect4374" width="2.258" height=".564" x="3.104" y="12.418" fill="#f9f9f9" fill-opacity="1" stroke="none"/><rect id="rect4376" width="2.258" height=".564" x="8.184" y="12.418" fill="#f9f9f9" fill-opacity="1" stroke="none"/></svg>