<svg xmlns="http://www.w3.org/2000/svg" xmlns:svg="http://www.w3.org/2000/svg" xmlns:xlink="http://www.w3.org/1999/xlink" id="svg2" width="48" height="48" enable-background="new" version="1.1" viewBox="0 0 13.547 13.547"><metadata id="metadata96"/><defs id="defs4"><linearGradient id="0"><stop id="stop7" stop-color="#efefef"/><stop id="stop9" offset="1" stop-color="#fefefe"/></linearGradient><linearGradient id="1" x2="0" y1="299.81" y2="31.619" gradientTransform="matrix(0.11931818,0,0,0.11931818,414.13636,48.22727)" gradientUnits="userSpaceOnUse" xlink:href="#A"/><clipPath id="clipPath12"><rect id="rect14" width="30" height="30" x="417" y="53" fill="url(#1)" color="#bebebe" rx="7"/></clipPath><linearGradient id="2" x2="0" y1="302.86" y2="28.571" gradientTransform="matrix(0.0875,0,0,0.0875,414.9,97.5)" gradientUnits="userSpaceOnUse" xlink:href="#A"/><clipPath id="clipPath17"><rect id="rect19" width="22" height="22" x="417" y="101" fill="url(#2)" color="#bebebe" rx="5"/></clipPath><linearGradient id="3" x2="0" y1="124" y2="28" gradientUnits="userSpaceOnUse" xlink:href="#A"/><clipPath id="clipPath22"><rect id="rect24" width="88" height="88" x="292" y="32" fill="url(#3)" color="#bebebe" rx="18"/></clipPath><linearGradient id="4" x2="0" y1="204" y2="140" gradientUnits="userSpaceOnUse" xlink:href="#A"/><clipPath id="clipPath27"><rect id="rect29" width="60" height="60" x="290" y="142" fill="url(#4)" color="#bebebe" rx="12.5"/></clipPath><linearGradient id="5" x2="0" y1="280" y2="40" gradientTransform="translate(0,-4)" gradientUnits="userSpaceOnUse" xlink:href="#A"/><clipPath id="clipPath32"><rect id="rect34" width="220" height="220" x="34" y="46" fill="url(#5)" color="#bebebe" rx="50"/></clipPath><linearGradient id="6" x2="0" y1="280" y2="40" gradientTransform="matrix(0.06666667,0,0,0.06666667,302.4,209.33333)" gradientUnits="userSpaceOnUse" xlink:href="#A"/><clipPath id="clipPath37"><rect id="rect39" width="16" height="16" x="304" y="212" fill="url(#6)" color="#bebebe" rx="3" transform="matrix(0,1,-1,0,0,0)"/></clipPath><linearGradient id="7" x2="0" y1="291.43" y2="40" gradientTransform="matrix(0.11931818,0,0,0.11931818,430.13636,32.227267)" gradientUnits="userSpaceOnUse" xlink:href="#A"/><clipPath id="clipPath42"><rect id="rect44" width="30" height="30" x="433" y="37" fill="url(#7)" color="#bebebe" rx="6"/></clipPath><linearGradient id="8" x2="0" y1="291.43" y2="40" gradientTransform="matrix(0.0875,0,0,0.0875,430.9,81.499996)" gradientUnits="userSpaceOnUse" xlink:href="#A"/><clipPath id="clipPath47"><rect id="rect49" width="22" height="22" x="433" y="85" fill="url(#8)" color="#bebebe" rx="4"/></clipPath><linearGradient id="9" x2="0" y1="280" y2="40" gradientTransform="matrix(0.175,0,0,0.175,302.79999,215.99997)" gradientUnits="userSpaceOnUse" xlink:href="#A"/><clipPath id="clipPath52"><rect id="rect54" width="42" height="42" x="307" y="223" fill="url(#9)" color="#bebebe" rx="9" transform="matrix(0,1,-1,0,0,0)"/></clipPath><linearGradient id="A"><stop id="stop57" stop-color="#b94642"/><stop id="stop59" offset="1" stop-color="#c66a58"/></linearGradient><linearGradient id="B" x2="0" y1="1050.36" y2="1006.36" gradientTransform="matrix(0.28222223,0,0,0.28222223,0,-283.45334)" gradientUnits="userSpaceOnUse" xlink:href="#0"/><radialGradient id="radialGradient3086" cx="148.004" cy="160" r="128" gradientTransform="matrix(0.1831,0,0,0.1831,-3.10079,-5.2963795)" gradientUnits="userSpaceOnUse" xlink:href="#radial0"/><radialGradient id="radial0" cx="148.004" cy="160" r="128" gradientTransform="matrix(0.1831,0,0,0.1831,-3.10029,-5.29688)" gradientUnits="userSpaceOnUse"><stop id="stop7-6" offset="0" stop-color="#fdb5b8" stop-opacity="1"/><stop id="stop9-3" offset="1" stop-color="#fa4b52" stop-opacity="1"/></radialGradient><radialGradient id="radialGradient3013" cx="148.004" cy="160" r="128" gradientTransform="matrix(0.05167489,0,0,0.05167489,-0.87511189,-1.494761)" gradientUnits="userSpaceOnUse" xlink:href="#radial0"/></defs><path id="path11" fill="url(#radialGradient3013)" d="m 13.387775,3.2589209 0,7.0290971 c 0,2.892778 0,3.100035 -3.100035,3.100035 l -7.0279939,0 c -3.10113721,0 -3.10113721,-0.207257 -3.10113721,-3.100035 l 0,-7.0290971 c 0,-2.89277789 0,-3.10003479 3.10113721,-3.10003479 l 7.0279939,0 c 3.100035,0 3.100035,0.2072569 3.100035,3.10003479 z"/><path id="path15" fill="#fff" fill-opacity=".051" d="m 10.799268,13.388053 c 0.717682,-0.0033 1.235825,-0.02315 1.611753,-0.124575 l -1.193932,-2.046111 -1.2655895,2.170686 0.3362405,0 c 0.180799,0 0.350573,0 0.511528,0 z M 11.217089,11.217367 9.7707015,8.7368984 8.3232099,11.217367 z m 0,0 2.159662,0 c 0.0088,-0.274505 0.01102,-0.582083 0.01102,-0.930451 l 0,-0.3097833 -0.723194,-1.2402343 z M 12.664581,8.7368984 11.217089,6.2564297 9.7707015,8.7368984 z m 0,0 0.723194,0 0,-1.2402343 z m -2.8938795,0 L 8.3232099,6.2564297 6.876821,8.7368984 z m -2.8938805,0 -1.4474916,2.4804686 2.8938805,0 z m 0,0 L 5.4293294,6.2564297 3.9829405,8.7368984 z m -2.8938805,0 -1.4474913,2.4804686 2.8938802,0 z m 0,0 L 2.5354492,6.2564297 1.0890603,8.7368984 z m -2.8938802,0 -0.93045141,1.5941146 c 0,0.329627 0.00331,0.623976 0.011024,0.886354 l 2.36581621,0 z m 0,0 -0.93045141,-1.5941145 0,1.5941145 z m 1.4463889,2.4804686 -1.2170833,2.086901 c 0.450894,0.08268 1.0748699,0.08379 1.9413802,0.08379 l 0.5423958,0 z m 0,-4.9609373 -1.4463889,-2.4804689 -0.93045141,1.5941147 0,0.8863542 z m 0,0 2.8938802,0 L 3.9829405,3.7759608 z M 3.9829405,3.7759608 2.5354492,1.2954921 1.0890603,3.7759608 z m 0,0 2.8938805,0 -1.4474916,-2.4804687 z m 1.4463889,-2.4804687 -0.663663,-1.13660599 -1.5059203,0 c -0.02205,0 -0.039688,0 -0.060634,0 L 2.5354492,1.2954921 z m 0,0 2.8938805,0 -0.6636633,-1.13660599 -1.5665538,0 z m 2.8938805,0 2.8938791,0 -0.663663,-1.13660599 c -0.0882,0 -0.171979,0 -0.265686,0 l -1.3008665,0 z m 0,0 -1.4463889,2.4804687 2.8938805,0 z m 1.4474916,2.4804687 2.8938795,0 -1.447492,-2.4804687 z m 0,0 -1.4474916,2.4804689 2.8938791,0 z m 1.4463875,2.4804689 2.170686,0 0,-1.2402343 -0.723194,-1.2402346 z m 1.447492,-2.4804689 0.723194,0 0,-0.5170399 c 0,-0.2579689 -0.0022,-0.4938889 -0.0066,-0.71217 z M 8.3232099,6.2564297 6.876821,3.7759608 5.4293294,6.2564297 z m 2.8938791,-4.9609376 2.062648,0 C 13.123192,0.51717591 12.747263,0.27133411 11.859806,0.19416381 z m -8.6816398,0 L 1.8850153,0.17983231 C 0.85203769,0.23826111 0.43421639,0.46095191 0.26664699,1.2954921 z M 1.0890603,3.7759608 0.17514539,2.2083046 c -0.012127,0.3031685 -0.016535,0.6515363 -0.016535,1.0506163 l 0,0.5170399 z m 4.3402691,7.4414062 -1.2655903,2.170686 2.532283,0 z m 2.8938805,0 -1.2655906,2.170686 2.5322832,0 z m -7.59133711,1.86862 -0.4519964,-0.775009 c 0.082682,0.371519 0.2215885,0.615157 0.4519964,0.775009 z"/><path id="path78" fill="#f9f9f9" fill-opacity="1" d="m 12,24 6,-6 5,5 -2.5,1 z" transform="scale(0.28222223,0.28222223)"/><path id="path80" fill="#f9f9f9" fill-opacity="1" d="m 18,18 5,5 1,-2.5 0,-2.5 z" transform="scale(0.28222223,0.28222223)"/><path id="path82" fill="#f9f9f9" fill-opacity="1" d="M 6.7733335,3.3866668 8.4666668,5.0800002 7.0555558,6.4911113 6.7733335,5.7855557 z"/><path id="path84" fill="#f9f9f9" fill-opacity="1" d="m 8.4666668,5.0800002 -1.4111111,1.4111111 0.7055555,0.2822222 0.7055556,0 z"/><path id="path86" fill="#f9f9f9" fill-opacity="1" d="M 10.16,6.7733335 8.4666668,8.4666669 7.0555557,7.0555558 7.7611113,6.7733335 z"/><path id="path88" fill="#f9f9f9" fill-opacity="1" d="M 8.4666668,8.4666669 7.0555557,7.0555558 6.7733335,7.7611113 l 0,0.7055556 z"/><path id="path90" fill="#f9f9f9" fill-opacity="1" d="M 6.7733334,10.16 5.0800001,8.4666665 6.4911111,7.0555554 6.7733334,7.761111 z"/><path id="path92" fill="#f9f9f9" fill-opacity="1" d="M 5.0800001,8.4666665 6.4911112,7.0555554 5.7855557,6.7733332 l -0.7055556,0 z"/></svg>