<svg xmlns="http://www.w3.org/2000/svg" xmlns:svg="http://www.w3.org/2000/svg" xmlns:xlink="http://www.w3.org/1999/xlink" id="svg2" width="48" height="48" version="1.1" viewBox="0 0 13.547 13.547"><metadata id="metadata34"/><defs id="defs4"><linearGradient id="0"><stop id="stop7" stop-color="#fede35"/><stop id="stop9" offset="1" stop-color="#f4a718"/></linearGradient><linearGradient id="1" x2="0" y1="1050.36" y2="1006.36" gradientTransform="matrix(0.28222223,0,0,0.28222223,-13.828889,-296.71777)" gradientUnits="userSpaceOnUse" xlink:href="#0"/><radialGradient id="radialGradient3042" cx="148.004" cy="160" r="128" gradientTransform="matrix(0.1831,0,0,0.1831,-3.100776,-5.2964)" gradientUnits="userSpaceOnUse" xlink:href="#radial0"/><radialGradient id="radial0" cx="148.004" cy="160" r="128" gradientTransform="matrix(0.1831,0,0,0.1831,-3.10029,-5.29688)" gradientUnits="userSpaceOnUse"><stop id="stop7-4" offset="0" stop-color="#f5b975" stop-opacity="1"/><stop id="stop9-2" offset="1" stop-color="#daa50f" stop-opacity="1"/></radialGradient><radialGradient id="radialGradient3010" cx="148.004" cy="160" r="128" gradientTransform="matrix(0.05167489,0,0,0.05167489,-0.87510791,-1.4947614)" gradientUnits="userSpaceOnUse" xlink:href="#radial0"/></defs><path id="path11" fill="url(#radialGradient3010)" d="m 13.387779,3.2589209 0,7.0290971 c 0,2.892778 0,3.100035 -3.100035,3.100035 l -7.0279925,0 c -3.10113841,0 -3.10113841,-0.207257 -3.10113841,-3.100035 l 0,-7.0290971 c 0,-2.89277779 0,-3.10003479 3.10113841,-3.10003479 l 7.0279925,0 c 3.100035,0 3.100035,0.207257 3.100035,3.10003479 z"/><path id="path15" fill="#fff" fill-opacity=".051" d="m 10.799272,13.388053 c 0.717682,-0.0033 1.235825,-0.02315 1.611753,-0.124575 l -1.193932,-2.046111 -1.2655885,2.170686 0.3362395,0 c 0.180799,0 0.350573,0 0.511528,0 z M 11.217093,11.217367 9.7707055,8.7368984 8.3232145,11.217367 z m 0,0 2.159662,0 c 0.0088,-0.274505 0.01102,-0.582083 0.01102,-0.930451 l 0,-0.3097836 -0.723194,-1.240234 z M 12.664585,8.7368984 11.217093,6.2564297 9.7707055,8.7368984 z m 0,0 0.723194,0 0,-1.2402343 z m -2.8938795,0 -1.447491,-2.4804687 -1.44639,2.4804687 z m -2.893881,0 -1.447491,2.4804686 2.893881,0 z m 0,0 -1.447491,-2.4804687 -1.446389,2.4804687 z m -2.89388,0 -1.447491,2.4804686 2.89388,0 z m 0,0 -1.447491,-2.4804687 -1.4463884,2.4804687 z m -2.8938794,0 -0.93045201,1.5941146 c 0,0.329627 0.0033,0.623976 0.011021,0.886354 l 2.36581561,0 z m 0,0 -0.93045201,-1.5941145 0,1.5941145 z m 1.4463884,2.4804686 -1.2170834,2.086901 c 0.450894,0.08268 1.0748694,0.08379 1.9413814,0.08379 l 0.542395,0 z m 0,-4.9609373 -1.4463884,-2.4804689 -0.93045201,1.5941147 0,0.8863542 z m 0,0 2.89388,0 -1.446389,-2.4804689 z M 3.9829445,3.7759608 2.5354535,1.2954921 1.0890651,3.7759608 z m 0,0 2.89388,0 -1.447491,-2.4804687 z m 1.446389,-2.4804687 -0.663662,-1.13660599 -1.50592,0 c -0.02205,0 -0.03969,0 -0.06063,0 L 2.5354575,1.2954921 z m 0,0 2.893881,0 -0.663663,-1.13660599 -1.566555,0 z m 2.893881,0 2.8938785,0 -0.663663,-1.13660599 c -0.0882,0 -0.171979,0 -0.265686,0 l -1.3008675,0 z m 0,0 -1.44639,2.4804687 2.893881,0 z m 1.447491,2.4804687 2.8938795,0 -1.447492,-2.4804687 z m 0,0 -1.447491,2.4804689 2.8938785,0 z m 1.4463875,2.4804689 2.170686,0 0,-1.2402343 -0.723194,-1.2402346 z m 1.447492,-2.4804689 0.723194,0 0,-0.5170399 c 0,-0.2579689 -0.0022,-0.4938889 -0.0066,-0.71217 z M 8.3232145,6.2564297 6.8768245,3.7759608 5.4293335,6.2564297 z m 2.8938785,-4.9609376 2.062648,0 C 13.123196,0.51717601 12.747267,0.27133421 11.85981,0.19416391 z m -8.6816395,0 L 1.8850201,0.17983241 C 0.85204189,0.23826141 0.43422089,0.46095201 0.26665089,1.2954921 z M 1.0890651,3.7759608 0.17514989,2.2083046 c -0.01213,0.3031685 -0.016541,0.6515364 -0.016541,1.0506163 l 0,0.5170399 z m 4.3402684,7.4414062 -1.26559,2.170686 2.532283,0 z m 2.893881,0 -1.26559,2.170686 2.532283,0 z m -7.59133751,1.86862 -0.4519961,-0.775009 c 0.08268,0.371519 0.2215882,0.615157 0.4519961,0.775009 z"/><path id="path28" fill="#f9f9f9" fill-opacity="1" d="M 11.96875,20 C 11.4,20.026291 11,20.17461 11,20.78125 l 0,12.75 C 11,34.340105 11.687708,35 12.5625,35 l 22.84375,0 C 36.283752,35 37,34.340105 37,33.53125 l 0,-12.75 C 37,19.972395 36.283752,20 35.40625,20 L 12.5625,20 c -0.219373,0 -0.404167,-0.01049 -0.59375,0 z M 30,22 31.5,23 21,32.5 16,28.555192 17,27 l 4,3 z" transform="scale(0.28222223,0.28222223)"/><path id="path30" fill="#f9f9f9" fill-opacity="1" d="m 4.2486792,3.7822294 -0.9172222,1.2977717 3.1596543,-10e-8 0,-1.9755554 -1.5545154,10e-8 c -0.2293055,0 -0.6879167,0.6777837 -0.6879167,0.6777837 z m 2.8068765,-0.6777837 0,1.9755554 3.1550683,0 -0.9172224,-1.2977717 c 0,0 -0.4586111,-0.6777837 -0.6879167,-0.6777837 z"/></svg>