<?xml version="1.0" encoding="UTF-8" standalone="no"?>
<svg
   xmlns:dc="http://purl.org/dc/elements/1.1/"
   xmlns:cc="http://creativecommons.org/ns#"
   xmlns:rdf="http://www.w3.org/1999/02/22-rdf-syntax-ns#"
   xmlns:svg="http://www.w3.org/2000/svg"
   xmlns="http://www.w3.org/2000/svg"
   xmlns:xlink="http://www.w3.org/1999/xlink"
   xmlns:sodipodi="http://sodipodi.sourceforge.net/DTD/sodipodi-0.dtd"
   xmlns:inkscape="http://www.inkscape.org/namespaces/inkscape"
   width="48"
   height="48"
   viewBox="0 0 48 48"
   id="svg2"
   version="1.1"
   inkscape:version="0.48.4 r9939"
   sodipodi:docname="application-vnd.iccprofile.svg">
  <defs
     id="defs3019">
    <clipPath
       clipPathUnits="userSpaceOnUse"
       id="clipPath3041">
      <use
         x="0"
         y="0"
         xlink:href="#path11"
         id="use3043"
         transform="matrix(0.28222223,0,0,0.28222223,2.7778102,-1.7078072)"
         width="1"
         height="1" />
    </clipPath>
  </defs>
  <metadata
     id="metadata35">
    <rdf:RDF>
      <cc:Work
         rdf:about="">
        <dc:format>image/svg+xml</dc:format>
        <dc:type
           rdf:resource="http://purl.org/dc/dcmitype/StillImage" />
        <dc:title></dc:title>
      </cc:Work>
    </rdf:RDF>
  </metadata>
  <sodipodi:namedview
     pagecolor="#ffffff"
     bordercolor="#666666"
     borderopacity="1"
     objecttolerance="10"
     gridtolerance="10"
     guidetolerance="10"
     inkscape:pageopacity="0"
     inkscape:pageshadow="2"
     inkscape:window-width="1024"
     inkscape:window-height="692"
     id="namedview33"
     showgrid="false"
     inkscape:zoom="4.9166667"
     inkscape:cx="13.338807"
     inkscape:cy="27.715516"
     inkscape:window-x="0"
     inkscape:window-y="24"
     inkscape:window-maximized="1"
     inkscape:current-layer="svg2" />
  <path
     fill="#808080"
     d="M 47.4375 11.546875 L 47.4375 36.453125 C 47.4375 46.703125 47.4375 47.4375 36.453125 47.4375 L 11.550781 47.4375 C 0.5625 47.4375 0.5625 46.703125 0.5625 36.453125 L 0.5625 11.546875 C 0.5625 1.296875 0.5625 0.5625 11.550781 0.5625 L 36.453125 0.5625 C 47.4375 0.5625 47.4375 1.296875 47.4375 11.546875 Z "
     id="path11"
     style="fill:#e87910;fill-opacity:1" />
  <path
     inkscape:connector-curvature="0"
     id="path15"
     d="m 38.265625,47.4375 c 2.542969,-0.01172 4.378906,-0.08203 5.710937,-0.441406 l -4.230468,-7.25 -4.484375,7.691406 1.191406,0 c 0.640625,0 1.242187,0 1.8125,0 z m 1.480469,-7.691406 -5.125,-8.789063 -5.128906,8.789063 z m 0,0 7.652344,0 c 0.03125,-0.972656 0.03906,-2.0625 0.03906,-3.296875 l 0,-1.097657 -2.5625,-4.394531 z m 5.128906,-8.789063 -5.128906,-8.789062 -5.125,8.789062 z m 0,0 2.5625,0 0,-4.394531 z m -10.253906,0 -5.128906,-8.789062 -5.125,8.789062 z m -10.253906,0 -5.128907,8.789063 10.253907,0 z m 0,0 -5.128907,-8.789062 -5.125,8.789062 z m -10.253907,0 -5.128906,8.789063 10.253906,0 z m 0,0 -5.128906,-8.789062 -5.125,8.789062 z m -10.253906,0 -3.296875,5.648438 c 0,1.167969 0.011719,2.210937 0.039062,3.140625 l 8.382813,0 z m 0,0 -3.296875,-5.648437 0,5.648437 z m 5.125,8.789063 -4.3125,7.394531 c 1.597656,0.292969 3.808594,0.296875 6.878906,0.296875 l 1.921875,0 z m 0,-17.578125 -5.125,-8.789063 -3.296875,5.648438 0,3.140625 z m 0,0 10.253906,0 -5.125,-8.789063 z m 5.128906,-8.789063 -5.128906,-8.789062 -5.125,8.789062 z m 0,0 10.253907,0 -5.128907,-8.789062 z m 5.125,-8.789062 -2.351562,-4.027344 -5.335938,0 c -0.07813,0 -0.140625,0 -0.214843,0 L 8.984375,4.589844 z m 0,0 10.253907,0 -2.351563,-4.027344 -5.550781,0 z m 10.253907,0 10.253906,0 L 37.394531,0.5625 c -0.3125,0 -0.609375,0 -0.941406,0 l -4.609375,0 z m 0,0 -5.125,8.789062 10.253906,0 z m 5.128906,8.789062 10.253906,0 -5.128906,-8.789062 z m 0,0 -5.128906,8.789063 10.253906,0 z m 5.125,8.789063 7.691406,0 0,-4.394531 -2.5625,-4.394532 z m 5.128906,-8.789063 2.5625,0 0,-1.832031 c 0,-0.914063 -0.0078,-1.75 -0.02344,-2.523437 z m -15.382812,8.789063 -5.125,-8.789063 -5.128907,8.789063 z m 10.253906,-17.578125 7.308594,0 C 46.5,1.832031 45.167969,0.960938 42.023438,0.6875 z m -30.761719,0 L 6.679688,0.636719 C 3.019531,0.84375 1.539062,1.632812 0.945312,4.589844 z m -5.125,8.789062 L 0.621094,7.824219 C 0.578125,8.898438 0.5625,10.132812 0.5625,11.546875 l 0,1.832031 z m 15.378906,26.367188 -4.484375,7.691406 8.972656,0 z m 10.253907,0 -4.484376,7.691406 8.972657,0 z M 2.59375,46.367188 0.992188,43.621094 c 0.292968,1.316406 0.785156,2.179687 1.601562,2.746094 z"
     style="fill:#ffffff;fill-opacity:0.08235294" />
  <g
     style="fill:#f9f9f9;fill-opacity:1"
     transform="matrix(3.543307,0,0,3.543307,4.76e-5,-4e-7)"
     id="g25">
    <use
       height="1052.3622"
       width="744.09448"
       y="0"
       x="0"
       transform="matrix(0.14111,0,0,0.19349,3.66889,3.10559)"
       xlink:href="#2"
       id="use27"
       style="fill:#f9f9f9;fill-opacity:1" />
    <use
       height="1052.3622"
       width="744.09448"
       y="0"
       x="0"
       transform="matrix(0.21167,0,0,0.29024,1.27,-0.98607)"
       xlink:href="#2"
       id="use29"
       style="fill:#f9f9f9;fill-opacity:1" />
    <use
       height="1052.3622"
       width="744.09448"
       y="0"
       x="0"
       transform="matrix(0.28222,0,0,0.38698,-0.28222,-5.35994)"
       xlink:href="#2"
       id="use31"
       style="fill:#f9f9f9;fill-opacity:1" />
    <use
       height="1052.3622"
       width="744.09448"
       y="0"
       x="0"
       transform="matrix(0.42333,0,0,0.58047,-4.23333,-14.38991)"
       xlink:href="#2"
       id="use33"
       style="fill:#f9f9f9;fill-opacity:1" />
    <use
       height="1052.3622"
       width="744.09448"
       y="0"
       x="0"
       transform="matrix(0.35278,0,0,0.48373,-2.96333,-9.73381)"
       xlink:href="#2"
       id="use35"
       style="fill:#f9f9f9;fill-opacity:1" />
  </g>
  <g
     style="fill:#f9f9f9"
     id="g27"
     clip-path="url(#clipPath3041)"
     transform="matrix(3.543307,0,0,3.543307,-9.8431343,6.0517851)">
    <path
       style="color:#000000"
       inkscape:connector-curvature="0"
       id="path29"
       transform="scale(0.28222,0.28222)"
       d="m 18,9.0625 c -4.310529,0 -8.2937334,1.296208 -11.625,3.5 C 5.0483715,14.605837 4.0835957,16.887348 3.53125,19.34375 8.5427769,13.37686 12.066066,11.977542 18,11.9375 27.936027,11.870452 37.412762,20.720636 35.9375,30 c -0.945677,5.948283 -2.395222,11.736266 -7.25,14.477133 2.483044,-0.562218 4.776513,-1.541051 6.835367,-2.893675 C 37.743111,38.256825 39.0625,34.263333 39.0625,30 39.0625,18.500724 29.670126,9.0625 18,9.0625 z" />
    <path
       inkscape:connector-curvature="0"
       id="path31"
       transform="scale(0.28222,0.28222)"
       d="m 13.59375,32.65625 c -2.807929,0.549127 -5.603843,-0.274047 -8.3917664,0.75 0.3518451,0.70435 0.7219333,1.375207 1.1478667,2.03125 2.6023494,-0.590558 4.4628877,-2.873223 7.1188997,-1.15625 z" />
    <path
       inkscape:connector-curvature="0"
       id="path33"
       transform="scale(0.28222,0.28222)"
       d="M 13.625,34.65625 7.5625,37.0625 c 0.1382423,0.17394 0.2626501,0.361893 0.40625,0.53125 C 10.006963,36.630287 12.102786,36.252263 14,35.1875 l -0.375,-0.53125 z" />
    <path
       inkscape:connector-curvature="0"
       id="path35"
       transform="scale(0.28222,0.28222)"
       d="m 14.8125,35.25 -3.84375,5.21875 c 0.202627,0.160359 0.41637,0.315831 0.625,0.46875 1.323203,-1.648734 1.903086,-3.519683 3.6875,-5.34375 L 14.8125,35.25 z" />
    <path
       inkscape:connector-curvature="0"
       id="path37"
       transform="scale(0.28222,0.28222)"
       d="m 16.75,34.9375 -0.875,0.59375 c -0.36327,2.675595 -0.155252,5.428763 0.5,8.03125 0.825153,0.319658 1.689968,0.597608 2.5625,0.8125 -0.696006,-3.159171 -2.673778,-6.054899 -2.1875,-9.4375 z" />
    <path
       inkscape:connector-curvature="0"
       id="path39"
       d="M 3.8085999,9.481382 3.5414076,8.7243371 4.1759895,9.1956349 z" />
    <path
       inkscape:connector-curvature="0"
       id="path41"
       d="M 4.6894704,10.044972 4.9146218,9.8272214 C 5.0098006,10.121316 5.1806693,10.226186 5.3136931,10.425669 5.0488515,10.242002 4.9353896,10.134026 4.6894704,10.044972 z" />
    <path
       inkscape:connector-curvature="0"
       id="path43"
       transform="scale(0.28222,0.28222)"
       d="m 21.842576,42.035798 c 0.416666,1.211561 1.436767,2.020833 2.188674,2.964202 0.342646,-4.92e-4 0.692734,-0.01469 1.03125,-0.03125 -1.207404,-0.977651 -2.213664,-1.821205 -3.219924,-2.932952 z" />
    <path
       inkscape:connector-curvature="0"
       id="path45"
       transform="scale(0.28222,0.28222)"
       d="m 15.152886,31.237958 1.139818,0.469338 c 2.455618,-3.829015 1.524345,-15.212429 5.430902,-19.779209 l -2.883071,-0.402289 c 8.11e-4,4.898558 -0.754658,15.917295 -3.687649,19.71216 z" />
    <path
       inkscape:connector-curvature="0"
       id="path47"
       transform="scale(0.28222,0.28222)"
       d="m 17.231379,32.176633 0.402289,1.340963 c 5.338573,-3.164667 11.732586,-4.370635 17.633667,-6.235479 l 1.542108,1.475059 -0.536386,-3.821745 -0.771053,0.972198 c -0.585462,1.012131 -6.086925,2.754759 -8.079304,3.385933 -3.804508,0.813023 -6.536803,2.747931 -10.191321,2.883071 z" />
    <path
       inkscape:connector-curvature="0"
       id="path49"
       transform="scale(0.28222,0.28222)"
       d="m 17.097282,34.523319 0.603434,-1.340964 c 3.689264,2.539905 9.009877,3.645944 12.538007,5.363854 l 4.089938,1.340963 -1.139819,1.8103 -3.151264,-2.346686 C 25.587305,36.677118 21.517384,36.337405 17.097282,34.523319 z" />
    <path
       inkscape:connector-curvature="0"
       id="path51"
       transform="scale(0.28222,0.28222)"
       d="m 14.482404,31.774344 0.804578,-0.469337 c -4.208976,-10.846598 -3.660193,-8.81138 -0.804578,0.469337 z" />
    <path
       inkscape:connector-curvature="0"
       id="path53"
       transform="scale(0.28222,0.28222)"
       d="M 8.7162616,14.00658 9.7219841,13.336098 C 12.35278,23.66771 12.231574,23.597904 8.7162616,14.00658 z" />
    <path
       inkscape:connector-curvature="0"
       id="path55"
       transform="scale(0.28222,0.28222)"
       d="m 13.610778,31.975488 c 2.706977,-2.493317 5.288549,1.481369 3.888793,3.352409 -3.392999,1.413763 -5.180123,-0.613659 -3.888793,-3.352409 z" />
  </g>
</svg>
