<svg xmlns="http://www.w3.org/2000/svg" xmlns:svg="http://www.w3.org/2000/svg" xmlns:xlink="http://www.w3.org/1999/xlink" id="svg2" width="48" height="48" version="1.1" viewBox="0 0 13.547 13.547"><metadata id="metadata38"/><defs id="defs4"><linearGradient id="0"><stop id="stop7" stop-color="#d7d7d7"/><stop id="stop9" offset="1" stop-color="#efefef"/></linearGradient><linearGradient id="1" x2="0" y1="1050.36" y2="1006.36" gradientTransform="matrix(0.28222223,0,0,0.28222223,0,-283.45334)" gradientUnits="userSpaceOnUse" xlink:href="#0"/><radialGradient id="radialGradient3040" cx="148.004" cy="160" r="128" gradientTransform="matrix(0.05167489,0,0,0.05167489,-0.87511111,-1.4947551)" gradientUnits="userSpaceOnUse" xlink:href="#radial0"/><radialGradient id="radial0" cx="148.004" cy="160" r="128" gradientTransform="matrix(0.1831,0,0,0.1831,-3.10029,-5.29688)" gradientUnits="userSpaceOnUse"><stop id="stop7-4" offset="0" stop-color="#ffa686" stop-opacity="1"/><stop id="stop9-5" offset="1" stop-color="#d75050" stop-opacity="1"/></radialGradient><radialGradient id="radialGradient3075" cx="148.004" cy="160" r="128" gradientTransform="matrix(0.05167489,0,0,0.05167489,-0.87511113,-1.494755)" gradientUnits="userSpaceOnUse" xlink:href="#radial0"/></defs><path id="path11" fill="url(#radialGradient3075)" fill-opacity="1" d="m 13.387775,3.2589271 0,7.0290969 c 0,2.892777 0,3.100034 -3.100035,3.100034 l -7.0279931,0 c -3.10113801,0 -3.10113801,-0.207257 -3.10113801,-3.100034 l 0,-7.0290969 c 0,-2.89277789 0,-3.10003479 3.10113801,-3.10003479 l 7.0279931,0 c 3.100035,0 3.100035,0.2072569 3.100035,3.10003479 z"/><path id="path15" fill="#fff" fill-opacity=".051" d="m 10.799271,13.388053 c 0.717682,-0.0033 1.235825,-0.02315 1.611753,-0.124574 l -1.193932,-2.04611 -1.2655878,2.170684 0.3362388,0 c 0.180799,0 0.350573,0 0.511528,0 z M 11.217092,11.217369 9.7707052,8.7368993 8.3232139,11.217369 z m 0,0 2.159662,0 c 0.0088,-0.274506 0.01102,-0.582084 0.01102,-0.930452 l 0,-0.3097837 -0.723192,-1.240234 z m 1.447492,-2.4804697 -1.447492,-2.480469 -1.4463868,2.480469 z m 0,0 0.723194,0 0,-1.2402341 z m -2.8938788,0 -1.4474913,-2.480469 -1.4463889,2.480469 z m -2.8938802,0 -1.4474922,2.4804697 2.8938811,0 z m 0,0 -1.4474922,-2.480469 -1.4463889,2.480469 z m -2.8938811,0 -1.447491,2.4804697 2.8938799,0 z m 0,0 -1.447491,-2.480469 -1.446389,2.480469 z m -2.89388,0 -0.93045201,1.5941157 c 0,0.329626 0.0033,0.623975 0.01102,0.886354 l 2.36581601,0 z m 0,0 -0.93045201,-1.5941142 0,1.5941142 z m 1.446389,2.4804697 -1.217084,2.086899 c 0.450894,0.08268 1.07487,0.08379 1.94138,0.08379 l 0.5423961,0 z m 0,-4.9609387 -1.446389,-2.4804687 -0.93045201,1.5941145 0,0.8863542 z m 0,0 2.8938799,0 L 3.9829439,3.7759616 z M 3.9829439,3.7759616 2.5354529,1.295493 1.0890639,3.7759616 z m 0,0 2.8938811,0 L 5.4293328,1.295493 z M 5.4293328,1.295493 4.76567,0.15888701 l -1.5059211,0 c -0.02205,0 -0.03969,0 -0.06063,0 L 2.5354569,1.295493 z m 0,0 2.8938811,0 -0.6636631,-1.13660599 -1.5665549,0 z m 2.8938811,0 2.8938781,0 -0.663663,-1.13660599 c -0.0882,0 -0.171979,0 -0.265686,0 l -1.3008658,0 z m 0,0 -1.4463889,2.4804686 2.8938802,0 z m 1.4474913,2.4804686 2.8938788,0 -1.447492,-2.4804686 z m 0,0 -1.4474913,2.4804687 2.8938781,0 z m 1.4463868,2.4804687 2.170686,0 0,-1.240234 -0.723194,-1.2402347 z m 1.447492,-2.4804687 0.723194,0 0,-0.5170398 c 0,-0.2579689 -0.0022,-0.4938889 -0.0066,-0.71217 z M 8.3232139,6.2564303 6.876825,3.7759616 5.4293328,6.2564303 z m 2.8938781,-4.9609373 2.062648,0 C 13.123195,0.51717691 12.747266,0.27133501 11.859809,0.19416481 z m -8.6816391,0 -0.650434,-1.11565979 C 0.85204089,0.23826221 0.43421989,0.46095281 0.26664989,1.295493 z M 1.0890639,3.7759616 0.17514889,2.2083055 c -0.01213,0.3031685 -0.01654,0.6515363 -0.01654,1.0506163 l 0,0.5170398 z m 4.3402689,7.4414074 -1.26559,2.170684 2.532283,0 z m 2.8938811,0 -1.2655909,2.170684 2.5322842,0 z m -7.59133801,1.868619 -0.451996,-0.775009 c 0.08268,0.371519 0.221588,0.615157 0.451996,0.775009 z"/><rect id="rect28" width="2.822" height="2.822" x="3.387" y="3.387" fill="#f9f9f9" fill-opacity="1" rx=".311" ry=".351"/><rect id="rect30" width="2.822" height="2.822" x="7.338" y="3.387" fill="#f9f9f9" fill-opacity="1" rx=".311" ry=".351"/><rect id="rect32" width="2.822" height="2.822" x="3.387" y="7.338" fill="#f9f9f9" fill-opacity="1" rx=".311" ry=".351"/><rect id="rect34" width="2.822" height="2.822" x="7.338" y="7.338" fill="#f9f9f9" fill-opacity="1" rx=".311" ry=".351"/></svg>