<svg xmlns="http://www.w3.org/2000/svg" xmlns:svg="http://www.w3.org/2000/svg" xmlns:xlink="http://www.w3.org/1999/xlink" id="svg2" width="48" height="48" version="1.1" viewBox="0 0 13.547 13.547"><metadata id="metadata66"/><defs id="defs4"><linearGradient id="0"><stop id="stop7" stop-color="#772953"/><stop id="stop9" offset="1" stop-color="#8f5b77"/></linearGradient><linearGradient id="1" x2="0" y1="1050.36" y2="1006.36" gradientTransform="matrix(0.28222223,0,0,0.28222223,0,-283.45334)" gradientUnits="userSpaceOnUse" xlink:href="#0"/><rect id="2" width=".535" height=".535" x="6.506" y="9.61" stroke-miterlimit="5.8" stroke-width=".594" rx="0"/><rect id="3" width=".535" height=".535" x="6.506" y="3.401" stroke-miterlimit="5.8" stroke-width=".594" rx="0"/><radialGradient id="radialGradient3027" cx="148.004" cy="160" r="128" gradientTransform="matrix(0.05167489,0,0,0.05167489,-0.87511191,-1.4947562)" gradientUnits="userSpaceOnUse" xlink:href="#radial0"/><radialGradient id="radial0" cx="148.004" cy="160" r="128" gradientTransform="matrix(0.1831,0,0,0.1831,-3.10029,-5.29688)" gradientUnits="userSpaceOnUse"><stop id="stop7-6" offset="0" stop-color="#d58ca3"/><stop id="stop9-7" offset="1" stop-color="#701231"/></radialGradient><radialGradient id="radialGradient3008" cx="148.004" cy="160" r="128" gradientTransform="matrix(0.05167489,0,0,0.05167489,-0.87511151,-1.4947562)" gradientUnits="userSpaceOnUse" xlink:href="#radial0"/></defs><path id="path11" fill="url(#radialGradient3008)" d="m 13.387776,3.2589259 0,7.0290971 c 0,2.892778 0,3.100035 -3.100035,3.100035 l -7.0279945,0 c -3.10113721,0 -3.10113721,-0.207257 -3.10113721,-3.100035 l 0,-7.0290971 c 0,-2.89277779 0,-3.10003479 3.10113721,-3.10003479 l 7.0279945,0 c 3.100035,0 3.100035,0.207257 3.100035,3.10003479 z"/><path id="path15" fill="#fff" fill-opacity=".051" d="m 10.799269,13.388058 c 0.717682,-0.0033 1.235825,-0.02315 1.611753,-0.124574 l -1.193932,-2.046112 -1.2655898,2.170686 0.3362408,0 c 0.180799,0 0.350573,0 0.511528,0 z M 11.21709,11.217372 9.7707016,8.7369034 8.3232103,11.217372 z m 0,0 2.159662,0 c 0.0088,-0.274505 0.01102,-0.582083 0.01102,-0.930451 l 0,-0.3097833 -0.723193,-1.2402343 z M 12.664581,8.7369034 11.21709,6.2564347 9.7707016,8.7369034 z m 0,0 0.723195,0 0,-1.2402343 z m -2.8938794,0 L 8.3232103,6.2564347 6.8768214,8.7369034 z m -2.8938802,0 -1.4474916,2.4804686 2.8938805,0 z m 0,0 L 5.4293298,6.2564347 3.9829409,8.7369034 z m -2.8938805,0 -1.4474913,2.4804686 2.8938802,0 z m 0,0 L 2.5354496,6.2564347 1.0890607,8.7369034 z m -2.8938802,0 -0.93045141,1.5941146 c 0,0.329627 0.00331,0.623976 0.011024,0.886354 l 2.36581611,0 z m 0,0 -0.93045141,-1.5941145 0,1.5941145 z m 1.4463889,2.4804686 -1.2170833,2.086901 c 0.450894,0.08268 1.0748699,0.08378 1.9413802,0.08378 l 0.5423958,0 z m 0,-4.9609373 -1.4463889,-2.4804689 -0.93045141,1.5941148 0,0.8863541 z m 0,0 2.8938802,0 L 3.9829409,3.7759658 z M 3.9829409,3.7759658 2.5354496,1.2954971 1.0890607,3.7759658 z m 0,0 2.8938805,0 -1.4474916,-2.4804687 z m 1.4463889,-2.4804687 -0.663663,-1.13660589 -1.5070227,0 c -0.020946,0 -0.038585,0 -0.059531,0 L 2.5354496,1.2954971 z m 0,0 2.8938805,0 -0.6636633,-1.13660589 -1.5665538,0 z m 2.8938805,0 2.8938797,0 -0.663663,-1.13660589 c -0.08819,0 -0.171979,0 -0.266788,0 l -1.2997656,0 z m 0,0 -1.4463889,2.4804687 2.8938802,0 z m 1.4474913,2.4804687 2.8938794,0 -1.447491,-2.4804687 z m 0,0 -1.4474913,2.4804689 2.8938797,0 z m 1.4463884,2.4804689 2.170686,0 0,-1.2402342 -0.723195,-1.2402347 z m 1.447491,-2.4804689 0.723195,0 0,-0.5170399 c 0,-0.2579689 -0.0022,-0.4938889 -0.0066,-0.71217 z M 8.3232103,6.2564347 6.8768214,3.7759658 5.4293298,6.2564347 z m 2.8938797,-4.9609376 2.062648,0 C 13.123193,0.51718101 12.747264,0.27133921 11.859807,0.19416891 z m -8.6816404,0 L 1.8850157,0.17983741 C 0.85203809,0.23826641 0.43421679,0.46095701 0.26664739,1.2954971 z M 1.0890607,3.7759658 0.17514589,2.2083096 c -0.012127,0.3031685 -0.016537,0.6515363 -0.016537,1.0506163 l 0,0.5170399 z m 4.3402691,7.4414062 -1.2655903,2.170686 2.532283,0 z m 2.8938805,0 -1.2655906,2.170686 2.5322833,0 z m -7.59133711,1.86862 -0.4519964,-0.775009 c 0.082682,0.37152 0.2215885,0.615157 0.4519964,0.775009 z"/><path id="path30" fill="none" fill-opacity="0" stroke="#f9f9f9" stroke-linejoin="round" stroke-miterlimit="5.8" stroke-width="4" d="m 35,24.5 a 12.5,12.5 0 1 1 -25,0 12.5,12.5 0 1 1 25,0 z" transform="matrix(0.21409962,0,0,0.21409961,1.956092,1.5278932)"/><g id="g32"><use id="use34" fill="#fff" fill-opacity="0" stroke="#fff" xlink:href="#2"/><rect id="rect36" width=".535" height=".535" x="6.506" y="3.401" fill="#fff" fill-opacity="0" stroke="#fff" stroke-miterlimit="5.8" stroke-width=".594" rx="0"/></g><g id="g38" fill="none" stroke="#f9f9f9" transform="matrix(2.4892273e-5,1,-1,2.4892273e-5,13.546499,-1.6880053e-4)"><use id="use40" xlink:href="#2"/><use id="use42" xlink:href="#3"/></g><g id="g44" fill="none" stroke="#f9f9f9"><use id="use46" xlink:href="#2"/><use id="use48" xlink:href="#3"/></g><g id="g50" fill="none" stroke="#f9f9f9" transform="matrix(0.70710678,-0.70710678,0.70710678,0.70710678,-2.8056066,6.7733338)"><use id="use52" xlink:href="#2"/><use id="use54" xlink:href="#3"/></g><g id="g56" fill="none" stroke="#f9f9f9" transform="matrix(0.70710678,0.70710678,-0.70710678,0.70710678,6.7733337,-2.8056068)"><use id="use58" xlink:href="#2"/><use id="use60" xlink:href="#3"/></g><path id="path62" fill="#f9f9f9" stroke="none" d="m 22.119183,22.339758 a 0.05959204,0.04971845 0 1 1 -0.119184,0 0.05959204,0.04971845 0 1 1 0.119184,0 z" transform="matrix(14.207714,0,0,17.029228,-306.64303,-373.6555)"/></svg>