<svg xmlns="http://www.w3.org/2000/svg" xmlns:svg="http://www.w3.org/2000/svg" xmlns:xlink="http://www.w3.org/1999/xlink" id="svg2" width="48" height="48" version="1.1" viewBox="0 0 13.547 13.547"><metadata id="metadata108"/><defs id="defs4"><linearGradient id="1"><stop id="stop7" stop-color="#729fcf"/><stop id="stop9" offset="1" stop-color="#3465a4"/></linearGradient><clipPath id="clipPath11"><path id="path13" d="m -317.14586,654.26767 c -17.00009,19.30163 -31.02633,41.79278 -41.26613,66.58253 -8.04021,23.54776 -12.21493,49.18161 -12.21493,76.02201 0,114.50701 142.26245,207.45349 207.4535,207.45349 67.720759,0 207.451002,-92.94648 207.451002,-207.45349 0,-27.65912 -4.641115,-54.04072 -13.441743,-78.17401 -8.60386,-20.27999 -19.750231,-38.99031 -32.989533,-55.63205 0,0 -215.016776,61.83861 -314.992166,-8.79848 z"/></clipPath><clipPath id="clipPath15"><path id="path17" d="m -221.69556,708.46218 c -43.12933,0 -78.1553,40.49759 -78.1553,90.3966 0,49.899 35.02597,90.39385 78.1553,90.39385 25.34249,0 47.83141,-13.99943 62.10743,-35.66131 14.27604,21.6783 36.81426,35.66131 62.170421,35.66131 43.123863,0 78.152565,-40.49758 78.152565,-90.39385 0,-49.90175 -35.028702,-90.3966 -78.152565,-90.3966 -25.353441,0 -47.894381,13.98849 -62.170421,35.66406 -14.27602,-21.65641 -36.77043,-35.66406 -62.10743,-35.66406 z"/></clipPath><clipPath id="clipPath19"><path id="path21" d="m -147.99318,571.83543 c -14.66351,0 -27.37954,5.68461 -33.72096,13.98079 -5.73658,-2.11442 -12.27479,-3.31933 -19.2126,-3.31933 -17.95567,0 -33.21547,8.02436 -38.86486,19.21259 -6.22657,-7.25801 -16.77109,-12.02436 -28.73097,-12.02436 -19.13581,0 -34.66622,12.2107 -34.66622,27.28014 0,1.34386 0.13539,2.66497 0.37369,3.95683 -8.14432,7.05312 -13.2334,16.99932 -13.2334,28.02754 0,21.38805 19.09935,38.71098 42.64583,38.71098 6.51942,0 12.69804,-1.31679 18.22339,-3.69304 21.37577,8.86141 51.31756,14.35448 84.45631,14.35448 40.02986,0 75.372932,8.80372 96.612586,-3.47275 7.494986,7.20693 18.725099,-5.05642 31.280935,-5.05642 22.56538,0 40.8652535,-14.79098 40.8652535,-33.03951 0,-14.3297 -11.2894805,-26.52642 -27.0603185,-31.10507 0.02582,-0.52495 0.04399,-1.05178 0.04399,-1.58272 0,-18.64097 -16.056963,-33.74297 -35.875251,-33.74297 -7.547702,0 -14.554706,2.19139 -20.333703,5.93525 -5.604898,-3.63114 -13.994215,-5.93525 -23.367262,-5.93525 -1.0102,0 -2.00457,0.0355 -2.9896,0.0879 -4.65359,-10.73522 -19.20276,-18.57511 -36.4468,-18.57511 z"/></clipPath><clipPath id="clipPath23"><path id="path25" d="m -147.99318,571.83543 c -14.66351,0 -27.37954,5.68461 -33.72096,13.98079 -5.73658,-2.11442 -12.27479,-3.31933 -19.2126,-3.31933 -17.95567,0 -33.21547,8.02436 -38.86486,19.21259 -6.22657,-7.25801 -16.77109,-12.02436 -28.73097,-12.02436 -19.13581,0 -34.66622,12.2107 -34.66622,27.28014 0,1.34386 0.13539,2.66497 0.37369,3.95683 -8.14432,7.05312 -13.2334,16.99932 -13.2334,28.02754 0,21.38805 19.09935,38.71098 42.64583,38.71098 6.51942,0 12.26127,3.05094 17.78662,0.67469 21.37577,8.86141 51.75433,9.98675 84.89308,9.98675 40.02986,0 75.372932,8.80372 96.612586,-3.47275 7.494986,7.20693 18.725099,-5.05642 31.280935,-5.05642 22.56538,0 40.8652535,-14.79098 40.8652535,-33.03951 0,-14.3297 -11.2894805,-26.52642 -27.0603185,-31.10507 0.02582,-0.52495 0.04399,-1.05178 0.04399,-1.58272 0,-18.64097 -16.056963,-33.74297 -35.875251,-33.74297 -7.547702,0 -14.554706,2.19139 -20.333703,5.93525 -5.604898,-3.63114 -13.994215,-5.93525 -23.367262,-5.93525 -1.0102,0 -2.00457,0.0355 -2.9896,0.0879 -4.65359,-10.73522 -19.20276,-18.57511 -36.4468,-18.57511 z"/></clipPath><linearGradient id="2" x2="0" y1="105.44" y2="132.01" gradientUnits="userSpaceOnUse" xlink:href="#4"/><linearGradient id="3"><stop id="stop29" stop-color="#ea6ba2"/><stop id="stop31" offset="1" stop-color="#e5458a"/></linearGradient><linearGradient id="4"><stop id="stop34" stop-color="#edd400"/><stop id="stop36" offset="1" stop-color="#fce94f"/></linearGradient><radialGradient id="radialGradient38" cx="-157.65" cy="658.03" r="147.53" gradientTransform="matrix(0 .94264 -1.64064 0 921.34182 790.80876)" gradientUnits="userSpaceOnUse" xlink:href="#3"/><radialGradient id="radialGradient40" cx="-159.43" cy="691.02" r="207.45" gradientTransform="matrix(-.00003 2.47657 -2.57427 -0 1619.4445 1107.4769)" gradientUnits="userSpaceOnUse" xlink:href="#1"/><radialGradient id="radialGradient42" cx="-159.43" cy="691.02" r="207.45" gradientTransform="matrix(-.00003 2.47657 -2.57427 -0 1619.4445 1107.4769)" gradientUnits="userSpaceOnUse" xlink:href="#1"/><radialGradient id="radialGradient44" cx="-157.65" cy="658.03" r="147.53" gradientTransform="matrix(0 .94264 -1.64064 0 921.34182 790.80876)" gradientUnits="userSpaceOnUse" xlink:href="#3"/><linearGradient id="5" x2="0" y1="1050.36" y2="1006.36" gradientTransform="matrix(0.28222223,0,0,0.28222223,0,-283.45334)" gradientUnits="userSpaceOnUse" xlink:href="#6"/><linearGradient id="6"><stop id="stop48" stop-color="#a82945"/><stop id="stop50" offset="1" stop-color="#ec607f"/></linearGradient><radialGradient id="7" cx="-6.773" cy="-6.773" r="6.209" gradientUnits="userSpaceOnUse" xlink:href="#1"/><linearGradient id="8" x1="-8.847" x2="52.37" gradientTransform="matrix(0,1,-3.1607717,0,25.429506,-36.083983)" gradientUnits="userSpaceOnUse" xlink:href="#3"/><radialGradient id="radialGradient54" cx="-157.65" cy="658.03" r="147.53" gradientTransform="matrix(5.8780813e-8,0.94264188,-1.6406413,2.5739882e-7,921.34182,790.80876)" gradientUnits="userSpaceOnUse" xlink:href="#A"/><radialGradient id="radialGradient56" cx="-159.43" cy="691.02" r="207.45" gradientTransform="matrix(-3.2261034e-5,2.4765714,-2.5742656,-3.4462756e-7,1619.4445,1107.4769)" gradientUnits="userSpaceOnUse" xlink:href="#9"/><linearGradient id="9"><stop id="stop59" stop-color="#729fcf"/><stop id="stop61" offset="1" stop-color="#3465a4"/></linearGradient><linearGradient id="A"><stop id="stop64" stop-color="#ea6ba2"/><stop id="stop66" offset="1" stop-color="#e5458a"/></linearGradient><clipPath id="B"><path id="use69" fill="url(#linearGradient3106)" d="m 1.6933334,0.56444446 c -0.6254045,0 -1.12888894,0.50348444 -1.12888894,1.12888894 l 0,2.0284723 c 1.87238404,0.5624776 3.97384084,0.873125 6.20006964,0.873125 2.2304528,0 4.3426599,-0.3174622 6.2177089,-0.8819445 l 0,-2.0196528 c 0,-0.6254045 -0.503485,-1.12888894 -1.128889,-1.12888894 l -10.1600006,0 z"/></clipPath><radialGradient id="radialGradient3062" cx="148.004" cy="160" r="128" gradientTransform="matrix(0.05167489,0,0,0.05167489,-0.87511191,-1.4947565)" gradientUnits="userSpaceOnUse" xlink:href="#radial0"/><radialGradient id="radial0" cx="148.004" cy="160" r="128" gradientTransform="matrix(0.1831,0,0,0.1831,-3.10029,-5.29688)" gradientUnits="userSpaceOnUse"><stop id="stop7-8" offset="0" stop-color="#abd5f8"/><stop id="stop9-4" offset="1" stop-color="#3177c8"/></radialGradient><radialGradient id="radialGradient3009" cx="148.004" cy="160" r="128" gradientTransform="matrix(0.05167489,0,0,0.05167489,-0.87511191,-1.4947558)" gradientUnits="userSpaceOnUse" xlink:href="#radial0"/><linearGradient id="linearGradient3106" x1="-8.847" x2="52.37" gradientTransform="matrix(0,0.28222223,-0.89204004,0,7.1767719,-10.183702)" gradientUnits="userSpaceOnUse" xlink:href="#3"/></defs><path id="path11" fill="url(#radialGradient3009)" d="m 13.387776,3.2589334 0,7.0290826 c 0,2.892778 0,3.100042 -3.100035,3.100042 l -7.0279947,0 c -3.10113741,0 -3.10113741,-0.207264 -3.10113741,-3.100042 l 0,-7.0290826 c 0,-2.8927779 0,-3.1000419 3.10113741,-3.1000419 l 7.0279947,0 c 3.100035,0 3.100035,0.207264 3.100035,3.1000419 z"/><path id="path13-0" fill="#fff" fill-opacity=".051" d="m 10.799269,13.388058 c 0.717682,-0.0034 1.235825,-0.02314 1.611753,-0.124573 l -1.193932,-2.046111 -1.2655899,2.170684 0.3362409,0 c 0.180799,0 0.350573,0 0.511528,0 z M 11.21709,11.217374 9.7707012,8.7368948 8.3232102,11.217374 z m 0,0 2.159662,0 c 0.0088,-0.274518 0.01102,-0.582083 0.01102,-0.930459 l 0,-0.3097659 -0.723193,-1.2402543 z M 12.664582,8.7368948 11.21709,6.2564439 9.7707012,8.7368948 z m 0,0 0.723194,0 0,-1.2402253 z m -2.8938808,0 -1.447491,-2.4804509 -1.4463889,2.4804509 z m -2.8938799,0 -1.4474921,2.4804792 2.893881,0 z m 0,0 -1.4474921,-2.4804509 -1.446389,2.4804509 z m -2.8938811,0 -1.447491,2.4804792 2.89388,0 z m 0,0 -1.447491,-2.4804509 -1.4463889,2.4804509 z m -2.8938799,0 -0.93045141,1.5941322 c 0,0.329607 0.00331,0.623965 0.011024,0.886347 l 2.36581671,0 z m 0,0 -0.93045141,-1.5941038 0,1.5941038 z m 1.4463889,2.4804792 -1.2170833,2.086892 c 0.450894,0.08269 1.0748703,0.08379 1.9413804,0.08379 l 0.5423959,0 z m 0,-4.9609301 -1.4463889,-2.4804794 -0.93045141,1.594104 0,0.8863754 z m 0,0 2.89388,0 -1.446389,-2.4804794 z M 3.9829402,3.7759645 2.5354492,1.2954851 1.0890603,3.7759645 z m 0,0 2.8938811,0 -1.4474921,-2.4804794 z m 1.446389,-2.4804794 -0.6636631,-1.1365936 -1.5059198,0 c -0.02205,0 -0.03969,0 -0.06063,0 L 2.5354532,1.2954851 z m 0,0 2.893881,0 -0.6636639,-1.1365936 -1.5665532,0 z m 2.893881,0 2.8938798,0 -0.663663,-1.1365936 c -0.0882,0 -0.171979,0 -0.265686,0 l -1.3008677,0 z m 0,0 -1.4463889,2.4804794 2.8938799,0 z m 1.447491,2.4804794 2.8938808,0 -1.447492,-2.4804794 z m 0,0 -1.447491,2.4804794 2.8938798,0 z m 1.4463888,2.4804794 2.170686,0 0,-1.2402538 -0.723194,-1.2402256 z m 1.447492,-2.4804794 0.723194,0 0,-0.5170311 c 0,-0.2579794 -0.0022,-0.4938889 -0.0066,-0.7121878 z M 8.3232102,6.2564439 6.8768213,3.7759645 5.4293292,6.2564439 z m 2.8938798,-4.9609588 2.062648,0 C 13.123193,0.51717259 12.747264,0.2713289 11.859807,0.1941693 z m -8.6816408,0 L 1.8850153,0.1798324 C 0.85203769,0.2382806 0.43421639,0.46095401 0.26664699,1.2954851 z M 1.0890603,3.7759645 0.17514549,2.2083047 c -0.012127,0.3031631 -0.016535,0.6515382 -0.016535,1.0506287 l 0,0.5170311 z m 4.3402689,7.4414095 -1.2655901,2.170684 2.532283,0 z m 2.893881,0 -1.2655909,2.170684 2.532283,0 z m -7.59133741,1.868622 -0.4519964,-0.775011 c 0.082682,0.371517 0.2215885,0.61516 0.4519964,0.775011 z"/><path id="path92" fill="#f9f9f9" fill-opacity="1" d="M 16.46875 9 C 11.242566 9 7 13.869845 7 19.875 C 7 25.880158 11.242566 30.75 16.46875 30.75 C 19.539653 30.75 22.270106 29.075676 24 26.46875 C 25.729894 29.077653 28.458721 30.75 31.53125 30.75 C 36.756804 30.75 41 25.879829 41 19.875 C 41 13.869513 36.756804 9 31.53125 9 C 28.459053 9 25.729894 10.672676 24 13.28125 C 22.270106 10.674982 19.53899 9 16.46875 9 z M 19.59375 17.375 C 21.391861 17.375 22.875 18.83891 22.875 20.625 C 22.875 22.41109 21.391771 23.875 19.59375 23.875 C 17.795338 23.875 16.34375 22.410824 16.34375 20.625 C 16.34375 18.83891 17.795338 17.375 19.59375 17.375 z M 28.84375 17.375 C 30.641861 17.375 32.125 18.83891 32.125 20.625 C 32.125 22.41109 30.641801 23.875 28.84375 23.875 C 27.045368 23.875 25.59375 22.410821 25.59375 20.625 C 25.59375 18.83891 27.045368 17.375 28.84375 17.375 z M 18.625 18.96875 C 18.232109 18.96875 17.90625 19.266035 17.90625 19.65625 C 17.90625 20.046464 18.232109 20.375 18.625 20.375 C 19.017891 20.375 19.3125 20.046465 19.3125 19.65625 C 19.3125 19.266365 19.017559 18.969112 18.625 18.96875 z M 27.84375 18.96875 C 27.450857 18.96875 27.15625 19.266035 27.15625 19.65625 C 27.15625 20.046464 27.450859 20.375 27.84375 20.375 C 28.236673 20.375 28.5625 20.046465 28.5625 19.65625 C 28.5625 19.266365 28.23634 18.969103 27.84375 18.96875 z" transform="scale(0.28222223,0.28222223)"/><path id="path98" fill="#f9f9f9" fill-opacity="1" d="m 8.5900426,8.6597968 c -0.228191,0.9246075 -1.4215994,2.8761902 -1.7560743,2.8761902 -0.326094,0 -1.6274524,-1.8953008 -1.9912694,-2.7887351 -0.033915,0.0953 -0.050235,0.1874304 -0.04437,0.2724027 0.04165,0.6030116 1.7105229,3.1158864 2.0859509,3.1158864 0.3756319,0 1.8357278,-2.4626601 1.7939078,-3.1662412 -0.00595,-0.1011073 -0.037655,-0.2052967 -0.088136,-0.309503 z"/></svg>