<svg xmlns="http://www.w3.org/2000/svg" xmlns:svg="http://www.w3.org/2000/svg" xmlns:xlink="http://www.w3.org/1999/xlink" id="svg2" width="48" height="48" version="1.1" viewBox="0 0 13.547 13.547"><metadata id="metadata42"/><defs id="defs4"><linearGradient id="0"><stop id="stop7" stop-color="#117311"/><stop id="stop9" offset="1" stop-color="#27a427"/></linearGradient><linearGradient id="1" x2="0" y1="1050.36" y2="1006.36" gradientTransform="matrix(0.28222223,0,0,0.28222223,0,-283.45334)" gradientUnits="userSpaceOnUse" xlink:href="#0"/><radialGradient id="radialGradient3012" cx="148.004" cy="160" r="128" gradientTransform="matrix(0.05167489,0,0,0.05167489,-0.87510811,-1.4947608)" gradientUnits="userSpaceOnUse" xlink:href="#radial0"/><radialGradient id="radial0" cx="148.004" cy="160" r="128" gradientTransform="matrix(0.1831,0,0,0.1831,-3.10029,-5.29688)" gradientUnits="userSpaceOnUse"><stop id="stop7-6" offset="0" stop-color="#b7f29d" stop-opacity="1"/><stop id="stop9-6" offset="1" stop-color="#00b700" stop-opacity="1"/></radialGradient><radialGradient id="radialGradient3009" cx="148.004" cy="160" r="128" gradientTransform="matrix(0.05167489,0,0,0.05167489,-0.87510811,-1.4947611)" gradientUnits="userSpaceOnUse" xlink:href="#radial0"/></defs><path id="path11" fill="url(#radialGradient3009)" d="m 13.38778,3.2589209 0,7.0290971 c 0,2.892777 0,3.100035 -3.100035,3.100035 l -7.027995,0 c -3.10113711,0 -3.10113711,-0.207258 -3.10113711,-3.100035 l 0,-7.0290971 c 0,-2.89277789 0,-3.10003479 3.10113711,-3.10003479 l 7.027995,0 c 3.100035,0 3.100035,0.2072569 3.100035,3.10003479 z"/><path id="path15" fill="#fff" fill-opacity=".051" d="m 10.799273,13.388053 c 0.717682,-0.0033 1.235825,-0.02315 1.611753,-0.124575 l -1.193932,-2.046111 -1.2655902,2.170686 0.3362412,0 c 0.180799,0 0.350573,0 0.511528,0 z M 11.217094,11.217367 9.7707049,8.7368984 8.3232139,11.217367 z m 0,0 2.159662,0 c 0.0088,-0.274505 0.01102,-0.582083 0.01102,-0.930451 l 0,-0.3097833 -0.723194,-1.2402343 z M 12.664586,8.7368984 11.217094,6.2564297 9.7707049,8.7368984 z m 0,0 0.723194,0 0,-1.2402343 z m -2.8938811,0 L 8.3232139,6.2564297 6.876825,8.7368984 z m -2.8938799,0 -1.4474922,2.4804686 2.8938811,0 z m 0,0 L 5.4293328,6.2564297 3.9829439,8.7368984 z m -2.8938811,0 -1.447491,2.4804686 2.8938799,0 z m 0,0 -1.447491,-2.4804687 -1.446389,2.4804687 z m -2.89388,0 -0.93045101,1.5941136 c 0,0.329628 0.0033,0.623977 0.01102,0.886355 l 2.36581601,0 z m 0,0 -0.93045101,-1.5941145 0,1.5941145 z m 1.446389,2.4804686 -1.217083,2.086901 c 0.450894,0.08268 1.07487,0.08379 1.940278,0.08379 l 0.543498,0 z m 0,-4.9609373 -1.446389,-2.4804689 -0.93045101,1.5941147 0,0.8863542 z m 0,0 2.8938799,0 L 3.9829439,3.7759608 z M 3.9829439,3.7759608 2.5354529,1.2954922 1.0890639,3.7759608 z m 0,0 2.8938811,0 L 5.4293328,1.2954922 z M 5.4293328,1.2954922 4.76567,0.15888611 l -1.5070221,0 c -0.020949,0 -0.03858,0 -0.05953,0 L 2.5354539,1.2954922 z m 0,0 2.8938811,0 -0.6636631,-1.13660609 -1.5665538,0 z m 2.8938811,0 2.8938801,0 -0.663663,-1.13660609 c -0.0882,0 -0.171979,0 -0.266788,0 l -1.299766,0 z m 0,0 -1.4463889,2.4804686 2.8938799,0 z m 1.447491,2.4804686 2.8938811,0 -1.447492,-2.4804686 z m 0,0 -1.447491,2.4804689 2.8938801,0 z m 1.4463891,2.4804689 2.170686,0 0,-1.2402343 -0.723194,-1.2402346 z m 1.447492,-2.4804689 0.723194,0 0,-0.5170399 c 0,-0.2579689 -0.0022,-0.4938889 -0.0066,-0.71217 z M 8.3232139,6.2564297 6.876825,3.7759608 5.4293328,6.2564297 z m 2.8938801,-4.9609375 2.062648,0 C 13.123197,0.51717591 12.747268,0.27133411 11.859811,0.19416381 z m -8.6816411,0 -0.650434,-1.11565989 C 0.85204189,0.23826131 0.43421989,0.46095191 0.26665089,1.2954922 z M 1.0890639,3.7759608 0.17514889,2.2083047 c -0.01213,0.3031684 -0.01654,0.6515362 -0.01654,1.0506162 l 0,0.5170399 z m 4.3402689,7.4414062 -1.26559,2.170686 2.532283,0 z m 2.8938811,0 -1.2655909,2.170686 2.5322838,0 z m -7.59133701,1.86862 -0.451997,-0.775009 c 0.08268,0.371519 0.221589,0.615157 0.451997,0.775009 z"/><g id="g28" fill="#f9f9f9" transform="matrix(0.85569549,0.05579236,-0.04122745,0.84085352,4.4061774,-238.16842)"><path id="path30" fill-rule="evenodd" d="m 18.875883,286.46188 c 0.677124,0.39093 1.097897,0.9723 1.050135,1.39967 l -2.762727,-1.59506 c -0.0084,-0.005 -0.01699,-0.009 -0.02557,-0.0135 0.345873,-0.2559 1.060412,-0.18244 1.738165,0.20887 z"/><rect id="rect32" width=".999" height="5.112" x="-161.22" y="239.5" fill-rule="evenodd" rx=".398" transform="matrix(-0.86602566,-0.49999956,-0.49999956,0.86602566,0,0)"/><rect id="rect34" width=".999" height="5.112" x="-160.08" y="239.5" fill-rule="evenodd" rx=".398" transform="matrix(-0.86602566,-0.49999956,-0.49999956,0.86602566,0,0)"/><rect id="rect36" width=".999" height="5.112" x="-158.94" y="239.5" fill-rule="evenodd" rx=".398" transform="matrix(-0.86602566,-0.49999956,-0.49999956,0.86602566,0,0)"/><path id="path38" fill-rule="evenodd" d="m -119.50798,657.3724 c 4.83364,-8.37211 478.53026,-8.37212 483.3639,-10e-6 4.83364,8.3721 -232.01466,418.60541 -241.68194,418.60541 -9.66728,0 -246.5156,-410.2333 -241.68196,-418.6054 z" transform="matrix(-0.00582634,-0.00336384,-0.00355544,0.00615821,18.856482,288.16313)"/></g></svg>