<svg xmlns="http://www.w3.org/2000/svg" xmlns:svg="http://www.w3.org/2000/svg" xmlns:xlink="http://www.w3.org/1999/xlink" id="svg2" width="48" height="48" version="1.1" viewBox="0 0 13.547 13.547"><metadata id="metadata40"/><defs id="defs4"><linearGradient id="0"><stop id="stop7" stop-color="#282828"/><stop id="stop9" offset="1" stop-color="#464646"/></linearGradient><linearGradient id="1" x2="0" y1="1050.36" y2="1006.36" gradientTransform="matrix(0.28222223,0,0,0.28222223,0,-283.45334)" gradientUnits="userSpaceOnUse" xlink:href="#0"/><radialGradient id="radialGradient3017" cx="148.004" cy="160" r="128" gradientTransform="matrix(0.1831,0,0,0.1831,-3.10079,-5.296398)" gradientUnits="userSpaceOnUse" spreadMethod="pad" xlink:href="#linearGradient4460"/><linearGradient id="linearGradient4460"><stop id="stop8-6" offset="0" stop-color="#747474" stop-opacity="1"/><stop id="stop10-2" offset="1" stop-color="#2d2d2d" stop-opacity="1"/></linearGradient><radialGradient id="radialGradient3055" cx="148.004" cy="160" r="128" gradientTransform="matrix(0.05167489,0,0,0.05167489,-0.87510911,-1.4947616)" gradientUnits="userSpaceOnUse" spreadMethod="pad" xlink:href="#linearGradient4460"/></defs><path id="path11" fill="url(#radialGradient3055)" fill-opacity="1" d="m 13.387779,3.2589204 0,7.0290976 c 0,2.892778 0,3.100035 -3.100035,3.100035 l -7.0279949,0 c -3.10113721,0 -3.10113721,-0.207257 -3.10113721,-3.100035 l 0,-7.0290976 c 0,-2.89277779 0,-3.10003479 3.10113721,-3.10003479 l 7.0279949,0 c 3.100035,0 3.100035,0.207257 3.100035,3.10003479 z"/><path id="path15" fill="#fff" fill-opacity=".051" d="m 10.799272,13.388053 c 0.717682,-0.0033 1.235825,-0.02315 1.611753,-0.124575 l -1.193932,-2.046111 -1.2655902,2.170686 0.3362412,0 c 0.180799,0 0.350573,0 0.511528,0 z M 11.217093,11.217367 9.7707042,8.7368979 8.3232129,11.217367 z m 0,0 2.159662,0 c 0.0088,-0.274505 0.01102,-0.582083 0.01102,-0.930451 l 0,-0.3097838 -0.723193,-1.2402343 z M 12.664585,8.7368979 11.217093,6.2564292 9.7707042,8.7368979 z m 0,0 0.723194,0 0,-1.2402343 z m -2.8938808,0 L 8.3232129,6.2564292 6.876824,8.7368979 z m -2.8938802,0 -1.4474916,2.4804691 2.8938805,0 z m 0,0 L 5.4293324,6.2564292 3.9829435,8.7368979 z m -2.8938805,0 -1.4474913,2.4804691 2.8938802,0 z m 0,0 L 2.5354522,6.2564292 1.0890634,8.7368979 z m -2.8938801,0 -0.93045151,1.5941151 c 0,0.329627 0.0033,0.623976 0.01102,0.886354 l 2.36581581,0 z m 0,0 -0.93045151,-1.5941145 0,1.5941145 z m 1.4463888,2.4804691 -1.2170833,2.086901 c 0.450894,0.08268 1.0748699,0.08379 1.9413802,0.08379 l 0.5423958,0 z m 0,-4.9609378 -1.4463888,-2.4804689 -0.93045151,1.5941147 0,0.8863542 z m 0,0 2.8938802,0 L 3.9829435,3.7759603 z M 3.9829435,3.7759603 2.5354522,1.2954916 1.0890634,3.7759603 z m 0,0 2.8938805,0 -1.4474916,-2.4804687 z m 1.4463889,-2.4804687 -0.663663,-1.13660599 -1.5059203,0 c -0.02205,0 -0.039688,0 -0.060634,0 L 2.5354522,1.2954916 z m 0,0 2.8938805,0 -0.6636633,-1.13660599 -1.5665538,0 z m 2.8938805,0 2.8938801,0 -0.663663,-1.13660599 c -0.0882,0 -0.171979,0 -0.265686,0 l -1.300868,0 z m 0,0 -1.4463889,2.4804687 2.8938802,0 z m 1.4474913,2.4804687 2.8938808,0 -1.447492,-2.4804687 z m 0,0 -1.4474913,2.4804689 2.8938801,0 z m 1.4463888,2.4804689 2.170686,0 0,-1.2402343 -0.723194,-1.2402346 z m 1.447492,-2.4804689 0.723194,0 0,-0.5170399 c 0,-0.2579689 -0.0022,-0.4938888 -0.0066,-0.71217 z M 8.3232129,6.2564292 6.876824,3.7759603 5.4293324,6.2564292 z m 2.8938801,-4.9609376 2.062648,0 C 13.123196,0.51717551 12.747267,0.27133371 11.85981,0.19416341 z m -8.6816408,0 L 1.8850183,0.17983191 C 0.85204089,0.23826091 0.43421989,0.46095151 0.26664989,1.2954916 z M 1.0890634,3.7759603 0.17514889,2.2083042 c -0.01213,0.3031684 -0.01654,0.6515363 -0.01654,1.0506162 l 0,0.5170399 z m 4.340269,7.4414067 -1.2655903,2.170686 2.532283,0 z m 2.8938805,0 -1.2655906,2.170686 2.5322833,0 z m -7.59133701,1.86862 -0.451996,-0.775009 c 0.08268,0.371519 0.221588,0.615157 0.451996,0.775009 z"/><path id="path30" fill="#f9f9f9" fill-opacity="1" d="m 6.773334,5.3622177 -1.128889,2.2577778 2.257778,0 -1.128889,-2.2577778 z m 0,0.7744576 0.564445,1.1288889 -1.128889,0 0.564444,-1.1288889 z"/><g id="g32" fill="#f9f9f9" color="#000"><path id="path34" d="m 4.7977779,3.4580984 0,0.6729177 -0.5644449,-0.012347 0,0.6640216 0.5644449,0.015087 0,3.9511117 -0.5644449,-0.00963 0,0.6640446 0.5644449,0.012347 0,0.4280183 -0.2822222,0 0.4233333,0.5985527 0.4233334,-0.5985527 -0.2822223,0 0,-0.4280178 1.9755554,-0.012347 c 1.5634805,-0.00977 2.8222221,-1.1784864 2.8222221,-2.6423292 0,-1.4638427 -1.2587111,-2.6423062 -2.8222221,-2.6423062 l -1.9755556,0.012268 0,-0.6729177 z m 0.2822224,1.3396798 1.9755556,-0.015087 c 1.1829313,-0.00903 2.1129918,0.8707231 2.1129918,1.9782846 0,1.1075615 -0.930026,1.9782846 -2.1129918,1.9782846 l -1.9755556,0.00963 z"/><rect id="rect36" width=".564" height=".564" x="4.657" y="3.104"/></g></svg>