<svg xmlns="http://www.w3.org/2000/svg" xmlns:svg="http://www.w3.org/2000/svg" xmlns:xlink="http://www.w3.org/1999/xlink" id="svg2" width="48" height="48" version="1.1" viewBox="0 0 13.547 13.547"><metadata id="metadata32"/><defs id="defs4"><linearGradient id="0"><stop id="stop7" stop-color="#e7e7e7"/><stop id="stop9" offset="1" stop-color="#f9f9f9"/></linearGradient><linearGradient id="1" x2="0" y1="1050.36" y2="1006.36" gradientTransform="matrix(0.28222223,0,0,0.28222223,0,-283.45334)" gradientUnits="userSpaceOnUse" xlink:href="#0"/><radialGradient id="radialGradient3055" cx="148.004" cy="160" r="128" gradientTransform="matrix(0.05167489,0,0,0.05167489,-0.87510911,-1.4947616)" gradientUnits="userSpaceOnUse" spreadMethod="pad" xlink:href="#linearGradient4460"/><linearGradient id="linearGradient4460"><stop id="stop8-6" offset="0" stop-color="#747474" stop-opacity=".75"/><stop id="stop10-2" offset="1" stop-color="#2d2d2d" stop-opacity=".76"/></linearGradient><radialGradient id="radialGradient3012" cx="148.004" cy="160" r="128" gradientTransform="matrix(0.05167489,0,0,0.05167489,-0.87510911,-1.4947611)" gradientUnits="userSpaceOnUse" spreadMethod="pad" xlink:href="#linearGradient4460"/></defs><path id="path11" fill="url(#radialGradient3012)" fill-opacity="1" d="m 13.387778,3.2589209 0,7.0290971 c 0,2.892778 0,3.100035 -3.100035,3.100035 l -7.0279936,0 c -3.10113751,0 -3.10113751,-0.207257 -3.10113751,-3.100035 l 0,-7.0290971 c 0,-2.89277779 0,-3.10003479 3.10113751,-3.10003479 l 7.0279936,0 c 3.100035,0 3.100035,0.207257 3.100035,3.10003479 z"/><path id="path15" fill="#fff" fill-opacity=".051" d="m 10.799271,13.388053 c 0.717682,-0.0033 1.235825,-0.02315 1.611753,-0.124575 l -1.193932,-2.04611 -1.2655896,2.170685 0.3362406,0 c 0.180799,0 0.350573,0 0.511528,0 z M 11.217092,11.217368 9.7707044,8.7368984 8.3232134,11.217368 z m 0,0 2.159662,0 c 0.0088,-0.274506 0.01102,-0.582084 0.01102,-0.930452 l 0,-0.3097833 -0.723193,-1.2402343 z M 12.664584,8.7368984 11.217092,6.2564297 9.7707044,8.7368984 z m 0,0 0.723194,0 0,-1.2402343 z m -2.8938796,0 -1.447491,-2.4804687 -1.446389,2.4804687 z m -2.89388,0 -1.447492,2.4804696 2.893881,0 z m 0,0 -1.447492,-2.4804687 -1.446389,2.4804687 z m -2.893881,0 -1.447491,2.4804696 2.89388,0 z m 0,0 -1.447491,-2.4804687 -1.446389,2.4804687 z m -2.89388,0 -0.93045151,1.5941146 c 0,0.329627 0.0033,0.623976 0.01102,0.886355 l 2.36581551,0 z m 0,0 -0.93045151,-1.5941145 0,1.5941145 z m 1.446389,2.4804696 -1.217084,2.0869 c 0.450894,0.08268 1.07487,0.08379 1.941381,0.08379 l 0.542396,0 z m 0,-4.9609383 -1.446389,-2.4804689 -0.93045151,1.5941147 0,0.8863542 z m 0,0 2.89388,0 -1.446389,-2.4804689 z M 3.9829434,3.7759608 2.5354524,1.2954921 1.0890634,3.7759608 z m 0,0 2.893881,0 -1.447492,-2.4804687 z m 1.446389,-2.4804687 -0.663663,-1.13660599 -1.50592,0 c -0.02205,0 -0.03969,0 -0.06063,0 L 2.5354564,1.2954921 z m 0,0 2.893881,0 -0.663664,-1.13660599 -1.566554,0 z m 2.893881,0 2.8938786,0 -0.663663,-1.13660599 c -0.0882,0 -0.171979,0 -0.265686,0 l -1.3008666,0 z m 0,0 -1.446389,2.4804687 2.89388,0 z m 1.447491,2.4804687 2.8938796,0 -1.447492,-2.4804687 z m 0,0 -1.447491,2.4804689 2.8938786,0 z m 1.4463876,2.4804689 2.170686,0 0,-1.2402343 -0.723194,-1.2402346 z m 1.447492,-2.4804689 0.723194,0 0,-0.5170399 c 0,-0.2579689 -0.0022,-0.4938888 -0.0066,-0.71217 z M 8.3232134,6.2564297 6.8768244,3.7759608 5.4293324,6.2564297 z m 2.8938786,-4.9609376 2.062648,0 C 13.123195,0.51717601 12.747266,0.27133421 11.859809,0.19416391 z m -8.6816396,0 -0.650434,-1.11565969 C 0.85204089,0.23826141 0.43421989,0.46095201 0.26664989,1.2954921 z M 1.0890634,3.7759608 0.17514889,2.2083047 c -0.01213,0.3031684 -0.01654,0.6515363 -0.01654,1.0506162 l 0,0.5170399 z m 4.340269,7.4414072 -1.26559,2.170685 2.532283,0 z m 2.893881,0 -1.265591,2.170685 2.532283,0 z m -7.59133751,1.868619 -0.451996,-0.775009 c 0.08268,0.371519 0.221588,0.615157 0.451996,0.775009 z"/><path id="path28" fill="#f9f9f9" fill-opacity="1" d="m 10.16,9.1216125 q 0,0.56186 -0.3822048,0.9412395 -0.3822052,0.37937 -0.948264,0.37937 -0.653145,0 -1.1369538,-0.4802195 L 3.9333722,6.2354829 q -0.5467055,-0.55225 -0.5467055,-1.3014 0,-0.76355 0.5321878,-1.29659 0.5321977,-0.53305 1.301454,-0.53305 0.7644204,0 1.3207974,0.54265 l 2.9270524,2.91014 q 0.048358,0.048 0.048358,0.10565 0,0.0768 -0.147564,0.2233 -0.1475554,0.14647 -0.2249688,0.14647 -0.062866,0 -0.111276,-0.048 l -2.9318879,-2.91494 q -0.3822051,-0.36977 -0.8756957,-0.36977 -0.5128342,0 -0.866024,0.36016 -0.3531799,0.36017 -0.3531799,0.8692 0,0.50423 0.3676975,0.8692 l 3.7543694,3.7313196 q 0.304801,0.30254 0.7015237,0.30254 0.3096369,0 0.5128343,-0.20169 0.2031972,-0.2017 0.2031972,-0.50904 0,-0.3937796 -0.3048011,-0.6963196 l -2.8109309,-2.79008 q -0.1257926,-0.11526 -0.2902833,-0.11526 -0.1403108,0 -0.2322327,0.0913 -0.091882,0.0912 -0.091882,0.2305 0,0.15367 0.1209566,0.28333 l 1.9836142,1.96891 q 0.048358,0.048 0.048358,0.10565 0,0.0768 -0.1499828,0.2257 -0.1499726,0.14887 -0.2273868,0.14887 -0.05803,0 -0.10644,-0.048 l -1.9836141,-1.96891 q -0.304801,-0.29293 -0.304801,-0.71553 0,-0.39378 0.2757656,-0.66751 0.2757756,-0.27372 0.6724984,-0.27372 0.4257481,0 0.7208773,0.30254 l 2.8109311,2.79008 q 0.4838084,0.47062 0.4838084,1.1285196 z"/></svg>