<svg xmlns="http://www.w3.org/2000/svg" xmlns:svg="http://www.w3.org/2000/svg" xmlns:xlink="http://www.w3.org/1999/xlink" id="svg2" width="48" height="48" version="1.1" viewBox="0 0 48 48"><metadata id="metadata42"/><defs id="defs4"><linearGradient id="0"><stop id="stop7" stop-color="#cc9f52"/><stop id="stop9" offset="1" stop-color="#e18559"/></linearGradient><linearGradient id="1" x2="0" y1="1053.16" y2="1004.85" gradientTransform="matrix(0.625,0,0,0.625,10,384.63598)" gradientUnits="userSpaceOnUse" xlink:href="#0"/><linearGradient id="2"><stop id="stop13" stop-color="#e7e7e7"/><stop id="stop15" offset="1" stop-color="#f9f9f9"/></linearGradient><linearGradient id="3" x1="3" x2="47" gradientTransform="translate(-1052.3622,-1002.3622)" gradientUnits="userSpaceOnUse" xlink:href="#2"/><radialGradient id="radial0" cx="148.004" cy="160" r="128" gradientTransform="matrix(0.1831,0,0,0.1831,-3.10029,-5.29688)" gradientUnits="userSpaceOnUse"><stop id="stop7-1" offset="0" stop-color="#f2c900" stop-opacity="1"/><stop id="stop9-0" offset="1" stop-color="#db9600" stop-opacity="1"/></radialGradient><radialGradient id="radialGradient3006" cx="148.004" cy="160" r="128" gradientTransform="matrix(0.1831,0,0,0.1831,-3.10079,-5.29638)" gradientUnits="userSpaceOnUse" xlink:href="#radial0"/><linearGradient id="linearGradient3036" x1="3" x2="47" gradientTransform="translate(-1052.3622,-1002.3622)" gradientUnits="userSpaceOnUse" xlink:href="#2"/><linearGradient id="linearGradient3038" x2="0" y1="1053.16" y2="1004.85" gradientTransform="matrix(0.625,0,0,0.625,10,384.63598)" gradientUnits="userSpaceOnUse" xlink:href="#0"/><linearGradient id="linearGradient3042" x2="0" y1="1053.16" y2="1004.85" gradientTransform="matrix(0.625,0,0,0.625,9,-618.72401)" gradientUnits="userSpaceOnUse" xlink:href="#0"/><linearGradient id="linearGradient3045" x1="3" x2="47" gradientTransform="translate(-48,-1002.3622)" gradientUnits="userSpaceOnUse" xlink:href="#2"/></defs><path id="path11" fill="url(#radialGradient3006)" d="m 47.437,11.547375 0,24.90625 c 0,10.25 0,10.984375 -10.984375,10.984375 l -24.902344,0 C 0.562,47.438 0.562,46.703625 0.562,36.453625 l 0,-24.90625 c 0,-10.25 0,-10.984375 10.988281,-10.984375 l 24.902344,0 C 47.437,0.563 47.437,1.297375 47.437,11.547375 z"/><path id="path13" fill="#fff" fill-opacity=".051" d="m 38.265125,47.438 c 2.542969,-0.01172 4.378906,-0.08203 5.710937,-0.441406 l -4.230468,-7.25 -4.484375,7.691406 1.191406,0 c 0.640625,0 1.242187,0 1.8125,0 z m 1.480469,-7.691406 -5.125,-8.789063 -5.128906,8.789063 z m 0,0 7.652344,0 c 0.03125,-0.972656 0.03906,-2.0625 0.03906,-3.296875 l 0,-1.097657 -2.5625,-4.394531 z m 5.128906,-8.789063 -5.128906,-8.789062 -5.125,8.789062 z m 0,0 2.5625,0 0,-4.394531 z m -10.253906,0 -5.128906,-8.789062 -5.125,8.789062 z m -10.253906,0 -5.128907,8.789063 10.253907,0 z m 0,0 -5.128907,-8.789062 -5.125,8.789062 z m -10.253907,0 -5.1289061,8.789063 10.2539061,0 z m 0,0 -5.1289061,-8.789062 -5.1249999,8.789062 z m -10.253906,0 L 0.562,36.605969 c 0,1.167969 0.01172,2.210937 0.03906,3.140625 l 8.3828129,0 z m 0,0 -3.296875,-5.648437 0,5.648437 z m 5.1249999,8.789063 -4.3124999,7.394531 c 1.5976559,0.292969 3.8085939,0.296875 6.875,0.296875 l 1.925781,0 z m 0,-17.578125 L 3.858875,13.379406 0.562,19.027844 l 0,3.140625 z m 0,0 10.2539061,0 -5.125,-8.789063 z M 14.112781,13.379406 8.9838749,4.5903437 3.858875,13.379406 z m 0,0 10.253907,0 -5.128907,-8.7890623 z m 5.125,-8.7890623 L 16.886219,0.563 l -5.339844,0 c -0.07422,0 -0.136719,0 -0.210937,0 L 8.9838749,4.5903437 z m 0,0 10.253907,0 L 27.140125,0.563 l -5.550781,0 z m 10.253907,0 10.253906,0 L 37.394031,0.563 c -0.3125,0 -0.609375,0 -0.941406,0 l -4.609375,0 z m 0,0 -5.125,8.7890623 10.253906,0 z m 5.128906,8.7890623 10.253906,0 -5.128906,-8.7890623 z m 0,0 -5.128906,8.789063 10.253906,0 z m 5.125,8.789063 7.691406,0 0,-4.394531 -2.5625,-4.394532 z m 5.128906,-8.789063 2.5625,0 0,-1.832031 c 0,-0.914063 -0.0078,-1.7500003 -0.02344,-2.5234373 z m -15.382812,8.789063 -5.125,-8.789063 -5.128907,8.789063 z m 10.253906,-17.5781253 7.308594,0 C 46.4995,1.8325307 45.167469,0.961438 42.022938,0.688 z m -30.7617191,0 L 6.6791879,0.637219 C 3.019031,0.84425 1.538562,1.6333117 0.944812,4.5903437 z M 3.858875,13.379406 0.620594,7.8247187 c -0.04297,1.074219 -0.05859,2.3085933 -0.05859,3.7226563 l 0,1.832031 z m 15.378906,26.367188 -4.484375,7.691406 8.972656,0 z m 10.253907,0 -4.484376,7.691406 8.972657,0 z M 2.59325,46.367688 0.991688,43.621594 C 1.284656,44.938 1.776844,45.801281 2.59325,46.367688 z"/><path id="rect36" fill="#f9f9f9" fill-opacity="1" d="M 24 9 C 15.69 9 9 15.69 9 24 C 9 32.31 15.69 39 24 39 C 32.31 39 39 32.31 39 24 C 39 15.69 32.31 9 24 9 z M 24 15.4375 C 28.736146 15.4375 32.5625 19.2702 32.5625 24 C 32.5625 28.7298 28.736146 32.5625 24 32.5625 C 19.263854 32.5625 15.4375 28.7298 15.4375 24 C 15.4375 19.2702 19.263854 15.4375 24 15.4375 z M 28.6875 18.96875 L 28.75 22.0625 L 27.90625 22.3125 L 26.46875 19.59375 C 25.108299 21.62585 25.630948 23.6266 27.90625 24.1875 L 29.1875 29.03125 L 30.96875 28.59375 L 29.6875 23.6875 C 31.279377 22.54 30.742204 19.59005 28.6875 18.96875 z M 24 22.40625 C 23.127552 22.40625 22.4375 23.1286 22.4375 24 C 22.4375 24.8712 23.127552 25.59375 24 25.59375 C 24.872448 25.59375 25.5625 24.8712 25.5625 24 C 25.5625 23.1286 24.872448 22.40625 24 22.40625 z"/></svg>