<svg xmlns="http://www.w3.org/2000/svg" xmlns:svg="http://www.w3.org/2000/svg" xmlns:xlink="http://www.w3.org/1999/xlink" id="svg2" width="48" height="48" version="1.1" viewBox="0 0 13.547 13.547"><metadata id="metadata4"/><defs id="defs6"><linearGradient id="linearGradient3004" x2="0" y1="279.1" y2="268.33" gradientTransform="matrix(1.10525,0,0,1.10525,-134.27874,-295.76183)" gradientUnits="userSpaceOnUse"><stop id="stop9" offset="0" stop-color="#ae2434"/><stop id="stop11" offset="1" stop-color="#d67038"/></linearGradient><linearGradient id="linearGradient3777" x2="0" y1="279.1" y2="268.33" gradientTransform="matrix(1.10525,0,0,1.10525,-134.27874,-295.76183)" gradientUnits="userSpaceOnUse" xlink:href="#linearGradient3004"/><linearGradient id="linearGradient3004-0" x2="0" y1="279.1" y2="268.33" gradientTransform="matrix(1.10525,0,0,1.10525,-134.27874,-295.76183)" gradientUnits="userSpaceOnUse"><stop id="stop2996" offset="0" stop-color="#ae2434"/><stop id="stop2998" offset="1" stop-color="#d67038"/></linearGradient><linearGradient id="B" x2="0" y1="1050.36" y2="1006.36" gradientTransform="translate(-78.066775,-887.05181)" gradientUnits="userSpaceOnUse" xlink:href="#0"/><linearGradient id="0"><stop id="stop7" stop-color="#c34141"/><stop id="stop9-3" offset="1" stop-color="#d76464"/></linearGradient><linearGradient id="linearGradient3027" x2="0" y1="1050.36" y2="1006.36" gradientTransform="matrix(0.28222223,0,0,0.28222223,6.7059175e-7,-283.45335)" gradientUnits="userSpaceOnUse" xlink:href="#linearGradient3004"/><linearGradient id="linearGradient3808" x2="0" y1="1050.36" y2="1006.36" gradientTransform="matrix(0.28222223,0,0,0.28222223,6.7059175e-7,-283.45335)" gradientUnits="userSpaceOnUse" xlink:href="#linearGradient3004"/><clipPath id="clipPath3810" clipPathUnits="userSpaceOnUse"><rect id="rect3812" width="12.418" height="12.418" x=".564" y=".564" fill="url(#linearGradient3814)" fill-opacity="1" rx="1.129"/></clipPath><linearGradient id="linearGradient3814" x2="0" y1="1050.36" y2="1006.36" gradientTransform="matrix(0.28222223,0,0,0.28222223,6.7059175e-7,-283.45335)" gradientUnits="userSpaceOnUse" xlink:href="#linearGradient3004"/><clipPath id="clipPath3816" clipPathUnits="userSpaceOnUse"><rect id="rect3818" width="12.418" height="12.418" x=".564" y=".564" fill="url(#linearGradient3820)" fill-opacity="1" rx="1.129"/></clipPath><linearGradient id="linearGradient3820" x2="0" y1="1050.36" y2="1006.36" gradientTransform="matrix(0.28222223,0,0,0.28222223,6.7059175e-7,-283.45335)" gradientUnits="userSpaceOnUse" xlink:href="#linearGradient3004"/><radialGradient id="radialGradient3190" cx="148.004" cy="160" r="128" gradientTransform="matrix(0.1831,0,0,0.1831,-3.10079,-5.2963804)" gradientUnits="userSpaceOnUse" xlink:href="#radial0"/><radialGradient id="radial0" cx="148.004" cy="160" r="128" gradientTransform="matrix(0.1831,0,0,0.1831,-3.10029,-5.29688)" gradientUnits="userSpaceOnUse"><stop id="stop154" offset="0" stop-color="#fdab9c"/><stop id="stop156" offset="1" stop-color="#c3280a"/></radialGradient><radialGradient id="radialGradient3048" cx="148.004" cy="160" r="128" gradientTransform="matrix(0.05167489,0,0,0.05167489,-0.87510911,-1.494479)" gradientUnits="userSpaceOnUse" xlink:href="#radial0"/><radialGradient id="radialGradient3038" cx="148.004" cy="160" r="128" gradientTransform="matrix(0.05167489,0,0,0.05167489,-0.87510911,-1.494479)" gradientUnits="userSpaceOnUse" xlink:href="#radial0"/><clipPath id="clipPath3040" clipPathUnits="userSpaceOnUse"><path id="path3042" fill="url(#radialGradient3044)" d="m 12.909394,3.5133249 0,6.5207931 c 0,2.683588 0,2.875858 -2.875858,2.875858 l -6.5197705,0 c -2.87688046,0 -2.87688046,-0.19227 -2.87688046,-2.875858 l 0,-6.5207931 c 0,-2.68358853 0,-2.87585788 2.87688046,-2.87585788 l 6.5197705,0 c 2.875858,0 2.875858,0.19226935 2.875858,2.87585788 z"/></clipPath><radialGradient id="radialGradient3044" cx="148.004" cy="160" r="128" gradientTransform="matrix(0.04793806,0,0,0.04793806,-0.32208314,-0.89659795)" gradientUnits="userSpaceOnUse" xlink:href="#radial0"/><clipPath id="clipPath3046" clipPathUnits="userSpaceOnUse"><path id="path3048" fill="url(#radialGradient3050)" d="m 12.909394,3.5133249 0,6.5207931 c 0,2.683588 0,2.875858 -2.875858,2.875858 l -6.5197705,0 c -2.87688046,0 -2.87688046,-0.19227 -2.87688046,-2.875858 l 0,-6.5207931 c 0,-2.68358853 0,-2.87585788 2.87688046,-2.87585788 l 6.5197705,0 c 2.875858,0 2.875858,0.19226935 2.875858,2.87585788 z"/></clipPath><radialGradient id="radialGradient3050" cx="148.004" cy="160" r="128" gradientTransform="matrix(0.04793806,0,0,0.04793806,-0.32208314,-0.89659795)" gradientUnits="userSpaceOnUse" xlink:href="#radial0"/></defs><path id="path158" fill="url(#radialGradient3048)" d="m 13.387779,3.2592031 0,7.0290969 c 0,2.892778 0,3.100035 -3.100035,3.100035 l -7.0279951,0 c -3.10113701,0 -3.10113701,-0.207257 -3.10113701,-3.100035 l 0,-7.0290969 c 0,-2.89277777 0,-3.10003477 3.10113701,-3.10003477 l 7.0279951,0 c 3.100035,0 3.100035,0.207257 3.100035,3.10003477 z"/><path id="path162" fill="#fff" fill-opacity=".051" d="m 10.799272,13.388335 c 0.717682,-0.0033 1.235825,-0.02315 1.611753,-0.124575 l -1.193932,-2.046111 -1.2655901,2.170686 0.3362411,0 c 0.180799,0 0.350573,0 0.511528,0 z M 11.217093,11.217649 9.7707043,8.7371806 8.323213,11.217649 z m 0,0 2.159662,0 c 0.0088,-0.274505 0.01102,-0.582083 0.01102,-0.930451 l 0,-0.3097831 -0.723194,-1.2402343 z M 12.664585,8.7371806 11.217093,6.2567119 9.7707043,8.7371806 z m 0,0 0.723194,0 0,-1.2402343 z m -2.8938807,0 L 8.323213,6.2567119 6.8768241,8.7371806 z m -2.8938802,0 -1.4474912,2.4804684 2.8938801,0 z m 0,0 -1.4474912,-2.4804687 -1.446389,2.4804687 z m -2.8938802,0 -1.447492,2.4804684 2.893881,0 z m 0,0 -1.447492,-2.4804687 -1.446388,2.4804687 z m -2.89388,0 -0.93045201,1.5941144 c 0,0.329627 0.0033,0.623976 0.01102,0.886354 l 2.36581601,0 z m 0,0 -0.93045201,-1.5941145 0,1.5941145 z m 1.446388,2.4804684 -1.217083,2.086901 c 0.450894,0.08268 1.07487,0.08379 1.94138,0.08379 l 0.542396,0 z m 0,-4.9609371 -1.446388,-2.4804689 -0.93045201,1.5941147 0,0.8863542 z m 0,0 2.893881,0 L 3.9829439,3.776243 z M 3.9829439,3.776243 2.5354519,1.2957743 1.0890639,3.776243 z m 0,0 2.8938802,0 -1.4474912,-2.4804687 z m 1.446389,-2.4804687 -0.663663,-1.13660597 -1.505921,0 c -0.02205,0 -0.03969,0 -0.06063,0 L 2.5354559,1.2957743 z m 0,0 2.8938801,0 -0.6636633,-1.13660597 -1.5665538,0 z m 2.8938801,0 2.89388,0 -0.663663,-1.13660597 c -0.0882,0 -0.171979,0 -0.265686,0 l -1.3008679,0 z m 0,0 -1.4463889,2.4804687 2.8938802,0 z m 1.4474913,2.4804687 2.8938807,0 -1.447492,-2.4804687 z m 0,0 -1.4474913,2.4804689 2.89388,0 z m 1.4463887,2.4804689 2.170686,0 0,-1.2402343 -0.723194,-1.2402346 z m 1.447492,-2.4804689 0.723194,0 0,-0.5170399 c 0,-0.2579689 -0.0022,-0.4938889 -0.0066,-0.71217 z M 8.323213,6.2567119 6.8768241,3.776243 5.4293329,6.2567119 z m 2.89388,-4.9609376 2.062648,0 C 13.123196,0.51745823 12.747267,0.27161643 11.85981,0.19444613 z m -8.6816411,0 -0.650433,-1.11565967 C 0.85204089,0.23854363 0.43421989,0.46123423 0.26664989,1.2957743 z M 1.0890639,3.776243 0.17514889,2.2085868 c -0.01213,0.3031685 -0.01654,0.6515364 -0.01654,1.0506163 l 0,0.5170399 z m 4.340269,7.441406 -1.265591,2.170686 2.5322833,0 z m 2.8938801,0 -1.2655906,2.170686 2.5322833,0 z m -7.59133711,1.86862 -0.451996,-0.775009 c 0.08268,0.371519 0.221588,0.615157 0.451996,0.775009 z"/><path font-size="medium" style="text-indent:0;text-align:start;line-height:normal;text-transform:none;block-progression:tb;marker:none;-inkscape-font-specification:Sans" id="path3000" fill="#ecf0f1" fill-opacity="1" stroke="none" stroke-width="2.198" d="m 11.711687,2.5631351 c -2.330296,0 -4.2328745,1.8995784 -4.2328745,4.2211625 0,2.3215844 1.9025785,4.1992344 4.2328745,4.1992344 0.445601,0 0.882937,-0.07397 1.286947,-0.201465 0.324319,-0.496854 0.581121,-1.0245722 0.778507,-1.5952702 -0.554658,0.46663 -1.277136,0.7441855 -2.065454,0.7441855 -1.7631477,0 -3.1856793,-1.3989187 -3.1856793,-3.1466847 0,-1.7477657 1.4225316,-3.1686129 3.1856793,-3.1686129 0.791772,0 1.516709,0.2828766 2.072344,0.75652 C 13.586195,3.7967443 13.324005,3.2665491 12.997256,2.7659702 12.593246,2.6375879 12.157288,2.5631351 11.711687,2.5631351 z" baseline-shift="baseline" clip-path="url(#clipPath3046)" color="#000" direction="ltr" display="inline" enable-background="accumulate" font-family="Sans" font-stretch="normal" font-style="normal" font-variant="normal" font-weight="normal" letter-spacing="normal" overflow="visible" text-anchor="start" text-decoration="none" transform="matrix(1.0779513,0,0,1.0779513,-0.52791917,-0.52799007)" visibility="visible" word-spacing="normal" writing-mode="lr-tb"/><path font-size="medium" style="text-indent:0;text-align:start;line-height:normal;text-transform:none;block-progression:tb;marker:none;-inkscape-font-specification:Sans" id="path3774" fill="#ecf0f1" fill-opacity="1" stroke="none" stroke-width="2.198" d="m 1.8349811,2.5631351 c -0.4456022,0 -0.87880401,0.070341 -1.28281423,0.1987235 -0.32674919,0.5005789 -0.59169529,1.0348857 -0.78953014,1.6103461 0.55563412,-0.4736434 1.28057197,-0.75652 2.07234437,-0.75652 1.7631491,0 3.1856782,1.4208472 3.1856782,3.1686129 0,1.747766 -1.4225291,3.1466847 -3.1856782,3.1466847 -0.788319,0 -1.50942001,-0.2748147 -2.06407703,-0.7414447 0.19738697,0.570698 0.45832245,1.0997864 0.78264068,1.5966414 0.40401021,0.127495 0.83583415,0.197353 1.28143635,0.197353 2.3302981,0 4.2328735,-1.87765 4.2328735,-4.1992344 0,-2.3215841 -1.9025754,-4.2211625 -4.2328735,-4.2211625 z" baseline-shift="baseline" clip-path="url(#clipPath3040)" color="#000" direction="ltr" display="inline" enable-background="accumulate" font-family="Sans" font-stretch="normal" font-style="normal" font-variant="normal" font-weight="normal" letter-spacing="normal" overflow="visible" text-anchor="start" text-decoration="none" transform="matrix(1.0779513,0,0,1.0779513,-0.52791917,-0.52799007)" visibility="visible" word-spacing="normal" writing-mode="lr-tb"/></svg>