<svg xmlns="http://www.w3.org/2000/svg" xmlns:svg="http://www.w3.org/2000/svg" xmlns:xlink="http://www.w3.org/1999/xlink" id="svg2" width="48" height="48" version="1.1" viewBox="0 0 13.547 13.547"><metadata id="metadata149"/><defs id="defs4"><clipPath id="clipPath6"><rect id="rect8" width="477.14" height="208.57" x="-830" y="1580.93" fill="#ff0"/></clipPath><clipPath id="clipPath10"><rect id="rect12" width="477.14" height="208.57" x="-830" y="1580.93" fill="#ff0"/></clipPath><clipPath id="clipPath14"><rect id="rect16" width="477.14" height="208.57" x="-830" y="1580.93" fill="#ff0"/></clipPath><clipPath id="clipPath18"><rect id="rect20" width="477.14" height="208.57" x="-830" y="1580.93" fill="#ff0"/></clipPath><clipPath id="clipPath22"><rect id="rect24" width="357.87" height="240.87" x="294.93" y="780.64" fill="red" transform="matrix(.99975 -.02255 .02255 .99975 0 0)"/></clipPath><clipPath id="clipPath26"><rect id="rect28" width="301.43" height="195" y="857.54" fill="#fff"/></clipPath><clipPath id="clipPath30"><rect id="rect32" width="477.14" height="208.57" x="-830" y="1580.93" fill="#ff0"/></clipPath><clipPath id="clipPath34"><rect id="rect36" width="79.48" height="30.01" x="276.37" y="977.09" fill="#e20a17"/></clipPath><clipPath id="clipPath38"><rect id="rect40" width="506.46" height="37.48" x="8.208" y=".064" fill="#162d50" transform="rotate(20.37582)"/></clipPath><clipPath id="clipPath42"><rect id="rect44" width="357.38" height="318.4" x="218.9" y="758.67" fill="#fff" transform="rotate(.22918)"/></clipPath><clipPath id="clipPath46"><rect id="rect48" width="357.38" height="318.4" x="218.9" y="758.67" fill="#fff" transform="rotate(.22918)"/></clipPath><clipPath id="clipPath50"><rect id="rect52" width="506.46" height="37.48" x="8.208" y=".064" fill="#162d50" transform="rotate(20.37582)"/></clipPath><clipPath id="clipPath54"><rect id="rect56" width="477.14" height="208.57" x="-830" y="1580.93" fill="#ff0"/></clipPath><clipPath id="clipPath58"><rect id="rect60" width="350.46" height="235.88" x="221.39" y="804.24" transform="rotate(.6171)"/></clipPath><clipPath id="clipPath62"><rect id="rect64" width="287.43" height="279.03" x="257.32" y="793.52" fill="#fff" transform="rotate(.16206)"/></clipPath><clipPath id="clipPath66"><rect id="rect68" width="301.43" height="195" y=".06" fill="#fff"/></clipPath><clipPath id="clipPath70"><rect id="rect72" width="301.43" height="195" y="857.54" fill="#fff"/></clipPath><path id="0" fill="#4a0" d="m 699.2857,672.93231 a 40.714287,40.714287 0 1 1 -81.42858,0 40.714287,40.714287 0 1 1 81.42858,0 z" clip-path="url(#2)"/><clipPath id="clipPath75"><use id="use77" transform="matrix(4.3233 0 0 4.3233 -2450.68 -2667.55)" xlink:href="#0"/></clipPath><clipPath id="clipPath79"><rect id="rect81" width="63.987" height="41.39" x="448.12" y="815.74" fill="#fff" transform="rotate(27.44968)"/></clipPath><clipPath id="clipPath83"><rect id="rect85" width="301.43" height="195" y="857.54" fill="#fff"/></clipPath><clipPath id="clipPath87"><rect id="rect89" width="477.14" height="208.57" x="-830" y="1580.93" fill="#ff0"/></clipPath><clipPath id="clipPath91"><rect id="rect93" width="477.14" height="208.57" x="-830" y="1580.93" fill="#ff0"/></clipPath><clipPath id="clipPath95"><rect id="rect97" width="477.14" height="208.57" x="-830" y="1580.93" fill="#ff0"/></clipPath><clipPath id="clipPath99"><rect id="rect101" width="477.14" height="208.57" x="-830" y="1580.93" fill="#ff0"/></clipPath><clipPath id="clipPath103"><rect id="rect105" width="477.14" height="208.57" x="-830" y="1580.93" fill="#ff0"/></clipPath><clipPath id="clipPath107"><use id="use109" xlink:href="#0"/></clipPath><clipPath id="clipPath111"><rect id="rect113" width="477.14" height="208.57" x="-830" y="1580.93" fill="#ff0"/></clipPath><path id="1" fill="#4a0" d="m 699.2857,672.93231 a 40.714287,40.714287 0 1 1 -81.42858,0 40.714287,40.714287 0 1 1 81.42858,0 z"/><clipPath id="2"><use id="use117" xlink:href="#1"/></clipPath><clipPath id="clipPath119"><use id="use121" transform="matrix(4.3233 0 0 4.3233 -2450.68 -2667.55)" xlink:href="#1"/></clipPath><radialGradient id="radialGradient3055" cx="148.004" cy="160" r="128" gradientTransform="matrix(0.05167489,0,0,0.05167489,-0.87510911,-1.4947616)" gradientUnits="userSpaceOnUse" spreadMethod="pad" xlink:href="#linearGradient4460"/><linearGradient id="linearGradient4460"><stop id="stop8-6" offset="0" stop-color="#747474" stop-opacity="1"/><stop id="stop10-2" offset="1" stop-color="#2d2d2d" stop-opacity="1"/></linearGradient><radialGradient id="radialGradient3012" cx="148.004" cy="160" r="128" gradientTransform="matrix(0.05167489,0,0,0.05167489,-0.87510911,-1.4947611)" gradientUnits="userSpaceOnUse" spreadMethod="pad" xlink:href="#linearGradient4460"/></defs><path id="path11" fill="url(#radialGradient3012)" fill-opacity="1" d="m 13.387778,3.2589209 0,7.0290971 c 0,2.892778 0,3.100035 -3.100034,3.100035 l -7.0279948,0 c -3.10113731,0 -3.10113731,-0.207257 -3.10113731,-3.100035 l 0,-7.0290971 c 0,-2.89277779 0,-3.10003479 3.10113731,-3.10003479 l 7.0279948,0 c 3.100034,0 3.100034,0.207257 3.100034,3.10003479 z"/><g id="g123" transform="matrix(0.28222223,0,0,0.28222223,0,-283.45334)"><path id="path125" d="M 5.1875,1 C 2.8707723,1 1,2.8707723 1,5.1875 l 0,37.625 C 1,45.129228 2.8707723,47 5.1875,47 l 37.625,0 C 45.129228,47 47,45.129228 47,42.8125 L 47,5.1875 C 47,2.8707723 45.129228,1 42.8125,1 L 5.1875,1 z m 0.1875,0.25 37.25,0 c 2.291546,0 4.125,1.8334541 4.125,4.125 l 0,37.25 c 0,2.291546 -1.833454,4.125 -4.125,4.125 l -37.25,0 C 3.0834541,46.75 1.25,44.916546 1.25,42.625 l 0,-37.25 C 1.25,3.0834541 3.0834541,1.25 5.375,1.25 z" opacity=".05" transform="translate(0,1004.3622)"/><path id="path127" d="M 5.375,1.25 C 3.0834541,1.25 1.25,3.0834541 1.25,5.375 l 0,37.25 c 0,2.291546 1.8334541,4.125 4.125,4.125 l 37.25,0 c 2.291546,0 4.125,-1.833454 4.125,-4.125 l 0,-37.25 C 46.75,3.0834541 44.916546,1.25 42.625,1.25 l -37.25,0 z m 0.21875,0.25 36.8125,0 C 44.672614,1.5 46.5,3.3273859 46.5,5.59375 l 0,36.8125 C 46.5,44.672614 44.672614,46.5 42.40625,46.5 l -36.8125,0 C 3.3273859,46.5 1.5,44.672614 1.5,42.40625 l 0,-36.8125 C 1.5,3.3273859 3.3273859,1.5 5.59375,1.5 z" opacity=".1" transform="translate(0,1004.3622)"/><path id="path129" d="M 5.59375,1.5 C 3.3273859,1.5 1.5,3.3273859 1.5,5.59375 l 0,36.8125 C 1.5,44.672614 3.3273859,46.5 5.59375,46.5 l 36.8125,0 C 44.672614,46.5 46.5,44.672614 46.5,42.40625 l 0,-36.8125 C 46.5,3.3273859 44.672614,1.5 42.40625,1.5 l -36.8125,0 z m 0.09375,0.125 36.625,0 c 2.253773,0 4.0625,1.8087269 4.0625,4.0625 l 0,36.625 c 0,2.253773 -1.808727,4.0625 -4.0625,4.0625 l -36.625,0 c -2.2537731,0 -4.0625,-1.808727 -4.0625,-4.0625 l 0,-36.625 C 1.625,3.4337269 3.4337269,1.625 5.6875,1.625 z" opacity=".2" transform="translate(0,1004.3622)"/><path id="path131" d="M 5.6875,1.625 C 3.4337269,1.625 1.625,3.4337269 1.625,5.6875 l 0,36.625 c 0,2.253773 1.8087269,4.0625 4.0625,4.0625 l 36.625,0 c 2.253773,0 4.0625,-1.808727 4.0625,-4.0625 l 0,-36.625 c 0,-2.2537731 -1.808727,-4.0625 -4.0625,-4.0625 l -36.625,0 z m 0.09375,0.125 36.4375,0 c 2.241182,0 4.03125,1.7900679 4.03125,4.03125 l 0,36.4375 c 0,2.241182 -1.790068,4.03125 -4.03125,4.03125 l -36.4375,0 C 3.5400679,46.25 1.75,44.459932 1.75,42.21875 l 0,-36.4375 C 1.75,3.5400679 3.5400679,1.75 5.78125,1.75 z" opacity=".3" transform="translate(0,1004.3622)"/><path id="path133" d="M 5.78125,1.75 C 3.5400679,1.75 1.75,3.5400679 1.75,5.78125 l 0,36.4375 c 0,2.241182 1.7900679,4.03125 4.03125,4.03125 l 36.4375,0 c 2.241182,0 4.03125,-1.790068 4.03125,-4.03125 l 0,-36.4375 C 46.25,3.5400679 44.459932,1.75 42.21875,1.75 l -36.4375,0 z m 0.125,0.125 36.1875,0 c 2.228591,0 4.03125,1.802659 4.03125,4.03125 l 0,36.1875 c 0,2.228591 -1.802659,4.03125 -4.03125,4.03125 l -36.1875,0 C 3.677659,46.125 1.875,44.322341 1.875,42.09375 l 0,-36.1875 C 1.875,3.677659 3.677659,1.875 5.90625,1.875 z" opacity=".4" transform="translate(0,1004.3622)"/><rect id="rect135" width="44.25" height="44.25" x="1.875" y="1006.24" opacity=".5" rx="4.02"/></g><path id="path15" fill="#fff" fill-opacity=".051" d="m 10.799272,13.388053 c 0.717681,-0.0033 1.235824,-0.02315 1.611752,-0.124575 l -1.193932,-2.04611 -1.2655891,2.170685 0.3362411,0 c 0.180799,0 0.350573,0 0.511528,0 z M 11.217092,11.217368 9.7707043,8.7368984 8.323213,11.217368 z m 0,0 2.159662,0 c 0.0088,-0.274506 0.01102,-0.582084 0.01102,-0.930452 l 0,-0.3097833 -0.723193,-1.2402343 z M 12.664584,8.7368984 11.217092,6.2564297 9.7707043,8.7368984 z m 0,0 0.723194,0 0,-1.2402343 z m -2.8938797,0 L 8.323213,6.2564297 6.8768241,8.7368984 z m -2.8938802,0 -1.4474916,2.4804696 2.8938805,0 z m 0,0 L 5.4293325,6.2564297 3.9829436,8.7368984 z m -2.8938805,0 -1.4474914,2.4804696 2.8938803,0 z m 0,0 L 2.5354522,6.2564297 1.0890634,8.7368984 z m -2.8938802,0 -0.93045151,1.5941146 c 0,0.329627 0.0033,0.623976 0.01102,0.886355 l 2.36581581,0 z m 0,0 -0.93045151,-1.5941145 0,1.5941145 z m 1.4463888,2.4804696 -1.2170833,2.0869 c 0.450894,0.08268 1.0748699,0.08379 1.9413803,0.08379 l 0.5423958,0 z m 0,-4.9609383 -1.4463888,-2.4804689 -0.93045151,1.5941147 0,0.8863542 z m 0,0 2.8938803,0 L 3.9829436,3.7759608 z M 3.9829436,3.7759608 2.5354522,1.2954921 1.0890634,3.7759608 z m 0,0 2.8938805,0 -1.4474916,-2.4804687 z m 1.4463889,-2.4804687 -0.663663,-1.13660599 -1.5059203,0 c -0.02205,0 -0.039688,0 -0.060634,0 L 2.5354522,1.2954921 z m 0,0 2.8938805,0 -0.6636633,-1.13660599 -1.5665538,0 z m 2.8938805,0 2.893879,0 -0.663662,-1.13660599 c -0.0882,0 -0.171979,0 -0.265686,0 l -1.3008679,0 z m 0,0 -1.4463889,2.4804687 2.8938802,0 z m 1.4474913,2.4804687 2.8938797,0 -1.447492,-2.4804687 z m 0,0 -1.4474913,2.4804689 2.893879,0 z m 1.4463877,2.4804689 2.170686,0 0,-1.2402343 -0.723194,-1.2402346 z m 1.447492,-2.4804689 0.723194,0 0,-0.5170399 c 0,-0.2579689 -0.0022,-0.4938888 -0.0066,-0.71217 z M 8.323213,6.2564297 6.8768241,3.7759608 5.4293325,6.2564297 z m 2.893879,-4.9609376 2.062648,0 C 13.123195,0.51717601 12.747266,0.27133421 11.859809,0.19416391 z m -8.6816398,0 L 1.8850183,0.17983241 C 0.8520409,0.23826141 0.43421989,0.46095201 0.26664989,1.2954921 z M 1.0890634,3.7759608 0.17514889,2.2083047 c -0.01213,0.3031684 -0.01654,0.6515363 -0.01654,1.0506162 l 0,0.5170399 z m 4.3402691,7.4414072 -1.2655903,2.170685 2.532283,0 z m 2.8938805,0 -1.2655906,2.170685 2.5322833,0 z M 0.7318759,13.085987 0.27987989,12.310978 c 0.08268,0.371519 0.221588,0.615157 0.45199601,0.775009 z"/><path id="path139" fill="#f9f9f9" d="m 4.0214131,3.530033 c -0.3411298,0 -0.6157576,0.2746279 -0.6157576,0.6157576 l 0,5.5418183 c 0,0.3411301 0.2746278,0.6157571 0.6157576,0.6157571 l 2.6025379,0 C 5.7888923,10.216647 5.1374737,9.4964069 5.1374737,8.6196539 c 0,-0.935202 0.7400729,-1.693333 1.6548485,-1.693333 0.00163,0 0.00318,-4.7e-6 0.00481,0 -0.0022,-0.00287 -0.0026,-0.00675 -0.00481,-0.00962 C 7.2355173,6.9292966 7.6823034,6.7594437 8.004595,6.4548815 8.3268863,6.1503192 8.5211676,5.7147862 8.5337616,5.2714724 8.5463559,4.8281588 8.3764242,4.3815775 8.0719435,4.0591997 7.7674629,3.7368218 7.3317294,3.5426305 6.8885343,3.530033 l -0.072159,0 -2.7949621,0 z m 2.7709091,1.2892424 c 0.2429098,0 0.4377652,0.1996661 0.4377652,0.4425758 0,0.2429098 -0.1948554,0.4377652 -0.4377652,0.4377652 -0.2429097,0 -0.4377652,-0.1948554 -0.4377652,-0.4377652 0,-0.2429097 0.1948555,-0.4425758 0.4377652,-0.4425758 z m 0,3.3241285 c -0.2429097,0 -0.4377652,0.194856 -0.4377652,0.437766 0,0.242909 0.1948555,0.442575 0.4377652,0.442575 0.2429098,0 0.4377652,-0.199666 0.4377652,-0.442575 0,-0.24291 -0.1948554,-0.437766 -0.4377652,-0.437766 z"/></svg>