<svg xmlns="http://www.w3.org/2000/svg" xmlns:svg="http://www.w3.org/2000/svg" xmlns:xlink="http://www.w3.org/1999/xlink" id="svg2" width="48" height="48" enable-background="new" version="1.1" viewBox="0 0 13.547 13.547"><metadata id="metadata90"/><defs id="defs4"><linearGradient id="0"><stop id="stop7" stop-color="#c6262e"/><stop id="stop9" offset="1" stop-color="#e35d4f"/></linearGradient><linearGradient id="1" x2="0" y1="299.81" y2="31.619" gradientTransform="matrix(0.11931818,0,0,0.11931818,414.13636,48.22727)" gradientUnits="userSpaceOnUse" xlink:href="#A"/><clipPath id="clipPath12"><rect id="rect14" width="30" height="30" x="417" y="53" fill="url(#1)" color="#bebebe" rx="7"/></clipPath><linearGradient id="2" x2="0" y1="302.86" y2="28.571" gradientTransform="matrix(0.0875,0,0,0.0875,414.9,97.5)" gradientUnits="userSpaceOnUse" xlink:href="#A"/><clipPath id="clipPath17"><rect id="rect19" width="22" height="22" x="417" y="101" fill="url(#2)" color="#bebebe" rx="5"/></clipPath><linearGradient id="3" x2="0" y1="124" y2="28" gradientUnits="userSpaceOnUse" xlink:href="#A"/><clipPath id="clipPath22"><rect id="rect24" width="88" height="88" x="292" y="32" fill="url(#3)" color="#bebebe" rx="18"/></clipPath><linearGradient id="4" x2="0" y1="204" y2="140" gradientUnits="userSpaceOnUse" xlink:href="#A"/><clipPath id="clipPath27"><rect id="rect29" width="60" height="60" x="290" y="142" fill="url(#4)" color="#bebebe" rx="12.5"/></clipPath><linearGradient id="5" x2="0" y1="280" y2="40" gradientTransform="translate(0,-4)" gradientUnits="userSpaceOnUse" xlink:href="#A"/><clipPath id="clipPath32"><rect id="rect34" width="220" height="220" x="34" y="46" fill="url(#5)" color="#bebebe" rx="50"/></clipPath><linearGradient id="6" x2="0" y1="280" y2="40" gradientTransform="matrix(0.06666667,0,0,0.06666667,302.4,209.33333)" gradientUnits="userSpaceOnUse" xlink:href="#A"/><clipPath id="clipPath37"><rect id="rect39" width="16" height="16" x="304" y="212" fill="url(#6)" color="#bebebe" rx="3" transform="matrix(0,1,-1,0,0,0)"/></clipPath><linearGradient id="7" x2="0" y1="291.43" y2="40" gradientTransform="matrix(0.11931818,0,0,0.11931818,430.13636,32.227267)" gradientUnits="userSpaceOnUse" xlink:href="#A"/><clipPath id="clipPath42"><rect id="rect44" width="30" height="30" x="433" y="37" fill="url(#7)" color="#bebebe" rx="6"/></clipPath><linearGradient id="8" x2="0" y1="291.43" y2="40" gradientTransform="matrix(0.0875,0,0,0.0875,430.9,81.499996)" gradientUnits="userSpaceOnUse" xlink:href="#A"/><clipPath id="clipPath47"><rect id="rect49" width="22" height="22" x="433" y="85" fill="url(#8)" color="#bebebe" rx="4"/></clipPath><linearGradient id="9" x2="0" y1="280" y2="40" gradientTransform="matrix(0.175,0,0,0.175,302.79999,215.99997)" gradientUnits="userSpaceOnUse" xlink:href="#A"/><clipPath id="clipPath52"><rect id="rect54" width="42" height="42" x="307" y="223" fill="url(#9)" color="#bebebe" rx="9" transform="matrix(0,1,-1,0,0,0)"/></clipPath><linearGradient id="A"><stop id="stop57" stop-color="#b94642"/><stop id="stop59" offset="1" stop-color="#c66a58"/></linearGradient><linearGradient id="B" x2="0" y1="1050.36" y2="1006.36" gradientTransform="translate(-78.066774,-887.05176)" gradientUnits="userSpaceOnUse" xlink:href="#0"/><radialGradient id="radialGradient3048" cx="148.004" cy="160" r="128" gradientTransform="matrix(0.05167489,0,0,0.05167489,-0.87510911,-1.494479)" gradientUnits="userSpaceOnUse" xlink:href="#radial0"/><radialGradient id="radial0" cx="148.004" cy="160" r="128" gradientTransform="matrix(0.1831,0,0,0.1831,-3.10029,-5.29688)" gradientUnits="userSpaceOnUse"><stop id="stop154" offset="0" stop-color="#fdab9c"/><stop id="stop156" offset="1" stop-color="#f44b2a" stop-opacity="1"/></radialGradient><radialGradient id="radialGradient3032" cx="148.004" cy="160" r="128" gradientTransform="matrix(0.05167489,0,0,0.05167489,-0.87510911,-1.4947608)" gradientUnits="userSpaceOnUse" xlink:href="#radial0"/><linearGradient id="linearGradient3086" x2="0" y1="1050.36" y2="1006.36" gradientTransform="translate(-78.066774,-887.05176)" gradientUnits="userSpaceOnUse" xlink:href="#0"/><linearGradient id="linearGradient3092" x2="0" y1="1050.36" y2="1006.36" gradientTransform="matrix(0.28222223,0,0,0.28222223,9.5281398e-7,-283.45333)" gradientUnits="userSpaceOnUse" xlink:href="#0"/></defs><path id="path158" fill="url(#radialGradient3032)" d="m 13.387779,3.2589213 0,7.0290967 c 0,2.892778 0,3.100035 -3.100035,3.100035 l -7.0279954,0 c -3.10113671,0 -3.10113671,-0.207257 -3.10113671,-3.100035 l 0,-7.0290967 c 0,-2.89277779 0,-3.10003479 3.10113671,-3.10003479 l 7.0279954,0 c 3.100035,0 3.100035,0.207257 3.100035,3.10003479 z"/><path id="path162" fill="#fff" fill-opacity=".051" d="m 10.799272,13.388053 c 0.717682,-0.0033 1.235825,-0.02315 1.611753,-0.124575 l -1.193932,-2.046111 -1.2655904,2.170686 0.3362414,0 c 0.180799,0 0.350573,0 0.511528,0 z M 11.217093,11.217367 9.7707046,8.7368991 8.3232126,11.217367 z m 0,0 2.159662,0 c 0.0088,-0.274505 0.01102,-0.582083 0.01102,-0.930451 l 0,-0.3097829 -0.723194,-1.240234 z m 1.447492,-2.4804679 -1.447492,-2.480469 -1.4463884,2.480469 z m 0,0 0.723194,0 0,-1.2402346 z m -2.8938804,0 -1.447492,-2.480469 -1.446388,2.480469 z m -2.89388,0 -1.447492,2.4804679 2.89388,0 z m 0,0 -1.447492,-2.480469 -1.446389,2.480469 z m -2.893881,0 -1.447492,2.4804679 2.893881,0 z m 0,0 -1.447492,-2.480469 -1.446388,2.480469 z m -2.89388,0 -0.93045171,1.5941139 c 0,0.329627 0.0033,0.623976 0.01102,0.886354 l 2.36581571,0 z m 0,0 -0.93045171,-1.5941148 0,1.5941148 z m 1.446388,2.4804679 -1.217083,2.086901 c 0.450894,0.08268 1.07487,0.08379 1.94138,0.08379 l 0.542396,0 z m 0,-4.9609369 -1.446388,-2.4804689 -0.93045171,1.5941147 0,0.8863542 z m 0,0 2.893881,0 -1.446389,-2.4804689 z M 3.9829436,3.7759612 2.5354516,1.2954925 1.0890636,3.7759612 z m 0,0 2.893881,0 -1.447492,-2.4804687 z m 1.446389,-2.4804687 -0.663663,-1.13660599 -1.505921,0 c -0.02205,0 -0.03969,0 -0.06063,0 L 2.5354556,1.2954925 z m 0,0 2.89388,0 -0.663663,-1.13660599 -1.566554,0 z m 2.89388,0 2.8938804,0 -0.663663,-1.13660599 c -0.0882,0 -0.171979,0 -0.265686,0 l -1.3008674,0 z m 0,0 -1.446388,2.4804687 2.89388,0 z m 1.447492,2.4804687 2.8938804,0 -1.447492,-2.4804687 z m 0,0 -1.447492,2.4804689 2.8938804,0 z m 1.4463884,2.4804689 2.170686,0 0,-1.2402343 -0.723194,-1.2402346 z m 1.447492,-2.4804689 0.723194,0 0,-0.5170399 c 0,-0.2579689 -0.0022,-0.4938889 -0.0066,-0.71217 z M 8.3232126,6.2564301 6.8768246,3.7759612 5.4293326,6.2564301 z m 2.8938804,-4.9609376 2.062648,0 C 13.123196,0.51717641 12.747267,0.27133461 11.85981,0.19416431 z m -8.6816414,0 -0.650433,-1.11565969 C 0.85204059,0.23826181 0.43421989,0.46095241 0.26664989,1.2954925 z M 1.0890636,3.7759612 0.17514889,2.208305 c -0.01213,0.3031685 -0.01654,0.6515364 -0.01654,1.0506163 l 0,0.5170399 z m 4.340269,7.4414058 -1.265591,2.170686 2.532284,0 z m 2.89388,0 -1.26559,2.170686 2.532283,0 z m -7.59133701,1.86862 -0.4519957,-0.775009 c 0.08268,0.371519 0.2215877,0.615157 0.4519957,0.775009 z"/><path id="rect82" fill="#f9f9f9" d="M 13 14 C 12.446 14 12 14.446 12 15 L 12 33 C 12 33.554 12.446 34 13 34 L 31 34 C 31.554 34 32 33.554 32 33 L 32 15 C 32 14.446 31.554 14 31 14 L 13 14 z M 22 19 C 24.761424 19 27 21.238625 27 24 C 27 26.761375 24.761424 29 22 29 C 19.238576 29 17 26.761375 17 24 C 17 21.238625 19.238576 19 22 19 z" transform="scale(0.28222223,0.28222223)"/><path id="path84" fill="#f9f9f9" d="m 9.0311115,6.2088886 1.6933335,-1.1288889 0,3.3866667 -1.6933335,-1.1288889 -0.2822223,0 0,-0.8466667 z"/></svg>