<svg xmlns="http://www.w3.org/2000/svg" xmlns:svg="http://www.w3.org/2000/svg" xmlns:xlink="http://www.w3.org/1999/xlink" id="svg2" width="48" height="48" version="1.1" viewBox="0 0 13.547 13.547"><metadata id="metadata28"/><defs id="defs4"><linearGradient id="linearGradient3788"><stop id="stop3790" offset="0" stop-color="#5ccc01" stop-opacity="1"/><stop id="stop3792" offset="1" stop-color="#b7fe3b" stop-opacity="0"/></linearGradient><linearGradient id="linearGradient4460"><stop id="stop7" offset="0" stop-color="#d7d7d7" stop-opacity="1"/><stop id="stop9" offset="1" stop-color="#f1f1f1" stop-opacity="1"/></linearGradient><linearGradient id="linearGradient3102" x2="0" y1="279.096" y2="268.33" gradientTransform="matrix(1.09524,0,0,1.09524,-133.00183,-293.02198)" gradientUnits="userSpaceOnUse" xlink:href="#linearGradient4460"/><linearGradient id="linearGradient3006" x2="0" y1="279.096" y2="268.33" gradientTransform="matrix(1.09524,0,0,1.09524,-133.02411,-293.02516)" gradientUnits="userSpaceOnUse" xlink:href="#linearGradient4460"/><linearGradient id="linearGradient3013" x2="0" y1="1050.36" y2="1006.36" gradientTransform="translate(0,-1004.3622)" gradientUnits="userSpaceOnUse" xlink:href="#1"/><linearGradient id="1"><stop id="stop8" stop-color="#dbdbdb"/><stop id="stop10" offset="1" stop-color="#f9f9f9"/></linearGradient><linearGradient id="linearGradient3155" x2="0" y1="1050.36" y2="1006.36" gradientTransform="translate(0,-1004.3622)" gradientUnits="userSpaceOnUse" xlink:href="#1"/><linearGradient id="linearGradient3035" x2="0" y1="1050.36" y2="1006.36" gradientTransform="matrix(0.28222223,0,0,0.28222223,0,-283.45334)" gradientUnits="userSpaceOnUse" xlink:href="#linearGradient4460"/><radialGradient id="radialGradient3012" cx="148.004" cy="160" r="128" gradientTransform="matrix(0.05167489,0,0,0.05167489,-0.87510811,-1.4947608)" gradientUnits="userSpaceOnUse" xlink:href="#radial0"/><radialGradient id="radial0" cx="148.004" cy="160" r="128" gradientTransform="matrix(0.1831,0,0,0.1831,-3.10029,-5.29688)" gradientUnits="userSpaceOnUse"><stop id="stop7-6" offset="0" stop-color="#bded7d" stop-opacity="1"/><stop id="stop9-6" offset="1" stop-color="#6ab700" stop-opacity="1"/></radialGradient><radialGradient id="radialGradient3009" cx="148.004" cy="160" r="128" gradientTransform="matrix(0.05167489,0,0,0.05167489,-0.87510811,-1.4947615)" gradientUnits="userSpaceOnUse" xlink:href="#radial0"/></defs><path id="path11" fill="url(#radialGradient3009)" d="m 13.38778,3.2589205 0,7.0290975 c 0,2.892777 0,3.100035 -3.100035,3.100035 l -7.027995,0 c -3.10113711,0 -3.10113711,-0.207258 -3.10113711,-3.100035 l 0,-7.0290975 c 0,-2.89277789 0,-3.10003479 3.10113711,-3.10003479 l 7.027995,0 c 3.100035,0 3.100035,0.2072569 3.100035,3.10003479 z"/><path id="path15" fill="#fff" fill-opacity=".051" d="m 10.799273,13.388053 c 0.717682,-0.0033 1.235825,-0.02315 1.611753,-0.124575 l -1.193932,-2.046111 -1.2655898,2.170686 0.3362408,0 c 0.180799,0 0.350573,0 0.511528,0 z m 0.417821,-2.170686 -1.4463888,-2.480469 -1.447491,2.480469 z m 0,0 2.159662,0 c 0.0088,-0.274505 0.01102,-0.582083 0.01102,-0.930451 l 0,-0.3097837 L 12.664582,8.736898 z M 12.664586,8.736898 11.217094,6.2564293 9.7707052,8.736898 z m 0,0 0.723194,0 0,-1.2402343 z m -2.8938808,0 -1.447491,-2.4804687 -1.446389,2.4804687 z m -2.89388,0 -1.447492,2.480469 2.893881,0 z m 0,0 -1.447492,-2.4804687 -1.446389,2.4804687 z m -2.893881,0 -1.4474913,2.480469 2.8938803,0 z m 0,0 L 2.5354529,6.2564293 1.0890639,8.736898 z m -2.8938803,0 -0.93045101,1.594114 c 0,0.329628 0.0033,0.623977 0.01102,0.886355 l 2.36581601,0 z m 0,0 -0.93045101,-1.5941145 0,1.5941145 z m 1.446389,2.480469 -1.217083,2.086901 c 0.450894,0.08268 1.07487,0.08379 1.940278,0.08379 l 0.5434983,0 z m 0,-4.9609377 -1.446389,-2.4804689 -0.93045101,1.5941147 0,0.8863542 z m 0,0 2.8938803,0 -1.446389,-2.4804689 z M 3.9829442,3.7759604 2.5354529,1.2954918 1.0890639,3.7759604 z m 0,0 2.893881,0 -1.447492,-2.4804686 z m 1.446389,-2.4804686 -0.663663,-1.13660609 -1.5070223,0 c -0.020949,0 -0.03858,0 -0.05953,0 L 2.5354539,1.2954918 z m 0,0 2.893881,0 -0.663663,-1.13660609 -1.566554,0 z m 2.893881,0 2.8938798,0 -0.663663,-1.13660609 c -0.0882,0 -0.171979,0 -0.266788,0 l -1.2997658,0 z m 0,0 -1.446389,2.4804686 2.89388,0 z m 1.447491,2.4804686 2.8938808,0 -1.447492,-2.4804686 z m 0,0 -1.447491,2.4804689 2.8938798,0 z m 1.4463888,2.4804689 2.170686,0 0,-1.2402343 -0.723194,-1.2402346 z m 1.447492,-2.4804689 0.723194,0 0,-0.5170399 c 0,-0.2579689 -0.0022,-0.4938889 -0.0066,-0.71217 z M 8.3232142,6.2564293 6.8768252,3.7759604 5.4293332,6.2564293 z m 2.8938798,-4.9609375 2.062648,0 C 13.123197,0.51717561 12.747268,0.27133371 11.859811,0.19416341 z m -8.6816411,0 -0.650434,-1.11565989 C 0.85204189,0.23826091 0.43421989,0.46095161 0.26665089,1.2954918 z M 1.0890639,3.7759604 0.17514889,2.2083043 c -0.01213,0.3031684 -0.01654,0.6515362 -0.01654,1.0506162 l 0,0.5170399 z m 4.3402693,7.4414066 -1.26559,2.170686 2.532283,0 z m 2.893881,0 -1.265591,2.170686 2.532284,0 z m -7.59133731,1.86862 -0.451997,-0.775009 c 0.08268,0.371519 0.221589,0.615157 0.451997,0.775009 z"/><path id="path3010" fill="none" fill-opacity="1" stroke="#f9f9f9" stroke-dasharray="none" stroke-linecap="butt" stroke-linejoin="miter" stroke-miterlimit="4" stroke-opacity="1" stroke-width=".5" d="m 11.676951,33.579284 7.848443,-19.397777 4.275168,-2.743764 4.083742,2.233296 6.69989,7.97606 0.701894,7.274166 -2.679956,3.38185 z" transform="scale(0.28222223,0.28222223)"/><path id="path3796" fill="none" fill-opacity="1" stroke="#f9f9f9" stroke-dasharray="none" stroke-linecap="butt" stroke-linejoin="miter" stroke-miterlimit="4" stroke-opacity="1" stroke-width=".5" d="m 11.964033,33.441716 7.497553,-11.092723 0.07155,-7.724811" transform="scale(0.28222223,0.28222223)"/><path id="path3798" fill="none" fill-opacity="1" stroke="#f9f9f9" stroke-dasharray="none" stroke-linecap="butt" stroke-linejoin="miter" stroke-miterlimit="4" stroke-opacity="1" stroke-width=".5" d="m 12.158996,33.235472 12.981544,-3.484696 -5.551338,-7.082741 5.997997,-3.7647 0.350947,-4.881349" transform="scale(0.28222223,0.28222223)"/><path id="path3800" fill="none" fill-opacity="1" stroke="#f9f9f9" stroke-dasharray="none" stroke-linecap="butt" stroke-linejoin="miter" stroke-miterlimit="4" stroke-opacity="1" stroke-width=".5" d="m 19.433827,14.405776 8.559405,-0.54851" transform="scale(0.28222223,0.28222223)"/><path id="path3802" fill="none" fill-opacity="1" stroke="#f9f9f9" stroke-dasharray="none" stroke-linecap="butt" stroke-linejoin="miter" stroke-miterlimit="4" stroke-opacity="1" stroke-width=".5" d="m 25.523391,18.967143 3.318041,5.615146 -3.445658,5.296104" transform="scale(0.28222223,0.28222223)"/><path id="path3804" fill="none" fill-opacity="1" stroke="#f9f9f9" stroke-dasharray="none" stroke-linecap="butt" stroke-linejoin="miter" stroke-miterlimit="4" stroke-opacity="1" stroke-width=".5" d="M 34.417321,21.504 32.405087,32.233558" transform="scale(0.28222223,0.28222223)"/><path id="path3806" fill="none" fill-opacity="1" stroke="#f9f9f9" stroke-dasharray="none" stroke-linecap="butt" stroke-linejoin="miter" stroke-miterlimit="4" stroke-opacity="1" stroke-width=".5" d="m 28.969049,24.646097 4.498497,1.595212" transform="scale(0.28222223,0.28222223)"/><path id="path3808" fill="none" fill-opacity="1" stroke="#f9f9f9" stroke-dasharray="none" stroke-linecap="butt" stroke-linejoin="miter" stroke-miterlimit="4" stroke-opacity="1" stroke-width=".141" d="m 7.1132273,8.4143383 0.6663024,0.522237 0.3549519,0.2419403"/></svg>