<?xml version="1.0" encoding="UTF-8" standalone="no"?>
<svg
   xmlns:dc="http://purl.org/dc/elements/1.1/"
   xmlns:cc="http://creativecommons.org/ns#"
   xmlns:rdf="http://www.w3.org/1999/02/22-rdf-syntax-ns#"
   xmlns:svg="http://www.w3.org/2000/svg"
   xmlns="http://www.w3.org/2000/svg"
   xmlns:xlink="http://www.w3.org/1999/xlink"
   xmlns:sodipodi="http://sodipodi.sourceforge.net/DTD/sodipodi-0.dtd"
   xmlns:inkscape="http://www.inkscape.org/namespaces/inkscape"
   width="48"
   height="48"
   viewBox="0 0 48 48"
   id="svg2"
   version="1.1"
   inkscape:version="0.48.4 r9939"
   sodipodi:docname="google-chrome.svg">
  <defs
     id="defs3019" />
  <metadata
     id="metadata35">
    <rdf:RDF>
      <cc:Work
         rdf:about="">
        <dc:format>image/svg+xml</dc:format>
        <dc:type
           rdf:resource="http://purl.org/dc/dcmitype/StillImage" />
        <dc:title></dc:title>
      </cc:Work>
    </rdf:RDF>
  </metadata>
  <sodipodi:namedview
     pagecolor="#ffffff"
     bordercolor="#666666"
     borderopacity="1"
     objecttolerance="10"
     gridtolerance="10"
     guidetolerance="10"
     inkscape:pageopacity="0"
     inkscape:pageshadow="2"
     inkscape:window-width="1024"
     inkscape:window-height="692"
     id="namedview33"
     showgrid="false"
     inkscape:zoom="6.9532167"
     inkscape:cx="13.091479"
     inkscape:cy="29.749414"
     inkscape:window-x="0"
     inkscape:window-y="24"
     inkscape:window-maximized="1"
     inkscape:current-layer="svg2" />
  <path
     fill="#808080"
     d="M 47.4375 11.546875 L 47.4375 36.453125 C 47.4375 46.703125 47.4375 47.4375 36.453125 47.4375 L 11.550781 47.4375 C 0.5625 47.4375 0.5625 46.703125 0.5625 36.453125 L 0.5625 11.546875 C 0.5625 1.296875 0.5625 0.5625 11.550781 0.5625 L 36.453125 0.5625 C 47.4375 0.5625 47.4375 1.296875 47.4375 11.546875 Z "
     id="path11"
     style="fill:#d25225;fill-opacity:1" />
  <path
     inkscape:connector-curvature="0"
     id="path15"
     d="m 38.265625,47.4375 c 2.542969,-0.01172 4.378906,-0.08203 5.710937,-0.441406 l -4.230468,-7.25 -4.484375,7.691406 1.191406,0 c 0.640625,0 1.242187,0 1.8125,0 z m 1.480469,-7.691406 -5.125,-8.789063 -5.128906,8.789063 z m 0,0 7.652344,0 c 0.03125,-0.972656 0.03906,-2.0625 0.03906,-3.296875 l 0,-1.097657 -2.5625,-4.394531 z m 5.128906,-8.789063 -5.128906,-8.789062 -5.125,8.789062 z m 0,0 2.5625,0 0,-4.394531 z m -10.253906,0 -5.128906,-8.789062 -5.125,8.789062 z m -10.253906,0 -5.128907,8.789063 10.253907,0 z m 0,0 -5.128907,-8.789062 -5.125,8.789062 z m -10.253907,0 -5.128906,8.789063 10.253906,0 z m 0,0 -5.128906,-8.789062 -5.125,8.789062 z m -10.253906,0 -3.296875,5.648438 c 0,1.167969 0.011719,2.210937 0.039062,3.140625 l 8.382813,0 z m 0,0 -3.296875,-5.648437 0,5.648437 z m 5.125,8.789063 -4.3125,7.394531 c 1.597656,0.292969 3.808594,0.296875 6.878906,0.296875 l 1.921875,0 z m 0,-17.578125 -5.125,-8.789063 -3.296875,5.648438 0,3.140625 z m 0,0 10.253906,0 -5.125,-8.789063 z m 5.128906,-8.789063 -5.128906,-8.789062 -5.125,8.789062 z m 0,0 10.253907,0 -5.128907,-8.789062 z m 5.125,-8.789062 -2.351562,-4.027344 -5.335938,0 c -0.07813,0 -0.140625,0 -0.214843,0 L 8.984375,4.589844 z m 0,0 10.253907,0 -2.351563,-4.027344 -5.550781,0 z m 10.253907,0 10.253906,0 L 37.394531,0.5625 c -0.3125,0 -0.609375,0 -0.941406,0 l -4.609375,0 z m 0,0 -5.125,8.789062 10.253906,0 z m 5.128906,8.789062 10.253906,0 -5.128906,-8.789062 z m 0,0 -5.128906,8.789063 10.253906,0 z m 5.125,8.789063 7.691406,0 0,-4.394531 -2.5625,-4.394532 z m 5.128906,-8.789063 2.5625,0 0,-1.832031 c 0,-0.914063 -0.0078,-1.75 -0.02344,-2.523437 z m -15.382812,8.789063 -5.125,-8.789063 -5.128907,8.789063 z m 10.253906,-17.578125 7.308594,0 C 46.5,1.832031 45.167969,0.960938 42.023438,0.6875 z m -30.761719,0 L 6.679688,0.636719 C 3.019531,0.84375 1.539062,1.632812 0.945312,4.589844 z m -5.125,8.789062 L 0.621094,7.824219 C 0.578125,8.898438 0.5625,10.132812 0.5625,11.546875 l 0,1.832031 z m 15.378906,26.367188 -4.484375,7.691406 8.972656,0 z m 10.253907,0 -4.484376,7.691406 8.972657,0 z M 2.59375,46.367188 0.992188,43.621094 c 0.292968,1.316406 0.785156,2.179687 1.601562,2.746094 z"
     style="fill:#ffffff;fill-opacity:0.07058824" />
  <g
     style="fill:#f9f9f9;fill-opacity:1"
     transform="matrix(3.543307,0,0,3.543307,4.76e-5,-4e-7)"
     id="g25">
    <use
       height="1052.3622"
       width="744.09448"
       y="0"
       x="0"
       transform="matrix(0.14111,0,0,0.19349,3.66889,3.10559)"
       xlink:href="#2"
       id="use27"
       style="fill:#f9f9f9;fill-opacity:1" />
    <use
       height="1052.3622"
       width="744.09448"
       y="0"
       x="0"
       transform="matrix(0.21167,0,0,0.29024,1.27,-0.98607)"
       xlink:href="#2"
       id="use29"
       style="fill:#f9f9f9;fill-opacity:1" />
    <use
       height="1052.3622"
       width="744.09448"
       y="0"
       x="0"
       transform="matrix(0.28222,0,0,0.38698,-0.28222,-5.35994)"
       xlink:href="#2"
       id="use31"
       style="fill:#f9f9f9;fill-opacity:1" />
    <use
       height="1052.3622"
       width="744.09448"
       y="0"
       x="0"
       transform="matrix(0.42333,0,0,0.58047,-4.23333,-14.38991)"
       xlink:href="#2"
       id="use33"
       style="fill:#f9f9f9;fill-opacity:1" />
    <use
       height="1052.3622"
       width="744.09448"
       y="0"
       x="0"
       transform="matrix(0.35278,0,0,0.48373,-2.96333,-9.73381)"
       xlink:href="#2"
       id="use35"
       style="fill:#f9f9f9;fill-opacity:1" />
  </g>
  <path
     inkscape:connector-curvature="0"
     style="fill:#f9f9f9;fill-opacity:1"
     d="m 27.040143,14 c 0.684112,0.132087 1.272355,0.283363 1.741326,0.491278 0.723649,0.308523 1.186629,0.718407 1.408711,1.190782 -0.671819,-0.120139 -1.265384,-0.08838 -1.800013,0.113214 3.833065,1.460842 5.647964,3.207594 5.43919,5.216261 -0.280348,-0.421836 -0.658942,-0.693217 -1.1348,-0.831596 0.586936,2.203875 0.651954,4.007142 0.176105,5.442952 -0.325794,-0.957113 -0.632459,-1.518302 -0.900011,-1.719831 0.372216,2.953448 -0.131278,5.135277 -1.506539,6.558253 0.26059,-0.868862 0.372277,-1.575036 0.313035,-2.135723 -1.616121,2.336374 -3.45699,3.533824 -5.517455,3.609805 -0.814468,-0.0095 -1.585335,-0.113213 -2.308722,-0.340285 -1.061053,-0.343489 -2.020639,-0.943393 -2.87612,-1.776562 1.334179,0.106301 2.547897,-0.119194 3.619608,-0.642549 l 1.760897,-1.096025 c 0.222147,-0.159084 0.436813,-0.143571 0.64565,-0.04607 0.429974,-0.05724 0.541097,-0.181708 0.418581,-0.570946 -0.273515,-0.229373 -0.515237,-0.533341 -0.919555,-0.753646 -0.880138,-0.44102 -1.79467,-0.472451 -2.746888,0.20196 -0.912745,0.497818 -1.787351,0.472219 -2.641329,-0.05692 -0.560778,-0.371014 -1.102387,-0.86987 -1.623928,-1.493111 l -0.195657,-0.283362 0,-0.02201 c 0.02594,-0.617017 0.274196,-0.944912 0.782623,-1.020612 0.573631,0.04969 1.233195,0.170145 1.976105,0.377995 0.123925,-0.686391 -0.03949,-1.398918 -0.489137,-2.135629 l 0.01545,-0.08128 c 0.697511,-0.623486 1.274123,-0.999156 1.802047,-1.288776 0.190911,-0.248966 0.270744,-0.338619 0.409154,-0.560896 -0.03064,-0.0656 0.03111,-0.09987 0.07029,-0.06745 0.0414,-0.187256 0.0434,-0.16395 -0.12919,-0.405422 -0.511173,0.121202 -1.09043,-0.02379 -1.481541,-0.122753 -0.202177,-0.05598 -0.476872,-0.179944 -0.789876,-0.469409 l -0.802171,-0.755905 -0.209522,-0.261079 0.0195,-0.09466 c 0.09032,-0.594558 0.38674,-1.077437 0.62607,-1.530943 0.260898,-0.415514 0.750233,-0.863328 1.486968,-1.341774 -1.369076,0.163854 -2.596368,0.756242 -3.697861,1.776473 -0.91272,-0.321292 -2.00268,-0.251283 -3.24786,0.207568 l -0.341359,0.05566 c -0.01916,0.0095 0.164617,0.06951 0.145728,0.07862 L 14.7333,17.283202 c -0.774292,-0.352051 -0.738887,-0.834118 -0.991555,-2.44224 -4.5945661,4.912973 -4.6419983,12.288677 -1.003949,17.624274 2.757447,3.444634 6.217293,5.273406 10.389244,5.51862 9.702185,0.433295 16.057748,-7.927438 14.497934,-16.404678 -0.03646,-0.672804 -0.866085,-3.578777 -2.388142,-5.550051 0.268788,1.020262 0.286528,2.136053 0.294238,2.715325 -0.569127,-1.930073 -2.148427,-3.524577 -4.441308,-4.195685 -1.134284,-0.326982 -2.492064,-0.503699 -4.049895,-0.547949 z"
     id="path18" />
  <path
     inkscape:connector-curvature="0"
     style="fill:#f9f9f9;fill-opacity:1"
     d="m 35.394585,19.027154 c 0.03557,0.06227 0.06448,0.128314 0.09785,0.189326 -0.0017,0.01257 0.0018,0.0283 0,0.03773 -0.0073,-0.01257 -0.01987,-0.0283 -0.01987,-0.03773 -0.02945,-0.06384 -0.0471,-0.126742 -0.0783,-0.189326 z"
     id="path20" />
  <path
     inkscape:connector-curvature="0"
     style="fill:#f9f9f9;fill-opacity:1"
     d="m 25.421884,28.096615 c 0.216533,-0.121098 0.489751,-0.0541 0.69598,0 0.204646,-0.01803 0.602534,-0.128827 0.443892,-0.641556 -0.261422,-0.308586 -0.6594,-0.676431 -1.44128,-0.948944 z"
     id="path22" />
  <path
     inkscape:connector-curvature="0"
     style="fill:#f9f9f9;fill-opacity:1"
     d="m 21.367663,19.717359 1.136219,1.190263 c 0.158795,-0.106422 0.353662,-0.194817 0.430008,-0.561473 0.01598,-0.02565 0.03712,-0.04099 0.07113,-0.04603 0.137452,-0.272796 0.0018,-0.365236 -0.167372,-0.493748 -0.480674,0.009 -0.82957,-0.01555 -1.469988,-0.08902 z"
     id="path24" />
  <path
     inkscape:connector-curvature="0"
     style="fill:#f9f9f9;fill-opacity:1"
     d="m 20.661138,22.28709 c -0.141227,-0.33244 -0.400014,-0.787166 -0.712532,-1.037131 l 1.957615,-0.974039 0.605396,0.6245 c -0.689702,0.418498 -1.313815,0.844285 -1.850479,1.38667 z"
     id="path26" />
  <path
     inkscape:connector-curvature="0"
     style="fill:#f9f9f9;fill-opacity:1"
     d="m 19.553785,18.261998 c -0.349838,1.09441 -0.13251,2.081883 0.391633,2.988775 l 1.963316,-0.973929 c -0.261602,-0.281596 -0.530765,-0.556529 -0.530765,-0.556529 -0.202175,-0.05598 -0.459957,-0.220692 -0.772959,-0.510154 l -0.803878,-0.762653 z"
     id="path28" />
</svg>
