<svg xmlns="http://www.w3.org/2000/svg" xmlns:svg="http://www.w3.org/2000/svg" xmlns:xlink="http://www.w3.org/1999/xlink" id="svg2" width="48" height="48" version="1.1" viewBox="0 0 13.547 13.547"><metadata id="metadata34"/><defs id="defs4"><linearGradient id="0"><stop id="stop7" stop-color="#dedede"/><stop id="stop9" offset="1" stop-color="#f9f9f9"/></linearGradient><linearGradient id="1" x2="0" y1="1050.36" y2="1006.36" gradientTransform="matrix(0.28222223,0,0,0.28222223,0,-283.45334)" gradientUnits="userSpaceOnUse" xlink:href="#0"/><radialGradient id="radial0" cx="148.004" cy="160" r="128" gradientTransform="matrix(0.1831,0,0,0.1831,-3.10029,-5.29688)" gradientUnits="userSpaceOnUse"><stop id="stop7-2" offset="0" stop-color="#dbc199"/><stop id="stop9-1" offset="1" stop-color="#8c601f"/></radialGradient><radialGradient id="radialGradient3002" cx="148.004" cy="160" r="128" gradientTransform="matrix(0.05167489,0,0,0.05167489,-0.87511151,-1.4947608)" gradientUnits="userSpaceOnUse" xlink:href="#radial0"/></defs><path id="path11" fill="url(#radialGradient3002)" d="m 13.387776,3.2589213 0,7.0290977 c 0,2.892777 0,3.100034 -3.100035,3.100034 l -7.0279945,0 c -3.10113721,0 -3.10113721,-0.207257 -3.10113721,-3.100034 l 0,-7.0290977 c 0,-2.89277779 0,-3.10003479 3.10113721,-3.10003479 l 7.0279945,0 c 3.100035,0 3.100035,0.207257 3.100035,3.10003479 z"/><path id="path15" fill="#fff" fill-opacity=".051" d="m 10.799269,13.388053 c 0.717682,-0.0033 1.235825,-0.02315 1.611753,-0.124575 l -1.193932,-2.04611 -1.2655899,2.170685 0.3362409,0 c 0.180799,0 0.350573,0 0.511528,0 z M 11.21709,11.217368 9.7707021,8.7368988 8.3232101,11.217368 z m 0,0 2.159662,0 c 0.0088,-0.274505 0.01102,-0.582083 0.01102,-0.930451 l 0,-0.3097839 -0.723194,-1.2402343 z M 12.664582,8.7368988 11.21709,6.2564301 9.7707021,8.7368988 z m 0,0 0.723194,0 0,-1.2402343 z m -2.8938799,0 -1.447492,-2.4804687 -1.446389,2.4804687 z m -2.893881,0 -1.4474913,2.4804692 2.8938803,0 z m 0,0 L 5.4293298,6.2564301 3.9829409,8.7368988 z m -2.8938802,0 -1.4474913,2.4804692 2.8938802,0 z m 0,0 L 2.5354496,6.2564301 1.0890607,8.7368988 z m -2.8938802,0 -0.93045141,1.5941152 c 0,0.329627 0.00331,0.623976 0.011024,0.886354 l 2.36581611,0 z m 0,0 -0.93045141,-1.5941145 0,1.5941145 z m 1.4463889,2.4804692 -1.2170833,2.0869 c 0.450894,0.08268 1.0748699,0.08379 1.9413802,0.08379 l 0.5423958,0 z m 0,-4.9609379 -1.4463889,-2.4804689 -0.93045141,1.5941147 0,0.8863542 z m 0,0 2.8938802,0 L 3.9829409,3.7759612 z M 3.9829409,3.7759612 2.5354496,1.2954925 1.0890607,3.7759612 z m 0,0 2.8938802,0 -1.4474913,-2.4804687 z m 1.4463889,-2.4804687 -0.663663,-1.13660599 -1.5059203,0 c -0.02205,0 -0.039688,0 -0.060634,0 L 2.5354496,1.2954925 z m 0,0 2.8938803,0 -0.663663,-1.13660599 -1.5665539,0 z m 2.8938803,0 2.8938799,0 -0.663663,-1.13660599 c -0.0882,0 -0.171979,0 -0.265686,0 l -1.3008679,0 z m 0,0 -1.446389,2.4804687 2.893881,0 z m 1.447492,2.4804687 2.8938799,0 -1.447492,-2.4804687 z m 0,0 -1.447492,2.4804689 2.8938799,0 z m 1.4463879,2.4804689 2.170686,0 0,-1.2402343 -0.723194,-1.2402346 z m 1.447492,-2.4804689 0.723194,0 0,-0.5170399 c 0,-0.2579689 -0.0022,-0.4938889 -0.0066,-0.71217 z M 8.3232101,6.2564301 6.8768211,3.7759612 5.4293298,6.2564301 z m 2.8938799,-4.9609376 2.062648,0 C 13.123193,0.51717641 12.747264,0.27133461 11.859807,0.19416431 z m -8.6816404,0 L 1.8850157,0.17983281 C 0.85203809,0.23826181 0.43421679,0.46095231 0.26664739,1.2954925 z M 1.0890607,3.7759612 0.17514589,2.208305 c -0.012127,0.3031685 -0.016537,0.6515363 -0.016537,1.0506163 l 0,0.5170399 z m 4.3402691,7.4414068 -1.2655903,2.170685 2.532283,0 z m 2.8938803,0 -1.26559,2.170685 2.532283,0 z m -7.59133691,1.86862 -0.4519964,-0.775009 c 0.082682,0.371519 0.2215885,0.615157 0.4519964,0.775009 z"/><path id="path28" fill="#f9f9f9" fill-opacity="1" d="M 9.7522586,5.5353959 C 9.2363211,4.3995249 8.0816038,3.668889 6.7804994,3.668889 c -1.3307912,0 -2.5489772,0.7993541 -3.028062,1.985753 L 4.7617915,6.0285498 C 5.0811814,5.2352592 5.8929639,4.7047143 6.7804994,4.7047143 c 0.8558011,0 1.6133284,0.4739535 1.9644526,1.2146949 L 8.008922,6.2013556 9.8914798,7.2412235 10.442223,5.2726499 z"/><path id="path30" fill="#f9f9f9" fill-opacity="1" d="m 6.7804994,8.8439737 c -0.8496592,0 -1.6225415,-0.4901222 -1.9685474,-1.2258109 L 5.5367214,7.3503641 3.6746373,6.3327287 3.1044445,8.2497636 3.7995271,7.9920706 c 0.5057005,1.1328393 1.6880574,1.8857074 2.9809723,1.8857074 1.3359096,0 2.5182664,-0.7670161 3.0137302,-1.9544258 L 8.7899939,7.5403496 C 8.4603673,8.3326298 7.6711057,8.8439737 6.7804994,8.8439737 z"/></svg>