<svg xmlns="http://www.w3.org/2000/svg" xmlns:svg="http://www.w3.org/2000/svg" xmlns:xlink="http://www.w3.org/1999/xlink" id="svg2" width="48" height="48" version="1.1" viewBox="0 0 13.547 13.547"><metadata id="metadata28"/><defs id="defs4"><linearGradient id="linearGradient4460"><stop id="stop7" offset="0" stop-color="#d2ac1b" stop-opacity="1"/><stop id="stop9" offset="1" stop-color="#eec63c" stop-opacity="1"/></linearGradient><linearGradient id="linearGradient3002" x2="0" y1="279.096" y2="268.33" gradientTransform="matrix(1.10525,0,0,1.10525,-134.27924,-295.78392)" gradientUnits="userSpaceOnUse" xlink:href="#linearGradient4460"/><clipPath id="clipPath3168" clipPathUnits="userSpaceOnUse"><path id="path3170" d="M 54.1,12.5 12.9,54.7 C -2.7,70.3 23,69 32.3,74.9 36.6,77.7 18.5,81.3 22.2,85 c 3.6,3.7 21.7,7.1 25.3,10.7 3.6,3.7 -7.3,7.6 -3.7,11.3 3.5,3.7 11.9,0.2 13.4,8.6 1.1,6.2 15.4,3.1 21.8,-2.2 4,-3.4 -6.9,-3.4 -3.3,-7.1 9,-9.1 17,-4.1 20.3,-12.5 1.8,-4.5 -13.6,-7.7 -9.5,-10.6 9.8,-6.9 45.8,-10.4 29.2,-27 L 73,12.5 c -5.3,-5 -14,-5 -18.9,0 z m -9.9,64.7 c 0.9,0 30.8,4 19.3,7.1 -4.4,1.2 -24.6,-7.1 -19.3,-7.1 z m 57.2,16.6 c 0,2.1 16.3,3.3 15.4,-0.5 -1.3,-6.4 -13.6,-5.9 -15.4,0.5 z m -69.5,11.1 c 3.7,3.2 9.3,-0.7 11.1,-5.2 -3.6,-4.7 -16.9,0.3 -11.1,5.2 z m 67.5,-6.7 c -4.6,4.2 0.8,8.6 5.3,5.7 1.2,-0.8 -0.1,-4.7 -5.3,-5.7 z"/></clipPath><clipPath id="clipPath3172" clipPathUnits="userSpaceOnUse"><rect id="rect3174" width="20" height="20" x="1" y="1" fill="#fff" fill-rule="evenodd" rx="2"/></clipPath><clipPath id="clipPath3176" clipPathUnits="userSpaceOnUse"><rect id="rect3178" width="84" height="84" x="6" y="6" fill="#fff" rx="6"/></clipPath><clipPath id="clipPath3180" clipPathUnits="userSpaceOnUse"><rect id="rect3182" width="96" height="96" x="-100" y="0" fill="#fff"/></clipPath><clipPath id="clipPath3184" clipPathUnits="userSpaceOnUse"><path id="path3186" d="M 95.311,352.545 L 476.403,352.545 L 476.403,71.4229 L 95.311,71.4229 L 95.311,352.545 z"/></clipPath><clipPath id="clipPath3188" clipPathUnits="userSpaceOnUse"><path id="path3190" d="M 93.311,69.185 L 478.511,69.185 L 478.511,354.545 L 93.311,354.545 L 93.311,69.185 z"/></clipPath><clipPath id="clipPath3192" clipPathUnits="userSpaceOnUse"><path id="path3194" d="M 92.311,355.545 L 479.511,355.545 L 479.511,68.1846 L 92.311,68.1846 L 92.311,355.545 z"/></clipPath><clipPath id="clipPath3196" clipPathUnits="userSpaceOnUse"><path id="path3198" d="M 93.311,354.545 L 478.511,354.545 L 478.511,69.1846 L 93.311,69.1846 L 93.311,354.545 z"/></clipPath><linearGradient id="linearGradient1569-7"><stop id="stop3534" offset="0" stop-color="#8593f5"/><stop id="stop3536" offset="1" stop-color="#465dbf"/></linearGradient><linearGradient id="linearGradient3801" x2="0" y1="1053.158" y2="1004.847" gradientTransform="translate(0,-2056.7244)" gradientUnits="userSpaceOnUse" xlink:href="#linearGradient1569-7"/><linearGradient id="linearGradient3569" x2="0" y1="1053.158" y2="1004.847" gradientTransform="translate(0,-2056.7244)" gradientUnits="userSpaceOnUse" xlink:href="#linearGradient1569-7"/><linearGradient id="B" x2="0" y1="1050.36" y2="1006.36" gradientTransform="translate(-78.066775,-887.05181)" gradientUnits="userSpaceOnUse" xlink:href="#0"/><linearGradient id="0"><stop id="stop7-8" stop-color="#c34141"/><stop id="stop9-6" offset="1" stop-color="#d76464"/></linearGradient><linearGradient id="linearGradient3048" x2="0" y1="1050.36" y2="1006.36" gradientTransform="matrix(0.28222223,0,0,0.28222223,6.7059175e-7,-283.45335)" gradientUnits="userSpaceOnUse" xlink:href="#linearGradient4460"/><radialGradient id="radialGradient3009" cx="148.004" cy="160" r="128" gradientTransform="matrix(0.1831,0,0,0.1831,-3.100773,-5.2963796)" gradientUnits="userSpaceOnUse" xlink:href="#radial0"/><radialGradient id="radial0" cx="148.004" cy="160" r="128" gradientTransform="matrix(0.1831,0,0,0.1831,-3.10029,-5.29688)" gradientUnits="userSpaceOnUse"><stop id="stop7-0" offset="0" stop-color="#f5ef7a" stop-opacity="1"/><stop id="stop9-2" offset="1" stop-color="#e5da11" stop-opacity="1"/></radialGradient><radialGradient id="radialGradient3011" cx="148.004" cy="160" r="128" gradientTransform="matrix(0.05167489,0,0,0.05167489,-0.87510711,-1.4947562)" gradientUnits="userSpaceOnUse" xlink:href="#radial0"/></defs><g id="g12" fill-rule="evenodd"><path id="path11" fill="url(#radialGradient3011)" d="m 13.387781,3.2589256 0,7.0290974 c 0,2.892777 0,3.100035 -3.100035,3.100035 l -7.0279949,0 c -3.10113711,0 -3.10113711,-0.207258 -3.10113711,-3.100035 l 0,-7.0290974 c 0,-2.89277749 0,-3.10003449 3.10113711,-3.10003449 l 7.0279949,0 c 3.100035,0 3.100035,0.207257 3.100035,3.10003449 z"/><path id="path15" fill="#fff" fill-opacity=".051" d="m 10.799274,13.388058 c 0.717682,-0.0033 1.235825,-0.02315 1.611753,-0.124574 l -1.193932,-2.046112 -1.2655901,2.170686 0.3362411,0 c 0.180799,0 0.350573,0 0.511528,0 z M 11.217095,11.217372 9.770706,8.7369031 8.323215,11.217372 z m 0,0 2.159662,0 c 0.0088,-0.274505 0.01102,-0.582083 0.01102,-0.930451 l 0,-0.3097836 -0.723192,-1.2402343 z M 12.664586,8.7369031 11.217095,6.2564344 9.770706,8.7369031 z m 0,0 0.723195,0 0,-1.2402343 z m -2.89388,0 L 8.323215,6.2564344 6.8768261,8.7369031 z m -2.8938799,0 -1.4474921,2.4804689 2.893881,0 z m 0,0 L 5.429334,6.2564344 3.982945,8.7369031 z m -2.8938811,0 -1.447491,2.4804689 2.89388,0 z m 0,0 L 2.535454,6.2564344 1.0890651,8.7369031 z m -2.8938799,0 -0.93045111,1.5941139 c 0,0.329628 0.0033,0.623977 0.011021,0.886355 l 2.36581611,0 z m 0,0 -0.93045111,-1.5941145 0,1.5941145 z M 2.535454,11.217372 1.318371,13.304273 c 0.450894,0.08268 1.0748701,0.08378 1.9413801,0.08378 l 0.5423959,0 z m 0,-4.9609376 -1.4463889,-2.4804689 -0.93045111,1.5941148 0,0.8863541 z m 0,0 2.89388,0 L 3.982945,3.7759655 z M 3.982945,3.7759655 2.535454,1.2954971 1.0890651,3.7759655 z m 0,0 2.8938811,0 L 5.429334,1.2954971 z M 5.429334,1.2954971 4.7656712,0.15889111 l -1.5070221,0 c -0.020949,0 -0.03858,0 -0.05953,0 L 2.5354552,1.2954971 z m 0,0 2.893881,0 -0.6636639,-1.13660599 -1.5665529,0 z m 2.893881,0 2.89388,0 -0.663663,-1.13660599 c -0.08819,0 -0.171979,0 -0.266788,0 l -1.2997659,0 z m 0,0 -1.4463889,2.4804684 2.8938799,0 z m 1.447491,2.4804684 2.89388,0 -1.447491,-2.4804684 z m 0,0 -1.447491,2.4804689 2.89388,0 z m 1.446389,2.4804689 2.170686,0 0,-1.2402343 -0.723195,-1.2402346 z m 1.447491,-2.4804689 0.723195,0 0,-0.5170399 c 0,-0.2579689 -0.0022,-0.4938887 -0.0066,-0.7121699 z M 8.323215,6.2564344 6.8768261,3.7759655 5.429334,6.2564344 z m 2.89388,-4.9609373 2.062648,0 C 13.123198,0.51718101 12.747269,0.27133921 11.859812,0.19416891 z m -8.681641,0 L 1.8850201,0.17983741 C 0.85204299,0.23826641 0.43422089,0.46095691 0.26665199,1.2954971 z M 1.0890651,3.7759655 0.17514989,2.2083096 c -0.01213,0.3031684 -0.016541,0.6515361 -0.016541,1.050616 l 0,0.5170399 z m 4.3402689,7.4414065 -1.2655901,2.170686 2.532283,0 z m 2.893881,0 -1.2655909,2.170686 2.532283,0 z m -7.59133711,1.86862 -0.451997,-0.775009 c 0.08268,0.37152 0.2215891,0.615157 0.451997,0.775009 z"/><path id="use3821" fill="#f9f9f9" fill-opacity="1" d="M 27 13 C 21.844628 13 17.533372 16.554327 16.34375 21.34375 C 17.215918 20.04556 18.519847 19.1875 22 19.1875 L 18.21875 24 L 22 28.8125 C 18.519847 28.8125 17.215918 27.95444 16.34375 26.65625 C 17.533372 31.445674 21.844628 35 27 35 C 33.071351 35 38 30.071355 38 24 C 38 17.928646 33.071351 13 27 13 z M 16.34375 26.65625 C 16.238067 26.23077 16.153267 25.786945 16.09375 25.34375 C 16.148224 25.789758 16.237458 26.22832 16.34375 26.65625 z M 16.34375 21.34375 C 16.237458 21.77168 16.148224 22.210242 16.09375 22.65625 C 16.153267 22.213055 16.238067 21.76923 16.34375 21.34375 z M 27 20.625 C 28.860366 20.625 30.375 22.139622 30.375 24 C 30.375 25.860379 28.860366 27.375 27 27.375 C 25.139634 27.375 23.625 25.860379 23.625 24 C 23.625 22.139622 25.139634 20.625 27 20.625 z" transform="scale(0.28222223,0.28222223)"/><path id="path3238" fill="#f9f9f9" fill-opacity="1" d="M 12.40625 18 C 11.080251 18 10 19.080252 10 20.40625 C 10 21.732248 11.080251 22.8125 12.40625 22.8125 C 12.940249 22.8125 13.4165 22.637749 13.8125 22.34375 C 14.2785 22.921749 14.607639 23.459723 14.90625 24 C 14.607639 24.540277 14.2785 25.078251 13.8125 25.65625 C 13.416499 25.36225 12.940249 25.1875 12.40625 25.1875 C 11.080251 25.1875 10 26.267752 10 27.59375 C 10 28.919748 11.080251 30 12.40625 30 C 12.62225 30 12.83325 29.942246 13.03125 29.90625 L 13 30 L 13.15625 29.875 C 13.684228 29.695003 14.137501 29.31175 14.4375 28.84375 L 16.25 26.53125 C 16.278074 26.57536 16.314767 26.61311 16.34375 26.65625 C 16.132384 25.805291 16 24.91598 16 24 C 16 23.084021 16.132384 22.194709 16.34375 21.34375 C 16.314767 21.38689 16.278074 21.42464 16.25 21.46875 L 14.4375 19.15625 C 14.137501 18.68825 13.68425 18.305 13.15625 18.125 L 13 18 L 13.03125 18.09375 C 12.83325 18.03975 12.62225 18 12.40625 18 z M 12.40625 19.1875 C 13.066249 19.1875 13.59375 19.746251 13.59375 20.40625 C 13.59375 21.066249 13.066249 21.59375 12.40625 21.59375 C 11.74625 21.59375 11.1875 21.066249 11.1875 20.40625 C 11.1875 19.746251 11.74625 19.1875 12.40625 19.1875 z M 12.40625 26.40625 C 13.066249 26.40625 13.59375 26.933751 13.59375 27.59375 C 13.59375 28.253749 13.066249 28.8125 12.40625 28.8125 C 11.74625 28.8125 11.1875 28.253749 11.1875 27.59375 C 11.1875 26.933751 11.74625 26.40625 12.40625 26.40625 z" transform="scale(0.28222223,0.28222223)"/><path id="path3546" fill="#f9f9ff" fill-opacity="1" stroke="none" d="m 8.1844446,6.7733336 c 0,0.3117341 -0.2527104,0.5644444 -0.5644445,0.5644444 -0.3117341,0 -0.5644444,-0.2527103 -0.5644444,-0.5644444 0,-0.3117341 0.2527103,-0.5644445 0.5644444,-0.5644445 0.3117341,0 0.5644445,0.2527104 0.5644445,0.5644445 z"/></g></svg>