<svg xmlns="http://www.w3.org/2000/svg" xmlns:svg="http://www.w3.org/2000/svg" xmlns:xlink="http://www.w3.org/1999/xlink" id="svg2" width="48" height="48" version="1.1" viewBox="0 0 13.547 13.547"><metadata id="metadata28"/><defs id="defs26"><radialGradient id="radialGradient3009" cx="148.004" cy="160" r="128" gradientTransform="matrix(0.1831,0,0,0.1831,-3.100773,-5.2963796)" gradientUnits="userSpaceOnUse" xlink:href="#radial0"/><radialGradient id="radial0" cx="148.004" cy="160" r="128" gradientTransform="matrix(0.1831,0,0,0.1831,-3.10029,-5.29688)" gradientUnits="userSpaceOnUse"><stop id="stop7-0" offset="0" stop-color="#f5ce7a" stop-opacity="1"/><stop id="stop9-2" offset="1" stop-color="#e5a211" stop-opacity="1"/></radialGradient><radialGradient id="radialGradient3011" cx="148.004" cy="160" r="128" gradientTransform="matrix(0.05167489,0,0,0.05167489,-0.87510721,-1.4947562)" gradientUnits="userSpaceOnUse" xlink:href="#radial0"/></defs><path id="path11" fill="url(#radialGradient3011)" d="m 13.38778,3.2589256 0,7.0290974 c 0,2.892777 0,3.100035 -3.100034,3.100035 l -7.027995,0 c -3.10113711,0 -3.10113711,-0.207258 -3.10113711,-3.100035 l 0,-7.0290974 c 0,-2.89277749 0,-3.10003449 3.10113711,-3.10003449 l 7.027995,0 c 3.100034,0 3.100034,0.207257 3.100034,3.10003449 z"/><path id="path15" fill="#fff" fill-opacity=".051" d="m 10.799274,13.388058 c 0.717682,-0.0033 1.235825,-0.02315 1.611753,-0.124574 l -1.193932,-2.046112 -1.2655902,2.170686 0.3362412,0 c 0.180799,0 0.350573,0 0.511528,0 z M 11.217095,11.217372 9.7707059,8.7369031 8.3232149,11.217372 z m 0,0 2.159661,0 c 0.0088,-0.274505 0.01102,-0.582083 0.01102,-0.930451 l 0,-0.3097836 -0.723191,-1.2402343 z M 12.664586,8.7369031 11.217095,6.2564344 9.7707059,8.7369031 z m 0,0 0.723194,0 0,-1.2402343 z m -2.8938801,0 L 8.3232149,6.2564344 6.876826,8.7369031 z m -2.8938799,0 -1.4474921,2.4804689 2.893881,0 z m 0,0 -1.4474921,-2.4804687 -1.446389,2.4804687 z m -2.8938811,0 -1.447491,2.4804689 2.89388,0 z m 0,0 L 2.5354539,6.2564344 1.089065,8.7369031 z m -2.8938799,0 -0.93045111,1.5941139 c 0,0.329628 0.0033,0.623977 0.011021,0.886355 l 2.36581611,0 z m 0,0 -0.93045111,-1.5941145 0,1.5941145 z m 1.4463889,2.4804689 -1.217083,2.086901 c 0.450894,0.08268 1.0748701,0.08378 1.9413801,0.08378 l 0.5423959,0 z m 0,-4.9609376 -1.4463889,-2.4804689 -0.93045111,1.5941148 0,0.8863541 z m 0,0 2.89388,0 -1.446389,-2.4804689 z M 3.9829449,3.7759655 2.5354539,1.2954971 1.089065,3.7759655 z m 0,0 2.8938811,0 -1.4474921,-2.4804684 z m 1.446389,-2.4804684 -0.6636628,-1.13660599 -1.5070221,0 c -0.020949,0 -0.03858,0 -0.05953,0 L 2.5354551,1.2954971 z m 0,0 2.893881,0 -0.6636639,-1.13660599 -1.5665529,0 z m 2.893881,0 2.8938801,0 -0.663663,-1.13660599 c -0.08819,0 -0.171979,0 -0.266788,0 l -1.299766,0 z m 0,0 -1.4463889,2.4804684 2.8938799,0 z m 1.447491,2.4804684 2.8938801,0 -1.447491,-2.4804684 z m 0,0 -1.447491,2.4804689 2.8938801,0 z m 1.4463891,2.4804689 2.170685,0 0,-1.2402343 -0.723194,-1.2402346 z m 1.447491,-2.4804689 0.723194,0 0,-0.5170399 c 0,-0.2579689 -0.0022,-0.4938887 -0.0066,-0.7121699 z M 8.3232149,6.2564344 6.876826,3.7759655 5.4293339,6.2564344 z m 2.8938801,-4.9609373 2.062647,0 C 13.123197,0.51718101 12.747268,0.27133921 11.859812,0.19416891 z m -8.6816411,0 L 1.88502,0.17983741 C 0.85204299,0.23826641 0.43422079,0.46095691 0.26665199,1.2954971 z M 1.089065,3.7759655 0.17514989,2.2083096 c -0.01213,0.3031684 -0.016541,0.6515361 -0.016541,1.050616 l 0,0.5170399 z m 4.3402689,7.4414065 -1.2655901,2.170686 2.532283,0 z m 2.893881,0 -1.2655909,2.170686 2.532283,0 z m -7.59133711,1.86862 -0.451997,-0.775009 c 0.08268,0.37152 0.2215891,0.615157 0.451997,0.775009 z"/><path id="path20" fill="#f9f9f9" fill-opacity="1" d="m -56.135592,12.508474 a 8.7457628,8.4406776 0 1 1 -17.491526,0 8.7457628,8.4406776 0 1 1 17.491526,0 z" transform="matrix(0.19361757,0,0,0.20061581,21.875504,4.2639358)"/></svg>