<svg xmlns="http://www.w3.org/2000/svg" xmlns:svg="http://www.w3.org/2000/svg" xmlns:xlink="http://www.w3.org/1999/xlink" id="svg2" width="48" height="48" version="1.1"><metadata id="metadata44"/><defs id="defs4"><linearGradient id="0" x2="0" y1="1050.36" y2="1006.36" gradientUnits="userSpaceOnUse" xlink:href="#1"/><linearGradient id="1"><stop id="stop8" stop-color="#aaa"/><stop id="stop10" offset="1" stop-color="#c8c8c8"/></linearGradient><radialGradient id="radialGradient3018" cx="148.004" cy="160" r="128" gradientTransform="matrix(0.05167489,0,0,0.05167489,-0.87511211,-1.4947611)" gradientUnits="userSpaceOnUse" spreadMethod="pad" xlink:href="#linearGradient4460-7-2"/><linearGradient id="linearGradient4460-7-2"><stop id="stop8-6-7" offset="0" stop-color="#747474" stop-opacity="1"/><stop id="stop10-2-5" offset="1" stop-color="#2d2d2d" stop-opacity="1"/></linearGradient><radialGradient id="radialGradient3034" cx="148.004" cy="160" r="128" gradientTransform="matrix(0.1831,0,0,0.1831,-3.10079,-5.296396)" gradientUnits="userSpaceOnUse" spreadMethod="pad" xlink:href="#linearGradient4460-7-2"/><linearGradient id="linearGradient3040" x2="0" y1="1050.36" y2="1006.36" gradientUnits="userSpaceOnUse" xlink:href="#1"/><linearGradient id="linearGradient3049" x2="0" y1="1050.36" y2="1006.36" gradientTransform="translate(0,-1004.3622)" gradientUnits="userSpaceOnUse" xlink:href="#1"/></defs><path id="path11-4" fill="url(#radialGradient3034)" fill-opacity="1" d="m 47.436997,11.547358 0,24.906249 c 0,10.25 0,10.984376 -10.984372,10.984376 l -24.902344,0 C 0.562,47.437983 0.562,46.703607 0.562,36.453607 l 0,-24.906249 c 0,-10.2499997 0,-10.984375 10.988281,-10.984375 l 24.902344,0 c 10.984372,0 10.984372,0.7343753 10.984372,10.984375 z"/><path id="path15-5" fill="#fff" fill-opacity=".051" d="m 38.265122,47.437983 c 2.542971,-0.01169 4.378911,-0.08203 5.710939,-0.441408 l -4.230471,-7.249999 -4.484374,7.691407 1.191409,0 c 0.640626,0 1.242184,0 1.812497,0 z m 1.480468,-7.691407 -5.125,-8.789062 -5.128905,8.789062 z m 0,0 7.652349,0 c 0.03118,-0.972656 0.03905,-2.062499 0.03905,-3.296874 l 0,-1.097657 -2.562495,-4.394531 z m 5.128912,-8.789062 -5.128912,-8.789062 -5.125,8.789062 z m 0,0 2.562495,0 0,-4.394531 z m -10.253912,0 -5.128905,-8.789062 -5.125001,8.789062 z m -10.253906,0 -5.128905,8.789062 10.253906,0 z m 0,0 -5.128905,-8.789062 -5.125,8.789062 z m -10.253905,0 -5.128904,8.789062 10.253904,0 z m 0,0 -5.128904,-8.789062 -5.125001,8.789062 z m -10.253905,0 L 0.562,36.605951 c 0,1.16797 0.01169,2.210939 0.03905,3.140625 l 8.382814,0 z m 0,0 -3.296874,-5.648437 0,5.648437 z m 5.125001,8.789062 -4.312499,7.394531 C 6.26903,47.434067 8.479967,47.438 11.550281,47.438 l 1.921872,0 z m 0,-17.578124 L 3.858874,13.37939 0.562,19.027828 l 0,3.140624 z m 0,0 10.253904,0 -5.125,-8.789062 z M 14.112779,13.37939 8.983875,4.5903275 3.858874,13.37939 z m 0,0 10.253905,0 -5.128905,-8.7890625 z m 5.125,-8.7890625 -2.351561,-4.0273445 -5.335937,0 c -0.07813,0 -0.140634,0 -0.214831,0 L 8.983889,4.5903275 z m 0,0 10.253906,0 -2.351562,-4.0273445 -5.550782,0 z m 10.253906,0 10.253905,0 -2.351558,-4.0273445 c -0.31252,0 -0.609378,0 -0.941407,0 l -4.609379,0 z m 0,0 -5.125001,8.7890625 10.253906,0 z m 5.128905,8.7890625 10.253912,0 -5.128912,-8.7890625 z m 0,0 -5.128905,8.789062 10.253905,0 z m 5.125,8.789062 7.691407,0 0,-4.39453 -2.562495,-4.394532 z m 5.128912,-8.789062 2.562495,0 0,-1.832032 c 0,-0.914063 -0.0078,-1.7499992 -0.02339,-2.5234365 z M 29.491685,22.168452 24.366684,13.37939 19.237779,22.168452 z M 39.74559,4.5903275 l 7.308595,0 C 46.499498,1.8325146 45.16747,0.9614213 42.022934,0.687984 z m -30.761715,0 L 6.679188,0.637202 C 3.019029,0.8442342 1.538561,1.6332954 0.944812,4.5903275 z M 3.858874,13.37939 0.620592,7.8247027 c -0.04298,1.0742187 -0.05857,2.3085923 -0.05857,3.7226553 l 0,1.832032 z m 15.378905,26.367186 -4.484377,7.691407 8.972656,0 z m 10.253906,0 -4.484374,7.691407 8.972656,0 z M 2.59325,46.36767 0.991687,43.621575 c 0.292961,1.316406 0.785158,2.17969 1.601563,2.746095 z"/><g id="g30" fill="#f9f9f9" fill-opacity="1" transform="matrix(3.543307,0,0,3.543307,-1.9990905,7.0014)"><path id="path32" fill="#f9f9f9" fill-opacity="1" d="m 10.001049,8.4667169 c 0,0 0.15918,-0.091699 0.15895,-0.5644279 7e-6,-0.4553909 -0.1792446,-0.5644277 -0.1792446,-0.5644277 l -4.2519024,1.5e-6 -1.2132963,0.5644219 1.2132972,0.5644322 z"/></g><path id="path40" fill="#f9f9f9" fill-opacity="1" d="m 19.921033,31.0016 -2.920246,0 0,-20 14.000001,0 0,2.0657 -11.079755,0 0,6.9015 10.409815,0 0,2.0656 -10.409815,0 0,8.9672"/></svg>