<svg xmlns="http://www.w3.org/2000/svg" xmlns:svg="http://www.w3.org/2000/svg" xmlns:xlink="http://www.w3.org/1999/xlink" id="svg2" width="48" height="48" version="1.1" viewBox="0 0 13.547 13.547"><metadata id="metadata265"/><defs id="defs4"><clipPath id="clipPath6"><rect id="rect8" width="16" height="16" x="432" y="116" color="#bebebe" rx="3"/></clipPath><clipPath id="clipPath10"><rect id="rect12" width="22" height="22" x="433" y="77" color="#bebebe" rx="5"/></clipPath><clipPath id="clipPath14"><rect id="rect16" width="20" height="20" x="434" y="78" color="#bebebe" rx="4"/></clipPath><clipPath id="clipPath18"><rect id="rect20" width="60" height="60" x="306" y="142" fill="url(#3)" color="#bebebe" rx="12.5" transform="matrix(0 -1 1 0 0 0)"/></clipPath><clipPath id="clipPath22"><rect id="rect24" width="22" height="22" x="433" y="77" color="#bebebe" rx="4"/></clipPath><clipPath id="clipPath26"><rect id="rect28" width="30" height="30" x="433" y="29" color="#bebebe" rx="6"/></clipPath><clipPath id="clipPath30"><rect id="rect32" width="42" height="42" x="307" y="223" fill="url(#6)" color="#bebebe" rx="9" transform="rotate(90)"/></clipPath><clipPath id="clipPath34"><rect id="rect36" width="22" height="22" x="433" y="77" color="#bebebe" rx="5"/></clipPath><clipPath id="clipPath38"><rect id="rect40" width="90" height="90" x="307" y="31" fill="url(#0)" color="#bebebe" rx="18.75"/></clipPath><clipPath id="clipPath42"><rect id="rect44" width="22" height="22" x="433" y="77" fill="#6d6d6d" color="#bebebe" opacity=".2" rx="3"/></clipPath><clipPath id="clipPath46"><rect id="rect48" width="16" height="16" x="432" y="116" fill="#6d6d6d" color="#bebebe" opacity=".2" rx="2"/></clipPath><clipPath id="clipPath50"><rect id="rect52" width="30" height="30" x="433" y="29" fill="#6d6d6d" color="#bebebe" opacity=".2" rx="4"/></clipPath><clipPath id="clipPath54"><rect id="rect56" width="30" height="30" x="433" y="29" color="#bebebe" rx="6"/></clipPath><clipPath id="clipPath58"><rect id="rect60" width="16" height="16" x="432" y="116" fill="#6d6d6d" color="#bebebe" opacity=".2" rx="2"/></clipPath><clipPath id="clipPath62"><rect id="rect64" width="90" height="90" x="307" y="31" fill="url(#5)" color="#bebebe" rx="18.75"/></clipPath><clipPath id="clipPath66"><path id="path68" d="m 104,100 0,40 -40,0 0,40 40,0 0,40 40,0 80,0 0,-120 -80,0 -40,0 z"/></clipPath><clipPath id="clipPath70"><rect id="rect72" width="240" height="240" x="24" y="36" fill="#986767" color="#bebebe" rx="50"/></clipPath><clipPath id="clipPath74"><rect id="rect76" width="240" height="240" x="24" y="36" fill="#986767" color="#bebebe" rx="50"/></clipPath><clipPath id="clipPath78"><rect id="rect80" width="22" height="22" x="433" y="77" fill="#6d6d6d" color="#bebebe" opacity=".2" rx="3"/></clipPath><clipPath id="clipPath82"><rect id="rect84" width="22" height="22" x="433" y="77" color="#bebebe" rx="4"/></clipPath><clipPath id="clipPath86"><rect id="rect88" width="30" height="30" x="433" y="29" fill="#6d6d6d" color="#bebebe" opacity=".2" rx="4"/></clipPath><clipPath id="clipPath90"><rect id="rect92" width="60" height="60" x="306" y="142" fill="url(#4)" color="#bebebe" rx="12.5" transform="matrix(0 -1 1 0 0 0)"/></clipPath><clipPath id="clipPath94"><rect id="rect96" width="16" height="16" x="432" y="116" color="#bebebe" rx="3"/></clipPath><clipPath id="clipPath98"><rect id="rect100" width="20" height="20" x="434" y="78" color="#bebebe" rx="4"/></clipPath><clipPath id="clipPath102"><rect id="rect104" width="42" height="42" x="307" y="223" fill="url(#2)" color="#bebebe" rx="9" transform="rotate(90)"/></clipPath><linearGradient id="0" x2="0" y1="230" y2="90" gradientTransform="matrix(.375 0 0 .375 298 16)" gradientUnits="userSpaceOnUse" xlink:href="#7"/><linearGradient id="1"><stop id="stop108" stop-color="#e0491e"/><stop id="stop110" offset="1" stop-color="#f77737"/></linearGradient><linearGradient id="2" x2="0" y1="280" y2="40" gradientTransform="matrix(.175 0 0 .175 302.79999 215.99997)" gradientUnits="userSpaceOnUse" xlink:href="#8"/><linearGradient id="3" x2="0" y1="230" y2="90" gradientTransform="matrix(.25 0 0 .25 299.99999 131.99999)" gradientUnits="userSpaceOnUse" xlink:href="#7"/><linearGradient id="4" x2="0" y1="230" y2="90" gradientTransform="matrix(.25 0 0 .25 299.99999 131.99999)" gradientUnits="userSpaceOnUse" xlink:href="#8"/><linearGradient id="5" x2="0" y1="230" y2="90" gradientTransform="matrix(.375 0 0 .375 298 16)" gradientUnits="userSpaceOnUse" xlink:href="#8"/><linearGradient id="6" x2="0" y1="280" y2="40" gradientTransform="matrix(.175 0 0 .175 302.79999 215.99997)" gradientUnits="userSpaceOnUse" xlink:href="#7"/><linearGradient id="7"><stop id="stop118" stop-color="#323232"/><stop id="stop120" offset="1" stop-color="#767676"/></linearGradient><linearGradient id="8"><stop id="stop123" stop-color="#f3f3f3"/><stop id="stop125" offset="1" stop-color="#fff"/></linearGradient><clipPath id="clipPath127"><rect id="rect129" width="477.14" height="208.57" x="-830" y="1580.93" fill="#ff0"/></clipPath><clipPath id="clipPath131"><rect id="rect133" width="477.14" height="208.57" x="-830" y="1580.93" fill="#ff0"/></clipPath><clipPath id="clipPath135"><rect id="rect137" width="477.14" height="208.57" x="-830" y="1580.93" fill="#ff0"/></clipPath><clipPath id="clipPath139"><rect id="rect141" width="477.14" height="208.57" x="-830" y="1580.93" fill="#ff0"/></clipPath><clipPath id="clipPath143"><rect id="rect145" width="357.87" height="240.87" x="294.93" y="780.64" fill="red" transform="matrix(.99975 -.02255 .02255 .99975 0 0)"/></clipPath><clipPath id="clipPath147"><rect id="rect149" width="301.43" height="195" y="857.54" fill="#fff"/></clipPath><clipPath id="clipPath151"><rect id="rect153" width="477.14" height="208.57" x="-830" y="1580.93" fill="#ff0"/></clipPath><clipPath id="clipPath155"><rect id="rect157" width="79.48" height="30.01" x="276.37" y="977.09" fill="#e20a17"/></clipPath><clipPath id="clipPath159"><rect id="rect161" width="506.46" height="37.48" x="8.208" y=".064" fill="#162d50" transform="rotate(20.37582)"/></clipPath><clipPath id="clipPath163"><rect id="rect165" width="357.38" height="318.4" x="218.9" y="758.67" fill="#fff" transform="rotate(.22918)"/></clipPath><clipPath id="clipPath167"><rect id="rect169" width="357.38" height="318.4" x="218.9" y="758.67" fill="#fff" transform="rotate(.22918)"/></clipPath><clipPath id="clipPath171"><rect id="rect173" width="506.46" height="37.48" x="8.208" y=".064" fill="#162d50" transform="rotate(20.37582)"/></clipPath><clipPath id="clipPath175"><rect id="rect177" width="477.14" height="208.57" x="-830" y="1580.93" fill="#ff0"/></clipPath><clipPath id="clipPath179"><rect id="rect181" width="350.46" height="235.88" x="221.39" y="804.24" transform="rotate(.6171)"/></clipPath><clipPath id="clipPath183"><rect id="rect185" width="287.43" height="279.03" x="257.32" y="793.52" fill="#fff" transform="rotate(.16206)"/></clipPath><clipPath id="clipPath187"><rect id="rect189" width="301.43" height="195" y=".06" fill="#fff"/></clipPath><clipPath id="clipPath191"><rect id="rect193" width="301.43" height="195" y="857.54" fill="#fff"/></clipPath><path id="9" fill="#4a0" d="m 699.2857,672.93231 a 40.714287,40.714287 0 1 1 -81.42858,0 40.714287,40.714287 0 1 1 81.42858,0 z" clip-path="url(#B)"/><clipPath id="clipPath196"><use id="use198" transform="matrix(4.3233 0 0 4.3233 -2450.68 -2667.55)" xlink:href="#9"/></clipPath><clipPath id="clipPath200"><rect id="rect202" width="63.987" height="41.39" x="448.12" y="815.74" fill="#fff" transform="rotate(27.44968)"/></clipPath><clipPath id="clipPath204"><rect id="rect206" width="301.43" height="195" y="857.54" fill="#fff"/></clipPath><clipPath id="clipPath208"><rect id="rect210" width="477.14" height="208.57" x="-830" y="1580.93" fill="#ff0"/></clipPath><clipPath id="clipPath212"><rect id="rect214" width="477.14" height="208.57" x="-830" y="1580.93" fill="#ff0"/></clipPath><clipPath id="clipPath216"><rect id="rect218" width="477.14" height="208.57" x="-830" y="1580.93" fill="#ff0"/></clipPath><clipPath id="clipPath220"><rect id="rect222" width="477.14" height="208.57" x="-830" y="1580.93" fill="#ff0"/></clipPath><clipPath id="clipPath224"><rect id="rect226" width="477.14" height="208.57" x="-830" y="1580.93" fill="#ff0"/></clipPath><clipPath id="clipPath228"><use id="use230" xlink:href="#9"/></clipPath><clipPath id="clipPath232"><rect id="rect234" width="477.14" height="208.57" x="-830" y="1580.93" fill="#ff0"/></clipPath><path id="A" fill="#4a0" d="m 699.2857,672.93231 a 40.714287,40.714287 0 1 1 -81.42858,0 40.714287,40.714287 0 1 1 81.42858,0 z"/><clipPath id="B"><use id="use238" xlink:href="#A"/></clipPath><clipPath id="clipPath240"><use id="use242" transform="matrix(4.3233 0 0 4.3233 -2450.68 -2667.55)" xlink:href="#A"/></clipPath><linearGradient id="C" x2="0" y1="1050.36" y2="1006.36" gradientTransform="matrix(0.28222223,0,0,0.28222223,0,-283.45334)" gradientUnits="userSpaceOnUse" xlink:href="#1"/><radialGradient id="radialGradient3018" cx="148.004" cy="160" r="128" gradientTransform="matrix(0.05167489,0,0,0.05167489,-0.87511161,-1.4947612)" gradientUnits="userSpaceOnUse" xlink:href="#radial0"/><radialGradient id="radial0" cx="148.004" cy="160" r="128" fx="148.004" fy="160" gradientTransform="matrix(0.1831,0,0,0.1831,-3.10029,-5.29688)" gradientUnits="userSpaceOnUse" spreadMethod="pad"><stop id="stop7-9" offset="0" stop-color="#febb94" stop-opacity="1"/><stop id="stop9-7" offset="1" stop-color="#ec7d01" stop-opacity="1"/></radialGradient><radialGradient id="radialGradient3011" cx="148.004" cy="160" r="128" gradientTransform="matrix(0.05167489,0,0,0.05167489,-0.87510911,-1.4947614)" gradientUnits="userSpaceOnUse" xlink:href="#radial0"/></defs><path id="path11" fill="url(#radialGradient3011)" fill-opacity="1" d="m 13.387779,3.2589207 0,7.0290973 c 0,2.892778 0,3.100035 -3.100035,3.100035 l -7.0279946,0 c -3.10113751,0 -3.10113751,-0.207257 -3.10113751,-3.100035 l 0,-7.0290973 c 0,-2.89277793 0,-3.10003483 3.10113751,-3.10003483 l 7.0279946,0 c 3.100035,0 3.100035,0.2072569 3.100035,3.10003483 z"/><path id="path15" fill="#fff" fill-opacity=".051" d="m 10.799272,13.388053 c 0.717682,-0.0033 1.235825,-0.02315 1.611753,-0.124575 l -1.193932,-2.046111 -1.2655901,2.170686 0.3362411,0 c 0.180799,0 0.350573,0 0.511528,0 z M 11.217093,11.217367 9.7707043,8.7368982 8.323213,11.217367 z m 0,0 2.159662,0 c 0.0088,-0.274505 0.01102,-0.582083 0.01102,-0.930451 l 0,-0.3097839 -0.723193,-1.2402339 z M 12.664585,8.7368982 11.217093,6.2564295 9.7707043,8.7368982 z m 0,0 0.723194,0 0,-1.2402343 z m -2.8938807,0 L 8.323213,6.2564295 6.8768241,8.7368982 z m -2.8938802,0 -1.4474916,2.4804688 2.8938805,0 z m 0,0 L 5.4293325,6.2564295 3.9829436,8.7368982 z m -2.8938805,0 -1.4474912,2.4804688 2.8938801,0 z m 0,0 L 2.5354524,6.2564295 1.0890635,8.7368982 z m -2.8938801,0 -0.93045161,1.5941148 c 0,0.329627 0.0033,0.623976 0.01102,0.886354 l 2.36581631,0 z m 0,0 -0.93045161,-1.5941145 0,1.5941145 z m 1.4463889,2.4804688 -1.2170833,2.086901 c 0.450894,0.08268 1.0748699,0.08379 1.9413803,0.08379 l 0.5423956,0 z m 0,-4.9609375 -1.4463889,-2.4804689 -0.93045161,1.5941147 0,0.8863542 z m 0,0 2.8938801,0 L 3.9829436,3.7759606 z M 3.9829436,3.7759606 2.5354524,1.2954919 1.0890635,3.7759606 z m 0,0 2.8938805,0 L 5.4293325,1.2954919 z M 5.4293325,1.2954919 4.7656697,0.15888587 l -1.5070229,0 c -0.020946,0 -0.038585,0 -0.059531,0 L 2.5354525,1.2954919 z m 0,0 2.8938805,0 -0.6636631,-1.13660603 -1.566554,0 z m 2.8938805,0 2.89388,0 -0.663663,-1.13660603 c -0.0882,0 -0.171979,0 -0.266788,0 l -1.2997659,0 z m 0,0 -1.4463889,2.4804687 2.8938802,0 z m 1.4474913,2.4804687 2.8938807,0 -1.447492,-2.4804687 z m 0,0 -1.4474913,2.4804689 2.89388,0 z m 1.4463887,2.4804689 2.170686,0 0,-1.2402343 -0.723194,-1.2402346 z m 1.447492,-2.4804689 0.723194,0 0,-0.5170399 c 0,-0.2579689 -0.0022,-0.4938889 -0.0066,-0.71217 z M 8.323213,6.2564295 6.8768241,3.7759606 5.4293325,6.2564295 z m 2.89388,-4.9609376 2.062648,0 C 13.123196,0.51717577 12.747267,0.27133397 11.85981,0.19416367 z m -8.6816406,0 L 1.8850185,0.17983207 C 0.85204089,0.23826107 0.43421989,0.46095168 0.26664989,1.2954919 z M 1.0890635,3.7759606 0.17514889,2.2083044 c -0.01213,0.3031685 -0.01654,0.6515363 -0.01654,1.0506163 l 0,0.5170399 z m 4.340269,7.4414064 -1.2655903,2.170686 2.532283,0 z m 2.8938805,0 -1.2655906,2.170686 2.5322833,0 z m -7.59133711,1.86862 -0.451996,-0.775009 c 0.08268,0.371519 0.221588,0.615157 0.451996,0.775009 z"/><path id="path261" fill="#f9f9f9" d="M 21.1875 15 C 20.620872 15.01658 20.039567 15.110781 19.46875 15.3125 C 17.026614 16.175388 15.170053 18.675888 14.625 21.78125 C 13.021312 22.183434 11.629461 23.668401 11.15625 25.78125 C 10.484554 28.780602 11.89338 31.875046 14.28125 32.71875 C 14.32035 32.73058 14.36712 32.7393 14.40625 32.75 C 14.736054 32.898029 15.066191 33 15.4375 33 L 32.78125 33 C 33.400925 33 33.952914 32.763238 34.4375 32.375 C 36.372856 31.214304 37.444291 28.462782 36.84375 25.78125 C 36.400068 23.800108 35.161551 22.346519 33.6875 21.84375 C 33.67474 21.77743 33.67092 21.722567 33.65625 21.65625 C 32.984542 18.656913 30.481597 16.906295 28.09375 17.75 C 27.635356 17.912237 27.228209 18.178936 26.84375 18.5 C 25.527175 16.278544 23.420034 14.937189 21.1875 15 z M 24 19 L 25 21 L 23 21 L 24 19 z M 18 20 L 20 20 L 20 21 L 19 21 L 19 22 L 20 22 L 20 24 L 19 24 L 19 25 L 20 25 L 20 27 L 19 27 L 19 28 L 20 28 L 20 30 L 19 30 L 19 31 L 20 31 L 20 32 L 18 32 L 18 20 z M 28.75 20.40625 L 28.75 21.5 C 28.622435 21.5906 28.53125 21.737871 28.53125 21.90625 C 28.53125 22.182392 28.755108 22.40625 29.03125 22.40625 C 29.307392 22.40625 29.53125 22.182392 29.53125 21.90625 C 29.53125 21.714298 29.408706 21.552548 29.25 21.46875 L 29.25 20.40625 C 29.643073 21.009446 30.2482 21.945717 29.90625 22.5625 C 29.576701 23.156909 28.427143 23.15386 28.09375 22.5625 C 27.750037 21.952837 28.345346 21.011453 28.75 20.40625 z M 23 22 L 25 22 L 25 32 L 23 32 L 23 22 z M 28 24 L 30 24 L 30 32 L 28 32 L 28 24 z" transform="scale(0.28222223,0.28222223)"/></svg>