<svg xmlns="http://www.w3.org/2000/svg" xmlns:svg="http://www.w3.org/2000/svg" xmlns:xlink="http://www.w3.org/1999/xlink" id="svg2" width="48" height="48" version="1.1" viewBox="0 0 13.547 13.547"><metadata id="metadata24"/><defs id="defs4"><linearGradient id="linearGradient4460"><stop id="stop7" offset="0" stop-color="#ad5517"/><stop id="stop9" offset="1" stop-color="#e16f1f"/></linearGradient><linearGradient id="linearGradient4428" x2="0" y1="279.096" y2="268.33" gradientTransform="matrix(1.10525,0,0,1.10525,-134.27874,-295.76183)" gradientUnits="userSpaceOnUse" xlink:href="#linearGradient4460"/><linearGradient id="linearGradient3899" x1="401.5" x2="401.5" y1="134.5" y2="35.5" gradientTransform="matrix(0.21212121,0,0,0.21212121,349.33333,129.9697)" gradientUnits="userSpaceOnUse" xlink:href="#linearGradient4041"/><linearGradient id="linearGradient3895" x1="401.5" x2="401.5" y1="134.5" y2="35.5" gradientTransform="matrix(0.24242424,0,0,0.24242424,342.66667,91.393942)" gradientUnits="userSpaceOnUse" xlink:href="#linearGradient4041"/><linearGradient id="linearGradient3891" x1="401.5" x2="401.5" y1="134.5" y2="35.5" gradientTransform="matrix(0.33333333,0,0,0.33333333,314.66667,39.66667)" gradientUnits="userSpaceOnUse" xlink:href="#linearGradient4041"/><linearGradient id="linearGradient3887" x1="401.5" x2="401.5" y1="134.5" y2="35.5" gradientTransform="matrix(2.2727272,0,0,2.2727273,-655.99999,-37.181796)" gradientUnits="userSpaceOnUse" xlink:href="#linearGradient4041"/><linearGradient id="linearGradient3883" x1="401.5" x2="401.5" y1="134.5" y2="35.5" gradientTransform="translate(-15.999999,-8.99999)" gradientUnits="userSpaceOnUse" xlink:href="#linearGradient4041"/><linearGradient id="linearGradient3879" x1="401.5" x2="401.5" y1="134.5" y2="35.5" gradientTransform="matrix(0.66666666,0,0,0.66666666,85.333336,115.33334)" gradientUnits="userSpaceOnUse" xlink:href="#linearGradient4041"/><linearGradient id="linearGradient3871" x1="401.5" x2="401.5" y1="134.5" y2="35.5" gradientTransform="matrix(0.48484848,0,0,0.48484848,141.33334,202.78788)" gradientUnits="userSpaceOnUse" xlink:href="#linearGradient4041"/><linearGradient id="linearGradient3332" x1="344" x2="360" y1="48" y2="120" gradientTransform="matrix(0.48484848,0,0,0.48484848,141.33334,202.78788)" gradientUnits="userSpaceOnUse" xlink:href="#linearGradient4041"/><linearGradient id="linearGradient4041"><stop id="stop4043" offset="0" stop-color="#ff6b00" stop-opacity="1"/><stop id="stop4045" offset="1" stop-color="#fe0" stop-opacity="1"/></linearGradient><linearGradient id="linearGradient4145" x1="344" x2="360" y1="48" y2="120" gradientTransform="matrix(0.48484848,0,0,0.48484848,157.33334,210.78788)" gradientUnits="userSpaceOnUse" xlink:href="#linearGradient4041"/><clipPath id="clipPath3319" clipPathUnits="userSpaceOnUse"><path id="path3321" fill="url(#linearGradient4063)" fill-opacity="1" fill-rule="evenodd" stroke="none" d="m 354.86109,118 c -1.8996,-12.45313 -13.15124,-10.92696 -20.45752,-20.554999 -4.49745,-5.081917 -6.90039,-18.152021 2.43544,-27.37416 -1.1041,9.579323 0.17861,13.6059 5.45531,17.924775 -2.35422,-4.952062 -3.08439,-11.995623 -0.82801,-16.853182 2.76375,-5.949983 10.39112,-12.87528 10.52102,-19.142434 4.36202,2.178866 7.92821,8.352919 5.94243,14.368984 -3.85543,11.680556 0.10189,12.135543 1.94832,13.248716 -0.37991,-7.072519 1.0237,-8.206151 2.38673,-10.423628 1.02898,7.51113 12.13245,12.469545 11.25168,21.870132 -0.54446,5.811093 -5.52033,11.186756 -9.69301,14.563846 0.37909,-7.615119 0.0767,-8.633953 -7.11146,-14.612521 -2.75975,-2.295398 -3.9291,-3.912975 -5.30916,-6.867919 -0.85908,2.610094 -2.43714,6.487429 3.26799,14.45466 5.21391,7.28145 0.61392,16.7798 0.19057,19.39773 z" display="inline" enable-background="new"/></clipPath><clipPath id="clipPath4059" clipPathUnits="userSpaceOnUse"><path id="path4061" fill="url(#linearGradient4063)" fill-opacity="1" fill-rule="evenodd" stroke="none" d="m 354.86109,118 c -1.8996,-12.45313 -13.15124,-10.92696 -20.45752,-20.554999 -4.49745,-5.081917 -6.90039,-18.152021 2.43544,-27.37416 -1.1041,9.579323 0.17861,13.6059 5.45531,17.924775 -2.35422,-4.952062 -3.08439,-11.995623 -0.82801,-16.853182 2.76375,-5.949983 10.39112,-12.87528 10.52102,-19.142434 4.36202,2.178866 7.92821,8.352919 5.94243,14.368984 -3.85543,11.680556 0.10189,12.135543 1.94832,13.248716 -0.37991,-7.072519 1.0237,-8.206151 2.38673,-10.423628 1.02898,7.51113 12.13245,12.469545 11.25168,21.870132 -0.54446,5.811093 -5.52033,11.186756 -9.69301,14.563846 0.37909,-7.615119 0.0767,-8.633953 -7.11146,-14.612521 -2.75975,-2.295398 -3.9291,-3.912975 -5.30916,-6.867919 -0.85908,2.610094 -2.43714,6.487429 3.26799,14.45466 5.21391,7.28145 0.61392,16.7798 0.19057,19.39773 z" display="inline" enable-background="new"/></clipPath><linearGradient id="linearGradient3885" x1="283.81" x2="283.81" y1="299.81" y2="31.619" gradientTransform="matrix(0.11931818,0,0,0.11931818,414.13636,48.22727)" gradientUnits="userSpaceOnUse" xlink:href="#outerBackgroundGradient"/><clipPath id="clipPath3881" clipPathUnits="userSpaceOnUse"><rect id="rect3883" width="30" height="30" x="417" y="53" fill="url(#linearGradient3885)" fill-opacity="1" fill-rule="nonzero" stroke="none" stroke-width="0" color="#bebebe" display="inline" enable-background="accumulate" overflow="visible" ry="7" visibility="visible" style="marker:none"/></clipPath><linearGradient id="linearGradient3875" x1="286.857" x2="286.857" y1="302.857" y2="28.571" gradientTransform="matrix(0.0875,0,0,0.0875,414.9,97.5)" gradientUnits="userSpaceOnUse" xlink:href="#outerBackgroundGradient"/><clipPath id="clipPath3871" clipPathUnits="userSpaceOnUse"><rect id="rect3873" width="22" height="22" x="417" y="101" fill="url(#linearGradient3875)" fill-opacity="1" fill-rule="nonzero" stroke="none" stroke-width="0" color="#bebebe" display="inline" enable-background="accumulate" overflow="visible" ry="5" visibility="visible" style="marker:none"/></clipPath><linearGradient id="linearGradient4350" x1="384" x2="384" y1="124" y2="28" gradientUnits="userSpaceOnUse" xlink:href="#outerBackgroundGradient"/><clipPath id="clipPath4346" clipPathUnits="userSpaceOnUse"><rect id="rect4348" width="88" height="88" x="292" y="32" fill="url(#linearGradient4350)" fill-opacity="1" fill-rule="nonzero" stroke="none" stroke-width="0" color="#bebebe" display="inline" enable-background="accumulate" overflow="visible" ry="18" visibility="visible" style="marker:none"/></clipPath><linearGradient id="linearGradient4199" x1="352" x2="352" y1="204" y2="140" gradientUnits="userSpaceOnUse" xlink:href="#outerBackgroundGradient"/><linearGradient id="linearGradient4197" x1="384" x2="384" y1="124" y2="28" gradientUnits="userSpaceOnUse" xlink:href="#outerBackgroundGradient"/><linearGradient id="linearGradient4191" x1="352" x2="352" y1="204" y2="140" gradientUnits="userSpaceOnUse" xlink:href="#outerBackgroundGradient"/><clipPath id="clipPath4187" clipPathUnits="userSpaceOnUse"><rect id="rect4189" width="60" height="60" x="290" y="142" fill="url(#linearGradient4191)" fill-opacity="1" fill-rule="nonzero" stroke="none" stroke-width="0" color="#bebebe" display="inline" enable-background="accumulate" overflow="visible" ry="12.5" visibility="visible" style="marker:none"/></clipPath><linearGradient id="linearGradient3876" x1="272" x2="272" y1="288" y2="32" gradientTransform="translate(0,-4)" gradientUnits="userSpaceOnUse" xlink:href="#outerBackgroundGradient"/><linearGradient id="linearGradient3866" x1="144" x2="144" y1="280" y2="40" gradientTransform="translate(0,-4)" gradientUnits="userSpaceOnUse" xlink:href="#outerBackgroundGradient"/><clipPath id="clipPath3862" clipPathUnits="userSpaceOnUse"><rect id="rect3864" width="220" height="220" x="34" y="46" fill="url(#linearGradient3866)" fill-opacity="1" fill-rule="nonzero" stroke="none" stroke-width="0" color="#bebebe" display="inline" enable-background="accumulate" overflow="visible" ry="50" visibility="visible" style="marker:none"/></clipPath><linearGradient id="linearGradient3859" x1="144" x2="144" y1="280" y2="40" gradientTransform="matrix(0.06666667,0,0,0.06666667,302.4,209.33333)" gradientUnits="userSpaceOnUse" xlink:href="#outerBackgroundGradient"/><clipPath id="clipPath3855" clipPathUnits="userSpaceOnUse"><rect id="rect3857" width="16" height="16" x="304" y="212" fill="url(#linearGradient3859)" fill-opacity="1" fill-rule="nonzero" stroke="none" stroke-width="0" color="#bebebe" display="inline" enable-background="accumulate" overflow="visible" ry="3" transform="matrix(0,1,-1,0,0,0)" visibility="visible" style="marker:none"/></clipPath><linearGradient id="linearGradient4093" x1="149.714" x2="149.714" y1="291.429" y2="40" gradientTransform="matrix(0.11931818,0,0,0.11931818,430.13636,32.227267)" gradientUnits="userSpaceOnUse" xlink:href="#outerBackgroundGradient"/><clipPath id="clipPath4089" clipPathUnits="userSpaceOnUse"><rect id="rect4091" width="30" height="30" x="433" y="37" fill="url(#linearGradient4093)" fill-opacity="1" fill-rule="nonzero" stroke="none" stroke-width="0" color="#bebebe" display="inline" enable-background="accumulate" overflow="visible" ry="6" visibility="visible" style="marker:none"/></clipPath><linearGradient id="linearGradient4048" x1="149.714" x2="149.714" y1="291.429" y2="40" gradientTransform="matrix(0.0875,0,0,0.0875,430.9,81.499996)" gradientUnits="userSpaceOnUse" xlink:href="#outerBackgroundGradient"/><clipPath id="clipPath4044" clipPathUnits="userSpaceOnUse"><rect id="rect4046" width="22" height="22" x="433" y="85" fill="url(#linearGradient4048)" fill-opacity="1" fill-rule="nonzero" stroke="none" stroke-width="0" color="#bebebe" display="inline" enable-background="accumulate" overflow="visible" ry="4" visibility="visible" style="marker:none"/></clipPath><linearGradient id="linearGradient4895" x1="144" x2="144" y1="280" y2="40" gradientTransform="matrix(0.175,0,0,0.175,302.79999,215.99997)" gradientUnits="userSpaceOnUse" xlink:href="#outerBackgroundGradient"/><clipPath id="clipPath4891" clipPathUnits="userSpaceOnUse"><rect id="rect4893" width="42" height="42" x="307" y="223" fill="url(#linearGradient4895)" fill-opacity="1" fill-rule="nonzero" stroke="none" stroke-width="0" color="#bebebe" display="inline" enable-background="accumulate" overflow="visible" ry="9" transform="matrix(0,1,-1,0,0,0)" visibility="visible" style="marker:none"/></clipPath><linearGradient id="linearGradient4869" x1="281.143" x2="281.143" y1="297.143" y2="22.857" gradientTransform="matrix(0.175,0,0,-0.175,286.79999,-215.99997)" gradientUnits="userSpaceOnUse" xlink:href="#outerBackgroundGradient"/><linearGradient id="linearGradient4153" x1="283.81" x2="283.81" y1="299.81" y2="31.619" gradientTransform="matrix(0.11931818,0,0,0.11931818,414.13636,48.22727)" gradientUnits="userSpaceOnUse" xlink:href="#outerBackgroundGradient"/><linearGradient id="linearGradient4101" x1="286.857" x2="286.857" y1="302.857" y2="28.571" gradientTransform="matrix(0.0875,0,0,0.0875,414.9,97.5)" gradientUnits="userSpaceOnUse" xlink:href="#outerBackgroundGradient"/><linearGradient id="linearGradient4097" x1="264" x2="264" y1="280" y2="40" gradientTransform="matrix(0.06666667,0,0,0.06666667,414.4,137.33333)" gradientUnits="userSpaceOnUse" xlink:href="#outerBackgroundGradient"/><linearGradient id="outerBackgroundGradient"><stop id="stop3864-8-6" offset="0" stop-color="#3f3f3f" stop-opacity="1"/><stop id="stop3866-9-1" offset="1" stop-color="#545454" stop-opacity="1"/></linearGradient><linearGradient id="linearGradient3233" x1="401.5" x2="401.5" y1="134.5" y2="35.5" gradientTransform="matrix(0.48484848,0,0,0.48484848,141.33334,202.78788)" gradientUnits="userSpaceOnUse" xlink:href="#linearGradient4041"/><linearGradient id="linearGradient3235" x1="401.5" x2="401.5" y1="134.5" y2="35.5" gradientTransform="matrix(0.66666666,0,0,0.66666666,85.333336,115.33334)" gradientUnits="userSpaceOnUse" xlink:href="#linearGradient4041"/><linearGradient id="linearGradient3237" x1="401.5" x2="401.5" y1="134.5" y2="35.5" gradientTransform="translate(-15.999999,-8.99999)" gradientUnits="userSpaceOnUse" xlink:href="#linearGradient4041"/><linearGradient id="linearGradient3239" x1="401.5" x2="401.5" y1="134.5" y2="35.5" gradientTransform="matrix(2.2727272,0,0,2.2727273,-655.99999,-37.181796)" gradientUnits="userSpaceOnUse" xlink:href="#linearGradient4041"/><linearGradient id="linearGradient3241" x1="401.5" x2="401.5" y1="134.5" y2="35.5" gradientTransform="matrix(0.33333333,0,0,0.33333333,314.66667,39.66667)" gradientUnits="userSpaceOnUse" xlink:href="#linearGradient4041"/><linearGradient id="linearGradient3243" x1="401.5" x2="401.5" y1="134.5" y2="35.5" gradientTransform="matrix(0.24242424,0,0,0.24242424,342.66667,91.393942)" gradientUnits="userSpaceOnUse" xlink:href="#linearGradient4041"/><linearGradient id="linearGradient3245" x1="401.5" x2="401.5" y1="134.5" y2="35.5" gradientTransform="matrix(0.21212121,0,0,0.21212121,349.33333,129.9697)" gradientUnits="userSpaceOnUse" xlink:href="#linearGradient4041"/><linearGradient id="linearGradient3306" x1="272" x2="272" y1="288" y2="32" gradientTransform="translate(0,-4)" gradientUnits="userSpaceOnUse" xlink:href="#outerBackgroundGradient"/><linearGradient id="linearGradient3308" x1="264" x2="264" y1="280" y2="40" gradientTransform="matrix(0.06666667,0,0,0.06666667,414.4,137.33333)" gradientUnits="userSpaceOnUse" xlink:href="#outerBackgroundGradient"/><linearGradient id="linearGradient3310" x1="286.857" x2="286.857" y1="302.857" y2="28.571" gradientTransform="matrix(0.0875,0,0,0.0875,414.9,97.5)" gradientUnits="userSpaceOnUse" xlink:href="#outerBackgroundGradient"/><linearGradient id="linearGradient3312" x1="283.81" x2="283.81" y1="299.81" y2="31.619" gradientTransform="matrix(0.11931818,0,0,0.11931818,414.13636,48.22727)" gradientUnits="userSpaceOnUse" xlink:href="#outerBackgroundGradient"/><linearGradient id="linearGradient3314" x1="281.143" x2="281.143" y1="297.143" y2="22.857" gradientTransform="matrix(0.175,0,0,-0.175,286.79999,-215.99997)" gradientUnits="userSpaceOnUse" xlink:href="#outerBackgroundGradient"/><linearGradient id="linearGradient3316" x1="384" x2="384" y1="124" y2="28" gradientUnits="userSpaceOnUse" xlink:href="#outerBackgroundGradient"/><linearGradient id="linearGradient3318" x1="352" x2="352" y1="204" y2="140" gradientUnits="userSpaceOnUse" xlink:href="#outerBackgroundGradient"/><linearGradient id="linearGradient3320" x1="401.5" x2="401.5" y1="134.5" y2="35.5" gradientTransform="matrix(0.48484848,0,0,0.48484848,141.33334,202.78788)" gradientUnits="userSpaceOnUse" xlink:href="#linearGradient4041"/><linearGradient id="linearGradient3322" x1="401.5" x2="401.5" y1="134.5" y2="35.5" gradientTransform="matrix(0.66666666,0,0,0.66666666,85.333336,115.33334)" gradientUnits="userSpaceOnUse" xlink:href="#linearGradient4041"/><linearGradient id="linearGradient3324" x1="401.5" x2="401.5" y1="134.5" y2="35.5" gradientTransform="translate(-15.999999,-8.99999)" gradientUnits="userSpaceOnUse" xlink:href="#linearGradient4041"/><linearGradient id="linearGradient3326" x1="401.5" x2="401.5" y1="134.5" y2="35.5" gradientTransform="matrix(2.2727272,0,0,2.2727273,-655.99999,-37.181796)" gradientUnits="userSpaceOnUse" xlink:href="#linearGradient4041"/><linearGradient id="linearGradient3328" x1="401.5" x2="401.5" y1="134.5" y2="35.5" gradientTransform="matrix(0.33333333,0,0,0.33333333,314.66667,39.66667)" gradientUnits="userSpaceOnUse" xlink:href="#linearGradient4041"/><linearGradient id="linearGradient3330" x1="401.5" x2="401.5" y1="134.5" y2="35.5" gradientTransform="matrix(0.24242424,0,0,0.24242424,342.66667,91.393942)" gradientUnits="userSpaceOnUse" xlink:href="#linearGradient4041"/><linearGradient id="linearGradient3333" x1="401.5" x2="401.5" y1="134.5" y2="35.5" gradientTransform="matrix(0.21212121,0,0,0.21212121,349.33333,129.9697)" gradientUnits="userSpaceOnUse" xlink:href="#linearGradient4041"/><linearGradient id="linearGradient3335" x1="401.5" x2="401.5" y1="134.5" y2="35.5" gradientTransform="matrix(0.48484848,0,0,0.48484848,141.33334,202.78788)" gradientUnits="userSpaceOnUse" xlink:href="#linearGradient4041"/><linearGradient id="linearGradient3337" x1="401.5" x2="401.5" y1="134.5" y2="35.5" gradientTransform="matrix(0.66666666,0,0,0.66666666,85.333336,115.33334)" gradientUnits="userSpaceOnUse" xlink:href="#linearGradient4041"/><linearGradient id="linearGradient3339" x1="401.5" x2="401.5" y1="134.5" y2="35.5" gradientTransform="translate(-15.999999,-8.99999)" gradientUnits="userSpaceOnUse" xlink:href="#linearGradient4041"/><linearGradient id="linearGradient3341" x1="401.5" x2="401.5" y1="134.5" y2="35.5" gradientTransform="matrix(2.2727272,0,0,2.2727273,-655.99999,-37.181796)" gradientUnits="userSpaceOnUse" xlink:href="#linearGradient4041"/><linearGradient id="linearGradient3343" x1="401.5" x2="401.5" y1="134.5" y2="35.5" gradientTransform="matrix(0.33333333,0,0,0.33333333,314.66667,39.66667)" gradientUnits="userSpaceOnUse" xlink:href="#linearGradient4041"/><linearGradient id="linearGradient3345" x1="401.5" x2="401.5" y1="134.5" y2="35.5" gradientTransform="matrix(0.24242424,0,0,0.24242424,342.66667,91.393942)" gradientUnits="userSpaceOnUse" xlink:href="#linearGradient4041"/><linearGradient id="linearGradient3347" x1="401.5" x2="401.5" y1="134.5" y2="35.5" gradientTransform="matrix(0.21212121,0,0,0.21212121,349.33333,129.9697)" gradientUnits="userSpaceOnUse" xlink:href="#linearGradient4041"/><linearGradient id="linearGradient3408" x2="0" y1="279.096" y2="268.33" gradientTransform="matrix(1.10525,0,0,1.10525,-134.27874,-295.76183)" gradientUnits="userSpaceOnUse" xlink:href="#outerBackgroundGradient"/><linearGradient id="linearGradient4185" x1="373.887" x2="400.178" y1="836.395" y2="18.924" gradientUnits="userSpaceOnUse" xlink:href="#linearGradient4041"/><linearGradient id="linearGradient3013" x2="0" y1="1050.36" y2="1006.36" gradientTransform="translate(0,-1004.3622)" gradientUnits="userSpaceOnUse" xlink:href="#1"/><linearGradient id="1"><stop id="stop8" stop-color="#dbdbdb"/><stop id="stop10" offset="1" stop-color="#f9f9f9"/></linearGradient><linearGradient id="linearGradient3205" x2="0" y1="1050.36" y2="1006.36" gradientTransform="translate(0,-1004.3622)" gradientUnits="userSpaceOnUse" xlink:href="#1"/><linearGradient id="linearGradient3135" x2="0" y1="1050.36" y2="1006.36" gradientTransform="translate(-67.734997,-874.63794)" gradientUnits="userSpaceOnUse" xlink:href="#outerBackgroundGradient"/><radialGradient id="radialGradient3010" cx="148.004" cy="160" r="128" gradientTransform="matrix(0.05167489,0,0,0.05167489,-0.87510751,-1.4947609)" gradientUnits="userSpaceOnUse" xlink:href="#radial0"/><radialGradient id="radial0" cx="148.004" cy="160" r="128" gradientTransform="matrix(0.1831,0,0,0.1831,-3.10029,-5.29688)" gradientUnits="userSpaceOnUse"><stop id="stop7-4" offset="0" stop-color="#f8cc9b" stop-opacity="1"/><stop id="stop9-2" offset="1" stop-color="#efb615" stop-opacity="1"/></radialGradient><radialGradient id="radialGradient3027" cx="148.004" cy="160" r="128" gradientTransform="matrix(0.05167489,0,0,0.05167489,-0.87510751,-1.4947604)" gradientUnits="userSpaceOnUse" xlink:href="#radial0"/></defs><path id="path11" fill="url(#radialGradient3027)" d="m 13.38778,3.2589219 0,7.0290961 c 0,2.892778 0,3.100035 -3.100035,3.100035 l -7.0279938,0 c -3.10113811,0 -3.10113811,-0.207257 -3.10113811,-3.100035 l 0,-7.0290961 c 0,-2.89277779 0,-3.10003479 3.10113811,-3.10003479 l 7.0279938,0 c 3.100035,0 3.100035,0.207257 3.100035,3.10003479 z"/><path id="path15" fill="#fff" fill-opacity=".051" d="m 10.799273,13.388053 c 0.717682,-0.0033 1.235825,-0.02315 1.611753,-0.124575 l -1.193932,-2.046111 -1.2655898,2.170686 0.3362408,0 c 0.180799,0 0.350573,0 0.511528,0 z M 11.217094,11.217367 9.7707062,8.7368997 8.3232142,11.217367 z m 0,0 2.159662,0 c 0.0088,-0.274505 0.01102,-0.582083 0.01102,-0.930451 l 0,-0.3097823 -0.723194,-1.240234 z m 1.447492,-2.4804673 -1.447492,-2.480469 -1.4463878,2.480469 z m 0,0 0.723194,0 0,-1.2402346 z m -2.8938798,0 -1.447492,-2.480469 -1.44639,2.480469 z m -2.893882,0 -1.447491,2.4804673 2.893881,0 z m 0,0 -1.447491,-2.480469 -1.446388,2.480469 z m -2.893879,0 -1.447491,2.4804673 2.893879,0 z m 0,0 -1.447491,-2.480469 -1.4463891,2.480469 z m -2.8938801,0 -0.93045201,1.5941133 c 0,0.329627 0.0033,0.623976 0.011021,0.886354 l 2.36581611,0 z m 0,0 -0.93045201,-1.5941148 0,1.5941148 z m 1.4463891,2.4804673 -1.2170841,2.086901 c 0.4508941,0.08268 1.0748701,0.08379 1.9413811,0.08379 l 0.542395,0 z m 0,-4.9609363 -1.4463891,-2.4804689 -0.93045201,1.5941147 0,0.8863542 z m 0,0 2.893879,0 -1.446388,-2.4804689 z M 3.9829452,3.7759618 2.5354542,1.2954931 1.0890651,3.7759618 z m 0,0 2.893879,0 -1.447491,-2.4804687 z m 1.446388,-2.4804687 -0.663662,-1.13660599 -1.50592,0 c -0.02205,0 -0.03969,0 -0.06063,0 L 2.5354582,1.2954931 z m 0,0 2.893881,0 -0.663663,-1.13660599 -1.566554,0 z m 2.893881,0 2.8938798,0 -0.663663,-1.13660599 c -0.0882,0 -0.171979,0 -0.265686,0 l -1.3008688,0 z m 0,0 -1.44639,2.4804687 2.893882,0 z m 1.447492,2.4804687 2.8938798,0 -1.447492,-2.4804687 z m 0,0 -1.447492,2.4804689 2.8938798,0 z m 1.4463878,2.4804689 2.170686,0 0,-1.2402343 -0.723194,-1.2402346 z m 1.447492,-2.4804689 0.723194,0 0,-0.5170399 c 0,-0.2579689 -0.0022,-0.4938889 -0.0066,-0.71217 z M 8.3232142,6.2564307 6.8768242,3.7759618 5.4293332,6.2564307 z m 2.8938798,-4.9609376 2.062648,0 C 13.123197,0.51717701 12.747268,0.27133521 11.859811,0.19416491 z m -8.6816398,0 -0.650434,-1.11565969 C 0.85204189,0.23826241 0.43422089,0.46095301 0.26665089,1.2954931 z M 1.0890651,3.7759618 0.17514989,2.2083056 c -0.01213,0.3031685 -0.016541,0.6515364 -0.016541,1.0506163 l 0,0.5170399 z m 4.3402681,7.4414052 -1.26559,2.170686 2.532283,0 z m 2.893881,0 -1.26559,2.170686 2.532283,0 z m -7.59133721,1.86862 -0.4519961,-0.775009 c 0.08268,0.371519 0.2215882,0.615158 0.4519961,0.775009 z"/><g id="layer7" display="none" transform="matrix(0.28222223,0,0,0.28222223,19.116322,-36.61107)"><text id="context" x="15.007" y="19.745" fill="#000" fill-opacity="1" stroke="none" display="inline" enable-background="new" font-family="DejaVu Sans" font-size="18" font-stretch="normal" font-style="normal" font-variant="normal" font-weight="normal" xml:space="preserve" style="-inkscape-font-specification:DejaVu Sans"><tspan style="-inkscape-font-specification:DejaVu Sans" id="tspan3933" x="15.007" y="19.745" font-family="DejaVu Sans" font-stretch="normal" font-style="normal" font-variant="normal" font-weight="normal">apps</tspan></text><text id="icon-name" x="122.488" y="19.745" fill="#000" fill-opacity="1" stroke="none" display="inline" enable-background="new" font-family="DejaVu Sans" font-size="18" font-stretch="normal" font-style="normal" font-variant="normal" font-weight="bold" text-anchor="start" writing-mode="lr-tb" xml:space="preserve" style="text-align:start;line-height:125%;-inkscape-font-specification:DejaVu Sans Bold"><tspan style="-inkscape-font-specification:DejaVu Sans Bold" id="tspan3937" x="122.488" y="19.745" font-family="DejaVu Sans" font-size="18" font-stretch="normal" font-style="normal" font-variant="normal" font-weight="bold">firewall</tspan></text><rect id="rect16x16" width="16" height="16" x="416" y="140" fill="#eeeeec" fill-opacity="1" fill-rule="nonzero" stroke="none" stroke-width="2" display="inline" enable-background="accumulate" overflow="visible" visibility="visible" style="marker:none"/><rect id="rect24x24" width="24" height="24" x="416" y="100" fill="#d4d4d4" fill-opacity="1" fill-rule="nonzero" stroke="none" stroke-width="2" display="inline" enable-background="accumulate" overflow="visible" visibility="visible" style="marker:none"/><rect id="rect32x32" width="32" height="32" x="416" y="52" fill="#eeeeec" fill-opacity="1" fill-rule="nonzero" stroke="none" stroke-width="2" display="inline" enable-background="accumulate" overflow="visible" visibility="visible" style="marker:none"/><rect id="rect22x22" width="22" height="22" x="417" y="101" fill="#eeeeec" fill-opacity="1" fill-rule="nonzero" stroke="none" stroke-width="2" display="inline" enable-background="accumulate" overflow="visible" visibility="visible" style="marker:none"/><rect id="rect48x48" width="48" height="48" x="288" y="220" fill="#eeeeec" fill-opacity="1" fill-rule="nonzero" stroke="none" stroke-width="2" display="inline" enable-background="accumulate" overflow="visible" visibility="visible" style="marker:none"/><rect id="rect256x256" width="256" height="256" x="16" y="28" fill="#eeeeec" fill-opacity="1" fill-rule="nonzero" stroke="none" stroke-width="2" display="inline" enable-background="accumulate" overflow="visible" visibility="visible" style="marker:none"/><rect id="rect64x64" width="64" height="64" x="288" y="140" fill="#eeeeec" fill-opacity="1" fill-rule="nonzero" stroke="none" stroke-width="2" display="inline" enable-background="accumulate" overflow="visible" visibility="visible" style="marker:none"/><rect id="rect96x96" width="96" height="96" x="288" y="28" fill="#eeeeec" fill-opacity="1" fill-rule="nonzero" stroke="none" stroke-width="2" display="inline" enable-background="accumulate" overflow="visible" visibility="visible" style="marker:none"/></g><g id="layer5" display="inline" transform="matrix(0.28222223,0,0,0.28222223,19.116322,-36.61107)"><path id="path6279" fill="#f9f9f9" fill-opacity="1" stroke="none" d="m -43.735003,148.93231 c -1.753255,2e-5 -3.090981,1.16778 -3.90825,2.52191 -0.817207,1.35411 -1.28626,3.01857 -1.28626,4.84982 -1.6e-5,1.83124 0.469021,3.5442 1.28626,4.89831 0.817285,1.3541 2.154964,2.52191 3.90825,2.52191 1.753272,2e-5 3.140453,-1.16779 3.957723,-2.52191 0.817254,-1.35411 1.236788,-3.06707 1.236788,-4.89831 1.6e-5,-1.83125 -0.419566,-3.49571 -1.236788,-4.84982 -0.817254,-1.35413 -2.204467,-2.52191 -3.957723,-2.52191 z m 0,1.74594 c 2.212162,0 4.007195,2.68725 4.007195,5.96527 0,3.27805 -1.795081,5.91678 -4.007195,5.91678 -2.212129,2e-5 -4.007194,-2.63873 -4.007194,-5.91678 0,-3.27802 1.795049,-5.96527 4.007194,-5.96527 z"/><path id="path5951" fill="#f9f9f9" fill-opacity="1" stroke="none" d="m -43.718348,151.94125 c -2.098037,0 -3.958309,1.10715 -5.094412,2.83911 -0.0619,0.54315 -0.08992,1.10925 -0.09989,1.68244 1.121919,-1.59251 3.019473,-2.6288 5.194289,-2.6288 2.151655,0 4.044206,1.01194 5.160981,2.57624 -0.0095,-0.5375 -0.04639,-1.06631 -0.09989,-1.57732 -1.125038,-1.74485 -2.953854,-2.89167 -5.061088,-2.89167 z"/><path id="path5956" fill="#f9f9f9" fill-opacity="1" stroke="none" d="m -44.612651,158.82627 c -1.302803,0.16666 -2.472833,0.75224 -3.450074,1.54275 0.119524,0.23236 0.220699,0.49773 0.363161,0.71205 0.121265,0.1824 0.279083,0.3619 0.423682,0.53402 1.034042,-0.52769 2.224683,-0.8307 3.510627,-0.8307 1.285895,0 2.475492,0.30304 3.51061,0.8307 0.144536,-0.17212 0.302402,-0.3516 0.423682,-0.53402 0.147386,-0.2218 0.302545,-0.47098 0.423683,-0.71205 -1.184293,-0.97297 -2.704043,-1.54275 -4.357975,-1.54275 -0.298048,0 -0.55948,-0.0368 -0.847396,0 z"/><path id="path5958" fill="#f9f9f9" fill-opacity="1" stroke="none" d="m -43.753794,155.29568 c -1.982945,0 -3.455012,0.91793 -4.787514,2.24395 0.07583,0.55012 -0.1086,0.99238 0.06633,1.49427 1.284566,-0.96307 2.92205,-1.54277 4.721167,-1.54277 1.799118,0 3.442522,0.5797 4.721168,1.54277 0.169422,-0.50189 0.04433,-0.94415 0.115723,-1.49427 -1.324887,-1.33524 -2.842088,-2.24395 -4.83697,-2.24395 z"/><path id="path5883" fill="#f9f9f9" fill-opacity="1" stroke="none" d="m -43.716164,143.72426 c -2.529364,0 -4.599475,1.72127 -4.599443,3.88068 0,1.32278 0.777091,2.50562 1.960418,3.21542 0.240186,-0.56052 1.244751,-0.9979 2.48822,-0.9979 1.332312,0 2.431736,0.48858 2.563655,1.10877 1.292465,-0.69252 2.148916,-1.92478 2.148916,-3.32629 0,-2.15941 -2.032385,-3.88068 -4.561766,-3.88068 z m -2.902926,2.25449 c 0.428416,0 0.75401,0.57956 0.75401,1.29356 -1.6e-5,0.714 -0.325594,1.29354 -0.75401,1.29354 -0.428447,2e-5 -0.791719,-0.57954 -0.791719,-1.29354 0,-0.714 0.363304,-1.29356 0.791719,-1.29356 z m 5.768175,0 c 0.428431,0 0.791719,0.57956 0.791719,1.29356 0,0.714 -0.363304,1.29354 -0.791719,1.29354 -0.428432,2e-5 -0.75401,-0.57954 -0.75401,-1.29354 0,-0.714 0.325578,-1.29356 0.75401,-1.29356 z"/><g id="g6140" fill="#f9f9f9" fill-opacity="1" transform="matrix(1.9368893,0,0,1.8987812,-348.79506,-118.46261)"><path id="path6132" fill="#f9f9f9" fill-opacity="1" stroke="none" d="m 152.47461,139.31177 c 0.80018,0.0566 2.01023,0.39256 3.38682,1.18733 0.12836,0.0741 0.22996,0.15798 0.35036,0.23357 -0.13259,0.11323 -0.24255,0.24209 -0.35036,0.36983 -0.0795,-0.0502 -0.15047,-0.10773 -0.23358,-0.15572 -0.81876,-0.47271 -1.6521,-0.7421 -2.33573,-0.79804 -0.68363,-0.0559 -1.2167,0.0992 -1.44038,0.48661 -0.44734,0.77484 0.71888,1.89975 2.35641,2.84518 0.11049,0.0638 0.30891,0.19156 0.42061,0.24695 -0.0154,0.0174 -0.33154,0.23609 -0.34396,0.25576 -0.11107,-0.0608 -0.21587,-0.10877 -0.33089,-0.17518 -1.37659,-0.79477 -2.29538,-1.67105 -2.74449,-2.33574 -0.44911,-0.66467 -0.52651,-1.20932 -0.29197,-1.61555 0.23454,-0.40623 0.75697,-0.6016 1.55716,-0.545 z m 2.58877,4.96344 c 0.01,0.0381 0.012,0.0775 0.0195,0.11679 -0.0126,-0.006 -0.0263,-0.0138 -0.0389,-0.0195 0.0138,-0.0326 0.014,-0.0612 0.0195,-0.0973 z"/><path id="path6134" fill="#f9f9f9" fill-opacity="1" stroke="none" d="m 155.24057,143.32695 c -0.0239,0.0902 -0.0702,0.17466 -0.0883,0.26694 -0.006,0.003 0.002,0.022 -0.005,0.0246 -1.74469,0.69266 -2.79675,1.65168 -2.39999,2.32568 0.33162,0.56334 1.55701,0.76531 3.08405,0.61705 0.0246,0.0332 0.0257,0.0722 0.0515,0.10496 0.0362,0.0461 0.078,0.0905 0.11736,0.13625 -0.81174,0.12183 -1.5532,0.17368 -2.15332,0.14669 -1.07038,-0.0482 -1.79991,-0.28559 -2.05563,-0.71999 -0.25571,-0.4344 0.0173,-0.97667 0.73223,-1.53242 0.58365,-0.45372 1.50995,-0.94959 2.71693,-1.36972 z"/></g><g id="g6144" fill="#f9f9f9" fill-opacity="1" transform="matrix(-1.9368893,0,0,1.8987812,261.32506,-118.46261)"><path id="path6146" fill="#f9f9f9" fill-opacity="1" stroke="none" d="m 152.47461,139.31177 c 0.80018,0.0566 2.01023,0.39256 3.38682,1.18733 0.12836,0.0741 0.22996,0.15798 0.35036,0.23357 -0.13259,0.11323 -0.24255,0.24209 -0.35036,0.36983 -0.0795,-0.0502 -0.15047,-0.10773 -0.23358,-0.15572 -0.81876,-0.47271 -1.6521,-0.7421 -2.33573,-0.79804 -0.68363,-0.0559 -1.2167,0.0992 -1.44038,0.48661 -0.44734,0.77484 0.71888,1.89975 2.35641,2.84518 0.11049,0.0638 0.30891,0.19156 0.42061,0.24695 -0.0154,0.0174 -0.33154,0.23609 -0.34396,0.25576 -0.11107,-0.0608 -0.21587,-0.10877 -0.33089,-0.17518 -1.37659,-0.79477 -2.29538,-1.67105 -2.74449,-2.33574 -0.44911,-0.66467 -0.52651,-1.20932 -0.29197,-1.61555 0.23454,-0.40623 0.75697,-0.6016 1.55716,-0.545 z m 2.58877,4.96344 c 0.01,0.0381 0.012,0.0775 0.0195,0.11679 -0.0126,-0.006 -0.0263,-0.0138 -0.0389,-0.0195 0.0138,-0.0326 0.014,-0.0612 0.0195,-0.0973 z"/><path id="path6148" fill="#f9f9f9" fill-opacity="1" stroke="none" d="m 155.24057,143.32695 c -0.0239,0.0902 -0.0702,0.17466 -0.0883,0.26694 -0.006,0.003 0.002,0.022 -0.005,0.0246 -1.74469,0.69266 -2.79675,1.65168 -2.39999,2.32568 0.33162,0.56334 1.55701,0.76531 3.08405,0.61705 0.0246,0.0332 0.0257,0.0722 0.0515,0.10496 0.0362,0.0461 0.078,0.0905 0.11736,0.13625 -0.81174,0.12183 -1.5532,0.17368 -2.15332,0.14669 -1.07038,-0.0482 -1.79991,-0.28559 -2.05563,-0.71999 -0.25571,-0.4344 0.0173,-0.97667 0.73223,-1.53242 0.58365,-0.45372 1.50995,-0.94959 2.71693,-1.36972 z"/></g></g></svg>