<svg xmlns="http://www.w3.org/2000/svg" xmlns:svg="http://www.w3.org/2000/svg" xmlns:xlink="http://www.w3.org/1999/xlink" id="svg2" width="48" height="48" version="1.1" viewBox="0 0 13.547 13.547"><metadata id="metadata24"/><defs id="defs4"><linearGradient id="linearGradient4460"><stop id="stop7" offset="0" stop-color="#ad5517"/><stop id="stop9" offset="1" stop-color="#e16f1f"/></linearGradient><linearGradient id="linearGradient4428" x2="0" y1="279.096" y2="268.33" gradientTransform="matrix(1.10525,0,0,1.10525,-134.27874,-295.76183)" gradientUnits="userSpaceOnUse" xlink:href="#linearGradient4460"/><linearGradient id="linearGradient3899" x1="401.5" x2="401.5" y1="134.5" y2="35.5" gradientTransform="matrix(0.21212121,0,0,0.21212121,349.33333,129.9697)" gradientUnits="userSpaceOnUse" xlink:href="#linearGradient4041"/><linearGradient id="linearGradient3895" x1="401.5" x2="401.5" y1="134.5" y2="35.5" gradientTransform="matrix(0.24242424,0,0,0.24242424,342.66667,91.393942)" gradientUnits="userSpaceOnUse" xlink:href="#linearGradient4041"/><linearGradient id="linearGradient3891" x1="401.5" x2="401.5" y1="134.5" y2="35.5" gradientTransform="matrix(0.33333333,0,0,0.33333333,314.66667,39.66667)" gradientUnits="userSpaceOnUse" xlink:href="#linearGradient4041"/><linearGradient id="linearGradient3887" x1="401.5" x2="401.5" y1="134.5" y2="35.5" gradientTransform="matrix(2.2727272,0,0,2.2727273,-655.99999,-37.181796)" gradientUnits="userSpaceOnUse" xlink:href="#linearGradient4041"/><linearGradient id="linearGradient3883" x1="401.5" x2="401.5" y1="134.5" y2="35.5" gradientTransform="translate(-15.999999,-8.99999)" gradientUnits="userSpaceOnUse" xlink:href="#linearGradient4041"/><linearGradient id="linearGradient3879" x1="401.5" x2="401.5" y1="134.5" y2="35.5" gradientTransform="matrix(0.66666666,0,0,0.66666666,85.333336,115.33334)" gradientUnits="userSpaceOnUse" xlink:href="#linearGradient4041"/><linearGradient id="linearGradient3871" x1="401.5" x2="401.5" y1="134.5" y2="35.5" gradientTransform="matrix(0.48484848,0,0,0.48484848,141.33334,202.78788)" gradientUnits="userSpaceOnUse" xlink:href="#linearGradient4041"/><linearGradient id="linearGradient3332" x1="344" x2="360" y1="48" y2="120" gradientTransform="matrix(0.48484848,0,0,0.48484848,141.33334,202.78788)" gradientUnits="userSpaceOnUse" xlink:href="#linearGradient4041"/><linearGradient id="linearGradient4041"><stop id="stop4043" offset="0" stop-color="#ff6b00" stop-opacity="1"/><stop id="stop4045" offset="1" stop-color="#fe0" stop-opacity="1"/></linearGradient><linearGradient id="linearGradient4145" x1="344" x2="360" y1="48" y2="120" gradientTransform="matrix(0.48484848,0,0,0.48484848,157.33334,210.78788)" gradientUnits="userSpaceOnUse" xlink:href="#linearGradient4041"/><clipPath id="clipPath3319" clipPathUnits="userSpaceOnUse"><path id="path3321" fill="url(#linearGradient4063)" fill-opacity="1" fill-rule="evenodd" stroke="none" d="m 354.86109,118 c -1.8996,-12.45313 -13.15124,-10.92696 -20.45752,-20.554999 -4.49745,-5.081917 -6.90039,-18.152021 2.43544,-27.37416 -1.1041,9.579323 0.17861,13.6059 5.45531,17.924775 -2.35422,-4.952062 -3.08439,-11.995623 -0.82801,-16.853182 2.76375,-5.949983 10.39112,-12.87528 10.52102,-19.142434 4.36202,2.178866 7.92821,8.352919 5.94243,14.368984 -3.85543,11.680556 0.10189,12.135543 1.94832,13.248716 -0.37991,-7.072519 1.0237,-8.206151 2.38673,-10.423628 1.02898,7.51113 12.13245,12.469545 11.25168,21.870132 -0.54446,5.811093 -5.52033,11.186756 -9.69301,14.563846 0.37909,-7.615119 0.0767,-8.633953 -7.11146,-14.612521 -2.75975,-2.295398 -3.9291,-3.912975 -5.30916,-6.867919 -0.85908,2.610094 -2.43714,6.487429 3.26799,14.45466 5.21391,7.28145 0.61392,16.7798 0.19057,19.39773 z" display="inline" enable-background="new"/></clipPath><clipPath id="clipPath4059" clipPathUnits="userSpaceOnUse"><path id="path4061" fill="url(#linearGradient4063)" fill-opacity="1" fill-rule="evenodd" stroke="none" d="m 354.86109,118 c -1.8996,-12.45313 -13.15124,-10.92696 -20.45752,-20.554999 -4.49745,-5.081917 -6.90039,-18.152021 2.43544,-27.37416 -1.1041,9.579323 0.17861,13.6059 5.45531,17.924775 -2.35422,-4.952062 -3.08439,-11.995623 -0.82801,-16.853182 2.76375,-5.949983 10.39112,-12.87528 10.52102,-19.142434 4.36202,2.178866 7.92821,8.352919 5.94243,14.368984 -3.85543,11.680556 0.10189,12.135543 1.94832,13.248716 -0.37991,-7.072519 1.0237,-8.206151 2.38673,-10.423628 1.02898,7.51113 12.13245,12.469545 11.25168,21.870132 -0.54446,5.811093 -5.52033,11.186756 -9.69301,14.563846 0.37909,-7.615119 0.0767,-8.633953 -7.11146,-14.612521 -2.75975,-2.295398 -3.9291,-3.912975 -5.30916,-6.867919 -0.85908,2.610094 -2.43714,6.487429 3.26799,14.45466 5.21391,7.28145 0.61392,16.7798 0.19057,19.39773 z" display="inline" enable-background="new"/></clipPath><linearGradient id="linearGradient3885" x1="283.81" x2="283.81" y1="299.81" y2="31.619" gradientTransform="matrix(0.11931818,0,0,0.11931818,414.13636,48.22727)" gradientUnits="userSpaceOnUse" xlink:href="#outerBackgroundGradient"/><clipPath id="clipPath3881" clipPathUnits="userSpaceOnUse"><rect id="rect3883" width="30" height="30" x="417" y="53" fill="url(#linearGradient3885)" fill-opacity="1" fill-rule="nonzero" stroke="none" stroke-width="0" color="#bebebe" display="inline" enable-background="accumulate" overflow="visible" ry="7" visibility="visible" style="marker:none"/></clipPath><linearGradient id="linearGradient3875" x1="286.857" x2="286.857" y1="302.857" y2="28.571" gradientTransform="matrix(0.0875,0,0,0.0875,414.9,97.5)" gradientUnits="userSpaceOnUse" xlink:href="#outerBackgroundGradient"/><clipPath id="clipPath3871" clipPathUnits="userSpaceOnUse"><rect id="rect3873" width="22" height="22" x="417" y="101" fill="url(#linearGradient3875)" fill-opacity="1" fill-rule="nonzero" stroke="none" stroke-width="0" color="#bebebe" display="inline" enable-background="accumulate" overflow="visible" ry="5" visibility="visible" style="marker:none"/></clipPath><linearGradient id="linearGradient4350" x1="384" x2="384" y1="124" y2="28" gradientUnits="userSpaceOnUse" xlink:href="#outerBackgroundGradient"/><clipPath id="clipPath4346" clipPathUnits="userSpaceOnUse"><rect id="rect4348" width="88" height="88" x="292" y="32" fill="url(#linearGradient4350)" fill-opacity="1" fill-rule="nonzero" stroke="none" stroke-width="0" color="#bebebe" display="inline" enable-background="accumulate" overflow="visible" ry="18" visibility="visible" style="marker:none"/></clipPath><linearGradient id="linearGradient4199" x1="352" x2="352" y1="204" y2="140" gradientUnits="userSpaceOnUse" xlink:href="#outerBackgroundGradient"/><linearGradient id="linearGradient4197" x1="384" x2="384" y1="124" y2="28" gradientUnits="userSpaceOnUse" xlink:href="#outerBackgroundGradient"/><linearGradient id="linearGradient4191" x1="352" x2="352" y1="204" y2="140" gradientUnits="userSpaceOnUse" xlink:href="#outerBackgroundGradient"/><clipPath id="clipPath4187" clipPathUnits="userSpaceOnUse"><rect id="rect4189" width="60" height="60" x="290" y="142" fill="url(#linearGradient4191)" fill-opacity="1" fill-rule="nonzero" stroke="none" stroke-width="0" color="#bebebe" display="inline" enable-background="accumulate" overflow="visible" ry="12.5" visibility="visible" style="marker:none"/></clipPath><linearGradient id="linearGradient3876" x1="272" x2="272" y1="288" y2="32" gradientTransform="translate(0,-4)" gradientUnits="userSpaceOnUse" xlink:href="#outerBackgroundGradient"/><linearGradient id="linearGradient3866" x1="144" x2="144" y1="280" y2="40" gradientTransform="translate(0,-4)" gradientUnits="userSpaceOnUse" xlink:href="#outerBackgroundGradient"/><clipPath id="clipPath3862" clipPathUnits="userSpaceOnUse"><rect id="rect3864" width="220" height="220" x="34" y="46" fill="url(#linearGradient3866)" fill-opacity="1" fill-rule="nonzero" stroke="none" stroke-width="0" color="#bebebe" display="inline" enable-background="accumulate" overflow="visible" ry="50" visibility="visible" style="marker:none"/></clipPath><linearGradient id="linearGradient3859" x1="144" x2="144" y1="280" y2="40" gradientTransform="matrix(0.06666667,0,0,0.06666667,302.4,209.33333)" gradientUnits="userSpaceOnUse" xlink:href="#outerBackgroundGradient"/><clipPath id="clipPath3855" clipPathUnits="userSpaceOnUse"><rect id="rect3857" width="16" height="16" x="304" y="212" fill="url(#linearGradient3859)" fill-opacity="1" fill-rule="nonzero" stroke="none" stroke-width="0" color="#bebebe" display="inline" enable-background="accumulate" overflow="visible" ry="3" transform="matrix(0,1,-1,0,0,0)" visibility="visible" style="marker:none"/></clipPath><linearGradient id="linearGradient4093" x1="149.714" x2="149.714" y1="291.429" y2="40" gradientTransform="matrix(0.11931818,0,0,0.11931818,430.13636,32.227267)" gradientUnits="userSpaceOnUse" xlink:href="#outerBackgroundGradient"/><clipPath id="clipPath4089" clipPathUnits="userSpaceOnUse"><rect id="rect4091" width="30" height="30" x="433" y="37" fill="url(#linearGradient4093)" fill-opacity="1" fill-rule="nonzero" stroke="none" stroke-width="0" color="#bebebe" display="inline" enable-background="accumulate" overflow="visible" ry="6" visibility="visible" style="marker:none"/></clipPath><linearGradient id="linearGradient4048" x1="149.714" x2="149.714" y1="291.429" y2="40" gradientTransform="matrix(0.0875,0,0,0.0875,430.9,81.499996)" gradientUnits="userSpaceOnUse" xlink:href="#outerBackgroundGradient"/><clipPath id="clipPath4044" clipPathUnits="userSpaceOnUse"><rect id="rect4046" width="22" height="22" x="433" y="85" fill="url(#linearGradient4048)" fill-opacity="1" fill-rule="nonzero" stroke="none" stroke-width="0" color="#bebebe" display="inline" enable-background="accumulate" overflow="visible" ry="4" visibility="visible" style="marker:none"/></clipPath><linearGradient id="linearGradient4895" x1="144" x2="144" y1="280" y2="40" gradientTransform="matrix(0.175,0,0,0.175,302.79999,215.99997)" gradientUnits="userSpaceOnUse" xlink:href="#outerBackgroundGradient"/><clipPath id="clipPath4891" clipPathUnits="userSpaceOnUse"><rect id="rect4893" width="42" height="42" x="307" y="223" fill="url(#linearGradient4895)" fill-opacity="1" fill-rule="nonzero" stroke="none" stroke-width="0" color="#bebebe" display="inline" enable-background="accumulate" overflow="visible" ry="9" transform="matrix(0,1,-1,0,0,0)" visibility="visible" style="marker:none"/></clipPath><linearGradient id="linearGradient4869" x1="281.143" x2="281.143" y1="297.143" y2="22.857" gradientTransform="matrix(0.175,0,0,-0.175,286.79999,-215.99997)" gradientUnits="userSpaceOnUse" xlink:href="#outerBackgroundGradient"/><linearGradient id="linearGradient4153" x1="283.81" x2="283.81" y1="299.81" y2="31.619" gradientTransform="matrix(0.11931818,0,0,0.11931818,414.13636,48.22727)" gradientUnits="userSpaceOnUse" xlink:href="#outerBackgroundGradient"/><linearGradient id="linearGradient4101" x1="286.857" x2="286.857" y1="302.857" y2="28.571" gradientTransform="matrix(0.0875,0,0,0.0875,414.9,97.5)" gradientUnits="userSpaceOnUse" xlink:href="#outerBackgroundGradient"/><linearGradient id="linearGradient4097" x1="264" x2="264" y1="280" y2="40" gradientTransform="matrix(0.06666667,0,0,0.06666667,414.4,137.33333)" gradientUnits="userSpaceOnUse" xlink:href="#outerBackgroundGradient"/><linearGradient id="outerBackgroundGradient"><stop id="stop3864-8-6" offset="0" stop-color="#3f3f3f" stop-opacity="1"/><stop id="stop3866-9-1" offset="1" stop-color="#545454" stop-opacity="1"/></linearGradient><linearGradient id="linearGradient3233" x1="401.5" x2="401.5" y1="134.5" y2="35.5" gradientTransform="matrix(0.48484848,0,0,0.48484848,141.33334,202.78788)" gradientUnits="userSpaceOnUse" xlink:href="#linearGradient4041"/><linearGradient id="linearGradient3235" x1="401.5" x2="401.5" y1="134.5" y2="35.5" gradientTransform="matrix(0.66666666,0,0,0.66666666,85.333336,115.33334)" gradientUnits="userSpaceOnUse" xlink:href="#linearGradient4041"/><linearGradient id="linearGradient3237" x1="401.5" x2="401.5" y1="134.5" y2="35.5" gradientTransform="translate(-15.999999,-8.99999)" gradientUnits="userSpaceOnUse" xlink:href="#linearGradient4041"/><linearGradient id="linearGradient3239" x1="401.5" x2="401.5" y1="134.5" y2="35.5" gradientTransform="matrix(2.2727272,0,0,2.2727273,-655.99999,-37.181796)" gradientUnits="userSpaceOnUse" xlink:href="#linearGradient4041"/><linearGradient id="linearGradient3241" x1="401.5" x2="401.5" y1="134.5" y2="35.5" gradientTransform="matrix(0.33333333,0,0,0.33333333,314.66667,39.66667)" gradientUnits="userSpaceOnUse" xlink:href="#linearGradient4041"/><linearGradient id="linearGradient3243" x1="401.5" x2="401.5" y1="134.5" y2="35.5" gradientTransform="matrix(0.24242424,0,0,0.24242424,342.66667,91.393942)" gradientUnits="userSpaceOnUse" xlink:href="#linearGradient4041"/><linearGradient id="linearGradient3245" x1="401.5" x2="401.5" y1="134.5" y2="35.5" gradientTransform="matrix(0.21212121,0,0,0.21212121,349.33333,129.9697)" gradientUnits="userSpaceOnUse" xlink:href="#linearGradient4041"/><linearGradient id="linearGradient3306" x1="272" x2="272" y1="288" y2="32" gradientTransform="translate(0,-4)" gradientUnits="userSpaceOnUse" xlink:href="#outerBackgroundGradient"/><linearGradient id="linearGradient3308" x1="264" x2="264" y1="280" y2="40" gradientTransform="matrix(0.06666667,0,0,0.06666667,414.4,137.33333)" gradientUnits="userSpaceOnUse" xlink:href="#outerBackgroundGradient"/><linearGradient id="linearGradient3310" x1="286.857" x2="286.857" y1="302.857" y2="28.571" gradientTransform="matrix(0.0875,0,0,0.0875,414.9,97.5)" gradientUnits="userSpaceOnUse" xlink:href="#outerBackgroundGradient"/><linearGradient id="linearGradient3312" x1="283.81" x2="283.81" y1="299.81" y2="31.619" gradientTransform="matrix(0.11931818,0,0,0.11931818,414.13636,48.22727)" gradientUnits="userSpaceOnUse" xlink:href="#outerBackgroundGradient"/><linearGradient id="linearGradient3314" x1="281.143" x2="281.143" y1="297.143" y2="22.857" gradientTransform="matrix(0.175,0,0,-0.175,286.79999,-215.99997)" gradientUnits="userSpaceOnUse" xlink:href="#outerBackgroundGradient"/><linearGradient id="linearGradient3316" x1="384" x2="384" y1="124" y2="28" gradientUnits="userSpaceOnUse" xlink:href="#outerBackgroundGradient"/><linearGradient id="linearGradient3318" x1="352" x2="352" y1="204" y2="140" gradientUnits="userSpaceOnUse" xlink:href="#outerBackgroundGradient"/><linearGradient id="linearGradient3320" x1="401.5" x2="401.5" y1="134.5" y2="35.5" gradientTransform="matrix(0.48484848,0,0,0.48484848,141.33334,202.78788)" gradientUnits="userSpaceOnUse" xlink:href="#linearGradient4041"/><linearGradient id="linearGradient3322" x1="401.5" x2="401.5" y1="134.5" y2="35.5" gradientTransform="matrix(0.66666666,0,0,0.66666666,85.333336,115.33334)" gradientUnits="userSpaceOnUse" xlink:href="#linearGradient4041"/><linearGradient id="linearGradient3324" x1="401.5" x2="401.5" y1="134.5" y2="35.5" gradientTransform="translate(-15.999999,-8.99999)" gradientUnits="userSpaceOnUse" xlink:href="#linearGradient4041"/><linearGradient id="linearGradient3326" x1="401.5" x2="401.5" y1="134.5" y2="35.5" gradientTransform="matrix(2.2727272,0,0,2.2727273,-655.99999,-37.181796)" gradientUnits="userSpaceOnUse" xlink:href="#linearGradient4041"/><linearGradient id="linearGradient3328" x1="401.5" x2="401.5" y1="134.5" y2="35.5" gradientTransform="matrix(0.33333333,0,0,0.33333333,314.66667,39.66667)" gradientUnits="userSpaceOnUse" xlink:href="#linearGradient4041"/><linearGradient id="linearGradient3330" x1="401.5" x2="401.5" y1="134.5" y2="35.5" gradientTransform="matrix(0.24242424,0,0,0.24242424,342.66667,91.393942)" gradientUnits="userSpaceOnUse" xlink:href="#linearGradient4041"/><linearGradient id="linearGradient3333" x1="401.5" x2="401.5" y1="134.5" y2="35.5" gradientTransform="matrix(0.21212121,0,0,0.21212121,349.33333,129.9697)" gradientUnits="userSpaceOnUse" xlink:href="#linearGradient4041"/><linearGradient id="linearGradient3335" x1="401.5" x2="401.5" y1="134.5" y2="35.5" gradientTransform="matrix(0.48484848,0,0,0.48484848,141.33334,202.78788)" gradientUnits="userSpaceOnUse" xlink:href="#linearGradient4041"/><linearGradient id="linearGradient3337" x1="401.5" x2="401.5" y1="134.5" y2="35.5" gradientTransform="matrix(0.66666666,0,0,0.66666666,85.333336,115.33334)" gradientUnits="userSpaceOnUse" xlink:href="#linearGradient4041"/><linearGradient id="linearGradient3339" x1="401.5" x2="401.5" y1="134.5" y2="35.5" gradientTransform="translate(-15.999999,-8.99999)" gradientUnits="userSpaceOnUse" xlink:href="#linearGradient4041"/><linearGradient id="linearGradient3341" x1="401.5" x2="401.5" y1="134.5" y2="35.5" gradientTransform="matrix(2.2727272,0,0,2.2727273,-655.99999,-37.181796)" gradientUnits="userSpaceOnUse" xlink:href="#linearGradient4041"/><linearGradient id="linearGradient3343" x1="401.5" x2="401.5" y1="134.5" y2="35.5" gradientTransform="matrix(0.33333333,0,0,0.33333333,314.66667,39.66667)" gradientUnits="userSpaceOnUse" xlink:href="#linearGradient4041"/><linearGradient id="linearGradient3345" x1="401.5" x2="401.5" y1="134.5" y2="35.5" gradientTransform="matrix(0.24242424,0,0,0.24242424,342.66667,91.393942)" gradientUnits="userSpaceOnUse" xlink:href="#linearGradient4041"/><linearGradient id="linearGradient3347" x1="401.5" x2="401.5" y1="134.5" y2="35.5" gradientTransform="matrix(0.21212121,0,0,0.21212121,349.33333,129.9697)" gradientUnits="userSpaceOnUse" xlink:href="#linearGradient4041"/><linearGradient id="linearGradient3408" x2="0" y1="279.096" y2="268.33" gradientTransform="matrix(1.10525,0,0,1.10525,-134.27874,-295.76183)" gradientUnits="userSpaceOnUse" xlink:href="#outerBackgroundGradient"/><linearGradient id="linearGradient4185" x1="373.887" x2="400.178" y1="836.395" y2="18.924" gradientUnits="userSpaceOnUse" xlink:href="#linearGradient4041"/><linearGradient id="1" x2="0" y1="1050.36" y2="1006.36" gradientTransform="translate(-67.733423,-874.63717)" gradientUnits="userSpaceOnUse" xlink:href="#0"/><linearGradient id="0"><stop id="stop7-1" stop-color="#2b2b2b"/><stop id="stop9-7" offset="1" stop-color="#535353"/></linearGradient><radialGradient id="radialGradient3010" cx="148.004" cy="160" r="128" gradientTransform="matrix(0.05167489,0,0,0.05167489,-0.87510751,-1.4947609)" gradientUnits="userSpaceOnUse" xlink:href="#radial0"/><radialGradient id="radial0" cx="148.004" cy="160" r="128" gradientTransform="matrix(0.1831,0,0,0.1831,-3.10029,-5.29688)" gradientUnits="userSpaceOnUse"><stop id="stop7-4" offset="0" stop-color="#f8cc9b" stop-opacity="1"/><stop id="stop9-2" offset="1" stop-color="#efb615" stop-opacity="1"/></radialGradient><radialGradient id="radialGradient3009" cx="148.004" cy="160" r="128" gradientTransform="matrix(0.1831,0,0,0.1831,-70.835771,124.42786)" gradientUnits="userSpaceOnUse" xlink:href="#radial0"/></defs><rect id="rect14" width="12.982" height="12.982" x=".282" y=".282" fill="#fff" fill-rule="evenodd" opacity=".5" rx="6.491"/><g id="layer7" display="none" transform="matrix(0.28222223,0,0,0.28222223,19.116322,-36.61107)"><text id="context" x="15.007" y="19.745" fill="#000" fill-opacity="1" stroke="none" display="inline" enable-background="new" font-family="DejaVu Sans" font-size="18" font-stretch="normal" font-style="normal" font-variant="normal" font-weight="normal" xml:space="preserve" style="-inkscape-font-specification:DejaVu Sans"><tspan style="-inkscape-font-specification:DejaVu Sans" id="tspan3933" x="15.007" y="19.745" font-family="DejaVu Sans" font-stretch="normal" font-style="normal" font-variant="normal" font-weight="normal">apps</tspan></text><text id="icon-name" x="122.488" y="19.745" fill="#000" fill-opacity="1" stroke="none" display="inline" enable-background="new" font-family="DejaVu Sans" font-size="18" font-stretch="normal" font-style="normal" font-variant="normal" font-weight="bold" text-anchor="start" writing-mode="lr-tb" xml:space="preserve" style="text-align:start;line-height:125%;-inkscape-font-specification:DejaVu Sans Bold"><tspan style="-inkscape-font-specification:DejaVu Sans Bold" id="tspan3937" x="122.488" y="19.745" font-family="DejaVu Sans" font-size="18" font-stretch="normal" font-style="normal" font-variant="normal" font-weight="bold">firewall</tspan></text><rect id="rect16x16" width="16" height="16" x="416" y="140" fill="#eeeeec" fill-opacity="1" fill-rule="nonzero" stroke="none" stroke-width="2" display="inline" enable-background="accumulate" overflow="visible" visibility="visible" style="marker:none"/><rect id="rect24x24" width="24" height="24" x="416" y="100" fill="#d4d4d4" fill-opacity="1" fill-rule="nonzero" stroke="none" stroke-width="2" display="inline" enable-background="accumulate" overflow="visible" visibility="visible" style="marker:none"/><rect id="rect32x32" width="32" height="32" x="416" y="52" fill="#eeeeec" fill-opacity="1" fill-rule="nonzero" stroke="none" stroke-width="2" display="inline" enable-background="accumulate" overflow="visible" visibility="visible" style="marker:none"/><rect id="rect22x22" width="22" height="22" x="417" y="101" fill="#eeeeec" fill-opacity="1" fill-rule="nonzero" stroke="none" stroke-width="2" display="inline" enable-background="accumulate" overflow="visible" visibility="visible" style="marker:none"/><rect id="rect48x48" width="48" height="48" x="288" y="220" fill="#eeeeec" fill-opacity="1" fill-rule="nonzero" stroke="none" stroke-width="2" display="inline" enable-background="accumulate" overflow="visible" visibility="visible" style="marker:none"/><rect id="rect256x256" width="256" height="256" x="16" y="28" fill="#eeeeec" fill-opacity="1" fill-rule="nonzero" stroke="none" stroke-width="2" display="inline" enable-background="accumulate" overflow="visible" visibility="visible" style="marker:none"/><rect id="rect64x64" width="64" height="64" x="288" y="140" fill="#eeeeec" fill-opacity="1" fill-rule="nonzero" stroke="none" stroke-width="2" display="inline" enable-background="accumulate" overflow="visible" visibility="visible" style="marker:none"/><rect id="rect96x96" width="96" height="96" x="288" y="28" fill="#eeeeec" fill-opacity="1" fill-rule="nonzero" stroke="none" stroke-width="2" display="inline" enable-background="accumulate" overflow="visible" visibility="visible" style="marker:none"/></g><g id="layer5" display="inline" transform="matrix(0.28222223,0,0,0.28222223,19.116322,-36.61107)"><path id="path11" fill="url(#radialGradient3009)" d="m -20.297981,141.27162 0,24.90624 c 0,10.25 0,10.98438 -10.984376,10.98438 l -24.90234,0 c -10.988284,0 -10.988284,-0.73438 -10.988284,-10.98438 l 0,-24.90624 c 0,-10.25 0,-10.98438 10.988284,-10.98438 l 24.90234,0 c 10.984376,0 10.984376,0.73438 10.984376,10.98438 z"/><path id="path15" fill="#fff" fill-opacity=".051" d="m -29.469856,177.16224 c 2.542967,-0.0117 4.378907,-0.082 5.710935,-0.44141 l -4.230467,-7.25 -4.484374,7.69141 1.191405,0 c 0.640626,0 1.242188,0 1.812501,0 z m 1.480468,-7.69141 -5.124997,-8.78906 -5.128908,8.78906 z m 0,0 7.652345,0 c 0.03118,-0.97265 0.03905,-2.0625 0.03905,-3.29687 l 0,-1.09766 -2.562498,-4.39453 z m 5.128908,-8.78906 -5.128908,-8.78906 -5.124997,8.78906 z m 0,0 2.562499,0 0,-4.39453 z m -10.253905,0 -5.128908,-8.78906 -5.125004,8.78906 z m -10.253912,0 -5.128905,8.78906 10.253909,0 z m 0,0 -5.128905,-8.78906 -5.124997,8.78906 z m -10.253902,0 -5.128905,8.78906 10.253902,0 z m 0,0 -5.128905,-8.78906 -5.125,8.78906 z m -10.253905,0 -3.296877,5.64844 c 0,1.16797 0.01169,2.21094 0.03905,3.14062 l 8.382812,0 z m 0,0 -3.296877,-5.64844 0,5.64844 z m 5.125,8.78906 -4.312502,7.39453 c 1.597656,0.29296 3.808594,0.2969 6.878909,0.2969 l 1.921872,0 z m 0,-17.57812 -5.125,-8.78906 -3.296877,5.64843 0,3.14063 z m 0,0 10.253902,0 -5.124997,-8.78906 z m 5.128905,-8.78906 -5.128905,-8.78907 -5.125,8.78907 z m 0,0 10.253902,0 -5.128905,-8.78907 z m 5.124997,-8.78907 -2.351558,-4.02734 -5.335937,0 c -0.07813,0 -0.140634,0 -0.214831,0 l -2.351562,4.02734 z m 0,0 10.253909,0 -2.351562,-4.02734 -5.550782,0 z m 10.253909,0 10.253905,0 -2.351562,-4.02734 c -0.31252,0 -0.609374,0 -0.941407,0 l -4.609378,0 z m 0,0 -5.125004,8.78907 10.253912,0 z m 5.128908,8.78907 10.253905,0 -5.128908,-8.78907 z m 0,0 -5.128908,8.78906 10.253905,0 z m 5.124997,8.78906 7.691407,0 0,-4.39453 -2.562499,-4.39453 z m 5.128908,-8.78906 2.562499,0 0,-1.83203 c 0,-0.91407 -0.0078,-1.75 -0.02339,-2.52344 z m -15.382813,8.78906 -5.125004,-8.78906 -5.128905,8.78906 z m 10.253905,-17.57813 7.308595,0 c -0.554687,-2.75781 -1.886719,-3.6289 -5.031252,-3.90234 z m -30.761716,0 -2.304687,-3.95312 c -3.660159,0.20703 -5.140627,0.99609 -5.734379,3.95312 z m -5.125,8.78907 -3.238283,-5.55469 c -0.04298,1.07422 -0.05861,2.30859 -0.05861,3.72266 l 0,1.83203 z m 15.378902,26.36718 -4.484374,7.69141 8.972656,0 z m 10.253909,0 -4.484374,7.69141 8.972656,0 z m -26.898438,6.6211 -1.601561,-2.7461 c 0.29296,1.31641 0.785155,2.17969 1.601561,2.7461 z"/><path id="path11491" fill="#f9f9f9" fill-opacity="1" fill-rule="evenodd" stroke="none" stroke-width="3" d="m -36.492356,155.76866 c 3.62132,7.9408 -7.242641,7.9408 -7.242641,0 0,0 0,0 0,-3.9704 14.485282,-11.91119 14.485282,-3.9704 7.242641,3.9704 z" display="inline" enable-background="accumulate" overflow="visible" visibility="visible" style="marker:none"/><path id="path2383" fill="#f9f9f9" fill-opacity="1" fill-rule="evenodd" stroke="none" stroke-width="2.652" d="m -43.372865,151.00418 c 0.724264,1.9852 0.173385,8.68982 -0.362132,8.73488 -0.535518,0.0451 -1.086396,-6.74968 -0.362132,-8.73488 -1.086396,-0.79408 -1.086396,-1.58816 0.362132,-1.58816 1.448528,0 1.448528,0.79408 0.362132,1.58816 z" display="inline" enable-background="accumulate" overflow="visible" visibility="visible" style="marker:none"/><path id="path12312" fill="#f9f9f9" fill-opacity="1" fill-rule="evenodd" stroke="none" stroke-width="3" d="m -50.977638,155.76866 c -3.621321,7.9408 7.242641,7.9408 7.242641,0 0,0 0,0 0,-3.9704 -14.485282,-11.91119 -14.485282,-3.9704 -7.242641,3.9704 z" display="inline" enable-background="accumulate" overflow="visible" visibility="visible" style="marker:none"/><path id="path12314" fill="#f9f9f9" fill-opacity="1" stroke="none" stroke-dasharray="none" stroke-linecap="round" stroke-linejoin="miter" stroke-miterlimit="4" stroke-opacity="1" stroke-width=".152" d="m -43.372865,149.81306 c 0.362132,-2.77928 3.259188,-3.57336 3.259188,-3.57336"/><path id="path12316" fill="#f9f9f9" fill-opacity="1" stroke="none" stroke-dasharray="none" stroke-linecap="round" stroke-linejoin="miter" stroke-miterlimit="4" stroke-opacity="1" stroke-width=".152" d="m -44.097129,149.81306 c -0.362132,-2.77928 -3.259189,-3.57336 -3.259189,-3.57336"/></g></svg>