<svg xmlns="http://www.w3.org/2000/svg" xmlns:svg="http://www.w3.org/2000/svg" xmlns:xlink="http://www.w3.org/1999/xlink" id="svg2" width="48" height="48" version="1.1" viewBox="0 0 13.547 13.547"><metadata id="metadata284"/><defs id="defs4"><clipPath id="clipPath6"><path id="path8" d="m 328,242.09376 c -7.73199,0 -14,6.26801 -14,14 0,7.73199 6.26801,14 14,14 7.73199,0 14,-6.26801 14,-14 0,-7.73199 -6.26801,-14 -14,-14 z m 0,9.90625 c 2.20914,0 4,1.79086 4,4 0,2.20914 -1.79086,4 -4,4 -2.20914,0 -4,-1.79086 -4,-4 0,-2.20914 1.79086,-4 4,-4 z m 0,1 c -1.65685,0 -3,1.34315 -3,3 0,1.65685 1.34315,3 3,3 1.65685,0 3,-1.34315 3,-3 0,-1.65685 -1.34315,-3 -3,-3 z m 0,1 c 1.10457,0 2,0.89543 2,2 0,1.10457 -0.89543,2 -2,2 -1.10457,0 -2,-0.89543 -2,-2 0,-1.10457 0.89543,-2 2,-2 z"/></clipPath><clipPath id="clipPath10"><path id="path12" d="m 440,126 c -3.31371,0 -6,2.68629 -6,6 0,3.31371 2.68629,6 6,6 3.31371,0 6,-2.68629 6,-6 0,-3.31371 -2.68629,-6 -6,-6 z m 0,3 c 1.65685,0 3,1.34315 3,3 0,1.65685 -1.34315,3 -3,3 -1.65685,0 -3,-1.34315 -3,-3 0,-1.65685 1.34315,-3 3,-3 z m 0,1 c -1.10457,0 -2,0.89543 -2,2 0,1.10457 0.89543,2 2,2 1.10457,0 2,-0.89543 2,-2 0,-1.10457 -0.89543,-2 -2,-2 z m 0,1 c 0.55228,0 1,0.44772 1,1 0,0.55228 -0.44772,1 -1,1 -0.55228,0 -1,-0.44772 -1,-1 0,-0.55228 0.44772,-1 1,-1 z"/></clipPath><clipPath id="clipPath14"><path id="path16" d="m 451.38843,127.3713 c -3.31371,0 -6,2.68629 -6,6 0,3.31371 2.68629,6 6,6 3.31371,0 6,-2.68629 6,-6 0,-3.31371 -2.68629,-6 -6,-6 z m 0,3 c 1.65685,0 3,1.34315 3,3 0,1.65685 -1.34315,3 -3,3 -1.65685,0 -3,-1.34315 -3,-3 0,-1.65685 1.34315,-3 3,-3 z m 0,1 c -1.10457,0 -2,0.89543 -2,2 0,1.10457 0.89543,2 2,2 1.10457,0 2,-0.89543 2,-2 0,-1.10457 -0.89543,-2 -2,-2 z m 0,1 c 0.55228,0 1,0.44772 1,1 0,0.55228 -0.44772,1 -1,1 -0.55228,0 -1,-0.44772 -1,-1 0,-0.55228 0.44772,-1 1,-1 z"/></clipPath><clipPath id="clipPath18"><path id="path20" d="m 328,238 c -7.73199,0 -14,6.26801 -14,14 0,7.73199 6.26801,14 14,14 7.73199,0 14,-6.26801 14,-14 0,-7.73199 -6.26801,-14 -14,-14 z m 0,8.75 c 2.89949,0 5.25,2.35051 5.25,5.25 0,2.89949 -2.35051,5.25 -5.25,5.25 -2.89949,0 -5.25,-2.35051 -5.25,-5.25 0,-2.89949 2.35051,-5.25 5.25,-5.25 z m 0,1.75 c -1.933,0 -3.5,1.567 -3.5,3.5 0,1.933 1.567,3.5 3.5,3.5 1.933,0 3.5,-1.567 3.5,-3.5 0,-1.933 -1.567,-3.5 -3.5,-3.5 z m 0,1.75 c 0.96649,0 1.75,0.78351 1.75,1.75 0,0.96649 -0.78351,1.75 -1.75,1.75 -0.96649,0 -1.75,-0.78351 -1.75,-1.75 0,-0.96649 0.78351,-1.75 1.75,-1.75 z"/></clipPath><clipPath id="clipPath22"><path id="path24" d="m 444,88 c -4.41828,0 -8,3.58172 -8,8 0,4.41828 3.58172,8 8,8 4.41828,0 8,-3.58172 8,-8 0,-4.41828 -3.58172,-8 -8,-8 z m 0,5 c 1.65685,0 3,1.34315 3,3 0,1.65685 -1.34315,3 -3,3 -1.65685,0 -3,-1.34315 -3,-3 0,-1.65685 1.34315,-3 3,-3 z m 0,1 c -1.10457,0 -2,0.89543 -2,2 0,1.10457 0.89543,2 2,2 1.10457,0 2,-0.89543 2,-2 0,-1.10457 -0.89543,-2 -2,-2 z m 0,1 c 0.55228,0 1,0.44772 1,1 0,0.55228 -0.44772,1 -1,1 -0.55228,0 -1,-0.44772 -1,-1 0,-0.55228 0.44772,-1 1,-1 z"/></clipPath><clipPath id="clipPath26"><path id="path28" d="m 144.00001,75.999997 c -44.1828,0 -80,35.817203 -80,80.000003 0,44.1828 35.8172,80 80,80 44.1828,0 80,-35.8172 80,-80 0,-44.1828 -35.8172,-80.000003 -80,-80.000003 z m 0,56.607143 c 12.62366,0 22.85714,10.23349 22.85714,22.85714 0,12.62366 -10.23348,22.85714 -22.85714,22.85714 -12.62366,0 -22.85714,-10.23348 -22.85714,-22.85714 0,-12.62365 10.23348,-22.85714 22.85714,-22.85714 z m 0,5.71429 c -9.46771,0 -17.14286,7.67514 -17.14286,17.14285 0,9.46772 7.67515,17.14286 17.14286,17.14286 9.46771,0 17.14286,-7.67514 17.14286,-17.14286 0,-9.46771 -7.67515,-17.14285 -17.14286,-17.14285 z m 0,5.71428 c 6.31183,0 11.42857,5.11674 11.42857,11.42857 0,6.31183 -5.11674,11.42857 -11.42857,11.42857 -6.31183,0 -11.42857,-5.11674 -11.42857,-11.42857 0,-6.31183 5.11674,-11.42857 11.42857,-11.42857 z"/></clipPath><clipPath id="clipPath30"><path id="path32" d="m 328,256 15,11 0,-27 -15,0 z"/></clipPath><clipPath id="clipPath34"><rect id="rect36" width="22" height="22" x="433" y="77" fill="#6d6d6d" color="#bebebe" opacity=".2" rx="3"/></clipPath><clipPath id="clipPath38"><rect id="rect40" width="30" height="30" x="433" y="29" color="#bebebe" rx="6"/></clipPath><clipPath id="clipPath42"><rect id="rect44" width="16" height="16" x="432" y="116" fill="#6d6d6d" color="#bebebe" opacity=".2" rx="2"/></clipPath><clipPath id="clipPath46"><path id="path48" d="m 451.38843,133.3713 6.42857,4.71429 0,-11.57143 -6.42857,0 z"/></clipPath><clipPath id="clipPath50"><path id="path52" d="m 328,238 c -7.73199,0 -14,6.26801 -14,14 0,7.73199 6.26801,14 14,14 7.73199,0 14,-6.26801 14,-14 0,-7.73199 -6.26801,-14 -14,-14 z m 0,9.90625 c 2.20914,0 4,1.79086 4,4 0,2.20914 -1.79086,4 -4,4 -2.20914,0 -4,-1.79086 -4,-4 0,-2.20914 1.79086,-4 4,-4 z m 0,1 c -1.65685,0 -3,1.34315 -3,3 0,1.65685 1.34315,3 3,3 1.65685,0 3,-1.34315 3,-3 0,-1.65685 -1.34315,-3 -3,-3 z m 0,1 c 1.10457,0 2,0.89543 2,2 0,1.10457 -0.89543,2 -2,2 -1.10457,0 -2,-0.89543 -2,-2 0,-1.10457 0.89543,-2 2,-2 z"/></clipPath><clipPath id="clipPath54"><rect id="rect56" width="20" height="20" x="434" y="78" color="#bebebe" rx="4"/></clipPath><clipPath id="clipPath58"><rect id="rect60" width="60" height="60" x="306" y="142" fill="url(#5)" color="#bebebe" rx="12.5" transform="matrix(0 -1 1 0 0 0)"/></clipPath><clipPath id="clipPath62"><rect id="rect64" width="22" height="22" x="433" y="77" color="#bebebe" rx="5"/></clipPath><clipPath id="clipPath66"><rect id="rect68" width="90" height="90" x="307" y="31" fill="url(#B)" color="#bebebe" rx="18.75"/></clipPath><clipPath id="clipPath70"><rect id="rect72" width="42" height="42" x="307" y="223" fill="url(#0)" color="#bebebe" rx="9" transform="rotate(90)"/></clipPath><clipPath id="clipPath74"><rect id="rect76" width="22" height="22" x="433" y="77" color="#bebebe" rx="4"/></clipPath><clipPath id="clipPath78"><path id="path80" d="m 328,242.09375 c -7.73199,0 -14,6.26801 -14,14 0,7.73199 6.26801,14 14,14 7.73199,0 14,-6.26801 14,-14 0,-7.73199 -6.26801,-14 -14,-14 z M 328,252 c 2.20914,0 4,1.79086 4,4 0,2.20914 -1.79086,4 -4,4 -2.20914,0 -4,-1.79086 -4,-4 0,-2.20914 1.79086,-4 4,-4 z m 0,1 c -1.65685,0 -3,1.34315 -3,3 0,1.65685 1.34315,3 3,3 1.65685,0 3,-1.34315 3,-3 0,-1.65685 -1.34315,-3 -3,-3 z m 0,1 c 1.10457,0 2,0.89543 2,2 0,1.10457 -0.89543,2 -2,2 -1.10457,0 -2,-0.89543 -2,-2 0,-1.10457 0.89543,-2 2,-2 z"/></clipPath><clipPath id="clipPath82"><rect id="rect84" width="30" height="30" x="433" y="29" fill="#6d6d6d" color="#bebebe" opacity=".2" rx="4"/></clipPath><clipPath id="clipPath86"><rect id="rect88" width="30" height="30" x="433" y="29" color="#bebebe" rx="6"/></clipPath><clipPath id="clipPath90"><rect id="rect92" width="16" height="16" x="432" y="116" color="#bebebe" rx="3"/></clipPath><clipPath id="clipPath94"><rect id="rect96" width="240" height="240" x="24" y="36" fill="#986767" color="#bebebe" rx="50"/></clipPath><clipPath id="clipPath98"><rect id="rect100" width="16" height="16" x="432" y="116" fill="#6d6d6d" color="#bebebe" opacity=".2" rx="2"/></clipPath><clipPath id="clipPath102"><rect id="rect104" width="30" height="30" x="433" y="29" fill="#6d6d6d" color="#bebebe" opacity=".2" rx="4"/></clipPath><clipPath id="clipPath106"><rect id="rect108" width="240" height="240" x="24" y="36" fill="#986767" color="#bebebe" rx="50"/></clipPath><clipPath id="clipPath110"><rect id="rect112" width="22" height="22" x="433" y="77" fill="#6d6d6d" color="#bebebe" opacity=".2" rx="3"/></clipPath><clipPath id="clipPath114"><rect id="rect116" width="20" height="20" x="434" y="78" color="#bebebe" rx="4"/></clipPath><clipPath id="clipPath118"><rect id="rect120" width="42" height="42" x="307" y="223" fill="url(#8)" color="#bebebe" rx="9" transform="rotate(90)"/></clipPath><clipPath id="clipPath122"><rect id="rect124" width="60" height="60" x="306" y="142" fill="url(#A)" color="#bebebe" rx="12.5" transform="matrix(0 -1 1 0 0 0)"/></clipPath><clipPath id="clipPath126"><rect id="rect128" width="30" height="30" x="433" y="29" color="#bebebe" rx="6"/></clipPath><clipPath id="clipPath130"><rect id="rect132" width="22" height="22" x="433" y="77" color="#bebebe" rx="5"/></clipPath><clipPath id="clipPath134"><rect id="rect136" width="90" height="90" x="307" y="31" fill="url(#6)" color="#bebebe" rx="18.75"/></clipPath><clipPath id="clipPath138"><rect id="rect140" width="22" height="22" x="433" y="77" color="#bebebe" rx="5"/></clipPath><clipPath id="clipPath142"><rect id="rect144" width="60" height="60" x="306" y="142" fill="url(#2)" color="#bebebe" rx="12.5" transform="matrix(0 -1 1 0 0 0)"/></clipPath><clipPath id="clipPath146"><rect id="rect148" width="42" height="42" x="307" y="223" fill="url(#C)" color="#bebebe" rx="9" transform="rotate(90)"/></clipPath><clipPath id="clipPath150"><rect id="rect152" width="90" height="90" x="307" y="31" fill="url(#9)" color="#bebebe" rx="18.75"/></clipPath><clipPath id="clipPath154"><rect id="rect156" width="30" height="30" x="433" y="29" fill="#6d6d6d" color="#bebebe" opacity=".2" rx="4"/></clipPath><clipPath id="clipPath158"><rect id="rect160" width="22" height="22" x="433" y="77" color="#bebebe" rx="4"/></clipPath><clipPath id="clipPath162"><rect id="rect164" width="16" height="16" x="432" y="116" color="#bebebe" rx="3"/></clipPath><clipPath id="clipPath166"><rect id="rect168" width="22" height="22" x="433" y="77" color="#bebebe" rx="4"/></clipPath><clipPath id="clipPath170"><rect id="rect172" width="16" height="16" x="432" y="116" color="#bebebe" rx="3"/></clipPath><clipPath id="clipPath174"><rect id="rect176" width="16" height="16" x="432" y="116" fill="#6d6d6d" color="#bebebe" opacity=".2" rx="2"/></clipPath><clipPath id="clipPath178"><rect id="rect180" width="22" height="22" x="433" y="77" fill="#6d6d6d" color="#bebebe" opacity=".2" rx="3"/></clipPath><clipPath id="clipPath182"><rect id="rect184" width="240" height="240" x="24" y="36" fill="#986767" color="#bebebe" rx="50"/></clipPath><clipPath id="clipPath186"><rect id="rect188" width="20" height="20" x="434" y="78" color="#bebebe" rx="4"/></clipPath><linearGradient id="linearGradient190" x2="0" y1="273" y2="231" gradientTransform="matrix(5.71429 0 0 5.71429 -1730.2857 -1284)" gradientUnits="userSpaceOnUse" xlink:href="#4"/><linearGradient id="linearGradient192" x2="0" y1="140" y2="124" gradientTransform="translate(11.38843 1.3713)" gradientUnits="userSpaceOnUse" xlink:href="#4"/><linearGradient id="linearGradient194" x2="0" y1="140" y2="124" gradientUnits="userSpaceOnUse" xlink:href="#4"/><linearGradient id="linearGradient196" x2="0" y1="140" y2="124" gradientUnits="userSpaceOnUse" xlink:href="#4"/><linearGradient id="linearGradient198" x2="0" y1="273" y2="231" gradientTransform="translate(0 4.09376)" gradientUnits="userSpaceOnUse" xlink:href="#4"/><linearGradient id="linearGradient200" x2="0" y1="107" y2="85" gradientUnits="userSpaceOnUse" xlink:href="#4"/><linearGradient id="0" x2="0" y1="280" y2="40" gradientTransform="matrix(.175 0 0 .175 302.79999 215.99997)" gradientUnits="userSpaceOnUse" xlink:href="#3"/><linearGradient id="linearGradient203" x2="0" y1="140" y2="124" gradientTransform="translate(11.38843 1.3713)" gradientUnits="userSpaceOnUse" xlink:href="#4"/><linearGradient id="linearGradient205" x2="0" y1="107" y2="85" gradientUnits="userSpaceOnUse" xlink:href="#4"/><linearGradient id="1"><stop id="stop208" stop-color="#eaba31"/><stop id="stop210" offset="1" stop-color="#ff9200"/></linearGradient><linearGradient id="2" x2="0" y1="230" y2="90" gradientTransform="matrix(.25 0 0 .25 299.99999 131.99999)" gradientUnits="userSpaceOnUse" xlink:href="#3"/><linearGradient id="3"><stop id="stop214" stop-color="#f0f0f0"/><stop id="stop216" offset="1" stop-color="#f8f8f8"/></linearGradient><linearGradient id="4"><stop id="stop219" stop-color="#818181"/><stop id="stop221" offset="1" stop-color="#c5c5c5"/></linearGradient><linearGradient id="linearGradient223" x2="0" y1="273" y2="231" gradientTransform="translate(0 4.09376)" gradientUnits="userSpaceOnUse" xlink:href="#4"/><linearGradient id="5" x2="0" y1="230" y2="90" gradientTransform="matrix(.25 0 0 .25 299.99999 131.99999)" gradientUnits="userSpaceOnUse" xlink:href="#3"/><linearGradient id="6" x2="0" y1="230" y2="90" gradientTransform="matrix(.375 0 0 .375 298 16)" gradientUnits="userSpaceOnUse" xlink:href="#3"/><linearGradient id="7"><stop id="stop228" stop-color="#2d2d2d"/><stop id="stop230" offset="1" stop-color="#4b4b4b"/></linearGradient><linearGradient id="8" x2="0" y1="280" y2="40" gradientTransform="matrix(.175 0 0 .175 302.79999 215.99997)" gradientUnits="userSpaceOnUse" xlink:href="#3"/><linearGradient id="9" x2="0" y1="230" y2="90" gradientTransform="matrix(.375 0 0 .375 298 16)" gradientUnits="userSpaceOnUse" xlink:href="#3"/><linearGradient id="linearGradient234" x2="0" y1="273" y2="231" gradientTransform="translate(0 4.09376)" gradientUnits="userSpaceOnUse" xlink:href="#4"/><linearGradient id="linearGradient236" x2="0" y1="273" y2="231" gradientTransform="matrix(5.71429 0 0 5.71429 -1730.2857 -1284)" gradientUnits="userSpaceOnUse" xlink:href="#4"/><linearGradient id="linearGradient238" x2="0" y1="140" y2="124" gradientTransform="translate(11.38843 1.3713)" gradientUnits="userSpaceOnUse" xlink:href="#4"/><linearGradient id="A" x2="0" y1="230" y2="90" gradientTransform="matrix(.25 0 0 .25 299.99999 131.99999)" gradientUnits="userSpaceOnUse" xlink:href="#3"/><linearGradient id="linearGradient241" x2="0" y1="107" y2="85" gradientUnits="userSpaceOnUse" xlink:href="#4"/><linearGradient id="B" x2="0" y1="230" y2="90" gradientTransform="matrix(.375 0 0 .375 298 16)" gradientUnits="userSpaceOnUse" xlink:href="#3"/><linearGradient id="linearGradient244" x2="0" y1="273" y2="231" gradientTransform="matrix(5.71429 0 0 5.71429 -1730.2857 -1284)" gradientUnits="userSpaceOnUse" xlink:href="#4"/><linearGradient id="C" x2="0" y1="280" y2="40" gradientTransform="matrix(.175 0 0 .175 302.79999 215.99997)" gradientUnits="userSpaceOnUse" xlink:href="#3"/><linearGradient id="linearGradient247" x2="0" y1="140" y2="124" gradientUnits="userSpaceOnUse" xlink:href="#4"/><radialGradient id="radialGradient249" cx="328" cy="255.42" r="7" gradientTransform="matrix(2.85714 0 0 2.85714 -609.14349 -473.66662)" gradientUnits="userSpaceOnUse" xlink:href="#1"/><radialGradient id="radialGradient251" cx="328" cy="255.42" r="7" gradientTransform="matrix(2.85714 0 0 2.85714 -609.14349 -473.66662)" gradientUnits="userSpaceOnUse" xlink:href="#1"/><radialGradient id="radialGradient253" cx="328" cy="255.42" r="7" gradientTransform="matrix(1.22449 0 0 1.22449 49.7555 -179.34296)" gradientUnits="userSpaceOnUse" xlink:href="#1"/><radialGradient id="radialGradient255" cx="328" cy="255.42" r="7" gradientTransform="matrix(1.22449 0 0 1.22449 49.7555 -179.34296)" gradientUnits="userSpaceOnUse" xlink:href="#1"/><radialGradient id="radialGradient257" cx="328" cy="255.42" r="7" gradientTransform="matrix(1.22449 0 0 1.22449 49.7555 -179.34296)" gradientUnits="userSpaceOnUse" xlink:href="#1"/><radialGradient id="radialGradient259" cx="328" cy="255.42" r="7" gradientTransform="matrix(2.85714 0 0 2.85714 -609.14349 -473.66662)" gradientUnits="userSpaceOnUse" xlink:href="#1"/><linearGradient id="D" x2="0" y1="1050.36" y2="1006.36" gradientTransform="matrix(0.28222223,0,0,0.28222223,0,-283.45334)" gradientUnits="userSpaceOnUse" xlink:href="#7"/><radialGradient id="radialGradient3013" cx="148.004" cy="160" r="128" gradientTransform="matrix(0.05167489,0,0,0.05167489,-0.87511191,-1.4947605)" gradientUnits="userSpaceOnUse" spreadMethod="pad" xlink:href="#linearGradient4460-7-2"/><linearGradient id="linearGradient4460-7-2"><stop id="stop8-6-7" offset="0" stop-color="#747474" stop-opacity="1"/><stop id="stop10-2-5" offset="1" stop-color="#2d2d2d" stop-opacity="1"/></linearGradient><radialGradient id="radialGradient3022" cx="148.004" cy="160" r="128" gradientTransform="matrix(0.05167489,0,0,0.05167489,-0.87511191,-1.4947603)" gradientUnits="userSpaceOnUse" spreadMethod="pad" xlink:href="#linearGradient4460-7-2"/></defs><path id="path11-4" fill="url(#radialGradient3022)" fill-opacity="1" d="m 13.387775,3.2589216 0,7.0290964 c 0,2.892778 0,3.100035 -3.100034,3.100035 l -7.0279949,0 c -3.10113721,0 -3.10113721,-0.207257 -3.10113721,-3.100035 l 0,-7.0290964 c 0,-2.89277779 0,-3.10003479 3.10113721,-3.10003479 l 7.0279949,0 c 3.100034,0 3.100034,0.207257 3.100034,3.10003479 z"/><path id="path15-5" fill="#fff" fill-opacity=".051" d="m 10.799268,13.388053 c 0.717683,-0.0033 1.235826,-0.02315 1.611754,-0.124574 l -1.193933,-2.046112 -1.2655899,2.170686 0.3362419,0 c 0.180799,0 0.350572,0 0.511527,0 z M 11.217089,11.217367 9.7707001,8.7368991 8.3232091,11.217367 z m 0,0 2.159663,0 c 0.0088,-0.274504 0.01102,-0.582083 0.01102,-0.93045 l 0,-0.3097839 -0.723193,-1.240234 z M 12.664582,8.7368991 11.217089,6.2564304 9.7707001,8.7368991 z m 0,0 0.723193,0 0,-1.2402343 z m -2.8938819,0 -1.447491,-2.4804687 -1.446389,2.4804687 z m -2.89388,0 -1.447491,2.4804679 2.89388,0 z m 0,0 -1.447491,-2.4804687 -1.446389,2.4804687 z m -2.89388,0 -1.447491,2.4804679 2.89388,0 z m 0,0 -1.447491,-2.4804687 -1.4463892,2.4804687 z m -2.8938802,0 -0.93045101,1.5941139 c 0,0.329628 0.0033,0.623976 0.01102,0.886354 l 2.36581621,0 z m 0,0 -0.93045101,-1.5941145 0,1.5941145 z m 1.4463892,2.4804679 -1.2170832,2.086901 c 0.4508942,0.08268 1.0748692,0.08379 1.9413802,0.08379 l 0.542395,0 z m 0,-4.9609366 -1.4463892,-2.4804686 -0.93045101,1.5941147 0,0.8863539 z m 0,0 2.89388,0 -1.446389,-2.4804686 z M 3.9829401,3.7759618 2.5354491,1.2954929 1.0890599,3.7759618 z m 0,0 2.89388,0 -1.447491,-2.4804689 z m 1.446389,-2.4804689 -0.663663,-1.13660609 -1.50592,0 c -0.02205,0 -0.03969,0 -0.06063,0 L 2.5354531,1.2954929 z m 0,0 2.89388,0 -0.663663,-1.13660609 -1.566554,0 z m 2.89388,0 2.8938799,0 -0.663662,-1.13660609 c -0.0882,0 -0.17198,0 -0.265686,0 l -1.3008689,0 z m 0,0 -1.446389,2.4804689 2.89388,0 z m 1.447491,2.4804689 2.8938819,0 -1.447493,-2.4804689 z m 0,0 -1.447491,2.4804686 2.8938799,0 z m 1.4463889,2.4804686 2.170686,0 0,-1.240234 -0.723193,-1.2402346 z m 1.447493,-2.4804686 0.723193,0 0,-0.5170402 c 0,-0.2579689 -0.0022,-0.4938888 -0.0066,-0.71217 z M 8.3232091,6.2564304 6.8768201,3.7759618 5.4293291,6.2564304 z m 2.8938799,-4.9609375 2.062648,0 C 13.123192,0.51717681 12.747264,0.27133491 11.859806,0.19416481 z m -8.6816399,0 -0.650434,-1.11565989 C 0.85203689,0.23826211 0.43421589,0.46095271 0.26664689,1.2954929 z M 1.0890599,3.7759618 0.17514489,2.2083054 c -0.01213,0.3031685 -0.01653,0.6515362 -0.01653,1.0506162 l 0,0.5170402 z m 4.3402692,7.4414052 -1.265591,2.170686 2.532283,0 z m 2.89388,0 -1.26559,2.170686 2.532283,0 z m -7.59133621,1.868621 -0.451997,-0.775009 c 0.08268,0.371519 0.221589,0.615157 0.451997,0.775009 z"/><rect id="rect278" width="6.773" height="6.209" x="3.387" y="3.387" fill="#f9f9f9" rx="1.494" ry="1.182"/><path id="path280" fill="#f9f9f9" d="m 9.5955558,8.4666672 -4.2333334,0 -0.8466667,2.2577778 z"/></svg>