<svg xmlns="http://www.w3.org/2000/svg" xmlns:svg="http://www.w3.org/2000/svg" xmlns:xlink="http://www.w3.org/1999/xlink" id="svg2" width="48" height="48" version="1.1" viewBox="0 0 13.547 13.547"><metadata id="metadata36"/><defs id="defs4"><linearGradient id="0"><stop id="stop7" stop-color="#2d2d2d"/><stop id="stop9" offset="1" stop-color="#4e4e4e"/></linearGradient><linearGradient id="1" x2="0" y1="1050.36" y2="1006.36" gradientTransform="matrix(0.28222223,0,0,0.28222223,0,-283.45334)" gradientUnits="userSpaceOnUse" xlink:href="#0"/><radialGradient id="radial0" cx="148.004" cy="160" r="128" gradientTransform="matrix(0.1831,0,0,0.1831,-3.10029,-5.29688)" gradientUnits="userSpaceOnUse"><stop id="stop7-7" offset="0" stop-color="#f4a8b0"/><stop id="stop9-2" offset="1" stop-color="#b21426"/></radialGradient><radialGradient id="radialGradient3015" cx="148.004" cy="160" r="128" gradientTransform="matrix(0.05167489,0,0,0.05167489,-0.87511151,-1.4947611)" gradientUnits="userSpaceOnUse" xlink:href="#radial0"/></defs><path id="path11" fill="url(#radialGradient3015)" d="m 13.387777,3.258921 0,7.029097 c 0,2.892778 0,3.100035 -3.100036,3.100035 l -7.0279945,0 c -3.10113721,0 -3.10113721,-0.207257 -3.10113721,-3.100035 l 0,-7.029097 c 0,-2.89277783 0,-3.10003478 3.10113721,-3.10003478 l 7.0279945,0 c 3.100036,0 3.100036,0.20725695 3.100036,3.10003478 z"/><path id="path13" fill="#fff" fill-opacity=".051" d="m 10.799269,13.388053 c 0.717682,-0.0033 1.235826,-0.02315 1.611754,-0.124575 l -1.193933,-2.046111 -1.2655898,2.170686 0.3362408,0 c 0.180799,0 0.350573,0 0.511528,0 z M 11.21709,11.217367 9.7707016,8.7368985 8.3232103,11.217367 z m 0,0 2.159663,0 c 0.0088,-0.274505 0.01102,-0.582083 0.01102,-0.930451 l 0,-0.3097832 -0.723194,-1.2402343 z M 12.664583,8.7368985 11.21709,6.2564298 9.7707016,8.7368985 z m 0,0 0.723194,0 0,-1.2402343 z m -2.8938814,0 L 8.3232103,6.2564298 6.8768214,8.7368985 z m -2.8938802,0 -1.4474916,2.4804685 2.8938805,0 z m 0,0 L 5.4293298,6.2564298 3.9829409,8.7368985 z m -2.8938805,0 -1.4474913,2.4804685 2.8938802,0 z m 0,0 L 2.5354496,6.2564298 1.0890607,8.7368985 z m -2.8938802,0 -0.93045141,1.5941145 c 0,0.329627 0.00331,0.623976 0.011024,0.886354 l 2.36581611,0 z m 0,0 -0.93045141,-1.5941145 0,1.5941145 z m 1.4463889,2.4804685 -1.2170833,2.086901 c 0.450894,0.08268 1.0748699,0.08379 1.9402778,0.08379 l 0.5434982,0 z m 0,-4.9609372 -1.4463889,-2.4804689 -0.93045141,1.5941147 0,0.8863542 z m 0,0 2.8938802,0 L 3.9829409,3.7759609 z M 3.9829409,3.7759609 2.5354496,1.2954922 1.0890607,3.7759609 z m 0,0 2.8938805,0 -1.4474916,-2.4804687 z m 1.4463889,-2.4804687 -0.663663,-1.13660598 -1.5070227,0 c -0.020947,0 -0.038585,0 -0.059531,0 L 2.5354496,1.2954922 z m 0,0 2.8938805,0 -0.6636633,-1.13660598 -1.5665538,0 z m 2.8938805,0 2.8938797,0 -0.663663,-1.13660598 c -0.0882,0 -0.171979,0 -0.266788,0 l -1.2997656,0 z m 0,0 -1.4463889,2.4804687 2.8938802,0 z m 1.4474913,2.4804687 2.8938814,0 -1.447493,-2.4804687 z m 0,0 -1.4474913,2.4804689 2.8938797,0 z m 1.4463884,2.4804689 2.170687,0 0,-1.2402343 -0.723194,-1.2402346 z m 1.447493,-2.4804689 0.723194,0 0,-0.5170399 c 0,-0.2579689 -0.0022,-0.4938889 -0.0066,-0.71217 z M 8.3232103,6.2564298 6.8768214,3.7759609 5.4293298,6.2564298 z m 2.8938797,-4.9609376 2.062649,0 C 13.123194,0.51717609 12.747265,0.27133428 11.859807,0.194164 z m -8.6816404,0 L 1.8850157,0.17983247 C 0.85203809,0.23826122 0.43421679,0.46095206 0.26664739,1.2954922 z M 1.0890607,3.7759609 0.17514589,2.2083047 c -0.012127,0.3031685 -0.016537,0.6515363 -0.016537,1.0506163 l 0,0.5170399 z m 4.3402691,7.4414061 -1.2655903,2.170686 2.532283,0 z m 2.8938805,0 -1.2655906,2.170686 2.5322833,0 z m -7.59133711,1.86862 -0.4519964,-0.775009 c 0.082682,0.371519 0.2215885,0.615157 0.4519964,0.775009 z"/><path id="path15" fill="none" stroke="#fff" stroke-linecap="round" stroke-linejoin="round" stroke-width=".446" d="m 3.7702391,5.2117553 6.0059069,0 c 0.1896369,0 0.343577,0.1539405 0.343577,0.3435771 l 0,2.4362744 c 0,0.1896368 -0.1539401,0.3435773 -0.343577,0.3435773 l -6.0059069,0 c -0.1896367,0 -0.3435771,-0.1539405 -0.3435771,-0.3435773 l 0,-2.4362744 c 0,-0.1896366 0.1539404,-0.3435771 0.3435771,-0.3435771 z"/><path id="path17" fill="#fff" d="m 3.984417,5.6579594 c -0.061725,0 -0.111551,0.049826 -0.111551,0.111551 l 0,2.0079186 c 0,0.061725 0.049826,0.111551 0.111551,0.111551 l 2.6891234,0 c 0.061725,0 0.1115511,-0.049826 0.1115511,-0.111551 l 0,-2.0079186 c 0,-0.061725 -0.049826,-0.111551 -0.1115511,-0.111551 z m 0.7808572,1.5617144 0,-0.8924082 0.2231021,0 0,0.8924082 z m 0.4462042,0 0,-0.8924082 0.223102,0 0,0.8924082 z m 0.4462041,0 0,-0.8924082 0.223102,0 0,0.8924082 z"/></svg>