<svg xmlns="http://www.w3.org/2000/svg" xmlns:svg="http://www.w3.org/2000/svg" xmlns:xlink="http://www.w3.org/1999/xlink" id="svg2" width="48" height="48" version="1.1" viewBox="0 0 13.547 13.547"><metadata id="metadata130"/><defs id="defs4"><linearGradient id="0" x2="0" y1="299.81" y2="31.619" gradientTransform="matrix(0.11931818,0,0,0.11931818,414.13636,48.22727)" gradientUnits="userSpaceOnUse" xlink:href="#9"/><clipPath id="clipPath7"><rect id="rect9" width="30" height="30" x="417" y="53" fill="url(#0)" color="#bebebe" rx="7"/></clipPath><linearGradient id="1" x2="0" y1="302.86" y2="28.571" gradientTransform="matrix(0.0875,0,0,0.0875,414.9,97.5)" gradientUnits="userSpaceOnUse" xlink:href="#9"/><clipPath id="clipPath12"><rect id="rect14" width="22" height="22" x="417" y="101" fill="url(#1)" color="#bebebe" rx="5"/></clipPath><linearGradient id="2" x2="0" y1="124" y2="28" gradientUnits="userSpaceOnUse" xlink:href="#9"/><clipPath id="clipPath17"><rect id="rect19" width="88" height="88" x="292" y="32" fill="url(#2)" color="#bebebe" rx="18"/></clipPath><linearGradient id="3" x2="0" y1="204" y2="140" gradientUnits="userSpaceOnUse" xlink:href="#9"/><clipPath id="clipPath22"><rect id="rect24" width="60" height="60" x="290" y="142" fill="url(#3)" color="#bebebe" rx="12.5"/></clipPath><linearGradient id="4" x2="0" y1="280" y2="40" gradientTransform="translate(0,-4)" gradientUnits="userSpaceOnUse" xlink:href="#9"/><clipPath id="clipPath27"><rect id="rect29" width="220" height="220" x="34" y="46" fill="url(#4)" color="#bebebe" rx="50"/></clipPath><linearGradient id="5" x2="0" y1="280" y2="40" gradientTransform="matrix(0.06666667,0,0,0.06666667,302.4,209.33333)" gradientUnits="userSpaceOnUse" xlink:href="#9"/><clipPath id="clipPath32"><rect id="rect34" width="16" height="16" x="304" y="212" fill="url(#5)" color="#bebebe" rx="3" transform="matrix(0,1,-1,0,0,0)"/></clipPath><linearGradient id="6" x2="0" y1="291.43" y2="40" gradientTransform="matrix(0.11931818,0,0,0.11931818,430.13636,32.227267)" gradientUnits="userSpaceOnUse" xlink:href="#9"/><clipPath id="clipPath37"><rect id="rect39" width="30" height="30" x="433" y="37" fill="url(#6)" color="#bebebe" rx="6"/></clipPath><linearGradient id="7" x2="0" y1="291.43" y2="40" gradientTransform="matrix(0.0875,0,0,0.0875,430.9,81.499996)" gradientUnits="userSpaceOnUse" xlink:href="#9"/><clipPath id="clipPath42"><rect id="rect44" width="22" height="22" x="433" y="85" fill="url(#7)" color="#bebebe" rx="4"/></clipPath><linearGradient id="8" x2="0" y1="280" y2="40" gradientTransform="matrix(0.175,0,0,0.175,302.79999,215.99997)" gradientUnits="userSpaceOnUse" xlink:href="#9"/><clipPath id="clipPath47"><rect id="rect49" width="42" height="42" x="307" y="223" fill="url(#8)" color="#bebebe" rx="9" transform="matrix(0,1,-1,0,0,0)"/></clipPath><linearGradient id="9"><stop id="stop52" stop-color="#d8e0d5"/><stop id="stop54" offset="1" stop-color="#f0f0ef"/></linearGradient><linearGradient id="linearGradient56" x2="0" y1="-5.461" y2="6" gradientUnits="userSpaceOnUse" xlink:href="#C"/><clipPath id="clipPath58"><path id="path60" d="m 3.8758226,6.3345562 -7.1333931,0.065234 -3.623191,-6.14508252 3.5102021,-6.21031668 7.133393,-0.065234 3.623191,6.14508246 z"/></clipPath><linearGradient id="A" x2="0" y1="-5.461" y2="6" gradientTransform="matrix(0.70097004,0,0,0.70096815,636.13043,-23.73692)" gradientUnits="userSpaceOnUse" xlink:href="#C"/><use id="B" fill="url(#A)" fill-rule="evenodd" color="#000" xlink:href="#F"/><clipPath id="clipPath64"><use id="use66" xlink:href="#B"/></clipPath><clipPath id="clipPath68"><path id="path70" d="M 218.5,123.875 97.34375,156.34375 64.875,277.5 153.5625,366.21875 121.09375,487.40625 209.8125,576.125 331,543.625 363.46875,422.46875 484.625,390 517.125,268.8125 428.40625,180.09375 307.21875,212.5625 218.5,123.875 z"/></clipPath><radialGradient id="radialGradient72" cx="184" cy="216.08" r="94.33" gradientTransform="matrix(0.09796856,0,0,0.09824444,627.34902,-188.70207)" gradientUnits="userSpaceOnUse" xlink:href="#D"/><clipPath id="clipPath74"><path id="path76" d="m 649.50522,-174.1143 -9.29477,2.4584 -2.45533,9.29476 6.78432,6.78126 9.23966,-2.51044 2.4584,-9.29477 -6.73228,-6.72921 z"/></clipPath><linearGradient id="linearGradient78" x2="0" y1="-5.486" y2="5.976" gradientUnits="userSpaceOnUse" xlink:href="#C"/><clipPath id="clipPath80"><use id="use82" transform="matrix(17.447951,0,0,17.447951,196.17431,-100.72372)" xlink:href="#B"/></clipPath><clipPath id="clipPath84"><path id="path86" d="M 4.6323888,4.5692309 -1.3504708,6.1723333 -5.730228,1.7925761 -4.1271256,-4.1902835 1.855734,-5.7933859 6.2354912,-1.4136287 z"/></clipPath><linearGradient id="C"><stop id="stop89" stop-color="#90f130"/><stop id="stop91" offset="1" stop-color="#7bcc2b"/></linearGradient><linearGradient id="D"><stop id="stop94"/><stop id="stop96" offset="1" stop-color="#fff"/></linearGradient><linearGradient id="E" x2="0" y1="1050.36" y2="1006.36" gradientTransform="translate(-61.67356,-917.18957)" gradientUnits="userSpaceOnUse" xlink:href="#9"/><path id="F" d="M 4.6323888,4.5692309 -1.3504708,6.1723333 -5.730228,1.7925761 -4.1271256,-4.1902835 1.855734,-5.7933859 6.2354912,-1.4136287 z"/><radialGradient id="radialGradient3018" cx="148.004" cy="160" r="128" gradientTransform="matrix(0.05167489,0,0,0.05167489,-0.87511191,-1.4947611)" gradientUnits="userSpaceOnUse" xlink:href="#radial0"/><radialGradient id="radial0" cx="148.004" cy="160" r="128" gradientTransform="matrix(0.1831,0,0,0.1831,-3.10029,-5.29688)" gradientUnits="userSpaceOnUse"><stop id="stop7-8" offset="0" stop-color="#b3ea69"/><stop id="stop9-0" offset="1" stop-color="#4f8505"/></radialGradient><radialGradient id="radialGradient3009" cx="148.004" cy="160" r="128" gradientTransform="matrix(0.05167489,0,0,0.05167489,-0.87511191,-1.4947612)" gradientUnits="userSpaceOnUse" xlink:href="#radial0"/><linearGradient id="linearGradient3138" x2="0" y1="1050.36" y2="1006.36" gradientTransform="translate(-61.67356,-917.18957)" gradientUnits="userSpaceOnUse" xlink:href="#9"/><linearGradient id="linearGradient3144" x2="0" y1="1050.36" y2="1006.36" gradientTransform="matrix(0.28222223,0,0,0.28222223,3.647612e-7,-283.45334)" gradientUnits="userSpaceOnUse" xlink:href="#9"/></defs><path id="path11" fill="url(#radialGradient3009)" d="m 13.387776,3.2589208 0,7.0290972 c 0,2.892778 0,3.100035 -3.100035,3.100035 l -7.027995,0 c -3.10113711,0 -3.10113711,-0.207257 -3.10113711,-3.100035 l 0,-7.0290972 c 0,-2.89277779 0,-3.10003479 3.10113711,-3.10003479 l 7.027995,0 c 3.100035,0 3.100035,0.207257 3.100035,3.10003479 z"/><path id="path15" fill="#fff" fill-opacity=".051" d="m 10.799269,13.388053 c 0.717682,-0.0033 1.235825,-0.02315 1.611753,-0.124575 l -1.193932,-2.046111 -1.26559,2.170686 0.336241,0 c 0.180799,0 0.350573,0 0.511528,0 z M 11.21709,11.217367 9.770701,8.7368983 8.32321,11.217367 z m 0,0 2.159662,0 c 0.0088,-0.274505 0.01102,-0.582083 0.01102,-0.930451 l 0,-0.3097834 -0.723193,-1.2402343 z M 12.664582,8.7368983 11.21709,6.2564296 9.770701,8.7368983 z m 0,0 0.723194,0 0,-1.2402343 z m -2.893881,0 L 8.32321,6.2564296 6.876821,8.7368983 z m -2.89388,0 -1.447491,2.4804687 2.89388,0 z m 0,0 L 5.42933,6.2564296 3.98294,8.7368983 z m -2.893881,0 -1.447491,2.4804687 2.893881,0 z m 0,0 L 2.535449,6.2564296 1.08906,8.7368983 z m -2.89388,0 -0.93045111,1.5941147 c 0,0.329627 0.00331,0.623976 0.011024,0.886354 l 2.36581611,0 z m 0,0 -0.93045111,-1.5941145 0,1.5941145 z m 1.446389,2.4804687 -1.217083,2.086901 c 0.450894,0.08268 1.07487,0.08379 1.940277,0.08379 l 0.543499,0 z m 0,-4.9609374 -1.446389,-2.4804689 -0.93045111,1.5941147 0,0.8863542 z m 0,0 2.893881,0 L 3.98294,3.7759607 z M 3.98294,3.7759607 2.535449,1.295492 1.08906,3.7759607 z m 0,0 2.893881,0 L 5.42933,1.295492 z M 5.42933,1.295492 4.765666,0.15888601 l -1.507023,0 c -0.02095,0 -0.03858,0 -0.05953,0 L 2.53545,1.295492 z m 0,0 2.89388,0 -0.663663,-1.13660599 -1.566554,0 z m 2.89388,0 2.89388,0 -0.663663,-1.13660599 c -0.0882,0 -0.171979,0 -0.266788,0 l -1.299766,0 z m 0,0 -1.446389,2.4804687 2.89388,0 z m 1.447491,2.4804687 2.893881,0 L 11.21709,1.295492 z m 0,0 -1.447491,2.4804689 2.89388,0 z m 1.446389,2.4804689 2.170686,0 0,-1.2402343 -0.723194,-1.2402346 z m 1.447492,-2.4804689 0.723194,0 0,-0.5170399 c 0,-0.2579689 -0.0022,-0.4938889 -0.0066,-0.71217 z M 8.32321,6.2564296 6.876821,3.7759607 5.42933,6.2564296 z m 2.89388,-4.9609376 2.062648,0 C 13.123193,0.51717591 12.747264,0.27133411 11.859807,0.19416381 z m -8.681641,0 L 1.885015,0.17983231 C 0.85203769,0.23826131 0.43421639,0.46095181 0.26664699,1.295492 z M 1.08906,3.7759607 0.17514539,2.2083045 c -0.012127,0.3031685 -0.016536,0.6515363 -0.016536,1.0506163 l 0,0.5170399 z m 4.34027,7.4414063 -1.265591,2.170686 2.532283,0 z m 2.89388,0 -1.265591,2.170686 2.532284,0 z m -7.59133721,1.86862 -0.4519964,-0.775009 c 0.082682,0.371519 0.2215885,0.615157 0.4519964,0.775009 z"/><use id="use122" width="13.547" height="13.547" x="0" y="0" fill="#f9f9f9" fill-opacity="1" fill-rule="evenodd" color="#000" transform="matrix(0.30335147,0,0,0.30335147,8.2684555,5.986403)" xlink:href="#F"/><use id="use124" width="13.547" height="13.547" x="0" y="0" fill="#f9f9f9" fill-opacity="1" fill-rule="evenodd" color="#000" transform="matrix(0.30335147,0,0,0.30335147,5.9672409,8.2876149)" xlink:href="#F"/><use id="use126" width="13.547" height="13.547" x="0" y="0" fill="#f9f9f9" fill-opacity="1" fill-rule="evenodd" color="#000" transform="matrix(0.30335147,0,0,0.30335147,5.1249402,5.1440995)" xlink:href="#F"/></svg>