<svg xmlns="http://www.w3.org/2000/svg" xmlns:svg="http://www.w3.org/2000/svg" xmlns:xlink="http://www.w3.org/1999/xlink" id="svg2" width="48" height="48" version="1.1" viewBox="0 0 13.547 13.547"><metadata id="metadata32"/><defs id="defs4"><linearGradient id="0"><stop id="stop7" stop-color="#c5c5c5"/><stop id="stop9" offset="1" stop-color="#537381"/></linearGradient><linearGradient id="1" x2="0" y1="1050.36" y2="1006.36" gradientTransform="matrix(0.28222223,0,0,0.28222223,-28.413559,-297.34441)" gradientUnits="userSpaceOnUse" xlink:href="#0"/><radialGradient id="radial0" cx="148.004" cy="160" r="128" gradientTransform="matrix(0.1831,0,0,0.1831,-3.10029,-5.29688)" gradientUnits="userSpaceOnUse"><stop id="stop7-1" offset="0" stop-color="#bfd4da" stop-opacity="1"/><stop id="stop9-1" offset="1" stop-color="#30607a" stop-opacity="1"/></radialGradient><radialGradient id="radialGradient3035" cx="148.004" cy="160" r="128" gradientTransform="matrix(0.05167489,0,0,0.05167489,-0.87511191,-1.4947613)" gradientUnits="userSpaceOnUse" xlink:href="#radial0"/></defs><path id="path11" fill="url(#radialGradient3035)" d="m 13.387776,3.2589208 0,7.0290972 c 0,2.892778 0,3.100035 -3.100035,3.100035 l -7.027995,0 c -3.10113711,0 -3.10113711,-0.207257 -3.10113711,-3.100035 l 0,-7.0290972 c 0,-2.89277779 0,-3.10003479 3.10113711,-3.10003479 l 7.027995,0 c 3.100035,0 3.100035,0.207257 3.100035,3.10003479 z"/><path id="path15" fill="#fff" fill-opacity=".051" d="m 10.799269,13.388053 c 0.717682,-0.0033 1.235825,-0.02315 1.611753,-0.124575 l -1.193932,-2.046111 -1.26559,2.170686 0.336241,0 c 0.180799,0 0.350573,0 0.511528,0 z M 11.21709,11.217367 9.770701,8.7368981 8.32321,11.217367 z m 0,0 2.159662,0 c 0.0088,-0.274505 0.01102,-0.582083 0.01102,-0.930451 l 0,-0.3097829 -0.723194,-1.240235 z M 12.664582,8.7368981 11.21709,6.2564296 9.770701,8.7368981 z m 0,0 0.723194,0 0,-1.2402341 z m -2.893881,0 L 8.32321,6.2564296 6.876821,8.7368981 z m -2.89388,0 -1.447492,2.4804689 2.893881,0 z m 0,0 L 5.429329,6.2564296 3.98294,8.7368981 z m -2.893881,0 -1.4474908,2.4804689 2.8938798,0 z m 0,0 L 2.5354492,6.2564296 1.0890603,8.7368981 z m -2.8938797,0 -0.93045141,1.5941149 c 0,0.329627 0.00331,0.623976 0.011024,0.886354 l 2.36581611,0 z m 0,0 -0.93045141,-1.5941143 0,1.5941143 z m 1.4463889,2.4804689 -1.2170833,2.086901 c 0.450894,0.08268 1.0748699,0.08379 1.9413801,0.08379 l 0.542396,0 z m 0,-4.9609374 -1.4463889,-2.4804689 -0.93045141,1.5941147 0,0.8863542 z m 0,0 2.8938798,0 L 3.98294,3.7759607 z M 3.98294,3.7759607 2.5354492,1.295492 1.0890603,3.7759607 z m 0,0 2.893881,0 L 5.429329,1.295492 z M 5.429329,1.295492 4.765666,0.15888601 l -1.50592,0 c -0.02205,0 -0.03969,0 -0.06063,0 L 2.5354532,1.295492 z m 0,0 2.893881,0 -0.663663,-1.13660599 -1.566554,0 z m 2.893881,0 2.89388,0 -0.663663,-1.13660599 c -0.0882,0 -0.171979,0 -0.265686,0 l -1.300868,0 z m 0,0 -1.446389,2.4804687 2.89388,0 z m 1.447491,2.4804687 2.893881,0 L 11.21709,1.295492 z m 0,0 -1.447491,2.4804689 2.89388,0 z m 1.446389,2.4804689 2.170686,0 0,-1.2402343 -0.723194,-1.2402346 z m 1.447492,-2.4804689 0.723194,0 0,-0.5170399 c 0,-0.2579689 -0.0022,-0.4938889 -0.0066,-0.71217 z M 8.32321,6.2564296 6.876821,3.7759607 5.429329,6.2564296 z m 2.89388,-4.9609376 2.062648,0 C 13.123193,0.51717591 12.747264,0.27133411 11.859807,0.19416381 z m -8.6816408,0 L 1.8850153,0.17983231 C 0.85203769,0.23826101 0.43421639,0.46095191 0.26664699,1.295492 z M 1.0890603,3.7759607 0.17514539,2.2083045 c -0.012127,0.3031685 -0.016536,0.6515363 -0.016536,1.0506163 l 0,0.5170399 z m 4.3402687,7.4414063 -1.26559,2.170686 2.532283,0 z m 2.893881,0 -1.265591,2.170686 2.532284,0 z m -7.59133721,1.86862 -0.4519964,-0.775009 c 0.082682,0.371519 0.2215885,0.615157 0.4519964,0.775009 z"/><path id="path28" fill="#fff" fill-rule="evenodd" d="m 6.8635276,6.9553764 c -0.05113,-0.2230381 0.216822,-0.3522484 0.399269,-0.3284077 0.356614,0.046691 0.52572,0.4465429 0.443632,0.7670425 -0.124874,0.4872488 -0.678132,0.706537 -1.131754,0.5605975 -0.616286,-0.1983425 -0.886474,-0.9134872 -0.675372,-1.5008982 0.269005,-0.7481953 1.145754,-1.0708711 1.864174,-0.7927874 0.877405,0.3396578 1.251633,1.3827633 0.907112,2.2347541 -0.40847,1.0102294 -1.614492,1.4375364 -2.596593,1.0249774 -1.139181,-0.4785444 -1.61804,-1.8527389 -1.138853,-2.9686684 0.546556,-1.2726528 2.083755,-1.8050572 3.329079,-1.2571087 1.401219,0.6164979 1.9848404,2.3229279 1.370328,3.702524 -0.683718,1.5356011 -2.552886,2.1730445 -4.061299,1.4895121 -1.663455,-0.754219 -2.352497,-2.7935056 -1.602267,-4.436574 0.588223,-1.2883328 1.933052,-2.0990347 3.340382,-2.0624867"/></svg>