<svg xmlns="http://www.w3.org/2000/svg" xmlns:svg="http://www.w3.org/2000/svg" xmlns:xlink="http://www.w3.org/1999/xlink" id="svg2" width="48" height="48" version="1.1" viewBox="0 0 13.547 13.547"><metadata id="metadata38"/><defs id="defs4"><linearGradient id="0" x2="0" y1="279.1" y2="268.33" gradientTransform="matrix(1.10525,0,0,1.10525,-134.27874,-295.76183)" gradientUnits="userSpaceOnUse"><stop id="stop7" stop-color="#305688"/><stop id="stop9" offset="1" stop-color="#5fadde"/></linearGradient><linearGradient id="1" x2="0" y1="1050.36" y2="1006.36" gradientTransform="matrix(0.28222223,0,0,0.28222223,0,-283.45334)" gradientUnits="userSpaceOnUse" xlink:href="#0"/><radialGradient id="radialGradient3012" cx="148.004" cy="160" r="128" gradientTransform="matrix(0.05167489,0,0,0.05167489,-0.87510711,-1.4947564)" gradientUnits="userSpaceOnUse" xlink:href="#radial0"/><radialGradient id="radial0" cx="148.004" cy="160" r="128" gradientTransform="matrix(0.1831,0,0,0.1831,-3.10029,-5.29688)" gradientUnits="userSpaceOnUse"><stop id="stop7-9" offset="0" stop-color="#cce2ff"/><stop id="stop9-9" offset="1" stop-color="#6693ce" stop-opacity="1"/></radialGradient><radialGradient id="radialGradient3015" cx="148.004" cy="160" r="128" gradientTransform="matrix(0.05167489,0,0,0.05167489,-0.87510711,-1.4947561)" gradientUnits="userSpaceOnUse" xlink:href="#radial0"/></defs><path id="path11" fill="url(#radialGradient3015)" d="m 13.387779,3.2589263 0,7.0290967 c 0,2.892778 0,3.100035 -3.100035,3.100035 l -7.0279931,0 c -3.10113811,0 -3.10113811,-0.207257 -3.10113811,-3.100035 l 0,-7.0290967 c 0,-2.89277799 0,-3.10003539 3.10113811,-3.10003539 l 7.0279931,0 c 3.100035,0 3.100035,0.2072574 3.100035,3.10003539 z"/><path id="path15" fill="#fff" fill-opacity=".051" d="m 10.799272,13.388058 c 0.717682,-0.0033 1.235825,-0.02315 1.611753,-0.124574 l -1.193932,-2.046111 -1.2655886,2.170685 0.3362396,0 c 0.180799,0 0.350573,0 0.511528,0 z M 11.217093,11.217373 9.7707054,8.7369038 8.3232144,11.217373 z m 0,0 2.159662,0 c 0.0088,-0.274506 0.01102,-0.582084 0.01102,-0.930452 l 0,-0.3097829 -0.723193,-1.2402343 z M 12.664584,8.7369038 11.217093,6.2564351 9.7707054,8.7369038 z m 0,0 0.723195,0 0,-1.2402344 z m -2.8938786,0 -1.447491,-2.4804687 -1.446389,2.4804687 z m -2.89388,0 -1.447491,2.4804692 2.89388,0 z m 0,0 L 5.4293344,6.2564351 3.982945,8.7369038 z m -2.8938804,0 -1.4474912,2.4804692 2.8938806,0 z m 0,0 -1.4474912,-2.4804687 -1.446389,2.4804687 z m -2.8938802,0 -0.93045201,1.5941142 c 0,0.329627 0.0033,0.623976 0.011029,0.886355 l 2.36581591,0 z m 0,0 -0.93045201,-1.5941145 0,1.5941145 z m 1.446389,2.4804692 -1.217084,2.0869 c 0.4508941,0.08268 1.0748702,0.08378 1.9413811,0.08378 l 0.5423955,0 z m 0,-4.9609379 -1.446389,-2.480469 -0.93045201,1.5941148 0,0.8863542 z m 0,0 2.8938806,0 L 3.982945,3.7759661 z M 3.982945,3.7759661 2.5354538,1.2954973 1.0890648,3.7759661 z m 0,0 2.8938804,0 -1.447491,-2.4804688 z M 5.4293344,1.2954973 4.7656712,0.15889091 l -1.507023,0 c -0.020947,0 -0.038585,0 -0.059531,0 L 2.5354537,1.2954973 z m 0,0 2.89388,0 -0.663663,-1.13660639 -1.566554,0 z m 2.89388,0 2.8938786,0 -0.663663,-1.13660639 c -0.08819,0 -0.171979,0 -0.266788,0 l -1.2997646,0 z m 0,0 -1.446389,2.4804688 2.89388,0 z m 1.447491,2.4804688 2.8938786,0 -1.447491,-2.4804688 z m 0,0 -1.447491,2.480469 2.8938786,0 z m 1.4463876,2.480469 2.170686,0 0,-1.2402343 -0.723195,-1.2402347 z m 1.447491,-2.480469 0.723195,0 0,-0.5170398 c 0,-0.2579689 -0.0022,-0.4938891 -0.0066,-0.7121702 z m -4.3413696,2.480469 -1.446389,-2.480469 -1.447491,2.480469 z m 2.8938786,-4.9609378 2.062648,0 C 13.123196,0.51718111 12.747267,0.27133891 11.85981,0.19416891 z m -8.6816392,0 -0.650434,-1.11566039 C 0.85204189,0.23826691 0.43422089,0.46095711 0.26665199,1.2954973 z M 1.0890648,3.7759661 0.17514989,2.2083098 c -0.01213,0.3031685 -0.016541,0.6515364 -0.016541,1.0506165 l 0,0.5170398 z m 4.3402696,7.4414069 -1.2655907,2.170685 2.5322827,0 z m 2.89388,0 -1.26559,2.170685 2.532283,0 z m -7.59133741,1.868619 -0.4519961,-0.775009 c 0.08268,0.37152 0.2215879,0.615157 0.4519961,0.775009 z"/><path id="path30" fill="#ecf0f1" d="M 12.8125 13.9375 C 12.371004 13.986319 11.997874 14.435382 12 14.90625 L 12 33 C 12.000048 33.500396 12.435026 33.937461 12.90625 33.9375 L 35.09375 33.9375 C 35.565081 33.9375 36 33.500002 36 33 L 36 17.15625 C 36 16.655854 35.56501 16.1875 35.09375 16.1875 L 25.96875 16.1875 L 25.96875 14.90625 C 25.96875 14.405855 25.533406 13.9375 25.0625 13.9375 L 12.90625 13.9375 C 12.877018 13.936022 12.841626 13.936022 12.8125 13.9375 z M 18 19.96875 L 30 19.96875 L 30 31.96875 L 19.5 32 L 18 30.5625 L 18 19.96875 z M 19 21 L 19 30 L 20 31 L 21 31 L 21 29 L 27 29 L 27 31 L 29 31 L 29 21 L 28 21 L 28 28 L 20 28 L 20 21 L 19 21 z M 21 22 L 21 23 L 27 23 L 27 22 L 21 22 z M 21 25 L 21 26 L 27 26 L 27 25 L 21 25 z M 22 30 L 22 31 L 24 31 L 24 30 L 22 30 z" color="#000" transform="scale(0.28222223,0.28222223)"/></svg>