<svg xmlns="http://www.w3.org/2000/svg" xmlns:svg="http://www.w3.org/2000/svg" xmlns:xlink="http://www.w3.org/1999/xlink" id="svg2" width="48" height="48" version="1.1"><metadata id="metadata32"/><defs id="defs30"><radialGradient id="radialGradient3035" cx="148.004" cy="160" r="128" gradientTransform="matrix(0.1831,0,0,0.1831,-3.10079,-5.2963803)" gradientUnits="userSpaceOnUse" xlink:href="#radial0"/><radialGradient id="radial0" cx="148.004" cy="160" r="128" gradientTransform="matrix(0.1831,0,0,0.1831,-3.10029,-5.29688)" gradientUnits="userSpaceOnUse"><stop id="stop7" offset="0" stop-color="#b7e4dd" stop-opacity="1"/><stop id="stop9" offset="1" stop-color="#46baa7" stop-opacity="1"/></radialGradient><radialGradient id="radialGradient3009" cx="148.004" cy="160" r="128" gradientTransform="matrix(0.1831,0,0,0.1831,-3.10029,-5.29688)" gradientUnits="userSpaceOnUse" xlink:href="#radial0"/></defs><path id="path11" fill="url(#radialGradient3009)" d="m 47.4375,11.546875 0,24.90625 c 0,10.25 0,10.984375 -10.984375,10.984375 l -24.902344,0 C 0.5625,47.4375 0.5625,46.703125 0.5625,36.453125 l 0,-24.90625 c 0,-10.2499997 0,-10.984375 10.988281,-10.984375 l 24.902344,0 C 47.4375,0.5625 47.4375,1.2968753 47.4375,11.546875 z"/><path id="path15" fill="#fff" fill-opacity=".051" d="m 38.265625,47.4375 c 2.542969,-0.01172 4.378906,-0.08203 5.710937,-0.441406 l -4.230468,-7.25 -4.484375,7.691406 1.191406,0 c 0.640625,0 1.242187,0 1.8125,0 z m 1.480469,-7.691406 -5.125,-8.789063 -5.128906,8.789063 z m 0,0 7.652344,0 c 0.03125,-0.972656 0.03906,-2.0625 0.03906,-3.296875 l 0,-1.097657 -2.5625,-4.394531 z m 5.128906,-8.789063 -5.128906,-8.789062 -5.125,8.789062 z m 0,0 2.5625,0 0,-4.394531 z m -10.253906,0 -5.128906,-8.789062 -5.125,8.789062 z m -10.253906,0 -5.128907,8.789063 10.253907,0 z m 0,0 -5.128907,-8.789062 -5.125,8.789062 z m -10.253907,0 -5.128906,8.789063 10.253906,0 z m 0,0 -5.128906,-8.789062 -5.125,8.789062 z m -10.253906,0 -3.296875,5.648438 c 0,1.167969 0.01172,2.210937 0.03906,3.140625 l 8.382813,0 z m 0,0 -3.296875,-5.648437 0,5.648437 z m 5.125,8.789063 -4.3125,7.394531 c 1.597656,0.292969 3.808594,0.296875 6.878906,0.296875 l 1.921875,0 z m 0,-17.578125 -5.125,-8.789063 -3.296875,5.648438 0,3.140625 z m 0,0 10.253906,0 -5.125,-8.789063 z m 5.128906,-8.789063 -5.128906,-8.7890617 -5.125,8.7890617 z m 0,0 10.253907,0 -5.128907,-8.7890617 z m 5.125,-8.7890617 -2.351562,-4.0273443 -5.335938,0 c -0.07813,0 -0.140625,0 -0.214843,0 L 8.984375,4.5898443 z m 0,0 10.253907,0 -2.351563,-4.0273443 -5.550781,0 z m 10.253907,0 10.253906,0 L 37.394531,0.5625 c -0.3125,0 -0.609375,0 -0.941406,0 l -4.609375,0 z m 0,0 -5.125,8.7890617 10.253906,0 z m 5.128906,8.7890617 10.253906,0 -5.128906,-8.7890617 z m 0,0 -5.128906,8.789063 10.253906,0 z m 5.125,8.789063 7.691406,0 0,-4.394531 -2.5625,-4.394532 z m 5.128906,-8.789063 2.5625,0 0,-1.832031 c 0,-0.914063 -0.0078,-1.7499997 -0.02344,-2.5234367 z m -15.382812,8.789063 -5.125,-8.789063 -5.128907,8.789063 z m 10.253906,-17.5781247 7.308594,0 C 46.5,1.8320313 45.167969,0.960938 42.023438,0.6875 z m -30.761719,0 L 6.679688,0.636719 C 3.019531,0.84375 1.539062,1.6328123 0.945312,4.5898443 z m -5.125,8.7890617 -3.238281,-5.5546867 c -0.04297,1.074219 -0.05859,2.3085927 -0.05859,3.7226557 l 0,1.832031 z m 15.378906,26.367188 -4.484375,7.691406 8.972656,0 z m 10.253907,0 -4.484376,7.691406 8.972657,0 z M 2.59375,46.367188 0.992188,43.621094 c 0.292968,1.316406 0.785156,2.179687 1.601562,2.746094 z"/><rect id="rect22" width="18" height="28" x="15.001" y="10.997" fill="none" stroke="#f9f9f9" stroke-width="2" rx="1.8" ry="1.883"/><rect id="rect24" width="10" height="3.711" x="19" y="6.997" fill="#f9f9f9" rx="1"/><path id="path26" fill="#e3e3d6" d="m 17.000501,36.9995 14,0 0,-17 -14,10 z"/></svg>