<svg xmlns="http://www.w3.org/2000/svg" xmlns:svg="http://www.w3.org/2000/svg" xmlns:xlink="http://www.w3.org/1999/xlink" id="svg2" width="48" height="48" version="1.1"><metadata id="metadata151"/><defs id="defs4"><linearGradient id="0" x2="0" y1="1050.36" y2="1006.36" gradientUnits="userSpaceOnUse" xlink:href="#1"/><linearGradient id="1"><stop id="stop8" stop-color="#222"/><stop id="stop10" offset="1" stop-color="#4e4e4e"/></linearGradient><radialGradient id="radialGradient3013" cx="148.004" cy="160" r="128" gradientTransform="matrix(0.1831,0,0,0.1831,-3.10079,-5.296398)" gradientUnits="userSpaceOnUse" spreadMethod="pad" xlink:href="#linearGradient4460"/><linearGradient id="linearGradient4460"><stop id="stop8-6" offset="0" stop-color="#747474" stop-opacity="1"/><stop id="stop10-2" offset="1" stop-color="#2d2d2d" stop-opacity="1"/></linearGradient><radialGradient id="radialGradient3014" cx="148.004" cy="160" r="128" gradientTransform="matrix(0.1831,0,0,0.1831,-3.10079,-5.2963973)" gradientUnits="userSpaceOnUse" spreadMethod="pad" xlink:href="#linearGradient4460"/><linearGradient id="linearGradient3210" x2="0" y1="1050.36" y2="1006.36" gradientTransform="translate(0,-1004.3622)" gradientUnits="userSpaceOnUse" xlink:href="#1"/></defs><path id="path11" fill="url(#radialGradient3014)" fill-opacity="1" d="m 47.437,11.547357 0,24.906249 c 0,10.250001 0,10.984376 -10.984375,10.984376 l -24.902344,0 C 0.562,47.437982 0.562,46.703607 0.562,36.453606 l 0,-24.906249 c 0,-10.2499995 0,-10.9843745 10.988281,-10.9843745 l 24.902344,0 C 47.437,0.5629825 47.437,1.2973575 47.437,11.547357 z"/><path id="path15" fill="#fff" fill-opacity=".051" d="m 38.265125,47.437982 c 2.542968,-0.01169 4.378908,-0.08203 5.710936,-0.441407 l -4.230467,-7.25 -4.484375,7.691407 1.191406,0 c 0.640626,0 1.242187,0 1.8125,0 z m 1.480469,-7.691407 -5.125,-8.789062 -5.128906,8.789062 z m 0,0 7.652345,0 c 0.03118,-0.972655 0.03905,-2.062498 0.03905,-3.296873 l 0,-1.097658 -2.562498,-4.394531 z m 5.128908,-8.789062 -5.128908,-8.789062 -5.125,8.789062 z m 0,0 2.562498,0 0,-4.394531 z m -10.253908,0 -5.128906,-8.789062 -5.125,8.789062 z m -10.253906,0 -5.128907,8.789062 10.253907,0 z m 0,0 -5.128907,-8.789062 -5.125,8.789062 z m -10.253907,0 -5.128906,8.789062 10.253906,0 z m 0,0 -5.128906,-8.789062 -5.125,8.789062 z m -10.253906,0 L 0.562,36.605951 c 0,1.16797 0.01173,2.210938 0.03906,3.140624 l 8.382813,0 z m 0,0 -3.296875,-5.648437 0,5.648437 z m 5.125,8.789062 -4.3125,7.394531 C 6.269031,47.434067 8.479969,47.438 11.550281,47.438 l 1.921875,0 z m 0,-17.578124 -5.125,-8.789063 -3.296875,5.648438 0,3.140625 z m 0,0 10.253906,0 -5.125,-8.789063 z m 5.128906,-8.789063 -5.128906,-8.7890614 -5.125,8.7890614 z m 0,0 10.253907,0 -5.128907,-8.7890614 z m 5.125,-8.7890614 -2.351562,-4.0273441 -5.335938,0 c -0.07813,0 -0.140627,0 -0.214845,0 L 8.983875,4.5903266 z m 0,0 10.253907,0 -2.351563,-4.0273441 -5.550781,0 z m 10.253907,0 10.253906,0 -2.351562,-4.0273441 c -0.31252,0 -0.609375,0 -0.941407,0 l -4.609375,0 z m 0,0 -5.125,8.7890614 10.253906,0 z m 5.128906,8.7890614 10.253908,0 -5.128908,-8.7890614 z m 0,0 -5.128906,8.789063 10.253906,0 z m 5.125,8.789063 7.691406,0 0,-4.394531 -2.562498,-4.394532 z m 5.128908,-8.789063 2.562498,0 0,-1.832031 c 0,-0.914063 -0.0078,-1.749999 -0.02338,-2.523436 z m -15.382814,8.789063 -5.125,-8.789063 -5.128907,8.789063 z m 10.253906,-17.5781244 7.308595,0 C 46.499502,1.8325135 45.16747,0.9614205 42.022937,0.6879825 z m -30.761719,0 L 6.679188,0.6372015 C 3.019031,0.8442325 1.538562,1.6332945 0.944812,4.5903266 z M 3.858875,13.379388 0.620594,7.8247016 C 0.577624,8.898921 0.562004,10.133295 0.562004,11.547357 l 0,1.832031 z m 15.378906,26.367187 -4.484375,7.691407 8.972656,0 z m 10.253907,0 -4.484376,7.691407 8.972657,0 z M 2.59325,46.36767 0.991688,43.621575 c 0.292968,1.316406 0.785156,2.17969 1.601562,2.746095 z"/><path id="path131" fill="#f9f9f9" d="m 12.718894,20 1.562212,0 C 14.676498,20 15,20.3501 15,20.7868 l 0,6.4264 C 15,27.6469 14.676497,28 14.281106,28 l -1.562212,0 C 12.320737,28 12,27.6469 12,27.2132 l 0,-6.4264 C 12,20.3501 12.320737,20 12.718894,20 z"/><g id="g133" fill="#f9f9f9" stroke="#f9f9f9" stroke-linejoin="round" transform="matrix(3.543307,0,0,3.543307,-0.56705696,-0.4221)"><path id="path135" stroke="none" d="m 4.0861218,5.9428721 2.2828033,-2.1548571 0,2.54 0.5644445,0.5644445 -0.5644445,0.5644445 0,2.54 -2.2918235,-2.0816398 z"/><g id="g137" fill-opacity="0" stroke-width=".589"><path id="path139" d="m 7.2897887,5.6232921 c 0.6674933,0.7009688 0.6674933,1.8372106 0,2.5381796"/><path id="path141" d="m 8.1715112,4.7371173 c 1.1335358,1.1901622 1.1335358,3.1203667 0,4.3105293"/><path id="path143" d="m 9.0878111,3.8001474 c 1.6266389,1.7074884 1.6266389,4.4769804 0,6.1844689"/></g></g></svg>