<svg xmlns="http://www.w3.org/2000/svg" xmlns:svg="http://www.w3.org/2000/svg" xmlns:xlink="http://www.w3.org/1999/xlink" id="svg2" width="48" height="48" version="1.1"><metadata id="metadata42"/><defs id="defs4"><linearGradient id="0" x2="0" y1="1050.36" y2="1006.36" gradientUnits="userSpaceOnUse" xlink:href="#1"/><linearGradient id="1"><stop id="stop8" stop-color="#323232"/><stop id="stop10" offset="1" stop-color="#505050"/></linearGradient><radialGradient id="radialGradient3051" cx="148.004" cy="160" r="128" gradientTransform="matrix(0.1831,0,0,0.1831,-3.10079,-5.296398)" gradientUnits="userSpaceOnUse" spreadMethod="pad" xlink:href="#linearGradient4460"/><linearGradient id="linearGradient4460"><stop id="stop8-6" offset="0" stop-color="#747474" stop-opacity="1"/><stop id="stop10-2" offset="1" stop-color="#2d2d2d" stop-opacity="1"/></linearGradient><radialGradient id="radialGradient3013" cx="148.004" cy="160" r="128" gradientTransform="matrix(0.1831,0,0,0.1831,-3.10079,-5.296398)" gradientUnits="userSpaceOnUse" spreadMethod="pad" xlink:href="#linearGradient4460"/><linearGradient id="linearGradient3044" x2="0" y1="1050.36" y2="1006.36" gradientTransform="translate(0,-1004.3622)" gradientUnits="userSpaceOnUse" xlink:href="#1"/></defs><path id="path11" fill="url(#radialGradient3013)" fill-opacity="1" d="m 47.437,11.547357 0,24.906249 c 0,10.250001 0,10.984376 -10.984375,10.984376 l -24.902344,0 C 0.562,47.437982 0.562,46.703607 0.562,36.453606 l 0,-24.906249 c 0,-10.2500002 0,-10.9843752 10.988281,-10.9843752 l 24.902344,0 C 47.437,0.5629818 47.437,1.2973568 47.437,11.547357 z"/><path id="path15" fill="#fff" fill-opacity=".051" d="m 38.265125,47.437982 c 2.542968,-0.01169 4.378908,-0.08203 5.710936,-0.441407 l -4.230467,-7.25 -4.484375,7.691407 1.191406,0 c 0.640626,0 1.242187,0 1.8125,0 z m 1.480469,-7.691407 -5.125,-8.789062 -5.128906,8.789062 z m 0,0 7.652345,0 c 0.03118,-0.972655 0.03905,-2.062498 0.03905,-3.296873 l 0,-1.097658 -2.562498,-4.394531 z m 5.128908,-8.789062 -5.128908,-8.789062 -5.125,8.789062 z m 0,0 2.562498,0 0,-4.394531 z m -10.253908,0 -5.128906,-8.789062 -5.125,8.789062 z m -10.253906,0 -5.128907,8.789062 10.253907,0 z m 0,0 -5.128907,-8.789062 -5.125,8.789062 z m -10.253907,0 -5.128906,8.789062 10.253906,0 z m 0,0 -5.128906,-8.789062 -5.125,8.789062 z m -10.253906,0 L 0.562,36.605951 c 0,1.16797 0.01173,2.210938 0.03906,3.140624 l 8.382813,0 z m 0,0 -3.296875,-5.648437 0,5.648437 z m 5.125,8.789062 -4.3125,7.394531 C 6.269031,47.434067 8.479969,47.438 11.550281,47.438 l 1.921875,0 z m 0,-17.578124 -5.125,-8.789063 -3.296875,5.648438 0,3.140625 z m 0,0 10.253906,0 -5.125,-8.789063 z m 5.128906,-8.789063 -5.128906,-8.7890621 -5.125,8.7890621 z m 0,0 10.253907,0 -5.128907,-8.7890621 z m 5.125,-8.7890621 -2.351562,-4.0273441 -5.335938,0 c -0.07813,0 -0.140627,0 -0.214845,0 L 8.983875,4.5903259 z m 0,0 10.253907,0 -2.351563,-4.0273441 -5.550781,0 z m 10.253907,0 10.253906,0 -2.351562,-4.0273441 c -0.31252,0 -0.609375,0 -0.941407,0 l -4.609375,0 z m 0,0 -5.125,8.7890621 10.253906,0 z m 5.128906,8.7890621 10.253908,0 -5.128908,-8.7890621 z m 0,0 -5.128906,8.789063 10.253906,0 z m 5.125,8.789063 7.691406,0 0,-4.394531 -2.562498,-4.394532 z m 5.128908,-8.789063 2.562498,0 0,-1.832031 c 0,-0.914063 -0.0078,-1.75 -0.02338,-2.523437 z m -15.382814,8.789063 -5.125,-8.789063 -5.128907,8.789063 z m 10.253906,-17.5781251 7.308595,0 C 46.499502,1.8325128 45.16747,0.9614198 42.022937,0.6879818 z m -30.761719,0 L 6.679188,0.6372008 C 3.019031,0.8442318 1.538562,1.6332938 0.944812,4.5903259 z m -5.125,8.7890621 -3.238281,-5.5546871 c -0.04297,1.074219 -0.05859,2.3085931 -0.05859,3.7226561 l 0,1.832031 z m 15.378906,26.367187 -4.484375,7.691407 8.972656,0 z m 10.253907,0 -4.484376,7.691407 8.972657,0 z M 2.59325,46.36767 0.991688,43.621575 c 0.292968,1.316406 0.785156,2.17969 1.601562,2.746095 z"/><rect id="rect32" width="9.142" height="1.828" x="-33.559" y="-.919" fill="#f9f9f9" fill-opacity="1" rx=".914" transform="matrix(-0.70710678,-0.70710678,0.70710678,-0.70710678,0,0)"/><rect id="rect34" width="14.999" height="1.998" x="23" y="22.998" fill="#f9f9f9" fill-opacity="1" rx=".935"/><rect id="rect36" width="15.778" height=".957" x="-22.755" y="31.901" fill="#f9f9f9" fill-opacity="1" rx=".493" ry=".478" transform="matrix(0.47720197,-0.87879365,0.85224045,0.52315028,0,0)"/><path id="path38" fill="#f9f9f9" fill-opacity="1" d="m 25.999986,24.0004 a 2,2 0 0 1 -4,0 2,2 0 1 1 4,0 z"/></svg>