<svg xmlns="http://www.w3.org/2000/svg" xmlns:svg="http://www.w3.org/2000/svg" xmlns:xlink="http://www.w3.org/1999/xlink" id="svg2" width="48" height="48" version="1.1" viewBox="0 0 13.547 13.547"><metadata id="metadata152"/><defs id="defs4"><clipPath id="clipPath6"><rect id="rect8" width="477.14" height="208.57" x="-830" y="1580.93" fill="#ff0"/></clipPath><clipPath id="clipPath10"><rect id="rect12" width="477.14" height="208.57" x="-830" y="1580.93" fill="#ff0"/></clipPath><clipPath id="clipPath14"><rect id="rect16" width="477.14" height="208.57" x="-830" y="1580.93" fill="#ff0"/></clipPath><clipPath id="clipPath18"><rect id="rect20" width="477.14" height="208.57" x="-830" y="1580.93" fill="#ff0"/></clipPath><clipPath id="clipPath22"><rect id="rect24" width="357.87" height="240.87" x="294.93" y="780.64" fill="red" transform="matrix(.99975 -.02255 .02255 .99975 0 0)"/></clipPath><clipPath id="clipPath26"><rect id="rect28" width="301.43" height="195" y="857.54" fill="#fff"/></clipPath><clipPath id="clipPath30"><rect id="rect32" width="477.14" height="208.57" x="-830" y="1580.93" fill="#ff0"/></clipPath><clipPath id="clipPath34"><rect id="rect36" width="79.48" height="30.01" x="276.37" y="977.09" fill="#e20a17"/></clipPath><clipPath id="clipPath38"><rect id="rect40" width="506.46" height="37.48" x="8.208" y=".064" fill="#162d50" transform="rotate(20.37582)"/></clipPath><clipPath id="clipPath42"><rect id="rect44" width="357.38" height="318.4" x="218.9" y="758.67" fill="#fff" transform="rotate(.22918)"/></clipPath><clipPath id="clipPath46"><rect id="rect48" width="357.38" height="318.4" x="218.9" y="758.67" fill="#fff" transform="rotate(.22918)"/></clipPath><clipPath id="clipPath50"><rect id="rect52" width="506.46" height="37.48" x="8.208" y=".064" fill="#162d50" transform="rotate(20.37582)"/></clipPath><clipPath id="clipPath54"><rect id="rect56" width="477.14" height="208.57" x="-830" y="1580.93" fill="#ff0"/></clipPath><clipPath id="clipPath58"><rect id="rect60" width="350.46" height="235.88" x="221.39" y="804.24" transform="rotate(.6171)"/></clipPath><clipPath id="clipPath62"><rect id="rect64" width="287.43" height="279.03" x="257.32" y="793.52" fill="#fff" transform="rotate(.16206)"/></clipPath><clipPath id="clipPath66"><rect id="rect68" width="301.43" height="195" y=".06" fill="#fff"/></clipPath><clipPath id="clipPath70"><rect id="rect72" width="301.43" height="195" y="857.54" fill="#fff"/></clipPath><path id="0" fill="#4a0" d="m 699.2857,672.93231 a 40.714287,40.714287 0 1 1 -81.42858,0 40.714287,40.714287 0 1 1 81.42858,0 z" clip-path="url(#2)"/><clipPath id="clipPath75"><use id="use77" transform="matrix(4.3233 0 0 4.3233 -2450.68 -2667.55)" xlink:href="#0"/></clipPath><clipPath id="clipPath79"><rect id="rect81" width="63.987" height="41.39" x="448.12" y="815.74" fill="#fff" transform="rotate(27.44968)"/></clipPath><clipPath id="clipPath83"><rect id="rect85" width="301.43" height="195" y="857.54" fill="#fff"/></clipPath><clipPath id="clipPath87"><rect id="rect89" width="477.14" height="208.57" x="-830" y="1580.93" fill="#ff0"/></clipPath><clipPath id="clipPath91"><rect id="rect93" width="477.14" height="208.57" x="-830" y="1580.93" fill="#ff0"/></clipPath><clipPath id="clipPath95"><rect id="rect97" width="477.14" height="208.57" x="-830" y="1580.93" fill="#ff0"/></clipPath><clipPath id="clipPath99"><rect id="rect101" width="477.14" height="208.57" x="-830" y="1580.93" fill="#ff0"/></clipPath><clipPath id="clipPath103"><rect id="rect105" width="477.14" height="208.57" x="-830" y="1580.93" fill="#ff0"/></clipPath><clipPath id="clipPath107"><use id="use109" xlink:href="#0"/></clipPath><clipPath id="clipPath111"><rect id="rect113" width="477.14" height="208.57" x="-830" y="1580.93" fill="#ff0"/></clipPath><path id="1" fill="#4a0" d="m 699.2857,672.93231 a 40.714287,40.714287 0 1 1 -81.42858,0 40.714287,40.714287 0 1 1 81.42858,0 z"/><clipPath id="2"><use id="use117" xlink:href="#1"/></clipPath><clipPath id="clipPath119"><use id="use121" transform="matrix(4.3233 0 0 4.3233 -2450.68 -2667.55)" xlink:href="#1"/></clipPath><path id="3" fill="#ffd267" d="m -17,22.5 a 1.5,1.5 0 1 1 -3,0 1.5,1.5 0 1 1 3,0 z"/><radialGradient id="radial0" cx="148.004" cy="160" r="128" gradientTransform="matrix(0.1831,0,0,0.1831,-3.10029,-5.29688)" gradientUnits="userSpaceOnUse"><stop id="stop7" offset="0" stop-color="#c1d6fa"/><stop id="stop9" offset="1" stop-color="#2f78ef"/></radialGradient><radialGradient id="radialGradient3018" cx="148.004" cy="160" r="128" gradientTransform="matrix(0.05167489,0,0,0.05167489,-0.87511211,-1.4947562)" gradientUnits="userSpaceOnUse" xlink:href="#radial0"/></defs><path id="path11" fill="url(#radialGradient3018)" d="m 13.387776,3.2589259 0,7.0290971 c 0,2.892778 0,3.100035 -3.100035,3.100035 l -7.0279948,0 c -3.10113731,0 -3.10113731,-0.207257 -3.10113731,-3.100035 l 0,-7.0290971 c 0,-2.89277783 0,-3.10003483 3.10113731,-3.10003483 l 7.0279948,0 c 3.100035,0 3.100035,0.207257 3.100035,3.10003483 z"/><path id="path15" fill="#fff" fill-opacity=".051" d="m 10.799269,13.388058 c 0.717682,-0.0033 1.235825,-0.02315 1.611753,-0.124574 l -1.193932,-2.046112 -1.2655901,2.170686 0.3362411,0 c 0.180799,0 0.350573,0 0.511528,0 z M 11.21709,11.217372 9.7707012,8.7369034 8.32321,11.217372 z m 0,0 2.159662,0 c 0.0088,-0.274505 0.01102,-0.582083 0.01102,-0.930451 l 0,-0.3097833 -0.723194,-1.2402343 z M 12.664581,8.7369034 11.21709,6.2564347 9.7707012,8.7369034 z m 0,0 0.723195,0 0,-1.2402343 z m -2.8938798,0 L 8.32321,6.2564347 6.876821,8.7369034 z m -2.8938802,0 -1.4474915,2.4804686 2.8938805,0 z m 0,0 -1.4474915,-2.4804687 -1.446389,2.4804687 z m -2.8938805,0 -1.4474913,2.4804686 2.8938803,0 z m 0,0 L 2.5354492,6.2564347 1.0890603,8.7369034 z m -2.8938802,0 -0.9304514,1.5941146 c 0,0.329627 0.003307,0.623976 0.0110242,0.886354 l 2.36581614,0 z m 0,0 -0.9304514,-1.5941145 0,1.5941145 z m 1.4463889,2.4804686 -1.2170833,2.086901 c 0.450894,0.08268 1.0748699,0.08378 1.9413802,0.08378 l 0.5423958,0 z m 0,-4.9609373 -1.4463889,-2.4804689 -0.9304514,1.5941147 0,0.8863542 z m 0,0 2.8938803,0 -1.446389,-2.4804689 z M 3.9829405,3.7759658 2.5354492,1.2954971 1.0890603,3.7759658 z m 0,0 2.8938805,0 -1.4474915,-2.4804687 z m 1.446389,-2.4804687 -0.6636631,-1.13660602 -1.5070227,0 c -0.020946,0 -0.038585,0 -0.059531,0 L 2.5354492,1.2954971 z m 0,0 2.8938805,0 -0.6636634,-1.13660602 -1.5665538,0 z m 2.8938805,0 2.89388,0 -0.663663,-1.13660602 c -0.08819,0 -0.171979,0 -0.266788,0 l -1.299766,0 z m 0,0 -1.446389,2.4804687 2.8938802,0 z m 1.4474912,2.4804687 2.8938798,0 -1.447491,-2.4804687 z m 0,0 -1.4474912,2.4804689 2.89388,0 z m 1.4463888,2.4804689 2.170686,0 0,-1.2402343 -0.723195,-1.2402346 z m 1.447491,-2.4804689 0.723195,0 0,-0.5170399 c 0,-0.2579689 -0.0022,-0.4938889 -0.0066,-0.71217 z M 8.32321,6.2564347 6.876821,3.7759658 5.4293295,6.2564347 z m 2.89388,-4.9609376 2.062648,0 C 13.123193,0.51718095 12.747264,0.27133914 11.859807,0.19416885 z m -8.6816408,0 L 1.8850153,0.17983733 C 0.85203767,0.23826608 0.4342164,0.46095692 0.26664695,1.2954971 z M 1.0890603,3.7759658 0.17514543,2.2083096 C 0.16301862,2.5114781 0.1586089,2.8598459 0.1586089,3.2589259 l 0,0.5170399 z m 4.3402692,7.4414062 -1.2655904,2.170686 2.532283,0 z m 2.8938805,0 -1.2655906,2.170686 2.5322832,0 z m -7.5913372,1.86862 -0.4519964,-0.775009 c 0.0826821,0.37152 0.22158848,0.615157 0.4519964,0.775009 z"/><path id="path142" fill="#f9f9f9" fill-opacity="1" stroke="#000" stroke-dasharray="none" stroke-miterlimit="4" stroke-opacity="1" stroke-width="0" d="m 9.4936766,3.3866668 -3.9147275,2.54 L 3.7721519,3.9511112 0.15855717,6.2088891 c 0,0.5644444 0,0 0,0.5644444 L 3.7721519,4.5155557 5.5789491,6.4911113 9.4936766,3.9511112 13.408405,7.6200002 c 0,-0.5644444 0,0 0,-0.5644444 z"/><use id="use144" fill="#f9f9f9" fill-opacity="1" stroke="#000" stroke-dasharray="none" stroke-miterlimit="4" stroke-opacity="1" stroke-width=".001" transform="matrix(0.37629631,0,0,0.37629631,10.912593,-4.2333335)" xlink:href="#3"/><use id="use146" fill="#f9f9f9" fill-opacity="1" stroke="#000" stroke-dasharray="none" stroke-miterlimit="4" stroke-opacity="1" stroke-width=".001" transform="matrix(0.37629631,0,0,0.37629631,12.605925,-2.2577779)" xlink:href="#3"/><use id="use148" fill="#f9f9f9" fill-opacity="1" stroke="#000" stroke-dasharray="none" stroke-miterlimit="4" stroke-opacity="1" stroke-width=".001" transform="matrix(0.37629631,0,0,0.37629631,16.274815,-4.797778)" xlink:href="#3"/><path id="use3935" fill="#f9f9f9" fill-opacity="1" d="m 4.5155558,4.2334837 a 0.56444447,0.56444447 0 0 1 -1.1288889,0 0.56444447,0.56444447 0 1 1 1.1288889,0 z"/><path id="use3937" fill="#f9f9f9" fill-opacity="1" d="m 6.2088878,6.2090393 a 0.56444447,0.56444447 0 0 1 -1.1288889,0 0.56444447,0.56444447 0 1 1 1.1288889,0 z"/><path id="use3939" fill="#f9f9f9" fill-opacity="1" d="m 9.8777778,3.6690392 a 0.56444447,0.56444447 0 0 1 -1.1288889,0 0.56444447,0.56444447 0 1 1 1.1288889,0 z"/></svg>