<svg xmlns="http://www.w3.org/2000/svg" xmlns:svg="http://www.w3.org/2000/svg" xmlns:xlink="http://www.w3.org/1999/xlink" id="svg2" width="48" height="48" enable-background="new" version="1.1" viewBox="0 0 13.547 13.547"><metadata id="metadata86"/><defs id="defs4"><linearGradient id="0"><stop id="stop7" stop-color="#f9b84b"/><stop id="stop9" offset="1" stop-color="#fbce85"/></linearGradient><linearGradient id="1" x2="0" y1="299.81" y2="31.619" gradientTransform="matrix(0.11931818,0,0,0.11931818,414.13636,48.22727)" gradientUnits="userSpaceOnUse" xlink:href="#A"/><clipPath id="clipPath12"><rect id="rect14" width="30" height="30" x="417" y="53" fill="url(#1)" color="#bebebe" rx="7"/></clipPath><linearGradient id="2" x2="0" y1="302.86" y2="28.571" gradientTransform="matrix(0.0875,0,0,0.0875,414.9,97.5)" gradientUnits="userSpaceOnUse" xlink:href="#A"/><clipPath id="clipPath17"><rect id="rect19" width="22" height="22" x="417" y="101" fill="url(#2)" color="#bebebe" rx="5"/></clipPath><linearGradient id="3" x2="0" y1="124" y2="28" gradientUnits="userSpaceOnUse" xlink:href="#A"/><clipPath id="clipPath22"><rect id="rect24" width="88" height="88" x="292" y="32" fill="url(#3)" color="#bebebe" rx="18"/></clipPath><linearGradient id="4" x2="0" y1="204" y2="140" gradientUnits="userSpaceOnUse" xlink:href="#A"/><clipPath id="clipPath27"><rect id="rect29" width="60" height="60" x="290" y="142" fill="url(#4)" color="#bebebe" rx="12.5"/></clipPath><linearGradient id="5" x2="0" y1="280" y2="40" gradientTransform="translate(0,-4)" gradientUnits="userSpaceOnUse" xlink:href="#A"/><clipPath id="clipPath32"><rect id="rect34" width="220" height="220" x="34" y="46" fill="url(#5)" color="#bebebe" rx="50"/></clipPath><linearGradient id="6" x2="0" y1="280" y2="40" gradientTransform="matrix(0.06666667,0,0,0.06666667,302.4,209.33333)" gradientUnits="userSpaceOnUse" xlink:href="#A"/><clipPath id="clipPath37"><rect id="rect39" width="16" height="16" x="304" y="212" fill="url(#6)" color="#bebebe" rx="3" transform="matrix(0,1,-1,0,0,0)"/></clipPath><linearGradient id="7" x2="0" y1="291.43" y2="40" gradientTransform="matrix(0.11931818,0,0,0.11931818,430.13636,32.227267)" gradientUnits="userSpaceOnUse" xlink:href="#A"/><clipPath id="clipPath42"><rect id="rect44" width="30" height="30" x="433" y="37" fill="url(#7)" color="#bebebe" rx="6"/></clipPath><linearGradient id="8" x2="0" y1="291.43" y2="40" gradientTransform="matrix(0.0875,0,0,0.0875,430.9,81.499996)" gradientUnits="userSpaceOnUse" xlink:href="#A"/><clipPath id="clipPath47"><rect id="rect49" width="22" height="22" x="433" y="85" fill="url(#8)" color="#bebebe" rx="4"/></clipPath><linearGradient id="9" x2="0" y1="280" y2="40" gradientTransform="matrix(0.175,0,0,0.175,302.79999,215.99997)" gradientUnits="userSpaceOnUse" xlink:href="#A"/><clipPath id="clipPath52"><rect id="rect54" width="42" height="42" x="307" y="223" fill="url(#9)" color="#bebebe" rx="9" transform="matrix(0,1,-1,0,0,0)"/></clipPath><linearGradient id="A"><stop id="stop57" stop-color="#b94642"/><stop id="stop59" offset="1" stop-color="#c66a58"/></linearGradient><linearGradient id="B" x2="0" y1="1050.36" y2="1006.36" gradientTransform="translate(-78.066774,-887.05177)" gradientUnits="userSpaceOnUse" xlink:href="#0"/><radialGradient id="radialGradient3140" cx="148.004" cy="160" r="128" gradientTransform="matrix(0.05167489,0,0,0.05167489,-0.87511191,-1.4947567)" gradientUnits="userSpaceOnUse" xlink:href="#radial0"/><radialGradient id="radial0" cx="148.004" cy="160" r="128" gradientTransform="matrix(0.1831,0,0,0.1831,-3.10029,-5.29688)" gradientUnits="userSpaceOnUse"><stop id="stop7-5" offset="0" stop-color="#dbc5b0"/><stop id="stop9-6" offset="1" stop-color="#825a30"/></radialGradient><radialGradient id="radialGradient3009" cx="148.004" cy="160" r="128" gradientTransform="matrix(0.05167489,0,0,0.05167489,-0.87510841,-1.4947562)" gradientUnits="userSpaceOnUse" xlink:href="#radial0"/><linearGradient id="linearGradient3084" x2="0" y1="1050.36" y2="1006.36" gradientTransform="matrix(0.28222223,0,0,0.28222223,9.5281398e-7,-283.45333)" gradientUnits="userSpaceOnUse" xlink:href="#0"/></defs><path id="path11" fill="url(#radialGradient3009)" d="m 13.387778,3.2589259 0,7.0290971 c 0,2.892778 0,3.100035 -3.100035,3.100035 l -7.0279931,0 c -3.10113801,0 -3.10113801,-0.207257 -3.10113801,-3.100035 l 0,-7.0290971 c 0,-2.89277789 0,-3.10003479 3.10113801,-3.10003479 l 7.0279931,0 c 3.100035,0 3.100035,0.2072569 3.100035,3.10003479 z"/><path id="path15" fill="#fff" fill-opacity=".051" d="m 10.799271,13.388058 c 0.717682,-0.0033 1.235825,-0.02315 1.611753,-0.124574 l -1.193932,-2.046111 -1.2655891,2.170685 0.3362401,0 c 0.180799,0 0.350573,0 0.511528,0 z M 11.217092,11.217373 9.7707049,8.7369034 8.3232129,11.217373 z m 0,0 2.159662,0 c 0.0088,-0.274506 0.01102,-0.582084 0.01102,-0.930452 l 0,-0.3097833 -0.723192,-1.2402343 z M 12.664583,8.7369034 11.217092,6.2564347 9.7707049,8.7369034 z m 0,0 0.723195,0 0,-1.2402343 z m -2.8938781,0 -1.447492,-2.4804687 -1.446388,2.4804687 z m -2.89388,0 -1.447492,2.4804696 2.89388,0 z m 0,0 -1.447492,-2.4804687 -1.446389,2.4804687 z m -2.893881,0 -1.447491,2.4804696 2.89388,0 z m 0,0 -1.447491,-2.4804687 -1.446389,2.4804687 z m -2.89388,0 -0.93045201,1.5941146 c 0,0.329627 0.0033,0.623976 0.01102,0.886355 l 2.36581701,0 z m 0,0 -0.93045201,-1.5941145 0,1.5941145 z m 1.446389,2.4804696 -1.217084,2.0869 c 0.450894,0.08268 1.07487,0.08378 1.941381,0.08378 l 0.542395,0 z m 0,-4.9609383 -1.446389,-2.4804689 -0.93045201,1.5941147 0,0.8863542 z m 0,0 2.89388,0 -1.446389,-2.4804689 z M 3.9829439,3.7759658 2.5354529,1.2954971 1.0890639,3.7759658 z m 0,0 2.893881,0 -1.447492,-2.4804687 z m 1.446389,-2.4804687 -0.663663,-1.13660599 -1.50592,0 c -0.02205,0 -0.03969,0 -0.06063,0 L 2.5354569,1.2954971 z m 0,0 2.89388,0 -0.663663,-1.13660599 -1.566554,0 z m 2.89388,0 2.8938791,0 -0.663663,-1.13660599 c -0.08819,0 -0.171979,0 -0.265686,0 l -1.3008661,0 z m 0,0 -1.446388,2.4804687 2.89388,0 z m 1.447492,2.4804687 2.8938781,0 -1.447491,-2.4804687 z m 0,0 -1.447492,2.4804689 2.8938791,0 z m 1.4463871,2.4804689 2.170686,0 0,-1.2402343 -0.723195,-1.2402346 z m 1.447491,-2.4804689 0.723195,0 0,-0.5170399 c 0,-0.2579689 -0.0022,-0.4938889 -0.0066,-0.71217 z M 8.3232129,6.2564347 6.8768249,3.7759658 5.4293329,6.2564347 z m 2.8938791,-4.9609376 2.062648,0 C 13.123195,0.51718101 12.747266,0.27133921 11.859809,0.19416891 z m -8.6816391,0 -0.650434,-1.11565969 C 0.85204089,0.23826641 0.43421989,0.46095701 0.26664989,1.2954971 z M 1.0890639,3.7759658 0.17514889,2.2083096 c -0.01213,0.3031685 -0.01654,0.6515363 -0.01654,1.0506163 l 0,0.5170399 z m 4.340269,7.4414072 -1.26559,2.170685 2.532283,0 z m 2.89388,0 -1.26559,2.170685 2.532283,0 z m -7.59133701,1.868619 -0.451996,-0.775009 c 0.08268,0.37152 0.221588,0.615157 0.451996,0.775009 z"/><path id="path82" fill="#f9f9f9" fill-opacity="1" d="m 7.3377781,10.442222 0,-5.0800001 -1.1288889,0 0,5.0800001 z m -1.4111112,-5.3622223 -2.54,-1.4111112 0,4.7977779 2.54,1.6933336 z M 10.16,8.4666664 l 10e-7,-4.7977779 -2.5400007,1.4111112 0,5.0800003 z M 9.5955559,3.6688885 c -1.1288889,0 -1.6933334,0.1467076 -2.8222223,1.1288889 C 5.6444447,3.8402228 5.0800002,3.6688885 3.9511113,3.6688885 l 2.2577779,1.4111112 1.1288889,0 z"/></svg>