<svg xmlns="http://www.w3.org/2000/svg" xmlns:svg="http://www.w3.org/2000/svg" xmlns:xlink="http://www.w3.org/1999/xlink" id="svg2" width="48" height="48" version="1.1" viewBox="0 0 13.547 13.547"><metadata id="metadata110"/><defs id="defs4"><linearGradient id="0"><stop id="stop7" stop-color="#d6d126"/><stop id="stop9" offset="1" stop-color="#e9df4b"/></linearGradient><linearGradient id="1" x2="0" y1="1050.36" y2="1006.36" gradientTransform="matrix(0.28222223,0,0,0.28222223,0,-283.45334)" gradientUnits="userSpaceOnUse" xlink:href="#0"/><radialGradient id="radialGradient3027" cx="148.004" cy="160" r="128" gradientTransform="matrix(0.05167489,0,0,0.05167489,-0.87510751,-1.4947604)" gradientUnits="userSpaceOnUse" xlink:href="#radial0"/><radialGradient id="radial0" cx="148.004" cy="160" r="128" gradientTransform="matrix(0.1831,0,0,0.1831,-3.10029,-5.29688)" gradientUnits="userSpaceOnUse"><stop id="stop7-4" offset="0" stop-color="#f8cc9b" stop-opacity="1"/><stop id="stop9-2" offset="1" stop-color="#efb615" stop-opacity="1"/></radialGradient><radialGradient id="radialGradient3127" cx="148.004" cy="160" r="128" gradientTransform="matrix(0.05167489,0,0,0.05167489,-0.87510891,-1.4947604)" gradientUnits="userSpaceOnUse" xlink:href="#radial0"/></defs><path id="path11" fill="url(#radialGradient3127)" d="m 13.387779,3.2589219 0,7.0290961 c 0,2.892778 0,3.100035 -3.100035,3.100035 l -7.0279941,0 c -3.10113801,0 -3.10113801,-0.207257 -3.10113801,-3.100035 l 0,-7.0290961 c 0,-2.89277779 0,-3.10003479 3.10113801,-3.10003479 l 7.0279941,0 c 3.100035,0 3.100035,0.207257 3.100035,3.10003479 z"/><path id="path15" fill="#fff" fill-opacity=".051" d="m 10.799272,13.388053 c 0.717682,-0.0033 1.235825,-0.02315 1.611753,-0.124575 l -1.193932,-2.046111 -1.2655901,2.170686 0.3362411,0 c 0.180799,0 0.350573,0 0.511528,0 z M 11.217093,11.217367 9.7707049,8.7368997 8.3232129,11.217367 z m 0,0 2.159662,0 c 0.0088,-0.274505 0.01102,-0.582083 0.01102,-0.930451 l 0,-0.3097823 -0.723194,-1.240234 z m 1.447492,-2.4804673 -1.447492,-2.480469 -1.4463881,2.480469 z m 0,0 0.723194,0 0,-1.2402346 z m -2.8938801,0 -1.447492,-2.480469 -1.44639,2.480469 z m -2.893882,0 -1.447491,2.4804673 2.893881,0 z m 0,0 -1.447491,-2.480469 -1.446388,2.480469 z m -2.893879,0 -1.447491,2.4804673 2.893879,0 z m 0,0 -1.447491,-2.480469 -1.446389,2.480469 z m -2.89388,0 -0.93045201,1.5941133 c 0,0.329627 0.0033,0.623976 0.01102,0.886354 l 2.36581601,0 z m 0,0 -0.93045201,-1.5941148 0,1.5941148 z m 1.446389,2.4804673 -1.217084,2.086901 c 0.450894,0.08268 1.07487,0.08379 1.941381,0.08379 l 0.542395,0 z m 0,-4.9609363 -1.446389,-2.4804689 -0.93045201,1.5941147 0,0.8863542 z m 0,0 2.893879,0 -1.446388,-2.4804689 z M 3.9829439,3.7759618 2.5354529,1.2954931 1.0890639,3.7759618 z m 0,0 2.893879,0 -1.447491,-2.4804687 z m 1.446388,-2.4804687 -0.663662,-1.13660599 -1.50592,0 c -0.02205,0 -0.03969,0 -0.06063,0 L 2.5354569,1.2954931 z m 0,0 2.893881,0 -0.663663,-1.13660599 -1.566554,0 z m 2.893881,0 2.8938801,0 -0.663663,-1.13660599 c -0.0882,0 -0.171979,0 -0.265686,0 l -1.3008691,0 z m 0,0 -1.44639,2.4804687 2.893882,0 z m 1.447492,2.4804687 2.8938801,0 -1.447492,-2.4804687 z m 0,0 -1.447492,2.4804689 2.8938801,0 z m 1.4463881,2.4804689 2.170686,0 0,-1.2402343 -0.723194,-1.2402346 z m 1.447492,-2.4804689 0.723194,0 0,-0.5170399 c 0,-0.2579689 -0.0022,-0.4938889 -0.0066,-0.71217 z M 8.3232129,6.2564307 6.8768229,3.7759618 5.4293319,6.2564307 z m 2.8938801,-4.9609376 2.062648,0 C 13.123196,0.51717701 12.747267,0.27133521 11.85981,0.19416491 z m -8.6816401,0 -0.650434,-1.11565969 C 0.85204089,0.23826241 0.43421989,0.46095301 0.26664989,1.2954931 z M 1.0890639,3.7759618 0.17514889,2.2083056 c -0.01213,0.3031685 -0.01654,0.6515364 -0.01654,1.0506163 l 0,0.5170399 z m 4.340268,7.4414052 -1.26559,2.170686 2.532283,0 z m 2.893881,0 -1.26559,2.170686 2.532283,0 z m -7.59133701,1.86862 -0.451996,-0.775009 c 0.08268,0.371519 0.221588,0.615158 0.451996,0.775009 z"/><rect id="rect28" width=".564" height=".564" x="3.387" y="3.387" fill="#f9f9f9" fill-opacity="1"/><rect id="rect30" width=".564" height=".564" x="4.233" y="3.387" fill="#f9f9f9" fill-opacity="1"/><rect id="rect32" width=".564" height=".564" x="5.08" y="3.387" fill="#f9f9f9" fill-opacity="1"/><rect id="rect34" width=".564" height=".564" x="5.927" y="3.387" fill="#f9f9f9" fill-opacity="1"/><rect id="rect36" width=".564" height=".564" x="3.387" y="4.233" fill="#f9f9f9" fill-opacity="1"/><rect id="rect38" width=".564" height=".564" x="4.233" y="4.233" fill="#f9f9f9" fill-opacity="1"/><rect id="rect40" width=".564" height=".564" x="5.08" y="4.233" fill="#f9f9f9" fill-opacity="1"/><rect id="rect42" width=".564" height=".564" x="5.927" y="4.233" fill="#f9f9f9" fill-opacity="1"/><rect id="rect44" width=".564" height=".564" x="6.773" y="3.387" fill="#f9f9f9" fill-opacity="1"/><rect id="rect46" width=".564" height=".564" x="6.773" y="4.233" fill="#f9f9f9" fill-opacity="1"/><rect id="rect48" width=".564" height=".564" x="6.209" y="8.749" fill="#f9f9f9" fill-opacity="1"/><rect id="rect50" width=".564" height=".564" x="7.06" y="8.749" fill="#f9f9f9" fill-opacity="1"/><rect id="rect52" width=".564" height=".564" x="7.902" y="8.749" fill="#f9f9f9" fill-opacity="1"/><rect id="rect54" width=".564" height=".564" x="8.749" y="8.749" fill="#f9f9f9" fill-opacity="1"/><rect id="rect56" width=".564" height=".564" x="6.209" y="9.596" fill="#f9f9f9" fill-opacity="1"/><rect id="rect58" width=".564" height=".564" x="7.06" y="9.596" fill="#f9f9f9" fill-opacity="1"/><rect id="rect60" width=".564" height=".564" x="7.902" y="9.596" fill="#f9f9f9" fill-opacity="1"/><rect id="rect62" width=".564" height=".564" x="8.749" y="9.596" fill="#f9f9f9" fill-opacity="1"/><rect id="rect64" width=".564" height=".564" x="9.596" y="8.749" fill="#f9f9f9" fill-opacity="1"/><rect id="rect66" width=".564" height=".564" x="9.596" y="9.596" fill="#f9f9f9" fill-opacity="1"/><rect id="rect68" width=".564" height=".564" x="3.387" y="8.749" fill="#f9f9f9" fill-opacity="1"/><rect id="rect70" width=".564" height=".564" x="4.233" y="8.749" fill="#f9f9f9" fill-opacity="1"/><rect id="rect72" width=".564" height=".564" x="3.387" y="9.596" fill="#f9f9f9" fill-opacity="1"/><rect id="rect74" width=".564" height=".564" x="4.233" y="9.596" fill="#f9f9f9" fill-opacity="1"/><rect id="rect76" width=".564" height=".564" x="3.387" y="7.06" fill="#f9f9f9" fill-opacity="1"/><rect id="rect78" width=".564" height=".564" x="4.233" y="7.06" fill="#f9f9f9" fill-opacity="1"/><rect id="rect80" width=".564" height=".564" x="3.387" y="7.902" fill="#f9f9f9" fill-opacity="1"/><rect id="rect82" width=".564" height=".564" x="4.233" y="7.902" fill="#f9f9f9" fill-opacity="1"/><rect id="rect84" width=".564" height=".564" x="3.387" y="6.209" fill="#f9f9f9" fill-opacity="1"/><rect id="rect86" width=".564" height=".564" x="4.233" y="6.209" fill="#f9f9f9" fill-opacity="1"/><rect id="rect88" width=".564" height=".564" x="8.749" y="5.927" fill="#f9f9f9" fill-opacity="1"/><rect id="rect90" width=".564" height=".564" x="9.596" y="5.927" fill="#f9f9f9" fill-opacity="1"/><rect id="rect92" width=".564" height=".564" x="8.749" y="6.773" fill="#f9f9f9" fill-opacity="1"/><rect id="rect94" width=".564" height=".564" x="9.596" y="6.773" fill="#f9f9f9" fill-opacity="1"/><rect id="rect96" width=".564" height=".564" x="8.749" y="4.233" fill="#f9f9f9" fill-opacity="1"/><rect id="rect98" width=".564" height=".564" x="9.596" y="4.233" fill="#f9f9f9" fill-opacity="1"/><rect id="rect100" width=".564" height=".564" x="8.749" y="5.08" fill="#f9f9f9" fill-opacity="1"/><rect id="rect102" width=".564" height=".564" x="9.596" y="5.08" fill="#f9f9f9" fill-opacity="1"/><rect id="rect104" width=".564" height=".564" x="8.749" y="3.387" fill="#f9f9f9" fill-opacity="1"/><rect id="rect106" width=".564" height=".564" x="9.596" y="3.387" fill="#f9f9f9" fill-opacity="1"/></svg>