<svg xmlns="http://www.w3.org/2000/svg" xmlns:svg="http://www.w3.org/2000/svg" xmlns:xlink="http://www.w3.org/1999/xlink" id="svg2" width="48" height="48" version="1.1" viewBox="0 0 13.547 13.547"><metadata id="metadata46"/><defs id="defs4"><linearGradient id="0"><stop id="stop7" stop-color="#2c73ea"/><stop id="stop9" offset="1" stop-color="#69b5ff"/></linearGradient><linearGradient id="1" x2="0" y1="1050.36" y2="1006.36" gradientTransform="matrix(0.28222223,0,0,0.28222223,0,-283.45334)" gradientUnits="userSpaceOnUse" xlink:href="#0"/><radialGradient id="radialGradient3051" cx="148.004" cy="160" r="128" gradientTransform="matrix(0.1831,0,0,0.1831,-3.10079,-5.296398)" gradientUnits="userSpaceOnUse" xlink:href="#radial0"/><radialGradient id="radial0" cx="148.004" cy="160" r="128" gradientTransform="matrix(0.1831,0,0,0.1831,-3.10029,-5.29688)" gradientUnits="userSpaceOnUse"><stop id="stop7-3" offset="0" stop-color="#c0edfb" stop-opacity="1"/><stop id="stop9-6" offset="1" stop-color="#305bbd" stop-opacity="1"/></radialGradient><radialGradient id="radialGradient3012" cx="148.004" cy="160" r="128" gradientTransform="matrix(0.05167489,0,0,0.05167489,-0.87510911,-1.4947616)" gradientUnits="userSpaceOnUse" xlink:href="#radial0"/><linearGradient id="linearGradient3042" x2="0" y1="1050.36" y2="1006.36" gradientTransform="matrix(0.28222223,0,0,0.28222223,0,-283.45334)" gradientUnits="userSpaceOnUse" xlink:href="#0"/><linearGradient id="linearGradient3052" x2="0" y1="1050.36" y2="1006.36" gradientTransform="matrix(0.28222223,0,0,0.28222223,0,-283.45334)" gradientUnits="userSpaceOnUse" xlink:href="#0"/><radialGradient id="radial0-1" cx="148.004" cy="160" r="128" gradientTransform="matrix(0.1831,0,0,0.1831,-3.10029,-5.29688)" gradientUnits="userSpaceOnUse"><stop id="stop7-4" offset="0" stop-color="#b0c1d1"/><stop id="stop9-4" offset="1" stop-color="#16609f"/></radialGradient><radialGradient id="radialGradient3021" cx="148.004" cy="160" r="128" gradientTransform="matrix(0.05167489,0,0,0.05167489,-0.87511191,-1.4947607)" gradientUnits="userSpaceOnUse" xlink:href="#radial0-1"/></defs><path id="path11" fill="url(#radialGradient3021)" d="m 13.387776,3.2589214 0,7.0290976 c 0,2.892777 0,3.100034 -3.100035,3.100034 l -7.0279949,0 c -3.10113721,0 -3.10113721,-0.207257 -3.10113721,-3.100034 l 0,-7.0290976 c 0,-2.89277786 0,-3.10003479 3.10113721,-3.10003479 l 7.0279949,0 c 3.100035,0 3.100035,0.20725693 3.100035,3.10003479 z"/><path id="path13" fill="#fff" fill-opacity=".051" d="m 10.799269,13.388053 c 0.717682,-0.0033 1.235825,-0.02315 1.611753,-0.124575 l -1.193932,-2.04611 -1.26559,2.170685 0.336241,0 c 0.180799,0 0.350573,0 0.511528,0 z M 11.21709,11.217368 9.770701,8.7368989 8.32321,11.217368 z m 0,0 2.159662,0 c 0.0088,-0.274505 0.01102,-0.582083 0.01102,-0.930451 l 0,-0.3097838 -0.723194,-1.2402343 z M 12.664582,8.7368989 11.21709,6.2564302 9.770701,8.7368989 z m 0,0 0.723194,0 0,-1.2402343 z m -2.893881,0 L 8.32321,6.2564302 6.876821,8.7368989 z m -2.89388,0 -1.447492,2.4804691 2.893881,0 z m 0,0 L 5.429329,6.2564302 3.982941,8.7368989 z m -2.89388,0 -1.4474918,2.4804691 2.8938798,0 z m 0,0 L 2.5354492,6.2564302 1.0890603,8.7368989 z m -2.8938807,0 -0.93045141,1.5941151 c 0,0.329627 0.00331,0.623976 0.011024,0.886354 l 2.36581611,0 z m 0,0 -0.93045141,-1.5941145 0,1.5941145 z m 1.4463889,2.4804691 -1.2170833,2.0869 c 0.450894,0.08268 1.0748699,0.08379 1.9402778,0.08379 l 0.5434982,0 z m 0,-4.9609378 -1.4463889,-2.4804689 -0.93045141,1.5941147 0,0.8863542 z m 0,0 2.8938798,0 L 3.982941,3.7759613 z M 3.982941,3.7759613 2.5354492,1.2954926 1.0890603,3.7759613 z m 0,0 2.89388,0 L 5.429329,1.2954926 z M 5.429329,1.2954926 4.765666,0.15888661 l -1.5070223,0 c -0.020946,0 -0.038585,0 -0.059531,0 L 2.5354493,1.2954926 z m 0,0 2.893881,0 -0.663663,-1.13660599 -1.566554,0 z m 2.893881,0 2.89388,0 -0.663663,-1.13660599 c -0.0882,0 -0.171979,0 -0.266788,0 l -1.299766,0 z m 0,0 -1.446389,2.4804687 2.89388,0 z m 1.447491,2.4804687 2.893881,0 -1.447492,-2.4804687 z m 0,0 -1.447491,2.4804689 2.89388,0 z m 1.446389,2.4804689 2.170686,0 0,-1.2402343 -0.723194,-1.2402346 z m 1.447492,-2.4804689 0.723194,0 0,-0.5170399 c 0,-0.2579689 -0.0022,-0.4938889 -0.0066,-0.71217 z M 8.32321,6.2564302 6.876821,3.7759613 5.429329,6.2564302 z m 2.89388,-4.9609376 2.062648,0 C 13.123193,0.51717646 12.747264,0.27133461 11.859807,0.19416441 z m -8.6816408,0 L 1.8850153,0.17983281 C 0.85203769,0.23826181 0.43421639,0.46095243 0.26664699,1.2954926 z M 1.0890603,3.7759613 0.17514549,2.2083051 c -0.0121269,0.3031685 -0.0165366,0.6515363 -0.0165366,1.0506163 l 0,0.5170399 z m 4.3402687,7.4414067 -1.26559,2.170685 2.532283,0 z m 2.893881,0 -1.265591,2.170685 2.532284,0 z m -7.59133721,1.868619 -0.4519964,-0.775009 c 0.082682,0.371519 0.2215885,0.615157 0.4519964,0.775009 z"/><g id="g32" fill="#f9f9f9" transform="matrix(1,0,0,-1,-0.28222,13.82889)"><path id="path34" d="m 4.2333334,4.5155556 3.3866667,0 0,0.5644445 -3.3866667,0 z"/><path id="path36" d="m 4.2333334,5.6444445 5.6444446,0 0,0.5644445 -5.6444446,0 z"/><path id="path38" d="m 4.2333334,6.7733335 5.6444446,0 0,0.5644445 -5.6444446,0 z"/><path id="path40" d="m 4.2333334,7.9022224 5.6444446,0 0,0.5644445 -5.6444446,0 z"/><path id="path42" d="m 4.2333334,9.0311113 5.6444446,0 0,0.5644445 -5.6444446,0 z"/></g></svg>