<svg xmlns="http://www.w3.org/2000/svg" xmlns:svg="http://www.w3.org/2000/svg" xmlns:xlink="http://www.w3.org/1999/xlink" id="svg2" width="48" height="48" version="1.1" viewBox="0 0 13.547 13.547"><metadata id="metadata252"/><defs id="defs4"><linearGradient id="0"><stop id="stop7" stop-color="#dedede"/><stop id="stop9" offset="1" stop-color="#f9f9f9"/></linearGradient><linearGradient id="1"><stop id="stop12" stop-color="#f3f3f3"/><stop id="stop14" offset="1" stop-color="#fff"/></linearGradient><linearGradient id="2"><stop id="stop17" stop-color="#323232"/><stop id="stop19" offset="1" stop-color="#767676"/></linearGradient><linearGradient id="3" x2="0" y1="280" y2="40" gradientTransform="matrix(.175 0 0 .175 302.79999 215.99997)" gradientUnits="userSpaceOnUse" xlink:href="#2"/><linearGradient id="4" x2="0" y1="230" y2="90" gradientTransform="matrix(.375 0 0 .375 298 16)" gradientUnits="userSpaceOnUse" xlink:href="#1"/><linearGradient id="5" x2="0" y1="230" y2="90" gradientTransform="matrix(.25 0 0 .25 299.99999 131.99999)" gradientUnits="userSpaceOnUse" xlink:href="#1"/><linearGradient id="6" x2="0" y1="230" y2="90" gradientTransform="matrix(.25 0 0 .25 299.99999 131.99999)" gradientUnits="userSpaceOnUse" xlink:href="#2"/><linearGradient id="7" x2="0" y1="280" y2="40" gradientTransform="matrix(.175 0 0 .175 302.79999 215.99997)" gradientUnits="userSpaceOnUse" xlink:href="#1"/><linearGradient id="8" x2="0" y1="230" y2="90" gradientTransform="matrix(.375 0 0 .375 298 16)" gradientUnits="userSpaceOnUse" xlink:href="#2"/><clipPath id="clipPath27"><rect id="rect29" width="42" height="42" x="307" y="223" fill="url(#7)" color="#bebebe" rx="9" transform="rotate(90)"/></clipPath><clipPath id="clipPath31"><rect id="rect33" width="20" height="20" x="434" y="78" color="#bebebe" rx="4"/></clipPath><clipPath id="clipPath35"><rect id="rect37" width="16" height="16" x="432" y="116" color="#bebebe" rx="3"/></clipPath><clipPath id="clipPath39"><rect id="rect41" width="60" height="60" x="306" y="142" fill="url(#5)" color="#bebebe" rx="12.5" transform="matrix(0 -1 1 0 0 0)"/></clipPath><clipPath id="clipPath43"><rect id="rect45" width="30" height="30" x="433" y="29" fill="#6d6d6d" color="#bebebe" opacity=".2" rx="4"/></clipPath><clipPath id="clipPath47"><rect id="rect49" width="22" height="22" x="433" y="77" color="#bebebe" rx="4"/></clipPath><clipPath id="clipPath51"><rect id="rect53" width="22" height="22" x="433" y="77" fill="#6d6d6d" color="#bebebe" opacity=".2" rx="3"/></clipPath><clipPath id="clipPath55"><rect id="rect57" width="240" height="240" x="24" y="36" fill="#986767" color="#bebebe" rx="50"/></clipPath><clipPath id="clipPath59"><rect id="rect61" width="240" height="240" x="24" y="36" fill="#986767" color="#bebebe" rx="50"/></clipPath><clipPath id="clipPath63"><path id="path65" d="m 104,100 0,40 -40,0 0,40 40,0 0,40 40,0 80,0 0,-120 -80,0 -40,0 z"/></clipPath><clipPath id="clipPath67"><rect id="rect69" width="90" height="90" x="307" y="31" fill="url(#4)" color="#bebebe" rx="18.75"/></clipPath><clipPath id="clipPath71"><rect id="rect73" width="16" height="16" x="432" y="116" fill="#6d6d6d" color="#bebebe" opacity=".2" rx="2"/></clipPath><clipPath id="clipPath75"><rect id="rect77" width="30" height="30" x="433" y="29" color="#bebebe" rx="6"/></clipPath><clipPath id="clipPath79"><rect id="rect81" width="30" height="30" x="433" y="29" fill="#6d6d6d" color="#bebebe" opacity=".2" rx="4"/></clipPath><clipPath id="clipPath83"><rect id="rect85" width="16" height="16" x="432" y="116" fill="#6d6d6d" color="#bebebe" opacity=".2" rx="2"/></clipPath><clipPath id="clipPath87"><rect id="rect89" width="22" height="22" x="433" y="77" fill="#6d6d6d" color="#bebebe" opacity=".2" rx="3"/></clipPath><clipPath id="clipPath91"><rect id="rect93" width="90" height="90" x="307" y="31" fill="url(#8)" color="#bebebe" rx="18.75"/></clipPath><clipPath id="clipPath95"><rect id="rect97" width="22" height="22" x="433" y="77" color="#bebebe" rx="5"/></clipPath><clipPath id="clipPath99"><rect id="rect101" width="42" height="42" x="307" y="223" fill="url(#3)" color="#bebebe" rx="9" transform="rotate(90)"/></clipPath><clipPath id="clipPath103"><rect id="rect105" width="30" height="30" x="433" y="29" color="#bebebe" rx="6"/></clipPath><clipPath id="clipPath107"><rect id="rect109" width="22" height="22" x="433" y="77" color="#bebebe" rx="4"/></clipPath><clipPath id="clipPath111"><rect id="rect113" width="60" height="60" x="306" y="142" fill="url(#6)" color="#bebebe" rx="12.5" transform="matrix(0 -1 1 0 0 0)"/></clipPath><clipPath id="clipPath115"><rect id="rect117" width="20" height="20" x="434" y="78" color="#bebebe" rx="4"/></clipPath><clipPath id="clipPath119"><rect id="rect121" width="22" height="22" x="433" y="77" color="#bebebe" rx="5"/></clipPath><clipPath id="clipPath123"><rect id="rect125" width="16" height="16" x="432" y="116" color="#bebebe" rx="3"/></clipPath><linearGradient id="9" x2="0" y1="280" y2="40" gradientTransform="matrix(.175 0 0 .175 302.79999 215.99997)" gradientUnits="userSpaceOnUse" xlink:href="#2"/><linearGradient id="A" x2="0" y1="230" y2="90" gradientTransform="matrix(.375 0 0 .375 298 16)" gradientUnits="userSpaceOnUse" xlink:href="#1"/><linearGradient id="B" x2="0" y1="230" y2="90" gradientTransform="matrix(.25 0 0 .25 299.99999 131.99999)" gradientUnits="userSpaceOnUse" xlink:href="#1"/><linearGradient id="C" x2="0" y1="230" y2="90" gradientTransform="matrix(.25 0 0 .25 299.99999 131.99999)" gradientUnits="userSpaceOnUse" xlink:href="#2"/><linearGradient id="D" x2="0" y1="280" y2="40" gradientTransform="matrix(.175 0 0 .175 302.79999 215.99997)" gradientUnits="userSpaceOnUse" xlink:href="#1"/><linearGradient id="E" x2="0" y1="230" y2="90" gradientTransform="matrix(.375 0 0 .375 298 16)" gradientUnits="userSpaceOnUse" xlink:href="#2"/><clipPath id="clipPath133"><rect id="rect135" width="42" height="42" x="307" y="223" fill="url(#D)" color="#bebebe" rx="9" transform="rotate(90)"/></clipPath><clipPath id="clipPath137"><rect id="rect139" width="20" height="20" x="434" y="78" color="#bebebe" rx="4"/></clipPath><clipPath id="clipPath141"><rect id="rect143" width="16" height="16" x="432" y="116" color="#bebebe" rx="3"/></clipPath><clipPath id="clipPath145"><rect id="rect147" width="60" height="60" x="306" y="142" fill="url(#B)" color="#bebebe" rx="12.5" transform="matrix(0 -1 1 0 0 0)"/></clipPath><clipPath id="clipPath149"><rect id="rect151" width="30" height="30" x="433" y="29" fill="#6d6d6d" color="#bebebe" opacity=".2" rx="4"/></clipPath><clipPath id="clipPath153"><rect id="rect155" width="22" height="22" x="433" y="77" color="#bebebe" rx="4"/></clipPath><clipPath id="clipPath157"><rect id="rect159" width="22" height="22" x="433" y="77" fill="#6d6d6d" color="#bebebe" opacity=".2" rx="3"/></clipPath><clipPath id="clipPath161"><rect id="rect163" width="240" height="240" x="24" y="36" fill="#986767" color="#bebebe" rx="50"/></clipPath><clipPath id="clipPath165"><rect id="rect167" width="240" height="240" x="24" y="36" fill="#986767" color="#bebebe" rx="50"/></clipPath><clipPath id="clipPath169"><rect id="rect171" width="90" height="90" x="307" y="31" fill="url(#A)" color="#bebebe" rx="18.75"/></clipPath><clipPath id="clipPath173"><rect id="rect175" width="16" height="16" x="432" y="116" fill="#6d6d6d" color="#bebebe" opacity=".2" rx="2"/></clipPath><clipPath id="clipPath177"><rect id="rect179" width="30" height="30" x="433" y="29" color="#bebebe" rx="6"/></clipPath><clipPath id="clipPath181"><rect id="rect183" width="30" height="30" x="433" y="29" fill="#6d6d6d" color="#bebebe" opacity=".2" rx="4"/></clipPath><clipPath id="clipPath185"><rect id="rect187" width="16" height="16" x="432" y="116" fill="#6d6d6d" color="#bebebe" opacity=".2" rx="2"/></clipPath><clipPath id="clipPath189"><rect id="rect191" width="22" height="22" x="433" y="77" fill="#6d6d6d" color="#bebebe" opacity=".2" rx="3"/></clipPath><clipPath id="clipPath193"><rect id="rect195" width="90" height="90" x="307" y="31" fill="url(#E)" color="#bebebe" rx="18.75"/></clipPath><clipPath id="clipPath197"><rect id="rect199" width="22" height="22" x="433" y="77" color="#bebebe" rx="5"/></clipPath><clipPath id="clipPath201"><rect id="rect203" width="42" height="42" x="307" y="223" fill="url(#9)" color="#bebebe" rx="9" transform="rotate(90)"/></clipPath><clipPath id="clipPath205"><rect id="rect207" width="30" height="30" x="433" y="29" color="#bebebe" rx="6"/></clipPath><clipPath id="clipPath209"><rect id="rect211" width="22" height="22" x="433" y="77" color="#bebebe" rx="4"/></clipPath><clipPath id="clipPath213"><rect id="rect215" width="60" height="60" x="306" y="142" fill="url(#C)" color="#bebebe" rx="12.5" transform="matrix(0 -1 1 0 0 0)"/></clipPath><clipPath id="clipPath217"><rect id="rect219" width="20" height="20" x="434" y="78" color="#bebebe" rx="4"/></clipPath><clipPath id="clipPath221"><rect id="rect223" width="22" height="22" x="433" y="77" color="#bebebe" rx="5"/></clipPath><clipPath id="clipPath225"><rect id="rect227" width="16" height="16" x="432" y="116" color="#bebebe" rx="3"/></clipPath><linearGradient id="F" x2="0" y1="1050.36" y2="1006.36" gradientTransform="matrix(0.28222223,0,0,0.28222223,0,-283.45334)" gradientUnits="userSpaceOnUse" xlink:href="#0"/><radialGradient id="radial0" cx="148.004" cy="160" r="128" gradientTransform="matrix(0.1831,0,0,0.1831,-3.10029,-5.29688)" gradientUnits="userSpaceOnUse"><stop id="stop7-0" offset="0" stop-color="#b8cfa4"/><stop id="stop9-0" offset="1" stop-color="#3f941c" stop-opacity="1"/></radialGradient><radialGradient id="radialGradient3027" cx="148.004" cy="160" r="128" gradientTransform="matrix(0.05167489,0,0,0.05167489,-0.87511171,-1.4947562)" gradientUnits="userSpaceOnUse" xlink:href="#radial0"/></defs><path id="path11" fill="url(#radialGradient3027)" d="m 13.387776,3.2589259 0,7.0290971 c 0,2.892778 0,3.100035 -3.100035,3.100035 l -7.0279951,0 c -3.10113701,0 -3.10113701,-0.207257 -3.10113701,-3.100035 l 0,-7.0290971 c 0,-2.89277792 0,-3.10003487 3.10113701,-3.10003487 l 7.0279951,0 c 3.100035,0 3.100035,0.20725695 3.100035,3.10003487 z"/><path id="path15" fill="#fff" fill-opacity=".051" d="m 10.799269,13.388058 c 0.717682,-0.0033 1.235825,-0.02315 1.611753,-0.124574 l -1.193932,-2.046112 -1.2655901,2.170686 0.3362411,0 c 0.180799,0 0.350573,0 0.511528,0 z M 11.21709,11.217372 9.7707012,8.7369034 8.32321,11.217372 z m 0,0 2.159662,0 c 0.0088,-0.274505 0.01102,-0.582083 0.01102,-0.930451 l 0,-0.3097833 -0.723194,-1.2402343 z M 12.664581,8.7369034 11.21709,6.2564347 9.7707012,8.7369034 z m 0,0 0.723195,0 0,-1.2402343 z m -2.8938798,0 L 8.32321,6.2564347 6.876821,8.7369034 z m -2.8938802,0 -1.4474915,2.4804686 2.8938805,0 z m 0,0 -1.4474915,-2.4804687 -1.446389,2.4804687 z m -2.8938805,0 -1.4474913,2.4804686 2.8938803,0 z m 0,0 L 2.5354492,6.2564347 1.0890603,8.7369034 z m -2.8938802,0 -0.9304514,1.5941146 c 0,0.329627 0.003307,0.623976 0.0110242,0.886354 l 2.36581614,0 z m 0,0 -0.9304514,-1.5941145 0,1.5941145 z m 1.4463889,2.4804686 -1.2170833,2.086901 c 0.450894,0.08268 1.0748699,0.08378 1.9413802,0.08378 l 0.5423958,0 z m 0,-4.9609373 -1.4463889,-2.4804689 -0.9304514,1.5941147 0,0.8863542 z m 0,0 2.8938803,0 -1.446389,-2.4804689 z M 3.9829405,3.7759658 2.5354492,1.2954971 1.0890603,3.7759658 z m 0,0 2.8938805,0 -1.4474915,-2.4804687 z m 1.446389,-2.4804687 -0.6636631,-1.13660602 -1.5070227,0 c -0.020946,0 -0.038585,0 -0.059531,0 L 2.5354492,1.2954971 z m 0,0 2.8938805,0 -0.6636634,-1.13660602 -1.5665538,0 z m 2.8938805,0 2.89388,0 -0.663663,-1.13660602 c -0.08819,0 -0.171979,0 -0.266788,0 l -1.299766,0 z m 0,0 -1.446389,2.4804687 2.8938802,0 z m 1.4474912,2.4804687 2.8938798,0 -1.447491,-2.4804687 z m 0,0 -1.4474912,2.4804689 2.89388,0 z m 1.4463888,2.4804689 2.170686,0 0,-1.2402343 -0.723195,-1.2402346 z m 1.447491,-2.4804689 0.723195,0 0,-0.5170399 c 0,-0.2579689 -0.0022,-0.4938889 -0.0066,-0.71217 z M 8.32321,6.2564347 6.876821,3.7759658 5.4293295,6.2564347 z m 2.89388,-4.9609376 2.062648,0 C 13.123193,0.51718095 12.747264,0.27133914 11.859807,0.19416885 z m -8.6816408,0 L 1.8850153,0.17983733 C 0.85203767,0.23826608 0.4342164,0.46095692 0.26664695,1.2954971 z M 1.0890603,3.7759658 0.17514543,2.2083096 C 0.16301862,2.5114781 0.1586089,2.8598459 0.1586089,3.2589259 l 0,0.5170399 z m 4.3402692,7.4414062 -1.2655904,2.170686 2.532283,0 z m 2.8938805,0 -1.2655906,2.170686 2.5322832,0 z m -7.5913372,1.86862 -0.4519964,-0.775009 c 0.0826821,0.37152 0.22158848,0.615157 0.4519964,0.775009 z"/><path id="path246" fill="#f9f9f9" fill-opacity="1" d="M 10.211113,5.3090103 C 9.6162184,3.9674145 8.2847864,3.1044485 6.7845654,3.1044485 c -1.5344506,0 -2.9390636,0.9441302 -3.4914659,2.3454053 L 4.4569217,5.8914824 C 4.8251899,4.954514 5.7612044,4.3278787 6.7845654,4.3278787 c 0.98677,0 1.860227,0.5597942 2.265086,1.4346959 l -0.848669,0.3330115 2.1706576,1.228205 0.635027,-2.3251144 z"/><path id="path248" fill="#f9f9f9" fill-opacity="1" d="M 6.4983934,10.434432 C 5.8446564,10.391338 5.1121359,10.11679 4.5377431,9.699582 4.0766478,9.364667 3.7520488,8.9864782 3.4313983,8.4105847 3.3852044,8.3276197 3.3452274,8.2530342 3.3425607,8.2448387 3.3398907,8.2366439 3.2112069,8.2766193 3.0565901,8.3336727 2.6659561,8.4778166 2.5315691,8.5202022 2.5404057,8.4964762 2.5544567,8.4587493 2.7985942,7.6276806 2.8897774,7.3071785 3.0196571,6.8506611 3.19451,6.2620898 3.2027644,6.253634 c 0.00827,-0.00847 0.4474488,0.2279164 0.8550345,0.4602231 0.4449024,0.253576 0.7276397,0.4125763 1.0217404,0.5745858 0.1478834,0.081464 0.268879,0.1538268 0.268879,0.1608063 0,0.00698 -0.1507789,0.070845 -0.3350646,0.1419223 -0.434815,0.167705 -0.4591627,0.1785351 -0.4591627,0.2042394 0,0.036185 0.1645176,0.3187565 0.2486256,0.4270324 0.2866924,0.3690717 0.7511329,0.6980269 1.1942778,0.845887 0.279382,0.093218 0.459658,0.1202698 0.799134,0.1199148 0.265539,-2.78e-4 0.32116,-0.00555 0.512939,-0.048668 0.515446,-0.1158745 0.869663,-0.3053047 1.220926,-0.6529326 0.218177,-0.2159196 0.342553,-0.3815985 0.468249,-0.623746 0.0522,-0.1005587 0.09682,-0.1853913 0.09916,-0.1885166 0.0082,-0.010887 1.1651956,0.44514 1.1651956,0.4592374 0,0.027244 -0.160307,0.3455551 -0.262692,0.5216096 -0.1218146,0.2094671 -0.2392846,0.3631729 -0.4744656,0.6208246 -0.489464,0.536231 -1.195117,0.9254165 -1.976452,1.0900685 -0.30426,0.06411 -0.712082,0.09063 -1.050696,0.06831 l 0,0 z"/></svg>