<svg xmlns="http://www.w3.org/2000/svg" xmlns:svg="http://www.w3.org/2000/svg" xmlns:xlink="http://www.w3.org/1999/xlink" id="svg2" width="48" height="48" version="1.1" viewBox="0 0 13.547 13.547"><metadata id="metadata64"/><defs id="defs4"><linearGradient id="0"><stop id="stop7" stop-color="#383838"/><stop id="stop9" offset="1" stop-color="#707070"/></linearGradient><linearGradient id="1" x2="0" y1="1050.36" y2="1006.36" gradientTransform="matrix(0.28222223,0,0,0.28222223,0,-283.45334)" gradientUnits="userSpaceOnUse" xlink:href="#0"/><radialGradient id="radial0" cx="148.004" cy="160" r="128" gradientTransform="matrix(0.1831,0,0,0.1831,-3.10029,-5.29688)" gradientUnits="userSpaceOnUse"><stop id="stop7-4" offset="0" stop-color="#fbc6d7"/><stop id="stop9-9" offset="1" stop-color="#950b36"/></radialGradient><radialGradient id="radialGradient3048" cx="148.004" cy="160" r="128" gradientTransform="matrix(0.05167489,0,0,0.05167489,-0.87511211,-1.4947562)" gradientUnits="userSpaceOnUse" xlink:href="#radial0"/></defs><path id="path11" fill="url(#radialGradient3048)" d="m 13.387776,3.2589259 0,7.0290971 c 0,2.892778 0,3.100035 -3.100035,3.100035 l -7.0279951,0 c -3.10113701,0 -3.10113701,-0.207257 -3.10113701,-3.100035 l 0,-7.0290971 c 0,-2.89277792 0,-3.10003483 3.10113701,-3.10003483 l 7.0279951,0 c 3.100035,0 3.100035,0.20725691 3.100035,3.10003483 z"/><path id="path15" fill="#fff" fill-opacity=".051" d="m 10.799269,13.388058 c 0.717682,-0.0033 1.235825,-0.02315 1.611753,-0.124574 l -1.193932,-2.046112 -1.2655901,2.170686 0.3362411,0 c 0.180799,0 0.350573,0 0.511528,0 z M 11.21709,11.217372 9.7707012,8.7369034 8.32321,11.217372 z m 0,0 2.159662,0 c 0.0088,-0.274505 0.01102,-0.582083 0.01102,-0.930451 l 0,-0.3097833 -0.723194,-1.2402343 z M 12.664581,8.7369034 11.21709,6.2564347 9.7707012,8.7369034 z m 0,0 0.723195,0 0,-1.2402343 z m -2.8938798,0 L 8.32321,6.2564347 6.876821,8.7369034 z m -2.8938802,0 -1.4474915,2.4804686 2.8938805,0 z m 0,0 -1.4474915,-2.4804687 -1.446389,2.4804687 z m -2.8938805,0 -1.4474913,2.4804686 2.8938803,0 z m 0,0 L 2.5354492,6.2564347 1.0890603,8.7369034 z m -2.8938802,0 -0.9304514,1.5941146 c 0,0.329627 0.003307,0.623976 0.0110242,0.886354 l 2.36581614,0 z m 0,0 -0.9304514,-1.5941145 0,1.5941145 z m 1.4463889,2.4804686 -1.2170833,2.086901 c 0.450894,0.08268 1.0748699,0.08378 1.9413802,0.08378 l 0.5423958,0 z m 0,-4.9609373 -1.4463889,-2.4804689 -0.9304514,1.5941147 0,0.8863542 z m 0,0 2.8938803,0 -1.446389,-2.4804689 z M 3.9829405,3.7759658 2.5354492,1.2954971 1.0890603,3.7759658 z m 0,0 2.8938805,0 -1.4474915,-2.4804687 z m 1.446389,-2.4804687 -0.6636631,-1.13660602 -1.5059203,0 c -0.02205,0 -0.039687,0 -0.060634,0 L 2.5354492,1.2954971 z m 0,0 2.8938805,0 -0.6636634,-1.13660602 -1.5665538,0 z m 2.8938805,0 2.89388,0 -0.663663,-1.13660602 c -0.08819,0 -0.171979,0 -0.265686,0 l -1.300868,0 z m 0,0 -1.446389,2.4804687 2.8938802,0 z m 1.4474912,2.4804687 2.8938798,0 -1.447491,-2.4804687 z m 0,0 -1.4474912,2.4804689 2.89388,0 z m 1.4463888,2.4804689 2.170686,0 0,-1.2402343 -0.723195,-1.2402346 z m 1.447491,-2.4804689 0.723195,0 0,-0.5170399 c 0,-0.2579689 -0.0022,-0.4938889 -0.0066,-0.71217 z M 8.32321,6.2564347 6.876821,3.7759658 5.4293295,6.2564347 z m 2.89388,-4.9609376 2.062648,0 C 13.123193,0.51718095 12.747264,0.27133914 11.859807,0.19416885 z m -8.6816408,0 L 1.8850153,0.17983733 C 0.85203767,0.23826608 0.4342164,0.46095692 0.26664695,1.2954971 z M 1.0890603,3.7759658 0.17514543,2.2083096 C 0.16301862,2.5114781 0.1586089,2.8598459 0.1586089,3.2589259 l 0,0.5170399 z m 4.3402692,7.4414062 -1.2655904,2.170686 2.532283,0 z m 2.8938805,0 -1.2655906,2.170686 2.5322832,0 z m -7.5913372,1.86862 -0.4519964,-0.775009 c 0.0826821,0.37152 0.22158848,0.615157 0.4519964,0.775009 z"/><path id="path28" fill="#f9f9f9" fill-opacity="1" d="M 4.3152,5.99624 A 0.58161039,0.59340663 0.02728205 1 1 3.4354343,6.7726743 0.58161039,0.59340663 0.02728205 1 1 4.3152,5.99624 z"/><path id="path30" fill="#f9f9f9" fill-opacity="1" d="M 9.80849,4.98396 A 0.58161039,0.59340663 0.02728205 1 1 8.9287243,5.7603943 0.58161039,0.59340663 0.02728205 1 1 9.80849,4.98396 z"/><path id="path32" fill="#f9f9f9" fill-opacity="1" d="M 8.82199,3.82045 A 0.58161039,0.59340663 0.02728205 1 1 7.9422243,4.5968843 0.58161039,0.59340663 0.02728205 1 1 8.82199,3.82045 z"/><path id="path34" fill="#f9f9f9" fill-opacity="1" d="M 7.39213,3.30977 A 0.58161039,0.59340663 0.02728205 1 1 6.5123643,4.0862043 0.58161039,0.59340663 0.02728205 1 1 7.39213,3.30977 z"/><path id="path36" fill="#f9f9f9" fill-opacity="1" d="M 5.93767,3.57632 A 0.58161039,0.59340663 0.02728205 1 1 5.0579043,4.3527543 0.58161039,0.59340663 0.02728205 1 1 5.93767,3.57632 z"/><path id="path38" fill="#f9f9f9" fill-opacity="1" d="M 4.79725,4.58279 A 0.58161039,0.59340663 0.02728205 1 1 3.9174843,5.3592243 0.58161039,0.59340663 0.02728205 1 1 4.79725,4.58279 z"/><path id="path40" fill="#f9f9f9" fill-opacity="1" d="M 4.59056,7.49677 A 0.58161039,0.59340663 0.02728205 1 1 3.7107943,8.2732043 0.58161039,0.59340663 0.02728205 1 1 4.59056,7.49677 z"/><path id="path42" fill="#f9f9f9" fill-opacity="1" d="M 5.53037,8.67242 A 0.58161039,0.59340663 0.02728205 1 1 4.6506043,9.4488543 0.58161039,0.59340663 0.02728205 1 1 5.53037,8.67242 z"/><path id="path44" fill="#f9f9f9" fill-opacity="1" d="m 8.1594121,6.5278283 c -0.093681,0 -0.1690988,0.076945 -0.1690988,0.1725232 l 0,0.2372194 C 7.9045245,6.9644471 7.82007,6.9980358 7.7419495,7.0400066 L 7.5781351,6.8728747 c -0.066242,-0.067584 -0.1768372,-0.067584 -0.2430795,0 L 6.9757208,7.2394866 c -0.066242,0.067584 -0.066242,0.1804184 0,0.2480021 L 7.1395352,7.6546206 C 7.0983975,7.734323 7.0654755,7.8204878 7.0391328,7.908014 l -0.2325108,0 c -0.093681,0 -0.1690988,0.076945 -0.1690988,0.1725233 l 0,0.5175696 c 0,0.095578 0.075418,0.1725233 0.1690988,0.1725233 l 0.2325108,0 c 0.026343,0.087526 0.059265,0.173691 0.1004024,0.2533934 L 6.9757208,9.1911555 c -0.066242,0.067584 -0.066242,0.1804184 0,0.2480021 l 0.3593348,0.3666119 c 0.066242,0.067584 0.1768372,0.067584 0.2430795,0 L 7.7419495,9.6386376 c 0.078121,0.041971 0.162575,0.07556 0.2483638,0.1024357 l 0,0.2372194 c 0,0.095578 0.075418,0.1725233 0.1690988,0.1725233 l 0.5072963,0 c 0.093681,0 0.1690987,-0.07695 0.1690987,-0.1725233 l 0,-0.2372194 c 0.085789,-0.026876 0.1702434,-0.060465 0.2483638,-0.1024357 l 0.1638144,0.1671319 c 0.066242,0.067584 0.1768373,0.067584 0.2430795,0 L 9.8503997,9.4391576 c 0.066242,-0.067584 0.066242,-0.1804184 0,-0.2480021 L 9.6865853,9.0240236 c 0.041138,-0.079702 0.07406,-0.1658674 0.1004023,-0.2533934 l 0.2325104,0 c 0.09368,0 0.169099,-0.076945 0.169099,-0.1725233 l 0,-0.5175696 c 0,-0.095578 -0.07542,-0.1725233 -0.169099,-0.1725233 l -0.2325104,0 C 9.7606449,7.8204878 9.7277229,7.734323 9.6865853,7.6546206 L 9.8503997,7.4874887 c 0.066242,-0.067584 0.066242,-0.1804184 0,-0.2480021 L 9.4910648,6.8728747 c -0.066242,-0.067584 -0.1768372,-0.067584 -0.2430795,0 L 9.0841709,7.0400066 C 9.0060505,6.9980358 8.9215958,6.9644471 8.8358071,6.9375709 l 0,-0.2372194 c 0,-0.095578 -0.075418,-0.1725232 -0.1690987,-0.1725232 l -0.5072963,0 z M 8.4130602,7.908014 c 0.2334767,0 0.4227469,0.1931032 0.4227469,0.4313081 0,0.2382049 -0.1892702,0.4313081 -0.4227469,0.4313081 -0.2334767,0 -0.4227469,-0.1931032 -0.4227469,-0.4313081 0,-0.2382049 0.1892702,-0.4313081 0.4227469,-0.4313081 z" color="#000" display="block"/><path id="path46" fill="#f9f9f9" fill-opacity="1" d="m 6.4656257,3.9753568 a 1.8945634,2.5977393 81.735783 0 1 0.9508027,-0.00179 L 6.7164567,5.8533011 z"/><path id="path48" fill="#f9f9f9" fill-opacity="1" d="M 7.8206015,4.2026016 A 2.6049258,1.8892891 24.151367 0 1 8.6399877,4.6946333 L 7.0999556,5.9494938 z"/><path id="path50" fill="#f9f9f9" fill-opacity="1" d="M 8.9168246,5.0701796 A 2.631143,1.8704684 54.971565 0 1 9.3784807,5.9182128 L 7.4274334,6.2028647 z"/><path id="path52" fill="#f9f9f9" fill-opacity="1" d="M 5.186176,4.3773624 A 1.8802097,2.6174031 50.098227 0 1 6.0054302,3.8850869 L 6.3336103,5.867787 z"/><path id="path54" fill="#f9f9f9" fill-opacity="1" d="M 4.3740586,5.5581144 A 1.8609077,2.6446343 16.693598 0 1 4.7807907,4.6813091 l 1.3632704,1.4521195 z"/><path id="path56" fill="#f9f9f9" fill-opacity="1" d="M 4.2003828,6.8796284 A 2.6472108,1.8590821 78.969033 0 1 4.1332885,5.9120053 l 1.8861356,0.5832974 z"/><path id="path58" fill="#f9f9f9" fill-opacity="1" d="M 4.6730636,8.1316549 A 2.626038,1.8741109 49.367911 0 1 4.1313068,7.334494 L 6.0451185,6.85392 z"/><path id="path60" fill="#f9f9f9" fill-opacity="1" d="m 5.6800114,9.0094834 a 2.600945,1.8921987 17.058383 0 1 -0.870503,-0.390166 l 1.3844717,-1.43113 z"/>&gt;&gt;&gt;&gt;&gt;&gt;&gt; 00eadd1dc56406a6f6f4af04d503dfe99ce73353</svg>