<svg xmlns="http://www.w3.org/2000/svg" xmlns:svg="http://www.w3.org/2000/svg" xmlns:xlink="http://www.w3.org/1999/xlink" id="svg2" width="48" height="48" version="1.1" viewBox="0 0 13.547 13.547"><metadata id="metadata34"/><defs id="defs4"><linearGradient id="0"><stop id="stop7" stop-color="#dcdcdc"/><stop id="stop9" offset="1" stop-color="#f7f7f7"/></linearGradient><linearGradient id="1" x2="0" y1="1050.36" y2="1006.36" gradientTransform="matrix(0.28222223,0,0,0.28222223,0,-283.45334)" gradientUnits="userSpaceOnUse" xlink:href="#0"/><radialGradient id="radialGradient3015" cx="148.004" cy="160" r="128" gradientTransform="matrix(0.05167489,0,0,0.05167489,-0.8749708,-1.4948998)" gradientUnits="userSpaceOnUse" spreadMethod="pad" xlink:href="#linearGradient4460"/><linearGradient id="linearGradient4460"><stop id="stop8-6" offset="0" stop-color="#aaa" stop-opacity="1"/><stop id="stop10-2" offset="1" stop-color="#9d9d9d" stop-opacity="1"/></linearGradient><radialGradient id="radialGradient3016" cx="148.004" cy="160" r="128" gradientTransform="matrix(0.05167489,0,0,0.05167489,-0.87511191,-1.4947622)" gradientUnits="userSpaceOnUse" spreadMethod="pad" xlink:href="#linearGradient4460"/></defs><path id="path11" fill="url(#radialGradient3016)" fill-opacity="1" d="m 13.387776,3.2589196 0,7.0290974 c 0,2.892779 0,3.100036 -3.100035,3.100036 l -7.0279949,0 c -3.10113721,0 -3.10113721,-0.207257 -3.10113721,-3.100036 l 0,-7.0290974 c 0,-2.89277749 0,-3.10003449 3.10113721,-3.10003449 l 7.0279949,0 c 3.100035,0 3.100035,0.207257 3.100035,3.10003449 z"/><path id="path15-7" fill="#fff" fill-opacity=".051" d="m 10.799269,13.388053 c 0.717682,-0.0033 1.235825,-0.02315 1.611753,-0.124576 l -1.193932,-2.04611 -1.2655902,2.170686 0.3362412,0 c 0.180799,0 0.350573,0 0.511528,0 z M 11.21709,11.217367 9.7707012,8.7368971 8.3232099,11.217367 z m 0,0 2.159662,0 c 0.0088,-0.274506 0.01102,-0.582084 0.01102,-0.930452 l 0,-0.3097836 L 12.66458,8.7368971 z M 12.664582,8.7368971 11.21709,6.2564284 9.7707012,8.7368971 z m 0,0 0.723194,0 0,-1.2402343 z m -2.8938808,0 L 8.3232099,6.2564284 6.876821,8.7368971 z m -2.8938802,0 -1.4474916,2.4804679 2.8938805,0 z m 0,0 L 5.4293294,6.2564284 3.9829405,8.7368971 z m -2.8938805,0 -1.4474913,2.4804679 2.8938802,0 z m 0,0 L 2.5354492,6.2564284 1.0890603,8.7368971 z m -2.8938802,0 -0.93045141,1.5941159 c 0,0.329626 0.00331,0.623975 0.011024,0.886354 l 2.36581621,0 z m 0,0 -0.93045141,-1.5941145 0,1.5941145 z m 1.4463889,2.4804699 -1.2170833,2.086901 c 0.450894,0.08268 1.0748699,0.08379 1.9413802,0.08379 l 0.5423958,0 z m 0,-4.9609386 -1.4463889,-2.4804689 -0.93045141,1.5941148 0,0.8863541 z m 0,0 2.8938802,0 L 3.9829405,3.7759595 z M 3.9829405,3.7759595 2.5354492,1.2954911 1.0890603,3.7759595 z m 0,0 2.8938805,0 -1.4474916,-2.4804684 z m 1.4463889,-2.4804684 -0.663663,-1.13660599 -1.5059203,0 c -0.02205,0 -0.039688,0 -0.060634,0 L 2.5354492,1.2954911 z m 0,0 2.8938805,0 -0.6636633,-1.13660599 -1.5665538,0 z m 2.8938805,0 2.8938801,0 -0.663663,-1.13660599 c -0.0882,0 -0.171979,0 -0.265686,0 l -1.300868,0 z m 0,0 -1.4463889,2.4804684 2.8938802,0 z m 1.4474913,2.4804684 2.8938808,0 -1.447492,-2.4804684 z m 0,0 -1.4474913,2.4804689 2.8938801,0 z m 1.4463888,2.4804689 2.170686,0 0,-1.2402343 -0.723194,-1.2402346 z m 1.447492,-2.4804689 0.723194,0 0,-0.5170399 c 0,-0.2579689 -0.0022,-0.4938886 -0.0066,-0.7121697 z M 8.3232099,6.2564284 6.876821,3.7759595 5.4293294,6.2564284 z m 2.8938801,-4.9609373 2.062648,0 C 13.123193,0.51717501 12.747264,0.27133321 11.859807,0.19416291 z m -8.6816408,0 L 1.8850153,0.17983141 C 0.85203769,0.23826041 0.43421639,0.46095101 0.26664699,1.2954911 z M 1.0890603,3.7759595 0.17514539,2.2083036 c -0.012127,0.3031685 -0.016535,0.6515363 -0.016535,1.050616 l 0,0.5170399 z m 4.3402691,7.4414075 -1.2655903,2.170686 2.532283,0 z m 2.8938805,0 -1.2655906,2.170686 2.5322833,0 z m -7.59133711,1.868619 -0.4519964,-0.775009 c 0.082682,0.371519 0.2215885,0.615158 0.4519964,0.775009 z"/><path id="path28" fill="#f9f9f9" fill-opacity="1" fill-rule="evenodd" d="M 18.65625,11.03125 C 17.196179,11.03125 16,12.001227 16,13.1875 l 0,21.65625 c 0,1.186354 1.196179,2.1875 2.65625,2.1875 l 10.65625,0 c 1.460071,0 2.6875,-1.001146 2.6875,-2.1875 L 32,13.1875 c 0,-1.186273 -1.227429,-2.15625 -2.6875,-2.15625 z M 19,13 29,13 c 0.923373,0 1,0.249739 1,1 l 0,10 c 0,0.750261 -0.07663,1 -1,1 l -10,0 c -0.923373,0 -1,-0.249739 -1,-1 l 0,-10 c 0,-0.656478 0.241138,-0.985308 1,-1 z m 5,14 c 2.20914,0 4,1.79086 4,4 0,2.20914 -1.79086,4 -4,4 -2.20914,0 -4,-1.79086 -4,-4 0,-2.20914 1.79086,-4 4,-4 z" color="#000" transform="scale(0.28222223,0.28222223)"/><path id="path30" fill="#f9f9f9" fill-opacity="1" fill-rule="evenodd" d="m 7.33772,8.7488891 c 0,0.3117342 -0.2527083,0.5644445 -0.56444,0.5644445 -0.3117317,0 -0.56444,-0.2527103 -0.56444,-0.5644445 0,-0.3117341 0.2527083,-0.5644444 0.56444,-0.5644444 0.3117317,0 0.56444,0.2527103 0.56444,0.5644444 z"/></svg>