<svg xmlns="http://www.w3.org/2000/svg" xmlns:svg="http://www.w3.org/2000/svg" xmlns:xlink="http://www.w3.org/1999/xlink" id="svg2" width="48" height="48" version="1.1" viewBox="0 0 13.547 13.547"><metadata id="metadata212"/><defs id="defs4"><clipPath id="clipPath6"><rect id="rect8" width="477.14" height="208.57" x="-830" y="1580.93" fill="#ff0"/></clipPath><clipPath id="clipPath10"><rect id="rect12" width="477.14" height="208.57" x="-830" y="1580.93" fill="#ff0"/></clipPath><clipPath id="clipPath14"><rect id="rect16" width="477.14" height="208.57" x="-830" y="1580.93" fill="#ff0"/></clipPath><clipPath id="clipPath18"><rect id="rect20" width="477.14" height="208.57" x="-830" y="1580.93" fill="#ff0"/></clipPath><clipPath id="clipPath22"><rect id="rect24" width="357.87" height="240.87" x="294.93" y="780.64" fill="red" transform="matrix(.99975 -.02255 .02255 .99975 0 0)"/></clipPath><clipPath id="clipPath26"><rect id="rect28" width="301.43" height="195" y="857.54" fill="#fff"/></clipPath><clipPath id="clipPath30"><rect id="rect32" width="477.14" height="208.57" x="-830" y="1580.93" fill="#ff0"/></clipPath><clipPath id="clipPath34"><rect id="rect36" width="79.48" height="30.01" x="276.37" y="977.09" fill="#e20a17"/></clipPath><clipPath id="clipPath38"><rect id="rect40" width="506.46" height="37.48" x="8.208" y=".064" fill="#162d50" transform="rotate(20.37582)"/></clipPath><clipPath id="clipPath42"><rect id="rect44" width="357.38" height="318.4" x="218.9" y="758.67" fill="#fff" transform="rotate(.22918)"/></clipPath><clipPath id="clipPath46"><rect id="rect48" width="357.38" height="318.4" x="218.9" y="758.67" fill="#fff" transform="rotate(.22918)"/></clipPath><clipPath id="clipPath50"><rect id="rect52" width="506.46" height="37.48" x="8.208" y=".064" fill="#162d50" transform="rotate(20.37582)"/></clipPath><clipPath id="clipPath54"><rect id="rect56" width="477.14" height="208.57" x="-830" y="1580.93" fill="#ff0"/></clipPath><clipPath id="clipPath58"><rect id="rect60" width="350.46" height="235.88" x="221.39" y="804.24" transform="rotate(.6171)"/></clipPath><clipPath id="clipPath62"><rect id="rect64" width="287.43" height="279.03" x="257.32" y="793.52" fill="#fff" transform="rotate(.16206)"/></clipPath><clipPath id="clipPath66"><rect id="rect68" width="301.43" height="195" y=".06" fill="#fff"/></clipPath><clipPath id="clipPath70"><rect id="rect72" width="301.43" height="195" y="857.54" fill="#fff"/></clipPath><path id="0" fill="#4a0" d="m 699.2857,672.93231 a 40.714287,40.714287 0 1 1 -81.42858,0 40.714287,40.714287 0 1 1 81.42858,0 z" clip-path="url(#2)"/><clipPath id="clipPath75"><use id="use77" transform="matrix(4.3233 0 0 4.3233 -2450.68 -2667.55)" xlink:href="#0"/></clipPath><clipPath id="clipPath79"><rect id="rect81" width="63.987" height="41.39" x="448.12" y="815.74" fill="#fff" transform="rotate(27.44968)"/></clipPath><clipPath id="clipPath83"><rect id="rect85" width="301.43" height="195" y="857.54" fill="#fff"/></clipPath><clipPath id="clipPath87"><rect id="rect89" width="477.14" height="208.57" x="-830" y="1580.93" fill="#ff0"/></clipPath><clipPath id="clipPath91"><rect id="rect93" width="477.14" height="208.57" x="-830" y="1580.93" fill="#ff0"/></clipPath><clipPath id="clipPath95"><rect id="rect97" width="477.14" height="208.57" x="-830" y="1580.93" fill="#ff0"/></clipPath><clipPath id="clipPath99"><rect id="rect101" width="477.14" height="208.57" x="-830" y="1580.93" fill="#ff0"/></clipPath><clipPath id="clipPath103"><rect id="rect105" width="477.14" height="208.57" x="-830" y="1580.93" fill="#ff0"/></clipPath><clipPath id="clipPath107"><use id="use109" xlink:href="#0"/></clipPath><clipPath id="clipPath111"><rect id="rect113" width="477.14" height="208.57" x="-830" y="1580.93" fill="#ff0"/></clipPath><path id="1" fill="#4a0" d="m 699.2857,672.93231 a 40.714287,40.714287 0 1 1 -81.42858,0 40.714287,40.714287 0 1 1 81.42858,0 z"/><clipPath id="2"><use id="use117" xlink:href="#1"/></clipPath><clipPath id="clipPath119"><use id="use121" transform="matrix(4.3233 0 0 4.3233 -2450.68 -2667.55)" xlink:href="#1"/></clipPath><linearGradient id="3"><stop id="stop124"/><stop id="stop126" offset="1" stop-color="#1b1b1b"/></linearGradient><linearGradient id="4" x2="0" y1="124" y2="28" gradientTransform="matrix(2.6666671,0,0,2.6666671,-752.66687,-47.08337)" gradientUnits="userSpaceOnUse" xlink:href="#F"/><clipPath id="clipPath129"><rect id="rect131" width="234.67" height="234.67" x="26" y="38.25" fill="url(#4)" color="#bebebe" rx="48"/></clipPath><linearGradient id="5" x2="0" y1="288" y2="32" gradientTransform="translate(-3.25e-5,-6)" gradientUnits="userSpaceOnUse" xlink:href="#F"/><clipPath id="clipPath134"><rect id="rect136" width="220" height="220" x="34" y="44" fill="url(#5)" color="#bebebe" rx="50"/></clipPath><linearGradient id="6" x2="0" y1="299.81" y2="31.619" gradientTransform="matrix(0.11931818,0,0,0.11931818,414.13636,48.22727)" gradientUnits="userSpaceOnUse" xlink:href="#F"/><clipPath id="clipPath139"><rect id="rect141" width="30" height="30" x="417" y="53" fill="url(#6)" color="#bebebe" rx="7"/></clipPath><linearGradient id="7" x2="0" y1="302.86" y2="28.571" gradientTransform="matrix(0.0875,0,0,0.0875,414.9,97.5)" gradientUnits="userSpaceOnUse" xlink:href="#F"/><clipPath id="clipPath144"><rect id="rect146" width="22" height="22" x="417" y="101" fill="url(#7)" color="#bebebe" rx="5"/></clipPath><linearGradient id="8" x2="0" y1="124" y2="28" gradientUnits="userSpaceOnUse" xlink:href="#F"/><clipPath id="clipPath149"><rect id="rect151" width="88" height="88" x="292" y="32" fill="url(#8)" color="#bebebe" rx="18"/></clipPath><linearGradient id="9" x2="0" y1="204" y2="140" gradientUnits="userSpaceOnUse" xlink:href="#F"/><clipPath id="clipPath154"><rect id="rect156" width="60" height="60" x="290" y="142" fill="url(#9)" color="#bebebe" rx="12.5"/></clipPath><linearGradient id="A" x2="0" y1="280" y2="40" gradientTransform="translate(0,-4)" gradientUnits="userSpaceOnUse" xlink:href="#F"/><clipPath id="clipPath159"><rect id="rect161" width="220" height="220" x="34" y="46" fill="url(#A)" color="#bebebe" rx="50"/></clipPath><linearGradient id="B" x2="0" y1="280" y2="40" gradientTransform="matrix(0.06666667,0,0,0.06666667,302.4,209.33333)" gradientUnits="userSpaceOnUse" xlink:href="#F"/><clipPath id="clipPath164"><rect id="rect166" width="16" height="16" x="304" y="212" fill="url(#B)" color="#bebebe" rx="3" transform="matrix(0,1,-1,0,0,0)"/></clipPath><linearGradient id="C" x2="0" y1="291.43" y2="40" gradientTransform="matrix(0.11931818,0,0,0.11931818,430.13636,32.227267)" gradientUnits="userSpaceOnUse" xlink:href="#F"/><clipPath id="clipPath169"><rect id="rect171" width="30" height="30" x="433" y="37" fill="url(#C)" color="#bebebe" rx="6"/></clipPath><linearGradient id="D" x2="0" y1="291.43" y2="40" gradientTransform="matrix(0.0875,0,0,0.0875,430.9,81.499996)" gradientUnits="userSpaceOnUse" xlink:href="#F"/><clipPath id="clipPath174"><rect id="rect176" width="22" height="22" x="433" y="85" fill="url(#D)" color="#bebebe" rx="4"/></clipPath><linearGradient id="E" x2="0" y1="280" y2="40" gradientTransform="matrix(0.175,0,0,0.175,302.79999,215.99997)" gradientUnits="userSpaceOnUse" xlink:href="#F"/><clipPath id="clipPath179"><rect id="rect181" width="42" height="42" x="307" y="223" fill="url(#E)" color="#bebebe" rx="9" transform="matrix(0,1,-1,0,0,0)"/></clipPath><linearGradient id="F"><stop id="stop184" stop-color="#7cab4d"/><stop id="stop186" offset="1" stop-color="#aedc88"/></linearGradient><linearGradient id="G" x2="0" y1="81.38" y2="21.384" gradientTransform="matrix(0.62028533,0,0,0.6,-106.57307,133.1925)" gradientUnits="userSpaceOnUse" xlink:href="#3"/><linearGradient id="H" x2="0" y1="1050.36" y2="1006.36" gradientTransform="matrix(0.28222223,0,0,0.28222223,0,-283.45334)" gradientUnits="userSpaceOnUse" xlink:href="#F"/><radialGradient id="radialGradient3013" cx="148.004" cy="160" r="128" gradientTransform="matrix(0.05167489,0,0,0.05167489,-0.87510811,-1.4947611)" gradientUnits="userSpaceOnUse" xlink:href="#radial0"/><radialGradient id="radial0" cx="148.004" cy="160" r="128" gradientTransform="matrix(0.1831,0,0,0.1831,-3.10029,-5.29688)" gradientUnits="userSpaceOnUse"><stop id="stop7-6" offset="0" stop-color="#bded7d" stop-opacity="1"/><stop id="stop9-6" offset="1" stop-color="#6ab700" stop-opacity="1"/></radialGradient><radialGradient id="radialGradient3010" cx="148.004" cy="160" r="128" gradientTransform="matrix(0.05167489,0,0,0.05167489,-0.87510811,-1.4947611)" gradientUnits="userSpaceOnUse" xlink:href="#radial0"/></defs><path id="path11" fill="url(#radialGradient3010)" d="m 13.387779,3.2589209 0,7.0290971 c 0,2.892778 0,3.100035 -3.100035,3.100035 l -7.0279944,0 c -3.10113671,0 -3.10113671,-0.207257 -3.10113671,-3.100035 l 0,-7.0290971 c 0,-2.89277789 0,-3.10003479 3.10113671,-3.10003479 l 7.0279944,0 c 3.100035,0 3.100035,0.2072569 3.100035,3.10003479 z"/><path id="path15" fill="#fff" fill-opacity=".051" d="m 10.799272,13.388053 c 0.717682,-0.0033 1.235825,-0.02315 1.611753,-0.124575 l -1.193932,-2.046111 -1.2655896,2.170686 0.3362406,0 c 0.180799,0 0.350573,0 0.511528,0 z M 11.217093,11.217367 9.7707045,8.7368981 8.3232135,11.217367 z m 0,0 2.159662,0 c 0.0088,-0.274505 0.01102,-0.582083 0.01102,-0.930451 l 0,-0.3097829 -0.723194,-1.240235 z M 12.664585,8.7368981 11.217093,6.2564297 9.7707045,8.7368981 z m 0,0 0.723194,0 0,-1.240234 z m -2.8938805,0 -1.447491,-2.4804684 -1.4463889,2.4804684 z m -2.8938799,0 -1.4474922,2.4804689 2.8938811,0 z m 0,0 L 5.4293324,6.2564297 3.9829435,8.7368981 z m -2.8938811,0 -1.447491,2.4804689 2.8938799,0 z m 0,0 -1.447491,-2.4804684 -1.4463886,2.4804684 z m -2.8938796,0 -0.93045101,1.5941149 c 0,0.329627 0.0033,0.623976 0.01102,0.886354 l 2.36581561,0 z m 0,0 -0.93045101,-1.5941142 0,1.5941142 z m 1.4463886,2.4804689 -1.2170826,2.086901 c 0.4508936,0.08268 1.0748696,0.08379 1.9402776,0.08379 l 0.543498,0 z m 0,-4.9609373 -1.4463886,-2.4804689 -0.93045101,1.5941147 0,0.8863542 z m 0,0 2.8938799,0 L 3.9829435,3.7759608 z M 3.9829435,3.7759608 2.5354525,1.2954921 1.0890639,3.7759608 z m 0,0 2.8938811,0 L 5.4293324,1.2954921 z M 5.4293324,1.2954921 4.7656696,0.15888611 l -1.5070221,0 c -0.020949,0 -0.03858,0 -0.05953,0 L 2.5354535,1.2954921 z m 0,0 2.8938811,0 -0.6636631,-1.13660599 -1.5665538,0 z m 2.8938811,0 2.8938795,0 -0.663663,-1.13660599 c -0.0882,0 -0.171979,0 -0.266788,0 l -1.2997654,0 z m 0,0 -1.4463889,2.4804687 2.8938799,0 z m 1.447491,2.4804687 2.8938805,0 -1.447492,-2.4804687 z m 0,0 -1.447491,2.4804689 2.8938795,0 z m 1.4463885,2.4804689 2.170686,0 0,-1.2402343 -0.723194,-1.2402346 z m 1.447492,-2.4804689 0.723194,0 0,-0.5170399 c 0,-0.2579689 -0.0022,-0.4938889 -0.0066,-0.71217 z M 8.3232135,6.2564297 6.8768246,3.7759608 5.4293324,6.2564297 z m 2.8938795,-4.9609376 2.062648,0 C 13.123196,0.51717591 12.747267,0.27133411 11.85981,0.19416381 z m -8.6816405,0 -0.650434,-1.11565979 C 0.85204189,0.23826131 0.43421989,0.46095191 0.26665089,1.2954921 z M 1.0890639,3.7759608 0.17514889,2.2083046 c -0.01213,0.3031685 -0.01654,0.6515363 -0.01654,1.0506163 l 0,0.5170399 z m 4.3402685,7.4414062 -1.26559,2.170686 2.532283,0 z m 2.8938811,0 -1.2655909,2.170686 2.5322838,0 z m -7.59133661,1.86862 -0.451997,-0.775009 c 0.08268,0.371519 0.221589,0.615157 0.451997,0.775009 z"/><path id="path208" fill="#f9f9f9" fill-opacity="1" d="M 9.0311114,9.8030545 C 8.6375601,9.92776 8.6909935,9.9466915 8.2669247,10.032016 7.842846,10.11734 7.3865415,10.160001 6.8980089,10.160001 c -0.5394272,0 -1.0262645,-0.07056 -1.4605142,-0.211667 C 5.0066336,9.8039435 4.6385363,9.5922768 4.333202,9.313334 4.0278652,9.0311118 3.7937771,8.6832616 3.6309307,8.2697693 3.4680887,7.8562799 3.3866668,7.3788022 3.3866668,6.837325 c 0,-1.1551356 0.2985445,-2.0182135 0.8956458,-2.5892224 C 4.8828027,3.673817 5.7614853,3.3866757 6.918363,3.3866672 c 0.4410346,8.5e-6 0.8600243,0.026275 1.2569588,0.078757 0.4003235,0.052516 0.7802948,0.1247112 1.1399171,0.2165915 l -0.00192,1.397985 -0.2822223,0 L 8.8368711,4.2825591 C 8.6027728,4.1217601 8.3211867,3.9987028 7.9921097,3.9133757 7.6664159,3.8247777 7.3220686,3.7804716 6.9590628,3.780466 6.5621232,3.7804716 6.2075976,3.8346188 5.8954813,3.9429103 5.5867508,4.047928 5.3255236,4.2202105 5.1117925,4.4597692 4.8980537,4.6993336 4.7335142,5.0143726 4.6181683,5.4048863 4.506211,5.7921263 4.450232,6.2663217 4.450232,6.8274811 c 0,0.5677295 0.06616,1.0419306 0.1984688,1.4225948 0.1323114,0.3773932 0.310421,0.6793061 0.5343381,0.9057386 0.2273032,0.2264354 0.4885301,0.3872343 0.7836911,0.4824053 0.2985442,0.095165 0.6123587,0.1427508 0.9414485,0.1427508 0.1662328,0 0.3307726,-0.00985 0.4936219,-0.029535 C 7.5680332,9.7284632 7.7223972,9.7005683 7.8648921,9.6677515 8.0107657,9.6349375 8.1396862,9.5988385 8.2516483,9.55946 8.3635982,9.5200759 8.402189,9.4823428 8.4666531,9.4462438 l 0,-1.8262432 -0.8466667,-0.2822222 -6e-7,-0.2822222 2.5400002,0 0,0.2822222 -0.8466668,0.2822222 0,2.0704867"/></svg>