<svg xmlns="http://www.w3.org/2000/svg" xmlns:svg="http://www.w3.org/2000/svg" xmlns:xlink="http://www.w3.org/1999/xlink" id="svg2" width="48" height="48" version="1.1" viewBox="0 0 13.547 13.547"><metadata id="metadata153"/><defs id="defs4"><linearGradient id="0"><stop id="stop7" stop-color="#2d2d2d"/><stop id="stop9" offset="1" stop-color="#494949"/></linearGradient><clipPath id="clipPath11"><rect id="rect13" width="477.14" height="208.57" x="-830" y="1580.93" fill="#ff0"/></clipPath><clipPath id="clipPath15"><rect id="rect17" width="477.14" height="208.57" x="-830" y="1580.93" fill="#ff0"/></clipPath><clipPath id="clipPath19"><rect id="rect21" width="477.14" height="208.57" x="-830" y="1580.93" fill="#ff0"/></clipPath><clipPath id="clipPath23"><rect id="rect25" width="477.14" height="208.57" x="-830" y="1580.93" fill="#ff0"/></clipPath><clipPath id="clipPath27"><rect id="rect29" width="357.87" height="240.87" x="294.93" y="780.64" fill="red" transform="matrix(.99975 -.02255 .02255 .99975 0 0)"/></clipPath><clipPath id="clipPath31"><rect id="rect33" width="301.43" height="195" y="857.54" fill="#fff"/></clipPath><clipPath id="clipPath35"><rect id="rect37" width="477.14" height="208.57" x="-830" y="1580.93" fill="#ff0"/></clipPath><clipPath id="clipPath39"><rect id="rect41" width="79.48" height="30.01" x="276.37" y="977.09" fill="#e20a17"/></clipPath><clipPath id="clipPath43"><rect id="rect45" width="506.46" height="37.48" x="8.208" y=".064" fill="#162d50" transform="rotate(20.37582)"/></clipPath><clipPath id="clipPath47"><rect id="rect49" width="357.38" height="318.4" x="218.9" y="758.67" fill="#fff" transform="rotate(.22918)"/></clipPath><clipPath id="clipPath51"><rect id="rect53" width="357.38" height="318.4" x="218.9" y="758.67" fill="#fff" transform="rotate(.22918)"/></clipPath><clipPath id="clipPath55"><rect id="rect57" width="506.46" height="37.48" x="8.208" y=".064" fill="#162d50" transform="rotate(20.37582)"/></clipPath><clipPath id="clipPath59"><rect id="rect61" width="477.14" height="208.57" x="-830" y="1580.93" fill="#ff0"/></clipPath><clipPath id="clipPath63"><rect id="rect65" width="350.46" height="235.88" x="221.39" y="804.24" transform="rotate(.6171)"/></clipPath><clipPath id="clipPath67"><rect id="rect69" width="287.43" height="279.03" x="257.32" y="793.52" fill="#fff" transform="rotate(.16206)"/></clipPath><clipPath id="clipPath71"><rect id="rect73" width="301.43" height="195" y=".06" fill="#fff"/></clipPath><clipPath id="clipPath75"><rect id="rect77" width="301.43" height="195" y="857.54" fill="#fff"/></clipPath><path id="1" fill="#4a0" d="m 699.2857,672.93231 a 40.714287,40.714287 0 1 1 -81.42858,0 40.714287,40.714287 0 1 1 81.42858,0 z" clip-path="url(#3)"/><clipPath id="clipPath80"><use id="use82" transform="matrix(4.3233 0 0 4.3233 -2450.68 -2667.55)" xlink:href="#1"/></clipPath><clipPath id="clipPath84"><rect id="rect86" width="63.987" height="41.39" x="448.12" y="815.74" fill="#fff" transform="rotate(27.44968)"/></clipPath><clipPath id="clipPath88"><rect id="rect90" width="301.43" height="195" y="857.54" fill="#fff"/></clipPath><clipPath id="clipPath92"><rect id="rect94" width="477.14" height="208.57" x="-830" y="1580.93" fill="#ff0"/></clipPath><clipPath id="clipPath96"><rect id="rect98" width="477.14" height="208.57" x="-830" y="1580.93" fill="#ff0"/></clipPath><clipPath id="clipPath100"><rect id="rect102" width="477.14" height="208.57" x="-830" y="1580.93" fill="#ff0"/></clipPath><clipPath id="clipPath104"><rect id="rect106" width="477.14" height="208.57" x="-830" y="1580.93" fill="#ff0"/></clipPath><clipPath id="clipPath108"><rect id="rect110" width="477.14" height="208.57" x="-830" y="1580.93" fill="#ff0"/></clipPath><clipPath id="clipPath112"><use id="use114" xlink:href="#1"/></clipPath><clipPath id="clipPath116"><rect id="rect118" width="477.14" height="208.57" x="-830" y="1580.93" fill="#ff0"/></clipPath><path id="2" fill="#4a0" d="m 699.2857,672.93231 a 40.714287,40.714287 0 1 1 -81.42858,0 40.714287,40.714287 0 1 1 81.42858,0 z"/><clipPath id="3"><use id="use122" xlink:href="#2"/></clipPath><clipPath id="clipPath124"><use id="use126" transform="matrix(4.3233 0 0 4.3233 -2450.68 -2667.55)" xlink:href="#2"/></clipPath><linearGradient id="4" x2="0" y1="1050.36" y2="1006.36" gradientTransform="matrix(0.28222223,0,0,0.28222223,0,-283.45334)" gradientUnits="userSpaceOnUse" xlink:href="#0"/><radialGradient id="radialGradient3015" cx="148.004" cy="160" r="128" gradientTransform="matrix(0.05167489,0,0,0.05167489,-0.8749708,-1.4948998)" gradientUnits="userSpaceOnUse" spreadMethod="pad" xlink:href="#linearGradient4460"/><linearGradient id="linearGradient4460"><stop id="stop8-6" offset="0" stop-color="#747474" stop-opacity="1"/><stop id="stop10-2" offset="1" stop-color="#2d2d2d" stop-opacity="1"/></linearGradient><radialGradient id="radialGradient3016" cx="148.004" cy="160" r="128" gradientTransform="matrix(0.05167489,0,0,0.05167489,-0.87511191,-1.4948469)" gradientUnits="userSpaceOnUse" spreadMethod="pad" xlink:href="#linearGradient4460"/></defs><path id="path11" fill="url(#radialGradient3016)" fill-opacity="1" d="m 13.387776,3.2588349 0,7.0290971 c 0,2.892779 0,3.100036 -3.100035,3.100036 l -7.0279949,0 c -3.10113721,0 -3.10113721,-0.207257 -3.10113721,-3.100036 l 0,-7.0290971 c 0,-2.89277746 0,-3.10003446 3.10113721,-3.10003446 l 7.0279949,0 c 3.100035,0 3.100035,0.207257 3.100035,3.10003446 z"/><path id="path15-7" fill="#fff" fill-opacity=".051" d="m 10.799269,13.387968 c 0.717682,-0.0033 1.235825,-0.02315 1.611753,-0.124576 l -1.193932,-2.04611 -1.2655902,2.170686 0.3362412,0 c 0.180799,0 0.350573,0 0.511528,0 z M 11.21709,11.217282 9.7707012,8.7368124 8.3232099,11.217282 z m 0,0 2.159662,0 c 0.0088,-0.274506 0.01102,-0.582084 0.01102,-0.930452 l 0,-0.3097833 L 12.66458,8.7368124 z M 12.664582,8.7368124 11.21709,6.2563437 9.7707012,8.7368124 z m 0,0 0.723194,0 0,-1.2402343 z m -2.8938808,0 L 8.3232099,6.2563437 6.876821,8.7368124 z m -2.8938802,0 -1.4474916,2.4804676 2.8938805,0 z m 0,0 L 5.4293294,6.2563437 3.9829405,8.7368124 z m -2.8938805,0 -1.4474913,2.4804676 2.8938802,0 z m 0,0 L 2.5354492,6.2563437 1.0890603,8.7368124 z m -2.8938802,0 -0.93045141,1.5941156 c 0,0.329626 0.00331,0.623975 0.011024,0.886354 l 2.36581621,0 z m 0,0 -0.93045141,-1.5941145 0,1.5941145 z m 1.4463889,2.4804696 -1.2170833,2.086901 c 0.450894,0.08268 1.0748699,0.08379 1.9413802,0.08379 l 0.5423958,0 z m 0,-4.9609383 -1.4463889,-2.4804689 -0.93045141,1.5941148 0,0.8863541 z m 0,0 2.8938802,0 L 3.9829405,3.7758748 z M 3.9829405,3.7758748 2.5354492,1.2954065 1.0890603,3.7758748 z m 0,0 2.8938805,0 -1.4474916,-2.4804683 z m 1.4463889,-2.4804683 -0.663663,-1.13660606 -1.5059203,0 c -0.02205,0 -0.039688,0 -0.060634,0 L 2.5354492,1.2954065 z m 0,0 2.8938805,0 -0.6636633,-1.13660606 -1.5665538,0 z m 2.8938805,0 2.8938801,0 -0.663663,-1.13660606 c -0.0882,0 -0.171979,0 -0.265686,0 l -1.300868,0 z m 0,0 -1.4463889,2.4804683 2.8938802,0 z m 1.4474913,2.4804683 2.8938808,0 -1.447492,-2.4804683 z m 0,0 -1.4474913,2.4804689 2.8938801,0 z m 1.4463888,2.4804689 2.170686,0 0,-1.2402343 -0.723194,-1.2402346 z m 1.447492,-2.4804689 0.723194,0 0,-0.5170399 c 0,-0.2579688 -0.0022,-0.4938885 -0.0066,-0.7121696 z M 8.3232099,6.2563437 6.876821,3.7758748 5.4293294,6.2563437 z m 2.8938801,-4.9609372 2.062648,0 C 13.123193,0.51709034 12.747264,0.27124854 11.859807,0.19407824 z m -8.6816408,0 L 1.8850153,0.17974674 C 0.85203769,0.23817574 0.43421639,0.46086624 0.26664699,1.2954065 z M 1.0890603,3.7758748 0.17514539,2.208219 c -0.012127,0.3031685 -0.016535,0.6515363 -0.016535,1.0506159 l 0,0.5170399 z m 4.3402691,7.4414072 -1.2655903,2.170686 2.532283,0 z m 2.8938805,0 -1.2655906,2.170686 2.5322833,0 z m -7.59133711,1.868619 -0.4519964,-0.775009 c 0.082682,0.371519 0.2215885,0.615158 0.4519964,0.775009 z"/><path id="path149" fill="#f9f9f9" fill-opacity="1" d="m 6.7733335,2.8222292 c 0,0 2.54,0 2.54,1.651 l 0,1.4534488 c 0,0 0.8466665,0 0.8466665,0.5644402 l 0,2.9351112 c 0,0.7337776 -0.8466665,0.7337776 -0.8466665,0.7337776 l -5.0800001,0 c 0,0 -0.8466666,0 -0.8466666,-0.7337776 l 0,-2.9351112 c 0,-0.5644402 0.8466666,-0.5644402 0.8466666,-0.5644402 l 0,-1.4534488 c 0,-1.651 2.5400001,-1.651 2.5400001,-1.651 z m 0,0.9172222 c 0,0 -1.4111112,-0.042339 -1.4111112,1.0583278 l 0,1.1288988 2.8222224,0 0,-1.1288988 c 0,-1.1006667 -1.4111112,-1.0583278 -1.4111112,-1.0583278 z" color="#000"/></svg>