<svg xmlns="http://www.w3.org/2000/svg" xmlns:svg="http://www.w3.org/2000/svg" xmlns:xlink="http://www.w3.org/1999/xlink" id="svg2" width="48" height="48" version="1.1"><metadata id="metadata63"/><defs id="defs4"><linearGradient id="0" x2="0" y1="1050.36" y2="1006.36" gradientTransform="translate(-47.999983,-2056.7244)" gradientUnits="userSpaceOnUse" xlink:href="#1"/><linearGradient id="1"><stop id="stop8" stop-color="#72a636"/><stop id="stop10" offset="1" stop-color="#617248"/></linearGradient><linearGradient id="2" x2="0" y1="1053.16" y2="1004.85" gradientTransform="translate(0,-2056.7244)" gradientUnits="userSpaceOnUse" xlink:href="#1"/><radialGradient id="radialGradient3012" cx="148.004" cy="160" r="128" gradientTransform="matrix(0.05167489,0,0,0.05167489,-0.81771051,-1.4947617)" gradientUnits="userSpaceOnUse" xlink:href="#radial0"/><radialGradient id="radial0" cx="148.004" cy="160" r="128" gradientTransform="matrix(0.1831,0,0,0.1831,-3.10029,-5.29688)" gradientUnits="userSpaceOnUse"><stop id="stop7-2" offset="0" stop-color="#a1cc60" stop-opacity=".941"/><stop id="stop9-4" offset="1" stop-color="#6a912f" stop-opacity=".941"/></radialGradient><radialGradient id="radialGradient3011" cx="148.004" cy="160" r="128" gradientTransform="matrix(0.1831,0,0,0.1831,-2.897399,-5.2963992)" gradientUnits="userSpaceOnUse" xlink:href="#radial0"/><linearGradient id="linearGradient3059" x2="0" y1="1050.36" y2="1006.36" gradientTransform="translate(-47.999983,-2056.7244)" gradientUnits="userSpaceOnUse" xlink:href="#1"/><linearGradient id="linearGradient3077" x2="0" y1="1050.36" y2="1006.36" gradientTransform="translate(-47.999983,-1052.3622)" gradientUnits="userSpaceOnUse" xlink:href="#1"/></defs><path id="path11" fill="url(#radialGradient3011)" d="m 47.64039,11.547356 0,24.906251 c 0,10.25 0,10.984375 -10.984376,10.984375 l -24.902343,0 C 0.76539,47.437982 0.76539,46.703607 0.76539,36.453607 l 0,-24.906251 c 0,-10.2500001 0,-10.984375 10.988281,-10.984375 l 24.902343,0 c 10.984376,0 10.984376,0.7343749 10.984376,10.984375 z"/><path id="path15" fill="#fff" fill-opacity=".051" d="m 38.265125,47.437982 c 2.542968,-0.01169 4.378908,-0.08203 5.710936,-0.441407 l -4.230467,-7.25 -4.484375,7.691407 1.191406,0 c 0.640626,0 1.242187,0 1.8125,0 z m 1.480469,-7.691407 -5.125,-8.789063 -5.128906,8.789063 z m 0,0 7.652345,0 c 0.03118,-0.972655 0.03905,-2.062498 0.03905,-3.296873 l 0,-1.097659 -2.562498,-4.394531 z m 5.128908,-8.789063 -5.128908,-8.789062 -5.125,8.789062 z m 0,0 2.562498,0 0,-4.394531 z m -10.253908,0 -5.128906,-8.789062 -5.125,8.789062 z m -10.253906,0 -5.128907,8.789063 10.253907,0 z m 0,0 -5.128907,-8.789062 -5.125,8.789062 z m -10.253907,0 -5.128906,8.789063 10.253906,0 z m 0,0 -5.128906,-8.789062 -5.125,8.789062 z m -10.253906,0 L 0.562,36.605951 c 0,1.16797 0.01173,2.210939 0.03906,3.140624 l 8.382813,0 z m 0,0 -3.296875,-5.648437 0,5.648437 z m 5.125,8.789063 -4.3125,7.394531 C 6.269031,47.434067 8.479969,47.438 11.550281,47.438 l 1.921875,0 z m 0,-17.578125 -5.125,-8.789063 -3.296875,5.648438 0,3.140625 z m 0,0 10.253906,0 -5.125,-8.789063 z m 5.128906,-8.789063 -5.128906,-8.7890621 -5.125,8.7890621 z m 0,0 10.253907,0 -5.128907,-8.7890621 z m 5.125,-8.7890621 -2.351562,-4.0273439 -5.335938,0 c -0.07813,0 -0.140627,0 -0.214845,0 L 8.983875,4.5903249 z m 0,0 10.253907,0 -2.351563,-4.0273439 -5.550781,0 z m 10.253907,0 10.253906,0 -2.351562,-4.0273439 c -0.31252,0 -0.609375,0 -0.941407,0 l -4.609375,0 z m 0,0 -5.125,8.7890621 10.253906,0 z m 5.128906,8.7890621 10.253908,0 -5.128908,-8.7890621 z m 0,0 -5.128906,8.789063 10.253906,0 z m 5.125,8.789063 7.691406,0 0,-4.394531 -2.562498,-4.394532 z m 5.128908,-8.789063 2.562498,0 0,-1.832031 c 0,-0.914063 -0.0078,-1.75 -0.02338,-2.523437 z m -15.382814,8.789063 -5.125,-8.789063 -5.128907,8.789063 z m 10.253906,-17.5781251 7.308595,0 C 46.499502,1.832512 45.16747,0.961419 42.022937,0.687981 z m -30.761719,0 L 6.679188,0.6372 C 3.019031,0.8442311 1.538562,1.633293 0.944812,4.5903249 z M 3.858875,13.379387 0.620594,7.8246998 C 0.577624,8.898919 0.562004,10.133293 0.562004,11.547356 l 0,1.832031 z m 15.378906,26.367188 -4.484375,7.691407 8.972656,0 z m 10.253907,0 -4.484376,7.691407 8.972657,0 z M 2.59325,46.36767 0.991688,43.621575 c 0.292968,1.316406 0.785156,2.17969 1.601562,2.746095 z"/><g id="g33" fill="#fff" transform="matrix(0.75086906,0,0,0.77419355,6.7161066,-770.2159)"><path id="path35" d="m 7.0370371,1011.6539 c -2e-7,8.7546 -1e-7,17.5092 -1e-7,26.2638 l 1e-7,0.8612 c 9.3225309,0 20.2382479,0.015 29.2993829,0 0.01687,-9.2949 -0.01137,-19.1625 0,-27.125 -10.049382,-0.031 -20.6956,0.021 -29.2993829,0 z m 1.3317901,1.2916 26.6358028,0 0,24.5417 -26.6358058,0 z" color="#000"/><path id="path37" d="m 35,6 0,31 4,0 0,-2.583331 -1.33179,0 0,-28.4166669 z" transform="translate(0,1004.3622)"/><rect id="rect39" width="13.318" height="12.917" x="11.03" y="1015.53" rx="1.945"/><rect id="rect41" width="2.664" height="5.167" x="25.682" y="11.167" transform="translate(0,1004.3622)"/><rect id="rect43" width="2.664" height="5.167" x="29.677" y="11.167" transform="translate(0,1004.3622)"/><rect id="rect45" width="6.659" height="2.583" x="25.682" y="17.625" transform="translate(0,1004.3622)"/><rect id="rect47" width="6.659" height="2.583" x="25.682" y="21.5" transform="translate(0,1004.3622)"/><rect id="rect49" width="21.309" height="2.583" x="11.03" y="25.375" transform="translate(0,1004.3622)"/><path id="path51" d="m 11.032407,1033.6122 3.995371,0 0,1.2917 -3.995371,0 z"/><path id="path53" d="m 16.359568,1033.6122 3.99537,0 0,1.2917 -3.99537,0 z"/><path id="path55" d="m 21.686728,1033.6122 2.663581,0 0,1.2917 -2.663581,0 z"/><path id="path57" d="m 25.682099,1033.6122 2.66358,0 0,1.2917 -2.66358,0 z"/><path id="path59" d="m 29.677469,1033.6122 2.66358,0 0,1.2917 -2.66358,0 z"/></g></svg>