<svg xmlns="http://www.w3.org/2000/svg" xmlns:svg="http://www.w3.org/2000/svg" xmlns:xlink="http://www.w3.org/1999/xlink" id="svg2" width="48" height="48" version="1.1" viewBox="0 0 13.547 13.547"><metadata id="metadata30"/><defs id="defs4"><linearGradient id="linearGradient3791"><stop id="stop7" offset="0" stop-color="#222" stop-opacity="1"/><stop id="stop9" offset="1" stop-color="#4e4e4e" stop-opacity="1"/></linearGradient><linearGradient id="linearGradient3012" x1=".847" x2="12.7" gradientTransform="matrix(1.00003,0,0,1.00003,-13.54702,-13.54702)" gradientUnits="userSpaceOnUse" xlink:href="#linearGradient3791"/><linearGradient id="linearGradient4654" x1="22" x2="22" y1="45" y2="3" gradientTransform="translate(34.822916,1005.9297)" gradientUnits="userSpaceOnUse" xlink:href="#linearGradient4460-0-8"/><linearGradient id="linearGradient3765-1"><stop id="stop3767-1" offset="0" stop-color="#7a7186" stop-opacity="1"/><stop id="stop3769-7" offset="1" stop-color="#7e748c" stop-opacity="1"/></linearGradient><linearGradient id="linearGradient3801-7" x1="-60.339" x2="-60.339" y1="-7.525" y2="42.475" gradientTransform="translate(84.33898,6.5254254)" gradientUnits="userSpaceOnUse" xlink:href="#linearGradient3765-1"/><linearGradient id="linearGradient3765-5-84"><stop id="stop3767-6-5" offset="0" stop-color="#7a7186" stop-opacity="1"/><stop id="stop3769-8-0" offset="1" stop-color="#7e748c" stop-opacity="1"/></linearGradient><linearGradient id="linearGradient3801-4-4" x1="-60.339" x2="-60.339" y1="-7.525" y2="42.475" gradientTransform="translate(84.33898,6.5254254)" gradientUnits="userSpaceOnUse" xlink:href="#linearGradient3765-5-84"/><linearGradient id="linearGradient3810-43" x1="-60.339" x2="-60.339" y1="-7.525" y2="42.475" gradientTransform="translate(84.33898,6.5254254)" gradientUnits="userSpaceOnUse" xlink:href="#linearGradient3765-5-84"/><linearGradient id="linearGradient3774-7" x1="-18" x2="-18" y1="34" y2="6" gradientUnits="userSpaceOnUse" xlink:href="#linearGradient3761-2"/><linearGradient id="linearGradient3767-74" x1="7.056" x2="7.056" y1="13.547" y2=".116" gradientTransform="translate(18.062217,0)" gradientUnits="userSpaceOnUse" xlink:href="#linearGradient3761-2"/><linearGradient id="linearGradient4460-1-12"><stop id="stop3779-6" offset="0" stop-color="#004993"/><stop id="stop3781-6" offset="1" stop-color="#007ec8"/></linearGradient><linearGradient id="linearGradient3002-3-03" x2="0" y1="279.096" y2="268.33" gradientTransform="matrix(1.10525,0,0,1.10525,-134.27874,-295.76183)" gradientUnits="userSpaceOnUse" xlink:href="#linearGradient4460-1-12"/><linearGradient id="linearGradient3003-79" x2="0" y1="279.096" y2="268.33" gradientTransform="matrix(1.10525,0,0,1.10525,-134.27874,-295.76183)" gradientUnits="userSpaceOnUse" xlink:href="#linearGradient4460-53"/><linearGradient id="linearGradient3002-87" x2="0" y1="279.096" y2="268.33" gradientTransform="matrix(1.10525,0,0,1.10525,-134.27874,-295.76183)" gradientUnits="userSpaceOnUse" xlink:href="#linearGradient4460-53"/><linearGradient id="linearGradient4460-53"><stop id="stop7-9" offset="0" stop-color="#215987"/><stop id="stop9-34" offset="1" stop-color="#8cb2d6"/></linearGradient><linearGradient id="linearGradient3761-2"><stop id="stop3763-6" offset="0" stop-color="#cdcdcd" stop-opacity="1"/><stop id="stop3765-5" offset="1" stop-color="#e2e2e2" stop-opacity="1"/></linearGradient><radialGradient id="radialGradient3804-5" cx="6.773" cy="6.773" r="5.644" fx="6.773" fy="6.773" gradientTransform="matrix(2.5747712e-8,-1.15,1,2.2389314e-8,-3.815176e-7,14.562667)" gradientUnits="userSpaceOnUse" xlink:href="#linearGradient3761-5-65"/><linearGradient id="linearGradient3765-0-3"><stop id="stop3767-4-3" offset="0" stop-color="#7a7186" stop-opacity="1"/><stop id="stop3769-2-3" offset="1" stop-color="#7e748c" stop-opacity="1"/></linearGradient><linearGradient id="linearGradient3801-5-8" x1="-60.339" x2="-60.339" y1="-7.525" y2="42.475" gradientTransform="translate(84.33898,6.5254254)" gradientUnits="userSpaceOnUse" xlink:href="#linearGradient3765-0-3"/><linearGradient id="linearGradient3810-4-86" x1="-60.339" x2="-60.339" y1="-7.525" y2="42.475" gradientTransform="translate(84.33898,6.5254254)" gradientUnits="userSpaceOnUse" xlink:href="#linearGradient3765-0-3"/><linearGradient id="linearGradient3774-3-24" x1="-18" x2="-18" y1="34" y2="6" gradientUnits="userSpaceOnUse" xlink:href="#linearGradient3761-5-65"/><linearGradient id="linearGradient3767-7-9" x1="7.056" x2="7.056" y1="13.547" y2=".116" gradientTransform="translate(18.062217,0)" gradientUnits="userSpaceOnUse" xlink:href="#linearGradient3761-5-65"/><linearGradient id="linearGradient4460-1-1-14"><stop id="stop3779-5-32" offset="0" stop-color="#004993"/><stop id="stop3781-9-6" offset="1" stop-color="#007ec8"/></linearGradient><linearGradient id="linearGradient3002-3-9-1" x2="0" y1="279.096" y2="268.33" gradientTransform="matrix(1.10525,0,0,1.10525,-134.27874,-295.76183)" gradientUnits="userSpaceOnUse" xlink:href="#linearGradient4460-1-1-14"/><linearGradient id="linearGradient3003-8-08" x2="0" y1="279.096" y2="268.33" gradientTransform="matrix(1.10525,0,0,1.10525,-134.27874,-295.76183)" gradientUnits="userSpaceOnUse" xlink:href="#linearGradient4460-2-9"/><linearGradient id="linearGradient3002-2-5" x2="0" y1="279.096" y2="268.33" gradientTransform="matrix(1.10525,0,0,1.10525,-134.27874,-295.76183)" gradientUnits="userSpaceOnUse" xlink:href="#linearGradient4460-2-9"/><linearGradient id="linearGradient4460-2-9"><stop id="stop7-3-8" offset="0" stop-color="#215987"/><stop id="stop9-7-5" offset="1" stop-color="#8cb2d6"/></linearGradient><linearGradient id="linearGradient3761-5-65"><stop id="stop3763-9-97" offset="0" stop-color="#628eab" stop-opacity="1"/><stop id="stop3765-2-83" offset="1" stop-color="#659eb9" stop-opacity="1"/></linearGradient><radialGradient id="radialGradient4090-24" cx="6.773" cy="6.773" r="5.644" fx="6.773" fy="6.773" gradientTransform="matrix(9.1232048e-8,-4.074803,3.543307,7.9332213e-8,49.692451,50.275013)" gradientUnits="userSpaceOnUse" xlink:href="#linearGradient3761-5-65"/><linearGradient id="linearGradient4098-8" x1="22" x2="22" y1="45" y2="3" gradientUnits="userSpaceOnUse" xlink:href="#linearGradient4460-0-8"/><linearGradient id="linearGradient3212-7" x2="0" y1="279.096" y2="268.33" gradientTransform="matrix(1.10525,0,0,1.10525,-134.27874,-295.76183)" gradientUnits="userSpaceOnUse" xlink:href="#linearGradient4460-0-8"/><linearGradient id="linearGradient4460-0-8"><stop id="stop3037-33" offset="0" stop-color="#222"/><stop id="stop3039-8" offset="1" stop-color="#4e4e4e"/></linearGradient><linearGradient id="linearGradient3287" x2="0" y1="279.096" y2="268.33" gradientTransform="matrix(3.9162401,0,0,3.9162401,-413.27951,-1050.9129)" gradientUnits="userSpaceOnUse" xlink:href="#linearGradient4460-0-8"/><linearGradient id="linearGradient3212-0" x2="0" y1="279.096" y2="268.33" gradientTransform="matrix(1.10525,0,0,1.10525,-134.27874,-295.76183)" gradientUnits="userSpaceOnUse" xlink:href="#linearGradient4460-11"/><linearGradient id="linearGradient4460-11"><stop id="stop4193" offset="0" stop-color="#222"/><stop id="stop4195" offset="1" stop-color="#4e4e4e"/></linearGradient><linearGradient id="linearGradient4452" x1="22" x2="22" y1="45" y2="3" gradientUnits="userSpaceOnUse" xlink:href="#linearGradient4460-0-8"/><linearGradient id="linearGradient4460-583"><stop id="stop3282" offset="0" stop-color="#222"/><stop id="stop3284" offset="1" stop-color="#4e4e4e"/></linearGradient><linearGradient id="linearGradient3212" x2="0" y1="279.096" y2="268.33" gradientTransform="matrix(1.10525,0,0,1.10525,-134.27874,-295.76183)" gradientUnits="userSpaceOnUse" xlink:href="#linearGradient4460-583"/><linearGradient id="linearGradient4460-58"><stop id="stop4338" offset="0" stop-color="#215987"/><stop id="stop4340" offset="1" stop-color="#8cb2d6"/></linearGradient><linearGradient id="linearGradient3002-15" x2="0" y1="279.096" y2="268.33" gradientTransform="matrix(1.10525,0,0,1.10525,-134.27874,-295.76183)" gradientUnits="userSpaceOnUse" xlink:href="#linearGradient4460-58"/><linearGradient id="linearGradient3765-53"><stop id="stop3767-7" offset="0" stop-color="#7a7186" stop-opacity="1"/><stop id="stop3769-22" offset="1" stop-color="#7e748c" stop-opacity="1"/></linearGradient><linearGradient id="linearGradient3801-6" x1="-60.339" x2="-60.339" y1="-7.525" y2="42.475" gradientTransform="translate(84.33898,6.5254254)" gradientUnits="userSpaceOnUse" xlink:href="#linearGradient3765-53"/><linearGradient id="linearGradient3765-5-6"><stop id="stop3767-6-04" offset="0" stop-color="#7a7186" stop-opacity="1"/><stop id="stop3769-8-5" offset="1" stop-color="#7e748c" stop-opacity="1"/></linearGradient><linearGradient id="linearGradient3801-4-2" x1="-60.339" x2="-60.339" y1="-7.525" y2="42.475" gradientTransform="translate(84.33898,6.5254254)" gradientUnits="userSpaceOnUse" xlink:href="#linearGradient3765-5-6"/><linearGradient id="linearGradient3810-2" x1="-60.339" x2="-60.339" y1="-7.525" y2="42.475" gradientTransform="translate(84.33898,6.5254254)" gradientUnits="userSpaceOnUse" xlink:href="#linearGradient3765-5-6"/><linearGradient id="linearGradient3774-33" x1="-18" x2="-18" y1="34" y2="6" gradientUnits="userSpaceOnUse" xlink:href="#linearGradient3761-0"/><linearGradient id="linearGradient3767-9" x1="7.056" x2="7.056" y1="13.547" y2=".116" gradientTransform="translate(18.062217,0)" gradientUnits="userSpaceOnUse" xlink:href="#linearGradient3761-0"/><linearGradient id="linearGradient4460-1-09"><stop id="stop3779-59" offset="0" stop-color="#004993"/><stop id="stop3781-8" offset="1" stop-color="#007ec8"/></linearGradient><linearGradient id="linearGradient3002-3-0" x2="0" y1="279.096" y2="268.33" gradientTransform="matrix(1.10525,0,0,1.10525,-134.27874,-295.76183)" gradientUnits="userSpaceOnUse" xlink:href="#linearGradient4460-1-09"/><linearGradient id="linearGradient3003-1" x2="0" y1="279.096" y2="268.33" gradientTransform="matrix(1.10525,0,0,1.10525,-134.27874,-295.76183)" gradientUnits="userSpaceOnUse" xlink:href="#linearGradient4460-51"/><linearGradient id="linearGradient3002-32" x2="0" y1="279.096" y2="268.33" gradientTransform="matrix(1.10525,0,0,1.10525,-134.27874,-295.76183)" gradientUnits="userSpaceOnUse" xlink:href="#linearGradient4460-51"/><linearGradient id="linearGradient4460-51"><stop id="stop7-33" offset="0" stop-color="#215987"/><stop id="stop9-53" offset="1" stop-color="#8cb2d6"/></linearGradient><linearGradient id="linearGradient3761-0"><stop id="stop3763-0" offset="0" stop-color="#628eab" stop-opacity="1"/><stop id="stop3765-9" offset="1" stop-color="#659eb9" stop-opacity="1"/></linearGradient><radialGradient id="radialGradient3804-9" cx="6.773" cy="6.773" r="5.644" fx="6.773" fy="6.773" gradientTransform="matrix(2.5747712e-8,-1.15,1,2.2389314e-8,-3.815176e-7,14.562667)" gradientUnits="userSpaceOnUse" xlink:href="#linearGradient3761-5-5"/><linearGradient id="linearGradient3765-0-2"><stop id="stop3767-4-15" offset="0" stop-color="#7a7186" stop-opacity="1"/><stop id="stop3769-2-03" offset="1" stop-color="#7e748c" stop-opacity="1"/></linearGradient><linearGradient id="linearGradient3801-5-0" x1="-60.339" x2="-60.339" y1="-7.525" y2="42.475" gradientTransform="translate(84.33898,6.5254254)" gradientUnits="userSpaceOnUse" xlink:href="#linearGradient3765-0-2"/><linearGradient id="linearGradient3810-4-8" x1="-60.339" x2="-60.339" y1="-7.525" y2="42.475" gradientTransform="translate(84.33898,6.5254254)" gradientUnits="userSpaceOnUse" xlink:href="#linearGradient3765-0-2"/><linearGradient id="linearGradient3774-3-6" x1="-18" x2="-18" y1="34" y2="6" gradientUnits="userSpaceOnUse" xlink:href="#linearGradient3761-5-5"/><linearGradient id="linearGradient3767-7-4" x1="7.056" x2="7.056" y1="13.547" y2=".116" gradientTransform="translate(18.062217,0)" gradientUnits="userSpaceOnUse" xlink:href="#linearGradient3761-5-5"/><linearGradient id="linearGradient4460-1-1-1"><stop id="stop3779-5-1" offset="0" stop-color="#004993"/><stop id="stop3781-9-5" offset="1" stop-color="#007ec8"/></linearGradient><linearGradient id="linearGradient3002-3-9-3" x2="0" y1="279.096" y2="268.33" gradientTransform="matrix(1.10525,0,0,1.10525,-134.27874,-295.76183)" gradientUnits="userSpaceOnUse" xlink:href="#linearGradient4460-1-1-1"/><linearGradient id="linearGradient3003-8-0" x2="0" y1="279.096" y2="268.33" gradientTransform="matrix(1.10525,0,0,1.10525,-134.27874,-295.76183)" gradientUnits="userSpaceOnUse" xlink:href="#linearGradient4460-2-0"/><linearGradient id="linearGradient3002-2-02" x2="0" y1="279.096" y2="268.33" gradientTransform="matrix(1.10525,0,0,1.10525,-134.27874,-295.76183)" gradientUnits="userSpaceOnUse" xlink:href="#linearGradient4460-2-0"/><linearGradient id="linearGradient4460-2-0"><stop id="stop7-3-3" offset="0" stop-color="#215987"/><stop id="stop9-7-6" offset="1" stop-color="#8cb2d6"/></linearGradient><linearGradient id="linearGradient3761-5-5"><stop id="stop3763-9-7" offset="0" stop-color="#628eab" stop-opacity="1"/><stop id="stop3765-2-1" offset="1" stop-color="#659eb9" stop-opacity="1"/></linearGradient><radialGradient id="radialGradient4090-8" cx="6.773" cy="6.773" r="5.644" fx="6.773" fy="6.773" gradientTransform="matrix(9.1232048e-8,-4.074803,3.543307,7.9332213e-8,49.692451,50.275013)" gradientUnits="userSpaceOnUse" xlink:href="#linearGradient3761-5-5"/><linearGradient id="linearGradient4098" x1="22" x2="22" y1="45" y2="3" gradientUnits="userSpaceOnUse" xlink:href="#linearGradient4460-50-4"/><linearGradient id="linearGradient3002-1-0" x2="0" y1="279.096" y2="268.33" gradientTransform="matrix(1.10525,0,0,1.10525,-134.27874,-295.76183)" gradientUnits="userSpaceOnUse" xlink:href="#linearGradient4460-5-6"/><linearGradient id="linearGradient4460-5-6"><stop id="stop3037-3" offset="0" stop-color="#215987"/><stop id="stop3039-5" offset="1" stop-color="#8cb2d6"/></linearGradient><linearGradient id="linearGradient3006-8" x2="0" y1="279.096" y2="268.33" gradientTransform="matrix(1.10528,0,0,1.10528,-134.28255,-295.77052)" gradientUnits="userSpaceOnUse" xlink:href="#linearGradient4460-50-4"/><linearGradient id="linearGradient3005-3" x2="0" y1="279.096" y2="268.33" gradientTransform="matrix(1.10528,0,0,1.10528,-134.28255,-295.77052)" gradientUnits="userSpaceOnUse" xlink:href="#linearGradient4460-50-4"/><linearGradient id="linearGradient4460-50-4"><stop id="stop7-8-8" offset="0" stop-color="#516182" stop-opacity="1"/><stop id="stop9-6-7" offset="1" stop-color="#9ca9ba" stop-opacity="1"/></linearGradient><linearGradient id="linearGradient3907-7" x2="0" y1="279.096" y2="268.33" gradientTransform="matrix(3.9163464,0,0,3.9163464,-419.73055,-1046.4433)" gradientUnits="userSpaceOnUse" xlink:href="#linearGradient4460-50-4"/><linearGradient id="linearGradient3765-09"><stop id="stop3767-41" offset="0" stop-color="#7a7186" stop-opacity="1"/><stop id="stop3769-9" offset="1" stop-color="#7e748c" stop-opacity="1"/></linearGradient><linearGradient id="linearGradient3801-48" x1="-60.339" x2="-60.339" y1="-7.525" y2="42.475" gradientTransform="translate(84.33898,6.5254254)" gradientUnits="userSpaceOnUse" xlink:href="#linearGradient3765-09"/><linearGradient id="linearGradient3765-5-8"><stop id="stop3767-6-1" offset="0" stop-color="#7a7186" stop-opacity="1"/><stop id="stop3769-8-1" offset="1" stop-color="#7e748c" stop-opacity="1"/></linearGradient><linearGradient id="linearGradient3801-4-6" x1="-60.339" x2="-60.339" y1="-7.525" y2="42.475" gradientTransform="translate(84.33898,6.5254254)" gradientUnits="userSpaceOnUse" xlink:href="#linearGradient3765-5-8"/><linearGradient id="linearGradient3810-0" x1="-60.339" x2="-60.339" y1="-7.525" y2="42.475" gradientTransform="translate(84.33898,6.5254254)" gradientUnits="userSpaceOnUse" xlink:href="#linearGradient3765-5-8"/><linearGradient id="linearGradient3774-5" x1="-18" x2="-18" y1="34" y2="6" gradientUnits="userSpaceOnUse" xlink:href="#linearGradient3761-56"/><linearGradient id="linearGradient3767-0" x1="7.056" x2="7.056" y1="13.547" y2=".116" gradientTransform="translate(18.062217,0)" gradientUnits="userSpaceOnUse" xlink:href="#linearGradient3761-56"/><linearGradient id="linearGradient4460-1-0"><stop id="stop3779-3" offset="0" stop-color="#004993"/><stop id="stop3781-4" offset="1" stop-color="#007ec8"/></linearGradient><linearGradient id="linearGradient3002-3-11" x2="0" y1="279.096" y2="268.33" gradientTransform="matrix(1.10525,0,0,1.10525,-134.27874,-295.76183)" gradientUnits="userSpaceOnUse" xlink:href="#linearGradient4460-1-0"/><linearGradient id="linearGradient3003-74" x2="0" y1="279.096" y2="268.33" gradientTransform="matrix(1.10525,0,0,1.10525,-134.27874,-295.76183)" gradientUnits="userSpaceOnUse" xlink:href="#linearGradient4460-97"/><linearGradient id="linearGradient3002-4" x2="0" y1="279.096" y2="268.33" gradientTransform="matrix(1.10525,0,0,1.10525,-134.27874,-295.76183)" gradientUnits="userSpaceOnUse" xlink:href="#linearGradient4460-97"/><linearGradient id="linearGradient4460-97"><stop id="stop7-1" offset="0" stop-color="#215987"/><stop id="stop9-31" offset="1" stop-color="#8cb2d6"/></linearGradient><linearGradient id="linearGradient3761-56"><stop id="stop3763-7" offset="0" stop-color="#398b71" stop-opacity="1"/><stop id="stop3765-4" offset="1" stop-color="#55cfa9" stop-opacity="1"/></linearGradient><radialGradient id="radialGradient3804-8" cx="6.773" cy="6.773" r="5.644" fx="6.773" fy="6.773" gradientTransform="matrix(2.5747712e-8,-1.15,1,2.2389314e-8,-3.815176e-7,14.562667)" gradientUnits="userSpaceOnUse" xlink:href="#linearGradient3761-5-6"/><linearGradient id="linearGradient3765-0-6"><stop id="stop3767-4-9" offset="0" stop-color="#7a7186" stop-opacity="1"/><stop id="stop3769-2-0" offset="1" stop-color="#7e748c" stop-opacity="1"/></linearGradient><linearGradient id="linearGradient3801-5-75" x1="-60.339" x2="-60.339" y1="-7.525" y2="42.475" gradientTransform="translate(84.33898,6.5254254)" gradientUnits="userSpaceOnUse" xlink:href="#linearGradient3765-0-6"/><linearGradient id="linearGradient3810-4-0" x1="-60.339" x2="-60.339" y1="-7.525" y2="42.475" gradientTransform="translate(84.33898,6.5254254)" gradientUnits="userSpaceOnUse" xlink:href="#linearGradient3765-0-6"/><linearGradient id="linearGradient3774-3-5" x1="-18" x2="-18" y1="34" y2="6" gradientUnits="userSpaceOnUse" xlink:href="#linearGradient3761-5-6"/><linearGradient id="linearGradient3767-7-7" x1="7.056" x2="7.056" y1="13.547" y2=".116" gradientTransform="translate(18.062217,0)" gradientUnits="userSpaceOnUse" xlink:href="#linearGradient3761-5-6"/><linearGradient id="linearGradient4460-1-1-4"><stop id="stop3779-5-3" offset="0" stop-color="#004993"/><stop id="stop3781-9-7" offset="1" stop-color="#007ec8"/></linearGradient><linearGradient id="linearGradient3002-3-9-9" x2="0" y1="279.096" y2="268.33" gradientTransform="matrix(1.10525,0,0,1.10525,-134.27874,-295.76183)" gradientUnits="userSpaceOnUse" xlink:href="#linearGradient4460-1-1-4"/><linearGradient id="linearGradient3003-8-5" x2="0" y1="279.096" y2="268.33" gradientTransform="matrix(1.10525,0,0,1.10525,-134.27874,-295.76183)" gradientUnits="userSpaceOnUse" xlink:href="#linearGradient4460-2-4"/><linearGradient id="linearGradient3002-2-0" x2="0" y1="279.096" y2="268.33" gradientTransform="matrix(1.10525,0,0,1.10525,-134.27874,-295.76183)" gradientUnits="userSpaceOnUse" xlink:href="#linearGradient4460-2-4"/><linearGradient id="linearGradient4460-2-4"><stop id="stop7-3-9" offset="0" stop-color="#215987"/><stop id="stop9-7-3" offset="1" stop-color="#8cb2d6"/></linearGradient><linearGradient id="linearGradient3761-5-6"><stop id="stop3763-9-9" offset="0" stop-color="#628eab" stop-opacity="1"/><stop id="stop3765-2-8" offset="1" stop-color="#659eb9" stop-opacity="1"/></linearGradient><radialGradient id="radialGradient4090-20" cx="6.773" cy="6.773" r="5.644" fx="6.773" fy="6.773" gradientTransform="matrix(9.1232048e-8,-4.074803,3.543307,7.9332213e-8,49.692451,50.275013)" gradientUnits="userSpaceOnUse" xlink:href="#linearGradient3761-5-6"/><linearGradient id="linearGradient3899"><stop id="stop3901" offset="0" stop-color="#383c35" stop-opacity="1"/><stop id="stop3903" offset="1" stop-color="#535550" stop-opacity="1"/></linearGradient><linearGradient id="linearGradient3765-57"><stop id="stop3767-49" offset="0" stop-color="#7a7186" stop-opacity="1"/><stop id="stop3769-81" offset="1" stop-color="#7e748c" stop-opacity="1"/></linearGradient><linearGradient id="linearGradient3801-43" x1="-60.339" x2="-60.339" y1="-7.525" y2="42.475" gradientTransform="translate(84.33898,6.5254254)" gradientUnits="userSpaceOnUse" xlink:href="#linearGradient3765-57"/><linearGradient id="linearGradient3765-5-3"><stop id="stop3767-6-0" offset="0" stop-color="#7a7186" stop-opacity="1"/><stop id="stop3769-8-9" offset="1" stop-color="#7e748c" stop-opacity="1"/></linearGradient><linearGradient id="linearGradient3801-4-9" x1="-60.339" x2="-60.339" y1="-7.525" y2="42.475" gradientTransform="translate(84.33898,6.5254254)" gradientUnits="userSpaceOnUse" xlink:href="#linearGradient3765-5-3"/><linearGradient id="linearGradient3810-7" x1="-60.339" x2="-60.339" y1="-7.525" y2="42.475" gradientTransform="translate(84.33898,6.5254254)" gradientUnits="userSpaceOnUse" xlink:href="#linearGradient3765-5-3"/><linearGradient id="linearGradient3774-0" x1="-18" x2="-18" y1="34" y2="6" gradientUnits="userSpaceOnUse" xlink:href="#linearGradient3761-9"/><linearGradient id="linearGradient3767-4" x1="7.056" x2="7.056" y1="13.547" y2=".116" gradientTransform="translate(18.062217,0)" gradientUnits="userSpaceOnUse" xlink:href="#linearGradient3761-9"/><linearGradient id="linearGradient4460-1-6"><stop id="stop3779-0" offset="0" stop-color="#004993"/><stop id="stop3781-2" offset="1" stop-color="#007ec8"/></linearGradient><linearGradient id="linearGradient3002-3-91" x2="0" y1="279.096" y2="268.33" gradientTransform="matrix(1.10525,0,0,1.10525,-134.27874,-295.76183)" gradientUnits="userSpaceOnUse" xlink:href="#linearGradient4460-1-6"/><linearGradient id="linearGradient3003-5" x2="0" y1="279.096" y2="268.33" gradientTransform="matrix(1.10525,0,0,1.10525,-134.27874,-295.76183)" gradientUnits="userSpaceOnUse" xlink:href="#linearGradient4460-93"/><linearGradient id="linearGradient3002-8" x2="0" y1="279.096" y2="268.33" gradientTransform="matrix(1.10525,0,0,1.10525,-134.27874,-295.76183)" gradientUnits="userSpaceOnUse" xlink:href="#linearGradient4460-93"/><linearGradient id="linearGradient4460-93"><stop id="stop7-84" offset="0" stop-color="#215987"/><stop id="stop9-79" offset="1" stop-color="#8cb2d6"/></linearGradient><linearGradient id="linearGradient3761-9"><stop id="stop3763-8" offset="0" stop-color="#628eab" stop-opacity="1"/><stop id="stop3765-7" offset="1" stop-color="#659eb9" stop-opacity="1"/></linearGradient><radialGradient id="radialGradient3804-7" cx="6.773" cy="6.773" r="5.644" fx="6.773" fy="6.773" gradientTransform="matrix(2.5747712e-8,-1.15,1,2.2389314e-8,-3.815176e-7,14.562667)" gradientUnits="userSpaceOnUse" xlink:href="#linearGradient3761-5-7"/><linearGradient id="linearGradient3765-0-7"><stop id="stop3767-4-1" offset="0" stop-color="#7a7186" stop-opacity="1"/><stop id="stop3769-2-8" offset="1" stop-color="#7e748c" stop-opacity="1"/></linearGradient><linearGradient id="linearGradient3801-5-7" x1="-60.339" x2="-60.339" y1="-7.525" y2="42.475" gradientTransform="translate(84.33898,6.5254254)" gradientUnits="userSpaceOnUse" xlink:href="#linearGradient3765-0-7"/><linearGradient id="linearGradient3810-4-2" x1="-60.339" x2="-60.339" y1="-7.525" y2="42.475" gradientTransform="translate(84.33898,6.5254254)" gradientUnits="userSpaceOnUse" xlink:href="#linearGradient3765-0-7"/><linearGradient id="linearGradient3774-3-2" x1="-18" x2="-18" y1="34" y2="6" gradientUnits="userSpaceOnUse" xlink:href="#linearGradient3761-5-7"/><linearGradient id="linearGradient3767-7-0" x1="7.056" x2="7.056" y1="13.547" y2=".116" gradientTransform="translate(18.062217,0)" gradientUnits="userSpaceOnUse" xlink:href="#linearGradient3761-5-7"/><linearGradient id="linearGradient4460-1-1-7"><stop id="stop3779-5-4" offset="0" stop-color="#004993"/><stop id="stop3781-9-1" offset="1" stop-color="#007ec8"/></linearGradient><linearGradient id="linearGradient3002-3-9-6" x2="0" y1="279.096" y2="268.33" gradientTransform="matrix(1.10525,0,0,1.10525,-134.27874,-295.76183)" gradientUnits="userSpaceOnUse" xlink:href="#linearGradient4460-1-1-7"/><linearGradient id="linearGradient3003-8-1" x2="0" y1="279.096" y2="268.33" gradientTransform="matrix(1.10525,0,0,1.10525,-134.27874,-295.76183)" gradientUnits="userSpaceOnUse" xlink:href="#linearGradient4460-2-2"/><linearGradient id="linearGradient3002-2-1" x2="0" y1="279.096" y2="268.33" gradientTransform="matrix(1.10525,0,0,1.10525,-134.27874,-295.76183)" gradientUnits="userSpaceOnUse" xlink:href="#linearGradient4460-2-2"/><linearGradient id="linearGradient4460-2-2"><stop id="stop7-3-0" offset="0" stop-color="#215987"/><stop id="stop9-7-1" offset="1" stop-color="#8cb2d6"/></linearGradient><linearGradient id="linearGradient3761-5-7"><stop id="stop3763-9-1" offset="0" stop-color="#628eab" stop-opacity="1"/><stop id="stop3765-2-4" offset="1" stop-color="#659eb9" stop-opacity="1"/></linearGradient><radialGradient id="radialGradient4090-2" cx="6.773" cy="6.773" r="5.644" fx="6.773" fy="6.773" gradientTransform="matrix(9.1232048e-8,-4.074803,3.543307,7.9332213e-8,49.692451,50.275013)" gradientUnits="userSpaceOnUse" xlink:href="#linearGradient3761-5-7"/><linearGradient id="linearGradient4460-1-2"><stop id="stop3779-8" offset="0" stop-color="#004993"/><stop id="stop3781-7" offset="1" stop-color="#007ec8"/></linearGradient><linearGradient id="linearGradient3002-3-1" x2="0" y1="279.096" y2="268.33" gradientTransform="matrix(1.10525,0,0,1.10525,-134.27874,-295.76183)" gradientUnits="userSpaceOnUse" xlink:href="#linearGradient4460-1-2"/><linearGradient id="linearGradient3003-7" x2="0" y1="279.096" y2="268.33" gradientTransform="matrix(1.10525,0,0,1.10525,-134.27874,-295.76183)" gradientUnits="userSpaceOnUse" xlink:href="#linearGradient4460-0"/><linearGradient id="linearGradient3002-0" x2="0" y1="279.096" y2="268.33" gradientTransform="matrix(1.10525,0,0,1.10525,-134.27874,-295.76183)" gradientUnits="userSpaceOnUse" xlink:href="#linearGradient4460-0"/><linearGradient id="linearGradient4460-0"><stop id="stop7-5" offset="0" stop-color="#215987"/><stop id="stop9-3" offset="1" stop-color="#8cb2d6"/></linearGradient><linearGradient id="linearGradient3073" x2="0" y1="279.096" y2="268.33" gradientTransform="matrix(1.10525,0,0,1.10525,-134.27874,-295.76214)" gradientUnits="userSpaceOnUse" xlink:href="#linearGradient4460-4"/><linearGradient id="linearGradient4460-4"><stop id="stop7-32" offset="0" stop-color="#323232"/><stop id="stop9-5" offset="1" stop-color="#505050"/></linearGradient><linearGradient id="linearGradient3073-1" x2="0" y1="279.096" y2="268.33" gradientTransform="matrix(1.10525,0,0,1.10525,-134.27874,-295.76214)" gradientUnits="userSpaceOnUse" xlink:href="#linearGradient4460-9"/><linearGradient id="linearGradient4460-9"><stop id="stop7-8-1" offset="0" stop-color="#323232"/><stop id="stop9-9" offset="1" stop-color="#505050"/></linearGradient><linearGradient id="linearGradient3102" x2="0" y1="279.096" y2="268.33" gradientTransform="matrix(1.09524,0,0,1.09524,-133.00183,-293.02198)" gradientUnits="userSpaceOnUse" xlink:href="#linearGradient4460-5-5"/><linearGradient id="linearGradient4460-5-5"><stop id="stop3957" offset="0" stop-color="#d7d7d7"/><stop id="stop3959" offset="1" stop-color="#efefef"/></linearGradient><linearGradient id="linearGradient3765"><stop id="stop3767" offset="0" stop-color="#7a7186" stop-opacity="1"/><stop id="stop3769" offset="1" stop-color="#7e748c" stop-opacity="1"/></linearGradient><linearGradient id="linearGradient3801" x1="-60.339" x2="-60.339" y1="-7.525" y2="42.475" gradientTransform="translate(84.33898,6.5254254)" gradientUnits="userSpaceOnUse" xlink:href="#linearGradient3765"/><linearGradient id="linearGradient3765-5"><stop id="stop3767-6" offset="0" stop-color="#7a7186" stop-opacity="1"/><stop id="stop3769-8" offset="1" stop-color="#7e748c" stop-opacity="1"/></linearGradient><linearGradient id="linearGradient3801-4" x1="-60.339" x2="-60.339" y1="-7.525" y2="42.475" gradientTransform="translate(84.33898,6.5254254)" gradientUnits="userSpaceOnUse" xlink:href="#linearGradient3765-5"/><linearGradient id="linearGradient3810" x1="-60.339" x2="-60.339" y1="-7.525" y2="42.475" gradientTransform="translate(84.33898,6.5254254)" gradientUnits="userSpaceOnUse" xlink:href="#linearGradient3765-5"/><linearGradient id="linearGradient3774" x1="-18" x2="-18" y1="34" y2="6" gradientUnits="userSpaceOnUse" xlink:href="#linearGradient3761"/><linearGradient id="linearGradient3767" x1="7.056" x2="7.056" y1="13.547" y2=".116" gradientTransform="translate(18.062217,0)" gradientUnits="userSpaceOnUse" xlink:href="#linearGradient3761"/><linearGradient id="linearGradient4460-1"><stop id="stop3779" offset="0" stop-color="#004993"/><stop id="stop3781" offset="1" stop-color="#007ec8"/></linearGradient><linearGradient id="linearGradient3002-3" x2="0" y1="279.096" y2="268.33" gradientTransform="matrix(1.10525,0,0,1.10525,-134.27874,-295.76183)" gradientUnits="userSpaceOnUse" xlink:href="#linearGradient4460-1"/><linearGradient id="linearGradient3003" x2="0" y1="279.096" y2="268.33" gradientTransform="matrix(1.10525,0,0,1.10525,-134.27874,-295.76183)" gradientUnits="userSpaceOnUse" xlink:href="#linearGradient4460"/><linearGradient id="linearGradient3002" x2="0" y1="279.096" y2="268.33" gradientTransform="matrix(1.10525,0,0,1.10525,-134.27874,-295.76183)" gradientUnits="userSpaceOnUse" xlink:href="#linearGradient4460"/><linearGradient id="linearGradient4460"><stop id="stop7-94" offset="0" stop-color="#215987"/><stop id="stop9-59" offset="1" stop-color="#8cb2d6"/></linearGradient><linearGradient id="linearGradient3761"><stop id="stop3763" offset="0" stop-color="#628eab" stop-opacity="1"/><stop id="stop3765" offset="1" stop-color="#659eb9" stop-opacity="1"/></linearGradient><radialGradient id="radialGradient3804" cx="6.773" cy="6.773" r="5.644" fx="6.773" fy="6.773" gradientTransform="matrix(2.5747712e-8,-1.15,1,2.2389314e-8,-3.815176e-7,14.562667)" gradientUnits="userSpaceOnUse" xlink:href="#linearGradient3761-5"/><linearGradient id="linearGradient3765-0"><stop id="stop3767-4" offset="0" stop-color="#7a7186" stop-opacity="1"/><stop id="stop3769-2" offset="1" stop-color="#7e748c" stop-opacity="1"/></linearGradient><linearGradient id="linearGradient3801-5" x1="-60.339" x2="-60.339" y1="-7.525" y2="42.475" gradientTransform="translate(84.33898,6.5254254)" gradientUnits="userSpaceOnUse" xlink:href="#linearGradient3765-0"/><linearGradient id="linearGradient3810-4" x1="-60.339" x2="-60.339" y1="-7.525" y2="42.475" gradientTransform="translate(84.33898,6.5254254)" gradientUnits="userSpaceOnUse" xlink:href="#linearGradient3765-0"/><linearGradient id="linearGradient3774-3" x1="-18" x2="-18" y1="34" y2="6" gradientUnits="userSpaceOnUse" xlink:href="#linearGradient3761-5"/><linearGradient id="linearGradient3767-7" x1="7.056" x2="7.056" y1="13.547" y2=".116" gradientTransform="translate(18.062217,0)" gradientUnits="userSpaceOnUse" xlink:href="#linearGradient3761-5"/><linearGradient id="linearGradient4460-1-1"><stop id="stop3779-5" offset="0" stop-color="#004993"/><stop id="stop3781-9" offset="1" stop-color="#007ec8"/></linearGradient><linearGradient id="linearGradient3002-3-9" x2="0" y1="279.096" y2="268.33" gradientTransform="matrix(1.10525,0,0,1.10525,-134.27874,-295.76183)" gradientUnits="userSpaceOnUse" xlink:href="#linearGradient4460-1-1"/><linearGradient id="linearGradient3003-8" x2="0" y1="279.096" y2="268.33" gradientTransform="matrix(1.10525,0,0,1.10525,-134.27874,-295.76183)" gradientUnits="userSpaceOnUse" xlink:href="#linearGradient4460-2"/><linearGradient id="linearGradient3002-2" x2="0" y1="279.096" y2="268.33" gradientTransform="matrix(1.10525,0,0,1.10525,-134.27874,-295.76183)" gradientUnits="userSpaceOnUse" xlink:href="#linearGradient4460-2"/><linearGradient id="linearGradient4460-2"><stop id="stop7-3" offset="0" stop-color="#215987"/><stop id="stop9-7" offset="1" stop-color="#8cb2d6"/></linearGradient><linearGradient id="linearGradient3761-5"><stop id="stop3763-9" offset="0" stop-color="#628eab" stop-opacity="1"/><stop id="stop3765-2" offset="1" stop-color="#659eb9" stop-opacity="1"/></linearGradient><radialGradient id="radialGradient4090" cx="6.773" cy="6.773" r="5.644" fx="6.773" fy="6.773" gradientTransform="matrix(9.1232048e-8,-4.074803,3.543307,7.9332213e-8,49.692451,50.275013)" gradientUnits="userSpaceOnUse" xlink:href="#linearGradient3761-5"/><linearGradient id="linearGradient3002-1" x2="0" y1="279.096" y2="268.33" gradientTransform="matrix(1.10525,0,0,1.10525,-134.27874,-295.76183)" gradientUnits="userSpaceOnUse" xlink:href="#linearGradient4460-5"/><linearGradient id="linearGradient4460-5"><stop id="stop3037" offset="0" stop-color="#215987"/><stop id="stop3039" offset="1" stop-color="#8cb2d6"/></linearGradient><linearGradient id="linearGradient3006" x2="0" y1="279.096" y2="268.33" gradientTransform="matrix(1.10528,0,0,1.10528,-134.28255,-295.77052)" gradientUnits="userSpaceOnUse" xlink:href="#linearGradient4460-50"/><linearGradient id="linearGradient3005" x2="0" y1="279.096" y2="268.33" gradientTransform="matrix(1.10528,0,0,1.10528,-134.28255,-295.77052)" gradientUnits="userSpaceOnUse" xlink:href="#linearGradient4460-50"/><linearGradient id="linearGradient4460-50"><stop id="stop7-8" offset="0" stop-color="#516182" stop-opacity="1"/><stop id="stop9-6" offset="1" stop-color="#6e84a3" stop-opacity="1"/></linearGradient><linearGradient id="linearGradient3907" x2="0" y1="279.096" y2="268.33" gradientTransform="matrix(3.9163464,0,0,3.9163464,-419.73055,-1046.4433)" gradientUnits="userSpaceOnUse" xlink:href="#linearGradient4460-50"/><linearGradient id="linearGradient4217"><stop id="stop90" offset="0" stop-color="#3051b0"/><stop id="stop92" offset=".096" stop-color="#23b9ce"/><stop id="stop94" offset=".18" stop-color="#22c345"/><stop id="stop96" offset=".26" stop-color="#a2d823"/><stop id="stop98" offset=".34" stop-color="#e7da17"/><stop id="stop100" offset=".424" stop-color="#f7a800"/><stop id="stop102" offset=".521" stop-color="#ff8700"/><stop id="stop104" offset=".609" stop-color="#ff5300"/><stop id="stop106" offset=".711" stop-color="#dc2c2e"/><stop id="stop108" offset=".816" stop-color="#df2a52"/><stop id="stop110" offset=".896" stop-color="#e02bb1"/><stop id="stop112" offset="1" stop-color="#8c12d7"/></linearGradient><linearGradient id="linearGradient4895" x2="0" y1="280" y2="40" gradientTransform="matrix(.175 0 0 .175 302.79999 215.99997)" gradientUnits="userSpaceOnUse" xlink:href="#outerBackgroundGradient"/><linearGradient id="outerBackgroundGradient"><stop id="stop84" offset="0" stop-color="#151515"/><stop id="stop86" offset="1" stop-color="#222"/></linearGradient><linearGradient id="linearGradient4249" x1="8.635" x2="17.631" gradientUnits="userSpaceOnUse" xlink:href="#linearGradient4217"/><linearGradient id="linearGradient4460-27"><stop id="stop78" offset="0" stop-color="#dbdbdb"/><stop id="stop80" offset="1" stop-color="#f9f9f9"/></linearGradient><linearGradient id="linearGradient5844" x2="0" y1="279.096" y2="268.33" gradientTransform="matrix(1.10528,0,0,1.10528,-134.28289,-295.77052)" gradientUnits="userSpaceOnUse" xlink:href="#linearGradient4460-27"/><linearGradient id="linearGradient4825" x2="0" y1="230" y2="90" gradientTransform="matrix(.375 0 0 .375 298 16)" gradientUnits="userSpaceOnUse" xlink:href="#outerBackgroundGradient"/><linearGradient id="linearGradient4863" x2="0" y1="230" y2="90" gradientTransform="matrix(.25 0 0 .25 299.99999 131.99999)" gradientUnits="userSpaceOnUse" xlink:href="#outerBackgroundGradient"/><linearGradient id="linearGradient4878" x1="265" x2="264" y1="40" y2="276" gradientTransform="matrix(-1 0 0 -1 289 315)" gradientUnits="userSpaceOnUse" xlink:href="#outerBackgroundGradient"/><clipPath id="clipPath69" clipPathUnits="userSpaceOnUse"><rect id="rect71" width="20" height="20" x="434" y="78" color="#bebebe" rx="4"/></clipPath><clipPath id="clipPath65" clipPathUnits="userSpaceOnUse"><rect id="rect67" width="22" height="22" x="433" y="77" color="#bebebe" rx="4"/></clipPath><clipPath id="clipPath61" clipPathUnits="userSpaceOnUse"><rect id="rect63" width="22" height="22" x="433" y="77" color="#bebebe" rx="5"/></clipPath><clipPath id="clipPath57" clipPathUnits="userSpaceOnUse"><rect id="rect59" width="30" height="30" x="433" y="29" color="#bebebe" rx="6"/></clipPath><clipPath id="clipPath53" clipPathUnits="userSpaceOnUse"><rect id="rect55" width="60" height="60" x="306" y="142" fill="url(#linearGradient4863)" color="#bebebe" rx="12.5" transform="matrix(0 -1 1 0 0 0)"/></clipPath><clipPath id="clipPath49" clipPathUnits="userSpaceOnUse"><rect id="rect51" width="90" height="90" x="307" y="31" fill="url(#linearGradient4825)" color="#bebebe" rx="18.75"/></clipPath><clipPath id="clipPath45" clipPathUnits="userSpaceOnUse"><rect id="rect47" width="30" height="30" x="433" y="29" fill="#6d6d6d" color="#bebebe" opacity=".2" rx="4"/></clipPath><clipPath id="clipPath41" clipPathUnits="userSpaceOnUse"><rect id="rect43" width="22" height="22" x="433" y="77" fill="#6d6d6d" color="#bebebe" opacity=".2" rx="3"/></clipPath><clipPath id="clipPath37" clipPathUnits="userSpaceOnUse"><path id="path39" d="m 144,70 c -49.705627,0 -90,40.29437 -90,90 0,49.70563 40.294373,90 90,90 49.70563,0 90,-40.29437 90,-90 0,-49.70563 -40.29437,-90 -90,-90 z m 0,32.1875 c 32.03251,0 58,25.96748 58,58 0,32.03252 -25.96749,58 -58,58 -32.03251,0 -58,-25.96748 -58,-58 0,-32.03252 25.96749,-58 58,-58 z" color="#000" opacity=".1"/></clipPath><clipPath id="clipPath33" clipPathUnits="userSpaceOnUse"><path id="path35" fill="#ffcb00" fill-rule="evenodd" d="m 152,204 a 8,8 0 1 1 -16,0 8,8 0 1 1 16,0 z" color="#000"/></clipPath><clipPath id="clipPath29" clipPathUnits="userSpaceOnUse"><rect id="rect31" width="16" height="16" x="432" y="116" color="#bebebe" rx="3"/></clipPath><clipPath id="clipPath25" clipPathUnits="userSpaceOnUse"><path id="path27" fill="url(#linearGradient4878)" fill-rule="evenodd" d="m 145,215 c 33.13708,0 60,-26.86292 60,-60 0,-33.13708 -26.86292,-60 -60,-60 -33.13708,0 -60,26.86292 -60,60 0,12.50698 3.8285,24.10633 10.375,33.71875 L 89,211 111.28125,204.625 C 120.89367,211.1715 132.49302,215 145,215 z" color="#000"/></clipPath><clipPath id="clipPath21" clipPathUnits="userSpaceOnUse"><path id="path23" fill="#003fff" fill-rule="evenodd" d="m 152,204 a 8,8 0 1 1 -16,0 8,8 0 1 1 16,0 z" color="#000" opacity=".5"/></clipPath><clipPath id="clipPath6762" clipPathUnits="userSpaceOnUse"><path id="path19" fill="none" stroke="#000" stroke-linecap="square" stroke-linejoin="round" stroke-width="3" d="m 98.03125,23.191212 c -41.492132,1.05238 -74.84375,35.06824 -74.84375,76.812498 0,42.40687 34.405632,76.8125 76.8125,76.8125 42.40687,0 76.8125,-34.40563 76.8125,-76.8125 0,-42.406866 -34.40563,-76.812498 -76.8125,-76.812498 -0.662607,0 -1.310145,-0.0167 -1.96875,0 z M 100,50.659962 c 27.24464,0 49.34375,22.099114 49.34375,49.343748 -1e-5,27.24464 -22.09911,49.34375 -49.34375,49.34375 -27.244636,-1e-5 -49.34375,-22.09911 -49.34375,-49.34375 0,-27.244634 22.099114,-49.343748 49.34375,-49.343748 z"/></clipPath><clipPath id="clipPath14" clipPathUnits="userSpaceOnUse"><rect id="rect16-2" width="16" height="16" x="432" y="116" fill="#6d6d6d" color="#bebebe" opacity=".2" rx="2"/></clipPath><clipPath id="clipPath10" clipPathUnits="userSpaceOnUse"><rect id="rect12" width="240" height="240" x="24" y="36" fill="#986767" color="#bebebe" rx="50"/></clipPath><clipPath id="clipPath6" clipPathUnits="userSpaceOnUse"><rect id="rect8" width="42" height="42" x="307" y="223" fill="url(#linearGradient4895)" color="#bebebe" rx="9" transform="rotate(90)"/></clipPath><linearGradient id="linearGradient3191" x1="8.635" x2="17.631" gradientTransform="matrix(4.7176298,0,0,3.8296062,18.627857,-113.84953)" gradientUnits="userSpaceOnUse" xlink:href="#linearGradient4217"/><linearGradient id="B" x2="0" y1="1050.36" y2="1006.36" gradientTransform="translate(-78.066775,-887.05181)" gradientUnits="userSpaceOnUse" xlink:href="#0"/><linearGradient id="0"><stop id="stop7-0" stop-color="#c34141"/><stop id="stop9-0" offset="1" stop-color="#d76464"/></linearGradient><linearGradient id="linearGradient3433" x2="0" y1="1050.36" y2="1006.36" gradientTransform="matrix(0.28222223,0,0,0.28222223,6.7059175e-7,-283.45335)" gradientUnits="userSpaceOnUse" xlink:href="#linearGradient3791"/><radialGradient id="radialGradient3069" cx="148.004" cy="160" r="128" gradientTransform="matrix(0.1831,0,0,0.1831,-3.10079,-5.2964)" gradientUnits="userSpaceOnUse" spreadMethod="pad" xlink:href="#linearGradient4460-22"/><linearGradient id="linearGradient4460-22"><stop id="stop8-6" offset="0" stop-color="#747474" stop-opacity="1"/><stop id="stop10-2" offset="1" stop-color="#2d2d2d" stop-opacity="1"/></linearGradient><radialGradient id="radialGradient3029" cx="148.004" cy="160" r="128" gradientTransform="matrix(0.05167489,0,0,0.05167489,-0.87511193,-1.4947622)" gradientUnits="userSpaceOnUse" spreadMethod="pad" xlink:href="#linearGradient4460-22"/></defs><path id="path11" fill="url(#radialGradient3029)" fill-opacity="1" d="m 13.387776,3.2589196 0,7.0290974 c 0,2.892779 0,3.100036 -3.100035,3.100036 l -7.0279949,0 c -3.10113721,0 -3.10113721,-0.207257 -3.10113721,-3.100036 l 0,-7.0290974 c 0,-2.89277729 0,-3.10003449 3.10113721,-3.10003449 l 7.0279949,0 c 3.100035,0 3.100035,0.2072572 3.100035,3.10003449 z"/><path id="path15-7" fill="#fff" fill-opacity=".051" d="m 10.799269,13.388053 c 0.717682,-0.0033 1.235825,-0.02315 1.611753,-0.124576 l -1.193932,-2.04611 -1.2655907,2.170686 0.3362417,0 c 0.180799,0 0.350573,0 0.511528,0 z M 11.21709,11.217367 9.7707013,8.7368971 8.3232099,11.217367 z m 0,0 2.159662,0 c 0.0088,-0.274506 0.01102,-0.582084 0.01102,-0.930452 l 0,-0.3097836 -0.723191,-1.2402343 z M 12.664582,8.7368971 11.21709,6.2564284 9.7707013,8.7368971 z m 0,0 0.723194,0 0,-1.2402343 z m -2.8938807,0 L 8.3232099,6.2564284 6.876821,8.7368971 z m -2.8938803,0 -1.4474916,2.4804679 2.8938805,0 z m 0,0 L 5.4293294,6.2564284 3.9829405,8.7368971 z m -2.8938805,0 -1.4474913,2.4804679 2.8938802,0 z m 0,0 L 2.5354492,6.2564284 1.0890603,8.7368971 z m -2.8938802,0 -0.93045141,1.5941159 c 0,0.329626 0.00331,0.623975 0.011024,0.886354 l 2.36581621,0 z m 0,0 -0.93045141,-1.5941145 0,1.5941145 z m 1.4463889,2.4804699 -1.2170833,2.086901 c 0.450894,0.08268 1.0748699,0.08379 1.9413802,0.08379 l 0.5423958,0 z m 0,-4.9609386 -1.4463889,-2.4804689 -0.93045141,1.5941148 0,0.8863541 z m 0,0 2.8938802,0 L 3.9829405,3.7759595 z M 3.9829405,3.7759595 2.5354492,1.2954914 1.0890603,3.7759595 z m 0,0 2.8938805,0 -1.4474916,-2.4804681 z m 1.4463889,-2.4804681 -0.663663,-1.13660629 -1.5059203,0 c -0.02205,0 -0.039688,0 -0.060634,0 L 2.5354492,1.2954914 z m 0,0 2.8938805,0 -0.6636633,-1.13660629 -1.5665538,0 z m 2.8938805,0 2.8938801,0 -0.663663,-1.13660629 c -0.0882,0 -0.171979,0 -0.265686,0 l -1.300868,0 z m 0,0 -1.4463889,2.4804681 2.8938803,0 z m 1.4474914,2.4804681 2.8938807,0 -1.447492,-2.4804681 z m 0,0 -1.4474914,2.4804689 2.8938801,0 z m 1.4463887,2.4804689 2.170686,0 0,-1.2402343 -0.723194,-1.2402346 z m 1.447492,-2.4804689 0.723194,0 0,-0.5170399 c 0,-0.2579689 -0.0022,-0.4938883 -0.0066,-0.7121694 z M 8.3232099,6.2564284 6.876821,3.7759595 5.4293294,6.2564284 z m 2.8938801,-4.960937 2.062648,0 C 13.123193,0.51717491 12.747264,0.27133311 11.859807,0.19416281 z m -8.6816408,0 L 1.8850153,0.17983161 C 0.85203769,0.23826061 0.43421639,0.46095091 0.26664689,1.2954914 z M 1.0890603,3.7759595 0.17514539,2.2083036 c -0.012127,0.3031688 -0.016535,0.6515366 -0.016535,1.050616 l 0,0.5170399 z m 4.3402691,7.4414075 -1.2655903,2.170686 2.532283,0 z m 2.8938805,0 -1.2655906,2.170686 2.532283,0 z m -7.59133711,1.868619 -0.4519964,-0.775009 c 0.082682,0.371519 0.2215885,0.615158 0.4519964,0.775009 z"/><path id="rect3788" fill="#f9f9f9" fill-opacity="1" stroke="none" d="m 6.7116036,3.9508898 c -0.016361,0.00142 -0.02794,0.014422 -0.044097,0.017639 -0.04218,0.0084 -0.084439,0.00526 -0.1234722,0.026458 -0.078017,0.04235 -0.1314617,0.1119615 -0.1675695,0.1852083 -0.013859,0.028121 -0.045696,0.057511 -0.052917,0.088194 L 5.7150064,5.2561676 C 5.578815,5.4779607 5.6490036,5.7563102 5.8649369,5.8735287 6.0772871,5.9888021 6.3526198,5.9107149 6.4911175,5.6971398 l 0,1.0759723 -1.9755556,0 0,-1.3229167 0.035278,0.052917 c 0.08512,0.1267389 0.2530972,0.1816345 0.3880553,0.1146524 0.1349579,-0.066982 0.1821338,-0.234858 0.097014,-0.3615972 L 4.656673,4.7005426 C 4.653663,4.6888526 4.635079,4.6763496 4.630215,4.6652646 l -0.00882,-0.017639 c -0.022568,-0.041855 -0.057073,-0.081632 -0.1058331,-0.105833 -0.024395,-0.01211 -0.044195,-0.012836 -0.070556,-0.017639 -0.023246,-0.00424 -0.046943,-0.00996 -0.070556,-0.00882 -0.013357,-6.293e-4 -0.021963,-0.00105 -0.035278,0 -0.010224,8.08e-4 -0.025184,0.00699 -0.035278,0.00882 -0.026363,0.0048 -0.046159,0.00553 -0.070556,0.017639 -0.048761,0.024199 -0.083266,0.063978 -0.1058334,0.1058333 -0.00866,0.016069 -0.030767,0.035385 -0.035278,0.052917 L 3.7129908,5.256168 c -0.08512,0.1267392 -0.037944,0.2946151 0.097014,0.3615972 0.1349578,0.066982 0.3029362,0.012087 0.3880556,-0.1146528 l 0.035278,-0.052917 0,1.3846528 c 0,0.011858 0.0058,0.024407 0.00882,0.035278 -0.00325,0.011702 -0.00882,0.022513 -0.00882,0.035278 l 0,0.017639 c 0,0.07557 0.056722,0.1322917 0.1322916,0.1322917 l 2.1254862,0 0,1.2170834 C 6.3803885,8.1801832 6.2230061,8.1529298 6.0942425,8.219501 5.9322924,8.3032304 5.8774461,8.5108658 5.9795897,8.6692927 l 0.4586111,0.6967361 c 0.00541,0.021917 0.024885,0.041649 0.035278,0.061736 0.027081,0.05232 0.064959,0.1020408 0.1234722,0.1322917 0.013061,0.00675 0.030385,0.00633 0.044097,0.00882 0.016982,0.0081 0.034077,0.013457 0.052917,0.017639 0.012115,0.00229 0.02301,0.00776 0.035278,0.00882 0.00606,4.303e-4 0.011461,0 0.017639,0 0.00905,5.75e-5 0.016842,4.656e-4 0.026458,0 0.025226,0.00126 0.046321,-0.00398 0.070556,-0.00882 0.00293,-5.424e-4 0.00593,6.415e-4 0.00882,0 0.031634,-0.006 0.067736,-0.01132 0.097014,-0.026458 0.058512,-0.030251 0.096391,-0.079972 0.1234723,-0.1322917 l 0.00882,-0.017639 c 0.00583,-0.013858 0.022858,-0.029485 0.026458,-0.044097 L 7.5670898,8.6692927 C 7.6692328,8.5108658 7.6143865,8.3032304 7.452437,8.219501 7.3236736,8.1529296 7.1662913,8.1801835 7.055562,8.2724177 l 0,-1.2170834 2.1254861,0 c 0.07557,0 0.1322917,-0.056722 0.1322917,-0.1322917 l 0,-0.017639 c 0,-0.012765 -0.00557,-0.023575 -0.00882,-0.035278 0.00302,-0.010871 0.00882,-0.02342 0.00882,-0.035278 l 0,-1.3846528 0.035278,0.052917 C 9.4337375,5.6298513 9.601715,5.6847469 9.7366731,5.6177648 9.8716313,5.5507827 9.918805,5.3829068 9.833687,5.2561676 L 9.4544509,4.7005426 c -0.00301,-0.01169 -0.021594,-0.024193 -0.026458,-0.035278 l -0.00882,-0.017639 c -0.022569,-0.041855 -0.057073,-0.081632 -0.1058331,-0.105833 -0.024395,-0.01211 -0.044195,-0.012836 -0.070556,-0.017639 -0.023246,-0.00424 -0.046943,-0.00996 -0.070555,-0.00882 -0.013357,-6.293e-4 -0.021963,-0.00105 -0.035278,0 -0.010224,8.08e-4 -0.025184,0.00699 -0.035278,0.00882 -0.026363,0.0048 -0.046159,0.00553 -0.070555,0.017639 -0.048761,0.024199 -0.083266,0.063978 -0.1058334,0.1058333 -0.00866,0.016069 -0.030767,0.035385 -0.035278,0.052917 L 8.5107706,5.256168 c -0.08512,0.1267392 -0.037944,0.2946151 0.097014,0.3615972 0.1349581,0.066982 0.3029362,0.012087 0.3880556,-0.1146528 l 0.035278,-0.052917 0,1.3229167 -1.9755556,0 0,-1.0759723 C 7.1940605,5.9107137 7.469392,5.9888021 7.6817425,5.8735287 7.8976753,5.7563102 7.9678648,5.4779607 7.8316731,5.2561676 L 7.2231314,4.2683898 C 7.2183187,4.2479318 7.195628,4.2348708 7.1878536,4.2154731 L 7.1702147,4.1801953 C 7.1341092,4.1069485 7.0806617,4.0373378 7.0026453,3.994987 6.9636083,3.9737932 6.9213526,3.9769344 6.8791731,3.9685286 c -0.037193,-0.00741 -0.068053,-0.01962 -0.1058334,-0.017639 -0.021374,-0.0011 -0.040433,-0.00184 -0.061736,0 z"/></svg>