<svg xmlns="http://www.w3.org/2000/svg" xmlns:svg="http://www.w3.org/2000/svg" xmlns:xlink="http://www.w3.org/1999/xlink" id="svg2" width="48" height="48" version="1.1"><metadata id="metadata92"/><defs id="defs4"><linearGradient id="0" x2="0" y1="1050.36" y2="1006.36" gradientUnits="userSpaceOnUse" xlink:href="#1"/><linearGradient id="1"><stop id="stop8" stop-color="#2d2d2d"/><stop id="stop10" offset="1" stop-color="#4b4b4b"/></linearGradient><radialGradient id="radialGradient3016" cx="148.004" cy="160" r="128" gradientTransform="matrix(0.05167489,0,0,0.05167489,-0.87511191,-1.4948469)" gradientUnits="userSpaceOnUse" spreadMethod="pad" xlink:href="#linearGradient4460"/><linearGradient id="linearGradient4460"><stop id="stop8-6" offset="0" stop-color="#747474" stop-opacity="1"/><stop id="stop10-2" offset="1" stop-color="#2d2d2d" stop-opacity="1"/></linearGradient><linearGradient id="linearGradient3119" x2="0" y1="1050.36" y2="1006.36" gradientTransform="translate(0,-1004.3622)" gradientUnits="userSpaceOnUse" xlink:href="#1"/><radialGradient id="radial0" cx="148.004" cy="160" r="128" gradientTransform="matrix(0.1831,0,0,0.1831,-3.10029,-5.29688)" gradientUnits="userSpaceOnUse"><stop id="stop7" offset="0" stop-color="#e0bbc0"/><stop id="stop9" offset="1" stop-color="#69131e"/></radialGradient><radialGradient id="radialGradient3096" cx="148.004" cy="160" r="128" gradientTransform="matrix(0.1831,0,0,0.1831,-3.10079,-5.2963805)" gradientUnits="userSpaceOnUse" xlink:href="#radial0"/></defs><path id="path11" fill="url(#radialGradient3096)" d="m 47.437,11.547375 0,24.90625 c 0,10.25 0,10.984375 -10.984375,10.984375 l -24.902344,0 C 0.562,47.437999 0.562,46.703624 0.562,36.453625 l 0,-24.90625 c 0,-10.25 0,-10.984375 10.988281,-10.984375 l 24.902344,0 C 47.437,0.563 47.437,1.297375 47.437,11.547375 z"/><g id="g15" fill="#fff" transform="translate(-5e-4,5e-4)"><path id="path17" fill-opacity=".051" d="m 38.265625,47.4375 c 2.542969,-0.01172 4.378906,-0.08203 5.710937,-0.441406 l -4.230468,-7.25 -4.484375,7.691406 1.191406,0 c 0.640625,0 1.242187,0 1.8125,0 z m 1.480469,-7.691406 -5.125,-8.789063 -5.128906,8.789063 z m 0,0 7.652344,0 c 0.03125,-0.972656 0.03906,-2.0625 0.03906,-3.296875 l 0,-1.097657 -2.5625,-4.394531 z m 5.128906,-8.789063 -5.128906,-8.789062 -5.125,8.789062 z m 0,0 2.5625,0 0,-4.394531 z m -10.253906,0 -5.128906,-8.789062 -5.125,8.789062 z m -10.253906,0 -5.128907,8.789063 10.253907,0 z m 0,0 -5.128907,-8.789062 -5.125,8.789062 z m -10.253907,0 -5.128906,8.789063 10.253906,0 z m 0,0 -5.128906,-8.789062 -5.125,8.789062 z m -10.253906,0 -3.296875,5.648438 c 0,1.167969 0.011719,2.210937 0.039062,3.140625 l 8.382813,0 z m 0,0 -3.296875,-5.648437 0,5.648437 z m 5.125,8.789063 -4.3125,7.394531 c 1.597656,0.292969 3.808594,0.296875 6.875,0.296875 l 1.925781,0 z m 0,-17.578125 -5.125,-8.789063 -3.296875,5.648438 0,3.140625 z m 0,0 10.253906,0 -5.125,-8.789063 z m 5.128906,-8.789063 -5.128906,-8.789062 -5.125,8.789062 z m 0,0 10.253907,0 -5.128907,-8.789062 z m 5.125,-8.789062 -2.351562,-4.027344 -5.339844,0 c -0.07422,0 -0.136719,0 -0.210937,0 L 8.984375,4.589844 z m 0,0 10.253907,0 -2.351563,-4.027344 -5.550781,0 z m 10.253907,0 10.253906,0 L 37.394531,0.5625 c -0.3125,0 -0.609375,0 -0.941406,0 l -4.609375,0 z m 0,0 -5.125,8.789062 10.253906,0 z m 5.128906,8.789062 10.253906,0 -5.128906,-8.789062 z m 0,0 -5.128906,8.789063 10.253906,0 z m 5.125,8.789063 7.691406,0 0,-4.394531 -2.5625,-4.394532 z m 5.128906,-8.789063 2.5625,0 0,-1.832031 c 0,-0.914063 -0.0078,-1.75 -0.02344,-2.523437 z m -15.382812,8.789063 -5.125,-8.789063 -5.128907,8.789063 z m 10.253906,-17.578125 7.308594,0 C 46.5,1.832031 45.167969,0.960938 42.023438,0.6875 z m -30.761719,0 L 6.679688,0.636719 C 3.019531,0.84375 1.539062,1.632812 0.945312,4.589844 z m -5.125,8.789062 L 0.621094,7.824219 C 0.578125,8.898438 0.5625,10.132812 0.5625,11.546875 l 0,1.832031 z m 15.378906,26.367188 -4.484375,7.691406 8.972656,0 z m 10.253907,0 -4.484376,7.691406 8.972657,0 z M 2.59375,46.367188 0.992188,43.621094 c 0.292968,1.316406 0.785156,2.179687 1.601562,2.746094 z"/></g><path id="path32" fill="#f9f9f9" fill-opacity="1" d="m 18.822449,21.342471 c 0,0 0.443384,0.656432 1.020561,0.651326 0.598292,-0.0053 1.172044,-0.398057 1.568136,-0.818109 0.42053,-0.445962 0.714594,-1.654807 0.714594,-1.654807 0.282957,0.873922 0.547585,1.670585 1.151291,2.286982 0.626101,-0.293616 0.913128,-0.947764 1.19099,-1.524654 0.841371,0.669326 1.646088,1.398741 2.084233,2.342761 0.251962,-0.250265 0.503924,-0.637874 0.535945,-1.059822 -0.03,-0.681754 -0.179143,-1.363511 -0.337447,-2.045267 0.77262,0.249801 1.508587,0.551106 2.26288,0.929668 -0.194184,-0.388652 -0.338459,-0.804015 -0.411445,-1.206023 -2.042689,-1.380691 -2.493777,-2.845864 -3.836419,-4.241823 -1.696245,2.436918 -3.466436,4.399549 -5.943319,6.339768 z"/><path id="path34" fill="#f9f9f9" fill-opacity="1" d="m 25.261118,33.000211 c 1.062964,-0.16854 1.832739,-0.650944 2.560631,-1.50606 -0.645027,-0.210842 -1.143457,-0.657083 -1.369641,-1.33872 0.174909,-1.865119 3.030409,-2.082454 4.545613,-3.12368 -3.88111,-0.435116 -6.041056,-1.433719 -8.35678,-4.12772 -1.164522,0.194383 -2.33886,0.05782 -3.49357,-0.464833 -1.608595,0.252601 -2.284856,2.564393 -4.148615,2.826186 0.697369,0.180982 1.011991,0.518242 1.032191,0.873888 1.925656,-0.557767 3.890567,0.566751 5.835851,-0.01859 -0.562663,1.436626 -1.627938,2.343607 -3.195823,2.95634 1.869224,1.064877 4.115406,1.011616 5.796152,2.547288 0.536912,0.380169 0.717806,0.995736 0.793991,1.375906 z"/><rect id="rect42" width="6.184" height=".384" x="18.515" y="22.954" fill="#f9f9f9" fill-opacity="1" stroke="#f9f9f9" stroke-linecap="round" stroke-linejoin="round" stroke-opacity="1" stroke-width=".348" rx=".007" transform="matrix(0.97818808,0.20772114,-0.23488644,0.97202282,0,0)"/><g id="g44" fill="#f9f9f9" fill-opacity="1" stroke="#f9f9f9" stroke-linecap="round" stroke-linejoin="round" stroke-opacity="1" transform="matrix(3.2850059,0,0,3.3465826,0.84954663,1.3659866)"><rect id="rect46" width=".09" height="1.1" x="9.29" y="2.692" fill="#f9f9f9" fill-opacity="1" stroke="#f9f9f9" stroke-opacity="1" stroke-width=".136" rx=".002" transform="matrix(0.77665,0.62994,-0.69177,0.72212,0,0)"/><rect id="rect48" width="2.582" height=".104" x="7.74" y="6.343" fill="#f9f9f9" fill-opacity="1" stroke="#f9f9f9" stroke-opacity="1" stroke-width=".118" rx=".001" transform="matrix(0.93564,0.35295,-0.40697,0.91344,0,0)"/></g><rect id="rect52" width=".277" height="3.253" x="44.691" y="18.792" fill="#f9f9f9" fill-opacity="1" stroke="#f9f9f9" stroke-linecap="round" stroke-linejoin="round" stroke-opacity="1" stroke-width=".413" rx=".007" transform="matrix(0.87063142,0.49193591,-0.80876643,0.58812997,0,0)"/><rect id="rect54" width=".284" height="2.264" x="-34.609" y="13.018" fill="#f9f9f9" fill-opacity="1" stroke="#f9f9f9" stroke-linecap="round" stroke-linejoin="round" stroke-opacity="1" stroke-width=".348" rx=".003" transform="matrix(-0.24504995,-0.96951045,0.99367774,0.11227,0,0)"/><path id="path60" fill="#f9f9f9" fill-opacity="1" stroke="#f9f9f9" stroke-linecap="round" stroke-linejoin="round" stroke-opacity="1" stroke-width=".759" d="m 21.717658,34.862149 a 0.40892026,0.38332825 0 0 1 -0.81784,0 0.40892026,0.38332825 0 1 1 0.81784,0 z"/><path id="path62" fill="#f9f9f9" fill-opacity="1" stroke="#f9f9f9" stroke-linecap="round" stroke-linejoin="round" stroke-opacity="1" stroke-width=".759" d="m 24.452788,33.100324 a 0.40892026,0.38332825 0 0 1 -0.81784,0 0.40892026,0.38332825 0 1 1 0.81784,0 z"/><path id="path64" fill="#f9f9f9" fill-opacity="1" stroke="#f9f9f9" stroke-linecap="round" stroke-linejoin="round" stroke-opacity="1" stroke-width=".759" d="m 16.369992,30.08853 a 0.4089205,0.38332847 0 0 1 -0.817841,0 0.4089205,0.38332847 0 1 1 0.817841,0 z"/><path id="path66" fill="#f9f9f9" fill-opacity="1" stroke="#f9f9f9" stroke-linecap="round" stroke-linejoin="round" stroke-opacity="1" stroke-width=".759" d="m 19.151237,27.53158 a 0.40892026,0.38332825 0 0 1 -0.81784,0 0.40892026,0.38332825 0 1 1 0.81784,0 z"/><g id="g68" fill="#f9f9f9" fill-opacity="1" stroke="#f9f9f9" stroke-linecap="round" stroke-linejoin="round" stroke-opacity="1" transform="matrix(3.2850059,0,0,3.3465826,0.84954663,1.3659866)"><path id="path70" fill="#f9f9f9" fill-opacity="1" stroke="#f9f9f9" stroke-opacity="1" stroke-width=".202" d="m 7.0117975,10.14823 a 0.1095339,0.10078669 0 0 1 -0.2190678,0 0.1095339,0.10078669 0 1 1 0.2190678,0 z"/></g><rect id="rect74" width=".07" height="18.284" x="-28.111" y="-14.386" fill="#f9f9f9" fill-opacity="1" stroke="#f9f9f9" stroke-linecap="round" stroke-linejoin="round" stroke-opacity="1" stroke-width=".754" rx=".033" ry=".043" transform="matrix(-0.54739431,-0.83687482,-0.66577786,0.74615002,0,0)"/><path id="path76" fill="#f9f9f9" fill-opacity="1" stroke="#f9f9f9" stroke-linecap="round" stroke-linejoin="round" stroke-opacity="1" stroke-width=".759" d="m 13.197482,26.294304 a 0.40892026,0.38332825 0 0 1 -0.81784,0 0.40892026,0.38332825 0 1 1 0.81784,0 z"/><g id="g80" fill="#f9f9f9" fill-opacity="1" stroke="#f9f9f9" stroke-linecap="round" stroke-linejoin="round" stroke-opacity="1" transform="matrix(3.2850059,0,0,3.3465826,0.84954663,1.3659866)"><path id="path82" fill="#f9f9f9" fill-opacity="1" stroke="#f9f9f9" stroke-opacity="1" stroke-width=".229" d="m 7.4567521,3.4056819 a 0.12448085,0.11454321 0 0 1 -0.2489617,0 0.12448085,0.11454321 0 1 1 0.2489617,0 z"/></g><rect id="rect86" width=".063" height="15.337" x="9.845" y="25.569" fill="#f9f9f9" fill-opacity="1" stroke="#f9f9f9" stroke-linecap="round" stroke-linejoin="round" stroke-opacity="1" stroke-width=".746" rx=".03" ry=".037" transform="matrix(0.78083989,-0.62473119,0.67207983,0.7404787,0,0)"/><path id="path88" fill="#f9f9f9" fill-opacity="1" stroke="#f9f9f9" stroke-linecap="round" stroke-linejoin="round" stroke-opacity="1" stroke-width=".759" d="m 35.620345,24.109171 a 0.40892082,0.38332878 0 0 1 -0.817841,0 0.40892082,0.38332878 0 1 1 0.817841,0 z"/></svg>