<svg xmlns="http://www.w3.org/2000/svg" xmlns:svg="http://www.w3.org/2000/svg" xmlns:xlink="http://www.w3.org/1999/xlink" id="svg2" width="48" height="48" version="1.1"><metadata id="metadata112"/><defs id="defs4"><clipPath id="clipPath6"><rect id="rect8" width="42" height="42" x="307" y="223" fill="url(#3)" color="#bebebe" rx="9" transform="rotate(90)"/></clipPath><clipPath id="clipPath10"><rect id="rect12" width="240" height="240" x="24" y="36" fill="#986767" color="#bebebe" rx="50"/></clipPath><clipPath id="clipPath14"><rect id="rect16" width="16" height="16" x="432" y="116" fill="#6d6d6d" color="#bebebe" opacity=".2" rx="2"/></clipPath><clipPath id="clipPath18"><path id="path20" d="m 98.03125,23.191212 c -41.492132,1.05238 -74.84375,35.06824 -74.84375,76.812498 0,42.40687 34.405632,76.8125 76.8125,76.8125 42.40687,0 76.8125,-34.40563 76.8125,-76.8125 0,-42.406866 -34.40563,-76.812498 -76.8125,-76.812498 -0.662607,0 -1.310145,-0.0167 -1.96875,0 z M 100,50.659962 c 27.24464,0 49.34375,22.099114 49.34375,49.343748 -1e-5,27.24464 -22.09911,49.34375 -49.34375,49.34375 -27.244636,-1e-5 -49.34375,-22.09911 -49.34375,-49.34375 0,-27.244634 22.099114,-49.343748 49.34375,-49.343748 z"/></clipPath><clipPath id="clipPath22"><path id="path24" d="m 152,204 a 8,8 0 1 1 -16,0 8,8 0 1 1 16,0 z"/></clipPath><clipPath id="clipPath26"><path id="path28" d="m 145,215 c 33.13708,0 60,-26.86292 60,-60 0,-33.13708 -26.86292,-60 -60,-60 -33.13708,0 -60,26.86292 -60,60 0,12.50698 3.8285,24.10633 10.375,33.71875 L 89,211 111.28125,204.625 C 120.89367,211.1715 132.49302,215 145,215 z"/></clipPath><clipPath id="clipPath30"><rect id="rect32" width="16" height="16" x="432" y="116" color="#bebebe" rx="3"/></clipPath><clipPath id="clipPath34"><path id="path36" d="m 144,70 c -49.705627,0 -90,40.29437 -90,90 0,49.70563 40.294373,90 90,90 49.70563,0 90,-40.29437 90,-90 0,-49.70563 -40.29437,-90 -90,-90 z m 0,32.1875 c 32.03251,0 58,25.96748 58,58 0,32.03252 -25.96749,58 -58,58 -32.03251,0 -58,-25.96748 -58,-58 0,-32.03252 25.96749,-58 58,-58 z"/></clipPath><clipPath id="clipPath38"><rect id="rect40" width="22" height="22" x="433" y="77" fill="#6d6d6d" color="#bebebe" opacity=".2" rx="3"/></clipPath><clipPath id="clipPath42"><rect id="rect44" width="30" height="30" x="433" y="29" fill="#6d6d6d" color="#bebebe" opacity=".2" rx="4"/></clipPath><clipPath id="clipPath46"><rect id="rect48" width="90" height="90" x="307" y="31" fill="url(#1)" color="#bebebe" rx="18.75"/></clipPath><clipPath id="clipPath50"><rect id="rect52" width="60" height="60" x="306" y="142" fill="url(#0)" color="#bebebe" rx="12.5" transform="matrix(0 -1 1 0 0 0)"/></clipPath><clipPath id="clipPath54"><rect id="rect56" width="30" height="30" x="433" y="29" color="#bebebe" rx="6"/></clipPath><clipPath id="clipPath58"><rect id="rect60" width="22" height="22" x="433" y="77" color="#bebebe" rx="5"/></clipPath><clipPath id="clipPath62"><rect id="rect64" width="22" height="22" x="433" y="77" color="#bebebe" rx="4"/></clipPath><clipPath id="clipPath66"><rect id="rect68" width="20" height="20" x="434" y="78" color="#bebebe" rx="4"/></clipPath><linearGradient id="linearGradient70" x1="265" x2="264" y1="40" y2="276" gradientTransform="matrix(-1 0 0 -1 289 315)" gradientUnits="userSpaceOnUse" xlink:href="#2"/><linearGradient id="0" x2="0" y1="230" y2="90" gradientTransform="matrix(.25 0 0 .25 299.99999 131.99999)" gradientUnits="userSpaceOnUse" xlink:href="#2"/><linearGradient id="1" x2="0" y1="230" y2="90" gradientTransform="matrix(.375 0 0 .375 298 16)" gradientUnits="userSpaceOnUse" xlink:href="#2"/><linearGradient id="2"><stop id="stop75" stop-color="#151515"/><stop id="stop77" offset="1" stop-color="#222"/></linearGradient><linearGradient id="3" x2="0" y1="280" y2="40" gradientTransform="matrix(.175 0 0 .175 302.79999 215.99997)" gradientUnits="userSpaceOnUse" xlink:href="#2"/><linearGradient id="4"><stop id="stop81" stop-color="#cdcdcd"/><stop id="stop83" offset="1" stop-color="#e2e2e2"/></linearGradient><linearGradient id="5" x2="0" y1="1050.36" y2="1006.36" gradientUnits="userSpaceOnUse" xlink:href="#4"/><radialGradient id="radialGradient3010" cx="148.004" cy="160" r="128" gradientTransform="matrix(0.1831,0,0,0.1831,-3.100791,-5.296401)" gradientUnits="userSpaceOnUse" spreadMethod="pad" xlink:href="#linearGradient4460"/><linearGradient id="linearGradient4460"><stop id="stop8-6" offset="0" stop-color="#ddd" stop-opacity="1"/><stop id="stop10-2" offset="1" stop-color="#888" stop-opacity="1"/></linearGradient><radialGradient id="radialGradient3049" cx="148.004" cy="160" r="128" gradientTransform="matrix(0.1831,0,0,0.1831,-3.100791,-5.296401)" gradientUnits="userSpaceOnUse" spreadMethod="pad" xlink:href="#linearGradient4460"/><linearGradient id="linearGradient3112" x2="0" y1="1050.36" y2="1006.36" gradientTransform="translate(0,-1004.3622)" gradientUnits="userSpaceOnUse" xlink:href="#4"/></defs><path id="path11" fill="url(#radialGradient3049)" fill-opacity="1" d="m 47.437,11.547353 0,24.90625 c 0,10.250004 0,10.984379 -10.984375,10.984379 l -24.902344,0 C 0.562,47.437982 0.562,46.703607 0.562,36.453603 l 0,-24.90625 c 0,-10.2499991 0,-10.984374 10.988281,-10.984374 l 24.902344,0 C 47.437,0.562979 47.437,1.2973539 47.437,11.547353 z"/><path id="path15-7" fill="#fff" fill-opacity=".051" d="m 38.265125,47.437982 c 2.542968,-0.01169 4.378908,-0.08203 5.710936,-0.441411 l -4.230467,-7.249996 -4.484375,7.691407 1.191406,0 c 0.640626,0 1.242187,0 1.8125,0 z m 1.480469,-7.691407 -5.125,-8.789066 -5.128906,8.789066 z m 0,0 7.652345,0 c 0.03118,-0.972659 0.03905,-2.062502 0.03905,-3.296877 l 0,-1.097658 -2.562491,-4.394531 z m 5.128908,-8.789066 -5.128908,-8.789062 -5.125,8.789062 z m 0,0 2.562498,0 0,-4.394531 z m -10.253908,0 -5.128906,-8.789062 -5.125,8.789062 z m -10.253906,0 -5.128907,8.789059 10.253907,0 z m 0,0 -5.128907,-8.789062 -5.125,8.789062 z m -10.253907,0 -5.128907,8.789059 10.253907,0 z m 0,0 -5.128907,-8.789062 -5.124999,8.789062 z m -10.253906,0 L 0.562,36.605951 c 0,1.167966 0.01173,2.210935 0.03906,3.140624 l 8.382813,0 z m 0,0 -3.296875,-5.648437 0,5.648437 z m 5.124999,8.789066 -4.312499,7.394531 C 6.269031,47.434067 8.479969,47.438 11.550281,47.438 l 1.921875,0 z m 0,-17.578128 -5.124999,-8.789063 -3.296875,5.648438 0,3.140625 z m 0,0 10.253907,0 -5.125,-8.789063 z M 14.112781,13.379384 8.983874,4.5903227 3.858875,13.379384 z m 0,0 10.253907,0 -5.128907,-8.7890613 z m 5.125,-8.7890613 -2.351562,-4.0273437 -5.335938,0 c -0.07813,0 -0.140627,0 -0.214845,0 L 8.983874,4.5903227 z m 0,0 10.253907,0 -2.351563,-4.0273437 -5.550781,0 z m 10.253907,0 10.253906,0 -2.351562,-4.0273437 c -0.31252,0 -0.609375,0 -0.941407,0 l -4.609375,0 z m 0,0 -5.125,8.7890613 10.253906,0 z m 5.128906,8.7890613 10.253908,0 -5.128908,-8.7890613 z m 0,0 -5.128906,8.789063 10.253906,0 z m 5.125,8.789063 7.691406,0 0,-4.394531 -2.562498,-4.394532 z m 5.128908,-8.789063 2.562498,0 0,-1.832031 c 0,-0.914063 -0.0078,-1.7499993 -0.02338,-2.5234363 z m -15.382814,8.789063 -5.125,-8.789063 -5.128907,8.789063 z m 10.253906,-17.5781243 7.308595,0 C 46.499502,1.8325098 45.16747,0.961417 42.022937,0.687979 z m -30.76172,0 L 6.679187,0.637198 C 3.019031,0.84423 1.538562,1.6332909 0.944812,4.5903227 z M 3.858875,13.379384 0.620593,7.8246976 c -0.04297,1.074219 -0.05859,2.3085934 -0.05859,3.7226554 l 0,1.832031 z m 15.378906,26.367191 -4.484375,7.691407 8.972656,0 z m 10.253907,0 -4.484376,7.691407 8.972657,0 z M 2.59325,46.367666 0.991688,43.621571 c 0.292967,1.316406 0.785156,2.179694 1.601562,2.746095 z"/><rect id="rect104" width="24" height="24" x="8" y="11.998" fill="#f9f9f9" fill-opacity="1" rx="1.604"/><path id="path106" fill="#f9f9f9" fill-opacity="1" d="m 38,35 0,-20 1.5,-3 1.5,3 3e-6,20 z"/><path id="path108" fill="#f9f9f9" fill-opacity="1" d="m 39.222564,33.9702 c -0.02224,0.2736 0.03553,1.846 0.0934,2.3021 0.04807,0.3791 0.05458,0.6182 0.0705,0.7227 -0.08344,0.043 -0.165623,0.1 -0.352532,0.1808 -0.130832,0.057 -0.88571,0.1401 -0.998126,0.1736 -0.112417,0.034 -0.200157,0.029 -0.176266,0.036 -0.01803,-0.016 -0.03691,-0.035 -0.0705,-0.072 -0.0672,-0.076 -0.177346,-0.2019 -0.282026,-0.3253 -0.209359,-0.2466 -0.468774,-0.5476 -0.77557,-0.7948 -0.306796,-0.2474 -0.641764,-0.4512 -1.022343,-0.4336 -0.380578,0.017 -0.773745,0.2976 -1.057596,0.831 -0.548395,1.0305 -0.499792,1.7326 -0.564051,2.1319 -0.03212,0.1997 -0.0834,0.3011 -0.211519,0.3975 -0.128118,0.096 -0.381061,0.1824 -0.846078,0.253 -0.975744,0.1482 -1.743931,0.4364 -2.291458,0.4697 -0.273763,0.016 -0.507358,-0.02 -0.66981,-0.1445 C 29.906136,39.574 29.789317,39.3501 29.680804,38.9395 29.236,37.256 30,35 30,35 l -0.352533,-0.1445 c 0,0 -0.828894,2.3967 -0.354445,4.1923 0.121292,0.4591 0.31218,0.783 0.56405,0.9756 0.25187,0.1928 0.558468,0.2365 0.88133,0.2169 0.645725,-0.039 1.428507,-0.328 2.361966,-0.4698 0.489585,-0.074 0.770489,-0.1984 0.987089,-0.3613 0.2166,-0.1629 0.313951,-0.3745 0.352532,-0.6142 0.07716,-0.4796 0.05178,-1.061 0.564051,-2.0236 0.246483,-0.4632 0.468025,-0.6035 0.705064,-0.6143 0.237039,-0.012 0.538672,0.1064 0.810824,0.3252 0.272153,0.2193 0.500101,0.5174 0.705064,0.7588 0.102475,0.1207 0.206827,0.2403 0.282025,0.3252 0.03759,0.043 0.07174,0.076 0.105757,0.1087 0.03402,0.031 0.06195,0.049 0.141014,0.072 0.147636,0.043 0.251605,0 0.387785,-0.036 0.136177,-0.041 0.894629,-0.1121 1.03338,-0.1737 0.277499,-0.1212 0.528797,-0.2528 0.528797,-0.2528 l 0.105757,-0.072 0,-0.1446 c 0,0 -0.08396,-0.3812 -0.141012,-0.8311 -0.05705,-0.4498 -0.07127,-2.1045 -0.05815,-2.2659 l -0.387785,0 z" color="#000"/></svg>