<svg xmlns="http://www.w3.org/2000/svg" xmlns:svg="http://www.w3.org/2000/svg" xmlns:xlink="http://www.w3.org/1999/xlink" id="svg2" width="48" height="48" version="1.1" viewBox="0 0 13.547 13.547"><metadata id="metadata24"/><defs id="defs4"><linearGradient id="linearGradient4460"><stop id="stop7" offset="0" stop-color="#cecece" stop-opacity="1"/><stop id="stop9" offset="1" stop-color="#e9e9e9" stop-opacity="1"/></linearGradient><linearGradient id="linearGradient3002" x2="0" y1="279.096" y2="268.33" gradientTransform="matrix(1.10525,0,0,1.10525,-134.27874,-295.76183)" gradientUnits="userSpaceOnUse" xlink:href="#linearGradient4460"/><linearGradient id="linearGradient3807" x2="0" y1="279.096" y2="268.33" gradientTransform="matrix(1.10525,0,0,1.10525,-134.27874,-295.76183)" gradientUnits="userSpaceOnUse" xlink:href="#linearGradient4460"/><linearGradient id="linearGradient4151" x1="323.06" x2="147.689" y1="147.101" y2="293.003" gradientUnits="userSpaceOnUse" xlink:href="#linearGradient4689"/><linearGradient id="linearGradient4149" x1="484.34" x2="495.449" y1="182.381" y2="243.323" gradientUnits="userSpaceOnUse" xlink:href="#linearGradient4689"/><linearGradient id="linearGradient4147" x1="484.34" x2="495.449" y1="182.381" y2="243.323" gradientUnits="userSpaceOnUse" xlink:href="#linearGradient4689"/><linearGradient id="linearGradient4145" x1="485.78" x2="496.889" y1="185.981" y2="249.083" gradientUnits="userSpaceOnUse" xlink:href="#linearGradient4689"/><linearGradient id="linearGradient4143" x1="485.78" x2="496.889" y1="185.981" y2="249.083" gradientUnits="userSpaceOnUse" xlink:href="#linearGradient4689"/><linearGradient id="linearGradient4141" x1="486.5" x2="496.169" y1="184.541" y2="248.363" gradientUnits="userSpaceOnUse" xlink:href="#linearGradient4689"/><linearGradient id="linearGradient4139" x1="486.5" x2="496.169" y1="184.541" y2="248.363" gradientUnits="userSpaceOnUse" xlink:href="#linearGradient4689"/><linearGradient id="linearGradient4137" x1="323.06" x2="464.489" y1="147.101" y2="269.243" gradientUnits="userSpaceOnUse" xlink:href="#linearGradient4689"/><linearGradient id="linearGradient4135" x1="323.06" x2="464.489" y1="147.101" y2="269.243" gradientUnits="userSpaceOnUse" xlink:href="#linearGradient4689"/><linearGradient id="linearGradient4133" x1="323.06" x2="464.489" y1="147.101" y2="269.243" gradientUnits="userSpaceOnUse" xlink:href="#linearGradient4689"/><linearGradient id="linearGradient4131" x1="323.06" x2="464.489" y1="147.101" y2="269.243" gradientUnits="userSpaceOnUse" xlink:href="#linearGradient4689"/><linearGradient id="linearGradient4129" x1="323.06" x2="464.489" y1="147.101" y2="269.243" gradientUnits="userSpaceOnUse" xlink:href="#linearGradient4689"/><linearGradient id="linearGradient4127" x1="323.06" x2="464.489" y1="147.101" y2="269.243" gradientUnits="userSpaceOnUse" xlink:href="#linearGradient4689"/><linearGradient id="linearGradient4125" x1="323.06" x2="464.489" y1="147.101" y2="269.243" gradientUnits="userSpaceOnUse" xlink:href="#linearGradient4689"/><linearGradient id="linearGradient4689"><stop id="stop4691" offset="0" stop-color="#5a9fd4" stop-opacity="1"/><stop id="stop4693" offset="1" stop-color="#306998" stop-opacity="1"/></linearGradient><linearGradient id="linearGradient1012" x1="291.68" x2="291.68" y1="511.744" y2="564.106" gradientTransform="matrix(0.7551453,0,0,0.7551453,57.364381,318.43926)" gradientUnits="userSpaceOnUse" xlink:href="#linearGradient990"/><linearGradient id="linearGradient870" x1="336.148" x2="336.148" y1="18.71" y2="66.858" gradientTransform="matrix(0.7551453,0,0,0.7551453,57.364381,318.43926)" gradientUnits="userSpaceOnUse" xlink:href="#linearGradient990"/><linearGradient id="linearGradient1631" x1="390.463" x2="389.883" y1="712.649" y2="764.167" gradientTransform="matrix(0.7551453,0,0,0.7551453,57.364381,318.43922)" gradientUnits="userSpaceOnUse" xlink:href="#linearGradient1621"/><style id="style1439" type="text/css">@font-face{font-family:&quot;Inconsolata&quot;;src:url(#FontID0) format(svg)}</style><linearGradient id="linearGradient832" x1="105.71" x2="757.143" y1="518.536" y2="248.536" gradientTransform="matrix(0.7551453,0,0,0.7551453,57.364381,318.43926)" gradientUnits="userSpaceOnUse" xlink:href="#linearGradient826"/><linearGradient id="linearGradient826"><stop id="stop828" offset="0" stop-color="#fff" stop-opacity="1"/><stop id="stop830" offset="1" stop-color="#fff" stop-opacity=".695"/></linearGradient><linearGradient id="linearGradient1621"><stop id="stop1623" offset="0" stop-color="#d4d4d4" stop-opacity="1"/><stop id="stop1625" offset="1" stop-color="#d4d4d4" stop-opacity="0"/></linearGradient><linearGradient id="linearGradient990"><stop id="stop992" offset="0" stop-color="#d4d4d4" stop-opacity="1"/><stop id="stop998" offset=".188" stop-color="#f6f6f6" stop-opacity="1"/><stop id="stop994" offset=".33" stop-color="#a7a7a7" stop-opacity="1"/><stop id="stop1026" offset=".665" stop-color="#919191" stop-opacity="1"/><stop id="stop1028" offset=".833" stop-color="#868686" stop-opacity="1"/><stop id="stop1032" offset=".924" stop-color="#868686" stop-opacity="1"/><stop id="stop1030" offset=".968" stop-color="#aaa" stop-opacity="1"/><stop id="stop996" offset="1" stop-color="#c2c2c2" stop-opacity="1"/></linearGradient><linearGradient id="linearGradient4062" x1="105.71" x2="757.143" y1="518.536" y2="248.536" gradientTransform="matrix(0.21311879,0,0,0.21311879,26.522777,-56.263492)" gradientUnits="userSpaceOnUse" xlink:href="#linearGradient826"/><linearGradient id="linearGradient4066" x1="291.68" x2="291.68" y1="511.744" y2="564.106" gradientTransform="matrix(0.21311879,0,0,0.21311879,2.7566945,-34.053522)" gradientUnits="userSpaceOnUse" xlink:href="#linearGradient990"/><linearGradient id="linearGradient4069" x1="336.148" x2="336.148" y1="18.71" y2="66.858" gradientTransform="matrix(0.21311879,0,0,0.21311879,-1.345784,-79.039321)" gradientUnits="userSpaceOnUse" xlink:href="#linearGradient990"/><linearGradient id="linearGradient4072" x1="390.463" x2="389.883" y1="712.649" y2="764.167" gradientTransform="matrix(0.21311879,0,0,0.21311879,1.200582,-48.341476)" gradientUnits="userSpaceOnUse" xlink:href="#linearGradient1621"/><linearGradient id="linearGradient4132" x1="323.06" x2="464.489" y1="147.101" y2="269.243" gradientUnits="userSpaceOnUse" xlink:href="#linearGradient4689"/><linearGradient id="linearGradient4134" x1="323.06" x2="464.489" y1="147.101" y2="269.243" gradientUnits="userSpaceOnUse" xlink:href="#linearGradient4689"/><linearGradient id="linearGradient4136" x1="323.06" x2="464.489" y1="147.101" y2="269.243" gradientUnits="userSpaceOnUse" xlink:href="#linearGradient4689"/><linearGradient id="linearGradient4138" x1="323.06" x2="464.489" y1="147.101" y2="269.243" gradientUnits="userSpaceOnUse" xlink:href="#linearGradient4689"/><linearGradient id="linearGradient4140" x1="323.06" x2="464.489" y1="147.101" y2="269.243" gradientUnits="userSpaceOnUse" xlink:href="#linearGradient4689"/><linearGradient id="linearGradient4142" x1="323.06" x2="464.489" y1="147.101" y2="269.243" gradientUnits="userSpaceOnUse" xlink:href="#linearGradient4689"/><linearGradient id="linearGradient4144" x1="323.06" x2="464.489" y1="147.101" y2="269.243" gradientUnits="userSpaceOnUse" xlink:href="#linearGradient4689"/><linearGradient id="linearGradient4146" x1="486.5" x2="496.169" y1="184.541" y2="248.363" gradientUnits="userSpaceOnUse" xlink:href="#linearGradient4689"/><linearGradient id="linearGradient4148" x1="486.5" x2="496.169" y1="184.541" y2="248.363" gradientUnits="userSpaceOnUse" xlink:href="#linearGradient4689"/><linearGradient id="linearGradient4150" x1="485.78" x2="496.889" y1="185.981" y2="249.083" gradientUnits="userSpaceOnUse" xlink:href="#linearGradient4689"/><linearGradient id="linearGradient4152" x1="485.78" x2="496.889" y1="185.981" y2="249.083" gradientUnits="userSpaceOnUse" xlink:href="#linearGradient4689"/><linearGradient id="linearGradient4154" x1="484.34" x2="495.449" y1="182.381" y2="243.323" gradientUnits="userSpaceOnUse" xlink:href="#linearGradient4689"/><linearGradient id="linearGradient4156" x1="484.34" x2="495.449" y1="182.381" y2="243.323" gradientUnits="userSpaceOnUse" xlink:href="#linearGradient4689"/><linearGradient id="linearGradient4158" x1="323.06" x2="147.689" y1="147.101" y2="293.003" gradientUnits="userSpaceOnUse" xlink:href="#linearGradient4689"/><linearGradient id="linearGradient4229" x1="486.5" x2="496.169" y1="184.541" y2="248.363" gradientUnits="userSpaceOnUse" xlink:href="#linearGradient4689"/><linearGradient id="linearGradient4231" x1="486.5" x2="496.169" y1="184.541" y2="248.363" gradientUnits="userSpaceOnUse" xlink:href="#linearGradient4689"/><linearGradient id="linearGradient4233" x1="485.78" x2="496.889" y1="185.981" y2="249.083" gradientUnits="userSpaceOnUse" xlink:href="#linearGradient4689"/><linearGradient id="linearGradient4235" x1="485.78" x2="496.889" y1="185.981" y2="249.083" gradientUnits="userSpaceOnUse" xlink:href="#linearGradient4689"/><linearGradient id="linearGradient4237" x1="484.34" x2="495.449" y1="182.381" y2="243.323" gradientUnits="userSpaceOnUse" xlink:href="#linearGradient4689"/><linearGradient id="linearGradient4239" x1="484.34" x2="495.449" y1="182.381" y2="243.323" gradientUnits="userSpaceOnUse" xlink:href="#linearGradient4689"/><linearGradient id="linearGradient4241" x1="323.06" x2="147.689" y1="147.101" y2="293.003" gradientUnits="userSpaceOnUse" xlink:href="#linearGradient4689"/><linearGradient id="B" x2="0" y1="1050.36" y2="1006.36" gradientTransform="translate(-78.066775,-887.05181)" gradientUnits="userSpaceOnUse" xlink:href="#0"/><linearGradient id="0"><stop id="stop7-6" stop-color="#c34141"/><stop id="stop9-3" offset="1" stop-color="#d76464"/></linearGradient><linearGradient id="linearGradient3092" x2="0" y1="1050.36" y2="1006.36" gradientTransform="matrix(0.28222223,0,0,0.28222223,6.7059175e-7,-283.45335)" gradientUnits="userSpaceOnUse" xlink:href="#linearGradient4460"/><radialGradient id="radial0" cx="148.004" cy="160" r="128" gradientTransform="matrix(0.1831,0,0,0.1831,-3.10029,-5.29688)" gradientUnits="userSpaceOnUse"><stop id="stop7-1" offset="0" stop-color="#c9e1ed" stop-opacity="1"/><stop id="stop9-1" offset="1" stop-color="#728fb5" stop-opacity="1"/></radialGradient><radialGradient id="radialGradient3011" cx="148.004" cy="160" r="128" gradientTransform="matrix(0.05167489,0,0,0.05167489,-0.87511141,-1.4947613)" gradientUnits="userSpaceOnUse" xlink:href="#radial0"/></defs><path id="path11" fill="url(#radialGradient3011)" d="m 13.387777,3.2589208 0,7.0290972 c 0,2.892778 0,3.100035 -3.100035,3.100035 l -7.0279952,0 c -3.10113741,0 -3.10113741,-0.207257 -3.10113741,-3.100035 l 0,-7.0290972 c 0,-2.89277779 0,-3.10003479 3.10113741,-3.10003479 l 7.0279952,0 c 3.100035,0 3.100035,0.207257 3.100035,3.10003479 z"/><path id="path13" fill="#fff" fill-opacity=".051" d="m 10.79927,13.388053 c 0.717682,-0.0033 1.235825,-0.02315 1.611753,-0.124575 l -1.193932,-2.046111 -1.2655912,2.170686 0.3362422,0 c 0.180799,0 0.350573,0 0.511528,0 z M 11.217091,11.217367 9.7707018,8.7368983 8.3232108,11.217367 z m 0,0 2.159662,0 c 0.0088,-0.274505 0.01102,-0.582083 0.01102,-0.930451 l 0,-0.3097834 -0.723194,-1.2402343 z M 12.664583,8.7368983 11.217091,6.2564296 9.7707018,8.7368983 z m 0,0 0.723194,0 0,-1.2402343 z m -2.8938812,0 -1.447491,-2.4804687 -1.446389,2.4804687 z m -2.89388,0 -1.447492,2.4804687 2.893881,0 z m 0,0 -1.447492,-2.4804687 -1.446389,2.4804687 z m -2.893881,0 -1.447491,2.4804687 2.89388,0 z m 0,0 -1.447491,-2.4804687 -1.446389,2.4804687 z m -2.89388,0 -0.93045141,1.5941147 c 0,0.329627 0.00331,0.623976 0.011024,0.886354 l 2.36581631,0 z m 0,0 -0.93045141,-1.5941145 0,1.5941145 z m 1.446389,2.4804687 -1.217083,2.086901 c 0.450894,0.08268 1.074869,0.08379 1.94138,0.08379 l 0.542396,0 z m 0,-4.9609374 -1.446389,-2.4804689 -0.93045141,1.5941147 0,0.8863542 z m 0,0 2.89388,0 -1.446389,-2.4804689 z M 3.9829408,3.7759607 2.5354498,1.295492 1.0890608,3.7759607 z m 0,0 2.893881,0 -1.447492,-2.4804687 z m 1.446389,-2.4804687 -0.663663,-1.13660599 -1.507023,0 c -0.02095,0 -0.03858,0 -0.05953,0 L 2.5354508,1.295492 z m 0,0 2.893881,0 -0.663664,-1.13660599 -1.566554,0 z m 2.893881,0 2.8938802,0 -0.663663,-1.13660599 c -0.0882,0 -0.171979,0 -0.266788,0 l -1.2997662,0 z m 0,0 -1.446389,2.4804687 2.89388,0 z m 1.447491,2.4804687 2.8938812,0 -1.447492,-2.4804687 z m 0,0 -1.447491,2.4804689 2.8938802,0 z m 1.4463892,2.4804689 2.170686,0 0,-1.2402343 -0.723194,-1.2402346 z m 1.447492,-2.4804689 0.723194,0 0,-0.5170399 c 0,-0.2579689 -0.0022,-0.4938889 -0.0066,-0.71217 z M 8.3232108,6.2564296 6.8768218,3.7759607 5.4293298,6.2564296 z m 2.8938802,-4.9609376 2.062648,0 C 13.123194,0.51717591 12.747265,0.27133411 11.859808,0.19416381 z m -8.6816412,0 -0.650434,-1.11565969 C 0.85203779,0.23826131 0.43421689,0.46095191 0.26664739,1.295492 z M 1.0890608,3.7759607 0.17514589,2.2083045 c -0.012127,0.3031685 -0.016537,0.6515363 -0.016537,1.0506163 l 0,0.5170399 z m 4.340269,7.4414063 -1.26559,2.170686 2.532283,0 z m 2.893881,0 -1.265591,2.170686 2.532283,0 z m -7.59133801,1.86862 -0.4519959,-0.775009 c 0.082682,0.371519 0.2215884,0.615157 0.4519959,0.775009 z"/><path id="path3391" fill="#f9f9f9" fill-opacity="1" d="m 6.7330033,3.3867208 c -0.279294,0.0013 -0.546012,0.02484 -0.780697,0.06591 -0.691353,0.120805 -0.816876,0.373661 -0.816876,0.83997 l 0,0.615855 1.633752,0 0,0.205282 -1.633752,0 -0.613133,0 c -0.474813,0 -0.890574,0.282272 -1.020618,0.819256 -0.150005,0.615499 -0.156659,0.999586 0,1.642272 0.116132,0.478387 0.393474,0.81925 0.868287,0.81925 l 0.48147,0 0,-0.817647 c 0,-0.533356 0.466568,-1.003817 1.020618,-1.003817 l 1.712099,0 c 0.454248,0 0.883752,-0.36993 0.883752,-0.821136 l 0,-1.459315 c 0,-0.437917 -0.440391,-0.766884 -0.883752,-0.83997 -0.280654,-0.04621 -0.571857,-0.0672 -0.85115,-0.06591 z m -0.883521,0.495316 c 0.168755,0 0.306567,0.138535 0.306567,0.308868 -1e-6,0.169735 -0.137812,0.306987 -0.306567,0.306987 -0.16936,0 -0.306566,-0.137252 -0.306566,-0.306987 0,-0.170333 0.137206,-0.308868 0.306566,-0.308868 z"/><path id="path3393" fill="#f9f9f9" fill-opacity="1" d="m 8.6983983,5.1137418 0,0.717555 c 0,0.556306 -0.476851,0.958395 -1.020618,0.958395 l -1.792351,0 c -0.44699,0 -0.816875,0.444528 -0.816875,0.887279 l 0,1.538686 c 0,0.437923 0.385006,0.6954979 0.816875,0.8211362 0.517154,0.150402 1.079954,0.177589 1.698724,0 0.411303,-0.1177857 0.816876,-0.3548272 0.816875,-0.8211362 l 0,-0.61585 -1.631846,0 0,-0.205287 1.631846,0 0.816876,0 c 0.474814,0 0.651749,-0.327574 0.8168747,-0.81925 0.17057,-0.506175 0.163313,-0.992945 0,-1.642272 C 9.9174373,5.4654768 9.6933223,5.1137418 9.2179043,5.1137418 z m -1.011422,3.896634 c 0.16936,0 0.306567,0.137251 0.306567,0.306981 0,0.170338 -0.137207,0.308868 -0.306567,0.308868 -0.168755,0 -0.306566,-0.13853 -0.306566,-0.308868 0,-0.16973 0.13781,-0.306981 0.306566,-0.306981 z"/></svg>