<svg xmlns="http://www.w3.org/2000/svg" xmlns:svg="http://www.w3.org/2000/svg" xmlns:xlink="http://www.w3.org/1999/xlink" id="svg2" width="48" height="48" version="1.1" viewBox="0 0 13.547 13.547"><metadata id="metadata30"/><defs id="defs4"><linearGradient id="linearGradient3764" x2="0" y1="3.387" y2="10.16" gradientUnits="userSpaceOnUse" xlink:href="#linearGradient3758"/><linearGradient id="linearGradient3831" x2="0" y1="279.096" y2="268.33" gradientTransform="matrix(1.10528,0,0,1.10528,-134.28288,-295.77052)" gradientUnits="userSpaceOnUse" xlink:href="#linearGradient4460"/><linearGradient id="linearGradient3758"><stop id="stop9" offset="0" stop-color="#e4f1cb"/><stop id="stop11" offset="1" stop-color="#e9f4d6"/></linearGradient><linearGradient id="linearGradient4460"><stop id="stop14" offset="0" stop-color="#1994e5" stop-opacity="1"/><stop id="stop16" offset="1" stop-color="#51b8f7" stop-opacity="1"/></linearGradient><linearGradient id="linearGradient3831-8" x2="0" y1="279.096" y2="268.33" gradientTransform="matrix(1.10528,0,0,1.10528,-134.28288,-295.77052)" gradientUnits="userSpaceOnUse" xlink:href="#linearGradient4460-5"/><linearGradient id="linearGradient4460-5"><stop id="stop3012" offset="0" stop-color="#22aee6"/><stop id="stop3014" offset="1" stop-color="#58c2ec"/></linearGradient><linearGradient id="linearGradient3052" x2="0" y1="279.096" y2="268.33" gradientTransform="matrix(1.10528,0,0,1.10528,-134.28288,-295.77052)" gradientUnits="userSpaceOnUse" xlink:href="#linearGradient4460"/><linearGradient id="linearGradient3092" x2="0" y1="1050.36" y2="1006.36" gradientTransform="matrix(0.28222223,0,0,0.28222223,5.9916667e-7,-283.45334)" gradientUnits="userSpaceOnUse" xlink:href="#linearGradient4460"/><linearGradient id="linearGradient4460-1"><stop id="stop7" offset="0" stop-color="#cecece" stop-opacity="1"/><stop id="stop9-9" offset="1" stop-color="#e9e9e9" stop-opacity="1"/></linearGradient><radialGradient id="radialGradient3025" cx="148.004" cy="160" r="128" gradientTransform="matrix(0.1831,0,0,0.1831,-3.10079,-5.29688)" gradientUnits="userSpaceOnUse" xlink:href="#radial0"/><radialGradient id="radial0" cx="148.004" cy="160" r="128" gradientTransform="matrix(0.1831,0,0,0.1831,-3.10029,-5.29688)" gradientUnits="userSpaceOnUse"><stop id="stop7-7" offset="0" stop-color="#b7d6e2"/><stop id="stop9-1" offset="1" stop-color="#0677cd"/></radialGradient><radialGradient id="radialGradient3022" cx="148.004" cy="160" r="128" gradientTransform="matrix(0.05167489,0,0,0.05167489,-0.87511211,-1.4947613)" gradientUnits="userSpaceOnUse" xlink:href="#radial0"/></defs><path id="path11" fill="url(#radialGradient3022)" d="m 13.387776,3.2589208 0,7.0290972 c 0,2.892778 0,3.100035 -3.100035,3.100035 l -7.0279951,0 c -3.10113701,0 -3.10113701,-0.207257 -3.10113701,-3.100035 l 0,-7.0290972 c 0,-2.89277789 0,-3.10003479 3.10113701,-3.10003479 l 7.0279951,0 c 3.100035,0 3.100035,0.2072569 3.100035,3.10003479 z"/><path id="path15" fill="#fff" fill-opacity=".051" d="m 10.799269,13.388053 c 0.717682,-0.0033 1.235825,-0.02315 1.611753,-0.124575 l -1.193932,-2.046111 -1.2655901,2.170686 0.3362411,0 c 0.180799,0 0.350573,0 0.511528,0 z M 11.21709,11.217367 9.7707019,8.7368983 8.3232099,11.217367 z m 0,0 2.159662,0 c 0.0088,-0.274505 0.01102,-0.582083 0.01102,-0.930451 l 0,-0.3097834 -0.723194,-1.2402343 z M 12.664582,8.7368983 11.21709,6.2564296 9.7707019,8.7368983 z m 0,0 0.723194,0 0,-1.2402343 z m -2.8938801,0 -1.447492,-2.4804687 -1.446389,2.4804687 z m -2.893881,0 -1.447491,2.4804687 2.89388,0 z m 0,0 -1.447491,-2.4804687 -1.446389,2.4804687 z m -2.89388,0 -1.447491,2.4804687 2.89388,0 z m 0,0 -1.447491,-2.4804687 -1.446389,2.4804687 z m -2.89388,0 -0.93045201,1.5941147 c 0,0.329627 0.0033,0.623976 0.01102,0.886354 l 2.36581701,0 z m 0,0 -0.93045201,-1.5941145 0,1.5941145 z m 1.446389,2.4804687 -1.217084,2.086901 c 0.450894,0.08268 1.07487,0.08379 1.940278,0.08379 l 0.543498,0 z m 0,-4.9609374 -1.446389,-2.4804689 -0.93045201,1.5941147 0,0.8863542 z m 0,0 2.89388,0 -1.446389,-2.4804689 z M 3.9829409,3.7759607 2.5354499,1.295492 1.0890609,3.7759607 z m 0,0 2.89388,0 -1.447491,-2.4804687 z m 1.446389,-2.4804687 -0.663663,-1.13660599 -1.507023,0 c -0.02095,0 -0.03859,0 -0.05953,0 L 2.5354509,1.295492 z m 0,0 2.89388,0 -0.663663,-1.13660599 -1.566554,0 z m 2.89388,0 2.8938801,0 -0.663663,-1.13660599 c -0.0882,0 -0.171979,0 -0.266788,0 l -1.2997661,0 z m 0,0 -1.446389,2.4804687 2.893881,0 z m 1.447492,2.4804687 2.8938801,0 L 11.21709,1.295492 z m 0,0 -1.447492,2.4804689 2.8938801,0 z m 1.4463881,2.4804689 2.170686,0 0,-1.2402343 -0.723194,-1.2402346 z m 1.447492,-2.4804689 0.723194,0 0,-0.5170399 c 0,-0.2579689 -0.0022,-0.4938889 -0.0066,-0.71217 z M 8.3232099,6.2564296 6.8768209,3.7759607 5.4293299,6.2564296 z M 11.21709,1.295492 l 2.062648,0 C 13.123193,0.51717584 12.747264,0.27133401 11.859807,0.19416371 z m -8.6816401,0 -0.650434,-1.11565979 C 0.85203789,0.23826121 0.43421689,0.46095181 0.26664689,1.295492 z M 1.0890609,3.7759607 0.17514589,2.2083045 c -0.012127,0.3031685 -0.016537,0.6515363 -0.016537,1.0506163 l 0,0.5170399 z m 4.340269,7.4414063 -1.265591,2.170686 2.532283,0 z m 2.89388,0 -1.26559,2.170686 2.532283,0 z m -7.59133701,1.86862 -0.451996,-0.775009 c 0.08268,0.371519 0.221588,0.615157 0.451996,0.775009 z"/><rect id="rect3000" width="1.129" height="3.387" x="6.209" y="7.62" fill="#f9f9f9" fill-opacity="1" stroke="none" rx=".5" ry=".5"/><path id="path3770" fill="#f9f9f9" fill-opacity="1" stroke="none" d="m -23,18.5 a 2,1.5 0 1 1 -4,0 2,1.5 0 1 1 4,0 z" transform="matrix(0.28222223,0,0,0.37629631,13.828889,-0.47037052)"/><path id="path3774" fill="#f9f9f9" fill-opacity="1" stroke="none" d="m 5.3622224,7.3377779 c 0,-0.8466667 1.1288889,-1.9755556 1.9755556,-1.9755556 l 0,-0.5644445 c -1.1288889,0 -2.5400001,1.4111111 -2.5400001,2.5400001 z"/><path id="path3776" fill="#f9f9f9" fill-opacity="1" stroke="none" d="m 4.2333334,7.3377779 -0.5644444,0 c 0,-1.6933334 1.9755556,-3.6688889 3.668889,-3.6688889 0,0.1881482 0,-1.0235428 0,0.5644444 -1.4111112,0 -3.1044446,1.6933333 -3.1044446,3.1044445 z"/><path id="path3780" fill="#f9f9f9" fill-opacity="1" stroke="none" d="m 3.1044445,7.3377779 -0.5644444,0 c 0,-2.2577779 2.54,-4.7977778 4.7977779,-4.7977778 l 0,0.5644444 c -1.9755556,0 -4.2333335,2.2577778 -4.2333335,4.2333334 z"/></svg>