<svg xmlns="http://www.w3.org/2000/svg" xmlns:svg="http://www.w3.org/2000/svg" xmlns:xlink="http://www.w3.org/1999/xlink" id="svg2" width="48" height="48" version="1.1" viewBox="0 0 13.547 13.547"><metadata id="metadata34"/><defs id="defs4"><linearGradient id="0"><stop id="stop7" stop-color="#4f5f8f"/><stop id="stop9" offset="1" stop-color="#7b92d8"/></linearGradient><linearGradient id="1" x2="0" y1="1050.36" y2="1006.36" gradientTransform="matrix(0.28222223,0,0,0.28222223,0,-283.45334)" gradientUnits="userSpaceOnUse" xlink:href="#0"/><radialGradient id="radialGradient3011" cx="148.004" cy="160" r="128" gradientTransform="matrix(0.05167489,0,0,0.05167489,-0.87511141,-1.4947612)" gradientUnits="userSpaceOnUse" xlink:href="#radial0"/><radialGradient id="radial0" cx="148.004" cy="160" r="128" gradientTransform="matrix(0.1831,0,0,0.1831,-3.10029,-5.29688)" gradientUnits="userSpaceOnUse"><stop id="stop7-4" offset="0" stop-color="#a6b9e2" stop-opacity="1"/><stop id="stop9-6" offset="1" stop-color="#514a8d" stop-opacity="1"/></radialGradient><radialGradient id="radialGradient3009" cx="148.004" cy="160" r="128" gradientTransform="matrix(0.05167489,0,0,0.05167489,-0.87511141,-1.4947612)" gradientUnits="userSpaceOnUse" xlink:href="#radial0"/></defs><path id="path11" fill="url(#radialGradient3009)" d="m 13.387776,3.2589209 0,7.0290971 c 0,2.892778 0,3.100035 -3.100035,3.100035 l -7.0279944,0 c -3.10113721,0 -3.10113721,-0.207257 -3.10113721,-3.100035 l 0,-7.0290971 c 0,-2.89277789 0,-3.10003479 3.10113721,-3.10003479 l 7.0279944,0 c 3.100035,0 3.100035,0.2072569 3.100035,3.10003479 z"/><path id="path13" fill="#fff" fill-opacity=".051" d="m 10.799269,13.388053 c 0.717682,-0.0033 1.235825,-0.02315 1.611753,-0.124575 l -1.193932,-2.046111 -1.2655898,2.170686 0.3362408,0 c 0.180799,0 0.350573,0 0.511528,0 z M 11.21709,11.217367 9.7707022,8.7368984 8.3232102,11.217367 z m 0,0 2.159662,0 c 0.0088,-0.274505 0.01102,-0.582083 0.01102,-0.930451 l 0,-0.3097833 -0.723193,-1.2402343 z M 12.664582,8.7368984 11.21709,6.2564297 9.7707022,8.7368984 z m 0,0 0.723194,0 0,-1.2402343 z m -2.8938798,0 -1.447492,-2.4804687 -1.446389,2.4804687 z m -2.893881,0 -1.4474912,2.4804686 2.8938802,0 z m 0,0 L 5.42933,6.2564297 3.9829411,8.7368984 z m -2.8938801,0 -1.4474915,2.4804686 2.8938804,0 z m 0,0 L 2.5354496,6.2564297 1.0890608,8.7368984 z m -2.8938803,0 -0.93045141,1.5941146 c 0,0.329627 0.00331,0.623976 0.011024,0.886354 l 2.36581611,0 z m 0,0 -0.93045141,-1.5941145 0,1.5941145 z m 1.4463888,2.4804686 -1.2170832,2.086901 c 0.4508939,0.08268 1.0748698,0.08379 1.9413802,0.08379 l 0.5423959,0 z m 0,-4.9609373 -1.4463888,-2.4804689 -0.93045141,1.5941147 0,0.8863542 z m 0,0 2.8938804,0 L 3.9829411,3.7759608 z M 3.9829411,3.7759608 2.5354496,1.2954921 1.0890608,3.7759608 z m 0,0 2.8938801,0 L 5.42933,1.2954921 z M 5.42933,1.2954921 4.7656669,0.15888611 l -1.5070229,0 c -0.020946,0 -0.038585,0 -0.059531,0 L 2.5354497,1.2954921 z m 0,0 2.8938802,0 -0.663663,-1.13660599 -1.566554,0 z m 2.8938802,0 2.8938798,0 -0.663663,-1.13660599 c -0.0882,0 -0.171979,0 -0.266788,0 l -1.2997658,0 z m 0,0 -1.446389,2.4804687 2.893881,0 z m 1.447492,2.4804687 2.8938798,0 -1.447492,-2.4804687 z m 0,0 -1.447492,2.4804689 2.8938798,0 z m 1.4463878,2.4804689 2.170686,0 0,-1.2402343 -0.723194,-1.2402346 z m 1.447492,-2.4804689 0.723194,0 0,-0.5170399 c 0,-0.2579689 -0.0022,-0.4938889 -0.0066,-0.71217 z M 8.3232102,6.2564297 6.8768212,3.7759608 5.42933,6.2564297 z m 2.8938798,-4.9609376 2.062648,0 C 13.123193,0.51717601 12.747264,0.27133421 11.859807,0.19416391 z m -8.6816404,0 L 1.8850157,0.17983231 C 0.85203809,0.23826131 0.43421689,0.46095191 0.26664739,1.2954921 z M 1.0890608,3.7759608 0.17514589,2.2083046 c -0.012127,0.3031685 -0.016537,0.6515363 -0.016537,1.0506163 l 0,0.5170399 z m 4.3402692,7.4414062 -1.2655903,2.170686 2.5322835,0 z m 2.8938802,0 -1.26559,2.170686 2.532283,0 z m -7.59133691,1.86862 -0.4519964,-0.775009 c 0.082682,0.371519 0.2215884,0.615157 0.4519964,0.775009 z"/><g id="g28" fill="#f9f9f9" transform="scale(0.99129898,1.0087774)"><path id="path30" d="m 5.1245893,10.351364 -0.8540982,0 0,-7.2739318 1.9928958,0 c 1.423497,5e-7 2.5622946,0.8393003 2.5622946,1.9583667 -5.6e-6,0.9619013 -0.4483375,1.6200474 -1.423497,1.9583662 l 1.9928961,3.3571989 -0.8540985,0 -1.7081964,-3.0774323 -1.7081964,0 m 0,-0.5595332 1.1387976,0 c 2.8018238,-0.2634444 2.2397156,-3.0820116 0,-3.0774326 l -1.1387976,0"/></g></svg>