<?xml version="1.0" encoding="UTF-8" standalone="no"?>
<svg
   xmlns:dc="http://purl.org/dc/elements/1.1/"
   xmlns:cc="http://creativecommons.org/ns#"
   xmlns:rdf="http://www.w3.org/1999/02/22-rdf-syntax-ns#"
   xmlns:svg="http://www.w3.org/2000/svg"
   xmlns="http://www.w3.org/2000/svg"
   xmlns:sodipodi="http://sodipodi.sourceforge.net/DTD/sodipodi-0.dtd"
   xmlns:inkscape="http://www.inkscape.org/namespaces/inkscape"
   width="48"
   height="48"
   viewBox="0 0 48 48"
   id="svg2"
   version="1.1"
   inkscape:version="0.48.4 r9939"
   sodipodi:docname="byobu.svg">
  <defs
     id="defs7" />
  <metadata
     id="metadata35">
    <rdf:RDF>
      <cc:Work
         rdf:about="">
        <dc:format>image/svg+xml</dc:format>
        <dc:type
           rdf:resource="http://purl.org/dc/dcmitype/StillImage" />
        <dc:title></dc:title>
      </cc:Work>
    </rdf:RDF>
  </metadata>
  <sodipodi:namedview
     pagecolor="#ffffff"
     bordercolor="#666666"
     borderopacity="1"
     objecttolerance="10"
     gridtolerance="10"
     guidetolerance="10"
     inkscape:pageopacity="0"
     inkscape:pageshadow="2"
     inkscape:window-width="1024"
     inkscape:window-height="697"
     id="namedview33"
     showgrid="false"
     inkscape:zoom="6.9532168"
     inkscape:cx="13.388709"
     inkscape:cy="22.89898"
     inkscape:window-x="0"
     inkscape:window-y="24"
     inkscape:window-maximized="1"
     inkscape:current-layer="svg2"
     showguides="true"
     inkscape:guide-bbox="true" />
  <path
     fill="#808080"
     d="M 47.4375 11.546875 L 47.4375 36.453125 C 47.4375 46.703125 47.4375 47.4375 36.453125 47.4375 L 11.550781 47.4375 C 0.5625 47.4375 0.5625 46.703125 0.5625 36.453125 L 0.5625 11.546875 C 0.5625 1.296875 0.5625 0.5625 11.550781 0.5625 L 36.453125 0.5625 C 47.4375 0.5625 47.4375 1.296875 47.4375 11.546875 Z "
     id="path11"
     style="fill:#ff7f2a;fill-opacity:1" />
  <path
     inkscape:connector-curvature="0"
     id="path15"
     d="m 38.265625,47.4375 c 2.542969,-0.01172 4.378906,-0.08203 5.710937,-0.441406 l -4.230468,-7.25 -4.484375,7.691406 1.191406,0 c 0.640625,0 1.242187,0 1.8125,0 z m 1.480469,-7.691406 -5.125,-8.789063 -5.128906,8.789063 z m 0,0 7.652344,0 c 0.03125,-0.972656 0.03906,-2.0625 0.03906,-3.296875 l 0,-1.097657 -2.5625,-4.394531 z m 5.128906,-8.789063 -5.128906,-8.789062 -5.125,8.789062 z m 0,0 2.5625,0 0,-4.394531 z m -10.253906,0 -5.128906,-8.789062 -5.125,8.789062 z m -10.253906,0 -5.128907,8.789063 10.253907,0 z m 0,0 -5.128907,-8.789062 -5.125,8.789062 z m -10.253907,0 -5.128906,8.789063 10.253906,0 z m 0,0 -5.128906,-8.789062 -5.125,8.789062 z m -10.253906,0 -3.296875,5.648438 c 0,1.167969 0.011719,2.210937 0.039062,3.140625 l 8.382813,0 z m 0,0 -3.296875,-5.648437 0,5.648437 z m 5.125,8.789063 -4.3125,7.394531 c 1.597656,0.292969 3.808594,0.296875 6.878906,0.296875 l 1.921875,0 z m 0,-17.578125 -5.125,-8.789063 -3.296875,5.648438 0,3.140625 z m 0,0 10.253906,0 -5.125,-8.789063 z m 5.128906,-8.789063 -5.128906,-8.789062 -5.125,8.789062 z m 0,0 10.253907,0 -5.128907,-8.789062 z m 5.125,-8.789062 -2.351562,-4.027344 -5.335938,0 c -0.07813,0 -0.140625,0 -0.214843,0 L 8.984375,4.589844 z m 0,0 10.253907,0 -2.351563,-4.027344 -5.550781,0 z m 10.253907,0 10.253906,0 L 37.394531,0.5625 c -0.3125,0 -0.609375,0 -0.941406,0 l -4.609375,0 z m 0,0 -5.125,8.789062 10.253906,0 z m 5.128906,8.789062 10.253906,0 -5.128906,-8.789062 z m 0,0 -5.128906,8.789063 10.253906,0 z m 5.125,8.789063 7.691406,0 0,-4.394531 -2.5625,-4.394532 z m 5.128906,-8.789063 2.5625,0 0,-1.832031 c 0,-0.914063 -0.0078,-1.75 -0.02344,-2.523437 z m -15.382812,8.789063 -5.125,-8.789063 -5.128907,8.789063 z m 10.253906,-17.578125 7.308594,0 C 46.5,1.832031 45.167969,0.960938 42.023438,0.6875 z m -30.761719,0 L 6.679688,0.636719 C 3.019531,0.84375 1.539062,1.632812 0.945312,4.589844 z m -5.125,8.789062 L 0.621094,7.824219 C 0.578125,8.898438 0.5625,10.132812 0.5625,11.546875 l 0,1.832031 z m 15.378906,26.367188 -4.484375,7.691406 8.972656,0 z m 10.253907,0 -4.484376,7.691406 8.972657,0 z M 2.59375,46.367188 0.992188,43.621094 c 0.292968,1.316406 0.785156,2.179687 1.601562,2.746094 z"
     style="fill:#ffffff;fill-opacity:0.09411765" />
  <g
     id="g11284"
     transform="matrix(3.543307,0,0,3.5638936,0.40241032,1.6608714)"
     style="fill:#f9f9f9;fill-rule:evenodd;fill-opacity:1">
    <path
       inkscape:connector-curvature="0"
       id="path11286"
       d="m 5.5553348,8.568613 c 0,0 -0.322311,0.1871841 0.228165,0.2514247 0.6678814,0.075319 1.0079139,0.064244 1.7433586,-0.074209 0,0 0.1938298,0.1207282 0.4629756,0.2259494 C 6.3417289,9.6784261 4.2605531,8.9307981 5.5553348,8.568613"
       style="fill:#f9f9f9;fill-opacity:1" />
    <path
       inkscape:connector-curvature="0"
       id="path11288"
       d="m 5.3537519,7.6470918 c 0,0 -0.3610766,0.2680387 0.1905068,0.3245261 0.7121853,0.073102 1.2748449,0.079747 2.2484231,-0.107437 0,0 0.1351269,0.1362345 0.3466779,0.2104437 C 6.1467918,8.6572208 3.9271663,8.1211432 5.3537519,7.6470918"
       style="fill:#f9f9f9;fill-opacity:1" />
  </g>
  <g
     transform="matrix(3.221185,0,0,3.0708779,2.5476703,4.826391)"
     id="g11290"
     style="fill:#f9f9f9;fill-opacity:1">
    <path
       inkscape:connector-curvature="0"
       style="fill:#f9f9f9;fill-rule:evenodd;fill-opacity:1"
       d="M 7.0505914,6.0587407 C 7.4570798,6.5288636 6.944262,6.9521969 6.944262,6.9521969 c 0,0 1.0311734,-0.5358506 0.5571216,-1.2053858 C 7.0594522,5.1207236 6.7205275,4.8110216 8.5569239,3.73932 c 0,0 -2.8819685,0.7241227 -1.5063325,2.3194207"
       id="path11292" />
  </g>
  <g
     id="g11296"
     transform="matrix(3.221185,0,0,3.0887007,2.5476703,4.6394107)"
     style="fill:#f9f9f9;fill-rule:evenodd;fill-opacity:1">
    <path
       inkscape:connector-curvature="0"
       id="path11298"
       d="m 9.2303435,9.2508932 c 0,0 0.2381329,0.196045 -0.2625007,0.3477857 C 8.0175239,9.8866544 5.0092893,9.9741544 4.1741606,9.6097545 3.8740016,9.4790584 4.4366612,9.2985194 4.6138768,9.2597538 4.7988457,9.2198798 4.9040675,9.227636 4.9040675,9.227636 4.5706804,8.9917178 2.7453597,9.6895034 3.9770081,9.8888714 7.3374592,10.433809 10.102022,9.6440923 9.2303435,9.2508957"
       style="fill:#f9f9f9;fill-opacity:1" />
    <path
       inkscape:connector-curvature="0"
       id="path11300"
       d="m 5.709291,6.6923429 c 0,0 -1.5295924,0.3632919 -0.5416154,0.4962037 0.4175645,0.05538 1.2493699,0.043197 2.0235808,-0.022153 0.6335456,-0.053165 1.2693065,-0.1672473 1.2693065,-0.1672473 0,0 -0.2237345,0.096361 -0.3854436,0.2060134 C 6.5222674,7.6138634 3.5206782,7.4233565 4.384604,7.0057921 5.1156187,6.6524685 5.709291,6.6923422 5.709291,6.6923422"
       style="fill:#f9f9f9;fill-opacity:1" />
    <path
       inkscape:connector-curvature="0"
       id="path11302"
       d="M 8.4539176,8.2263654 C 10.033351,7.4056356 9.3034445,6.6170263 8.7939501,6.7233556 c -0.1251586,0.026582 -0.1805385,0.048734 -0.1805385,0.048734 0,0 0.045411,-0.073102 0.1340192,-0.1041144 1.009021,-0.3544311 1.7843392,1.0455721 -0.3245261,1.6004787 0,0 0.024368,-0.022153 0.031013,-0.042088"
       style="fill:#f9f9f9;fill-opacity:1" />
  </g>
  <path
     style="fill:#f9f9f9;fill-rule:evenodd;fill-opacity:1"
     d="m 26.711014,10.999893 c 0,0 2.818545,2.702642 -2.672264,6.859235 -4.399068,3.332119 -1.002545,5.234231 0,7.403186 -2.568799,-2.220271 -4.456153,-4.177121 -3.189592,-6.000548 1.855243,-2.671853 6.999978,-3.968437 5.861856,-8.261873"
     id="path11306"
     inkscape:connector-curvature="0" />
  <path
     style="fill:#f9f9f9;fill-rule:evenodd;fill-opacity:1"
     d="m 21.437841,36.917882 c 4.884286,0.301074 12.38375,-0.167634 12.562139,-2.381058 0,0 -0.342503,0.838159 -4.03872,1.505269 -4.167164,0.75263 -9.308329,0.667105 -12.355211,0.184748 0,0 0.624362,0.492633 3.831792,0.691055"
     id="path11308"
     inkscape:connector-curvature="0" />
</svg>
