<svg xmlns="http://www.w3.org/2000/svg" xmlns:svg="http://www.w3.org/2000/svg" xmlns:xlink="http://www.w3.org/1999/xlink" id="svg2" width="48" height="48" version="1.1" viewBox="0 0 13.547 13.547"><metadata id="metadata48"/><defs id="defs4"><linearGradient id="0"><stop id="stop7" stop-color="#fff"/><stop id="stop9" offset="1" stop-color="#fff" stop-opacity="0"/></linearGradient><linearGradient id="1"><stop id="stop12" stop-color="#fcaf3e"/><stop id="stop14" offset="1" stop-color="#f57900"/></linearGradient><linearGradient id="2"><stop id="stop17" stop-color="#ce5c00"/><stop id="stop19" offset="1" stop-color="#f57900"/></linearGradient><radialGradient id="3" cx="21.561" cy="27.06" r="13.438" gradientTransform="matrix(2.2917261,0,0,2.4939807,-32.048509,-30.809385)" gradientUnits="userSpaceOnUse" xlink:href="#2"/><linearGradient id="4" x1="-.017" x2="15.23" gradientTransform="scale(3.543307,3.543307)" gradientUnits="userSpaceOnUse" xlink:href="#0"/><linearGradient id="5" x2="0" y1="1050.36" y2="1006.36" gradientTransform="matrix(0.28222223,0,0,0.28222223,-5.9697187,-298.26281)" gradientUnits="userSpaceOnUse" xlink:href="#1"/><radialGradient id="radialGradient3012" cx="148.004" cy="160" r="128" gradientTransform="matrix(0.05167489,0,0,0.05167489,-0.87511191,-1.4947565)" gradientUnits="userSpaceOnUse" xlink:href="#radial0"/><radialGradient id="radial0" cx="148.004" cy="160" r="128" gradientTransform="matrix(0.1831,0,0,0.1831,-3.10029,-5.29688)" gradientUnits="userSpaceOnUse"><stop id="stop7-2" offset="0" stop-color="#eed5b5"/><stop id="stop9-5" offset="1" stop-color="#fd8514" stop-opacity="1"/></radialGradient><radialGradient id="radialGradient3029" cx="148.004" cy="160" r="128" gradientTransform="matrix(0.05167489,0,0,0.05167489,-0.87511191,-1.4947566)" gradientUnits="userSpaceOnUse" xlink:href="#radial0"/></defs><path id="path11" fill="url(#radialGradient3029)" d="m 13.387776,3.2589255 0,7.0290975 c 0,2.892778 0,3.100035 -3.100035,3.100035 l -7.0279949,0 c -3.10113721,0 -3.10113721,-0.207257 -3.10113721,-3.100035 l 0,-7.0290975 c 0,-2.89277779 0,-3.10003479 3.10113721,-3.10003479 l 7.0279949,0 c 3.100035,0 3.100035,0.207257 3.100035,3.10003479 z"/><path id="path15" fill="#fff" fill-opacity=".051" d="m 10.799269,13.388058 c 0.717682,-0.0033 1.235825,-0.02315 1.611753,-0.124574 l -1.193932,-2.046112 -1.2655902,2.170686 0.3362412,0 c 0.180799,0 0.350573,0 0.511528,0 z M 11.21709,11.217372 9.7707012,8.736903 8.3232099,11.217372 z m 0,0 2.159662,0 c 0.0088,-0.274505 0.01102,-0.582083 0.01102,-0.930451 l 0,-0.3097837 L 12.664579,8.736903 z M 12.664581,8.736903 11.21709,6.2564343 9.7707012,8.736903 z m 0,0 0.723195,0 0,-1.2402343 z m -2.8938798,0 L 8.3232099,6.2564343 6.876821,8.736903 z m -2.8938802,0 -1.4474916,2.480469 2.8938805,0 z m 0,0 L 5.4293294,6.2564343 3.9829405,8.736903 z m -2.8938805,0 -1.4474913,2.480469 2.8938802,0 z m 0,0 L 2.5354492,6.2564343 1.0890604,8.736903 z m -2.8938801,0 -0.93045151,1.594115 c 0,0.329627 0.00331,0.623976 0.011024,0.886354 l 2.36581621,0 z m 0,0 -0.93045151,-1.5941145 0,1.5941145 z m 1.4463888,2.480469 -1.2170833,2.086901 c 0.450894,0.08268 1.0748699,0.08378 1.9413802,0.08378 l 0.5423958,0 z m 0,-4.9609377 -1.4463888,-2.4804689 -0.93045151,1.5941147 0,0.8863542 z m 0,0 2.8938802,0 L 3.9829405,3.7759654 z M 3.9829405,3.7759654 2.5354492,1.2954967 1.0890604,3.7759654 z m 0,0 2.8938805,0 -1.4474916,-2.4804687 z m 1.4463889,-2.4804687 -0.663663,-1.13660599 -1.5070227,0 c -0.020946,0 -0.038585,0 -0.059531,0 L 2.5354494,1.2954967 z m 0,0 2.8938805,0 -0.6636633,-1.13660599 -1.5665538,0 z m 2.8938805,0 2.8938801,0 -0.663663,-1.13660599 c -0.08819,0 -0.171979,0 -0.266788,0 l -1.299766,0 z m 0,0 -1.4463889,2.4804687 2.8938802,0 z m 1.4474913,2.4804687 2.8938798,0 -1.447491,-2.4804687 z m 0,0 -1.4474913,2.4804689 2.8938801,0 z m 1.4463888,2.4804689 2.170686,0 0,-1.2402343 -0.723195,-1.2402346 z m 1.447491,-2.4804689 0.723195,0 0,-0.5170399 c 0,-0.2579689 -0.0022,-0.4938889 -0.0066,-0.71217 z M 8.3232099,6.2564343 6.876821,3.7759654 5.4293294,6.2564343 z m 2.8938801,-4.9609376 2.062648,0 C 13.123193,0.51718061 12.747264,0.27133881 11.859807,0.19416851 z m -8.6816408,0 L 1.8850153,0.17983701 C 0.85203769,0.23826601 0.43421639,0.46095661 0.26664699,1.2954967 z M 1.0890604,3.7759654 0.17514549,2.2083092 c -0.012127,0.3031685 -0.016535,0.6515363 -0.016535,1.0506163 l 0,0.5170399 z m 4.340269,7.4414066 -1.2655903,2.170686 2.532283,0 z m 2.8938805,0 -1.2655906,2.170686 2.5322833,0 z m -7.59133711,1.86862 -0.4519963,-0.775009 c 0.082682,0.37152 0.2215885,0.615157 0.4519963,0.775009 z"/><path id="path44" fill="#f9f9f9" d="m 6.6051493,3.4419404 1.5792954,-0.3374959 0,5.2961832 C 8.1844422,9.0848378 7.9766048,9.5961562 7.5609306,9.9345825 7.147988,10.273008 6.5217392,10.442221 5.6821837,10.442222 l -0.3199613,0 0,-1.0704575 0.2461246,0 c 0.3281652,0 0.5756565,-0.082158 0.7424738,-0.2464621 C 6.5203725,8.9609937 6.6051483,8.7194351 6.6051493,8.4006277 l 0,-4.9586873"/></svg>