<?xml version="1.0" encoding="UTF-8" standalone="no"?>
<svg
   xmlns:dc="http://purl.org/dc/elements/1.1/"
   xmlns:cc="http://creativecommons.org/ns#"
   xmlns:rdf="http://www.w3.org/1999/02/22-rdf-syntax-ns#"
   xmlns:svg="http://www.w3.org/2000/svg"
   xmlns="http://www.w3.org/2000/svg"
   xmlns:sodipodi="http://sodipodi.sourceforge.net/DTD/sodipodi-0.dtd"
   xmlns:inkscape="http://www.inkscape.org/namespaces/inkscape"
   width="48"
   height="48"
   viewBox="0 0 48 48"
   id="svg2"
   version="1.1"
   inkscape:version="0.48.4 r9939"
   sodipodi:docname="acidrip.svg">
  <defs
     id="defs3019" />
  <metadata
     id="metadata35">
    <rdf:RDF>
      <cc:Work
         rdf:about="">
        <dc:format>image/svg+xml</dc:format>
        <dc:type
           rdf:resource="http://purl.org/dc/dcmitype/StillImage" />
        <dc:title></dc:title>
      </cc:Work>
    </rdf:RDF>
  </metadata>
  <sodipodi:namedview
     pagecolor="#ffffff"
     bordercolor="#666666"
     borderopacity="1"
     objecttolerance="10"
     gridtolerance="10"
     guidetolerance="10"
     inkscape:pageopacity="0"
     inkscape:pageshadow="2"
     inkscape:window-width="1024"
     inkscape:window-height="711"
     id="namedview33"
     showgrid="false"
     inkscape:zoom="4.9166667"
     inkscape:cx="6.1841503"
     inkscape:cy="31.728813"
     inkscape:window-x="0"
     inkscape:window-y="0"
     inkscape:window-maximized="1"
     inkscape:current-layer="svg2" />
  <path
     fill="#808080"
     d="M 47.4375 11.546875 L 47.4375 36.453125 C 47.4375 46.703125 47.4375 47.4375 36.453125 47.4375 L 11.550781 47.4375 C 0.5625 47.4375 0.5625 46.703125 0.5625 36.453125 L 0.5625 11.546875 C 0.5625 1.296875 0.5625 0.5625 11.550781 0.5625 L 36.453125 0.5625 C 47.4375 0.5625 47.4375 1.296875 47.4375 11.546875 Z "
     id="path11"
     style="fill:#2d2d2d;fill-opacity:1" />
  <path
     inkscape:connector-curvature="0"
     id="path15"
     d="m 38.265625,47.4375 c 2.542969,-0.01172 4.378906,-0.08203 5.710937,-0.441406 l -4.230468,-7.25 -4.484375,7.691406 1.191406,0 c 0.640625,0 1.242187,0 1.8125,0 z m 1.480469,-7.691406 -5.125,-8.789063 -5.128906,8.789063 z m 0,0 7.652344,0 c 0.03125,-0.972656 0.03906,-2.0625 0.03906,-3.296875 l 0,-1.097657 -2.5625,-4.394531 z m 5.128906,-8.789063 -5.128906,-8.789062 -5.125,8.789062 z m 0,0 2.5625,0 0,-4.394531 z m -10.253906,0 -5.128906,-8.789062 -5.125,8.789062 z m -10.253906,0 -5.128907,8.789063 10.253907,0 z m 0,0 -5.128907,-8.789062 -5.125,8.789062 z m -10.253907,0 -5.128906,8.789063 10.253906,0 z m 0,0 -5.128906,-8.789062 -5.125,8.789062 z m -10.253906,0 -3.296875,5.648438 c 0,1.167969 0.011719,2.210937 0.039062,3.140625 l 8.382813,0 z m 0,0 -3.296875,-5.648437 0,5.648437 z m 5.125,8.789063 -4.3125,7.394531 c 1.597656,0.292969 3.808594,0.296875 6.878906,0.296875 l 1.921875,0 z m 0,-17.578125 -5.125,-8.789063 -3.296875,5.648438 0,3.140625 z m 0,0 10.253906,0 -5.125,-8.789063 z m 5.128906,-8.789063 -5.128906,-8.789062 -5.125,8.789062 z m 0,0 10.253907,0 -5.128907,-8.789062 z m 5.125,-8.789062 -2.351562,-4.027344 -5.335938,0 c -0.07813,0 -0.140625,0 -0.214843,0 L 8.984375,4.589844 z m 0,0 10.253907,0 -2.351563,-4.027344 -5.550781,0 z m 10.253907,0 10.253906,0 L 37.394531,0.5625 c -0.3125,0 -0.609375,0 -0.941406,0 l -4.609375,0 z m 0,0 -5.125,8.789062 10.253906,0 z m 5.128906,8.789062 10.253906,0 -5.128906,-8.789062 z m 0,0 -5.128906,8.789063 10.253906,0 z m 5.125,8.789063 7.691406,0 0,-4.394531 -2.5625,-4.394532 z m 5.128906,-8.789063 2.5625,0 0,-1.832031 c 0,-0.914063 -0.0078,-1.75 -0.02344,-2.523437 z m -15.382812,8.789063 -5.125,-8.789063 -5.128907,8.789063 z m 10.253906,-17.578125 7.308594,0 C 46.5,1.832031 45.167969,0.960938 42.023438,0.6875 z m -30.761719,0 L 6.679688,0.636719 C 3.019531,0.84375 1.539062,1.632812 0.945312,4.589844 z m -5.125,8.789062 L 0.621094,7.824219 C 0.578125,8.898438 0.5625,10.132812 0.5625,11.546875 l 0,1.832031 z m 15.378906,26.367188 -4.484375,7.691406 8.972656,0 z m 10.253907,0 -4.484376,7.691406 8.972657,0 z M 2.59375,46.367188 0.992188,43.621094 c 0.292968,1.316406 0.785156,2.179687 1.601562,2.746094 z"
     style="fill:#ffffff;fill-opacity:0.03137255" />
  <path
     inkscape:connector-curvature="0"
     style="fill:#f9f9f9;fill-opacity:1"
     d="m 33.610998,23.571954 c 0,-6.38938 -5.31226,-11.57197 -11.861507,-11.57197 C 15.200244,11.999984 11,17.182574 11,23.571954 c 0,-4.565142 2.681124,-8.265692 7.360489,-8.265692 4.679365,0 8.472505,3.70055 8.472505,8.265692 l 0,1.653138 -3.389003,0 6.778004,6.612554 L 37,25.225092 l -3.389003,0 z"
     id="path3134" />
  <path
     inkscape:connector-curvature="0"
     style="fill:#f9f9f9;fill-opacity:1"
     d="m 18.812349,16.09364 c -3.758267,0 -6.812446,2.987119 -6.812446,6.656197 0,3.529318 2.815237,6.378925 6.374951,6.593698 0,-3.989008 3.189979,-7.24398 7.156193,-7.59369 -0.491451,-3.197507 -3.3065,-5.656205 -6.718698,-5.656205 z m 0,4.562464 c 1.17194,0 2.124985,0.949604 2.124985,2.093733 0,1.144125 -0.953044,2.062484 -2.124985,2.062484 -1.171938,0 -2.124983,-0.918359 -2.124983,-2.062484 0,-1.144129 0.953044,-2.093733 2.124983,-2.093733 z m 0,0.437496 c -0.942083,0 -1.718735,0.736491 -1.718735,1.656237 0,0.919743 0.776652,1.656237 1.718735,1.656237 0.942089,0 1.687488,-0.736494 1.687488,-1.656237 0,-0.919746 -0.745399,-1.656237 -1.687488,-1.656237 z m 0,0.624995 c 0.587233,0 1.062492,0.457951 1.062492,1.031242 0,0.573296 -0.475259,1.031242 -1.062492,1.031242 -0.587226,0 -1.062491,-0.457946 -1.062491,-1.031242 0,-0.573291 0.475264,-1.031242 1.062491,-1.031242 z"
     id="path3142" />
  <path
     inkscape:connector-curvature="0"
     style="fill:#f9f9f9;fill-opacity:1"
     d="m 26.218999,22.713017 c -3.758298,0 -6.805,2.974395 -6.805,6.643502 0,3.669101 3.046702,6.643497 6.805,6.643497 3.7583,0 6.805001,-2.974396 6.805001,-6.643497 0,-3.669107 -3.046702,-6.643502 -6.805002,-6.643502 z m 0,4.567407 c 1.171948,0 2.126561,0.931957 2.126561,2.076095 0,1.144133 -0.954613,2.076094 -2.126561,2.076094 -1.17195,0 -2.126562,-0.931961 -2.126562,-2.076094 0,-1.144138 0.954612,-2.076095 2.126562,-2.076095 z m 0,0.415219 c -0.942091,0 -1.701248,0.741122 -1.701248,1.660876 0,0.91975 0.759157,1.660872 1.701248,1.660872 0.942094,0 1.701251,-0.741122 1.701251,-1.660872 0,-0.919754 -0.759157,-1.660876 -1.701251,-1.660876 z m 0,0.622828 c 0.587235,0 1.063282,0.464751 1.063282,1.038048 0,0.5733 -0.476047,1.038043 -1.063282,1.038043 -0.587233,0 -1.06328,-0.464743 -1.06328,-1.038043 0,-0.573297 0.476047,-1.038048 1.06328,-1.038048 z"
     id="path3144" />
</svg>
