<svg xmlns="http://www.w3.org/2000/svg" xmlns:svg="http://www.w3.org/2000/svg" xmlns:xlink="http://www.w3.org/1999/xlink" id="svg2" width="48" height="48" version="1.1" viewBox="0 0 13.547 13.547"><metadata id="metadata42"/><defs id="defs4"><linearGradient id="0"><stop id="stop7" stop-color="#d73a69"/><stop id="stop9" offset="1" stop-color="#e16b8e"/></linearGradient><linearGradient id="1" x2="0" y1="1050.36" y2="1006.36" gradientTransform="matrix(0.28222223,0,0,0.28222223,0,-283.45334)" gradientUnits="userSpaceOnUse" xlink:href="#linearGradient4460"/><radialGradient id="radialGradient3836" cx="6.773" cy="6.773" r="3.669" fx="6.773" fy="6.773" gradientUnits="userSpaceOnUse" xlink:href="#linearGradient3830"/><radialGradient id="radialGradient3826" cx="6.209" cy="5.927" r=".282" fx="6.209" fy="5.927" gradientTransform="translate(0.56444446,1.6933334)" gradientUnits="userSpaceOnUse" xlink:href="#linearGradient3816"/><radialGradient id="radialGradient3822" cx="6.209" cy="5.927" r=".282" fx="6.209" fy="5.927" gradientUnits="userSpaceOnUse" xlink:href="#linearGradient3816"/><linearGradient id="linearGradient3010" x2="0" y1="279.096" y2="268.33" gradientTransform="matrix(1.1052811,0,0,1.1052811,-134.28288,-295.77052)" gradientUnits="userSpaceOnUse" xlink:href="#linearGradient4460"/><linearGradient id="linearGradient3842" x2="0" y1="279.096" y2="268.33" gradientTransform="matrix(1.10525,0,0,1.10525,-134.27874,-295.76183)" gradientUnits="userSpaceOnUse" xlink:href="#linearGradient4460"/><linearGradient id="linearGradient4460"><stop id="stop7-3" offset="0" stop-color="#e7e9e2" stop-opacity="1"/><stop id="stop9-0" offset="1" stop-color="#ececec" stop-opacity="1"/></linearGradient><linearGradient id="linearGradient3816"><stop id="stop3818" offset="0" stop-color="#fff" stop-opacity="1"/><stop id="stop3820" offset="1" stop-color="#fff" stop-opacity="0"/></linearGradient><linearGradient id="linearGradient3830"><stop id="stop3832" offset="0" stop-color="#000" stop-opacity="1"/><stop id="stop3834" offset="1" stop-color="#000" stop-opacity="0"/></linearGradient><radialGradient id="radialGradient3084" cx="6.773" cy="6.773" r="3.669" fx="6.773" fy="6.773" gradientUnits="userSpaceOnUse" xlink:href="#linearGradient3830"/><radialGradient id="radialGradient3087" cx="6.209" cy="5.927" r=".282" fx="6.209" fy="5.927" gradientTransform="translate(0.56444317,1.6933333)" gradientUnits="userSpaceOnUse" xlink:href="#linearGradient3816"/><radialGradient id="radialGradient3090" cx="6.209" cy="5.927" r=".282" fx="6.209" fy="5.927" gradientUnits="userSpaceOnUse" xlink:href="#linearGradient3816"/><radialGradient id="radialGradient3098" cx="6.773" cy="6.773" r="3.669" fx="6.773" fy="6.773" gradientUnits="userSpaceOnUse" xlink:href="#linearGradient3830"/><radialGradient id="radialGradient3102" cx="6.773" cy="6.773" r="3.669" fx="6.773" fy="6.773" gradientUnits="userSpaceOnUse" xlink:href="#linearGradient3830"/><linearGradient id="linearGradient3108" x2="0" y1="279.096" y2="268.33" gradientTransform="matrix(1.1052811,0,0,1.1052811,-120.45399,-295.77052)" gradientUnits="userSpaceOnUse" xlink:href="#linearGradient4460"/><radialGradient id="radialGradient3836-0" cx="6.773" cy="6.773" r="3.669" fx="6.773" fy="6.773" gradientUnits="userSpaceOnUse" xlink:href="#linearGradient3830-1"/><radialGradient id="radialGradient3826-6" cx="6.209" cy="5.927" r=".282" fx="6.209" fy="5.927" gradientTransform="translate(0.56444446,1.6933334)" gradientUnits="userSpaceOnUse" xlink:href="#linearGradient3816-6"/><radialGradient id="radialGradient3822-0" cx="6.209" cy="5.927" r=".282" fx="6.209" fy="5.927" gradientUnits="userSpaceOnUse" xlink:href="#linearGradient3816-6"/><linearGradient id="linearGradient3010-0" x2="0" y1="279.096" y2="268.33" gradientTransform="matrix(1.1052811,0,0,1.1052811,-134.28288,-295.77052)" gradientUnits="userSpaceOnUse" xlink:href="#linearGradient4460-9"/><linearGradient id="linearGradient3842-9" x2="0" y1="279.096" y2="268.33" gradientTransform="matrix(1.10525,0,0,1.10525,-134.27874,-295.76183)" gradientUnits="userSpaceOnUse" xlink:href="#linearGradient4460-9"/><linearGradient id="linearGradient4460-9"><stop id="stop7-9" offset="0" stop-color="#e7e9e2" stop-opacity="1"/><stop id="stop9-7" offset="1" stop-color="#ececec" stop-opacity="1"/></linearGradient><linearGradient id="linearGradient3816-6"><stop id="stop3818-5" offset="0" stop-color="#fff" stop-opacity="1"/><stop id="stop3820-9" offset="1" stop-color="#fff" stop-opacity="0"/></linearGradient><linearGradient id="linearGradient3830-1"><stop id="stop3832-6" offset="0" stop-color="#000" stop-opacity="1"/><stop id="stop3834-2" offset="1" stop-color="#000" stop-opacity="0"/></linearGradient><radialGradient id="radialGradient3944" cx="6.773" cy="6.773" r="3.669" fx="6.773" fy="6.773" gradientUnits="userSpaceOnUse" xlink:href="#linearGradient3830-1"/><radialGradient id="radialGradient3947" cx="6.209" cy="5.927" r=".282" fx="6.209" fy="5.927" gradientTransform="translate(15.4384,1.1575232)" gradientUnits="userSpaceOnUse" xlink:href="#linearGradient3816-6"/><radialGradient id="radialGradient3950" cx="6.209" cy="5.927" r=".282" fx="6.209" fy="5.927" gradientTransform="translate(14.873956,-0.53581016)" gradientUnits="userSpaceOnUse" xlink:href="#linearGradient3816-6"/><radialGradient id="radialGradient3958" cx="6.773" cy="6.773" r="3.669" fx="6.773" fy="6.773" gradientTransform="translate(14.873956,-0.53581016)" gradientUnits="userSpaceOnUse" xlink:href="#linearGradient3830-1"/><radialGradient id="radialGradient3962" cx="6.773" cy="6.773" r="3.669" fx="6.773" fy="6.773" gradientTransform="translate(14.873956,-0.53581016)" gradientUnits="userSpaceOnUse" xlink:href="#linearGradient3830-1"/><linearGradient id="linearGradient3968" x2="0" y1="279.096" y2="268.33" gradientTransform="matrix(1.1052811,0,0,1.1052811,-119.40892,-296.30633)" gradientUnits="userSpaceOnUse" xlink:href="#linearGradient4460-9"/><linearGradient id="linearGradient4298" x1="47" x2="44" y1="24" y2="24" gradientUnits="userSpaceOnUse" xlink:href="#linearGradient4292"/><linearGradient id="linearGradient4290" x1="1" x2="4" y1="24" y2="24" gradientUnits="userSpaceOnUse" xlink:href="#linearGradient4284"/><linearGradient id="linearGradient4101" x1="-13" x2="-13" y1="43" y2="20" gradientUnits="userSpaceOnUse" xlink:href="#linearGradient4103"/><linearGradient id="linearGradient4005" x1="44" x2="47" y1="24" y2="24" gradientTransform="translate(117.99188,1004.8064)" gradientUnits="userSpaceOnUse" xlink:href="#linearGradient3948"/><linearGradient id="linearGradient4002" x1="1" x2="4" y1="24" y2="24" gradientTransform="translate(117.99188,1004.8064)" gradientUnits="userSpaceOnUse" xlink:href="#linearGradient3956"/><linearGradient id="linearGradient3995" x1="-4" x2="-4" y1="35" y2="12" gradientUnits="userSpaceOnUse" xlink:href="#linearGradient3893"/><linearGradient id="linearGradient3993" x1="-4" x2="-4" y1="35" y2="12" gradientUnits="userSpaceOnUse" xlink:href="#linearGradient3873"/><linearGradient id="linearGradient3991" x1="-4" x2="-4" y1="35" y2="12" gradientUnits="userSpaceOnUse" xlink:href="#linearGradient3863"/><linearGradient id="linearGradient3989" x1="-4" x2="-4" y1="35" y2="12" gradientUnits="userSpaceOnUse" xlink:href="#linearGradient3826"/><linearGradient id="linearGradient3987" x1="-4" x2="-4" y1="35" y2="12" gradientUnits="userSpaceOnUse" xlink:href="#linearGradient3826"/><linearGradient id="linearGradient3956"><stop id="stop3958" offset="0" stop-color="#fff" stop-opacity=".686"/><stop id="stop3960" offset="1" stop-color="#fff" stop-opacity=".059"/></linearGradient><linearGradient id="linearGradient3948"><stop id="stop3950" offset="0" stop-color="#fff" stop-opacity=".059"/><stop id="stop3952" offset="1" stop-color="#fff" stop-opacity=".686"/></linearGradient><linearGradient id="linearGradient3924"><stop id="stop3926" offset="0" stop-color="#477eae" stop-opacity="1"/><stop id="stop3928" offset="1" stop-color="#5064aa" stop-opacity="1"/></linearGradient><linearGradient id="linearGradient3893"><stop id="stop3895" offset="0" stop-color="#2e4d72" stop-opacity="1"/><stop id="stop3897" offset="1" stop-color="#353563" stop-opacity="1"/></linearGradient><linearGradient id="linearGradient3873"><stop id="stop3875" offset="0" stop-color="#111b46" stop-opacity="1"/><stop id="stop3877" offset="1" stop-color="#1b447f" stop-opacity="1"/></linearGradient><linearGradient id="linearGradient3863"><stop id="stop3865" offset="0" stop-color="#949498" stop-opacity="1"/><stop id="stop3867" offset="1" stop-color="#d7d7d8" stop-opacity="1"/></linearGradient><linearGradient id="linearGradient3826"><stop id="stop3828" offset="0" stop-color="#949494" stop-opacity="1"/><stop id="stop3830" offset="1" stop-color="#fdfdfd" stop-opacity="1"/></linearGradient><linearGradient id="linearGradient3930" x1="36" x2="41" y1="1014.362" y2="1017.362" gradientTransform="matrix(1.134951,0,0,1.2361642,-4.8508081,-239.56373)" gradientUnits="userSpaceOnUse" xlink:href="#linearGradient3924"/><linearGradient id="linearGradient4065"><stop id="stop4067" offset="0" stop-color="#989993" stop-opacity="1"/><stop id="stop4069" offset="1" stop-color="#f6fbe6" stop-opacity="1"/></linearGradient><linearGradient id="linearGradient4077"><stop id="stop4079" offset="0" stop-color="#a1a399" stop-opacity="1"/><stop id="stop4081" offset="1" stop-color="#f2f6e7" stop-opacity="1"/></linearGradient><linearGradient id="linearGradient4091"><stop id="stop4093" offset="0" stop-color="#bfc3af" stop-opacity="1"/><stop id="stop4095" offset="1" stop-color="#e4ead3" stop-opacity="1"/></linearGradient><linearGradient id="linearGradient4103"><stop id="stop4105" offset="0" stop-color="#4b3052" stop-opacity="1"/><stop id="stop4107" offset="1" stop-color="#72517b" stop-opacity="1"/></linearGradient><linearGradient id="linearGradient4123"><stop id="stop4125" offset="0" stop-color="#5e4b8e" stop-opacity="1"/><stop id="stop4127" offset="1" stop-color="#4b3052" stop-opacity="1"/></linearGradient><linearGradient id="linearGradient4284"><stop id="stop4286" offset="0" stop-color="#63570f" stop-opacity=".686"/><stop id="stop4288" offset="1" stop-color="#63570f" stop-opacity=".059"/></linearGradient><linearGradient id="linearGradient4292"><stop id="stop4294" offset="0" stop-color="#63570f" stop-opacity=".686"/><stop id="stop4296" offset="1" stop-color="#63570f" stop-opacity=".059"/></linearGradient><linearGradient id="linearGradient3250" x1="47" x2="44" y1="24" y2="24" gradientTransform="matrix(0.28222223,0,0,0.28222223,14.429657,0.65994981)" gradientUnits="userSpaceOnUse" xlink:href="#linearGradient4292"/><linearGradient id="linearGradient3253" x1="1" x2="4" y1="24" y2="24" gradientTransform="matrix(0.28222223,0,0,0.28222223,14.429657,0.65994981)" gradientUnits="userSpaceOnUse" xlink:href="#linearGradient4284"/><linearGradient id="linearGradient4039" x1=".564" x2="1.693" y1="6.773" y2="6.773" gradientTransform="scale(3.543307,3.543307)" gradientUnits="userSpaceOnUse" xlink:href="#linearGradient4284"/><linearGradient id="linearGradient4046" x1=".564" x2="1.693" y1="6.773" y2="6.773" gradientTransform="matrix(-1,0,0,1,13.546665,0)" gradientUnits="userSpaceOnUse" xlink:href="#linearGradient4284"/><radialGradient id="radialGradient3008" cx="148.004" cy="160" r="128" gradientTransform="matrix(0.05167489,0,0,0.05167489,-0.87510901,-1.4947616)" gradientUnits="userSpaceOnUse" xlink:href="#radial0"/><radialGradient id="radial0" cx="148.004" cy="160" r="128" gradientTransform="matrix(0.1831,0,0,0.1831,-3.10029,-5.29688)" gradientUnits="userSpaceOnUse"><stop id="stop7-5" offset="0" stop-color="#d01ce3" stop-opacity="1"/><stop id="stop9-3" offset="1" stop-color="#5e0c83" stop-opacity="1"/></radialGradient><radialGradient id="radialGradient3039" cx="148.004" cy="160" r="128" gradientTransform="matrix(0.05167489,0,0,0.05167489,-0.87510811,-1.4947615)" gradientUnits="userSpaceOnUse" xlink:href="#radial0"/></defs><path id="path11" fill="url(#radialGradient3039)" d="m 13.387779,3.2589209 0,7.0290971 c 0,2.892778 0,3.100035 -3.100035,3.100035 l -7.0279941,0 c -3.10113801,0 -3.10113801,-0.207257 -3.10113801,-3.100035 l 0,-7.0290971 c 0,-2.89277789 0,-3.10003479 3.10113801,-3.10003479 l 7.0279941,0 c 3.100035,0 3.100035,0.2072569 3.100035,3.10003479 z"/><path id="path13" fill="#fff" fill-opacity=".051" d="m 10.799272,13.388053 c 0.717682,-0.0033 1.235825,-0.02315 1.611753,-0.124575 l -1.193932,-2.046111 -1.2655894,2.170686 0.3362404,0 c 0.180799,0 0.350573,0 0.511528,0 z M 11.217093,11.217367 9.770705,8.7368984 8.3232137,11.217367 z m 0,0 2.159662,0 c 0.0088,-0.274505 0.01102,-0.582083 0.01102,-0.930451 l 0,-0.3097836 -0.723194,-1.240234 z M 12.664585,8.7368984 11.217093,6.2564297 9.770705,8.7368984 z m 0,0 0.723194,0 0,-1.2402343 z m -2.89388,0 L 8.3232137,6.2564297 6.8768248,8.7368984 z m -2.8938802,0 -1.4474916,2.4804686 2.8938805,0 z m 0,0 L 5.4293332,6.2564297 3.9829439,8.7368984 z m -2.8938809,0 -1.447491,2.4804686 2.8938803,0 z m 0,0 -1.447491,-2.4804687 -1.446389,2.4804687 z m -2.89388,0 -0.93045201,1.5941146 c 0,0.329627 0.0033,0.623976 0.01102,0.886354 l 2.36581701,0 z m 0,0 -0.93045201,-1.5941145 0,1.5941145 z m 1.446389,2.4804686 -1.217084,2.086901 c 0.450894,0.08268 1.074871,0.08379 1.941381,0.08379 l 0.542396,0 z m 0,-4.9609373 -1.446389,-2.4804689 -0.93045201,1.5941147 0,0.8863542 z m 0,0 2.8938803,0 L 3.9829439,3.7759608 z M 3.9829439,3.7759608 2.5354529,1.2954921 1.0890639,3.7759608 z m 0,0 2.8938809,0 -1.4474916,-2.4804687 z m 1.4463893,-2.4804687 -0.663663,-1.13660599 -1.5070223,0 c -0.02095,0 -0.03859,0 -0.05953,0 L 2.5354539,1.2954921 z m 0,0 2.8938805,0 -0.6636633,-1.13660599 -1.5665538,0 z m 2.8938805,0 2.8938793,0 -0.663663,-1.13660599 c -0.0882,0 -0.171979,0 -0.266788,0 l -1.2997652,0 z m 0,0 -1.4463889,2.4804687 2.8938802,0 z m 1.4474913,2.4804687 2.89388,0 -1.447492,-2.4804687 z m 0,0 -1.4474913,2.4804689 2.8938793,0 z m 1.446388,2.4804689 2.170686,0 0,-1.2402343 -0.723194,-1.2402346 z m 1.447492,-2.4804689 0.723194,0 0,-0.5170399 c 0,-0.2579689 -0.0022,-0.4938889 -0.0066,-0.71217 z M 8.3232137,6.2564297 6.8768248,3.7759608 5.4293332,6.2564297 z m 2.8938793,-4.9609376 2.062648,0 C 13.123196,0.51717591 12.747267,0.27133411 11.85981,0.19416381 z m -8.6816401,0 -0.650434,-1.11565979 C 0.85204089,0.23826131 0.43421989,0.46095191 0.26664989,1.2954921 z M 1.0890639,3.7759608 0.17514889,2.2083046 c -0.01213,0.3031685 -0.01654,0.6515363 -0.01654,1.0506163 l 0,0.5170399 z m 4.3402693,7.4414062 -1.2655903,2.170686 2.532283,0 z m 2.8938805,0 -1.2655906,2.170686 2.5322833,0 z m -7.59133781,1.86862 -0.451996,-0.775009 c 0.08268,0.371519 0.221588,0.615157 0.451996,0.775009 z"/><g id="g20" fill="#f9f9f9" transform="matrix(0.98461999,0,0,0.96386,0.09986089,0.25332031)"><path id="path22" fill-opacity=".392" d="m 11.71875,13.59375 c -0.495482,0 -0.90625,0.410754 -0.90625,0.90625 0,6.441012 0,13.173747 0,18.96875 0,0.495461 0.410768,0.875 0.90625,0.875 l 24.59375,0 c 0.495485,0 0.90625,-0.379539 0.90625,-0.875 0,-6.455533 0,-13.165222 0,-18.96875 0,-0.495496 -0.410765,-0.90625 -0.90625,-0.90625 z" transform="scale(0.28222,0.28222)"/><path id="path24" d="m 11.71875,13.59375 c -0.495482,0 -0.90625,0.410754 -0.90625,0.90625 0,6.441012 0,13.173747 0,18.96875 0,0.495461 0.410768,0.875 0.90625,0.875 l 24.59375,0 c 0.495485,0 0.90625,-0.379539 0.90625,-0.875 0,-6.431269 0,-13.105872 0,-18.96875 0,-0.495496 -0.410765,-0.90625 -0.90625,-0.90625 z m 1.125,1.0375 2.03125,0 0,2.075 -2.03125,0 z m 4.0625,0 2.03125,0 0,2.075 -2.03125,0 z m 4.0625,0 2.03125,0 0,2.075 -2.03125,0 z m 4.0625,0 2.03125,0 0,2.075 -2.03125,0 z m 4.0625,0 2.03125,0 0,2.075 -2.03125,0 z m 4.0625,0 2.03125,0 0,2.075 -2.03125,0 z m -20.3125,3.1125 22.34375,0 0,12.45 -22.34375,0 z m 0,13.4875 2.03125,0 0,2.075 -2.03125,0 z m 4.0625,0 2.03125,0 0,2.075 -2.03125,0 z m 4.0625,0 2.03125,0 0,2.075 -2.03125,0 z m 4.0625,0 2.03125,0 0,2.075 -2.03125,0 z m 4.0625,0 2.03125,0 0,2.075 -2.03125,0 z m 4.0625,0 2.03125,0 0,2.075 -2.03125,0 z" transform="scale(0.28222,0.28222)"/></g><path id="path26" fill="#f9f9f9" fill-opacity="1" d="m 6.6851395,5.5033338 a 1.26999,1.26999 0 0 0 -1.1818056,1.27 1.27,1.27 0 0 0 2.54,0 1.26999,1.26999 0 0 0 -1.3581944,-1.27 z m 0.044097,0.7055556 a 0.56444,0.56444 0 0 1 0.6085417,0.5644444 0.5644445,0.5644445 0 0 1 -1.128889,0 0.56444,0.56444 0 0 1 0.5203473,-0.5644444 z"/></svg>