<svg xmlns="http://www.w3.org/2000/svg" xmlns:svg="http://www.w3.org/2000/svg" xmlns:xlink="http://www.w3.org/1999/xlink" id="svg2" width="48" height="48" version="1.1" viewBox="0 0 13.547 13.547"><metadata id="metadata42"/><defs id="defs4"><linearGradient id="0"><stop id="stop7" stop-color="#005dc0"/><stop id="stop9" offset="1" stop-color="#72a5dc"/></linearGradient><linearGradient id="1" x2="0" y1="1050.36" y2="1006.36" gradientTransform="matrix(0.28222223,0,0,0.28222223,0,-283.45334)" gradientUnits="userSpaceOnUse" xlink:href="#0"/><radialGradient id="radialGradient3022" cx="148.004" cy="160" r="128" gradientTransform="matrix(0.05167489,0,0,0.05167489,-0.87511211,-1.4947613)" gradientUnits="userSpaceOnUse" xlink:href="#radial0"/><radialGradient id="radial0" cx="148.004" cy="160" r="128" gradientTransform="matrix(0.1831,0,0,0.1831,-3.10029,-5.29688)" gradientUnits="userSpaceOnUse"><stop id="stop7-7" offset="0" stop-color="#9cc7d7" stop-opacity="1"/><stop id="stop9-1" offset="1" stop-color="#044e87" stop-opacity="1"/></radialGradient><radialGradient id="radialGradient3027" cx="148.004" cy="160" r="128" gradientTransform="matrix(0.05167489,0,0,0.05167489,-0.87511211,-1.4947608)" gradientUnits="userSpaceOnUse" xlink:href="#radial0"/></defs><path id="path11" fill="url(#radialGradient3027)" d="m 13.387776,3.2589213 0,7.0290967 c 0,2.892778 0,3.100035 -3.100035,3.100035 l -7.0279948,0 c -3.10113731,0 -3.10113731,-0.207257 -3.10113731,-3.100035 l 0,-7.0290967 c 0,-2.89277789 0,-3.10003479 3.10113731,-3.10003479 l 7.0279948,0 c 3.100035,0 3.100035,0.2072569 3.100035,3.10003479 z"/><path id="path15" fill="#fff" fill-opacity=".051" d="m 10.799269,13.388053 c 0.717682,-0.0033 1.235825,-0.02315 1.611753,-0.124575 l -1.193932,-2.046111 -1.2655898,2.170686 0.3362408,0 c 0.180799,0 0.350573,0 0.511528,0 z M 11.21709,11.217367 9.7707022,8.7368991 8.3232102,11.217367 z m 0,0 2.159662,0 c 0.0088,-0.274505 0.01102,-0.582083 0.01102,-0.930451 l 0,-0.3097829 -0.723193,-1.240234 z M 12.664582,8.7368991 11.21709,6.2564301 9.7707022,8.7368991 z m 0,0 0.723194,0 0,-1.240235 z m -2.8938798,0 -1.447492,-2.480469 -1.446389,2.480469 z m -2.893881,0 -1.447491,2.4804679 2.89388,0 z m 0,0 -1.447491,-2.480469 -1.446389,2.480469 z m -2.89388,0 -1.447491,2.4804679 2.89388,0 z m 0,0 -1.447491,-2.480469 -1.446389,2.480469 z m -2.89388,0 -0.93045231,1.5941139 c 0,0.329627 0.0033,0.623976 0.01102,0.886354 l 2.36581731,0 z m 0,0 -0.93045231,-1.594115 0,1.594115 z m 1.446389,2.4804679 -1.217084,2.086901 c 0.450894,0.08268 1.07487,0.08379 1.940278,0.08379 l 0.543498,0 z m 0,-4.9609369 -1.446389,-2.4804689 -0.93045231,1.5941147 0,0.8863542 z m 0,0 2.89388,0 -1.446389,-2.4804689 z M 3.9829412,3.7759612 2.5354502,1.2954925 1.0890612,3.7759612 z m 0,0 2.89388,0 -1.447491,-2.4804687 z m 1.446389,-2.4804687 -0.663663,-1.13660599 -1.507023,0 c -0.02095,0 -0.03859,0 -0.05953,0 L 2.5354512,1.2954925 z m 0,0 2.89388,0 -0.663663,-1.13660599 -1.566554,0 z m 2.89388,0 2.8938798,0 -0.663663,-1.13660599 c -0.0882,0 -0.171979,0 -0.266788,0 l -1.2997658,0 z m 0,0 -1.446389,2.4804687 2.893881,0 z m 1.447492,2.4804687 2.8938798,0 -1.447492,-2.4804687 z m 0,0 -1.447492,2.4804689 2.8938798,0 z m 1.4463878,2.4804689 2.170686,0 0,-1.2402343 -0.723194,-1.2402346 z m 1.447492,-2.4804689 0.723194,0 0,-0.5170399 c 0,-0.2579689 -0.0022,-0.4938889 -0.0066,-0.71217 z M 8.3232102,6.2564301 6.8768212,3.7759612 5.4293302,6.2564301 z m 2.8938798,-4.9609376 2.062648,0 C 13.123193,0.51717631 12.747264,0.27133451 11.859807,0.19416421 z m -8.6816398,0 -0.650434,-1.11565979 C 0.85203819,0.23826171 0.43421689,0.46095231 0.26664689,1.2954925 z M 1.0890612,3.7759612 0.17514589,2.208305 c -0.012127,0.3031685 -0.016537,0.6515363 -0.016537,1.0506163 l 0,0.5170399 z m 4.340269,7.4414058 -1.265591,2.170686 2.532283,0 z m 2.89388,0 -1.26559,2.170686 2.532283,0 z m -7.59133701,1.86862 -0.4519963,-0.775009 c 0.08268,0.371519 0.221588,0.615157 0.4519963,0.775009 z"/><path id="path32" fill="#f9f9f9" fill-opacity="1" d="m 3.3866667,4.2333334 c -0.1540428,0 -0.2822222,0.1281796 -0.2822222,0.2822222 l 0,0.2822222 0,4.2333336 c 0,0.1540425 0.1281794,0.2822222 0.2822222,0.2822222 l 0.079375,0 0.2028472,0 6.2088891,0 0.202847,0 0.07938,0 c 0.154043,0 0.282223,-0.1281797 0.282223,-0.2822222 l 0,-4.2333336 0,-0.2822222 c 0,-0.1540426 -0.12818,-0.2822222 -0.282223,-0.2822222 l -0.07938,0 -6.411736,0 -0.2822222,0 z m 1.1288889,0.5644444 4.5155557,0 L 6.7733335,6.305903 4.5155556,4.7977778 z M 3.6688889,5.1770139 6.7733335,7.2407641 9.877778,5.1770139 l 0,3.5718753 -6.2088891,0 0,-3.5718753 z"/></svg>