<svg xmlns="http://www.w3.org/2000/svg" xmlns:svg="http://www.w3.org/2000/svg" xmlns:xlink="http://www.w3.org/1999/xlink" id="svg2" width="48" height="48" version="1.1" viewBox="0 0 13.547 13.547"><metadata id="metadata40"/><defs id="defs4"><radialGradient id="0" cx="7.165" cy="2.895" r="5.926" gradientTransform="matrix(-0.01874939,1.3364875,-1.5132902,-0.02122973,11.231075,-5.7827682)" gradientUnits="userSpaceOnUse"><stop id="stop7" stop-color="#a6dc3e"/><stop id="stop9" offset="1" stop-color="#337e1b"/></radialGradient><linearGradient id="1" x2="0" y1="1050.36" y2="1006.36" gradientTransform="matrix(0.28222223,0,0,0.28222223,-13.546667,-296.99999)" gradientUnits="userSpaceOnUse" xlink:href="#0"/><radialGradient id="radialGradient3018" cx="148.004" cy="160" r="128" gradientTransform="matrix(0.05167489,0,0,0.05167489,-0.87511191,-1.4947611)" gradientUnits="userSpaceOnUse" xlink:href="#radial0"/><radialGradient id="radial0" cx="148.004" cy="160" r="128" gradientTransform="matrix(0.1831,0,0,0.1831,-3.10029,-5.29688)" gradientUnits="userSpaceOnUse"><stop id="stop7-8" offset="0" stop-color="#b3ea69"/><stop id="stop9-0" offset="1" stop-color="#4f8505"/></radialGradient><radialGradient id="radialGradient3009" cx="148.004" cy="160" r="128" gradientTransform="matrix(0.05167489,0,0,0.05167489,-0.87511191,-1.4947614)" gradientUnits="userSpaceOnUse" xlink:href="#radial0"/></defs><path id="path11" fill="url(#radialGradient3009)" d="m 13.387776,3.2589206 0,7.0290974 c 0,2.892778 0,3.100035 -3.100035,3.100035 l -7.0279947,0 c -3.10113741,0 -3.10113741,-0.207257 -3.10113741,-3.100035 l 0,-7.0290974 c 0,-2.89277775 0,-3.10003479 3.10113741,-3.10003479 l 7.0279947,0 c 3.100035,0 3.100035,0.20725704 3.100035,3.10003479 z"/><path id="path15" fill="#fff" fill-opacity=".051" d="m 10.799269,13.388053 c 0.717682,-0.0033 1.235825,-0.02315 1.611753,-0.124575 l -1.193932,-2.046111 -1.2655901,2.170686 0.3362411,0 c 0.180799,0 0.350573,0 0.511528,0 z M 11.21709,11.217367 9.7707009,8.7368981 8.3232099,11.217367 z m 0,0 2.159662,0 c 0.0088,-0.274505 0.01102,-0.582083 0.01102,-0.930451 l 0,-0.3097836 -0.723193,-1.2402343 z M 12.664582,8.7368981 11.21709,6.2564294 9.7707009,8.7368981 z m 0,0 0.723194,0 0,-1.2402343 z m -2.8938811,0 -1.447491,-2.4804687 -1.446389,2.4804687 z m -2.89388,0 -1.447491,2.4804689 2.89388,0 z m 0,0 -1.447491,-2.4804687 -1.4463897,2.4804687 z m -2.8938807,0 -1.4474909,2.4804689 2.8938806,0 z m 0,0 -1.4474909,-2.4804687 -1.446389,2.4804687 z m -2.8938799,0 -0.93045141,1.5941149 c 0,0.329627 0.00331,0.623976 0.011024,0.886354 l 2.36581641,0 z m 0,0 -0.93045141,-1.5941145 0,1.5941145 z m 1.446389,2.4804689 -1.2170834,2.086901 c 0.450894,0.08268 1.0748704,0.08379 1.9402775,0.08379 l 0.5434988,0 z m 0,-4.9609376 -1.446389,-2.4804689 -0.93045141,1.5941147 0,0.8863542 z m 0,0 2.8938806,0 L 3.9829402,3.7759605 z M 3.9829402,3.7759605 2.5354493,1.2954918 1.0890603,3.7759605 z m 0,0 2.8938807,0 -1.447491,-2.4804687 z M 5.4293299,1.2954918 4.7656664,0.15888581 l -1.507023,0 c -0.020949,0 -0.03858,0 -0.05953,0 L 2.5354503,1.2954918 z m 0,0 2.89388,0 -0.663663,-1.13660599 -1.566554,0 z m 2.89388,0 2.8938801,0 -0.663663,-1.13660599 c -0.0882,0 -0.171979,0 -0.266788,0 l -1.2997661,0 z m 0,0 -1.446389,2.4804687 2.89388,0 z m 1.447491,2.4804687 2.8938811,0 -1.447492,-2.4804687 z m 0,0 -1.447491,2.4804689 2.8938801,0 z m 1.4463891,2.4804689 2.170686,0 0,-1.2402343 -0.723194,-1.2402346 z m 1.447492,-2.4804689 0.723194,0 0,-0.5170399 c 0,-0.2579689 -0.0022,-0.4938889 -0.0066,-0.71217 z M 8.3232099,6.2564294 6.8768209,3.7759605 5.4293299,6.2564294 z m 2.8938801,-4.9609376 2.062648,0 C 13.123193,0.51717575 12.747264,0.27133395 11.859807,0.19416361 z m -8.6816407,0 -0.650434,-1.11565969 C 0.85203759,0.23826111 0.43421639,0.46095166 0.26664699,1.2954918 z M 1.0890603,3.7759605 0.17514539,2.2083043 c -0.012127,0.3031685 -0.016536,0.6515363 -0.016536,1.0506163 l 0,0.5170399 z m 4.3402696,7.4414065 -1.2655905,2.170686 2.5322825,0 z m 2.89388,0 -1.265591,2.170686 2.532285,0 z m -7.59133711,1.86862 -0.4519964,-0.775009 c 0.082682,0.371519 0.2215885,0.615157 0.4519964,0.775009 z"/><rect id="rect30" width="2.202" height="3.245" x=".248" y="7.007" fill="#f9f9f9" fill-opacity="1" stroke="none" stroke-width=".057" color="#000" rx=".327" ry=".344" transform="matrix(0.70579617,-0.70841497,0.70841497,0.70579617,0,0)"/><rect id="rect32" width="1.838" height="2.71" x="-2.657" y="9.179" fill="#f9f9f9" fill-opacity="1" stroke="none" stroke-width=".057" color="#000" rx=".274" ry=".287" transform="matrix(0.70807707,-0.70613516,0.71068737,0.70350796,0,0)"/><rect id="rect34" width="1.431" height="2.11" x="6.982" y=".427" fill="#f9f9f9" fill-opacity="1" stroke="none" stroke-width=".057" color="#000" rx=".213" ry=".225" transform="matrix(0.70999832,0.70420337,-0.69960945,0.71452545,0,0)"/><rect id="rect36" width="1.243" height="2.813" x="10.807" y="-2.367" fill="#f9f9f9" fill-opacity="1" stroke="none" stroke-width=".057" color="#000" rx=".251" ry=".217" transform="matrix(0.71343915,0.70071719,-0.70042567,0.71372535,0,0)"/></svg>