<svg xmlns="http://www.w3.org/2000/svg" xmlns:svg="http://www.w3.org/2000/svg" xmlns:xlink="http://www.w3.org/1999/xlink" id="svg2" width="48" height="48" version="1.1" viewBox="0 0 13.547 13.547"><metadata id="metadata24"/><defs id="defs4"><linearGradient id="linearGradient4460"><stop id="stop7" offset="0" stop-color="#6c442a" stop-opacity="1"/><stop id="stop9" offset="1" stop-color="#8e7160" stop-opacity="1"/></linearGradient><linearGradient id="linearGradient3002" x2="0" y1="279.096" y2="268.33" gradientTransform="matrix(1.10525,0,0,1.10525,-134.27874,-295.76183)" gradientUnits="userSpaceOnUse" xlink:href="#linearGradient4460"/><linearGradient id="linearGradient3832" x2="0" y1="279.096" y2="268.33" gradientTransform="matrix(1.10525,0,0,1.10525,-134.27874,-295.76183)" gradientUnits="userSpaceOnUse" xlink:href="#linearGradient4460"/><linearGradient id="linearGradient3174" x1="128.261" x2="128.261" y1="279.096" y2="268.33" gradientTransform="matrix(1.0952381,0,0,1.0952381,-116.46504,-292.02956)" gradientUnits="userSpaceOnUse" xlink:href="#linearGradient4460-84"/><linearGradient id="linearGradient4460-84"><stop id="stop4462" offset="0" stop-color="#ff7b03" stop-opacity="1"/><stop id="stop4464" offset="1" stop-color="#ffa705" stop-opacity="1"/></linearGradient><linearGradient id="linearGradient4500" x1="128.261" x2="128.261" y1="279.096" y2="268.33" gradientTransform="matrix(1.0952381,0,0,1.0952381,-133.00183,-9.5686658)" gradientUnits="userSpaceOnUse" xlink:href="#linearGradient4460-84"/><linearGradient id="linearGradient3787" x2="0" y1="1053.158" y2="1004.847" gradientUnits="userSpaceOnUse" xlink:href="#linearGradient3896"/><linearGradient id="linearGradient3896"><stop id="stop3015" offset="0" stop-color="#262626"/><stop id="stop3017" offset="1" stop-color="#7b7b7b"/></linearGradient><radialGradient id="radialGradient4432" cx="148.004" cy="160" r="128" gradientTransform="matrix(0.97656,0,0,0.97656,-16.5349,-236.25)" gradientUnits="userSpaceOnUse" xlink:href="#linearGradient3895-9-0-3-2-4-0"/><linearGradient id="linearGradient3895-9-0-3-2-4-0"><stop id="stop3783" offset="0" stop-color="#d398db"/><stop id="stop3785" offset="1" stop-color="#75507b"/></linearGradient><linearGradient id="linearGradient4228" x2="0" y1="279.096" y2="268.33" gradientTransform="matrix(1.10525,0,0,1.10525,-118.82445,-296.03127)" gradientUnits="userSpaceOnUse" xlink:href="#outerBackgroundGradient"/><linearGradient id="linearGradient4206" x1="373.887" x2="400.178" y1="836.395" y2="18.924" gradientUnits="userSpaceOnUse" xlink:href="#linearGradient4041"/><linearGradient id="linearGradient4460-0"><stop id="stop7-6" offset="0" stop-color="#ad5517"/><stop id="stop9-3" offset="1" stop-color="#e16f1f"/></linearGradient><linearGradient id="linearGradient4428" x2="0" y1="279.096" y2="268.33" gradientTransform="matrix(1.10525,0,0,1.10525,-134.27874,-295.76183)" gradientUnits="userSpaceOnUse" xlink:href="#linearGradient4460-0"/><linearGradient id="linearGradient3899" x1="401.5" x2="401.5" y1="134.5" y2="35.5" gradientTransform="matrix(0.21212121,0,0,0.21212121,349.33333,129.9697)" gradientUnits="userSpaceOnUse" xlink:href="#linearGradient4041"/><linearGradient id="linearGradient3895" x1="401.5" x2="401.5" y1="134.5" y2="35.5" gradientTransform="matrix(0.24242424,0,0,0.24242424,342.66667,91.393942)" gradientUnits="userSpaceOnUse" xlink:href="#linearGradient4041"/><linearGradient id="linearGradient3891" x1="401.5" x2="401.5" y1="134.5" y2="35.5" gradientTransform="matrix(0.33333333,0,0,0.33333333,314.66667,39.66667)" gradientUnits="userSpaceOnUse" xlink:href="#linearGradient4041"/><linearGradient id="linearGradient3887" x1="401.5" x2="401.5" y1="134.5" y2="35.5" gradientTransform="matrix(2.2727272,0,0,2.2727273,-655.99999,-37.181796)" gradientUnits="userSpaceOnUse" xlink:href="#linearGradient4041"/><linearGradient id="linearGradient3883" x1="401.5" x2="401.5" y1="134.5" y2="35.5" gradientTransform="translate(-15.999999,-8.99999)" gradientUnits="userSpaceOnUse" xlink:href="#linearGradient4041"/><linearGradient id="linearGradient3879" x1="401.5" x2="401.5" y1="134.5" y2="35.5" gradientTransform="matrix(0.66666666,0,0,0.66666666,85.333336,115.33334)" gradientUnits="userSpaceOnUse" xlink:href="#linearGradient4041"/><linearGradient id="linearGradient3871" x1="401.5" x2="401.5" y1="134.5" y2="35.5" gradientTransform="matrix(0.48484848,0,0,0.48484848,141.33334,202.78788)" gradientUnits="userSpaceOnUse" xlink:href="#linearGradient4041"/><linearGradient id="linearGradient3332" x1="344" x2="360" y1="48" y2="120" gradientTransform="matrix(0.48484848,0,0,0.48484848,141.33334,202.78788)" gradientUnits="userSpaceOnUse" xlink:href="#linearGradient4041"/><linearGradient id="linearGradient4041"><stop id="stop4043" offset="0" stop-color="#ff6b00" stop-opacity="1"/><stop id="stop4045" offset="1" stop-color="#fe0" stop-opacity="1"/></linearGradient><linearGradient id="linearGradient4145" x1="344" x2="360" y1="48" y2="120" gradientTransform="matrix(0.48484848,0,0,0.48484848,157.33334,210.78788)" gradientUnits="userSpaceOnUse" xlink:href="#linearGradient4041"/><clipPath id="clipPath3319" clipPathUnits="userSpaceOnUse"><path id="path3321" fill="url(#linearGradient4063)" fill-opacity="1" fill-rule="evenodd" stroke="none" d="m 354.86109,118 c -1.8996,-12.45313 -13.15124,-10.92696 -20.45752,-20.554999 -4.49745,-5.081917 -6.90039,-18.152021 2.43544,-27.37416 -1.1041,9.579323 0.17861,13.6059 5.45531,17.924775 -2.35422,-4.952062 -3.08439,-11.995623 -0.82801,-16.853182 2.76375,-5.949983 10.39112,-12.87528 10.52102,-19.142434 4.36202,2.178866 7.92821,8.352919 5.94243,14.368984 -3.85543,11.680556 0.10189,12.135543 1.94832,13.248716 -0.37991,-7.072519 1.0237,-8.206151 2.38673,-10.423628 1.02898,7.51113 12.13245,12.469545 11.25168,21.870132 -0.54446,5.811093 -5.52033,11.186756 -9.69301,14.563846 0.37909,-7.615119 0.0767,-8.633953 -7.11146,-14.612521 -2.75975,-2.295398 -3.9291,-3.912975 -5.30916,-6.867919 -0.85908,2.610094 -2.43714,6.487429 3.26799,14.45466 5.21391,7.28145 0.61392,16.7798 0.19057,19.39773 z" display="inline" enable-background="new"/></clipPath><clipPath id="clipPath4059" clipPathUnits="userSpaceOnUse"><path id="path4061" fill="url(#linearGradient4063)" fill-opacity="1" fill-rule="evenodd" stroke="none" d="m 354.86109,118 c -1.8996,-12.45313 -13.15124,-10.92696 -20.45752,-20.554999 -4.49745,-5.081917 -6.90039,-18.152021 2.43544,-27.37416 -1.1041,9.579323 0.17861,13.6059 5.45531,17.924775 -2.35422,-4.952062 -3.08439,-11.995623 -0.82801,-16.853182 2.76375,-5.949983 10.39112,-12.87528 10.52102,-19.142434 4.36202,2.178866 7.92821,8.352919 5.94243,14.368984 -3.85543,11.680556 0.10189,12.135543 1.94832,13.248716 -0.37991,-7.072519 1.0237,-8.206151 2.38673,-10.423628 1.02898,7.51113 12.13245,12.469545 11.25168,21.870132 -0.54446,5.811093 -5.52033,11.186756 -9.69301,14.563846 0.37909,-7.615119 0.0767,-8.633953 -7.11146,-14.612521 -2.75975,-2.295398 -3.9291,-3.912975 -5.30916,-6.867919 -0.85908,2.610094 -2.43714,6.487429 3.26799,14.45466 5.21391,7.28145 0.61392,16.7798 0.19057,19.39773 z" display="inline" enable-background="new"/></clipPath><linearGradient id="linearGradient3885" x1="283.81" x2="283.81" y1="299.81" y2="31.619" gradientTransform="matrix(0.11931818,0,0,0.11931818,414.13636,48.22727)" gradientUnits="userSpaceOnUse" xlink:href="#outerBackgroundGradient"/><clipPath id="clipPath3881" clipPathUnits="userSpaceOnUse"><rect id="rect3883" width="30" height="30" x="417" y="53" fill="url(#linearGradient3885)" fill-opacity="1" fill-rule="nonzero" stroke="none" stroke-width="0" color="#bebebe" display="inline" enable-background="accumulate" overflow="visible" ry="7" visibility="visible" style="marker:none"/></clipPath><linearGradient id="linearGradient3875" x1="286.857" x2="286.857" y1="302.857" y2="28.571" gradientTransform="matrix(0.0875,0,0,0.0875,414.9,97.5)" gradientUnits="userSpaceOnUse" xlink:href="#outerBackgroundGradient"/><clipPath id="clipPath3871" clipPathUnits="userSpaceOnUse"><rect id="rect3873" width="22" height="22" x="417" y="101" fill="url(#linearGradient3875)" fill-opacity="1" fill-rule="nonzero" stroke="none" stroke-width="0" color="#bebebe" display="inline" enable-background="accumulate" overflow="visible" ry="5" visibility="visible" style="marker:none"/></clipPath><linearGradient id="linearGradient4350" x1="384" x2="384" y1="124" y2="28" gradientUnits="userSpaceOnUse" xlink:href="#outerBackgroundGradient"/><clipPath id="clipPath4346" clipPathUnits="userSpaceOnUse"><rect id="rect4348" width="88" height="88" x="292" y="32" fill="url(#linearGradient4350)" fill-opacity="1" fill-rule="nonzero" stroke="none" stroke-width="0" color="#bebebe" display="inline" enable-background="accumulate" overflow="visible" ry="18" visibility="visible" style="marker:none"/></clipPath><linearGradient id="linearGradient4199" x1="352" x2="352" y1="204" y2="140" gradientUnits="userSpaceOnUse" xlink:href="#outerBackgroundGradient"/><linearGradient id="linearGradient4197" x1="384" x2="384" y1="124" y2="28" gradientUnits="userSpaceOnUse" xlink:href="#outerBackgroundGradient"/><linearGradient id="linearGradient4191" x1="352" x2="352" y1="204" y2="140" gradientUnits="userSpaceOnUse" xlink:href="#outerBackgroundGradient"/><clipPath id="clipPath4187" clipPathUnits="userSpaceOnUse"><rect id="rect4189" width="60" height="60" x="290" y="142" fill="url(#linearGradient4191)" fill-opacity="1" fill-rule="nonzero" stroke="none" stroke-width="0" color="#bebebe" display="inline" enable-background="accumulate" overflow="visible" ry="12.5" visibility="visible" style="marker:none"/></clipPath><linearGradient id="linearGradient3876" x1="272" x2="272" y1="288" y2="32" gradientTransform="translate(0,-4)" gradientUnits="userSpaceOnUse" xlink:href="#outerBackgroundGradient"/><linearGradient id="linearGradient3866" x1="144" x2="144" y1="280" y2="40" gradientTransform="translate(0,-4)" gradientUnits="userSpaceOnUse" xlink:href="#outerBackgroundGradient"/><clipPath id="clipPath3862" clipPathUnits="userSpaceOnUse"><rect id="rect3864" width="220" height="220" x="34" y="46" fill="url(#linearGradient3866)" fill-opacity="1" fill-rule="nonzero" stroke="none" stroke-width="0" color="#bebebe" display="inline" enable-background="accumulate" overflow="visible" ry="50" visibility="visible" style="marker:none"/></clipPath><linearGradient id="linearGradient3859" x1="144" x2="144" y1="280" y2="40" gradientTransform="matrix(0.06666667,0,0,0.06666667,302.4,209.33333)" gradientUnits="userSpaceOnUse" xlink:href="#outerBackgroundGradient"/><clipPath id="clipPath3855" clipPathUnits="userSpaceOnUse"><rect id="rect3857" width="16" height="16" x="304" y="212" fill="url(#linearGradient3859)" fill-opacity="1" fill-rule="nonzero" stroke="none" stroke-width="0" color="#bebebe" display="inline" enable-background="accumulate" overflow="visible" ry="3" transform="matrix(0,1,-1,0,0,0)" visibility="visible" style="marker:none"/></clipPath><linearGradient id="linearGradient4093" x1="149.714" x2="149.714" y1="291.429" y2="40" gradientTransform="matrix(0.11931818,0,0,0.11931818,430.13636,32.227267)" gradientUnits="userSpaceOnUse" xlink:href="#outerBackgroundGradient"/><clipPath id="clipPath4089" clipPathUnits="userSpaceOnUse"><rect id="rect4091" width="30" height="30" x="433" y="37" fill="url(#linearGradient4093)" fill-opacity="1" fill-rule="nonzero" stroke="none" stroke-width="0" color="#bebebe" display="inline" enable-background="accumulate" overflow="visible" ry="6" visibility="visible" style="marker:none"/></clipPath><linearGradient id="linearGradient4048" x1="149.714" x2="149.714" y1="291.429" y2="40" gradientTransform="matrix(0.0875,0,0,0.0875,430.9,81.499996)" gradientUnits="userSpaceOnUse" xlink:href="#outerBackgroundGradient"/><clipPath id="clipPath4044" clipPathUnits="userSpaceOnUse"><rect id="rect4046" width="22" height="22" x="433" y="85" fill="url(#linearGradient4048)" fill-opacity="1" fill-rule="nonzero" stroke="none" stroke-width="0" color="#bebebe" display="inline" enable-background="accumulate" overflow="visible" ry="4" visibility="visible" style="marker:none"/></clipPath><linearGradient id="linearGradient4895" x1="144" x2="144" y1="280" y2="40" gradientTransform="matrix(0.175,0,0,0.175,302.79999,215.99997)" gradientUnits="userSpaceOnUse" xlink:href="#outerBackgroundGradient"/><clipPath id="clipPath4891" clipPathUnits="userSpaceOnUse"><rect id="rect4893" width="42" height="42" x="307" y="223" fill="url(#linearGradient4895)" fill-opacity="1" fill-rule="nonzero" stroke="none" stroke-width="0" color="#bebebe" display="inline" enable-background="accumulate" overflow="visible" ry="9" transform="matrix(0,1,-1,0,0,0)" visibility="visible" style="marker:none"/></clipPath><linearGradient id="linearGradient4869" x1="281.143" x2="281.143" y1="297.143" y2="22.857" gradientTransform="matrix(0.175,0,0,-0.175,286.79999,-215.99997)" gradientUnits="userSpaceOnUse" xlink:href="#outerBackgroundGradient"/><linearGradient id="linearGradient4153" x1="283.81" x2="283.81" y1="299.81" y2="31.619" gradientTransform="matrix(0.11931818,0,0,0.11931818,414.13636,48.22727)" gradientUnits="userSpaceOnUse" xlink:href="#outerBackgroundGradient"/><linearGradient id="linearGradient4101" x1="286.857" x2="286.857" y1="302.857" y2="28.571" gradientTransform="matrix(0.0875,0,0,0.0875,414.9,97.5)" gradientUnits="userSpaceOnUse" xlink:href="#outerBackgroundGradient"/><linearGradient id="linearGradient4097" x1="264" x2="264" y1="280" y2="40" gradientTransform="matrix(0.06666667,0,0,0.06666667,414.4,137.33333)" gradientUnits="userSpaceOnUse" xlink:href="#outerBackgroundGradient"/><linearGradient id="outerBackgroundGradient"><stop id="stop3864-8-6" offset="0" stop-color="#6c3c3c" stop-opacity="1"/><stop id="stop3866-9-1" offset="1" stop-color="#9a5757" stop-opacity="1"/></linearGradient><linearGradient id="linearGradient3233" x1="401.5" x2="401.5" y1="134.5" y2="35.5" gradientTransform="matrix(0.48484848,0,0,0.48484848,141.33334,202.78788)" gradientUnits="userSpaceOnUse" xlink:href="#linearGradient4041"/><linearGradient id="linearGradient3235" x1="401.5" x2="401.5" y1="134.5" y2="35.5" gradientTransform="matrix(0.66666666,0,0,0.66666666,85.333336,115.33334)" gradientUnits="userSpaceOnUse" xlink:href="#linearGradient4041"/><linearGradient id="linearGradient3237" x1="401.5" x2="401.5" y1="134.5" y2="35.5" gradientTransform="translate(-15.999999,-8.99999)" gradientUnits="userSpaceOnUse" xlink:href="#linearGradient4041"/><linearGradient id="linearGradient3239" x1="401.5" x2="401.5" y1="134.5" y2="35.5" gradientTransform="matrix(2.2727272,0,0,2.2727273,-655.99999,-37.181796)" gradientUnits="userSpaceOnUse" xlink:href="#linearGradient4041"/><linearGradient id="linearGradient3241" x1="401.5" x2="401.5" y1="134.5" y2="35.5" gradientTransform="matrix(0.33333333,0,0,0.33333333,314.66667,39.66667)" gradientUnits="userSpaceOnUse" xlink:href="#linearGradient4041"/><linearGradient id="linearGradient3243" x1="401.5" x2="401.5" y1="134.5" y2="35.5" gradientTransform="matrix(0.24242424,0,0,0.24242424,342.66667,91.393942)" gradientUnits="userSpaceOnUse" xlink:href="#linearGradient4041"/><linearGradient id="linearGradient3245" x1="401.5" x2="401.5" y1="134.5" y2="35.5" gradientTransform="matrix(0.21212121,0,0,0.21212121,349.33333,129.9697)" gradientUnits="userSpaceOnUse" xlink:href="#linearGradient4041"/><linearGradient id="linearGradient3306" x1="272" x2="272" y1="288" y2="32" gradientTransform="translate(0,-4)" gradientUnits="userSpaceOnUse" xlink:href="#outerBackgroundGradient"/><linearGradient id="linearGradient3308" x1="264" x2="264" y1="280" y2="40" gradientTransform="matrix(0.06666667,0,0,0.06666667,414.4,137.33333)" gradientUnits="userSpaceOnUse" xlink:href="#outerBackgroundGradient"/><linearGradient id="linearGradient3310" x1="286.857" x2="286.857" y1="302.857" y2="28.571" gradientTransform="matrix(0.0875,0,0,0.0875,414.9,97.5)" gradientUnits="userSpaceOnUse" xlink:href="#outerBackgroundGradient"/><linearGradient id="linearGradient3312" x1="283.81" x2="283.81" y1="299.81" y2="31.619" gradientTransform="matrix(0.11931818,0,0,0.11931818,414.13636,48.22727)" gradientUnits="userSpaceOnUse" xlink:href="#outerBackgroundGradient"/><linearGradient id="linearGradient3314" x1="281.143" x2="281.143" y1="297.143" y2="22.857" gradientTransform="matrix(0.175,0,0,-0.175,286.79999,-215.99997)" gradientUnits="userSpaceOnUse" xlink:href="#outerBackgroundGradient"/><linearGradient id="linearGradient3316" x1="384" x2="384" y1="124" y2="28" gradientUnits="userSpaceOnUse" xlink:href="#outerBackgroundGradient"/><linearGradient id="linearGradient3318" x1="352" x2="352" y1="204" y2="140" gradientUnits="userSpaceOnUse" xlink:href="#outerBackgroundGradient"/><linearGradient id="linearGradient3320" x1="401.5" x2="401.5" y1="134.5" y2="35.5" gradientTransform="matrix(0.48484848,0,0,0.48484848,141.33334,202.78788)" gradientUnits="userSpaceOnUse" xlink:href="#linearGradient4041"/><linearGradient id="linearGradient3322" x1="401.5" x2="401.5" y1="134.5" y2="35.5" gradientTransform="matrix(0.66666666,0,0,0.66666666,85.333336,115.33334)" gradientUnits="userSpaceOnUse" xlink:href="#linearGradient4041"/><linearGradient id="linearGradient3324" x1="401.5" x2="401.5" y1="134.5" y2="35.5" gradientTransform="translate(-15.999999,-8.99999)" gradientUnits="userSpaceOnUse" xlink:href="#linearGradient4041"/><linearGradient id="linearGradient3326" x1="401.5" x2="401.5" y1="134.5" y2="35.5" gradientTransform="matrix(2.2727272,0,0,2.2727273,-655.99999,-37.181796)" gradientUnits="userSpaceOnUse" xlink:href="#linearGradient4041"/><linearGradient id="linearGradient3328" x1="401.5" x2="401.5" y1="134.5" y2="35.5" gradientTransform="matrix(0.33333333,0,0,0.33333333,314.66667,39.66667)" gradientUnits="userSpaceOnUse" xlink:href="#linearGradient4041"/><linearGradient id="linearGradient3330" x1="401.5" x2="401.5" y1="134.5" y2="35.5" gradientTransform="matrix(0.24242424,0,0,0.24242424,342.66667,91.393942)" gradientUnits="userSpaceOnUse" xlink:href="#linearGradient4041"/><linearGradient id="linearGradient3333" x1="401.5" x2="401.5" y1="134.5" y2="35.5" gradientTransform="matrix(0.21212121,0,0,0.21212121,349.33333,129.9697)" gradientUnits="userSpaceOnUse" xlink:href="#linearGradient4041"/><linearGradient id="linearGradient3335" x1="401.5" x2="401.5" y1="134.5" y2="35.5" gradientTransform="matrix(0.48484848,0,0,0.48484848,141.33334,202.78788)" gradientUnits="userSpaceOnUse" xlink:href="#linearGradient4041"/><linearGradient id="linearGradient3337" x1="401.5" x2="401.5" y1="134.5" y2="35.5" gradientTransform="matrix(0.66666666,0,0,0.66666666,85.333336,115.33334)" gradientUnits="userSpaceOnUse" xlink:href="#linearGradient4041"/><linearGradient id="linearGradient3339" x1="401.5" x2="401.5" y1="134.5" y2="35.5" gradientTransform="translate(-15.999999,-8.99999)" gradientUnits="userSpaceOnUse" xlink:href="#linearGradient4041"/><linearGradient id="linearGradient3341" x1="401.5" x2="401.5" y1="134.5" y2="35.5" gradientTransform="matrix(2.2727272,0,0,2.2727273,-655.99999,-37.181796)" gradientUnits="userSpaceOnUse" xlink:href="#linearGradient4041"/><linearGradient id="linearGradient3343" x1="401.5" x2="401.5" y1="134.5" y2="35.5" gradientTransform="matrix(0.33333333,0,0,0.33333333,314.66667,39.66667)" gradientUnits="userSpaceOnUse" xlink:href="#linearGradient4041"/><linearGradient id="linearGradient3345" x1="401.5" x2="401.5" y1="134.5" y2="35.5" gradientTransform="matrix(0.24242424,0,0,0.24242424,342.66667,91.393942)" gradientUnits="userSpaceOnUse" xlink:href="#linearGradient4041"/><linearGradient id="linearGradient3347" x1="401.5" x2="401.5" y1="134.5" y2="35.5" gradientTransform="matrix(0.21212121,0,0,0.21212121,349.33333,129.9697)" gradientUnits="userSpaceOnUse" xlink:href="#linearGradient4041"/><linearGradient id="linearGradient3408" x2="0" y1="279.096" y2="268.33" gradientTransform="matrix(1.10525,0,0,1.10525,-134.27874,-295.76183)" gradientUnits="userSpaceOnUse" xlink:href="#outerBackgroundGradient"/><linearGradient id="linearGradient4185" x1="373.887" x2="400.178" y1="836.395" y2="18.924" gradientUnits="userSpaceOnUse" xlink:href="#linearGradient4041"/><linearGradient id="linearGradient3846" x2="0" y1="279.096" y2="268.33" gradientTransform="matrix(1.10525,0,0,1.10525,-134.27874,-295.76183)" gradientUnits="userSpaceOnUse" xlink:href="#linearGradient4460-8"/><radialGradient id="radialGradient4536" cx="161.5" cy="161.5" r="37" gradientTransform="matrix(.2749 -.18813 .21088 .30815 -167.49797 157.07984)" gradientUnits="userSpaceOnUse" xlink:href="#linearGradient4460-8"/><radialGradient id="radialGradient5413" cx="143.75" cy="155.25" r="63.25" gradientTransform="matrix(1.69689 .00004 -.00004 1.72262 -100.17196 -112.19223)" gradientUnits="userSpaceOnUse" xlink:href="#linearGradient5067-2-5-7"/><linearGradient id="linearGradient5067-2-5-7"><stop id="stop38" offset="0" stop-color="#f9f9f9"/><stop id="stop40" offset="1" stop-color="#aeaeae"/></linearGradient><linearGradient id="linearGradient3002-4" x2="0" y1="279.096" y2="268.33" gradientTransform="matrix(1.10525,0,0,1.10525,-134.27874,-295.76183)" gradientUnits="userSpaceOnUse" xlink:href="#linearGradient4460-3"/><linearGradient id="linearGradient4460-3"><stop id="stop32" offset="0" stop-color="#f17e24" stop-opacity="1"/><stop id="stop34" offset="1" stop-color="#fecc4e" stop-opacity="1"/></linearGradient><linearGradient id="linearGradient4460-8"><stop id="stop27" offset="0" stop-color="#d34a60" stop-opacity="1"/><stop id="stop29" offset="1" stop-color="#f07a52" stop-opacity="1"/></linearGradient><clipPath id="clipPath22" clipPathUnits="userSpaceOnUse"><path id="path24" fill="gray" d="m 207,155.25 a 63.25,63.25 0 1 1 -126.5,0 63.25,63.25 0 1 1 126.5,0 z" color="#000" transform="matrix(.69565 0 0 .69565 44.00002 32.00003)"/></clipPath><clipPath id="clipPath18" clipPathUnits="userSpaceOnUse"><path id="path20" fill="gray" d="m 207,155.25 a 63.25,63.25 0 1 1 -126.5,0 63.25,63.25 0 1 1 126.5,0 z" color="#000" transform="matrix(.69565 0 0 .69565 44.00002 32.00003)"/></clipPath><clipPath id="clipPath10" clipPathUnits="userSpaceOnUse"><g id="g12"><path style="line-height:normal" id="path14" fill="#2e3436" d="m 144,-116.99998 c -25.92184,0 -46.99999,21.078141 -46.99999,46.999986 0,25.921845 21.07815,46.99999 46.99999,46.99999 25.92184,0 46.99999,-21.078145 46.99999,-46.99999 0,-25.921845 -21.07815,-46.999986 -46.99999,-46.999986 z m 0,6 c 22.6792,0 40.99999,18.320784 40.99999,40.999986 0,22.679202 -18.32079,40.999991 -40.99999,40.999991 -22.6792,0 -40.99999,-18.320789 -40.99999,-40.999991 0,-22.679202 18.32079,-40.999986 40.99999,-40.999986 z" color="#000"/><path style="line-height:normal" id="path16" fill="none" stroke="#000" d="m 144,-116.99998 c -25.92184,0 -46.99999,21.078141 -46.99999,46.999986 0,25.921845 21.07815,46.99999 46.99999,46.99999 25.92184,0 46.99999,-21.078145 46.99999,-46.99999 0,-25.921845 -21.07815,-46.999986 -46.99999,-46.999986 z m 0,6 c 22.6792,0 40.99999,18.320784 40.99999,40.999986 0,22.679202 -18.32079,40.999991 -40.99999,40.999991 -22.6792,0 -40.99999,-18.320789 -40.99999,-40.999991 0,-22.679202 18.32079,-40.999986 40.99999,-40.999986 z" color="#000"/></g></clipPath><clipPath id="clipPath6" clipPathUnits="userSpaceOnUse"><path id="path8" fill="gray" d="m 207,155.25 a 63.25,63.25 0 1 1 -126.5,0 A 63.25,63.25 0 1 1 207,155.25 Z" color="#000" transform="matrix(.69565 0 0 .69565 44.00002 32.00003)"/></clipPath><linearGradient id="linearGradient3315" x2="0" y1="279.096" y2="268.33" gradientTransform="matrix(1.10525,0,0,1.10525,-118.47301,-295.92337)" gradientUnits="userSpaceOnUse" xlink:href="#linearGradient4460-8"/><radialGradient id="radialGradient3005" cx="148.004" cy="160" r="128" gradientTransform="matrix(0.1831,0,0,0.1831,-3.10079,-5.29638)" gradientUnits="userSpaceOnUse" xlink:href="#radial0"/><radialGradient id="radial0" cx="148.004" cy="160" r="128" gradientTransform="matrix(0.1831,0,0,0.1831,-3.10029,-5.29688)" gradientUnits="userSpaceOnUse"><stop id="stop7-0" offset="0" stop-color="#ebc8a8"/><stop id="stop9-5" offset="1" stop-color="#96693c"/></radialGradient><radialGradient id="radialGradient3009" cx="148.004" cy="160" r="128" gradientTransform="matrix(0.05167489,0,0,0.05167489,-0.87510801,-1.4947612)" gradientUnits="userSpaceOnUse" xlink:href="#radial0"/></defs><path id="path11" fill="url(#radialGradient3009)" d="m 13.38778,3.2589209 0,7.0290971 c 0,2.892778 0,3.100035 -3.100035,3.100035 l -7.0279951,0 c -3.10113701,0 -3.10113701,-0.207257 -3.10113701,-3.100035 l 0,-7.0290971 c 0,-2.89277779 0,-3.10003479 3.10113701,-3.10003479 l 7.0279951,0 c 3.100035,0 3.100035,0.207257 3.100035,3.10003479 z"/><path id="path13" fill="#fff" fill-opacity=".051" d="m 10.799273,13.388053 c 0.717682,-0.0033 1.235825,-0.02315 1.611753,-0.124575 l -1.193932,-2.046111 -1.2655901,2.170686 0.3362411,0 c 0.180799,0 0.350573,0 0.511528,0 z M 11.217094,11.217367 9.7707049,8.7368984 8.3232139,11.217367 z m 0,0 2.159662,0 c 0.0088,-0.274505 0.01102,-0.582083 0.01102,-0.930451 l 0,-0.3097833 -0.723194,-1.2402343 z M 12.664586,8.7368984 11.217094,6.2564297 9.7707049,8.7368984 z m 0,0 0.723194,0 0,-1.2402343 z m -2.8938811,0 -1.447491,-2.4804687 -1.446389,2.4804687 z m -2.89388,0 -1.447492,2.4804686 2.893881,0 z m 0,0 -1.447492,-2.4804687 -1.446388,2.4804687 z m -2.89388,0 -1.447492,2.4804686 2.89388,0 z m 0,0 -1.447492,-2.4804687 -1.446389,2.4804687 z m -2.893881,0 -0.93045101,1.5941146 c 0,0.329627 0.0033,0.623976 0.01102,0.886354 l 2.36581601,0 z m 0,0 -0.93045101,-1.5941145 0,1.5941145 z m 1.446389,2.4804686 -1.217083,2.086901 c 0.450894,0.08268 1.07487,0.08379 1.94138,0.08379 l 0.542396,0 z m 0,-4.9609373 -1.446389,-2.4804689 -0.93045101,1.5941147 0,0.8863542 z m 0,0 2.89388,0 -1.446388,-2.4804689 z M 3.9829449,3.7759608 2.5354529,1.2954921 1.0890639,3.7759608 z m 0,0 2.89388,0 -1.447492,-2.4804687 z m 1.446388,-2.4804687 -0.663663,-1.13660599 -1.50592,0 c -0.02205,0 -0.03969,0 -0.06063,0 L 2.5354569,1.2954921 z m 0,0 2.893881,0 -0.663663,-1.13660599 -1.566554,0 z m 2.893881,0 2.8938801,0 -0.663663,-1.13660599 c -0.0882,0 -0.171979,0 -0.265686,0 l -1.3008681,0 z m 0,0 -1.446389,2.4804687 2.89388,0 z m 1.447491,2.4804687 2.8938811,0 -1.447492,-2.4804687 z m 0,0 -1.447491,2.4804689 2.8938801,0 z m 1.4463891,2.4804689 2.170686,0 0,-1.2402343 -0.723194,-1.2402346 z m 1.447492,-2.4804689 0.723194,0 0,-0.5170399 c 0,-0.2579689 -0.0022,-0.4938889 -0.0066,-0.71217 z M 8.3232139,6.2564297 6.8768249,3.7759608 5.4293329,6.2564297 z m 2.8938801,-4.9609376 2.062648,0 C 13.123197,0.51717601 12.747268,0.27133421 11.859811,0.19416391 z m -8.6816411,0 -0.650434,-1.11565969 C 0.85204189,0.23826141 0.43421989,0.46095191 0.26665089,1.2954921 z M 1.0890639,3.7759608 0.17514889,2.2083046 c -0.01213,0.3031685 -0.01654,0.6515363 -0.01654,1.0506163 l 0,0.5170399 z m 4.340269,7.4414062 -1.26559,2.170686 2.532283,0 z m 2.893881,0 -1.265591,2.170686 2.532284,0 z m -7.59133701,1.86862 -0.451997,-0.775009 c 0.08268,0.371519 0.221589,0.615157 0.451997,0.775009 z"/><path id="path3804" fill="#f9f9f9" fill-opacity="1" d="M 11.96875 20 C 11.4 20.026291 11 20.17461 11 20.78125 L 11 33.53125 C 11 34.340105 11.687708 35 12.5625 35 L 35.40625 35 C 36.283752 35 37 34.340105 37 33.53125 L 37 20.78125 C 37 19.972395 36.283752 20 35.40625 20 L 12.5625 20 C 12.343127 20 12.158333 19.989512 11.96875 20 z M 25.84375 20.9375 C 27.123737 20.933702 28.5 21.25 30 22 L 30 30.84375 C 30.004016 30.895512 30 30.947208 30 31 C 30 32.10457 29.10457 33 28 33 C 26.89543 33 26 32.10457 26 31 C 26 29.89543 26.89543 29 28 29 L 28 24 C 25.660006 23.452198 24.056358 23.546942 22 25 L 22 32 C 22 33.10457 21.10457 34 20 34 C 18.89543 34 18 33.10457 18 32 C 18 30.905988 18.878761 30.016893 19.96875 30 C 19.990839 29.966674 19.98186 29.962426 20 29.9375 L 20 23 C 21.831812 21.828816 23.710438 20.94383 25.84375 20.9375 z" transform="scale(0.28222223,0.28222223)"/><path id="path3806" fill="#f9f9f9" fill-opacity="1" d="m 4.2486792,3.7822294 -1.1442347,1.2977707 3.3866668,9e-7 0,-1.9755554 -1.5545154,10e-8 c -0.2293055,0 -0.6879167,0.6777837 -0.6879167,0.6777837 z m 2.8068765,-0.6777837 0,1.9755554 3.3866663,-10e-7 -1.1488204,-1.2977707 c 0,0 -0.4586111,-0.6777837 -0.6879167,-0.6777837 z"/><g id="layer7" display="none" transform="matrix(0.28222223,0,0,0.28222223,50.376342,-37.042049)"><text id="context" x="15.007" y="19.745" fill="#000" fill-opacity="1" stroke="none" display="inline" enable-background="new" font-family="DejaVu Sans" font-size="18" font-stretch="normal" font-style="normal" font-variant="normal" font-weight="normal" xml:space="preserve" style="-inkscape-font-specification:DejaVu Sans"><tspan style="-inkscape-font-specification:DejaVu Sans" id="tspan3933" x="15.007" y="19.745" font-family="DejaVu Sans" font-stretch="normal" font-style="normal" font-variant="normal" font-weight="normal">apps</tspan></text><text id="icon-name" x="122.488" y="19.745" fill="#000" fill-opacity="1" stroke="none" display="inline" enable-background="new" font-family="DejaVu Sans" font-size="18" font-stretch="normal" font-style="normal" font-variant="normal" font-weight="bold" text-anchor="start" writing-mode="lr-tb" xml:space="preserve" style="text-align:start;line-height:125%;-inkscape-font-specification:DejaVu Sans Bold"><tspan style="-inkscape-font-specification:DejaVu Sans Bold" id="tspan3937" x="122.488" y="19.745" font-family="DejaVu Sans" font-size="18" font-stretch="normal" font-style="normal" font-variant="normal" font-weight="bold">firewall</tspan></text><rect id="rect16x16" width="16" height="16" x="416" y="140" fill="#eeeeec" fill-opacity="1" fill-rule="nonzero" stroke="none" stroke-width="2" display="inline" enable-background="accumulate" overflow="visible" visibility="visible" style="marker:none"/><rect id="rect24x24" width="24" height="24" x="416" y="100" fill="#d4d4d4" fill-opacity="1" fill-rule="nonzero" stroke="none" stroke-width="2" display="inline" enable-background="accumulate" overflow="visible" visibility="visible" style="marker:none"/><rect id="rect32x32" width="32" height="32" x="416" y="52" fill="#eeeeec" fill-opacity="1" fill-rule="nonzero" stroke="none" stroke-width="2" display="inline" enable-background="accumulate" overflow="visible" visibility="visible" style="marker:none"/><rect id="rect22x22" width="22" height="22" x="417" y="101" fill="#eeeeec" fill-opacity="1" fill-rule="nonzero" stroke="none" stroke-width="2" display="inline" enable-background="accumulate" overflow="visible" visibility="visible" style="marker:none"/><rect id="rect48x48" width="48" height="48" x="288" y="220" fill="#eeeeec" fill-opacity="1" fill-rule="nonzero" stroke="none" stroke-width="2" display="inline" enable-background="accumulate" overflow="visible" visibility="visible" style="marker:none"/><rect id="rect256x256" width="256" height="256" x="16" y="28" fill="#eeeeec" fill-opacity="1" fill-rule="nonzero" stroke="none" stroke-width="2" display="inline" enable-background="accumulate" overflow="visible" visibility="visible" style="marker:none"/><rect id="rect64x64" width="64" height="64" x="288" y="140" fill="#eeeeec" fill-opacity="1" fill-rule="nonzero" stroke="none" stroke-width="2" display="inline" enable-background="accumulate" overflow="visible" visibility="visible" style="marker:none"/><rect id="rect96x96" width="96" height="96" x="288" y="28" fill="#eeeeec" fill-opacity="1" fill-rule="nonzero" stroke="none" stroke-width="2" display="inline" enable-background="accumulate" overflow="visible" visibility="visible" style="marker:none"/></g></svg>