<svg xmlns="http://www.w3.org/2000/svg" xmlns:svg="http://www.w3.org/2000/svg" xmlns:xlink="http://www.w3.org/1999/xlink" id="svg2" width="48" height="48" version="1.1" viewBox="0 0 13.547 13.547"><metadata id="metadata46"/><defs id="defs4"><linearGradient id="0"><stop id="stop7" stop-color="#cacaca"/><stop id="stop9" offset="1" stop-color="#dedede"/></linearGradient><linearGradient id="1" x2="0" y1="1050.36" y2="1006.36" gradientTransform="matrix(0.28222223,0,0,0.28222223,0,-283.45334)" gradientUnits="userSpaceOnUse" xlink:href="#0"/><radialGradient id="radialGradient3034" cx="148.004" cy="160" r="128" gradientTransform="matrix(0.05167489,0,0,0.05167489,-0.87511211,-1.4947611)" gradientUnits="userSpaceOnUse" spreadMethod="pad" xlink:href="#linearGradient4460-7-2"/><linearGradient id="linearGradient4460-7-2"><stop id="stop8-6-7" offset="0" stop-color="#bebcd6" stop-opacity="1"/><stop id="stop10-2-5" offset="1" stop-color="#7878fc" stop-opacity="1"/></linearGradient><radialGradient id="radialGradient3011" cx="148.004" cy="160" r="128" gradientTransform="matrix(0.05167489,0,0,0.05167489,-0.87511211,-1.4947611)" gradientUnits="userSpaceOnUse" spreadMethod="pad" xlink:href="#linearGradient4460-7-2"/></defs><path id="path11-4" fill="url(#radialGradient3011)" fill-opacity="1" d="m 13.387775,3.2589209 0,7.0290971 c 0,2.892778 0,3.100035 -3.100034,3.100035 l -7.0279949,0 c -3.10113721,0 -3.10113721,-0.207257 -3.10113721,-3.100035 l 0,-7.0290971 c 0,-2.89277789 0,-3.10003479 3.10113721,-3.10003479 l 7.0279949,0 c 3.100034,0 3.100034,0.2072569 3.100034,3.10003479 z"/><path id="path15-5" fill="#fff" fill-opacity=".051" d="m 10.799268,13.388053 c 0.717683,-0.0033 1.235826,-0.02315 1.611754,-0.124575 l -1.193933,-2.046111 -1.2655899,2.170686 0.3362419,0 c 0.180799,0 0.350572,0 0.511527,0 z M 11.217089,11.217367 9.7707001,8.7368984 8.3232091,11.217367 z m 0,0 2.159663,0 c 0.0088,-0.274505 0.01102,-0.582083 0.01102,-0.930451 l 0,-0.3097833 -0.723193,-1.2402343 z M 12.664582,8.7368984 11.217089,6.2564297 9.7707001,8.7368984 z m 0,0 0.723193,0 0,-1.2402343 z m -2.8938819,0 -1.447491,-2.4804687 -1.446389,2.4804687 z m -2.89388,0 -1.447491,2.4804686 2.89388,0 z m 0,0 -1.447491,-2.4804687 -1.446389,2.4804687 z m -2.89388,0 -1.447491,2.4804686 2.89388,0 z m 0,0 L 2.5354491,6.2564297 1.08906,8.7368984 z m -2.8938801,0 -0.93045111,1.5941146 c 0,0.329627 0.0033,0.623976 0.011021,0.886354 l 2.36581621,0 z m 0,0 -0.93045111,-1.5941145 0,1.5941145 z m 1.4463891,2.4804686 -1.2170828,2.086901 c 0.4508928,0.08268 1.0748688,0.08379 1.9413798,0.08379 l 0.542395,0 z m 0,-4.9609373 L 1.08906,3.7759608 0.15860889,5.3700755 l 0,0.8863542 z m 0,0 2.89388,0 -1.446389,-2.4804689 z M 3.9829401,3.7759608 2.5354491,1.2954921 1.08906,3.7759608 z m 0,0 2.89388,0 -1.447491,-2.4804687 z m 1.446389,-2.4804687 -0.663663,-1.13660599 -1.50592,0 c -0.02205,0 -0.03969,0 -0.06063,0 L 2.5354531,1.2954921 z m 0,0 2.89388,0 -0.663663,-1.13660599 -1.566554,0 z m 2.89388,0 2.8938799,0 -0.663662,-1.13660599 c -0.0882,0 -0.17198,0 -0.265686,0 l -1.3008689,0 z m 0,0 -1.446389,2.4804687 2.89388,0 z m 1.447491,2.4804687 2.8938819,0 -1.447493,-2.4804687 z m 0,0 -1.447491,2.4804689 2.8938799,0 z m 1.4463889,2.4804689 2.170686,0 0,-1.2402343 -0.723193,-1.2402346 z m 1.447493,-2.4804689 0.723193,0 0,-0.5170399 c 0,-0.2579689 -0.0022,-0.4938888 -0.0066,-0.71217 z M 8.3232091,6.2564297 6.8768201,3.7759608 5.4293291,6.2564297 z m 2.8938799,-4.9609376 2.062648,0 C 13.123192,0.51717601 12.747264,0.27133411 11.859806,0.19416391 z m -8.6816399,0 -0.650434,-1.11565979 C 0.85203709,0.23826131 0.43421609,0.46095191 0.26664689,1.2954921 z M 1.08906,3.7759608 0.17514479,2.2083047 c -0.01213,0.3031684 -0.01653,0.6515362 -0.01653,1.0506162 l 0,0.5170399 z m 4.3402691,7.4414062 -1.265591,2.170686 2.532283,0 z m 2.89388,0 -1.26559,2.170686 2.532283,0 z m -7.59133631,1.86862 -0.4519967,-0.775009 c 0.08268,0.371519 0.2215888,0.615157 0.4519967,0.775009 z"/><path id="path30" fill="#f9f9f9" fill-opacity="1" d="m 6.4828048,3.1044451 -2.8032265,1.5858881 1.3551473,0.7658397 1.4480792,-0.8177416 0,-1.5339862 z"/><path id="path32" fill="#f9f9f9" fill-opacity="1" d="m 7.0662704,3.1044451 0,1.5339862 L 8.5131728,5.4584796 9.8683201,4.6926399 7.0662704,3.1044451 z"/><path id="path34" fill="#f9f9f9" fill-opacity="1" d="m 3.3878451,5.1862836 -0.00115,3.171776 1.3551473,-0.7658395 0,-1.6400968 -1.3539712,-0.7658397 z"/><path id="path36" fill="#f9f9f9" fill-opacity="1" d="m 10.160053,5.1885869 -1.3551477,0.7658397 0,1.6400969 1.3539717,0.7658397 0.0011,-3.1717763 z"/><path id="path38" fill="#f9f9f9" fill-opacity="1" d="m 5.0335495,8.0870137 -1.3551472,0.7669933 2.8032257,1.588195 0,-1.5339866 -1.4480785,-0.8212017 z"/><path id="path40" fill="#f9f9f9" fill-opacity="1" d="m 8.511996,8.089324 -1.4469016,0.8177417 0,1.5339863 L 9.8671433,8.856318 8.511996,8.0893247 z"/><path id="path42" fill="#f9f9f9" fill-opacity="1" d="M 8.3986538,5.8539429 8.3979386,7.6939418 6.7725936,8.6133337 5.1479646,7.6927268 5.1486799,5.8527279 6.7740248,4.933336 z"/></svg>