<svg xmlns="http://www.w3.org/2000/svg" xmlns:svg="http://www.w3.org/2000/svg" xmlns:xlink="http://www.w3.org/1999/xlink" id="svg2" width="48" height="48" version="1.1" viewBox="0 0 13.547 13.547"><metadata id="metadata24"/><defs id="defs4"><linearGradient id="linearGradient4460"><stop id="stop7" offset="0" stop-color="#214c89"/><stop id="stop9" offset="1" stop-color="#2d67b9"/></linearGradient><linearGradient id="linearGradient3115" x2="0" y1="279.096" y2="268.33" gradientTransform="matrix(1.10528,0,0,1.10528,-134.28288,-295.77052)" gradientUnits="userSpaceOnUse" xlink:href="#linearGradient4460"/><linearGradient id="linearGradient3885" x1="283.81" x2="283.81" y1="299.81" y2="31.619" gradientTransform="matrix(0.11931818,0,0,0.11931818,414.13636,48.22727)" gradientUnits="userSpaceOnUse" xlink:href="#outerBackgroundGradient"/><clipPath id="clipPath3881" clipPathUnits="userSpaceOnUse"><rect id="rect3883" width="30" height="30" x="417" y="53" fill="url(#linearGradient3885)" fill-opacity="1" fill-rule="nonzero" stroke="none" stroke-width="0" color="#bebebe" display="inline" enable-background="accumulate" overflow="visible" ry="7" visibility="visible" style="marker:none"/></clipPath><linearGradient id="linearGradient3875" x1="286.857" x2="286.857" y1="302.857" y2="28.571" gradientTransform="matrix(0.0875,0,0,0.0875,414.9,97.5)" gradientUnits="userSpaceOnUse" xlink:href="#outerBackgroundGradient"/><clipPath id="clipPath3871" clipPathUnits="userSpaceOnUse"><rect id="rect3873" width="22" height="22" x="417" y="101" fill="url(#linearGradient3875)" fill-opacity="1" fill-rule="nonzero" stroke="none" stroke-width="0" color="#bebebe" display="inline" enable-background="accumulate" overflow="visible" ry="5" visibility="visible" style="marker:none"/></clipPath><linearGradient id="linearGradient4350" x1="384" x2="384" y1="124" y2="28" gradientUnits="userSpaceOnUse" xlink:href="#outerBackgroundGradient"/><clipPath id="clipPath4346" clipPathUnits="userSpaceOnUse"><rect id="rect4348" width="88" height="88" x="292" y="32" fill="url(#linearGradient4350)" fill-opacity="1" fill-rule="nonzero" stroke="none" stroke-width="0" color="#bebebe" display="inline" enable-background="accumulate" overflow="visible" ry="18" visibility="visible" style="marker:none"/></clipPath><linearGradient id="linearGradient4191" x1="352" x2="352" y1="204" y2="140" gradientUnits="userSpaceOnUse" xlink:href="#outerBackgroundGradient"/><clipPath id="clipPath4187" clipPathUnits="userSpaceOnUse"><rect id="rect4189" width="60" height="60" x="290" y="142" fill="url(#linearGradient4191)" fill-opacity="1" fill-rule="nonzero" stroke="none" stroke-width="0" color="#bebebe" display="inline" enable-background="accumulate" overflow="visible" ry="12.5" visibility="visible" style="marker:none"/></clipPath><linearGradient id="linearGradient3866" x1="144" x2="144" y1="280" y2="40" gradientTransform="translate(0,-4)" gradientUnits="userSpaceOnUse" xlink:href="#outerBackgroundGradient"/><clipPath id="clipPath3862" clipPathUnits="userSpaceOnUse"><rect id="rect3864" width="220" height="220" x="34" y="46" fill="url(#linearGradient3866)" fill-opacity="1" fill-rule="nonzero" stroke="none" stroke-width="0" color="#bebebe" display="inline" enable-background="accumulate" overflow="visible" ry="50" visibility="visible" style="marker:none"/></clipPath><linearGradient id="linearGradient3859" x1="144" x2="144" y1="280" y2="40" gradientTransform="matrix(0.06666667,0,0,0.06666667,302.4,209.33333)" gradientUnits="userSpaceOnUse" xlink:href="#outerBackgroundGradient"/><clipPath id="clipPath3855" clipPathUnits="userSpaceOnUse"><rect id="rect3857" width="16" height="16" x="304" y="212" fill="url(#linearGradient3859)" fill-opacity="1" fill-rule="nonzero" stroke="none" stroke-width="0" color="#bebebe" display="inline" enable-background="accumulate" overflow="visible" ry="3" transform="matrix(0,1,-1,0,0,0)" visibility="visible" style="marker:none"/></clipPath><linearGradient id="linearGradient4093" x1="149.714" x2="149.714" y1="291.429" y2="40" gradientTransform="matrix(0.11931818,0,0,0.11931818,430.13636,32.227267)" gradientUnits="userSpaceOnUse" xlink:href="#outerBackgroundGradient"/><clipPath id="clipPath4089" clipPathUnits="userSpaceOnUse"><rect id="rect4091" width="30" height="30" x="433" y="37" fill="url(#linearGradient4093)" fill-opacity="1" fill-rule="nonzero" stroke="none" stroke-width="0" color="#bebebe" display="inline" enable-background="accumulate" overflow="visible" ry="6" visibility="visible" style="marker:none"/></clipPath><linearGradient id="linearGradient4048" x1="149.714" x2="149.714" y1="291.429" y2="40" gradientTransform="matrix(0.0875,0,0,0.0875,430.9,81.499996)" gradientUnits="userSpaceOnUse" xlink:href="#outerBackgroundGradient"/><clipPath id="clipPath4044" clipPathUnits="userSpaceOnUse"><rect id="rect4046" width="22" height="22" x="433" y="85" fill="url(#linearGradient4048)" fill-opacity="1" fill-rule="nonzero" stroke="none" stroke-width="0" color="#bebebe" display="inline" enable-background="accumulate" overflow="visible" ry="4" visibility="visible" style="marker:none"/></clipPath><linearGradient id="linearGradient4895" x1="144" x2="144" y1="280" y2="40" gradientTransform="matrix(0.175,0,0,0.175,302.79999,215.99997)" gradientUnits="userSpaceOnUse" xlink:href="#outerBackgroundGradient"/><clipPath id="clipPath4891" clipPathUnits="userSpaceOnUse"><rect id="rect4893" width="42" height="42" x="307" y="223" fill="url(#linearGradient4895)" fill-opacity="1" fill-rule="nonzero" stroke="none" stroke-width="0" color="#bebebe" display="inline" enable-background="accumulate" overflow="visible" ry="9" transform="matrix(0,1,-1,0,0,0)" visibility="visible" style="marker:none"/></clipPath><linearGradient id="outerBackgroundGradient"><stop id="stop3864-8-6" offset="0" stop-color="#040e18" stop-opacity="1"/><stop id="stop3866-9-1" offset="1" stop-color="#1e3a50" stop-opacity="1"/></linearGradient><linearGradient id="linearGradient5690"><stop id="stop5692" offset="0" stop-color="#dbe7ea" stop-opacity="1"/><stop id="stop5694" offset="1" stop-color="#7a8288" stop-opacity="1"/></linearGradient><linearGradient id="linearGradient4137" x2="0" y1="279.096" y2="268.33" gradientTransform="matrix(1.10528,0,0,1.10528,-134.28288,-295.77052)" gradientUnits="userSpaceOnUse" xlink:href="#outerBackgroundGradient"/><linearGradient id="linearGradient4210" x1=".994" x2=".994" y1="150.51" y2="176.51" gradientUnits="userSpaceOnUse" xlink:href="#linearGradient5690"/><linearGradient id="linearGradient3092" x2="0" y1="1050.36" y2="1006.36" gradientTransform="matrix(0.28222223,0,0,0.28222223,5.9916667e-7,-283.45334)" gradientUnits="userSpaceOnUse" xlink:href="#outerBackgroundGradient"/><linearGradient id="linearGradient4460-9"><stop id="stop7-8" offset="0" stop-color="#cecece" stop-opacity="1"/><stop id="stop9-0" offset="1" stop-color="#e9e9e9" stop-opacity="1"/></linearGradient><radialGradient id="radialGradient3034" cx="148.004" cy="160" r="128" gradientTransform="matrix(0.05167489,0,0,0.05167489,-0.87511211,-1.4947611)" gradientUnits="userSpaceOnUse" spreadMethod="pad" xlink:href="#linearGradient4460-7-2"/><linearGradient id="linearGradient4460-7-2"><stop id="stop8-6-7" offset="0" stop-color="#5b5890" stop-opacity="1"/><stop id="stop10-2-5" offset="1" stop-color="#030127" stop-opacity="1"/></linearGradient><radialGradient id="radialGradient3011" cx="148.004" cy="160" r="128" gradientTransform="matrix(0.05167489,0,0,0.05167489,-0.87511211,-1.4947614)" gradientUnits="userSpaceOnUse" spreadMethod="pad" xlink:href="#linearGradient4460-7-2"/><linearGradient id="linearGradient3097" x1=".994" x2=".994" y1="150.51" y2="176.51" gradientUnits="userSpaceOnUse" xlink:href="#linearGradient5690"/><linearGradient id="linearGradient3099" x1=".994" x2=".994" y1="150.51" y2="176.51" gradientUnits="userSpaceOnUse" xlink:href="#linearGradient5690"/><linearGradient id="linearGradient3101" x1=".994" x2=".994" y1="150.51" y2="176.51" gradientUnits="userSpaceOnUse" xlink:href="#linearGradient5690"/><linearGradient id="linearGradient3103" x1=".994" x2=".994" y1="150.51" y2="176.51" gradientUnits="userSpaceOnUse" xlink:href="#linearGradient5690"/><linearGradient id="linearGradient3105" x1=".994" x2=".994" y1="150.51" y2="176.51" gradientUnits="userSpaceOnUse" xlink:href="#linearGradient5690"/><linearGradient id="linearGradient3107" x1=".994" x2=".994" y1="150.51" y2="176.51" gradientUnits="userSpaceOnUse" xlink:href="#linearGradient5690"/><linearGradient id="linearGradient3109" x1=".994" x2=".994" y1="150.51" y2="176.51" gradientUnits="userSpaceOnUse" xlink:href="#linearGradient5690"/><linearGradient id="linearGradient3111" x1=".994" x2=".994" y1="150.51" y2="176.51" gradientUnits="userSpaceOnUse" xlink:href="#linearGradient5690"/></defs><path id="path11-4" fill="url(#radialGradient3011)" fill-opacity="1" d="m 13.387775,3.2589206 0,7.0290974 c 0,2.892778 0,3.100035 -3.100034,3.100035 l -7.0279947,0 c -3.10113741,0 -3.10113741,-0.207257 -3.10113741,-3.100035 l 0,-7.0290974 c 0,-2.89277789 0,-3.10003479 3.10113741,-3.10003479 l 7.0279947,0 c 3.100034,0 3.100034,0.2072569 3.100034,3.10003479 z"/><path id="path15-5" fill="#fff" fill-opacity=".051" d="m 10.799268,13.388053 c 0.717683,-0.0033 1.235826,-0.02315 1.611754,-0.124575 l -1.193933,-2.046111 -1.2655897,2.170686 0.3362417,0 c 0.180799,0 0.350572,0 0.511527,0 z M 11.217089,11.217367 9.7707004,8.7368981 8.3232094,11.217367 z m 0,0 2.159663,0 c 0.0088,-0.274505 0.01102,-0.582083 0.01102,-0.930451 l 0,-0.3097836 -0.723193,-1.2402343 z M 12.664582,8.7368981 11.217089,6.2564294 9.7707004,8.7368981 z m 0,0 0.723193,0 0,-1.2402343 z m -2.8938816,0 -1.447491,-2.4804687 -1.446389,2.4804687 z m -2.89388,0 -1.447491,2.4804689 2.89388,0 z m 0,0 -1.447491,-2.4804687 -1.4463892,2.4804687 z m -2.8938802,0 -1.4474909,2.4804689 2.8938801,0 z m 0,0 L 2.5354493,6.2564294 1.08906,8.7368981 z m -2.8938802,0 -0.93045111,1.5941149 c 0,0.329627 0.0033,0.623976 0.011021,0.886354 l 2.36581641,0 z m 0,0 -0.93045111,-1.5941145 0,1.5941145 z m 1.4463893,2.4804689 -1.217083,2.086901 c 0.450893,0.08268 1.074869,0.08379 1.94138,0.08379 l 0.542395,0 z m 0,-4.9609376 L 1.08906,3.7759605 0.15860889,5.3700752 l 0,0.8863542 z m 0,0 2.8938801,0 L 3.9829402,3.7759605 z M 3.9829402,3.7759605 2.5354493,1.2954918 1.08906,3.7759605 z m 0,0 2.8938802,0 -1.447491,-2.4804687 z m 1.4463892,-2.4804687 -0.663663,-1.13660599 -1.5059201,0 c -0.02205,0 -0.03969,0 -0.06063,0 L 2.5354533,1.2954918 z m 0,0 2.89388,0 -0.6636631,-1.13660599 -1.5665541,0 z m 2.89388,0 2.8938796,0 -0.663662,-1.13660599 c -0.0882,0 -0.17198,0 -0.265686,0 l -1.3008686,0 z m 0,0 -1.446389,2.4804687 2.89388,0 z m 1.447491,2.4804687 2.8938816,0 -1.447493,-2.4804687 z m 0,0 -1.447491,2.4804689 2.8938796,0 z m 1.4463886,2.4804689 2.170686,0 0,-1.2402343 -0.723193,-1.2402346 z m 1.447493,-2.4804689 0.723193,0 0,-0.5170399 c 0,-0.2579689 -0.0022,-0.4938888 -0.0066,-0.71217 z M 8.3232094,6.2564294 6.8768204,3.7759605 5.4293294,6.2564294 z m 2.8938796,-4.9609376 2.062648,0 C 13.123192,0.51717571 12.747264,0.27133381 11.859806,0.19416361 z m -8.6816397,0 -0.650434,-1.11565979 C 0.85203709,0.23826101 0.43421609,0.46095171 0.26664689,1.2954918 z M 1.08906,3.7759605 0.17514479,2.2083044 c -0.01213,0.3031684 -0.01653,0.6515362 -0.01653,1.0506162 l 0,0.5170399 z m 4.3402694,7.4414065 -1.2655911,2.170686 2.532283,0 z m 2.89388,0 -1.2655901,2.170686 2.532283,0 z m -7.59133661,1.86862 -0.4519967,-0.775009 c 0.08268,0.371519 0.2215888,0.615157 0.4519967,0.775009 z"/><g id="layer7" display="none" transform="matrix(0.28222223,0,0,0.28222223,6.4929387,-39.37284)"><text id="context" x="15.007" y="19.745" fill="#000" fill-opacity="1" stroke="none" display="inline" enable-background="new" font-family="DejaVu Sans" font-size="18" font-stretch="normal" font-style="normal" font-variant="normal" font-weight="normal" xml:space="preserve" style="-inkscape-font-specification:DejaVu Sans"><tspan style="-inkscape-font-specification:DejaVu Sans" id="tspan3933" x="15.007" y="19.745" font-family="DejaVu Sans" font-stretch="normal" font-style="normal" font-variant="normal" font-weight="normal">apps</tspan></text><text id="icon-name" x="122.488" y="19.745" fill="#000" fill-opacity="1" stroke="none" display="inline" enable-background="new" font-family="DejaVu Sans" font-size="18" font-stretch="normal" font-style="normal" font-variant="normal" font-weight="bold" text-anchor="start" writing-mode="lr-tb" xml:space="preserve" style="text-align:start;line-height:125%;-inkscape-font-specification:DejaVu Sans Bold"><tspan style="-inkscape-font-specification:DejaVu Sans Bold" id="tspan3937" x="122.488" y="19.745" font-family="DejaVu Sans" font-size="18" font-stretch="normal" font-style="normal" font-variant="normal" font-weight="bold">lightworks</tspan></text><rect id="rect16x16" width="16" height="16" x="416" y="140" fill="#eeeeec" fill-opacity="1" fill-rule="nonzero" stroke="none" stroke-width="2" display="inline" enable-background="accumulate" overflow="visible" visibility="visible" style="marker:none"/><rect id="rect24x24" width="24" height="24" x="416" y="100" fill="#d4d4d4" fill-opacity="1" fill-rule="nonzero" stroke="none" stroke-width="2" display="inline" enable-background="accumulate" overflow="visible" visibility="visible" style="marker:none"/><rect id="rect32x32" width="32" height="32" x="416" y="52" fill="#eeeeec" fill-opacity="1" fill-rule="nonzero" stroke="none" stroke-width="2" display="inline" enable-background="accumulate" overflow="visible" visibility="visible" style="marker:none"/><rect id="rect22x22" width="22" height="22" x="417" y="101" fill="#eeeeec" fill-opacity="1" fill-rule="nonzero" stroke="none" stroke-width="2" display="inline" enable-background="accumulate" overflow="visible" visibility="visible" style="marker:none"/><rect id="rect48x48" width="48" height="48" x="288" y="220" fill="#eeeeec" fill-opacity="1" fill-rule="nonzero" stroke="none" stroke-width="2" display="inline" enable-background="accumulate" overflow="visible" visibility="visible" style="marker:none"/><rect id="rect256x256" width="256" height="256" x="16" y="28" fill="#eeeeec" fill-opacity="1" fill-rule="nonzero" stroke="none" stroke-width="2" display="inline" enable-background="accumulate" overflow="visible" visibility="visible" style="marker:none"/><rect id="rect64x64" width="64" height="64" x="288" y="140" fill="#eeeeec" fill-opacity="1" fill-rule="nonzero" stroke="none" stroke-width="2" display="inline" enable-background="accumulate" overflow="visible" visibility="visible" style="marker:none"/><rect id="rect96x96" width="96" height="96" x="288" y="28" fill="#eeeeec" fill-opacity="1" fill-rule="nonzero" stroke="none" stroke-width="2" display="inline" enable-background="accumulate" overflow="visible" visibility="visible" style="marker:none"/></g><g id="layer6" display="inline" transform="matrix(0.28222223,0,0,0.28222223,6.4929387,-39.37284)"><path id="path4158" fill="#f9f9f9" fill-opacity="1" fill-rule="nonzero" stroke="none" stroke-width="2" d="m -5.747216,150.51011 c -3.4568928,0 -6.259259,2.80237 -6.259259,6.25926 0,3.30242 2.5654195,5.99401 5.8078702,6.22917 0.2575444,-3.56127 3.1192874,-6.42302 6.68055547,-6.68056 -0.23514592,-3.24245 -2.92674297,-5.80787 -6.22916667,-5.80787 z" color="#000" display="inline" enable-background="new" overflow="visible" visibility="visible" style="marker:none"/><path id="path4156" fill="#f9f9f9" fill-opacity="1" fill-rule="nonzero" stroke="none" stroke-width="2" d="m 7.7342655,150.51011 c -3.3024237,0 -5.9940207,2.56542 -6.2291667,5.80787 3.5612682,0.25754 6.4230111,3.11929 6.6805556,6.68056 3.2424506,-0.23516 5.8078706,-2.92675 5.8078706,-6.22917 0,-3.45689 -2.802367,-6.25926 -6.2592595,-6.25926 z" color="#000" display="inline" enable-background="new" overflow="visible" visibility="visible" style="marker:none"/><path id="path4150" fill="#f9f9f9" fill-opacity="1" fill-rule="nonzero" stroke="none" stroke-width="2" d="m -5.0064751,164.51006 c 0.2500526,3.0424 1.9576052,4.74995 4.99999996,5 l 0,-5 z" color="#000" display="inline" enable-background="new" overflow="visible" visibility="visible" style="marker:none"/><path id="path4146" fill="#f9f9f9" fill-opacity="1" fill-rule="nonzero" stroke="none" stroke-width="2" d="m -6.3791607,164.02159 c -3.1562652,0.32058 -5.6273143,2.98837 -5.6273143,6.22921 0,3.45689 2.8023662,6.25926 6.259259,6.25926 3.3024237,0 5.99402075,-2.56542 6.22916667,-5.80787 -3.56126807,-0.25754 -6.42301107,-3.11929 -6.68055547,-6.68056 -0.060474,0.005 -0.1205729,-0.006 -0.1805559,0 z" color="#000" display="inline" enable-background="new" overflow="visible" visibility="visible" style="marker:none"/><path id="path5658" fill="#f9f9f9" fill-opacity="1" fill-rule="nonzero" stroke="none" stroke-width="2" d="m 8.1856544,164.02159 c -0.2575445,3.56126 -3.1192874,6.42301 -6.6805556,6.68055 0.235146,3.24245 2.926743,5.80787 6.2291667,5.80787 3.4568925,0 6.2592595,-2.80236 6.2592595,-6.25926 0,-3.30242 -2.56542,-5.99402 -5.8078706,-6.22916 z" color="#000" display="inline" enable-background="new" overflow="visible" visibility="visible" style="marker:none"/><path d="m 6.9935248,164.51006 c -0.2500526,3.0424 -1.9576052,4.74995 -4.9999999,5 l 0,-5 z" style="marker:none" id="path4160" fill="#f9f9f9" fill-opacity="1" fill-rule="nonzero" stroke="none" stroke-width="2" color="#000" display="inline" enable-background="new" overflow="visible" visibility="visible"/><path id="path4164" fill="#f9f9f9" fill-opacity="1" fill-rule="nonzero" stroke="none" stroke-width="2" d="m 6.9935248,162.51006 c -0.2500526,-3.0424 -1.9576052,-4.74995 -4.9999999,-5 l 0,5 z" color="#000" display="inline" enable-background="new" overflow="visible" visibility="visible" style="marker:none"/><path d="m -5.0064751,162.51006 c 0.2500526,-3.0424 1.9576053,-4.74995 4.99999996,-5 l 0,5 z" style="marker:none" id="path4168" fill="#f9f9f9" fill-opacity="1" fill-rule="nonzero" stroke="none" stroke-width="2" color="#000" display="inline" enable-background="new" overflow="visible" visibility="visible"/></g></svg>