<svg xmlns="http://www.w3.org/2000/svg" xmlns:svg="http://www.w3.org/2000/svg" xmlns:xlink="http://www.w3.org/1999/xlink" id="svg2" width="48" height="48" version="1.1" viewBox="0 0 13.547 13.547"><metadata id="metadata34"/><defs id="defs4"><linearGradient id="0"><stop id="stop7" stop-color="#008098"/><stop id="stop9" offset="1" stop-color="#27b6cf"/></linearGradient><linearGradient id="1" x2="0" y1="1050.36" y2="1006.36" gradientTransform="matrix(0.28222223,0,0,0.28222223,0,-283.45334)" gradientUnits="userSpaceOnUse" xlink:href="#0"/><radialGradient id="radial0" cx="148.004" cy="160" r="128" gradientTransform="matrix(0.1831,0,0,0.1831,-3.10029,-5.29688)" gradientUnits="userSpaceOnUse"><stop id="stop7-2" offset="0" stop-color="#8edef5"/><stop id="stop9-3" offset="1" stop-color="#0a7392"/></radialGradient><radialGradient id="radialGradient3003" cx="148.004" cy="160" r="128" gradientTransform="matrix(0.05167489,0,0,0.05167489,-0.87511151,-1.4947616)" gradientUnits="userSpaceOnUse" xlink:href="#radial0"/></defs><path id="path11" fill="url(#radialGradient3003)" d="m 13.387776,3.2589205 0,7.0290975 c 0,2.892778 0,3.100035 -3.100035,3.100035 l -7.0279945,0 c -3.10113721,0 -3.10113721,-0.207257 -3.10113721,-3.100035 l 0,-7.0290975 c 0,-2.89277789 0,-3.10003479 3.10113721,-3.10003479 l 7.0279945,0 c 3.100035,0 3.100035,0.2072569 3.100035,3.10003479 z"/><path id="path15" fill="#fff" fill-opacity=".051" d="m 10.799269,13.388053 c 0.717682,-0.0033 1.235825,-0.02315 1.611753,-0.124575 l -1.193932,-2.046111 -1.2655898,2.170686 0.3362408,0 c 0.180799,0 0.350573,0 0.511528,0 z M 11.21709,11.217367 9.7707016,8.736898 8.3232103,11.217367 z m 0,0 2.159662,0 c 0.0088,-0.274505 0.01102,-0.582083 0.01102,-0.930451 l 0,-0.3097837 L 12.664578,8.736898 z M 12.664582,8.736898 11.21709,6.2564293 9.7707016,8.736898 z m 0,0 0.723194,0 0,-1.2402343 z m -2.8938804,0 L 8.3232103,6.2564293 6.8768214,8.736898 z m -2.8938802,0 -1.4474916,2.480469 2.8938805,0 z m 0,0 L 5.4293298,6.2564293 3.9829409,8.736898 z m -2.8938805,0 -1.4474913,2.480469 2.8938802,0 z m 0,0 L 2.5354496,6.2564293 1.0890607,8.736898 z m -2.8938802,0 -0.93045141,1.594115 c 0,0.329627 0.00331,0.623976 0.011024,0.886354 l 2.36581611,0 z m 0,0 -0.93045141,-1.5941145 0,1.5941145 z m 1.4463889,2.480469 -1.2170833,2.086901 c 0.450894,0.08268 1.0748699,0.08379 1.9413802,0.08379 l 0.5423958,0 z m 0,-4.9609377 -1.4463889,-2.4804689 -0.93045141,1.5941147 0,0.8863542 z m 0,0 2.8938802,0 L 3.9829409,3.7759604 z M 3.9829409,3.7759604 2.5354496,1.2954917 1.0890607,3.7759604 z m 0,0 2.8938805,0 -1.4474916,-2.4804687 z m 1.4463889,-2.4804687 -0.663663,-1.13660599 -1.5059203,0 c -0.02205,0 -0.039688,0 -0.060634,0 L 2.5354496,1.2954917 z m 0,0 2.8938805,0 -0.6636633,-1.13660599 -1.5665538,0 z m 2.8938805,0 2.8938797,0 -0.663663,-1.13660599 c -0.0882,0 -0.171979,0 -0.265686,0 l -1.3008676,0 z m 0,0 -1.4463889,2.4804687 2.8938802,0 z m 1.4474913,2.4804687 2.8938804,0 -1.447492,-2.4804687 z m 0,0 -1.4474913,2.4804689 2.8938797,0 z m 1.4463884,2.4804689 2.170686,0 0,-1.2402343 -0.723194,-1.2402346 z m 1.447492,-2.4804689 0.723194,0 0,-0.5170399 c 0,-0.2579689 -0.0022,-0.4938889 -0.0066,-0.71217 z M 8.3232103,6.2564293 6.8768214,3.7759604 5.4293298,6.2564293 z m 2.8938797,-4.9609376 2.062648,0 C 13.123193,0.51717551 12.747264,0.27133371 11.859807,0.19416341 z m -8.6816404,0 L 1.8850157,0.17983191 C 0.85203809,0.23826091 0.43421679,0.46095151 0.26664739,1.2954917 z M 1.0890607,3.7759604 0.17514589,2.2083042 c -0.012127,0.3031685 -0.016537,0.6515363 -0.016537,1.0506163 l 0,0.5170399 z m 4.3402691,7.4414066 -1.2655903,2.170686 2.532283,0 z m 2.8938805,0 -1.2655906,2.170686 2.5322833,0 z m -7.59133711,1.86862 -0.4519964,-0.775009 c 0.082682,0.371519 0.2215885,0.615157 0.4519964,0.775009 z"/><path id="path28" fill="#f9f9f9" d="m 3.668889,3.9488266 c 0,-0.7394416 0.5654265,-0.7595836 0.5654265,0 l -9.82e-4,5.364507 c 0,0.1751965 0.063344,0.2822222 0.2822222,0.2822222 L 6.7787345,9.5953481 C 7.541362,9.5955558 7.506688,10.16 6.7787345,10.16 l -2.8276232,0 C 3.7634344,10.16 3.668889,10.021774 3.668889,9.877778 z"/><path id="path30" fill="#f9f9f9" d="m 9.8777777,9.5978405 c 0,0.7394415 -0.5654275,0.7595835 -0.5654275,0 l 9.82e-4,-5.3645074 c 0,-0.1751965 -0.06334,-0.2822222 -0.2822217,-0.2822222 l -2.2631784,2.077e-4 c -0.762627,-2.077e-4 -0.727953,-0.5646517 0,-0.5646517 l 2.8276231,0 c 0.1876775,0 0.2822225,0.138226 0.2822225,0.2822218 z"/></svg>