<svg xmlns="http://www.w3.org/2000/svg" xmlns:svg="http://www.w3.org/2000/svg" xmlns:xlink="http://www.w3.org/1999/xlink" id="svg2" width="48" height="48" version="1.1" viewBox="0 0 13.547 13.547"><metadata id="metadata45"/><defs id="defs4"><linearGradient id="0"><stop id="stop7" stop-color="#dcdcdc"/><stop id="stop9" offset="1" stop-color="#f5f5f5"/></linearGradient><linearGradient id="1" x2="0" y1="1050.36" y2="1006.36" gradientTransform="matrix(0.28222223,0,0,0.28222223,0,-283.45334)" gradientUnits="userSpaceOnUse" xlink:href="#0"/><radialGradient id="radialGradient3042" cx="148.004" cy="160" r="128" gradientTransform="matrix(0.1831,0,0,0.1831,-3.100776,-5.2964)" gradientUnits="userSpaceOnUse" xlink:href="#radial0"/><radialGradient id="radial0" cx="148.004" cy="160" r="128" gradientTransform="matrix(0.1831,0,0,0.1831,-3.10029,-5.29688)" gradientUnits="userSpaceOnUse"><stop id="stop7-4" offset="0" stop-color="#f8cc9b" stop-opacity="1"/><stop id="stop9-2" offset="1" stop-color="#efb615" stop-opacity="1"/></radialGradient><radialGradient id="radialGradient3010" cx="148.004" cy="160" r="128" gradientTransform="matrix(0.05167489,0,0,0.05167489,-0.8749688,-1.4949)" gradientUnits="userSpaceOnUse" xlink:href="#radial0"/></defs><path id="path11" fill="url(#radialGradient3010)" d="m 13.387919,3.2587823 0,7.0290977 c 0,2.892778 0,3.100035 -3.100035,3.100035 l -7.0279938,0 c -3.10113797,0 -3.10113797,-0.207257 -3.10113797,-3.100035 l 0,-7.0290977 c 0,-2.89277779 0,-3.1000348 3.10113797,-3.1000348 l 7.0279938,0 c 3.100035,0 3.100035,0.20725701 3.100035,3.1000348 z"/><path id="path15" fill="#fff" fill-opacity=".051" d="m 10.799412,13.387915 c 0.717682,-0.0033 1.235825,-0.02315 1.611753,-0.124575 l -1.193932,-2.046111 -1.2655898,2.170686 0.3362408,0 c 0.180799,0 0.350573,0 0.511528,0 z M 11.217233,11.217229 9.7708451,8.7367598 8.3233533,11.217229 z m 0,0 2.159662,0 c 0.0088,-0.274505 0.01102,-0.582083 0.01102,-0.930451 l 0,-0.3097842 -0.723194,-1.240234 z M 12.664725,8.7367598 11.217233,6.2562911 9.7708451,8.7367598 z m 0,0 0.723194,0 0,-1.2402343 z m -2.8938799,0 L 8.3233533,6.2562911 6.8769632,8.7367598 z m -2.8938819,0 -1.447491,2.4804682 2.8938811,0 z m 0,0 -1.447491,-2.4804687 -1.4463881,2.4804687 z m -2.8938791,0 -1.447491,2.4804682 2.8938791,0 z m 0,0 -1.447491,-2.4804687 -1.4463889,2.4804687 z m -2.8938799,0 -0.93045197,1.5941152 c 0,0.329627 0.003299,0.623976 0.0110208,0.886354 l 2.36581589,0 z m 0,0 -0.93045197,-1.5941145 0,1.5941145 z M 2.5355931,11.217229 1.3185092,13.30413 c 0.450894,0.08268 1.0748699,0.08379 1.941381,0.08379 l 0.542395,0 z m 0,-4.9609379 -1.4463889,-2.4804689 -0.93045197,1.5941147 0,0.8863542 z m 0,0 2.8938791,0 L 3.9830841,3.7758222 z M 3.9830841,3.7758222 2.5355931,1.2953535 1.0892042,3.7758222 z m 0,0 2.8938791,0 -1.447491,-2.4804687 z m 1.4463881,-2.4804687 -0.6636619,-1.136606 -1.5059201,0 c -0.02205,0 -0.03969,0 -0.06063,0 l -0.6636631,1.136606 z m 0,0 2.8938811,0 -0.6636631,-1.136606 -1.5665541,0 z m 2.8938811,0 2.8938797,0 -0.663663,-1.136606 c -0.0882,0 -0.171979,0 -0.265686,0 l -1.3008688,0 z m 0,0 -1.4463901,2.4804687 2.8938819,0 z m 1.4474918,2.4804687 2.8938799,0 -1.447492,-2.4804687 z m 0,0 -1.4474918,2.4804689 2.8938797,0 z m 1.4463879,2.4804689 2.170686,0 0,-1.2402343 -0.723194,-1.2402346 z m 1.447492,-2.4804689 0.723194,0 0,-0.5170399 c 0,-0.2579689 -0.0022,-0.4938889 -0.0066,-0.71217 z M 8.3233533,6.2562911 6.8769632,3.7758222 5.4294722,6.2562911 z m 2.8938797,-4.9609376 2.062648,0 C 13.123336,0.5170374 12.747407,0.27119559 11.85995,0.19402528 z m -8.6816399,0 L 1.8851592,0.17969378 C 0.852181,0.23812278 0.43436002,0.46081339 0.26679001,1.2953535 z M 1.0892042,3.7758222 0.17528904,2.208166 C 0.16315913,2.5113345 0.158748,2.8597024 0.158748,3.2587823 l 0,0.5170399 z m 4.340268,7.4414068 -1.26559,2.170686 2.532283,0 z m 2.8938811,0 -1.2655901,2.170686 2.532283,0 z M 0.73201614,13.085849 0.28002002,12.31084 c 0.0826801,0.371518 0.2215882,0.615157 0.45199612,0.775009 z"/><g id="g30" fill="#f9f9f9" fill-opacity="1" transform="matrix(0.24382,0,0,0.23684,-552.49161,-217.17844)"><path id="path32" fill="#f9f9f9" fill-opacity="1" d="m 16.65625,10.28125 c -4.8404,0 -8.8125,3.94088 -8.8125,8.78125 0,3.105904 1.7366017,5.719578 4.1875,7.28125 0.07645,-0.08205 0.108009,-0.202147 0.1875,-0.28125 0.415909,-0.413877 0.977716,-0.643538 1.46875,-0.96875 -2.254653,-1.102167 -3.84375,-3.349941 -3.84375,-6.03125 0,-3.75949 3.053,-6.78125 6.8125,-6.78125 3.7594,0 6.78125,3.02176 6.78125,6.78125 0,2.002337 -0.880711,3.761295 -2.25,5 0.209202,0.07053 0.454378,0.03944 0.65625,0.125 0.455055,0.192872 0.806521,0.548841 1.21875,0.8125 1.452368,-1.567329 2.375,-3.638324 2.375,-5.9375 0,-4.84037 -3.94095,-8.78125 -8.78125,-8.78125 z" color="#000" transform="translate(2273.1428,919.79076)"/></g><path id="path34" fill="#f9f9f9" fill-opacity="1" stroke="#f9f9f9" stroke-opacity="1" stroke-width=".564" d="m 8.8272993,4.6142772 c -1.0484287,0 -1.8972597,0.8245327 -1.8972597,1.8429495 0,0.055064 0.025612,0.1015925 0.030478,0.1554295 0.00952,0.00374 0.021032,0.00352 0.030478,0.0074 0.2271152,0.093312 0.430175,0.2254245 0.6019418,0.3922744 0.1717669,0.1668499 0.3077727,0.3640969 0.4038344,0.5847109 0.075329,0.1730005 0.1043038,0.3672922 0.1219123,0.5625067 0.2194523,0.086088 0.4574102,0.1406266 0.7086151,0.1406266 1.0484287,0 1.8972598,-0.8245327 1.8972598,-1.8429495 0,-1.0184168 -0.8488311,-1.8429495 -1.8972598,-1.8429495 z"/><path id="path41" fill="none" stroke="#f9f9f9" stroke-opacity="1" stroke-width=".564" d="m 8.1480701,8.3160401 c 0,1.0184168 -0.8499194,1.8440069 -1.8983481,1.8440069 -1.048429,0 -1.8983483,-0.8255901 -1.8983483,-1.8440069 0,-1.0184168 0.8499193,-1.8440068 1.8983483,-1.8440068 1.0484287,0 1.8983481,0.82559 1.8983481,1.8440068 z"/></svg>