<svg xmlns="http://www.w3.org/2000/svg" xmlns:svg="http://www.w3.org/2000/svg" xmlns:xlink="http://www.w3.org/1999/xlink" id="svg2" width="48" height="48" version="1.1" viewBox="0 0 13.547 13.547"><metadata id="metadata40"/><defs id="defs4"><linearGradient id="0"><stop id="stop7" stop-color="#579292"/><stop id="stop9" offset="1" stop-color="#086162"/></linearGradient><linearGradient id="1" x2="0" y1="1050.36" y2="1006.36" gradientTransform="matrix(0.28222223,0,0,0.28222223,-13.546667,-296.99999)" gradientUnits="userSpaceOnUse" xlink:href="#linearGradient3784-0-9-8"/><linearGradient id="linearGradient3832" x2="0" y1="279.096" y2="268.33" gradientTransform="matrix(1.10525,0,0,1.10525,-165.04641,-309.70997)" gradientUnits="userSpaceOnUse" xlink:href="#linearGradient3784-0-9-8"/><linearGradient id="linearGradient3784-0-9-8"><stop id="stop7-1" offset="0" stop-color="#579292" stop-opacity="1"/><stop id="stop9-2" offset="1" stop-color="#086162"/></linearGradient><radialGradient id="radial0" cx="148.004" cy="160" r="128" gradientTransform="matrix(0.1831,0,0,0.1831,-3.10029,-5.29688)" gradientUnits="userSpaceOnUse"><stop id="stop7-3" offset="0" stop-color="#b7d4d4"/><stop id="stop9-8" offset="1" stop-color="#086162"/></radialGradient><radialGradient id="radialGradient3024" cx="148.004" cy="160" r="128" gradientTransform="matrix(0.05167489,0,0,0.05167489,-0.87511231,-1.4947562)" gradientUnits="userSpaceOnUse" xlink:href="#radial0"/></defs><path id="path11" fill="url(#radialGradient3024)" d="m 13.387776,3.2589259 0,7.0290971 c 0,2.892778 0,3.100035 -3.100035,3.100035 l -7.0279951,0 c -3.10113701,0 -3.10113701,-0.207257 -3.10113701,-3.100035 l 0,-7.0290971 c 0,-2.89277783 0,-3.10003483 3.10113701,-3.10003483 l 7.0279951,0 c 3.100035,0 3.100035,0.207257 3.100035,3.10003483 z"/><path id="path15" fill="#fff" fill-opacity=".051" d="m 10.799269,13.388058 c 0.717682,-0.0033 1.235825,-0.02315 1.611753,-0.124574 l -1.193932,-2.046112 -1.2655901,2.170686 0.3362411,0 c 0.180799,0 0.350573,0 0.511528,0 z M 11.21709,11.217372 9.7707012,8.7369034 8.32321,11.217372 z m 0,0 2.159662,0 c 0.0088,-0.274505 0.01102,-0.582083 0.01102,-0.930451 l 0,-0.3097833 -0.723194,-1.2402343 z M 12.664581,8.7369034 11.21709,6.2564347 9.7707012,8.7369034 z m 0,0 0.723195,0 0,-1.2402343 z m -2.8938798,0 L 8.32321,6.2564347 6.876821,8.7369034 z m -2.8938802,0 -1.4474915,2.4804686 2.8938805,0 z m 0,0 -1.4474915,-2.4804687 -1.446389,2.4804687 z m -2.8938805,0 -1.4474913,2.4804686 2.8938803,0 z m 0,0 L 2.5354492,6.2564347 1.0890603,8.7369034 z m -2.8938802,0 -0.9304514,1.5941146 c 0,0.329627 0.003307,0.623976 0.0110242,0.886354 l 2.36581614,0 z m 0,0 -0.9304514,-1.5941145 0,1.5941145 z m 1.4463889,2.4804686 -1.2170833,2.086901 c 0.450894,0.08268 1.0748699,0.08378 1.9402778,0.08378 l 0.5434982,0 z m 0,-4.9609373 -1.4463889,-2.4804689 -0.9304514,1.5941147 0,0.8863542 z m 0,0 2.8938803,0 -1.446389,-2.4804689 z M 3.9829405,3.7759658 2.5354492,1.2954971 1.0890603,3.7759658 z m 0,0 2.8938805,0 -1.4474915,-2.4804687 z m 1.446389,-2.4804687 -0.6636631,-1.13660602 -1.5070227,0 c -0.020946,0 -0.038585,0 -0.059531,0 L 2.5354492,1.2954971 z m 0,0 2.8938805,0 -0.6636634,-1.13660602 -1.5665538,0 z m 2.8938805,0 2.89388,0 -0.663663,-1.13660602 c -0.08819,0 -0.171979,0 -0.266788,0 l -1.299766,0 z m 0,0 -1.446389,2.4804687 2.8938802,0 z m 1.4474912,2.4804687 2.8938798,0 -1.447491,-2.4804687 z m 0,0 -1.4474912,2.4804689 2.89388,0 z m 1.4463888,2.4804689 2.170686,0 0,-1.2402343 -0.723195,-1.2402346 z m 1.447491,-2.4804689 0.723195,0 0,-0.5170399 c 0,-0.2579689 -0.0022,-0.4938889 -0.0066,-0.71217 z M 8.32321,6.2564347 6.876821,3.7759658 5.4293295,6.2564347 z m 2.89388,-4.9609376 2.062648,0 C 13.123193,0.51718095 12.747264,0.27133914 11.859807,0.19416885 z m -8.6816408,0 L 1.8850153,0.17983733 C 0.85203767,0.23826608 0.4342164,0.46095692 0.26664695,1.2954971 z M 1.0890603,3.7759658 0.17514543,2.2083096 C 0.16301862,2.5114781 0.1586089,2.8598459 0.1586089,3.2589259 l 0,0.5170399 z m 4.3402692,7.4414062 -1.2655904,2.170686 2.532283,0 z m 2.8938805,0 -1.2655906,2.170686 2.5322832,0 z m -7.5913372,1.86862 -0.4519964,-0.775009 c 0.0826821,0.37152 0.22158848,0.615157 0.4519964,0.775009 z"/><path id="path30313" fill="#f9f9f9" fill-opacity="1" d="m 6.7645148,4.039299 c -1.186821,0 -2.143125,0.912436 -2.143125,2.037292 0,1.124913 0.956304,2.046111 2.143125,2.046111 1.186822,0 2.151945,-0.921198 2.151945,-2.046111 0,-1.124856 -0.965123,-2.037292 -2.151945,-2.037292 z m 0.0088,0.758472 c 0.101541,0 0.282223,0.0903 0.282223,0.185208 l 0,0.908403 c 0.0038,0.09156 -0.166919,0.177329 -0.264584,0.185209 -0.0059,1.69e-4 -0.01177,1.69e-4 -0.01764,0 -0.103664,5.08e-4 -0.285852,-0.08838 -0.282222,-0.185209 l 0,-0.908403 c 0,-0.09491 0.180682,-0.185208 0.282222,-0.185208 z m -0.705556,0.211667 c 0.110487,0 0.157198,0.100679 0.141111,0.202847 l 0,0.643819 c 0.004,0.0899 0,0.208824 -0.141111,0.185209 -0.109348,0.0099 -0.136651,-0.0826 -0.132291,-0.185209 l 0,-0.643819 c -0.0161,-0.102168 0.0218,-0.202847 0.132291,-0.202847 z m 1.411111,0.211666 c 0.101484,0 0.141039,0.09035 0.141112,0.185209 l 0,0.449791 c 0,0.07159 0.02931,0.174732 -0.141112,0.185209 -0.111801,0.0017 -0.141111,-0.113616 -0.141111,-0.185209 l 0,-0.449791 c 8.9e-5,-0.09486 0.03963,-0.185209 0.141111,-0.185209 z m -1.561041,1.014237 c 0.07119,-0.0036 0.138717,0.01062 0.194027,0.05292 l 0.661459,0.62618 0.62618,-0.599722 c 0.08053,-0.07944 0.218509,-0.104414 0.32632,-0.06174 0.10781,0.04268 0.181389,0.155251 0.176389,0.264584 -0.0021,0.06973 -0.03454,0.13671 -0.08819,0.185208 l -0.846666,0.837847 c -0.04853,0.04457 -0.108534,0.0748 -0.176389,0.07938 -0.08344,0.007 -0.169666,-0.02439 -0.229306,-0.07938 L 5.7061668,6.676313 c -0.09208,-0.102166 -0.0827,-0.266458 0.01764,-0.361597 0.05017,-0.04757 0.12284,-0.07582 0.194028,-0.07938 z"/><rect id="rect30315" width="5.644" height="6.773" x="3.951" y="3.387" fill="none" stroke="#f9f9f9" stroke-dasharray="none" stroke-miterlimit="4" stroke-opacity="1" stroke-width=".564" rx=".373"/><path id="path30317" fill="#f9f9f9" fill-opacity="1" stroke="none" d="m 7.4968818,8.3738 0.965219,1.143568 0.48261,0 0,-0.457421 z"/></svg>