<svg xmlns="http://www.w3.org/2000/svg" xmlns:svg="http://www.w3.org/2000/svg" xmlns:xlink="http://www.w3.org/1999/xlink" id="svg2" width="48" height="48" version="1.1" viewBox="0 0 13.547 13.547"><metadata id="metadata37"/><defs id="defs4"><linearGradient id="0"><stop id="stop7" stop-color="#d95119"/><stop id="stop9" offset="1" stop-color="#f68a5e"/></linearGradient><linearGradient id="1" x2="0" y1="279.1" y2="268.33" gradientTransform="matrix(1.10525,0,0,1.10525,-133.58993,-295.76183)" gradientUnits="userSpaceOnUse" xlink:href="#0"/><linearGradient id="2" x2="0" y1="1050.36" y2="1006.36" gradientTransform="matrix(0.28222223,0,0,0.28222223,0,-283.45334)" gradientUnits="userSpaceOnUse" xlink:href="#0"/><radialGradient id="radialGradient3017" cx="148.004" cy="160" r="128" gradientTransform="matrix(0.1831,0,0,0.1831,-3.10079,-5.29638)" gradientUnits="userSpaceOnUse" xlink:href="#radial0"/><radialGradient id="radial0" cx="148.004" cy="160" r="128" gradientTransform="matrix(0.1831,0,0,0.1831,-3.10029,-5.29688)" gradientUnits="userSpaceOnUse" xlink:href="#1-4"><stop id="stop7-9" offset="0" stop-color="#febb94" stop-opacity="1"/><stop id="stop9-8" offset="1" stop-color="#ca4a01" stop-opacity="1"/></radialGradient><linearGradient id="1-4"><stop id="stop8-2" stop-color="#ca4a01"/><stop id="stop10-1" offset="1" stop-color="#f79810"/></linearGradient><radialGradient id="radialGradient3018" cx="148.004" cy="160" r="128" gradientTransform="matrix(0.05167489,0,0,0.05167489,-0.8749708,-1.4948998)" gradientUnits="userSpaceOnUse" xlink:href="#radial0"/></defs><path id="path11" fill="url(#radialGradient3018)" fill-opacity="1" d="m 13.387917,3.2587823 0,7.0290977 c 0,2.892778 0,3.100035 -3.100035,3.100035 l -7.0279946,0 C 0.15875,13.387915 0.15875,13.180658 0.15875,10.28788 l 0,-7.0290977 c 0,-2.89277785 0,-3.1000348 3.1011374,-3.1000348 l 7.0279946,0 c 3.100035,0 3.100035,0.20725695 3.100035,3.1000348 z"/><path id="path15-9" fill="#fff" fill-opacity=".051" d="m 10.79941,13.387915 c 0.717682,-0.0033 1.235825,-0.02315 1.611753,-0.124575 l -1.193932,-2.046111 -1.2655901,2.170686 0.3362411,0 c 0.180799,0 0.350573,0 0.511528,0 z M 11.217231,11.217229 9.7708423,8.7367598 8.3233513,11.217229 z m 0,0 2.159662,0 c 0.0088,-0.274505 0.01102,-0.582083 0.01102,-0.930451 l 0,-0.3097839 -0.723194,-1.2402343 z M 12.664723,8.7367598 11.217231,6.2562911 9.7708423,8.7367598 z m 0,0 0.723194,0 0,-1.2402343 z m -2.8938807,0 -1.447491,-2.4804687 -1.4463889,2.4804687 z m -2.8938799,0 -1.4474919,2.4804682 2.8938808,0 z m 0,0 L 5.4294705,6.2562911 3.9830819,8.7367598 z m -2.8938805,0 -1.4474916,2.4804682 2.8938802,0 z m 0,0 L 2.5355903,6.2562911 1.0892014,8.7367598 z m -2.8938805,0 L 0.15875,10.330875 c 0,0.329627 0.003308,0.623976 0.0110236,0.886354 l 2.3658162,0 z m 0,0 -0.9304514,-1.5941145 0,1.5941145 z M 2.5355903,11.217229 1.318507,13.30413 c 0.450894,0.08268 1.0748699,0.08379 1.9413804,0.08379 l 0.5423959,0 z m 0,-4.9609379 L 1.0892014,3.7758222 0.15875,5.3699369 l 0,0.8863542 z m 0,0 2.8938802,0 L 3.9830819,3.7758222 z M 3.9830819,3.7758222 2.5355903,1.2953535 1.0892014,3.7758222 z m 0,0 2.8938805,0 -1.4474919,-2.4804687 z m 1.4463886,-2.4804687 -0.6636627,-1.136606 -1.5070227,0 c -0.020947,0 -0.038585,0 -0.059531,0 l -0.6636637,1.136606 z m 0,0 2.8938808,0 -0.6636633,-1.136606 -1.5665541,0 z m 2.8938808,0 2.8938797,0 -0.663663,-1.136606 c -0.0882,0 -0.171979,0 -0.266788,0 l -1.2997659,0 z m 0,0 -1.4463889,2.4804687 2.8938799,0 z m 1.447491,2.4804687 2.8938807,0 -1.447492,-2.4804687 z m 0,0 -1.447491,2.4804689 2.8938797,0 z m 1.4463887,2.4804689 2.170686,0 0,-1.2402343 -0.723194,-1.2402346 z m 1.447492,-2.4804689 0.723194,0 0,-0.5170399 c 0,-0.2579689 -0.0022,-0.4938889 -0.0066,-0.71217 z M 8.3233513,6.2562911 6.8769624,3.7758222 5.4294708,6.2562911 z m 2.8938797,-4.9609376 2.062648,0 C 13.123334,0.51703737 12.747405,0.27119556 11.859948,0.19402528 z m -8.6816407,0 L 1.8851564,0.17969375 C 0.85217877,0.2381225 0.4343575,0.46081334 0.26678806,1.2953535 z M 1.0892014,3.7758222 0.17528653,2.208166 c -0.0121271,0.3031685 -0.0165354,0.6515363 -0.0165354,1.0506163 l 0,0.5170399 z m 4.3402694,7.4414068 -1.2655903,2.170686 2.532283,0 z m 2.8938805,0 -1.2655906,2.170686 2.532283,0 z M 0.7320139,13.085849 0.28001751,12.31084 c 0.0826821,0.371518 0.22158847,0.615157 0.45199639,0.775009 z"/><path id="path31" fill="#f9f9f9" d="M 6.7889547,2.54 C 5.6002129,2.54 4.5172733,3.0491417 3.7584503,3.8209349 3.0038112,4.5884726 2.5400001,5.6414657 2.5400001,6.7889546 c 0,1.147489 0.4619293,2.1985681 1.2184502,2.9680198 0.7588228,0.7717936 1.8417624,1.2496926 3.0305044,1.2496926 1.1887419,0 2.2428701,-0.480372 2.9992621,-1.2496926 0.7565232,-0.769452 1.2184502,-1.8205312 1.2184502,-2.9680198 0,-1.1474885 -0.46381,-2.2004817 -1.2184502,-2.9680197 C 9.0318247,3.0516142 7.9776963,2.54 6.7889547,2.54 z m 0,1.5621157 c 0.6840387,0 1.3045948,0.2967009 1.7808118,0.7810578 0.4736738,0.4817702 0.7810579,1.1516858 0.7810579,1.9057811 0,0.7540954 -0.3095389,1.4262026 -0.7810579,1.9057811 C 8.0957037,9.1769013 7.4772499,9.4445512 6.7889547,9.4445512 6.1006595,9.4445512 5.4794221,9.1740701 5.0081428,8.6947357 4.5394074,8.2179884 4.227085,7.5480596 4.227085,6.7889546 4.227085,6.0298497 4.5372526,5.3621125 5.0081428,4.8831735 5.4815763,4.4016478 6.1049161,4.1021157 6.7889547,4.1021157 z" color="#000"/><path id="path33" fill="#f9f9f9" d="m -19.347596,22.772251 a 5.1214228,5.5956283 0 1 1 -10.242846,0 5.1214228,5.5956283 0 1 1 10.242846,0 z" transform="matrix(0.30308419,0,0,0.2773991,15.459506,1.7263316)"/></svg>