<svg xmlns="http://www.w3.org/2000/svg" xmlns:svg="http://www.w3.org/2000/svg" xmlns:xlink="http://www.w3.org/1999/xlink" id="svg2" width="48" height="48" version="1.1" viewBox="0 0 13.547 13.547"><metadata id="metadata36"/><defs id="defs4"><linearGradient id="0"><stop id="stop7" stop-color="#cecece"/><stop id="stop9" offset="1" stop-color="#e7e7e7"/></linearGradient><linearGradient id="1" x2="0" y1="1050.36" y2="1006.36" gradientTransform="matrix(0.28222223,0,0,0.28222223,0,-283.45334)" gradientUnits="userSpaceOnUse" xlink:href="#0"/><radialGradient id="radialGradient3023" cx="148.004" cy="160" r="128" gradientTransform="matrix(0.05167489,0,0,0.05167489,-0.87511191,-1.4947612)" gradientUnits="userSpaceOnUse" spreadMethod="pad" xlink:href="#linearGradient4460"/><linearGradient id="linearGradient4460"><stop id="stop8-7" offset="0" stop-color="#acacac" stop-opacity="1"/><stop id="stop10-4" offset="1" stop-color="#777" stop-opacity="1"/></linearGradient><radialGradient id="radialGradient3075" cx="148.004" cy="160" r="128" gradientTransform="matrix(0.05167489,0,0,0.05167489,-0.87511191,-1.4947608)" gradientUnits="userSpaceOnUse" spreadMethod="pad" xlink:href="#linearGradient4460"/></defs><path id="path11" fill="url(#radialGradient3075)" fill-opacity="1" d="m 13.387776,3.2589213 0,7.0290977 c 0,2.892777 0,3.100034 -3.100036,3.100034 l -7.0279946,0 c -3.10113651,0 -3.10113651,-0.207257 -3.10113651,-3.100034 l 0,-7.0290977 c 0,-2.89277779 0,-3.10003479 3.10113651,-3.10003479 l 7.0279946,0 c 3.100036,0 3.100036,0.207257 3.100036,3.10003479 z"/><path id="path15" fill="#fff" fill-opacity=".051" d="m 10.799269,13.388053 c 0.717682,-0.0033 1.235824,-0.02315 1.611753,-0.124575 l -1.193932,-2.04611 -1.2655896,2.170685 0.3362396,0 c 0.180799,0 0.350573,0 0.511529,0 z M 11.21709,11.217368 9.7707014,8.7368988 8.3232094,11.217368 z m 0,0 2.159662,0 c 0.0088,-0.274505 0.01102,-0.582083 0.01102,-0.930451 l 0,-0.3097839 L 12.66458,8.7368988 z M 12.664581,8.7368988 11.21709,6.2564301 9.7707014,8.7368988 z m 0,0 0.723194,0 0,-1.2402343 z m -2.8938806,0 -1.447491,-2.4804687 -1.446388,2.4804687 z m -2.893879,0 -1.447491,2.4804692 2.893879,0 z m 0,0 -1.447491,-2.4804687 -1.44639,2.4804687 z m -2.893881,0 -1.4474909,2.4804692 2.8938809,0 z m 0,0 L 2.5354495,6.2564301 1.0890603,8.7368988 z m -2.8938801,0 -0.93045141,1.5941152 c 0,0.329627 0.00331,0.623976 0.011024,0.886354 l 2.36581591,0 z m 0,0 -0.93045141,-1.5941145 0,1.5941145 z m 1.4463892,2.4804692 -1.2170833,2.0869 c 0.4508937,0.08268 1.0748696,0.08379 1.9413792,0.08379 l 0.542397,0 z m 0,-4.9609379 -1.4463892,-2.4804689 -0.93045141,1.5941147 0,0.8863542 z m 0,0 2.8938809,0 -1.44639,-2.4804689 z M 3.9829404,3.7759612 2.5354495,1.2954925 1.0890603,3.7759612 z m 0,0 2.893881,0 -1.447491,-2.4804687 z m 1.44639,-2.4804687 -0.663663,-1.13660599 -1.505922,0 c -0.02205,0 -0.039691,0 -0.060631,0 L 2.5354533,1.2954925 z m 0,0 2.89388,0 -0.663663,-1.13660599 -1.566555,0 z m 2.89388,0 2.8938796,0 -0.663663,-1.13660599 c -0.0882,0 -0.171979,0 -0.265687,0 l -1.3008666,0 z m 0,0 -1.446389,2.4804687 2.89388,0 z m 1.447491,2.4804687 2.8938806,0 -1.447492,-2.4804687 z m 0,0 -1.447491,2.4804689 2.8938796,0 z m 1.4463886,2.4804689 2.170686,0 0,-1.2402343 -0.723194,-1.2402346 z m 1.447492,-2.4804689 0.723194,0 0,-0.5170399 c 0,-0.2579689 -0.0022,-0.4938888 -0.0066,-0.7121699 z M 8.3232094,6.2564301 6.8768214,3.7759612 5.4293304,6.2564301 z m 2.8938796,-4.9609376 2.062648,0 C 13.123192,0.51717631 12.747263,0.27133451 11.859806,0.19416431 z m -8.6816395,0 L 1.8850153,0.17983281 C 0.85203769,0.23826181 0.43421639,0.46095231 0.26664699,1.2954925 z M 1.0890603,3.7759612 0.17514539,2.2083051 c -0.012127,0.3031685 -0.016535,0.6515363 -0.016535,1.0506162 l 0,0.5170399 z m 4.3402701,7.4414068 -1.265591,2.170685 2.532282,0 z m 2.89388,0 -1.26559,2.170685 2.532283,0 z m -7.59133761,1.868619 -0.4519964,-0.775009 c 0.082682,0.371519 0.2215888,0.615157 0.4519964,0.775009 z"/><path id="path28" fill="#f9f9f9" fill-opacity="1" fill-rule="evenodd" d="M 4.2631791,8.2920635 3.1044445,5.4931161 4.0374515,5.0371079 4.0600243,5.005659 4.8124491,6.9083142 5.7153592,6.4287194 6.1216685,7.3328737 z"/><path id="path30" fill="#f9f9f9" fill-opacity="1" fill-rule="evenodd" d="M 5.0682736,5.4695295 6.2345322,5.6346359 6.5806478,6.3894083 7.0170541,5.7368447 8.1908379,5.894089 7.1148693,7.4979802 6.8515202,9.0311113 5.7605045,8.8502805 5.9486108,7.4743934 z"/><path id="path32" fill="#f9f9f9" fill-opacity="1" fill-rule="evenodd" d="M 7.6400961,4.5155545 8.6593938,4.7195682 8.8783725,5.4087135 9.3259522,4.8762537 10.442225,5.1217893 9.4396251,6.2865025 10.00563,8.0215827 8.8039953,7.8999342 8.5902479,6.9592578 8.0473307,7.7333391 7.1129049,7.4290193 8.0523797,6.0426793 z"/></svg>