<svg xmlns="http://www.w3.org/2000/svg" xmlns:svg="http://www.w3.org/2000/svg" xmlns:xlink="http://www.w3.org/1999/xlink" id="svg2" width="48" height="48" version="1.1" viewBox="0 0 13.547 13.547"><metadata id="metadata174"/><defs id="defs4"><clipPath id="clipPath6"><rect id="rect8" width="22" height="22" x="433" y="77" color="#bebebe" rx="4"/></clipPath><clipPath id="clipPath10"><rect id="rect12" width="22" height="22" x="433" y="77" color="#bebebe" rx="5"/></clipPath><clipPath id="clipPath14"><rect id="rect16" width="60" height="60" x="306" y="142" fill="url(#3)" color="#bebebe" rx="12.5" transform="matrix(0 -1 1 0 0 0)"/></clipPath><clipPath id="clipPath18"><rect id="rect20" width="90" height="90" x="307" y="31" fill="url(#0)" color="#bebebe" rx="18.75"/></clipPath><clipPath id="clipPath22"><rect id="rect24" width="30" height="30" x="433" y="29" color="#bebebe" rx="6"/></clipPath><clipPath id="clipPath26"><rect id="rect28" width="42" height="42" x="307" y="223" fill="url(#4)" color="#bebebe" rx="9" transform="rotate(90)"/></clipPath><clipPath id="clipPath30"><rect id="rect32" width="240" height="240" x="24" y="36" fill="#986767" color="#bebebe" rx="50"/></clipPath><clipPath id="clipPath34"><rect id="rect36" width="20" height="20" x="434" y="78" color="#bebebe" rx="4"/></clipPath><clipPath id="clipPath38"><rect id="rect40" width="16" height="16" x="432" y="116" color="#bebebe" rx="3"/></clipPath><clipPath id="clipPath42"><rect id="rect44" width="22" height="22" x="433" y="77" fill="#6d6d6d" color="#bebebe" opacity=".2" rx="3"/></clipPath><clipPath id="clipPath46"><rect id="rect48" width="30" height="30" x="433" y="29" fill="#6d6d6d" color="#bebebe" opacity=".2" rx="4"/></clipPath><clipPath id="clipPath50"><rect id="rect52" width="16" height="16" x="432" y="116" fill="#6d6d6d" color="#bebebe" opacity=".2" rx="2"/></clipPath><linearGradient id="0" x2="0" y1="230" y2="90" gradientTransform="matrix(.375 0 0 .375 298 16)" gradientUnits="userSpaceOnUse" xlink:href="#2"/><linearGradient id="1"><stop id="stop56" stop-color="#e4c9ce"/><stop id="stop58" offset="1" stop-color="#f2dbde"/></linearGradient><linearGradient id="2"><stop id="stop61" stop-color="#e3c8cd"/><stop id="stop63" offset="1" stop-color="#f2dbde"/></linearGradient><linearGradient id="3" x2="0" y1="230" y2="90" gradientTransform="matrix(.25 0 0 .25 299.99999 131.99999)" gradientUnits="userSpaceOnUse" xlink:href="#2"/><linearGradient id="4" x2="0" y1="280" y2="40" gradientTransform="matrix(.175 0 0 .175 302.79999 215.99997)" gradientUnits="userSpaceOnUse" xlink:href="#2"/><linearGradient id="5" x2="0" y1="1050.36" y2="1006.36" gradientTransform="matrix(0.28222223,0,0,0.28222223,13.345763,-284.19955)" gradientUnits="userSpaceOnUse" xlink:href="#1"/><radialGradient id="radial0" cx="148.004" cy="160" r="128" gradientTransform="matrix(0.1831,0,0,0.1831,-3.10029,-5.29688)" gradientUnits="userSpaceOnUse"><stop id="stop7" offset="0" stop-color="#f3c7bf" stop-opacity="1"/><stop id="stop9" offset="1" stop-color="#ff9f7d" stop-opacity="1"/></radialGradient><radialGradient id="radialGradient3031" cx="148.004" cy="160" r="128" gradientTransform="matrix(0.05167489,0,0,0.05167489,-0.87510811,-1.4947612)" gradientUnits="userSpaceOnUse" xlink:href="#radial0"/></defs><path id="path11" fill="url(#radialGradient3031)" d="m 13.387779,3.2589209 0,7.0290971 c 0,2.892778 0,3.100035 -3.100035,3.100035 l -7.0279941,0 c -3.10113701,0 -3.10113701,-0.207257 -3.10113701,-3.100035 l 0,-7.0290971 c 0,-2.89277789 0,-3.10003479 3.10113701,-3.10003479 l 7.0279941,0 c 3.100035,0 3.100035,0.2072569 3.100035,3.10003479 z"/><path id="path15" fill="#fff" fill-opacity=".051" d="m 10.799272,13.388053 c 0.717682,-0.0033 1.235825,-0.02315 1.611753,-0.124575 l -1.193932,-2.046111 -1.2655896,2.170686 0.3362406,0 c 0.180799,0 0.350573,0 0.511528,0 z M 11.217093,11.217367 9.7707048,8.7368983 8.3232139,11.217367 z m 0,0 2.159662,0 c 0.0088,-0.274505 0.01102,-0.582083 0.01102,-0.930451 l 0,-0.3097833 -0.723194,-1.2402343 z M 12.664585,8.7368983 11.217093,6.2564297 9.7707048,8.7368983 z m 0,0 0.723194,0 0,-1.2402343 z m -2.8938802,0 -1.4474909,-2.4804686 -1.446389,2.4804686 z m -2.8938799,0 -1.447492,2.4804687 2.893881,0 z m 0,0 -1.447492,-2.4804686 -1.446389,2.4804686 z m -2.893881,0 -1.447491,2.4804687 2.89388,0 z m 0,0 -1.447491,-2.4804686 -1.446389,2.4804686 z m -2.89388,0 -0.93045101,1.5941147 c 0,0.329627 0.0033,0.623976 0.01102,0.886354 l 2.36581601,0 z m 0,0 -0.93045101,-1.5941144 0,1.5941144 z m 1.446389,2.4804687 -1.217083,2.086901 c 0.450894,0.08268 1.07487,0.08379 1.94138,0.08379 l 0.542396,0 z m 0,-4.9609373 -1.446389,-2.4804689 -0.93045101,1.5941147 0,0.8863542 z m 0,0 2.89388,0 -1.446389,-2.4804689 z M 3.9829439,3.7759608 2.5354529,1.2954921 1.0890639,3.7759608 z m 0,0 2.893881,0 -1.447492,-2.4804687 z m 1.446389,-2.4804687 -0.663663,-1.13660599 -1.50592,0 c -0.02205,0 -0.03969,0 -0.06063,0 L 2.5354569,1.2954921 z m 0,0 2.893881,0 -0.663664,-1.13660599 -1.566553,0 z m 2.893881,0 2.8938791,0 -0.663663,-1.13660599 c -0.0882,0 -0.171979,0 -0.265686,0 l -1.3008671,0 z m 0,0 -1.446389,2.4804687 2.8938799,0 z m 1.4474909,2.4804687 2.8938802,0 -1.447492,-2.4804687 z m 0,0 -1.4474909,2.4804689 2.8938791,0 z m 1.4463882,2.4804689 2.170686,0 0,-1.2402343 -0.723194,-1.2402346 z m 1.447492,-2.4804689 0.723194,0 0,-0.5170399 c 0,-0.2579689 -0.0022,-0.4938889 -0.0066,-0.71217 z M 8.3232139,6.2564297 6.8768249,3.7759608 5.4293329,6.2564297 z m 2.8938791,-4.9609376 2.062648,0 C 13.123196,0.51717591 12.747267,0.27133411 11.85981,0.19416381 z m -8.6816401,0 -0.650434,-1.11565979 C 0.85204089,0.23826131 0.43421989,0.46095191 0.26665089,1.2954921 z M 1.0890639,3.7759608 0.17514889,2.2083046 c -0.01213,0.3031685 -0.01654,0.6515363 -0.01654,1.0506163 l 0,0.5170399 z m 4.340269,7.4414062 -1.26559,2.170686 2.532283,0 z m 2.893881,0 -1.265591,2.170686 2.5322833,0 z m -7.59133701,1.86862 -0.451997,-0.775009 c 0.08268,0.371519 0.221589,0.615157 0.451997,0.775009 z"/><path id="path88" fill="none" stroke="#f9f9f9" stroke-linecap="square" stroke-linejoin="round" stroke-opacity="1" stroke-width=".163" d="M 6.8861925,2.6213969 5.965628,4.0631002 6.7920985,5.2311017 7.7126633,4.0813295 6.8861925,2.6213969 l 0,0 z"/><path id="path92" fill="none" stroke="#f9f9f9" stroke-linecap="square" stroke-linejoin="round" stroke-opacity="1" stroke-width=".163" d="M 7.7126633,4.0813295 6.7920985,5.2311017 8.3702479,4.5922807 9.3846377,3.4425152 7.7126633,4.0813295 l 0,0 z"/><path id="path100" fill="none" stroke="#f9f9f9" stroke-linecap="square" stroke-linejoin="round" stroke-opacity="1" stroke-width=".163" d="M 9.2345168,5.1581839 8.3514826,6.3079496 9.7229465,6.8006713 10.887458,5.4683445 9.2345168,5.1581839 l 0,0 z"/><path id="path104" fill="none" stroke="#f9f9f9" stroke-linecap="square" stroke-linejoin="round" stroke-opacity="1" stroke-width=".163" d="m 9.7229465,6.8006713 -1.371732,-0.4927217 0.9958933,1.259409 1.5781482,0.6203277 -1.2023095,-1.387015 0,0 z"/><path id="path108" fill="none" stroke="#f9f9f9" stroke-linecap="square" stroke-linejoin="round" stroke-opacity="1" stroke-width=".163" d="M 9.3471078,7.5670981 7.7689585,7.9869021 9.2154837,8.3884769 10.925256,8.1876863 9.3471078,7.5670981 l 0,0 z"/><path id="path112" fill="none" stroke="#f9f9f9" stroke-linecap="square" stroke-linejoin="round" stroke-opacity="1" stroke-width=".163" d="m 9.2154837,8.3884769 -1.4465252,-0.4015748 -0.093826,1.3323236 1.578149,0.8213753 -0.037799,-1.7521241 0,0 z"/><path id="path116" fill="none" stroke="#f9f9f9" stroke-linecap="square" stroke-linejoin="round" stroke-opacity="1" stroke-width=".163" d="M 6.810864,9.3374585 6.792097,10.925257 7.6751317,9.3192257 7.7689577,7.9869021 6.8108631,9.3374585 l 0,0 z"/><path id="path120" fill="none" stroke="#f9f9f9" stroke-linecap="square" stroke-linejoin="round" stroke-opacity="1" stroke-width=".163" d="M 5.9653601,4.0631002 4.3124182,3.3878237 5.2705131,4.6287396 6.7920985,5.2311017 5.9653601,4.0631002 l 0,0 z"/><path id="path124" fill="none" stroke="#f9f9f9" stroke-linecap="square" stroke-linejoin="round" stroke-opacity="1" stroke-width=".163" d="M 5.2705131,4.6287396 4.3121505,3.3878237 4.5000702,5.1764101 5.326809,6.1983126 5.270513,4.6287396 l 0,0 z"/><path id="path128" fill="none" stroke="#f9f9f9" stroke-linecap="square" stroke-linejoin="round" stroke-opacity="1" stroke-width=".163" d="M 4.5000702,5.1764101 2.8280951,5.4683445 4.0491699,6.6910343 5.326809,6.1983126 4.5000702,5.1764101 l 0,0 z"/><path id="path132" fill="none" stroke="#f9f9f9" stroke-linecap="square" stroke-linejoin="round" stroke-opacity="1" stroke-width=".163" d="M 4.0491699,6.6910343 2.6214104,8.0051317 4.2746201,7.4941805 5.326809,6.1983126 4.0491699,6.6910343 l 0,0 z"/><path id="path136" fill="none" stroke="#f9f9f9" stroke-linecap="square" stroke-linejoin="round" stroke-opacity="1" stroke-width=".163" d="M 4.2746201,7.4941805 2.6214104,8.0051317 4.5191028,8.2970628 5.8902992,8.0233611 4.2746201,7.4941805 l 0,0 z"/><path id="path140" fill="none" stroke="#f9f9f9" stroke-linecap="square" stroke-linejoin="round" stroke-opacity="1" stroke-width=".163" d="M 5.8902992,8.0233611 4.5188352,8.2973266 4.2183245,10.158831 5.9090646,9.3009962 5.890298,8.0233611 l 0,0 z"/><path id="path144" fill="none" stroke="#f9f9f9" stroke-linecap="square" stroke-linejoin="round" stroke-opacity="1" stroke-width=".163" d="m 5.8902992,8.0233611 0.018767,1.2776351 0.883034,1.6242608 0.018763,-1.5877985 -0.9205649,-1.3140974 0,0 z"/><path id="path148" fill="none" stroke="#f9f9f9" stroke-linecap="square" stroke-linejoin="round" stroke-opacity="1" stroke-width=".163" d="m 6.810864,6.7824419 1.5403505,-0.4744923 0.019047,-1.7156689 -1.5781488,0.638821 0.018763,1.5513402 0,0 z"/><path id="path152" fill="none" stroke="#f9f9f9" stroke-linecap="square" stroke-linejoin="round" stroke-opacity="1" stroke-width=".163" d="M 8.3512145,6.3079496 6.810864,6.7824419 7.7689585,7.9869021 9.3471078,7.5670981 8.3512145,6.3079496 l 0,0 z"/><path id="path160" fill="none" stroke="#f9f9f9" stroke-linecap="square" stroke-linejoin="round" stroke-opacity="1" stroke-width=".163" d="M 4.2746201,7.4941805 5.8902992,8.0233611 6.810864,6.7824419 5.326809,6.1983126 4.2746201,7.4941805 l 0,0 z"/><path id="path124-2" fill="none" stroke="#f9f9f9" stroke-linecap="square" stroke-linejoin="round" stroke-opacity="1" stroke-width=".166" d="M 8.4391398,4.6723069 9.4378166,3.4328444 9.2419916,5.219336 8.3804759,6.2400416 l 0.058663,-1.5677347 0,0 z"/></svg>