<svg xmlns="http://www.w3.org/2000/svg" xmlns:svg="http://www.w3.org/2000/svg" xmlns:xlink="http://www.w3.org/1999/xlink" id="svg2" width="48" height="48" version="1.1" viewBox="0 0 13.547 13.547"><metadata id="metadata34"/><defs id="defs4"><linearGradient id="0"><stop id="stop7" stop-color="#0080f5"/><stop id="stop9" offset="1" stop-color="#4292da"/></linearGradient><linearGradient id="1" x2="0" y1="1050.36" y2="1006.36" gradientTransform="matrix(0.28222223,0,0,0.28222223,0,-283.45334)" gradientUnits="userSpaceOnUse" xlink:href="#0"/><radialGradient id="radialGradient3012" cx="148.004" cy="160" r="128" gradientTransform="matrix(0.1831,0,0,0.1831,-3.10079,-5.2963804)" gradientUnits="userSpaceOnUse" xlink:href="#radial0"/><radialGradient id="radial0" cx="148.004" cy="160" r="128" gradientTransform="matrix(0.1831,0,0,0.1831,-3.10029,-5.29688)" gradientUnits="userSpaceOnUse"><stop id="stop7-9" offset="0" stop-color="#aad7ff" stop-opacity="1"/><stop id="stop9-3" offset="1" stop-color="#2898ff" stop-opacity="1"/></radialGradient><radialGradient id="radialGradient3009" cx="148.004" cy="160" r="128" gradientTransform="matrix(0.05167489,0,0,0.05167489,-0.87511191,-1.4947611)" gradientUnits="userSpaceOnUse" xlink:href="#radial0"/></defs><path id="path11" fill="url(#radialGradient3009)" d="m 13.387776,3.258921 0,7.029097 c 0,2.892778 0,3.100035 -3.100035,3.100035 l -7.0279953,0 c -3.10113681,0 -3.10113681,-0.207257 -3.10113681,-3.100035 l 0,-7.029097 c 0,-2.89277789 0,-3.10003479 3.10113681,-3.10003479 l 7.0279953,0 c 3.100035,0 3.100035,0.2072569 3.100035,3.10003479 z"/><path id="path15" fill="#fff" fill-opacity=".051" d="m 10.799269,13.388053 c 0.717682,-0.0033 1.235825,-0.02315 1.611753,-0.124575 l -1.193932,-2.046111 -1.2655903,2.170686 0.3362413,0 c 0.180799,0 0.350573,0 0.511528,0 z M 11.21709,11.217367 9.7707017,8.7368981 8.3232097,11.217367 z m 0,0 2.159662,0 c 0.0088,-0.274505 0.01102,-0.582083 0.01102,-0.930451 l 0,-0.3097829 -0.723194,-1.240235 z M 12.664582,8.7368981 11.21709,6.2564298 9.7707017,8.7368981 z m 0,0 0.723194,0 0,-1.2402339 z m -2.8938803,0 -1.447492,-2.4804683 -1.446389,2.4804683 z m -2.893881,0 -1.447491,2.4804689 2.89388,0 z m 0,0 -1.447491,-2.4804683 -1.446389,2.4804683 z m -2.89388,0 -1.447491,2.4804689 2.89388,0 z m 0,0 -1.447491,-2.4804683 -1.4463894,2.4804683 z m -2.8938804,0 -0.93045141,1.5941149 c 0,0.329627 0.00331,0.623976 0.011024,0.886354 l 2.36581621,0 z m 0,0 -0.93045141,-1.5941141 0,1.5941141 z m 1.4463894,2.4804689 -1.2170838,2.086901 c 0.450894,0.08268 1.0748699,0.08379 1.9413798,0.08379 l 0.542396,0 z m 0,-4.9609372 -1.4463894,-2.4804689 -0.93045141,1.5941147 0,0.8863542 z m 0,0 2.89388,0 -1.446389,-2.4804689 z M 3.9829407,3.7759609 2.5354497,1.2954921 1.0890603,3.7759609 z m 0,0 2.89388,0 -1.447491,-2.4804688 z m 1.446389,-2.4804688 -0.663663,-1.13660589 -1.505921,0 c -0.02205,0 -0.03969,0 -0.06063,0 L 2.5354497,1.2954921 z m 0,0 2.89388,0 -0.663663,-1.13660589 -1.566554,0 z m 2.89388,0 2.8938803,0 -0.663663,-1.13660589 c -0.0882,0 -0.171979,0 -0.265686,0 l -1.3008683,0 z m 0,0 -1.446389,2.4804688 2.893881,0 z m 1.447492,2.4804688 2.8938803,0 -1.447492,-2.4804688 z m 0,0 -1.447492,2.4804689 2.8938803,0 z m 1.4463883,2.4804689 2.170686,0 0,-1.2402343 -0.723194,-1.2402346 z m 1.447492,-2.4804689 0.723194,0 0,-0.5170399 c 0,-0.2579689 -0.0022,-0.4938891 -0.0066,-0.7121702 z M 8.3232097,6.2564298 6.8768207,3.7759609 5.4293297,6.2564298 z m 2.8938803,-4.9609377 2.062648,0 C 13.123193,0.51717611 12.747264,0.27133431 11.859807,0.19416401 z m -8.6816403,0 L 1.8850153,0.17983241 C 0.85203769,0.23826121 0.43421639,0.46095201 0.26664699,1.2954921 z M 1.0890603,3.7759609 0.17514539,2.2083046 C 0.16301829,2.511473 0.15860999,2.8598411 0.15860999,3.258921 l 0,0.5170399 z m 4.3402694,7.4414061 -1.265591,2.170686 2.532283,0 z m 2.89388,0 -1.26559,2.170686 2.532283,0 z m -7.59133691,1.86862 -0.4519964,-0.775009 c 0.082682,0.371519 0.2215885,0.615157 0.4519964,0.775009 z"/><path id="path28" fill="#f9f9f9" d="m 4.383264,3.9511112 -0.9965972,0 0,5.6444446 1.6933333,0 0,-3.9511112 3.3866668,0 0,3.9511112 1.6933331,0 0,-4.6478474 C 10.16,4.3937085 9.717403,3.9511112 9.163403,3.9511112 z"/><rect id="rect30" width="2.258" height="2.258" x="5.644" y="6.491" fill="#f9f9f9"/></svg>