<svg xmlns="http://www.w3.org/2000/svg" xmlns:svg="http://www.w3.org/2000/svg" xmlns:xlink="http://www.w3.org/1999/xlink" id="svg2" width="48" height="48" version="1.1"><metadata id="metadata36"/><defs id="defs4"><linearGradient id="0" x2="0" y1="1050.36" y2="1006.36" gradientUnits="userSpaceOnUse" xlink:href="#1"/><linearGradient id="1"><stop id="stop8" stop-color="#ecc858"/><stop id="stop10" offset="1" stop-color="#f2da8e"/></linearGradient><radialGradient id="radial0" cx="148.004" cy="160" r="128" gradientTransform="matrix(0.1831,0,0,0.1831,-3.10029,-5.29688)" gradientUnits="userSpaceOnUse"><stop id="stop7" offset="0" stop-color="#f8e99b" stop-opacity="1"/><stop id="stop9" offset="1" stop-color="#efcc15" stop-opacity="1"/></radialGradient><radialGradient id="radialGradient3001" cx="148.004" cy="160" r="128" gradientTransform="matrix(0.1831,0,0,0.1831,-3.10079,-5.29638)" gradientUnits="userSpaceOnUse" xlink:href="#radial0"/><linearGradient id="linearGradient3033" x2="0" y1="1050.36" y2="1006.36" gradientTransform="translate(51.355932,-1002.2266)" gradientUnits="userSpaceOnUse" xlink:href="#1"/></defs><path id="path11" fill="url(#radialGradient3001)" d="m 47.437,11.547375 0,24.90625 c 0,10.25 0,10.984375 -10.984375,10.984375 l -24.902344,0 C 0.562,47.438 0.562,46.703625 0.562,36.453625 l 0,-24.90625 c 0,-10.25 0,-10.984375 10.988281,-10.984375 l 24.902344,0 C 47.437,0.563 47.437,1.297375 47.437,11.547375 z"/><path id="path15" fill="#fff" fill-opacity=".051" d="m 38.265125,47.438 c 2.542969,-0.01172 4.378906,-0.08203 5.710937,-0.441406 l -4.230468,-7.25 -4.484375,7.691406 1.191406,0 c 0.640625,0 1.242187,0 1.8125,0 z m 1.480469,-7.691406 -5.125,-8.789063 -5.128906,8.789063 z m 0,0 7.652344,0 c 0.03125,-0.972656 0.03906,-2.0625 0.03906,-3.296875 l 0,-1.097657 -2.5625,-4.394531 z m 5.128906,-8.789063 -5.128906,-8.789062 -5.125,8.789062 z m 0,0 2.5625,0 0,-4.394531 z m -10.253906,0 -5.128906,-8.789062 -5.125,8.789062 z m -10.253906,0 -5.128907,8.789063 10.253907,0 z m 0,0 -5.128907,-8.789062 -5.125,8.789062 z m -10.253907,0 -5.128906,8.789063 10.253906,0 z m 0,0 -5.128906,-8.789062 -5.125,8.789062 z m -10.253906,0 L 0.562,36.605969 c 0,1.167969 0.01172,2.210937 0.03906,3.140625 l 8.382813,0 z m 0,0 -3.296875,-5.648437 0,5.648437 z m 5.125,8.789063 -4.3125,7.394531 C 6.269031,47.434094 8.479969,47.438 11.550281,47.438 l 1.921875,0 z m 0,-17.578125 -5.125,-8.789063 -3.296875,5.648438 0,3.140625 z m 0,0 10.253906,0 -5.125,-8.789063 z m 5.128906,-8.789063 -5.128906,-8.789062 -5.125,8.789062 z m 0,0 10.253907,0 -5.128907,-8.789062 z m 5.125,-8.789062 -2.351562,-4.027344 -5.335938,0 c -0.07813,0 -0.140625,0 -0.214843,0 L 8.983875,4.590344 z m 0,0 10.253907,0 -2.351563,-4.027344 -5.550781,0 z m 10.253907,0 10.253906,0 L 37.394031,0.563 c -0.3125,0 -0.609375,0 -0.941406,0 l -4.609375,0 z m 0,0 -5.125,8.789062 10.253906,0 z m 5.128906,8.789062 10.253906,0 -5.128906,-8.789062 z m 0,0 -5.128906,8.789063 10.253906,0 z m 5.125,8.789063 7.691406,0 0,-4.394531 -2.5625,-4.394532 z m 5.128906,-8.789063 2.5625,0 0,-1.832031 c 0,-0.914063 -0.0078,-1.75 -0.02344,-2.523437 z m -15.382812,8.789063 -5.125,-8.789063 -5.128907,8.789063 z m 10.253906,-17.578125 7.308594,0 C 46.4995,1.832531 45.167469,0.961438 42.022938,0.688 z m -30.761719,0 L 6.679188,0.637219 C 3.019031,0.84425 1.538562,1.633312 0.944812,4.590344 z m -5.125,8.789062 -3.238281,-5.554687 c -0.04297,1.074219 -0.05859,2.308593 -0.05859,3.722656 l 0,1.832031 z m 15.378906,26.367188 -4.484375,7.691406 8.972656,0 z m 10.253907,0 -4.484376,7.691406 8.972657,0 z M 2.59325,46.367688 0.991688,43.621594 C 1.284656,44.938 1.776844,45.801281 2.59325,46.367688 z"/><path id="use3820" fill="#f9f9f9" d="M 22 12 C 16.257414 12.2197 17.234015 14.86305 14 16.96875 C 17.22639 17.06375 17.888761 14.88125 20 14.96875 L 20 19.84375 A 9.0000001 7.9999999 0 0 1 22 19.21875 L 22 12 z M 22 19.21875 L 22 23.90625 C 22 23.90625 29.258539 21.06095 29.9375 25.15625 C 30.823725 30.50195 23.19476 30.15295 20 29.84375 L 20 19.84375 A 9.0000001 7.9999999 0 0 0 15 27 A 9.0000001 7.9999999 0 0 0 33 27 A 9.0000001 7.9999999 0 0 0 24.25 19 A 9.0000001 7.9999999 0 0 0 22 19.21875 z M 25.46875 24.6875 C 23.999439 24.6793 22 25.875 22 25.875 L 22 27.875 C 22 27.875 27.663666 28.54675 27.25 25.78125 C 27.113818 24.87055 26.350333 24.6875 25.46875 24.6875 z"/></svg>