<svg xmlns="http://www.w3.org/2000/svg" xmlns:svg="http://www.w3.org/2000/svg" xmlns:xlink="http://www.w3.org/1999/xlink" id="svg2" width="48" height="48" version="1.1" viewBox="0 0 13.547 13.547"><metadata id="metadata45"/><defs id="defs4"><linearGradient id="0"><stop id="stop7" stop-color="#4382d3"/><stop id="stop9" offset="1" stop-color="#74a2de"/></linearGradient><linearGradient id="1" x2="0" y1="279.1" y2="268.33" gradientTransform="matrix(1.10525,0,0,1.10525,-134.27874,-295.76183)" gradientUnits="userSpaceOnUse" xlink:href="#0"/><linearGradient id="2"><stop id="stop13" stop-color="#a82945"/><stop id="stop15" offset="1" stop-color="#ec607f"/></linearGradient><clipPath id="3"><rect id="rect18" width="8.717" height="8.717" x="2.415" y="2.415" fill="url(#4)" rx=".792"/></clipPath><linearGradient id="4" x2="0" y1="1050.36" y2="1006.36" gradientTransform="matrix(0.19812396,0,0,0.19812396,2.0182592,-196.96996)" gradientUnits="userSpaceOnUse" xlink:href="#2"/><radialGradient id="radial0" cx="148.004" cy="160" r="128" gradientTransform="matrix(0.1831,0,0,0.1831,-3.10029,-5.29688)" gradientUnits="userSpaceOnUse"><stop id="stop7-8" offset="0" stop-color="#f8e2c1"/><stop id="stop9-3" offset="1" stop-color="#c37910"/></radialGradient><radialGradient id="radialGradient3013" cx="148.004" cy="160" r="128" gradientTransform="matrix(0.05167489,0,0,0.05167489,-0.87510811,-1.4947612)" gradientUnits="userSpaceOnUse" xlink:href="#radial0"/><linearGradient id="linearGradient3041" x2="0" y1="279.1" y2="268.33" gradientTransform="matrix(1.5743988,0,0,1.5743988,-184.90982,-428.51349)" gradientUnits="userSpaceOnUse" xlink:href="#0"/><radialGradient id="radialGradient3820" cx="148.004" cy="160" r="128" gradientTransform="matrix(0.05167489,0,0,0.05167489,-0.87510811,-1.4947612)" gradientUnits="userSpaceOnUse" xlink:href="#radial0"/><clipPath id="clipPath3829" clipPathUnits="userSpaceOnUse"><path id="path3831" fill="url(#radialGradient3833)" d="m 13.38778,3.2589209 0,7.0290971 c 0,2.892778 0,3.100035 -3.100035,3.100035 l -7.0279951,0 c -3.10113701,0 -3.10113701,-0.207257 -3.10113701,-3.100035 l 0,-7.0290971 c 0,-2.89277789 0,-3.10003479 3.10113701,-3.10003479 l 7.0279951,0 c 3.100035,0 3.100035,0.2072569 3.100035,3.10003479 z"/></clipPath><radialGradient id="radialGradient3833" cx="148.004" cy="160" r="128" gradientTransform="matrix(0.05167489,0,0,0.05167489,-0.87510811,-1.4947612)" gradientUnits="userSpaceOnUse" xlink:href="#radial0"/></defs><path id="path11" fill="url(#radialGradient3013)" d="m 13.38778,3.2589209 0,7.0290971 c 0,2.892778 0,3.100035 -3.100035,3.100035 l -7.0279951,0 c -3.10113701,0 -3.10113701,-0.207257 -3.10113701,-3.100035 l 0,-7.0290971 c 0,-2.89277789 0,-3.10003479 3.10113701,-3.10003479 l 7.0279951,0 c 3.100035,0 3.100035,0.2072569 3.100035,3.10003479 z"/><path id="path13" fill="#fff" fill-opacity=".051" d="m 10.799273,13.388053 c 0.717682,-0.0033 1.235825,-0.02315 1.611753,-0.124575 l -1.193932,-2.046111 -1.2655901,2.170686 0.3362411,0 c 0.180799,0 0.350573,0 0.511528,0 z M 11.217094,11.217367 9.7707049,8.7368984 8.3232139,11.217367 z m 0,0 2.159662,0 c 0.0088,-0.274505 0.01102,-0.582083 0.01102,-0.930451 l 0,-0.3097833 -0.723194,-1.2402343 z M 12.664586,8.7368984 11.217094,6.2564297 9.7707049,8.7368984 z m 0,0 0.723194,0 0,-1.2402343 z m -2.8938811,0 -1.447491,-2.4804687 -1.446389,2.4804687 z m -2.89388,0 -1.447492,2.4804686 2.893881,0 z m 0,0 -1.447492,-2.4804687 -1.446388,2.4804687 z m -2.89388,0 -1.447492,2.4804686 2.89388,0 z m 0,0 -1.447492,-2.4804687 -1.446389,2.4804687 z m -2.893881,0 -0.93045101,1.5941146 c 0,0.329627 0.0033,0.623976 0.01102,0.886354 l 2.36581601,0 z m 0,0 -0.93045101,-1.5941145 0,1.5941145 z m 1.446389,2.4804686 -1.217083,2.086901 c 0.450894,0.08268 1.07487,0.08379 1.94138,0.08379 l 0.542396,0 z m 0,-4.9609373 -1.446389,-2.4804689 -0.93045101,1.5941147 0,0.8863542 z m 0,0 2.89388,0 -1.446388,-2.4804689 z M 3.9829449,3.7759608 2.5354529,1.2954921 1.0890639,3.7759608 z m 0,0 2.89388,0 -1.447492,-2.4804687 z m 1.446388,-2.4804687 -0.663663,-1.13660599 -1.507022,0 c -0.02095,0 -0.03859,0 -0.05953,0 L 2.5354539,1.2954921 z m 0,0 2.893881,0 -0.663663,-1.13660599 -1.566554,0 z m 2.893881,0 2.8938801,0 -0.663663,-1.13660599 c -0.0882,0 -0.171979,0 -0.266788,0 l -1.2997661,0 z m 0,0 -1.446389,2.4804687 2.89388,0 z m 1.447491,2.4804687 2.8938811,0 -1.447492,-2.4804687 z m 0,0 -1.447491,2.4804689 2.8938801,0 z m 1.4463891,2.4804689 2.170686,0 0,-1.2402343 -0.723194,-1.2402346 z m 1.447492,-2.4804689 0.723194,0 0,-0.5170399 c 0,-0.2579689 -0.0022,-0.4938889 -0.0066,-0.71217 z M 8.3232139,6.2564297 6.8768249,3.7759608 5.4293329,6.2564297 z m 2.8938801,-4.9609376 2.062648,0 C 13.123197,0.51717591 12.747268,0.27133411 11.859811,0.19416381 z m -8.6816411,0 -0.650434,-1.11565979 C 0.85204189,0.23826131 0.43421989,0.46095191 0.26665089,1.2954921 z M 1.0890639,3.7759608 0.17514889,2.2083046 c -0.01213,0.3031685 -0.01654,0.6515363 -0.01654,1.0506163 l 0,0.5170399 z m 4.340269,7.4414062 -1.26559,2.170686 2.532283,0 z m 2.893881,0 -1.265591,2.170686 2.532284,0 z m -7.59133701,1.86862 -0.451997,-0.775009 c 0.08268,0.371519 0.221589,0.615157 0.451997,0.775009 z"/><path id="use3812" fill="#f9f9f9" fill-opacity="1" fill-rule="evenodd" d="m 4.7220889,-2.443712 c -4.23824793,0.931709 -7.3906105,4.6910623 -7.3906105,9.2171871 0,2.0762516 0.6711378,3.9805679 1.79847561,5.5359329 1.56908755,0.986479 3.39410409,1.62848 5.21276899,1.601766 1.9190085,-0.0282 3.821243,-0.798299 5.3532749,-2.711763 C 11.263283,9.2419229 10.154969,6.4937991 8.7827094,5.7056303 7.6731233,5.191555 6.6927775,6.0317177 6.5486656,6.5767669 6.9465972,6.3941699 8.2391656,6.3046855 8.4735964,7.0825882 8.7197084,8.8900332 7.5180844,10.24258 5.8320855,10.426629 2.984762,10.737449 0.77674655,7.9171771 0.54906356,5.2560114 0.28816132,2.2065829 2.1625961,-0.83472698 4.7220889,-2.443712 z m 4.4821382,2.07948734 C 7.2852164,-0.33604476 5.3829836,0.43407401 3.8509522,2.3475392 2.2836681,4.3050279 3.3919755,7.0531503 4.7642407,7.84132 5.8738276,8.3553945 6.8541718,7.5152326 6.9982844,6.9701833 6.600348,7.1527804 5.321835,7.1720129 5.0874041,6.3941092 4.8412972,4.5866646 6.0288667,3.3043701 7.7148646,3.1203217 10.562191,2.8094993 12.770203,5.6297733 12.997885,8.2909389 13.258789,11.340367 11.384352,14.381676 8.8248611,15.990662 13.063109,15.058954 16.215471,11.2996 16.215471,6.7734751 c 0,-2.0762513 -0.671136,-3.9805677 -1.798476,-5.5359324 C 12.847906,0.25106474 11.02289,-0.39094078 9.2042271,-0.36422466 z" clip-path="url(#clipPath3829)" color="#000" transform="matrix(0.63999999,0,0,0.64,2.4384878,2.438313)"/></svg>