<svg xmlns="http://www.w3.org/2000/svg" xmlns:svg="http://www.w3.org/2000/svg" xmlns:xlink="http://www.w3.org/1999/xlink" id="svg2" width="48" height="48" version="1.1" viewBox="0 0 48 48"><metadata id="metadata39"/><defs id="defs4"><radialGradient id="radial0" cx="148.004" cy="160" r="128" gradientTransform="matrix(0.1831,0,0,0.1831,-46.906604,-10.332089)" gradientUnits="userSpaceOnUse"><stop id="stop7" offset="0" stop-color="#b7d6e2"/><stop id="stop9" offset="1" stop-color="#0677cd"/></radialGradient><radialGradient id="radial0-7" cx="148.004" cy="160" r="128" gradientTransform="matrix(0.1831,0,0,0.1831,21.916659,-5.0934902)" gradientUnits="userSpaceOnUse"><stop id="stop7-4" offset="0" stop-color="#cfffc8"/><stop id="stop9-5" offset="1" stop-color="#04a900"/></radialGradient><radialGradient id="radialGradient3066" cx="148.004" cy="160" r="128" gradientTransform="matrix(0.1831,0,0,0.1831,-3.10079,-5.29638)" gradientUnits="userSpaceOnUse" xlink:href="#radial0-7"/></defs><path id="path11" fill="url(#radialGradient3066)" d="m 47.437,11.547375 0,24.90625 c 0,10.25 0,10.984375 -10.984375,10.984375 l -24.902344,0 C 0.562,47.438 0.562,46.703625 0.562,36.453625 l 0,-24.90625 c 0,-10.25 0,-10.984375 10.988281,-10.984375 l 24.902344,0 C 47.437,0.563 47.437,1.297375 47.437,11.547375 z"/><path id="path15" fill="#fff" fill-opacity=".051" d="m 38.265625,47.4375 c 2.542969,-0.01172 4.378906,-0.08203 5.710937,-0.441406 l -4.230468,-7.25 -4.484375,7.691406 1.191406,0 c 0.640625,0 1.242187,0 1.8125,0 z m 1.480469,-7.691406 -5.125,-8.789063 -5.128906,8.789063 z m 0,0 7.652344,0 c 0.03125,-0.972656 0.03906,-2.0625 0.03906,-3.296875 l 0,-1.097657 -2.5625,-4.394531 z m 5.128906,-8.789063 -5.128906,-8.789062 -5.125,8.789062 z m 0,0 2.5625,0 0,-4.394531 z m -10.253906,0 -5.128906,-8.789062 -5.125,8.789062 z m -10.253906,0 -5.128907,8.789063 10.253907,0 z m 0,0 -5.128907,-8.789062 -5.125,8.789062 z m -10.253907,0 -5.128906,8.789063 10.253906,0 z m 0,0 -5.128906,-8.789062 -5.125,8.789062 z m -10.253906,0 -3.296875,5.648438 c 0,1.167969 0.011719,2.210937 0.039062,3.140625 l 8.382813,0 z m 0,0 -3.296875,-5.648437 0,5.648437 z m 5.125,8.789063 -4.3125,7.394531 c 1.597656,0.292969 3.808594,0.296875 6.875,0.296875 l 1.925781,0 z m 0,-17.578125 -5.125,-8.789063 -3.296875,5.648438 0,3.140625 z m 0,0 10.253906,0 -5.125,-8.789063 z m 5.128906,-8.789063 -5.128906,-8.789062 -5.125,8.789062 z m 0,0 10.253907,0 -5.128907,-8.789062 z m 5.125,-8.789062 -2.351562,-4.027344 -5.339844,0 c -0.07422,0 -0.136719,0 -0.210937,0 L 8.984375,4.589844 z m 0,0 10.253907,0 -2.351563,-4.027344 -5.550781,0 z m 10.253907,0 10.253906,0 L 37.394531,0.5625 c -0.3125,0 -0.609375,0 -0.945312,0 l -4.605469,0 z m 0,0 -5.125,8.789062 10.253906,0 z m 5.128906,8.789062 10.253906,0 -5.128906,-8.789062 z m 0,0 -5.128906,8.789063 10.253906,0 z m 5.125,8.789063 7.691406,0 0,-4.394531 -2.5625,-4.394532 z m 5.128906,-8.789063 2.5625,0 0,-1.832031 c 0,-0.914063 -0.0078,-1.75 -0.02344,-2.523437 z m -15.382812,8.789063 -5.125,-8.789063 -5.128907,8.789063 z m 10.253906,-17.578125 7.308594,0 C 46.5,1.832031 45.167969,0.960938 42.023438,0.6875 z m -30.761719,0 L 6.679688,0.636719 C 3.019531,0.84375 1.539062,1.632812 0.945312,4.589844 z m -5.125,8.789062 L 0.621094,7.824219 C 0.578125,8.898438 0.5625,10.132812 0.5625,11.546875 l 0,1.832031 z m 15.378906,26.367188 -4.484375,7.691406 8.972656,0 z m 10.253907,0 -4.484376,7.691406 8.972657,0 z M 2.59375,46.367188 0.992188,43.621094 c 0.292968,1.316406 0.785156,2.179687 1.601562,2.746094 z"/><g id="g3029" transform="matrix(0.79999574,0,0,0.79982892,4.8000598,4.8040796)"><path id="path17" fill="#fff" d="m 7.503906,15.796875 0.035156,2.34375 33.050782,0 -0.03516,-2.34375 z"/><path id="path19" fill="#fff" d="m 6.128906,22.828125 0,2.34375 35.742188,0 0,-2.34375 z"/><path id="path21" fill="#fff" d="m 7.59375,29.859375 0,2.34375 32.8125,0 0,-2.34375 z"/><path id="path23" fill="#fff" d="m 22.828125,6.136719 0,35.765625 2.34375,0 0,-35.765625 z"/><g id="g3016"><g id="g25" fill="none" stroke="#fff"><g id="g27" stroke-width="12.5"><path id="path29" d="m 89.770833,7.729167 c -22.875,-52.5 -21.125,-118.374997 0,-175.770837" transform="matrix(0.1875,0,0,0.1875,0,39)"/><path id="path31" d="m 166.22917,7.729167 c 22.875,-52.5 21.125,-118.374997 0,-175.770837" transform="matrix(0.1875,0,0,0.1875,0,39)"/></g><g id="g33"><path id="path35" stroke-linecap="round" stroke-width="1.214" d="m 33.05725,27.317134 c 0,5.029455 -4.074547,9.106025 -9.104002,9.106025 -5.029455,0 -9.104002,-4.07657 -9.104002,-9.106025 0,-5.029455 4.074547,-9.106025 9.104002,-9.106025 5.029455,0 9.104002,4.07657 9.104002,9.106025 z" transform="matrix(1.93081,0,0,1.93081,-22.24924,-28.74428)"/></g></g></g></g></svg>