<svg xmlns="http://www.w3.org/2000/svg" xmlns:svg="http://www.w3.org/2000/svg" xmlns:xlink="http://www.w3.org/1999/xlink" id="svg2" width="48" height="48" version="1.1" viewBox="0 0 13.547 13.547"><metadata id="metadata38"/><defs id="defs4"><linearGradient id="0"><stop id="stop7" stop-color="#b3b3b3"/><stop id="stop9" offset="1" stop-color="#d3d3d3"/></linearGradient><linearGradient id="1" x2="0" y1="1050.36" y2="1006.36" gradientTransform="matrix(0.28222223,0,0,0.28222223,0,-283.45334)" gradientUnits="userSpaceOnUse" xlink:href="#0"/><radialGradient id="radialGradient3039" cx="148.004" cy="160" r="128" gradientTransform="matrix(0.05167489,0,0,0.05167489,-0.87511141,-1.4947899)" gradientUnits="userSpaceOnUse" xlink:href="#radial0"/><radialGradient id="radial0" cx="148.004" cy="160" r="128" gradientTransform="matrix(0.1831,0,0,0.1831,-3.10029,-5.29688)" gradientUnits="userSpaceOnUse"><stop id="stop7-1" offset="0" stop-color="#fbafaf" stop-opacity="1"/><stop id="stop9-3" offset="1" stop-color="#b90f0f" stop-opacity="1"/></radialGradient><radialGradient id="radialGradient3009" cx="148.004" cy="160" r="128" gradientTransform="matrix(0.05167489,0,0,0.05167489,-0.87511141,-1.4947623)" gradientUnits="userSpaceOnUse" xlink:href="#radial0"/></defs><path id="path11" fill="url(#radialGradient3009)" d="m 13.387776,3.2589199 0,7.0290971 c 0,2.892779 0,3.100036 -3.100035,3.100036 l -7.0279937,0 c -3.10113791,0 -3.10113791,-0.207257 -3.10113791,-3.100036 l 0,-7.0290971 c 0,-2.89277779 0,-3.10003479 3.10113791,-3.10003479 l 7.0279937,0 c 3.100035,0 3.100035,0.207257 3.100035,3.10003479 z"/><path id="path15" fill="#fff" fill-opacity=".051" d="m 10.799269,13.388053 c 0.717682,-0.0033 1.235825,-0.02315 1.611753,-0.124576 l -1.193932,-2.04611 -1.2655897,2.170686 0.3362407,0 c 0.180799,0 0.350573,0 0.511528,0 z M 11.21709,11.217367 9.7707023,8.7368974 8.3232103,11.217367 z m 0,0 2.159662,0 c 0.0088,-0.274506 0.01102,-0.582084 0.01102,-0.930452 l 0,-0.3097836 -0.723194,-1.240234 z M 12.664582,8.7368974 11.21709,6.2564284 9.7707023,8.7368974 z m 0,0 0.723194,0 0,-1.2402338 z m -2.8938797,0 -1.447492,-2.480469 -1.446389,2.480469 z m -2.893881,0 -1.447491,2.4804696 2.89388,0 z m 0,0 -1.447491,-2.480469 -1.446389,2.480469 z m -2.89388,0 -1.447491,2.4804696 2.89388,0 z m 0,0 -1.447491,-2.480469 -1.446389,2.480469 z m -2.89388,0 -0.93045191,1.5941156 c 0,0.329626 0.00331,0.623975 0.011024,0.886354 l 2.36581691,0 z m 0,0 -0.93045191,-1.5941148 0,1.5941148 z m 1.446389,2.4804696 -1.217084,2.086901 c 0.450894,0.08268 1.07487,0.08379 1.941381,0.08379 l 0.542395,0 z m 0,-4.9609386 -1.446389,-2.4804686 -0.93045191,1.5941147 0,0.8863539 z m 0,0 2.89388,0 -1.446389,-2.4804686 z M 3.9829413,3.7759598 2.5354503,1.2954911 1.0890613,3.7759598 z m 0,0 2.89388,0 -1.447491,-2.4804687 z m 1.446389,-2.4804687 -0.663663,-1.13660599 -1.50592,0 c -0.02205,0 -0.03969,0 -0.06063,0 L 2.5354543,1.2954911 z m 0,0 2.89388,0 -0.663663,-1.13660599 -1.566554,0 z m 2.89388,0 2.8938797,0 -0.663663,-1.13660599 c -0.0882,0 -0.171979,0 -0.265686,0 l -1.3008677,0 z m 0,0 -1.446389,2.4804687 2.893881,0 z m 1.447492,2.4804687 2.8938797,0 -1.447492,-2.4804687 z m 0,0 -1.447492,2.4804686 2.8938797,0 z m 1.4463877,2.4804686 2.170686,0 0,-1.240234 -0.723194,-1.2402346 z m 1.447492,-2.4804686 0.723194,0 0,-0.5170399 c 0,-0.2579689 -0.0022,-0.4938889 -0.0066,-0.71217 z M 8.3232103,6.2564284 6.8768213,3.7759598 5.4293303,6.2564284 z m 2.8938797,-4.9609373 2.062648,0 C 13.123193,0.51717501 12.747264,0.27133321 11.859807,0.19416291 z m -8.6816397,0 -0.650434,-1.11565969 C 0.85203809,0.23826041 0.43421689,0.46095101 0.26664739,1.2954911 z M 1.0890613,3.7759598 0.17514589,2.2083036 c -0.012127,0.3031685 -0.016537,0.6515363 -0.016537,1.0506163 l 0,0.5170399 z m 4.340269,7.4414072 -1.26559,2.170686 2.532283,0 z m 2.89388,0 -1.26559,2.170686 2.532283,0 z m -7.59133701,1.868619 -0.4519964,-0.775009 c 0.082682,0.371519 0.2215884,0.615158 0.4519964,0.775009 z"/><g id="g28" fill="#f9f9f9" fill-opacity="1"><rect id="rect30" width="7.902" height="5.644" x="2.822" y="4.516" fill="#f9f9f9" fill-opacity="1" rx=".583" ry=".556"/><rect id="rect32" width="2.54" height="1.976" x="3.669" y="3.387" fill="#f9f9f9" fill-opacity="1"/><rect id="rect34" width="2.54" height="1.976" x="7.338" y="3.387" fill="#f9f9f9" fill-opacity="1"/></g></svg>