<svg xmlns="http://www.w3.org/2000/svg" xmlns:svg="http://www.w3.org/2000/svg" xmlns:xlink="http://www.w3.org/1999/xlink" id="svg2" width="48" height="48" version="1.1" viewBox="0 0 13.547 13.547"><metadata id="metadata34"/><defs id="defs4"><linearGradient id="0"><stop id="stop7" stop-color="#5c246b"/><stop id="stop9" offset="1" stop-color="#995cab"/></linearGradient><linearGradient id="1" x2="0" y1="1050.36" y2="1006.36" gradientTransform="matrix(0.28222223,0,0,0.28222223,0,-283.45334)" gradientUnits="userSpaceOnUse" xlink:href="#0"/><radialGradient id="radialGradient3015" cx="148.004" cy="160" r="128" gradientTransform="matrix(0.05167489,0,0,0.05167489,-0.87511191,-1.4947566)" gradientUnits="userSpaceOnUse" xlink:href="#radial0"/><radialGradient id="radial0" cx="148.004" cy="160" r="128" gradientTransform="matrix(0.1831,0,0,0.1831,-3.10029,-5.29688)" gradientUnits="userSpaceOnUse"><stop id="stop7-1" offset="0" stop-color="#d68ed6"/><stop id="stop9-0" offset="1" stop-color="#7d197e"/></radialGradient><radialGradient id="radialGradient3029" cx="148.004" cy="160" r="128" gradientTransform="matrix(0.05167489,0,0,0.05167489,-0.87510811,-1.4947563)" gradientUnits="userSpaceOnUse" xlink:href="#radial0"/></defs><path id="path11" fill="url(#radialGradient3029)" d="m 13.38778,3.2589261 0,7.0290969 c 0,2.892778 0,3.100035 -3.100035,3.100035 l -7.0279951,0 c -3.10113701,0 -3.10113701,-0.207257 -3.10113701,-3.100035 l 0,-7.0290969 c 0,-2.89277809 0,-3.10003509 3.10113701,-3.10003509 l 7.0279951,0 c 3.100035,0 3.100035,0.207257 3.100035,3.10003509 z"/><path id="path15" fill="#fff" fill-opacity=".051" d="m 10.799273,13.388058 c 0.717682,-0.0033 1.235825,-0.02315 1.611753,-0.124575 l -1.193932,-2.046111 -1.2655901,2.170686 0.3362411,0 c 0.180799,0 0.350573,0 0.511528,0 z M 11.217094,11.217372 9.7707049,8.7369031 8.3232139,11.217372 z m 0,0 2.159662,0 c 0.0088,-0.274505 0.01102,-0.582083 0.01102,-0.930451 l 0,-0.3097829 -0.723191,-1.240235 z m 1.447491,-2.4804689 -1.447491,-2.480468 -1.4463891,2.480468 z m 0,0 0.723195,0 0,-1.240234 z m -2.8938801,0 -1.447491,-2.480468 -1.446389,2.480468 z m -2.89388,0 -1.447492,2.4804689 2.893881,0 z m 0,0 -1.447492,-2.480468 -1.446389,2.480468 z m -2.893881,0 -1.447491,2.4804689 2.89388,0 z m 0,0 -1.447491,-2.480468 -1.446389,2.480468 z m -2.89388,0 -0.93045101,1.5941149 c 0,0.329627 0.0033,0.623975 0.01102,0.886354 l 2.36581601,0 z m 0,0 -0.93045101,-1.594114 0,1.594114 z m 1.446389,2.4804689 -1.217083,2.086901 c 0.450894,0.08268 1.07487,0.08378 1.940277,0.08378 l 0.543499,0 z m 0,-4.9609369 -1.446389,-2.480469 -0.93045101,1.594114 0,0.886355 z m 0,0 2.89388,0 -1.446389,-2.480469 z M 3.9829439,3.7759661 2.5354529,1.295497 1.0890639,3.7759661 z m 0,0 2.893881,0 -1.447492,-2.4804691 z m 1.446389,-2.4804691 -0.663663,-1.13660599 -1.507023,0 c -0.02095,0 -0.03858,0 -0.05953,0 L 2.5354539,1.295497 z m 0,0 2.893881,0 -0.663664,-1.13660599 -1.566553,0 z m 2.893881,0 2.8938801,0 -0.663663,-1.13660599 c -0.08819,0 -0.171979,0 -0.266788,0 l -1.2997661,0 z m 0,0 -1.446389,2.4804691 2.89388,0 z m 1.447491,2.4804691 2.8938801,0 -1.447491,-2.4804691 z m 0,0 -1.447491,2.480469 2.8938801,0 z m 1.4463891,2.480469 2.170686,0 0,-1.240235 -0.723195,-1.240234 z m 1.447491,-2.480469 0.723195,0 0,-0.51704 c 0,-0.257969 -0.0022,-0.493889 -0.0066,-0.7121703 z m -4.3413711,2.480469 -1.446389,-2.480469 -1.447492,2.480469 z m 2.8938801,-4.9609381 2.062648,0 C 13.123197,0.51718091 12.747268,0.27133911 11.859811,0.19416881 z m -8.6816411,0 -0.650434,-1.11565969 C 0.85204089,0.23826631 0.43421989,0.46095691 0.26665089,1.295497 z M 1.0890639,3.7759661 0.17514889,2.2083095 c -0.01213,0.3031685 -0.01654,0.6515366 -0.01654,1.0506166 l 0,0.51704 z m 4.340269,7.4414059 -1.26559,2.170686 2.532283,0 z m 2.893881,0 -1.265591,2.170686 2.532283,0 z m -7.59133701,1.86862 -0.451997,-0.775009 c 0.08268,0.371519 0.221589,0.615156 0.451997,0.775009 z"/><path id="rect30" fill="#f9f9f9" fill-opacity="1" d="m 3.0779899,2.2577781 c -0.454834,0 -0.820208,0.365374 -0.820208,0.820208 l 0,7.3906949 c 0,0.454834 0.365374,0.820208 0.820208,0.820208 l 7.3906951,0 c 0.454834,0 0.820208,-0.365374 0.820208,-0.820208 l 0,-7.3906949 c 0,-0.454834 -0.365374,-0.820208 -0.820208,-0.820208 l -7.3906951,0 z m 2.284236,1.693333 4.233334,2.822223 -4.233334,2.822222 0,-5.644445 z"/></svg>