<svg xmlns="http://www.w3.org/2000/svg" xmlns:svg="http://www.w3.org/2000/svg" xmlns:xlink="http://www.w3.org/1999/xlink" id="svg2" width="48" height="48" version="1.1" viewBox="0 0 13.547 13.547"><metadata id="metadata120"/><defs id="defs4"><linearGradient id="0"><stop id="stop7" stop-color="#54aae4"/><stop id="stop9" offset="1" stop-color="#7ec1ee"/></linearGradient><linearGradient id="1" x2="0" y1="280" y2="40" gradientTransform="matrix(.175 0 0 .175 302.79999 215.99997)" gradientUnits="userSpaceOnUse" xlink:href="#2"/><linearGradient id="2"><stop id="stop13" stop-color="#151515"/><stop id="stop15" offset="1" stop-color="#222"/></linearGradient><linearGradient id="3" x2="0" y1="230" y2="90" gradientTransform="matrix(.375 0 0 .375 298 16)" gradientUnits="userSpaceOnUse" xlink:href="#2"/><linearGradient id="4" x2="0" y1="230" y2="90" gradientTransform="matrix(.25 0 0 .25 299.99999 131.99999)" gradientUnits="userSpaceOnUse" xlink:href="#2"/><linearGradient id="linearGradient19" x1="265" x2="264" y1="40" y2="276" gradientTransform="matrix(-1 0 0 -1 289 315)" gradientUnits="userSpaceOnUse" xlink:href="#2"/><clipPath id="clipPath21"><rect id="rect23" width="20" height="20" x="434" y="78" color="#bebebe" rx="4"/></clipPath><clipPath id="clipPath25"><rect id="rect27" width="22" height="22" x="433" y="77" color="#bebebe" rx="4"/></clipPath><clipPath id="clipPath29"><rect id="rect31" width="22" height="22" x="433" y="77" color="#bebebe" rx="5"/></clipPath><clipPath id="clipPath33"><rect id="rect35" width="30" height="30" x="433" y="29" color="#bebebe" rx="6"/></clipPath><clipPath id="clipPath37"><rect id="rect39" width="60" height="60" x="306" y="142" fill="url(#4)" color="#bebebe" rx="12.5" transform="matrix(0 -1 1 0 0 0)"/></clipPath><clipPath id="clipPath41"><rect id="rect43" width="90" height="90" x="307" y="31" fill="url(#3)" color="#bebebe" rx="18.75"/></clipPath><clipPath id="clipPath45"><rect id="rect47" width="30" height="30" x="433" y="29" fill="#6d6d6d" color="#bebebe" opacity=".2" rx="4"/></clipPath><clipPath id="clipPath49"><rect id="rect51" width="22" height="22" x="433" y="77" fill="#6d6d6d" color="#bebebe" opacity=".2" rx="3"/></clipPath><clipPath id="clipPath53"><path id="path55" d="m 144,70 c -49.705627,0 -90,40.29437 -90,90 0,49.70563 40.294373,90 90,90 49.70563,0 90,-40.29437 90,-90 0,-49.70563 -40.29437,-90 -90,-90 z m 0,32.1875 c 32.03251,0 58,25.96748 58,58 0,32.03252 -25.96749,58 -58,58 -32.03251,0 -58,-25.96748 -58,-58 0,-32.03252 25.96749,-58 58,-58 z"/></clipPath><clipPath id="clipPath57"><path id="path59" d="m 152,204 a 8,8 0 1 1 -16,0 8,8 0 1 1 16,0 z"/></clipPath><clipPath id="clipPath61"><rect id="rect63" width="16" height="16" x="432" y="116" color="#bebebe" rx="3"/></clipPath><clipPath id="clipPath65"><path id="path67" d="m 145,215 c 33.13708,0 60,-26.86292 60,-60 0,-33.13708 -26.86292,-60 -60,-60 -33.13708,0 -60,26.86292 -60,60 0,12.50698 3.8285,24.10633 10.375,33.71875 L 89,211 111.28125,204.625 C 120.89367,211.1715 132.49302,215 145,215 z"/></clipPath><clipPath id="clipPath69"><path id="path71" d="m 98.03125,23.191212 c -41.492132,1.05238 -74.84375,35.06824 -74.84375,76.812498 0,42.40687 34.405632,76.8125 76.8125,76.8125 42.40687,0 76.8125,-34.40563 76.8125,-76.8125 0,-42.406866 -34.40563,-76.812498 -76.8125,-76.812498 -0.662607,0 -1.310145,-0.0167 -1.96875,0 z M 100,50.659962 c 27.24464,0 49.34375,22.099114 49.34375,49.343748 -1e-5,27.24464 -22.09911,49.34375 -49.34375,49.34375 -27.244636,-1e-5 -49.34375,-22.09911 -49.34375,-49.34375 0,-27.244634 22.099114,-49.343748 49.34375,-49.343748 z"/></clipPath><clipPath id="clipPath73"><rect id="rect75" width="16" height="16" x="432" y="116" fill="#6d6d6d" color="#bebebe" opacity=".2" rx="2"/></clipPath><clipPath id="clipPath77"><rect id="rect79" width="240" height="240" x="24" y="36" fill="#986767" color="#bebebe" rx="50"/></clipPath><clipPath id="clipPath81"><rect id="rect83" width="42" height="42" x="307" y="223" fill="url(#1)" color="#bebebe" rx="9" transform="rotate(90)"/></clipPath><linearGradient id="5" x2="0" y1="1050.36" y2="1006.36" gradientTransform="matrix(0.28222223,0,0,0.28222223,0,-283.45334)" gradientUnits="userSpaceOnUse" xlink:href="#0"/><radialGradient id="radial0" cx="148.004" cy="160" r="128" gradientTransform="matrix(0.1831,0,0,0.1831,-3.10029,-5.29688)" gradientUnits="userSpaceOnUse"><stop id="stop7-8" offset="0" stop-color="#b5d9e4"/><stop id="stop9-6" offset="1" stop-color="#1c677c"/></radialGradient><radialGradient id="radialGradient3002" cx="148.004" cy="160" r="128" gradientTransform="matrix(0.05167489,0,0,0.05167489,-0.87511191,-1.4947613)" gradientUnits="userSpaceOnUse" xlink:href="#radial0"/></defs><path id="path11" fill="url(#radialGradient3002)" d="m 13.387776,3.2589208 0,7.0290972 c 0,2.892778 0,3.100035 -3.100035,3.100035 l -7.0279949,0 c -3.10113721,0 -3.10113721,-0.207257 -3.10113721,-3.100035 l 0,-7.0290972 c 0,-2.89277789 0,-3.10003479 3.10113721,-3.10003479 l 7.0279949,0 c 3.100035,0 3.100035,0.2072569 3.100035,3.10003479 z"/><path id="path15" fill="#fff" fill-opacity=".051" d="m 10.799269,13.388053 c 0.717682,-0.0033 1.235825,-0.02315 1.611753,-0.124575 l -1.193932,-2.046111 -1.2655904,2.170686 0.3362414,0 c 0.180799,0 0.350573,0 0.511528,0 z M 11.21709,11.217367 9.7707016,8.7368983 8.3232096,11.217367 z m 0,0 2.159662,0 c 0.0088,-0.274505 0.01102,-0.582083 0.01102,-0.930451 l 0,-0.3097839 -0.723194,-1.2402338 z M 12.664582,8.7368983 11.21709,6.2564296 9.7707016,8.7368983 z m 0,0 0.723194,0 0,-1.2402343 z m -2.8938804,0 -1.447492,-2.4804687 -1.446389,2.4804687 z m -2.893881,0 -1.447491,2.4804687 2.89388,0 z m 0,0 -1.447491,-2.4804687 -1.446389,2.4804687 z m -2.89388,0 -1.4474914,2.4804687 2.8938804,0 z m 0,0 L 2.5354492,6.2564296 1.0890603,8.7368983 z m -2.8938803,0 -0.93045141,1.5941147 c 0,0.329627 0.00331,0.623976 0.011024,0.886354 l 2.36581611,0 z m 0,0 -0.93045141,-1.5941145 0,1.5941145 z m 1.4463889,2.4804687 -1.2170833,2.086901 c 0.450894,0.08268 1.0748699,0.08379 1.9413802,0.08379 l 0.5423955,0 z m 0,-4.9609374 -1.4463889,-2.4804689 -0.93045141,1.5941147 0,0.8863542 z m 0,0 2.8938804,0 -1.446389,-2.4804689 z M 3.9829406,3.7759607 2.5354492,1.295492 1.0890603,3.7759607 z m 0,0 2.89388,0 -1.447491,-2.4804687 z m 1.446389,-2.4804687 -0.663663,-1.13660599 -1.5059205,0 c -0.02205,0 -0.039688,0 -0.060634,0 L 2.5354492,1.295492 z m 0,0 2.89388,0 -0.663663,-1.13660599 -1.566554,0 z m 2.89388,0 2.8938804,0 -0.663663,-1.13660599 c -0.0882,0 -0.171979,0 -0.265686,0 l -1.3008684,0 z m 0,0 -1.446389,2.4804687 2.893881,0 z m 1.447492,2.4804687 2.8938804,0 L 11.21709,1.295492 z m 0,0 -1.447492,2.4804689 2.8938804,0 z m 1.4463884,2.4804689 2.170686,0 0,-1.2402343 -0.723194,-1.2402346 z m 1.447492,-2.4804689 0.723194,0 0,-0.5170399 c 0,-0.2579689 -0.0022,-0.4938889 -0.0066,-0.71217 z M 8.3232096,6.2564296 6.8768206,3.7759607 5.4293296,6.2564296 z M 11.21709,1.295492 l 2.062648,0 C 13.123193,0.51717581 12.747264,0.27133401 11.859807,0.19416371 z m -8.6816408,0 L 1.8850153,0.17983221 C 0.85203769,0.23826101 0.43421639,0.46095181 0.26664699,1.295492 z M 1.0890603,3.7759607 0.17514539,2.2083045 C 0.16301859,2.511473 0.15860889,2.8598408 0.15860889,3.2589208 l 0,0.5170399 z m 4.3402693,7.4414063 -1.26559,2.170686 2.532283,0 z m 2.89388,0 -1.26559,2.170686 2.532283,0 z m -7.59133681,1.86862 -0.4519964,-0.775009 c 0.082682,0.371519 0.2215885,0.615157 0.4519964,0.775009 z"/><path id="path104" fill="#f9f9f9" fill-opacity="1" d="M 23.78125 10 C 20.173722 9.8840038 16.568763 12.762543 16.375 18.375 C 16.492118 19.742827 17.267578 21.649902 18.0625 22.375 L 18.09375 22.40625 C 18.109133 22.419686 18.140879 22.424981 18.15625 22.4375 L 19.8125 24.125 L 18 26 L 18.03125 26.03125 C 14.84101 27.572556 11.655815 30.61995 11 34 L 11 36 L 37 36 L 37 34 C 36.338072 31.082327 33.024754 27.754641 28.84375 25.9375 L 27.125 24.15625 C 27.610842 23.683042 28.682439 22.756158 29.09375 22.03125 L 29.09375 22.09375 C 29.909466 21.777236 30.921674 20.576108 31.09375 19.53125 C 30.99035 13.219923 27.388778 10.115996 23.78125 10 z M 27.03125 24.15625 L 27.0625 24.15625 L 27 24.21875 L 27.03125 24.15625 z M 23.375 27.8125 L 23.53125 27.8125 L 23.46875 27.90625 L 23.375 27.8125 z" transform="scale(0.28222223,0.28222223)"/></svg>