<?xml version="1.0" encoding="UTF-8" standalone="no"?>
<svg
   xmlns:dc="http://purl.org/dc/elements/1.1/"
   xmlns:cc="http://creativecommons.org/ns#"
   xmlns:rdf="http://www.w3.org/1999/02/22-rdf-syntax-ns#"
   xmlns:svg="http://www.w3.org/2000/svg"
   xmlns="http://www.w3.org/2000/svg"
   xmlns:sodipodi="http://sodipodi.sourceforge.net/DTD/sodipodi-0.dtd"
   xmlns:inkscape="http://www.inkscape.org/namespaces/inkscape"
   width="48"
   height="48"
   viewBox="0 0 48 48"
   id="svg2"
   version="1.1"
   inkscape:version="0.48.4 r9939"
   sodipodi:docname="battery.svg">
  <defs
     id="defs7" />
  <metadata
     id="metadata35">
    <rdf:RDF>
      <cc:Work
         rdf:about="">
        <dc:format>image/svg+xml</dc:format>
        <dc:type
           rdf:resource="http://purl.org/dc/dcmitype/StillImage" />
        <dc:title></dc:title>
      </cc:Work>
    </rdf:RDF>
  </metadata>
  <sodipodi:namedview
     pagecolor="#ffffff"
     bordercolor="#666666"
     borderopacity="1"
     objecttolerance="10"
     gridtolerance="10"
     guidetolerance="10"
     inkscape:pageopacity="0"
     inkscape:pageshadow="2"
     inkscape:window-width="1024"
     inkscape:window-height="692"
     id="namedview33"
     showgrid="false"
     inkscape:zoom="6.9532167"
     inkscape:cx="8.4238342"
     inkscape:cy="22.492023"
     inkscape:window-x="0"
     inkscape:window-y="24"
     inkscape:window-maximized="1"
     inkscape:current-layer="svg2"
     showguides="true"
     inkscape:guide-bbox="true">
    <sodipodi:guide
       orientation="1,0"
       position="-30.633304,19.271656"
       id="guide6162" />
  </sodipodi:namedview>
  <path
     fill="#808080"
     d="M 47.4375 11.546875 L 47.4375 36.453125 C 47.4375 46.703125 47.4375 47.4375 36.453125 47.4375 L 11.550781 47.4375 C 0.5625 47.4375 0.5625 46.703125 0.5625 36.453125 L 0.5625 11.546875 C 0.5625 1.296875 0.5625 0.5625 11.550781 0.5625 L 36.453125 0.5625 C 47.4375 0.5625 47.4375 1.296875 47.4375 11.546875 Z "
     id="path11"
     style="fill:#cb3223;fill-opacity:1" />
  <path
     inkscape:connector-curvature="0"
     id="path15"
     d="m 38.265625,47.4375 c 2.542969,-0.01172 4.378906,-0.08203 5.710937,-0.441406 l -4.230468,-7.25 -4.484375,7.691406 1.191406,0 c 0.640625,0 1.242187,0 1.8125,0 z m 1.480469,-7.691406 -5.125,-8.789063 -5.128906,8.789063 z m 0,0 7.652344,0 c 0.03125,-0.972656 0.03906,-2.0625 0.03906,-3.296875 l 0,-1.097657 -2.5625,-4.394531 z m 5.128906,-8.789063 -5.128906,-8.789062 -5.125,8.789062 z m 0,0 2.5625,0 0,-4.394531 z m -10.253906,0 -5.128906,-8.789062 -5.125,8.789062 z m -10.253906,0 -5.128907,8.789063 10.253907,0 z m 0,0 -5.128907,-8.789062 -5.125,8.789062 z m -10.253907,0 -5.128906,8.789063 10.253906,0 z m 0,0 -5.128906,-8.789062 -5.125,8.789062 z m -10.253906,0 -3.296875,5.648438 c 0,1.167969 0.011719,2.210937 0.039062,3.140625 l 8.382813,0 z m 0,0 -3.296875,-5.648437 0,5.648437 z m 5.125,8.789063 -4.3125,7.394531 c 1.597656,0.292969 3.808594,0.296875 6.878906,0.296875 l 1.921875,0 z m 0,-17.578125 -5.125,-8.789063 -3.296875,5.648438 0,3.140625 z m 0,0 10.253906,0 -5.125,-8.789063 z m 5.128906,-8.789063 -5.128906,-8.789062 -5.125,8.789062 z m 0,0 10.253907,0 -5.128907,-8.789062 z m 5.125,-8.789062 -2.351562,-4.027344 -5.335938,0 c -0.07813,0 -0.140625,0 -0.214843,0 L 8.984375,4.589844 z m 0,0 10.253907,0 -2.351563,-4.027344 -5.550781,0 z m 10.253907,0 10.253906,0 L 37.394531,0.5625 c -0.3125,0 -0.609375,0 -0.941406,0 l -4.609375,0 z m 0,0 -5.125,8.789062 10.253906,0 z m 5.128906,8.789062 10.253906,0 -5.128906,-8.789062 z m 0,0 -5.128906,8.789063 10.253906,0 z m 5.125,8.789063 7.691406,0 0,-4.394531 -2.5625,-4.394532 z m 5.128906,-8.789063 2.5625,0 0,-1.832031 c 0,-0.914063 -0.0078,-1.75 -0.02344,-2.523437 z m -15.382812,8.789063 -5.125,-8.789063 -5.128907,8.789063 z m 10.253906,-17.578125 7.308594,0 C 46.5,1.832031 45.167969,0.960938 42.023438,0.6875 z m -30.761719,0 L 6.679688,0.636719 C 3.019531,0.84375 1.539062,1.632812 0.945312,4.589844 z m -5.125,8.789062 L 0.621094,7.824219 C 0.578125,8.898438 0.5625,10.132812 0.5625,11.546875 l 0,1.832031 z m 15.378906,26.367188 -4.484375,7.691406 8.972656,0 z m 10.253907,0 -4.484376,7.691406 8.972657,0 z M 2.59375,46.367188 0.992188,43.621094 c 0.292968,1.316406 0.785156,2.179687 1.601562,2.746094 z"
     style="fill:#ffffff;fill-opacity:0.0627451" />
  <path
     style="opacity:1;fill:#f9f9f9"
     inkscape:connector-curvature="0"
     d="m 28.475198,36.824685 c -0.447278,-0.21065 -0.73564,-0.498852 -0.908617,-0.908093 -0.250122,-0.591666 -0.189567,-0.868926 0.744212,-3.410019 2.251495,-6.126884 2.688129,-7.284355 2.813283,-7.45769 0.07398,-0.102473 0.302988,-0.296008 0.508911,-0.430105 0.3375,-0.219756 0.426454,-0.243 0.902728,-0.235771 0.290587,0.0043 0.593702,0.02126 0.67359,0.03749 0.208169,0.0422 0.252283,-0.182162 0.261,-1.328492 0.0085,-1.124924 -0.113741,-1.945005 -0.437216,-2.931149 -0.930855,-2.837856 -3.191329,-5.100913 -6.040144,-6.04704 -3.942567,-1.309369 -8.361617,0.131528 -10.753502,3.506315 -0.77608,1.094999 -1.369665,2.520216 -1.602907,3.848608 -0.118559,0.67517 -0.153921,2.122431 -0.06729,2.752172 l 0.04869,0.353976 0.271027,-0.06247 c 0.486624,-0.112181 1.149478,-0.0652 1.474647,0.104563 0.63917,0.333638 0.704151,0.455736 1.865711,3.505284 2.823123,7.411808 2.556255,6.650652 2.521644,7.192144 -0.0248,0.388651 -0.07632,0.55079 -0.25565,0.804965 -0.586215,0.830959 -1.706389,1.03854 -2.544952,0.471604 -0.152327,-0.102967 -0.308161,-0.187227 -0.346252,-0.187227 -0.03809,0 -0.227197,0.09978 -0.420183,0.221705 -0.437379,0.276343 -0.901049,0.350717 -1.438948,0.230776 -0.452384,-0.100843 -0.725212,-0.334984 -1.525365,-1.30888 -1.637507,-1.993111 -2.445498,-3.662193 -2.977636,-6.150997 -0.283783,-1.327309 -0.310393,-1.813886 -0.119303,-2.183368 0.174473,-0.337359 0.555899,-0.713048 0.877738,-0.864507 0.252708,-0.118913 0.251822,-0.110126 0.08784,-0.886762 -0.697235,-3.302316 0.09276,-6.840003 2.142219,-9.593014 3.552523,-4.772066 10.120794,-6.2498197 15.453397,-3.476761 3.313218,1.722941 5.679028,4.967412 6.305961,8.647997 0.245268,1.439968 0.217524,3.139799 -0.072,4.407693 -0.156543,0.685715 -0.145913,0.741069 0.174083,0.905042 0.332575,0.170433 0.629068,0.472603 0.805791,0.821293 0.171602,0.338598 0.127842,1.060331 -0.135709,2.239706 -0.607617,2.718663 -1.221559,3.987238 -3.156136,6.521457 -0.589758,0.772565 -0.911962,0.989919 -1.553329,1.047859 -0.368008,0.03331 -0.501565,0.0085 -0.841386,-0.155516 -0.22213,-0.107291 -0.460393,-0.236126 -0.529395,-0.28637 -0.103606,-0.0754 -0.176847,-0.05588 -0.4203,0.112217 -0.5711,0.394292 -1.18743,0.453423 -1.786284,0.171389 z"
     id="path20" />
</svg>
