<svg xmlns="http://www.w3.org/2000/svg" xmlns:svg="http://www.w3.org/2000/svg" xmlns:xlink="http://www.w3.org/1999/xlink" id="svg2" width="48" height="48" version="1.1" viewBox="0 0 13.547 13.547"><metadata id="metadata104"/><defs id="defs4"><clipPath id="clipPath6"><path id="path8" d="m 207,155.25 a 63.25,63.25 0 1 1 -126.5,0 A 63.25,63.25 0 1 1 207,155.25 Z" transform="matrix(.69565 0 0 .69565 44.00002 32.00003)"/></clipPath><clipPath id="clipPath10"><g id="g12"><path id="path14" fill="#2e3436" d="m 144,-116.99998 c -25.92184,0 -46.99999,21.078141 -46.99999,46.999986 0,25.921845 21.07815,46.99999 46.99999,46.99999 25.92184,0 46.99999,-21.078145 46.99999,-46.99999 0,-25.921845 -21.07815,-46.999986 -46.99999,-46.999986 z m 0,6 c 22.6792,0 40.99999,18.320784 40.99999,40.999986 0,22.679202 -18.32079,40.999991 -40.99999,40.999991 -22.6792,0 -40.99999,-18.320789 -40.99999,-40.999991 0,-22.679202 18.32079,-40.999986 40.99999,-40.999986 z" color="#000"/><path id="path16" fill="none" stroke="#000" d="m 144,-116.99998 c -25.92184,0 -46.99999,21.078141 -46.99999,46.999986 0,25.921845 21.07815,46.99999 46.99999,46.99999 25.92184,0 46.99999,-21.078145 46.99999,-46.99999 0,-25.921845 -21.07815,-46.999986 -46.99999,-46.999986 z m 0,6 c 22.6792,0 40.99999,18.320784 40.99999,40.999986 0,22.679202 -18.32079,40.999991 -40.99999,40.999991 -22.6792,0 -40.99999,-18.320789 -40.99999,-40.999991 0,-22.679202 18.32079,-40.999986 40.99999,-40.999986 z" color="#000"/></g></clipPath><clipPath id="clipPath18"><path id="path20" d="m 207,155.25 a 63.25,63.25 0 1 1 -126.5,0 63.25,63.25 0 1 1 126.5,0 z" transform="matrix(.69565 0 0 .69565 44.00002 32.00003)"/></clipPath><linearGradient id="0"><stop id="stop23" stop-color="#c8c8c8"/><stop id="stop25" offset="1" stop-color="#ebebeb"/></linearGradient><linearGradient id="1"><stop id="stop28" stop-color="#6c3c3c"/><stop id="stop30" offset="1" stop-color="#9a5757"/></linearGradient><clipPath id="clipPath32"><rect id="rect34" width="42" height="42" x="307" y="223" fill="url(#2)" color="#bebebe" rx="9" transform="matrix(0,1,-1,0,0,0)"/></clipPath><linearGradient id="2" x2="0" y1="280" y2="40" gradientTransform="matrix(0.175,0,0,0.175,302.79999,215.99997)" gradientUnits="userSpaceOnUse" xlink:href="#1"/><clipPath id="clipPath37"><rect id="rect39" width="22" height="22" x="433" y="85" fill="url(#3)" color="#bebebe" rx="4"/></clipPath><linearGradient id="3" x2="0" y1="291.43" y2="40" gradientTransform="matrix(0.0875,0,0,0.0875,430.9,81.499996)" gradientUnits="userSpaceOnUse" xlink:href="#1"/><clipPath id="clipPath42"><rect id="rect44" width="30" height="30" x="433" y="37" fill="url(#4)" color="#bebebe" rx="6"/></clipPath><linearGradient id="4" x2="0" y1="291.43" y2="40" gradientTransform="matrix(0.11931818,0,0,0.11931818,430.13636,32.227267)" gradientUnits="userSpaceOnUse" xlink:href="#1"/><clipPath id="clipPath47"><rect id="rect49" width="16" height="16" x="304" y="212" fill="url(#5)" color="#bebebe" rx="3" transform="matrix(0,1,-1,0,0,0)"/></clipPath><linearGradient id="5" x2="0" y1="280" y2="40" gradientTransform="matrix(0.06666667,0,0,0.06666667,302.4,209.33333)" gradientUnits="userSpaceOnUse" xlink:href="#1"/><clipPath id="clipPath52"><rect id="rect54" width="220" height="220" x="34" y="46" fill="url(#6)" color="#bebebe" rx="50"/></clipPath><linearGradient id="6" x2="0" y1="280" y2="40" gradientTransform="translate(0,-4)" gradientUnits="userSpaceOnUse" xlink:href="#1"/><clipPath id="clipPath57"><rect id="rect59" width="60" height="60" x="290" y="142" fill="url(#7)" color="#bebebe" rx="12.5"/></clipPath><linearGradient id="7" x2="0" y1="204" y2="140" gradientUnits="userSpaceOnUse" xlink:href="#1"/><clipPath id="clipPath62"><rect id="rect64" width="88" height="88" x="292" y="32" fill="url(#8)" color="#bebebe" rx="18"/></clipPath><linearGradient id="8" x2="0" y1="124" y2="28" gradientUnits="userSpaceOnUse" xlink:href="#1"/><clipPath id="clipPath67"><rect id="rect69" width="22" height="22" x="417" y="101" fill="url(#9)" color="#bebebe" rx="5"/></clipPath><linearGradient id="9" x2="0" y1="302.86" y2="28.571" gradientTransform="matrix(0.0875,0,0,0.0875,414.9,97.5)" gradientUnits="userSpaceOnUse" xlink:href="#1"/><clipPath id="clipPath72"><rect id="rect74" width="30" height="30" x="417" y="53" fill="url(#A)" color="#bebebe" rx="7"/></clipPath><linearGradient id="A" x2="0" y1="299.81" y2="31.619" gradientTransform="matrix(0.11931818,0,0,0.11931818,414.13636,48.22727)" gradientUnits="userSpaceOnUse" xlink:href="#1"/><clipPath id="clipPath77"><path id="path79" d="m 354.86109,118 c -1.8996,-12.45313 -13.15124,-10.92696 -20.45752,-20.554999 -4.49745,-5.081917 -6.90039,-18.152021 2.43544,-27.37416 -1.1041,9.579323 0.17861,13.6059 5.45531,17.924775 -2.35422,-4.952062 -3.08439,-11.995623 -0.82801,-16.853182 2.76375,-5.949983 10.39112,-12.87528 10.52102,-19.142434 4.36202,2.178866 7.92821,8.352919 5.94243,14.368984 -3.85543,11.680556 0.10189,12.135543 1.94832,13.248716 -0.37991,-7.072519 1.0237,-8.206151 2.38673,-10.423628 1.02898,7.51113 12.13245,12.469545 11.25168,21.870132 -0.54446,5.811093 -5.52033,11.186756 -9.69301,14.563846 0.37909,-7.615119 0.0767,-8.633953 -7.11146,-14.612521 -2.75975,-2.295398 -3.9291,-3.912975 -5.30916,-6.867919 -0.85908,2.610094 -2.43714,6.487429 3.26799,14.45466 5.21391,7.28145 0.61392,16.7798 0.19057,19.39773 z"/></clipPath><linearGradient id="B" x2="0" y1="1050.36" y2="1006.36" gradientTransform="matrix(0.28222223,0,0,0.28222223,-13.546668,-283.45334)" gradientUnits="userSpaceOnUse" xlink:href="#0"/><radialGradient id="radialGradient3001" cx="148.004" cy="160" r="128" gradientTransform="matrix(0.1831,0,0,0.1831,-3.10079,-5.29638)" gradientUnits="userSpaceOnUse" xlink:href="#radial0"/><radialGradient id="radial0" cx="148.004" cy="160" r="128" gradientTransform="matrix(0.1831,0,0,0.1831,-3.10029,-5.29688)" gradientUnits="userSpaceOnUse"><stop id="stop7" offset="0" stop-color="#f8e99b" stop-opacity="1"/><stop id="stop9" offset="1" stop-color="#efcc15" stop-opacity="1"/></radialGradient><radialGradient id="radialGradient3027" cx="148.004" cy="160" r="128" gradientTransform="matrix(0.05167489,0,0,0.05167489,-0.87511191,-1.4947617)" gradientUnits="userSpaceOnUse" xlink:href="#radial0"/></defs><path id="path11" fill="url(#radialGradient3027)" d="m 13.387776,3.2589204 0,7.0290976 c 0,2.892778 0,3.100035 -3.100035,3.100035 l -7.0279949,0 c -3.10113721,0 -3.10113721,-0.207257 -3.10113721,-3.100035 l 0,-7.0290976 c 0,-2.89277779 0,-3.10003479 3.10113721,-3.10003479 l 7.0279949,0 c 3.100035,0 3.100035,0.207257 3.100035,3.10003479 z"/><path id="path15" fill="#fff" fill-opacity=".051" d="m 10.799269,13.388053 c 0.717682,-0.0033 1.235825,-0.02315 1.611753,-0.124575 l -1.193932,-2.046111 -1.2655902,2.170686 0.3362412,0 c 0.180799,0 0.350573,0 0.511528,0 z M 11.21709,11.217367 9.7707008,8.7368981 8.3232098,11.217367 z m 0,0 2.159662,0 c 0.0088,-0.274505 0.01102,-0.582083 0.01102,-0.930451 l 0,-0.3097839 -0.723194,-1.240234 z M 12.664582,8.7368981 11.21709,6.2564292 9.7707008,8.7368981 z m 0,0 0.723194,0 0,-1.2402345 z m -2.8938812,0 -1.447491,-2.4804689 -1.446389,2.4804689 z m -2.89388,0 -1.447491,2.4804689 2.89388,0 z m 0,0 -1.447491,-2.4804689 -1.4463893,2.4804689 z m -2.8938803,0 -1.4474913,2.4804689 2.8938806,0 z m 0,0 L 2.5354492,6.2564292 1.0890603,8.7368981 z m -2.8938802,0 -0.93045141,1.5941149 c 0,0.329627 0.00331,0.623976 0.011024,0.886354 l 2.36581621,0 z m 0,0 -0.93045141,-1.5941147 0,1.5941147 z m 1.4463889,2.4804689 -1.2170833,2.086901 c 0.450894,0.08268 1.0748699,0.08379 1.9413802,0.08379 l 0.5423958,0 z m 0,-4.9609378 -1.4463889,-2.4804689 -0.93045141,1.5941147 0,0.8863542 z m 0,0 2.8938806,0 L 3.9829405,3.7759603 z M 3.9829405,3.7759603 2.5354492,1.2954916 1.0890603,3.7759603 z m 0,0 2.8938803,0 -1.447491,-2.4804687 z m 1.4463893,-2.4804687 -0.663663,-1.13660599 -1.5059207,0 c -0.02205,0 -0.039688,0 -0.060634,0 L 2.5354492,1.2954916 z m 0,0 2.89388,0 -0.663663,-1.13660599 -1.566554,0 z m 2.89388,0 2.8938802,0 -0.663663,-1.13660599 c -0.0882,0 -0.171979,0 -0.265686,0 l -1.3008682,0 z m 0,0 -1.446389,2.4804687 2.89388,0 z m 1.447491,2.4804687 2.8938812,0 -1.447492,-2.4804687 z m 0,0 -1.447491,2.4804689 2.8938802,0 z m 1.4463892,2.4804689 2.170686,0 0,-1.2402343 -0.723194,-1.2402346 z m 1.447492,-2.4804689 0.723194,0 0,-0.5170399 c 0,-0.2579689 -0.0022,-0.4938889 -0.0066,-0.71217 z M 8.3232098,6.2564292 6.8768208,3.7759603 5.4293298,6.2564292 z m 2.8938802,-4.9609376 2.062648,0 C 13.123193,0.51717551 12.747264,0.27133371 11.859807,0.19416341 z m -8.6816408,0 L 1.8850153,0.17983191 C 0.85203769,0.23826061 0.43421639,0.46095151 0.26664699,1.2954916 z M 1.0890603,3.7759603 0.17514549,2.2083041 c -0.012127,0.3031685 -0.016535,0.6515363 -0.016535,1.0506163 l 0,0.5170399 z m 4.3402695,7.4414067 -1.2655907,2.170686 2.5322827,0 z m 2.89388,0 -1.26559,2.170686 2.532283,0 z m -7.59133701,1.86862 -0.4519964,-0.775009 c 0.082682,0.371519 0.2215885,0.615157 0.4519964,0.775009 z"/><path id="path98" fill="#f9f9f9" fill-opacity="1" d="M 24.4375 9 A 15.000001 15.000001 0 0 0 9 24 A 15.000001 15.000001 0 0 0 39 24 A 15.000001 15.000001 0 0 0 24.4375 9 z M 24.21875 16 A 8 8.0000001 0 0 1 32 24 A 8 8.0000001 0 1 1 16 24 A 8 8.0000001 0 0 1 24.21875 16 z" transform="scale(0.28222223,0.28222223)"/></svg>