<svg xmlns="http://www.w3.org/2000/svg" xmlns:svg="http://www.w3.org/2000/svg" xmlns:xlink="http://www.w3.org/1999/xlink" id="svg2" width="48" height="48" version="1.1" viewBox="0 0 13.547 13.547"><metadata id="metadata301"/><defs id="defs4"><clipPath id="clipPath6"><path id="path8" d="m 328,256 15,11 0,-27 -15,0 z"/></clipPath><clipPath id="clipPath10"><rect id="rect12" width="90" height="90" x="307" y="31" fill="url(#A)" color="#bebebe" rx="18.75"/></clipPath><clipPath id="clipPath14"><path id="path16" d="m 328,242.09376 c -7.73199,0 -14,6.26801 -14,14 0,7.73199 6.26801,14 14,14 7.73199,0 14,-6.26801 14,-14 0,-7.73199 -6.26801,-14 -14,-14 z m 0,9.90625 c 2.20914,0 4,1.79086 4,4 0,2.20914 -1.79086,4 -4,4 -2.20914,0 -4,-1.79086 -4,-4 0,-2.20914 1.79086,-4 4,-4 z m 0,1 c -1.65685,0 -3,1.34315 -3,3 0,1.65685 1.34315,3 3,3 1.65685,0 3,-1.34315 3,-3 0,-1.65685 -1.34315,-3 -3,-3 z m 0,1 c 1.10457,0 2,0.89543 2,2 0,1.10457 -0.89543,2 -2,2 -1.10457,0 -2,-0.89543 -2,-2 0,-1.10457 0.89543,-2 2,-2 z"/></clipPath><clipPath id="clipPath18"><rect id="rect20" width="42" height="42" x="307" y="223" fill="url(#3)" color="#bebebe" rx="9" transform="rotate(90)"/></clipPath><clipPath id="clipPath22"><rect id="rect24" width="60" height="60" x="306" y="142" fill="url(#C)" color="#bebebe" rx="12.5" transform="matrix(0 -1 1 0 0 0)"/></clipPath><clipPath id="clipPath26"><rect id="rect28" width="16" height="16" x="432" y="116" fill="#6d6d6d" color="#bebebe" opacity=".2" rx="2"/></clipPath><clipPath id="clipPath30"><rect id="rect32" width="42" height="42" x="307" y="223" fill="url(#B)" color="#bebebe" rx="9" transform="rotate(90)"/></clipPath><clipPath id="clipPath34"><rect id="rect36" width="22" height="22" x="433" y="77" fill="#6d6d6d" color="#bebebe" opacity=".2" rx="3"/></clipPath><clipPath id="clipPath38"><rect id="rect40" width="22" height="22" x="433" y="77" color="#bebebe" rx="5"/></clipPath><clipPath id="clipPath42"><rect id="rect44" width="30" height="30" x="433" y="29" color="#bebebe" rx="6"/></clipPath><clipPath id="clipPath46"><rect id="rect48" width="20" height="20" x="434" y="78" color="#bebebe" rx="4"/></clipPath><clipPath id="clipPath50"><rect id="rect52" width="22" height="22" x="433" y="77" fill="#6d6d6d" color="#bebebe" opacity=".2" rx="3"/></clipPath><clipPath id="clipPath54"><rect id="rect56" width="16" height="16" x="432" y="116" fill="#6d6d6d" color="#bebebe" opacity=".2" rx="2"/></clipPath><clipPath id="clipPath58"><rect id="rect60" width="30" height="30" x="433" y="29" fill="#6d6d6d" color="#bebebe" opacity=".2" rx="4"/></clipPath><clipPath id="clipPath62"><rect id="rect64" width="22" height="22" x="433" y="77" color="#bebebe" rx="4"/></clipPath><clipPath id="clipPath66"><rect id="rect68" width="16" height="16" x="432" y="116" color="#bebebe" rx="3"/></clipPath><clipPath id="clipPath70"><rect id="rect72" width="240" height="240" x="24" y="36" fill="#986767" color="#bebebe" rx="50"/></clipPath><clipPath id="clipPath74"><rect id="rect76" width="60" height="60" x="306" y="142" fill="url(#2)" color="#bebebe" rx="12.5" transform="matrix(0 -1 1 0 0 0)"/></clipPath><clipPath id="clipPath78"><path id="path80" d="m 328,238 c -7.73199,0 -14,6.26801 -14,14 0,7.73199 6.26801,14 14,14 7.73199,0 14,-6.26801 14,-14 0,-7.73199 -6.26801,-14 -14,-14 z m 0,8.75 c 2.89949,0 5.25,2.35051 5.25,5.25 0,2.89949 -2.35051,5.25 -5.25,5.25 -2.89949,0 -5.25,-2.35051 -5.25,-5.25 0,-2.89949 2.35051,-5.25 5.25,-5.25 z m 0,1.75 c -1.933,0 -3.5,1.567 -3.5,3.5 0,1.933 1.567,3.5 3.5,3.5 1.933,0 3.5,-1.567 3.5,-3.5 0,-1.933 -1.567,-3.5 -3.5,-3.5 z m 0,1.75 c 0.96649,0 1.75,0.78351 1.75,1.75 0,0.96649 -0.78351,1.75 -1.75,1.75 -0.96649,0 -1.75,-0.78351 -1.75,-1.75 0,-0.96649 0.78351,-1.75 1.75,-1.75 z"/></clipPath><clipPath id="clipPath82"><path id="path84" d="m 144.00001,75.999997 c -44.1828,0 -80,35.817203 -80,80.000003 0,44.1828 35.8172,80 80,80 44.1828,0 80,-35.8172 80,-80 0,-44.1828 -35.8172,-80.000003 -80,-80.000003 z m 0,56.607143 c 12.62366,0 22.85714,10.23349 22.85714,22.85714 0,12.62366 -10.23348,22.85714 -22.85714,22.85714 -12.62366,0 -22.85714,-10.23348 -22.85714,-22.85714 0,-12.62365 10.23348,-22.85714 22.85714,-22.85714 z m 0,5.71429 c -9.46771,0 -17.14286,7.67514 -17.14286,17.14285 0,9.46772 7.67515,17.14286 17.14286,17.14286 9.46771,0 17.14286,-7.67514 17.14286,-17.14286 0,-9.46771 -7.67515,-17.14285 -17.14286,-17.14285 z m 0,5.71428 c 6.31183,0 11.42857,5.11674 11.42857,11.42857 0,6.31183 -5.11674,11.42857 -11.42857,11.42857 -6.31183,0 -11.42857,-5.11674 -11.42857,-11.42857 0,-6.31183 5.11674,-11.42857 11.42857,-11.42857 z"/></clipPath><clipPath id="clipPath86"><path id="path88" d="m 440,126 c -3.31371,0 -6,2.68629 -6,6 0,3.31371 2.68629,6 6,6 3.31371,0 6,-2.68629 6,-6 0,-3.31371 -2.68629,-6 -6,-6 z m 0,3 c 1.65685,0 3,1.34315 3,3 0,1.65685 -1.34315,3 -3,3 -1.65685,0 -3,-1.34315 -3,-3 0,-1.65685 1.34315,-3 3,-3 z m 0,1 c -1.10457,0 -2,0.89543 -2,2 0,1.10457 0.89543,2 2,2 1.10457,0 2,-0.89543 2,-2 0,-1.10457 -0.89543,-2 -2,-2 z m 0,1 c 0.55228,0 1,0.44772 1,1 0,0.55228 -0.44772,1 -1,1 -0.55228,0 -1,-0.44772 -1,-1 0,-0.55228 0.44772,-1 1,-1 z"/></clipPath><clipPath id="clipPath90"><rect id="rect92" width="20" height="20" x="434" y="78" color="#bebebe" rx="4"/></clipPath><clipPath id="clipPath94"><rect id="rect96" width="240" height="240" x="24" y="36" fill="#986767" color="#bebebe" rx="50"/></clipPath><clipPath id="clipPath98"><path id="path100" d="m 444,88 c -4.41828,0 -8,3.58172 -8,8 0,4.41828 3.58172,8 8,8 4.41828,0 8,-3.58172 8,-8 0,-4.41828 -3.58172,-8 -8,-8 z m 0,5 c 1.65685,0 3,1.34315 3,3 0,1.65685 -1.34315,3 -3,3 -1.65685,0 -3,-1.34315 -3,-3 0,-1.65685 1.34315,-3 3,-3 z m 0,1 c -1.10457,0 -2,0.89543 -2,2 0,1.10457 0.89543,2 2,2 1.10457,0 2,-0.89543 2,-2 0,-1.10457 -0.89543,-2 -2,-2 z m 0,1 c 0.55228,0 1,0.44772 1,1 0,0.55228 -0.44772,1 -1,1 -0.55228,0 -1,-0.44772 -1,-1 0,-0.55228 0.44772,-1 1,-1 z"/></clipPath><clipPath id="clipPath102"><rect id="rect104" width="30" height="30" x="433" y="29" color="#bebebe" rx="6"/></clipPath><clipPath id="clipPath106"><rect id="rect108" width="22" height="22" x="433" y="77" color="#bebebe" rx="4"/></clipPath><clipPath id="clipPath110"><path id="path112" d="m 328,242.09375 c -7.73199,0 -14,6.26801 -14,14 0,7.73199 6.26801,14 14,14 7.73199,0 14,-6.26801 14,-14 0,-7.73199 -6.26801,-14 -14,-14 z M 328,252 c 2.20914,0 4,1.79086 4,4 0,2.20914 -1.79086,4 -4,4 -2.20914,0 -4,-1.79086 -4,-4 0,-2.20914 1.79086,-4 4,-4 z m 0,1 c -1.65685,0 -3,1.34315 -3,3 0,1.65685 1.34315,3 3,3 1.65685,0 3,-1.34315 3,-3 0,-1.65685 -1.34315,-3 -3,-3 z m 0,1 c 1.10457,0 2,0.89543 2,2 0,1.10457 -0.89543,2 -2,2 -1.10457,0 -2,-0.89543 -2,-2 0,-1.10457 0.89543,-2 2,-2 z"/></clipPath><clipPath id="clipPath114"><rect id="rect116" width="16" height="16" x="432" y="116" color="#bebebe" rx="3"/></clipPath><clipPath id="clipPath118"><path id="path120" d="m 328,238 c -7.73199,0 -14,6.26801 -14,14 0,7.73199 6.26801,14 14,14 7.73199,0 14,-6.26801 14,-14 0,-7.73199 -6.26801,-14 -14,-14 z m 0,9.90625 c 2.20914,0 4,1.79086 4,4 0,2.20914 -1.79086,4 -4,4 -2.20914,0 -4,-1.79086 -4,-4 0,-2.20914 1.79086,-4 4,-4 z m 0,1 c -1.65685,0 -3,1.34315 -3,3 0,1.65685 1.34315,3 3,3 1.65685,0 3,-1.34315 3,-3 0,-1.65685 -1.34315,-3 -3,-3 z m 0,1 c 1.10457,0 2,0.89543 2,2 0,1.10457 -0.89543,2 -2,2 -1.10457,0 -2,-0.89543 -2,-2 0,-1.10457 0.89543,-2 2,-2 z"/></clipPath><clipPath id="clipPath122"><rect id="rect124" width="90" height="90" x="307" y="31" fill="url(#4)" color="#bebebe" rx="18.75"/></clipPath><clipPath id="clipPath126"><rect id="rect128" width="22" height="22" x="433" y="77" color="#bebebe" rx="5"/></clipPath><clipPath id="clipPath130"><path id="path132" d="m 451.38843,127.3713 c -3.31371,0 -6,2.68629 -6,6 0,3.31371 2.68629,6 6,6 3.31371,0 6,-2.68629 6,-6 0,-3.31371 -2.68629,-6 -6,-6 z m 0,3 c 1.65685,0 3,1.34315 3,3 0,1.65685 -1.34315,3 -3,3 -1.65685,0 -3,-1.34315 -3,-3 0,-1.65685 1.34315,-3 3,-3 z m 0,1 c -1.10457,0 -2,0.89543 -2,2 0,1.10457 0.89543,2 2,2 1.10457,0 2,-0.89543 2,-2 0,-1.10457 -0.89543,-2 -2,-2 z m 0,1 c 0.55228,0 1,0.44772 1,1 0,0.55228 -0.44772,1 -1,1 -0.55228,0 -1,-0.44772 -1,-1 0,-0.55228 0.44772,-1 1,-1 z"/></clipPath><clipPath id="clipPath134"><path id="path136" d="m 451.38843,133.3713 6.42857,4.71429 0,-11.57143 -6.42857,0 z"/></clipPath><clipPath id="clipPath138"><rect id="rect140" width="16" height="16" x="432" y="116" fill="#6d6d6d" color="#bebebe" opacity=".2" rx="2"/></clipPath><clipPath id="clipPath142"><rect id="rect144" width="30" height="30" x="433" y="29" fill="#6d6d6d" color="#bebebe" opacity=".2" rx="4"/></clipPath><clipPath id="clipPath146"><rect id="rect148" width="16" height="16" x="432" y="116" color="#bebebe" rx="3"/></clipPath><clipPath id="clipPath150"><rect id="rect152" width="240" height="240" x="24" y="36" fill="#986767" color="#bebebe" rx="50"/></clipPath><clipPath id="clipPath154"><rect id="rect156" width="22" height="22" x="433" y="77" color="#bebebe" rx="5"/></clipPath><clipPath id="clipPath158"><rect id="rect160" width="22" height="22" x="433" y="77" color="#bebebe" rx="4"/></clipPath><clipPath id="clipPath162"><rect id="rect164" width="20" height="20" x="434" y="78" color="#bebebe" rx="4"/></clipPath><clipPath id="clipPath166"><rect id="rect168" width="90" height="90" x="307" y="31" fill="url(#8)" color="#bebebe" rx="18.75"/></clipPath><clipPath id="clipPath170"><rect id="rect172" width="30" height="30" x="433" y="29" color="#bebebe" rx="6"/></clipPath><clipPath id="clipPath174"><rect id="rect176" width="22" height="22" x="433" y="77" fill="#6d6d6d" color="#bebebe" opacity=".2" rx="3"/></clipPath><clipPath id="clipPath178"><rect id="rect180" width="60" height="60" x="306" y="142" fill="url(#D)" color="#bebebe" rx="12.5" transform="matrix(0 -1 1 0 0 0)"/></clipPath><clipPath id="clipPath182"><rect id="rect184" width="42" height="42" x="307" y="223" fill="url(#9)" color="#bebebe" rx="9" transform="rotate(90)"/></clipPath><clipPath id="clipPath186"><rect id="rect188" width="30" height="30" x="433" y="29" fill="#6d6d6d" color="#bebebe" opacity=".2" rx="4"/></clipPath><linearGradient id="linearGradient190" x2="0" y1="273" y2="231" gradientTransform="translate(0 4.09376)" gradientUnits="userSpaceOnUse" xlink:href="#7"/><linearGradient id="1"><stop id="stop193" stop-color="#f0f0f0"/><stop id="stop195" offset="1" stop-color="#f8f8f8"/></linearGradient><linearGradient id="2" x2="0" y1="230" y2="90" gradientTransform="matrix(.25 0 0 .25 299.99999 131.99999)" gradientUnits="userSpaceOnUse" xlink:href="#1"/><linearGradient id="linearGradient198" x2="0" y1="140" y2="124" gradientTransform="translate(11.38843 1.3713)" gradientUnits="userSpaceOnUse" xlink:href="#7"/><linearGradient id="linearGradient200" x2="0" y1="273" y2="231" gradientTransform="matrix(5.71429 0 0 5.71429 -1730.2857 -1284)" gradientUnits="userSpaceOnUse" xlink:href="#7"/><linearGradient id="3" x2="0" y1="280" y2="40" gradientTransform="matrix(.175 0 0 .175 302.79999 215.99997)" gradientUnits="userSpaceOnUse" xlink:href="#1"/><linearGradient id="4" x2="0" y1="230" y2="90" gradientTransform="matrix(.375 0 0 .375 298 16)" gradientUnits="userSpaceOnUse" xlink:href="#1"/><linearGradient id="5"><stop id="stop205" stop-color="#aeaeae"/><stop id="stop207" offset="1" stop-color="#cdcdcd"/></linearGradient><linearGradient id="linearGradient209" x2="0" y1="140" y2="124" gradientUnits="userSpaceOnUse" xlink:href="#7"/><linearGradient id="6"><stop id="stop212" stop-color="#eaba31"/><stop id="stop214" offset="1" stop-color="#ff9200"/></linearGradient><linearGradient id="linearGradient216" x2="0" y1="140" y2="124" gradientTransform="translate(11.38843 1.3713)" gradientUnits="userSpaceOnUse" xlink:href="#7"/><linearGradient id="linearGradient218" x2="0" y1="107" y2="85" gradientUnits="userSpaceOnUse" xlink:href="#7"/><linearGradient id="7"><stop id="stop221" stop-color="#818181"/><stop id="stop223" offset="1" stop-color="#c5c5c5"/></linearGradient><linearGradient id="8" x2="0" y1="230" y2="90" gradientTransform="matrix(.375 0 0 .375 298 16)" gradientUnits="userSpaceOnUse" xlink:href="#1"/><linearGradient id="linearGradient226" x2="0" y1="107" y2="85" gradientUnits="userSpaceOnUse" xlink:href="#7"/><linearGradient id="linearGradient228" x2="0" y1="273" y2="231" gradientTransform="matrix(5.71429 0 0 5.71429 -1730.2857 -1284)" gradientUnits="userSpaceOnUse" xlink:href="#7"/><linearGradient id="linearGradient230" x2="0" y1="140" y2="124" gradientUnits="userSpaceOnUse" xlink:href="#7"/><linearGradient id="linearGradient232" x2="0" y1="273" y2="231" gradientTransform="matrix(5.71429 0 0 5.71429 -1730.2857 -1284)" gradientUnits="userSpaceOnUse" xlink:href="#7"/><linearGradient id="9" x2="0" y1="280" y2="40" gradientTransform="matrix(.175 0 0 .175 302.79999 215.99997)" gradientUnits="userSpaceOnUse" xlink:href="#1"/><linearGradient id="linearGradient235" x2="0" y1="107" y2="85" gradientUnits="userSpaceOnUse" xlink:href="#7"/><linearGradient id="linearGradient237" x2="0" y1="140" y2="124" gradientTransform="translate(11.38843 1.3713)" gradientUnits="userSpaceOnUse" xlink:href="#7"/><linearGradient id="linearGradient239" x2="0" y1="273" y2="231" gradientTransform="translate(0 4.09376)" gradientUnits="userSpaceOnUse" xlink:href="#7"/><linearGradient id="linearGradient241" x2="0" y1="273" y2="231" gradientTransform="translate(0 4.09376)" gradientUnits="userSpaceOnUse" xlink:href="#7"/><linearGradient id="linearGradient243" x2="0" y1="140" y2="124" gradientUnits="userSpaceOnUse" xlink:href="#7"/><linearGradient id="A" x2="0" y1="230" y2="90" gradientTransform="matrix(.375 0 0 .375 298 16)" gradientUnits="userSpaceOnUse" xlink:href="#1"/><linearGradient id="B" x2="0" y1="280" y2="40" gradientTransform="matrix(.175 0 0 .175 302.79999 215.99997)" gradientUnits="userSpaceOnUse" xlink:href="#1"/><linearGradient id="C" x2="0" y1="230" y2="90" gradientTransform="matrix(.25 0 0 .25 299.99999 131.99999)" gradientUnits="userSpaceOnUse" xlink:href="#1"/><linearGradient id="D" x2="0" y1="230" y2="90" gradientTransform="matrix(.25 0 0 .25 299.99999 131.99999)" gradientUnits="userSpaceOnUse" xlink:href="#1"/><radialGradient id="radialGradient249" cx="328" cy="255.42" r="7" gradientTransform="matrix(1.22449 0 0 1.22449 49.7555 -179.34296)" gradientUnits="userSpaceOnUse" xlink:href="#6"/><radialGradient id="radialGradient251" cx="328" cy="255.42" r="7" gradientTransform="matrix(2.85714 0 0 2.85714 -609.14349 -473.66662)" gradientUnits="userSpaceOnUse" xlink:href="#6"/><radialGradient id="radialGradient253" cx="328" cy="255.42" r="7" gradientTransform="matrix(2.85714 0 0 2.85714 -609.14349 -473.66662)" gradientUnits="userSpaceOnUse" xlink:href="#6"/><radialGradient id="radialGradient255" cx="328" cy="255.42" r="7" gradientTransform="matrix(1.22449 0 0 1.22449 49.7555 -179.34296)" gradientUnits="userSpaceOnUse" xlink:href="#6"/><radialGradient id="radialGradient257" cx="328" cy="255.42" r="7" gradientTransform="matrix(2.85714 0 0 2.85714 -609.14349 -473.66662)" gradientUnits="userSpaceOnUse" xlink:href="#6"/><radialGradient id="radialGradient259" cx="328" cy="255.42" r="7" gradientTransform="matrix(1.22449 0 0 1.22449 49.7555 -179.34296)" gradientUnits="userSpaceOnUse" xlink:href="#6"/><linearGradient id="E" x2="0" y1="1050.36" y2="1006.36" gradientTransform="matrix(0.28222223,0,0,0.28222223,0,-283.45334)" gradientUnits="userSpaceOnUse" xlink:href="#5"/><radialGradient id="radialGradient3005" cx="148.004" cy="160" r="128" gradientTransform="matrix(0.1831,0,0,0.1831,-3.10079,-5.29638)" gradientUnits="userSpaceOnUse" xlink:href="#radial0"/><radialGradient id="radial0" cx="148.004" cy="160" r="128" gradientTransform="matrix(0.1831,0,0,0.1831,-3.10029,-5.29688)" gradientUnits="userSpaceOnUse"><stop id="stop7" offset="0" stop-color="#e2b9b7"/><stop id="stop9" offset="1" stop-color="#9c0008"/></radialGradient><radialGradient id="radialGradient3009" cx="148.004" cy="160" r="128" gradientTransform="matrix(0.05167489,0,0,0.05167489,-0.87511191,-1.4947612)" gradientUnits="userSpaceOnUse" xlink:href="#radial0"/></defs><path id="path11" fill="url(#radialGradient3009)" d="m 13.387776,3.2589209 0,7.0290971 c 0,2.892778 0,3.100035 -3.100035,3.100035 l -7.0279949,0 c -3.10113721,0 -3.10113721,-0.207257 -3.10113721,-3.100035 l 0,-7.0290971 c 0,-2.89277789 0,-3.10003479 3.10113721,-3.10003479 l 7.0279949,0 c 3.100035,0 3.100035,0.2072569 3.100035,3.10003479 z"/><path id="path15" fill="#fff" fill-opacity=".051" d="m 10.799269,13.388053 c 0.717682,-0.0033 1.235825,-0.02315 1.611753,-0.124575 l -1.193932,-2.046111 -1.2655902,2.170686 0.3362412,0 c 0.180799,0 0.350573,0 0.511528,0 z M 11.21709,11.217367 9.7707012,8.7368984 8.3232099,11.217367 z m 0,0 2.159662,0 c 0.0088,-0.274505 0.01102,-0.582083 0.01102,-0.930451 l 0,-0.3097833 -0.723194,-1.2402343 z M 12.664582,8.7368984 11.21709,6.2564297 9.7707012,8.7368984 z m 0,0 0.723194,0 0,-1.2402343 z m -2.8938808,0 L 8.3232099,6.2564297 6.876821,8.7368984 z m -2.8938802,0 -1.4474916,2.4804686 2.8938805,0 z m 0,0 L 5.4293294,6.2564297 3.9829405,8.7368984 z m -2.8938805,0 -1.4474913,2.4804686 2.8938802,0 z m 0,0 L 2.5354492,6.2564297 1.0890603,8.7368984 z m -2.8938802,0 -0.93045141,1.5941146 c 0,0.329627 0.00331,0.623976 0.011024,0.886354 l 2.36581621,0 z m 0,0 -0.93045141,-1.5941145 0,1.5941145 z m 1.4463889,2.4804686 -1.2170833,2.086901 c 0.450894,0.08268 1.0748699,0.08379 1.9402778,0.08379 l 0.5434982,0 z m 0,-4.9609373 -1.4463889,-2.4804689 -0.93045141,1.5941147 0,0.8863542 z m 0,0 2.8938802,0 L 3.9829405,3.7759608 z M 3.9829405,3.7759608 2.5354492,1.2954921 1.0890603,3.7759608 z m 0,0 2.8938805,0 -1.4474916,-2.4804687 z m 1.4463889,-2.4804687 -0.663663,-1.13660599 -1.5070227,0 c -0.020946,0 -0.038585,0 -0.059531,0 L 2.5354493,1.2954921 z m 0,0 2.8938805,0 -0.6636633,-1.13660599 -1.5665538,0 z m 2.8938805,0 2.8938801,0 -0.663663,-1.13660599 c -0.0882,0 -0.171979,0 -0.266788,0 l -1.299766,0 z m 0,0 -1.4463889,2.4804687 2.8938802,0 z m 1.4474913,2.4804687 2.8938808,0 -1.447492,-2.4804687 z m 0,0 -1.4474913,2.4804689 2.8938801,0 z m 1.4463888,2.4804689 2.170686,0 0,-1.2402343 -0.723194,-1.2402346 z m 1.447492,-2.4804689 0.723194,0 0,-0.5170399 c 0,-0.2579689 -0.0022,-0.4938889 -0.0066,-0.71217 z M 8.3232099,6.2564297 6.876821,3.7759608 5.4293294,6.2564297 z m 2.8938801,-4.9609376 2.062648,0 C 13.123193,0.51717601 12.747264,0.27133421 11.859807,0.19416391 z m -8.6816408,0 L 1.8850153,0.17983231 C 0.85203759,0.23826131 0.43421639,0.46095191 0.26664689,1.2954921 z M 1.0890603,3.7759608 0.17514539,2.2083046 c -0.012127,0.3031685 -0.016535,0.6515363 -0.016535,1.0506163 l 0,0.5170399 z m 4.3402691,7.4414062 -1.2655903,2.170686 2.532283,0 z m 2.8938805,0 -1.2655906,2.170686 2.5322833,0 z m -7.59133711,1.86862 -0.4519964,-0.775009 c 0.082682,0.371519 0.2215884,0.615157 0.4519964,0.775009 z"/><path id="path278" fill="#f9f9f9" fill-opacity="1" d="M 23.84375 11 C 22.771658 11.004858 21.744608 11.092342 20.84375 11.25 C 19.822074 11.428525 19.130471 11.684641 18.65625 12.03125 C 18.637557 12.044913 18.611749 12.048547 18.59375 12.0625 C 18.502623 12.133179 18.449406 12.234414 18.375 12.3125 C 18.32284 12.366994 18.263285 12.410434 18.21875 12.46875 C 18.201228 12.491485 18.172665 12.507928 18.15625 12.53125 C 18.062028 12.667075 17.998022 12.812267 17.9375 12.96875 C 17.902871 13.058162 17.868868 13.153504 17.84375 13.25 C 17.838763 13.269275 17.848389 13.29294 17.84375 13.3125 C 17.803925 13.479494 17.767078 13.654997 17.75 13.84375 C 17.731636 14.042501 17.718771 14.245004 17.71875 14.46875 L 17.71875 16 L 17.71875 16.84375 L 23.96875 16.84375 L 23.96875 17.625 L 17.71875 17.625 L 15.34375 17.625 C 13.521138 17.625 11.936686 18.719993 11.4375 20.78125 C 10.861694 23.143897 10.836153 24.626746 11.4375 27.09375 C 11.883283 28.930076 12.958638 30.21875 14.78125 30.21875 L 16.625 30.21875 L 16.625 27.09375 C 16.625 25.046419 18.404482 23.21875 20.53125 23.21875 L 27.125 23.21875 C 28.868669 23.21875 30.499923 21.825742 30.5 20.09375 L 30.5 16 L 30.5 15.46875 L 30.5 15.40625 C 31.758398 15.922596 32.456183 15.080944 33.28125 14.03125 L 31.9375 14.03125 C 32.33558 13.335777 32.277083 12.890381 32.0625 12.15625 C 31.166514 12.301102 30.662699 12.978199 30.34375 13.59375 C 30.304355 13.497686 30.263525 13.401328 30.21875 13.3125 C 30.208592 13.29279 30.198132 13.269498 30.1875 13.25 C 30.117245 13.118403 30.02666 12.995386 29.9375 12.875 C 29.915163 12.84484 29.8984 12.810644 29.875 12.78125 C 29.746018 12.620249 29.596356 12.483971 29.4375 12.34375 C 29.313793 12.236129 29.198684 12.120421 29.0625 12.03125 L 29.03125 12.03125 C 28.463758 11.644763 27.801496 11.361517 27.125 11.25 C 26.047685 11.072632 24.915839 10.995073 23.84375 11 z M 20.09375 12.5 A 1.5 1.5 0 0 1 21.875 13.96875 A 1.5 1.5 0 0 1 18.875 13.96875 A 1.5 1.5 0 0 1 20.09375 12.5 z" transform="scale(0.28222223,0.28222223)"/><path id="path287" fill="#f9f9f9" fill-opacity="1" d="M 31.375 17.625 L 31.375 20.375 C 31.375 22.510424 29.556046 24.0625 27.46875 24.0625 L 20.59375 24.0625 C 18.877939 24.0625 17.468768 25.769215 17.46875 27.46875 L 17.46875 32.03125 L 17.46875 32.5625 L 17.46875 32.625 C 16.209866 32.107982 15.481487 32.950089 14.65625 34 L 16 34 C 15.60192 34.695473 15.660417 35.140867 15.875 35.875 C 16.799641 35.725512 17.341399 35.005203 17.65625 34.375 C 17.674746 34.41716 17.699034 34.458724 17.71875 34.5 C 17.791027 34.651313 17.869673 34.802611 17.96875 34.9375 C 17.977636 34.949266 17.990922 34.957104 18 34.96875 C 18.119833 35.126679 18.254816 35.270341 18.40625 35.40625 C 18.547296 35.532836 18.711516 35.641695 18.875 35.75 C 19.000392 35.833069 19.113903 35.927274 19.25 36 L 19.3125 36 C 19.711639 36.210732 20.141487 36.399679 20.59375 36.53125 C 22.578887 37.108579 24.749799 37.21294 27.125 36.53125 C 27.588512 36.398513 28.047867 36.222333 28.46875 36 C 28.481343 35.993348 28.487481 35.975492 28.5 35.96875 C 28.696215 35.863075 28.888717 35.753972 29.0625 35.625 C 29.103549 35.594536 29.147979 35.56309 29.1875 35.53125 C 29.225216 35.500934 29.245029 35.469095 29.28125 35.4375 C 29.34329 35.383797 29.411353 35.338757 29.46875 35.28125 C 29.543395 35.204835 29.621959 35.114561 29.6875 35.03125 C 29.706162 35.00793 29.732104 34.992628 29.75 34.96875 C 29.952782 34.694329 30.104085 34.384269 30.1875 34.03125 C 30.192288 34.010988 30.183164 33.989287 30.1875 33.96875 C 30.196336 33.928491 30.211708 33.885085 30.21875 33.84375 C 30.241742 33.699118 30.25 33.533058 30.25 33.375 L 30.25 32.03125 L 30.25 31 L 23.96875 31 L 23.96875 30.21875 L 30.25 30.21875 L 33.375 30.21875 C 35.197611 30.21875 35.897402 28.981086 36.53125 27.09375 C 37.186 25.150753 37.158143 23.273747 36.53125 20.78125 C 36.080825 18.986634 35.199928 17.625 33.375 17.625 L 31.375 17.625 z M 27.46875 32.28125 A 1.5 1.5 0 0 1 29.09375 33.78125 A 1.5 1.5 0 0 1 26.09375 33.78125 A 1.5 1.5 0 0 1 27.46875 32.28125 z" transform="scale(0.28222223,0.28222223)"/></svg>