<svg xmlns="http://www.w3.org/2000/svg" xmlns:svg="http://www.w3.org/2000/svg" xmlns:xlink="http://www.w3.org/1999/xlink" id="svg2" width="48" height="48" enable-background="new" version="1.1" viewBox="0 0 13.547 13.547"><metadata id="metadata101"/><defs id="defs4"><linearGradient id="0"><stop id="stop7" stop-color="#1a1a1a"/><stop id="stop9" offset="1" stop-color="#333"/></linearGradient><linearGradient id="1" x2="0" y1="299.81" y2="31.619" gradientTransform="matrix(0.11931818,0,0,0.11931818,414.13636,48.22727)" gradientUnits="userSpaceOnUse" xlink:href="#A"/><clipPath id="clipPath12"><rect id="rect14" width="30" height="30" x="417" y="53" fill="url(#1)" color="#bebebe" rx="7"/></clipPath><linearGradient id="2" x2="0" y1="302.86" y2="28.571" gradientTransform="matrix(0.0875,0,0,0.0875,414.9,97.5)" gradientUnits="userSpaceOnUse" xlink:href="#A"/><clipPath id="clipPath17"><rect id="rect19" width="22" height="22" x="417" y="101" fill="url(#2)" color="#bebebe" rx="5"/></clipPath><linearGradient id="3" x2="0" y1="124" y2="28" gradientUnits="userSpaceOnUse" xlink:href="#A"/><clipPath id="clipPath22"><rect id="rect24" width="88" height="88" x="292" y="32" fill="url(#3)" color="#bebebe" rx="18"/></clipPath><linearGradient id="4" x2="0" y1="204" y2="140" gradientUnits="userSpaceOnUse" xlink:href="#A"/><clipPath id="clipPath27"><rect id="rect29" width="60" height="60" x="290" y="142" fill="url(#4)" color="#bebebe" rx="12.5"/></clipPath><linearGradient id="5" x2="0" y1="280" y2="40" gradientTransform="translate(0,-4)" gradientUnits="userSpaceOnUse" xlink:href="#A"/><clipPath id="clipPath32"><rect id="rect34" width="220" height="220" x="34" y="46" fill="url(#5)" color="#bebebe" rx="50"/></clipPath><linearGradient id="6" x2="0" y1="280" y2="40" gradientTransform="matrix(0.06666667,0,0,0.06666667,302.4,209.33333)" gradientUnits="userSpaceOnUse" xlink:href="#A"/><clipPath id="clipPath37"><rect id="rect39" width="16" height="16" x="304" y="212" fill="url(#6)" color="#bebebe" rx="3" transform="matrix(0,1,-1,0,0,0)"/></clipPath><linearGradient id="7" x2="0" y1="291.43" y2="40" gradientTransform="matrix(0.11931818,0,0,0.11931818,430.13636,32.227267)" gradientUnits="userSpaceOnUse" xlink:href="#A"/><clipPath id="clipPath42"><rect id="rect44" width="30" height="30" x="433" y="37" fill="url(#7)" color="#bebebe" rx="6"/></clipPath><linearGradient id="8" x2="0" y1="291.43" y2="40" gradientTransform="matrix(0.0875,0,0,0.0875,430.9,81.499996)" gradientUnits="userSpaceOnUse" xlink:href="#A"/><clipPath id="clipPath47"><rect id="rect49" width="22" height="22" x="433" y="85" fill="url(#8)" color="#bebebe" rx="4"/></clipPath><linearGradient id="9" x2="0" y1="280" y2="40" gradientTransform="matrix(0.175,0,0,0.175,302.79999,215.99997)" gradientUnits="userSpaceOnUse" xlink:href="#A"/><clipPath id="clipPath52"><rect id="rect54" width="42" height="42" x="307" y="223" fill="url(#9)" color="#bebebe" rx="9" transform="matrix(0,1,-1,0,0,0)"/></clipPath><linearGradient id="A"><stop id="stop57" stop-color="#b94642"/><stop id="stop59" offset="1" stop-color="#c66a58"/></linearGradient><linearGradient id="B" x2="0" y1="1050.36" y2="1006.36" gradientTransform="matrix(0.28222223,0,0,0.28222223,0,-283.45334)" gradientUnits="userSpaceOnUse" xlink:href="#0"/><path id="C" fill="#93b1d6" d="m 2.2090517,-1.2456896 a 1.1584052,1.2931035 0 1 1 -2.31681034,0 1.1584052,1.2931035 0 1 1 2.31681034,0 z"/><radialGradient id="radialGradient3015" cx="148.004" cy="160" r="128" gradientTransform="matrix(0.05167489,0,0,0.05167489,-0.87511191,-1.4947612)" gradientUnits="userSpaceOnUse" spreadMethod="pad" xlink:href="#linearGradient4460"/><linearGradient id="linearGradient4460"><stop id="stop8-6" offset="0" stop-color="#747474" stop-opacity="1"/><stop id="stop10-2" offset="1" stop-color="#2d2d2d" stop-opacity="1"/></linearGradient><radialGradient id="radialGradient3016" cx="148.004" cy="160" r="128" gradientTransform="matrix(0.05167489,0,0,0.05167489,-0.87511221,-1.4947612)" gradientUnits="userSpaceOnUse" spreadMethod="pad" xlink:href="#linearGradient4460"/></defs><path id="path11" fill="url(#radialGradient3016)" fill-opacity="1" d="m 13.387776,3.2589206 0,7.0290974 c 0,2.892778 0,3.100035 -3.100035,3.100035 l -7.0279949,0 c -3.10113721,0 -3.10113721,-0.207257 -3.10113721,-3.100035 l 0,-7.0290974 c 0,-2.89277759 0,-3.10003449 3.10113721,-3.10003449 l 7.0279949,0 c 3.100035,0 3.100035,0.2072569 3.100035,3.10003449 z"/><path id="path15-2" fill="#fff" fill-opacity=".051" d="m 10.799269,13.388053 c 0.717682,-0.0033 1.235825,-0.02315 1.611753,-0.124575 l -1.193932,-2.046111 -1.2655902,2.170686 0.3362412,0 c 0.180799,0 0.350573,0 0.511528,0 z M 11.21709,11.217367 9.7707009,8.7368981 8.3232099,11.217367 z m 0,0 2.159662,0 c 0.0088,-0.274505 0.01102,-0.582083 0.01102,-0.930451 l 0,-0.3097836 L 12.66458,8.7368981 z M 12.664582,8.7368981 11.21709,6.2564294 9.7707009,8.7368981 z m 0,0 0.723194,0 0,-1.2402343 z m -2.8938811,0 L 8.3232099,6.2564294 6.876821,8.7368981 z m -2.8938799,0 -1.4474916,2.4804689 2.8938805,0 z m 0,0 L 5.4293294,6.2564294 3.9829405,8.7368981 z m -2.8938805,0 -1.4474913,2.4804689 2.8938802,0 z m 0,0 L 2.5354492,6.2564294 1.0890603,8.7368981 z m -2.8938802,0 -0.93045141,1.5941149 c 0,0.329627 0.00331,0.623976 0.011024,0.886354 l 2.36581621,0 z m 0,0 -0.93045141,-1.5941145 0,1.5941145 z m 1.4463889,2.4804689 -1.2170833,2.086901 c 0.450894,0.08268 1.0748699,0.08379 1.9413802,0.08379 l 0.5423958,0 z m 0,-4.9609376 -1.4463889,-2.4804689 -0.93045141,1.5941148 0,0.8863541 z m 0,0 2.8938802,0 L 3.9829405,3.7759605 z M 3.9829405,3.7759605 2.5354492,1.2954921 1.0890603,3.7759605 z m 0,0 2.8938805,0 -1.4474916,-2.4804684 z m 1.4463889,-2.4804684 -0.663663,-1.13660599 -1.5059203,0 c -0.02205,0 -0.039688,0 -0.060634,0 L 2.5354492,1.2954921 z m 0,0 2.8938805,0 -0.663663,-1.13660599 -1.5665541,0 z m 2.8938805,0 2.8938801,0 -0.663663,-1.13660599 c -0.0882,0 -0.171979,0 -0.265686,0 l -1.300868,0 z m 0,0 -1.4463889,2.4804684 2.8938799,0 z m 1.447491,2.4804684 2.8938811,0 -1.447492,-2.4804684 z m 0,0 -1.447491,2.4804689 2.8938801,0 z m 1.4463891,2.4804689 2.170686,0 0,-1.2402343 -0.723194,-1.2402346 z m 1.447492,-2.4804689 0.723194,0 0,-0.5170399 c 0,-0.2579689 -0.0022,-0.4938886 -0.0066,-0.7121697 z M 8.3232099,6.2564294 6.876821,3.7759605 5.4293294,6.2564294 z m 2.8938801,-4.9609373 2.062648,0 C 13.123193,0.51717601 12.747264,0.27133421 11.859807,0.19416391 z m -8.6816408,0 L 1.8850153,0.17983231 C 0.85203769,0.23826131 0.43421639,0.46095191 0.26664699,1.2954921 z M 1.0890603,3.7759605 0.17514539,2.2083046 c -0.012127,0.3031685 -0.016535,0.6515363 -0.016535,1.050616 l 0,0.5170399 z m 4.3402691,7.4414065 -1.2655903,2.170686 2.5322827,0 z m 2.8938805,0 -1.2655911,2.170686 2.5322841,0 z m -7.59133711,1.86862 -0.4519964,-0.775009 c 0.082682,0.371519 0.2215885,0.615157 0.4519964,0.775009 z"/><circle id="circle79" r="200" fill="none" fill-opacity="1" transform="matrix(0.00987778,0,0,0.00987778,6.7733339,6.7733331)"/><circle id="circle81" r="400" fill="none" fill-opacity="1" stroke="#f9f9f9" stroke-width="27.586" transform="matrix(0.01023056,0,0,0.01023056,6.7733352,6.7733318)"/><use id="use83" fill="#f9f9f9" fill-opacity="1" stroke="none" stroke-opacity="1" transform="matrix(0.26714027,0,0,0.23418424,6.4925224,3.0368965)" xlink:href="#C"/><use id="use85" fill="#f9f9f9" fill-opacity="1" stroke="none" stroke-opacity="1" transform="matrix(0.26714027,0,0,0.23418424,2.5687867,5.9248766)" xlink:href="#C"/><use id="use87" fill="#f9f9f9" fill-opacity="1" stroke="none" stroke-opacity="1" transform="matrix(0.26714027,0,0,0.23418424,10.416258,5.9248766)" xlink:href="#C"/><use id="use89" fill="#f9f9f9" fill-opacity="1" stroke="none" stroke-opacity="1" transform="matrix(0.26714027,0,0,0.23418424,8.917658,10.439021)" xlink:href="#C"/><use id="use91" fill="#f9f9f9" fill-opacity="1" stroke="none" stroke-opacity="1" transform="matrix(0.26714027,0,0,0.23418424,4.067669,10.439021)" xlink:href="#C"/><circle id="circle93" r="400" fill="none" fill-opacity="1" stroke="#f9f9f9" stroke-width="38.1" transform="matrix(0.00740833,0,0,0.00740833,6.7733321,6.7733349)"/><use id="use95" fill="#f9f9f9" fill-opacity="1" stroke="none" stroke-opacity="1" transform="matrix(0.26714027,0,0,0.23418424,6.4925224,4.1440543)" xlink:href="#C"/><use id="use97" fill="#f9f9f9" fill-opacity="1" stroke="none" stroke-opacity="1" transform="matrix(0.26714027,0,0,0.23418424,6.4925224,10.036008)" xlink:href="#C"/></svg>