<svg xmlns="http://www.w3.org/2000/svg" xmlns:svg="http://www.w3.org/2000/svg" xmlns:xlink="http://www.w3.org/1999/xlink" id="svg2" width="48" height="48" version="1.1" viewBox="0 0 13.547 13.547"><metadata id="metadata336"/><defs id="defs4"><linearGradient id="0"><stop id="stop7" stop-color="#198ba6"/><stop id="stop9" offset="1" stop-color="#42c9e7"/></linearGradient><clipPath id="clipPath11"><path id="path13" d="m 489.217,197.275 c -2.603,0 -3.953,-1.367 -3.953,-3.971 l 0,0 0,-1.034 c 0,-2.604 1.35,-3.971 3.953,-3.971 l 0,0 1.035,0 c 2.62,0 3.97,1.367 3.97,3.971 l 0,0 0,1.034 c 0,2.604 -1.35,3.971 -3.97,3.971 l 0,0 -1.035,0 z"/></clipPath><linearGradient id="1"><stop id="stop16" stop-color="#620000"/><stop id="stop18" offset="1" stop-color="#dd0f0f"/></linearGradient><clipPath id="clipPath20"><rect id="rect22" width="42" height="42" x="307" y="223" fill="url(#2)" color="#bebebe" rx="9" transform="matrix(0,1,-1,0,0,0)"/></clipPath><linearGradient id="2" x2="0" y1="280" y2="40" gradientTransform="matrix(0.175,0,0,0.175,302.79999,215.99997)" gradientUnits="userSpaceOnUse" xlink:href="#1"/><clipPath id="clipPath25"><rect id="rect27" width="22" height="22" x="433" y="85" fill="url(#3)" color="#bebebe" rx="4"/></clipPath><linearGradient id="3" x2="0" y1="291.43" y2="40" gradientTransform="matrix(0.0875,0,0,0.0875,430.9,81.499996)" gradientUnits="userSpaceOnUse" xlink:href="#1"/><clipPath id="clipPath30"><rect id="rect32" width="30" height="30" x="433" y="37" fill="url(#4)" color="#bebebe" rx="6"/></clipPath><linearGradient id="4" x2="0" y1="291.43" y2="40" gradientTransform="matrix(0.11931818,0,0,0.11931818,430.13636,32.227267)" gradientUnits="userSpaceOnUse" xlink:href="#1"/><clipPath id="clipPath35"><rect id="rect37" width="16" height="16" x="304" y="212" fill="url(#5)" color="#bebebe" rx="3" transform="matrix(0,1,-1,0,0,0)"/></clipPath><linearGradient id="5" x2="0" y1="280" y2="40" gradientTransform="matrix(0.06666667,0,0,0.06666667,302.4,209.33333)" gradientUnits="userSpaceOnUse" xlink:href="#1"/><clipPath id="clipPath40"><rect id="rect42" width="220" height="220" x="34" y="46" fill="url(#6)" color="#bebebe" rx="50"/></clipPath><linearGradient id="6" x2="0" y1="280" y2="40" gradientTransform="translate(0,-4)" gradientUnits="userSpaceOnUse" xlink:href="#1"/><clipPath id="clipPath45"><rect id="rect47" width="60" height="60" x="290" y="142" fill="url(#7)" color="#bebebe" rx="12.5"/></clipPath><linearGradient id="7" x2="0" y1="204" y2="140" gradientUnits="userSpaceOnUse" xlink:href="#1"/><clipPath id="clipPath50"><rect id="rect52" width="88" height="88" x="292" y="32" fill="url(#8)" color="#bebebe" rx="18"/></clipPath><linearGradient id="8" x2="0" y1="124" y2="28" gradientUnits="userSpaceOnUse" xlink:href="#1"/><clipPath id="clipPath55"><rect id="rect57" width="22" height="22" x="417" y="101" fill="url(#9)" color="#bebebe" rx="5"/></clipPath><linearGradient id="9" x2="0" y1="302.86" y2="28.571" gradientTransform="matrix(0.0875,0,0,0.0875,414.9,97.5)" gradientUnits="userSpaceOnUse" xlink:href="#1"/><clipPath id="clipPath60"><rect id="rect62" width="30" height="30" x="417" y="53" fill="url(#A)" color="#bebebe" rx="7"/></clipPath><linearGradient id="A" x2="0" y1="299.81" y2="31.619" gradientTransform="matrix(0.11931818,0,0,0.11931818,414.13636,48.22727)" gradientUnits="userSpaceOnUse" xlink:href="#1"/><use id="B" fill="#fff" opacity=".2" xlink:href="#d"/><clipPath id="clipPath66"><use id="use68" transform="matrix(8,0,0,8,-2141.5757,-54.424243)" xlink:href="#B"/></clipPath><clipPath id="clipPath70"><use id="use72" xlink:href="#B"/></clipPath><use id="C" fill="none" xlink:href="#d"/><clipPath id="clipPath75"><use id="use77" xlink:href="#C"/></clipPath><clipPath id="clipPath79"><use id="use81" transform="matrix(8,0,0,8,-2141.5757,-54.424243)" xlink:href="#C"/></clipPath><use id="D" fill="none" xlink:href="#d"/><clipPath id="clipPath84"><use id="use86" xlink:href="#D"/></clipPath><clipPath id="clipPath88"><use id="use90" transform="matrix(8,0,0,8,-2141.5757,-54.424243)" xlink:href="#D"/></clipPath><use id="E" fill="none" xlink:href="#d"/><clipPath id="clipPath93"><use id="use95" xlink:href="#E"/></clipPath><clipPath id="clipPath97"><use id="use99" transform="matrix(8,0,0,8,-2141.5757,-54.424243)" xlink:href="#E"/></clipPath><use id="F" fill="none" xlink:href="#d"/><clipPath id="clipPath102"><use id="use104" xlink:href="#F"/></clipPath><clipPath id="clipPath106"><use id="use108" transform="matrix(8,0,0,8,-2141.5757,-54.424243)" xlink:href="#F"/></clipPath><use id="G" fill="none" xlink:href="#d"/><clipPath id="clipPath111"><use id="use113" xlink:href="#G"/></clipPath><clipPath id="clipPath115"><use id="use117" transform="matrix(8,0,0,8,-2141.5757,-54.424243)" xlink:href="#G"/></clipPath><use id="H" fill="none" xlink:href="#d"/><clipPath id="clipPath120"><use id="use122" xlink:href="#H"/></clipPath><clipPath id="clipPath124"><use id="use126" transform="matrix(8,0,0,8,-2141.5757,-54.424243)" xlink:href="#H"/></clipPath><use id="I" fill="none" xlink:href="#d"/><clipPath id="clipPath129"><use id="use131" xlink:href="#I"/></clipPath><clipPath id="clipPath133"><rect id="rect135" width="42" height="42" x="307" y="223" fill="url(#J)" color="#bebebe" rx="9" transform="matrix(0,1,-1,0,0,0)"/></clipPath><linearGradient id="J" x2="0" y1="280" y2="40" gradientTransform="matrix(0.175,0,0,0.175,302.79999,215.99997)" gradientUnits="userSpaceOnUse" xlink:href="#1"/><clipPath id="clipPath138"><rect id="rect140" width="22" height="22" x="433" y="85" fill="url(#K)" color="#bebebe" rx="4"/></clipPath><linearGradient id="K" x2="0" y1="291.43" y2="40" gradientTransform="matrix(0.0875,0,0,0.0875,430.9,81.499996)" gradientUnits="userSpaceOnUse" xlink:href="#1"/><clipPath id="clipPath143"><rect id="rect145" width="30" height="30" x="433" y="37" fill="url(#L)" color="#bebebe" rx="6"/></clipPath><linearGradient id="L" x2="0" y1="291.43" y2="40" gradientTransform="matrix(0.11931818,0,0,0.11931818,430.13636,32.227267)" gradientUnits="userSpaceOnUse" xlink:href="#1"/><clipPath id="clipPath148"><rect id="rect150" width="16" height="16" x="304" y="212" fill="url(#M)" color="#bebebe" rx="3" transform="matrix(0,1,-1,0,0,0)"/></clipPath><linearGradient id="M" x2="0" y1="280" y2="40" gradientTransform="matrix(0.06666667,0,0,0.06666667,302.4,209.33333)" gradientUnits="userSpaceOnUse" xlink:href="#1"/><clipPath id="clipPath153"><rect id="rect155" width="220" height="220" x="34" y="46" fill="url(#N)" color="#bebebe" rx="50"/></clipPath><linearGradient id="N" x2="0" y1="280" y2="40" gradientTransform="translate(0,-4)" gradientUnits="userSpaceOnUse" xlink:href="#1"/><clipPath id="clipPath158"><rect id="rect160" width="60" height="60" x="290" y="142" fill="url(#O)" color="#bebebe" rx="12.5"/></clipPath><linearGradient id="O" x2="0" y1="204" y2="140" gradientUnits="userSpaceOnUse" xlink:href="#1"/><clipPath id="clipPath163"><rect id="rect165" width="88" height="88" x="292" y="32" fill="url(#P)" color="#bebebe" rx="18"/></clipPath><linearGradient id="P" x2="0" y1="124" y2="28" gradientUnits="userSpaceOnUse" xlink:href="#1"/><clipPath id="clipPath168"><rect id="rect170" width="22" height="22" x="417" y="101" fill="url(#Q)" color="#bebebe" rx="5"/></clipPath><linearGradient id="Q" x2="0" y1="302.86" y2="28.571" gradientTransform="matrix(0.0875,0,0,0.0875,414.9,97.5)" gradientUnits="userSpaceOnUse" xlink:href="#1"/><clipPath id="clipPath173"><rect id="rect175" width="30" height="30" x="417" y="53" fill="url(#R)" color="#bebebe" rx="7"/></clipPath><linearGradient id="R" x2="0" y1="299.81" y2="31.619" gradientTransform="matrix(0.11931818,0,0,0.11931818,414.13636,48.22727)" gradientUnits="userSpaceOnUse" xlink:href="#1"/><clipPath id="clipPath178"><use id="use180" transform="matrix(8,0,0,8,-2141.5757,-54.424243)" xlink:href="#I"/></clipPath><use id="S" fill="none" xlink:href="#d"/><clipPath id="clipPath183"><use id="use185" xlink:href="#S"/></clipPath><clipPath id="clipPath187"><use id="use189" transform="matrix(8,0,0,8,-2141.5757,-54.424243)" xlink:href="#S"/></clipPath><use id="T" fill="none" xlink:href="#d"/><clipPath id="clipPath192"><use id="use194" xlink:href="#T"/></clipPath><clipPath id="clipPath196"><use id="use198" transform="matrix(8,0,0,8,-2141.5757,-54.424243)" xlink:href="#T"/></clipPath><use id="U" fill="none" xlink:href="#d"/><clipPath id="clipPath201"><use id="use203" xlink:href="#U"/></clipPath><clipPath id="clipPath205"><use id="use207" transform="matrix(8,0,0,8,-2141.5757,-54.424243)" xlink:href="#U"/></clipPath><use id="V" fill="none" xlink:href="#d"/><clipPath id="clipPath210"><use id="use212" xlink:href="#V"/></clipPath><clipPath id="clipPath214"><use id="use216" transform="matrix(8,0,0,8,-2141.5757,-54.424243)" xlink:href="#V"/></clipPath><use id="W" fill="none" xlink:href="#d"/><clipPath id="clipPath219"><use id="use221" xlink:href="#W"/></clipPath><clipPath id="clipPath223"><use id="use225" transform="matrix(8,0,0,8,-2141.5757,-54.424243)" xlink:href="#W"/></clipPath><use id="X" fill="none" xlink:href="#d"/><clipPath id="clipPath228"><use id="use230" xlink:href="#X"/></clipPath><clipPath id="clipPath232"><use id="use234" transform="matrix(8,0,0,8,-2141.5757,-54.424243)" xlink:href="#X"/></clipPath><clipPath id="clipPath236"><path id="path238" d="m 296,26 a 10,10 0 1 1 -20,0 10,10 0 1 1 20,0 z"/></clipPath><linearGradient id="Y" x2="0" y1="280" y2="40" gradientTransform="matrix(.175 0 0 .175 302.79999 215.99997)" gradientUnits="userSpaceOnUse" xlink:href="#Z"/><linearGradient id="Z"><stop id="stop242" stop-color="#151515"/><stop id="stop244" offset="1" stop-color="#222"/></linearGradient><linearGradient id="a" x2="0" y1="230" y2="90" gradientTransform="matrix(.375 0 0 .375 298 16)" gradientUnits="userSpaceOnUse" xlink:href="#Z"/><linearGradient id="b" x2="0" y1="230" y2="90" gradientTransform="matrix(.25 0 0 .25 299.99999 131.99999)" gradientUnits="userSpaceOnUse" xlink:href="#Z"/><linearGradient id="linearGradient248" x1="265" x2="264" y1="40" y2="276" gradientTransform="matrix(-1 0 0 -1 289 315)" gradientUnits="userSpaceOnUse" xlink:href="#Z"/><clipPath id="clipPath250"><rect id="rect252" width="20" height="20" x="434" y="78" color="#bebebe" rx="4"/></clipPath><clipPath id="clipPath254"><rect id="rect256" width="22" height="22" x="433" y="77" color="#bebebe" rx="4"/></clipPath><clipPath id="clipPath258"><rect id="rect260" width="22" height="22" x="433" y="77" color="#bebebe" rx="5"/></clipPath><clipPath id="clipPath262"><rect id="rect264" width="30" height="30" x="433" y="29" color="#bebebe" rx="6"/></clipPath><clipPath id="clipPath266"><rect id="rect268" width="60" height="60" x="306" y="142" fill="url(#b)" color="#bebebe" rx="12.5" transform="matrix(0 -1 1 0 0 0)"/></clipPath><clipPath id="clipPath270"><rect id="rect272" width="90" height="90" x="307" y="31" fill="url(#a)" color="#bebebe" rx="18.75"/></clipPath><clipPath id="clipPath274"><rect id="rect276" width="30" height="30" x="433" y="29" fill="#6d6d6d" color="#bebebe" opacity=".2" rx="4"/></clipPath><clipPath id="clipPath278"><rect id="rect280" width="22" height="22" x="433" y="77" fill="#6d6d6d" color="#bebebe" opacity=".2" rx="3"/></clipPath><clipPath id="clipPath282"><path id="path284" d="m 144,70 c -49.705627,0 -90,40.29437 -90,90 0,49.70563 40.294373,90 90,90 49.70563,0 90,-40.29437 90,-90 0,-49.70563 -40.29437,-90 -90,-90 z m 0,32.1875 c 32.03251,0 58,25.96748 58,58 0,32.03252 -25.96749,58 -58,58 -32.03251,0 -58,-25.96748 -58,-58 0,-32.03252 25.96749,-58 58,-58 z"/></clipPath><clipPath id="clipPath286"><path id="path288" d="m 152,204 a 8,8 0 1 1 -16,0 8,8 0 1 1 16,0 z"/></clipPath><clipPath id="clipPath290"><rect id="rect292" width="16" height="16" x="432" y="116" color="#bebebe" rx="3"/></clipPath><clipPath id="clipPath294"><path id="path296" d="m 145,215 c 33.13708,0 60,-26.86292 60,-60 0,-33.13708 -26.86292,-60 -60,-60 -33.13708,0 -60,26.86292 -60,60 0,12.50698 3.8285,24.10633 10.375,33.71875 L 89,211 111.28125,204.625 C 120.89367,211.1715 132.49302,215 145,215 z"/></clipPath><clipPath id="clipPath298"><path id="path300" d="m 98.03125,23.191212 c -41.492132,1.05238 -74.84375,35.06824 -74.84375,76.812498 0,42.40687 34.405632,76.8125 76.8125,76.8125 42.40687,0 76.8125,-34.40563 76.8125,-76.8125 0,-42.406866 -34.40563,-76.812498 -76.8125,-76.812498 -0.662607,0 -1.310145,-0.0167 -1.96875,0 z M 100,50.659962 c 27.24464,0 49.34375,22.099114 49.34375,49.343748 -1e-5,27.24464 -22.09911,49.34375 -49.34375,49.34375 -27.244636,-1e-5 -49.34375,-22.09911 -49.34375,-49.34375 0,-27.244634 22.099114,-49.343748 49.34375,-49.343748 z"/></clipPath><clipPath id="clipPath302"><rect id="rect304" width="16" height="16" x="432" y="116" fill="#6d6d6d" color="#bebebe" opacity=".2" rx="2"/></clipPath><clipPath id="clipPath306"><rect id="rect308" width="240" height="240" x="24" y="36" fill="#986767" color="#bebebe" rx="50"/></clipPath><clipPath id="clipPath310"><rect id="rect312" width="42" height="42" x="307" y="223" fill="url(#Y)" color="#bebebe" rx="9" transform="rotate(90)"/></clipPath><linearGradient id="c" x2="0" y1="1050.36" y2="1006.36" gradientTransform="matrix(0.28222223,0,0,0.28222223,0,-283.45334)" gradientUnits="userSpaceOnUse" xlink:href="#0"/><path id="d" d="m 296,26 a 10,10 0 1 1 -20,0 10,10 0 1 1 20,0 z" color="#000"/><radialGradient id="radialGradient3009" cx="148.004" cy="160" r="128" gradientTransform="matrix(0.05167489,0,0,0.05167489,-0.87511221,-1.4947611)" gradientUnits="userSpaceOnUse" xlink:href="#radial0"/><radialGradient id="radial0" cx="148.004" cy="160" r="128" gradientTransform="matrix(0.1831,0,0,0.1831,-3.10029,-5.29688)" gradientUnits="userSpaceOnUse"><stop id="stop7-9" offset="0" stop-color="#82bff6" stop-opacity="1"/><stop id="stop9-3" offset="1" stop-color="#6d95ba" stop-opacity="1"/></radialGradient><radialGradient id="radialGradient3054" cx="148.004" cy="160" r="128" gradientTransform="matrix(0.05167489,0,0,0.05167489,-0.87511221,-1.4947612)" gradientUnits="userSpaceOnUse" xlink:href="#radial0"/></defs><path id="path11" fill="url(#radialGradient3054)" d="m 13.387776,3.2589209 0,7.0290971 c 0,2.892778 0,3.100035 -3.100035,3.100035 l -7.0279949,0 c -3.10113721,0 -3.10113721,-0.207257 -3.10113721,-3.100035 l 0,-7.0290971 c 0,-2.89277789 0,-3.10003479 3.10113721,-3.10003479 l 7.0279949,0 c 3.100035,0 3.100035,0.2072569 3.100035,3.10003479 z"/><path id="path15" fill="#fff" fill-opacity=".051" d="m 10.799269,13.388053 c 0.717682,-0.0033 1.235825,-0.02315 1.611753,-0.124575 l -1.193932,-2.046111 -1.2655902,2.170686 0.3362412,0 c 0.180799,0 0.350573,0 0.511528,0 z M 11.21709,11.217367 9.7707012,8.7368984 8.3232099,11.217367 z m 0,0 2.159662,0 c 0.0088,-0.274505 0.01102,-0.582083 0.01102,-0.930451 l 0,-0.3097833 -0.723193,-1.2402343 z M 12.664582,8.7368984 11.21709,6.2564297 9.7707012,8.7368984 z m 0,0 0.723194,0 0,-1.2402343 z m -2.8938808,0 L 8.3232099,6.2564297 6.876821,8.7368984 z m -2.8938802,0 -1.4474916,2.4804686 2.8938805,0 z m 0,0 L 5.4293294,6.2564297 3.9829405,8.7368984 z m -2.8938805,0 -1.4474913,2.4804686 2.8938802,0 z m 0,0 L 2.5354492,6.2564297 1.0890604,8.7368984 z m -2.8938801,0 -0.93045151,1.5941146 c 0,0.329627 0.00331,0.623976 0.011024,0.886354 l 2.36581621,0 z m 0,0 -0.93045151,-1.5941145 0,1.5941145 z m 1.4463888,2.4804686 -1.2170833,2.086901 c 0.450894,0.08268 1.0748699,0.08379 1.9413802,0.08379 l 0.5423958,0 z m 0,-4.9609373 -1.4463888,-2.4804689 -0.93045151,1.5941147 0,0.8863542 z m 0,0 2.8938802,0 L 3.9829405,3.7759608 z M 3.9829405,3.7759608 2.5354492,1.295492 1.0890604,3.7759608 z m 0,0 2.8938805,0 L 5.4293294,1.295492 z M 5.4293294,1.295492 4.7656664,0.15888611 l -1.5059203,0 c -0.02205,0 -0.039688,0 -0.060634,0 L 2.5354492,1.295492 z m 0,0 2.8938805,0 -0.6636633,-1.13660589 -1.5665538,0 z m 2.8938805,0 2.8938801,0 -0.663663,-1.13660589 c -0.0882,0 -0.171979,0 -0.265686,0 l -1.300868,0 z m 0,0 -1.4463889,2.4804688 2.8938802,0 z m 1.4474913,2.4804688 2.8938808,0 L 11.21709,1.295492 z m 0,0 -1.4474913,2.4804689 2.8938801,0 z m 1.4463888,2.4804689 2.170686,0 0,-1.2402343 -0.723194,-1.2402346 z m 1.447492,-2.4804689 0.723194,0 0,-0.5170399 c 0,-0.2579689 -0.0022,-0.4938891 -0.0066,-0.7121702 z M 8.3232099,6.2564297 6.876821,3.7759608 5.4293294,6.2564297 z M 11.21709,1.295492 l 2.062648,0 C 13.123193,0.51717591 12.747264,0.27133411 11.859807,0.19416381 z m -8.6816408,0 L 1.8850153,0.17983231 C 0.85203769,0.23826131 0.43421639,0.46095191 0.26664699,1.295492 z M 1.0890604,3.7759608 0.17514549,2.2083045 c -0.012127,0.3031684 -0.016535,0.6515365 -0.016535,1.0506164 l 0,0.5170399 z m 4.340269,7.4414062 -1.2655903,2.170686 2.532283,0 z m 2.8938805,0 -1.2655906,2.170686 2.5322833,0 z m -7.59133711,1.86862 -0.4519963,-0.775009 c 0.082682,0.371519 0.2215884,0.615157 0.4519963,0.775009 z"/><path id="path332" fill="#f9f9f9" d="M 13.4375 13 C 12.628906 13 12 13.6289 12 14.4375 L 12 30.3125 C 12 31.1211 12.628906 31.75 13.4375 31.75 L 18 31.75 L 18 37 L 24 31.75 L 34.5625 31.75 C 35.371094 31.75 36 31.1211 36 30.3125 L 36 14.4375 C 36 13.6289 35.339844 13 34.53125 13 L 13.4375 13 z M 23.25 14 L 24.75 14 L 24.75 25.09375 C 25.758354 25.287 26.5 25.830886 26.5 26.5 C 26.5 27.169115 25.758354 27.713 24.75 27.90625 L 24.75 30 L 23.25 30 L 23.25 27.90625 C 22.241646 27.713 21.5 27.169115 21.5 26.5 C 21.5 25.830886 22.241646 25.287 23.25 25.09375 L 23.25 14 z M 17.75 15 L 19.25 15 L 19.25 18.09375 C 20.258354 18.287 21 18.830886 21 19.5 C 21 20.169115 20.258354 20.713 19.25 20.90625 L 19.25 29 L 17.75 29 L 17.75 20.90625 C 16.741646 20.713 16 20.169115 16 19.5 C 16 18.830886 16.741646 18.287 17.75 18.09375 L 17.75 15 z M 28.75 15 L 30.25 15 L 30.25 18.09375 C 31.258354 18.287 32 18.830886 32 19.5 C 32 20.169115 31.258354 20.713 30.25 20.90625 L 30.25 29 L 28.75 29 L 28.75 20.90625 C 27.741646 20.713 27 20.169115 27 19.5 C 27 18.830886 27.741646 18.287 28.75 18.09375 L 28.75 15 z" transform="scale(0.28222223,0.28222223)"/></svg>