<svg xmlns="http://www.w3.org/2000/svg" xmlns:svg="http://www.w3.org/2000/svg" xmlns:xlink="http://www.w3.org/1999/xlink" id="svg2" width="48" height="48" version="1.1" viewBox="0 0 13.547 13.547"><metadata id="metadata36"/><defs id="defs4"><linearGradient id="0"><stop id="stop7" stop-color="#eee"/><stop id="stop9" offset="1" stop-color="#f9f9f9"/></linearGradient><linearGradient id="1" x2="0" y1="1050.36" y2="1006.36" gradientTransform="matrix(0.28222223,0,0,0.28222223,0,-283.45334)" gradientUnits="userSpaceOnUse" xlink:href="#0"/><radialGradient id="radialGradient3019" cx="148.004" cy="160" r="128" gradientTransform="matrix(0.05167489,0,0,0.05167489,-0.87511191,-1.4947562)" gradientUnits="userSpaceOnUse" xlink:href="#radial0"/><radialGradient id="radial0" cx="148.004" cy="160" r="128" gradientTransform="matrix(0.1831,0,0,0.1831,-3.10029,-5.29688)" gradientUnits="userSpaceOnUse"><stop id="stop7-2" offset="0" stop-color="#f9b59a"/><stop id="stop9-5" offset="1" stop-color="#b23f14"/></radialGradient><radialGradient id="radialGradient3034" cx="148.004" cy="160" r="128" gradientTransform="matrix(0.05167489,0,0,0.05167489,-0.87511191,-1.4947562)" gradientUnits="userSpaceOnUse" xlink:href="#radial0"/></defs><path id="path11" fill="url(#radialGradient3034)" d="m 13.387776,3.2589259 0,7.0290971 c 0,2.892778 0,3.100035 -3.100035,3.100035 l -7.0279949,0 c -3.10113721,0 -3.10113721,-0.207257 -3.10113721,-3.100035 l 0,-7.0290971 c 0,-2.89277779 0,-3.10003479 3.10113721,-3.10003479 l 7.0279949,0 c 3.100035,0 3.100035,0.207257 3.100035,3.10003479 z"/><path id="path15" fill="#fff" fill-opacity=".051" d="m 10.799269,13.388058 c 0.717682,-0.0033 1.235825,-0.02315 1.611753,-0.124574 l -1.193932,-2.046112 -1.2655901,2.170686 0.3362411,0 c 0.180799,0 0.350573,0 0.511528,0 z M 11.21709,11.217372 9.7707009,8.7369034 8.3232099,11.217372 z m 0,0 2.159662,0 c 0.0088,-0.274505 0.01102,-0.582083 0.01102,-0.930451 l 0,-0.3097833 -0.723193,-1.2402343 z M 12.664581,8.7369034 11.21709,6.2564347 9.7707009,8.7369034 z m 0,0 0.723195,0 0,-1.2402343 z m -2.8938801,0 -1.447491,-2.4804687 -1.446389,2.4804687 z m -2.89388,0 -1.447492,2.4804686 2.893881,0 z m 0,0 -1.447492,-2.4804687 -1.446388,2.4804687 z m -2.89388,0 -1.4474917,2.4804686 2.8938797,0 z m 0,0 L 2.5354492,6.2564347 1.0890603,8.7369034 z m -2.8938806,0 -0.93045141,1.5941146 c 0,0.329627 0.00331,0.623976 0.011024,0.886354 l 2.36581611,0 z m 0,0 -0.93045141,-1.5941145 0,1.5941145 z m 1.4463889,2.4804686 -1.2170833,2.086901 c 0.450894,0.08268 1.0748699,0.08378 1.9402778,0.08378 l 0.5434982,0 z m 0,-4.9609373 -1.4463889,-2.4804689 -0.93045141,1.5941147 0,0.8863542 z m 0,0 2.8938797,0 -1.446388,-2.4804689 z M 3.9829409,3.7759658 2.5354492,1.2954971 1.0890603,3.7759658 z m 0,0 2.89388,0 -1.447492,-2.4804687 z m 1.446388,-2.4804687 -0.663663,-1.13660599 -1.5070222,0 c -0.020946,0 -0.038585,0 -0.059531,0 L 2.5354492,1.2954971 z m 0,0 2.893881,0 -0.663663,-1.13660599 -1.566554,0 z m 2.893881,0 2.8938801,0 -0.663663,-1.13660599 c -0.08819,0 -0.171979,0 -0.266788,0 l -1.2997661,0 z m 0,0 -1.446389,2.4804687 2.89388,0 z m 1.447491,2.4804687 2.8938801,0 -1.447491,-2.4804687 z m 0,0 -1.447491,2.4804689 2.8938801,0 z m 1.4463891,2.4804689 2.170686,0 0,-1.2402343 -0.723195,-1.2402346 z m 1.447491,-2.4804689 0.723195,0 0,-0.5170399 c 0,-0.2579689 -0.0022,-0.4938889 -0.0066,-0.71217 z M 8.3232099,6.2564347 6.8768209,3.7759658 5.4293289,6.2564347 z m 2.8938801,-4.9609376 2.062648,0 C 13.123193,0.51718101 12.747264,0.27133921 11.859807,0.19416891 z m -8.6816408,0 L 1.8850153,0.17983741 C 0.85203769,0.23826611 0.43421639,0.46095701 0.26664689,1.2954971 z M 1.0890603,3.7759658 0.17514539,2.2083096 c -0.012127,0.3031685 -0.016536,0.6515363 -0.016536,1.0506163 l 0,0.5170399 z m 4.3402686,7.4414062 -1.26559,2.170686 2.532283,0 z m 2.893881,0 -1.265591,2.170686 2.532284,0 z m -7.59133711,1.86862 -0.4519964,-0.775009 c 0.082682,0.37152 0.2215885,0.615157 0.4519964,0.775009 z"/><path id="path30" fill="#f9f9f9" fill-opacity="1" d="m 6.7679369,4.0409733 c -1.186821,0 -2.147896,0.9109498 -2.147896,2.0358058 0,1.1249135 0.961075,2.0412499 2.147896,2.0412499 1.186821,0 2.147897,-0.9163364 2.147897,-2.0412499 0,-1.124856 -0.961076,-2.0358058 -2.147897,-2.0358058 z m 0,1.6622316 c 0.218625,0 0.394162,0.166365 0.394162,0.3735742 0,0.2072189 -0.175537,0.3790276 -0.394162,0.3790276 -0.218626,0 -0.394164,-0.1718087 -0.394164,-0.3790276 0,-0.2072092 0.175538,-0.3735742 0.394164,-0.3735742 z"/><rect id="rect32" width="5.733" height="6.861" x="3.907" y="3.338" fill="none" stroke="#f9f9f9" stroke-opacity="1" stroke-width=".476" rx=".379"/><path id="path34" fill="#f9f9f9" fill-opacity="1" d="m 7.4966589,8.373367 0.965219,1.1435679 0.482609,0 0,-0.4574216 z"/></svg>