<svg xmlns="http://www.w3.org/2000/svg" xmlns:svg="http://www.w3.org/2000/svg" xmlns:xlink="http://www.w3.org/1999/xlink" id="svg2" width="48" height="48" version="1.1" viewBox="0 0 13.547 13.547"><metadata id="metadata51"/><defs id="defs4"><linearGradient id="0"><stop id="stop7" stop-color="#f60"/><stop id="stop9" offset="1" stop-color="#ff9c47"/></linearGradient><linearGradient id="1" x2="0" y1="1050.36" y2="1006.36" gradientTransform="matrix(0.28222223,0,0,0.28222223,0,-283.45334)" gradientUnits="userSpaceOnUse" xlink:href="#0"/><radialGradient id="radial0" cx="148.004" cy="160" r="128" gradientTransform="matrix(0.1831,0,0,0.1831,-3.10029,-5.29688)" gradientUnits="userSpaceOnUse"><stop id="stop7-2" offset="0" stop-color="#fcc9c0"/><stop id="stop9-0" offset="1" stop-color="#732011"/></radialGradient><radialGradient id="radialGradient3015" cx="148.004" cy="160" r="128" gradientTransform="matrix(0.05167489,0,0,0.05167489,-0.87511191,-1.4947566)" gradientUnits="userSpaceOnUse" xlink:href="#radial0"/></defs><path id="path11" fill="url(#radialGradient3015)" d="m 13.387776,3.2589255 0,7.0290975 c 0,2.892778 0,3.100035 -3.100035,3.100035 l -7.0279954,0 c -3.10113671,0 -3.10113671,-0.207257 -3.10113671,-3.100035 l 0,-7.0290975 c 0,-2.89277789 0,-3.10003479 3.10113671,-3.10003479 l 7.0279954,0 c 3.100035,0 3.100035,0.2072569 3.100035,3.10003479 z"/><path id="path15" fill="#fff" fill-opacity=".051" d="m 10.799269,13.388058 c 0.717682,-0.0033 1.235825,-0.02315 1.611753,-0.124575 l -1.193932,-2.046111 -1.2655901,2.170686 0.3362411,0 c 0.180799,0 0.350573,0 0.511528,0 z M 11.21709,11.217372 9.7707012,8.736903 8.32321,11.217372 z m 0,0 2.159662,0 c 0.0088,-0.274505 0.01102,-0.582083 0.01102,-0.930451 l 0,-0.3097836 L 12.664581,8.736903 z M 12.664581,8.736903 11.21709,6.2564344 9.7707012,8.736903 z m 0,0 0.723195,0 0,-1.2402343 z m -2.8938798,0 L 8.32321,6.2564344 6.876821,8.736903 z m -2.8938802,0 -1.4474915,2.480469 2.8938805,0 z m 0,0 L 5.4293295,6.2564344 3.9829405,8.736903 z m -2.8938805,0 -1.4474913,2.480469 2.8938803,0 z m 0,0 L 2.5354492,6.2564344 1.0890603,8.736903 z m -2.8938802,0 -0.9304514,1.594115 c 0,0.329627 0.003307,0.623975 0.0110242,0.886354 l 2.36581614,0 z m 0,0 -0.9304514,-1.5941145 0,1.5941145 z m 1.4463889,2.480469 -1.2170833,2.086901 c 0.450894,0.08268 1.0748699,0.08378 1.9413802,0.08378 l 0.5423958,0 z m 0,-4.9609376 -1.4463889,-2.480469 -0.9304514,1.5941148 0,0.8863542 z m 0,0 2.8938803,0 -1.446389,-2.480469 z M 3.9829405,3.7759654 2.5354492,1.2954967 1.0890603,3.7759654 z m 0,0 2.8938805,0 -1.4474915,-2.4804687 z m 1.446389,-2.4804687 -0.6636631,-1.13660599 -1.5070227,0 c -0.020946,0 -0.038585,0 -0.059531,0 L 2.5354492,1.2954967 z m 0,0 2.8938805,0 -0.6636634,-1.13660599 -1.5665538,0 z m 2.8938805,0 2.89388,0 -0.663663,-1.13660599 c -0.08819,0 -0.171979,0 -0.266788,0 l -1.299766,0 z m 0,0 -1.446389,2.4804687 2.8938802,0 z m 1.4474912,2.4804687 2.8938798,0 -1.447491,-2.4804687 z m 0,0 -1.4474912,2.480469 2.89388,0 z m 1.4463888,2.480469 2.170686,0 0,-1.2402344 -0.723195,-1.2402346 z m 1.447491,-2.480469 0.723195,0 0,-0.5170399 c 0,-0.2579689 -0.0022,-0.4938889 -0.0066,-0.71217 z M 8.32321,6.2564344 6.876821,3.7759654 5.4293295,6.2564344 z m 2.89388,-4.9609377 2.062648,0 C 13.123193,0.51718058 12.747264,0.27133877 11.859807,0.19416849 z m -8.6816408,0 L 1.8850153,0.17983696 C 0.85203767,0.23826571 0.4342164,0.46095655 0.26664695,1.2954967 z M 1.0890603,3.7759654 0.17514543,2.2083092 C 0.16301862,2.5114777 0.1586089,2.8598455 0.1586089,3.2589255 l 0,0.5170399 z m 4.3402692,7.4414066 -1.2655904,2.170686 2.532283,0 z m 2.8938805,0 -1.2655906,2.170686 2.5322832,0 z m -7.5913372,1.86862 -0.4519964,-0.775009 c 0.0826821,0.371519 0.22158848,0.615156 0.4519964,0.775009 z"/><path id="path30" fill="#f9f9f9" fill-opacity="1" d="m 6.3125653,4.1847668 0.9215386,0 c 1.3823082,0 1.3535155,1.3688152 1.3535155,1.3688152 l 0,1.173274 c 0,0.4469582 -0.8063492,1.368819 -0.8063492,1.368819 l 0,0.5866366 1.8142858,0.9777283 0,0.7821831 -3.0238094,0 -2.6206353,0 0,-0.7821831 1.8142858,-0.9777283 0,-0.5866366 c 0,0 -0.8093831,-0.9218588 -0.8063491,-1.368819 l 0,-1.173274 c 0,0 -0.028797,-1.3688013 1.3535154,-1.3688013 z" color="#000"/><g id="g32" fill="#f9f9f9" fill-opacity="1" color="#000" transform="matrix(0.01732,0,0,0.0189,4.18961,-5.57608)"><rect id="2" width="42" height="125" x="48" y="562.86" fill="#f9f9f9" fill-opacity="1" rx="12.956"/><path id="3" fill="#f9f9f9" fill-opacity="1" d="m 72,622.36218 c 0,29.82338 -10.521308,54 -23.5,54 -12.978692,0 -23.5,-24.17662 -23.5,-54 0,-29.82337 10.521308,-54 23.5,-54 12.978692,0 23.5,24.17663 23.5,54 z" transform="matrix(1,0,0,0.94444,0,37.57568)"/></g><g id="g36" fill="#f9f9f9" fill-opacity="1" color="#000" transform="matrix(0.01732,0,0,0.0189,-3.29104,-8.30215)"><path id="4" fill="#f9f9f9" fill-opacity="1" d="m 461,759.86218 c 0,5.24671 -4.25329,9.5 -9.5,9.5 -5.24671,0 -9.5,-4.25329 -9.5,-9.5 0,-5.2467 4.25329,-9.5 9.5,-9.5 5.24671,0 9.5,4.2533 9.5,9.5 z" transform="matrix(1.11842,0,0,1,-52.5921,7)"/><path id="path39" fill="#f9f9f9" fill-opacity="1" d="m 581,603.375 c -77.87215,0 -141,63.12785 -141,141 0,7.83306 0.64678,15.51456 1.875,23 l 21.34375,0 C 461.77385,759.9312 461,752.24121 461,744.375 c 0,-66.27417 53.72583,-120 120,-120 66.27417,0 120,53.72583 120,120 0,7.86621 -0.77385,15.5562 -2.21875,23 l 21.34375,0 c 1.22822,-7.48544 1.875,-15.16694 1.875,-23 0,-77.87215 -63.12785,-141 -141,-141 z"/><use id="use41" width="13.547" height="13.547" x="0" y="0" fill="#f9f9f9" fill-opacity="1" transform="matrix(0.98823,0,0,1,262.7,-1)" xlink:href="#4"/></g><g id="g43" fill="#f9f9f9" fill-opacity="1" color="#000" transform="matrix(-0.01732,0,0,0.0189,9.35439,-5.57608)"><use id="use45" width="13.547" height="13.547" x="0" y="0" fill="#f9f9f9" fill-opacity="1" xlink:href="#2"/><use id="use47" width="13.547" height="13.547" x="0" y="0" fill="#f9f9f9" fill-opacity="1" xlink:href="#3"/></g></svg>