<svg xmlns="http://www.w3.org/2000/svg" xmlns:svg="http://www.w3.org/2000/svg" xmlns:xlink="http://www.w3.org/1999/xlink" id="svg2" width="48" height="48" version="1.1" viewBox="0 0 13.547 13.547"><metadata id="metadata84"/><defs id="defs4"><linearGradient id="0"><stop id="stop7" stop-color="#cecece"/><stop id="stop9" offset="1" stop-color="#eaeaea"/></linearGradient><linearGradient id="1" x2="0" y1="1050.36" y2="1006.36" gradientTransform="matrix(0.28222223,0,0,0.28222223,0,-283.45334)" gradientUnits="userSpaceOnUse" xlink:href="#0"/><radialGradient id="radialGradient3016" cx="148.004" cy="160" r="128" gradientTransform="matrix(0.05167489,0,0,0.05167489,-0.87511221,-1.4947612)" gradientUnits="userSpaceOnUse" spreadMethod="pad" xlink:href="#linearGradient4460"/><linearGradient id="linearGradient4460"><stop id="stop8-6" offset="0" stop-color="#747474" stop-opacity="1"/><stop id="stop10-2" offset="1" stop-color="#2d2d2d" stop-opacity="1"/></linearGradient><radialGradient id="radialGradient3049" cx="148.004" cy="160" r="128" gradientTransform="matrix(0.05167489,0,0,0.05167489,-0.87511241,-1.4947613)" gradientUnits="userSpaceOnUse" spreadMethod="pad" xlink:href="#linearGradient4460"/></defs><path id="path11" fill="url(#radialGradient3049)" fill-opacity="1" d="m 13.387776,3.2589205 0,7.0290975 c 0,2.892778 0,3.100035 -3.100035,3.100035 l -7.0279949,0 c -3.10113721,0 -3.10113721,-0.207257 -3.10113721,-3.100035 l 0,-7.0290975 c 0,-2.89277762 0,-3.10003452 3.10113721,-3.10003452 l 7.0279949,0 c 3.100035,0 3.100035,0.2072569 3.100035,3.10003452 z"/><path id="path15-2" fill="#fff" fill-opacity=".051" d="m 10.799269,13.388053 c 0.717682,-0.0033 1.235825,-0.02315 1.611753,-0.124575 l -1.193932,-2.046111 -1.2655902,2.170686 0.3362412,0 c 0.180799,0 0.350573,0 0.511528,0 z M 11.21709,11.217367 9.7707009,8.736898 8.3232099,11.217367 z m 0,0 2.159662,0 c 0.0088,-0.274505 0.01102,-0.582083 0.01102,-0.930451 l 0,-0.3097837 L 12.664581,8.736898 z M 12.664582,8.736898 11.21709,6.2564293 9.7707009,8.736898 z m 0,0 0.723194,0 0,-1.2402343 z m -2.8938811,0 L 8.3232099,6.2564293 6.876821,8.736898 z m -2.8938799,0 -1.4474916,2.480469 2.8938805,0 z m 0,0 L 5.4293294,6.2564293 3.9829405,8.736898 z m -2.8938805,0 -1.4474913,2.480469 2.8938802,0 z m 0,0 L 2.5354492,6.2564293 1.0890603,8.736898 z m -2.8938802,0 -0.93045141,1.594115 c 0,0.329627 0.00331,0.623976 0.011024,0.886354 l 2.36581621,0 z m 0,0 -0.93045141,-1.5941145 0,1.5941145 z m 1.4463889,2.480469 -1.2170833,2.086901 c 0.450894,0.08268 1.0748699,0.08379 1.9413802,0.08379 l 0.5423958,0 z m 0,-4.9609377 -1.4463889,-2.4804689 -0.93045141,1.5941148 0,0.8863541 z m 0,0 2.8938802,0 L 3.9829405,3.7759604 z M 3.9829405,3.7759604 2.5354492,1.295492 1.0890603,3.7759604 z m 0,0 2.8938805,0 L 5.4293294,1.295492 z M 5.4293294,1.295492 4.7656664,0.15888598 l -1.5059203,0 c -0.02205,0 -0.039688,0 -0.060634,0 L 2.5354492,1.295492 z m 0,0 2.8938805,0 -0.663663,-1.13660602 -1.5665541,0 z m 2.8938805,0 2.8938801,0 -0.663663,-1.13660602 c -0.0882,0 -0.171979,0 -0.265686,0 l -1.300868,0 z m 0,0 -1.4463889,2.4804684 2.8938799,0 z m 1.447491,2.4804684 2.8938811,0 L 11.21709,1.295492 z m 0,0 -1.447491,2.4804689 2.8938801,0 z m 1.4463891,2.4804689 2.170686,0 0,-1.2402343 -0.723194,-1.2402346 z m 1.447492,-2.4804689 0.723194,0 0,-0.5170399 c 0,-0.2579689 -0.0022,-0.4938886 -0.0066,-0.7121697 z M 8.3232099,6.2564293 6.876821,3.7759604 5.4293294,6.2564293 z M 11.21709,1.295492 l 2.062648,0 C 13.123193,0.51717588 12.747264,0.27133408 11.859807,0.19416378 z m -8.6816408,0 L 1.8850153,0.17983218 C 0.85203769,0.23826118 0.43421639,0.46095179 0.26664699,1.295492 z M 1.0890603,3.7759604 0.17514539,2.2083045 c -0.012127,0.3031685 -0.016535,0.6515363 -0.016535,1.050616 l 0,0.5170399 z m 4.3402691,7.4414066 -1.2655903,2.170686 2.5322827,0 z m 2.8938805,0 -1.2655911,2.170686 2.5322841,0 z m -7.59133711,1.86862 -0.4519964,-0.775009 c 0.082682,0.371519 0.2215885,0.615157 0.4519964,0.775009 z"/><path id="path30" fill="#f9f9f9" fill-opacity="1" d="m 3.350951,3.3866663 c -0.134267,0.01459 -0.247225,0.143747 -0.246503,0.282179 l 0,5.016845 c 1.3e-5,0.147744 0.131092,0.282155 0.275167,0.282179 l 2.476498,0 0,0.5020169 1.834445,0 0,-0.5020169 2.4765,0 c 0.144071,-2.4e-5 0.275151,-0.134435 0.275164,-0.282179 l 0,-5.016845 c -1.3e-5,-0.147744 -0.131093,-0.282155 -0.275164,-0.282179 l -6.787443,0 z m 0.363002,0.439659 c 0.01144,-0.0024 0.02297,-0.0024 0.0344,0 l 6.072901,0 c 0.09605,2.29e-5 0.183436,0.08961 0.183445,0.1881169 l 0,4.325673 c -9e-6,0.0985 -0.0874,0.188096 -0.183445,0.18812 l -6.072901,0 c -0.09605,-2.4e-5 -0.183431,-0.08961 -0.183443,-0.18812 l 0,-4.325673 c -0.0016,-0.08779 0.06496,-0.171751 0.149047,-0.188117 z m 0.797245,5.873231 0,0.4604437 4.586113,0 0,-0.4604437 z" color="#000"/><path id="path34" fill="#f9f9f9" fill-opacity="1" d="m 5.2536621,6.6606295 0,0.395096 2.8222188,0 0,-0.395096 z"/><path id="path36" fill="#f9f9f9" fill-opacity="1" d="m 5.0365684,6.6606295 0,0.395096 -0.4341875,0 0,-0.395096 z"/><path id="path38" fill="#f9f9f9" fill-opacity="1" d="m 4.3852871,6.6606295 0,0.395096 -0.4341875,0 0,-0.395096 z"/><path id="path40" fill="#f9f9f9" fill-opacity="1" d="m 9.1613496,6.6606295 0,0.395096 -0.2170937,0 0,-0.395096 z"/><path id="path42" fill="#f9f9f9" fill-opacity="1" d="m 8.7271621,6.6606295 0,0.395096 -0.4341875,0 0,-0.395096 z"/><path id="path44" fill="#f9f9f9" fill-opacity="1" d="m 9.5955371,6.6606295 0,0.395096 -0.2170937,0 0,-0.395096 z"/><path id="path46" fill="#f9f9f9" fill-opacity="1" d="m 8.7271621,5.0802448 0.4341875,0 0,1.1852884 -0.4341875,0 z"/><path id="path48" fill="#f9f9f9" fill-opacity="1" d="m 8.5100684,5.8704371 0,0.3950961 -0.4341875,0 0,-0.3950961 z"/><path id="path50" fill="#f9f9f9" fill-opacity="1" d="m 7.8587871,5.8704371 0,0.3950961 -0.4341875,0 0,-0.3950961 z"/><path id="path52" fill="#f9f9f9" fill-opacity="1" d="m 7.2075059,5.8704371 0,0.3950961 -0.4341875,0 0,-0.3950961 z"/><path id="path54" fill="#f9f9f9" fill-opacity="1" d="m 6.5562246,5.8704371 0,0.3950961 -0.4341875,0 0,-0.3950961 z"/><path id="path56" fill="#f9f9f9" fill-opacity="1" d="m 5.9049434,5.8704371 0,0.3950961 -0.4341875,0 0,-0.3950961 z"/><path id="path58" fill="#f9f9f9" fill-opacity="1" d="m 5.2536621,5.8704371 0,0.3950961 -0.4341875,0 0,-0.3950961 z"/><path id="path60" fill="#f9f9f9" fill-opacity="1" d="m 4.6023809,5.8704371 0,0.3950961 -0.6512813,0 0,-0.3950961 z"/><path id="path62" fill="#f9f9f9" fill-opacity="1" d="m 9.5955371,5.8704371 0,0.3950961 -0.2170937,0 0,-0.3950961 z"/><path id="path64" fill="#f9f9f9" fill-opacity="1" d="m 9.5955371,5.0802448 0,0.3950959 -0.2170937,0 0,-0.3950959 z"/><path id="path66" fill="#f9f9f9" fill-opacity="1" d="m 8.2929746,5.0802448 0,0.3950959 -0.4341875,0 0,-0.3950959 z"/><path id="path68" fill="#f9f9f9" fill-opacity="1" d="m 7.6416934,5.0802448 0,0.3950959 -0.4341875,0 0,-0.3950959 z"/><path id="path70" fill="#f9f9f9" fill-opacity="1" d="m 6.9904121,5.0802448 0,0.3950959 -0.4341875,0 0,-0.3950959 z"/><path id="path72" fill="#f9f9f9" fill-opacity="1" d="m 6.3391309,5.0802448 0,0.3950959 -0.4341875,0 0,-0.3950959 z"/><path id="path74" fill="#f9f9f9" fill-opacity="1" d="m 5.6878496,5.0802448 0,0.3950959 -0.4341875,0 0,-0.3950959 z"/><path id="path76" fill="#f9f9f9" fill-opacity="1" d="m 5.0365684,5.0802448 0,0.3950959 -0.4341875,0 0,-0.3950959 z"/><path id="path78" fill="#f9f9f9" fill-opacity="1" d="m 4.3852871,5.0802448 0,0.3950959 -0.4341875,0 0,-0.3950959 z"/><path id="path80" fill="#f9f9f9" fill-opacity="1" d="m 8.7271621,5.0802448 0,0.3950959 -0.2170937,0 0,-0.3950959 z"/></svg>