<svg xmlns="http://www.w3.org/2000/svg" xmlns:svg="http://www.w3.org/2000/svg" xmlns:xlink="http://www.w3.org/1999/xlink" id="svg2" width="48" height="48" version="1.1" viewBox="0 0 13.547 13.547"><metadata id="metadata290"/><defs id="defs4"><clipPath id="clipPath6"><rect id="rect8" width="60" height="60" x="306" y="142" fill="url(#A)" color="#bebebe" rx="12.5" transform="matrix(0 -1 1 0 0 0)"/></clipPath><clipPath id="clipPath10"><path id="path12" d="m 328,238 c -7.73199,0 -14,6.26801 -14,14 0,7.73199 6.26801,14 14,14 7.73199,0 14,-6.26801 14,-14 0,-7.73199 -6.26801,-14 -14,-14 z m 0,8.75 c 2.89949,0 5.25,2.35051 5.25,5.25 0,2.89949 -2.35051,5.25 -5.25,5.25 -2.89949,0 -5.25,-2.35051 -5.25,-5.25 0,-2.89949 2.35051,-5.25 5.25,-5.25 z m 0,1.75 c -1.933,0 -3.5,1.567 -3.5,3.5 0,1.933 1.567,3.5 3.5,3.5 1.933,0 3.5,-1.567 3.5,-3.5 0,-1.933 -1.567,-3.5 -3.5,-3.5 z m 0,1.75 c 0.96649,0 1.75,0.78351 1.75,1.75 0,0.96649 -0.78351,1.75 -1.75,1.75 -0.96649,0 -1.75,-0.78351 -1.75,-1.75 0,-0.96649 0.78351,-1.75 1.75,-1.75 z"/></clipPath><clipPath id="clipPath14"><path id="path16" d="m 328,238 c -7.73199,0 -14,6.26801 -14,14 0,7.73199 6.26801,14 14,14 7.73199,0 14,-6.26801 14,-14 0,-7.73199 -6.26801,-14 -14,-14 z m 0,9.90625 c 2.20914,0 4,1.79086 4,4 0,2.20914 -1.79086,4 -4,4 -2.20914,0 -4,-1.79086 -4,-4 0,-2.20914 1.79086,-4 4,-4 z m 0,1 c -1.65685,0 -3,1.34315 -3,3 0,1.65685 1.34315,3 3,3 1.65685,0 3,-1.34315 3,-3 0,-1.65685 -1.34315,-3 -3,-3 z m 0,1 c 1.10457,0 2,0.89543 2,2 0,1.10457 -0.89543,2 -2,2 -1.10457,0 -2,-0.89543 -2,-2 0,-1.10457 0.89543,-2 2,-2 z"/></clipPath><clipPath id="clipPath18"><rect id="rect20" width="90" height="90" x="307" y="31" fill="url(#B)" color="#bebebe" rx="18.75"/></clipPath><clipPath id="clipPath22"><path id="path24" d="m 328,256 15,11 0,-27 -15,0 z"/></clipPath><clipPath id="clipPath26"><rect id="rect28" width="42" height="42" x="307" y="223" fill="url(#C)" color="#bebebe" rx="9" transform="rotate(90)"/></clipPath><clipPath id="clipPath30"><rect id="rect32" width="42" height="42" x="307" y="223" fill="url(#0)" color="#bebebe" rx="9" transform="rotate(90)"/></clipPath><clipPath id="clipPath34"><rect id="rect36" width="30" height="30" x="433" y="29" fill="#6d6d6d" color="#bebebe" opacity=".2" rx="4"/></clipPath><clipPath id="clipPath38"><rect id="rect40" width="60" height="60" x="306" y="142" fill="url(#1)" color="#bebebe" rx="12.5" transform="matrix(0 -1 1 0 0 0)"/></clipPath><clipPath id="clipPath42"><rect id="rect44" width="22" height="22" x="433" y="77" color="#bebebe" rx="5"/></clipPath><clipPath id="clipPath46"><rect id="rect48" width="16" height="16" x="432" y="116" color="#bebebe" rx="3"/></clipPath><clipPath id="clipPath50"><path id="path52" d="m 328,242.09376 c -7.73199,0 -14,6.26801 -14,14 0,7.73199 6.26801,14 14,14 7.73199,0 14,-6.26801 14,-14 0,-7.73199 -6.26801,-14 -14,-14 z m 0,9.90625 c 2.20914,0 4,1.79086 4,4 0,2.20914 -1.79086,4 -4,4 -2.20914,0 -4,-1.79086 -4,-4 0,-2.20914 1.79086,-4 4,-4 z m 0,1 c -1.65685,0 -3,1.34315 -3,3 0,1.65685 1.34315,3 3,3 1.65685,0 3,-1.34315 3,-3 0,-1.65685 -1.34315,-3 -3,-3 z m 0,1 c 1.10457,0 2,0.89543 2,2 0,1.10457 -0.89543,2 -2,2 -1.10457,0 -2,-0.89543 -2,-2 0,-1.10457 0.89543,-2 2,-2 z"/></clipPath><clipPath id="clipPath54"><rect id="rect56" width="22" height="22" x="433" y="77" fill="#6d6d6d" color="#bebebe" opacity=".2" rx="3"/></clipPath><clipPath id="clipPath58"><rect id="rect60" width="16" height="16" x="432" y="116" fill="#6d6d6d" color="#bebebe" opacity=".2" rx="2"/></clipPath><clipPath id="clipPath62"><rect id="rect64" width="240" height="240" x="24" y="36" fill="#986767" color="#bebebe" rx="50"/></clipPath><clipPath id="clipPath66"><rect id="rect68" width="22" height="22" x="433" y="77" color="#bebebe" rx="4"/></clipPath><clipPath id="clipPath70"><rect id="rect72" width="30" height="30" x="433" y="29" fill="#6d6d6d" color="#bebebe" opacity=".2" rx="4"/></clipPath><clipPath id="clipPath74"><rect id="rect76" width="16" height="16" x="432" y="116" fill="#6d6d6d" color="#bebebe" opacity=".2" rx="2"/></clipPath><clipPath id="clipPath78"><path id="path80" d="m 444,88 c -4.41828,0 -8,3.58172 -8,8 0,4.41828 3.58172,8 8,8 4.41828,0 8,-3.58172 8,-8 0,-4.41828 -3.58172,-8 -8,-8 z m 0,5 c 1.65685,0 3,1.34315 3,3 0,1.65685 -1.34315,3 -3,3 -1.65685,0 -3,-1.34315 -3,-3 0,-1.65685 1.34315,-3 3,-3 z m 0,1 c -1.10457,0 -2,0.89543 -2,2 0,1.10457 0.89543,2 2,2 1.10457,0 2,-0.89543 2,-2 0,-1.10457 -0.89543,-2 -2,-2 z m 0,1 c 0.55228,0 1,0.44772 1,1 0,0.55228 -0.44772,1 -1,1 -0.55228,0 -1,-0.44772 -1,-1 0,-0.55228 0.44772,-1 1,-1 z"/></clipPath><clipPath id="clipPath82"><rect id="rect84" width="22" height="22" x="433" y="77" color="#bebebe" rx="5"/></clipPath><clipPath id="clipPath86"><rect id="rect88" width="30" height="30" x="433" y="29" color="#bebebe" rx="6"/></clipPath><clipPath id="clipPath90"><path id="path92" d="m 328,242.09375 c -7.73199,0 -14,6.26801 -14,14 0,7.73199 6.26801,14 14,14 7.73199,0 14,-6.26801 14,-14 0,-7.73199 -6.26801,-14 -14,-14 z M 328,252 c 2.20914,0 4,1.79086 4,4 0,2.20914 -1.79086,4 -4,4 -2.20914,0 -4,-1.79086 -4,-4 0,-2.20914 1.79086,-4 4,-4 z m 0,1 c -1.65685,0 -3,1.34315 -3,3 0,1.65685 1.34315,3 3,3 1.65685,0 3,-1.34315 3,-3 0,-1.65685 -1.34315,-3 -3,-3 z m 0,1 c 1.10457,0 2,0.89543 2,2 0,1.10457 -0.89543,2 -2,2 -1.10457,0 -2,-0.89543 -2,-2 0,-1.10457 0.89543,-2 2,-2 z"/></clipPath><clipPath id="clipPath94"><rect id="rect96" width="240" height="240" x="24" y="36" fill="#986767" color="#bebebe" rx="50"/></clipPath><clipPath id="clipPath98"><rect id="rect100" width="30" height="30" x="433" y="29" color="#bebebe" rx="6"/></clipPath><clipPath id="clipPath102"><rect id="rect104" width="22" height="22" x="433" y="77" color="#bebebe" rx="4"/></clipPath><clipPath id="clipPath106"><path id="path108" d="m 451.38843,127.3713 c -3.31371,0 -6,2.68629 -6,6 0,3.31371 2.68629,6 6,6 3.31371,0 6,-2.68629 6,-6 0,-3.31371 -2.68629,-6 -6,-6 z m 0,3 c 1.65685,0 3,1.34315 3,3 0,1.65685 -1.34315,3 -3,3 -1.65685,0 -3,-1.34315 -3,-3 0,-1.65685 1.34315,-3 3,-3 z m 0,1 c -1.10457,0 -2,0.89543 -2,2 0,1.10457 0.89543,2 2,2 1.10457,0 2,-0.89543 2,-2 0,-1.10457 -0.89543,-2 -2,-2 z m 0,1 c 0.55228,0 1,0.44772 1,1 0,0.55228 -0.44772,1 -1,1 -0.55228,0 -1,-0.44772 -1,-1 0,-0.55228 0.44772,-1 1,-1 z"/></clipPath><clipPath id="clipPath110"><path id="path112" d="m 144.00001,75.999997 c -44.1828,0 -80,35.817203 -80,80.000003 0,44.1828 35.8172,80 80,80 44.1828,0 80,-35.8172 80,-80 0,-44.1828 -35.8172,-80.000003 -80,-80.000003 z m 0,56.607143 c 12.62366,0 22.85714,10.23349 22.85714,22.85714 0,12.62366 -10.23348,22.85714 -22.85714,22.85714 -12.62366,0 -22.85714,-10.23348 -22.85714,-22.85714 0,-12.62365 10.23348,-22.85714 22.85714,-22.85714 z m 0,5.71429 c -9.46771,0 -17.14286,7.67514 -17.14286,17.14285 0,9.46772 7.67515,17.14286 17.14286,17.14286 9.46771,0 17.14286,-7.67514 17.14286,-17.14286 0,-9.46771 -7.67515,-17.14285 -17.14286,-17.14285 z m 0,5.71428 c 6.31183,0 11.42857,5.11674 11.42857,11.42857 0,6.31183 -5.11674,11.42857 -11.42857,11.42857 -6.31183,0 -11.42857,-5.11674 -11.42857,-11.42857 0,-6.31183 5.11674,-11.42857 11.42857,-11.42857 z"/></clipPath><clipPath id="clipPath114"><rect id="rect116" width="20" height="20" x="434" y="78" color="#bebebe" rx="4"/></clipPath><clipPath id="clipPath118"><rect id="rect120" width="16" height="16" x="432" y="116" color="#bebebe" rx="3"/></clipPath><clipPath id="clipPath122"><path id="path124" d="m 451.38843,133.3713 6.42857,4.71429 0,-11.57143 -6.42857,0 z"/></clipPath><clipPath id="clipPath126"><rect id="rect128" width="20" height="20" x="434" y="78" color="#bebebe" rx="4"/></clipPath><clipPath id="clipPath130"><path id="path132" d="m 440,126 c -3.31371,0 -6,2.68629 -6,6 0,3.31371 2.68629,6 6,6 3.31371,0 6,-2.68629 6,-6 0,-3.31371 -2.68629,-6 -6,-6 z m 0,3 c 1.65685,0 3,1.34315 3,3 0,1.65685 -1.34315,3 -3,3 -1.65685,0 -3,-1.34315 -3,-3 0,-1.65685 1.34315,-3 3,-3 z m 0,1 c -1.10457,0 -2,0.89543 -2,2 0,1.10457 0.89543,2 2,2 1.10457,0 2,-0.89543 2,-2 0,-1.10457 -0.89543,-2 -2,-2 z m 0,1 c 0.55228,0 1,0.44772 1,1 0,0.55228 -0.44772,1 -1,1 -0.55228,0 -1,-0.44772 -1,-1 0,-0.55228 0.44772,-1 1,-1 z"/></clipPath><clipPath id="clipPath134"><rect id="rect136" width="16" height="16" x="432" y="116" fill="#6d6d6d" color="#bebebe" opacity=".2" rx="2"/></clipPath><clipPath id="clipPath138"><rect id="rect140" width="90" height="90" x="307" y="31" fill="url(#7)" color="#bebebe" rx="18.75"/></clipPath><clipPath id="clipPath142"><rect id="rect144" width="22" height="22" x="433" y="77" fill="#6d6d6d" color="#bebebe" opacity=".2" rx="3"/></clipPath><clipPath id="clipPath146"><rect id="rect148" width="20" height="20" x="434" y="78" color="#bebebe" rx="4"/></clipPath><clipPath id="clipPath150"><rect id="rect152" width="240" height="240" x="24" y="36" fill="#986767" color="#bebebe" rx="50"/></clipPath><clipPath id="clipPath154"><rect id="rect156" width="90" height="90" x="307" y="31" fill="url(#3)" color="#bebebe" rx="18.75"/></clipPath><clipPath id="clipPath158"><rect id="rect160" width="22" height="22" x="433" y="77" color="#bebebe" rx="4"/></clipPath><clipPath id="clipPath162"><rect id="rect164" width="30" height="30" x="433" y="29" color="#bebebe" rx="6"/></clipPath><clipPath id="clipPath166"><rect id="rect168" width="22" height="22" x="433" y="77" color="#bebebe" rx="5"/></clipPath><clipPath id="clipPath170"><rect id="rect172" width="16" height="16" x="432" y="116" color="#bebebe" rx="3"/></clipPath><clipPath id="clipPath174"><rect id="rect176" width="22" height="22" x="433" y="77" fill="#6d6d6d" color="#bebebe" opacity=".2" rx="3"/></clipPath><clipPath id="clipPath178"><rect id="rect180" width="30" height="30" x="433" y="29" fill="#6d6d6d" color="#bebebe" opacity=".2" rx="4"/></clipPath><clipPath id="clipPath182"><rect id="rect184" width="60" height="60" x="306" y="142" fill="url(#9)" color="#bebebe" rx="12.5" transform="matrix(0 -1 1 0 0 0)"/></clipPath><clipPath id="clipPath186"><rect id="rect188" width="42" height="42" x="307" y="223" fill="url(#8)" color="#bebebe" rx="9" transform="rotate(90)"/></clipPath><linearGradient id="0" x2="0" y1="280" y2="40" gradientTransform="matrix(.175 0 0 .175 302.79999 215.99997)" gradientUnits="userSpaceOnUse" xlink:href="#2"/><linearGradient id="1" x2="0" y1="230" y2="90" gradientTransform="matrix(.25 0 0 .25 299.99999 131.99999)" gradientUnits="userSpaceOnUse" xlink:href="#2"/><linearGradient id="2"><stop id="stop193" stop-color="#f0f0f0"/><stop id="stop195" offset="1" stop-color="#f8f8f8"/></linearGradient><linearGradient id="linearGradient197" x2="0" y1="140" y2="124" gradientTransform="translate(11.38843 1.3713)" gradientUnits="userSpaceOnUse" xlink:href="#5"/><linearGradient id="linearGradient199" x2="0" y1="273" y2="231" gradientTransform="translate(0 4.09376)" gradientUnits="userSpaceOnUse" xlink:href="#5"/><linearGradient id="linearGradient201" x2="0" y1="273" y2="231" gradientTransform="matrix(5.71429 0 0 5.71429 -1730.2857 -1284)" gradientUnits="userSpaceOnUse" xlink:href="#5"/><linearGradient id="linearGradient203" x2="0" y1="273" y2="231" gradientTransform="matrix(5.71429 0 0 5.71429 -1730.2857 -1284)" gradientUnits="userSpaceOnUse" xlink:href="#5"/><linearGradient id="3" x2="0" y1="230" y2="90" gradientTransform="matrix(.375 0 0 .375 298 16)" gradientUnits="userSpaceOnUse" xlink:href="#2"/><linearGradient id="4"><stop id="stop207" stop-color="#eaba31"/><stop id="stop209" offset="1" stop-color="#ff9200"/></linearGradient><linearGradient id="5"><stop id="stop212" stop-color="#818181"/><stop id="stop214" offset="1" stop-color="#c5c5c5"/></linearGradient><linearGradient id="6"><stop id="stop217" stop-color="#333"/><stop id="stop219" offset="1" stop-color="#555"/></linearGradient><linearGradient id="linearGradient221" x2="0" y1="140" y2="124" gradientUnits="userSpaceOnUse" xlink:href="#5"/><linearGradient id="linearGradient223" x2="0" y1="107" y2="85" gradientUnits="userSpaceOnUse" xlink:href="#5"/><linearGradient id="linearGradient225" x2="0" y1="107" y2="85" gradientUnits="userSpaceOnUse" xlink:href="#5"/><linearGradient id="7" x2="0" y1="230" y2="90" gradientTransform="matrix(.375 0 0 .375 298 16)" gradientUnits="userSpaceOnUse" xlink:href="#2"/><linearGradient id="8" x2="0" y1="280" y2="40" gradientTransform="matrix(.175 0 0 .175 302.79999 215.99997)" gradientUnits="userSpaceOnUse" xlink:href="#2"/><linearGradient id="linearGradient229" x2="0" y1="140" y2="124" gradientUnits="userSpaceOnUse" xlink:href="#5"/><linearGradient id="linearGradient231" x2="0" y1="140" y2="124" gradientTransform="translate(11.38843 1.3713)" gradientUnits="userSpaceOnUse" xlink:href="#5"/><linearGradient id="linearGradient233" x2="0" y1="273" y2="231" gradientTransform="translate(0 4.09376)" gradientUnits="userSpaceOnUse" xlink:href="#5"/><linearGradient id="linearGradient235" x2="0" y1="140" y2="124" gradientUnits="userSpaceOnUse" xlink:href="#5"/><linearGradient id="linearGradient237" x2="0" y1="140" y2="124" gradientTransform="translate(11.38843 1.3713)" gradientUnits="userSpaceOnUse" xlink:href="#5"/><linearGradient id="linearGradient239" x2="0" y1="273" y2="231" gradientTransform="translate(0 4.09376)" gradientUnits="userSpaceOnUse" xlink:href="#5"/><linearGradient id="linearGradient241" x2="0" y1="273" y2="231" gradientTransform="matrix(5.71429 0 0 5.71429 -1730.2857 -1284)" gradientUnits="userSpaceOnUse" xlink:href="#5"/><linearGradient id="9" x2="0" y1="230" y2="90" gradientTransform="matrix(.25 0 0 .25 299.99999 131.99999)" gradientUnits="userSpaceOnUse" xlink:href="#2"/><linearGradient id="A" x2="0" y1="230" y2="90" gradientTransform="matrix(.25 0 0 .25 299.99999 131.99999)" gradientUnits="userSpaceOnUse" xlink:href="#2"/><linearGradient id="B" x2="0" y1="230" y2="90" gradientTransform="matrix(.375 0 0 .375 298 16)" gradientUnits="userSpaceOnUse" xlink:href="#2"/><linearGradient id="C" x2="0" y1="280" y2="40" gradientTransform="matrix(.175 0 0 .175 302.79999 215.99997)" gradientUnits="userSpaceOnUse" xlink:href="#2"/><linearGradient id="linearGradient247" x2="0" y1="107" y2="85" gradientUnits="userSpaceOnUse" xlink:href="#5"/><radialGradient id="radialGradient249" cx="328" cy="255.42" r="7" gradientTransform="matrix(2.85714 0 0 2.85714 -609.14349 -473.66662)" gradientUnits="userSpaceOnUse" xlink:href="#4"/><radialGradient id="radialGradient251" cx="328" cy="255.42" r="7" gradientTransform="matrix(1.22449 0 0 1.22449 49.7555 -179.34296)" gradientUnits="userSpaceOnUse" xlink:href="#4"/><radialGradient id="radialGradient253" cx="328" cy="255.42" r="7" gradientTransform="matrix(2.85714 0 0 2.85714 -609.14349 -473.66662)" gradientUnits="userSpaceOnUse" xlink:href="#4"/><radialGradient id="radialGradient255" cx="328" cy="255.42" r="7" gradientTransform="matrix(2.85714 0 0 2.85714 -609.14349 -473.66662)" gradientUnits="userSpaceOnUse" xlink:href="#4"/><radialGradient id="radialGradient257" cx="328" cy="255.42" r="7" gradientTransform="matrix(1.22449 0 0 1.22449 49.7555 -179.34296)" gradientUnits="userSpaceOnUse" xlink:href="#4"/><radialGradient id="radialGradient259" cx="328" cy="255.42" r="7" gradientTransform="matrix(1.22449 0 0 1.22449 49.7555 -179.34296)" gradientUnits="userSpaceOnUse" xlink:href="#4"/><linearGradient id="D" x2="0" y1="1050.36" y2="1006.36" gradientTransform="matrix(0.28222223,0,0,0.28222223,0,-283.45334)" gradientUnits="userSpaceOnUse" xlink:href="#6"/><radialGradient id="radialGradient3010" cx="148.004" cy="160" r="128" gradientTransform="matrix(0.05167489,0,0,0.05167489,-0.87510911,-1.4947617)" gradientUnits="userSpaceOnUse" spreadMethod="pad" xlink:href="#linearGradient4460"/><linearGradient id="linearGradient4460"><stop id="stop8-6" offset="0" stop-color="#d1fdb1" stop-opacity="1"/><stop id="stop10-2" offset="1" stop-color="#254416" stop-opacity="1"/></linearGradient><radialGradient id="radialGradient3009" cx="148.004" cy="160" r="128" gradientTransform="matrix(0.05167489,0,0,0.05167489,-0.87510911,-1.494761)" gradientUnits="userSpaceOnUse" spreadMethod="pad" xlink:href="#linearGradient4460"/></defs><path id="path11" fill="url(#radialGradient3009)" fill-opacity="1" d="m 13.387779,3.2589208 0,7.0290972 c 0,2.892778 0,3.100035 -3.100035,3.100035 l -7.0279946,0 c -3.10113751,0 -3.10113751,-0.207257 -3.10113751,-3.100035 l 0,-7.0290972 c 0,-2.89277759 0,-3.10003449 3.10113751,-3.10003449 l 7.0279946,0 c 3.100035,0 3.100035,0.2072569 3.100035,3.10003449 z"/><path id="path15" fill="#fff" fill-opacity=".051" d="m 10.799272,13.388053 c 0.717682,-0.0033 1.235825,-0.02315 1.611753,-0.124575 l -1.193932,-2.04611 -1.2655898,2.170685 0.3362408,0 c 0.180799,0 0.350573,0 0.511528,0 z M 11.217093,11.217368 9.770704,8.7368983 8.323213,11.217368 z m 0,0 2.159662,0 c 0.0088,-0.274506 0.01102,-0.582084 0.01102,-0.930452 l 0,-0.3097834 -0.723191,-1.2402343 z M 12.664585,8.7368983 11.217093,6.2564296 9.770704,8.7368983 z m 0,0 0.723194,0 0,-1.2402343 z m -2.893881,0 L 8.323213,6.2564296 6.8768244,8.7368983 z m -2.8938796,0 -1.4474916,2.4804697 2.8938802,0 z m 0,0 L 5.4293328,6.2564296 3.9829439,8.7368983 z m -2.8938805,0 -1.4474914,2.4804697 2.8938803,0 z m 0,0 L 2.5354525,6.2564296 1.0890639,8.7368983 z m -2.89388,0 -0.93045201,1.5941147 c 0,0.329627 0.0033,0.623976 0.01102,0.886355 l 2.36581611,0 z m 0,0 -0.93045201,-1.5941145 0,1.5941145 z m 1.4463886,2.4804697 -1.2170836,2.0869 c 0.450894,0.08268 1.0748702,0.08379 1.9413805,0.08379 l 0.5423959,0 z m 0,-4.9609384 -1.4463886,-2.4804689 -0.93045201,1.5941148 0,0.8863541 z m 0,0 2.8938803,0 L 3.9829439,3.7759607 z M 3.9829439,3.7759607 2.5354525,1.2954923 1.0890639,3.7759607 z m 0,0 2.8938805,0 -1.4474916,-2.4804684 z m 1.4463889,-2.4804684 -0.663663,-1.13660599 -1.5059204,0 c -0.02205,0 -0.039688,0 -0.060634,0 L 2.5354525,1.2954923 z m 0,0 2.8938802,0 -0.663663,-1.13660599 -1.5665538,0 z m 2.8938802,0 2.89388,0 -0.663663,-1.13660599 c -0.0882,0 -0.171979,0 -0.265686,0 l -1.3008679,0 z m 0,0 -1.4463886,2.4804684 2.8938796,0 z m 1.447491,2.4804684 2.893881,0 -1.447492,-2.4804684 z m 0,0 -1.447491,2.4804689 2.89388,0 z m 1.446389,2.4804689 2.170686,0 0,-1.2402343 -0.723194,-1.2402346 z m 1.447492,-2.4804689 0.723194,0 0,-0.5170399 c 0,-0.2579689 -0.0022,-0.4938886 -0.0066,-0.7121697 z M 8.323213,6.2564296 6.8768244,3.7759607 5.4293328,6.2564296 z m 2.89388,-4.9609373 2.062648,0 C 13.123196,0.51717623 12.747267,0.27133431 11.85981,0.19416411 z m -8.6816405,0 L 1.8850189,0.17983251 C 0.85204089,0.23826151 0.43421989,0.46095214 0.26664989,1.2954923 z M 1.0890639,3.7759607 0.17514889,2.2083048 c -0.01213,0.3031685 -0.01654,0.6515363 -0.01654,1.050616 l 0,0.5170399 z m 4.3402689,7.4414073 -1.2655903,2.170685 2.532283,0 z m 2.8938802,0 -1.2655903,2.170685 2.5322833,0 z m -7.59133711,1.868619 -0.451996,-0.775009 c 0.08268,0.371519 0.221588,0.615157 0.451996,0.775009 z"/><g id="g278" fill="#dedede" transform="matrix(.05655 0 0 .05655 -.46567 10.16662)"><path id="path280" d="m 128,-109.90253 c -27.56062,0 -49.902534,6.98168 -49.902534,15.594542 v 12.475633 c 0,8.61267 22.341324,15.594541 49.902534,15.594541 27.56043,0 49.90253,-6.981871 49.90253,-15.594541 v -12.475633 c 0,-8.612862 -22.3421,-15.594542 -49.90253,-15.594542 z"/><path id="path282" d="m 127.84269,-59.999997 c -22.34444,0 -41.179922,-4.589279 -47.538596,-10.916179 -1.484406,1.476998 -2.206628,3.048538 -2.206628,4.678362 v 12.475634 c 0,8.612865 22.341324,15.594541 49.902534,15.594541 27.56043,0 49.90253,-6.981676 49.90253,-15.594541 v -12.475634 c 0,-1.629824 -0.88031,-3.201364 -2.36472,-4.678362 -6.35847,6.3269 -25.35068,10.916179 -47.69512,10.916179 z"/><path id="path284" d="m 127.84269,-31.929822 c -22.34444,0 -41.179922,-4.589474 -47.538596,-10.916179 -1.484406,1.476803 -2.206628,3.048538 -2.206628,4.678362 v 12.475634 c 0,8.61267 22.341324,15.594541 49.902534,15.594541 27.56043,0 49.90253,-6.981871 49.90253,-15.594541 v -12.475634 c 0,-1.629824 -0.88031,-3.201559 -2.36472,-4.678362 -6.35847,6.326705 -25.35068,10.916179 -47.69512,10.916179 z"/></g></svg>