<svg xmlns="http://www.w3.org/2000/svg" xmlns:svg="http://www.w3.org/2000/svg" xmlns:xlink="http://www.w3.org/1999/xlink" id="svg2" width="48" height="48" enable-background="new" version="1.1" viewBox="0 0 13.547 13.547"><metadata id="metadata107"/><defs id="defs4"><linearGradient id="0"><stop id="stop7" stop-color="#dedede"/><stop id="stop9" offset="1" stop-color="#f9f9ff"/></linearGradient><linearGradient id="1" x2="0" y1="299.81" y2="31.619" gradientTransform="matrix(0.11931818,0,0,0.11931818,414.13636,48.22727)" gradientUnits="userSpaceOnUse" xlink:href="#A"/><clipPath id="clipPath12"><rect id="rect14" width="30" height="30" x="417" y="53" fill="url(#1)" color="#bebebe" rx="7"/></clipPath><linearGradient id="2" x2="0" y1="302.86" y2="28.571" gradientTransform="matrix(0.0875,0,0,0.0875,414.9,97.5)" gradientUnits="userSpaceOnUse" xlink:href="#A"/><clipPath id="clipPath17"><rect id="rect19" width="22" height="22" x="417" y="101" fill="url(#2)" color="#bebebe" rx="5"/></clipPath><linearGradient id="3" x2="0" y1="124" y2="28" gradientUnits="userSpaceOnUse" xlink:href="#A"/><clipPath id="clipPath22"><rect id="rect24" width="88" height="88" x="292" y="32" fill="url(#3)" color="#bebebe" rx="18"/></clipPath><linearGradient id="4" x2="0" y1="204" y2="140" gradientUnits="userSpaceOnUse" xlink:href="#A"/><clipPath id="clipPath27"><rect id="rect29" width="60" height="60" x="290" y="142" fill="url(#4)" color="#bebebe" rx="12.5"/></clipPath><linearGradient id="5" x2="0" y1="280" y2="40" gradientTransform="translate(0,-4)" gradientUnits="userSpaceOnUse" xlink:href="#A"/><clipPath id="clipPath32"><rect id="rect34" width="220" height="220" x="34" y="46" fill="url(#5)" color="#bebebe" rx="50"/></clipPath><linearGradient id="6" x2="0" y1="280" y2="40" gradientTransform="matrix(0.06666667,0,0,0.06666667,302.4,209.33333)" gradientUnits="userSpaceOnUse" xlink:href="#A"/><clipPath id="clipPath37"><rect id="rect39" width="16" height="16" x="304" y="212" fill="url(#6)" color="#bebebe" rx="3" transform="matrix(0,1,-1,0,0,0)"/></clipPath><linearGradient id="7" x2="0" y1="291.43" y2="40" gradientTransform="matrix(0.11931818,0,0,0.11931818,430.13636,32.227267)" gradientUnits="userSpaceOnUse" xlink:href="#A"/><clipPath id="clipPath42"><rect id="rect44" width="30" height="30" x="433" y="37" fill="url(#7)" color="#bebebe" rx="6"/></clipPath><linearGradient id="8" x2="0" y1="291.43" y2="40" gradientTransform="matrix(0.0875,0,0,0.0875,430.9,81.499996)" gradientUnits="userSpaceOnUse" xlink:href="#A"/><clipPath id="clipPath47"><rect id="rect49" width="22" height="22" x="433" y="85" fill="url(#8)" color="#bebebe" rx="4"/></clipPath><linearGradient id="9" x2="0" y1="280" y2="40" gradientTransform="matrix(0.175,0,0,0.175,302.79999,215.99997)" gradientUnits="userSpaceOnUse" xlink:href="#A"/><clipPath id="clipPath52"><rect id="rect54" width="42" height="42" x="307" y="223" fill="url(#9)" color="#bebebe" rx="9" transform="matrix(0,1,-1,0,0,0)"/></clipPath><linearGradient id="A"><stop id="stop57" stop-color="#b94642"/><stop id="stop59" offset="1" stop-color="#c66a58"/></linearGradient><linearGradient id="B" x2="0" y1="279.1" y2="268.33" gradientTransform="matrix(1.10525,0,0,1.10525,-134.27874,-295.76183)" gradientUnits="userSpaceOnUse" xlink:href="#0"/><linearGradient id="C" x2="0" y1="1050.36" y2="1006.36" gradientTransform="translate(-78.066777,-887.05179)" gradientUnits="userSpaceOnUse" xlink:href="#0"/><radialGradient id="radialGradient3012" cx="148.004" cy="160" r="128" gradientTransform="matrix(0.05167489,0,0,0.05167489,-0.87510911,-1.4947611)" gradientUnits="userSpaceOnUse" spreadMethod="pad" xlink:href="#linearGradient4460"/><linearGradient id="linearGradient4460"><stop id="stop8-6" offset="0" stop-color="#747474" stop-opacity=".75"/><stop id="stop10-2" offset="1" stop-color="#2d2d2d" stop-opacity=".76"/></linearGradient><radialGradient id="radialGradient3009" cx="148.004" cy="160" r="128" gradientTransform="matrix(0.05167489,0,0,0.05167489,-0.87510911,-1.4947614)" gradientUnits="userSpaceOnUse" spreadMethod="pad" xlink:href="#linearGradient4460"/><linearGradient id="linearGradient3103" x2="0" y1="1050.36" y2="1006.36" gradientTransform="translate(-78.066777,-887.05179)" gradientUnits="userSpaceOnUse" xlink:href="#0"/><linearGradient id="linearGradient3116" x2="0" y1="1050.36" y2="1006.36" gradientTransform="matrix(0.28222223,0,0,0.28222223,1.0614729e-7,-283.45334)" gradientUnits="userSpaceOnUse" xlink:href="#0"/></defs><path id="path11" fill="url(#radialGradient3009)" fill-opacity="1" d="m 13.387778,3.2589206 0,7.0290974 c 0,2.892778 0,3.100035 -3.100035,3.100035 l -7.0279936,0 c -3.10113751,0 -3.10113751,-0.207257 -3.10113751,-3.100035 l 0,-7.0290974 c 0,-2.89277781 0,-3.10003481 3.10113751,-3.10003481 l 7.0279936,0 c 3.100035,0 3.100035,0.207257 3.100035,3.10003481 z"/><path id="path15" fill="#fff" fill-opacity=".051" d="m 10.799271,13.388053 c 0.717682,-0.0033 1.235825,-0.02315 1.611753,-0.124575 l -1.193932,-2.04611 -1.2655896,2.170685 0.3362406,0 c 0.180799,0 0.350573,0 0.511528,0 z M 11.217092,11.217368 9.7707043,8.7368981 8.3232133,11.217368 z m 0,0 2.159662,0 c 0.0088,-0.274506 0.01102,-0.582084 0.01102,-0.930452 l 0,-0.3097839 -0.723193,-1.240234 z M 12.664584,8.7368981 11.217092,6.2564294 9.7707043,8.7368981 z m 0,0 0.723194,0 0,-1.2402343 z m -2.8938797,0 -1.447491,-2.4804687 -1.4463889,2.4804687 z m -2.8938799,0 -1.4474919,2.4804699 2.8938808,0 z m 0,0 L 5.4293325,6.2564294 3.9829433,8.7368981 z m -2.8938811,0 -1.4474909,2.4804699 2.8938801,0 z m 0,0 -1.4474909,-2.4804687 -1.446389,2.4804687 z m -2.8938799,0 -0.93045151,1.5941149 c 0,0.329627 0.0033,0.623976 0.01102,0.886355 l 2.36581551,0 z m 0,0 -0.93045151,-1.5941145 0,1.5941145 z m 1.446389,2.4804699 -1.217084,2.0869 c 0.450894,0.08268 1.07487,0.08379 1.941381,0.08379 l 0.5423959,0 z m 0,-4.9609386 -1.446389,-2.4804689 -0.93045151,1.5941147 0,0.8863542 z m 0,0 2.8938801,0 L 3.9829433,3.7759605 z M 3.9829433,3.7759605 2.5354524,1.2954918 1.0890634,3.7759605 z m 0,0 2.8938811,0 -1.4474919,-2.4804687 z m 1.4463892,-2.4804687 -0.663663,-1.13660601 -1.5059201,0 c -0.02205,0 -0.03969,0 -0.06063,0 L 2.5354564,1.2954918 z m 0,0 2.8938808,0 -0.6636639,-1.13660601 -1.5665541,0 z m 2.8938808,0 2.8938787,0 -0.663663,-1.13660601 c -0.0882,0 -0.171979,0 -0.265686,0 l -1.3008666,0 z m 0,0 -1.4463889,2.4804687 2.8938799,0 z m 1.447491,2.4804687 2.8938797,0 -1.447492,-2.4804687 z m 0,0 -1.447491,2.4804689 2.8938787,0 z m 1.4463877,2.4804689 2.170686,0 0,-1.2402343 -0.723194,-1.2402346 z m 1.447492,-2.4804689 0.723194,0 0,-0.5170399 c 0,-0.2579689 -0.0022,-0.4938888 -0.0066,-0.71217 z M 8.3232133,6.2564294 6.8768244,3.7759605 5.4293325,6.2564294 z m 2.8938787,-4.9609376 2.062648,0 C 13.123195,0.51717571 12.747266,0.27133389 11.859809,0.19416359 z m -8.6816396,0 -0.650434,-1.11565971 C 0.85204089,0.23826109 0.43421989,0.46095168 0.26664989,1.2954918 z M 1.0890634,3.7759605 0.17514889,2.2083044 c -0.01213,0.3031684 -0.01654,0.6515363 -0.01654,1.0506162 l 0,0.5170399 z m 4.3402691,7.4414075 -1.26559,2.170685 2.532283,0 z m 2.8938808,0 -1.2655909,2.170685 2.532283,0 z m -7.59133741,1.868619 -0.451996,-0.775009 c 0.08268,0.371519 0.221588,0.615157 0.451996,0.775009 z"/><path id="path87" fill="#f9f9f9" fill-opacity="1" stroke="#f9f9f9" stroke-width=".027" d="m 5.7281575,5.8014109 c 0,0.3016228 -0.2495015,0.5466449 -0.5583355,0.5466449 -0.3088341,0 -0.5583356,-0.2450221 -0.5583356,-0.5466449 0,-0.3023677 0.2495015,-0.5473898 0.5583356,-0.5473898 0.308834,0 0.5583355,0.2450221 0.5583355,0.5473898 z"/><path id="path89" fill="#f9f9f9" fill-opacity="1" stroke="#f9f9f9" stroke-width=".027" d="m 5.1690614,7.7020075 c 0,0.5533477 -0.4586871,1.0024307 -1.0238691,1.0024307 -0.5651816,0 -1.0231082,-0.449083 -1.0231082,-1.0024307 0,-0.5533477 0.4579266,-1.001686 1.0231082,-1.001686 0.565182,0 1.0238691,0.4483383 1.0238691,1.001686 z"/><path id="path91" fill="#f9f9f9" fill-opacity="1" stroke="#f9f9f9" stroke-width=".027" d="m 6.4059192,7.0354581 c 0,0.5980327 -0.4951996,1.0836083 -1.1060218,1.0836083 -0.6108223,0 -1.1060219,-0.4855756 -1.1060219,-1.0836083 0,-0.5980326 0.4951996,-1.0828634 1.1060219,-1.0828634 0.6108222,0 1.1060218,0.4848308 1.1060218,1.0828634 z"/><path id="path93" fill="#f9f9f9" fill-opacity="1" stroke="#f9f9f9" stroke-width=".027" d="m 8.5791685,6.5968017 c 0,0.5533477 -0.4579266,1.001686 -1.0231082,1.001686 -0.565182,0 -1.0231083,-0.4483383 -1.0231083,-1.001686 0,-0.5533478 0.4579263,-1.0024308 1.0231083,-1.0024308 0.5651816,0 1.0231082,0.449083 1.0231082,1.0024308 z"/><path id="path95" fill="#f9f9f9" fill-opacity="1" stroke="#f9f9f9" stroke-width=".027" d="m 7.4571724,5.8170506 c 0,0.5533477 -0.4579265,1.0016861 -1.0231082,1.0016861 -0.5651817,0 -1.0238688,-0.4483384 -1.0238688,-1.0016861 0,-0.5533477 0.4586871,-1.001686 1.0238688,-1.001686 0.5651817,0 1.0231082,0.4483383 1.0231082,1.001686 z"/><path id="path97" fill="#f9f9f9" fill-opacity="1" stroke="#f9f9f9" stroke-width=".027" d="m 10.424567,8.0892765 c 0,0.316518 -0.262434,0.5727112 -0.5857204,0.5727112 -0.3225265,0 -0.5849593,-0.2561932 -0.5849593,-0.5727112 0,-0.316518 0.2624328,-0.5734559 0.5849593,-0.5734559 0.3232864,0 0.5857204,0.2569379 0.5857204,0.5734559 z"/><path id="path99" fill="#f9f9f9" fill-opacity="1" stroke="#f9f9f9" stroke-width=".027" d="m 9.7019248,7.6483856 c 0,0.5980326 -0.4951993,1.0828635 -1.1067824,1.0828635 -0.610822,0 -1.1060216,-0.4848309 -1.1060216,-1.0828635 0,-0.5987773 0.4951996,-1.0836082 1.1060216,-1.0836082 0.6115831,0 1.1067824,0.4848309 1.1067824,1.0836082 z"/><path id="path101" fill="#f9f9f9" fill-opacity="1" stroke="#f9f9f9" stroke-width=".027" d="m 5.8171567,8.1443877 c 0,0.316518 -0.2616725,0.5727113 -0.5849593,0.5727113 -0.3232871,0 -0.5849594,-0.2561933 -0.5849594,-0.5727113 0,-0.3165177 0.2616723,-0.5727109 0.5849594,-0.5727109 0.3232868,0 0.5849593,0.2561932 0.5849593,0.5727109 z"/><path id="path103" fill="#f9f9f9" fill-opacity="1" stroke="#f9f9f9" stroke-width=".036" d="m 8.1817065,7.3280145 c 0,0.7625948 -0.6320986,1.3807136 -1.4110022,1.3807136 -0.7789035,0 -1.4102416,-0.6181188 -1.4102416,-1.3807136 0,-0.7625948 0.6313381,-1.3807137 1.4102416,-1.3807137 0.7789036,0 1.4110022,0.6181189 1.4110022,1.3807137 z"/></svg>