<svg xmlns="http://www.w3.org/2000/svg" xmlns:svg="http://www.w3.org/2000/svg" xmlns:xlink="http://www.w3.org/1999/xlink" id="svg2" width="48" height="48" version="1.1"><metadata id="metadata112"/><defs id="defs4"><linearGradient id="0"><stop id="stop7" stop-color="#108fc9"/><stop id="stop9" offset="1" stop-color="#26afee"/></linearGradient><linearGradient id="1" x2="0" y1="1050.36" y2="1006.36" gradientTransform="translate(-3.7006836e-8,6.1039219e-5)" gradientUnits="userSpaceOnUse" xlink:href="#0"/><clipPath id="2"><rect id="rect13" width="44" height="44" x="2" y="1006.36" fill="url(#3)" rx="4"/></clipPath><linearGradient id="3" x2="0" y1="1050.36" y2="1006.36" gradientUnits="userSpaceOnUse" xlink:href="#0"/><linearGradient id="linearGradient4028" x2="0" y1="279.096" y2="268.33" gradientTransform="matrix(3.9162401,0,0,3.9162401,-505.59346,-1060.9919)" gradientUnits="userSpaceOnUse" xlink:href="#linearGradient4460"/><linearGradient id="linearGradient4460"><stop id="stop7-5" offset="0" stop-color="#1e5b77" stop-opacity="1"/><stop id="stop9-1" offset="1" stop-color="#538ea9" stop-opacity="1"/></linearGradient><linearGradient id="linearGradient4028-2" x2="0" y1="279.096" y2="268.33" gradientTransform="matrix(3.9162401,0,0,3.9162401,-526.54262,-1047.3648)" gradientUnits="userSpaceOnUse" xlink:href="#linearGradient4460-6"/><linearGradient id="linearGradient4460-6"><stop id="stop7-57" offset="0" stop-color="#1e5b77" stop-opacity="1"/><stop id="stop9-8" offset="1" stop-color="#538ea9" stop-opacity="1"/></linearGradient><linearGradient id="linearGradient3120" x2="0" y1="1050.36" y2="1006.36" gradientTransform="translate(-3.7006836e-8,-1004.3621)" gradientUnits="userSpaceOnUse" xlink:href="#linearGradient4460"/><linearGradient id="linearGradient4177" x2="0" y1="1050.36" y2="1006.36" gradientTransform="translate(-3.7006836e-8,-1004.3621)" gradientUnits="userSpaceOnUse" xlink:href="#linearGradient4460"/><clipPath id="clipPath4179" clipPathUnits="userSpaceOnUse"><rect id="rect4181" width="44" height="44" x="2" y="1.998" fill="url(#linearGradient4183)" fill-opacity="1" rx="4"/></clipPath><linearGradient id="linearGradient4183" x2="0" y1="1050.36" y2="1006.36" gradientTransform="translate(-3.7006836e-8,-1004.3621)" gradientUnits="userSpaceOnUse" xlink:href="#linearGradient4460"/><clipPath id="clipPath4185" clipPathUnits="userSpaceOnUse"><rect id="rect4187" width="44" height="44" x="2" y="1.998" fill="url(#linearGradient4189)" fill-opacity="1" rx="4"/></clipPath><linearGradient id="linearGradient4189" x2="0" y1="1050.36" y2="1006.36" gradientTransform="translate(-3.7006836e-8,-1004.3621)" gradientUnits="userSpaceOnUse" xlink:href="#linearGradient4460"/><clipPath id="clipPath4191" clipPathUnits="userSpaceOnUse"><rect id="rect4193" width="44" height="44" x="2" y="1.998" fill="url(#linearGradient4195)" fill-opacity="1" rx="4"/></clipPath><linearGradient id="linearGradient4195" x2="0" y1="1050.36" y2="1006.36" gradientTransform="translate(-3.7006836e-8,-1004.3621)" gradientUnits="userSpaceOnUse" xlink:href="#linearGradient4460"/><clipPath id="clipPath4197" clipPathUnits="userSpaceOnUse"><rect id="rect4199" width="44" height="44" x="2" y="1.998" fill="url(#linearGradient4201)" fill-opacity="1" rx="4"/></clipPath><linearGradient id="linearGradient4201" x2="0" y1="1050.36" y2="1006.36" gradientTransform="translate(-3.7006836e-8,-1004.3621)" gradientUnits="userSpaceOnUse" xlink:href="#linearGradient4460"/><clipPath id="clipPath4203" clipPathUnits="userSpaceOnUse"><rect id="rect4205" width="44" height="44" x="2" y="1.998" fill="url(#linearGradient4207)" fill-opacity="1" rx="4"/></clipPath><linearGradient id="linearGradient4207" x2="0" y1="1050.36" y2="1006.36" gradientTransform="translate(-3.7006836e-8,-1004.3621)" gradientUnits="userSpaceOnUse" xlink:href="#linearGradient4460"/><clipPath id="clipPath4209" clipPathUnits="userSpaceOnUse"><rect id="rect4211" width="44" height="44" x="2" y="1.998" fill="url(#linearGradient4213)" fill-opacity="1" rx="4"/></clipPath><linearGradient id="linearGradient4213" x2="0" y1="1050.36" y2="1006.36" gradientTransform="translate(-3.7006836e-8,-1004.3621)" gradientUnits="userSpaceOnUse" xlink:href="#linearGradient4460"/><clipPath id="clipPath4215" clipPathUnits="userSpaceOnUse"><rect id="rect4217" width="44" height="44" x="2" y="1.998" fill="url(#linearGradient4219)" fill-opacity="1" rx="4"/></clipPath><linearGradient id="linearGradient4219" x2="0" y1="1050.36" y2="1006.36" gradientTransform="translate(-3.7006836e-8,-1004.3621)" gradientUnits="userSpaceOnUse" xlink:href="#linearGradient4460"/><clipPath id="clipPath4221" clipPathUnits="userSpaceOnUse"><rect id="rect4223" width="44" height="44" x="2" y="1.998" fill="url(#linearGradient4225)" fill-opacity="1" rx="4"/></clipPath><linearGradient id="linearGradient4225" x2="0" y1="1050.36" y2="1006.36" gradientTransform="translate(-3.7006836e-8,-1004.3621)" gradientUnits="userSpaceOnUse" xlink:href="#linearGradient4460"/><clipPath id="clipPath4227" clipPathUnits="userSpaceOnUse"><rect id="rect4229" width="44" height="44" x="2" y="1.998" fill="url(#linearGradient4231)" fill-opacity="1" rx="4"/></clipPath><linearGradient id="linearGradient4231" x2="0" y1="1050.36" y2="1006.36" gradientTransform="translate(-3.7006836e-8,-1004.3621)" gradientUnits="userSpaceOnUse" xlink:href="#linearGradient4460"/><clipPath id="clipPath4233" clipPathUnits="userSpaceOnUse"><rect id="rect4235" width="44" height="44" x="2" y="1.998" fill="url(#linearGradient4237)" fill-opacity="1" rx="4"/></clipPath><linearGradient id="linearGradient4237" x2="0" y1="1050.36" y2="1006.36" gradientTransform="translate(-3.7006836e-8,-1004.3621)" gradientUnits="userSpaceOnUse" xlink:href="#linearGradient4460"/><clipPath id="clipPath4239" clipPathUnits="userSpaceOnUse"><rect id="rect4241" width="44" height="44" x="2" y="1.998" fill="url(#linearGradient4243)" fill-opacity="1" rx="4"/></clipPath><linearGradient id="linearGradient4243" x2="0" y1="1050.36" y2="1006.36" gradientTransform="translate(-3.7006836e-8,-1004.3621)" gradientUnits="userSpaceOnUse" xlink:href="#linearGradient4460"/><clipPath id="clipPath4245" clipPathUnits="userSpaceOnUse"><rect id="rect4247" width="44" height="44" x="2" y="1.998" fill="url(#linearGradient4249)" fill-opacity="1" rx="4"/></clipPath><linearGradient id="linearGradient4249" x2="0" y1="1050.36" y2="1006.36" gradientTransform="translate(-3.7006836e-8,-1004.3621)" gradientUnits="userSpaceOnUse" xlink:href="#linearGradient4460"/><clipPath id="clipPath4251" clipPathUnits="userSpaceOnUse"><rect id="rect4253" width="44" height="44" x="2" y="1.998" fill="url(#linearGradient4255)" fill-opacity="1" rx="4"/></clipPath><linearGradient id="linearGradient4255" x2="0" y1="1050.36" y2="1006.36" gradientTransform="translate(-3.7006836e-8,-1004.3621)" gradientUnits="userSpaceOnUse" xlink:href="#linearGradient4460"/><clipPath id="clipPath4257" clipPathUnits="userSpaceOnUse"><rect id="rect4259" width="44" height="44" x="2" y="1.998" fill="url(#linearGradient4261)" fill-opacity="1" rx="4"/></clipPath><linearGradient id="linearGradient4261" x2="0" y1="1050.36" y2="1006.36" gradientTransform="translate(-3.7006836e-8,-1004.3621)" gradientUnits="userSpaceOnUse" xlink:href="#linearGradient4460"/><clipPath id="clipPath4263" clipPathUnits="userSpaceOnUse"><rect id="rect4265" width="44" height="44" x="2" y="1.998" fill="url(#linearGradient4267)" fill-opacity="1" rx="4"/></clipPath><linearGradient id="linearGradient4267" x2="0" y1="1050.36" y2="1006.36" gradientTransform="translate(-3.7006836e-8,-1004.3621)" gradientUnits="userSpaceOnUse" xlink:href="#linearGradient4460"/><clipPath id="clipPath4269" clipPathUnits="userSpaceOnUse"><rect id="rect4271" width="44" height="44" x="2" y="1.998" fill="url(#linearGradient4273)" fill-opacity="1" rx="4"/></clipPath><linearGradient id="linearGradient4273" x2="0" y1="1050.36" y2="1006.36" gradientTransform="translate(-3.7006836e-8,-1004.3621)" gradientUnits="userSpaceOnUse" xlink:href="#linearGradient4460"/><clipPath id="clipPath4275" clipPathUnits="userSpaceOnUse"><rect id="rect4277" width="44" height="44" x="2" y="1.998" fill="url(#linearGradient4279)" fill-opacity="1" rx="4"/></clipPath><linearGradient id="linearGradient4279" x2="0" y1="1050.36" y2="1006.36" gradientTransform="translate(-3.7006836e-8,-1004.3621)" gradientUnits="userSpaceOnUse" xlink:href="#linearGradient4460"/><clipPath id="clipPath4281" clipPathUnits="userSpaceOnUse"><rect id="rect4283" width="44" height="44" x="2" y="1.998" fill="url(#linearGradient4285)" fill-opacity="1" rx="4"/></clipPath><linearGradient id="linearGradient4285" x2="0" y1="1050.36" y2="1006.36" gradientTransform="translate(-3.7006836e-8,-1004.3621)" gradientUnits="userSpaceOnUse" xlink:href="#linearGradient4460"/><clipPath id="clipPath4287" clipPathUnits="userSpaceOnUse"><rect id="rect4289" width="44" height="44" x="2" y="1.998" fill="url(#linearGradient4291)" fill-opacity="1" rx="4"/></clipPath><linearGradient id="linearGradient4291" x2="0" y1="1050.36" y2="1006.36" gradientTransform="translate(-3.7006836e-8,-1004.3621)" gradientUnits="userSpaceOnUse" xlink:href="#linearGradient4460"/><clipPath id="clipPath4293" clipPathUnits="userSpaceOnUse"><rect id="rect4295" width="44" height="44" x="2" y="1.998" fill="url(#linearGradient4297)" fill-opacity="1" rx="4"/></clipPath><linearGradient id="linearGradient4297" x2="0" y1="1050.36" y2="1006.36" gradientTransform="translate(-3.7006836e-8,-1004.3621)" gradientUnits="userSpaceOnUse" xlink:href="#linearGradient4460"/><clipPath id="clipPath4299" clipPathUnits="userSpaceOnUse"><rect id="rect4301" width="44" height="44" x="2" y="1.998" fill="url(#linearGradient4303)" fill-opacity="1" rx="4"/></clipPath><linearGradient id="linearGradient4303" x2="0" y1="1050.36" y2="1006.36" gradientTransform="translate(-3.7006836e-8,-1004.3621)" gradientUnits="userSpaceOnUse" xlink:href="#linearGradient4460"/><clipPath id="clipPath4305" clipPathUnits="userSpaceOnUse"><rect id="rect4307" width="44" height="44" x="2" y="1.998" fill="url(#linearGradient4309)" fill-opacity="1" rx="4"/></clipPath><linearGradient id="linearGradient4309" x2="0" y1="1050.36" y2="1006.36" gradientTransform="translate(-3.7006836e-8,-1004.3621)" gradientUnits="userSpaceOnUse" xlink:href="#linearGradient4460"/><clipPath id="clipPath4311" clipPathUnits="userSpaceOnUse"><rect id="rect4313" width="44" height="44" x="2" y="1.998" fill="url(#linearGradient4315)" fill-opacity="1" rx="4"/></clipPath><linearGradient id="linearGradient4315" x2="0" y1="1050.36" y2="1006.36" gradientTransform="translate(-3.7006836e-8,-1004.3621)" gradientUnits="userSpaceOnUse" xlink:href="#linearGradient4460"/><clipPath id="clipPath4317" clipPathUnits="userSpaceOnUse"><rect id="rect4319" width="44" height="44" x="2" y="1.998" fill="url(#linearGradient4321)" fill-opacity="1" rx="4"/></clipPath><linearGradient id="linearGradient4321" x2="0" y1="1050.36" y2="1006.36" gradientTransform="translate(-3.7006836e-8,-1004.3621)" gradientUnits="userSpaceOnUse" xlink:href="#linearGradient4460"/><clipPath id="clipPath4323" clipPathUnits="userSpaceOnUse"><rect id="rect4325" width="44" height="44" x="2" y="1.998" fill="url(#linearGradient4327)" fill-opacity="1" rx="4"/></clipPath><linearGradient id="linearGradient4327" x2="0" y1="1050.36" y2="1006.36" gradientTransform="translate(-3.7006836e-8,-1004.3621)" gradientUnits="userSpaceOnUse" xlink:href="#linearGradient4460"/><clipPath id="clipPath4329" clipPathUnits="userSpaceOnUse"><rect id="rect4331" width="44" height="44" x="2" y="1.998" fill="url(#linearGradient4333)" fill-opacity="1" rx="4"/></clipPath><linearGradient id="linearGradient4333" x2="0" y1="1050.36" y2="1006.36" gradientTransform="translate(-3.7006836e-8,-1004.3621)" gradientUnits="userSpaceOnUse" xlink:href="#linearGradient4460"/><clipPath id="clipPath4335" clipPathUnits="userSpaceOnUse"><rect id="rect4337" width="44" height="44" x="2" y="1.998" fill="url(#linearGradient4339)" fill-opacity="1" rx="4"/></clipPath><linearGradient id="linearGradient4339" x2="0" y1="1050.36" y2="1006.36" gradientTransform="translate(-3.7006836e-8,-1004.3621)" gradientUnits="userSpaceOnUse" xlink:href="#linearGradient4460"/><clipPath id="clipPath4341" clipPathUnits="userSpaceOnUse"><rect id="rect4343" width="44" height="44" x="2" y="1.998" fill="url(#linearGradient4345)" fill-opacity="1" rx="4"/></clipPath><linearGradient id="linearGradient4345" x2="0" y1="1050.36" y2="1006.36" gradientTransform="translate(-3.7006836e-8,-1004.3621)" gradientUnits="userSpaceOnUse" xlink:href="#linearGradient4460"/><clipPath id="clipPath4347" clipPathUnits="userSpaceOnUse"><rect id="rect4349" width="44" height="44" x="2" y="1.998" fill="url(#linearGradient4351)" fill-opacity="1" rx="4"/></clipPath><linearGradient id="linearGradient4351" x2="0" y1="1050.36" y2="1006.36" gradientTransform="translate(-3.7006836e-8,-1004.3621)" gradientUnits="userSpaceOnUse" xlink:href="#linearGradient4460"/><clipPath id="clipPath4353" clipPathUnits="userSpaceOnUse"><rect id="rect4355" width="44" height="44" x="2" y="1.998" fill="url(#linearGradient4357)" fill-opacity="1" rx="4"/></clipPath><linearGradient id="linearGradient4357" x2="0" y1="1050.36" y2="1006.36" gradientTransform="translate(-3.7006836e-8,-1004.3621)" gradientUnits="userSpaceOnUse" xlink:href="#linearGradient4460"/><clipPath id="clipPath4359" clipPathUnits="userSpaceOnUse"><rect id="rect4361" width="44" height="44" x="2" y="1.998" fill="url(#linearGradient4363)" fill-opacity="1" rx="4"/></clipPath><linearGradient id="linearGradient4363" x2="0" y1="1050.36" y2="1006.36" gradientTransform="translate(-3.7006836e-8,-1004.3621)" gradientUnits="userSpaceOnUse" xlink:href="#linearGradient4460"/><clipPath id="clipPath4365" clipPathUnits="userSpaceOnUse"><rect id="rect4367" width="44" height="44" x="2" y="1.998" fill="url(#linearGradient4369)" fill-opacity="1" rx="4"/></clipPath><linearGradient id="linearGradient4369" x2="0" y1="1050.36" y2="1006.36" gradientTransform="translate(-3.7006836e-8,-1004.3621)" gradientUnits="userSpaceOnUse" xlink:href="#linearGradient4460"/><clipPath id="clipPath4371" clipPathUnits="userSpaceOnUse"><rect id="rect4373" width="44" height="44" x="2" y="1.998" fill="url(#linearGradient4375)" fill-opacity="1" rx="4"/></clipPath><linearGradient id="linearGradient4375" x2="0" y1="1050.36" y2="1006.36" gradientTransform="translate(-3.7006836e-8,-1004.3621)" gradientUnits="userSpaceOnUse" xlink:href="#linearGradient4460"/><radialGradient id="radialGradient3019" cx="148.004" cy="160" r="128" gradientTransform="matrix(0.05167489,0,0,0.05167489,-0.87511191,-1.4947562)" gradientUnits="userSpaceOnUse" xlink:href="#radial0"/><radialGradient id="radial0" cx="148.004" cy="160" r="128" gradientTransform="matrix(0.1831,0,0,0.1831,-3.10029,-5.29688)" gradientUnits="userSpaceOnUse"><stop id="stop7-2" offset="0" stop-color="#f9b59a"/><stop id="stop9-5" offset="1" stop-color="#b23f14"/></radialGradient><radialGradient id="radialGradient3010" cx="148.004" cy="160" r="128" gradientTransform="matrix(0.1831,0,0,0.1831,-3.10079,-5.29638)" gradientUnits="userSpaceOnUse" xlink:href="#radial0"/></defs><path id="path11" fill="url(#radialGradient3010)" d="m 47.437,11.547375 0,24.906249 c 0,10.250001 0,10.984376 -10.984375,10.984376 l -24.902344,0 C 0.562,47.438 0.562,46.703625 0.562,36.453624 l 0,-24.906249 c 0,-10.2499996 0,-10.9843748 10.988281,-10.9843748 l 24.902344,0 C 47.437,0.5630002 47.437,1.2973754 47.437,11.547375 z"/><path id="path15" fill="#fff" fill-opacity=".051" d="m 38.265125,47.438 c 2.542968,-0.01169 4.378908,-0.08203 5.710936,-0.441404 l -4.230467,-7.250003 -4.484375,7.691407 1.191406,0 c 0.640626,0 1.242187,0 1.8125,0 z m 1.480469,-7.691407 -5.125,-8.789062 -5.128906,8.789062 z m 0,0 7.652345,0 c 0.03118,-0.972656 0.03905,-2.062499 0.03905,-3.296874 l 0,-1.097657 -2.562498,-4.394531 z m 5.128905,-8.789062 -5.128905,-8.789062 -5.125,8.789062 z m 0,0 2.562501,0 0,-4.394531 z m -10.253905,0 -5.128906,-8.789062 -5.125,8.789062 z m -10.253906,0 -5.128907,8.789062 10.253907,0 z m 0,0 -5.128907,-8.789062 -5.125,8.789062 z m -10.253907,0 -5.128906,8.789062 10.253906,0 z m 0,0 -5.128906,-8.789062 -5.125,8.789062 z m -10.253906,0 L 0.562,36.605969 c 0,1.167969 0.01172,2.210938 0.03906,3.140624 l 8.382813,0 z m 0,0 -3.296875,-5.648437 0,5.648437 z m 5.125,8.789062 -4.3125,7.394531 c 1.597656,0.29296 3.808594,0.296858 6.875,0.296858 l 1.925781,0 z m 0,-17.578124 -5.125,-8.789063 -3.296875,5.648438 0,3.140625 z m 0,0 10.253906,0 -5.125,-8.789063 z m 5.128906,-8.789063 -5.128906,-8.7890617 -5.125,8.7890617 z m 0,0 10.253907,0 -5.128907,-8.7890617 z m 5.125,-8.7890617 -2.351562,-4.027344 -5.339844,0 c -0.07422,0 -0.136718,0 -0.210937,0 l -2.351563,4.027344 z m 0,0 10.253907,0 -2.351563,-4.027344 -5.550781,0 z m 10.253907,0 10.253906,0 -2.351562,-4.027344 c -0.312484,0 -0.609375,0 -0.945312,0 l -4.60547,0 z m 0,0 -5.125,8.7890617 10.253906,0 z m 5.128906,8.7890617 10.253905,0 -5.128905,-8.7890617 z m 0,0 -5.128906,8.789063 10.253906,0 z m 5.125,8.789063 7.691406,0 0,-4.394531 -2.562501,-4.394532 z m 5.128905,-8.789063 2.562501,0 0,-1.832031 c 0,-0.914063 -0.0078,-1.7499997 -0.02338,-2.5234366 z m -15.382811,8.789063 -5.125,-8.789063 -5.128907,8.789063 z m 10.253906,-17.5781247 7.308595,0 C 46.499502,1.8325312 45.16747,0.9614383 42.022937,0.6880002 z m -30.761719,0 -2.304687,-3.953125 C 3.019031,0.8442503 1.538562,1.6333122 0.944812,4.5903443 z m -5.125,8.7890617 -3.238281,-5.5546868 c -0.04297,1.0742191 -0.05859,2.3085928 -0.05859,3.7226558 l 0,1.832031 z m 15.378906,26.367187 -4.484375,7.691407 8.972656,0 z m 10.253907,0 -4.484376,7.691407 8.972657,0 z M 2.59325,46.367687 0.991688,43.621592 c 0.292968,1.31641 0.785156,2.179691 1.601562,2.746095 z"/><path id="path72" fill="#bcd0d9" fill-opacity="1" stroke="#bcd0d9" stroke-opacity="1" stroke-width=".1" d="m 32.272795,27.836408 c -0.0221,0.06629 -0.386699,0.375651 -0.386699,0.375651 l -0.464038,0.209922 -0.353554,0.287262 0.265165,0.342505 0.143631,0.165728 -0.397747,0.342505 0.01105,0.563476 0.132583,0.585573 0.364602,0.110485 0.386699,-0.629767 0.243068,-0.408796 -0.05524,-0.519282 0.353553,-0.585572 0.132583,-0.276214 -0.01105,-0.552427 -0.08839,-0.452991 -0.265165,0.01105 z" clip-path="url(#clipPath4287)"/><path id="path20-9" fill="#f9f9f9" fill-opacity="1" d="m 20.002248,9.999993 c -0.576895,0.771612 -0.62116,2.45204 1.039013,3.756408 1.91415,1.963862 2.400305,3.441742 2.378189,6.287028 -0.0181,2.328279 -0.989706,2.925697 -1.835448,5.003355 -0.999179,1.948966 -1.302081,2.885485 -0.579134,4.390371 0.255727,0.656127 0.653491,1.124226 1.15778,1.874367 -0.786135,-0.527757 -1.501253,-0.867477 -2.216371,-1.802644 -0.664837,-1.032868 -1.192755,-1.47671 0.328671,-5.702528 0.354396,-0.986947 0.850972,-2.475811 1.027645,-3.494128 0.06704,-0.695625 -0.0081,-1.731213 -0.474241,-2.588792 -1.312895,-1.731557 -1.636834,-1.587403 -3.354623,-2.590981 0.948465,1.71799 0.424053,2.523441 -2.321025,5.941568 -2.306776,3.299053 -3.295154,4.556966 -3.136254,6.78285 0.192189,2.692117 1.831596,4.970127 4.685844,6.83346 0.932912,0.609027 1.742911,0.747995 2.328423,0.953436 L 20.801906,36 c -0.717494,-0.437963 -1.328356,-0.687706 -2.152484,-1.313886 -1.698219,-1.521251 -2.678197,-3.398473 -2.857001,-5.461895 -0.10629,-1.226635 0.125798,-2.763297 0.191073,-1.510097 0.04118,0.250419 0.220922,1.055641 0.363099,1.228427 0.284358,0.68239 1.59573,2.560267 2.785061,3.707563 0.599564,0.578372 1.832024,1.585064 2.775962,2.158845 1.720452,0.839558 2.481203,0.95761 3.77512,1.107035 1.116693,0 2.478512,-0.175252 2.026466,-0.148925 -2.313976,-3.022907 -2.398806,-3.161195 -2.530635,-5.082705 0.0096,-1.77619 0.725367,-2.169942 1.978163,-4.390184 1.556805,-2.759007 1.946237,-3.983135 1.956225,-6.032874 0.01449,-2.972109 -1.413586,-4.548404 -4.533585,-6.20783 -0.868955,-0.434412 -1.105658,-0.556743 -2.692333,-1.176086 -0.912335,-0.426378 -1.824669,-1.354169 -1.884789,-2.877395 z m 10.725437,8.35984 c 0.812337,1.092583 1.518415,2.717918 1.58477,3.873177 -0.179777,1.507789 -0.189316,1.612388 -2.162245,3.820755 -0.820615,1.057818 -1.304733,1.714772 -1.519245,2.148065 -0.607242,1.226594 -0.625018,4.298879 0.372805,5.965891 l 0.827985,1.38989 0.363949,-1.036782 c 0.27997,-0.792812 0.656773,-1.778432 2.604006,-3.042945 2.459982,-1.921645 2.838702,-2.486218 3.196558,-4.903152 0.03753,-1.599403 -0.193291,-2.765339 -1.361318,-4.660252 -1.219014,-1.759424 -2.296928,-2.327979 -3.907265,-3.554647 z"/></svg>