<svg xmlns="http://www.w3.org/2000/svg" xmlns:svg="http://www.w3.org/2000/svg" xmlns:xlink="http://www.w3.org/1999/xlink" id="svg2" width="48" height="48" version="1.1" viewBox="0 0 13.547 13.547"><metadata id="metadata22"/><defs id="defs4"><linearGradient id="linearGradient3007" x2="0" y1="279.096" y2="268.33" gradientTransform="matrix(1.10525 0 0 1.10525 -134.27874 -295.76183)" gradientUnits="userSpaceOnUse" xlink:href="#linearGradient4460"/><linearGradient id="linearGradient4460"><stop id="stop8" offset="0" stop-color="#2d2d2d"/><stop id="stop10" offset="1" stop-color="#4b4b4b"/></linearGradient><linearGradient id="linearGradient3007-0" x2="0" y1="279.096" y2="268.33" gradientTransform="matrix(1.10525,0,0,1.10525,-134.27874,-295.76183)" gradientUnits="userSpaceOnUse" xlink:href="#linearGradient4460-4"/><linearGradient id="linearGradient4460-4"><stop id="stop8-8" offset="0" stop-color="#2d2d2d"/><stop id="stop10-7" offset="1" stop-color="#4b4b4b"/></linearGradient><linearGradient id="linearGradient3028" x2="0" y1="279.096" y2="268.33" gradientTransform="matrix(1.10525,0,0,1.10525,-134.27874,-295.76183)" gradientUnits="userSpaceOnUse" xlink:href="#linearGradient4460-4"/><linearGradient id="1" x2="0" y1="1050.36" y2="1006.36" gradientTransform="matrix(0.28222223,0,0,0.28222223,0,-283.45334)" gradientUnits="userSpaceOnUse" xlink:href="#linearGradient4460-4"/><linearGradient id="0"><stop id="stop7" stop-color="#dcdcdc"/><stop id="stop9" offset="1" stop-color="#f7f7f7"/></linearGradient><radialGradient id="radialGradient3026" cx="148.004" cy="160" r="128" gradientTransform="matrix(0.05167489,0,0,0.05167489,-0.87511211,-1.4947616)" gradientUnits="userSpaceOnUse" spreadMethod="pad" xlink:href="#linearGradient4460-5"/><linearGradient id="linearGradient4460-5"><stop id="stop8-6" offset="0" stop-color="#747474" stop-opacity="1"/><stop id="stop10-2" offset="1" stop-color="#2d2d2d" stop-opacity="1"/></linearGradient><radialGradient id="radialGradient3017" cx="148.004" cy="160" r="128" gradientTransform="matrix(0.05167489,0,0,0.05167489,-0.87511211,-1.4947611)" gradientUnits="userSpaceOnUse" spreadMethod="pad" xlink:href="#linearGradient4460-5"/></defs><path id="path11" fill="url(#radialGradient3017)" fill-opacity="1" d="m 13.387776,3.2589206 0,7.0290974 c 0,2.892778 0,3.100035 -3.100035,3.100035 l -7.0279956,0 c -3.10113651,0 -3.10113651,-0.207257 -3.10113651,-3.100035 l 0,-7.0290974 c 0,-2.89277759 0,-3.10003449 3.10113651,-3.10003449 l 7.0279956,0 c 3.100035,0 3.100035,0.2072569 3.100035,3.10003449 z"/><path id="path15" fill="#fff" fill-opacity=".051" d="m 10.799269,13.388053 c 0.717682,-0.0033 1.235825,-0.02315 1.611753,-0.124575 l -1.193932,-2.04611 -1.2655906,2.170685 0.3362416,0 c 0.180799,0 0.350573,0 0.511528,0 z M 11.21709,11.217368 9.7707014,8.7368987 8.3232094,11.217368 z m 0,0 2.159662,0 c 0.0088,-0.274506 0.01102,-0.582084 0.01102,-0.930452 l 0,-0.3097833 -0.723193,-1.240234 z M 12.664582,8.7368987 11.21709,6.2564297 9.7707014,8.7368987 z m 0,0 0.723194,0 0,-1.2402341 z m -2.8938806,0 -1.447492,-2.480469 -1.446389,2.480469 z m -2.893881,0 -1.447491,2.4804693 2.89388,0 z m 0,0 -1.447491,-2.480469 -1.446389,2.480469 z m -2.89388,0 -1.447491,2.4804693 2.89388,0 z m 0,0 -1.447491,-2.480469 -1.4463894,2.480469 z m -2.8938804,0 -0.93045111,1.5941143 c 0,0.329627 0.0033,0.623976 0.01102,0.886355 l 2.36581651,0 z m 0,0 -0.93045111,-1.5941151 0,1.5941151 z m 1.4463894,2.4804693 -1.2170835,2.0869 c 0.4508937,0.08268 1.0748695,0.08379 1.9413795,0.08379 l 0.542396,0 z m 0,-4.9609383 -1.4463894,-2.4804692 -0.93045111,1.594115 0,0.8863542 z m 0,0 2.89388,0 -1.446389,-2.4804692 z M 3.9829404,3.7759605 2.5354494,1.2954921 1.08906,3.7759605 z m 0,0 2.89388,0 -1.447491,-2.4804684 z m 1.446389,-2.4804684 -0.663663,-1.13660599 -1.505921,0 c -0.02205,0 -0.03969,0 -0.06063,0 L 2.5354534,1.2954921 z m 0,0 2.89388,0 -0.663663,-1.13660599 -1.566554,0 z m 2.89388,0 2.8938806,0 -0.663663,-1.13660599 c -0.0882,0 -0.171979,0 -0.265686,0 l -1.3008686,0 z m 0,0 -1.446389,2.4804684 2.893881,0 z m 1.447492,2.4804684 2.8938806,0 -1.447492,-2.4804684 z m 0,0 -1.447492,2.4804692 2.8938806,0 z m 1.4463886,2.4804692 2.170686,0 0,-1.240234 -0.723194,-1.2402352 z m 1.447492,-2.4804692 0.723194,0 0,-0.5170399 c 0,-0.2579689 -0.0022,-0.4938885 -0.0066,-0.7121697 z M 8.3232094,6.2564297 6.8768204,3.7759605 5.4293294,6.2564297 z m 2.8938806,-4.9609376 2.062648,0 C 13.123193,0.51717601 12.747264,0.27133411 11.859807,0.19416391 z m -8.6816406,0 -0.650434,-1.11565979 C 0.85203689,0.23826131 0.43421589,0.46095191 0.26664689,1.2954921 z M 1.08906,3.7759605 0.17514489,2.2083047 c -0.01213,0.3031684 -0.01653,0.6515362 -0.01653,1.0506159 l 0,0.5170399 z m 4.3402694,7.4414075 -1.26559,2.170685 2.532282,0 z m 2.89388,0 -1.26559,2.170685 2.532283,0 z m -7.59133651,1.868619 -0.451997,-0.775009 c 0.08268,0.371519 0.221589,0.615157 0.451997,0.775009 z"/><path id="path2992" fill="#f9f9f9" fill-opacity="1" stroke="none" d="M 12 12 L 12 36 L 36 34 L 36 14 L 12 12 z M 19 16 L 21 16 L 29 16 L 29 24 L 21 24 L 21 32 L 19 32 L 19 24 L 19 22 L 19 18 L 19 16 z M 21 18 L 21 22 L 27 22 L 27 18 L 21 18 z" transform="scale(0.28222223,0.28222223)"/></svg>