<svg xmlns="http://www.w3.org/2000/svg" xmlns:svg="http://www.w3.org/2000/svg" xmlns:xlink="http://www.w3.org/1999/xlink" id="svg2" width="48" height="48" version="1.1" viewBox="0 0 13.547 13.547"><metadata id="metadata108"/><defs id="defs4"><linearGradient id="1"><stop id="stop7" stop-color="#502c5a"/><stop id="stop9" offset="1" stop-color="#7f5c86"/></linearGradient><linearGradient id="2" x2="0" y1="299.81" y2="31.619" gradientTransform="matrix(0.11931818,0,0,0.11931818,414.13636,48.22727)" gradientUnits="userSpaceOnUse" xlink:href="#B"/><clipPath id="clipPath12"><rect id="rect14" width="30" height="30" x="417" y="53" fill="url(#2)" color="#bebebe" rx="7"/></clipPath><linearGradient id="3" x2="0" y1="302.86" y2="28.571" gradientTransform="matrix(0.0875,0,0,0.0875,414.9,97.5)" gradientUnits="userSpaceOnUse" xlink:href="#B"/><clipPath id="clipPath17"><rect id="rect19" width="22" height="22" x="417" y="101" fill="url(#3)" color="#bebebe" rx="5"/></clipPath><linearGradient id="4" x2="0" y1="124" y2="28" gradientUnits="userSpaceOnUse" xlink:href="#B"/><clipPath id="clipPath22"><rect id="rect24" width="88" height="88" x="292" y="32" fill="url(#4)" color="#bebebe" rx="18"/></clipPath><linearGradient id="5" x2="0" y1="204" y2="140" gradientUnits="userSpaceOnUse" xlink:href="#B"/><clipPath id="clipPath27"><rect id="rect29" width="60" height="60" x="290" y="142" fill="url(#5)" color="#bebebe" rx="12.5"/></clipPath><linearGradient id="6" x2="0" y1="280" y2="40" gradientTransform="translate(0,-4)" gradientUnits="userSpaceOnUse" xlink:href="#B"/><clipPath id="clipPath32"><rect id="rect34" width="220" height="220" x="34" y="46" fill="url(#6)" color="#bebebe" rx="50"/></clipPath><linearGradient id="7" x2="0" y1="280" y2="40" gradientTransform="matrix(0.06666667,0,0,0.06666667,302.4,209.33333)" gradientUnits="userSpaceOnUse" xlink:href="#B"/><clipPath id="clipPath37"><rect id="rect39" width="16" height="16" x="304" y="212" fill="url(#7)" color="#bebebe" rx="3" transform="matrix(0,1,-1,0,0,0)"/></clipPath><linearGradient id="8" x2="0" y1="291.43" y2="40" gradientTransform="matrix(0.11931818,0,0,0.11931818,430.13636,32.227267)" gradientUnits="userSpaceOnUse" xlink:href="#B"/><clipPath id="clipPath42"><rect id="rect44" width="30" height="30" x="433" y="37" fill="url(#8)" color="#bebebe" rx="6"/></clipPath><linearGradient id="9" x2="0" y1="291.43" y2="40" gradientTransform="matrix(0.0875,0,0,0.0875,430.9,81.499996)" gradientUnits="userSpaceOnUse" xlink:href="#B"/><clipPath id="clipPath47"><rect id="rect49" width="22" height="22" x="433" y="85" fill="url(#9)" color="#bebebe" rx="4"/></clipPath><linearGradient id="A" x2="0" y1="280" y2="40" gradientTransform="matrix(0.175,0,0,0.175,302.79999,215.99997)" gradientUnits="userSpaceOnUse" xlink:href="#B"/><clipPath id="clipPath52"><rect id="rect54" width="42" height="42" x="307" y="223" fill="url(#A)" color="#bebebe" rx="9" transform="matrix(0,1,-1,0,0,0)"/></clipPath><linearGradient id="B"><stop id="stop57" stop-color="#2f7474"/><stop id="stop59" offset="1" stop-color="#75b4b4"/></linearGradient><linearGradient id="C" x2="0" y1="1050.36" y2="1006.36" gradientTransform="matrix(0.28222223,0,0,0.28222223,0,-283.45334)" gradientUnits="userSpaceOnUse" xlink:href="#1"/><path id="D" d="m 18.617491,16.540194 a 0.67358655,0.62941694 0 1 1 -1.347173,0 0.67358655,0.62941694 0 1 1 1.347173,0 z"/><radialGradient id="radial0" cx="148.004" cy="160" r="128" gradientTransform="matrix(0.1831,0,0,0.1831,-3.10029,-5.29688)" gradientUnits="userSpaceOnUse"><stop id="stop7-6" offset="0" stop-color="#edbbff"/><stop id="stop9-1" offset="1" stop-color="#75288e"/></radialGradient><radialGradient id="radialGradient3018" cx="148.004" cy="160" r="128" gradientTransform="matrix(0.05167489,0,0,0.05167489,-0.87511211,-1.4947567)" gradientUnits="userSpaceOnUse" xlink:href="#radial0"/></defs><path id="path11" fill="url(#radialGradient3018)" d="m 13.387776,3.2589254 0,7.0290976 c 0,2.892778 0,3.100035 -3.100035,3.100035 l -7.0279947,0 c -3.10113741,0 -3.10113741,-0.207257 -3.10113741,-3.100035 l 0,-7.0290976 c 0,-2.89277783 0,-3.10003478 3.10113741,-3.10003478 l 7.0279947,0 c 3.100035,0 3.100035,0.20725695 3.100035,3.10003478 z"/><path id="path15" fill="#fff" fill-opacity=".051" d="m 10.799269,13.388058 c 0.717682,-0.0033 1.235825,-0.02315 1.611753,-0.124575 l -1.193932,-2.046111 -1.2655901,2.170686 0.3362411,0 c 0.180799,0 0.350573,0 0.511528,0 z M 11.21709,11.217372 9.7707012,8.7369029 8.32321,11.217372 z m 0,0 2.159662,0 c 0.0088,-0.274505 0.01102,-0.582083 0.01102,-0.930452 l 0,-0.3097827 -0.723194,-1.2402344 z M 12.664581,8.7369029 11.21709,6.2564343 9.7707012,8.7369029 z m 0,0 0.723195,0 0,-1.2402343 z m -2.8938798,0 L 8.32321,6.2564343 6.876821,8.7369029 z m -2.8938802,0 -1.4474915,2.4804691 2.8938805,0 z m 0,0 -1.4474915,-2.4804686 -1.446389,2.4804686 z m -2.8938805,0 -1.4474913,2.4804691 2.8938803,0 z m 0,0 L 2.5354492,6.2564343 1.0890603,8.7369029 z m -2.8938802,0 -0.9304514,1.5941151 c 0,0.329627 0.003307,0.623975 0.0110242,0.886354 l 2.36581614,0 z m 0,0 -0.9304514,-1.5941144 0,1.5941144 z m 1.4463889,2.4804691 -1.2170833,2.086901 c 0.450894,0.08268 1.0748699,0.08378 1.9402778,0.08378 l 0.5434982,0 z m 0,-4.9609377 -1.4463889,-2.480469 -0.9304514,1.5941148 0,0.8863542 z m 0,0 2.8938803,0 -1.446389,-2.480469 z M 3.9829405,3.7759653 2.5354492,1.2954966 1.0890603,3.7759653 z m 0,0 2.8938805,0 -1.4474915,-2.4804687 z m 1.446389,-2.4804687 -0.6636631,-1.13660598 -1.5070227,0 c -0.020946,0 -0.038585,0 -0.059531,0 L 2.5354492,1.2954966 z m 0,0 2.8938805,0 -0.6636634,-1.13660598 -1.5665538,0 z m 2.8938805,0 2.89388,0 -0.663663,-1.13660598 c -0.08819,0 -0.171979,0 -0.266788,0 l -1.299766,0 z m 0,0 -1.446389,2.4804687 2.8938802,0 z m 1.4474912,2.4804687 2.8938798,0 -1.447491,-2.4804687 z m 0,0 -1.4474912,2.480469 2.89388,0 z m 1.4463888,2.480469 2.170686,0 0,-1.2402344 -0.723195,-1.2402346 z m 1.447491,-2.480469 0.723195,0 0,-0.5170399 c 0,-0.2579689 -0.0022,-0.4938889 -0.0066,-0.71217 z M 8.32321,6.2564343 6.876821,3.7759653 5.4293295,6.2564343 z m 2.89388,-4.9609377 2.062648,0 C 13.123193,0.51718049 12.747264,0.27133868 11.859807,0.1941684 z m -8.6816408,0 L 1.8850153,0.17983687 C 0.85203767,0.23826562 0.4342164,0.46095646 0.26664695,1.2954966 z M 1.0890603,3.7759653 0.17514543,2.2083092 C 0.16301862,2.5114776 0.1586089,2.8598454 0.1586089,3.2589254 l 0,0.5170399 z m 4.3402692,7.4414067 -1.2655904,2.170686 2.532283,0 z m 2.8938805,0 -1.2655906,2.170686 2.5322832,0 z m -7.5913372,1.86862 -0.4519964,-0.775009 c 0.0826821,0.371519 0.22158848,0.615156 0.4519964,0.775009 z"/><path id="0" fill="#f9f9f9" d="m -40.474576,16.474577 a 3.6610169,10.169492 0 1 1 -7.322034,0 3.6610169,10.169492 0 1 1 7.322034,0 z" transform="matrix(0.24484538,-0.09340751,0.04074986,0.12023791,14.509504,-1.4467979)"/><use id="use82" fill="#be81d3" fill-opacity="1" transform="matrix(0.78854141,-0.28353838,0.30343581,0.84387765,-14.65269,-4.0724898)" xlink:href="#D"/><use id="use88" transform="matrix(0.8441 -0.05191 0.0497 0.78319 5.108 1.237)" xlink:href="#0"/><use id="use92" fill="#bc7fd0" fill-opacity="1" transform="matrix(0.62805909,0,0,0.67258016,-2.2381586,-6.6090504)" xlink:href="#D"/><path id="path100" fill="#f9f9f9" fill-opacity="1" d="M 23.8125 21 C 23.350199 21.013821 22.526297 21.23545 21.0625 22.5625 C 19.110771 24.3319 19 26 19 26 C 19.286061 26.144175 19.564078 26.374977 19.84375 26.625 C 20.162057 29.641445 21.423122 31 24 31 C 26.401743 31 27.155452 29.806337 28.03125 26.71875 C 28.35281 26.409341 28.685769 26.157758 29 26 C 29 26 28.88923 24.33189 26.9375 22.5625 C 25.47371 21.23546 24.64981 21.0138 24.1875 21 C 24.122024 20.997985 24.081771 21.025169 24.03125 21.03125 C 23.962504 21.02295 23.911023 20.997055 23.8125 21 z" transform="scale(0.28222223,0.28222223)"/></svg>