<?xml version="1.0" encoding="UTF-8" standalone="no"?>
<svg
   xmlns:dc="http://purl.org/dc/elements/1.1/"
   xmlns:cc="http://creativecommons.org/ns#"
   xmlns:rdf="http://www.w3.org/1999/02/22-rdf-syntax-ns#"
   xmlns:svg="http://www.w3.org/2000/svg"
   xmlns="http://www.w3.org/2000/svg"
   xmlns:sodipodi="http://sodipodi.sourceforge.net/DTD/sodipodi-0.dtd"
   xmlns:inkscape="http://www.inkscape.org/namespaces/inkscape"
   width="48"
   height="48"
   viewBox="0 0 48 48"
   id="svg2"
   version="1.1"
   inkscape:version="0.48.4 r9939"
   sodipodi:docname="dockbarx.svg">
  <defs
     id="defs3019" />
  <metadata
     id="metadata35">
    <rdf:RDF>
      <cc:Work
         rdf:about="">
        <dc:format>image/svg+xml</dc:format>
        <dc:type
           rdf:resource="http://purl.org/dc/dcmitype/StillImage" />
        <dc:title></dc:title>
      </cc:Work>
    </rdf:RDF>
  </metadata>
  <sodipodi:namedview
     pagecolor="#ffffff"
     bordercolor="#666666"
     borderopacity="1"
     objecttolerance="10"
     gridtolerance="10"
     guidetolerance="10"
     inkscape:pageopacity="0"
     inkscape:pageshadow="2"
     inkscape:window-width="1024"
     inkscape:window-height="692"
     id="namedview33"
     showgrid="false"
     inkscape:zoom="4.9166667"
     inkscape:cx="24.312376"
     inkscape:cy="20.716854"
     inkscape:window-x="0"
     inkscape:window-y="24"
     inkscape:window-maximized="1"
     inkscape:current-layer="svg2" />
  <path
     fill="#808080"
     d="M 47.4375 11.546875 L 47.4375 36.453125 C 47.4375 46.703125 47.4375 47.4375 36.453125 47.4375 L 11.550781 47.4375 C 0.5625 47.4375 0.5625 46.703125 0.5625 36.453125 L 0.5625 11.546875 C 0.5625 1.296875 0.5625 0.5625 11.550781 0.5625 L 36.453125 0.5625 C 47.4375 0.5625 47.4375 1.296875 47.4375 11.546875 Z "
     id="path11"
     style="fill:#3d8fe6;fill-opacity:1" />
  <path
     inkscape:connector-curvature="0"
     id="path15"
     d="m 38.265625,47.4375 c 2.542969,-0.01172 4.378906,-0.08203 5.710937,-0.441406 l -4.230468,-7.25 -4.484375,7.691406 1.191406,0 c 0.640625,0 1.242187,0 1.8125,0 z m 1.480469,-7.691406 -5.125,-8.789063 -5.128906,8.789063 z m 0,0 7.652344,0 c 0.03125,-0.972656 0.03906,-2.0625 0.03906,-3.296875 l 0,-1.097657 -2.5625,-4.394531 z m 5.128906,-8.789063 -5.128906,-8.789062 -5.125,8.789062 z m 0,0 2.5625,0 0,-4.394531 z m -10.253906,0 -5.128906,-8.789062 -5.125,8.789062 z m -10.253906,0 -5.128907,8.789063 10.253907,0 z m 0,0 -5.128907,-8.789062 -5.125,8.789062 z m -10.253907,0 -5.128906,8.789063 10.253906,0 z m 0,0 -5.128906,-8.789062 -5.125,8.789062 z m -10.253906,0 -3.296875,5.648438 c 0,1.167969 0.011719,2.210937 0.039062,3.140625 l 8.382813,0 z m 0,0 -3.296875,-5.648437 0,5.648437 z m 5.125,8.789063 -4.3125,7.394531 c 1.597656,0.292969 3.808594,0.296875 6.878906,0.296875 l 1.921875,0 z m 0,-17.578125 -5.125,-8.789063 -3.296875,5.648438 0,3.140625 z m 0,0 10.253906,0 -5.125,-8.789063 z m 5.128906,-8.789063 -5.128906,-8.789062 -5.125,8.789062 z m 0,0 10.253907,0 -5.128907,-8.789062 z m 5.125,-8.789062 -2.351562,-4.027344 -5.335938,0 c -0.07813,0 -0.140625,0 -0.214843,0 L 8.984375,4.589844 z m 0,0 10.253907,0 -2.351563,-4.027344 -5.550781,0 z m 10.253907,0 10.253906,0 L 37.394531,0.5625 c -0.3125,0 -0.609375,0 -0.941406,0 l -4.609375,0 z m 0,0 -5.125,8.789062 10.253906,0 z m 5.128906,8.789062 10.253906,0 -5.128906,-8.789062 z m 0,0 -5.128906,8.789063 10.253906,0 z m 5.125,8.789063 7.691406,0 0,-4.394531 -2.5625,-4.394532 z m 5.128906,-8.789063 2.5625,0 0,-1.832031 c 0,-0.914063 -0.0078,-1.75 -0.02344,-2.523437 z m -15.382812,8.789063 -5.125,-8.789063 -5.128907,8.789063 z m 10.253906,-17.578125 7.308594,0 C 46.5,1.832031 45.167969,0.960938 42.023438,0.6875 z m -30.761719,0 L 6.679688,0.636719 C 3.019531,0.84375 1.539062,1.632812 0.945312,4.589844 z m -5.125,8.789062 L 0.621094,7.824219 C 0.578125,8.898438 0.5625,10.132812 0.5625,11.546875 l 0,1.832031 z m 15.378906,26.367188 -4.484375,7.691406 8.972656,0 z m 10.253907,0 -4.484376,7.691406 8.972657,0 z M 2.59375,46.367188 0.992188,43.621094 c 0.292968,1.316406 0.785156,2.179687 1.601562,2.746094 z"
     style="fill:#ffffff;fill-opacity:0.09411765" />
  <path
     style="fill:#f9f9f9;fill-opacity:1"
     inkscape:connector-curvature="0"
     d="m 23.999974,11.00049 c -1.659866,0 -3.001861,1.294207 -3.001363,2.888822 -4.05e-4,1.203204 0.911358,2.196683 2.001385,2.629354 l 0,2.4816 -4.627568,0 c -0.19929,0 -0.375179,0.254459 -0.375179,0.458398 l 0,1.083291 c 0,0.20397 0.168017,0.504298 0.375179,0.458281 l 4.627568,0 0,11.666788 c 0,0.370928 -0.768746,0.378684 -1.133796,0.417501 -0.534842,0 -0.860003,-0.134539 -1.371729,-0.270815 -1.15562,-0.325235 -2.258835,-0.77598 -3.317905,-1.320254 -0.4459,-0.238259 -0.881182,-0.469921 -1.277921,-0.77864 -0.170995,-0.14034 -0.369904,-0.34344 -0.351719,-0.575539 0.02296,-0.1755 0.115504,-0.362878 0.316541,-0.395014 0.181173,-0.02906 0.343927,0.06654 0.504139,0.124359 0.1381,0.05695 0.233139,-0.103727 0.211039,-0.214143 -0.02209,-0.291109 -0.124696,-0.560487 -0.281382,-0.812488 -0.325968,-0.516062 -0.827604,-0.899977 -1.348269,-1.229965 -0.55588,-0.341755 -1.148496,-0.717506 -1.500675,-1.263931 -0.07,-0.100823 -0.147875,-0.268185 -0.304828,-0.214432 -0.218193,0.06799 -0.338636,0.273997 -0.445501,0.451354 -0.300704,0.550725 -0.45064,1.144889 -0.586219,1.749106 -0.111433,0.48073 -0.132721,0.988452 -0.09382,1.478305 0.04028,0.490173 0.07517,0.986795 0.281381,1.444368 0.129873,0.300812 0.358516,0.543374 0.586202,0.778726 0.145286,-0.147603 0.296883,-0.306599 0.44551,-0.451354 0.192632,-0.18625 0.433273,-0.306974 0.71517,-0.270801 0.383682,0.04765 0.730196,0.271382 1.03172,0.485291 0.424703,0.317785 0.821745,0.650445 1.254482,0.959192 0.68473,0.503628 1.439973,0.872377 2.215843,1.229995 0.646398,0.288815 1.310572,0.577513 1.981369,0.812488 0.120133,0.05056 0.252854,0.04766 0.375162,0.08979 1.207279,0.483318 2.224325,1.045863 3.059981,2.053817 9.57e-4,0.01453 -9.54e-4,0.04302 0,0.05606 0.0099,-0.01169 0.02562,-0.02339 0.03522,-0.03366 0.0099,0.01169 0.02562,0.02339 0.03519,0.03366 0.0067,-0.02905 -0.0058,-0.0625 0,-0.09067 0.833046,-0.996389 1.860029,-1.539555 3.059985,-2.020028 0.122312,-0.04213 0.255041,-0.04011 0.375159,-0.08979 0.670796,-0.235063 1.334974,-0.523559 1.981384,-0.812487 0.775856,-0.357591 1.531103,-0.726339 2.21584,-1.229935 0.432729,-0.308746 0.829771,-0.641407 1.254474,-0.959221 0.301514,-0.213849 0.648045,-0.437726 1.031709,-0.485291 0.281917,-0.03632 0.522559,0.08513 0.715179,0.270801 0.148628,0.144698 0.30021,0.303488 0.445508,0.451383 0.227704,-0.23534 0.456333,-0.477897 0.586206,-0.778683 0.206256,-0.457601 0.241087,-0.954253 0.28141,-1.444397 0.03887,-0.489853 0.01772,-0.997576 -0.09379,-1.478305 -0.13557,-0.604218 -0.285522,-1.198381 -0.586205,-1.749135 -0.106891,-0.177532 -0.227312,-0.383189 -0.445517,-0.451325 -0.156946,-0.05346 -0.234756,0.113318 -0.304821,0.214432 -0.352179,0.546396 -0.944797,0.922146 -1.500671,1.263873 -0.520666,0.330045 -1.02231,0.713961 -1.34827,1.229993 -0.156686,0.251915 -0.259137,0.52135 -0.281382,0.81249 -0.02207,0.110413 0.07294,0.271672 0.21104,0.21443 0.160207,-0.05811 0.322955,-0.151671 0.50413,-0.124359 0.201037,0.03285 0.293446,0.219082 0.316549,0.395014 0.01804,0.232154 -0.180706,0.435141 -0.35172,0.57554 -0.396738,0.308749 -0.83202,0.540702 -1.27792,0.77867 -1.059071,0.544275 -2.162285,0.995019 -3.317914,1.320241 -0.511718,0.136275 -0.836878,0.267874 -1.37172,0.270779 -0.459513,0.07845 -1.133821,-0.161256 -1.133821,-0.417504 l 0,-11.666727 4.627593,0 c 0.173466,0 0.375181,-0.24193 0.375181,-0.458282 l 0,-1.083348 c 0,-0.210366 -0.180616,-0.415181 -0.375181,-0.458399 l -4.627593,0 0,-2.481571 c 1.090028,-0.432679 2.001792,-1.426158 2.00141,-2.629362 5.2e-4,-1.594595 -1.341512,-2.888832 -3.001371,-2.888832 z m -0.0586,1.410604 c 0.805753,0 1.465746,0.613893 1.465502,1.388 2.7e-4,0.774107 -0.659749,1.410547 -1.465502,1.410547 -0.805771,0 -1.477472,-0.63644 -1.477227,-1.410547 -2.71e-4,-0.774107 0.671456,-1.388 1.477227,-1.388 z"
     id="path16" />
</svg>
