<svg xmlns="http://www.w3.org/2000/svg" xmlns:svg="http://www.w3.org/2000/svg" xmlns:xlink="http://www.w3.org/1999/xlink" id="svg2" width="48" height="48" version="1.1" viewBox="0 0 13.547 13.547"><metadata id="metadata38"/><defs id="defs4"><linearGradient id="0"><stop id="stop7" stop-color="#3e3e3e"/><stop id="stop9" offset="1" stop-color="#5e5e5e"/></linearGradient><linearGradient id="1" x2="0" y1="1050.36" y2="1006.36" gradientTransform="matrix(0.28222223,0,0,0.28222223,0,-283.45334)" gradientUnits="userSpaceOnUse" xlink:href="#0"/><radialGradient id="radialGradient3012" cx="148.004" cy="160" r="128" gradientTransform="matrix(0.05167489,0,0,0.05167489,-0.87511145,-1.4947623)" gradientUnits="userSpaceOnUse" xlink:href="#radial0"/><radialGradient id="radial0" cx="148.004" cy="160" r="128" gradientTransform="matrix(0.1831,0,0,0.1831,-3.10029,-5.29688)" gradientUnits="userSpaceOnUse"><stop id="stop7-1" offset="0" stop-color="#f75959" stop-opacity="1"/><stop id="stop9-3" offset="1" stop-color="#700909" stop-opacity="1"/></radialGradient><radialGradient id="radialGradient3011" cx="148.004" cy="160" r="128" gradientTransform="matrix(0.05167489,0,0,0.05167489,-0.87511141,-1.4947619)" gradientUnits="userSpaceOnUse" xlink:href="#radial0"/></defs><path id="path11" fill="url(#radialGradient3011)" d="m 13.387776,3.2589203 0,7.0290977 c 0,2.892778 0,3.100035 -3.100035,3.100035 l -7.0279933,0 c -3.10113831,0 -3.10113831,-0.207257 -3.10113831,-3.100035 l 0,-7.0290977 c 0,-2.89277782 0,-3.10003482 3.10113831,-3.10003482 l 7.0279933,0 c 3.100035,0 3.100035,0.207257 3.100035,3.10003482 z"/><path id="path15" fill="#fff" fill-opacity=".051" d="m 10.799269,13.388053 c 0.717682,-0.0033 1.235825,-0.02315 1.611753,-0.124576 l -1.193932,-2.04611 -1.2655893,2.170686 0.3362403,0 c 0.180799,0 0.350573,0 0.511528,0 z M 11.21709,11.217367 9.7707027,8.7368978 8.3232107,11.217367 z m 0,0 2.159662,0 c 0.0088,-0.274505 0.01102,-0.582083 0.01102,-0.930451 l 0,-0.3097842 -0.723194,-1.240234 z M 12.664582,8.7368978 11.21709,6.2564288 9.7707027,8.7368978 z m 0,0 0.723194,0 0,-1.2402338 z m -2.8938793,0 -1.447492,-2.480469 -1.446389,2.480469 z m -2.893881,0 -1.447491,2.4804692 2.89388,0 z m 0,0 -1.447491,-2.480469 -1.446389,2.480469 z m -2.89388,0 -1.447491,2.4804692 2.89388,0 z m 0,0 -1.447491,-2.480469 -1.4463894,2.480469 z m -2.8938804,0 -0.93045191,1.5941162 c 0,0.329626 0.00331,0.623975 0.011024,0.886353 l 2.36581731,0 z m 0,0 -0.93045191,-1.5941148 0,1.5941148 z m 1.4463894,2.4804692 -1.217084,2.086901 c 0.450894,0.08268 1.07487,0.08379 1.941381,0.08379 l 0.542395,0 z m 0,-4.9609382 -1.4463894,-2.4804686 -0.93045191,1.5941147 0,0.8863539 z m 0,0 2.89388,0 -1.446389,-2.4804686 z M 3.9829417,3.7759602 2.5354507,1.2954915 1.0890613,3.7759602 z m 0,0 2.89388,0 -1.447491,-2.4804687 z m 1.446389,-2.4804687 -0.663663,-1.13660602 -1.50592,0 c -0.02205,0 -0.03969,0 -0.06063,0 L 2.5354547,1.2954915 z m 0,0 2.89388,0 -0.663663,-1.13660602 -1.566554,0 z m 2.89388,0 2.8938793,0 -0.663663,-1.13660602 c -0.0882,0 -0.171979,0 -0.265686,0 l -1.3008673,0 z m 0,0 -1.446389,2.4804687 2.893881,0 z m 1.447492,2.4804687 2.8938793,0 -1.447492,-2.4804687 z m 0,0 -1.447492,2.4804686 2.8938793,0 z m 1.4463873,2.4804686 2.170686,0 0,-1.240234 -0.723194,-1.2402346 z m 1.447492,-2.4804686 0.723194,0 0,-0.5170399 c 0,-0.2579689 -0.0022,-0.4938889 -0.0066,-0.71217 z M 8.3232107,6.2564288 6.8768217,3.7759602 5.4293307,6.2564288 z m 2.8938793,-4.9609373 2.062648,0 C 13.123193,0.51717538 12.747264,0.27133358 11.859807,0.19416328 z m -8.6816393,0 -0.650434,-1.11565972 C 0.85203809,0.23826078 0.43421689,0.46095137 0.26664739,1.2954915 z M 1.0890613,3.7759602 0.17514589,2.208304 c -0.012127,0.3031685 -0.016537,0.6515363 -0.016537,1.0506163 l 0,0.5170399 z m 4.3402694,7.4414068 -1.26559,2.170686 2.532283,0 z m 2.89388,0 -1.26559,2.170686 2.532283,0 z m -7.59133741,1.868619 -0.4519964,-0.775009 c 0.082682,0.371519 0.2215884,0.615158 0.4519964,0.775009 z"/><path id="path28" fill="#f9f9f9" fill-opacity="1" d="m 7.8229317,3.288007 c -1.263499,-0.7294897 -1.27098,0.9508615 -1.27098,0.9508615 l 0.221382,2.5344685 2.305612,-1.0755119 c 0,0 1.4514793,-0.846642 0.18798,-1.5761318 C 8.8770017,3.896584 8.5899907,3.8925482 8.3788397,3.9925254 8.3598277,3.7596657 8.2128567,3.5131163 7.8229317,3.288007 z"/><path id="path30" fill="#f9f9f9" fill-opacity="1" d="m 6.7733337,6.773337 1.075515,2.3056216 c 0,0 0.846652,1.4514814 1.576129,0.1879618 C 9.6501087,8.8769863 9.6541117,8.5900103 9.5541567,8.3788657 9.7870017,8.3598337 10.033547,8.2128714 10.258672,7.8229373 10.98815,6.5594407 9.3078077,6.5519425 9.3078077,6.5519425 L 6.7733337,6.773337 z"/><path id="path32" fill="#f9f9f9" fill-opacity="1" d="m 6.7733337,6.773337 -2.305612,1.0755119 c 0,0 -1.45148,0.846642 -0.18798,1.5761319 0.389924,0.225109 0.676931,0.229145 0.888087,0.129168 0.01901,0.232859 0.165982,0.4794092 0.555906,0.7045182 1.2635,0.72949 1.27098,-0.9508615 1.27098,-0.9508615 L 6.7733337,6.773337 z"/><path id="path34" fill="#f9f9f9" fill-opacity="1" d="M 6.7733337,6.773337 5.6978197,4.4677154 c 0,0 -0.846653,-1.4514813 -1.57613,-0.1879618 -0.225131,0.3899341 -0.229134,0.67691 -0.129178,0.8880546 -0.232847,0.019032 -0.47939,0.1659943 -0.704516,0.5559284 -0.729478,1.2634966 0.950864,1.2709949 0.950864,1.2709949 L 6.7733337,6.773337 z"/></svg>