<svg xmlns="http://www.w3.org/2000/svg" xmlns:svg="http://www.w3.org/2000/svg" xmlns:xlink="http://www.w3.org/1999/xlink" id="svg2" width="48" height="48" version="1.1" viewBox="0 0 13.547 13.547"><metadata id="metadata34"/><defs id="defs4"><linearGradient id="0"><stop id="stop7" stop-color="#cacaca"/><stop id="stop9" offset="1" stop-color="#eaeaea"/></linearGradient><linearGradient id="1" x2="0" y1="1050.36" y2="1006.36" gradientTransform="matrix(0.28222223,0,0,0.28222223,0,-283.45334)" gradientUnits="userSpaceOnUse" xlink:href="#0"/><radialGradient id="radialGradient3068-7" cx="148.004" cy="160" r="128" gradientTransform="matrix(0.05167489,0,0,0.05167489,-0.87510811,-1.4947552)" gradientUnits="userSpaceOnUse" xlink:href="#radial0-8"/><radialGradient id="radial0-8" cx="148.004" cy="160" r="128" gradientTransform="matrix(0.1831,0,0,0.1831,-3.10029,-5.29688)" gradientUnits="userSpaceOnUse"><stop id="stop7-0-0" offset="0" stop-color="#f5e47c"/><stop id="stop9-2-7" offset="1" stop-color="#bb900c"/></radialGradient><radialGradient id="radialGradient3027" cx="148.004" cy="160" r="128" gradientTransform="matrix(0.05167489,0,0,0.05167489,-0.87510811,-1.4947547)" gradientUnits="userSpaceOnUse" xlink:href="#radial0-8"/></defs><path id="path11" fill="url(#radialGradient3027)" d="m 13.387779,3.2589274 0,7.0290966 c 0,2.892777 0,3.100034 -3.100034,3.100034 l -7.0279953,0 c -3.10113681,0 -3.10113681,-0.207257 -3.10113681,-3.100034 l 0,-7.0290966 c 0,-2.89277779 0,-3.10003479 3.10113681,-3.10003479 l 7.0279953,0 c 3.100034,0 3.100034,0.207257 3.100034,3.10003479 z"/><path id="path15" fill="#fff" fill-opacity=".051" d="m 10.799273,13.388058 c 0.717681,-0.0033 1.235824,-0.02315 1.611752,-0.124574 l -1.193931,-2.04611 -1.2655902,2.170684 0.3362412,0 c 0.180799,0 0.350573,0 0.511528,0 z M 11.217094,11.217374 9.7707048,8.7369049 8.3232138,11.217374 z m 0,0 2.159661,0 c 0.0088,-0.274506 0.01102,-0.582084 0.01102,-0.930452 l 0,-0.3097828 -0.723193,-1.2402343 z m 1.44749,-2.4804691 -1.44749,-2.4804687 -1.4463892,2.4804687 z m 0,0 0.723195,0 0,-1.2402343 z m -2.8938792,0 -1.447491,-2.4804687 -1.446389,2.4804687 z m -2.89388,0 -1.447491,2.4804691 2.89388,0 z m 0,0 -1.447491,-2.4804687 -1.44639,2.4804687 z m -2.893881,0 -1.447491,2.4804691 2.893881,0 z m 0,0 -1.447491,-2.4804687 -1.4463889,2.4804687 z m -2.8938799,0 -0.93045101,1.5941151 c 0,0.329626 0.0033,0.623975 0.01102,0.886355 l 2.36581591,0 z m 0,0 -0.93045101,-1.5941145 0,1.5941145 z m 1.4463889,2.4804691 -1.2170833,2.086899 c 0.450894,0.08268 1.0748699,0.08378 1.9413802,0.08378 l 0.5423961,0 z m 0,-4.9609378 -1.4463889,-2.4804689 -0.93045101,1.5941147 0,0.8863542 z m 0,0 2.893881,0 -1.44639,-2.4804689 z M 3.9829438,3.7759673 2.5354528,1.2954986 1.0890639,3.7759673 z m 0,0 2.893881,0 -1.447491,-2.4804687 z m 1.44639,-2.4804687 -0.663664,-1.13660599 -1.5070224,0 c -0.020946,0 -0.038585,0 -0.059531,0 L 2.5354528,1.2954986 z m 0,0 2.89388,0 -0.663663,-1.13660599 -1.566554,0 z m 2.89388,0 2.8938802,0 -0.663663,-1.13660599 c -0.08819,0 -0.171979,0 -0.266788,0 l -1.2997662,0 z m 0,0 -1.446389,2.4804687 2.89388,0 z m 1.447491,2.4804687 2.8938792,0 -1.44749,-2.4804687 z m 0,0 -1.447491,2.4804689 2.8938802,0 z m 1.4463892,2.4804689 2.170685,0 0,-1.2402343 -0.723195,-1.2402346 z m 1.44749,-2.4804689 0.723195,0 0,-0.5170399 c 0,-0.2579689 -0.0022,-0.4938889 -0.0066,-0.71217 z M 8.3232138,6.2564362 6.8768248,3.7759673 5.4293338,6.2564362 z m 2.8938802,-4.9609376 2.062647,0 C 13.123196,0.51718251 12.747267,0.27134071 11.85981,0.19417041 z m -8.6816412,0 L 1.8850189,0.17983891 C 0.85204129,0.23826791 0.43421999,0.4609585 0.26665059,1.2954986 z M 1.0890639,3.7759673 0.17514889,2.2083111 c -0.01213,0.3031685 -0.01654,0.6515363 -0.01654,1.0506163 l 0,0.5170399 z m 4.3402699,7.4414067 -1.265591,2.170684 2.532283,0 z m 2.89388,0 -1.265591,2.170684 2.532284,0 z m -7.59133741,1.868619 -0.4519964,-0.775009 c 0.082682,0.371521 0.2215885,0.615157 0.4519964,0.775009 z"/><path id="path28" fill="#f9f9f9" fill-opacity="1" d="M 12 12 L 22 23 L 12 36 L 17 36 L 23.90625 27.03125 L 31 36 L 36 36 L 26.5 23.65625 L 27 23 L 26.5 22.4375 L 36 12 L 31 12 L 23.84375 19.53125 L 17 12 L 12 12 z" transform="scale(0.28222223,0.28222223)"/></svg>