<svg xmlns="http://www.w3.org/2000/svg" xmlns:svg="http://www.w3.org/2000/svg" xmlns:xlink="http://www.w3.org/1999/xlink" id="svg2" width="48" height="48" version="1.1" viewBox="0 0 13.547 13.547"><metadata id="metadata132"/><defs id="defs4"><linearGradient id="0"><stop id="stop7" stop-color="#1068c9"/><stop id="stop9" offset="1" stop-color="#71a1e2"/></linearGradient><linearGradient id="1" x2="0" y1="1050.36" y2="1006.36" gradientTransform="matrix(0.28222223,0,0,0.28222223,0,-283.45331)" gradientUnits="userSpaceOnUse" xlink:href="#0"/><clipPath id="clipPath12"><rect id="rect14" width="44" height="44" x="2" y="1006.36" fill="none" rx="4"/></clipPath><clipPath id="2"><rect id="rect17" width="12.418" height="12.418" x=".564" y=".564" fill="url(#1)" rx="1.129"/></clipPath><clipPath id="3"><g id="g20" fill="#f9f9f9" fill-rule="evenodd" transform="matrix(1.2957634,0,0,1.3503553,-1.1134642,-8.4411122)"><path id="path22" d="m 7.1359456,8.8555675 c 0.4618442,0.26665 0.7488397,0.66318 0.7162629,0.95468 -1.8493311,3.2491785 -0.00632,-0.00443 -1.8480672,3.2634695 L 4.0760854,11.964551 c -0.00573,-0.003 1.880172,-3.2482435 1.874314,-3.2512435 0.2359092,-0.17454 0.7232724,-0.12443 1.1855459,0.14246 z"/><rect id="rect24" width=".681" height="3.487" x="-11.725" y="4.683" rx=".272" transform="matrix(-0.86603,-0.5,-0.5,0.86603,0,0)"/><rect id="rect26" width=".681" height="3.487" x="-10.949" y="4.683" rx=".272" transform="matrix(-0.86603,-0.5,-0.5,0.86603,0,0)"/><rect id="rect28" width=".681" height="3.487" x="-10.173" y="4.683" rx=".272" transform="matrix(-0.86603,-0.5,-0.5,0.86603,0,0)"/><path id="path30" d="m -119.50798,657.3724 c 4.83364,-8.37211 478.53026,-8.37212 483.3639,-10e-6 4.83364,8.3721 -232.01466,418.60541 -241.68194,418.60541 -9.66728,0 -246.5156,-410.2333 -241.68196,-418.6054 z" transform="matrix(-0.00397,-0.00229,-0.00243,0.0042,7.12271,10.01594)"/></g></clipPath><radialGradient id="radialGradient3009" cx="148.004" cy="160" r="128" gradientTransform="matrix(0.05167489,0,0,0.05167489,-0.87510811,-1.4947615)" gradientUnits="userSpaceOnUse" xlink:href="#radial0"/><radialGradient id="radial0" cx="148.004" cy="160" r="128" gradientTransform="matrix(0.1831,0,0,0.1831,-3.10029,-5.29688)" gradientUnits="userSpaceOnUse"><stop id="stop7-6" offset="0" stop-color="#bded7d" stop-opacity="1"/><stop id="stop9-6" offset="1" stop-color="#6ab700" stop-opacity="1"/></radialGradient><radialGradient id="radialGradient3045" cx="148.004" cy="160" r="128" gradientTransform="matrix(0.05167489,0,0,0.05167489,-0.87510811,-1.4947607)" gradientUnits="userSpaceOnUse" xlink:href="#radial0"/></defs><path id="path11" fill="url(#radialGradient3045)" d="m 13.38778,3.2589213 0,7.0290977 c 0,2.892776 0,3.100034 -3.100035,3.100034 l -7.027995,0 c -3.10113711,0 -3.10113711,-0.207258 -3.10113711,-3.100034 l 0,-7.0290977 c 0,-2.89277789 0,-3.10003479 3.10113711,-3.10003479 l 7.027995,0 c 3.100035,0 3.100035,0.2072569 3.100035,3.10003479 z"/><path id="path15" fill="#fff" fill-opacity=".051" d="m 10.799273,13.388053 c 0.717682,-0.0033 1.235825,-0.02315 1.611753,-0.124575 l -1.193932,-2.046111 -1.26559,2.170686 0.336241,0 c 0.180799,0 0.350573,0 0.511528,0 z M 11.217094,11.217367 9.770705,8.7368988 8.323214,11.217367 z m 0,0 2.159662,0 c 0.0088,-0.274505 0.01102,-0.582082 0.01102,-0.93045 l 0,-0.3097839 -0.723194,-1.2402343 z M 12.664586,8.7368988 11.217094,6.2564301 9.770705,8.7368988 z m 0,0 0.723194,0 0,-1.2402343 z m -2.893881,0 L 8.323214,6.2564301 6.876825,8.7368988 z m -2.89388,0 -1.447492,2.4804682 2.893881,0 z m 0,0 L 5.429333,6.2564301 3.982944,8.7368988 z m -2.893881,0 -1.447491,2.4804682 2.89388,0 z m 0,0 L 2.535453,6.2564301 1.0890639,8.7368988 z m -2.8938801,0 -0.93045101,1.5941142 c 0,0.329628 0.0033,0.623976 0.01102,0.886354 l 2.36581611,0 z m 0,0 -0.93045101,-1.5941145 0,1.5941145 z M 2.535453,11.217367 1.3183699,13.304268 c 0.4508941,0.08268 1.0748701,0.08379 1.9402781,0.08379 l 0.543498,0 z m 0,-4.9609369 -1.4463891,-2.4804689 -0.93045101,1.5941147 0,0.8863542 z m 0,0 2.89388,0 L 3.982944,3.7759612 z M 3.982944,3.7759612 2.535453,1.2954926 1.0890639,3.7759612 z m 0,0 2.893881,0 L 5.429333,1.2954926 z M 5.429333,1.2954926 4.76567,0.15888651 l -1.507022,0 c -0.02095,0 -0.03858,0 -0.05953,0 L 2.535454,1.2954926 z m 0,0 2.893881,0 -0.663663,-1.13660609 -1.566554,0 z m 2.893881,0 2.89388,0 -0.663663,-1.13660609 c -0.0882,0 -0.171979,0 -0.266788,0 l -1.299766,0 z m 0,0 -1.446389,2.4804686 2.89388,0 z m 1.447491,2.4804686 2.893881,0 -1.447492,-2.4804686 z m 0,0 -1.447491,2.4804689 2.89388,0 z m 1.446389,2.4804689 2.170686,0 0,-1.2402343 -0.723194,-1.2402346 z m 1.447492,-2.4804689 0.723194,0 0,-0.5170399 c 0,-0.2579689 -0.0022,-0.4938889 -0.0066,-0.71217 z M 8.323214,6.2564301 6.876825,3.7759612 5.429333,6.2564301 z m 2.89388,-4.9609375 2.062648,0 C 13.123197,0.51717641 12.747268,0.27133451 11.859811,0.19416421 z m -8.681641,0 L 1.885019,0.17983271 C 0.85204189,0.23826171 0.43421989,0.4609524 0.26665089,1.2954926 z M 1.0890639,3.7759612 0.17514889,2.2083051 c -0.01213,0.3031684 -0.01654,0.6515362 -0.01654,1.0506162 l 0,0.5170399 z m 4.3402691,7.4414058 -1.26559,2.170686 2.532283,0 z m 2.893881,0 -1.265591,2.170686 2.532284,0 z m -7.59133711,1.86862 -0.451997,-0.775009 c 0.08268,0.371519 0.221589,0.615157 0.451997,0.775009 z"/><g id="g118" fill="#f9f9f9" fill-rule="evenodd" transform="matrix(1.1745666,0,0,1.200001,-0.30924362,-6.9789766)"><path id="path120" d="m 7.1359456,8.8555675 c 0.4618442,0.26665 0.7488397,0.66318 0.7162629,0.95468 l -1.8843661,-1.08794 c -0.00573,-0.003 -0.011585,-0.006 -0.017443,-0.009 0.2359092,-0.17454 0.7232724,-0.12443 1.1855459,0.14246 z"/><rect id="rect122" width=".681" height="3.487" x="-11.725" y="4.683" rx=".272" transform="matrix(-0.86603,-0.5,-0.5,0.86603,0,0)"/><rect id="rect124" width=".681" height="3.487" x="-10.949" y="4.683" rx=".272" transform="matrix(-0.86603,-0.5,-0.5,0.86603,0,0)"/><rect id="rect126" width=".681" height="3.487" x="-10.173" y="4.683" rx=".272" transform="matrix(-0.86603,-0.5,-0.5,0.86603,0,0)"/><path id="path128" d="m -119.50798,657.3724 c 4.83364,-8.37211 478.53026,-8.37212 483.3639,-10e-6 4.83364,8.3721 -232.01466,418.60541 -241.68194,418.60541 -9.66728,0 -246.5156,-410.2333 -241.68196,-418.6054 z" transform="matrix(-0.00397,-0.00229,-0.00243,0.0042,7.12271,10.01594)"/></g></svg>