<svg xmlns="http://www.w3.org/2000/svg" xmlns:svg="http://www.w3.org/2000/svg" xmlns:xlink="http://www.w3.org/1999/xlink" id="svg2" width="48" height="48" version="1.1"><metadata id="metadata42"/><defs id="defs4"><linearGradient id="0" x2="0" y1="1050.36" y2="1006.36" gradientUnits="userSpaceOnUse" xlink:href="#1"/><linearGradient id="1"><stop id="stop8" stop-color="#96d4c4"/><stop id="stop10" offset="1" stop-color="#dbf3ed"/></linearGradient><linearGradient id="2" x2="0" y1="3.387" y2="10.16" gradientTransform="matrix(3.543307,0,0,3.543307,7.8740741e-4,1004.3638)" gradientUnits="userSpaceOnUse" xlink:href="#3"/><linearGradient id="3"><stop id="stop14" stop-color="#e4f1cb"/><stop id="stop16" offset="1" stop-color="#e9f4d6"/></linearGradient><radialGradient id="radial0" cx="148.004" cy="160" r="128" gradientTransform="matrix(0.1831,0,0,0.1831,-3.10029,-5.29688)" gradientUnits="userSpaceOnUse"><stop id="stop7" offset="0" stop-color="#df9fb4"/><stop id="stop9" offset="1" stop-color="#623443"/></radialGradient><radialGradient id="radialGradient3023" cx="148.004" cy="160" r="128" gradientTransform="matrix(0.1831,0,0,0.1831,-3.10079,-5.29638)" gradientUnits="userSpaceOnUse" xlink:href="#radial0"/><linearGradient id="linearGradient3040" x2="0" y1="1050.36" y2="1006.36" gradientUnits="userSpaceOnUse" xlink:href="#1"/><linearGradient id="linearGradient3042" x2="0" y1="3.387" y2="10.16" gradientTransform="matrix(3.543307,0,0,3.543307,7.8740741e-4,1004.3638)" gradientUnits="userSpaceOnUse" xlink:href="#3"/><linearGradient id="linearGradient3046" x2="0" y1="3.387" y2="10.16" gradientTransform="matrix(3.543307,0,0,3.543307,7.8740741e-4,0.0016)" gradientUnits="userSpaceOnUse" xlink:href="#3"/><linearGradient id="linearGradient3049" x2="0" y1="1050.36" y2="1006.36" gradientTransform="translate(0,-1004.3622)" gradientUnits="userSpaceOnUse" xlink:href="#1"/></defs><path id="path11" fill="url(#radialGradient3023)" d="m 47.436999,11.547375 0,24.90625 c 0,10.25 0,10.984375 -10.984375,10.984375 l -24.902343,0 C 0.562,47.438 0.562,46.703625 0.562,36.453625 l 0,-24.90625 c 0,-10.25 0,-10.984375 10.988281,-10.984375 l 24.902343,0 c 10.984375,0 10.984375,0.734375 10.984375,10.984375 z"/><path id="path15" fill="#fff" fill-opacity=".051" d="m 38.265125,47.438 c 2.542969,-0.01172 4.378906,-0.08203 5.710937,-0.441406 l -4.230468,-7.25 -4.484375,7.691406 1.191406,0 c 0.640625,0 1.242187,0 1.8125,0 z m 1.480469,-7.691406 -5.125,-8.789063 -5.128906,8.789063 z m 0,0 7.652344,0 c 0.03125,-0.972656 0.03906,-2.0625 0.03906,-3.296875 l 0,-1.097657 -2.5625,-4.394531 z m 5.128906,-8.789063 -5.128906,-8.789062 -5.125,8.789062 z m 0,0 2.5625,0 0,-4.394531 z m -10.253906,0 -5.128906,-8.789062 -5.125,8.789062 z m -10.253906,0 -5.128907,8.789063 10.253907,0 z m 0,0 -5.128907,-8.789062 -5.125,8.789062 z m -10.253907,0 -5.128906,8.789063 10.253906,0 z m 0,0 -5.128906,-8.789062 -5.125,8.789062 z m -10.253906,0 L 0.562,36.605969 c 0,1.167969 0.011719,2.210937 0.039062,3.140625 l 8.382813,0 z m 0,0 -3.296875,-5.648437 0,5.648437 z m 5.125,8.789063 -4.3125,7.394531 C 6.269031,47.434094 8.479969,47.438 11.550281,47.438 l 1.921875,0 z m 0,-17.578125 -5.125,-8.789063 -3.296875,5.648438 0,3.140625 z m 0,0 10.253906,0 -5.125,-8.789063 z m 5.128906,-8.789063 -5.128906,-8.789062 -5.125,8.789062 z m 0,0 10.253907,0 -5.128907,-8.789062 z m 5.125,-8.789062 -2.351562,-4.027344 -5.339844,0 c -0.07422,0 -0.136719,0 -0.210937,0 L 8.983875,4.590344 z m 0,0 10.253907,0 -2.351563,-4.027344 -5.550781,0 z m 10.253907,0 10.253906,0 L 37.394031,0.563 c -0.3125,0 -0.609375,0 -0.945312,0 l -4.605469,0 z m 0,0 -5.125,8.789062 10.253906,0 z m 5.128906,8.789062 10.253906,0 -5.128906,-8.789062 z m 0,0 -5.128906,8.789063 10.253906,0 z m 5.125,8.789063 7.691406,0 0,-4.394531 -2.5625,-4.394532 z m 5.128906,-8.789063 2.5625,0 0,-1.832031 c 0,-0.914063 -0.0078,-1.75 -0.02344,-2.523437 z m -15.382812,8.789063 -5.125,-8.789063 -5.128907,8.789063 z m 10.253906,-17.578125 7.308594,0 C 46.4995,1.832531 45.167469,0.961438 42.022938,0.688 z m -30.761719,0 L 6.679188,0.637219 C 3.019031,0.84425 1.538562,1.633312 0.944812,4.590344 z m -5.125,8.789062 L 0.620594,7.824719 C 0.577625,8.898938 0.562,10.133312 0.562,11.547375 l 0,1.832031 z m 15.378906,26.367188 -4.484375,7.691406 8.972656,0 z m 10.253907,0 -4.484376,7.691406 8.972657,0 z M 2.59325,46.367688 0.991688,43.621594 C 1.284656,44.938 1.776844,45.801281 2.59325,46.367688 z"/><path id="path36" fill="#f9f9f9" fill-opacity="1" d="M 24 12 C 17.372566 12 12 17.19505 12 23.59375 C 12 27.45195 13.964975 30.8317 16.96875 32.9375 C 16.858862 33.3809 16.719972 33.85825 16.5 34.34375 C 15.750014 35.99905 15 36 15 36 C 15 36 17.249992 36.0149 18.75 35.1875 C 19.066896 35.0131 19.343832 34.7168 19.59375 34.375 C 20.960036 34.8971 22.441349 35.1875 24 35.1875 C 30.627417 35.1875 36 29.99265 36 23.59375 C 36 17.19495 30.627416 12 24 12 z M 22.5625 17 L 23.9375 17 L 23.15625 20.96875 L 26.03125 20.96875 L 26.84375 17 L 28.1875 17 L 27.40625 20.96875 L 29 20.96875 L 29 22.34375 L 27.125 22.34375 L 26.46875 25.6875 L 29 25.6875 L 29 27.0625 L 26.1875 27.0625 L 25.375 31 L 24 31 L 24.8125 27.0625 L 21.90625 27.0625 L 21.125 31 L 19.75 31 L 20.5625 27.0625 L 19 27.0625 L 19 25.6875 L 20.8125 25.6875 L 21.5 22.34375 L 19 22.34375 L 19 20.96875 L 21.78125 20.96875 L 22.5625 17 z M 22.875 22.34375 L 22.1875 25.6875 L 25.0625 25.6875 L 25.75 22.34375 L 22.875 22.34375 z"/></svg>