<svg xmlns="http://www.w3.org/2000/svg" xmlns:svg="http://www.w3.org/2000/svg" xmlns:xlink="http://www.w3.org/1999/xlink" id="svg2" width="48" height="48" version="1.1" viewBox="0 0 13.547 13.547"><metadata id="metadata40"/><defs id="defs4"><linearGradient id="0"><stop id="stop7" stop-color="#dedede"/><stop id="stop9" offset="1" stop-color="#f9f9f9"/></linearGradient><linearGradient id="1" x2="0" y1="1050.36" y2="1006.36" gradientTransform="matrix(0.28222223,0,0,0.28222223,0,-283.45334)" gradientUnits="userSpaceOnUse" xlink:href="#0"/><radialGradient id="radialGradient3013" cx="148.004" cy="160" r="128" gradientTransform="matrix(0.1831,0,0,0.1831,-3.10079,-5.296398)" gradientUnits="userSpaceOnUse" spreadMethod="pad" xlink:href="#linearGradient4460"/><linearGradient id="linearGradient4460"><stop id="stop8-6" offset="0" stop-color="#747474" stop-opacity="1"/><stop id="stop10-2" offset="1" stop-color="#2d2d2d" stop-opacity="1"/></linearGradient><radialGradient id="radialGradient3017" cx="148.004" cy="160" r="128" gradientTransform="matrix(0.05167489,0,0,0.05167489,-0.87511191,-1.4947607)" gradientUnits="userSpaceOnUse" spreadMethod="pad" xlink:href="#linearGradient4460"/></defs><path id="path11" fill="url(#radialGradient3017)" fill-opacity="1" d="m 13.387776,3.2589213 0,7.0290977 c 0,2.892777 0,3.100034 -3.100035,3.100034 l -7.0279949,0 c -3.10113721,0 -3.10113721,-0.207257 -3.10113721,-3.100034 l 0,-7.0290977 c 0,-2.89277779 0,-3.10003479 3.10113721,-3.10003479 l 7.0279949,0 c 3.100035,0 3.100035,0.207257 3.100035,3.10003479 z"/><path id="path15" fill="#fff" fill-opacity=".051" d="m 10.799269,13.388053 c 0.717682,-0.0033 1.235825,-0.02315 1.611753,-0.124575 l -1.193932,-2.04611 -1.2655902,2.170685 0.3362412,0 c 0.180799,0 0.350573,0 0.511528,0 z M 11.21709,11.217368 9.7707008,8.7368988 8.3232098,11.217368 z m 0,0 2.159662,0 c 0.0088,-0.274505 0.01102,-0.582083 0.01102,-0.930451 l 0,-0.3097839 -0.723193,-1.2402343 z M 12.664582,8.7368988 11.21709,6.2564301 9.7707008,8.7368988 z m 0,0 0.723194,0 0,-1.2402343 z m -2.8938812,0 L 8.3232098,6.2564301 6.876821,8.7368988 z m -2.8938798,0 -1.4474916,2.4804692 2.8938804,0 z m 0,0 L 5.4293294,6.2564301 3.9829405,8.7368988 z m -2.8938805,0 -1.4474913,2.4804692 2.8938802,0 z m 0,0 L 2.5354492,6.2564301 1.0890603,8.7368988 z m -2.8938802,0 -0.93045141,1.5941152 c 0,0.329627 0.00331,0.623976 0.011024,0.886354 l 2.36581621,0 z m 0,0 -0.93045141,-1.5941145 0,1.5941145 z m 1.4463889,2.4804692 -1.2170833,2.0869 c 0.450894,0.08268 1.0748699,0.08379 1.9413802,0.08379 l 0.5423958,0 z m 0,-4.9609379 -1.4463889,-2.4804689 -0.93045141,1.5941147 0,0.8863542 z m 0,0 2.8938802,0 L 3.9829405,3.7759612 z M 3.9829405,3.7759612 2.5354492,1.2954925 1.0890603,3.7759612 z m 0,0 2.8938805,0 -1.4474916,-2.4804687 z m 1.4463889,-2.4804687 -0.663663,-1.13660599 -1.5059203,0 c -0.02205,0 -0.039688,0 -0.060634,0 L 2.5354492,1.2954925 z m 0,0 2.8938804,0 -0.6636632,-1.13660599 -1.5665538,0 z m 2.8938804,0 2.8938802,0 -0.663663,-1.13660599 c -0.0882,0 -0.171979,0 -0.265686,0 l -1.3008682,0 z m 0,0 -1.4463888,2.4804687 2.8938798,0 z m 1.447491,2.4804687 2.8938812,0 -1.447492,-2.4804687 z m 0,0 -1.447491,2.4804689 2.8938802,0 z m 1.4463892,2.4804689 2.170686,0 0,-1.2402343 -0.723194,-1.2402346 z m 1.447492,-2.4804689 0.723194,0 0,-0.5170399 c 0,-0.2579689 -0.0022,-0.4938888 -0.0066,-0.71217 z M 8.3232098,6.2564301 6.876821,3.7759612 5.4293294,6.2564301 z m 2.8938802,-4.9609376 2.062648,0 C 13.123193,0.51717641 12.747264,0.27133461 11.859807,0.19416431 z m -8.6816408,0 L 1.8850153,0.17983281 C 0.85203769,0.23826181 0.43421639,0.46095241 0.26664699,1.2954925 z M 1.0890603,3.7759612 0.17514549,2.2083051 c -0.0121271,0.3031684 -0.0165354,0.6515362 -0.0165354,1.0506162 l 0,0.5170399 z m 4.3402691,7.4414068 -1.2655903,2.170685 2.532283,0 z m 2.8938804,0 -1.2655905,2.170685 2.5322835,0 z m -7.59133701,1.868619 -0.4519964,-0.775009 c 0.082682,0.371519 0.2215885,0.615157 0.4519964,0.775009 z"/><rect id="rect32" width="2.58" height=".516" x="-9.471" y="-.259" fill="#f9f9f9" fill-opacity="1" rx=".258" transform="matrix(-0.70710678,-0.70710678,0.70710678,-0.70710678,0,0)"/><rect id="rect34" width="4.233" height=".564" x="6.491" y="6.49" fill="#f9f9f9" fill-opacity="1" rx=".264"/><rect id="rect36" width="4.453" height=".27" x="-6.422" y="9.003" fill="#f9f9f9" fill-opacity="1" rx=".139" ry=".135" transform="matrix(0.47720197,-0.87879365,0.85224045,0.52315028,0,0)"/><path id="path38" fill="#f9f9f9" fill-opacity="1" d="m 7.337774,6.7734469 a 0.56444446,0.56444446 0 0 1 -1.1288889,0 0.56444446,0.56444446 0 1 1 1.1288889,0 z"/></svg>