<svg xmlns="http://www.w3.org/2000/svg" xmlns:svg="http://www.w3.org/2000/svg" xmlns:xlink="http://www.w3.org/1999/xlink" id="svg2" width="48" height="48" version="1.1"><metadata id="metadata108"/><defs id="defs4"><clipPath id="clipPath6"><rect id="rect8" width="42" height="42" x="307" y="223" fill="url(#3)" color="#bebebe" rx="9" transform="rotate(90)"/></clipPath><clipPath id="clipPath10"><rect id="rect12" width="240" height="240" x="24" y="36" fill="#986767" color="#bebebe" rx="50"/></clipPath><clipPath id="clipPath14"><rect id="rect16" width="16" height="16" x="432" y="116" fill="#6d6d6d" color="#bebebe" opacity=".2" rx="2"/></clipPath><clipPath id="clipPath18"><path id="path20" d="m 98.03125,23.191212 c -41.492132,1.05238 -74.84375,35.06824 -74.84375,76.812498 0,42.40687 34.405632,76.8125 76.8125,76.8125 42.40687,0 76.8125,-34.40563 76.8125,-76.8125 0,-42.406866 -34.40563,-76.812498 -76.8125,-76.812498 -0.662607,0 -1.310145,-0.0167 -1.96875,0 z M 100,50.659962 c 27.24464,0 49.34375,22.099114 49.34375,49.343748 -1e-5,27.24464 -22.09911,49.34375 -49.34375,49.34375 -27.244636,-1e-5 -49.34375,-22.09911 -49.34375,-49.34375 0,-27.244634 22.099114,-49.343748 49.34375,-49.343748 z"/></clipPath><clipPath id="clipPath22"><path id="path24" d="m 152,204 a 8,8 0 1 1 -16,0 8,8 0 1 1 16,0 z"/></clipPath><clipPath id="clipPath26"><path id="path28" d="m 145,215 c 33.13708,0 60,-26.86292 60,-60 0,-33.13708 -26.86292,-60 -60,-60 -33.13708,0 -60,26.86292 -60,60 0,12.50698 3.8285,24.10633 10.375,33.71875 L 89,211 111.28125,204.625 C 120.89367,211.1715 132.49302,215 145,215 z"/></clipPath><clipPath id="clipPath30"><rect id="rect32" width="16" height="16" x="432" y="116" color="#bebebe" rx="3"/></clipPath><clipPath id="clipPath34"><path id="path36" d="m 144,70 c -49.705627,0 -90,40.29437 -90,90 0,49.70563 40.294373,90 90,90 49.70563,0 90,-40.29437 90,-90 0,-49.70563 -40.29437,-90 -90,-90 z m 0,32.1875 c 32.03251,0 58,25.96748 58,58 0,32.03252 -25.96749,58 -58,58 -32.03251,0 -58,-25.96748 -58,-58 0,-32.03252 25.96749,-58 58,-58 z"/></clipPath><clipPath id="clipPath38"><rect id="rect40" width="22" height="22" x="433" y="77" fill="#6d6d6d" color="#bebebe" opacity=".2" rx="3"/></clipPath><clipPath id="clipPath42"><rect id="rect44" width="30" height="30" x="433" y="29" fill="#6d6d6d" color="#bebebe" opacity=".2" rx="4"/></clipPath><clipPath id="clipPath46"><rect id="rect48" width="90" height="90" x="307" y="31" fill="url(#1)" color="#bebebe" rx="18.75"/></clipPath><clipPath id="clipPath50"><rect id="rect52" width="60" height="60" x="306" y="142" fill="url(#0)" color="#bebebe" rx="12.5" transform="matrix(0 -1 1 0 0 0)"/></clipPath><clipPath id="clipPath54"><rect id="rect56" width="30" height="30" x="433" y="29" color="#bebebe" rx="6"/></clipPath><clipPath id="clipPath58"><rect id="rect60" width="22" height="22" x="433" y="77" color="#bebebe" rx="5"/></clipPath><clipPath id="clipPath62"><rect id="rect64" width="22" height="22" x="433" y="77" color="#bebebe" rx="4"/></clipPath><clipPath id="clipPath66"><rect id="rect68" width="20" height="20" x="434" y="78" color="#bebebe" rx="4"/></clipPath><linearGradient id="linearGradient70" x1="265" x2="264" y1="40" y2="276" gradientTransform="matrix(-1 0 0 -1 289 315)" gradientUnits="userSpaceOnUse" xlink:href="#2"/><linearGradient id="0" x2="0" y1="230" y2="90" gradientTransform="matrix(.25 0 0 .25 299.99999 131.99999)" gradientUnits="userSpaceOnUse" xlink:href="#2"/><linearGradient id="1" x2="0" y1="230" y2="90" gradientTransform="matrix(.375 0 0 .375 298 16)" gradientUnits="userSpaceOnUse" xlink:href="#2"/><linearGradient id="2"><stop id="stop75" stop-color="#151515"/><stop id="stop77" offset="1" stop-color="#222"/></linearGradient><linearGradient id="3" x2="0" y1="280" y2="40" gradientTransform="matrix(.175 0 0 .175 302.79999 215.99997)" gradientUnits="userSpaceOnUse" xlink:href="#2"/><linearGradient id="4"><stop id="stop81" stop-color="#3cbb44"/><stop id="stop83" offset="1" stop-color="#61dd6f"/></linearGradient><linearGradient id="5" x2="0" y1="1050.36" y2="1006.36" gradientTransform="translate(-1.16e-6,1.3582813e-5)" gradientUnits="userSpaceOnUse" xlink:href="#4"/><linearGradient id="2-4" x1="3.669" x2="10.442" gradientTransform="matrix(3.543307,0,0,3.543307,-0.999996,0)" gradientUnits="userSpaceOnUse" xlink:href="#0-0"/><linearGradient id="0-0"><stop id="stop7" stop-color="#e2f4fd"/><stop id="stop9" offset="1" stop-color="#f9f9f9"/></linearGradient><radialGradient id="radialGradient3017" cx="148.004" cy="160" r="128" gradientTransform="matrix(0.05167489,0,0,0.05167489,-0.87511141,-1.4947614)" gradientUnits="userSpaceOnUse" xlink:href="#radial0"/><radialGradient id="radial0" cx="148.004" cy="160" r="128" gradientTransform="matrix(0.1831,0,0,0.1831,-3.10029,-5.29688)" gradientUnits="userSpaceOnUse"><stop id="stop7-9" offset="0" stop-color="#b9e5c7"/><stop id="stop9-8" offset="1" stop-color="#028e2e"/></radialGradient><radialGradient id="radialGradient3018" cx="148.004" cy="160" r="128" gradientTransform="matrix(0.1831,0,0,0.1831,-3.1007844,-5.296399)" gradientUnits="userSpaceOnUse" xlink:href="#radial0"/></defs><path id="path11" fill="url(#radialGradient3018)" d="m 47.437008,11.547356 0,24.906251 c 0,10.25 0,10.984375 -10.984376,10.984375 l -24.902345,0 c -10.988281,0 -10.988281,-0.734375 -10.988281,-10.984375 l 0,-24.906251 c 0,-10.249999 0,-10.984374 10.988281,-10.984374 l 24.902345,0 c 10.984376,0 10.984376,0.734375 10.984376,10.984374 z"/><path id="path15" fill="#fff" fill-opacity=".051" d="m 38.265133,47.437982 c 2.542968,-0.01169 4.378907,-0.08203 5.710936,-0.441407 l -4.230468,-7.25 -4.484375,7.691407 1.191406,0 c 0.640627,0 1.242188,0 1.812501,0 z m 1.480468,-7.691407 -5.125001,-8.789062 -5.128905,8.789062 z m 0,0 7.652346,0 c 0.03118,-0.972655 0.03905,-2.062498 0.03905,-3.296873 l 0,-1.09766 -2.562499,-4.394529 z M 44.87451,30.957513 39.745601,22.16845 34.6206,30.957513 z m 0,0 2.562498,0 0,-4.394531 z m -10.25391,0 -5.128905,-8.789063 -5.125001,8.789063 z m -10.253906,0 -5.128908,8.789062 10.253909,0 z m 0,0 -5.128908,-8.789063 -5.125,8.789063 z m -10.253908,0 -5.128905,8.789062 10.253905,0 z m 0,0 -5.128905,-8.789063 -5.125,8.789063 z m -10.253905,0 -3.296875,5.648438 c 0,1.16797 0.01173,2.210939 0.03906,3.140624 l 8.382813,0 z m 0,0 -3.296875,-5.648437 0,5.648437 z m 5.125,8.789062 -4.3125,7.394531 C 6.269038,47.434067 8.479976,47.438 11.546383,47.438 l 1.92578,0 z m 0,-17.578125 -5.125,-8.789062 -3.296875,5.648437 0,3.140625 z m 0,0 10.253905,0 -5.125,-8.789062 z m 5.128905,-8.789062 -5.128905,-8.7890625 -5.125,8.7890625 z m 0,0 10.253908,0 -5.128908,-8.7890625 z m 5.125,-8.7890625 -2.351562,-4.0273435 -5.339841,0 c -0.07423,0 -0.136737,0 -0.210933,0 L 8.983888,4.5903255 z m 0,0 10.253909,0 -2.351566,-4.0273435 -5.550778,0 z m 10.253909,0 10.253906,0 -2.351562,-4.0273435 c -0.312519,0 -0.609374,0 -0.941407,0 l -4.609376,0 z m 0,0 -5.125001,8.7890625 10.253906,0 z m 5.128905,8.7890625 10.25391,0 -5.128909,-8.7890625 z m 0,0 -5.128905,8.789062 10.253906,0 z m 5.125001,8.789062 7.691407,0 0,-4.394531 -2.562498,-4.394531 z m 5.128909,-8.789062 2.562498,0 0,-1.832032 c 0,-0.914063 -0.0078,-1.7499995 -0.02339,-2.5234365 z M 29.491695,22.16845 24.366694,13.379388 19.237786,22.16845 z m 10.253906,-17.5781245 7.308595,0 C 46.499509,1.832513 45.167477,0.96142 42.022945,0.687982 z m -30.76172,0 L 6.679193,0.637201 C 3.019037,0.844232 1.538568,1.633294 0.944818,4.5903255 z M 3.858881,13.379388 0.6206,7.8247004 C 0.57763,8.8989194 0.562,10.133293 0.562,11.547356 l 0,1.832032 z m 15.378905,26.367187 -4.484374,7.691407 8.972656,0 z m 10.253909,0 -4.484378,7.691407 8.972656,0 z M 2.593256,46.36767 0.991694,43.621575 c 0.292967,1.316406 0.785156,2.17969 1.601562,2.746095 z"/><path id="path34" fill="url(#2-4)" fill-rule="evenodd" d="m 12.000004,26.000001 8,7.999999 16.000003,-17 -3.000003,-2.999999 -13,14 -5,-5 z"/></svg>