<svg xmlns="http://www.w3.org/2000/svg" xmlns:svg="http://www.w3.org/2000/svg" xmlns:xlink="http://www.w3.org/1999/xlink" id="svg2" width="48" height="48" version="1.1"><metadata id="metadata102"/><defs id="defs4"><clipPath id="clipPath6"><rect id="rect8" width="42" height="42" x="307" y="223" fill="url(#3)" color="#bebebe" rx="9" transform="rotate(90)"/></clipPath><clipPath id="clipPath10"><rect id="rect12" width="240" height="240" x="24" y="36" fill="#986767" color="#bebebe" rx="50"/></clipPath><clipPath id="clipPath14"><rect id="rect16" width="16" height="16" x="432" y="116" fill="#6d6d6d" color="#bebebe" opacity=".2" rx="2"/></clipPath><clipPath id="clipPath18"><path id="path20" d="m 98.03125,23.191212 c -41.492132,1.05238 -74.84375,35.06824 -74.84375,76.812498 0,42.40687 34.405632,76.8125 76.8125,76.8125 42.40687,0 76.8125,-34.40563 76.8125,-76.8125 0,-42.406866 -34.40563,-76.812498 -76.8125,-76.812498 -0.662607,0 -1.310145,-0.0167 -1.96875,0 z M 100,50.659962 c 27.24464,0 49.34375,22.099114 49.34375,49.343748 -1e-5,27.24464 -22.09911,49.34375 -49.34375,49.34375 -27.244636,-1e-5 -49.34375,-22.09911 -49.34375,-49.34375 0,-27.244634 22.099114,-49.343748 49.34375,-49.343748 z"/></clipPath><clipPath id="clipPath22"><path id="path24" d="m 152,204 a 8,8 0 1 1 -16,0 8,8 0 1 1 16,0 z"/></clipPath><clipPath id="clipPath26"><path id="path28" d="m 145,215 c 33.13708,0 60,-26.86292 60,-60 0,-33.13708 -26.86292,-60 -60,-60 -33.13708,0 -60,26.86292 -60,60 0,12.50698 3.8285,24.10633 10.375,33.71875 L 89,211 111.28125,204.625 C 120.89367,211.1715 132.49302,215 145,215 z"/></clipPath><clipPath id="clipPath30"><rect id="rect32" width="16" height="16" x="432" y="116" color="#bebebe" rx="3"/></clipPath><clipPath id="clipPath34"><path id="path36" d="m 144,70 c -49.705627,0 -90,40.29437 -90,90 0,49.70563 40.294373,90 90,90 49.70563,0 90,-40.29437 90,-90 0,-49.70563 -40.29437,-90 -90,-90 z m 0,32.1875 c 32.03251,0 58,25.96748 58,58 0,32.03252 -25.96749,58 -58,58 -32.03251,0 -58,-25.96748 -58,-58 0,-32.03252 25.96749,-58 58,-58 z"/></clipPath><clipPath id="clipPath38"><rect id="rect40" width="22" height="22" x="433" y="77" fill="#6d6d6d" color="#bebebe" opacity=".2" rx="3"/></clipPath><clipPath id="clipPath42"><rect id="rect44" width="30" height="30" x="433" y="29" fill="#6d6d6d" color="#bebebe" opacity=".2" rx="4"/></clipPath><clipPath id="clipPath46"><rect id="rect48" width="90" height="90" x="307" y="31" fill="url(#1)" color="#bebebe" rx="18.75"/></clipPath><clipPath id="clipPath50"><rect id="rect52" width="60" height="60" x="306" y="142" fill="url(#0)" color="#bebebe" rx="12.5" transform="matrix(0 -1 1 0 0 0)"/></clipPath><clipPath id="clipPath54"><rect id="rect56" width="30" height="30" x="433" y="29" color="#bebebe" rx="6"/></clipPath><clipPath id="clipPath58"><rect id="rect60" width="22" height="22" x="433" y="77" color="#bebebe" rx="5"/></clipPath><clipPath id="clipPath62"><rect id="rect64" width="22" height="22" x="433" y="77" color="#bebebe" rx="4"/></clipPath><clipPath id="clipPath66"><rect id="rect68" width="20" height="20" x="434" y="78" color="#bebebe" rx="4"/></clipPath><linearGradient id="linearGradient70" x1="265" x2="264" y1="40" y2="276" gradientTransform="matrix(-1 0 0 -1 289 315)" gradientUnits="userSpaceOnUse" xlink:href="#2"/><linearGradient id="0" x2="0" y1="230" y2="90" gradientTransform="matrix(.25 0 0 .25 299.99999 131.99999)" gradientUnits="userSpaceOnUse" xlink:href="#2"/><linearGradient id="1" x2="0" y1="230" y2="90" gradientTransform="matrix(.375 0 0 .375 298 16)" gradientUnits="userSpaceOnUse" xlink:href="#2"/><linearGradient id="2"><stop id="stop75" stop-color="#151515"/><stop id="stop77" offset="1" stop-color="#222"/></linearGradient><linearGradient id="3" x2="0" y1="280" y2="40" gradientTransform="matrix(.175 0 0 .175 302.79999 215.99997)" gradientUnits="userSpaceOnUse" xlink:href="#2"/><radialGradient id="radialGradient3010" cx="148.004" cy="160" r="128" gradientTransform="matrix(0.1831,0,0,0.1831,-3.100791,-5.296401)" gradientUnits="userSpaceOnUse" spreadMethod="pad" xlink:href="#linearGradient4460"/><linearGradient id="linearGradient4460"><stop id="stop8-6" offset="0" stop-color="#ddd" stop-opacity="1"/><stop id="stop10-2" offset="1" stop-color="#888" stop-opacity="1"/></linearGradient><radialGradient id="radialGradient3050" cx="148.004" cy="160" r="128" gradientTransform="matrix(0.1831,0,0,0.1831,-3.100791,-5.2964004)" gradientUnits="userSpaceOnUse" spreadMethod="pad" xlink:href="#linearGradient4460"/></defs><path id="path11" fill="url(#radialGradient3050)" fill-opacity="1" d="m 47.437,11.547353 0,24.90625 c 0,10.250004 0,10.984379 -10.984375,10.984379 l -24.902344,0 C 0.562,47.437982 0.562,46.703607 0.562,36.453603 l 0,-24.90625 c 0,-10.2499986 0,-10.9843738 10.988281,-10.9843738 l 24.902344,0 C 47.437,0.5629792 47.437,1.2973544 47.437,11.547353 z"/><path id="path15-7" fill="#fff" fill-opacity=".051" d="m 38.265125,47.437982 c 2.542968,-0.01169 4.378908,-0.08203 5.710936,-0.441411 l -4.230467,-7.249996 -4.484375,7.691407 1.191406,0 c 0.640626,0 1.242187,0 1.8125,0 z m 1.480469,-7.691407 -5.125,-8.789066 -5.128906,8.789066 z m 0,0 7.652345,0 c 0.03118,-0.972659 0.03905,-2.062502 0.03905,-3.296877 l 0,-1.097658 -2.562491,-4.394531 z m 5.128908,-8.789066 -5.128908,-8.789062 -5.125,8.789062 z m 0,0 2.562498,0 0,-4.394531 z m -10.253908,0 -5.128906,-8.789062 -5.125,8.789062 z m -10.253906,0 -5.128907,8.789059 10.253907,0 z m 0,0 -5.128907,-8.789062 -5.125,8.789062 z m -10.253907,0 -5.1289075,8.789059 10.2539075,0 z m 0,0 -5.1289075,-8.789062 -5.124999,8.789062 z m -10.2539065,0 L 0.562,36.605951 c 0,1.167966 0.01173,2.210935 0.03906,3.140624 l 8.3828125,0 z m 0,0 L 0.562,25.309072 l 0,5.648437 z m 5.124999,8.789066 -4.312499,7.394531 C 6.2690305,47.434067 8.4799685,47.438 11.550281,47.438 l 1.921875,0 z m 0,-17.578128 -5.124999,-8.789063 -3.2968745,5.648438 0,3.140625 z m 0,0 10.2539075,0 -5.125,-8.789063 z M 14.112781,13.379384 8.9838735,4.5903232 3.8588745,13.379384 z m 0,0 10.253907,0 -5.128907,-8.7890608 z m 5.125,-8.7890608 -2.351562,-4.027344 -5.335938,0 c -0.07813,0 -0.140627,0 -0.214845,0 l -2.3515625,4.027344 z m 0,0 10.253907,0 -2.351563,-4.027344 -5.550781,0 z m 10.253907,0 10.253906,0 -2.351562,-4.027344 c -0.31252,0 -0.609375,0 -0.941407,0 l -4.609375,0 z m 0,0 -5.125,8.7890608 10.253906,0 z m 5.128906,8.7890608 10.253908,0 -5.128908,-8.7890608 z m 0,0 -5.128906,8.789063 10.253906,0 z m 5.125,8.789063 7.691406,0 0,-4.394531 -2.562498,-4.394532 z m 5.128908,-8.789063 2.562498,0 0,-1.832031 c 0,-0.914063 -0.0078,-1.7499988 -0.02338,-2.5234358 z m -15.382814,8.789063 -5.125,-8.789063 -5.128907,8.789063 z m 10.253906,-17.5781238 7.308595,0 C 46.499502,1.8325103 45.16747,0.9614174 42.022937,0.6879793 z m -30.7617205,0 -2.304687,-3.9531248 C 3.019031,0.8442303 1.538562,1.6332914 0.944812,4.5903232 z M 3.8588745,13.379384 0.620593,7.8246981 c -0.04297,1.074219 -0.05859,2.3085939 -0.05859,3.7226549 l 0,1.832031 z m 15.3789065,26.367191 -4.484375,7.691407 8.972656,0 z m 10.253907,0 -4.484376,7.691407 8.972657,0 z M 2.59325,46.367666 0.991688,43.621571 c 0.292967,1.316406 0.785156,2.179694 1.601562,2.746095 z"/><path id="path104" fill="#f9f9f9" fill-opacity="1" d="m 23,12 0,11 -7,0 1e-6,-4 C 16.000002,16 19,12 23,12 z m 2,0 c 4,0 7,4 7,7 l 0,4 -7,0 z m -9,13 16,0 0,4 c 0,4 -3,7 -7.999999,7 C 19,36 16,33 16,29 z" color="#000"/></svg>