<svg xmlns="http://www.w3.org/2000/svg" xmlns:svg="http://www.w3.org/2000/svg" xmlns:xlink="http://www.w3.org/1999/xlink" id="svg2" width="48" height="48" version="1.1"><metadata id="metadata108"/><defs id="defs4"><clipPath id="clipPath6"><rect id="rect8" width="42" height="42" x="307" y="223" fill="url(#3)" color="#bebebe" rx="9" transform="rotate(90)"/></clipPath><clipPath id="clipPath10"><rect id="rect12" width="240" height="240" x="24" y="36" fill="#986767" color="#bebebe" rx="50"/></clipPath><clipPath id="clipPath14"><rect id="rect16" width="16" height="16" x="432" y="116" fill="#6d6d6d" color="#bebebe" opacity=".2" rx="2"/></clipPath><clipPath id="clipPath18"><path id="path20" d="m 98.03125,23.191212 c -41.492132,1.05238 -74.84375,35.06824 -74.84375,76.812498 0,42.40687 34.405632,76.8125 76.8125,76.8125 42.40687,0 76.8125,-34.40563 76.8125,-76.8125 0,-42.406866 -34.40563,-76.812498 -76.8125,-76.812498 -0.662607,0 -1.310145,-0.0167 -1.96875,0 z M 100,50.659962 c 27.24464,0 49.34375,22.099114 49.34375,49.343748 -1e-5,27.24464 -22.09911,49.34375 -49.34375,49.34375 -27.244636,-1e-5 -49.34375,-22.09911 -49.34375,-49.34375 0,-27.244634 22.099114,-49.343748 49.34375,-49.343748 z"/></clipPath><clipPath id="clipPath22"><path id="path24" d="m 152,204 a 8,8 0 1 1 -16,0 8,8 0 1 1 16,0 z"/></clipPath><clipPath id="clipPath26"><path id="path28" d="m 145,215 c 33.13708,0 60,-26.86292 60,-60 0,-33.13708 -26.86292,-60 -60,-60 -33.13708,0 -60,26.86292 -60,60 0,12.50698 3.8285,24.10633 10.375,33.71875 L 89,211 111.28125,204.625 C 120.89367,211.1715 132.49302,215 145,215 z"/></clipPath><clipPath id="clipPath30"><rect id="rect32" width="16" height="16" x="432" y="116" color="#bebebe" rx="3"/></clipPath><clipPath id="clipPath34"><path id="path36" d="m 144,70 c -49.705627,0 -90,40.29437 -90,90 0,49.70563 40.294373,90 90,90 49.70563,0 90,-40.29437 90,-90 0,-49.70563 -40.29437,-90 -90,-90 z m 0,32.1875 c 32.03251,0 58,25.96748 58,58 0,32.03252 -25.96749,58 -58,58 -32.03251,0 -58,-25.96748 -58,-58 0,-32.03252 25.96749,-58 58,-58 z"/></clipPath><clipPath id="clipPath38"><rect id="rect40" width="22" height="22" x="433" y="77" fill="#6d6d6d" color="#bebebe" opacity=".2" rx="3"/></clipPath><clipPath id="clipPath42"><rect id="rect44" width="30" height="30" x="433" y="29" fill="#6d6d6d" color="#bebebe" opacity=".2" rx="4"/></clipPath><clipPath id="clipPath46"><rect id="rect48" width="90" height="90" x="307" y="31" fill="url(#1)" color="#bebebe" rx="18.75"/></clipPath><clipPath id="clipPath50"><rect id="rect52" width="60" height="60" x="306" y="142" fill="url(#0)" color="#bebebe" rx="12.5" transform="matrix(0 -1 1 0 0 0)"/></clipPath><clipPath id="clipPath54"><rect id="rect56" width="30" height="30" x="433" y="29" color="#bebebe" rx="6"/></clipPath><clipPath id="clipPath58"><rect id="rect60" width="22" height="22" x="433" y="77" color="#bebebe" rx="5"/></clipPath><clipPath id="clipPath62"><rect id="rect64" width="22" height="22" x="433" y="77" color="#bebebe" rx="4"/></clipPath><clipPath id="clipPath66"><rect id="rect68" width="20" height="20" x="434" y="78" color="#bebebe" rx="4"/></clipPath><linearGradient id="linearGradient70" x1="265" x2="264" y1="40" y2="276" gradientTransform="matrix(-1 0 0 -1 289 315)" gradientUnits="userSpaceOnUse" xlink:href="#2"/><linearGradient id="0" x2="0" y1="230" y2="90" gradientTransform="matrix(.25 0 0 .25 299.99999 131.99999)" gradientUnits="userSpaceOnUse" xlink:href="#2"/><linearGradient id="1" x2="0" y1="230" y2="90" gradientTransform="matrix(.375 0 0 .375 298 16)" gradientUnits="userSpaceOnUse" xlink:href="#2"/><linearGradient id="2"><stop id="stop75" stop-color="#151515"/><stop id="stop77" offset="1" stop-color="#222"/></linearGradient><linearGradient id="3" x2="0" y1="280" y2="40" gradientTransform="matrix(.175 0 0 .175 302.79999 215.99997)" gradientUnits="userSpaceOnUse" xlink:href="#2"/><linearGradient id="4"><stop id="stop81" stop-color="#772953"/><stop id="stop83" offset="1" stop-color="#ba4b87"/></linearGradient><linearGradient id="5" x2="0" y1="1050.36" y2="1006.36" gradientUnits="userSpaceOnUse" xlink:href="#4"/><radialGradient id="radialGradient3011" cx="148.004" cy="160" r="128" gradientTransform="matrix(0.05167489,0,0,0.05167489,-0.87510911,-1.4947608)" gradientUnits="userSpaceOnUse" xlink:href="#radial0"/><radialGradient id="radial0" cx="148.004" cy="160" r="128" gradientTransform="matrix(0.1831,0,0,0.1831,-3.10029,-5.29688)" gradientUnits="userSpaceOnUse"><stop id="stop7-3" offset="0" stop-color="#c77b9c" stop-opacity="1"/><stop id="stop9-4" offset="1" stop-color="#74314e" stop-opacity="1"/></radialGradient><radialGradient id="radialGradient3010" cx="148.004" cy="160" r="128" gradientTransform="matrix(0.1831,0,0,0.1831,-3.1007805,-5.296396)" gradientUnits="userSpaceOnUse" xlink:href="#radial0"/><linearGradient id="linearGradient3104" x2="0" y1="1050.36" y2="1006.36" gradientUnits="userSpaceOnUse" xlink:href="#4"/><linearGradient id="linearGradient3108" x2="0" y1="1050.36" y2="1006.36" gradientTransform="translate(0,-1004.3622)" gradientUnits="userSpaceOnUse" xlink:href="#4"/></defs><path id="path11" fill="url(#radialGradient3010)" d="m 47.437011,11.547359 0,24.906251 c 0,10.249997 0,10.984372 -10.984376,10.984372 l -24.902341,0 c -10.9882837,0 -10.9882837,-0.734375 -10.9882837,-10.984372 l 0,-24.906251 c 0,-10.250001 0,-10.984375 10.9882837,-10.984375 l 24.902341,0 c 10.984376,0 10.984376,0.734374 10.984376,10.984375 z"/><path id="path15" fill="#fff" fill-opacity=".051" d="m 38.265136,47.437982 c 2.542968,-0.01169 4.378907,-0.08203 5.710936,-0.441407 l -4.230468,-7.249996 -4.484374,7.691403 1.191405,0 c 0.640627,0 1.242188,0 1.812501,0 z m 1.480468,-7.691403 -5.125001,-8.789064 -5.128905,8.789064 z m 0,0 7.652346,0 C 47.42913,38.773923 47.437,37.68408 47.437,36.449705 l 0,-1.097659 -2.562498,-4.394531 z m 5.128909,-8.789064 -5.128909,-8.789062 -5.125001,8.789062 z m 0,0 2.562498,0 0,-4.394531 z m -10.25391,0 -5.128905,-8.789062 -5.125,8.789062 z m -10.253905,0 -5.128905,8.789064 10.253905,0 z m 0,0 -5.128905,-8.789062 -5.125,8.789062 z m -10.253905,0 -5.1289092,8.789064 10.2539092,0 z m 0,0 -5.1289092,-8.789062 -5.1249963,8.789062 z m -10.2539055,0 -3.2968772,5.64844 c 0,1.167969 0.011693,2.210938 0.039047,3.140624 l 8.382812,0 z m 0,0 -3.2968772,-5.648437 0,5.648437 z m 5.1249963,8.789064 -4.3124983,7.394527 C 6.269041,47.434067 8.4799795,47.438 11.546386,47.438 l 1.92578,0 z m 0,-17.578126 -5.1249963,-8.789063 -3.2968772,5.648438 0,3.140625 z m 0,0 10.2539092,0 -5.125,-8.789063 z M 14.112793,13.37939 8.9838838,4.590328 3.8588875,13.37939 z m 0,0 10.253905,0 -5.128905,-8.789062 z m 5.125,-8.789062 -2.351562,-4.027344 -5.339845,0 c -0.07423,0 -0.136701,0 -0.210933,0 L 8.9838874,4.590328 z m 0,0 10.253905,0 -2.351562,-4.027344 -5.550781,0 z m 10.253905,0 10.253906,0 -2.351562,-4.027344 c -0.312519,0 -0.609374,0 -0.945311,0 l -4.605471,0 z m 0,0 -5.125,8.789062 10.253905,0 z m 5.128905,8.789062 10.25391,0 -5.128909,-8.789062 z m 0,0 -5.128905,8.789063 10.253906,0 z m 5.125001,8.789063 7.691407,0 0,-4.394531 -2.562498,-4.394532 z m 5.128909,-8.789063 2.562498,0 0,-1.832031 c 0,-0.914063 -0.0078,-1.75 -0.02339,-2.523437 z m -15.382815,8.789063 -5.125,-8.789063 -5.128905,8.789063 z m 10.253906,-17.578125 7.308595,0 C 46.499512,1.832514 45.16748,0.961421 42.022948,0.687984 z m -30.7617202,0 L 6.6792,0.637202 C 3.0190422,0.844234 1.5385741,1.633296 0.9448221,4.590328 z M 3.8588875,13.37939 0.620606,7.824703 C 0.577626,8.898922 0.562,10.133296 0.562,11.547359 l 0,1.832031 z m 15.3789055,26.367189 -4.484378,7.691403 8.972657,0 z m 10.253905,0 -4.484374,7.691403 8.972656,0 z M 2.5932607,46.36767 0.9917001,43.621575 c 0.2929606,1.316406 0.7851543,2.17969 1.6015606,2.746095 z"/><path id="path104" fill="#f9f9f9" d="M 24,9 C 15.715625,9 9,15.7156 9,24 9,32.2844 15.715625,39 24,39 32.284375,39 39,32.2844 39,24 39,15.7156 32.284375,9 24,9 z m 0,2.6375 c 6.815625,0 12.3625,5.5469 12.3625,12.3625 0,6.8187 -5.546875,12.3625 -12.3625,12.3625 -6.81875,0 -12.3625,-5.5438 -12.3625,-12.3625 0,-6.8156 5.54375,-12.3625 12.3625,-12.3625 z m 0,1.9906 C 18.2625,13.6281 13.628125,18.2625 13.628125,24 13.628125,29.7375 18.2625,34.3719 24,34.3719 29.7375,34.3719 34.371875,29.7375 34.371875,24 34.371875,18.2625 29.7375,13.6281 24,13.6281 z"/></svg>