<?xml version="1.0" encoding="UTF-8" standalone="no"?>
<svg
   xmlns:dc="http://purl.org/dc/elements/1.1/"
   xmlns:cc="http://creativecommons.org/ns#"
   xmlns:rdf="http://www.w3.org/1999/02/22-rdf-syntax-ns#"
   xmlns:svg="http://www.w3.org/2000/svg"
   xmlns="http://www.w3.org/2000/svg"
   xmlns:xlink="http://www.w3.org/1999/xlink"
   xmlns:sodipodi="http://sodipodi.sourceforge.net/DTD/sodipodi-0.dtd"
   xmlns:inkscape="http://www.inkscape.org/namespaces/inkscape"
   width="48"
   height="48"
   viewBox="0 0 48 48"
   id="svg2"
   version="1.1"
   inkscape:version="0.48.4 r9939"
   sodipodi:docname="brasero.svg">
  <defs
     id="defs7">
    <linearGradient
       gradientTransform="scale(3.543307,3.543307)"
       xlink:href="#linearGradient3863"
       id="linearGradient3869"
       y1="10.169"
       x1="7.823"
       y2="3.0280001"
       x2="7.7709999"
       gradientUnits="userSpaceOnUse" />
    <linearGradient
       id="linearGradient3863">
      <stop
         offset="0"
         style="stop-color:#f7853a"
         id="stop4655" />
      <stop
         offset="1"
         style="stop-color:#fdb273"
         id="stop4657" />
    </linearGradient>
    <inkscape:path-effect
       effect="spiro"
       id="path-effect3851"
       is_visible="true" />
    <linearGradient
       xlink:href="#E"
       id="P"
       gradientUnits="userSpaceOnUse"
       gradientTransform="matrix(0.11507836,2.6872904,-3.5509212,0.08708977,-92.131011,122.46896)"
       x1="0"
       x2="1" />
    <linearGradient
       x1="0"
       x2="1"
       gradientUnits="userSpaceOnUse"
       gradientTransform="matrix(7.70073,-237.618,-237.618,-7.70073,857.291,1026.93)"
       id="E">
      <stop
         stop-color="#fae017"
         id="stop263" />
      <stop
         offset="1"
         stop-color="#f1511d"
         id="stop265" />
    </linearGradient>
    <linearGradient
       xlink:href="#F"
       id="Q"
       gradientUnits="userSpaceOnUse"
       gradientTransform="matrix(-0.03287282,-4.018518,5.3099736,-0.0248777,-91.154219,125.14714)"
       x1="0"
       x2="1" />
    <linearGradient
       x1="0"
       x2="1"
       gradientUnits="userSpaceOnUse"
       gradientTransform="matrix(-2.19976,355.329,355.329,2.19976,857.059,785.547)"
       id="F">
      <stop
         stop-color="#ee2c21"
         id="stop268" />
      <stop
         offset="1"
         stop-color="#fab318"
         id="stop270" />
    </linearGradient>
    <linearGradient
       gradientTransform="matrix(0,-0.31193,0.31193,0,0.84666,12.7)"
       xlink:href="#8"
       id="1"
       x1="0"
       gradientUnits="userSpaceOnUse"
       x2="38" />
    <linearGradient
       id="8">
      <stop
         stop-color="#2d2d2d"
         id="stop229" />
      <stop
         offset="1"
         stop-color="#4b4b4b"
         id="stop231" />
    </linearGradient>
  </defs>
  <metadata
     id="metadata35">
    <rdf:RDF>
      <cc:Work
         rdf:about="">
        <dc:format>image/svg+xml</dc:format>
        <dc:type
           rdf:resource="http://purl.org/dc/dcmitype/StillImage" />
        <dc:title></dc:title>
      </cc:Work>
    </rdf:RDF>
  </metadata>
  <sodipodi:namedview
     pagecolor="#ffffff"
     bordercolor="#666666"
     borderopacity="1"
     objecttolerance="10"
     gridtolerance="10"
     guidetolerance="10"
     inkscape:pageopacity="0"
     inkscape:pageshadow="2"
     inkscape:window-width="1024"
     inkscape:window-height="697"
     id="namedview33"
     showgrid="false"
     inkscape:zoom="5.6568542"
     inkscape:cx="1.3946808"
     inkscape:cy="17.452492"
     inkscape:window-x="0"
     inkscape:window-y="24"
     inkscape:window-maximized="1"
     inkscape:current-layer="svg2"
     showguides="true"
     inkscape:guide-bbox="true" />
  <path
     fill="#808080"
     d="M 47.4375 11.546875 L 47.4375 36.453125 C 47.4375 46.703125 47.4375 47.4375 36.453125 47.4375 L 11.550781 47.4375 C 0.5625 47.4375 0.5625 46.703125 0.5625 36.453125 L 0.5625 11.546875 C 0.5625 1.296875 0.5625 0.5625 11.550781 0.5625 L 36.453125 0.5625 C 47.4375 0.5625 47.4375 1.296875 47.4375 11.546875 Z "
     id="path11"
     style="fill:#5ab2fb;fill-opacity:1" />
  <path
     inkscape:connector-curvature="0"
     id="path15"
     d="m 38.265625,47.4375 c 2.542969,-0.01172 4.378906,-0.08203 5.710937,-0.441406 l -4.230468,-7.25 -4.484375,7.691406 1.191406,0 c 0.640625,0 1.242187,0 1.8125,0 z m 1.480469,-7.691406 -5.125,-8.789063 -5.128906,8.789063 z m 0,0 7.652344,0 c 0.03125,-0.972656 0.03906,-2.0625 0.03906,-3.296875 l 0,-1.097657 -2.5625,-4.394531 z m 5.128906,-8.789063 -5.128906,-8.789062 -5.125,8.789062 z m 0,0 2.5625,0 0,-4.394531 z m -10.253906,0 -5.128906,-8.789062 -5.125,8.789062 z m -10.253906,0 -5.128907,8.789063 10.253907,0 z m 0,0 -5.128907,-8.789062 -5.125,8.789062 z m -10.253907,0 -5.128906,8.789063 10.253906,0 z m 0,0 -5.128906,-8.789062 -5.125,8.789062 z m -10.253906,0 -3.296875,5.648438 c 0,1.167969 0.011719,2.210937 0.039062,3.140625 l 8.382813,0 z m 0,0 -3.296875,-5.648437 0,5.648437 z m 5.125,8.789063 -4.3125,7.394531 c 1.597656,0.292969 3.808594,0.296875 6.878906,0.296875 l 1.921875,0 z m 0,-17.578125 -5.125,-8.789063 -3.296875,5.648438 0,3.140625 z m 0,0 10.253906,0 -5.125,-8.789063 z m 5.128906,-8.789063 -5.128906,-8.789062 -5.125,8.789062 z m 0,0 10.253907,0 -5.128907,-8.789062 z m 5.125,-8.789062 -2.351562,-4.027344 -5.335938,0 c -0.07813,0 -0.140625,0 -0.214843,0 L 8.984375,4.589844 z m 0,0 10.253907,0 -2.351563,-4.027344 -5.550781,0 z m 10.253907,0 10.253906,0 L 37.394531,0.5625 c -0.3125,0 -0.609375,0 -0.941406,0 l -4.609375,0 z m 0,0 -5.125,8.789062 10.253906,0 z m 5.128906,8.789062 10.253906,0 -5.128906,-8.789062 z m 0,0 -5.128906,8.789063 10.253906,0 z m 5.125,8.789063 7.691406,0 0,-4.394531 -2.5625,-4.394532 z m 5.128906,-8.789063 2.5625,0 0,-1.832031 c 0,-0.914063 -0.0078,-1.75 -0.02344,-2.523437 z m -15.382812,8.789063 -5.125,-8.789063 -5.128907,8.789063 z m 10.253906,-17.578125 7.308594,0 C 46.5,1.832031 45.167969,0.960938 42.023438,0.6875 z m -30.761719,0 L 6.679688,0.636719 C 3.019531,0.84375 1.539062,1.632812 0.945312,4.589844 z m -5.125,8.789062 L 0.621094,7.824219 C 0.578125,8.898438 0.5625,10.132812 0.5625,11.546875 l 0,1.832031 z m 15.378906,26.367188 -4.484375,7.691406 8.972656,0 z m 10.253907,0 -4.484376,7.691406 8.972657,0 z M 2.59375,46.367188 0.992188,43.621094 c 0.292968,1.316406 0.785156,2.179687 1.601562,2.746094 z"
     style="fill:#ffffff;fill-opacity:0.11372549" />
  <path
     style="color:#000000;fill:#f9f9f9;fill-opacity:1"
     inkscape:connector-curvature="0"
     d="m 12.812506,12 c -0.439154,0.047 -0.81486,0.46435 -0.8125,0.90625 l 0,15.09375 c 4.6e-5,0.4715 0.528772,0.9999 1,1 l 9,0 0,4 -7,0 0,3 18,0 0,-3 -7,0 0,-4 9,0 c 0.471228,-10e-5 0.999954,-0.5281 1,-1 l 0,-15.09375 C 35.99996,12.43475 35.564981,12.0001 35.093756,12 l -22.1875,0 z"
     id="path4720" />
  <path
     style="fill:#5ab2fb;fill-opacity:1"
     inkscape:connector-curvature="0"
     d="m 13.812517,13 c -0.439154,0.047 -0.81486,0.46435 -0.8125,0.90625 l 0,3.09375 c 2.209139,0 4,-1.790861 4,-4 l -3.09375,0 -0.09375,0 z"
     id="path4722" />
  <path
     style="fill:#5ab2fb;fill-opacity:1"
     inkscape:connector-curvature="0"
     d="m 35.000006,24 c -2.209139,0 -4,1.790861 -4,4 l 3,0 c 0.471228,-10e-5 0.999954,-0.5281 1,-1 l 0,-3 z"
     id="path4724" />
</svg>
