<?xml version="1.0" encoding="UTF-8" standalone="no"?>
<svg
   xmlns:dc="http://purl.org/dc/elements/1.1/"
   xmlns:cc="http://creativecommons.org/ns#"
   xmlns:rdf="http://www.w3.org/1999/02/22-rdf-syntax-ns#"
   xmlns:svg="http://www.w3.org/2000/svg"
   xmlns="http://www.w3.org/2000/svg"
   xmlns:sodipodi="http://sodipodi.sourceforge.net/DTD/sodipodi-0.dtd"
   xmlns:inkscape="http://www.inkscape.org/namespaces/inkscape"
   width="48"
   height="48"
   viewBox="0 0 48 48"
   id="svg2"
   version="1.1"
   inkscape:version="0.48.4 r9939"
   sodipodi:docname="AdobeUpdate.svg">
  <defs
     id="defs3019" />
  <metadata
     id="metadata35">
    <rdf:RDF>
      <cc:Work
         rdf:about="">
        <dc:format>image/svg+xml</dc:format>
        <dc:type
           rdf:resource="http://purl.org/dc/dcmitype/StillImage" />
        <dc:title></dc:title>
      </cc:Work>
    </rdf:RDF>
  </metadata>
  <sodipodi:namedview
     pagecolor="#ffffff"
     bordercolor="#666666"
     borderopacity="1"
     objecttolerance="10"
     gridtolerance="10"
     guidetolerance="10"
     inkscape:pageopacity="0"
     inkscape:pageshadow="2"
     inkscape:window-width="1024"
     inkscape:window-height="711"
     id="namedview33"
     showgrid="false"
     inkscape:zoom="4.9166667"
     inkscape:cx="6.1841503"
     inkscape:cy="31.728813"
     inkscape:window-x="0"
     inkscape:window-y="0"
     inkscape:window-maximized="1"
     inkscape:current-layer="svg2" />
  <path
     fill="#808080"
     d="M 47.4375 11.546875 L 47.4375 36.453125 C 47.4375 46.703125 47.4375 47.4375 36.453125 47.4375 L 11.550781 47.4375 C 0.5625 47.4375 0.5625 46.703125 0.5625 36.453125 L 0.5625 11.546875 C 0.5625 1.296875 0.5625 0.5625 11.550781 0.5625 L 36.453125 0.5625 C 47.4375 0.5625 47.4375 1.296875 47.4375 11.546875 Z "
     id="path11"
     style="fill:#6a3f92;fill-opacity:1" />
  <path
     inkscape:connector-curvature="0"
     id="path15"
     d="m 38.265625,47.4375 c 2.542969,-0.01172 4.378906,-0.08203 5.710937,-0.441406 l -4.230468,-7.25 -4.484375,7.691406 1.191406,0 c 0.640625,0 1.242187,0 1.8125,0 z m 1.480469,-7.691406 -5.125,-8.789063 -5.128906,8.789063 z m 0,0 7.652344,0 c 0.03125,-0.972656 0.03906,-2.0625 0.03906,-3.296875 l 0,-1.097657 -2.5625,-4.394531 z m 5.128906,-8.789063 -5.128906,-8.789062 -5.125,8.789062 z m 0,0 2.5625,0 0,-4.394531 z m -10.253906,0 -5.128906,-8.789062 -5.125,8.789062 z m -10.253906,0 -5.128907,8.789063 10.253907,0 z m 0,0 -5.128907,-8.789062 -5.125,8.789062 z m -10.253907,0 -5.128906,8.789063 10.253906,0 z m 0,0 -5.128906,-8.789062 -5.125,8.789062 z m -10.253906,0 -3.296875,5.648438 c 0,1.167969 0.011719,2.210937 0.039062,3.140625 l 8.382813,0 z m 0,0 -3.296875,-5.648437 0,5.648437 z m 5.125,8.789063 -4.3125,7.394531 c 1.597656,0.292969 3.808594,0.296875 6.878906,0.296875 l 1.921875,0 z m 0,-17.578125 -5.125,-8.789063 -3.296875,5.648438 0,3.140625 z m 0,0 10.253906,0 -5.125,-8.789063 z m 5.128906,-8.789063 -5.128906,-8.789062 -5.125,8.789062 z m 0,0 10.253907,0 -5.128907,-8.789062 z m 5.125,-8.789062 -2.351562,-4.027344 -5.335938,0 c -0.07813,0 -0.140625,0 -0.214843,0 L 8.984375,4.589844 z m 0,0 10.253907,0 -2.351563,-4.027344 -5.550781,0 z m 10.253907,0 10.253906,0 L 37.394531,0.5625 c -0.3125,0 -0.609375,0 -0.941406,0 l -4.609375,0 z m 0,0 -5.125,8.789062 10.253906,0 z m 5.128906,8.789062 10.253906,0 -5.128906,-8.789062 z m 0,0 -5.128906,8.789063 10.253906,0 z m 5.125,8.789063 7.691406,0 0,-4.394531 -2.5625,-4.394532 z m 5.128906,-8.789063 2.5625,0 0,-1.832031 c 0,-0.914063 -0.0078,-1.75 -0.02344,-2.523437 z m -15.382812,8.789063 -5.125,-8.789063 -5.128907,8.789063 z m 10.253906,-17.578125 7.308594,0 C 46.5,1.832031 45.167969,0.960938 42.023438,0.6875 z m -30.761719,0 L 6.679688,0.636719 C 3.019531,0.84375 1.539062,1.632812 0.945312,4.589844 z m -5.125,8.789062 L 0.621094,7.824219 C 0.578125,8.898438 0.5625,10.132812 0.5625,11.546875 l 0,1.832031 z m 15.378906,26.367188 -4.484375,7.691406 8.972656,0 z m 10.253907,0 -4.484376,7.691406 8.972657,0 z M 2.59375,46.367188 0.992188,43.621094 c 0.292968,1.316406 0.785156,2.179687 1.601562,2.746094 z"
     style="fill:#ffffff;fill-opacity:0.07058824" />
  <path
     style="fill:#f9f9f9;fill-opacity:1"
     inkscape:connector-curvature="0"
     id="path8328"
     d="m 41.622919,22.880996 c -0.37702,-0.5261 -0.79194,-1.0221 -1.20734,-1.5081 -2.24276,-2.626 -4.81987,-4.9671 -7.63934,-6.6656 -1.80127,-1.0843 -3.72925,-1.9609 -5.727041,-2.3809 -1.016231,-0.2144 -2.012142,-0.3243 -3.056778,-0.3264 -1.01581,0 -2.032602,0.1122 -3.048833,0.3264 -1.997725,0.4199 -3.921692,1.2966 -5.722966,2.3809 -2.81968,1.6984 -5.3946772,4.0397 -7.6375133,6.6656 -0.415479,0.486 -0.829267,0.9821 -1.206214,1.5081 -0.502525,0.7033 -0.502525,1.5348 0,2.2382 1.149192,1.6043 2.5153681,3.0319 3.9053133,4.3371 2.993212,2.8114 6.416039,5.1626 10.194858,6.1103 1.168667,0.2921 2.341343,0.4347 3.515496,0.4334 1.188567,0 2.354635,-0.1411 3.523159,-0.4334 3.778889,-0.9477 7.209449,-3.2989 10.202659,-6.1103 1.38995,-1.3051 2.75584,-2.7329 3.90503,-4.3371 0.50246,-0.7032 0.50196,-1.5347 -5.3e-4,-2.2382 z" />
  <path
     sodipodi:type="arc"
     style="fill:#6a3f92;fill-opacity:1;stroke-width:1.25000000000000000;stroke-miterlimit:4;stroke-dasharray:none"
     id="path11013"
     sodipodi:cx="22.779661"
     sodipodi:cy="22.881355"
     sodipodi:rx="2.8474576"
     sodipodi:ry="3.1525424"
     d="m 25.627119,22.881355 a 2.8474576,3.1525424 0 1 1 -5.694915,0 2.8474576,3.1525424 0 1 1 5.694915,0 z"
     transform="matrix(3.1607143,0,0,2.8548387,-48,-41.322579)" />
  <path
     sodipodi:type="arc"
     style="fill:#f9f9f9;fill-opacity:1;stroke-width:1.25000000000000000;stroke-miterlimit:4;stroke-dasharray:none"
     id="path11033"
     sodipodi:cx="22.169491"
     sodipodi:cy="22.372881"
     sodipodi:rx="1.8305085"
     sodipodi:ry="1.8305085"
     d="m 23.999999,22.372881 a 1.8305085,1.8305085 0 1 1 -3.661017,0 1.8305085,1.8305085 0 1 1 3.661017,0 z"
     transform="matrix(2.7314815,0,0,2.7314815,-36.555554,-37.11111)" />
  <path
     style="fill:#6a3f92;fill-opacity:1"
     inkscape:connector-curvature="0"
     id="path8336"
     d="m 30.994448,13.71905 -16.252846,19.2711 c 0.741692,0.478 1.495582,0.9096 2.27461,1.2908 l 16.242186,-19.2766 c -0.72145,-0.5039 -1.56335,-0.9231 -2.26395,-1.2853 z" />
</svg>
