<svg xmlns="http://www.w3.org/2000/svg" xmlns:svg="http://www.w3.org/2000/svg" xmlns:xlink="http://www.w3.org/1999/xlink" id="svg2" width="48" height="48" version="1.1"><metadata id="metadata108"/><defs id="defs4"><linearGradient id="0" x2="0" y1="1050.36" y2="1006.36" gradientUnits="userSpaceOnUse" xlink:href="#1"/><linearGradient id="1"><stop id="stop8" stop-color="#636770"/><stop id="stop10" offset="1" stop-color="#697682"/></linearGradient><radialGradient id="radialGradient3008" cx="148.004" cy="160" r="128" gradientTransform="matrix(0.05167489,0,0,0.05167489,-0.87511101,-1.4947611)" gradientUnits="userSpaceOnUse" xlink:href="#radial0"/><radialGradient id="radial0" cx="148.004" cy="160" r="128" gradientTransform="matrix(0.1831,0,0,0.1831,-3.10029,-5.29688)" gradientUnits="userSpaceOnUse"><stop id="stop7-5" offset="0" stop-color="#bdd5dc" stop-opacity="1"/><stop id="stop9-5" offset="1" stop-color="#455a65" stop-opacity="1"/></radialGradient><radialGradient id="radialGradient3012" cx="148.004" cy="160" r="128" gradientTransform="matrix(0.1831,0,0,0.1831,-3.100787,-5.296397)" gradientUnits="userSpaceOnUse" xlink:href="#radial0"/><linearGradient id="linearGradient3104" x2="0" y1="1050.36" y2="1006.36" gradientUnits="userSpaceOnUse" xlink:href="#1"/><linearGradient id="linearGradient3145" x2="0" y1="1050.36" y2="1006.36" gradientTransform="translate(0,-1004.3622)" gradientUnits="userSpaceOnUse" xlink:href="#1"/></defs><path id="path11" fill="url(#radialGradient3012)" d="m 47.437,11.547358 0,24.906249 c 0,10.25 0,10.984375 -10.984375,10.984375 l -24.902344,0 c -10.9882789,0 -10.9882789,-0.734375 -10.9882789,-10.984375 l 0,-24.906249 c 0,-10.25 0,-10.984375 10.9882789,-10.984375 l 24.902344,0 C 47.437,0.562983 47.437,1.297358 47.437,11.547358 z"/><path id="path15" fill="#fff" fill-opacity=".051" d="m 38.265125,47.437982 c 2.542968,-0.01169 4.378908,-0.08203 5.710936,-0.441407 l -4.230467,-7.25 -4.484374,7.691407 1.191405,0 c 0.640626,0 1.242187,0 1.8125,0 z m 1.480469,-7.691407 -5.124997,-8.789061 -5.128908,8.789061 z m 0,0 7.652345,0 c 0.03118,-0.972655 0.03905,-2.062498 0.03905,-3.296873 l 0,-1.097656 -2.562495,-4.394532 z m 5.128908,-8.789061 -5.128908,-8.789062 -5.124997,8.789062 z m 0,0 2.562498,0 0,-4.394531 z m -10.253905,0 -5.128908,-8.789062 -5.125001,8.789062 z m -10.253909,0 -5.128905,8.789061 10.253906,0 z m 0,0 -5.128905,-8.789062 -5.125,8.789062 z m -10.253905,0 -5.1289046,8.789061 10.2539046,0 z m 0,0 -5.1289046,-8.789062 -5.1250013,8.789062 z m -10.2539059,0 -3.296875,5.648437 c 0,1.16797 0.011728,2.210939 0.039061,3.140624 l 8.3828114,0 z m 0,0 -3.296875,-5.648437 0,5.648437 z m 5.1250013,8.789061 -4.3125012,7.394531 C 6.2690331,47.434067 8.4799705,47.438 11.550281,47.438 l 1.921876,0 z m 0,-17.578123 -5.1250013,-8.789063 -3.296875,5.648438 0,3.140625 z m 0,0 10.2539046,0 -5.125,-8.789063 z M 14.112783,13.379389 8.9838784,4.590327 3.8588771,13.379389 z m 0,0 10.253905,0 -5.128905,-8.789062 z m 5.125,-8.789062 -2.351561,-4.027344 -5.335941,0 c -0.07813,0 -0.140634,0 -0.214831,0 L 8.9838784,4.590327 z m 0,0 10.253906,0 -2.351562,-4.027344 -5.550782,0 z m 10.253906,0 10.253905,0 -2.351562,-4.027344 c -0.31252,0 -0.609375,0 -0.941407,0 l -4.609375,0 z m 0,0 -5.125001,8.789062 10.253909,0 z m 5.128908,8.789062 10.253905,0 -5.128908,-8.789062 z m 0,0 -5.128908,8.789063 10.253905,0 z m 5.124997,8.789063 7.691406,0 0,-4.394531 -2.562498,-4.394532 z m 5.128908,-8.789063 2.562498,0 0,-1.832031 c 0,-0.914063 -0.0078,-1.7499998 -0.02338,-2.5234367 z m -15.382813,8.789063 -5.125001,-8.789063 -5.128905,8.789063 z m 10.253905,-17.578125 7.308595,0 C 46.499502,1.832514 45.16747,0.961421 42.022937,0.687983 z m -30.7617156,0 L 6.6791911,0.637202 C 3.0190332,0.844234 1.538564,1.633295 0.9448142,4.590327 z M 3.8588771,13.379389 0.620596,7.8247022 C 0.577626,8.8989212 0.562,10.133295 0.562,11.547358 l 0,1.832031 z m 15.3789059,26.367186 -4.484374,7.691407 8.972657,0 z m 10.253906,0 -4.484374,7.691407 8.972656,0 z M 2.5932521,46.36767 0.99169,43.621575 c 0.2929677,1.316406 0.7851561,2.17969 1.6015621,2.746095 z"/><rect id="rect32" width="4" height="4" x="7" y="12.998" fill="#efefeb" rx="1"/><rect id="rect36" width="4" height="4" x="13" y="12.998" fill="#efefeb" rx="1"/><rect id="rect40" width="4" height="4" x="19" y="12.998" fill="#efefeb" rx="1"/><rect id="rect44" width="4" height="4" x="25" y="12.998" fill="#efefeb" rx="1"/><rect id="rect48" width="4" height="4" x="31" y="12.998" fill="#efefeb" rx="1"/><rect id="rect52" width="4" height="4" x="37" y="12.998" fill="#efefeb" rx="1"/><rect id="rect56" width="4" height="4" x="7" y="18.998" fill="#efefeb" rx="1"/><rect id="rect60" width="4" height="4" x="13" y="18.998" fill="#efefeb" rx="1"/><rect id="rect64" width="4" height="4" x="19" y="18.998" fill="#efefeb" rx="1"/><rect id="rect68" width="4" height="4" x="25" y="18.998" fill="#efefeb" rx="1"/><rect id="rect72" width="4" height="4" x="31" y="18.998" fill="#efefeb" rx="1"/><rect id="rect76" width="4" height="4" x="37" y="18.998" fill="#efefeb" rx="1"/><rect id="rect80" width="4" height="4" x="7" y="24.998" fill="#efefeb" rx="1"/><rect id="rect84" width="4" height="4" x="13" y="24.998" fill="#efefeb" rx="1"/><rect id="rect88" width="4" height="4" x="19" y="24.998" fill="#efefeb" rx="1"/><rect id="rect92" width="4" height="4" x="25" y="24.998" fill="#efefeb" rx="1"/><rect id="rect96" width="4" height="4" x="31" y="24.998" fill="#efefeb" rx="1"/><rect id="rect100" width="4" height="4" x="37" y="24.998" fill="#efefeb" rx="1"/><rect id="rect104" width="22" height="4" x="13" y="30.998" fill="#efefeb" rx="1"/></svg>