<svg xmlns="http://www.w3.org/2000/svg" xmlns:svg="http://www.w3.org/2000/svg" xmlns:xlink="http://www.w3.org/1999/xlink" id="svg2" width="48" height="48" version="1.1"><metadata id="metadata131"/><defs id="defs4"><clipPath id="clipPath6"><rect id="rect8" width="42" height="42" x="307" y="223" fill="url(#3)" color="#bebebe" rx="9" transform="rotate(90)"/></clipPath><clipPath id="clipPath10"><rect id="rect12" width="240" height="240" x="24" y="36" fill="#986767" color="#bebebe" rx="50"/></clipPath><clipPath id="clipPath14"><rect id="rect16" width="16" height="16" x="432" y="116" fill="#6d6d6d" color="#bebebe" opacity=".2" rx="2"/></clipPath><clipPath id="clipPath18"><path id="path20" d="m 98.03125,23.191212 c -41.492132,1.05238 -74.84375,35.06824 -74.84375,76.812498 0,42.40687 34.405632,76.8125 76.8125,76.8125 42.40687,0 76.8125,-34.40563 76.8125,-76.8125 0,-42.406866 -34.40563,-76.812498 -76.8125,-76.812498 -0.662607,0 -1.310145,-0.0167 -1.96875,0 z M 100,50.659962 c 27.24464,0 49.34375,22.099114 49.34375,49.343748 -1e-5,27.24464 -22.09911,49.34375 -49.34375,49.34375 -27.244636,-1e-5 -49.34375,-22.09911 -49.34375,-49.34375 0,-27.244634 22.099114,-49.343748 49.34375,-49.343748 z"/></clipPath><clipPath id="clipPath22"><path id="path24" d="m 152,204 a 8,8 0 1 1 -16,0 8,8 0 1 1 16,0 z"/></clipPath><clipPath id="clipPath26"><path id="path28" d="m 145,215 c 33.13708,0 60,-26.86292 60,-60 0,-33.13708 -26.86292,-60 -60,-60 -33.13708,0 -60,26.86292 -60,60 0,12.50698 3.8285,24.10633 10.375,33.71875 L 89,211 111.28125,204.625 C 120.89367,211.1715 132.49302,215 145,215 z"/></clipPath><clipPath id="clipPath30"><rect id="rect32" width="16" height="16" x="432" y="116" color="#bebebe" rx="3"/></clipPath><clipPath id="clipPath34"><path id="path36" d="m 144,70 c -49.705627,0 -90,40.29437 -90,90 0,49.70563 40.294373,90 90,90 49.70563,0 90,-40.29437 90,-90 0,-49.70563 -40.29437,-90 -90,-90 z m 0,32.1875 c 32.03251,0 58,25.96748 58,58 0,32.03252 -25.96749,58 -58,58 -32.03251,0 -58,-25.96748 -58,-58 0,-32.03252 25.96749,-58 58,-58 z"/></clipPath><clipPath id="clipPath38"><rect id="rect40" width="22" height="22" x="433" y="77" fill="#6d6d6d" color="#bebebe" opacity=".2" rx="3"/></clipPath><clipPath id="clipPath42"><rect id="rect44" width="30" height="30" x="433" y="29" fill="#6d6d6d" color="#bebebe" opacity=".2" rx="4"/></clipPath><clipPath id="clipPath46"><rect id="rect48" width="90" height="90" x="307" y="31" fill="url(#1)" color="#bebebe" rx="18.75"/></clipPath><clipPath id="clipPath50"><rect id="rect52" width="60" height="60" x="306" y="142" fill="url(#0)" color="#bebebe" rx="12.5" transform="matrix(0 -1 1 0 0 0)"/></clipPath><clipPath id="clipPath54"><rect id="rect56" width="30" height="30" x="433" y="29" color="#bebebe" rx="6"/></clipPath><clipPath id="clipPath58"><rect id="rect60" width="22" height="22" x="433" y="77" color="#bebebe" rx="5"/></clipPath><clipPath id="clipPath62"><rect id="rect64" width="22" height="22" x="433" y="77" color="#bebebe" rx="4"/></clipPath><clipPath id="clipPath66"><rect id="rect68" width="20" height="20" x="434" y="78" color="#bebebe" rx="4"/></clipPath><linearGradient id="linearGradient70" x1="265" x2="264" y1="40" y2="276" gradientTransform="matrix(-1 0 0 -1 289 315)" gradientUnits="userSpaceOnUse" xlink:href="#2"/><linearGradient id="0" x2="0" y1="230" y2="90" gradientTransform="matrix(.25 0 0 .25 299.99999 131.99999)" gradientUnits="userSpaceOnUse" xlink:href="#2"/><linearGradient id="1" x2="0" y1="230" y2="90" gradientTransform="matrix(.375 0 0 .375 298 16)" gradientUnits="userSpaceOnUse" xlink:href="#2"/><linearGradient id="2"><stop id="stop75" stop-color="#151515"/><stop id="stop77" offset="1" stop-color="#222"/></linearGradient><linearGradient id="3" x2="0" y1="280" y2="40" gradientTransform="matrix(.175 0 0 .175 302.79999 215.99997)" gradientUnits="userSpaceOnUse" xlink:href="#2"/><linearGradient id="4"><stop id="stop81" stop-color="#333"/><stop id="stop83" offset="1" stop-color="#4e4e4e"/></linearGradient><linearGradient id="5" x2="0" y1="1050.36" y2="1006.36" gradientUnits="userSpaceOnUse" xlink:href="#4"/><path id="6" d="m -105.21865,18.389288 c 0,2.540356 -1.73759,4.599722 -3.88101,4.599722 -2.14343,0 -3.88102,-2.059366 -3.88102,-4.599722 0,-2.540357 1.73759,-4.599722 3.88102,-4.599722 2.14342,0 3.88101,2.059365 3.88101,4.599722 z" opacity=".9"/><radialGradient id="radialGradient3026" cx="148.004" cy="160" r="128" gradientTransform="matrix(0.1831,0,0,0.1831,-3.10079,-5.2963968)" gradientUnits="userSpaceOnUse" spreadMethod="pad" xlink:href="#linearGradient4460"/><linearGradient id="linearGradient4460"><stop id="stop8-6" offset="0" stop-color="#747474" stop-opacity="1"/><stop id="stop10-2" offset="1" stop-color="#2d2d2d" stop-opacity="1"/></linearGradient><radialGradient id="radialGradient3052" cx="148.004" cy="160" r="128" gradientTransform="matrix(0.1831,0,0,0.1831,-3.10079,-5.296396)" gradientUnits="userSpaceOnUse" spreadMethod="pad" xlink:href="#linearGradient4460"/><linearGradient id="linearGradient3127" x2="0" y1="1050.36" y2="1006.36" gradientUnits="userSpaceOnUse" xlink:href="#4"/><linearGradient id="linearGradient3142" x2="0" y1="1050.36" y2="1006.36" gradientTransform="translate(0,-1004.3622)" gradientUnits="userSpaceOnUse" xlink:href="#4"/></defs><path id="path11" fill="url(#radialGradient3052)" fill-opacity="1" d="m 47.437,11.547358 0,24.906249 c 0,10.25 0,10.984376 -10.984375,10.984376 l -24.902345,0 C 0.562,47.437983 0.562,46.703607 0.562,36.453607 l 0,-24.906249 c 0,-10.25 0,-10.984375 10.98828,-10.984375 l 24.902345,0 C 47.437,0.562983 47.437,1.297358 47.437,11.547358 z"/><path id="path15" fill="#fff" fill-opacity=".051" d="m 38.265125,47.437983 c 2.542968,-0.01169 4.378908,-0.08203 5.710936,-0.441408 l -4.230467,-7.249999 -4.484376,7.691407 1.191407,0 c 0.640626,0 1.242187,0 1.8125,0 z m 1.480469,-7.691407 -5.125001,-8.789062 -5.128906,8.789062 z m 0,0 7.652345,0 c 0.03118,-0.972656 0.03905,-2.062499 0.03905,-3.296874 l 0,-1.097657 -2.562495,-4.394531 z m 5.128908,-8.789062 -5.128908,-8.789062 -5.125001,8.789062 z m 0,0 2.562498,0 0,-4.394531 z m -10.253909,0 -5.128906,-8.789062 -5.125,8.789062 z m -10.253906,0 -5.128907,8.789062 10.253907,0 z m 0,0 -5.128907,-8.789062 -5.125,8.789062 z m -10.253907,0 -5.128906,8.789062 10.253906,0 z m 0,0 -5.128906,-8.789062 -5.125,8.789062 z m -10.253906,0 L 0.562,36.605951 c 0,1.16797 0.01169,2.210939 0.03905,3.140625 l 8.382814,0 z m 0,0 -3.296874,-5.648437 0,5.648437 z m 5.125,8.789062 -4.312498,7.394531 C 6.26903,47.434067 8.479969,47.438 11.55028,47.438 l 1.921875,0 z m 0,-17.578124 -5.125,-8.789063 -3.296874,5.648438 0,3.140625 z m 0,0 10.253906,0 -5.125,-8.789063 z m 5.128906,-8.789063 -5.128906,-8.789062 -5.125,8.789062 z m 0,0 10.253907,0 -5.128907,-8.789062 z m 5.125,-8.789062 -2.351562,-4.027344 -5.335938,0 c -0.07813,0 -0.140627,0 -0.214845,0 L 8.983874,4.590327 z m 0,0 10.253907,0 -2.351563,-4.027344 -5.550781,0 z m 10.253907,0 10.253907,0 -2.351562,-4.027344 c -0.31252,0 -0.609375,0 -0.941407,0 l -4.609376,0 z m 0,0 -5.125,8.789062 10.253906,0 z m 5.128906,8.789062 10.253909,0 -5.128908,-8.789062 z m 0,0 -5.128906,8.789063 10.253907,0 z m 5.125001,8.789063 7.691406,0 0,-4.394531 -2.562498,-4.394532 z m 5.128908,-8.789063 2.562498,0 0,-1.832031 c 0,-0.914063 -0.0078,-1.7499994 -0.02338,-2.5234367 z m -15.382815,8.789063 -5.125,-8.789063 -5.128907,8.789063 z m 10.253907,-17.578125 7.308595,0 C 46.499502,1.832514 45.16747,0.961421 42.022937,0.687983 z m -30.76172,0 L 6.679187,0.637202 C 3.019029,0.844234 1.538561,1.633295 0.944812,4.590327 z m -5.125,8.789062 -3.238281,-5.554687 c -0.04298,1.074219 -0.05857,2.308593 -0.05857,3.722656 l 0,1.832031 z m 15.378906,26.367187 -4.484375,7.691407 8.972656,0 z m 10.253907,0 -4.484376,7.691407 8.972657,0 z M 2.593251,46.36767 0.991687,43.621575 c 0.29296,1.316406 0.785158,2.17969 1.601564,2.746095 z"/><path id="path105" fill="#f9f9f9" fill-opacity="1" fill-rule="evenodd" d="M 14.5625 8 C 13.13793 8 12 9.12505 12 10.53125 L 12 25 L 12 27 C 9 27 9 27.00625 9 29.40625 L 9 36.59375 C 9 38.99375 9 39 12 39 L 36 39 C 39.000002 39 39 38.99375 39 36.59375 L 39 29.40625 C 39 27.00625 39.000002 27 36 27 L 36 25 L 36 13 L 31 8 L 14.5625 8 z M 16 15 L 32 15 L 32 17 L 16 17 L 16 15 z M 16 21 L 32 21 L 32 23 L 16 23 L 16 21 z M 16 27 L 32 27 L 32 29 L 16 29 L 16 27 z M 11 33 L 12 33 L 36 33 L 37 33 L 37 34 L 11 34 L 11 33 z M 12 35 C 12.552283 35 13 35.447716 13 36 C 13 36.552285 12.552283 37 12 37 C 11.447714 37 11 36.552285 11 36 C 11 35.447716 11.447714 35 12 35 z M 16 35 C 16.552283 35 17 35.447716 17 36 C 17 36.552285 16.552283 37 16 37 C 15.447714 37 15 36.552285 15 36 C 15 35.447716 15.447714 35 16 35 z M 20 35 C 20.552283 35 21 35.447716 21 36 C 21 36.552285 20.552283 37 20 37 C 19.447714 37 19 36.552285 19 36 C 19 35.447716 19.447714 35 20 35 z"/></svg>