<svg xmlns="http://www.w3.org/2000/svg" xmlns:svg="http://www.w3.org/2000/svg" xmlns:xlink="http://www.w3.org/1999/xlink" id="svg2" width="48" height="48" version="1.1" viewBox="0 0 13.547 13.547"><metadata id="metadata284"/><defs id="defs4"><clipPath id="clipPath6"><path id="path8" d="m 328,256 15,11 0,-27 -15,0 z"/></clipPath><clipPath id="clipPath10"><rect id="rect12" width="90" height="90" x="307" y="31" fill="url(#9)" color="#bebebe" rx="18.75"/></clipPath><clipPath id="clipPath14"><path id="path16" d="m 328,242.09376 c -7.73199,0 -14,6.26801 -14,14 0,7.73199 6.26801,14 14,14 7.73199,0 14,-6.26801 14,-14 0,-7.73199 -6.26801,-14 -14,-14 z m 0,9.90625 c 2.20914,0 4,1.79086 4,4 0,2.20914 -1.79086,4 -4,4 -2.20914,0 -4,-1.79086 -4,-4 0,-2.20914 1.79086,-4 4,-4 z m 0,1 c -1.65685,0 -3,1.34315 -3,3 0,1.65685 1.34315,3 3,3 1.65685,0 3,-1.34315 3,-3 0,-1.65685 -1.34315,-3 -3,-3 z m 0,1 c 1.10457,0 2,0.89543 2,2 0,1.10457 -0.89543,2 -2,2 -1.10457,0 -2,-0.89543 -2,-2 0,-1.10457 0.89543,-2 2,-2 z"/></clipPath><clipPath id="clipPath18"><rect id="rect20" width="42" height="42" x="307" y="223" fill="url(#2)" color="#bebebe" rx="9" transform="rotate(90)"/></clipPath><clipPath id="clipPath22"><rect id="rect24" width="60" height="60" x="306" y="142" fill="url(#B)" color="#bebebe" rx="12.5" transform="matrix(0 -1 1 0 0 0)"/></clipPath><clipPath id="clipPath26"><rect id="rect28" width="16" height="16" x="432" y="116" fill="#6d6d6d" color="#bebebe" opacity=".2" rx="2"/></clipPath><clipPath id="clipPath30"><rect id="rect32" width="42" height="42" x="307" y="223" fill="url(#A)" color="#bebebe" rx="9" transform="rotate(90)"/></clipPath><clipPath id="clipPath34"><rect id="rect36" width="22" height="22" x="433" y="77" fill="#6d6d6d" color="#bebebe" opacity=".2" rx="3"/></clipPath><clipPath id="clipPath38"><rect id="rect40" width="22" height="22" x="433" y="77" color="#bebebe" rx="5"/></clipPath><clipPath id="clipPath42"><rect id="rect44" width="30" height="30" x="433" y="29" color="#bebebe" rx="6"/></clipPath><clipPath id="clipPath46"><rect id="rect48" width="20" height="20" x="434" y="78" color="#bebebe" rx="4"/></clipPath><clipPath id="clipPath50"><rect id="rect52" width="22" height="22" x="433" y="77" fill="#6d6d6d" color="#bebebe" opacity=".2" rx="3"/></clipPath><clipPath id="clipPath54"><rect id="rect56" width="16" height="16" x="432" y="116" fill="#6d6d6d" color="#bebebe" opacity=".2" rx="2"/></clipPath><clipPath id="clipPath58"><rect id="rect60" width="30" height="30" x="433" y="29" fill="#6d6d6d" color="#bebebe" opacity=".2" rx="4"/></clipPath><clipPath id="clipPath62"><rect id="rect64" width="22" height="22" x="433" y="77" color="#bebebe" rx="4"/></clipPath><clipPath id="clipPath66"><rect id="rect68" width="16" height="16" x="432" y="116" color="#bebebe" rx="3"/></clipPath><clipPath id="clipPath70"><rect id="rect72" width="240" height="240" x="24" y="36" fill="#986767" color="#bebebe" rx="50"/></clipPath><clipPath id="clipPath74"><rect id="rect76" width="60" height="60" x="306" y="142" fill="url(#1)" color="#bebebe" rx="12.5" transform="matrix(0 -1 1 0 0 0)"/></clipPath><clipPath id="clipPath78"><path id="path80" d="m 328,238 c -7.73199,0 -14,6.26801 -14,14 0,7.73199 6.26801,14 14,14 7.73199,0 14,-6.26801 14,-14 0,-7.73199 -6.26801,-14 -14,-14 z m 0,8.75 c 2.89949,0 5.25,2.35051 5.25,5.25 0,2.89949 -2.35051,5.25 -5.25,5.25 -2.89949,0 -5.25,-2.35051 -5.25,-5.25 0,-2.89949 2.35051,-5.25 5.25,-5.25 z m 0,1.75 c -1.933,0 -3.5,1.567 -3.5,3.5 0,1.933 1.567,3.5 3.5,3.5 1.933,0 3.5,-1.567 3.5,-3.5 0,-1.933 -1.567,-3.5 -3.5,-3.5 z m 0,1.75 c 0.96649,0 1.75,0.78351 1.75,1.75 0,0.96649 -0.78351,1.75 -1.75,1.75 -0.96649,0 -1.75,-0.78351 -1.75,-1.75 0,-0.96649 0.78351,-1.75 1.75,-1.75 z"/></clipPath><clipPath id="clipPath82"><path id="path84" d="m 144.00001,75.999997 c -44.1828,0 -80,35.817203 -80,80.000003 0,44.1828 35.8172,80 80,80 44.1828,0 80,-35.8172 80,-80 0,-44.1828 -35.8172,-80.000003 -80,-80.000003 z m 0,56.607143 c 12.62366,0 22.85714,10.23349 22.85714,22.85714 0,12.62366 -10.23348,22.85714 -22.85714,22.85714 -12.62366,0 -22.85714,-10.23348 -22.85714,-22.85714 0,-12.62365 10.23348,-22.85714 22.85714,-22.85714 z m 0,5.71429 c -9.46771,0 -17.14286,7.67514 -17.14286,17.14285 0,9.46772 7.67515,17.14286 17.14286,17.14286 9.46771,0 17.14286,-7.67514 17.14286,-17.14286 0,-9.46771 -7.67515,-17.14285 -17.14286,-17.14285 z m 0,5.71428 c 6.31183,0 11.42857,5.11674 11.42857,11.42857 0,6.31183 -5.11674,11.42857 -11.42857,11.42857 -6.31183,0 -11.42857,-5.11674 -11.42857,-11.42857 0,-6.31183 5.11674,-11.42857 11.42857,-11.42857 z"/></clipPath><clipPath id="clipPath86"><path id="path88" d="m 440,126 c -3.31371,0 -6,2.68629 -6,6 0,3.31371 2.68629,6 6,6 3.31371,0 6,-2.68629 6,-6 0,-3.31371 -2.68629,-6 -6,-6 z m 0,3 c 1.65685,0 3,1.34315 3,3 0,1.65685 -1.34315,3 -3,3 -1.65685,0 -3,-1.34315 -3,-3 0,-1.65685 1.34315,-3 3,-3 z m 0,1 c -1.10457,0 -2,0.89543 -2,2 0,1.10457 0.89543,2 2,2 1.10457,0 2,-0.89543 2,-2 0,-1.10457 -0.89543,-2 -2,-2 z m 0,1 c 0.55228,0 1,0.44772 1,1 0,0.55228 -0.44772,1 -1,1 -0.55228,0 -1,-0.44772 -1,-1 0,-0.55228 0.44772,-1 1,-1 z"/></clipPath><clipPath id="clipPath90"><rect id="rect92" width="20" height="20" x="434" y="78" color="#bebebe" rx="4"/></clipPath><clipPath id="clipPath94"><rect id="rect96" width="240" height="240" x="24" y="36" fill="#986767" color="#bebebe" rx="50"/></clipPath><clipPath id="clipPath98"><path id="path100" d="m 444,88 c -4.41828,0 -8,3.58172 -8,8 0,4.41828 3.58172,8 8,8 4.41828,0 8,-3.58172 8,-8 0,-4.41828 -3.58172,-8 -8,-8 z m 0,5 c 1.65685,0 3,1.34315 3,3 0,1.65685 -1.34315,3 -3,3 -1.65685,0 -3,-1.34315 -3,-3 0,-1.65685 1.34315,-3 3,-3 z m 0,1 c -1.10457,0 -2,0.89543 -2,2 0,1.10457 0.89543,2 2,2 1.10457,0 2,-0.89543 2,-2 0,-1.10457 -0.89543,-2 -2,-2 z m 0,1 c 0.55228,0 1,0.44772 1,1 0,0.55228 -0.44772,1 -1,1 -0.55228,0 -1,-0.44772 -1,-1 0,-0.55228 0.44772,-1 1,-1 z"/></clipPath><clipPath id="clipPath102"><rect id="rect104" width="30" height="30" x="433" y="29" color="#bebebe" rx="6"/></clipPath><clipPath id="clipPath106"><rect id="rect108" width="22" height="22" x="433" y="77" color="#bebebe" rx="4"/></clipPath><clipPath id="clipPath110"><path id="path112" d="m 328,242.09375 c -7.73199,0 -14,6.26801 -14,14 0,7.73199 6.26801,14 14,14 7.73199,0 14,-6.26801 14,-14 0,-7.73199 -6.26801,-14 -14,-14 z M 328,252 c 2.20914,0 4,1.79086 4,4 0,2.20914 -1.79086,4 -4,4 -2.20914,0 -4,-1.79086 -4,-4 0,-2.20914 1.79086,-4 4,-4 z m 0,1 c -1.65685,0 -3,1.34315 -3,3 0,1.65685 1.34315,3 3,3 1.65685,0 3,-1.34315 3,-3 0,-1.65685 -1.34315,-3 -3,-3 z m 0,1 c 1.10457,0 2,0.89543 2,2 0,1.10457 -0.89543,2 -2,2 -1.10457,0 -2,-0.89543 -2,-2 0,-1.10457 0.89543,-2 2,-2 z"/></clipPath><clipPath id="clipPath114"><rect id="rect116" width="16" height="16" x="432" y="116" color="#bebebe" rx="3"/></clipPath><clipPath id="clipPath118"><path id="path120" d="m 328,238 c -7.73199,0 -14,6.26801 -14,14 0,7.73199 6.26801,14 14,14 7.73199,0 14,-6.26801 14,-14 0,-7.73199 -6.26801,-14 -14,-14 z m 0,9.90625 c 2.20914,0 4,1.79086 4,4 0,2.20914 -1.79086,4 -4,4 -2.20914,0 -4,-1.79086 -4,-4 0,-2.20914 1.79086,-4 4,-4 z m 0,1 c -1.65685,0 -3,1.34315 -3,3 0,1.65685 1.34315,3 3,3 1.65685,0 3,-1.34315 3,-3 0,-1.65685 -1.34315,-3 -3,-3 z m 0,1 c 1.10457,0 2,0.89543 2,2 0,1.10457 -0.89543,2 -2,2 -1.10457,0 -2,-0.89543 -2,-2 0,-1.10457 0.89543,-2 2,-2 z"/></clipPath><clipPath id="clipPath122"><rect id="rect124" width="90" height="90" x="307" y="31" fill="url(#3)" color="#bebebe" rx="18.75"/></clipPath><clipPath id="clipPath126"><rect id="rect128" width="22" height="22" x="433" y="77" color="#bebebe" rx="5"/></clipPath><clipPath id="clipPath130"><path id="path132" d="m 451.38843,127.3713 c -3.31371,0 -6,2.68629 -6,6 0,3.31371 2.68629,6 6,6 3.31371,0 6,-2.68629 6,-6 0,-3.31371 -2.68629,-6 -6,-6 z m 0,3 c 1.65685,0 3,1.34315 3,3 0,1.65685 -1.34315,3 -3,3 -1.65685,0 -3,-1.34315 -3,-3 0,-1.65685 1.34315,-3 3,-3 z m 0,1 c -1.10457,0 -2,0.89543 -2,2 0,1.10457 0.89543,2 2,2 1.10457,0 2,-0.89543 2,-2 0,-1.10457 -0.89543,-2 -2,-2 z m 0,1 c 0.55228,0 1,0.44772 1,1 0,0.55228 -0.44772,1 -1,1 -0.55228,0 -1,-0.44772 -1,-1 0,-0.55228 0.44772,-1 1,-1 z"/></clipPath><clipPath id="clipPath134"><path id="path136" d="m 451.38843,133.3713 6.42857,4.71429 0,-11.57143 -6.42857,0 z"/></clipPath><clipPath id="clipPath138"><rect id="rect140" width="16" height="16" x="432" y="116" fill="#6d6d6d" color="#bebebe" opacity=".2" rx="2"/></clipPath><clipPath id="clipPath142"><rect id="rect144" width="30" height="30" x="433" y="29" fill="#6d6d6d" color="#bebebe" opacity=".2" rx="4"/></clipPath><clipPath id="clipPath146"><rect id="rect148" width="16" height="16" x="432" y="116" color="#bebebe" rx="3"/></clipPath><clipPath id="clipPath150"><rect id="rect152" width="240" height="240" x="24" y="36" fill="#986767" color="#bebebe" rx="50"/></clipPath><clipPath id="clipPath154"><rect id="rect156" width="22" height="22" x="433" y="77" color="#bebebe" rx="5"/></clipPath><clipPath id="clipPath158"><rect id="rect160" width="22" height="22" x="433" y="77" color="#bebebe" rx="4"/></clipPath><clipPath id="clipPath162"><rect id="rect164" width="20" height="20" x="434" y="78" color="#bebebe" rx="4"/></clipPath><clipPath id="clipPath166"><rect id="rect168" width="90" height="90" x="307" y="31" fill="url(#7)" color="#bebebe" rx="18.75"/></clipPath><clipPath id="clipPath170"><rect id="rect172" width="30" height="30" x="433" y="29" color="#bebebe" rx="6"/></clipPath><clipPath id="clipPath174"><rect id="rect176" width="22" height="22" x="433" y="77" fill="#6d6d6d" color="#bebebe" opacity=".2" rx="3"/></clipPath><clipPath id="clipPath178"><rect id="rect180" width="60" height="60" x="306" y="142" fill="url(#C)" color="#bebebe" rx="12.5" transform="matrix(0 -1 1 0 0 0)"/></clipPath><clipPath id="clipPath182"><rect id="rect184" width="42" height="42" x="307" y="223" fill="url(#8)" color="#bebebe" rx="9" transform="rotate(90)"/></clipPath><clipPath id="clipPath186"><rect id="rect188" width="30" height="30" x="433" y="29" fill="#6d6d6d" color="#bebebe" opacity=".2" rx="4"/></clipPath><linearGradient id="linearGradient190" x2="0" y1="273" y2="231" gradientTransform="translate(0 4.09376)" gradientUnits="userSpaceOnUse" xlink:href="#6"/><linearGradient id="0"><stop id="stop193" stop-color="#f0f0f0"/><stop id="stop195" offset="1" stop-color="#f8f8f8"/></linearGradient><linearGradient id="1" x2="0" y1="230" y2="90" gradientTransform="matrix(.25 0 0 .25 299.99999 131.99999)" gradientUnits="userSpaceOnUse" xlink:href="#0"/><linearGradient id="linearGradient198" x2="0" y1="140" y2="124" gradientTransform="translate(11.38843 1.3713)" gradientUnits="userSpaceOnUse" xlink:href="#6"/><linearGradient id="linearGradient200" x2="0" y1="273" y2="231" gradientTransform="matrix(5.71429 0 0 5.71429 -1730.2857 -1284)" gradientUnits="userSpaceOnUse" xlink:href="#6"/><linearGradient id="2" x2="0" y1="280" y2="40" gradientTransform="matrix(.175 0 0 .175 302.79999 215.99997)" gradientUnits="userSpaceOnUse" xlink:href="#0"/><linearGradient id="3" x2="0" y1="230" y2="90" gradientTransform="matrix(.375 0 0 .375 298 16)" gradientUnits="userSpaceOnUse" xlink:href="#0"/><linearGradient id="4"><stop id="stop205" stop-color="#ccc"/><stop id="stop207" offset="1" stop-color="#eaeaea"/></linearGradient><linearGradient id="linearGradient209" x2="0" y1="140" y2="124" gradientUnits="userSpaceOnUse" xlink:href="#6"/><linearGradient id="5"><stop id="stop212" stop-color="#eaba31"/><stop id="stop214" offset="1" stop-color="#ff9200"/></linearGradient><linearGradient id="linearGradient216" x2="0" y1="140" y2="124" gradientTransform="translate(11.38843 1.3713)" gradientUnits="userSpaceOnUse" xlink:href="#6"/><linearGradient id="linearGradient218" x2="0" y1="107" y2="85" gradientUnits="userSpaceOnUse" xlink:href="#6"/><linearGradient id="6"><stop id="stop221" stop-color="#818181"/><stop id="stop223" offset="1" stop-color="#c5c5c5"/></linearGradient><linearGradient id="7" x2="0" y1="230" y2="90" gradientTransform="matrix(.375 0 0 .375 298 16)" gradientUnits="userSpaceOnUse" xlink:href="#0"/><linearGradient id="linearGradient226" x2="0" y1="107" y2="85" gradientUnits="userSpaceOnUse" xlink:href="#6"/><linearGradient id="linearGradient228" x2="0" y1="273" y2="231" gradientTransform="matrix(5.71429 0 0 5.71429 -1730.2857 -1284)" gradientUnits="userSpaceOnUse" xlink:href="#6"/><linearGradient id="linearGradient230" x2="0" y1="140" y2="124" gradientUnits="userSpaceOnUse" xlink:href="#6"/><linearGradient id="linearGradient232" x2="0" y1="273" y2="231" gradientTransform="matrix(5.71429 0 0 5.71429 -1730.2857 -1284)" gradientUnits="userSpaceOnUse" xlink:href="#6"/><linearGradient id="8" x2="0" y1="280" y2="40" gradientTransform="matrix(.175 0 0 .175 302.79999 215.99997)" gradientUnits="userSpaceOnUse" xlink:href="#0"/><linearGradient id="linearGradient235" x2="0" y1="107" y2="85" gradientUnits="userSpaceOnUse" xlink:href="#6"/><linearGradient id="linearGradient237" x2="0" y1="140" y2="124" gradientTransform="translate(11.38843 1.3713)" gradientUnits="userSpaceOnUse" xlink:href="#6"/><linearGradient id="linearGradient239" x2="0" y1="273" y2="231" gradientTransform="translate(0 4.09376)" gradientUnits="userSpaceOnUse" xlink:href="#6"/><linearGradient id="linearGradient241" x2="0" y1="273" y2="231" gradientTransform="translate(0 4.09376)" gradientUnits="userSpaceOnUse" xlink:href="#6"/><linearGradient id="linearGradient243" x2="0" y1="140" y2="124" gradientUnits="userSpaceOnUse" xlink:href="#6"/><linearGradient id="9" x2="0" y1="230" y2="90" gradientTransform="matrix(.375 0 0 .375 298 16)" gradientUnits="userSpaceOnUse" xlink:href="#0"/><linearGradient id="A" x2="0" y1="280" y2="40" gradientTransform="matrix(.175 0 0 .175 302.79999 215.99997)" gradientUnits="userSpaceOnUse" xlink:href="#0"/><linearGradient id="B" x2="0" y1="230" y2="90" gradientTransform="matrix(.25 0 0 .25 299.99999 131.99999)" gradientUnits="userSpaceOnUse" xlink:href="#0"/><linearGradient id="C" x2="0" y1="230" y2="90" gradientTransform="matrix(.25 0 0 .25 299.99999 131.99999)" gradientUnits="userSpaceOnUse" xlink:href="#0"/><radialGradient id="radialGradient249" cx="328" cy="255.42" r="7" gradientTransform="matrix(1.22449 0 0 1.22449 49.7555 -179.34296)" gradientUnits="userSpaceOnUse" xlink:href="#5"/><radialGradient id="radialGradient251" cx="328" cy="255.42" r="7" gradientTransform="matrix(2.85714 0 0 2.85714 -609.14349 -473.66662)" gradientUnits="userSpaceOnUse" xlink:href="#5"/><radialGradient id="radialGradient253" cx="328" cy="255.42" r="7" gradientTransform="matrix(2.85714 0 0 2.85714 -609.14349 -473.66662)" gradientUnits="userSpaceOnUse" xlink:href="#5"/><radialGradient id="radialGradient255" cx="328" cy="255.42" r="7" gradientTransform="matrix(1.22449 0 0 1.22449 49.7555 -179.34296)" gradientUnits="userSpaceOnUse" xlink:href="#5"/><radialGradient id="radialGradient257" cx="328" cy="255.42" r="7" gradientTransform="matrix(2.85714 0 0 2.85714 -609.14349 -473.66662)" gradientUnits="userSpaceOnUse" xlink:href="#5"/><radialGradient id="radialGradient259" cx="328" cy="255.42" r="7" gradientTransform="matrix(1.22449 0 0 1.22449 49.7555 -179.34296)" gradientUnits="userSpaceOnUse" xlink:href="#5"/><linearGradient id="D" x2="0" y1="1050.36" y2="1006.36" gradientTransform="matrix(0.28222223,0,0,0.28222223,0,-283.45334)" gradientUnits="userSpaceOnUse" xlink:href="#4"/><radialGradient id="radialGradient3018" cx="148.004" cy="160" r="128" gradientTransform="matrix(0.05167489,0,0,0.05167489,-0.87511191,-1.4947562)" gradientUnits="userSpaceOnUse" xlink:href="#radial0"/><radialGradient id="radial0" cx="148.004" cy="160" r="128" gradientTransform="matrix(0.1831,0,0,0.1831,-3.10029,-5.29688)" gradientUnits="userSpaceOnUse"><stop id="stop7" offset="0" stop-color="#b9cee3"/><stop id="stop9" offset="1" stop-color="#284c70"/></radialGradient><radialGradient id="radialGradient3137" cx="148.004" cy="160" r="128" gradientTransform="matrix(0.05167489,0,0,0.05167489,-0.8751119,-1.4947558)" gradientUnits="userSpaceOnUse" xlink:href="#radial0"/></defs><path id="path11" fill="url(#radialGradient3137)" d="m 13.387776,3.2589263 0,7.0290977 c 0,2.892777 0,3.100034 -3.100035,3.100034 l -7.0279949,0 c -3.10113721,0 -3.10113721,-0.207257 -3.10113721,-3.100034 l 0,-7.0290977 c 0,-2.89277782 0,-3.10003477 3.10113721,-3.10003477 l 7.0279949,0 c 3.100035,0 3.100035,0.20725695 3.100035,3.10003477 z"/><path id="path15" fill="#fff" fill-opacity=".051" d="m 10.799269,13.388058 c 0.717682,-0.0033 1.235825,-0.02315 1.611753,-0.124574 l -1.193932,-2.046112 -1.2655902,2.170686 0.3362412,0 c 0.180799,0 0.350573,0 0.511528,0 z M 11.21709,11.217372 9.7707012,8.7369038 8.3232099,11.217372 z m 0,0 2.159662,0 c 0.0088,-0.274505 0.01102,-0.582082 0.01102,-0.93045 l 0,-0.3097839 -0.723193,-1.2402343 z M 12.664581,8.7369038 11.21709,6.2564351 9.7707012,8.7369038 z m 0,0 0.723195,0 0,-1.2402343 z m -2.8938798,0 L 8.3232099,6.2564351 6.876821,8.7369038 z m -2.8938802,0 -1.4474916,2.4804682 2.8938805,0 z m 0,0 L 5.4293294,6.2564351 3.9829405,8.7369038 z m -2.8938805,0 -1.4474913,2.4804682 2.8938802,0 z m 0,0 L 2.5354492,6.2564351 1.0890603,8.7369038 z m -2.8938802,0 -0.93045141,1.5941152 c 0,0.329627 0.003307,0.623975 0.0110242,0.886353 l 2.36581611,0 z m 0,0 -0.93045141,-1.5941145 0,1.5941145 z m 1.4463889,2.4804682 -1.2170833,2.086901 c 0.450894,0.08268 1.0748699,0.08378 1.9413802,0.08378 l 0.5423958,0 z m 0,-4.9609369 -1.4463889,-2.4804689 -0.93045141,1.5941147 0,0.8863542 z m 0,0 2.8938802,0 L 3.9829405,3.7759662 z M 3.9829405,3.7759662 2.5354492,1.2954975 1.0890603,3.7759662 z m 0,0 2.8938805,0 -1.4474916,-2.4804687 z m 1.4463889,-2.4804687 -0.663663,-1.13660596 -1.5070227,0 c -0.020946,0 -0.038585,0 -0.059531,0 L 2.5354492,1.2954975 z m 0,0 2.8938805,0 -0.6636633,-1.13660596 -1.5665538,0 z m 2.8938805,0 2.8938801,0 -0.663663,-1.13660596 c -0.08819,0 -0.171979,0 -0.266788,0 l -1.299766,0 z m 0,0 -1.4463889,2.4804687 2.8938802,0 z m 1.4474913,2.4804687 2.8938798,0 -1.447491,-2.4804687 z m 0,0 -1.4474913,2.4804689 2.8938801,0 z m 1.4463888,2.4804689 2.170686,0 0,-1.2402343 -0.723195,-1.2402346 z m 1.447491,-2.4804689 0.723195,0 0,-0.5170399 c 0,-0.2579689 -0.0022,-0.4938889 -0.0066,-0.71217 z M 8.3232099,6.2564351 6.876821,3.7759662 5.4293294,6.2564351 z m 2.8938801,-4.9609376 2.062648,0 C 13.123193,0.5171814 12.747264,0.2713396 11.859807,0.19416931 z m -8.6816408,0 L 1.8850153,0.17983779 C 0.85203768,0.23826649 0.4342164,0.46095737 0.26664695,1.2954975 z M 1.0890603,3.7759662 0.17514543,2.20831 c -0.0121268,0.3031685 -0.0165365,0.6515363 -0.0165365,1.0506163 l 0,0.5170399 z m 4.3402691,7.4414058 -1.2655903,2.170686 2.532283,0 z m 2.8938805,0 -1.2655906,2.170686 2.5322833,0 z M 0.73187279,13.085992 0.2798764,12.310983 c 0.0826821,0.37152 0.22158847,0.615157 0.45199639,0.775009 z"/><path id="path278" fill="#f9f9f9" fill-opacity="1" d="m 3.1406162,10.414025 c -0.0204,-0.02087 -0.03667,-1.0397414 -0.03616,-2.2641644 10e-4,-2.4943917 0.02367,-2.7138091 0.349795,-3.3918023 0.479415,-0.9966801 1.59176,-1.6771365 2.702152,-1.6529916 0.164162,0.00357 0.3684266,0.022084 0.4539206,0.041141 0.153605,0.034241 0.150473,0.038545 -0.2645866,0.3636258 -1.217096,0.9532458 -1.869141,2.6068786 -1.334674,3.3848297 0.08794,0.128004 0.263289,0.307077 0.389665,0.39794 0.193804,0.139345 0.290809,0.16836 0.61966,0.18535 0.33761,0.01744 0.427097,8.51e-4 0.6673946,-0.123719 0.83425,-0.632748 1.004403,-1.9800052 2.106942,-2.00658 0.190512,0 0.204801,0.01201 0.244726,0.2057085 0.07193,0.3489781 0.04054,1.1161595 -0.06004,1.4673875 -0.37807,1.320189 -1.550783,2.216748 -2.9047086,2.220697 -0.179607,5.24e-4 -0.515251,-0.04842 -0.745876,-0.108759 -0.230625,-0.06034 -0.438866,-0.109711 -0.46276,-0.109711 -0.02389,0 -0.0502,0.314734 -0.05845,0.699409 l -0.01501,0.6994078 -0.807452,0.01509 c -0.444098,0.0083 -0.824142,-0.002 -0.844541,-0.02285 z m 2.546384,-3.4032464 c 5.8768408,2.182727 2.9384206,1.091364 0,0 z"/><path id="path280" fill="#f9f9f9" fill-opacity="1" d="M 8.3316418,10.414891 C 7.7528208,10.298285 7.5910368,10.251794 7.3057478,10.120078 6.8759568,9.9216482 6.5454338,9.6924432 6.6464258,9.6628652 7.4904508,9.4156736 7.8088368,9.2658186 8.2528408,8.9067786 l 0.290983,-0.235303 0.639231,0.01566 c 0.351577,0.0086 0.691405,0.03596 0.755174,0.06076 0.1790042,0.06963 0.4486992,0.416255 0.4871952,0.62618 0.07341,0.4002926 -0.124782,0.8057854 -0.4728342,0.9674174 -0.185904,0.08633 -0.342774,0.104387 -0.870244,0.100163 -0.353904,-0.0029 -0.69172,-0.01488 -0.750704,-0.02676 z M 5.6697832,6.9298266 c -0.242987,-0.144142 -0.421388,-0.4593411 -0.421388,-0.744506 0,-0.258419 0.1347,-0.6782926 0.3744,-1.1670458 0.252596,-0.5150471 0.9681296,-1.2258043 1.5023586,-1.4923293 0.651235,-0.3248993 0.960118,-0.3822534 1.951652,-0.3623871 0.762801,0.015284 0.88059,0.030094 1.0101672,0.127012 0.176374,0.1319209 0.377376,0.5258908 0.353274,0.6924299 -0.02738,0.1892154 -0.360334,0.2827939 -0.8567372,0.2407932 -0.481609,-0.04075 -0.551461,0.011163 -0.325738,0.2420802 0.11225,0.1148326 0.229165,0.1691957 0.4191,0.1948736 0.144881,0.019587 0.299615,0.041295 0.3438532,0.04824 0.0549,0.00861 0.03788,0.037698 -0.05362,0.091603 C 9.875025,4.8548393 9.589619,4.8886063 9.055537,4.9084384 8.365265,4.9340714 8.24493,4.9532184 7.983103,5.079087 7.667908,5.2306105 7.277041,5.5939221 7.14217,5.8607337 7.09684,5.9504117 7.013762,6.1605271 6.957555,6.3276561 6.793037,6.816836 6.514568,7.049206 6.0956014,7.046917 5.9603574,7.046177 5.7843254,6.997767 5.6697844,6.929826 z M 9.6882708,3.8555827 c 0.158919,-0.1625767 0.0046,-0.5375846 -0.221257,-0.5375846 -0.254372,0 -0.397225,0.3358794 -0.219973,0.5172097 0.09972,0.1020126 0.350125,0.1135759 0.44123,0.020374 z"/></svg>