<svg xmlns="http://www.w3.org/2000/svg" xmlns:svg="http://www.w3.org/2000/svg" xmlns:xlink="http://www.w3.org/1999/xlink" id="svg2" width="48" height="48" version="1.1" viewBox="0 0 13.547 13.547"><metadata id="metadata26"/><defs id="defs4"><linearGradient id="linearGradient3757"><stop id="stop7" offset="0" stop-color="#4b4b4b"/><stop id="stop9" offset="1" stop-color="#2d2d2d"/></linearGradient><linearGradient id="linearGradient3004" x2="0" y1="6.773" y2="12.7" gradientTransform="matrix(1.00003 0 0 1.00003 -.00036 -.00036)" gradientUnits="userSpaceOnUse" xlink:href="#linearGradient3757"/><linearGradient id="linearGradient3092" x2="0" y1="1050.36" y2="1006.36" gradientTransform="matrix(0.28222223,0,0,0.28222223,-13.544847,-296.99977)" gradientUnits="userSpaceOnUse" xlink:href="#linearGradient3757"/><linearGradient id="linearGradient4460"><stop id="stop7-7" offset="0" stop-color="#cecece" stop-opacity="1"/><stop id="stop9-0" offset="1" stop-color="#e9e9e9" stop-opacity="1"/></linearGradient><radialGradient id="radialGradient3039" cx="148.004" cy="160" r="128" gradientTransform="matrix(0.05167489,0,0,0.05167489,-0.87511191,-1.4947613)" gradientUnits="userSpaceOnUse" xlink:href="#radial0"/><radialGradient id="radial0" cx="148.004" cy="160" r="128" gradientTransform="matrix(0.1831,0,0,0.1831,-3.10029,-5.29688)" gradientUnits="userSpaceOnUse"><stop id="stop7-6" offset="0" stop-color="#fbafc8"/><stop id="stop9-5" offset="1" stop-color="#b90f42"/></radialGradient><radialGradient id="radialGradient3013" cx="148.004" cy="160" r="128" gradientTransform="matrix(0.05167489,0,0,0.05167489,-0.87567635,-1.4947614)" gradientUnits="userSpaceOnUse" xlink:href="#radial0"/></defs><path id="path11" fill="url(#radialGradient3013)" d="m 13.387211,3.2589208 0,7.0290972 c 0,2.892778 0,3.100035 -3.100035,3.100035 l -7.0279944,0 c -3.10113715,0 -3.10113715,-0.207257 -3.10113715,-3.100035 l 0,-7.0290972 c 0,-2.89277779 0,-3.10003479 3.10113715,-3.10003479 l 7.0279944,0 c 3.100035,0 3.100035,0.207257 3.100035,3.10003479 z"/><path id="path15" fill="#fff" fill-opacity=".051" d="m 10.798704,13.388053 c 0.717682,-0.0033 1.235825,-0.02315 1.611753,-0.124575 l -1.193932,-2.046111 -1.2655898,2.170686 0.3362408,0 c 0.180799,0 0.350573,0 0.511528,0 z M 11.216525,11.217367 9.7701362,8.7368983 8.3226452,11.217367 z m 0,0 2.159662,0 c 0.0088,-0.274505 0.01102,-0.582083 0.01102,-0.930451 l 0,-0.3097834 -0.723193,-1.2402343 z M 12.664017,8.7368983 11.216525,6.2564296 9.7701362,8.7368983 z m 0,0 0.723194,0 0,-1.2402343 z m -2.8938808,0 -1.447491,-2.4804687 -1.4463887,2.4804687 z m -2.8938797,0 -1.4474916,2.4804687 2.8938803,0 z m 0,0 L 5.4287649,6.2564296 3.982376,8.7368983 z m -2.8938805,0 -1.4474913,2.4804687 2.8938802,0 z m 0,0 L 2.5348847,6.2564296 1.0884958,8.7368983 z m -2.8938802,0 -0.93045135,1.5941147 c 0,0.329627 0.00331,0.623976 0.011024,0.886354 l 2.36581615,0 z m 0,0 -0.93045135,-1.5941145 0,1.5941145 z m 1.4463889,2.4804687 -1.2170833,2.086901 c 0.450894,0.08268 1.0748699,0.08379 1.9413802,0.08379 l 0.5423958,0 z m 0,-4.9609374 -1.4463889,-2.4804689 -0.93045135,1.5941147 0,0.8863542 z m 0,0 2.8938802,0 L 3.982376,3.7759607 z M 3.982376,3.7759607 2.5348847,1.295492 1.0884958,3.7759607 z m 0,0 2.8938805,0 L 5.4287649,1.295492 z M 5.4287649,1.295492 4.7651019,0.15888601 l -1.5059203,0 c -0.02205,0 -0.039688,0 -0.060634,0 L 2.5348847,1.295492 z m 0,0 2.8938803,0 -0.663663,-1.13660599 -1.5665539,0 z m 2.8938803,0 2.8938798,0 -0.663663,-1.13660599 c -0.0882,0 -0.171979,0 -0.265686,0 l -1.3008678,0 z m 0,0 -1.4463887,2.4804687 2.8938797,0 z m 1.447491,2.4804687 2.8938808,0 -1.447492,-2.4804687 z m 0,0 -1.447491,2.4804689 2.8938798,0 z m 1.4463888,2.4804689 2.170686,0 0,-1.2402343 -0.723194,-1.2402346 z m 1.447492,-2.4804689 0.723194,0 0,-0.5170399 c 0,-0.2579689 -0.0022,-0.4938889 -0.0066,-0.71217 z M 8.3226452,6.2564296 6.8762565,3.7759607 5.4287649,6.2564296 z m 2.8938798,-4.9609376 2.062648,0 C 13.122628,0.5171759 12.746699,0.27133411 11.859242,0.19416381 z m -8.6816403,0 L 1.8844508,0.17983231 C 0.85147315,0.23826131 0.43365195,0.46095189 0.26608245,1.295492 z M 1.0884958,3.7759607 0.17458095,2.2083045 c -0.012127,0.3031685 -0.016536,0.6515363 -0.016536,1.0506163 l 0,0.5170399 z m 4.3402691,7.4414063 -1.2655903,2.170686 2.532283,0 z m 2.8938803,0 -1.2655904,2.170686 2.5322834,0 z m -7.59133685,1.86862 -0.4519964,-0.775009 c 0.082682,0.371519 0.2215885,0.615157 0.4519964,0.775009 z"/><path id="path3771" fill="none" stroke="#f9f9f9" stroke-dasharray="none" stroke-miterlimit="4" stroke-opacity="1" stroke-width="1.22" d="m -10.106747,21.514908 a 6.4520755,9.520195 0 1 1 -12.904151,0 6.4520755,9.520195 0 1 1 12.904151,0 z" transform="matrix(0.24057863,0,0,0.22233536,9.6281435,1.1431416)"/><rect id="rect3773" width=".564" height="1.976" x="5.362" y="7.902" fill="#f9f9f9" fill-opacity="1" stroke="none"/><rect id="rect3777" width=".564" height="1.693" x="-9.313" y="4.798" fill="#f9f9f9" fill-opacity="1" stroke="none" transform="matrix(0,-1,1,0,0,0)"/><path id="path3779" fill="#f9f9f9" fill-opacity="1" stroke="none" d="m 8.4666669,3.668889 1.1288889,0 -0.2822222,5.0799996 -0.5644445,0 z"/><rect id="rect3781" width=".564" height=".564" x="8.755" y="9.313" fill="#f9f9f9" fill-opacity="1" stroke="none"/></svg>