<svg xmlns="http://www.w3.org/2000/svg" xmlns:svg="http://www.w3.org/2000/svg" xmlns:xlink="http://www.w3.org/1999/xlink" id="svg2" width="48" height="48" version="1.1" viewBox="0 0 13.547 13.547"><metadata id="metadata34"/><defs id="defs4"><linearGradient id="0"><stop id="stop7" stop-color="#4e413b"/><stop id="stop9" offset="1" stop-color="#6d5e56"/></linearGradient><linearGradient id="1" x2="0" y1="1050.36" y2="1006.36" gradientTransform="matrix(0.28222223,0,0,0.28222223,0,-283.45334)" gradientUnits="userSpaceOnUse" xlink:href="#0"/><radialGradient id="radial0" cx="148.004" cy="160" r="128" gradientTransform="matrix(0.1831,0,0,0.1831,-3.10029,-5.29688)" gradientUnits="userSpaceOnUse"><stop id="stop22" offset="0" stop-color="#f8ddc8"/><stop id="stop24" offset="1" stop-color="#e87910"/></radialGradient><mask id="mask0"><g id="g17" filter="url(#alpha)"><use id="use19" width="744.094" height="1052.362" x="0" y="0" xlink:href="#image9"/></g></mask><filter id="alpha" width="1" height="1" x="0" y="0" color-interpolation-filters="sRGB" filterUnits="objectBoundingBox"><feColorMatrix id="feColorMatrix10" in="SourceGraphic" type="matrix" values="0 0 0 0 1 0 0 0 0 1 0 0 0 0 1 0 0 0 1 0"/></filter><clipPath id="clip1"><rect id="rect7" width="48" height="48" x="0" y="0"/></clipPath><radialGradient id="radialGradient3526" cx="148.004" cy="160" r="128" gradientTransform="matrix(0.05167489,0,0,0.05167489,-0.87511181,-1.4947563)" gradientUnits="userSpaceOnUse" xlink:href="#radial0"/></defs><path id="path26" fill="url(#radialGradient3526)" d="m 13.387776,3.2589258 0,7.0290972 c 0,2.892778 0,3.100035 -3.100035,3.100035 l -7.0279951,0 c -3.10113701,0 -3.10113701,-0.207257 -3.10113701,-3.100035 l 0,-7.0290972 c 0,-2.89277789 0,-3.10003479 3.10113701,-3.10003479 l 7.0279951,0 c 3.100035,0 3.100035,0.2072569 3.100035,3.10003479 z"/><use id="use28" width="744.094" height="1052.362" x="0" y="0" mask="url(#mask0)" transform="matrix(0.28222223,0,0,0.28222223,-1.4110721e-4,1.4100721e-4)" xlink:href="#surface11"/><path id="path28" fill="#f9f9f9" fill-opacity="1" d="M 23.84375 11 C 20.866553 15.063536 10.753985 26.532965 15.0625 33.15625 C 18.396416 38.281374 29.704517 38.3078 33 33.15625 C 37.286421 26.455623 26.378057 15.063536 23.84375 11 z M 22.8125 19.40625 C 22.973696 19.397746 23.091664 19.400545 23.25 19.40625 C 23.506631 19.41475 23.785203 19.41823 24.03125 19.46875 C 27.968038 20.281451 28.75 23.53125 28.75 23.53125 C 28.75 23.53125 24.830822 20.280472 22.46875 23.53125 C 20.106676 26.782113 24.819318 31.656104 27.96875 32.46875 C 29.368498 32.829972 30.441112 33.675069 31.21875 34.5 C 26.805968 36.701903 19.686343 35.91828 17.21875 32.125 C 14.983541 28.26425 16.974197 19.781319 22.8125 19.40625 z" transform="scale(0.28222223,0.28222223)"/></svg>