<?xml version="1.0" encoding="UTF-8" standalone="no"?>
<svg
   xmlns:dc="http://purl.org/dc/elements/1.1/"
   xmlns:cc="http://creativecommons.org/ns#"
   xmlns:rdf="http://www.w3.org/1999/02/22-rdf-syntax-ns#"
   xmlns:svg="http://www.w3.org/2000/svg"
   xmlns="http://www.w3.org/2000/svg"
   xmlns:xlink="http://www.w3.org/1999/xlink"
   xmlns:sodipodi="http://sodipodi.sourceforge.net/DTD/sodipodi-0.dtd"
   xmlns:inkscape="http://www.inkscape.org/namespaces/inkscape"
   width="48"
   height="48"
   viewBox="0 0 48 48"
   id="svg2"
   version="1.1"
   inkscape:version="0.48.4 r9939"
   sodipodi:docname="assistant.svg">
  <defs
     id="defs3019" />
  <metadata
     id="metadata35">
    <rdf:RDF>
      <cc:Work
         rdf:about="">
        <dc:format>image/svg+xml</dc:format>
        <dc:type
           rdf:resource="http://purl.org/dc/dcmitype/StillImage" />
        <dc:title></dc:title>
      </cc:Work>
    </rdf:RDF>
  </metadata>
  <sodipodi:namedview
     pagecolor="#ffffff"
     bordercolor="#666666"
     borderopacity="1"
     objecttolerance="10"
     gridtolerance="10"
     guidetolerance="10"
     inkscape:pageopacity="0"
     inkscape:pageshadow="2"
     inkscape:window-width="1024"
     inkscape:window-height="692"
     id="namedview33"
     showgrid="false"
     inkscape:zoom="8"
     inkscape:cx="16.666946"
     inkscape:cy="22.715516"
     inkscape:window-x="0"
     inkscape:window-y="24"
     inkscape:window-maximized="1"
     inkscape:current-layer="svg2" />
  <path
     fill="#808080"
     d="M 47.4375 11.546875 L 47.4375 36.453125 C 47.4375 46.703125 47.4375 47.4375 36.453125 47.4375 L 11.550781 47.4375 C 0.5625 47.4375 0.5625 46.703125 0.5625 36.453125 L 0.5625 11.546875 C 0.5625 1.296875 0.5625 0.5625 11.550781 0.5625 L 36.453125 0.5625 C 47.4375 0.5625 47.4375 1.296875 47.4375 11.546875 Z "
     id="path11"
     style="fill:#3c8610;fill-opacity:1" />
  <path
     inkscape:connector-curvature="0"
     id="path15"
     d="m 38.265625,47.4375 c 2.542969,-0.01172 4.378906,-0.08203 5.710937,-0.441406 l -4.230468,-7.25 -4.484375,7.691406 1.191406,0 c 0.640625,0 1.242187,0 1.8125,0 z m 1.480469,-7.691406 -5.125,-8.789063 -5.128906,8.789063 z m 0,0 7.652344,0 c 0.03125,-0.972656 0.03906,-2.0625 0.03906,-3.296875 l 0,-1.097657 -2.5625,-4.394531 z m 5.128906,-8.789063 -5.128906,-8.789062 -5.125,8.789062 z m 0,0 2.5625,0 0,-4.394531 z m -10.253906,0 -5.128906,-8.789062 -5.125,8.789062 z m -10.253906,0 -5.128907,8.789063 10.253907,0 z m 0,0 -5.128907,-8.789062 -5.125,8.789062 z m -10.253907,0 -5.128906,8.789063 10.253906,0 z m 0,0 -5.128906,-8.789062 -5.125,8.789062 z m -10.253906,0 -3.296875,5.648438 c 0,1.167969 0.011719,2.210937 0.039062,3.140625 l 8.382813,0 z m 0,0 -3.296875,-5.648437 0,5.648437 z m 5.125,8.789063 -4.3125,7.394531 c 1.597656,0.292969 3.808594,0.296875 6.878906,0.296875 l 1.921875,0 z m 0,-17.578125 -5.125,-8.789063 -3.296875,5.648438 0,3.140625 z m 0,0 10.253906,0 -5.125,-8.789063 z m 5.128906,-8.789063 -5.128906,-8.789062 -5.125,8.789062 z m 0,0 10.253907,0 -5.128907,-8.789062 z m 5.125,-8.789062 -2.351562,-4.027344 -5.335938,0 c -0.07813,0 -0.140625,0 -0.214843,0 L 8.984375,4.589844 z m 0,0 10.253907,0 -2.351563,-4.027344 -5.550781,0 z m 10.253907,0 10.253906,0 L 37.394531,0.5625 c -0.3125,0 -0.609375,0 -0.941406,0 l -4.609375,0 z m 0,0 -5.125,8.789062 10.253906,0 z m 5.128906,8.789062 10.253906,0 -5.128906,-8.789062 z m 0,0 -5.128906,8.789063 10.253906,0 z m 5.125,8.789063 7.691406,0 0,-4.394531 -2.5625,-4.394532 z m 5.128906,-8.789063 2.5625,0 0,-1.832031 c 0,-0.914063 -0.0078,-1.75 -0.02344,-2.523437 z m -15.382812,8.789063 -5.125,-8.789063 -5.128907,8.789063 z m 10.253906,-17.578125 7.308594,0 C 46.5,1.832031 45.167969,0.960938 42.023438,0.6875 z m -30.761719,0 L 6.679688,0.636719 C 3.019531,0.84375 1.539062,1.632812 0.945312,4.589844 z m -5.125,8.789062 L 0.621094,7.824219 C 0.578125,8.898438 0.5625,10.132812 0.5625,11.546875 l 0,1.832031 z m 15.378906,26.367188 -4.484375,7.691406 8.972656,0 z m 10.253907,0 -4.484376,7.691406 8.972657,0 z M 2.59375,46.367188 0.992188,43.621094 c 0.292968,1.316406 0.785156,2.179687 1.601562,2.746094 z"
     style="fill:#ffffff;fill-opacity:0.04705882" />
  <g
     style="fill:#f9f9f9;fill-opacity:1"
     transform="matrix(3.543307,0,0,3.543307,4.76e-5,-4e-7)"
     id="g25">
    <use
       height="1052.3622"
       width="744.09448"
       y="0"
       x="0"
       transform="matrix(0.14111,0,0,0.19349,3.66889,3.10559)"
       xlink:href="#2"
       id="use27"
       style="fill:#f9f9f9;fill-opacity:1" />
    <use
       height="1052.3622"
       width="744.09448"
       y="0"
       x="0"
       transform="matrix(0.21167,0,0,0.29024,1.27,-0.98607)"
       xlink:href="#2"
       id="use29"
       style="fill:#f9f9f9;fill-opacity:1" />
    <use
       height="1052.3622"
       width="744.09448"
       y="0"
       x="0"
       transform="matrix(0.28222,0,0,0.38698,-0.28222,-5.35994)"
       xlink:href="#2"
       id="use31"
       style="fill:#f9f9f9;fill-opacity:1" />
    <use
       height="1052.3622"
       width="744.09448"
       y="0"
       x="0"
       transform="matrix(0.42333,0,0,0.58047,-4.23333,-14.38991)"
       xlink:href="#2"
       id="use33"
       style="fill:#f9f9f9;fill-opacity:1" />
    <use
       height="1052.3622"
       width="744.09448"
       y="0"
       x="0"
       transform="matrix(0.35278,0,0,0.48373,-2.96333,-9.73381)"
       xlink:href="#2"
       id="use35"
       style="fill:#f9f9f9;fill-opacity:1" />
  </g>
  <g
     style="line-height:125%;letter-spacing:0;word-spacing:0;fill:#f9f9f9;fill-opacity:1"
     transform="matrix(3.1001102,0,0,2.9275865,0.35034496,-826.00995)"
     id="g3012">
    <path
       inkscape:connector-curvature="0"
       d="m 8.4170406,291.90413 c 0,-0.57731 0,-2.42473 0,-2.42473 l -0.4621904,0 0,-0.80824 c 0.6932878,0 0.4621904,0 0.8088321,-1.38556 l 0.9243838,0 0,1.38556 0.9243809,0 0,0.80824 -0.9243809,0 0,2.07834 c -4e-6,0.21499 0.04468,0.37706 0.134054,0.48621 0.08937,0.10915 0.2068679,0.16372 0.3525089,0.16372 0.185231,0.018 0.437818,-0.0726 0.437818,-0.0726 l 0,0.80824 c -0.02317,0.0165 -1.1387266,0.35644 -1.733216,0 -0.5777391,-0.34639 -0.4621904,-1.03917 -0.4621904,-1.03917 z"
       id="path3014"
       style="fill:#f9f9f9;fill-opacity:1" />
    <path
       inkscape:connector-curvature="0"
       d="m 5.1925313,286.24643 c -0.7809682,1e-5 -1.3642752,0.29611 -1.7476595,0.88762 -0.3833851,0.58819 -0.5741285,1.43817 -0.5741285,2.55102 0,1.13626 0.1907478,2.00306 0.5741285,2.59792 0.2681538,0.41607 0.6266226,0.68582 1.0754795,0.81053 0,0 0.091195,-0.004 0.098614,0.0925 0.1544801,1.2558 0.9392109,1.25826 1.8337608,1.25826 0,0 0.1155487,0 0.1155487,-0.11546 l 0,-0.69279 c 0,-0.11545 -0.1155487,-0.11545 -0.1155487,-0.11545 -0.4469412,0 -0.562771,0.0294 -0.682451,-0.41856 0.1513798,-0.0375 0.2919554,-0.0885 0.4224722,-0.15516 0.2946314,-0.15373 0.5376981,-0.37703 0.7293956,-0.67112 0.1916876,-0.29744 0.3337777,-0.66246 0.4260826,-1.0969 0.095837,-0.43445 0.1444301,-0.93236 0.1444301,-1.49381 0,-1.12622 -0.1944786,-1.98034 -0.5849557,-2.56184 -0.3904912,-0.58483 -0.9625979,-0.87679 -1.7151683,-0.8768 z m -0.00725,0.56288 c 0.1637045,1e-5 0.2890539,0.0576 0.3935863,0.1768 0.061646,0.0678 0.1158661,0.1569 0.1660994,0.26341 0.028387,0.0784 0.056686,0.16168 0.079442,0.25618 0.061407,0.25508 0.1049833,0.56439 0.1299916,0.93092 0.024957,0.36594 0.036105,0.7829 0.036105,1.24845 -5.3e-6,0.4689 -0.011157,0.89032 -0.036105,1.26288 -0.025001,0.36984 -0.068656,0.6838 -0.1299916,0.94536 -0.023074,0.0971 -0.050153,0.18552 -0.079442,0.267 -0.00486,0.0105 -0.00949,0.0223 -0.014446,0.0324 -0.045945,0.0945 -0.096265,0.17412 -0.1516556,0.23814 -0.1048869,0.12572 -0.2306094,0.18402 -0.3935863,0.18402 -0.1629813,0 -0.2887038,-0.0583 -0.393581,-0.18402 -0.1025751,-0.12766 -0.1869535,-0.31414 -0.2491517,-0.56288 -0.062406,-0.25286 -0.1047534,-0.56208 -0.1299916,-0.92731 -0.025293,-0.36931 -0.039721,-0.78884 -0.039721,-1.25567 -4.4e-6,-0.46347 0.014428,-0.87504 0.039721,-1.23761 0.025231,-0.36186 0.067666,-0.66691 0.1299916,-0.91289 0.062141,-0.24524 0.1473042,-0.42786 0.2491517,-0.54845 0.1045271,-0.11916 0.2298766,-0.1768 0.393581,-0.1768 z"
       id="path3016"
       style="fill:#f9f9f9;fill-opacity:1" />
  </g>
  <path
     inkscape:connector-curvature="0"
     style="fill:#f9f9f9;fill-opacity:1"
     d="m 36.926771,33.359229 c -0.03096,-1.020621 0.216737,-2.011386 1.261362,-2.71321 1.103389,-0.793779 2.166,-1.78678 2.053687,-2.95738 -0.02452,-1.128925 -1.449468,-2.013488 -2.984765,-2.140735 -1.726972,-0.220858 -3.816568,0.325269 -4.39529,1.570185 -0.293498,0.605545 -0.02133,1.691833 0.963658,1.691833 0.576144,0 0.840753,-0.343515 0.884206,-0.65778 0.03289,-0.237772 -0.07286,-0.450057 -0.135315,-0.646494 -0.07116,-0.223762 0.232619,-0.657482 0.563487,-0.834224 0.276467,-0.14766 0.565734,-0.197148 0.608342,-0.206642 0.992863,-0.220251 1.982629,0.266267 2.3956,0.858409 0.412942,0.592127 -0.04158,1.49039 -0.695111,2.363786 -0.653487,0.873471 -1.354831,1.865494 -1.352017,2.919244 0,0.401169 -0.03871,0.537435 -0.0111,0.699752 0.02197,0.129735 0.487123,0.11403 0.843373,0.05318 z m -0.453121,1.373688 c -0.949362,-0.04755 -1.606456,0.945876 -1.036128,1.578832 0.509343,0.698832 1.937347,0.526328 2.182126,-0.265036 0.254469,-0.615378 -0.357909,-1.324015 -1.145998,-1.313796 l 0,0 z"
     id="path3010" />
</svg>
