<svg xmlns="http://www.w3.org/2000/svg" xmlns:svg="http://www.w3.org/2000/svg" xmlns:xlink="http://www.w3.org/1999/xlink" id="svg2" width="48" height="48" version="1.1" viewBox="0 0 13.547 13.547"><metadata id="metadata40"/><defs id="defs4"><clipPath id="clipPath6"><path id="path8" d="M -670.14006,51.863192 L -114.61564,405.00326 L -257.11075,510.32573 L -514.2215,-71.013029 L -670.14006,51.863192 z"/></clipPath><linearGradient id="0"><stop id="stop11" stop-color="#dbdbdb"/><stop id="stop13" offset="1" stop-color="#f9f9f9"/></linearGradient><linearGradient id="1" x2="0" y1="1050.36" y2="1006.36" gradientTransform="matrix(0.28222223,0,0,0.28222223,0,-283.45334)" gradientUnits="userSpaceOnUse" xlink:href="#0"/><radialGradient id="radialGradient3046" cx="148.004" cy="160" r="128" gradientTransform="matrix(0.05167489,0,0,0.05167489,-0.87511191,-1.4947607)" gradientUnits="userSpaceOnUse" xlink:href="#radial0"/><radialGradient id="radial0" cx="148.004" cy="160" r="128" gradientTransform="matrix(0.1831,0,0,0.1831,-3.10029,-5.29688)" gradientUnits="userSpaceOnUse"><stop id="stop7-6" offset="0" stop-color="#fdb5b8" stop-opacity="1"/><stop id="stop9-3" offset="1" stop-color="#fa4b52" stop-opacity="1"/></radialGradient><radialGradient id="radialGradient3005" cx="148.004" cy="160" r="128" gradientTransform="matrix(0.05167489,0,0,0.05167489,-0.87511191,-1.49476)" gradientUnits="userSpaceOnUse" xlink:href="#radial0"/></defs><path id="path11" fill="url(#radialGradient3005)" d="m 13.387775,3.2589219 0,7.0290971 c 0,2.892777 0,3.100034 -3.100035,3.100034 l -7.0279939,0 c -3.10113721,0 -3.10113721,-0.207257 -3.10113721,-3.100034 l 0,-7.0290971 c 0,-2.89277789 0,-3.10003479 3.10113721,-3.10003479 l 7.0279939,0 c 3.100035,0 3.100035,0.2072569 3.100035,3.10003479 z"/><path id="path15" fill="#fff" fill-opacity=".051" d="m 10.799268,13.388053 c 0.717682,-0.0033 1.235825,-0.02315 1.611753,-0.124574 l -1.193932,-2.046111 -1.2655889,2.170685 0.3362399,0 c 0.180799,0 0.350573,0 0.511528,0 z M 11.217089,11.217368 9.7707021,8.7368994 8.3232099,11.217368 z m 0,0 2.159662,0 c 0.0088,-0.274505 0.01102,-0.582083 0.01102,-0.930451 l 0,-0.3097833 -0.723194,-1.2402343 z M 12.664581,8.7368994 11.217089,6.2564307 9.7707021,8.7368994 z m 0,0 0.723194,0 0,-1.2402343 z m -2.8938789,0 L 8.3232099,6.2564307 6.876821,8.7368994 z m -2.8938811,0 -1.4474921,2.4804686 2.893881,0 z m 0,0 L 5.4293289,6.2564307 3.9829411,8.7368994 z m -2.8938799,0 -1.4474921,2.4804686 2.8938799,0 z m 0,0 L 2.535449,6.2564307 1.0890604,8.7368994 z m -2.8938807,0 -0.93045151,1.5941136 c 0,0.329628 0.00331,0.623977 0.011024,0.886355 l 2.36581611,0 z m 0,0 -0.93045151,-1.5941145 0,1.5941145 z m 1.4463886,2.4804686 -1.2170831,2.0869 c 0.4508941,0.08268 1.0748701,0.08379 1.9413802,0.08379 l 0.5423958,0 z m 0,-4.9609373 -1.4463886,-2.4804689 -0.93045151,1.5941147 0,0.8863542 z m 0,0 2.8938799,0 L 3.9829411,3.7759618 z M 3.9829411,3.7759618 2.535449,1.295493 1.0890604,3.7759618 z m 0,0 2.8938799,0 L 5.4293289,1.295493 z M 5.4293289,1.295493 4.7656661,0.15888711 l -1.50592,0 c -0.02205,0 -0.03969,0 -0.06063,0 L 2.5354491,1.295493 z m 0,0 2.893881,0 -0.6636628,-1.13660589 -1.566554,0 z m 2.893881,0 2.8938791,0 -0.663663,-1.13660589 c -0.0882,0 -0.171979,0 -0.265686,0 l -1.3008659,0 z m 0,0 -1.4463889,2.4804688 2.8938811,0 z m 1.4474922,2.4804688 2.8938789,0 -1.447492,-2.4804688 z m 0,0 -1.4474922,2.4804689 2.8938791,0 z m 1.4463869,2.4804689 2.170686,0 0,-1.2402343 -0.723194,-1.2402346 z m 1.447492,-2.4804689 0.723194,0 0,-0.5170399 c 0,-0.2579689 -0.0022,-0.493889 -0.0066,-0.71217 z M 8.3232099,6.2564307 6.876821,3.7759618 5.4293289,6.2564307 z m 2.8938791,-4.9609377 2.062648,0 C 13.123192,0.51717691 12.747263,0.27133511 11.859806,0.19416481 z m -8.68164,0 L 1.885015,0.17983331 C 0.8520377,0.23826231 0.43421639,0.46095291 0.26664699,1.295493 z M 1.0890604,3.7759618 0.17514539,2.2083055 c -0.012127,0.3031685 -0.016535,0.6515364 -0.016535,1.0506164 l 0,0.5170399 z m 4.3402685,7.4414062 -1.2655898,2.170685 2.532283,0 z m 2.893881,0 -1.2655908,2.170685 2.5322838,0 z m -7.59133709,1.86862 -0.45199642,-0.775009 c 0.082682,0.371519 0.22158861,0.615157 0.45199642,0.775009 z"/><rect id="rect32" width="2.258" height="2.822" x="3.104" y="6.773" fill="#f9f9f9" fill-opacity="1" rx=".18" ry=".223"/><rect id="rect34" width="2.258" height="4.516" x="5.644" y="5.08" fill="#f9f9f9" fill-opacity="1" rx=".18" ry=".358"/><rect id="rect36" width="2.258" height="5.644" x="8.184" y="3.951" fill="#f9f9f9" fill-opacity="1" rx=".18" ry=".447"/></svg>