<svg xmlns="http://www.w3.org/2000/svg" xmlns:svg="http://www.w3.org/2000/svg" xmlns:xlink="http://www.w3.org/1999/xlink" id="svg2" width="48" height="48" version="1.1" viewBox="0 0 13.547 13.547"><metadata id="metadata34"/><defs id="defs4"><linearGradient id="0"><stop id="stop7" stop-color="#3a3a3a"/><stop id="stop9" offset="1" stop-color="#7f7f7f"/></linearGradient><linearGradient id="1" x2="0" y1="1050.36" y2="1006.36" gradientTransform="matrix(0.28222223,0,0,0.28222223,0,-283.45334)" gradientUnits="userSpaceOnUse" xlink:href="#0"/><radialGradient id="radialGradient3018" cx="148.004" cy="160" r="128" gradientTransform="matrix(0.05167489,0,0,0.05167489,-0.87511161,-1.4947562)" gradientUnits="userSpaceOnUse" xlink:href="#radial0"/><radialGradient id="radial0" cx="148.004" cy="160" r="128" gradientTransform="matrix(0.1831,0,0,0.1831,-3.10029,-5.29688)" gradientUnits="userSpaceOnUse"><stop id="stop7-9" offset="0" stop-color="#dcd69f"/><stop id="stop9-7" offset="1" stop-color="#94891c"/></radialGradient><radialGradient id="radialGradient3008" cx="148.004" cy="160" r="128" gradientTransform="matrix(0.05167489,0,0,0.05167489,-0.87511161,-1.4947562)" gradientUnits="userSpaceOnUse" xlink:href="#radial0"/></defs><path id="path11" fill="url(#radialGradient3008)" d="m 13.387776,3.2589259 0,7.0290971 c 0,2.892778 0,3.100035 -3.100035,3.100035 l -7.0279952,0 c -3.10113691,0 -3.10113691,-0.207257 -3.10113691,-3.100035 l 0,-7.0290971 c 0,-2.89277789 0,-3.10003479 3.10113691,-3.10003479 l 7.0279952,0 c 3.100035,0 3.100035,0.2072569 3.100035,3.10003479 z"/><path id="path15" fill="#fff" fill-opacity=".051" d="m 10.799269,13.388058 c 0.717682,-0.0033 1.235825,-0.02315 1.611753,-0.124574 l -1.193932,-2.046112 -1.2655902,2.170686 0.3362412,0 c 0.180799,0 0.350573,0 0.511528,0 z M 11.21709,11.217372 9.7707012,8.7369034 8.3232099,11.217372 z m 0,0 2.159662,0 c 0.0088,-0.274505 0.01102,-0.582083 0.01102,-0.930451 l 0,-0.3097833 -0.723193,-1.2402343 z M 12.664581,8.7369034 11.21709,6.2564347 9.7707012,8.7369034 z m 0,0 0.723195,0 0,-1.2402343 z m -2.8938798,0 L 8.3232099,6.2564347 6.876821,8.7369034 z m -2.8938802,0 -1.4474916,2.4804686 2.8938805,0 z m 0,0 L 5.4293294,6.2564347 3.9829405,8.7369034 z m -2.8938805,0 -1.4474913,2.4804686 2.8938802,0 z m 0,0 L 2.5354492,6.2564347 1.0890603,8.7369034 z m -2.8938802,0 -0.93045141,1.5941146 c 0,0.329627 0.00331,0.623976 0.011024,0.886354 l 2.36581611,0 z m 0,0 -0.93045141,-1.5941145 0,1.5941145 z m 1.4463889,2.4804686 -1.2170833,2.086901 c 0.450894,0.08268 1.0748699,0.08378 1.9413802,0.08378 l 0.5423958,0 z m 0,-4.9609373 -1.4463889,-2.4804689 -0.93045141,1.5941147 0,0.8863542 z m 0,0 2.8938802,0 L 3.9829405,3.7759658 z M 3.9829405,3.7759658 2.5354492,1.2954971 1.0890603,3.7759658 z m 0,0 2.8938805,0 -1.4474916,-2.4804687 z m 1.4463889,-2.4804687 -0.663663,-1.13660599 -1.5070227,0 c -0.020946,0 -0.038585,0 -0.059531,0 L 2.5354492,1.2954971 z m 0,0 2.8938805,0 -0.6636633,-1.13660599 -1.5665538,0 z m 2.8938805,0 2.8938801,0 -0.663663,-1.13660599 c -0.08819,0 -0.171979,0 -0.266788,0 l -1.299766,0 z m 0,0 -1.4463889,2.4804687 2.8938802,0 z m 1.4474913,2.4804687 2.8938798,0 -1.447491,-2.4804687 z m 0,0 -1.4474913,2.4804689 2.8938801,0 z m 1.4463888,2.4804689 2.170686,0 0,-1.2402343 -0.723195,-1.2402346 z m 1.447491,-2.4804689 0.723195,0 0,-0.5170399 c 0,-0.2579689 -0.0022,-0.4938889 -0.0066,-0.71217 z M 8.3232099,6.2564347 6.876821,3.7759658 5.4293294,6.2564347 z m 2.8938801,-4.9609376 2.062648,0 C 13.123193,0.51718101 12.747264,0.27133921 11.859807,0.19416891 z m -8.6816408,0 L 1.8850153,0.17983741 C 0.85203769,0.23826641 0.43421639,0.46095701 0.26664689,1.2954971 z M 1.0890603,3.7759658 0.17514539,2.2083096 c -0.012127,0.3031685 -0.016536,0.6515363 -0.016536,1.0506163 l 0,0.5170399 z m 4.3402691,7.4414062 -1.2655903,2.170686 2.532283,0 z m 2.8938805,0 -1.2655906,2.170686 2.5322833,0 z m -7.59133711,1.86862 -0.4519964,-0.775009 c 0.082682,0.37152 0.2215885,0.615157 0.4519964,0.775009 z"/><path id="path28" fill="#f9f9f9" fill-opacity="1" d="m 3.3866667,3.668889 6.7733333,0 0,3.386667 -1.6933327,0 0,-1.6933336 -5.0800005,0 z"/><path id="path30" fill="#f9f9f9" fill-opacity="1" d="m 3.3866667,8.1844451 0,1.6933329 6.7733333,0 0,-1.6933329 -2.54,0 0,-1.6933318 -1.9050001,-1.5e-6 0,1.6933333 z"/></svg>