<svg xmlns="http://www.w3.org/2000/svg" xmlns:svg="http://www.w3.org/2000/svg" xmlns:xlink="http://www.w3.org/1999/xlink" id="svg2" width="48" height="48" version="1.1" viewBox="0 0 13.547 13.547"><metadata id="metadata22"/><defs id="defs4"><linearGradient id="linearGradient4460"><stop id="stop7" offset="0" stop-color="#5ea0bf" stop-opacity="1"/><stop id="stop9" offset="1" stop-color="#8fc0d6" stop-opacity="1"/></linearGradient><linearGradient id="linearGradient3001" x2="0" y1="279.096" y2="268.33" gradientTransform="matrix(1.10525,0,0,1.10525,-134.25208,-295.76214)" gradientUnits="userSpaceOnUse" xlink:href="#linearGradient4460"/><linearGradient id="1" x2="0" y1="1050.36" y2="1006.36" gradientTransform="translate(-3.7006836e-8,6.1039219e-5)" gradientUnits="userSpaceOnUse" xlink:href="#0"/><linearGradient id="0"><stop id="stop7-1" stop-color="#108fc9"/><stop id="stop9-1" offset="1" stop-color="#26afee"/></linearGradient><clipPath id="2"><rect id="rect13" width="44" height="44" x="2" y="1006.36" fill="url(#3)" rx="4"/></clipPath><radialGradient id="radialGradient3049" cx="148.004" cy="160" r="128" gradientTransform="matrix(0.1831,0,0,0.1831,-3.100791,-5.296401)" gradientUnits="userSpaceOnUse" spreadMethod="pad" xlink:href="#linearGradient4460-3"/><linearGradient id="linearGradient4460-3"><stop id="stop8-6" offset="0" stop-color="#bbbfff" stop-opacity="1"/><stop id="stop10-2" offset="1" stop-color="#4a4ac3" stop-opacity="1"/></linearGradient><radialGradient id="radialGradient3051" cx="148.004" cy="160" r="128" gradientTransform="matrix(0.05167489,0,0,0.05167489,-0.87511211,-1.4947623)" gradientUnits="userSpaceOnUse" spreadMethod="pad" xlink:href="#linearGradient4460-3"/></defs><path id="path11" fill="url(#radialGradient3051)" fill-opacity="1" d="m 13.387776,3.2589195 0,7.0290975 c 0,2.892779 0,3.100036 -3.100035,3.100036 l -7.0279952,0 c -3.10113691,0 -3.10113691,-0.207257 -3.10113691,-3.100036 l 0,-7.0290975 c 0,-2.89277759 0,-3.10003449 3.10113691,-3.10003449 l 7.0279952,0 c 3.100035,0 3.100035,0.2072569 3.100035,3.10003449 z"/><path id="path15-7" fill="#fff" fill-opacity=".051" d="m 10.799269,13.388053 c 0.717682,-0.0033 1.235825,-0.02315 1.611753,-0.124576 l -1.193932,-2.04611 -1.2655905,2.170686 0.3362415,0 c 0.180799,0 0.350573,0 0.511528,0 z m 0.417821,-2.170686 -1.4463891,-2.48047 -1.4474913,2.48047 z m 0,0 2.159662,0 c 0.0088,-0.274506 0.01102,-0.582084 0.01102,-0.930452 l 0,-0.3097837 L 12.664581,8.736897 z M 12.664582,8.736897 11.21709,6.2564283 9.7707009,8.736897 z m 0,0 0.723194,0 0,-1.2402343 z m -2.8938811,0 L 8.3232096,6.2564283 6.8768207,8.736897 z m -2.8938802,0 -1.4474916,2.480468 2.8938805,0 z m 0,0 L 5.4293291,6.2564283 3.9829402,8.736897 z m -2.8938805,0 -1.4474915,2.480468 2.8938804,0 z m 0,0 L 2.5354487,6.2564283 1.0890599,8.736897 z m -2.8938803,0 -0.93045101,1.594116 c 0,0.329626 0.0033,0.623975 0.01102,0.886354 l 2.36581651,0 z m 0,0 -0.93045101,-1.5941145 0,1.5941145 z m 1.4463888,2.48047 -1.2170831,2.086901 c 0.450894,0.08268 1.0748699,0.08379 1.9413802,0.08379 l 0.5423958,0 z m 0,-4.9609387 -1.4463888,-2.4804689 -0.93045101,1.5941148 0,0.8863541 z m 0,0 2.8938804,0 L 3.9829402,3.7759594 z M 3.9829402,3.7759594 2.5354487,1.2954909 1.0890599,3.7759594 z m 0,0 2.8938805,0 -1.4474916,-2.4804685 z m 1.4463889,-2.4804685 -0.663663,-1.13660589 -1.5059203,0 c -0.02205,0 -0.039688,0 -0.060634,0 L 2.5354488,1.2954909 z m 0,0 2.8938805,0 -0.6636633,-1.13660589 -1.5665538,0 z m 2.8938805,0 2.8938804,0 -0.663663,-1.13660589 c -0.0882,0 -0.171979,0 -0.265686,0 l -1.3008683,0 z m 0,0 -1.4463889,2.4804685 2.8938802,0 z m 1.4474913,2.4804685 2.8938811,0 -1.447492,-2.4804685 z m 0,0 -1.4474913,2.4804689 2.8938804,0 z m 1.4463891,2.4804689 2.170686,0 0,-1.2402343 -0.723194,-1.2402346 z m 1.447492,-2.4804689 0.723194,0 0,-0.5170399 c 0,-0.2579689 -0.0022,-0.4938887 -0.0066,-0.7121698 z M 8.3232096,6.2564283 6.8768207,3.7759594 5.4293291,6.2564283 z m 2.8938804,-4.9609374 2.062648,0 C 13.123193,0.51717481 12.747264,0.27133311 11.859807,0.19416281 z m -8.6816413,0 L 1.8850148,0.17983121 C 0.85203689,0.23826021 0.43421589,0.46095081 0.26664689,1.2954909 z M 1.0890599,3.7759594 0.17514489,2.2083034 c -0.01213,0.3031685 -0.01653,0.6515364 -0.01653,1.0506161 l 0,0.5170399 z m 4.3402692,7.4414076 -1.2655903,2.170686 2.532283,0 z m 2.8938805,0 -1.2655906,2.170686 2.5322833,0 z m -7.59133671,1.868619 -0.451997,-0.775009 c 0.08268,0.371519 0.221589,0.615158 0.451997,0.775009 z"/><path id="path3777" fill="#f9f9f9" fill-opacity="1" stroke="none" d="M 3.9511112,5.5033335 4.5155557,5.2211113 6.9144446,8.7488892 6.4911113,9.1722225 z"/><path id="path3007" fill="#f9f9f9" fill-opacity="1" stroke="none" d="m 4.7977779,4.7977779 0,0.5644445 3.9511112,0 0,-0.5644445 z"/><path id="path3779" fill="#f9f9f9" fill-opacity="1" stroke="none" d="M 9.7366671,5.5033335 9.1722226,5.2211113 6.7733337,8.7488892 7.196667,9.1722225 z"/><path id="path2999" fill="#f9f9f9" fill-opacity="1" stroke="none" d="m -19.130628,15.017713 a 1.5340599,1.6694181 0 1 1 -3.06812,0 1.5340599,1.6694181 0 1 1 3.06812,0 z" transform="matrix(0.55191241,0,0,0.50716276,15.638431,-2.5364243)"/><path id="path3001" fill="#f9f9f9" fill-opacity="1" stroke="none" d="m -19.130628,15.017713 a 1.5340599,1.6694181 0 1 1 -3.06812,0 1.5340599,1.6694181 0 1 1 3.06812,0 z" transform="matrix(0.55191241,0,0,0.50716276,20.718431,-2.5364243)"/><path id="path3003" fill="#f9f9f9" fill-opacity="1" stroke="none" d="m -19.130628,15.017713 a 1.5340599,1.6694181 0 1 1 -3.06812,0 1.5340599,1.6694181 0 1 1 3.06812,0 z" transform="matrix(0.55191241,0,0,0.50716276,18.178431,1.4146868)"/></svg>