<svg xmlns="http://www.w3.org/2000/svg" xmlns:svg="http://www.w3.org/2000/svg" xmlns:xlink="http://www.w3.org/1999/xlink" id="svg2" width="48" height="48" version="1.1" viewBox="0 0 13.547 13.547"><metadata id="metadata38"/><defs id="defs4"><linearGradient id="0"><stop id="stop7" stop-color="#eaeaea"/><stop id="stop9" offset="1" stop-color="#fafafa"/></linearGradient><linearGradient id="1"><stop id="stop12" stop-color="#e24674"/><stop id="stop14" offset="1" stop-color="#7f2641"/></linearGradient><linearGradient id="2" x1="6.778" x2="6.769" y1="3.487" y2="10.518" gradientTransform="matrix(3.7297966,0,0,3.4015747,-1.263157,-2.0344487e-6)" gradientUnits="userSpaceOnUse" xlink:href="#1"/><linearGradient id="3" x2="0" y1="1050.36" y2="1006.36" gradientTransform="matrix(0.28222223,0,0,0.28222223,0,-283.45334)" gradientUnits="userSpaceOnUse" xlink:href="#0"/><radialGradient id="radial0" cx="148.004" cy="160" r="128" gradientTransform="matrix(0.1831,0,0,0.1831,-3.10029,-5.29688)" gradientUnits="userSpaceOnUse"><stop id="stop7-8" offset="0" stop-color="#f3b2c6"/><stop id="stop9-1" offset="1" stop-color="#7f2640"/></radialGradient><radialGradient id="radialGradient3015" cx="148.004" cy="160" r="128" gradientTransform="matrix(0.05167489,0,0,0.05167489,-0.87511191,-1.4947562)" gradientUnits="userSpaceOnUse" xlink:href="#radial0"/></defs><path id="path11" fill="url(#radialGradient3015)" d="m 13.387776,3.2589259 0,7.0290971 c 0,2.892778 0,3.100035 -3.100035,3.100035 l -7.0279949,0 c -3.10113721,0 -3.10113721,-0.207257 -3.10113721,-3.100035 l 0,-7.0290971 c 0,-2.89277793 0,-3.10003483 3.10113721,-3.10003483 l 7.0279949,0 c 3.100035,0 3.100035,0.2072569 3.100035,3.10003483 z"/><path id="path15" fill="#fff" fill-opacity=".051" d="m 10.799269,13.388058 c 0.717682,-0.0033 1.235825,-0.02315 1.611753,-0.124574 l -1.193932,-2.046112 -1.2655901,2.170686 0.3362411,0 c 0.180799,0 0.350573,0 0.511528,0 z M 11.21709,11.217372 9.7707012,8.7369034 8.32321,11.217372 z m 0,0 2.159662,0 c 0.0088,-0.274505 0.01102,-0.582083 0.01102,-0.930451 l 0,-0.3097833 -0.723194,-1.2402343 z M 12.664581,8.7369034 11.21709,6.2564347 9.7707012,8.7369034 z m 0,0 0.723195,0 0,-1.2402343 z m -2.8938798,0 L 8.32321,6.2564347 6.876821,8.7369034 z m -2.8938802,0 -1.4474915,2.4804686 2.8938805,0 z m 0,0 -1.4474915,-2.4804687 -1.446389,2.4804687 z m -2.8938805,0 -1.4474913,2.4804686 2.8938803,0 z m 0,0 L 2.5354492,6.2564347 1.0890603,8.7369034 z m -2.8938802,0 -0.9304514,1.5941146 c 0,0.329627 0.003307,0.623976 0.0110242,0.886354 l 2.36581614,0 z m 0,0 -0.9304514,-1.5941145 0,1.5941145 z m 1.4463889,2.4804686 -1.2170833,2.086901 c 0.450894,0.08268 1.0748699,0.08378 1.9413802,0.08378 l 0.5423958,0 z m 0,-4.9609373 -1.4463889,-2.4804689 -0.9304514,1.5941147 0,0.8863542 z m 0,0 2.8938803,0 -1.446389,-2.4804689 z M 3.9829405,3.7759658 2.5354492,1.2954971 1.0890603,3.7759658 z m 0,0 2.8938805,0 -1.4474915,-2.4804687 z m 1.446389,-2.4804687 -0.6636631,-1.13660602 -1.5070227,0 c -0.020946,0 -0.038585,0 -0.059531,0 L 2.5354492,1.2954971 z m 0,0 2.8938805,0 -0.6636634,-1.13660602 -1.5665538,0 z m 2.8938805,0 2.89388,0 -0.663663,-1.13660602 c -0.08819,0 -0.171979,0 -0.266788,0 l -1.299766,0 z m 0,0 -1.446389,2.4804687 2.8938802,0 z m 1.4474912,2.4804687 2.8938798,0 -1.447491,-2.4804687 z m 0,0 -1.4474912,2.4804689 2.89388,0 z m 1.4463888,2.4804689 2.170686,0 0,-1.2402343 -0.723195,-1.2402346 z m 1.447491,-2.4804689 0.723195,0 0,-0.5170399 c 0,-0.2579689 -0.0022,-0.4938889 -0.0066,-0.71217 z M 8.32321,6.2564347 6.876821,3.7759658 5.4293295,6.2564347 z m 2.89388,-4.9609376 2.062648,0 C 13.123193,0.51718095 12.747264,0.27133914 11.859807,0.19416885 z m -8.6816408,0 L 1.8850153,0.17983733 C 0.85203767,0.23826608 0.4342164,0.46095692 0.26664695,1.2954971 z M 1.0890603,3.7759658 0.17514543,2.2083096 C 0.16301862,2.5114781 0.1586089,2.8598459 0.1586089,3.2589259 l 0,0.5170399 z m 4.3402692,7.4414062 -1.2655904,2.170686 2.532283,0 z m 2.8938805,0 -1.2655906,2.170686 2.5322832,0 z m -7.5913372,1.86862 -0.4519964,-0.775009 c 0.0826821,0.37152 0.22158848,0.615157 0.4519964,0.775009 z"/><path id="path34" fill="#f9f9f9" fill-opacity="1" d="M 14.03125 12 C 13.978728 15.416736 13.981796 18.833259 14.03125 22.25 C 14.078511 25.541103 14.251574 28.1163 15.6875 30.125 C 17.416862 32.544693 20.293258 34.284325 24 36 C 27.70606 34.284325 30.583138 32.544349 32.3125 30.125 C 33.748098 28.116992 33.920637 25.541452 33.96875 22.25 C 34.018204 18.833259 34.021272 15.416736 33.96875 12 L 14.03125 12 z M 24 13 C 24.552285 13 25 13.447715 25 14 C 25 14.552285 24.552285 15 24 15 C 23.447715 15 23 14.552285 23 14 C 23 13.447715 23.447715 13 24 13 z M 24 17 C 24.552285 17 25 17.447715 25 18 C 25 18.552285 24.552285 19 24 19 C 23.447715 19 23 18.552285 23 18 C 23 17.447715 23.447715 17 24 17 z M 16 21 C 16.552285 21 17 21.447715 17 22 C 17 22.552285 16.552285 23 16 23 C 15.447715 23 15 22.552285 15 22 C 15 21.447715 15.447715 21 16 21 z M 20 21 C 20.552285 21 21 21.447715 21 22 C 21 22.552285 20.552285 23 20 23 C 19.447715 23 19 22.552285 19 22 C 19 21.447715 19.447715 21 20 21 z M 24 21 C 24.552285 21 25 21.447715 25 22 C 25 22.552285 24.552285 23 24 23 C 23.447715 23 23 22.552285 23 22 C 23 21.447715 23.447715 21 24 21 z M 28 21 C 28.552285 21 29 21.447715 29 22 C 29 22.552285 28.552285 23 28 23 C 27.447715 23 27 22.552285 27 22 C 27 21.447715 27.447715 21 28 21 z M 32 21 C 32.552285 21 33 21.447715 33 22 C 33 22.552285 32.552285 23 32 23 C 31.447715 23 31 22.552285 31 22 C 31 21.447715 31.447715 21 32 21 z M 24 25 C 24.552285 25 25 25.447715 25 26 C 25 26.552285 24.552285 27 24 27 C 23.447715 27 23 26.552285 23 26 C 23 25.447715 23.447715 25 24 25 z M 24 29 C 24.552285 29 25 29.447715 25 30 C 25 30.552285 24.552285 31 24 31 C 23.447715 31 23 30.552285 23 30 C 23 29.447715 23.447715 29 24 29 z M 24 33 C 24.552285 33 25 33.447715 25 34 C 25 34.552285 24.552285 35 24 35 C 23.447715 35 23 34.552285 23 34 C 23 33.447715 23.447715 33 24 33 z" transform="scale(0.28222223,0.28222223)"/></svg>