<svg xmlns="http://www.w3.org/2000/svg" xmlns:svg="http://www.w3.org/2000/svg" xmlns:xlink="http://www.w3.org/1999/xlink" id="svg2" width="48" height="48" version="1.1" viewBox="0 0 13.547 13.547"><metadata id="metadata41"/><defs id="defs4"><linearGradient id="0"><stop id="stop7" stop-color="#327ccf"/><stop id="stop9" offset="1" stop-color="#71c2ee"/></linearGradient><linearGradient id="1" x2="0" y1="279.1" y2="268.33" gradientTransform="matrix(1.10525,0,0,1.10525,-134.27874,-295.76183)" gradientUnits="userSpaceOnUse" xlink:href="#0"/><linearGradient id="2" x2="0" y1="1050.36" y2="1006.36" gradientTransform="matrix(0.28222223,0,0,0.28222223,0,-283.45334)" gradientUnits="userSpaceOnUse" xlink:href="#0"/><radialGradient id="radialGradient3015" cx="148.004" cy="160" r="128" gradientTransform="matrix(0.05167489,0,0,0.05167489,-0.87511191,-1.4947564)" gradientUnits="userSpaceOnUse" xlink:href="#radial0"/><radialGradient id="radial0" cx="148.004" cy="160" r="128" gradientTransform="matrix(0.1831,0,0,0.1831,-3.10029,-5.29688)" gradientUnits="userSpaceOnUse"><stop id="stop7-8" offset="0" stop-color="#ceebff"/><stop id="stop9-8" offset="1" stop-color="#116cac"/></radialGradient><radialGradient id="radialGradient3008" cx="148.004" cy="160" r="128" gradientTransform="matrix(0.05167489,0,0,0.05167489,-0.8749708,-1.4948973)" gradientUnits="userSpaceOnUse" xlink:href="#radial0"/></defs><path id="path11" fill="url(#radialGradient3008)" d="m 13.387917,3.2587848 0,7.0290972 c 0,2.892778 0,3.100035 -3.100035,3.100035 l -7.0279948,0 C 0.15875,13.387917 0.15875,13.18066 0.15875,10.287882 l 0,-7.0290972 c 0,-2.8927779 0,-3.1000348 3.1011372,-3.1000348 l 7.0279948,0 c 3.100035,0 3.100035,0.2072569 3.100035,3.1000348 z"/><path id="path15-6" fill="#fff" fill-opacity=".051" d="m 10.79941,13.387917 c 0.717682,-0.0033 1.235825,-0.02315 1.611753,-0.124575 l -1.193932,-2.046111 -1.2655901,2.170686 0.3362411,0 c 0.180799,0 0.350573,0 0.511528,0 z M 11.217231,11.217231 9.7708423,8.7367623 8.323351,11.217231 z m 0,0 2.159662,0 c 0.0088,-0.274505 0.01102,-0.582083 0.01102,-0.930451 l 0,-0.3097834 L 12.66472,8.7367623 z M 12.664722,8.7367623 11.217231,6.2562936 9.7708423,8.7367623 z m 0,0 0.723195,0 0,-1.2402343 z m -2.8938797,0 L 8.323351,6.2562936 6.8769621,8.7367623 z m -2.8938802,0 -1.4474916,2.4804687 2.8938805,0 z m 0,0 L 5.4294705,6.2562936 3.9830816,8.7367623 z m -2.8938805,0 -1.4474913,2.4804687 2.8938802,0 z m 0,0 L 2.5355903,6.2562936 1.0892014,8.7367623 z m -2.8938802,0 L 0.15875,10.330877 c 0,0.329627 0.003307,0.623976 0.0110242,0.886354 l 2.36581609,0 z m 0,0 -0.9304514,-1.5941145 0,1.5941145 z M 2.5355903,11.217231 1.318507,13.304132 c 0.450894,0.08268 1.0748699,0.08378 1.9413802,0.08378 l 0.5423958,0 z m 0,-4.9609374 L 1.0892014,3.7758247 0.15875,5.3699394 l 0,0.8863542 z m 0,0 2.8938802,0 L 3.9830816,3.7758247 z M 3.9830816,3.7758247 2.5355903,1.295356 1.0892014,3.7758247 z m 0,0 2.8938805,0 L 5.4294705,1.295356 z M 5.4294705,1.295356 4.7658075,0.15875 l -1.5070227,0 c -0.020946,0 -0.038585,0 -0.059531,0 L 2.5355903,1.295356 z m 0,0 2.8938805,0 -0.6636633,-1.136606 -1.5665538,0 z m 2.8938805,0 2.89388,0 -0.663663,-1.136606 c -0.08819,0 -0.171979,0 -0.266788,0 l -1.2997659,0 z m 0,0 -1.4463889,2.4804687 2.8938802,0 z m 1.4474913,2.4804687 2.8938797,0 -1.447491,-2.4804687 z m 0,0 -1.4474913,2.4804689 2.89388,0 z m 1.4463887,2.4804689 2.170686,0 0,-1.2402343 -0.723195,-1.2402346 z m 1.447491,-2.4804689 0.723195,0 0,-0.5170399 c 0,-0.2579689 -0.0022,-0.4938889 -0.0066,-0.71217 z M 8.323351,6.2562936 6.8769621,3.7758247 5.4294705,6.2562936 z m 2.89388,-4.9609376 2.062648,0 C 13.123334,0.51703987 12.747405,0.27119806 11.859948,0.19402778 z m -8.6816407,0 L 1.8851564,0.17969625 C 0.85217879,0.238125 0.43435751,0.46081584 0.26678806,1.295356 z M 1.0892014,3.7758247 0.17528654,2.2081685 C 0.16315973,2.511337 0.15875001,2.8597048 0.15875001,3.2587848 l 0,0.5170399 z m 4.3402691,7.4414063 -1.2655903,2.170686 2.532283,0 z m 2.8938805,0 -1.2655906,2.170686 2.5322833,0 z m -7.5913371,1.86862 -0.45199639,-0.775009 c 0.0826821,0.371519 0.22158847,0.615156 0.45199639,0.775009 z"/><path id="path31" fill="#f9f9f9" fill-opacity="1" d="M 13.34375 26 C 12.607628 26 12 26.607628 12 27.34375 L 12 30 L 9 30 L 8 35 L 40 35 L 39 30 L 36 30 L 36 27.34375 C 36 26.607628 35.392372 26 34.65625 26 L 31.34375 26 C 30.607628 26 30 26.607628 30 27.34375 L 30 30 L 27 30 L 27 27.34375 C 27 26.607628 26.392372 26 25.65625 26 L 22.34375 26 C 21.607628 26 21 26.607628 21 27.34375 L 21 30 L 18 30 L 18 27.34375 C 18 26.607628 17.392372 26 16.65625 26 L 13.34375 26 z" transform="scale(0.28222223,0.28222223)"/></svg>