<svg xmlns="http://www.w3.org/2000/svg" xmlns:svg="http://www.w3.org/2000/svg" xmlns:xlink="http://www.w3.org/1999/xlink" id="svg2" width="48" height="48" version="1.1" viewBox="0 0 13.547 13.547"><metadata id="metadata34"/><defs id="defs4"><linearGradient id="0"><stop id="stop7" stop-color="#dedede"/><stop id="stop9" offset="1" stop-color="#f9f9f9"/></linearGradient><linearGradient id="1" x2="0" y1="1050.36" y2="1006.36" gradientTransform="matrix(0.28222223,0,0,0.28222223,0,-283.45334)" gradientUnits="userSpaceOnUse" xlink:href="#0"/><radialGradient id="radial0" cx="148.004" cy="160" r="128" gradientTransform="matrix(0.1831,0,0,0.1831,-3.10029,-5.29688)" gradientUnits="userSpaceOnUse"><stop id="stop7-1" offset="0" stop-color="#d9b0c7"/><stop id="stop9-1" offset="1" stop-color="#772853"/></radialGradient><radialGradient id="radialGradient3061" cx="148.004" cy="160" r="128" gradientTransform="matrix(0.05167489,0,0,0.05167489,-0.87510811,-1.4947612)" gradientUnits="userSpaceOnUse" xlink:href="#radial0"/></defs><path id="path11" fill="url(#radialGradient3061)" d="m 13.38778,3.2589209 0,7.0290971 c 0,2.892778 0,3.100035 -3.100035,3.100035 l -7.027995,0 c -3.10113711,0 -3.10113711,-0.207257 -3.10113711,-3.100035 l 0,-7.0290971 c 0,-2.89277787 0,-3.10003482 3.10113711,-3.10003482 l 7.027995,0 c 3.100035,0 3.100035,0.20725695 3.100035,3.10003482 z"/><path id="path13" fill="#fff" fill-opacity=".051" d="m 10.799273,13.388053 c 0.717682,-0.0033 1.235825,-0.02315 1.611753,-0.124575 l -1.193932,-2.046111 -1.2655903,2.170686 0.3362413,0 c 0.180799,0 0.350573,0 0.511528,0 z M 11.217094,11.217367 9.7707051,8.7368984 8.3232138,11.217367 z m 0,0 2.159662,0 c 0.0088,-0.274505 0.01102,-0.582083 0.01102,-0.930451 l 0,-0.3097833 -0.723194,-1.2402343 z M 12.664586,8.7368984 11.217094,6.2564297 9.7707051,8.7368984 z m 0,0 0.723194,0 0,-1.2402343 z m -2.8938809,0 L 8.3232138,6.2564297 6.8768249,8.7368984 z m -2.8938802,0 -1.4474916,2.4804686 2.8938805,0 z m 0,0 L 5.4293333,6.2564297 3.9829444,8.7368984 z m -2.8938805,0 -1.4474913,2.4804686 2.8938802,0 z m 0,0 L 2.5354531,6.2564297 1.0890642,8.7368984 z m -2.8938802,0 -0.93045131,1.5941146 c 0,0.329627 0.0033,0.623976 0.01102,0.886354 l 2.36581621,0 z m 0,0 -0.93045131,-1.5941145 0,1.5941145 z m 1.4463889,2.4804686 -1.2170833,2.086901 c 0.450894,0.08268 1.0748699,0.08379 1.9413802,0.08379 l 0.5423958,0 z m 0,-4.9609373 -1.4463889,-2.4804689 -0.93045131,1.5941147 0,0.8863542 z m 0,0 2.8938802,0 L 3.9829444,3.7759608 z M 3.9829444,3.7759608 2.5354531,1.2954921 1.0890642,3.7759608 z m 0,0 2.8938805,0 -1.4474916,-2.4804687 z m 1.4463889,-2.4804687 -0.663663,-1.13660602 -1.5070227,0 c -0.020946,0 -0.038585,0 -0.059531,0 L 2.5354531,1.2954921 z m 0,0 2.8938805,0 -0.6636633,-1.13660602 -1.5665538,0 z m 2.8938805,0 2.8938802,0 -0.663663,-1.13660602 c -0.0882,0 -0.171979,0 -0.266788,0 l -1.2997661,0 z m 0,0 -1.4463889,2.4804687 2.8938802,0 z m 1.4474913,2.4804687 2.8938809,0 -1.447492,-2.4804687 z m 0,0 -1.4474913,2.4804689 2.8938802,0 z m 1.4463889,2.4804689 2.170686,0 0,-1.2402343 -0.723194,-1.2402346 z m 1.447492,-2.4804689 0.723194,0 0,-0.5170399 c 0,-0.2579689 -0.0022,-0.4938889 -0.0066,-0.71217 z M 8.3232138,6.2564297 6.8768249,3.7759608 5.4293333,6.2564297 z m 2.8938802,-4.9609376 2.062648,0 C 13.123197,0.51717595 12.747268,0.27133414 11.859811,0.19416386 z m -8.6816409,0 L 1.8850192,0.17983233 C 0.85204189,0.23826108 0.43421989,0.46095192 0.26665089,1.2954921 z M 1.0890642,3.7759608 0.17514889,2.2083046 c -0.01213,0.3031685 -0.01654,0.6515363 -0.01654,1.0506163 l 0,0.5170399 z m 4.3402691,7.4414062 -1.2655903,2.170686 2.532283,0 z m 2.8938805,0 -1.2655906,2.170686 2.5322833,0 z m -7.59133691,1.86862 -0.451997,-0.775009 c 0.08268,0.371519 0.221589,0.615157 0.451997,0.775009 z"/><path id="path28" fill="#f9f9f9" fill-opacity="1" d="m 23,16 -12,8 10,6 0,-3 -5,-3 7,-5 z" transform="scale(0.28222223,0.28222223)"/><path id="path30" fill="#f9f9f9" fill-opacity="1" d="m 26,20 1,-3 10,7 -13,8 1,-4 6,-4 z" transform="scale(0.28222223,0.28222223)"/></svg>