<svg xmlns="http://www.w3.org/2000/svg" xmlns:svg="http://www.w3.org/2000/svg" xmlns:xlink="http://www.w3.org/1999/xlink" id="svg2" width="48" height="48" version="1.1" viewBox="0 0 13.547 13.547"><metadata id="metadata399"/><defs id="defs4"><clipPath id="clipPath6" clipPathUnits="userSpaceOnUse"><path id="path8" fill="url(#linearGradient4326-13)" d="m 328,242.09376 c -7.73199,0 -14,6.26801 -14,14 0,7.73199 6.26801,14 14,14 7.73199,0 14,-6.26801 14,-14 0,-7.73199 -6.26801,-14 -14,-14 z m 0,9.90625 c 2.20914,0 4,1.79086 4,4 0,2.20914 -1.79086,4 -4,4 -2.20914,0 -4,-1.79086 -4,-4 0,-2.20914 1.79086,-4 4,-4 z m 0,1 c -1.65685,0 -3,1.34315 -3,3 0,1.65685 1.34315,3 3,3 1.65685,0 3,-1.34315 3,-3 0,-1.65685 -1.34315,-3 -3,-3 z m 0,1 c 1.10457,0 2,0.89543 2,2 0,1.10457 -0.89543,2 -2,2 -1.10457,0 -2,-0.89543 -2,-2 0,-1.10457 0.89543,-2 2,-2 z" color="#bebebe"/></clipPath><clipPath id="clipPath10" clipPathUnits="userSpaceOnUse"><path id="path12" fill="url(#linearGradient4306)" d="m 440,126 c -3.31371,0 -6,2.68629 -6,6 0,3.31371 2.68629,6 6,6 3.31371,0 6,-2.68629 6,-6 0,-3.31371 -2.68629,-6 -6,-6 z m 0,3 c 1.65685,0 3,1.34315 3,3 0,1.65685 -1.34315,3 -3,3 -1.65685,0 -3,-1.34315 -3,-3 0,-1.65685 1.34315,-3 3,-3 z m 0,1 c -1.10457,0 -2,0.89543 -2,2 0,1.10457 0.89543,2 2,2 1.10457,0 2,-0.89543 2,-2 0,-1.10457 -0.89543,-2 -2,-2 z m 0,1 c 0.55228,0 1,0.44772 1,1 0,0.55228 -0.44772,1 -1,1 -0.55228,0 -1,-0.44772 -1,-1 0,-0.55228 0.44772,-1 1,-1 z" color="#bebebe"/></clipPath><clipPath id="clipPath14" clipPathUnits="userSpaceOnUse"><path id="path16" fill="url(#linearGradient4296-6)" d="m 451.38843,127.3713 c -3.31371,0 -6,2.68629 -6,6 0,3.31371 2.68629,6 6,6 3.31371,0 6,-2.68629 6,-6 0,-3.31371 -2.68629,-6 -6,-6 z m 0,3 c 1.65685,0 3,1.34315 3,3 0,1.65685 -1.34315,3 -3,3 -1.65685,0 -3,-1.34315 -3,-3 0,-1.65685 1.34315,-3 3,-3 z m 0,1 c -1.10457,0 -2,0.89543 -2,2 0,1.10457 0.89543,2 2,2 1.10457,0 2,-0.89543 2,-2 0,-1.10457 -0.89543,-2 -2,-2 z m 0,1 c 0.55228,0 1,0.44772 1,1 0,0.55228 -0.44772,1 -1,1 -0.55228,0 -1,-0.44772 -1,-1 0,-0.55228 0.44772,-1 1,-1 z" color="#bebebe"/></clipPath><clipPath id="clipPath18" clipPathUnits="userSpaceOnUse"><path id="path20" d="m 328,238 c -7.73199,0 -14,6.26801 -14,14 0,7.73199 6.26801,14 14,14 7.73199,0 14,-6.26801 14,-14 0,-7.73199 -6.26801,-14 -14,-14 z m 0,8.75 c 2.89949,0 5.25,2.35051 5.25,5.25 0,2.89949 -2.35051,5.25 -5.25,5.25 -2.89949,0 -5.25,-2.35051 -5.25,-5.25 0,-2.89949 2.35051,-5.25 5.25,-5.25 z m 0,1.75 c -1.933,0 -3.5,1.567 -3.5,3.5 0,1.933 1.567,3.5 3.5,3.5 1.933,0 3.5,-1.567 3.5,-3.5 0,-1.933 -1.567,-3.5 -3.5,-3.5 z m 0,1.75 c 0.96649,0 1.75,0.78351 1.75,1.75 0,0.96649 -0.78351,1.75 -1.75,1.75 -0.96649,0 -1.75,-0.78351 -1.75,-1.75 0,-0.96649 0.78351,-1.75 1.75,-1.75 z" color="#bebebe" opacity=".2"/></clipPath><clipPath id="clipPath22" clipPathUnits="userSpaceOnUse"><path id="path24" fill="url(#linearGradient4203-6)" d="m 444,88 c -4.41828,0 -8,3.58172 -8,8 0,4.41828 3.58172,8 8,8 4.41828,0 8,-3.58172 8,-8 0,-4.41828 -3.58172,-8 -8,-8 z m 0,5 c 1.65685,0 3,1.34315 3,3 0,1.65685 -1.34315,3 -3,3 -1.65685,0 -3,-1.34315 -3,-3 0,-1.65685 1.34315,-3 3,-3 z m 0,1 c -1.10457,0 -2,0.89543 -2,2 0,1.10457 0.89543,2 2,2 1.10457,0 2,-0.89543 2,-2 0,-1.10457 -0.89543,-2 -2,-2 z m 0,1 c 0.55228,0 1,0.44772 1,1 0,0.55228 -0.44772,1 -1,1 -0.55228,0 -1,-0.44772 -1,-1 0,-0.55228 0.44772,-1 1,-1 z" color="#bebebe"/></clipPath><clipPath id="clipPath26" clipPathUnits="userSpaceOnUse"><path id="path28" fill="url(#linearGradient4344-1)" d="m 144.00001,75.999997 c -44.1828,0 -80,35.817203 -80,80.000003 0,44.1828 35.8172,80 80,80 44.1828,0 80,-35.8172 80,-80 0,-44.1828 -35.8172,-80.000003 -80,-80.000003 z m 0,56.607143 c 12.62366,0 22.85714,10.23349 22.85714,22.85714 0,12.62366 -10.23348,22.85714 -22.85714,22.85714 -12.62366,0 -22.85714,-10.23348 -22.85714,-22.85714 0,-12.62365 10.23348,-22.85714 22.85714,-22.85714 z m 0,5.71429 c -9.46771,0 -17.14286,7.67514 -17.14286,17.14285 0,9.46772 7.67515,17.14286 17.14286,17.14286 9.46771,0 17.14286,-7.67514 17.14286,-17.14286 0,-9.46771 -7.67515,-17.14285 -17.14286,-17.14285 z m 0,5.71428 c 6.31183,0 11.42857,5.11674 11.42857,11.42857 0,6.31183 -5.11674,11.42857 -11.42857,11.42857 -6.31183,0 -11.42857,-5.11674 -11.42857,-11.42857 0,-6.31183 5.11674,-11.42857 11.42857,-11.42857 z" color="#bebebe"/></clipPath><clipPath id="clipPath30" clipPathUnits="userSpaceOnUse"><path id="path32" fill="url(#linearGradient4377)" d="m 444,88 c -4.41828,0 -8,3.58172 -8,8 0,4.41828 3.58172,8 8,8 4.41828,0 8,-3.58172 8,-8 0,-4.41828 -3.58172,-8 -8,-8 z m 0,5 c 1.65685,0 3,1.34315 3,3 0,1.65685 -1.34315,3 -3,3 -1.65685,0 -3,-1.34315 -3,-3 0,-1.65685 1.34315,-3 3,-3 z m 0,1 c -1.10457,0 -2,0.89543 -2,2 0,1.10457 0.89543,2 2,2 1.10457,0 2,-0.89543 2,-2 0,-1.10457 -0.89543,-2 -2,-2 z m 0,1 c 0.55228,0 1,0.44772 1,1 0,0.55228 -0.44772,1 -1,1 -0.55228,0 -1,-0.44772 -1,-1 0,-0.55228 0.44772,-1 1,-1 z" color="#bebebe"/></clipPath><clipPath id="clipPath34" clipPathUnits="userSpaceOnUse"><path id="path36" d="m 328,238 c -7.73199,0 -14,6.26801 -14,14 0,7.73199 6.26801,14 14,14 7.73199,0 14,-6.26801 14,-14 0,-7.73199 -6.26801,-14 -14,-14 z m 0,8.75 c 2.89949,0 5.25,2.35051 5.25,5.25 0,2.89949 -2.35051,5.25 -5.25,5.25 -2.89949,0 -5.25,-2.35051 -5.25,-5.25 0,-2.89949 2.35051,-5.25 5.25,-5.25 z m 0,1.75 c -1.933,0 -3.5,1.567 -3.5,3.5 0,1.933 1.567,3.5 3.5,3.5 1.933,0 3.5,-1.567 3.5,-3.5 0,-1.933 -1.567,-3.5 -3.5,-3.5 z m 0,1.75 c 0.96649,0 1.75,0.78351 1.75,1.75 0,0.96649 -0.78351,1.75 -1.75,1.75 -0.96649,0 -1.75,-0.78351 -1.75,-1.75 0,-0.96649 0.78351,-1.75 1.75,-1.75 z" color="#bebebe" opacity=".2"/></clipPath><clipPath id="clipPath38" clipPathUnits="userSpaceOnUse"><path id="path40" fill="url(#radialGradient4225-7)" d="m 328,256 15,11 0,-27 -15,0 z" clip-path="none"/></clipPath><clipPath id="clipPath42" clipPathUnits="userSpaceOnUse"><path id="path44" fill="#b74049" d="m 328,256 15,11 0,-27 -15,0 z" clip-path="url(#clipPath4112)" opacity=".1"/></clipPath><clipPath id="clipPath46" clipPathUnits="userSpaceOnUse"><rect id="rect48" width="22" height="22" x="433" y="77" fill="#6d6d6d" color="#bebebe" opacity=".2" rx="3"/></clipPath><clipPath id="clipPath50" clipPathUnits="userSpaceOnUse"><rect id="rect52" width="30" height="30" x="433" y="29" color="#bebebe" rx="6"/></clipPath><clipPath id="clipPath54" clipPathUnits="userSpaceOnUse"><rect id="rect56" width="16" height="16" x="432" y="116" fill="#6d6d6d" color="#bebebe" opacity=".2" rx="2"/></clipPath><clipPath id="clipPath58" clipPathUnits="userSpaceOnUse"><path id="path60" fill="url(#radialGradient4279)" d="m 451.38843,133.3713 6.42857,4.71429 0,-11.57143 -6.42857,0 z" clip-path="none"/></clipPath><clipPath id="clipPath62" clipPathUnits="userSpaceOnUse"><path id="path64" fill="url(#linearGradient4296)" d="m 451.38843,127.3713 c -3.31371,0 -6,2.68629 -6,6 0,3.31371 2.68629,6 6,6 3.31371,0 6,-2.68629 6,-6 0,-3.31371 -2.68629,-6 -6,-6 z m 0,3 c 1.65685,0 3,1.34315 3,3 0,1.65685 -1.34315,3 -3,3 -1.65685,0 -3,-1.34315 -3,-3 0,-1.65685 1.34315,-3 3,-3 z m 0,1 c -1.10457,0 -2,0.89543 -2,2 0,1.10457 0.89543,2 2,2 1.10457,0 2,-0.89543 2,-2 0,-1.10457 -0.89543,-2 -2,-2 z m 0,1 c 0.55228,0 1,0.44772 1,1 0,0.55228 -0.44772,1 -1,1 -0.55228,0 -1,-0.44772 -1,-1 0,-0.55228 0.44772,-1 1,-1 z" color="#bebebe"/></clipPath><clipPath id="clipPath66" clipPathUnits="userSpaceOnUse"><path id="path68" fill="url(#radialGradient4250)" d="m 328,256 15,11 0,-27 -15,0 z" clip-path="none"/></clipPath><clipPath id="clipPath70" clipPathUnits="userSpaceOnUse"><path id="path72" fill="url(#linearGradient4326-13)" d="m 328,242.09376 c -7.73199,0 -14,6.26801 -14,14 0,7.73199 6.26801,14 14,14 7.73199,0 14,-6.26801 14,-14 0,-7.73199 -6.26801,-14 -14,-14 z m 0,9.90625 c 2.20914,0 4,1.79086 4,4 0,2.20914 -1.79086,4 -4,4 -2.20914,0 -4,-1.79086 -4,-4 0,-2.20914 1.79086,-4 4,-4 z m 0,1 c -1.65685,0 -3,1.34315 -3,3 0,1.65685 1.34315,3 3,3 1.65685,0 3,-1.34315 3,-3 0,-1.65685 -1.34315,-3 -3,-3 z m 0,1 c 1.10457,0 2,0.89543 2,2 0,1.10457 -0.89543,2 -2,2 -1.10457,0 -2,-0.89543 -2,-2 0,-1.10457 0.89543,-2 2,-2 z" color="#bebebe"/></clipPath><clipPath id="clipPath74" clipPathUnits="userSpaceOnUse"><path id="path76" d="m 328,238 c -7.73199,0 -14,6.26801 -14,14 0,7.73199 6.26801,14 14,14 7.73199,0 14,-6.26801 14,-14 0,-7.73199 -6.26801,-14 -14,-14 z m 0,9.90625 c 2.20914,0 4,1.79086 4,4 0,2.20914 -1.79086,4 -4,4 -2.20914,0 -4,-1.79086 -4,-4 0,-2.20914 1.79086,-4 4,-4 z m 0,1 c -1.65685,0 -3,1.34315 -3,3 0,1.65685 1.34315,3 3,3 1.65685,0 3,-1.34315 3,-3 0,-1.65685 -1.34315,-3 -3,-3 z m 0,1 c 1.10457,0 2,0.89543 2,2 0,1.10457 -0.89543,2 -2,2 -1.10457,0 -2,-0.89543 -2,-2 0,-1.10457 0.89543,-2 2,-2 z" color="#bebebe" opacity=".2"/></clipPath><clipPath id="clipPath78" clipPathUnits="userSpaceOnUse"><path id="path80" fill="url(#linearGradient4344)" d="m 144.00001,75.999997 c -44.1828,0 -80,35.817203 -80,80.000003 0,44.1828 35.8172,80 80,80 44.1828,0 80,-35.8172 80,-80 0,-44.1828 -35.8172,-80.000003 -80,-80.000003 z m 0,56.607143 c 12.62366,0 22.85714,10.23349 22.85714,22.85714 0,12.62366 -10.23348,22.85714 -22.85714,22.85714 -12.62366,0 -22.85714,-10.23348 -22.85714,-22.85714 0,-12.62365 10.23348,-22.85714 22.85714,-22.85714 z m 0,5.71429 c -9.46771,0 -17.14286,7.67514 -17.14286,17.14285 0,9.46772 7.67515,17.14286 17.14286,17.14286 9.46771,0 17.14286,-7.67514 17.14286,-17.14286 0,-9.46771 -7.67515,-17.14285 -17.14286,-17.14285 z m 0,5.71428 c 6.31183,0 11.42857,5.11674 11.42857,11.42857 0,6.31183 -5.11674,11.42857 -11.42857,11.42857 -6.31183,0 -11.42857,-5.11674 -11.42857,-11.42857 0,-6.31183 5.11674,-11.42857 11.42857,-11.42857 z" color="#bebebe"/></clipPath><clipPath id="clipPath82" clipPathUnits="userSpaceOnUse"><rect id="rect84" width="20" height="20" x="434" y="78" color="#bebebe" rx="4"/></clipPath><clipPath id="clipPath86" clipPathUnits="userSpaceOnUse"><rect id="rect88" width="60" height="60" x="306" y="142" fill="url(#linearGradient4863)" color="#bebebe" rx="12.5" transform="matrix(0 -1 1 0 0 0)"/></clipPath><clipPath id="clipPath90" clipPathUnits="userSpaceOnUse"><path id="path92" fill="url(#linearGradient4338)" d="m 328,242.09376 c -7.73199,0 -14,6.26801 -14,14 0,7.73199 6.26801,14 14,14 7.73199,0 14,-6.26801 14,-14 0,-7.73199 -6.26801,-14 -14,-14 z m 0,9.90625 c 2.20914,0 4,1.79086 4,4 0,2.20914 -1.79086,4 -4,4 -2.20914,0 -4,-1.79086 -4,-4 0,-2.20914 1.79086,-4 4,-4 z m 0,1 c -1.65685,0 -3,1.34315 -3,3 0,1.65685 1.34315,3 3,3 1.65685,0 3,-1.34315 3,-3 0,-1.65685 -1.34315,-3 -3,-3 z m 0,1 c 1.10457,0 2,0.89543 2,2 0,1.10457 -0.89543,2 -2,2 -1.10457,0 -2,-0.89543 -2,-2 0,-1.10457 0.89543,-2 2,-2 z" color="#bebebe"/></clipPath><clipPath id="clipPath94" clipPathUnits="userSpaceOnUse"><rect id="rect96" width="22" height="22" x="433" y="77" color="#bebebe" rx="5"/></clipPath><clipPath id="clipPath98" clipPathUnits="userSpaceOnUse"><path id="path100" fill="url(#linearGradient4326-13)" d="m 328,242.09376 c -7.73199,0 -14,6.26801 -14,14 0,7.73199 6.26801,14 14,14 7.73199,0 14,-6.26801 14,-14 0,-7.73199 -6.26801,-14 -14,-14 z m 0,9.90625 c 2.20914,0 4,1.79086 4,4 0,2.20914 -1.79086,4 -4,4 -2.20914,0 -4,-1.79086 -4,-4 0,-2.20914 1.79086,-4 4,-4 z m 0,1 c -1.65685,0 -3,1.34315 -3,3 0,1.65685 1.34315,3 3,3 1.65685,0 3,-1.34315 3,-3 0,-1.65685 -1.34315,-3 -3,-3 z m 0,1 c 1.10457,0 2,0.89543 2,2 0,1.10457 -0.89543,2 -2,2 -1.10457,0 -2,-0.89543 -2,-2 0,-1.10457 0.89543,-2 2,-2 z" color="#bebebe"/></clipPath><clipPath id="clipPath102" clipPathUnits="userSpaceOnUse"><rect id="rect104" width="90" height="90" x="307" y="31" fill="url(#linearGradient4825)" color="#bebebe" rx="18.75"/></clipPath><clipPath id="clipPath106" clipPathUnits="userSpaceOnUse"><rect id="rect108" width="42" height="42" x="307" y="223" fill="url(#linearGradient4895)" color="#bebebe" rx="9" transform="rotate(90)"/></clipPath><clipPath id="clipPath110" clipPathUnits="userSpaceOnUse"><path id="path112" fill="url(#linearGradient4227-4)" d="m 440,126 c -3.31371,0 -6,2.68629 -6,6 0,3.31371 2.68629,6 6,6 3.31371,0 6,-2.68629 6,-6 0,-3.31371 -2.68629,-6 -6,-6 z m 0,3 c 1.65685,0 3,1.34315 3,3 0,1.65685 -1.34315,3 -3,3 -1.65685,0 -3,-1.34315 -3,-3 0,-1.65685 1.34315,-3 3,-3 z m 0,1 c -1.10457,0 -2,0.89543 -2,2 0,1.10457 0.89543,2 2,2 1.10457,0 2,-0.89543 2,-2 0,-1.10457 -0.89543,-2 -2,-2 z m 0,1 c 0.55228,0 1,0.44772 1,1 0,0.55228 -0.44772,1 -1,1 -0.55228,0 -1,-0.44772 -1,-1 0,-0.55228 0.44772,-1 1,-1 z" color="#bebebe"/></clipPath><clipPath id="clipPath114" clipPathUnits="userSpaceOnUse"><path id="path116" fill="url(#radialGradient4229-9)" d="m 451.38843,133.3713 6.42857,4.71429 0,-11.57143 -6.42857,0 z" clip-path="none"/></clipPath><clipPath id="clipPath118" clipPathUnits="userSpaceOnUse"><path id="path120" fill="url(#linearGradient4296-69)" d="m 451.38843,127.3713 c -3.31371,0 -6,2.68629 -6,6 0,3.31371 2.68629,6 6,6 3.31371,0 6,-2.68629 6,-6 0,-3.31371 -2.68629,-6 -6,-6 z m 0,3 c 1.65685,0 3,1.34315 3,3 0,1.65685 -1.34315,3 -3,3 -1.65685,0 -3,-1.34315 -3,-3 0,-1.65685 1.34315,-3 3,-3 z m 0,1 c -1.10457,0 -2,0.89543 -2,2 0,1.10457 0.89543,2 2,2 1.10457,0 2,-0.89543 2,-2 0,-1.10457 -0.89543,-2 -2,-2 z m 0,1 c 0.55228,0 1,0.44772 1,1 0,0.55228 -0.44772,1 -1,1 -0.55228,0 -1,-0.44772 -1,-1 0,-0.55228 0.44772,-1 1,-1 z" color="#bebebe"/></clipPath><clipPath id="clipPath122" clipPathUnits="userSpaceOnUse"><rect id="rect124" width="22" height="22" x="433" y="77" color="#bebebe" rx="4"/></clipPath><clipPath id="clipPath126" clipPathUnits="userSpaceOnUse"><path id="path128" fill="url(#linearGradient4338)" d="m 328,242.09376 c -7.73199,0 -14,6.26801 -14,14 0,7.73199 6.26801,14 14,14 7.73199,0 14,-6.26801 14,-14 0,-7.73199 -6.26801,-14 -14,-14 z m 0,9.90625 c 2.20914,0 4,1.79086 4,4 0,2.20914 -1.79086,4 -4,4 -2.20914,0 -4,-1.79086 -4,-4 0,-2.20914 1.79086,-4 4,-4 z m 0,1 c -1.65685,0 -3,1.34315 -3,3 0,1.65685 1.34315,3 3,3 1.65685,0 3,-1.34315 3,-3 0,-1.65685 -1.34315,-3 -3,-3 z m 0,1 c 1.10457,0 2,0.89543 2,2 0,1.10457 -0.89543,2 -2,2 -1.10457,0 -2,-0.89543 -2,-2 0,-1.10457 0.89543,-2 2,-2 z" color="#bebebe"/></clipPath><clipPath id="clipPath4112" clipPathUnits="userSpaceOnUse"><path id="path131" d="m 328,242.09375 c -7.73199,0 -14,6.26801 -14,14 0,7.73199 6.26801,14 14,14 7.73199,0 14,-6.26801 14,-14 0,-7.73199 -6.26801,-14 -14,-14 z M 328,252 c 2.20914,0 4,1.79086 4,4 0,2.20914 -1.79086,4 -4,4 -2.20914,0 -4,-1.79086 -4,-4 0,-2.20914 1.79086,-4 4,-4 z m 0,1 c -1.65685,0 -3,1.34315 -3,3 0,1.65685 1.34315,3 3,3 1.65685,0 3,-1.34315 3,-3 0,-1.65685 -1.34315,-3 -3,-3 z m 0,1 c 1.10457,0 2,0.89543 2,2 0,1.10457 -0.89543,2 -2,2 -1.10457,0 -2,-0.89543 -2,-2 0,-1.10457 0.89543,-2 2,-2 z" color="#bebebe" opacity=".2"/></clipPath><clipPath id="clipPath133" clipPathUnits="userSpaceOnUse"><rect id="rect135" width="30" height="30" x="433" y="29" fill="#6d6d6d" color="#bebebe" opacity=".2" rx="4"/></clipPath><clipPath id="clipPath137" clipPathUnits="userSpaceOnUse"><rect id="rect139" width="30" height="30" x="433" y="29" color="#bebebe" rx="6"/></clipPath><clipPath id="clipPath141" clipPathUnits="userSpaceOnUse"><path id="path143" d="m 328,238 c -7.73199,0 -14,6.26801 -14,14 0,7.73199 6.26801,14 14,14 7.73199,0 14,-6.26801 14,-14 0,-7.73199 -6.26801,-14 -14,-14 z m 0,9.90625 c 2.20914,0 4,1.79086 4,4 0,2.20914 -1.79086,4 -4,4 -2.20914,0 -4,-1.79086 -4,-4 0,-2.20914 1.79086,-4 4,-4 z m 0,1 c -1.65685,0 -3,1.34315 -3,3 0,1.65685 1.34315,3 3,3 1.65685,0 3,-1.34315 3,-3 0,-1.65685 -1.34315,-3 -3,-3 z m 0,1 c 1.10457,0 2,0.89543 2,2 0,1.10457 -0.89543,2 -2,2 -1.10457,0 -2,-0.89543 -2,-2 0,-1.10457 0.89543,-2 2,-2 z" color="#bebebe" opacity=".2"/></clipPath><clipPath id="clipPath145" clipPathUnits="userSpaceOnUse"><rect id="rect147" width="16" height="16" x="432" y="116" color="#bebebe" rx="3"/></clipPath><clipPath id="clipPath149" clipPathUnits="userSpaceOnUse"><rect id="rect151" width="240" height="240" x="24" y="36" fill="#986767" color="#bebebe" rx="50"/></clipPath><clipPath id="clipPath153" clipPathUnits="userSpaceOnUse"><rect id="rect155" width="16" height="16" x="432" y="116" fill="#6d6d6d" color="#bebebe" opacity=".2" rx="2"/></clipPath><clipPath id="clipPath157" clipPathUnits="userSpaceOnUse"><path id="path159" fill="url(#linearGradient4227-3)" d="m 440,126 c -3.31371,0 -6,2.68629 -6,6 0,3.31371 2.68629,6 6,6 3.31371,0 6,-2.68629 6,-6 0,-3.31371 -2.68629,-6 -6,-6 z m 0,3 c 1.65685,0 3,1.34315 3,3 0,1.65685 -1.34315,3 -3,3 -1.65685,0 -3,-1.34315 -3,-3 0,-1.65685 1.34315,-3 3,-3 z m 0,1 c -1.10457,0 -2,0.89543 -2,2 0,1.10457 0.89543,2 2,2 1.10457,0 2,-0.89543 2,-2 0,-1.10457 -0.89543,-2 -2,-2 z m 0,1 c 0.55228,0 1,0.44772 1,1 0,0.55228 -0.44772,1 -1,1 -0.55228,0 -1,-0.44772 -1,-1 0,-0.55228 0.44772,-1 1,-1 z" color="#bebebe"/></clipPath><clipPath id="clipPath161" clipPathUnits="userSpaceOnUse"><rect id="rect163" width="30" height="30" x="433" y="29" fill="#6d6d6d" color="#bebebe" opacity=".2" rx="4"/></clipPath><clipPath id="clipPath165" clipPathUnits="userSpaceOnUse"><rect id="rect167" width="240" height="240" x="24" y="36" fill="#986767" color="#bebebe" rx="50"/></clipPath><clipPath id="clipPath4112-2" clipPathUnits="userSpaceOnUse"><path id="path170" d="m 328,242.09375 c -7.73199,0 -14,6.26801 -14,14 0,7.73199 6.26801,14 14,14 7.73199,0 14,-6.26801 14,-14 0,-7.73199 -6.26801,-14 -14,-14 z M 328,252 c 2.20914,0 4,1.79086 4,4 0,2.20914 -1.79086,4 -4,4 -2.20914,0 -4,-1.79086 -4,-4 0,-2.20914 1.79086,-4 4,-4 z m 0,1 c -1.65685,0 -3,1.34315 -3,3 0,1.65685 1.34315,3 3,3 1.65685,0 3,-1.34315 3,-3 0,-1.65685 -1.34315,-3 -3,-3 z m 0,1 c 1.10457,0 2,0.89543 2,2 0,1.10457 -0.89543,2 -2,2 -1.10457,0 -2,-0.89543 -2,-2 0,-1.10457 0.89543,-2 2,-2 z" color="#bebebe" opacity=".2"/></clipPath><clipPath id="clipPath172" clipPathUnits="userSpaceOnUse"><rect id="rect174" width="22" height="22" x="433" y="77" fill="#6d6d6d" color="#bebebe" opacity=".2" rx="3"/></clipPath><clipPath id="clipPath176" clipPathUnits="userSpaceOnUse"><rect id="rect178" width="20" height="20" x="434" y="78" color="#bebebe" rx="4"/></clipPath><clipPath id="clipPath180" clipPathUnits="userSpaceOnUse"><rect id="rect182" width="42" height="42" x="307" y="223" fill="url(#linearGradient4895-2)" color="#bebebe" rx="9" transform="rotate(90)"/></clipPath><clipPath id="clipPath184" clipPathUnits="userSpaceOnUse"><rect id="rect186" width="60" height="60" x="306" y="142" fill="url(#linearGradient4863-4)" color="#bebebe" rx="12.5" transform="matrix(0 -1 1 0 0 0)"/></clipPath><clipPath id="clipPath188" clipPathUnits="userSpaceOnUse"><rect id="rect190" width="30" height="30" x="433" y="29" color="#bebebe" rx="6"/></clipPath><clipPath id="clipPath192" clipPathUnits="userSpaceOnUse"><rect id="rect194" width="22" height="22" x="433" y="77" color="#bebebe" rx="5"/></clipPath><clipPath id="clipPath196" clipPathUnits="userSpaceOnUse"><rect id="rect198" width="90" height="90" x="307" y="31" fill="url(#linearGradient4825-8)" color="#bebebe" rx="18.75"/></clipPath><clipPath id="clipPath200" clipPathUnits="userSpaceOnUse"><path id="path202" fill="url(#linearGradient4338)" d="m 328,242.09376 c -7.73199,0 -14,6.26801 -14,14 0,7.73199 6.26801,14 14,14 7.73199,0 14,-6.26801 14,-14 0,-7.73199 -6.26801,-14 -14,-14 z m 0,9.90625 c 2.20914,0 4,1.79086 4,4 0,2.20914 -1.79086,4 -4,4 -2.20914,0 -4,-1.79086 -4,-4 0,-2.20914 1.79086,-4 4,-4 z m 0,1 c -1.65685,0 -3,1.34315 -3,3 0,1.65685 1.34315,3 3,3 1.65685,0 3,-1.34315 3,-3 0,-1.65685 -1.34315,-3 -3,-3 z m 0,1 c 1.10457,0 2,0.89543 2,2 0,1.10457 -0.89543,2 -2,2 -1.10457,0 -2,-0.89543 -2,-2 0,-1.10457 0.89543,-2 2,-2 z" color="#bebebe"/></clipPath><clipPath id="clipPath204" clipPathUnits="userSpaceOnUse"><rect id="rect206" width="22" height="22" x="433" y="77" color="#bebebe" rx="5"/></clipPath><clipPath id="clipPath208" clipPathUnits="userSpaceOnUse"><path id="path210" fill="#b74049" d="m 328,256 15,11 0,-27 -15,0 z" clip-path="url(#clipPath4112-2)" opacity=".1"/></clipPath><clipPath id="clipPath212" clipPathUnits="userSpaceOnUse"><rect id="rect214" width="60" height="60" x="306" y="142" fill="url(#linearGradient4863-9)" color="#bebebe" rx="12.5" transform="matrix(0 -1 1 0 0 0)"/></clipPath><clipPath id="clipPath216" clipPathUnits="userSpaceOnUse"><rect id="rect218" width="42" height="42" x="307" y="223" fill="url(#linearGradient4895-0)" color="#bebebe" rx="9" transform="rotate(90)"/></clipPath><clipPath id="clipPath220" clipPathUnits="userSpaceOnUse"><rect id="rect222" width="90" height="90" x="307" y="31" fill="url(#linearGradient4825-6)" color="#bebebe" rx="18.75"/></clipPath><clipPath id="clipPath224" clipPathUnits="userSpaceOnUse"><rect id="rect226" width="30" height="30" x="433" y="29" fill="#6d6d6d" color="#bebebe" opacity=".2" rx="4"/></clipPath><clipPath id="clipPath228" clipPathUnits="userSpaceOnUse"><rect id="rect230" width="22" height="22" x="433" y="77" color="#bebebe" rx="4"/></clipPath><clipPath id="clipPath232" clipPathUnits="userSpaceOnUse"><path id="path234" fill="url(#linearGradient4203-4)" d="m 444,88 c -4.41828,0 -8,3.58172 -8,8 0,4.41828 3.58172,8 8,8 4.41828,0 8,-3.58172 8,-8 0,-4.41828 -3.58172,-8 -8,-8 z m 0,5 c 1.65685,0 3,1.34315 3,3 0,1.65685 -1.34315,3 -3,3 -1.65685,0 -3,-1.34315 -3,-3 0,-1.65685 1.34315,-3 3,-3 z m 0,1 c -1.10457,0 -2,0.89543 -2,2 0,1.10457 0.89543,2 2,2 1.10457,0 2,-0.89543 2,-2 0,-1.10457 -0.89543,-2 -2,-2 z m 0,1 c 0.55228,0 1,0.44772 1,1 0,0.55228 -0.44772,1 -1,1 -0.55228,0 -1,-0.44772 -1,-1 0,-0.55228 0.44772,-1 1,-1 z" color="#bebebe"/></clipPath><clipPath id="clipPath236" clipPathUnits="userSpaceOnUse"><path id="path238" fill="url(#linearGradient4326-1)" d="m 328,242.09376 c -7.73199,0 -14,6.26801 -14,14 0,7.73199 6.26801,14 14,14 7.73199,0 14,-6.26801 14,-14 0,-7.73199 -6.26801,-14 -14,-14 z m 0,9.90625 c 2.20914,0 4,1.79086 4,4 0,2.20914 -1.79086,4 -4,4 -2.20914,0 -4,-1.79086 -4,-4 0,-2.20914 1.79086,-4 4,-4 z m 0,1 c -1.65685,0 -3,1.34315 -3,3 0,1.65685 1.34315,3 3,3 1.65685,0 3,-1.34315 3,-3 0,-1.65685 -1.34315,-3 -3,-3 z m 0,1 c 1.10457,0 2,0.89543 2,2 0,1.10457 -0.89543,2 -2,2 -1.10457,0 -2,-0.89543 -2,-2 0,-1.10457 0.89543,-2 2,-2 z" color="#bebebe"/></clipPath><clipPath id="clipPath240" clipPathUnits="userSpaceOnUse"><rect id="rect242" width="16" height="16" x="432" y="116" color="#bebebe" rx="3"/></clipPath><clipPath id="clipPath244" clipPathUnits="userSpaceOnUse"><rect id="rect246" width="22" height="22" x="433" y="77" color="#bebebe" rx="4"/></clipPath><clipPath id="clipPath248" clipPathUnits="userSpaceOnUse"><path id="path250" fill="url(#radialGradient4225-6)" d="m 328,256 15,11 0,-27 -15,0 z" clip-path="none"/></clipPath><clipPath id="clipPath4112-5" clipPathUnits="userSpaceOnUse"><path id="path253" d="m 328,242.09375 c -7.73199,0 -14,6.26801 -14,14 0,7.73199 6.26801,14 14,14 7.73199,0 14,-6.26801 14,-14 0,-7.73199 -6.26801,-14 -14,-14 z M 328,252 c 2.20914,0 4,1.79086 4,4 0,2.20914 -1.79086,4 -4,4 -2.20914,0 -4,-1.79086 -4,-4 0,-2.20914 1.79086,-4 4,-4 z m 0,1 c -1.65685,0 -3,1.34315 -3,3 0,1.65685 1.34315,3 3,3 1.65685,0 3,-1.34315 3,-3 0,-1.65685 -1.34315,-3 -3,-3 z m 0,1 c 1.10457,0 2,0.89543 2,2 0,1.10457 -0.89543,2 -2,2 -1.10457,0 -2,-0.89543 -2,-2 0,-1.10457 0.89543,-2 2,-2 z" color="#bebebe" opacity=".2"/></clipPath><clipPath id="clipPath255" clipPathUnits="userSpaceOnUse"><path id="path257" fill="url(#radialGradient4229-8)" d="m 451.38843,133.3713 6.42857,4.71429 0,-11.57143 -6.42857,0 z" clip-path="none"/></clipPath><clipPath id="clipPath259" clipPathUnits="userSpaceOnUse"><path id="path261" fill="#b74049" d="m 328,256 15,11 0,-27 -15,0 z" clip-path="url(#clipPath4112-5)" opacity=".1"/></clipPath><clipPath id="clipPath263" clipPathUnits="userSpaceOnUse"><rect id="rect265" width="16" height="16" x="432" y="116" color="#bebebe" rx="3"/></clipPath><clipPath id="clipPath267" clipPathUnits="userSpaceOnUse"><path id="path269" d="m 328,238 c -7.73199,0 -14,6.26801 -14,14 0,7.73199 6.26801,14 14,14 7.73199,0 14,-6.26801 14,-14 0,-7.73199 -6.26801,-14 -14,-14 z m 0,9.90625 c 2.20914,0 4,1.79086 4,4 0,2.20914 -1.79086,4 -4,4 -2.20914,0 -4,-1.79086 -4,-4 0,-2.20914 1.79086,-4 4,-4 z m 0,1 c -1.65685,0 -3,1.34315 -3,3 0,1.65685 1.34315,3 3,3 1.65685,0 3,-1.34315 3,-3 0,-1.65685 -1.34315,-3 -3,-3 z m 0,1 c 1.10457,0 2,0.89543 2,2 0,1.10457 -0.89543,2 -2,2 -1.10457,0 -2,-0.89543 -2,-2 0,-1.10457 0.89543,-2 2,-2 z" color="#bebebe" opacity=".2"/></clipPath><clipPath id="clipPath271" clipPathUnits="userSpaceOnUse"><rect id="rect273" width="16" height="16" x="432" y="116" fill="#6d6d6d" color="#bebebe" opacity=".2" rx="2"/></clipPath><clipPath id="clipPath275" clipPathUnits="userSpaceOnUse"><path id="path277" fill="url(#linearGradient4344-8)" d="m 144.00001,75.999997 c -44.1828,0 -80,35.817203 -80,80.000003 0,44.1828 35.8172,80 80,80 44.1828,0 80,-35.8172 80,-80 0,-44.1828 -35.8172,-80.000003 -80,-80.000003 z m 0,56.607143 c 12.62366,0 22.85714,10.23349 22.85714,22.85714 0,12.62366 -10.23348,22.85714 -22.85714,22.85714 -12.62366,0 -22.85714,-10.23348 -22.85714,-22.85714 0,-12.62365 10.23348,-22.85714 22.85714,-22.85714 z m 0,5.71429 c -9.46771,0 -17.14286,7.67514 -17.14286,17.14285 0,9.46772 7.67515,17.14286 17.14286,17.14286 9.46771,0 17.14286,-7.67514 17.14286,-17.14286 0,-9.46771 -7.67515,-17.14285 -17.14286,-17.14285 z m 0,5.71428 c 6.31183,0 11.42857,5.11674 11.42857,11.42857 0,6.31183 -5.11674,11.42857 -11.42857,11.42857 -6.31183,0 -11.42857,-5.11674 -11.42857,-11.42857 0,-6.31183 5.11674,-11.42857 11.42857,-11.42857 z" color="#bebebe"/></clipPath><clipPath id="clipPath279" clipPathUnits="userSpaceOnUse"><path id="path281" fill="url(#linearGradient4326-1)" d="m 328,242.09376 c -7.73199,0 -14,6.26801 -14,14 0,7.73199 6.26801,14 14,14 7.73199,0 14,-6.26801 14,-14 0,-7.73199 -6.26801,-14 -14,-14 z m 0,9.90625 c 2.20914,0 4,1.79086 4,4 0,2.20914 -1.79086,4 -4,4 -2.20914,0 -4,-1.79086 -4,-4 0,-2.20914 1.79086,-4 4,-4 z m 0,1 c -1.65685,0 -3,1.34315 -3,3 0,1.65685 1.34315,3 3,3 1.65685,0 3,-1.34315 3,-3 0,-1.65685 -1.34315,-3 -3,-3 z m 0,1 c 1.10457,0 2,0.89543 2,2 0,1.10457 -0.89543,2 -2,2 -1.10457,0 -2,-0.89543 -2,-2 0,-1.10457 0.89543,-2 2,-2 z" color="#bebebe"/></clipPath><clipPath id="clipPath283" clipPathUnits="userSpaceOnUse"><rect id="rect285" width="22" height="22" x="433" y="77" fill="#6d6d6d" color="#bebebe" opacity=".2" rx="3"/></clipPath><clipPath id="clipPath287" clipPathUnits="userSpaceOnUse"><rect id="rect289" width="240" height="240" x="24" y="36" fill="#986767" color="#bebebe" rx="50"/></clipPath><clipPath id="clipPath291" clipPathUnits="userSpaceOnUse"><path id="path293" fill="url(#linearGradient4326-1)" d="m 328,242.09376 c -7.73199,0 -14,6.26801 -14,14 0,7.73199 6.26801,14 14,14 7.73199,0 14,-6.26801 14,-14 0,-7.73199 -6.26801,-14 -14,-14 z m 0,9.90625 c 2.20914,0 4,1.79086 4,4 0,2.20914 -1.79086,4 -4,4 -2.20914,0 -4,-1.79086 -4,-4 0,-2.20914 1.79086,-4 4,-4 z m 0,1 c -1.65685,0 -3,1.34315 -3,3 0,1.65685 1.34315,3 3,3 1.65685,0 3,-1.34315 3,-3 0,-1.65685 -1.34315,-3 -3,-3 z m 0,1 c 1.10457,0 2,0.89543 2,2 0,1.10457 -0.89543,2 -2,2 -1.10457,0 -2,-0.89543 -2,-2 0,-1.10457 0.89543,-2 2,-2 z" color="#bebebe"/></clipPath><clipPath id="clipPath295" clipPathUnits="userSpaceOnUse"><path id="path297" d="m 328,238 c -7.73199,0 -14,6.26801 -14,14 0,7.73199 6.26801,14 14,14 7.73199,0 14,-6.26801 14,-14 0,-7.73199 -6.26801,-14 -14,-14 z m 0,8.75 c 2.89949,0 5.25,2.35051 5.25,5.25 0,2.89949 -2.35051,5.25 -5.25,5.25 -2.89949,0 -5.25,-2.35051 -5.25,-5.25 0,-2.89949 2.35051,-5.25 5.25,-5.25 z m 0,1.75 c -1.933,0 -3.5,1.567 -3.5,3.5 0,1.933 1.567,3.5 3.5,3.5 1.933,0 3.5,-1.567 3.5,-3.5 0,-1.933 -1.567,-3.5 -3.5,-3.5 z m 0,1.75 c 0.96649,0 1.75,0.78351 1.75,1.75 0,0.96649 -0.78351,1.75 -1.75,1.75 -0.96649,0 -1.75,-0.78351 -1.75,-1.75 0,-0.96649 0.78351,-1.75 1.75,-1.75 z" color="#bebebe" opacity=".2"/></clipPath><clipPath id="clipPath299" clipPathUnits="userSpaceOnUse"><rect id="rect301" width="20" height="20" x="434" y="78" color="#bebebe" rx="4"/></clipPath><linearGradient id="linearGradient4344-8" x2="0" y1="273" y2="231" gradientTransform="matrix(5.71429 0 0 5.71429 -1730.2857 -1284)" gradientUnits="userSpaceOnUse" xlink:href="#linearGradient4174-3"/><linearGradient id="linearGradient4296-6" x2="0" y1="140" y2="124" gradientTransform="translate(11.38843 1.3713)" gradientUnits="userSpaceOnUse" xlink:href="#linearGradient4174-3"/><linearGradient id="linearGradient4227-4" x2="0" y1="140" y2="124" gradientUnits="userSpaceOnUse" xlink:href="#linearGradient4174-6"/><linearGradient id="linearGradient4306" x2="0" y1="140" y2="124" gradientUnits="userSpaceOnUse" xlink:href="#linearGradient4174"/><linearGradient id="linearGradient4338" x2="0" y1="273" y2="231" gradientTransform="translate(0 4.09376)" gradientUnits="userSpaceOnUse" xlink:href="#linearGradient4174"/><linearGradient id="linearGradient4203-6" x2="0" y1="107" y2="85" gradientUnits="userSpaceOnUse" xlink:href="#linearGradient4174-6"/><linearGradient id="linearGradient4895" x2="0" y1="280" y2="40" gradientTransform="matrix(.175 0 0 .175 302.79999 215.99997)" gradientUnits="userSpaceOnUse" xlink:href="#outerBackgroundGradient"/><linearGradient id="linearGradient4296" x2="0" y1="140" y2="124" gradientTransform="translate(11.38843 1.3713)" gradientUnits="userSpaceOnUse" xlink:href="#linearGradient4174"/><linearGradient id="linearGradient4203-4" x2="0" y1="107" y2="85" gradientUnits="userSpaceOnUse" xlink:href="#linearGradient4174-3"/><linearGradient id="linearGradient4178" x1="0" x2="38" gradientTransform="matrix(0 -.31193 .31193 0 .84666 12.7)" gradientUnits="userSpaceOnUse" xlink:href="#linearGradient4153"/><linearGradient id="linearGradient4126-5-6"><stop id="stop314" offset="0" stop-color="#eaba31"/><stop id="stop316" offset="1" stop-color="#ff9200"/></linearGradient><linearGradient id="linearGradient4863-9" x2="0" y1="230" y2="90" gradientTransform="matrix(.25 0 0 .25 299.99999 131.99999)" gradientUnits="userSpaceOnUse" xlink:href="#outerBackgroundGradient-7"/><linearGradient id="outerBackgroundGradient-7"><stop id="stop320" offset="0" stop-color="#f0f0f0"/><stop id="stop322" offset="1" stop-color="#f8f8f8"/></linearGradient><linearGradient id="linearGradient4174-3"><stop id="stop325" offset="0" stop-color="#818181"/><stop id="stop327" offset="1" stop-color="#c5c5c5"/></linearGradient><linearGradient id="linearGradient4326-1" x2="0" y1="273" y2="231" gradientTransform="translate(0 4.09376)" gradientUnits="userSpaceOnUse" xlink:href="#linearGradient4174-3"/><linearGradient id="linearGradient4863" x2="0" y1="230" y2="90" gradientTransform="matrix(.25 0 0 .25 299.99999 131.99999)" gradientUnits="userSpaceOnUse" xlink:href="#outerBackgroundGradient"/><linearGradient id="linearGradient4825-8" x2="0" y1="230" y2="90" gradientTransform="matrix(.375 0 0 .375 298 16)" gradientUnits="userSpaceOnUse" xlink:href="#outerBackgroundGradient-7"/><linearGradient id="linearGradient4153"><stop id="stop333" offset="0" stop-color="#2d2d2d"/><stop id="stop335" offset="1" stop-color="#4b4b4b"/></linearGradient><linearGradient id="linearGradient4895-2" x2="0" y1="280" y2="40" gradientTransform="matrix(.175 0 0 .175 302.79999 215.99997)" gradientUnits="userSpaceOnUse" xlink:href="#outerBackgroundGradient-77"/><linearGradient id="linearGradient4825-6" x2="0" y1="230" y2="90" gradientTransform="matrix(.375 0 0 .375 298 16)" gradientUnits="userSpaceOnUse" xlink:href="#outerBackgroundGradient-77"/><linearGradient id="linearGradient4326-13" x2="0" y1="273" y2="231" gradientTransform="translate(0 4.09376)" gradientUnits="userSpaceOnUse" xlink:href="#linearGradient4174-6"/><linearGradient id="linearGradient4344" x2="0" y1="273" y2="231" gradientTransform="matrix(5.71429 0 0 5.71429 -1730.2857 -1284)" gradientUnits="userSpaceOnUse" xlink:href="#linearGradient4174"/><linearGradient id="outerBackgroundGradient-77"><stop id="stop342" offset="0" stop-color="#f0f0f0"/><stop id="stop344" offset="1" stop-color="#f8f8f8"/></linearGradient><linearGradient id="linearGradient4187" x1="24" x2="32.651" y1="24" y2="13" gradientTransform="matrix(.28222 0 0 .28222 .01435 -.0287)" gradientUnits="userSpaceOnUse" xlink:href="#linearGradient4126-5"/><linearGradient id="linearGradient4296-69" x2="0" y1="140" y2="124" gradientTransform="translate(11.38843 1.3713)" gradientUnits="userSpaceOnUse" xlink:href="#linearGradient4174-6"/><linearGradient id="linearGradient4863-4" x2="0" y1="230" y2="90" gradientTransform="matrix(.25 0 0 .25 299.99999 131.99999)" gradientUnits="userSpaceOnUse" xlink:href="#outerBackgroundGradient-77"/><linearGradient id="linearGradient4126-5-5"><stop id="stop350" offset="0" stop-color="#eaba31"/><stop id="stop352" offset="1" stop-color="#ff9200"/></linearGradient><linearGradient id="linearGradient4174"><stop id="stop355" offset="0" stop-color="#818181"/><stop id="stop357" offset="1" stop-color="#c5c5c5"/></linearGradient><linearGradient id="linearGradient4174-6"><stop id="stop360" offset="0" stop-color="#818181"/><stop id="stop362" offset="1" stop-color="#c5c5c5"/></linearGradient><linearGradient id="linearGradient4377" x2="0" y1="107" y2="85" gradientUnits="userSpaceOnUse" xlink:href="#linearGradient4174"/><linearGradient id="linearGradient4825" x2="0" y1="230" y2="90" gradientTransform="matrix(.375 0 0 .375 298 16)" gradientUnits="userSpaceOnUse" xlink:href="#outerBackgroundGradient"/><linearGradient id="linearGradient4344-1" x2="0" y1="273" y2="231" gradientTransform="matrix(5.71429 0 0 5.71429 -1730.2857 -1284)" gradientUnits="userSpaceOnUse" xlink:href="#linearGradient4174-6"/><linearGradient id="linearGradient4895-0" x2="0" y1="280" y2="40" gradientTransform="matrix(.175 0 0 .175 302.79999 215.99997)" gradientUnits="userSpaceOnUse" xlink:href="#outerBackgroundGradient-7"/><linearGradient id="linearGradient4227-3" x2="0" y1="140" y2="124" gradientUnits="userSpaceOnUse" xlink:href="#linearGradient4174-3"/><linearGradient id="outerBackgroundGradient"><stop id="stop370" offset="0" stop-color="#f0f0f0"/><stop id="stop372" offset="1" stop-color="#f8f8f8"/></linearGradient><linearGradient id="linearGradient4126-5"><stop id="stop375" offset="0" stop-color="#eaba31"/><stop id="stop377" offset="1" stop-color="#ff9200"/></linearGradient><radialGradient id="radialGradient4250" cx="328" cy="255.416" r="7" gradientTransform="matrix(2.85714 0 0 2.85714 -609.14349 -473.66662)" gradientUnits="userSpaceOnUse" xlink:href="#linearGradient4126-5"/><radialGradient id="radialGradient4225-7" cx="328" cy="255.416" r="7" gradientTransform="matrix(2.85714 0 0 2.85714 -609.14349 -473.66662)" gradientUnits="userSpaceOnUse" xlink:href="#linearGradient4126-5-5"/><radialGradient id="radialGradient4279" cx="328" cy="255.416" r="7" gradientTransform="matrix(1.22449 0 0 1.22449 49.7555 -179.34296)" gradientUnits="userSpaceOnUse" xlink:href="#linearGradient4126-5"/><radialGradient id="radialGradient4229-9" cx="328" cy="255.416" r="7" gradientTransform="matrix(1.22449 0 0 1.22449 49.7555 -179.34296)" gradientUnits="userSpaceOnUse" xlink:href="#linearGradient4126-5-5"/><radialGradient id="radialGradient4229-8" cx="328" cy="255.416" r="7" gradientTransform="matrix(1.22449 0 0 1.22449 49.7555 -179.34296)" gradientUnits="userSpaceOnUse" xlink:href="#linearGradient4126-5-6"/><radialGradient id="radialGradient4225-6" cx="328" cy="255.416" r="7" gradientTransform="matrix(2.85714 0 0 2.85714 -609.14349 -473.66662)" gradientUnits="userSpaceOnUse" xlink:href="#linearGradient4126-5-6"/><linearGradient id="B" x2="0" y1="1050.36" y2="1006.36" gradientTransform="translate(-78.066775,-887.05181)" gradientUnits="userSpaceOnUse" xlink:href="#0"/><linearGradient id="0"><stop id="stop7" stop-color="#c34141"/><stop id="stop9" offset="1" stop-color="#d76464"/></linearGradient><linearGradient id="linearGradient3243" x2="0" y1="1050.36" y2="1006.36" gradientTransform="matrix(0.28222223,0,0,0.28222223,6.7059175e-7,-283.45335)" gradientUnits="userSpaceOnUse" xlink:href="#linearGradient4153"/><radialGradient id="radialGradient3030" cx="148.004" cy="160" r="128" gradientTransform="matrix(0.05167489,0,0,0.05167489,-0.87511191,-1.4947562)" gradientUnits="userSpaceOnUse" xlink:href="#radial0"/><radialGradient id="radial0" cx="148.004" cy="160" r="128" gradientTransform="matrix(0.1831,0,0,0.1831,-3.10029,-5.29688)" gradientUnits="userSpaceOnUse"><stop id="stop7-2" offset="0" stop-color="#a4d0d6"/><stop id="stop9-7" offset="1" stop-color="#0a8797"/></radialGradient><radialGradient id="radialGradient3013" cx="148.004" cy="160" r="128" gradientTransform="matrix(0.05167489,0,0,0.05167489,-0.87511191,-1.4947562)" gradientUnits="userSpaceOnUse" xlink:href="#radial0"/></defs><path id="path11" fill="url(#radialGradient3013)" d="m 13.387776,3.2589259 0,7.0290971 c 0,2.892778 0,3.100035 -3.100035,3.100035 l -7.0279952,0 c -3.10113691,0 -3.10113691,-0.207257 -3.10113691,-3.100035 l 0,-7.0290971 c 0,-2.89277783 0,-3.10003483 3.10113691,-3.10003483 l 7.0279952,0 c 3.100035,0 3.100035,0.207257 3.100035,3.10003483 z"/><g id="g15" fill="#fff" transform="matrix(0.28222223,0,0,0.28222223,-1.4110721e-4,1.4107158e-4)"><path id="path17" fill-opacity=".051" d="m 38.265625,47.4375 c 2.542969,-0.01172 4.378906,-0.08203 5.710937,-0.441406 l -4.230468,-7.25 -4.484375,7.691406 1.191406,0 c 0.640625,0 1.242187,0 1.8125,0 z m 1.480469,-7.691406 -5.125,-8.789063 -5.128906,8.789063 z m 0,0 7.652344,0 c 0.03125,-0.972656 0.03906,-2.0625 0.03906,-3.296875 l 0,-1.097657 -2.5625,-4.394531 z m 5.128906,-8.789063 -5.128906,-8.789062 -5.125,8.789062 z m 0,0 2.5625,0 0,-4.394531 z m -10.253906,0 -5.128906,-8.789062 -5.125,8.789062 z m -10.253906,0 -5.128907,8.789063 10.253907,0 z m 0,0 -5.128907,-8.789062 -5.125,8.789062 z m -10.253907,0 -5.128906,8.789063 10.253906,0 z m 0,0 -5.128906,-8.789062 -5.125,8.789062 z m -10.253906,0 -3.296875,5.648438 c 0,1.167969 0.011719,2.210937 0.039062,3.140625 l 8.382813,0 z m 0,0 -3.296875,-5.648437 0,5.648437 z m 5.125,8.789063 -4.3125,7.394531 c 1.597656,0.292969 3.808594,0.296875 6.878906,0.296875 l 1.921875,0 z m 0,-17.578125 -5.125,-8.789063 -3.296875,5.648438 0,3.140625 z m 0,0 10.253906,0 -5.125,-8.789063 z m 5.128906,-8.789063 -5.128906,-8.789062 -5.125,8.789062 z m 0,0 10.253907,0 -5.128907,-8.789062 z m 5.125,-8.789062 -2.351562,-4.027344 -5.339844,0 c -0.07422,0 -0.136719,0 -0.210937,0 L 8.984375,4.589844 z m 0,0 10.253907,0 -2.351563,-4.027344 -5.550781,0 z m 10.253907,0 10.253906,0 L 37.394531,0.5625 c -0.3125,0 -0.609375,0 -0.945312,0 l -4.605469,0 z m 0,0 -5.125,8.789062 10.253906,0 z m 5.128906,8.789062 10.253906,0 -5.128906,-8.789062 z m 0,0 -5.128906,8.789063 10.253906,0 z m 5.125,8.789063 7.691406,0 0,-4.394531 -2.5625,-4.394532 z m 5.128906,-8.789063 2.5625,0 0,-1.832031 c 0,-0.914063 -0.0078,-1.75 -0.02344,-2.523437 z m -15.382812,8.789063 -5.125,-8.789063 -5.128907,8.789063 z m 10.253906,-17.578125 7.308594,0 C 46.5,1.832031 45.167969,0.960938 42.023438,0.6875 z m -30.761719,0 L 6.679688,0.636719 C 3.019531,0.84375 1.539062,1.632812 0.945312,4.589844 z m -5.125,8.789062 L 0.621094,7.824219 C 0.578125,8.898438 0.5625,10.132812 0.5625,11.546875 l 0,1.832031 z m 15.378906,26.367188 -4.484375,7.691406 8.972656,0 z m 10.253907,0 -4.484376,7.691406 8.972657,0 z M 2.59375,46.367188 0.992188,43.621094 c 0.292968,1.316406 0.785156,2.179687 1.601562,2.746094 z"/></g><path id="path3199" fill="#f9f9f9" fill-opacity="1" stroke="none" d="M 24 11 C 22.567784 11 21.210954 11.258495 19.9375 11.71875 C 20.584782 12.269029 21 13.083857 21 14 C 21 15.656854 19.656854 17 18 17 C 16.664161 17 15.544721 16.112923 15.15625 14.90625 C 13.994132 16.17553 13.097993 17.696907 12.5625 19.375 C 12.990464 19.139921 13.477246 19 14 19 C 15.656854 19 17 20.343146 17 22 C 17 23.656854 15.656854 25 14 25 C 13.259289 25 12.585835 24.726156 12.0625 24.28125 C 12.434432 27.763846 14.296492 30.805841 17 32.75 L 17 35.21875 C 17 36.200246 17.799754 37 18.78125 37 L 29.21875 37 C 30.200246 37 31 36.200246 31 35.21875 L 31 32.75 C 33.703508 30.805841 35.565568 27.763846 35.9375 24.28125 C 35.414166 24.726155 34.740711 25 34 25 C 32.343146 25 31 23.656854 31 22 C 31 20.343146 32.343146 19 34 19 C 34.522754 19 35.009537 19.139922 35.4375 19.375 C 34.903543 17.69334 34.007714 16.177572 32.84375 14.90625 C 32.455279 16.112923 31.335839 17 30 17 C 28.343146 17 27 15.656854 27 14 C 27 13.083857 27.415218 12.269029 28.0625 11.71875 C 26.794812 11.261951 25.424798 11 24 11 z M 30.71875 13.0625 C 31.044424 13.282835 31.354537 13.530945 31.65625 13.78125 C 31.355071 13.530812 31.04372 13.282966 30.71875 13.0625 z M 24 17 C 25.656854 17 27 18.343146 27 20 C 27 21.656854 25.656854 23 24 23 C 22.343146 23 21 21.656854 21 20 C 21 18.343146 22.343146 17 24 17 z M 20 25 L 22 25 L 22 30 L 20 30 L 20 25 z M 26 25 L 28 25 L 28 30 L 26 30 L 26 25 z M 21 33 C 22.999999 34.325928 24.999999 34.333246 27 33 L 27 34 C 24.999999 35.329896 22.999999 35.326271 21 34 L 21 33 z" transform="scale(0.28222223,0.28222223)"/></svg>