<?xml version="1.0" encoding="UTF-8" standalone="no"?>
<svg
   xmlns:dc="http://purl.org/dc/elements/1.1/"
   xmlns:cc="http://creativecommons.org/ns#"
   xmlns:rdf="http://www.w3.org/1999/02/22-rdf-syntax-ns#"
   xmlns:svg="http://www.w3.org/2000/svg"
   xmlns="http://www.w3.org/2000/svg"
   xmlns:xlink="http://www.w3.org/1999/xlink"
   xmlns:sodipodi="http://sodipodi.sourceforge.net/DTD/sodipodi-0.dtd"
   xmlns:inkscape="http://www.inkscape.org/namespaces/inkscape"
   width="48"
   height="48"
   viewBox="0 0 48 48"
   id="svg2"
   version="1.1"
   inkscape:version="0.48.4 r9939"
   sodipodi:docname="application-x-clementine.svg">
  <defs
     id="defs3019">
    <clipPath
       clipPathUnits="userSpaceOnUse"
       id="clipPath3041">
      <use
         x="0"
         y="0"
         xlink:href="#path11"
         id="use3043"
         transform="matrix(0.28222223,0,0,0.28222223,2.7778102,-1.7078072)"
         width="1"
         height="1" />
    </clipPath>
    <linearGradient
       xlink:href="#2"
       id="4"
       y1="34"
       x2="0"
       y2="19"
       gradientUnits="userSpaceOnUse"
       gradientTransform="translate(2.4803149e-6,0)" />
    <linearGradient
       id="2">
      <stop
         id="stop4941" />
      <stop
         offset="1"
         stop-opacity="0"
         id="stop4943" />
    </linearGradient>
    <linearGradient
       xlink:href="#1"
       id="3"
       y1="34"
       x2="0"
       y2="50"
       gradientUnits="userSpaceOnUse" />
    <linearGradient
       id="1">
      <stop
         stop-color="#ffffff"
         id="stop4936" />
      <stop
         offset="1"
         stop-color="#ffffff"
         stop-opacity="0"
         id="stop4938" />
    </linearGradient>
  </defs>
  <metadata
     id="metadata35">
    <rdf:RDF>
      <cc:Work
         rdf:about="">
        <dc:format>image/svg+xml</dc:format>
        <dc:type
           rdf:resource="http://purl.org/dc/dcmitype/StillImage" />
        <dc:title></dc:title>
      </cc:Work>
    </rdf:RDF>
  </metadata>
  <sodipodi:namedview
     pagecolor="#ffffff"
     bordercolor="#666666"
     borderopacity="1"
     objecttolerance="10"
     gridtolerance="10"
     guidetolerance="10"
     inkscape:pageopacity="0"
     inkscape:pageshadow="2"
     inkscape:window-width="1024"
     inkscape:window-height="692"
     id="namedview33"
     showgrid="false"
     inkscape:zoom="4.9166667"
     inkscape:cx="13.152843"
     inkscape:cy="19.579923"
     inkscape:window-x="0"
     inkscape:window-y="24"
     inkscape:window-maximized="1"
     inkscape:current-layer="svg2" />
  <path
     fill="#808080"
     d="M 47.4375 11.546875 L 47.4375 36.453125 C 47.4375 46.703125 47.4375 47.4375 36.453125 47.4375 L 11.550781 47.4375 C 0.5625 47.4375 0.5625 46.703125 0.5625 36.453125 L 0.5625 11.546875 C 0.5625 1.296875 0.5625 0.5625 11.550781 0.5625 L 36.453125 0.5625 C 47.4375 0.5625 47.4375 1.296875 47.4375 11.546875 Z "
     id="path11"
     style="fill:#c49a6c;fill-opacity:1" />
  <path
     inkscape:connector-curvature="0"
     id="path15"
     d="m 38.265625,47.4375 c 2.542969,-0.01172 4.378906,-0.08203 5.710937,-0.441406 l -4.230468,-7.25 -4.484375,7.691406 1.191406,0 c 0.640625,0 1.242187,0 1.8125,0 z m 1.480469,-7.691406 -5.125,-8.789063 -5.128906,8.789063 z m 0,0 7.652344,0 c 0.03125,-0.972656 0.03906,-2.0625 0.03906,-3.296875 l 0,-1.097657 -2.5625,-4.394531 z m 5.128906,-8.789063 -5.128906,-8.789062 -5.125,8.789062 z m 0,0 2.5625,0 0,-4.394531 z m -10.253906,0 -5.128906,-8.789062 -5.125,8.789062 z m -10.253906,0 -5.128907,8.789063 10.253907,0 z m 0,0 -5.128907,-8.789062 -5.125,8.789062 z m -10.253907,0 -5.128906,8.789063 10.253906,0 z m 0,0 -5.128906,-8.789062 -5.125,8.789062 z m -10.253906,0 -3.296875,5.648438 c 0,1.167969 0.011719,2.210937 0.039062,3.140625 l 8.382813,0 z m 0,0 -3.296875,-5.648437 0,5.648437 z m 5.125,8.789063 -4.3125,7.394531 c 1.597656,0.292969 3.808594,0.296875 6.878906,0.296875 l 1.921875,0 z m 0,-17.578125 -5.125,-8.789063 -3.296875,5.648438 0,3.140625 z m 0,0 10.253906,0 -5.125,-8.789063 z m 5.128906,-8.789063 -5.128906,-8.789062 -5.125,8.789062 z m 0,0 10.253907,0 -5.128907,-8.789062 z m 5.125,-8.789062 -2.351562,-4.027344 -5.335938,0 c -0.07813,0 -0.140625,0 -0.214843,0 L 8.984375,4.589844 z m 0,0 10.253907,0 -2.351563,-4.027344 -5.550781,0 z m 10.253907,0 10.253906,0 L 37.394531,0.5625 c -0.3125,0 -0.609375,0 -0.941406,0 l -4.609375,0 z m 0,0 -5.125,8.789062 10.253906,0 z m 5.128906,8.789062 10.253906,0 -5.128906,-8.789062 z m 0,0 -5.128906,8.789063 10.253906,0 z m 5.125,8.789063 7.691406,0 0,-4.394531 -2.5625,-4.394532 z m 5.128906,-8.789063 2.5625,0 0,-1.832031 c 0,-0.914063 -0.0078,-1.75 -0.02344,-2.523437 z m -15.382812,8.789063 -5.125,-8.789063 -5.128907,8.789063 z m 10.253906,-17.578125 7.308594,0 C 46.5,1.832031 45.167969,0.960938 42.023438,0.6875 z m -30.761719,0 L 6.679688,0.636719 C 3.019531,0.84375 1.539062,1.632812 0.945312,4.589844 z m -5.125,8.789062 L 0.621094,7.824219 C 0.578125,8.898438 0.5625,10.132812 0.5625,11.546875 l 0,1.832031 z m 15.378906,26.367188 -4.484375,7.691406 8.972656,0 z m 10.253907,0 -4.484376,7.691406 8.972657,0 z M 2.59375,46.367188 0.992188,43.621094 c 0.292968,1.316406 0.785156,2.179687 1.601562,2.746094 z"
     style="fill:#ffffff;fill-opacity:0.09803922" />
  <g
     style="fill:#f9f9f9;fill-opacity:1"
     transform="matrix(3.543307,0,0,3.543307,19.524936,22.455156)"
     id="g25">
    <use
       height="1052.3622"
       width="744.09448"
       y="0"
       x="0"
       transform="matrix(0.14111,0,0,0.19349,3.66889,3.10559)"
       xlink:href="#2"
       id="use27"
       style="fill:#f9f9f9;fill-opacity:1" />
    <use
       height="1052.3622"
       width="744.09448"
       y="0"
       x="0"
       transform="matrix(0.21167,0,0,0.29024,1.27,-0.98607)"
       xlink:href="#2"
       id="use29"
       style="fill:#f9f9f9;fill-opacity:1" />
    <use
       height="1052.3622"
       width="744.09448"
       y="0"
       x="0"
       transform="matrix(0.28222,0,0,0.38698,-0.28222,-5.35994)"
       xlink:href="#2"
       id="use31"
       style="fill:#f9f9f9;fill-opacity:1" />
    <use
       height="1052.3622"
       width="744.09448"
       y="0"
       x="0"
       transform="matrix(0.42333,0,0,0.58047,-4.23333,-14.38991)"
       xlink:href="#2"
       id="use33"
       style="fill:#f9f9f9;fill-opacity:1" />
    <use
       height="1052.3622"
       width="744.09448"
       y="0"
       x="0"
       transform="matrix(0.35278,0,0,0.48373,-2.96333,-9.73381)"
       xlink:href="#2"
       id="use35"
       style="fill:#f9f9f9;fill-opacity:1" />
  </g>
  <rect
     style="fill:#c49a6c;fill-opacity:1;stroke:#f9f9f9;stroke-width:0.5;stroke-miterlimit:4;stroke-opacity:1;stroke-dasharray:none"
     width="30.001181"
     height="9.9992123"
     x="8.9999981"
     y="11.001574"
     id="rect4951" />
  <path
     style="fill:#f9f9f9;fill-opacity:1"
     inkscape:connector-curvature="0"
     d="M 8.9999995,11 11.999999,14 11.333332,16.999999 8.9999995,18 z"
     id="path4953" />
  <path
     style="fill:#c49a6c;fill-opacity:1"
     inkscape:connector-curvature="0"
     d="m 7.9999985,19 4.0000005,0 0,-0.714286 c 0,-1.190476 0,-6.491671 0,-4.285714 l -4.0000005,4 z"
     id="path4955" />
  <path
     style="fill:#f9f9f9;fill-opacity:1"
     inkscape:connector-curvature="0"
     d="m 38.999999,11 -3.000002,3 0.666666,3 2.333336,1 z"
     id="path4957" />
  <path
     style="fill:#c49a6c;fill-opacity:1"
     inkscape:connector-curvature="0"
     d="m 39.999994,19 -3.999997,0 0,-0.714286 c 0,-1.190476 0,-6.49167 0,-4.285714 l 4.000002,3.928572 z"
     id="path4959" />
  <path
     style="fill:#f9f9f9;fill-opacity:1"
     inkscape:connector-curvature="0"
     d="m 7.9999985,18 0,14.672699 c 3.8455645,4.587746 9.5765305,7.3273 16.0000005,7.3273 6.423469,0 12.154438,-2.756895 16,-7.344641 l 0,-14.655358 z"
     id="path4961" />
  <path
     style="fill:#c49a6c;fill-opacity:1"
     inkscape:connector-curvature="0"
     d="m 14.999999,25 c 4,15.333332 14.999999,15.333332 19,0 0.210156,-1.341503 -0.711036,-1.367773 -1,0 -3.000001,14 -14,14 -17,0 -0.183887,-1.315234 -1.183887,-1.262695 -1,0 z"
     id="path4966" />
  <path
     style="opacity:0.06000001;fill:#f9f9f9;fill-opacity:1"
     inkscape:connector-curvature="0"
     d="m 7.9999985,29 0,3.6875 C 11.845563,37.275246 17.576529,40 23.999999,40 c 6.423469,0 12.154438,-2.756004 16,-7.34375 l 0,-3.65625 -32.0000005,0 z"
     id="path4968" />
  <path
     sodipodi:type="arc"
     style="fill:#c49a6c;fill-opacity:1;stroke:#c49a6c;stroke-width:0.36610168;stroke-miterlimit:4;stroke-opacity:1;stroke-dasharray:none"
     id="path5650"
     sodipodi:cx="20.745762"
     sodipodi:cy="23.491526"
     sodipodi:rx="0.91525424"
     sodipodi:ry="0.91525424"
     d="m 21.661016,23.491526 a 0.91525424,0.91525424 0 1 1 -1.830508,0 0.91525424,0.91525424 0 1 1 1.830508,0 z"
     transform="matrix(1.3657407,0,0,1.3657408,-12.833332,-7.5843338)" />
  <path
     sodipodi:type="arc"
     style="fill:#c49a6c;fill-opacity:1;stroke:#c49a6c;stroke-width:0.36610168;stroke-miterlimit:4;stroke-opacity:1;stroke-dasharray:none"
     id="path5650-0"
     sodipodi:cx="20.745762"
     sodipodi:cy="23.491526"
     sodipodi:rx="0.91525424"
     sodipodi:ry="0.91525424"
     d="m 21.661016,23.491526 a 0.91525424,0.91525424 0 1 1 -1.830508,0 0.91525424,0.91525424 0 1 1 1.830508,0 z"
     transform="matrix(1.3657408,0,0,1.3657408,5.1666676,-7.5843349)" />
</svg>
