<svg xmlns="http://www.w3.org/2000/svg" xmlns:svg="http://www.w3.org/2000/svg" xmlns:xlink="http://www.w3.org/1999/xlink" id="svg2" width="48" height="48" version="1.1" viewBox="0 0 13.547 13.547"><metadata id="metadata32"/><defs id="defs4"><linearGradient id="0"><stop id="stop7" stop-color="#2d2d2d"/><stop id="stop9" offset="1" stop-color="#515151"/></linearGradient><linearGradient id="1" x2="0" y1="1050.36" y2="1006.36" gradientTransform="matrix(0.28222223,0,0,0.28222223,0,-283.45334)" gradientUnits="userSpaceOnUse" xlink:href="#0"/><radialGradient id="radialGradient3008" cx="148.004" cy="160" r="128" gradientTransform="matrix(0.05167489,0,0,0.05167489,-0.87511151,-1.4947562)" gradientUnits="userSpaceOnUse" xlink:href="#radial0"/><radialGradient id="radial0" cx="148.004" cy="160" r="128" gradientTransform="matrix(0.1831,0,0,0.1831,-3.10029,-5.29688)" gradientUnits="userSpaceOnUse"><stop id="stop7-6" offset="0" stop-color="#d58ca3"/><stop id="stop9-7" offset="1" stop-color="#701231"/></radialGradient><radialGradient id="radialGradient3044" cx="148.004" cy="160" r="128" gradientTransform="matrix(0.05167489,0,0,0.05167489,-0.87511151,-1.4947558)" gradientUnits="userSpaceOnUse" xlink:href="#radial0"/></defs><path id="path11" fill="url(#radialGradient3044)" d="m 13.387776,3.2589263 0,7.0290977 c 0,2.892777 0,3.100034 -3.100035,3.100034 l -7.0279944,0 c -3.10113731,0 -3.10113731,-0.207257 -3.10113731,-3.100034 l 0,-7.0290977 c 0,-2.89277779 0,-3.10003479 3.10113731,-3.10003479 l 7.0279944,0 c 3.100035,0 3.100035,0.207257 3.100035,3.10003479 z"/><path id="path15" fill="#fff" fill-opacity=".051" d="m 10.799269,13.388058 c 0.717682,-0.0033 1.235825,-0.02315 1.611753,-0.124574 l -1.193932,-2.046111 -1.2655902,2.170685 0.3362412,0 c 0.180799,0 0.350573,0 0.511528,0 z M 11.21709,11.217373 9.7707018,8.7369038 8.3232102,11.217373 z m 0,0 2.159662,0 c 0.0088,-0.274505 0.01102,-0.582083 0.01102,-0.930451 l 0,-0.3097839 -0.723193,-1.2402343 z M 12.664581,8.7369038 11.21709,6.2564351 9.7707018,8.7369038 z m 0,0 0.723195,0 0,-1.2402343 z m -2.8938792,0 L 8.3232102,6.2564351 6.8768213,8.7369038 z m -2.8938805,0 -1.4474916,2.4804692 2.8938805,0 z m 0,0 L 5.4293297,6.2564351 3.9829408,8.7369038 z m -2.8938805,0 -1.4474912,2.4804692 2.8938801,0 z m 0,0 L 2.5354496,6.2564351 1.0890607,8.7369038 z m -2.8938801,0 -0.93045141,1.5941152 c 0,0.329627 0.00331,0.623976 0.011024,0.886354 l 2.36581611,0 z m 0,0 -0.93045141,-1.5941145 0,1.5941145 z m 1.4463889,2.4804692 -1.2170833,2.0869 c 0.450894,0.08268 1.0748699,0.08378 1.9413803,0.08378 l 0.5423956,0 z m 0,-4.9609379 -1.4463889,-2.4804689 -0.93045141,1.5941147 0,0.8863542 z m 0,0 2.8938801,0 L 3.9829408,3.7759662 z M 3.9829408,3.7759662 2.5354496,1.2954975 1.0890607,3.7759662 z m 0,0 2.8938805,0 L 5.4293297,1.2954975 z M 5.4293297,1.2954975 4.7656669,0.15889161 l -1.5070229,0 c -0.020947,0 -0.038585,0 -0.059531,0 L 2.5354496,1.2954975 z m 0,0 2.8938805,0 -0.6636631,-1.13660589 -1.566554,0 z m 2.8938805,0 2.8938798,0 -0.663663,-1.13660589 c -0.08819,0 -0.171979,0 -0.266788,0 l -1.2997657,0 z m 0,0 -1.4463889,2.4804687 2.8938805,0 z m 1.4474916,2.4804687 2.8938792,0 -1.447491,-2.4804687 z m 0,0 -1.4474916,2.4804689 2.8938798,0 z m 1.4463882,2.4804689 2.170686,0 0,-1.2402343 -0.723195,-1.2402346 z m 1.447491,-2.4804689 0.723195,0 0,-0.5170399 c 0,-0.2579689 -0.0022,-0.4938889 -0.0066,-0.71217 z M 8.3232102,6.2564351 6.8768213,3.7759662 5.4293297,6.2564351 z m 2.8938798,-4.9609376 2.062648,0 C 13.123193,0.51718141 12.747264,0.27133961 11.859807,0.19416931 z m -8.6816404,0 L 1.8850157,0.17983781 C 0.85203809,0.23826681 0.43421679,0.46095731 0.26664739,1.2954975 z M 1.0890607,3.7759662 0.17514589,2.20831 c -0.012127,0.3031685 -0.016537,0.6515363 -0.016537,1.0506163 l 0,0.5170399 z m 4.340269,7.4414068 -1.2655903,2.170685 2.532283,0 z m 2.8938805,0 -1.2655906,2.170685 2.5322832,0 z m -7.59133701,1.868619 -0.4519964,-0.775008 c 0.082682,0.371519 0.2215885,0.615156 0.4519964,0.775008 z"/><path id="path30" fill="none" stroke="#f9f9f9" stroke-linejoin="round" stroke-miterlimit="5.8" stroke-width=".856" d="m 9.4495788,6.7733342 a 2.6762453,2.6762451 0 0 1 -5.3524907,0 2.6762453,2.6762451 0 1 1 5.3524907,0 z"/><g id="g32"><use id="use34" width="744.094" height="1052.362" x="0" y="0" fill="#fff" fill-opacity="0" stroke="#fff" xlink:href="#2"/><rect id="rect36" width=".535" height=".535" x="6.506" y="3.401" fill="#fff" fill-opacity="0" stroke="#fff" stroke-miterlimit="5.8" stroke-width=".594" rx="0"/></g><g id="g38" fill="none" stroke="#f9f9f9" transform="matrix(2.4892273e-5,1,-1,2.4892273e-5,13.546499,-1.6849279e-4)"><use id="use40" width="744.094" height="1052.362" x="0" y="0" xlink:href="#2"/><use id="use42" width="744.094" height="1052.362" x="0" y="0" xlink:href="#3"/></g><g id="g44" fill="none" stroke="#f9f9f9"><use id="use46" width="744.094" height="1052.362" x="0" y="0" xlink:href="#2"/><use id="use48" width="744.094" height="1052.362" x="0" y="0" xlink:href="#3"/></g><g id="g50" fill="none" stroke="#f9f9f9" transform="matrix(0.70710678,-0.70710678,0.70710678,0.70710678,-2.8056065,6.7733342)"><use id="use52" width="744.094" height="1052.362" x="0" y="0" xlink:href="#2"/><use id="use54" width="744.094" height="1052.362" x="0" y="0" xlink:href="#3"/></g><g id="g56" fill="none" stroke="#f9f9f9" transform="matrix(0.70710678,0.70710678,-0.70710678,0.70710678,6.7733338,-2.8056064)"><use id="use58" width="744.094" height="1052.362" x="0" y="0" xlink:href="#2"/><use id="use60" width="744.094" height="1052.362" x="0" y="0" xlink:href="#3"/></g><path id="path62" fill="#f9f9f9" stroke="none" d="m 7.6199914,6.773348 a 0.84666666,0.84666683 0 1 1 -1.6933319,0 0.84666666,0.84666683 0 1 1 1.6933319,0 z"/></svg>