<svg xmlns="http://www.w3.org/2000/svg" xmlns:svg="http://www.w3.org/2000/svg" xmlns:xlink="http://www.w3.org/1999/xlink" id="svg2" width="48" height="48" version="1.1" viewBox="0 0 13.547 13.547"><metadata id="metadata88"/><defs id="defs4"><clipPath id="clipPath6" clipPathUnits="userSpaceOnUse"><path id="path8" fill="gray" d="m 207,155.25 a 63.25,63.25 0 1 1 -126.5,0 A 63.25,63.25 0 1 1 207,155.25 Z" color="#000" transform="matrix(.69565 0 0 .69565 44.00002 32.00003)"/></clipPath><clipPath id="clipPath10" clipPathUnits="userSpaceOnUse"><g id="g12"><path id="path14" fill="#2e3436" d="m 144,-116.99998 c -25.92184,0 -46.99999,21.078141 -46.99999,46.999986 0,25.921845 21.07815,46.99999 46.99999,46.99999 25.92184,0 46.99999,-21.078145 46.99999,-46.99999 0,-25.921845 -21.07815,-46.999986 -46.99999,-46.999986 z m 0,6 c 22.6792,0 40.99999,18.320784 40.99999,40.999986 0,22.679202 -18.32079,40.999991 -40.99999,40.999991 -22.6792,0 -40.99999,-18.320789 -40.99999,-40.999991 0,-22.679202 18.32079,-40.999986 40.99999,-40.999986 z" color="#000" style="line-height:normal"/><path id="path16" fill="none" stroke="#000" d="m 144,-116.99998 c -25.92184,0 -46.99999,21.078141 -46.99999,46.999986 0,25.921845 21.07815,46.99999 46.99999,46.99999 25.92184,0 46.99999,-21.078145 46.99999,-46.99999 0,-25.921845 -21.07815,-46.999986 -46.99999,-46.999986 z m 0,6 c 22.6792,0 40.99999,18.320784 40.99999,40.999986 0,22.679202 -18.32079,40.999991 -40.99999,40.999991 -22.6792,0 -40.99999,-18.320789 -40.99999,-40.999991 0,-22.679202 18.32079,-40.999986 40.99999,-40.999986 z" color="#000" style="line-height:normal"/></g></clipPath><clipPath id="clipPath18" clipPathUnits="userSpaceOnUse"><path id="path20" fill="gray" d="m 207,155.25 a 63.25,63.25 0 1 1 -126.5,0 63.25,63.25 0 1 1 126.5,0 z" color="#000" transform="matrix(.69565 0 0 .69565 44.00002 32.00003)"/></clipPath><clipPath id="clipPath22" clipPathUnits="userSpaceOnUse"><path id="path24" fill="gray" d="m 207,155.25 a 63.25,63.25 0 1 1 -126.5,0 63.25,63.25 0 1 1 126.5,0 z" color="#000" transform="matrix(.69565 0 0 .69565 44.00002 32.00003)"/></clipPath><linearGradient id="linearGradient4460-8"><stop id="stop27" offset="0" stop-color="#ff7b03"/><stop id="stop29" offset="1" stop-color="#ffa705"/></linearGradient><linearGradient id="linearGradient4460"><stop id="stop32" offset="0" stop-color="#f17e24" stop-opacity="1"/><stop id="stop34" offset="1" stop-color="#fecc4e" stop-opacity="1"/></linearGradient><linearGradient id="linearGradient3002" x2="0" y1="279.096" y2="268.33" gradientTransform="matrix(1.10525,0,0,1.10525,-134.27874,-295.76183)" gradientUnits="userSpaceOnUse" xlink:href="#linearGradient4460"/><linearGradient id="linearGradient5067-2-5-7"><stop id="stop38" offset="0" stop-color="#f9f9f9"/><stop id="stop40" offset="1" stop-color="#aeaeae"/></linearGradient><radialGradient id="radialGradient5413" cx="143.75" cy="155.25" r="63.25" gradientTransform="matrix(1.69689 .00004 -.00004 1.72262 -100.17196 -112.19223)" gradientUnits="userSpaceOnUse" xlink:href="#linearGradient5067-2-5-7"/><radialGradient id="radialGradient4536" cx="161.5" cy="161.5" r="37" gradientTransform="matrix(.2749 -.18813 .21088 .30815 -167.49797 157.07984)" gradientUnits="userSpaceOnUse" xlink:href="#linearGradient4460-8"/><linearGradient id="linearGradient3846" x2="0" y1="279.096" y2="268.33" gradientTransform="matrix(1.10525,0,0,1.10525,-134.27874,-295.76183)" gradientUnits="userSpaceOnUse" xlink:href="#linearGradient4460-3"/><linearGradient id="linearGradient4185" x1="373.887" x2="400.178" y1="836.395" y2="18.924" gradientUnits="userSpaceOnUse" xlink:href="#linearGradient4041"/><linearGradient id="linearGradient3408" x2="0" y1="279.096" y2="268.33" gradientTransform="matrix(1.10525,0,0,1.10525,-134.27874,-295.76183)" gradientUnits="userSpaceOnUse" xlink:href="#outerBackgroundGradient"/><linearGradient id="linearGradient3347" x1="401.5" x2="401.5" y1="134.5" y2="35.5" gradientTransform="matrix(0.21212121,0,0,0.21212121,349.33333,129.9697)" gradientUnits="userSpaceOnUse" xlink:href="#linearGradient4041"/><linearGradient id="linearGradient3345" x1="401.5" x2="401.5" y1="134.5" y2="35.5" gradientTransform="matrix(0.24242424,0,0,0.24242424,342.66667,91.393942)" gradientUnits="userSpaceOnUse" xlink:href="#linearGradient4041"/><linearGradient id="linearGradient3343" x1="401.5" x2="401.5" y1="134.5" y2="35.5" gradientTransform="matrix(0.33333333,0,0,0.33333333,314.66667,39.66667)" gradientUnits="userSpaceOnUse" xlink:href="#linearGradient4041"/><linearGradient id="linearGradient3341" x1="401.5" x2="401.5" y1="134.5" y2="35.5" gradientTransform="matrix(2.2727272,0,0,2.2727273,-655.99999,-37.181796)" gradientUnits="userSpaceOnUse" xlink:href="#linearGradient4041"/><linearGradient id="linearGradient3339" x1="401.5" x2="401.5" y1="134.5" y2="35.5" gradientTransform="translate(-15.999999,-8.99999)" gradientUnits="userSpaceOnUse" xlink:href="#linearGradient4041"/><linearGradient id="linearGradient3337" x1="401.5" x2="401.5" y1="134.5" y2="35.5" gradientTransform="matrix(0.66666666,0,0,0.66666666,85.333336,115.33334)" gradientUnits="userSpaceOnUse" xlink:href="#linearGradient4041"/><linearGradient id="linearGradient3335" x1="401.5" x2="401.5" y1="134.5" y2="35.5" gradientTransform="matrix(0.48484848,0,0,0.48484848,141.33334,202.78788)" gradientUnits="userSpaceOnUse" xlink:href="#linearGradient4041"/><linearGradient id="linearGradient3333" x1="401.5" x2="401.5" y1="134.5" y2="35.5" gradientTransform="matrix(0.21212121,0,0,0.21212121,349.33333,129.9697)" gradientUnits="userSpaceOnUse" xlink:href="#linearGradient4041"/><linearGradient id="linearGradient3330" x1="401.5" x2="401.5" y1="134.5" y2="35.5" gradientTransform="matrix(0.24242424,0,0,0.24242424,342.66667,91.393942)" gradientUnits="userSpaceOnUse" xlink:href="#linearGradient4041"/><linearGradient id="linearGradient3328" x1="401.5" x2="401.5" y1="134.5" y2="35.5" gradientTransform="matrix(0.33333333,0,0,0.33333333,314.66667,39.66667)" gradientUnits="userSpaceOnUse" xlink:href="#linearGradient4041"/><linearGradient id="linearGradient3326" x1="401.5" x2="401.5" y1="134.5" y2="35.5" gradientTransform="matrix(2.2727272,0,0,2.2727273,-655.99999,-37.181796)" gradientUnits="userSpaceOnUse" xlink:href="#linearGradient4041"/><linearGradient id="linearGradient3324" x1="401.5" x2="401.5" y1="134.5" y2="35.5" gradientTransform="translate(-15.999999,-8.99999)" gradientUnits="userSpaceOnUse" xlink:href="#linearGradient4041"/><linearGradient id="linearGradient3322" x1="401.5" x2="401.5" y1="134.5" y2="35.5" gradientTransform="matrix(0.66666666,0,0,0.66666666,85.333336,115.33334)" gradientUnits="userSpaceOnUse" xlink:href="#linearGradient4041"/><linearGradient id="linearGradient3320" x1="401.5" x2="401.5" y1="134.5" y2="35.5" gradientTransform="matrix(0.48484848,0,0,0.48484848,141.33334,202.78788)" gradientUnits="userSpaceOnUse" xlink:href="#linearGradient4041"/><linearGradient id="linearGradient3318" x1="352" x2="352" y1="204" y2="140" gradientUnits="userSpaceOnUse" xlink:href="#outerBackgroundGradient"/><linearGradient id="linearGradient3316" x1="384" x2="384" y1="124" y2="28" gradientUnits="userSpaceOnUse" xlink:href="#outerBackgroundGradient"/><linearGradient id="linearGradient3314" x1="281.143" x2="281.143" y1="297.143" y2="22.857" gradientTransform="matrix(0.175,0,0,-0.175,286.79999,-215.99997)" gradientUnits="userSpaceOnUse" xlink:href="#outerBackgroundGradient"/><linearGradient id="linearGradient3312" x1="283.81" x2="283.81" y1="299.81" y2="31.619" gradientTransform="matrix(0.11931818,0,0,0.11931818,414.13636,48.22727)" gradientUnits="userSpaceOnUse" xlink:href="#outerBackgroundGradient"/><linearGradient id="linearGradient3310" x1="286.857" x2="286.857" y1="302.857" y2="28.571" gradientTransform="matrix(0.0875,0,0,0.0875,414.9,97.5)" gradientUnits="userSpaceOnUse" xlink:href="#outerBackgroundGradient"/><linearGradient id="linearGradient3308" x1="264" x2="264" y1="280" y2="40" gradientTransform="matrix(0.06666667,0,0,0.06666667,414.4,137.33333)" gradientUnits="userSpaceOnUse" xlink:href="#outerBackgroundGradient"/><linearGradient id="linearGradient3306" x1="272" x2="272" y1="288" y2="32" gradientTransform="translate(0,-4)" gradientUnits="userSpaceOnUse" xlink:href="#outerBackgroundGradient"/><linearGradient id="linearGradient3245" x1="401.5" x2="401.5" y1="134.5" y2="35.5" gradientTransform="matrix(0.21212121,0,0,0.21212121,349.33333,129.9697)" gradientUnits="userSpaceOnUse" xlink:href="#linearGradient4041"/><linearGradient id="linearGradient3243" x1="401.5" x2="401.5" y1="134.5" y2="35.5" gradientTransform="matrix(0.24242424,0,0,0.24242424,342.66667,91.393942)" gradientUnits="userSpaceOnUse" xlink:href="#linearGradient4041"/><linearGradient id="linearGradient3241" x1="401.5" x2="401.5" y1="134.5" y2="35.5" gradientTransform="matrix(0.33333333,0,0,0.33333333,314.66667,39.66667)" gradientUnits="userSpaceOnUse" xlink:href="#linearGradient4041"/><linearGradient id="linearGradient3239" x1="401.5" x2="401.5" y1="134.5" y2="35.5" gradientTransform="matrix(2.2727272,0,0,2.2727273,-655.99999,-37.181796)" gradientUnits="userSpaceOnUse" xlink:href="#linearGradient4041"/><linearGradient id="linearGradient3237" x1="401.5" x2="401.5" y1="134.5" y2="35.5" gradientTransform="translate(-15.999999,-8.99999)" gradientUnits="userSpaceOnUse" xlink:href="#linearGradient4041"/><linearGradient id="linearGradient3235" x1="401.5" x2="401.5" y1="134.5" y2="35.5" gradientTransform="matrix(0.66666666,0,0,0.66666666,85.333336,115.33334)" gradientUnits="userSpaceOnUse" xlink:href="#linearGradient4041"/><linearGradient id="linearGradient3233" x1="401.5" x2="401.5" y1="134.5" y2="35.5" gradientTransform="matrix(0.48484848,0,0,0.48484848,141.33334,202.78788)" gradientUnits="userSpaceOnUse" xlink:href="#linearGradient4041"/><linearGradient id="outerBackgroundGradient"><stop id="stop3864-8-6" offset="0" stop-color="#6c3c3c" stop-opacity="1"/><stop id="stop3866-9-1" offset="1" stop-color="#9a5757" stop-opacity="1"/></linearGradient><linearGradient id="linearGradient4097" x1="264" x2="264" y1="280" y2="40" gradientTransform="matrix(0.06666667,0,0,0.06666667,414.4,137.33333)" gradientUnits="userSpaceOnUse" xlink:href="#outerBackgroundGradient"/><linearGradient id="linearGradient4101" x1="286.857" x2="286.857" y1="302.857" y2="28.571" gradientTransform="matrix(0.0875,0,0,0.0875,414.9,97.5)" gradientUnits="userSpaceOnUse" xlink:href="#outerBackgroundGradient"/><linearGradient id="linearGradient4153" x1="283.81" x2="283.81" y1="299.81" y2="31.619" gradientTransform="matrix(0.11931818,0,0,0.11931818,414.13636,48.22727)" gradientUnits="userSpaceOnUse" xlink:href="#outerBackgroundGradient"/><linearGradient id="linearGradient4869" x1="281.143" x2="281.143" y1="297.143" y2="22.857" gradientTransform="matrix(0.175,0,0,-0.175,286.79999,-215.99997)" gradientUnits="userSpaceOnUse" xlink:href="#outerBackgroundGradient"/><clipPath id="clipPath4891" clipPathUnits="userSpaceOnUse"><rect id="rect4893" width="42" height="42" x="307" y="223" fill="url(#linearGradient4895)" fill-opacity="1" fill-rule="nonzero" stroke="none" stroke-width="0" color="#bebebe" display="inline" enable-background="accumulate" overflow="visible" ry="9" transform="matrix(0,1,-1,0,0,0)" visibility="visible" style="marker:none"/></clipPath><linearGradient id="linearGradient4895" x1="144" x2="144" y1="280" y2="40" gradientTransform="matrix(0.175,0,0,0.175,302.79999,215.99997)" gradientUnits="userSpaceOnUse" xlink:href="#outerBackgroundGradient"/><clipPath id="clipPath4044" clipPathUnits="userSpaceOnUse"><rect id="rect4046" width="22" height="22" x="433" y="85" fill="url(#linearGradient4048)" fill-opacity="1" fill-rule="nonzero" stroke="none" stroke-width="0" color="#bebebe" display="inline" enable-background="accumulate" overflow="visible" ry="4" visibility="visible" style="marker:none"/></clipPath><linearGradient id="linearGradient4048" x1="149.714" x2="149.714" y1="291.429" y2="40" gradientTransform="matrix(0.0875,0,0,0.0875,430.9,81.499996)" gradientUnits="userSpaceOnUse" xlink:href="#outerBackgroundGradient"/><clipPath id="clipPath4089" clipPathUnits="userSpaceOnUse"><rect id="rect4091" width="30" height="30" x="433" y="37" fill="url(#linearGradient4093)" fill-opacity="1" fill-rule="nonzero" stroke="none" stroke-width="0" color="#bebebe" display="inline" enable-background="accumulate" overflow="visible" ry="6" visibility="visible" style="marker:none"/></clipPath><linearGradient id="linearGradient4093" x1="149.714" x2="149.714" y1="291.429" y2="40" gradientTransform="matrix(0.11931818,0,0,0.11931818,430.13636,32.227267)" gradientUnits="userSpaceOnUse" xlink:href="#outerBackgroundGradient"/><clipPath id="clipPath3855" clipPathUnits="userSpaceOnUse"><rect id="rect3857" width="16" height="16" x="304" y="212" fill="url(#linearGradient3859)" fill-opacity="1" fill-rule="nonzero" stroke="none" stroke-width="0" color="#bebebe" display="inline" enable-background="accumulate" overflow="visible" ry="3" transform="matrix(0,1,-1,0,0,0)" visibility="visible" style="marker:none"/></clipPath><linearGradient id="linearGradient3859" x1="144" x2="144" y1="280" y2="40" gradientTransform="matrix(0.06666667,0,0,0.06666667,302.4,209.33333)" gradientUnits="userSpaceOnUse" xlink:href="#outerBackgroundGradient"/><clipPath id="clipPath3862" clipPathUnits="userSpaceOnUse"><rect id="rect3864" width="220" height="220" x="34" y="46" fill="url(#linearGradient3866)" fill-opacity="1" fill-rule="nonzero" stroke="none" stroke-width="0" color="#bebebe" display="inline" enable-background="accumulate" overflow="visible" ry="50" visibility="visible" style="marker:none"/></clipPath><linearGradient id="linearGradient3866" x1="144" x2="144" y1="280" y2="40" gradientTransform="translate(0,-4)" gradientUnits="userSpaceOnUse" xlink:href="#outerBackgroundGradient"/><linearGradient id="linearGradient3876" x1="272" x2="272" y1="288" y2="32" gradientTransform="translate(0,-4)" gradientUnits="userSpaceOnUse" xlink:href="#outerBackgroundGradient"/><clipPath id="clipPath4187" clipPathUnits="userSpaceOnUse"><rect id="rect4189" width="60" height="60" x="290" y="142" fill="url(#linearGradient4191)" fill-opacity="1" fill-rule="nonzero" stroke="none" stroke-width="0" color="#bebebe" display="inline" enable-background="accumulate" overflow="visible" ry="12.5" visibility="visible" style="marker:none"/></clipPath><linearGradient id="linearGradient4191" x1="352" x2="352" y1="204" y2="140" gradientUnits="userSpaceOnUse" xlink:href="#outerBackgroundGradient"/><linearGradient id="linearGradient4197" x1="384" x2="384" y1="124" y2="28" gradientUnits="userSpaceOnUse" xlink:href="#outerBackgroundGradient"/><linearGradient id="linearGradient4199" x1="352" x2="352" y1="204" y2="140" gradientUnits="userSpaceOnUse" xlink:href="#outerBackgroundGradient"/><clipPath id="clipPath4346" clipPathUnits="userSpaceOnUse"><rect id="rect4348" width="88" height="88" x="292" y="32" fill="url(#linearGradient4350)" fill-opacity="1" fill-rule="nonzero" stroke="none" stroke-width="0" color="#bebebe" display="inline" enable-background="accumulate" overflow="visible" ry="18" visibility="visible" style="marker:none"/></clipPath><linearGradient id="linearGradient4350" x1="384" x2="384" y1="124" y2="28" gradientUnits="userSpaceOnUse" xlink:href="#outerBackgroundGradient"/><clipPath id="clipPath3871" clipPathUnits="userSpaceOnUse"><rect id="rect3873" width="22" height="22" x="417" y="101" fill="url(#linearGradient3875)" fill-opacity="1" fill-rule="nonzero" stroke="none" stroke-width="0" color="#bebebe" display="inline" enable-background="accumulate" overflow="visible" ry="5" visibility="visible" style="marker:none"/></clipPath><linearGradient id="linearGradient3875" x1="286.857" x2="286.857" y1="302.857" y2="28.571" gradientTransform="matrix(0.0875,0,0,0.0875,414.9,97.5)" gradientUnits="userSpaceOnUse" xlink:href="#outerBackgroundGradient"/><clipPath id="clipPath3881" clipPathUnits="userSpaceOnUse"><rect id="rect3883" width="30" height="30" x="417" y="53" fill="url(#linearGradient3885)" fill-opacity="1" fill-rule="nonzero" stroke="none" stroke-width="0" color="#bebebe" display="inline" enable-background="accumulate" overflow="visible" ry="7" visibility="visible" style="marker:none"/></clipPath><linearGradient id="linearGradient3885" x1="283.81" x2="283.81" y1="299.81" y2="31.619" gradientTransform="matrix(0.11931818,0,0,0.11931818,414.13636,48.22727)" gradientUnits="userSpaceOnUse" xlink:href="#outerBackgroundGradient"/><clipPath id="clipPath4059" clipPathUnits="userSpaceOnUse"><path id="path4061" fill="url(#linearGradient4063)" fill-opacity="1" fill-rule="evenodd" stroke="none" d="m 354.86109,118 c -1.8996,-12.45313 -13.15124,-10.92696 -20.45752,-20.554999 -4.49745,-5.081917 -6.90039,-18.152021 2.43544,-27.37416 -1.1041,9.579323 0.17861,13.6059 5.45531,17.924775 -2.35422,-4.952062 -3.08439,-11.995623 -0.82801,-16.853182 2.76375,-5.949983 10.39112,-12.87528 10.52102,-19.142434 4.36202,2.178866 7.92821,8.352919 5.94243,14.368984 -3.85543,11.680556 0.10189,12.135543 1.94832,13.248716 -0.37991,-7.072519 1.0237,-8.206151 2.38673,-10.423628 1.02898,7.51113 12.13245,12.469545 11.25168,21.870132 -0.54446,5.811093 -5.52033,11.186756 -9.69301,14.563846 0.37909,-7.615119 0.0767,-8.633953 -7.11146,-14.612521 -2.75975,-2.295398 -3.9291,-3.912975 -5.30916,-6.867919 -0.85908,2.610094 -2.43714,6.487429 3.26799,14.45466 5.21391,7.28145 0.61392,16.7798 0.19057,19.39773 z" display="inline" enable-background="new"/></clipPath><clipPath id="clipPath3319" clipPathUnits="userSpaceOnUse"><path id="path3321" fill="url(#linearGradient4063)" fill-opacity="1" fill-rule="evenodd" stroke="none" d="m 354.86109,118 c -1.8996,-12.45313 -13.15124,-10.92696 -20.45752,-20.554999 -4.49745,-5.081917 -6.90039,-18.152021 2.43544,-27.37416 -1.1041,9.579323 0.17861,13.6059 5.45531,17.924775 -2.35422,-4.952062 -3.08439,-11.995623 -0.82801,-16.853182 2.76375,-5.949983 10.39112,-12.87528 10.52102,-19.142434 4.36202,2.178866 7.92821,8.352919 5.94243,14.368984 -3.85543,11.680556 0.10189,12.135543 1.94832,13.248716 -0.37991,-7.072519 1.0237,-8.206151 2.38673,-10.423628 1.02898,7.51113 12.13245,12.469545 11.25168,21.870132 -0.54446,5.811093 -5.52033,11.186756 -9.69301,14.563846 0.37909,-7.615119 0.0767,-8.633953 -7.11146,-14.612521 -2.75975,-2.295398 -3.9291,-3.912975 -5.30916,-6.867919 -0.85908,2.610094 -2.43714,6.487429 3.26799,14.45466 5.21391,7.28145 0.61392,16.7798 0.19057,19.39773 z" display="inline" enable-background="new"/></clipPath><linearGradient id="linearGradient4145" x1="344" x2="360" y1="48" y2="120" gradientTransform="matrix(0.48484848,0,0,0.48484848,157.33334,210.78788)" gradientUnits="userSpaceOnUse" xlink:href="#linearGradient4041"/><linearGradient id="linearGradient4041"><stop id="stop4043" offset="0" stop-color="#ff6b00" stop-opacity="1"/><stop id="stop4045" offset="1" stop-color="#fe0" stop-opacity="1"/></linearGradient><linearGradient id="linearGradient3332" x1="344" x2="360" y1="48" y2="120" gradientTransform="matrix(0.48484848,0,0,0.48484848,141.33334,202.78788)" gradientUnits="userSpaceOnUse" xlink:href="#linearGradient4041"/><linearGradient id="linearGradient3871" x1="401.5" x2="401.5" y1="134.5" y2="35.5" gradientTransform="matrix(0.48484848,0,0,0.48484848,141.33334,202.78788)" gradientUnits="userSpaceOnUse" xlink:href="#linearGradient4041"/><linearGradient id="linearGradient3879" x1="401.5" x2="401.5" y1="134.5" y2="35.5" gradientTransform="matrix(0.66666666,0,0,0.66666666,85.333336,115.33334)" gradientUnits="userSpaceOnUse" xlink:href="#linearGradient4041"/><linearGradient id="linearGradient3883" x1="401.5" x2="401.5" y1="134.5" y2="35.5" gradientTransform="translate(-15.999999,-8.99999)" gradientUnits="userSpaceOnUse" xlink:href="#linearGradient4041"/><linearGradient id="linearGradient3887" x1="401.5" x2="401.5" y1="134.5" y2="35.5" gradientTransform="matrix(2.2727272,0,0,2.2727273,-655.99999,-37.181796)" gradientUnits="userSpaceOnUse" xlink:href="#linearGradient4041"/><linearGradient id="linearGradient3891" x1="401.5" x2="401.5" y1="134.5" y2="35.5" gradientTransform="matrix(0.33333333,0,0,0.33333333,314.66667,39.66667)" gradientUnits="userSpaceOnUse" xlink:href="#linearGradient4041"/><linearGradient id="linearGradient3895" x1="401.5" x2="401.5" y1="134.5" y2="35.5" gradientTransform="matrix(0.24242424,0,0,0.24242424,342.66667,91.393942)" gradientUnits="userSpaceOnUse" xlink:href="#linearGradient4041"/><linearGradient id="linearGradient3899" x1="401.5" x2="401.5" y1="134.5" y2="35.5" gradientTransform="matrix(0.21212121,0,0,0.21212121,349.33333,129.9697)" gradientUnits="userSpaceOnUse" xlink:href="#linearGradient4041"/><linearGradient id="linearGradient4428" x2="0" y1="279.096" y2="268.33" gradientTransform="matrix(1.10525,0,0,1.10525,-134.27874,-295.76183)" gradientUnits="userSpaceOnUse" xlink:href="#linearGradient4460-0"/><linearGradient id="linearGradient4460-0"><stop id="stop7" offset="0" stop-color="#ad5517"/><stop id="stop9" offset="1" stop-color="#e16f1f"/></linearGradient><linearGradient id="linearGradient4206" x1="373.887" x2="400.178" y1="836.395" y2="18.924" gradientUnits="userSpaceOnUse" xlink:href="#linearGradient4041"/><linearGradient id="linearGradient4228" x2="0" y1="279.096" y2="268.33" gradientTransform="matrix(1.10525,0,0,1.10525,-118.82445,-296.03127)" gradientUnits="userSpaceOnUse" xlink:href="#outerBackgroundGradient"/><linearGradient id="linearGradient3895-9-0-3-2-4-0"><stop id="stop3783" offset="0" stop-color="#d398db"/><stop id="stop3785" offset="1" stop-color="#75507b"/></linearGradient><radialGradient id="radialGradient4432" cx="148.004" cy="160" r="128" gradientTransform="matrix(0.97656,0,0,0.97656,-16.5349,-236.25)" gradientUnits="userSpaceOnUse" xlink:href="#linearGradient3895-9-0-3-2-4-0"/><linearGradient id="linearGradient3896"><stop id="stop3015" offset="0" stop-color="#262626"/><stop id="stop3017" offset="1" stop-color="#7b7b7b"/></linearGradient><linearGradient id="linearGradient3787" x2="0" y1="1053.158" y2="1004.847" gradientUnits="userSpaceOnUse" xlink:href="#linearGradient3896"/><linearGradient id="linearGradient4500" x1="128.261" x2="128.261" y1="279.096" y2="268.33" gradientTransform="matrix(1.0952381,0,0,1.0952381,-133.00183,-9.5686658)" gradientUnits="userSpaceOnUse" xlink:href="#linearGradient4460-84"/><linearGradient id="linearGradient4460-84"><stop id="stop4462" offset="0" stop-color="#ff7b03" stop-opacity="1"/><stop id="stop4464" offset="1" stop-color="#ffa705" stop-opacity="1"/></linearGradient><linearGradient id="linearGradient3174" x1="128.261" x2="128.261" y1="279.096" y2="268.33" gradientTransform="matrix(1.0952381,0,0,1.0952381,-116.46504,-292.02956)" gradientUnits="userSpaceOnUse" xlink:href="#linearGradient4460-84"/><linearGradient id="linearGradient3002-9" x2="0" y1="279.096" y2="268.33" gradientTransform="matrix(1.10525,0,0,1.10525,-134.27875,-295.76183)" gradientUnits="userSpaceOnUse" xlink:href="#linearGradient4460-3"/><linearGradient id="linearGradient4460-3"><stop id="stop3133" offset="0" stop-color="#dbdbdb"/><stop id="stop3135" offset="1" stop-color="#f9f9f9"/></linearGradient><linearGradient id="linearGradient3164" x2="0" y1="279.096" y2="268.33" gradientTransform="matrix(1.10525,0,0,1.10525,-134.27875,-295.76183)" gradientUnits="userSpaceOnUse" xlink:href="#linearGradient4460-3"/><linearGradient id="linearGradient3167" x2="0" y1="279.096" y2="268.33" gradientTransform="matrix(1.10525,0,0,1.10525,-119.5482,-294.77663)" gradientUnits="userSpaceOnUse" xlink:href="#linearGradient4460-3"/><linearGradient id="linearGradient3016" x2="0" y1="279.088" y2="267.598" gradientTransform="matrix(1.10528,0,0,1.10528,-134.28289,-295.77061)" gradientUnits="userSpaceOnUse" xlink:href="#linearGradient4460-85"/><linearGradient id="linearGradient4075" x2="0" y1="279.088" y2="267.598" gradientTransform="matrix(1.10528,0,0,1.10528,-134.28289,-295.77061)" gradientUnits="userSpaceOnUse" xlink:href="#linearGradient4460-85"/><linearGradient id="linearGradient4460-85"><stop id="stop17" offset="0" stop-color="#0c0e10" stop-opacity="1"/><stop id="stop19" offset="1" stop-color="#203e4e" stop-opacity="1"/></linearGradient><linearGradient id="linearGradient4030" x1="3.387" x2="10.16" gradientTransform="matrix(1,0,0,-1,2.675e-5,13.546796)" gradientUnits="userSpaceOnUse" xlink:href="#linearGradient4460-3-0"/><linearGradient id="linearGradient4460-3-0"><stop id="stop11" offset="0" stop-color="#c6e8f9" stop-opacity="1"/><stop id="stop13" offset="1" stop-color="#f9f9ff"/></linearGradient><clipPath id="clipPath6-9" clipPathUnits="userSpaceOnUse"><path id="path8-7" fill="#fff" fill-rule="evenodd" d="M -670.14006,51.863192 L -114.61564,405.00326 L -257.11075,510.32573 L -514.2215,-71.013029 L -670.14006,51.863192 z"/></clipPath><linearGradient id="linearGradient3171" x2="0" y1="279.088" y2="267.598" gradientTransform="matrix(1.10528,0,0,1.10528,-115.82832,-294.75886)" gradientUnits="userSpaceOnUse" xlink:href="#linearGradient4460-85"/><linearGradient id="linearGradient3013" x2="0" y1="1050.36" y2="1006.36" gradientTransform="translate(0,-1004.3622)" gradientUnits="userSpaceOnUse" xlink:href="#1"/><linearGradient id="1"><stop id="stop8" stop-color="#dbdbdb"/><stop id="stop10" offset="1" stop-color="#f9f9f9"/></linearGradient><linearGradient id="linearGradient3280" x2="0" y1="1050.36" y2="1006.36" gradientTransform="translate(0,-1004.3622)" gradientUnits="userSpaceOnUse" xlink:href="#1"/><radialGradient id="radialGradient3015" cx="148.004" cy="160" r="128" gradientTransform="matrix(0.05167489,0,0,0.05167489,-0.87511191,-1.4947563)" gradientUnits="userSpaceOnUse" xlink:href="#radial0"/><radialGradient id="radial0" cx="148.004" cy="160" r="128" gradientTransform="matrix(0.1831,0,0,0.1831,-3.10029,-5.29688)" gradientUnits="userSpaceOnUse"><stop id="stop7-1" offset="0" stop-color="#acb1d9" stop-opacity="1"/><stop id="stop9-1" offset="1" stop-color="#3b378c" stop-opacity="1"/></radialGradient><radialGradient id="radialGradient3011" cx="148.004" cy="160" r="128" gradientTransform="matrix(0.05167489,0,0,0.05167489,-0.87511194,-1.494756)" gradientUnits="userSpaceOnUse" xlink:href="#radial0"/></defs><g id="layer7" display="none" transform="matrix(0.28222223,0,0,0.28222223,34.570614,-36.880509)"><text id="context" x="15.007" y="19.745" fill="#000" fill-opacity="1" stroke="none" display="inline" enable-background="new" font-family="DejaVu Sans" font-size="18" font-stretch="normal" font-style="normal" font-variant="normal" font-weight="normal" xml:space="preserve" style="-inkscape-font-specification:DejaVu Sans"><tspan style="-inkscape-font-specification:DejaVu Sans" id="tspan3933" x="15.007" y="19.745" font-family="DejaVu Sans" font-stretch="normal" font-style="normal" font-variant="normal" font-weight="normal">apps</tspan></text><text id="icon-name" x="122.488" y="19.745" fill="#000" fill-opacity="1" stroke="none" display="inline" enable-background="new" font-family="DejaVu Sans" font-size="18" font-stretch="normal" font-style="normal" font-variant="normal" font-weight="bold" text-anchor="start" writing-mode="lr-tb" xml:space="preserve" style="text-align:start;line-height:125%;-inkscape-font-specification:DejaVu Sans Bold"><tspan style="-inkscape-font-specification:DejaVu Sans Bold" id="tspan3937" x="122.488" y="19.745" font-family="DejaVu Sans" font-size="18" font-stretch="normal" font-style="normal" font-variant="normal" font-weight="bold">firewall</tspan></text><rect id="rect16x16" width="16" height="16" x="416" y="140" fill="#eeeeec" fill-opacity="1" fill-rule="nonzero" stroke="none" stroke-width="2" display="inline" enable-background="accumulate" overflow="visible" visibility="visible" style="marker:none"/><rect id="rect24x24" width="24" height="24" x="416" y="100" fill="#d4d4d4" fill-opacity="1" fill-rule="nonzero" stroke="none" stroke-width="2" display="inline" enable-background="accumulate" overflow="visible" visibility="visible" style="marker:none"/><rect id="rect32x32" width="32" height="32" x="416" y="52" fill="#eeeeec" fill-opacity="1" fill-rule="nonzero" stroke="none" stroke-width="2" display="inline" enable-background="accumulate" overflow="visible" visibility="visible" style="marker:none"/><rect id="rect22x22" width="22" height="22" x="417" y="101" fill="#eeeeec" fill-opacity="1" fill-rule="nonzero" stroke="none" stroke-width="2" display="inline" enable-background="accumulate" overflow="visible" visibility="visible" style="marker:none"/><rect id="rect48x48" width="48" height="48" x="288" y="220" fill="#eeeeec" fill-opacity="1" fill-rule="nonzero" stroke="none" stroke-width="2" display="inline" enable-background="accumulate" overflow="visible" visibility="visible" style="marker:none"/><rect id="rect256x256" width="256" height="256" x="16" y="28" fill="#eeeeec" fill-opacity="1" fill-rule="nonzero" stroke="none" stroke-width="2" display="inline" enable-background="accumulate" overflow="visible" visibility="visible" style="marker:none"/><rect id="rect64x64" width="64" height="64" x="288" y="140" fill="#eeeeec" fill-opacity="1" fill-rule="nonzero" stroke="none" stroke-width="2" display="inline" enable-background="accumulate" overflow="visible" visibility="visible" style="marker:none"/><rect id="rect96x96" width="96" height="96" x="288" y="28" fill="#eeeeec" fill-opacity="1" fill-rule="nonzero" stroke="none" stroke-width="2" display="inline" enable-background="accumulate" overflow="visible" visibility="visible" style="marker:none"/></g><path id="path11" fill="url(#radialGradient3011)" d="m 13.387776,3.2589261 0,7.0290969 c 0,2.892778 0,3.100035 -3.100035,3.100035 l -7.0279947,0 c -3.10113741,0 -3.10113741,-0.207257 -3.10113741,-3.100035 l 0,-7.0290969 c 0,-2.8927778 0,-3.10003475 3.10113741,-3.10003475 l 7.0279947,0 c 3.100035,0 3.100035,0.20725695 3.100035,3.10003475 z"/><path id="path15" fill="#fff" fill-opacity=".051" d="m 10.799269,13.388058 c 0.717682,-0.0033 1.235825,-0.02315 1.611753,-0.124575 l -1.193932,-2.046111 -1.2655901,2.170686 0.3362411,0 c 0.180799,0 0.350573,0 0.511528,0 z M 11.21709,11.217372 9.7707009,8.7369036 8.3232099,11.217372 z m 0,0 2.159662,0 c 0.0088,-0.274505 0.01102,-0.582083 0.01102,-0.930451 l 0,-0.3097831 -0.723193,-1.2402343 z M 12.664581,8.7369036 11.21709,6.2564349 9.7707009,8.7369036 z m 0,0 0.723195,0 0,-1.2402343 z m -2.8938801,0 L 8.3232099,6.2564349 6.876821,8.7369036 z m -2.8938799,0 -1.4474916,2.4804684 2.8938805,0 z m 0,0 L 5.4293294,6.2564349 3.9829405,8.7369036 z m -2.8938805,0 -1.4474913,2.4804684 2.8938802,0 z m 0,0 L 2.5354492,6.2564349 1.0890603,8.7369036 z m -2.8938802,0 -0.93045141,1.5941144 c 0,0.329627 0.00331,0.623976 0.011024,0.886354 l 2.36581611,0 z m 0,0 -0.93045141,-1.5941145 0,1.5941145 z m 1.4463889,2.4804684 -1.2170833,2.086901 c 0.450894,0.08268 1.0748699,0.08378 1.9402778,0.08378 l 0.5434982,0 z m 0,-4.9609371 -1.4463889,-2.4804689 -0.93045141,1.5941147 0,0.8863542 z m 0,0 2.8938802,0 L 3.9829405,3.775966 z M 3.9829405,3.775966 2.5354492,1.2954973 1.0890603,3.775966 z m 0,0 2.8938805,0 -1.4474916,-2.4804687 z m 1.4463889,-2.4804687 -0.663663,-1.13660595 -1.5070227,0 c -0.020946,0 -0.038585,0 -0.059531,0 L 2.5354493,1.2954973 z m 0,0 2.8938805,0 -0.6636633,-1.13660595 -1.5665538,0 z m 2.8938805,0 2.8938801,0 -0.663663,-1.13660595 c -0.08819,0 -0.171979,0 -0.266788,0 l -1.2997661,0 z m 0,0 -1.4463889,2.4804687 2.8938799,0 z m 1.447491,2.4804687 2.8938801,0 -1.447491,-2.4804687 z m 0,0 -1.447491,2.4804689 2.8938801,0 z m 1.4463891,2.4804689 2.170686,0 0,-1.2402343 -0.723195,-1.2402346 z m 1.447491,-2.4804689 0.723195,0 0,-0.5170399 c 0,-0.2579689 -0.0022,-0.4938889 -0.0066,-0.71217 z M 8.3232099,6.2564349 6.876821,3.775966 5.4293294,6.2564349 z m 2.8938801,-4.9609376 2.062648,0 C 13.123193,0.51718122 12.747264,0.27133941 11.859807,0.19416913 z m -8.6816408,0 L 1.8850153,0.1798376 C 0.85203769,0.23826635 0.43421639,0.46095719 0.26664689,1.2954973 z M 1.0890603,3.775966 0.17514539,2.2083098 c -0.0121268,0.3031685 -0.0165365,0.6515363 -0.0165365,1.0506163 l 0,0.5170399 z m 4.3402691,7.441406 -1.2655903,2.170686 2.532283,0 z m 2.8938805,0 -1.2655906,2.170686 2.5322836,0 z m -7.59133711,1.86862 -0.4519964,-0.775009 c 0.082682,0.371519 0.2215885,0.615157 0.4519964,0.775009 z"/><path id="path32" fill="#f9f9f9" fill-opacity="1" d="m 10.16,3.9443118 c 0,0 -0.5644441,0.8466667 -1.4111109,0.8466667 -0.7890008,-0.152067 -1.1023301,-0.022662 -1.1288621,0 l 0,3.4156671 C 7.582647,8.9260975 6.9932351,9.6470054 6.1143392,9.9785835 4.9993723,10.399296 3.8210415,10.033323 3.4799234,9.1587285 3.1388037,8.2842646 3.7628052,7.2257215 4.8777763,6.8049894 5.7408051,6.4794314 6.5336868,6.5600902 7.0555557,7.0487563 l 0,-3.3866667 C 8.1844447,2.9113726 9.2338749,3.9327799 10.16,3.9443118 z" color="#000"/></svg>