<svg xmlns="http://www.w3.org/2000/svg" xmlns:svg="http://www.w3.org/2000/svg" xmlns:xlink="http://www.w3.org/1999/xlink" id="svg2" width="48" height="48" version="1.1" viewBox="0 0 13.547 13.547"><metadata id="metadata488"/><defs id="defs4"><linearGradient id="0"><stop id="stop7" stop-color="#3c4043"/><stop id="stop9" offset="1" stop-color="#6b6c6d"/></linearGradient><radialGradient id="radialGradient11" cx="328" cy="255.42" r="7" gradientTransform="matrix(1.22449 0 0 1.22449 49.7555 -179.34296)" gradientUnits="userSpaceOnUse" xlink:href="#7"/><radialGradient id="radialGradient13" cx="328" cy="255.42" r="7" gradientTransform="matrix(2.85714 0 0 2.85714 -609.14349 -473.66662)" gradientUnits="userSpaceOnUse" xlink:href="#7"/><radialGradient id="radialGradient15" cx="328" cy="255.42" r="7" gradientTransform="matrix(1.22449 0 0 1.22449 49.7555 -179.34296)" gradientUnits="userSpaceOnUse" xlink:href="#7"/><radialGradient id="radialGradient17" cx="328" cy="255.42" r="7" gradientTransform="matrix(2.85714 0 0 2.85714 -609.14349 -473.66662)" gradientUnits="userSpaceOnUse" xlink:href="#7"/><radialGradient id="radialGradient19" cx="328" cy="255.42" r="7" gradientTransform="matrix(2.85714 0 0 2.85714 -609.14349 -473.66662)" gradientUnits="userSpaceOnUse" xlink:href="#7"/><radialGradient id="radialGradient21" cx="328" cy="255.42" r="7" gradientTransform="matrix(1.22449 0 0 1.22449 49.7555 -179.34296)" gradientUnits="userSpaceOnUse" xlink:href="#7"/><linearGradient id="1" x2="0" y1="230" y2="90" gradientTransform="matrix(.25 0 0 .25 299.99999 131.99999)" gradientUnits="userSpaceOnUse" xlink:href="#4"/><linearGradient id="2" x2="0" y1="230" y2="90" gradientTransform="matrix(.25 0 0 .25 299.99999 131.99999)" gradientUnits="userSpaceOnUse" xlink:href="#4"/><linearGradient id="3" x2="0" y1="280" y2="40" gradientTransform="matrix(.175 0 0 .175 302.79999 215.99997)" gradientUnits="userSpaceOnUse" xlink:href="#4"/><linearGradient id="4"><stop id="stop27" stop-color="#f0f0f0"/><stop id="stop29" offset="1" stop-color="#f8f8f8"/></linearGradient><linearGradient id="5" x2="0" y1="230" y2="90" gradientTransform="matrix(.375 0 0 .375 298 16)" gradientUnits="userSpaceOnUse" xlink:href="#4"/><linearGradient id="linearGradient32" x2="0" y1="140" y2="124" gradientUnits="userSpaceOnUse" xlink:href="#6"/><linearGradient id="6"><stop id="stop35" stop-color="#818181"/><stop id="stop37" offset="1" stop-color="#c5c5c5"/></linearGradient><linearGradient id="linearGradient39" x2="0" y1="273" y2="231" gradientTransform="translate(0 4.09376)" gradientUnits="userSpaceOnUse" xlink:href="#6"/><linearGradient id="7"><stop id="stop42" stop-color="#eaba31"/><stop id="stop44" offset="1" stop-color="#ff9200"/></linearGradient><linearGradient id="linearGradient46" x2="0" y1="273" y2="231" gradientTransform="translate(0 4.09376)" gradientUnits="userSpaceOnUse" xlink:href="#6"/><linearGradient id="linearGradient48" x2="0" y1="140" y2="124" gradientTransform="translate(11.38843 1.3713)" gradientUnits="userSpaceOnUse" xlink:href="#6"/><linearGradient id="linearGradient50" x2="0" y1="107" y2="85" gradientUnits="userSpaceOnUse" xlink:href="#6"/><linearGradient id="8" x2="0" y1="280" y2="40" gradientTransform="matrix(.175 0 0 .175 302.79999 215.99997)" gradientUnits="userSpaceOnUse" xlink:href="#4"/><linearGradient id="linearGradient53" x2="0" y1="273" y2="231" gradientTransform="matrix(5.71429 0 0 5.71429 -1730.2857 -1284)" gradientUnits="userSpaceOnUse" xlink:href="#6"/><linearGradient id="linearGradient55" x2="0" y1="140" y2="124" gradientUnits="userSpaceOnUse" xlink:href="#6"/><linearGradient id="linearGradient57" x2="0" y1="273" y2="231" gradientTransform="matrix(5.71429 0 0 5.71429 -1730.2857 -1284)" gradientUnits="userSpaceOnUse" xlink:href="#6"/><linearGradient id="linearGradient59" x2="0" y1="107" y2="85" gradientUnits="userSpaceOnUse" xlink:href="#6"/><linearGradient id="9" x2="0" y1="230" y2="90" gradientTransform="matrix(.375 0 0 .375 298 16)" gradientUnits="userSpaceOnUse" xlink:href="#4"/><linearGradient id="linearGradient62" x2="0" y1="107" y2="85" gradientUnits="userSpaceOnUse" xlink:href="#6"/><linearGradient id="linearGradient64" x2="0" y1="140" y2="124" gradientTransform="translate(11.38843 1.3713)" gradientUnits="userSpaceOnUse" xlink:href="#6"/><linearGradient id="linearGradient66" x2="0" y1="140" y2="124" gradientUnits="userSpaceOnUse" xlink:href="#6"/><linearGradient id="A" x2="0" y1="230" y2="90" gradientTransform="matrix(.375 0 0 .375 298 16)" gradientUnits="userSpaceOnUse" xlink:href="#4"/><linearGradient id="B" x2="0" y1="280" y2="40" gradientTransform="matrix(.175 0 0 .175 302.79999 215.99997)" gradientUnits="userSpaceOnUse" xlink:href="#4"/><linearGradient id="linearGradient70" x2="0" y1="273" y2="231" gradientTransform="matrix(5.71429 0 0 5.71429 -1730.2857 -1284)" gradientUnits="userSpaceOnUse" xlink:href="#6"/><linearGradient id="linearGradient72" x2="0" y1="140" y2="124" gradientTransform="translate(11.38843 1.3713)" gradientUnits="userSpaceOnUse" xlink:href="#6"/><linearGradient id="C" x2="0" y1="230" y2="90" gradientTransform="matrix(.25 0 0 .25 299.99999 131.99999)" gradientUnits="userSpaceOnUse" xlink:href="#4"/><linearGradient id="linearGradient75" x2="0" y1="273" y2="231" gradientTransform="translate(0 4.09376)" gradientUnits="userSpaceOnUse" xlink:href="#6"/><clipPath id="clipPath77"><rect id="rect79" width="30" height="30" x="433" y="29" fill="#6d6d6d" color="#bebebe" opacity=".2" rx="4"/></clipPath><clipPath id="clipPath81"><path id="path83" d="m 440,126 c -3.31371,0 -6,2.68629 -6,6 0,3.31371 2.68629,6 6,6 3.31371,0 6,-2.68629 6,-6 0,-3.31371 -2.68629,-6 -6,-6 z m 0,3 c 1.65685,0 3,1.34315 3,3 0,1.65685 -1.34315,3 -3,3 -1.65685,0 -3,-1.34315 -3,-3 0,-1.65685 1.34315,-3 3,-3 z m 0,1 c -1.10457,0 -2,0.89543 -2,2 0,1.10457 0.89543,2 2,2 1.10457,0 2,-0.89543 2,-2 0,-1.10457 -0.89543,-2 -2,-2 z m 0,1 c 0.55228,0 1,0.44772 1,1 0,0.55228 -0.44772,1 -1,1 -0.55228,0 -1,-0.44772 -1,-1 0,-0.55228 0.44772,-1 1,-1 z"/></clipPath><clipPath id="clipPath85"><rect id="rect87" width="42" height="42" x="307" y="223" fill="url(#8)" color="#bebebe" rx="9" transform="rotate(90)"/></clipPath><clipPath id="clipPath89"><rect id="rect91" width="60" height="60" x="306" y="142" fill="url(#1)" color="#bebebe" rx="12.5" transform="matrix(0 -1 1 0 0 0)"/></clipPath><clipPath id="clipPath93"><rect id="rect95" width="22" height="22" x="433" y="77" fill="#6d6d6d" color="#bebebe" opacity=".2" rx="3"/></clipPath><clipPath id="clipPath97"><path id="path99" d="m 328,242.09376 c -7.73199,0 -14,6.26801 -14,14 0,7.73199 6.26801,14 14,14 7.73199,0 14,-6.26801 14,-14 0,-7.73199 -6.26801,-14 -14,-14 z m 0,9.90625 c 2.20914,0 4,1.79086 4,4 0,2.20914 -1.79086,4 -4,4 -2.20914,0 -4,-1.79086 -4,-4 0,-2.20914 1.79086,-4 4,-4 z m 0,1 c -1.65685,0 -3,1.34315 -3,3 0,1.65685 1.34315,3 3,3 1.65685,0 3,-1.34315 3,-3 0,-1.65685 -1.34315,-3 -3,-3 z m 0,1 c 1.10457,0 2,0.89543 2,2 0,1.10457 -0.89543,2 -2,2 -1.10457,0 -2,-0.89543 -2,-2 0,-1.10457 0.89543,-2 2,-2 z"/></clipPath><clipPath id="clipPath101"><rect id="rect103" width="30" height="30" x="433" y="29" color="#bebebe" rx="6"/></clipPath><clipPath id="clipPath105"><path id="path107" d="m 328,238 c -7.73199,0 -14,6.26801 -14,14 0,7.73199 6.26801,14 14,14 7.73199,0 14,-6.26801 14,-14 0,-7.73199 -6.26801,-14 -14,-14 z m 0,8.75 c 2.89949,0 5.25,2.35051 5.25,5.25 0,2.89949 -2.35051,5.25 -5.25,5.25 -2.89949,0 -5.25,-2.35051 -5.25,-5.25 0,-2.89949 2.35051,-5.25 5.25,-5.25 z m 0,1.75 c -1.933,0 -3.5,1.567 -3.5,3.5 0,1.933 1.567,3.5 3.5,3.5 1.933,0 3.5,-1.567 3.5,-3.5 0,-1.933 -1.567,-3.5 -3.5,-3.5 z m 0,1.75 c 0.96649,0 1.75,0.78351 1.75,1.75 0,0.96649 -0.78351,1.75 -1.75,1.75 -0.96649,0 -1.75,-0.78351 -1.75,-1.75 0,-0.96649 0.78351,-1.75 1.75,-1.75 z"/></clipPath><clipPath id="clipPath109"><path id="path111" d="m 451.38843,133.3713 6.42857,4.71429 0,-11.57143 -6.42857,0 z"/></clipPath><clipPath id="clipPath113"><rect id="rect115" width="90" height="90" x="307" y="31" fill="url(#9)" color="#bebebe" rx="18.75"/></clipPath><clipPath id="clipPath117"><rect id="rect119" width="20" height="20" x="434" y="78" color="#bebebe" rx="4"/></clipPath><clipPath id="clipPath121"><rect id="rect123" width="22" height="22" x="433" y="77" color="#bebebe" rx="4"/></clipPath><clipPath id="clipPath125"><path id="path127" d="m 328,242.09375 c -7.73199,0 -14,6.26801 -14,14 0,7.73199 6.26801,14 14,14 7.73199,0 14,-6.26801 14,-14 0,-7.73199 -6.26801,-14 -14,-14 z M 328,252 c 2.20914,0 4,1.79086 4,4 0,2.20914 -1.79086,4 -4,4 -2.20914,0 -4,-1.79086 -4,-4 0,-2.20914 1.79086,-4 4,-4 z m 0,1 c -1.65685,0 -3,1.34315 -3,3 0,1.65685 1.34315,3 3,3 1.65685,0 3,-1.34315 3,-3 0,-1.65685 -1.34315,-3 -3,-3 z m 0,1 c 1.10457,0 2,0.89543 2,2 0,1.10457 -0.89543,2 -2,2 -1.10457,0 -2,-0.89543 -2,-2 0,-1.10457 0.89543,-2 2,-2 z"/></clipPath><clipPath id="clipPath129"><rect id="rect131" width="22" height="22" x="433" y="77" color="#bebebe" rx="5"/></clipPath><clipPath id="clipPath133"><rect id="rect135" width="240" height="240" x="24" y="36" fill="#986767" color="#bebebe" rx="50"/></clipPath><clipPath id="clipPath137"><path id="path139" d="m 144.00001,75.999997 c -44.1828,0 -80,35.817203 -80,80.000003 0,44.1828 35.8172,80 80,80 44.1828,0 80,-35.8172 80,-80 0,-44.1828 -35.8172,-80.000003 -80,-80.000003 z m 0,56.607143 c 12.62366,0 22.85714,10.23349 22.85714,22.85714 0,12.62366 -10.23348,22.85714 -22.85714,22.85714 -12.62366,0 -22.85714,-10.23348 -22.85714,-22.85714 0,-12.62365 10.23348,-22.85714 22.85714,-22.85714 z m 0,5.71429 c -9.46771,0 -17.14286,7.67514 -17.14286,17.14285 0,9.46772 7.67515,17.14286 17.14286,17.14286 9.46771,0 17.14286,-7.67514 17.14286,-17.14286 0,-9.46771 -7.67515,-17.14285 -17.14286,-17.14285 z m 0,5.71428 c 6.31183,0 11.42857,5.11674 11.42857,11.42857 0,6.31183 -5.11674,11.42857 -11.42857,11.42857 -6.31183,0 -11.42857,-5.11674 -11.42857,-11.42857 0,-6.31183 5.11674,-11.42857 11.42857,-11.42857 z"/></clipPath><clipPath id="clipPath141"><path id="path143" d="m 451.38843,127.3713 c -3.31371,0 -6,2.68629 -6,6 0,3.31371 2.68629,6 6,6 3.31371,0 6,-2.68629 6,-6 0,-3.31371 -2.68629,-6 -6,-6 z m 0,3 c 1.65685,0 3,1.34315 3,3 0,1.65685 -1.34315,3 -3,3 -1.65685,0 -3,-1.34315 -3,-3 0,-1.65685 1.34315,-3 3,-3 z m 0,1 c -1.10457,0 -2,0.89543 -2,2 0,1.10457 0.89543,2 2,2 1.10457,0 2,-0.89543 2,-2 0,-1.10457 -0.89543,-2 -2,-2 z m 0,1 c 0.55228,0 1,0.44772 1,1 0,0.55228 -0.44772,1 -1,1 -0.55228,0 -1,-0.44772 -1,-1 0,-0.55228 0.44772,-1 1,-1 z"/></clipPath><clipPath id="clipPath145"><rect id="rect147" width="16" height="16" x="432" y="116" color="#bebebe" rx="3"/></clipPath><clipPath id="clipPath149"><path id="path151" d="m 444,88 c -4.41828,0 -8,3.58172 -8,8 0,4.41828 3.58172,8 8,8 4.41828,0 8,-3.58172 8,-8 0,-4.41828 -3.58172,-8 -8,-8 z m 0,5 c 1.65685,0 3,1.34315 3,3 0,1.65685 -1.34315,3 -3,3 -1.65685,0 -3,-1.34315 -3,-3 0,-1.65685 1.34315,-3 3,-3 z m 0,1 c -1.10457,0 -2,0.89543 -2,2 0,1.10457 0.89543,2 2,2 1.10457,0 2,-0.89543 2,-2 0,-1.10457 -0.89543,-2 -2,-2 z m 0,1 c 0.55228,0 1,0.44772 1,1 0,0.55228 -0.44772,1 -1,1 -0.55228,0 -1,-0.44772 -1,-1 0,-0.55228 0.44772,-1 1,-1 z"/></clipPath><clipPath id="clipPath153"><rect id="rect155" width="30" height="30" x="433" y="29" fill="#6d6d6d" color="#bebebe" opacity=".2" rx="4"/></clipPath><clipPath id="clipPath157"><path id="path159" d="m 328,256 15,11 0,-27 -15,0 z"/></clipPath><clipPath id="clipPath161"><path id="path163" d="m 328,238 c -7.73199,0 -14,6.26801 -14,14 0,7.73199 6.26801,14 14,14 7.73199,0 14,-6.26801 14,-14 0,-7.73199 -6.26801,-14 -14,-14 z m 0,9.90625 c 2.20914,0 4,1.79086 4,4 0,2.20914 -1.79086,4 -4,4 -2.20914,0 -4,-1.79086 -4,-4 0,-2.20914 1.79086,-4 4,-4 z m 0,1 c -1.65685,0 -3,1.34315 -3,3 0,1.65685 1.34315,3 3,3 1.65685,0 3,-1.34315 3,-3 0,-1.65685 -1.34315,-3 -3,-3 z m 0,1 c 1.10457,0 2,0.89543 2,2 0,1.10457 -0.89543,2 -2,2 -1.10457,0 -2,-0.89543 -2,-2 0,-1.10457 0.89543,-2 2,-2 z"/></clipPath><clipPath id="clipPath165"><rect id="rect167" width="16" height="16" x="432" y="116" fill="#6d6d6d" color="#bebebe" opacity=".2" rx="2"/></clipPath><clipPath id="clipPath169"><rect id="rect171" width="22" height="22" x="433" y="77" color="#bebebe" rx="5"/></clipPath><clipPath id="clipPath173"><rect id="rect175" width="90" height="90" x="307" y="31" fill="url(#A)" color="#bebebe" rx="18.75"/></clipPath><clipPath id="clipPath177"><rect id="rect179" width="16" height="16" x="432" y="116" color="#bebebe" rx="3"/></clipPath><clipPath id="clipPath181"><rect id="rect183" width="22" height="22" x="433" y="77" color="#bebebe" rx="4"/></clipPath><clipPath id="clipPath185"><rect id="rect187" width="30" height="30" x="433" y="29" color="#bebebe" rx="6"/></clipPath><clipPath id="clipPath189"><rect id="rect191" width="240" height="240" x="24" y="36" fill="#986767" color="#bebebe" rx="50"/></clipPath><clipPath id="clipPath193"><rect id="rect195" width="20" height="20" x="434" y="78" color="#bebebe" rx="4"/></clipPath><clipPath id="clipPath197"><rect id="rect199" width="60" height="60" x="306" y="142" fill="url(#C)" color="#bebebe" rx="12.5" transform="matrix(0 -1 1 0 0 0)"/></clipPath><clipPath id="clipPath201"><rect id="rect203" width="240" height="240" x="24" y="36" fill="#986767" color="#bebebe" rx="50"/></clipPath><clipPath id="clipPath205"><rect id="rect207" width="16" height="16" x="432" y="116" color="#bebebe" rx="3"/></clipPath><clipPath id="clipPath209"><rect id="rect211" width="22" height="22" x="433" y="77" color="#bebebe" rx="4"/></clipPath><clipPath id="clipPath213"><rect id="rect215" width="30" height="30" x="433" y="29" fill="#6d6d6d" color="#bebebe" opacity=".2" rx="4"/></clipPath><clipPath id="clipPath217"><rect id="rect219" width="16" height="16" x="432" y="116" fill="#6d6d6d" color="#bebebe" opacity=".2" rx="2"/></clipPath><clipPath id="clipPath221"><rect id="rect223" width="22" height="22" x="433" y="77" fill="#6d6d6d" color="#bebebe" opacity=".2" rx="3"/></clipPath><clipPath id="clipPath225"><rect id="rect227" width="20" height="20" x="434" y="78" color="#bebebe" rx="4"/></clipPath><clipPath id="clipPath229"><rect id="rect231" width="30" height="30" x="433" y="29" color="#bebebe" rx="6"/></clipPath><clipPath id="clipPath233"><rect id="rect235" width="22" height="22" x="433" y="77" color="#bebebe" rx="5"/></clipPath><clipPath id="clipPath237"><rect id="rect239" width="22" height="22" x="433" y="77" fill="#6d6d6d" color="#bebebe" opacity=".2" rx="3"/></clipPath><clipPath id="clipPath241"><rect id="rect243" width="42" height="42" x="307" y="223" fill="url(#3)" color="#bebebe" rx="9" transform="rotate(90)"/></clipPath><clipPath id="clipPath245"><rect id="rect247" width="16" height="16" x="432" y="116" fill="#6d6d6d" color="#bebebe" opacity=".2" rx="2"/></clipPath><clipPath id="clipPath249"><rect id="rect251" width="60" height="60" x="306" y="142" fill="url(#2)" color="#bebebe" rx="12.5" transform="matrix(0 -1 1 0 0 0)"/></clipPath><clipPath id="clipPath253"><rect id="rect255" width="42" height="42" x="307" y="223" fill="url(#B)" color="#bebebe" rx="9" transform="rotate(90)"/></clipPath><clipPath id="clipPath257"><rect id="rect259" width="90" height="90" x="307" y="31" fill="url(#5)" color="#bebebe" rx="18.75"/></clipPath><radialGradient id="radialGradient261" cx="328" cy="255.42" r="7" gradientTransform="matrix(1.22449 0 0 1.22449 49.7555 -179.34296)" gradientUnits="userSpaceOnUse" xlink:href="#7"/><radialGradient id="radialGradient263" cx="328" cy="255.42" r="7" gradientTransform="matrix(2.85714 0 0 2.85714 -609.14349 -473.66662)" gradientUnits="userSpaceOnUse" xlink:href="#7"/><radialGradient id="radialGradient265" cx="328" cy="255.42" r="7" gradientTransform="matrix(1.22449 0 0 1.22449 49.7555 -179.34296)" gradientUnits="userSpaceOnUse" xlink:href="#7"/><radialGradient id="radialGradient267" cx="328" cy="255.42" r="7" gradientTransform="matrix(2.85714 0 0 2.85714 -609.14349 -473.66662)" gradientUnits="userSpaceOnUse" xlink:href="#7"/><radialGradient id="radialGradient269" cx="328" cy="255.42" r="7" gradientTransform="matrix(2.85714 0 0 2.85714 -609.14349 -473.66662)" gradientUnits="userSpaceOnUse" xlink:href="#7"/><radialGradient id="radialGradient271" cx="328" cy="255.42" r="7" gradientTransform="matrix(1.22449 0 0 1.22449 49.7555 -179.34296)" gradientUnits="userSpaceOnUse" xlink:href="#7"/><linearGradient id="D" x2="0" y1="230" y2="90" gradientTransform="matrix(.25 0 0 .25 299.99999 131.99999)" gradientUnits="userSpaceOnUse" xlink:href="#4"/><linearGradient id="E" x2="0" y1="230" y2="90" gradientTransform="matrix(.25 0 0 .25 299.99999 131.99999)" gradientUnits="userSpaceOnUse" xlink:href="#4"/><linearGradient id="F" x2="0" y1="280" y2="40" gradientTransform="matrix(.175 0 0 .175 302.79999 215.99997)" gradientUnits="userSpaceOnUse" xlink:href="#4"/><linearGradient id="G" x2="0" y1="230" y2="90" gradientTransform="matrix(.375 0 0 .375 298 16)" gradientUnits="userSpaceOnUse" xlink:href="#4"/><linearGradient id="linearGradient277" x2="0" y1="140" y2="124" gradientUnits="userSpaceOnUse" xlink:href="#6"/><linearGradient id="linearGradient279" x2="0" y1="273" y2="231" gradientTransform="translate(0 4.09376)" gradientUnits="userSpaceOnUse" xlink:href="#6"/><linearGradient id="linearGradient281" x2="0" y1="273" y2="231" gradientTransform="translate(0 4.09376)" gradientUnits="userSpaceOnUse" xlink:href="#6"/><linearGradient id="linearGradient283" x2="0" y1="140" y2="124" gradientTransform="translate(11.38843 1.3713)" gradientUnits="userSpaceOnUse" xlink:href="#6"/><linearGradient id="linearGradient285" x2="0" y1="107" y2="85" gradientUnits="userSpaceOnUse" xlink:href="#6"/><linearGradient id="H" x2="0" y1="280" y2="40" gradientTransform="matrix(.175 0 0 .175 302.79999 215.99997)" gradientUnits="userSpaceOnUse" xlink:href="#4"/><linearGradient id="linearGradient288" x2="0" y1="273" y2="231" gradientTransform="matrix(5.71429 0 0 5.71429 -1730.2857 -1284)" gradientUnits="userSpaceOnUse" xlink:href="#6"/><linearGradient id="linearGradient290" x2="0" y1="140" y2="124" gradientUnits="userSpaceOnUse" xlink:href="#6"/><linearGradient id="linearGradient292" x2="0" y1="273" y2="231" gradientTransform="matrix(5.71429 0 0 5.71429 -1730.2857 -1284)" gradientUnits="userSpaceOnUse" xlink:href="#6"/><linearGradient id="linearGradient294" x2="0" y1="107" y2="85" gradientUnits="userSpaceOnUse" xlink:href="#6"/><linearGradient id="I" x2="0" y1="230" y2="90" gradientTransform="matrix(.375 0 0 .375 298 16)" gradientUnits="userSpaceOnUse" xlink:href="#4"/><linearGradient id="linearGradient297" x2="0" y1="107" y2="85" gradientUnits="userSpaceOnUse" xlink:href="#6"/><linearGradient id="linearGradient299" x2="0" y1="140" y2="124" gradientTransform="translate(11.38843 1.3713)" gradientUnits="userSpaceOnUse" xlink:href="#6"/><linearGradient id="linearGradient301" x2="0" y1="140" y2="124" gradientUnits="userSpaceOnUse" xlink:href="#6"/><linearGradient id="J" x2="0" y1="230" y2="90" gradientTransform="matrix(.375 0 0 .375 298 16)" gradientUnits="userSpaceOnUse" xlink:href="#4"/><linearGradient id="K" x2="0" y1="280" y2="40" gradientTransform="matrix(.175 0 0 .175 302.79999 215.99997)" gradientUnits="userSpaceOnUse" xlink:href="#4"/><linearGradient id="linearGradient305" x2="0" y1="273" y2="231" gradientTransform="matrix(5.71429 0 0 5.71429 -1730.2857 -1284)" gradientUnits="userSpaceOnUse" xlink:href="#6"/><linearGradient id="linearGradient307" x2="0" y1="140" y2="124" gradientTransform="translate(11.38843 1.3713)" gradientUnits="userSpaceOnUse" xlink:href="#6"/><linearGradient id="L" x2="0" y1="230" y2="90" gradientTransform="matrix(.25 0 0 .25 299.99999 131.99999)" gradientUnits="userSpaceOnUse" xlink:href="#4"/><linearGradient id="linearGradient310" x2="0" y1="273" y2="231" gradientTransform="translate(0 4.09376)" gradientUnits="userSpaceOnUse" xlink:href="#6"/><clipPath id="clipPath312"><rect id="rect314" width="30" height="30" x="433" y="29" fill="#6d6d6d" color="#bebebe" opacity=".2" rx="4"/></clipPath><clipPath id="clipPath316"><rect id="rect318" width="42" height="42" x="307" y="223" fill="url(#H)" color="#bebebe" rx="9" transform="rotate(90)"/></clipPath><clipPath id="clipPath320"><rect id="rect322" width="60" height="60" x="306" y="142" fill="url(#D)" color="#bebebe" rx="12.5" transform="matrix(0 -1 1 0 0 0)"/></clipPath><clipPath id="clipPath324"><rect id="rect326" width="22" height="22" x="433" y="77" fill="#6d6d6d" color="#bebebe" opacity=".2" rx="3"/></clipPath><clipPath id="clipPath328"><rect id="rect330" width="30" height="30" x="433" y="29" color="#bebebe" rx="6"/></clipPath><clipPath id="clipPath332"><rect id="rect334" width="90" height="90" x="307" y="31" fill="url(#I)" color="#bebebe" rx="18.75"/></clipPath><clipPath id="clipPath336"><rect id="rect338" width="20" height="20" x="434" y="78" color="#bebebe" rx="4"/></clipPath><clipPath id="clipPath340"><rect id="rect342" width="22" height="22" x="433" y="77" color="#bebebe" rx="4"/></clipPath><clipPath id="clipPath344"><rect id="rect346" width="22" height="22" x="433" y="77" color="#bebebe" rx="5"/></clipPath><clipPath id="clipPath348"><rect id="rect350" width="240" height="240" x="24" y="36" fill="#986767" color="#bebebe" rx="50"/></clipPath><clipPath id="clipPath352"><rect id="rect354" width="16" height="16" x="432" y="116" color="#bebebe" rx="3"/></clipPath><clipPath id="clipPath356"><rect id="rect358" width="30" height="30" x="433" y="29" fill="#6d6d6d" color="#bebebe" opacity=".2" rx="4"/></clipPath><clipPath id="clipPath360"><rect id="rect362" width="16" height="16" x="432" y="116" fill="#6d6d6d" color="#bebebe" opacity=".2" rx="2"/></clipPath><clipPath id="clipPath364"><rect id="rect366" width="22" height="22" x="433" y="77" color="#bebebe" rx="5"/></clipPath><clipPath id="clipPath368"><rect id="rect370" width="90" height="90" x="307" y="31" fill="url(#J)" color="#bebebe" rx="18.75"/></clipPath><clipPath id="clipPath372"><rect id="rect374" width="16" height="16" x="432" y="116" color="#bebebe" rx="3"/></clipPath><clipPath id="clipPath376"><rect id="rect378" width="22" height="22" x="433" y="77" color="#bebebe" rx="4"/></clipPath><clipPath id="clipPath380"><rect id="rect382" width="30" height="30" x="433" y="29" color="#bebebe" rx="6"/></clipPath><clipPath id="clipPath384"><rect id="rect386" width="240" height="240" x="24" y="36" fill="#986767" color="#bebebe" rx="50"/></clipPath><clipPath id="clipPath388"><rect id="rect390" width="20" height="20" x="434" y="78" color="#bebebe" rx="4"/></clipPath><clipPath id="clipPath392"><rect id="rect394" width="60" height="60" x="306" y="142" fill="url(#L)" color="#bebebe" rx="12.5" transform="matrix(0 -1 1 0 0 0)"/></clipPath><clipPath id="clipPath396"><rect id="rect398" width="240" height="240" x="24" y="36" fill="#986767" color="#bebebe" rx="50"/></clipPath><clipPath id="clipPath400"><rect id="rect402" width="16" height="16" x="432" y="116" color="#bebebe" rx="3"/></clipPath><clipPath id="clipPath404"><rect id="rect406" width="22" height="22" x="433" y="77" color="#bebebe" rx="4"/></clipPath><clipPath id="clipPath408"><rect id="rect410" width="30" height="30" x="433" y="29" fill="#6d6d6d" color="#bebebe" opacity=".2" rx="4"/></clipPath><clipPath id="clipPath412"><rect id="rect414" width="16" height="16" x="432" y="116" fill="#6d6d6d" color="#bebebe" opacity=".2" rx="2"/></clipPath><clipPath id="clipPath416"><rect id="rect418" width="22" height="22" x="433" y="77" fill="#6d6d6d" color="#bebebe" opacity=".2" rx="3"/></clipPath><clipPath id="clipPath420"><rect id="rect422" width="20" height="20" x="434" y="78" color="#bebebe" rx="4"/></clipPath><clipPath id="clipPath424"><rect id="rect426" width="30" height="30" x="433" y="29" color="#bebebe" rx="6"/></clipPath><clipPath id="clipPath428"><rect id="rect430" width="22" height="22" x="433" y="77" color="#bebebe" rx="5"/></clipPath><clipPath id="clipPath432"><rect id="rect434" width="22" height="22" x="433" y="77" fill="#6d6d6d" color="#bebebe" opacity=".2" rx="3"/></clipPath><clipPath id="clipPath436"><rect id="rect438" width="42" height="42" x="307" y="223" fill="url(#F)" color="#bebebe" rx="9" transform="rotate(90)"/></clipPath><clipPath id="clipPath440"><rect id="rect442" width="16" height="16" x="432" y="116" fill="#6d6d6d" color="#bebebe" opacity=".2" rx="2"/></clipPath><clipPath id="clipPath444"><rect id="rect446" width="60" height="60" x="306" y="142" fill="url(#E)" color="#bebebe" rx="12.5" transform="matrix(0 -1 1 0 0 0)"/></clipPath><clipPath id="clipPath448"><rect id="rect450" width="42" height="42" x="307" y="223" fill="url(#K)" color="#bebebe" rx="9" transform="rotate(90)"/></clipPath><clipPath id="clipPath452"><rect id="rect454" width="90" height="90" x="307" y="31" fill="url(#G)" color="#bebebe" rx="18.75"/></clipPath><linearGradient id="M" x2="0" y1="1050.36" y2="1006.36" gradientTransform="matrix(0.28222223,0,0,0.28222223,0,-283.45334)" gradientUnits="userSpaceOnUse" xlink:href="#0"/><path id="N" d="m -28.881357,18.305084 a 11.79661,10.169492 0 1 1 -23.59322,0 11.79661,10.169492 0 1 1 23.59322,0 z"/><radialGradient id="radialGradient3018" cx="148.004" cy="160" r="128" gradientTransform="matrix(0.1831,0,0,0.1831,-3.10079,-5.29638)" gradientUnits="userSpaceOnUse" xlink:href="#radial0"/><radialGradient id="radial0" cx="148.004" cy="160" r="128" gradientTransform="matrix(0.1831,0,0,0.1831,-3.10029,-5.29688)" gradientUnits="userSpaceOnUse"><stop id="stop7-9" offset="0" stop-color="#fbd0ba"/><stop id="stop9-8" offset="1" stop-color="#d55b1c"/></radialGradient><radialGradient id="radialGradient3016" cx="148.004" cy="160" r="128" gradientTransform="matrix(0.05167489,0,0,0.05167489,-0.87511101,-1.4947612)" gradientUnits="userSpaceOnUse" xlink:href="#radial0"/></defs><path id="path11" fill="url(#radialGradient3016)" d="m 13.387776,3.2589209 0,7.0290971 c 0,2.892778 0,3.100035 -3.100035,3.100035 l -7.0279944,0 c -3.10113721,0 -3.10113721,-0.207257 -3.10113721,-3.100035 l 0,-7.0290971 c 0,-2.89277779 0,-3.10003479 3.10113721,-3.10003479 l 7.0279944,0 c 3.100035,0 3.100035,0.207257 3.100035,3.10003479 z"/><path id="path15" fill="#fff" fill-opacity=".051" d="m 10.799269,13.388053 c 0.717682,-0.0033 1.235825,-0.02315 1.611753,-0.124575 l -1.193932,-2.046111 -1.2655897,2.170686 0.3362407,0 c 0.180799,0 0.350573,0 0.511528,0 z M 11.21709,11.217367 9.7707017,8.7368984 8.3232104,11.217367 z m 0,0 2.159662,0 c 0.0088,-0.274505 0.01102,-0.582083 0.01102,-0.930451 l 0,-0.3097833 -0.723194,-1.2402343 z M 12.664582,8.7368984 11.21709,6.2564297 9.7707017,8.7368984 z m 0,0 0.723194,0 0,-1.2402343 z m -2.8938803,0 L 8.3232104,6.2564297 6.8768215,8.7368984 z m -2.8938802,0 -1.4474916,2.4804686 2.8938805,0 z m 0,0 L 5.4293299,6.2564297 3.982941,8.7368984 z m -2.8938805,0 -1.4474913,2.4804686 2.8938802,0 z m 0,0 L 2.5354497,6.2564297 1.0890608,8.7368984 z m -2.8938802,0 -0.93045141,1.5941146 c 0,0.329627 0.00331,0.623976 0.011024,0.886354 l 2.36581611,0 z m 0,0 -0.93045141,-1.5941145 0,1.5941145 z m 1.4463889,2.4804686 -1.2170833,2.086901 c 0.450894,0.08268 1.0748699,0.08379 1.9413802,0.08379 l 0.5423958,0 z m 0,-4.9609373 -1.4463889,-2.4804689 -0.93045141,1.5941147 0,0.8863542 z m 0,0 2.8938802,0 L 3.982941,3.7759608 z M 3.982941,3.7759608 2.5354497,1.2954921 1.0890608,3.7759608 z m 0,0 2.8938805,0 -1.4474916,-2.4804687 z m 1.4463889,-2.4804687 -0.663663,-1.13660599 -1.5070227,0 c -0.020946,0 -0.038585,0 -0.059531,0 L 2.5354498,1.2954921 z m 0,0 2.8938805,0 -0.6636633,-1.13660599 -1.5665538,0 z m 2.8938805,0 2.8938796,0 -0.663663,-1.13660599 c -0.0882,0 -0.171979,0 -0.266788,0 l -1.2997655,0 z m 0,0 -1.4463889,2.4804687 2.8938802,0 z m 1.4474913,2.4804687 2.8938803,0 -1.447492,-2.4804687 z m 0,0 -1.4474913,2.4804689 2.8938796,0 z m 1.4463883,2.4804689 2.170686,0 0,-1.2402343 -0.723194,-1.2402346 z m 1.447492,-2.4804689 0.723194,0 0,-0.5170399 c 0,-0.2579689 -0.0022,-0.4938889 -0.0066,-0.71217 z M 8.3232104,6.2564297 6.8768215,3.7759608 5.4293299,6.2564297 z m 2.8938796,-4.9609376 2.062648,0 C 13.123193,0.51717601 12.747264,0.27133421 11.859807,0.19416391 z m -8.6816403,0 L 1.8850158,0.17983241 C 0.85203819,0.23826141 0.43421689,0.46095201 0.26664749,1.2954921 z M 1.0890608,3.7759608 0.17514589,2.2083046 c -0.012127,0.3031685 -0.016537,0.6515363 -0.016537,1.0506163 l 0,0.5170399 z m 4.3402691,7.4414062 -1.2655903,2.170686 2.532283,0 z m 2.8938805,0 -1.2655906,2.170686 2.5322833,0 z m -7.59133711,1.86862 -0.4519964,-0.775009 c 0.082682,0.371519 0.2215885,0.615157 0.4519964,0.775009 z"/><path id="path476" fill="#f9f9f9" fill-opacity="1" d="M 9.7478472,6.9365133 C 9.985509,6.7899893 10.160001,6.4695812 10.160001,6.1797037 10.160001,5.9170142 10.028252,5.4902018 9.7938054,4.9933716 9.5467453,4.4698129 8.8468933,3.7473099 8.3243724,3.4763804 7.6874098,3.1461118 7.3852962,3.0878099 6.4154926,3.1080045 5.669409,3.1235411 5.5542015,3.1385958 5.4274641,3.2371155 5.2549555,3.3712165 5.0583586,3.771697 5.0819324,3.9409884 c 0.02678,0.1923423 0.352437,0.2874673 0.837961,0.2447725 0.4710542,-0.041424 0.5393753,0.011348 0.3185992,0.2460807 -0.1097899,0.1167303 -0.2241426,0.1719918 -0.409915,0.198094 -0.1417058,0.019911 -0.2930487,0.041977 -0.3363174,0.049037 -0.053697,0.00875 -0.03705,0.038321 0.052445,0.093117 0.090062,0.055145 0.369213,0.089471 0.8915901,0.1096304 0.6751441,0.026056 0.7928419,0.04552 1.0489307,0.1734687 0.3082872,0.1540275 0.690588,0.5233431 0.8225032,0.794564 0.044337,0.09116 0.1255938,0.3047477 0.180569,0.4746387 0.1609124,0.497264 0.4332785,0.7334741 0.8430631,0.7311473 0.13228,-7.525e-4 0.3044541,-0.049963 0.416486,-0.1190255 z M 5.8174284,3.8114651 c -0.1554362,-0.1652634 -0.0045,-0.5464686 0.2164079,-0.5464686 0.2487972,0 0.3885195,0.34143 0.2151521,0.5257569 -0.097535,0.1036985 -0.3424517,0.1154529 -0.43156,0.020712 z"/><rect id="rect480" width="5.759" height="1.406" x="3.104" y="4.798" fill="#f9f9f9" fill-opacity="1" rx=".924" ry=".669"/><rect id="rect482" width="4.804" height="1.765" x="-1.195" y="7.979" fill="#f9f9f9" fill-opacity="1" rx=".771" ry=".84" transform="matrix(0.75879482,-0.65132973,0.35228524,0.93589268,0,0)"/><path id="use3488" fill="#f9f9f9" fill-opacity="1" d="M 27.28125 17 A 10 10 0 0 0 17 27 A 10 10 0 0 0 37 27 A 10 10 0 0 0 27.28125 17 z M 26.65625 22 A 4.9999998 5.0000002 0 0 1 32 27 A 4.9999998 5.0000002 0 1 1 22 27 A 4.9999998 5.0000002 0 0 1 26.65625 22 z" transform="scale(0.28222223,0.28222223)"/></svg>