<svg xmlns="http://www.w3.org/2000/svg" xmlns:svg="http://www.w3.org/2000/svg" xmlns:xlink="http://www.w3.org/1999/xlink" id="svg2" width="48" height="48" enable-background="new" version="1.1" viewBox="0 0 13.547 13.547"><metadata id="metadata94"/><defs id="defs4"><linearGradient id="0"><stop id="stop7" stop-color="#dcdcdc"/><stop id="stop9" offset="1" stop-color="#f7f7f7"/></linearGradient><linearGradient id="1" x2="0" y1="299.81" y2="31.619" gradientTransform="matrix(0.11931818,0,0,0.11931818,414.13636,48.22727)" gradientUnits="userSpaceOnUse" xlink:href="#A"/><clipPath id="clipPath12"><rect id="rect14" width="30" height="30" x="417" y="53" fill="url(#1)" color="#bebebe" rx="7"/></clipPath><linearGradient id="2" x2="0" y1="302.86" y2="28.571" gradientTransform="matrix(0.0875,0,0,0.0875,414.9,97.5)" gradientUnits="userSpaceOnUse" xlink:href="#A"/><clipPath id="clipPath17"><rect id="rect19" width="22" height="22" x="417" y="101" fill="url(#2)" color="#bebebe" rx="5"/></clipPath><linearGradient id="3" x2="0" y1="124" y2="28" gradientUnits="userSpaceOnUse" xlink:href="#A"/><clipPath id="clipPath22"><rect id="rect24" width="88" height="88" x="292" y="32" fill="url(#3)" color="#bebebe" rx="18"/></clipPath><linearGradient id="4" x2="0" y1="204" y2="140" gradientUnits="userSpaceOnUse" xlink:href="#A"/><clipPath id="clipPath27"><rect id="rect29" width="60" height="60" x="290" y="142" fill="url(#4)" color="#bebebe" rx="12.5"/></clipPath><linearGradient id="5" x2="0" y1="280" y2="40" gradientTransform="translate(0,-4)" gradientUnits="userSpaceOnUse" xlink:href="#A"/><clipPath id="clipPath32"><rect id="rect34" width="220" height="220" x="34" y="46" fill="url(#5)" color="#bebebe" rx="50"/></clipPath><linearGradient id="6" x2="0" y1="280" y2="40" gradientTransform="matrix(0.06666667,0,0,0.06666667,302.4,209.33333)" gradientUnits="userSpaceOnUse" xlink:href="#A"/><clipPath id="clipPath37"><rect id="rect39" width="16" height="16" x="304" y="212" fill="url(#6)" color="#bebebe" rx="3" transform="matrix(0,1,-1,0,0,0)"/></clipPath><linearGradient id="7" x2="0" y1="291.43" y2="40" gradientTransform="matrix(0.11931818,0,0,0.11931818,430.13636,32.227267)" gradientUnits="userSpaceOnUse" xlink:href="#A"/><clipPath id="clipPath42"><rect id="rect44" width="30" height="30" x="433" y="37" fill="url(#7)" color="#bebebe" rx="6"/></clipPath><linearGradient id="8" x2="0" y1="291.43" y2="40" gradientTransform="matrix(0.0875,0,0,0.0875,430.9,81.499996)" gradientUnits="userSpaceOnUse" xlink:href="#A"/><clipPath id="clipPath47"><rect id="rect49" width="22" height="22" x="433" y="85" fill="url(#8)" color="#bebebe" rx="4"/></clipPath><linearGradient id="9" x2="0" y1="280" y2="40" gradientTransform="matrix(0.175,0,0,0.175,302.79999,215.99997)" gradientUnits="userSpaceOnUse" xlink:href="#A"/><clipPath id="clipPath52"><rect id="rect54" width="42" height="42" x="307" y="223" fill="url(#9)" color="#bebebe" rx="9" transform="matrix(0,1,-1,0,0,0)"/></clipPath><linearGradient id="A"><stop id="stop57" stop-color="#b94642"/><stop id="stop59" offset="1" stop-color="#c66a58"/></linearGradient><linearGradient id="B" x2="0" y1="1050.36" y2="1006.36" gradientTransform="matrix(0.28222223,0,0,0.28222223,0,-283.45334)" gradientUnits="userSpaceOnUse" xlink:href="#0"/><radialGradient id="radialGradient3009" cx="148.004" cy="160" r="128" gradientTransform="matrix(0.05167489,0,0,0.05167489,-0.87510811,-1.4947608)" gradientUnits="userSpaceOnUse" xlink:href="#radial0"/><radialGradient id="radial0" cx="148.004" cy="160" r="128" gradientTransform="matrix(0.1831,0,0,0.1831,-3.10029,-5.29688)" gradientUnits="userSpaceOnUse"><stop id="stop7-6" offset="0" stop-color="#ebc8a8"/><stop id="stop9-0" offset="1" stop-color="#96693c"/></radialGradient><radialGradient id="radialGradient3064" cx="148.004" cy="160" r="128" gradientTransform="matrix(0.05167489,0,0,0.05167489,-0.87510811,-1.4947602)" gradientUnits="userSpaceOnUse" xlink:href="#radial0"/></defs><path id="path11" fill="url(#radialGradient3064)" d="m 13.38778,3.2589219 0,7.0290971 c 0,2.892777 0,3.100034 -3.100035,3.100034 l -7.0279946,0 c -3.10113751,0 -3.10113751,-0.207257 -3.10113751,-3.100034 l 0,-7.0290971 c 0,-2.89277779 0,-3.10003479 3.10113751,-3.10003479 l 7.0279946,0 c 3.100035,0 3.100035,0.207257 3.100035,3.10003479 z"/><path id="path13" fill="#fff" fill-opacity=".051" d="m 10.799273,13.388053 c 0.717682,-0.0033 1.235825,-0.02315 1.611753,-0.124574 l -1.193932,-2.04611 -1.2655906,2.170684 0.3362416,0 c 0.180799,0 0.350573,0 0.511528,0 z M 11.217094,11.217369 9.7707054,8.7368994 8.3232144,11.217369 z m 0,0 2.159662,0 c 0.0088,-0.274506 0.01102,-0.582084 0.01102,-0.930452 l 0,-0.3097833 -0.723194,-1.2402343 z M 12.664586,8.7368994 11.217094,6.2564307 9.7707054,8.7368994 z m 0,0 0.723194,0 0,-1.2402343 z m -2.8938806,0 -1.447491,-2.4804687 -1.446389,2.4804687 z m -2.89388,0 -1.447492,2.4804696 2.893881,0 z m 0,0 -1.447492,-2.4804687 -1.446389,2.4804687 z m -2.893881,0 -1.447491,2.4804696 2.89388,0 z m 0,0 -1.447491,-2.4804687 -1.4463895,2.4804687 z m -2.8938805,0 -0.93045101,1.5941156 c 0,0.329626 0.0033,0.623975 0.01102,0.886354 l 2.36581651,0 z m 0,0 -0.93045101,-1.5941145 0,1.5941145 z m 1.4463895,2.4804696 -1.2170835,2.086899 c 0.4508939,0.08268 1.0748695,0.08379 1.9413805,0.08379 l 0.542396,0 z m 0,-4.9609383 -1.4463895,-2.4804689 -0.93045101,1.5941147 0,0.8863542 z m 0,0 2.89388,0 -1.446389,-2.4804689 z M 3.9829444,3.7759618 2.5354534,1.2954931 1.0890639,3.7759618 z m 0,0 2.893881,0 -1.447492,-2.4804687 z m 1.446389,-2.4804687 -0.663663,-1.13660599 -1.50592,0 c -0.02205,0 -0.03969,0 -0.06063,0 L 2.5354574,1.2954931 z m 0,0 2.893881,0 -0.663664,-1.13660599 -1.566554,0 z m 2.893881,0 2.8938796,0 -0.663663,-1.13660599 c -0.0882,0 -0.171979,0 -0.265686,0 l -1.3008676,0 z m 0,0 -1.446389,2.4804687 2.89388,0 z m 1.447491,2.4804687 2.8938806,0 -1.447492,-2.4804687 z m 0,0 -1.447491,2.4804689 2.8938796,0 z m 1.4463886,2.4804689 2.170686,0 0,-1.2402343 -0.723194,-1.2402346 z m 1.447492,-2.4804689 0.723194,0 0,-0.5170399 c 0,-0.2579689 -0.0022,-0.4938889 -0.0066,-0.71217 z M 8.3232144,6.2564307 6.8768254,3.7759618 5.4293334,6.2564307 z m 2.8938796,-4.9609376 2.062648,0 C 13.123197,0.51717701 12.747268,0.27133521 11.859811,0.19416491 z m -8.6816406,0 L 1.8850192,0.17983341 C 0.85204189,0.23826241 0.43421989,0.46095291 0.26665089,1.2954931 z M 1.0890639,3.7759618 0.17514889,2.2083056 c -0.01213,0.3031685 -0.01654,0.6515363 -0.01654,1.0506163 l 0,0.5170399 z m 4.3402695,7.4414072 -1.26559,2.170684 2.532283,0 z m 2.893881,0 -1.265591,2.170684 2.532283,0 z m -7.59133751,1.868619 -0.451997,-0.775009 c 0.08268,0.371519 0.221589,0.615157 0.451997,0.775009 z"/><path id="path78" fill="#f9f9f9" fill-opacity="1" d="M 3.1631665,7.6989902 3.5162485,8.8792212 10.442223,6.5949436 10.065962,5.4386183 z"/><path id="path80" fill="#f9f9f9" fill-opacity="1" d="m 3.3682315,5.6886731 -0.263787,1.2050205 6.9839075,1.7934126 0.257509,-1.206824 z"/><path id="path82" fill="#f9f9f9" fill-opacity="1" d="m 3.7673245,4.9037728 0.886478,-0.8214413 2.959088,3.4798065 -0.86775,0.7244202 z"/><path id="path84" fill="#f9f9f9" fill-opacity="1" d="M 9.1313955,4.1943609 9.9242315,5.1128227 6.5656035,8.1786742 6.0239072,7.1571184 z"/><path id="path86" fill="#f9f9f9" fill-opacity="1" d="M 5.1969255,3.6554407 6.3456015,3.390251 7.2445645,7.2581401 6.0771605,7.5362659 z"/><path id="path88" fill="#f9f9f9" fill-opacity="1" d="m 7.4238695,3.386667 1.12276,0.3653989 -1.158072,3.8153893 -1.075223,-0.363898 z"/><rect id="rect90" width="1.411" height="3.387" x="6.068" y="6.773" fill="#f9f9f9" fill-opacity="1"/></svg>