<svg xmlns="http://www.w3.org/2000/svg" xmlns:svg="http://www.w3.org/2000/svg" xmlns:xlink="http://www.w3.org/1999/xlink" id="svg2" width="48" height="48" version="1.1" viewBox="0 0 13.547 13.547"><metadata id="metadata402"/><defs id="defs4"><clipPath id="clipPath6" clipPathUnits="userSpaceOnUse"><rect id="rect8" width="60" height="60" x="306" y="142" fill="url(#linearGradient4863-9)" color="#bebebe" rx="12.5" transform="matrix(0 -1 1 0 0 0)"/></clipPath><clipPath id="clipPath10" clipPathUnits="userSpaceOnUse"><path id="path12" d="m 328,238 c -7.73199,0 -14,6.26801 -14,14 0,7.73199 6.26801,14 14,14 7.73199,0 14,-6.26801 14,-14 0,-7.73199 -6.26801,-14 -14,-14 z m 0,8.75 c 2.89949,0 5.25,2.35051 5.25,5.25 0,2.89949 -2.35051,5.25 -5.25,5.25 -2.89949,0 -5.25,-2.35051 -5.25,-5.25 0,-2.89949 2.35051,-5.25 5.25,-5.25 z m 0,1.75 c -1.933,0 -3.5,1.567 -3.5,3.5 0,1.933 1.567,3.5 3.5,3.5 1.933,0 3.5,-1.567 3.5,-3.5 0,-1.933 -1.567,-3.5 -3.5,-3.5 z m 0,1.75 c 0.96649,0 1.75,0.78351 1.75,1.75 0,0.96649 -0.78351,1.75 -1.75,1.75 -0.96649,0 -1.75,-0.78351 -1.75,-1.75 0,-0.96649 0.78351,-1.75 1.75,-1.75 z" color="#bebebe" opacity=".2"/></clipPath><clipPath id="clipPath14" clipPathUnits="userSpaceOnUse"><path id="path16" d="m 328,238 c -7.73199,0 -14,6.26801 -14,14 0,7.73199 6.26801,14 14,14 7.73199,0 14,-6.26801 14,-14 0,-7.73199 -6.26801,-14 -14,-14 z m 0,9.90625 c 2.20914,0 4,1.79086 4,4 0,2.20914 -1.79086,4 -4,4 -2.20914,0 -4,-1.79086 -4,-4 0,-2.20914 1.79086,-4 4,-4 z m 0,1 c -1.65685,0 -3,1.34315 -3,3 0,1.65685 1.34315,3 3,3 1.65685,0 3,-1.34315 3,-3 0,-1.65685 -1.34315,-3 -3,-3 z m 0,1 c 1.10457,0 2,0.89543 2,2 0,1.10457 -0.89543,2 -2,2 -1.10457,0 -2,-0.89543 -2,-2 0,-1.10457 0.89543,-2 2,-2 z" color="#bebebe" opacity=".2"/></clipPath><clipPath id="clipPath18" clipPathUnits="userSpaceOnUse"><rect id="rect20" width="90" height="90" x="307" y="31" fill="url(#linearGradient4825-8)" color="#bebebe" rx="18.75"/></clipPath><clipPath id="clipPath22" clipPathUnits="userSpaceOnUse"><path id="path24" fill="url(#radialGradient4225-7)" d="m 328,256 15,11 0,-27 -15,0 z" clip-path="none"/></clipPath><clipPath id="clipPath26" clipPathUnits="userSpaceOnUse"><rect id="rect28" width="42" height="42" x="307" y="223" fill="url(#linearGradient4895-0)" color="#bebebe" rx="9" transform="rotate(90)"/></clipPath><clipPath id="clipPath30" clipPathUnits="userSpaceOnUse"><rect id="rect32" width="42" height="42" x="307" y="223" fill="url(#linearGradient4895-2)" color="#bebebe" rx="9" transform="rotate(90)"/></clipPath><clipPath id="clipPath34" clipPathUnits="userSpaceOnUse"><rect id="rect36" width="30" height="30" x="433" y="29" fill="#6d6d6d" color="#bebebe" opacity=".2" rx="4"/></clipPath><clipPath id="clipPath38" clipPathUnits="userSpaceOnUse"><rect id="rect40" width="60" height="60" x="306" y="142" fill="url(#linearGradient4863-4)" color="#bebebe" rx="12.5" transform="matrix(0 -1 1 0 0 0)"/></clipPath><clipPath id="clipPath42" clipPathUnits="userSpaceOnUse"><rect id="rect44" width="22" height="22" x="433" y="77" color="#bebebe" rx="5"/></clipPath><clipPath id="clipPath46" clipPathUnits="userSpaceOnUse"><rect id="rect48" width="16" height="16" x="432" y="116" color="#bebebe" rx="3"/></clipPath><clipPath id="clipPath50" clipPathUnits="userSpaceOnUse"><path id="path52" fill="url(#linearGradient4326-1)" d="m 328,242.09376 c -7.73199,0 -14,6.26801 -14,14 0,7.73199 6.26801,14 14,14 7.73199,0 14,-6.26801 14,-14 0,-7.73199 -6.26801,-14 -14,-14 z m 0,9.90625 c 2.20914,0 4,1.79086 4,4 0,2.20914 -1.79086,4 -4,4 -2.20914,0 -4,-1.79086 -4,-4 0,-2.20914 1.79086,-4 4,-4 z m 0,1 c -1.65685,0 -3,1.34315 -3,3 0,1.65685 1.34315,3 3,3 1.65685,0 3,-1.34315 3,-3 0,-1.65685 -1.34315,-3 -3,-3 z m 0,1 c 1.10457,0 2,0.89543 2,2 0,1.10457 -0.89543,2 -2,2 -1.10457,0 -2,-0.89543 -2,-2 0,-1.10457 0.89543,-2 2,-2 z" color="#bebebe"/></clipPath><clipPath id="clipPath54" clipPathUnits="userSpaceOnUse"><rect id="rect56" width="22" height="22" x="433" y="77" fill="#6d6d6d" color="#bebebe" opacity=".2" rx="3"/></clipPath><clipPath id="clipPath58" clipPathUnits="userSpaceOnUse"><path id="path60" fill="#b74049" d="m 328,256 15,11 0,-27 -15,0 z" clip-path="url(#clipPath4112-2)" opacity=".1"/></clipPath><clipPath id="clipPath62" clipPathUnits="userSpaceOnUse"><rect id="rect64" width="16" height="16" x="432" y="116" fill="#6d6d6d" color="#bebebe" opacity=".2" rx="2"/></clipPath><clipPath id="clipPath66" clipPathUnits="userSpaceOnUse"><rect id="rect68" width="240" height="240" x="24" y="36" fill="#986767" color="#bebebe" rx="50"/></clipPath><clipPath id="clipPath70" clipPathUnits="userSpaceOnUse"><rect id="rect72" width="22" height="22" x="433" y="77" color="#bebebe" rx="4"/></clipPath><clipPath id="clipPath74" clipPathUnits="userSpaceOnUse"><rect id="rect76" width="30" height="30" x="433" y="29" fill="#6d6d6d" color="#bebebe" opacity=".2" rx="4"/></clipPath><clipPath id="clipPath78" clipPathUnits="userSpaceOnUse"><rect id="rect80" width="16" height="16" x="432" y="116" fill="#6d6d6d" color="#bebebe" opacity=".2" rx="2"/></clipPath><clipPath id="clipPath82" clipPathUnits="userSpaceOnUse"><path id="path84" fill="url(#linearGradient4203-4)" d="m 444,88 c -4.41828,0 -8,3.58172 -8,8 0,4.41828 3.58172,8 8,8 4.41828,0 8,-3.58172 8,-8 0,-4.41828 -3.58172,-8 -8,-8 z m 0,5 c 1.65685,0 3,1.34315 3,3 0,1.65685 -1.34315,3 -3,3 -1.65685,0 -3,-1.34315 -3,-3 0,-1.65685 1.34315,-3 3,-3 z m 0,1 c -1.10457,0 -2,0.89543 -2,2 0,1.10457 0.89543,2 2,2 1.10457,0 2,-0.89543 2,-2 0,-1.10457 -0.89543,-2 -2,-2 z m 0,1 c 0.55228,0 1,0.44772 1,1 0,0.55228 -0.44772,1 -1,1 -0.55228,0 -1,-0.44772 -1,-1 0,-0.55228 0.44772,-1 1,-1 z" color="#bebebe"/></clipPath><clipPath id="clipPath86" clipPathUnits="userSpaceOnUse"><rect id="rect88" width="22" height="22" x="433" y="77" color="#bebebe" rx="5"/></clipPath><clipPath id="clipPath90" clipPathUnits="userSpaceOnUse"><rect id="rect92" width="30" height="30" x="433" y="29" color="#bebebe" rx="6"/></clipPath><clipPath id="clipPath4112-5" clipPathUnits="userSpaceOnUse"><path id="path95" d="m 328,242.09375 c -7.73199,0 -14,6.26801 -14,14 0,7.73199 6.26801,14 14,14 7.73199,0 14,-6.26801 14,-14 0,-7.73199 -6.26801,-14 -14,-14 z M 328,252 c 2.20914,0 4,1.79086 4,4 0,2.20914 -1.79086,4 -4,4 -2.20914,0 -4,-1.79086 -4,-4 0,-2.20914 1.79086,-4 4,-4 z m 0,1 c -1.65685,0 -3,1.34315 -3,3 0,1.65685 1.34315,3 3,3 1.65685,0 3,-1.34315 3,-3 0,-1.65685 -1.34315,-3 -3,-3 z m 0,1 c 1.10457,0 2,0.89543 2,2 0,1.10457 -0.89543,2 -2,2 -1.10457,0 -2,-0.89543 -2,-2 0,-1.10457 0.89543,-2 2,-2 z" color="#bebebe" opacity=".2"/></clipPath><clipPath id="clipPath97" clipPathUnits="userSpaceOnUse"><rect id="rect99" width="240" height="240" x="24" y="36" fill="#986767" color="#bebebe" rx="50"/></clipPath><clipPath id="clipPath101" clipPathUnits="userSpaceOnUse"><rect id="rect103" width="30" height="30" x="433" y="29" color="#bebebe" rx="6"/></clipPath><clipPath id="clipPath105" clipPathUnits="userSpaceOnUse"><path id="path107" d="m 328,238 c -7.73199,0 -14,6.26801 -14,14 0,7.73199 6.26801,14 14,14 7.73199,0 14,-6.26801 14,-14 0,-7.73199 -6.26801,-14 -14,-14 z m 0,8.75 c 2.89949,0 5.25,2.35051 5.25,5.25 0,2.89949 -2.35051,5.25 -5.25,5.25 -2.89949,0 -5.25,-2.35051 -5.25,-5.25 0,-2.89949 2.35051,-5.25 5.25,-5.25 z m 0,1.75 c -1.933,0 -3.5,1.567 -3.5,3.5 0,1.933 1.567,3.5 3.5,3.5 1.933,0 3.5,-1.567 3.5,-3.5 0,-1.933 -1.567,-3.5 -3.5,-3.5 z m 0,1.75 c 0.96649,0 1.75,0.78351 1.75,1.75 0,0.96649 -0.78351,1.75 -1.75,1.75 -0.96649,0 -1.75,-0.78351 -1.75,-1.75 0,-0.96649 0.78351,-1.75 1.75,-1.75 z" color="#bebebe" opacity=".2"/></clipPath><clipPath id="clipPath109" clipPathUnits="userSpaceOnUse"><rect id="rect111" width="22" height="22" x="433" y="77" color="#bebebe" rx="4"/></clipPath><clipPath id="clipPath113" clipPathUnits="userSpaceOnUse"><path id="path115" fill="#b74049" d="m 328,256 15,11 0,-27 -15,0 z" clip-path="url(#clipPath4112-5)" opacity=".1"/></clipPath><clipPath id="clipPath117" clipPathUnits="userSpaceOnUse"><path id="path119" fill="url(#linearGradient4296-6)" d="m 451.38843,127.3713 c -3.31371,0 -6,2.68629 -6,6 0,3.31371 2.68629,6 6,6 3.31371,0 6,-2.68629 6,-6 0,-3.31371 -2.68629,-6 -6,-6 z m 0,3 c 1.65685,0 3,1.34315 3,3 0,1.65685 -1.34315,3 -3,3 -1.65685,0 -3,-1.34315 -3,-3 0,-1.65685 1.34315,-3 3,-3 z m 0,1 c -1.10457,0 -2,0.89543 -2,2 0,1.10457 0.89543,2 2,2 1.10457,0 2,-0.89543 2,-2 0,-1.10457 -0.89543,-2 -2,-2 z m 0,1 c 0.55228,0 1,0.44772 1,1 0,0.55228 -0.44772,1 -1,1 -0.55228,0 -1,-0.44772 -1,-1 0,-0.55228 0.44772,-1 1,-1 z" color="#bebebe"/></clipPath><clipPath id="clipPath121" clipPathUnits="userSpaceOnUse"><path id="path123" fill="url(#linearGradient4344-8)" d="m 144.00001,75.999997 c -44.1828,0 -80,35.817203 -80,80.000003 0,44.1828 35.8172,80 80,80 44.1828,0 80,-35.8172 80,-80 0,-44.1828 -35.8172,-80.000003 -80,-80.000003 z m 0,56.607143 c 12.62366,0 22.85714,10.23349 22.85714,22.85714 0,12.62366 -10.23348,22.85714 -22.85714,22.85714 -12.62366,0 -22.85714,-10.23348 -22.85714,-22.85714 0,-12.62365 10.23348,-22.85714 22.85714,-22.85714 z m 0,5.71429 c -9.46771,0 -17.14286,7.67514 -17.14286,17.14285 0,9.46772 7.67515,17.14286 17.14286,17.14286 9.46771,0 17.14286,-7.67514 17.14286,-17.14286 0,-9.46771 -7.67515,-17.14285 -17.14286,-17.14285 z m 0,5.71428 c 6.31183,0 11.42857,5.11674 11.42857,11.42857 0,6.31183 -5.11674,11.42857 -11.42857,11.42857 -6.31183,0 -11.42857,-5.11674 -11.42857,-11.42857 0,-6.31183 5.11674,-11.42857 11.42857,-11.42857 z" color="#bebebe"/></clipPath><clipPath id="clipPath125" clipPathUnits="userSpaceOnUse"><rect id="rect127" width="20" height="20" x="434" y="78" color="#bebebe" rx="4"/></clipPath><clipPath id="clipPath129" clipPathUnits="userSpaceOnUse"><rect id="rect131" width="16" height="16" x="432" y="116" color="#bebebe" rx="3"/></clipPath><clipPath id="clipPath133" clipPathUnits="userSpaceOnUse"><path id="path135" fill="url(#radialGradient4229-8)" d="m 451.38843,133.3713 6.42857,4.71429 0,-11.57143 -6.42857,0 z" clip-path="none"/></clipPath><clipPath id="clipPath137" clipPathUnits="userSpaceOnUse"><path id="path139" fill="url(#radialGradient4225-6)" d="m 328,256 15,11 0,-27 -15,0 z" clip-path="none"/></clipPath><clipPath id="clipPath141" clipPathUnits="userSpaceOnUse"><rect id="rect143" width="20" height="20" x="434" y="78" color="#bebebe" rx="4"/></clipPath><clipPath id="clipPath145" clipPathUnits="userSpaceOnUse"><path id="path147" fill="url(#linearGradient4227-3)" d="m 440,126 c -3.31371,0 -6,2.68629 -6,6 0,3.31371 2.68629,6 6,6 3.31371,0 6,-2.68629 6,-6 0,-3.31371 -2.68629,-6 -6,-6 z m 0,3 c 1.65685,0 3,1.34315 3,3 0,1.65685 -1.34315,3 -3,3 -1.65685,0 -3,-1.34315 -3,-3 0,-1.65685 1.34315,-3 3,-3 z m 0,1 c -1.10457,0 -2,0.89543 -2,2 0,1.10457 0.89543,2 2,2 1.10457,0 2,-0.89543 2,-2 0,-1.10457 -0.89543,-2 -2,-2 z m 0,1 c 0.55228,0 1,0.44772 1,1 0,0.55228 -0.44772,1 -1,1 -0.55228,0 -1,-0.44772 -1,-1 0,-0.55228 0.44772,-1 1,-1 z" color="#bebebe"/></clipPath><clipPath id="clipPath149" clipPathUnits="userSpaceOnUse"><path id="path151" d="m 328,238 c -7.73199,0 -14,6.26801 -14,14 0,7.73199 6.26801,14 14,14 7.73199,0 14,-6.26801 14,-14 0,-7.73199 -6.26801,-14 -14,-14 z m 0,9.90625 c 2.20914,0 4,1.79086 4,4 0,2.20914 -1.79086,4 -4,4 -2.20914,0 -4,-1.79086 -4,-4 0,-2.20914 1.79086,-4 4,-4 z m 0,1 c -1.65685,0 -3,1.34315 -3,3 0,1.65685 1.34315,3 3,3 1.65685,0 3,-1.34315 3,-3 0,-1.65685 -1.34315,-3 -3,-3 z m 0,1 c 1.10457,0 2,0.89543 2,2 0,1.10457 -0.89543,2 -2,2 -1.10457,0 -2,-0.89543 -2,-2 0,-1.10457 0.89543,-2 2,-2 z" color="#bebebe" opacity=".2"/></clipPath><clipPath id="clipPath153" clipPathUnits="userSpaceOnUse"><path id="path155" fill="url(#linearGradient4326-1)" d="m 328,242.09376 c -7.73199,0 -14,6.26801 -14,14 0,7.73199 6.26801,14 14,14 7.73199,0 14,-6.26801 14,-14 0,-7.73199 -6.26801,-14 -14,-14 z m 0,9.90625 c 2.20914,0 4,1.79086 4,4 0,2.20914 -1.79086,4 -4,4 -2.20914,0 -4,-1.79086 -4,-4 0,-2.20914 1.79086,-4 4,-4 z m 0,1 c -1.65685,0 -3,1.34315 -3,3 0,1.65685 1.34315,3 3,3 1.65685,0 3,-1.34315 3,-3 0,-1.65685 -1.34315,-3 -3,-3 z m 0,1 c 1.10457,0 2,0.89543 2,2 0,1.10457 -0.89543,2 -2,2 -1.10457,0 -2,-0.89543 -2,-2 0,-1.10457 0.89543,-2 2,-2 z" color="#bebebe"/></clipPath><clipPath id="clipPath157" clipPathUnits="userSpaceOnUse"><rect id="rect159" width="16" height="16" x="432" y="116" fill="#6d6d6d" color="#bebebe" opacity=".2" rx="2"/></clipPath><clipPath id="clipPath161" clipPathUnits="userSpaceOnUse"><rect id="rect163" width="90" height="90" x="307" y="31" fill="url(#linearGradient4825-6)" color="#bebebe" rx="18.75"/></clipPath><clipPath id="clipPath165" clipPathUnits="userSpaceOnUse"><path id="path167" fill="url(#linearGradient4326-13)" d="m 328,242.09376 c -7.73199,0 -14,6.26801 -14,14 0,7.73199 6.26801,14 14,14 7.73199,0 14,-6.26801 14,-14 0,-7.73199 -6.26801,-14 -14,-14 z m 0,9.90625 c 2.20914,0 4,1.79086 4,4 0,2.20914 -1.79086,4 -4,4 -2.20914,0 -4,-1.79086 -4,-4 0,-2.20914 1.79086,-4 4,-4 z m 0,1 c -1.65685,0 -3,1.34315 -3,3 0,1.65685 1.34315,3 3,3 1.65685,0 3,-1.34315 3,-3 0,-1.65685 -1.34315,-3 -3,-3 z m 0,1 c 1.10457,0 2,0.89543 2,2 0,1.10457 -0.89543,2 -2,2 -1.10457,0 -2,-0.89543 -2,-2 0,-1.10457 0.89543,-2 2,-2 z" color="#bebebe"/></clipPath><clipPath id="clipPath4112-2" clipPathUnits="userSpaceOnUse"><path id="path170" d="m 328,242.09375 c -7.73199,0 -14,6.26801 -14,14 0,7.73199 6.26801,14 14,14 7.73199,0 14,-6.26801 14,-14 0,-7.73199 -6.26801,-14 -14,-14 z M 328,252 c 2.20914,0 4,1.79086 4,4 0,2.20914 -1.79086,4 -4,4 -2.20914,0 -4,-1.79086 -4,-4 0,-2.20914 1.79086,-4 4,-4 z m 0,1 c -1.65685,0 -3,1.34315 -3,3 0,1.65685 1.34315,3 3,3 1.65685,0 3,-1.34315 3,-3 0,-1.65685 -1.34315,-3 -3,-3 z m 0,1 c 1.10457,0 2,0.89543 2,2 0,1.10457 -0.89543,2 -2,2 -1.10457,0 -2,-0.89543 -2,-2 0,-1.10457 0.89543,-2 2,-2 z" color="#bebebe" opacity=".2"/></clipPath><clipPath id="clipPath172" clipPathUnits="userSpaceOnUse"><path id="path174" fill="url(#radialGradient4279)" d="m 451.38843,133.3713 6.42857,4.71429 0,-11.57143 -6.42857,0 z" clip-path="none"/></clipPath><clipPath id="clipPath176" clipPathUnits="userSpaceOnUse"><path id="path178" fill="url(#linearGradient4326-13)" d="m 328,242.09376 c -7.73199,0 -14,6.26801 -14,14 0,7.73199 6.26801,14 14,14 7.73199,0 14,-6.26801 14,-14 0,-7.73199 -6.26801,-14 -14,-14 z m 0,9.90625 c 2.20914,0 4,1.79086 4,4 0,2.20914 -1.79086,4 -4,4 -2.20914,0 -4,-1.79086 -4,-4 0,-2.20914 1.79086,-4 4,-4 z m 0,1 c -1.65685,0 -3,1.34315 -3,3 0,1.65685 1.34315,3 3,3 1.65685,0 3,-1.34315 3,-3 0,-1.65685 -1.34315,-3 -3,-3 z m 0,1 c 1.10457,0 2,0.89543 2,2 0,1.10457 -0.89543,2 -2,2 -1.10457,0 -2,-0.89543 -2,-2 0,-1.10457 0.89543,-2 2,-2 z" color="#bebebe"/></clipPath><clipPath id="clipPath180" clipPathUnits="userSpaceOnUse"><path id="path182" fill="url(#linearGradient4296)" d="m 451.38843,127.3713 c -3.31371,0 -6,2.68629 -6,6 0,3.31371 2.68629,6 6,6 3.31371,0 6,-2.68629 6,-6 0,-3.31371 -2.68629,-6 -6,-6 z m 0,3 c 1.65685,0 3,1.34315 3,3 0,1.65685 -1.34315,3 -3,3 -1.65685,0 -3,-1.34315 -3,-3 0,-1.65685 1.34315,-3 3,-3 z m 0,1 c -1.10457,0 -2,0.89543 -2,2 0,1.10457 0.89543,2 2,2 1.10457,0 2,-0.89543 2,-2 0,-1.10457 -0.89543,-2 -2,-2 z m 0,1 c 0.55228,0 1,0.44772 1,1 0,0.55228 -0.44772,1 -1,1 -0.55228,0 -1,-0.44772 -1,-1 0,-0.55228 0.44772,-1 1,-1 z" color="#bebebe"/></clipPath><clipPath id="clipPath184" clipPathUnits="userSpaceOnUse"><path id="path186" d="m 328,238 c -7.73199,0 -14,6.26801 -14,14 0,7.73199 6.26801,14 14,14 7.73199,0 14,-6.26801 14,-14 0,-7.73199 -6.26801,-14 -14,-14 z m 0,9.90625 c 2.20914,0 4,1.79086 4,4 0,2.20914 -1.79086,4 -4,4 -2.20914,0 -4,-1.79086 -4,-4 0,-2.20914 1.79086,-4 4,-4 z m 0,1 c -1.65685,0 -3,1.34315 -3,3 0,1.65685 1.34315,3 3,3 1.65685,0 3,-1.34315 3,-3 0,-1.65685 -1.34315,-3 -3,-3 z m 0,1 c 1.10457,0 2,0.89543 2,2 0,1.10457 -0.89543,2 -2,2 -1.10457,0 -2,-0.89543 -2,-2 0,-1.10457 0.89543,-2 2,-2 z" color="#bebebe" opacity=".2"/></clipPath><clipPath id="clipPath188" clipPathUnits="userSpaceOnUse"><path id="path190" fill="url(#radialGradient4250)" d="m 328,256 15,11 0,-27 -15,0 z" clip-path="none"/></clipPath><clipPath id="clipPath192" clipPathUnits="userSpaceOnUse"><path id="path194" fill="#b74049" d="m 328,256 15,11 0,-27 -15,0 z" clip-path="url(#clipPath4112)" opacity=".1"/></clipPath><clipPath id="clipPath196" clipPathUnits="userSpaceOnUse"><path id="path198" fill="url(#linearGradient4326-1)" d="m 328,242.09376 c -7.73199,0 -14,6.26801 -14,14 0,7.73199 6.26801,14 14,14 7.73199,0 14,-6.26801 14,-14 0,-7.73199 -6.26801,-14 -14,-14 z m 0,9.90625 c 2.20914,0 4,1.79086 4,4 0,2.20914 -1.79086,4 -4,4 -2.20914,0 -4,-1.79086 -4,-4 0,-2.20914 1.79086,-4 4,-4 z m 0,1 c -1.65685,0 -3,1.34315 -3,3 0,1.65685 1.34315,3 3,3 1.65685,0 3,-1.34315 3,-3 0,-1.65685 -1.34315,-3 -3,-3 z m 0,1 c 1.10457,0 2,0.89543 2,2 0,1.10457 -0.89543,2 -2,2 -1.10457,0 -2,-0.89543 -2,-2 0,-1.10457 0.89543,-2 2,-2 z" color="#bebebe"/></clipPath><clipPath id="clipPath200" clipPathUnits="userSpaceOnUse"><path id="path202" fill="url(#linearGradient4344-1)" d="m 144.00001,75.999997 c -44.1828,0 -80,35.817203 -80,80.000003 0,44.1828 35.8172,80 80,80 44.1828,0 80,-35.8172 80,-80 0,-44.1828 -35.8172,-80.000003 -80,-80.000003 z m 0,56.607143 c 12.62366,0 22.85714,10.23349 22.85714,22.85714 0,12.62366 -10.23348,22.85714 -22.85714,22.85714 -12.62366,0 -22.85714,-10.23348 -22.85714,-22.85714 0,-12.62365 10.23348,-22.85714 22.85714,-22.85714 z m 0,5.71429 c -9.46771,0 -17.14286,7.67514 -17.14286,17.14285 0,9.46772 7.67515,17.14286 17.14286,17.14286 9.46771,0 17.14286,-7.67514 17.14286,-17.14286 0,-9.46771 -7.67515,-17.14285 -17.14286,-17.14285 z m 0,5.71428 c 6.31183,0 11.42857,5.11674 11.42857,11.42857 0,6.31183 -5.11674,11.42857 -11.42857,11.42857 -6.31183,0 -11.42857,-5.11674 -11.42857,-11.42857 0,-6.31183 5.11674,-11.42857 11.42857,-11.42857 z" color="#bebebe"/></clipPath><clipPath id="clipPath204" clipPathUnits="userSpaceOnUse"><path id="path206" fill="url(#linearGradient4306)" d="m 440,126 c -3.31371,0 -6,2.68629 -6,6 0,3.31371 2.68629,6 6,6 3.31371,0 6,-2.68629 6,-6 0,-3.31371 -2.68629,-6 -6,-6 z m 0,3 c 1.65685,0 3,1.34315 3,3 0,1.65685 -1.34315,3 -3,3 -1.65685,0 -3,-1.34315 -3,-3 0,-1.65685 1.34315,-3 3,-3 z m 0,1 c -1.10457,0 -2,0.89543 -2,2 0,1.10457 0.89543,2 2,2 1.10457,0 2,-0.89543 2,-2 0,-1.10457 -0.89543,-2 -2,-2 z m 0,1 c 0.55228,0 1,0.44772 1,1 0,0.55228 -0.44772,1 -1,1 -0.55228,0 -1,-0.44772 -1,-1 0,-0.55228 0.44772,-1 1,-1 z" color="#bebebe"/></clipPath><clipPath id="clipPath208" clipPathUnits="userSpaceOnUse"><path id="path210" d="m 328,238 c -7.73199,0 -14,6.26801 -14,14 0,7.73199 6.26801,14 14,14 7.73199,0 14,-6.26801 14,-14 0,-7.73199 -6.26801,-14 -14,-14 z m 0,8.75 c 2.89949,0 5.25,2.35051 5.25,5.25 0,2.89949 -2.35051,5.25 -5.25,5.25 -2.89949,0 -5.25,-2.35051 -5.25,-5.25 0,-2.89949 2.35051,-5.25 5.25,-5.25 z m 0,1.75 c -1.933,0 -3.5,1.567 -3.5,3.5 0,1.933 1.567,3.5 3.5,3.5 1.933,0 3.5,-1.567 3.5,-3.5 0,-1.933 -1.567,-3.5 -3.5,-3.5 z m 0,1.75 c 0.96649,0 1.75,0.78351 1.75,1.75 0,0.96649 -0.78351,1.75 -1.75,1.75 -0.96649,0 -1.75,-0.78351 -1.75,-1.75 0,-0.96649 0.78351,-1.75 1.75,-1.75 z" color="#bebebe" opacity=".2"/></clipPath><clipPath id="clipPath212" clipPathUnits="userSpaceOnUse"><rect id="rect214" width="22" height="22" x="433" y="77" fill="#6d6d6d" color="#bebebe" opacity=".2" rx="3"/></clipPath><clipPath id="clipPath216" clipPathUnits="userSpaceOnUse"><path id="path218" fill="url(#linearGradient4203-6)" d="m 444,88 c -4.41828,0 -8,3.58172 -8,8 0,4.41828 3.58172,8 8,8 4.41828,0 8,-3.58172 8,-8 0,-4.41828 -3.58172,-8 -8,-8 z m 0,5 c 1.65685,0 3,1.34315 3,3 0,1.65685 -1.34315,3 -3,3 -1.65685,0 -3,-1.34315 -3,-3 0,-1.65685 1.34315,-3 3,-3 z m 0,1 c -1.10457,0 -2,0.89543 -2,2 0,1.10457 0.89543,2 2,2 1.10457,0 2,-0.89543 2,-2 0,-1.10457 -0.89543,-2 -2,-2 z m 0,1 c 0.55228,0 1,0.44772 1,1 0,0.55228 -0.44772,1 -1,1 -0.55228,0 -1,-0.44772 -1,-1 0,-0.55228 0.44772,-1 1,-1 z" color="#bebebe"/></clipPath><clipPath id="clipPath220" clipPathUnits="userSpaceOnUse"><path id="path222" fill="url(#linearGradient4338)" d="m 328,242.09376 c -7.73199,0 -14,6.26801 -14,14 0,7.73199 6.26801,14 14,14 7.73199,0 14,-6.26801 14,-14 0,-7.73199 -6.26801,-14 -14,-14 z m 0,9.90625 c 2.20914,0 4,1.79086 4,4 0,2.20914 -1.79086,4 -4,4 -2.20914,0 -4,-1.79086 -4,-4 0,-2.20914 1.79086,-4 4,-4 z m 0,1 c -1.65685,0 -3,1.34315 -3,3 0,1.65685 1.34315,3 3,3 1.65685,0 3,-1.34315 3,-3 0,-1.65685 -1.34315,-3 -3,-3 z m 0,1 c 1.10457,0 2,0.89543 2,2 0,1.10457 -0.89543,2 -2,2 -1.10457,0 -2,-0.89543 -2,-2 0,-1.10457 0.89543,-2 2,-2 z" color="#bebebe"/></clipPath><clipPath id="clipPath224" clipPathUnits="userSpaceOnUse"><path id="path226" fill="url(#linearGradient4377)" d="m 444,88 c -4.41828,0 -8,3.58172 -8,8 0,4.41828 3.58172,8 8,8 4.41828,0 8,-3.58172 8,-8 0,-4.41828 -3.58172,-8 -8,-8 z m 0,5 c 1.65685,0 3,1.34315 3,3 0,1.65685 -1.34315,3 -3,3 -1.65685,0 -3,-1.34315 -3,-3 0,-1.65685 1.34315,-3 3,-3 z m 0,1 c -1.10457,0 -2,0.89543 -2,2 0,1.10457 0.89543,2 2,2 1.10457,0 2,-0.89543 2,-2 0,-1.10457 -0.89543,-2 -2,-2 z m 0,1 c 0.55228,0 1,0.44772 1,1 0,0.55228 -0.44772,1 -1,1 -0.55228,0 -1,-0.44772 -1,-1 0,-0.55228 0.44772,-1 1,-1 z" color="#bebebe"/></clipPath><clipPath id="clipPath228" clipPathUnits="userSpaceOnUse"><rect id="rect230" width="20" height="20" x="434" y="78" color="#bebebe" rx="4"/></clipPath><clipPath id="clipPath232" clipPathUnits="userSpaceOnUse"><rect id="rect234" width="240" height="240" x="24" y="36" fill="#986767" color="#bebebe" rx="50"/></clipPath><clipPath id="clipPath236" clipPathUnits="userSpaceOnUse"><path id="path238" fill="url(#linearGradient4338)" d="m 328,242.09376 c -7.73199,0 -14,6.26801 -14,14 0,7.73199 6.26801,14 14,14 7.73199,0 14,-6.26801 14,-14 0,-7.73199 -6.26801,-14 -14,-14 z m 0,9.90625 c 2.20914,0 4,1.79086 4,4 0,2.20914 -1.79086,4 -4,4 -2.20914,0 -4,-1.79086 -4,-4 0,-2.20914 1.79086,-4 4,-4 z m 0,1 c -1.65685,0 -3,1.34315 -3,3 0,1.65685 1.34315,3 3,3 1.65685,0 3,-1.34315 3,-3 0,-1.65685 -1.34315,-3 -3,-3 z m 0,1 c 1.10457,0 2,0.89543 2,2 0,1.10457 -0.89543,2 -2,2 -1.10457,0 -2,-0.89543 -2,-2 0,-1.10457 0.89543,-2 2,-2 z" color="#bebebe"/></clipPath><clipPath id="clipPath240" clipPathUnits="userSpaceOnUse"><path id="path242" fill="url(#radialGradient4229-9)" d="m 451.38843,133.3713 6.42857,4.71429 0,-11.57143 -6.42857,0 z" clip-path="none"/></clipPath><clipPath id="clipPath244" clipPathUnits="userSpaceOnUse"><rect id="rect246" width="90" height="90" x="307" y="31" fill="url(#linearGradient4825)" color="#bebebe" rx="18.75"/></clipPath><clipPath id="clipPath4112" clipPathUnits="userSpaceOnUse"><path id="path249" d="m 328,242.09375 c -7.73199,0 -14,6.26801 -14,14 0,7.73199 6.26801,14 14,14 7.73199,0 14,-6.26801 14,-14 0,-7.73199 -6.26801,-14 -14,-14 z M 328,252 c 2.20914,0 4,1.79086 4,4 0,2.20914 -1.79086,4 -4,4 -2.20914,0 -4,-1.79086 -4,-4 0,-2.20914 1.79086,-4 4,-4 z m 0,1 c -1.65685,0 -3,1.34315 -3,3 0,1.65685 1.34315,3 3,3 1.65685,0 3,-1.34315 3,-3 0,-1.65685 -1.34315,-3 -3,-3 z m 0,1 c 1.10457,0 2,0.89543 2,2 0,1.10457 -0.89543,2 -2,2 -1.10457,0 -2,-0.89543 -2,-2 0,-1.10457 0.89543,-2 2,-2 z" color="#bebebe" opacity=".2"/></clipPath><clipPath id="clipPath251" clipPathUnits="userSpaceOnUse"><rect id="rect253" width="22" height="22" x="433" y="77" color="#bebebe" rx="4"/></clipPath><clipPath id="clipPath255" clipPathUnits="userSpaceOnUse"><rect id="rect257" width="30" height="30" x="433" y="29" color="#bebebe" rx="6"/></clipPath><clipPath id="clipPath259" clipPathUnits="userSpaceOnUse"><rect id="rect261" width="22" height="22" x="433" y="77" color="#bebebe" rx="5"/></clipPath><clipPath id="clipPath263" clipPathUnits="userSpaceOnUse"><rect id="rect265" width="16" height="16" x="432" y="116" color="#bebebe" rx="3"/></clipPath><clipPath id="clipPath267" clipPathUnits="userSpaceOnUse"><path id="path269" fill="url(#linearGradient4344)" d="m 144.00001,75.999997 c -44.1828,0 -80,35.817203 -80,80.000003 0,44.1828 35.8172,80 80,80 44.1828,0 80,-35.8172 80,-80 0,-44.1828 -35.8172,-80.000003 -80,-80.000003 z m 0,56.607143 c 12.62366,0 22.85714,10.23349 22.85714,22.85714 0,12.62366 -10.23348,22.85714 -22.85714,22.85714 -12.62366,0 -22.85714,-10.23348 -22.85714,-22.85714 0,-12.62365 10.23348,-22.85714 22.85714,-22.85714 z m 0,5.71429 c -9.46771,0 -17.14286,7.67514 -17.14286,17.14285 0,9.46772 7.67515,17.14286 17.14286,17.14286 9.46771,0 17.14286,-7.67514 17.14286,-17.14286 0,-9.46771 -7.67515,-17.14285 -17.14286,-17.14285 z m 0,5.71428 c 6.31183,0 11.42857,5.11674 11.42857,11.42857 0,6.31183 -5.11674,11.42857 -11.42857,11.42857 -6.31183,0 -11.42857,-5.11674 -11.42857,-11.42857 0,-6.31183 5.11674,-11.42857 11.42857,-11.42857 z" color="#bebebe"/></clipPath><clipPath id="clipPath271" clipPathUnits="userSpaceOnUse"><path id="path273" fill="url(#linearGradient4296-69)" d="m 451.38843,127.3713 c -3.31371,0 -6,2.68629 -6,6 0,3.31371 2.68629,6 6,6 3.31371,0 6,-2.68629 6,-6 0,-3.31371 -2.68629,-6 -6,-6 z m 0,3 c 1.65685,0 3,1.34315 3,3 0,1.65685 -1.34315,3 -3,3 -1.65685,0 -3,-1.34315 -3,-3 0,-1.65685 1.34315,-3 3,-3 z m 0,1 c -1.10457,0 -2,0.89543 -2,2 0,1.10457 0.89543,2 2,2 1.10457,0 2,-0.89543 2,-2 0,-1.10457 -0.89543,-2 -2,-2 z m 0,1 c 0.55228,0 1,0.44772 1,1 0,0.55228 -0.44772,1 -1,1 -0.55228,0 -1,-0.44772 -1,-1 0,-0.55228 0.44772,-1 1,-1 z" color="#bebebe"/></clipPath><clipPath id="clipPath275" clipPathUnits="userSpaceOnUse"><rect id="rect277" width="22" height="22" x="433" y="77" fill="#6d6d6d" color="#bebebe" opacity=".2" rx="3"/></clipPath><clipPath id="clipPath279" clipPathUnits="userSpaceOnUse"><path id="path281" fill="url(#linearGradient4338)" d="m 328,242.09376 c -7.73199,0 -14,6.26801 -14,14 0,7.73199 6.26801,14 14,14 7.73199,0 14,-6.26801 14,-14 0,-7.73199 -6.26801,-14 -14,-14 z m 0,9.90625 c 2.20914,0 4,1.79086 4,4 0,2.20914 -1.79086,4 -4,4 -2.20914,0 -4,-1.79086 -4,-4 0,-2.20914 1.79086,-4 4,-4 z m 0,1 c -1.65685,0 -3,1.34315 -3,3 0,1.65685 1.34315,3 3,3 1.65685,0 3,-1.34315 3,-3 0,-1.65685 -1.34315,-3 -3,-3 z m 0,1 c 1.10457,0 2,0.89543 2,2 0,1.10457 -0.89543,2 -2,2 -1.10457,0 -2,-0.89543 -2,-2 0,-1.10457 0.89543,-2 2,-2 z" color="#bebebe"/></clipPath><clipPath id="clipPath283" clipPathUnits="userSpaceOnUse"><path id="path285" fill="url(#linearGradient4227-4)" d="m 440,126 c -3.31371,0 -6,2.68629 -6,6 0,3.31371 2.68629,6 6,6 3.31371,0 6,-2.68629 6,-6 0,-3.31371 -2.68629,-6 -6,-6 z m 0,3 c 1.65685,0 3,1.34315 3,3 0,1.65685 -1.34315,3 -3,3 -1.65685,0 -3,-1.34315 -3,-3 0,-1.65685 1.34315,-3 3,-3 z m 0,1 c -1.10457,0 -2,0.89543 -2,2 0,1.10457 0.89543,2 2,2 1.10457,0 2,-0.89543 2,-2 0,-1.10457 -0.89543,-2 -2,-2 z m 0,1 c 0.55228,0 1,0.44772 1,1 0,0.55228 -0.44772,1 -1,1 -0.55228,0 -1,-0.44772 -1,-1 0,-0.55228 0.44772,-1 1,-1 z" color="#bebebe"/></clipPath><clipPath id="clipPath287" clipPathUnits="userSpaceOnUse"><path id="path289" fill="url(#linearGradient4326-13)" d="m 328,242.09376 c -7.73199,0 -14,6.26801 -14,14 0,7.73199 6.26801,14 14,14 7.73199,0 14,-6.26801 14,-14 0,-7.73199 -6.26801,-14 -14,-14 z m 0,9.90625 c 2.20914,0 4,1.79086 4,4 0,2.20914 -1.79086,4 -4,4 -2.20914,0 -4,-1.79086 -4,-4 0,-2.20914 1.79086,-4 4,-4 z m 0,1 c -1.65685,0 -3,1.34315 -3,3 0,1.65685 1.34315,3 3,3 1.65685,0 3,-1.34315 3,-3 0,-1.65685 -1.34315,-3 -3,-3 z m 0,1 c 1.10457,0 2,0.89543 2,2 0,1.10457 -0.89543,2 -2,2 -1.10457,0 -2,-0.89543 -2,-2 0,-1.10457 0.89543,-2 2,-2 z" color="#bebebe"/></clipPath><clipPath id="clipPath291" clipPathUnits="userSpaceOnUse"><rect id="rect293" width="30" height="30" x="433" y="29" fill="#6d6d6d" color="#bebebe" opacity=".2" rx="4"/></clipPath><clipPath id="clipPath295" clipPathUnits="userSpaceOnUse"><rect id="rect297" width="60" height="60" x="306" y="142" fill="url(#linearGradient4863)" color="#bebebe" rx="12.5" transform="matrix(0 -1 1 0 0 0)"/></clipPath><clipPath id="clipPath299" clipPathUnits="userSpaceOnUse"><rect id="rect301" width="42" height="42" x="307" y="223" fill="url(#linearGradient4895)" color="#bebebe" rx="9" transform="rotate(90)"/></clipPath><linearGradient id="linearGradient4895-2" x2="0" y1="280" y2="40" gradientTransform="matrix(.175 0 0 .175 302.79999 215.99997)" gradientUnits="userSpaceOnUse" xlink:href="#outerBackgroundGradient-77"/><linearGradient id="linearGradient4863-4" x2="0" y1="230" y2="90" gradientTransform="matrix(.25 0 0 .25 299.99999 131.99999)" gradientUnits="userSpaceOnUse" xlink:href="#outerBackgroundGradient-77"/><linearGradient id="linearGradient4624" x1=".838" x2="12.691" gradientTransform="translate(-13.53783,-0.01017)" gradientUnits="userSpaceOnUse" xlink:href="#linearGradient4159"/><linearGradient id="outerBackgroundGradient-77"><stop id="stop307" offset="0" stop-color="#f0f0f0"/><stop id="stop309" offset="1" stop-color="#f8f8f8"/></linearGradient><linearGradient id="linearGradient4296-69" x2="0" y1="140" y2="124" gradientTransform="translate(11.38843 1.3713)" gradientUnits="userSpaceOnUse" xlink:href="#linearGradient4174-6"/><linearGradient id="linearGradient4326-13" x2="0" y1="273" y2="231" gradientTransform="translate(0 4.09376)" gradientUnits="userSpaceOnUse" xlink:href="#linearGradient4174-6"/><linearGradient id="linearGradient4344" x2="0" y1="273" y2="231" gradientTransform="matrix(5.71429 0 0 5.71429 -1730.2857 -1284)" gradientUnits="userSpaceOnUse" xlink:href="#linearGradient4174"/><linearGradient id="linearGradient4344-1" x2="0" y1="273" y2="231" gradientTransform="matrix(5.71429 0 0 5.71429 -1730.2857 -1284)" gradientUnits="userSpaceOnUse" xlink:href="#linearGradient4174-6"/><linearGradient id="linearGradient4825" x2="0" y1="230" y2="90" gradientTransform="matrix(.375 0 0 .375 298 16)" gradientUnits="userSpaceOnUse" xlink:href="#outerBackgroundGradient"/><linearGradient id="linearGradient4126-5"><stop id="stop317" offset="0" stop-color="#eaba31"/><stop id="stop319" offset="1" stop-color="#ff9200"/></linearGradient><linearGradient id="linearGradient4174-3"><stop id="stop322" offset="0" stop-color="#000" stop-opacity="1"/><stop id="stop324" offset="1" stop-color="#2b2b2b" stop-opacity="1"/></linearGradient><linearGradient id="linearGradient4159"><stop id="stop327" offset="0" stop-color="#c8c8c8" stop-opacity="1"/><stop id="stop329" offset="1" stop-color="#eee" stop-opacity="1"/></linearGradient><linearGradient id="linearGradient4227-3" x2="0" y1="140" y2="124" gradientUnits="userSpaceOnUse" xlink:href="#linearGradient4174-3"/><linearGradient id="outerBackgroundGradient"><stop id="stop333" offset="0" stop-color="#f0f0f0"/><stop id="stop335" offset="1" stop-color="#f8f8f8"/></linearGradient><linearGradient id="linearGradient4174"><stop id="stop338" offset="0" stop-color="#818181"/><stop id="stop340" offset="1" stop-color="#c5c5c5"/></linearGradient><linearGradient id="linearGradient4377" x2="0" y1="107" y2="85" gradientUnits="userSpaceOnUse" xlink:href="#linearGradient4174"/><linearGradient id="linearGradient4203-4" x2="0" y1="107" y2="85" gradientUnits="userSpaceOnUse" xlink:href="#linearGradient4174-3"/><linearGradient id="linearGradient4825-6" x2="0" y1="230" y2="90" gradientTransform="matrix(.375 0 0 .375 298 16)" gradientUnits="userSpaceOnUse" xlink:href="#outerBackgroundGradient-77"/><linearGradient id="linearGradient4895" x2="0" y1="280" y2="40" gradientTransform="matrix(.175 0 0 .175 302.79999 215.99997)" gradientUnits="userSpaceOnUse" xlink:href="#outerBackgroundGradient"/><linearGradient id="linearGradient4227-4" x2="0" y1="140" y2="124" gradientUnits="userSpaceOnUse" xlink:href="#linearGradient4174-6"/><linearGradient id="linearGradient4296" x2="0" y1="140" y2="124" gradientTransform="translate(11.38843 1.3713)" gradientUnits="userSpaceOnUse" xlink:href="#linearGradient4174"/><linearGradient id="linearGradient4338" x2="0" y1="273" y2="231" gradientTransform="translate(0 4.09376)" gradientUnits="userSpaceOnUse" xlink:href="#linearGradient4174"/><linearGradient id="linearGradient4306" x2="0" y1="140" y2="124" gradientUnits="userSpaceOnUse" xlink:href="#linearGradient4174"/><linearGradient id="linearGradient4126-5-5"><stop id="stop351" offset="0" stop-color="#eaba31"/><stop id="stop353" offset="1" stop-color="#ff9200"/></linearGradient><linearGradient id="linearGradient4296-6" x2="0" y1="140" y2="124" gradientTransform="translate(11.38843 1.3713)" gradientUnits="userSpaceOnUse" xlink:href="#linearGradient4174-3"/><linearGradient id="linearGradient4326-1" x2="0" y1="273" y2="231" gradientTransform="translate(0 4.09376)" gradientUnits="userSpaceOnUse" xlink:href="#linearGradient4174-3"/><linearGradient id="linearGradient4126-5-6"><stop id="stop358" offset="0" stop-color="#eaba31"/><stop id="stop360" offset="1" stop-color="#ff9200"/></linearGradient><linearGradient id="linearGradient4344-8" x2="0" y1="273" y2="231" gradientTransform="matrix(5.71429 0 0 5.71429 -1730.2857 -1284)" gradientUnits="userSpaceOnUse" xlink:href="#linearGradient4174-3"/><linearGradient id="linearGradient4174-6"><stop id="stop364" offset="0" stop-color="#818181"/><stop id="stop366" offset="1" stop-color="#c5c5c5"/></linearGradient><linearGradient id="outerBackgroundGradient-7"><stop id="stop369" offset="0" stop-color="#f0f0f0"/><stop id="stop371" offset="1" stop-color="#f8f8f8"/></linearGradient><linearGradient id="linearGradient4863" x2="0" y1="230" y2="90" gradientTransform="matrix(.25 0 0 .25 299.99999 131.99999)" gradientUnits="userSpaceOnUse" xlink:href="#outerBackgroundGradient"/><linearGradient id="linearGradient4863-9" x2="0" y1="230" y2="90" gradientTransform="matrix(.25 0 0 .25 299.99999 131.99999)" gradientUnits="userSpaceOnUse" xlink:href="#outerBackgroundGradient-7"/><linearGradient id="linearGradient4825-8" x2="0" y1="230" y2="90" gradientTransform="matrix(.375 0 0 .375 298 16)" gradientUnits="userSpaceOnUse" xlink:href="#outerBackgroundGradient-7"/><linearGradient id="linearGradient4895-0" x2="0" y1="280" y2="40" gradientTransform="matrix(.175 0 0 .175 302.79999 215.99997)" gradientUnits="userSpaceOnUse" xlink:href="#outerBackgroundGradient-7"/><linearGradient id="linearGradient4203-6" x2="0" y1="107" y2="85" gradientUnits="userSpaceOnUse" xlink:href="#linearGradient4174-6"/><radialGradient id="radialGradient4225-7" cx="328" cy="255.416" r="7" gradientTransform="matrix(2.85714 0 0 2.85714 -609.14349 -473.66662)" gradientUnits="userSpaceOnUse" xlink:href="#linearGradient4126-5-5"/><radialGradient id="radialGradient4229-9" cx="328" cy="255.416" r="7" gradientTransform="matrix(1.22449 0 0 1.22449 49.7555 -179.34296)" gradientUnits="userSpaceOnUse" xlink:href="#linearGradient4126-5-5"/><radialGradient id="radialGradient4250" cx="328" cy="255.416" r="7" gradientTransform="matrix(2.85714 0 0 2.85714 -609.14349 -473.66662)" gradientUnits="userSpaceOnUse" xlink:href="#linearGradient4126-5"/><radialGradient id="radialGradient4225-6" cx="328" cy="255.416" r="7" gradientTransform="matrix(2.85714 0 0 2.85714 -609.14349 -473.66662)" gradientUnits="userSpaceOnUse" xlink:href="#linearGradient4126-5-6"/><radialGradient id="radialGradient4279" cx="328" cy="255.416" r="7" gradientTransform="matrix(1.22449 0 0 1.22449 49.7555 -179.34296)" gradientUnits="userSpaceOnUse" xlink:href="#linearGradient4126-5"/><radialGradient id="radialGradient4229-8" cx="328" cy="255.416" r="7" gradientTransform="matrix(1.22449 0 0 1.22449 49.7555 -179.34296)" gradientUnits="userSpaceOnUse" xlink:href="#linearGradient4126-5-6"/><linearGradient id="linearGradient4181" x1=".838" x2="12.691" gradientTransform="translate(-13.53783,-0.01017)" gradientUnits="userSpaceOnUse" xlink:href="#linearGradient4159"/><linearGradient id="linearGradient4008" x1="4.374" x2="9.172" y1="6.773" y2="6.773" gradientTransform="matrix(0,-1,1,0,2.395e-5,13.54664)" gradientUnits="userSpaceOnUse" xlink:href="#linearGradient4174-3"/><linearGradient id="linearGradient3092" x2="0" y1="1050.36" y2="1006.36" gradientTransform="matrix(0.28222223,0,0,0.28222223,4.9916667e-7,-283.45334)" gradientUnits="userSpaceOnUse" xlink:href="#linearGradient4460"/><linearGradient id="linearGradient4460"><stop id="stop7" offset="0" stop-color="#cecece" stop-opacity="1"/><stop id="stop9" offset="1" stop-color="#e9e9e9" stop-opacity="1"/></linearGradient><radialGradient id="radialGradient3025" cx="148.004" cy="160" r="128" gradientTransform="matrix(0.05167489,0,0,0.05167489,-0.87511191,-1.4947616)" gradientUnits="userSpaceOnUse" spreadMethod="pad" xlink:href="#linearGradient4460-0"/><linearGradient id="linearGradient4460-0"><stop id="stop8-7-0" offset="0" stop-color="#747474" stop-opacity="1"/><stop id="stop10-4-4" offset="1" stop-color="#2d2d2d" stop-opacity="1"/></linearGradient><radialGradient id="radialGradient3012" cx="148.004" cy="160" r="128" gradientTransform="matrix(0.05167489,0,0,0.05167489,-0.87510911,-1.4947611)" gradientUnits="userSpaceOnUse" spreadMethod="pad" xlink:href="#linearGradient4460-0"/></defs><path id="path11" fill="url(#radialGradient3012)" fill-opacity="1" d="m 13.387779,3.2589206 0,7.0290974 c 0,2.892778 0,3.100035 -3.100035,3.100035 l -7.0279951,0 c -3.10113701,0 -3.10113701,-0.207257 -3.10113701,-3.100035 l 0,-7.0290974 c 0,-2.89277749 0,-3.10003449 3.10113701,-3.10003449 l 7.0279951,0 c 3.100035,0 3.100035,0.207257 3.100035,3.10003449 z"/><path id="path15" fill="#fff" fill-opacity=".051" d="m 10.799272,13.388053 c 0.717682,-0.0033 1.235825,-0.02315 1.611753,-0.124575 l -1.193932,-2.04611 -1.2655901,2.170685 0.3362411,0 c 0.180799,0 0.350573,0 0.511528,0 z M 11.217093,11.217368 9.7707039,8.7368981 8.3232129,11.217368 z m 0,0 2.159662,0 c 0.0088,-0.274506 0.01102,-0.582084 0.01102,-0.930452 l 0,-0.3097836 -0.723192,-1.2402343 z M 12.664585,8.7368981 11.217093,6.2564294 9.7707039,8.7368981 z m 0,0 0.723194,0 0,-1.2402343 z m -2.8938811,0 -1.447491,-2.4804687 -1.446389,2.4804687 z m -2.89388,0 -1.447491,2.4804699 2.89388,0 z m 0,0 -1.447491,-2.4804687 -1.446389,2.4804687 z m -2.89388,0 -1.447491,2.4804699 2.89388,0 z m 0,0 -1.447491,-2.4804687 -1.44639,2.4804687 z m -2.893881,0 -0.93045101,1.5941149 c 0,0.329627 0.0033,0.623976 0.01102,0.886355 l 2.36581601,0 z m 0,0 -0.93045101,-1.5941145 0,1.5941145 z m 1.44639,2.4804699 -1.217084,2.0869 c 0.450894,0.08268 1.07487,0.08379 1.94138,0.08379 l 0.542396,0 z m 0,-4.9609386 -1.44639,-2.4804689 -0.93045101,1.5941148 0,0.8863541 z m 0,0 2.89388,0 -1.446389,-2.4804689 z m 1.447491,-2.4804689 -1.447491,-2.4804684 -1.44639,2.4804684 z m 0,0 2.89388,0 -1.447491,-2.4804684 z m 1.446389,-2.4804684 -0.663663,-1.13660599 -1.505921,0 c -0.02205,0 -0.03969,0 -0.06063,0 L 2.5354569,1.2954921 z m 0,0 2.89388,0 -0.663663,-1.13660599 -1.566554,0 z m 2.89388,0 2.8938801,0 -0.663663,-1.13660599 c -0.0882,0 -0.171979,0 -0.265686,0 l -1.3008681,0 z m 0,0 -1.446389,2.4804684 2.89388,0 z m 1.447491,2.4804684 2.8938811,0 -1.447492,-2.4804684 z m 0,0 -1.447491,2.4804689 2.8938801,0 z m 1.4463891,2.4804689 2.170686,0 0,-1.2402343 -0.723194,-1.2402346 z m 1.447492,-2.4804689 0.723194,0 0,-0.5170399 c 0,-0.2579689 -0.0022,-0.4938886 -0.0066,-0.7121697 z M 8.3232129,6.2564294 6.8768239,3.7759605 5.4293329,6.2564294 z m 2.8938801,-4.9609373 2.062648,0 C 13.123196,0.51717601 12.747267,0.27133421 11.85981,0.19416391 z m -8.6816401,0 -0.650435,-1.11565969 C 0.85204089,0.23826141 0.43421989,0.46095201 0.26664989,1.2954921 z M 1.0890629,3.7759605 0.17514889,2.2083047 c -0.01213,0.3031684 -0.01654,0.6515362 -0.01654,1.0506159 l 0,0.5170399 z m 4.34027,7.4414075 -1.265591,2.170685 2.532283,0 z m 2.89388,0 -1.265591,2.170685 2.532284,0 z m -7.59133701,1.868619 -0.451996,-0.775009 c 0.08268,0.371519 0.221588,0.615157 0.451996,0.775009 z"/><path id="path671" fill="#f9f9f9" fill-opacity="1" fill-rule="evenodd" stroke-width="3.75" d="m 7.1093209,8.2501777 c 0,0 0.1875229,0.5585228 0.4000358,1.0281947 0.2125286,0.4696869 0.5875744,0.6981681 0.6375846,0.6981681 0.049995,0 0.1000054,-0.266566 0.087502,-0.4188922 C 8.2219412,9.405323 7.8719008,9.1006563 8.4719771,9.5830237 9.0720389,10.065391 9.4970798,10.268497 9.459572,10.103476 9.5220851,9.6972645 8.822003,8.8467858 9.2720639,8.9991111 9.7221101,9.1514367 10.48469,9.5068682 10.009639,8.9483311 9.5345875,8.3898083 9.0470336,8.1359225 9.4595869,8.1486172 9.8721257,8.1613123 10.272162,8.3517233 10.072151,7.9835963 9.8721257,7.6154698 8.9096852,7.0429646 8.4971469,6.8017739 7.337778,6.7733335 7.0555557,7.0555557 7.1093209,8.2501777 z"/><path id="path663" fill="#f9f9f9" fill-opacity="1" fill-rule="evenodd" stroke="none" d="M 3.3866668,3.3866667 C 4.5445499,3.4116836 7.4703645,3.8870425 8.5908932,6.7767376 8.1628596,7.0957185 7.4664895,7.7820181 7.1093163,8.2903786 4.2581957,6.8267801 3.4489182,4.5125173 3.3866668,3.3866667 z"/><path id="path664" fill="#f9f9f9" fill-opacity="1" fill-rule="evenodd" stroke="none" d="m 5.5236108,7.1899008 c 0,0 0.054307,1.3256547 0.054307,1.3381654 0,0.012511 1.5313978,0.7130479 1.6185433,0.7505798 L 7.1217677,8.2372297 C 7.0555557,7.9022224 6.208889,7.0555557 5.5236108,7.1899008 z"/><path id="path665" fill="#f9f9f9" fill-opacity="1" fill-rule="evenodd" stroke="none" d="m 7.5319625,5.1698193 c 0,0 1.3236305,0.047323 1.3360776,0.047631 0.012448,3.069e-4 0.671827,1.5557354 0.7070288,1.6441906 L 8.4971469,6.8046602 C 8.1844446,6.4911113 7.6200002,5.6444446 7.5319625,5.1698193 z"/></svg>