<svg xmlns="http://www.w3.org/2000/svg" xmlns:svg="http://www.w3.org/2000/svg" xmlns:xlink="http://www.w3.org/1999/xlink" id="svg2" width="48" height="48" version="1.1" viewBox="0 0 13.547 13.547"><metadata id="metadata402"/><defs id="defs4"><clipPath id="clipPath6" clipPathUnits="userSpaceOnUse"><rect id="rect8" width="60" height="60" x="306" y="142" fill="url(#linearGradient4863-9)" color="#bebebe" rx="12.5" transform="matrix(0 -1 1 0 0 0)"/></clipPath><clipPath id="clipPath10" clipPathUnits="userSpaceOnUse"><path id="path12" d="m 328,238 c -7.73199,0 -14,6.26801 -14,14 0,7.73199 6.26801,14 14,14 7.73199,0 14,-6.26801 14,-14 0,-7.73199 -6.26801,-14 -14,-14 z m 0,8.75 c 2.89949,0 5.25,2.35051 5.25,5.25 0,2.89949 -2.35051,5.25 -5.25,5.25 -2.89949,0 -5.25,-2.35051 -5.25,-5.25 0,-2.89949 2.35051,-5.25 5.25,-5.25 z m 0,1.75 c -1.933,0 -3.5,1.567 -3.5,3.5 0,1.933 1.567,3.5 3.5,3.5 1.933,0 3.5,-1.567 3.5,-3.5 0,-1.933 -1.567,-3.5 -3.5,-3.5 z m 0,1.75 c 0.96649,0 1.75,0.78351 1.75,1.75 0,0.96649 -0.78351,1.75 -1.75,1.75 -0.96649,0 -1.75,-0.78351 -1.75,-1.75 0,-0.96649 0.78351,-1.75 1.75,-1.75 z" color="#bebebe" opacity=".2"/></clipPath><clipPath id="clipPath14" clipPathUnits="userSpaceOnUse"><path id="path16" d="m 328,238 c -7.73199,0 -14,6.26801 -14,14 0,7.73199 6.26801,14 14,14 7.73199,0 14,-6.26801 14,-14 0,-7.73199 -6.26801,-14 -14,-14 z m 0,9.90625 c 2.20914,0 4,1.79086 4,4 0,2.20914 -1.79086,4 -4,4 -2.20914,0 -4,-1.79086 -4,-4 0,-2.20914 1.79086,-4 4,-4 z m 0,1 c -1.65685,0 -3,1.34315 -3,3 0,1.65685 1.34315,3 3,3 1.65685,0 3,-1.34315 3,-3 0,-1.65685 -1.34315,-3 -3,-3 z m 0,1 c 1.10457,0 2,0.89543 2,2 0,1.10457 -0.89543,2 -2,2 -1.10457,0 -2,-0.89543 -2,-2 0,-1.10457 0.89543,-2 2,-2 z" color="#bebebe" opacity=".2"/></clipPath><clipPath id="clipPath18" clipPathUnits="userSpaceOnUse"><rect id="rect20" width="90" height="90" x="307" y="31" fill="url(#linearGradient4825-8)" color="#bebebe" rx="18.75"/></clipPath><clipPath id="clipPath22" clipPathUnits="userSpaceOnUse"><path id="path24" fill="url(#radialGradient4225-7)" d="m 328,256 15,11 0,-27 -15,0 z" clip-path="none"/></clipPath><clipPath id="clipPath26" clipPathUnits="userSpaceOnUse"><rect id="rect28" width="42" height="42" x="307" y="223" fill="url(#linearGradient4895-0)" color="#bebebe" rx="9" transform="rotate(90)"/></clipPath><clipPath id="clipPath30" clipPathUnits="userSpaceOnUse"><rect id="rect32" width="42" height="42" x="307" y="223" fill="url(#linearGradient4895-2)" color="#bebebe" rx="9" transform="rotate(90)"/></clipPath><clipPath id="clipPath34" clipPathUnits="userSpaceOnUse"><rect id="rect36" width="30" height="30" x="433" y="29" fill="#6d6d6d" color="#bebebe" opacity=".2" rx="4"/></clipPath><clipPath id="clipPath38" clipPathUnits="userSpaceOnUse"><rect id="rect40" width="60" height="60" x="306" y="142" fill="url(#linearGradient4863-4)" color="#bebebe" rx="12.5" transform="matrix(0 -1 1 0 0 0)"/></clipPath><clipPath id="clipPath42" clipPathUnits="userSpaceOnUse"><rect id="rect44" width="22" height="22" x="433" y="77" color="#bebebe" rx="5"/></clipPath><clipPath id="clipPath46" clipPathUnits="userSpaceOnUse"><rect id="rect48" width="16" height="16" x="432" y="116" color="#bebebe" rx="3"/></clipPath><clipPath id="clipPath50" clipPathUnits="userSpaceOnUse"><path id="path52" fill="url(#linearGradient4326-1)" d="m 328,242.09376 c -7.73199,0 -14,6.26801 -14,14 0,7.73199 6.26801,14 14,14 7.73199,0 14,-6.26801 14,-14 0,-7.73199 -6.26801,-14 -14,-14 z m 0,9.90625 c 2.20914,0 4,1.79086 4,4 0,2.20914 -1.79086,4 -4,4 -2.20914,0 -4,-1.79086 -4,-4 0,-2.20914 1.79086,-4 4,-4 z m 0,1 c -1.65685,0 -3,1.34315 -3,3 0,1.65685 1.34315,3 3,3 1.65685,0 3,-1.34315 3,-3 0,-1.65685 -1.34315,-3 -3,-3 z m 0,1 c 1.10457,0 2,0.89543 2,2 0,1.10457 -0.89543,2 -2,2 -1.10457,0 -2,-0.89543 -2,-2 0,-1.10457 0.89543,-2 2,-2 z" color="#bebebe"/></clipPath><clipPath id="clipPath54" clipPathUnits="userSpaceOnUse"><rect id="rect56" width="22" height="22" x="433" y="77" fill="#6d6d6d" color="#bebebe" opacity=".2" rx="3"/></clipPath><clipPath id="clipPath58" clipPathUnits="userSpaceOnUse"><path id="path60" fill="#b74049" d="m 328,256 15,11 0,-27 -15,0 z" clip-path="url(#clipPath4112-2)" opacity=".1"/></clipPath><clipPath id="clipPath62" clipPathUnits="userSpaceOnUse"><rect id="rect64" width="16" height="16" x="432" y="116" fill="#6d6d6d" color="#bebebe" opacity=".2" rx="2"/></clipPath><clipPath id="clipPath66" clipPathUnits="userSpaceOnUse"><rect id="rect68" width="240" height="240" x="24" y="36" fill="#986767" color="#bebebe" rx="50"/></clipPath><clipPath id="clipPath70" clipPathUnits="userSpaceOnUse"><rect id="rect72" width="22" height="22" x="433" y="77" color="#bebebe" rx="4"/></clipPath><clipPath id="clipPath74" clipPathUnits="userSpaceOnUse"><rect id="rect76" width="30" height="30" x="433" y="29" fill="#6d6d6d" color="#bebebe" opacity=".2" rx="4"/></clipPath><clipPath id="clipPath78" clipPathUnits="userSpaceOnUse"><rect id="rect80" width="16" height="16" x="432" y="116" fill="#6d6d6d" color="#bebebe" opacity=".2" rx="2"/></clipPath><clipPath id="clipPath82" clipPathUnits="userSpaceOnUse"><path id="path84" fill="url(#linearGradient4203-4)" d="m 444,88 c -4.41828,0 -8,3.58172 -8,8 0,4.41828 3.58172,8 8,8 4.41828,0 8,-3.58172 8,-8 0,-4.41828 -3.58172,-8 -8,-8 z m 0,5 c 1.65685,0 3,1.34315 3,3 0,1.65685 -1.34315,3 -3,3 -1.65685,0 -3,-1.34315 -3,-3 0,-1.65685 1.34315,-3 3,-3 z m 0,1 c -1.10457,0 -2,0.89543 -2,2 0,1.10457 0.89543,2 2,2 1.10457,0 2,-0.89543 2,-2 0,-1.10457 -0.89543,-2 -2,-2 z m 0,1 c 0.55228,0 1,0.44772 1,1 0,0.55228 -0.44772,1 -1,1 -0.55228,0 -1,-0.44772 -1,-1 0,-0.55228 0.44772,-1 1,-1 z" color="#bebebe"/></clipPath><clipPath id="clipPath86" clipPathUnits="userSpaceOnUse"><rect id="rect88" width="22" height="22" x="433" y="77" color="#bebebe" rx="5"/></clipPath><clipPath id="clipPath90" clipPathUnits="userSpaceOnUse"><rect id="rect92" width="30" height="30" x="433" y="29" color="#bebebe" rx="6"/></clipPath><clipPath id="clipPath4112-5" clipPathUnits="userSpaceOnUse"><path id="path95" d="m 328,242.09375 c -7.73199,0 -14,6.26801 -14,14 0,7.73199 6.26801,14 14,14 7.73199,0 14,-6.26801 14,-14 0,-7.73199 -6.26801,-14 -14,-14 z M 328,252 c 2.20914,0 4,1.79086 4,4 0,2.20914 -1.79086,4 -4,4 -2.20914,0 -4,-1.79086 -4,-4 0,-2.20914 1.79086,-4 4,-4 z m 0,1 c -1.65685,0 -3,1.34315 -3,3 0,1.65685 1.34315,3 3,3 1.65685,0 3,-1.34315 3,-3 0,-1.65685 -1.34315,-3 -3,-3 z m 0,1 c 1.10457,0 2,0.89543 2,2 0,1.10457 -0.89543,2 -2,2 -1.10457,0 -2,-0.89543 -2,-2 0,-1.10457 0.89543,-2 2,-2 z" color="#bebebe" opacity=".2"/></clipPath><clipPath id="clipPath97" clipPathUnits="userSpaceOnUse"><rect id="rect99" width="240" height="240" x="24" y="36" fill="#986767" color="#bebebe" rx="50"/></clipPath><clipPath id="clipPath101" clipPathUnits="userSpaceOnUse"><rect id="rect103" width="30" height="30" x="433" y="29" color="#bebebe" rx="6"/></clipPath><clipPath id="clipPath105" clipPathUnits="userSpaceOnUse"><path id="path107" d="m 328,238 c -7.73199,0 -14,6.26801 -14,14 0,7.73199 6.26801,14 14,14 7.73199,0 14,-6.26801 14,-14 0,-7.73199 -6.26801,-14 -14,-14 z m 0,8.75 c 2.89949,0 5.25,2.35051 5.25,5.25 0,2.89949 -2.35051,5.25 -5.25,5.25 -2.89949,0 -5.25,-2.35051 -5.25,-5.25 0,-2.89949 2.35051,-5.25 5.25,-5.25 z m 0,1.75 c -1.933,0 -3.5,1.567 -3.5,3.5 0,1.933 1.567,3.5 3.5,3.5 1.933,0 3.5,-1.567 3.5,-3.5 0,-1.933 -1.567,-3.5 -3.5,-3.5 z m 0,1.75 c 0.96649,0 1.75,0.78351 1.75,1.75 0,0.96649 -0.78351,1.75 -1.75,1.75 -0.96649,0 -1.75,-0.78351 -1.75,-1.75 0,-0.96649 0.78351,-1.75 1.75,-1.75 z" color="#bebebe" opacity=".2"/></clipPath><clipPath id="clipPath109" clipPathUnits="userSpaceOnUse"><rect id="rect111" width="22" height="22" x="433" y="77" color="#bebebe" rx="4"/></clipPath><clipPath id="clipPath113" clipPathUnits="userSpaceOnUse"><path id="path115" fill="#b74049" d="m 328,256 15,11 0,-27 -15,0 z" clip-path="url(#clipPath4112-5)" opacity=".1"/></clipPath><clipPath id="clipPath117" clipPathUnits="userSpaceOnUse"><path id="path119" fill="url(#linearGradient4296-6)" d="m 451.38843,127.3713 c -3.31371,0 -6,2.68629 -6,6 0,3.31371 2.68629,6 6,6 3.31371,0 6,-2.68629 6,-6 0,-3.31371 -2.68629,-6 -6,-6 z m 0,3 c 1.65685,0 3,1.34315 3,3 0,1.65685 -1.34315,3 -3,3 -1.65685,0 -3,-1.34315 -3,-3 0,-1.65685 1.34315,-3 3,-3 z m 0,1 c -1.10457,0 -2,0.89543 -2,2 0,1.10457 0.89543,2 2,2 1.10457,0 2,-0.89543 2,-2 0,-1.10457 -0.89543,-2 -2,-2 z m 0,1 c 0.55228,0 1,0.44772 1,1 0,0.55228 -0.44772,1 -1,1 -0.55228,0 -1,-0.44772 -1,-1 0,-0.55228 0.44772,-1 1,-1 z" color="#bebebe"/></clipPath><clipPath id="clipPath121" clipPathUnits="userSpaceOnUse"><path id="path123" fill="url(#linearGradient4344-8)" d="m 144.00001,75.999997 c -44.1828,0 -80,35.817203 -80,80.000003 0,44.1828 35.8172,80 80,80 44.1828,0 80,-35.8172 80,-80 0,-44.1828 -35.8172,-80.000003 -80,-80.000003 z m 0,56.607143 c 12.62366,0 22.85714,10.23349 22.85714,22.85714 0,12.62366 -10.23348,22.85714 -22.85714,22.85714 -12.62366,0 -22.85714,-10.23348 -22.85714,-22.85714 0,-12.62365 10.23348,-22.85714 22.85714,-22.85714 z m 0,5.71429 c -9.46771,0 -17.14286,7.67514 -17.14286,17.14285 0,9.46772 7.67515,17.14286 17.14286,17.14286 9.46771,0 17.14286,-7.67514 17.14286,-17.14286 0,-9.46771 -7.67515,-17.14285 -17.14286,-17.14285 z m 0,5.71428 c 6.31183,0 11.42857,5.11674 11.42857,11.42857 0,6.31183 -5.11674,11.42857 -11.42857,11.42857 -6.31183,0 -11.42857,-5.11674 -11.42857,-11.42857 0,-6.31183 5.11674,-11.42857 11.42857,-11.42857 z" color="#bebebe"/></clipPath><clipPath id="clipPath125" clipPathUnits="userSpaceOnUse"><rect id="rect127" width="20" height="20" x="434" y="78" color="#bebebe" rx="4"/></clipPath><clipPath id="clipPath129" clipPathUnits="userSpaceOnUse"><rect id="rect131" width="16" height="16" x="432" y="116" color="#bebebe" rx="3"/></clipPath><clipPath id="clipPath133" clipPathUnits="userSpaceOnUse"><path id="path135" fill="url(#radialGradient4229-8)" d="m 451.38843,133.3713 6.42857,4.71429 0,-11.57143 -6.42857,0 z" clip-path="none"/></clipPath><clipPath id="clipPath137" clipPathUnits="userSpaceOnUse"><path id="path139" fill="url(#radialGradient4225-6)" d="m 328,256 15,11 0,-27 -15,0 z" clip-path="none"/></clipPath><clipPath id="clipPath141" clipPathUnits="userSpaceOnUse"><rect id="rect143" width="20" height="20" x="434" y="78" color="#bebebe" rx="4"/></clipPath><clipPath id="clipPath145" clipPathUnits="userSpaceOnUse"><path id="path147" fill="url(#linearGradient4227-3)" d="m 440,126 c -3.31371,0 -6,2.68629 -6,6 0,3.31371 2.68629,6 6,6 3.31371,0 6,-2.68629 6,-6 0,-3.31371 -2.68629,-6 -6,-6 z m 0,3 c 1.65685,0 3,1.34315 3,3 0,1.65685 -1.34315,3 -3,3 -1.65685,0 -3,-1.34315 -3,-3 0,-1.65685 1.34315,-3 3,-3 z m 0,1 c -1.10457,0 -2,0.89543 -2,2 0,1.10457 0.89543,2 2,2 1.10457,0 2,-0.89543 2,-2 0,-1.10457 -0.89543,-2 -2,-2 z m 0,1 c 0.55228,0 1,0.44772 1,1 0,0.55228 -0.44772,1 -1,1 -0.55228,0 -1,-0.44772 -1,-1 0,-0.55228 0.44772,-1 1,-1 z" color="#bebebe"/></clipPath><clipPath id="clipPath149" clipPathUnits="userSpaceOnUse"><path id="path151" d="m 328,238 c -7.73199,0 -14,6.26801 -14,14 0,7.73199 6.26801,14 14,14 7.73199,0 14,-6.26801 14,-14 0,-7.73199 -6.26801,-14 -14,-14 z m 0,9.90625 c 2.20914,0 4,1.79086 4,4 0,2.20914 -1.79086,4 -4,4 -2.20914,0 -4,-1.79086 -4,-4 0,-2.20914 1.79086,-4 4,-4 z m 0,1 c -1.65685,0 -3,1.34315 -3,3 0,1.65685 1.34315,3 3,3 1.65685,0 3,-1.34315 3,-3 0,-1.65685 -1.34315,-3 -3,-3 z m 0,1 c 1.10457,0 2,0.89543 2,2 0,1.10457 -0.89543,2 -2,2 -1.10457,0 -2,-0.89543 -2,-2 0,-1.10457 0.89543,-2 2,-2 z" color="#bebebe" opacity=".2"/></clipPath><clipPath id="clipPath153" clipPathUnits="userSpaceOnUse"><path id="path155" fill="url(#linearGradient4326-1)" d="m 328,242.09376 c -7.73199,0 -14,6.26801 -14,14 0,7.73199 6.26801,14 14,14 7.73199,0 14,-6.26801 14,-14 0,-7.73199 -6.26801,-14 -14,-14 z m 0,9.90625 c 2.20914,0 4,1.79086 4,4 0,2.20914 -1.79086,4 -4,4 -2.20914,0 -4,-1.79086 -4,-4 0,-2.20914 1.79086,-4 4,-4 z m 0,1 c -1.65685,0 -3,1.34315 -3,3 0,1.65685 1.34315,3 3,3 1.65685,0 3,-1.34315 3,-3 0,-1.65685 -1.34315,-3 -3,-3 z m 0,1 c 1.10457,0 2,0.89543 2,2 0,1.10457 -0.89543,2 -2,2 -1.10457,0 -2,-0.89543 -2,-2 0,-1.10457 0.89543,-2 2,-2 z" color="#bebebe"/></clipPath><clipPath id="clipPath157" clipPathUnits="userSpaceOnUse"><rect id="rect159" width="16" height="16" x="432" y="116" fill="#6d6d6d" color="#bebebe" opacity=".2" rx="2"/></clipPath><clipPath id="clipPath161" clipPathUnits="userSpaceOnUse"><rect id="rect163" width="90" height="90" x="307" y="31" fill="url(#linearGradient4825-6)" color="#bebebe" rx="18.75"/></clipPath><clipPath id="clipPath165" clipPathUnits="userSpaceOnUse"><path id="path167" fill="url(#linearGradient4326-13)" d="m 328,242.09376 c -7.73199,0 -14,6.26801 -14,14 0,7.73199 6.26801,14 14,14 7.73199,0 14,-6.26801 14,-14 0,-7.73199 -6.26801,-14 -14,-14 z m 0,9.90625 c 2.20914,0 4,1.79086 4,4 0,2.20914 -1.79086,4 -4,4 -2.20914,0 -4,-1.79086 -4,-4 0,-2.20914 1.79086,-4 4,-4 z m 0,1 c -1.65685,0 -3,1.34315 -3,3 0,1.65685 1.34315,3 3,3 1.65685,0 3,-1.34315 3,-3 0,-1.65685 -1.34315,-3 -3,-3 z m 0,1 c 1.10457,0 2,0.89543 2,2 0,1.10457 -0.89543,2 -2,2 -1.10457,0 -2,-0.89543 -2,-2 0,-1.10457 0.89543,-2 2,-2 z" color="#bebebe"/></clipPath><clipPath id="clipPath4112-2" clipPathUnits="userSpaceOnUse"><path id="path170" d="m 328,242.09375 c -7.73199,0 -14,6.26801 -14,14 0,7.73199 6.26801,14 14,14 7.73199,0 14,-6.26801 14,-14 0,-7.73199 -6.26801,-14 -14,-14 z M 328,252 c 2.20914,0 4,1.79086 4,4 0,2.20914 -1.79086,4 -4,4 -2.20914,0 -4,-1.79086 -4,-4 0,-2.20914 1.79086,-4 4,-4 z m 0,1 c -1.65685,0 -3,1.34315 -3,3 0,1.65685 1.34315,3 3,3 1.65685,0 3,-1.34315 3,-3 0,-1.65685 -1.34315,-3 -3,-3 z m 0,1 c 1.10457,0 2,0.89543 2,2 0,1.10457 -0.89543,2 -2,2 -1.10457,0 -2,-0.89543 -2,-2 0,-1.10457 0.89543,-2 2,-2 z" color="#bebebe" opacity=".2"/></clipPath><clipPath id="clipPath172" clipPathUnits="userSpaceOnUse"><path id="path174" fill="url(#radialGradient4279)" d="m 451.38843,133.3713 6.42857,4.71429 0,-11.57143 -6.42857,0 z" clip-path="none"/></clipPath><clipPath id="clipPath176" clipPathUnits="userSpaceOnUse"><path id="path178" fill="url(#linearGradient4326-13)" d="m 328,242.09376 c -7.73199,0 -14,6.26801 -14,14 0,7.73199 6.26801,14 14,14 7.73199,0 14,-6.26801 14,-14 0,-7.73199 -6.26801,-14 -14,-14 z m 0,9.90625 c 2.20914,0 4,1.79086 4,4 0,2.20914 -1.79086,4 -4,4 -2.20914,0 -4,-1.79086 -4,-4 0,-2.20914 1.79086,-4 4,-4 z m 0,1 c -1.65685,0 -3,1.34315 -3,3 0,1.65685 1.34315,3 3,3 1.65685,0 3,-1.34315 3,-3 0,-1.65685 -1.34315,-3 -3,-3 z m 0,1 c 1.10457,0 2,0.89543 2,2 0,1.10457 -0.89543,2 -2,2 -1.10457,0 -2,-0.89543 -2,-2 0,-1.10457 0.89543,-2 2,-2 z" color="#bebebe"/></clipPath><clipPath id="clipPath180" clipPathUnits="userSpaceOnUse"><path id="path182" fill="url(#linearGradient4296)" d="m 451.38843,127.3713 c -3.31371,0 -6,2.68629 -6,6 0,3.31371 2.68629,6 6,6 3.31371,0 6,-2.68629 6,-6 0,-3.31371 -2.68629,-6 -6,-6 z m 0,3 c 1.65685,0 3,1.34315 3,3 0,1.65685 -1.34315,3 -3,3 -1.65685,0 -3,-1.34315 -3,-3 0,-1.65685 1.34315,-3 3,-3 z m 0,1 c -1.10457,0 -2,0.89543 -2,2 0,1.10457 0.89543,2 2,2 1.10457,0 2,-0.89543 2,-2 0,-1.10457 -0.89543,-2 -2,-2 z m 0,1 c 0.55228,0 1,0.44772 1,1 0,0.55228 -0.44772,1 -1,1 -0.55228,0 -1,-0.44772 -1,-1 0,-0.55228 0.44772,-1 1,-1 z" color="#bebebe"/></clipPath><clipPath id="clipPath184" clipPathUnits="userSpaceOnUse"><path id="path186" d="m 328,238 c -7.73199,0 -14,6.26801 -14,14 0,7.73199 6.26801,14 14,14 7.73199,0 14,-6.26801 14,-14 0,-7.73199 -6.26801,-14 -14,-14 z m 0,9.90625 c 2.20914,0 4,1.79086 4,4 0,2.20914 -1.79086,4 -4,4 -2.20914,0 -4,-1.79086 -4,-4 0,-2.20914 1.79086,-4 4,-4 z m 0,1 c -1.65685,0 -3,1.34315 -3,3 0,1.65685 1.34315,3 3,3 1.65685,0 3,-1.34315 3,-3 0,-1.65685 -1.34315,-3 -3,-3 z m 0,1 c 1.10457,0 2,0.89543 2,2 0,1.10457 -0.89543,2 -2,2 -1.10457,0 -2,-0.89543 -2,-2 0,-1.10457 0.89543,-2 2,-2 z" color="#bebebe" opacity=".2"/></clipPath><clipPath id="clipPath188" clipPathUnits="userSpaceOnUse"><path id="path190" fill="url(#radialGradient4250)" d="m 328,256 15,11 0,-27 -15,0 z" clip-path="none"/></clipPath><clipPath id="clipPath192" clipPathUnits="userSpaceOnUse"><path id="path194" fill="#b74049" d="m 328,256 15,11 0,-27 -15,0 z" clip-path="url(#clipPath4112)" opacity=".1"/></clipPath><clipPath id="clipPath196" clipPathUnits="userSpaceOnUse"><path id="path198" fill="url(#linearGradient4326-1)" d="m 328,242.09376 c -7.73199,0 -14,6.26801 -14,14 0,7.73199 6.26801,14 14,14 7.73199,0 14,-6.26801 14,-14 0,-7.73199 -6.26801,-14 -14,-14 z m 0,9.90625 c 2.20914,0 4,1.79086 4,4 0,2.20914 -1.79086,4 -4,4 -2.20914,0 -4,-1.79086 -4,-4 0,-2.20914 1.79086,-4 4,-4 z m 0,1 c -1.65685,0 -3,1.34315 -3,3 0,1.65685 1.34315,3 3,3 1.65685,0 3,-1.34315 3,-3 0,-1.65685 -1.34315,-3 -3,-3 z m 0,1 c 1.10457,0 2,0.89543 2,2 0,1.10457 -0.89543,2 -2,2 -1.10457,0 -2,-0.89543 -2,-2 0,-1.10457 0.89543,-2 2,-2 z" color="#bebebe"/></clipPath><clipPath id="clipPath200" clipPathUnits="userSpaceOnUse"><path id="path202" fill="url(#linearGradient4344-1)" d="m 144.00001,75.999997 c -44.1828,0 -80,35.817203 -80,80.000003 0,44.1828 35.8172,80 80,80 44.1828,0 80,-35.8172 80,-80 0,-44.1828 -35.8172,-80.000003 -80,-80.000003 z m 0,56.607143 c 12.62366,0 22.85714,10.23349 22.85714,22.85714 0,12.62366 -10.23348,22.85714 -22.85714,22.85714 -12.62366,0 -22.85714,-10.23348 -22.85714,-22.85714 0,-12.62365 10.23348,-22.85714 22.85714,-22.85714 z m 0,5.71429 c -9.46771,0 -17.14286,7.67514 -17.14286,17.14285 0,9.46772 7.67515,17.14286 17.14286,17.14286 9.46771,0 17.14286,-7.67514 17.14286,-17.14286 0,-9.46771 -7.67515,-17.14285 -17.14286,-17.14285 z m 0,5.71428 c 6.31183,0 11.42857,5.11674 11.42857,11.42857 0,6.31183 -5.11674,11.42857 -11.42857,11.42857 -6.31183,0 -11.42857,-5.11674 -11.42857,-11.42857 0,-6.31183 5.11674,-11.42857 11.42857,-11.42857 z" color="#bebebe"/></clipPath><clipPath id="clipPath204" clipPathUnits="userSpaceOnUse"><path id="path206" fill="url(#linearGradient4306)" d="m 440,126 c -3.31371,0 -6,2.68629 -6,6 0,3.31371 2.68629,6 6,6 3.31371,0 6,-2.68629 6,-6 0,-3.31371 -2.68629,-6 -6,-6 z m 0,3 c 1.65685,0 3,1.34315 3,3 0,1.65685 -1.34315,3 -3,3 -1.65685,0 -3,-1.34315 -3,-3 0,-1.65685 1.34315,-3 3,-3 z m 0,1 c -1.10457,0 -2,0.89543 -2,2 0,1.10457 0.89543,2 2,2 1.10457,0 2,-0.89543 2,-2 0,-1.10457 -0.89543,-2 -2,-2 z m 0,1 c 0.55228,0 1,0.44772 1,1 0,0.55228 -0.44772,1 -1,1 -0.55228,0 -1,-0.44772 -1,-1 0,-0.55228 0.44772,-1 1,-1 z" color="#bebebe"/></clipPath><clipPath id="clipPath208" clipPathUnits="userSpaceOnUse"><path id="path210" d="m 328,238 c -7.73199,0 -14,6.26801 -14,14 0,7.73199 6.26801,14 14,14 7.73199,0 14,-6.26801 14,-14 0,-7.73199 -6.26801,-14 -14,-14 z m 0,8.75 c 2.89949,0 5.25,2.35051 5.25,5.25 0,2.89949 -2.35051,5.25 -5.25,5.25 -2.89949,0 -5.25,-2.35051 -5.25,-5.25 0,-2.89949 2.35051,-5.25 5.25,-5.25 z m 0,1.75 c -1.933,0 -3.5,1.567 -3.5,3.5 0,1.933 1.567,3.5 3.5,3.5 1.933,0 3.5,-1.567 3.5,-3.5 0,-1.933 -1.567,-3.5 -3.5,-3.5 z m 0,1.75 c 0.96649,0 1.75,0.78351 1.75,1.75 0,0.96649 -0.78351,1.75 -1.75,1.75 -0.96649,0 -1.75,-0.78351 -1.75,-1.75 0,-0.96649 0.78351,-1.75 1.75,-1.75 z" color="#bebebe" opacity=".2"/></clipPath><clipPath id="clipPath212" clipPathUnits="userSpaceOnUse"><rect id="rect214" width="22" height="22" x="433" y="77" fill="#6d6d6d" color="#bebebe" opacity=".2" rx="3"/></clipPath><clipPath id="clipPath216" clipPathUnits="userSpaceOnUse"><path id="path218" fill="url(#linearGradient4203-6)" d="m 444,88 c -4.41828,0 -8,3.58172 -8,8 0,4.41828 3.58172,8 8,8 4.41828,0 8,-3.58172 8,-8 0,-4.41828 -3.58172,-8 -8,-8 z m 0,5 c 1.65685,0 3,1.34315 3,3 0,1.65685 -1.34315,3 -3,3 -1.65685,0 -3,-1.34315 -3,-3 0,-1.65685 1.34315,-3 3,-3 z m 0,1 c -1.10457,0 -2,0.89543 -2,2 0,1.10457 0.89543,2 2,2 1.10457,0 2,-0.89543 2,-2 0,-1.10457 -0.89543,-2 -2,-2 z m 0,1 c 0.55228,0 1,0.44772 1,1 0,0.55228 -0.44772,1 -1,1 -0.55228,0 -1,-0.44772 -1,-1 0,-0.55228 0.44772,-1 1,-1 z" color="#bebebe"/></clipPath><clipPath id="clipPath220" clipPathUnits="userSpaceOnUse"><path id="path222" fill="url(#linearGradient4338)" d="m 328,242.09376 c -7.73199,0 -14,6.26801 -14,14 0,7.73199 6.26801,14 14,14 7.73199,0 14,-6.26801 14,-14 0,-7.73199 -6.26801,-14 -14,-14 z m 0,9.90625 c 2.20914,0 4,1.79086 4,4 0,2.20914 -1.79086,4 -4,4 -2.20914,0 -4,-1.79086 -4,-4 0,-2.20914 1.79086,-4 4,-4 z m 0,1 c -1.65685,0 -3,1.34315 -3,3 0,1.65685 1.34315,3 3,3 1.65685,0 3,-1.34315 3,-3 0,-1.65685 -1.34315,-3 -3,-3 z m 0,1 c 1.10457,0 2,0.89543 2,2 0,1.10457 -0.89543,2 -2,2 -1.10457,0 -2,-0.89543 -2,-2 0,-1.10457 0.89543,-2 2,-2 z" color="#bebebe"/></clipPath><clipPath id="clipPath224" clipPathUnits="userSpaceOnUse"><path id="path226" fill="url(#linearGradient4377)" d="m 444,88 c -4.41828,0 -8,3.58172 -8,8 0,4.41828 3.58172,8 8,8 4.41828,0 8,-3.58172 8,-8 0,-4.41828 -3.58172,-8 -8,-8 z m 0,5 c 1.65685,0 3,1.34315 3,3 0,1.65685 -1.34315,3 -3,3 -1.65685,0 -3,-1.34315 -3,-3 0,-1.65685 1.34315,-3 3,-3 z m 0,1 c -1.10457,0 -2,0.89543 -2,2 0,1.10457 0.89543,2 2,2 1.10457,0 2,-0.89543 2,-2 0,-1.10457 -0.89543,-2 -2,-2 z m 0,1 c 0.55228,0 1,0.44772 1,1 0,0.55228 -0.44772,1 -1,1 -0.55228,0 -1,-0.44772 -1,-1 0,-0.55228 0.44772,-1 1,-1 z" color="#bebebe"/></clipPath><clipPath id="clipPath228" clipPathUnits="userSpaceOnUse"><rect id="rect230" width="20" height="20" x="434" y="78" color="#bebebe" rx="4"/></clipPath><clipPath id="clipPath232" clipPathUnits="userSpaceOnUse"><rect id="rect234" width="240" height="240" x="24" y="36" fill="#986767" color="#bebebe" rx="50"/></clipPath><clipPath id="clipPath236" clipPathUnits="userSpaceOnUse"><path id="path238" fill="url(#linearGradient4338)" d="m 328,242.09376 c -7.73199,0 -14,6.26801 -14,14 0,7.73199 6.26801,14 14,14 7.73199,0 14,-6.26801 14,-14 0,-7.73199 -6.26801,-14 -14,-14 z m 0,9.90625 c 2.20914,0 4,1.79086 4,4 0,2.20914 -1.79086,4 -4,4 -2.20914,0 -4,-1.79086 -4,-4 0,-2.20914 1.79086,-4 4,-4 z m 0,1 c -1.65685,0 -3,1.34315 -3,3 0,1.65685 1.34315,3 3,3 1.65685,0 3,-1.34315 3,-3 0,-1.65685 -1.34315,-3 -3,-3 z m 0,1 c 1.10457,0 2,0.89543 2,2 0,1.10457 -0.89543,2 -2,2 -1.10457,0 -2,-0.89543 -2,-2 0,-1.10457 0.89543,-2 2,-2 z" color="#bebebe"/></clipPath><clipPath id="clipPath240" clipPathUnits="userSpaceOnUse"><path id="path242" fill="url(#radialGradient4229-9)" d="m 451.38843,133.3713 6.42857,4.71429 0,-11.57143 -6.42857,0 z" clip-path="none"/></clipPath><clipPath id="clipPath244" clipPathUnits="userSpaceOnUse"><rect id="rect246" width="90" height="90" x="307" y="31" fill="url(#linearGradient4825)" color="#bebebe" rx="18.75"/></clipPath><clipPath id="clipPath4112" clipPathUnits="userSpaceOnUse"><path id="path249" d="m 328,242.09375 c -7.73199,0 -14,6.26801 -14,14 0,7.73199 6.26801,14 14,14 7.73199,0 14,-6.26801 14,-14 0,-7.73199 -6.26801,-14 -14,-14 z M 328,252 c 2.20914,0 4,1.79086 4,4 0,2.20914 -1.79086,4 -4,4 -2.20914,0 -4,-1.79086 -4,-4 0,-2.20914 1.79086,-4 4,-4 z m 0,1 c -1.65685,0 -3,1.34315 -3,3 0,1.65685 1.34315,3 3,3 1.65685,0 3,-1.34315 3,-3 0,-1.65685 -1.34315,-3 -3,-3 z m 0,1 c 1.10457,0 2,0.89543 2,2 0,1.10457 -0.89543,2 -2,2 -1.10457,0 -2,-0.89543 -2,-2 0,-1.10457 0.89543,-2 2,-2 z" color="#bebebe" opacity=".2"/></clipPath><clipPath id="clipPath251" clipPathUnits="userSpaceOnUse"><rect id="rect253" width="22" height="22" x="433" y="77" color="#bebebe" rx="4"/></clipPath><clipPath id="clipPath255" clipPathUnits="userSpaceOnUse"><rect id="rect257" width="30" height="30" x="433" y="29" color="#bebebe" rx="6"/></clipPath><clipPath id="clipPath259" clipPathUnits="userSpaceOnUse"><rect id="rect261" width="22" height="22" x="433" y="77" color="#bebebe" rx="5"/></clipPath><clipPath id="clipPath263" clipPathUnits="userSpaceOnUse"><rect id="rect265" width="16" height="16" x="432" y="116" color="#bebebe" rx="3"/></clipPath><clipPath id="clipPath267" clipPathUnits="userSpaceOnUse"><path id="path269" fill="url(#linearGradient4344)" d="m 144.00001,75.999997 c -44.1828,0 -80,35.817203 -80,80.000003 0,44.1828 35.8172,80 80,80 44.1828,0 80,-35.8172 80,-80 0,-44.1828 -35.8172,-80.000003 -80,-80.000003 z m 0,56.607143 c 12.62366,0 22.85714,10.23349 22.85714,22.85714 0,12.62366 -10.23348,22.85714 -22.85714,22.85714 -12.62366,0 -22.85714,-10.23348 -22.85714,-22.85714 0,-12.62365 10.23348,-22.85714 22.85714,-22.85714 z m 0,5.71429 c -9.46771,0 -17.14286,7.67514 -17.14286,17.14285 0,9.46772 7.67515,17.14286 17.14286,17.14286 9.46771,0 17.14286,-7.67514 17.14286,-17.14286 0,-9.46771 -7.67515,-17.14285 -17.14286,-17.14285 z m 0,5.71428 c 6.31183,0 11.42857,5.11674 11.42857,11.42857 0,6.31183 -5.11674,11.42857 -11.42857,11.42857 -6.31183,0 -11.42857,-5.11674 -11.42857,-11.42857 0,-6.31183 5.11674,-11.42857 11.42857,-11.42857 z" color="#bebebe"/></clipPath><clipPath id="clipPath271" clipPathUnits="userSpaceOnUse"><path id="path273" fill="url(#linearGradient4296-69)" d="m 451.38843,127.3713 c -3.31371,0 -6,2.68629 -6,6 0,3.31371 2.68629,6 6,6 3.31371,0 6,-2.68629 6,-6 0,-3.31371 -2.68629,-6 -6,-6 z m 0,3 c 1.65685,0 3,1.34315 3,3 0,1.65685 -1.34315,3 -3,3 -1.65685,0 -3,-1.34315 -3,-3 0,-1.65685 1.34315,-3 3,-3 z m 0,1 c -1.10457,0 -2,0.89543 -2,2 0,1.10457 0.89543,2 2,2 1.10457,0 2,-0.89543 2,-2 0,-1.10457 -0.89543,-2 -2,-2 z m 0,1 c 0.55228,0 1,0.44772 1,1 0,0.55228 -0.44772,1 -1,1 -0.55228,0 -1,-0.44772 -1,-1 0,-0.55228 0.44772,-1 1,-1 z" color="#bebebe"/></clipPath><clipPath id="clipPath275" clipPathUnits="userSpaceOnUse"><rect id="rect277" width="22" height="22" x="433" y="77" fill="#6d6d6d" color="#bebebe" opacity=".2" rx="3"/></clipPath><clipPath id="clipPath279" clipPathUnits="userSpaceOnUse"><path id="path281" fill="url(#linearGradient4338)" d="m 328,242.09376 c -7.73199,0 -14,6.26801 -14,14 0,7.73199 6.26801,14 14,14 7.73199,0 14,-6.26801 14,-14 0,-7.73199 -6.26801,-14 -14,-14 z m 0,9.90625 c 2.20914,0 4,1.79086 4,4 0,2.20914 -1.79086,4 -4,4 -2.20914,0 -4,-1.79086 -4,-4 0,-2.20914 1.79086,-4 4,-4 z m 0,1 c -1.65685,0 -3,1.34315 -3,3 0,1.65685 1.34315,3 3,3 1.65685,0 3,-1.34315 3,-3 0,-1.65685 -1.34315,-3 -3,-3 z m 0,1 c 1.10457,0 2,0.89543 2,2 0,1.10457 -0.89543,2 -2,2 -1.10457,0 -2,-0.89543 -2,-2 0,-1.10457 0.89543,-2 2,-2 z" color="#bebebe"/></clipPath><clipPath id="clipPath283" clipPathUnits="userSpaceOnUse"><path id="path285" fill="url(#linearGradient4227-4)" d="m 440,126 c -3.31371,0 -6,2.68629 -6,6 0,3.31371 2.68629,6 6,6 3.31371,0 6,-2.68629 6,-6 0,-3.31371 -2.68629,-6 -6,-6 z m 0,3 c 1.65685,0 3,1.34315 3,3 0,1.65685 -1.34315,3 -3,3 -1.65685,0 -3,-1.34315 -3,-3 0,-1.65685 1.34315,-3 3,-3 z m 0,1 c -1.10457,0 -2,0.89543 -2,2 0,1.10457 0.89543,2 2,2 1.10457,0 2,-0.89543 2,-2 0,-1.10457 -0.89543,-2 -2,-2 z m 0,1 c 0.55228,0 1,0.44772 1,1 0,0.55228 -0.44772,1 -1,1 -0.55228,0 -1,-0.44772 -1,-1 0,-0.55228 0.44772,-1 1,-1 z" color="#bebebe"/></clipPath><clipPath id="clipPath287" clipPathUnits="userSpaceOnUse"><path id="path289" fill="url(#linearGradient4326-13)" d="m 328,242.09376 c -7.73199,0 -14,6.26801 -14,14 0,7.73199 6.26801,14 14,14 7.73199,0 14,-6.26801 14,-14 0,-7.73199 -6.26801,-14 -14,-14 z m 0,9.90625 c 2.20914,0 4,1.79086 4,4 0,2.20914 -1.79086,4 -4,4 -2.20914,0 -4,-1.79086 -4,-4 0,-2.20914 1.79086,-4 4,-4 z m 0,1 c -1.65685,0 -3,1.34315 -3,3 0,1.65685 1.34315,3 3,3 1.65685,0 3,-1.34315 3,-3 0,-1.65685 -1.34315,-3 -3,-3 z m 0,1 c 1.10457,0 2,0.89543 2,2 0,1.10457 -0.89543,2 -2,2 -1.10457,0 -2,-0.89543 -2,-2 0,-1.10457 0.89543,-2 2,-2 z" color="#bebebe"/></clipPath><clipPath id="clipPath291" clipPathUnits="userSpaceOnUse"><rect id="rect293" width="30" height="30" x="433" y="29" fill="#6d6d6d" color="#bebebe" opacity=".2" rx="4"/></clipPath><clipPath id="clipPath295" clipPathUnits="userSpaceOnUse"><rect id="rect297" width="60" height="60" x="306" y="142" fill="url(#linearGradient4863)" color="#bebebe" rx="12.5" transform="matrix(0 -1 1 0 0 0)"/></clipPath><clipPath id="clipPath299" clipPathUnits="userSpaceOnUse"><rect id="rect301" width="42" height="42" x="307" y="223" fill="url(#linearGradient4895)" color="#bebebe" rx="9" transform="rotate(90)"/></clipPath><linearGradient id="linearGradient4895-2" x2="0" y1="280" y2="40" gradientTransform="matrix(.175 0 0 .175 302.79999 215.99997)" gradientUnits="userSpaceOnUse" xlink:href="#outerBackgroundGradient-77"/><linearGradient id="linearGradient4863-4" x2="0" y1="230" y2="90" gradientTransform="matrix(.25 0 0 .25 299.99999 131.99999)" gradientUnits="userSpaceOnUse" xlink:href="#outerBackgroundGradient-77"/><linearGradient id="linearGradient4624" x1=".838" x2="12.691" gradientTransform="translate(-13.53783,-0.01017)" gradientUnits="userSpaceOnUse" xlink:href="#linearGradient4159"/><linearGradient id="outerBackgroundGradient-77"><stop id="stop307" offset="0" stop-color="#f0f0f0"/><stop id="stop309" offset="1" stop-color="#f8f8f8"/></linearGradient><linearGradient id="linearGradient4296-69" x2="0" y1="140" y2="124" gradientTransform="translate(11.38843 1.3713)" gradientUnits="userSpaceOnUse" xlink:href="#linearGradient4174-6"/><linearGradient id="linearGradient4326-13" x2="0" y1="273" y2="231" gradientTransform="translate(0 4.09376)" gradientUnits="userSpaceOnUse" xlink:href="#linearGradient4174-6"/><linearGradient id="linearGradient4344" x2="0" y1="273" y2="231" gradientTransform="matrix(5.71429 0 0 5.71429 -1730.2857 -1284)" gradientUnits="userSpaceOnUse" xlink:href="#linearGradient4174"/><linearGradient id="linearGradient4344-1" x2="0" y1="273" y2="231" gradientTransform="matrix(5.71429 0 0 5.71429 -1730.2857 -1284)" gradientUnits="userSpaceOnUse" xlink:href="#linearGradient4174-6"/><linearGradient id="linearGradient4825" x2="0" y1="230" y2="90" gradientTransform="matrix(.375 0 0 .375 298 16)" gradientUnits="userSpaceOnUse" xlink:href="#outerBackgroundGradient"/><linearGradient id="linearGradient4126-5"><stop id="stop317" offset="0" stop-color="#eaba31"/><stop id="stop319" offset="1" stop-color="#ff9200"/></linearGradient><linearGradient id="linearGradient4174-3"><stop id="stop322" offset="0" stop-color="#818181"/><stop id="stop324" offset="1" stop-color="#c5c5c5"/></linearGradient><linearGradient id="linearGradient4159"><stop id="stop327" offset="0" stop-color="#4d9bb6" stop-opacity="1"/><stop id="stop329" offset="1" stop-color="#4db3d6" stop-opacity="1"/></linearGradient><linearGradient id="linearGradient4227-3" x2="0" y1="140" y2="124" gradientUnits="userSpaceOnUse" xlink:href="#linearGradient4174-3"/><linearGradient id="outerBackgroundGradient"><stop id="stop333" offset="0" stop-color="#f0f0f0"/><stop id="stop335" offset="1" stop-color="#f8f8f8"/></linearGradient><linearGradient id="linearGradient4174"><stop id="stop338" offset="0" stop-color="#818181"/><stop id="stop340" offset="1" stop-color="#c5c5c5"/></linearGradient><linearGradient id="linearGradient4377" x2="0" y1="107" y2="85" gradientUnits="userSpaceOnUse" xlink:href="#linearGradient4174"/><linearGradient id="linearGradient4203-4" x2="0" y1="107" y2="85" gradientUnits="userSpaceOnUse" xlink:href="#linearGradient4174-3"/><linearGradient id="linearGradient4825-6" x2="0" y1="230" y2="90" gradientTransform="matrix(.375 0 0 .375 298 16)" gradientUnits="userSpaceOnUse" xlink:href="#outerBackgroundGradient-77"/><linearGradient id="linearGradient4895" x2="0" y1="280" y2="40" gradientTransform="matrix(.175 0 0 .175 302.79999 215.99997)" gradientUnits="userSpaceOnUse" xlink:href="#outerBackgroundGradient"/><linearGradient id="linearGradient4227-4" x2="0" y1="140" y2="124" gradientUnits="userSpaceOnUse" xlink:href="#linearGradient4174-6"/><linearGradient id="linearGradient4296" x2="0" y1="140" y2="124" gradientTransform="translate(11.38843 1.3713)" gradientUnits="userSpaceOnUse" xlink:href="#linearGradient4174"/><linearGradient id="linearGradient4338" x2="0" y1="273" y2="231" gradientTransform="translate(0 4.09376)" gradientUnits="userSpaceOnUse" xlink:href="#linearGradient4174"/><linearGradient id="linearGradient4306" x2="0" y1="140" y2="124" gradientUnits="userSpaceOnUse" xlink:href="#linearGradient4174"/><linearGradient id="linearGradient4126-5-5"><stop id="stop351" offset="0" stop-color="#eaba31"/><stop id="stop353" offset="1" stop-color="#ff9200"/></linearGradient><linearGradient id="linearGradient4296-6" x2="0" y1="140" y2="124" gradientTransform="translate(11.38843 1.3713)" gradientUnits="userSpaceOnUse" xlink:href="#linearGradient4174-3"/><linearGradient id="linearGradient4326-1" x2="0" y1="273" y2="231" gradientTransform="translate(0 4.09376)" gradientUnits="userSpaceOnUse" xlink:href="#linearGradient4174-3"/><linearGradient id="linearGradient4126-5-6"><stop id="stop358" offset="0" stop-color="#eaba31"/><stop id="stop360" offset="1" stop-color="#ff9200"/></linearGradient><linearGradient id="linearGradient4344-8" x2="0" y1="273" y2="231" gradientTransform="matrix(5.71429 0 0 5.71429 -1730.2857 -1284)" gradientUnits="userSpaceOnUse" xlink:href="#linearGradient4174-3"/><linearGradient id="linearGradient4174-6"><stop id="stop364" offset="0" stop-color="#818181"/><stop id="stop366" offset="1" stop-color="#c5c5c5"/></linearGradient><linearGradient id="outerBackgroundGradient-7"><stop id="stop369" offset="0" stop-color="#f0f0f0"/><stop id="stop371" offset="1" stop-color="#f8f8f8"/></linearGradient><linearGradient id="linearGradient4863" x2="0" y1="230" y2="90" gradientTransform="matrix(.25 0 0 .25 299.99999 131.99999)" gradientUnits="userSpaceOnUse" xlink:href="#outerBackgroundGradient"/><linearGradient id="linearGradient4863-9" x2="0" y1="230" y2="90" gradientTransform="matrix(.25 0 0 .25 299.99999 131.99999)" gradientUnits="userSpaceOnUse" xlink:href="#outerBackgroundGradient-7"/><linearGradient id="linearGradient4825-8" x2="0" y1="230" y2="90" gradientTransform="matrix(.375 0 0 .375 298 16)" gradientUnits="userSpaceOnUse" xlink:href="#outerBackgroundGradient-7"/><linearGradient id="linearGradient4895-0" x2="0" y1="280" y2="40" gradientTransform="matrix(.175 0 0 .175 302.79999 215.99997)" gradientUnits="userSpaceOnUse" xlink:href="#outerBackgroundGradient-7"/><linearGradient id="linearGradient4203-6" x2="0" y1="107" y2="85" gradientUnits="userSpaceOnUse" xlink:href="#linearGradient4174-6"/><radialGradient id="radialGradient4225-7" cx="328" cy="255.416" r="7" gradientTransform="matrix(2.85714 0 0 2.85714 -609.14349 -473.66662)" gradientUnits="userSpaceOnUse" xlink:href="#linearGradient4126-5-5"/><radialGradient id="radialGradient4229-9" cx="328" cy="255.416" r="7" gradientTransform="matrix(1.22449 0 0 1.22449 49.7555 -179.34296)" gradientUnits="userSpaceOnUse" xlink:href="#linearGradient4126-5-5"/><radialGradient id="radialGradient4250" cx="328" cy="255.416" r="7" gradientTransform="matrix(2.85714 0 0 2.85714 -609.14349 -473.66662)" gradientUnits="userSpaceOnUse" xlink:href="#linearGradient4126-5"/><radialGradient id="radialGradient4225-6" cx="328" cy="255.416" r="7" gradientTransform="matrix(2.85714 0 0 2.85714 -609.14349 -473.66662)" gradientUnits="userSpaceOnUse" xlink:href="#linearGradient4126-5-6"/><radialGradient id="radialGradient4279" cx="328" cy="255.416" r="7" gradientTransform="matrix(1.22449 0 0 1.22449 49.7555 -179.34296)" gradientUnits="userSpaceOnUse" xlink:href="#linearGradient4126-5"/><radialGradient id="radialGradient4229-8" cx="328" cy="255.416" r="7" gradientTransform="matrix(1.22449 0 0 1.22449 49.7555 -179.34296)" gradientUnits="userSpaceOnUse" xlink:href="#linearGradient4126-5-6"/><linearGradient id="linearGradient4181" x1=".838" x2="12.691" gradientTransform="translate(-13.53783,-0.01017)" gradientUnits="userSpaceOnUse" xlink:href="#linearGradient4159"/><linearGradient id="linearGradient3801" x2="0" y1="1053.158" y2="1004.847" gradientTransform="translate(0,-2056.7244)" gradientUnits="userSpaceOnUse" xlink:href="#linearGradient3795"/><linearGradient id="linearGradient3795"><stop id="stop3203" offset="0" stop-color="#4fa44e"/><stop id="stop3205" offset="1" stop-color="#3b862b"/></linearGradient><linearGradient id="1" x2="0" y1="1050.36" y2="1006.36" gradientTransform="matrix(0.28222223,0,0,0.28222223,0,-283.45334)" gradientUnits="userSpaceOnUse" xlink:href="#linearGradient4159"/><linearGradient id="0"><stop id="stop7" stop-color="#99bfe6"/><stop id="stop9" offset="1" stop-color="#dde9f0"/></linearGradient><radialGradient id="radialGradient3012" cx="148.004" cy="160" r="128" gradientTransform="matrix(0.05167489,0,0,0.05167489,-0.87511111,-1.4947549)" gradientUnits="userSpaceOnUse" xlink:href="#radial0"/><radialGradient id="radial0" cx="148.004" cy="160" r="128" gradientTransform="matrix(0.1831,0,0,0.1831,-3.10029,-5.29688)" gradientUnits="userSpaceOnUse"><stop id="stop7-4" offset="0" stop-color="#ffa686" stop-opacity="1"/><stop id="stop9-5" offset="1" stop-color="#d75050" stop-opacity="1"/></radialGradient><radialGradient id="radialGradient3009" cx="148.004" cy="160" r="128" gradientTransform="matrix(0.05167489,0,0,0.05167489,-0.87511111,-1.4947549)" gradientUnits="userSpaceOnUse" xlink:href="#radial0"/></defs><path id="path11" fill="url(#radialGradient3009)" fill-opacity="1" d="m 13.387775,3.2589273 0,7.0290967 c 0,2.892777 0,3.100034 -3.100035,3.100034 l -7.0279929,0 c -3.10113821,0 -3.10113821,-0.207257 -3.10113821,-3.100034 l 0,-7.0290967 c 0,-2.89277799 0,-3.10003489 3.10113821,-3.10003489 l 7.0279929,0 c 3.100035,0 3.100035,0.2072569 3.100035,3.10003489 z"/><path id="path15" fill="#fff" fill-opacity=".051" d="m 10.799271,13.388053 c 0.717682,-0.0033 1.235825,-0.02315 1.611753,-0.124574 l -1.193932,-2.04611 -1.2655879,2.170684 0.3362389,0 c 0.180799,0 0.350573,0 0.511528,0 z M 11.217092,11.217369 9.7707051,8.7368994 8.3232141,11.217369 z m 0,0 2.159662,0 c 0.0088,-0.274506 0.01102,-0.582084 0.01102,-0.930452 l 0,-0.3097836 -0.723192,-1.240234 z m 1.447492,-2.4804696 -1.447492,-2.480469 -1.4463869,2.480469 z m 0,0 0.723194,0 0,-1.2402341 z m -2.8938789,0 -1.447491,-2.480469 -1.446389,2.480469 z m -2.89388,0 -1.447492,2.4804696 2.893881,0 z m 0,0 -1.447492,-2.480469 -1.446389,2.480469 z m -2.893881,0 -1.447491,2.4804696 2.89388,0 z m 0,0 -1.447491,-2.480469 -1.4463891,2.480469 z m -2.8938801,0 -0.93045211,1.5941156 c 0,0.329626 0.0033,0.623975 0.01102,0.886354 l 2.36581621,0 z m 0,0 -0.93045211,-1.5941142 0,1.5941142 z m 1.4463891,2.4804696 -1.2170842,2.086899 c 0.4508942,0.08268 1.0748702,0.08379 1.9413802,0.08379 l 0.542396,0 z m 0,-4.9609386 -1.4463891,-2.4804686 -0.93045211,1.5941145 0,0.8863541 z m 0,0 2.89388,0 -1.446389,-2.4804686 z M 3.9829441,3.7759618 2.5354531,1.2954931 1.089064,3.7759618 z m 0,0 2.893881,0 -1.447492,-2.4804687 z m 1.446389,-2.4804687 -0.663663,-1.13660599 -1.505921,0 c -0.02205,0 -0.03969,0 -0.06063,0 L 2.5354571,1.2954931 z m 0,0 2.893881,0 -0.663663,-1.13660599 -1.566555,0 z m 2.893881,0 2.8938779,0 -0.663663,-1.13660599 c -0.0882,0 -0.171979,0 -0.265686,0 l -1.3008659,0 z m 0,0 -1.446389,2.4804687 2.89388,0 z m 1.447491,2.4804687 2.8938789,0 -1.447492,-2.4804687 z m 0,0 -1.447491,2.4804686 2.8938779,0 z m 1.4463869,2.4804686 2.170686,0 0,-1.240234 -0.723194,-1.2402346 z m 1.447492,-2.4804686 0.723194,0 0,-0.5170399 c 0,-0.2579689 -0.0022,-0.4938889 -0.0066,-0.71217 z M 8.3232141,6.2564304 6.8768251,3.7759618 5.4293331,6.2564304 z m 2.8938779,-4.9609373 2.062648,0 C 13.123195,0.51717701 12.747266,0.27133511 11.859809,0.19416491 z m -8.6816389,0 -0.650434,-1.11565979 C 0.85204089,0.23826231 0.43421989,0.46095291 0.26664989,1.2954931 z M 1.089064,3.7759618 0.17514889,2.2083056 c -0.01213,0.3031685 -0.01654,0.6515363 -0.01654,1.0506163 l 0,0.5170399 z m 4.3402691,7.4414072 -1.26559,2.170684 2.532283,0 z m 2.893881,0 -1.265591,2.170684 2.532284,0 z m -7.59133821,1.868619 -0.451996,-0.775009 c 0.08268,0.371519 0.221588,0.615157 0.451996,0.775009 z"/><path id="rect3216" fill="#f9f9f9" fill-opacity="1" d="M 14 11 L 14 26.15625 L 16.34375 26.15625 L 16.34375 37 L 31.65625 37 L 31.65625 26.15625 L 34 26.15625 L 34 11 L 29 11 L 29 16.40625 L 26 16.40625 L 26 11 L 22 11 L 22 16.40625 L 19 16.40625 L 19 11 L 14 11 z" transform="scale(0.28222223,0.28222223)"/></svg>