<svg xmlns="http://www.w3.org/2000/svg" xmlns:svg="http://www.w3.org/2000/svg" xmlns:xlink="http://www.w3.org/1999/xlink" id="svg2" width="48" height="48" version="1.1" viewBox="0 0 13.547 13.547"><metadata id="metadata414"/><defs id="defs4"><clipPath id="clipPath6" clipPathUnits="userSpaceOnUse"><path id="path8" fill="url(#linearGradient4326-1)" d="m 328,242.09376 c -7.73199,0 -14,6.26801 -14,14 0,7.73199 6.26801,14 14,14 7.73199,0 14,-6.26801 14,-14 0,-7.73199 -6.26801,-14 -14,-14 z m 0,9.90625 c 2.20914,0 4,1.79086 4,4 0,2.20914 -1.79086,4 -4,4 -2.20914,0 -4,-1.79086 -4,-4 0,-2.20914 1.79086,-4 4,-4 z m 0,1 c -1.65685,0 -3,1.34315 -3,3 0,1.65685 1.34315,3 3,3 1.65685,0 3,-1.34315 3,-3 0,-1.65685 -1.34315,-3 -3,-3 z m 0,1 c 1.10457,0 2,0.89543 2,2 0,1.10457 -0.89543,2 -2,2 -1.10457,0 -2,-0.89543 -2,-2 0,-1.10457 0.89543,-2 2,-2 z" color="#bebebe"/></clipPath><clipPath id="clipPath10" clipPathUnits="userSpaceOnUse"><rect id="rect12" width="20" height="20" x="434" y="78" color="#bebebe" rx="4"/></clipPath><clipPath id="clipPath14" clipPathUnits="userSpaceOnUse"><path id="path16" d="m 328,238 c -7.73199,0 -14,6.26801 -14,14 0,7.73199 6.26801,14 14,14 7.73199,0 14,-6.26801 14,-14 0,-7.73199 -6.26801,-14 -14,-14 z m 0,8.75 c 2.89949,0 5.25,2.35051 5.25,5.25 0,2.89949 -2.35051,5.25 -5.25,5.25 -2.89949,0 -5.25,-2.35051 -5.25,-5.25 0,-2.89949 2.35051,-5.25 5.25,-5.25 z m 0,1.75 c -1.933,0 -3.5,1.567 -3.5,3.5 0,1.933 1.567,3.5 3.5,3.5 1.933,0 3.5,-1.567 3.5,-3.5 0,-1.933 -1.567,-3.5 -3.5,-3.5 z m 0,1.75 c 0.96649,0 1.75,0.78351 1.75,1.75 0,0.96649 -0.78351,1.75 -1.75,1.75 -0.96649,0 -1.75,-0.78351 -1.75,-1.75 0,-0.96649 0.78351,-1.75 1.75,-1.75 z" color="#bebebe" opacity=".2"/></clipPath><clipPath id="clipPath18" clipPathUnits="userSpaceOnUse"><path id="path20" fill="url(#radialGradient4229-8)" d="m 451.38843,133.3713 6.42857,4.71429 0,-11.57143 -6.42857,0 z" clip-path="none"/></clipPath><clipPath id="clipPath22" clipPathUnits="userSpaceOnUse"><path id="path24" fill="url(#linearGradient4296-6)" d="m 451.38843,127.3713 c -3.31371,0 -6,2.68629 -6,6 0,3.31371 2.68629,6 6,6 3.31371,0 6,-2.68629 6,-6 0,-3.31371 -2.68629,-6 -6,-6 z m 0,3 c 1.65685,0 3,1.34315 3,3 0,1.65685 -1.34315,3 -3,3 -1.65685,0 -3,-1.34315 -3,-3 0,-1.65685 1.34315,-3 3,-3 z m 0,1 c -1.10457,0 -2,0.89543 -2,2 0,1.10457 0.89543,2 2,2 1.10457,0 2,-0.89543 2,-2 0,-1.10457 -0.89543,-2 -2,-2 z m 0,1 c 0.55228,0 1,0.44772 1,1 0,0.55228 -0.44772,1 -1,1 -0.55228,0 -1,-0.44772 -1,-1 0,-0.55228 0.44772,-1 1,-1 z" color="#bebebe"/></clipPath><clipPath id="clipPath26" clipPathUnits="userSpaceOnUse"><rect id="rect28" width="240" height="240" x="24" y="36" fill="#986767" color="#bebebe" rx="50"/></clipPath><clipPath id="clipPath30" clipPathUnits="userSpaceOnUse"><path id="path32" fill="url(#linearGradient4326-1)" d="m 328,242.09376 c -7.73199,0 -14,6.26801 -14,14 0,7.73199 6.26801,14 14,14 7.73199,0 14,-6.26801 14,-14 0,-7.73199 -6.26801,-14 -14,-14 z m 0,9.90625 c 2.20914,0 4,1.79086 4,4 0,2.20914 -1.79086,4 -4,4 -2.20914,0 -4,-1.79086 -4,-4 0,-2.20914 1.79086,-4 4,-4 z m 0,1 c -1.65685,0 -3,1.34315 -3,3 0,1.65685 1.34315,3 3,3 1.65685,0 3,-1.34315 3,-3 0,-1.65685 -1.34315,-3 -3,-3 z m 0,1 c 1.10457,0 2,0.89543 2,2 0,1.10457 -0.89543,2 -2,2 -1.10457,0 -2,-0.89543 -2,-2 0,-1.10457 0.89543,-2 2,-2 z" color="#bebebe"/></clipPath><clipPath id="clipPath34" clipPathUnits="userSpaceOnUse"><path id="path36" fill="url(#linearGradient4326-1)" d="m 328,242.09376 c -7.73199,0 -14,6.26801 -14,14 0,7.73199 6.26801,14 14,14 7.73199,0 14,-6.26801 14,-14 0,-7.73199 -6.26801,-14 -14,-14 z m 0,9.90625 c 2.20914,0 4,1.79086 4,4 0,2.20914 -1.79086,4 -4,4 -2.20914,0 -4,-1.79086 -4,-4 0,-2.20914 1.79086,-4 4,-4 z m 0,1 c -1.65685,0 -3,1.34315 -3,3 0,1.65685 1.34315,3 3,3 1.65685,0 3,-1.34315 3,-3 0,-1.65685 -1.34315,-3 -3,-3 z m 0,1 c 1.10457,0 2,0.89543 2,2 0,1.10457 -0.89543,2 -2,2 -1.10457,0 -2,-0.89543 -2,-2 0,-1.10457 0.89543,-2 2,-2 z" color="#bebebe"/></clipPath><clipPath id="clipPath38" clipPathUnits="userSpaceOnUse"><path id="path40" fill="url(#linearGradient4227-3)" d="m 440,126 c -3.31371,0 -6,2.68629 -6,6 0,3.31371 2.68629,6 6,6 3.31371,0 6,-2.68629 6,-6 0,-3.31371 -2.68629,-6 -6,-6 z m 0,3 c 1.65685,0 3,1.34315 3,3 0,1.65685 -1.34315,3 -3,3 -1.65685,0 -3,-1.34315 -3,-3 0,-1.65685 1.34315,-3 3,-3 z m 0,1 c -1.10457,0 -2,0.89543 -2,2 0,1.10457 0.89543,2 2,2 1.10457,0 2,-0.89543 2,-2 0,-1.10457 -0.89543,-2 -2,-2 z m 0,1 c 0.55228,0 1,0.44772 1,1 0,0.55228 -0.44772,1 -1,1 -0.55228,0 -1,-0.44772 -1,-1 0,-0.55228 0.44772,-1 1,-1 z" color="#bebebe"/></clipPath><clipPath id="clipPath42" clipPathUnits="userSpaceOnUse"><path id="path44" fill="url(#linearGradient4203-4)" d="m 444,88 c -4.41828,0 -8,3.58172 -8,8 0,4.41828 3.58172,8 8,8 4.41828,0 8,-3.58172 8,-8 0,-4.41828 -3.58172,-8 -8,-8 z m 0,5 c 1.65685,0 3,1.34315 3,3 0,1.65685 -1.34315,3 -3,3 -1.65685,0 -3,-1.34315 -3,-3 0,-1.65685 1.34315,-3 3,-3 z m 0,1 c -1.10457,0 -2,0.89543 -2,2 0,1.10457 0.89543,2 2,2 1.10457,0 2,-0.89543 2,-2 0,-1.10457 -0.89543,-2 -2,-2 z m 0,1 c 0.55228,0 1,0.44772 1,1 0,0.55228 -0.44772,1 -1,1 -0.55228,0 -1,-0.44772 -1,-1 0,-0.55228 0.44772,-1 1,-1 z" color="#bebebe"/></clipPath><clipPath id="clipPath46" clipPathUnits="userSpaceOnUse"><rect id="rect48" width="90" height="90" x="307" y="31" fill="url(#linearGradient4825-8)" color="#bebebe" rx="18.75"/></clipPath><clipPath id="clipPath50" clipPathUnits="userSpaceOnUse"><path id="path52" d="m 328,238 c -7.73199,0 -14,6.26801 -14,14 0,7.73199 6.26801,14 14,14 7.73199,0 14,-6.26801 14,-14 0,-7.73199 -6.26801,-14 -14,-14 z m 0,9.90625 c 2.20914,0 4,1.79086 4,4 0,2.20914 -1.79086,4 -4,4 -2.20914,0 -4,-1.79086 -4,-4 0,-2.20914 1.79086,-4 4,-4 z m 0,1 c -1.65685,0 -3,1.34315 -3,3 0,1.65685 1.34315,3 3,3 1.65685,0 3,-1.34315 3,-3 0,-1.65685 -1.34315,-3 -3,-3 z m 0,1 c 1.10457,0 2,0.89543 2,2 0,1.10457 -0.89543,2 -2,2 -1.10457,0 -2,-0.89543 -2,-2 0,-1.10457 0.89543,-2 2,-2 z" color="#bebebe" opacity=".2"/></clipPath><clipPath id="clipPath54" clipPathUnits="userSpaceOnUse"><rect id="rect56" width="60" height="60" x="306" y="142" fill="url(#linearGradient4863-9)" color="#bebebe" rx="12.5" transform="matrix(0 -1 1 0 0 0)"/></clipPath><clipPath id="clipPath58" clipPathUnits="userSpaceOnUse"><path id="path60" fill="url(#radialGradient4225-6)" d="m 328,256 15,11 0,-27 -15,0 z" clip-path="none"/></clipPath><clipPath id="clipPath62" clipPathUnits="userSpaceOnUse"><rect id="rect64" width="30" height="30" x="433" y="29" color="#bebebe" rx="6"/></clipPath><clipPath id="clipPath66" clipPathUnits="userSpaceOnUse"><path id="path68" fill="url(#linearGradient4344-8)" d="m 144.00001,75.999997 c -44.1828,0 -80,35.817203 -80,80.000003 0,44.1828 35.8172,80 80,80 44.1828,0 80,-35.8172 80,-80 0,-44.1828 -35.8172,-80.000003 -80,-80.000003 z m 0,56.607143 c 12.62366,0 22.85714,10.23349 22.85714,22.85714 0,12.62366 -10.23348,22.85714 -22.85714,22.85714 -12.62366,0 -22.85714,-10.23348 -22.85714,-22.85714 0,-12.62365 10.23348,-22.85714 22.85714,-22.85714 z m 0,5.71429 c -9.46771,0 -17.14286,7.67514 -17.14286,17.14285 0,9.46772 7.67515,17.14286 17.14286,17.14286 9.46771,0 17.14286,-7.67514 17.14286,-17.14286 0,-9.46771 -7.67515,-17.14285 -17.14286,-17.14285 z m 0,5.71428 c 6.31183,0 11.42857,5.11674 11.42857,11.42857 0,6.31183 -5.11674,11.42857 -11.42857,11.42857 -6.31183,0 -11.42857,-5.11674 -11.42857,-11.42857 0,-6.31183 5.11674,-11.42857 11.42857,-11.42857 z" color="#bebebe"/></clipPath><clipPath id="clipPath70" clipPathUnits="userSpaceOnUse"><rect id="rect72" width="22" height="22" x="433" y="77" color="#bebebe" rx="5"/></clipPath><clipPath id="clipPath74" clipPathUnits="userSpaceOnUse"><rect id="rect76" width="22" height="22" x="433" y="77" color="#bebebe" rx="4"/></clipPath><clipPath id="clipPath78" clipPathUnits="userSpaceOnUse"><path id="path80" fill="#b74049" d="m 328,256 15,11 0,-27 -15,0 z" clip-path="url(#clipPath4112-2)" opacity=".1"/></clipPath><clipPath id="clipPath82" clipPathUnits="userSpaceOnUse"><rect id="rect84" width="42" height="42" x="307" y="223" fill="url(#linearGradient4895-0)" color="#bebebe" rx="9" transform="rotate(90)"/></clipPath><clipPath id="clipPath4112-5" clipPathUnits="userSpaceOnUse"><path id="path87" d="m 328,242.09375 c -7.73199,0 -14,6.26801 -14,14 0,7.73199 6.26801,14 14,14 7.73199,0 14,-6.26801 14,-14 0,-7.73199 -6.26801,-14 -14,-14 z M 328,252 c 2.20914,0 4,1.79086 4,4 0,2.20914 -1.79086,4 -4,4 -2.20914,0 -4,-1.79086 -4,-4 0,-2.20914 1.79086,-4 4,-4 z m 0,1 c -1.65685,0 -3,1.34315 -3,3 0,1.65685 1.34315,3 3,3 1.65685,0 3,-1.34315 3,-3 0,-1.65685 -1.34315,-3 -3,-3 z m 0,1 c 1.10457,0 2,0.89543 2,2 0,1.10457 -0.89543,2 -2,2 -1.10457,0 -2,-0.89543 -2,-2 0,-1.10457 0.89543,-2 2,-2 z" color="#bebebe" opacity=".2"/></clipPath><clipPath id="clipPath89" clipPathUnits="userSpaceOnUse"><path id="path91" fill="url(#radialGradient4229-9)" d="m 451.38843,133.3713 6.42857,4.71429 0,-11.57143 -6.42857,0 z" clip-path="none"/></clipPath><clipPath id="clipPath93" clipPathUnits="userSpaceOnUse"><path id="path95" d="m 328,238 c -7.73199,0 -14,6.26801 -14,14 0,7.73199 6.26801,14 14,14 7.73199,0 14,-6.26801 14,-14 0,-7.73199 -6.26801,-14 -14,-14 z m 0,9.90625 c 2.20914,0 4,1.79086 4,4 0,2.20914 -1.79086,4 -4,4 -2.20914,0 -4,-1.79086 -4,-4 0,-2.20914 1.79086,-4 4,-4 z m 0,1 c -1.65685,0 -3,1.34315 -3,3 0,1.65685 1.34315,3 3,3 1.65685,0 3,-1.34315 3,-3 0,-1.65685 -1.34315,-3 -3,-3 z m 0,1 c 1.10457,0 2,0.89543 2,2 0,1.10457 -0.89543,2 -2,2 -1.10457,0 -2,-0.89543 -2,-2 0,-1.10457 0.89543,-2 2,-2 z" color="#bebebe" opacity=".2"/></clipPath><clipPath id="clipPath97" clipPathUnits="userSpaceOnUse"><path id="path99" fill="url(#linearGradient4296-69)" d="m 451.38843,127.3713 c -3.31371,0 -6,2.68629 -6,6 0,3.31371 2.68629,6 6,6 3.31371,0 6,-2.68629 6,-6 0,-3.31371 -2.68629,-6 -6,-6 z m 0,3 c 1.65685,0 3,1.34315 3,3 0,1.65685 -1.34315,3 -3,3 -1.65685,0 -3,-1.34315 -3,-3 0,-1.65685 1.34315,-3 3,-3 z m 0,1 c -1.10457,0 -2,0.89543 -2,2 0,1.10457 0.89543,2 2,2 1.10457,0 2,-0.89543 2,-2 0,-1.10457 -0.89543,-2 -2,-2 z m 0,1 c 0.55228,0 1,0.44772 1,1 0,0.55228 -0.44772,1 -1,1 -0.55228,0 -1,-0.44772 -1,-1 0,-0.55228 0.44772,-1 1,-1 z" color="#bebebe"/></clipPath><clipPath id="clipPath101" clipPathUnits="userSpaceOnUse"><path id="path103" fill="url(#linearGradient4227-4)" d="m 440,126 c -3.31371,0 -6,2.68629 -6,6 0,3.31371 2.68629,6 6,6 3.31371,0 6,-2.68629 6,-6 0,-3.31371 -2.68629,-6 -6,-6 z m 0,3 c 1.65685,0 3,1.34315 3,3 0,1.65685 -1.34315,3 -3,3 -1.65685,0 -3,-1.34315 -3,-3 0,-1.65685 1.34315,-3 3,-3 z m 0,1 c -1.10457,0 -2,0.89543 -2,2 0,1.10457 0.89543,2 2,2 1.10457,0 2,-0.89543 2,-2 0,-1.10457 -0.89543,-2 -2,-2 z m 0,1 c 0.55228,0 1,0.44772 1,1 0,0.55228 -0.44772,1 -1,1 -0.55228,0 -1,-0.44772 -1,-1 0,-0.55228 0.44772,-1 1,-1 z" color="#bebebe"/></clipPath><clipPath id="clipPath105" clipPathUnits="userSpaceOnUse"><rect id="rect107" width="16" height="16" x="432" y="116" color="#bebebe" rx="3"/></clipPath><clipPath id="clipPath109" clipPathUnits="userSpaceOnUse"><rect id="rect111" width="20" height="20" x="434" y="78" color="#bebebe" rx="4"/></clipPath><clipPath id="clipPath113" clipPathUnits="userSpaceOnUse"><rect id="rect115" width="22" height="22" x="433" y="77" fill="#6d6d6d" color="#bebebe" opacity=".2" rx="3"/></clipPath><clipPath id="clipPath117" clipPathUnits="userSpaceOnUse"><rect id="rect119" width="16" height="16" x="432" y="116" fill="#6d6d6d" color="#bebebe" opacity=".2" rx="2"/></clipPath><clipPath id="clipPath121" clipPathUnits="userSpaceOnUse"><path id="path123" d="m 328,238 c -7.73199,0 -14,6.26801 -14,14 0,7.73199 6.26801,14 14,14 7.73199,0 14,-6.26801 14,-14 0,-7.73199 -6.26801,-14 -14,-14 z m 0,8.75 c 2.89949,0 5.25,2.35051 5.25,5.25 0,2.89949 -2.35051,5.25 -5.25,5.25 -2.89949,0 -5.25,-2.35051 -5.25,-5.25 0,-2.89949 2.35051,-5.25 5.25,-5.25 z m 0,1.75 c -1.933,0 -3.5,1.567 -3.5,3.5 0,1.933 1.567,3.5 3.5,3.5 1.933,0 3.5,-1.567 3.5,-3.5 0,-1.933 -1.567,-3.5 -3.5,-3.5 z m 0,1.75 c 0.96649,0 1.75,0.78351 1.75,1.75 0,0.96649 -0.78351,1.75 -1.75,1.75 -0.96649,0 -1.75,-0.78351 -1.75,-1.75 0,-0.96649 0.78351,-1.75 1.75,-1.75 z" color="#bebebe" opacity=".2"/></clipPath><clipPath id="clipPath125" clipPathUnits="userSpaceOnUse"><path id="path127" fill="url(#linearGradient4326-13)" d="m 328,242.09376 c -7.73199,0 -14,6.26801 -14,14 0,7.73199 6.26801,14 14,14 7.73199,0 14,-6.26801 14,-14 0,-7.73199 -6.26801,-14 -14,-14 z m 0,9.90625 c 2.20914,0 4,1.79086 4,4 0,2.20914 -1.79086,4 -4,4 -2.20914,0 -4,-1.79086 -4,-4 0,-2.20914 1.79086,-4 4,-4 z m 0,1 c -1.65685,0 -3,1.34315 -3,3 0,1.65685 1.34315,3 3,3 1.65685,0 3,-1.34315 3,-3 0,-1.65685 -1.34315,-3 -3,-3 z m 0,1 c 1.10457,0 2,0.89543 2,2 0,1.10457 -0.89543,2 -2,2 -1.10457,0 -2,-0.89543 -2,-2 0,-1.10457 0.89543,-2 2,-2 z" color="#bebebe"/></clipPath><clipPath id="clipPath129" clipPathUnits="userSpaceOnUse"><path id="path131" fill="url(#linearGradient4203-6)" d="m 444,88 c -4.41828,0 -8,3.58172 -8,8 0,4.41828 3.58172,8 8,8 4.41828,0 8,-3.58172 8,-8 0,-4.41828 -3.58172,-8 -8,-8 z m 0,5 c 1.65685,0 3,1.34315 3,3 0,1.65685 -1.34315,3 -3,3 -1.65685,0 -3,-1.34315 -3,-3 0,-1.65685 1.34315,-3 3,-3 z m 0,1 c -1.10457,0 -2,0.89543 -2,2 0,1.10457 0.89543,2 2,2 1.10457,0 2,-0.89543 2,-2 0,-1.10457 -0.89543,-2 -2,-2 z m 0,1 c 0.55228,0 1,0.44772 1,1 0,0.55228 -0.44772,1 -1,1 -0.55228,0 -1,-0.44772 -1,-1 0,-0.55228 0.44772,-1 1,-1 z" color="#bebebe"/></clipPath><clipPath id="clipPath133" clipPathUnits="userSpaceOnUse"><path id="path135" fill="url(#linearGradient4326-13)" d="m 328,242.09376 c -7.73199,0 -14,6.26801 -14,14 0,7.73199 6.26801,14 14,14 7.73199,0 14,-6.26801 14,-14 0,-7.73199 -6.26801,-14 -14,-14 z m 0,9.90625 c 2.20914,0 4,1.79086 4,4 0,2.20914 -1.79086,4 -4,4 -2.20914,0 -4,-1.79086 -4,-4 0,-2.20914 1.79086,-4 4,-4 z m 0,1 c -1.65685,0 -3,1.34315 -3,3 0,1.65685 1.34315,3 3,3 1.65685,0 3,-1.34315 3,-3 0,-1.65685 -1.34315,-3 -3,-3 z m 0,1 c 1.10457,0 2,0.89543 2,2 0,1.10457 -0.89543,2 -2,2 -1.10457,0 -2,-0.89543 -2,-2 0,-1.10457 0.89543,-2 2,-2 z" color="#bebebe"/></clipPath><clipPath id="clipPath137" clipPathUnits="userSpaceOnUse"><rect id="rect139" width="90" height="90" x="307" y="31" fill="url(#linearGradient4825-6)" color="#bebebe" rx="18.75"/></clipPath><clipPath id="clipPath141" clipPathUnits="userSpaceOnUse"><path id="path143" fill="#b74049" d="m 328,256 15,11 0,-27 -15,0 z" clip-path="url(#clipPath4112-5)" opacity=".1"/></clipPath><clipPath id="clipPath145" clipPathUnits="userSpaceOnUse"><path id="path147" fill="url(#linearGradient4344-1)" d="m 144.00001,75.999997 c -44.1828,0 -80,35.817203 -80,80.000003 0,44.1828 35.8172,80 80,80 44.1828,0 80,-35.8172 80,-80 0,-44.1828 -35.8172,-80.000003 -80,-80.000003 z m 0,56.607143 c 12.62366,0 22.85714,10.23349 22.85714,22.85714 0,12.62366 -10.23348,22.85714 -22.85714,22.85714 -12.62366,0 -22.85714,-10.23348 -22.85714,-22.85714 0,-12.62365 10.23348,-22.85714 22.85714,-22.85714 z m 0,5.71429 c -9.46771,0 -17.14286,7.67514 -17.14286,17.14285 0,9.46772 7.67515,17.14286 17.14286,17.14286 9.46771,0 17.14286,-7.67514 17.14286,-17.14286 0,-9.46771 -7.67515,-17.14285 -17.14286,-17.14285 z m 0,5.71428 c 6.31183,0 11.42857,5.11674 11.42857,11.42857 0,6.31183 -5.11674,11.42857 -11.42857,11.42857 -6.31183,0 -11.42857,-5.11674 -11.42857,-11.42857 0,-6.31183 5.11674,-11.42857 11.42857,-11.42857 z" color="#bebebe"/></clipPath><clipPath id="clipPath149" clipPathUnits="userSpaceOnUse"><path id="path151" fill="url(#radialGradient4225-7)" d="m 328,256 15,11 0,-27 -15,0 z" clip-path="none"/></clipPath><clipPath id="clipPath153" clipPathUnits="userSpaceOnUse"><path id="path155" fill="url(#linearGradient4326-13)" d="m 328,242.09376 c -7.73199,0 -14,6.26801 -14,14 0,7.73199 6.26801,14 14,14 7.73199,0 14,-6.26801 14,-14 0,-7.73199 -6.26801,-14 -14,-14 z m 0,9.90625 c 2.20914,0 4,1.79086 4,4 0,2.20914 -1.79086,4 -4,4 -2.20914,0 -4,-1.79086 -4,-4 0,-2.20914 1.79086,-4 4,-4 z m 0,1 c -1.65685,0 -3,1.34315 -3,3 0,1.65685 1.34315,3 3,3 1.65685,0 3,-1.34315 3,-3 0,-1.65685 -1.34315,-3 -3,-3 z m 0,1 c 1.10457,0 2,0.89543 2,2 0,1.10457 -0.89543,2 -2,2 -1.10457,0 -2,-0.89543 -2,-2 0,-1.10457 0.89543,-2 2,-2 z" color="#bebebe"/></clipPath><clipPath id="clipPath157" clipPathUnits="userSpaceOnUse"><rect id="rect159" width="60" height="60" x="306" y="142" fill="url(#linearGradient4863-4)" color="#bebebe" rx="12.5" transform="matrix(0 -1 1 0 0 0)"/></clipPath><clipPath id="clipPath161" clipPathUnits="userSpaceOnUse"><rect id="rect163" width="22" height="22" x="433" y="77" color="#bebebe" rx="4"/></clipPath><clipPath id="clipPath165" clipPathUnits="userSpaceOnUse"><rect id="rect167" width="30" height="30" x="433" y="29" fill="#6d6d6d" color="#bebebe" opacity=".2" rx="4"/></clipPath><clipPath id="clipPath169" clipPathUnits="userSpaceOnUse"><rect id="rect171" width="30" height="30" x="433" y="29" color="#bebebe" rx="6"/></clipPath><clipPath id="clipPath4112-2" clipPathUnits="userSpaceOnUse"><path id="path174" d="m 328,242.09375 c -7.73199,0 -14,6.26801 -14,14 0,7.73199 6.26801,14 14,14 7.73199,0 14,-6.26801 14,-14 0,-7.73199 -6.26801,-14 -14,-14 z M 328,252 c 2.20914,0 4,1.79086 4,4 0,2.20914 -1.79086,4 -4,4 -2.20914,0 -4,-1.79086 -4,-4 0,-2.20914 1.79086,-4 4,-4 z m 0,1 c -1.65685,0 -3,1.34315 -3,3 0,1.65685 1.34315,3 3,3 1.65685,0 3,-1.34315 3,-3 0,-1.65685 -1.34315,-3 -3,-3 z m 0,1 c 1.10457,0 2,0.89543 2,2 0,1.10457 -0.89543,2 -2,2 -1.10457,0 -2,-0.89543 -2,-2 0,-1.10457 0.89543,-2 2,-2 z" color="#bebebe" opacity=".2"/></clipPath><clipPath id="clipPath176" clipPathUnits="userSpaceOnUse"><rect id="rect178" width="16" height="16" x="432" y="116" fill="#6d6d6d" color="#bebebe" opacity=".2" rx="2"/></clipPath><clipPath id="clipPath180" clipPathUnits="userSpaceOnUse"><rect id="rect182" width="42" height="42" x="307" y="223" fill="url(#linearGradient4895-2)" color="#bebebe" rx="9" transform="rotate(90)"/></clipPath><clipPath id="clipPath184" clipPathUnits="userSpaceOnUse"><rect id="rect186" width="22" height="22" x="433" y="77" fill="#6d6d6d" color="#bebebe" opacity=".2" rx="3"/></clipPath><clipPath id="clipPath188" clipPathUnits="userSpaceOnUse"><rect id="rect190" width="30" height="30" x="433" y="29" fill="#6d6d6d" color="#bebebe" opacity=".2" rx="4"/></clipPath><clipPath id="clipPath192" clipPathUnits="userSpaceOnUse"><rect id="rect194" width="22" height="22" x="433" y="77" color="#bebebe" rx="5"/></clipPath><clipPath id="clipPath196" clipPathUnits="userSpaceOnUse"><rect id="rect198" width="22" height="22" x="433" y="77" color="#bebebe" rx="5"/></clipPath><clipPath id="clipPath4112" clipPathUnits="userSpaceOnUse"><path id="path201" d="m 328,242.09375 c -7.73199,0 -14,6.26801 -14,14 0,7.73199 6.26801,14 14,14 7.73199,0 14,-6.26801 14,-14 0,-7.73199 -6.26801,-14 -14,-14 z M 328,252 c 2.20914,0 4,1.79086 4,4 0,2.20914 -1.79086,4 -4,4 -2.20914,0 -4,-1.79086 -4,-4 0,-2.20914 1.79086,-4 4,-4 z m 0,1 c -1.65685,0 -3,1.34315 -3,3 0,1.65685 1.34315,3 3,3 1.65685,0 3,-1.34315 3,-3 0,-1.65685 -1.34315,-3 -3,-3 z m 0,1 c 1.10457,0 2,0.89543 2,2 0,1.10457 -0.89543,2 -2,2 -1.10457,0 -2,-0.89543 -2,-2 0,-1.10457 0.89543,-2 2,-2 z" color="#bebebe" opacity=".2"/></clipPath><clipPath id="clipPath203" clipPathUnits="userSpaceOnUse"><path id="path205" fill="url(#radialGradient4250)" d="m 328,256 15,11 0,-27 -15,0 z" clip-path="none"/></clipPath><clipPath id="clipPath207" clipPathUnits="userSpaceOnUse"><path id="path209" fill="#b74049" d="m 328,256 15,11 0,-27 -15,0 z" clip-path="url(#clipPath4112)" opacity=".1"/></clipPath><clipPath id="clipPath211" clipPathUnits="userSpaceOnUse"><rect id="rect213" width="16" height="16" x="432" y="116" fill="#6d6d6d" color="#bebebe" opacity=".2" rx="2"/></clipPath><clipPath id="clipPath215" clipPathUnits="userSpaceOnUse"><rect id="rect217" width="22" height="22" x="433" y="77" fill="#6d6d6d" color="#bebebe" opacity=".2" rx="3"/></clipPath><clipPath id="clipPath219" clipPathUnits="userSpaceOnUse"><rect id="rect221" width="60" height="60" x="306" y="142" fill="url(#linearGradient4863)" color="#bebebe" rx="12.5" transform="matrix(0 -1 1 0 0 0)"/></clipPath><clipPath id="clipPath223" clipPathUnits="userSpaceOnUse"><rect id="rect225" width="90" height="90" x="307" y="31" fill="url(#linearGradient4825)" color="#bebebe" rx="18.75"/></clipPath><clipPath id="clipPath227" clipPathUnits="userSpaceOnUse"><path id="path229" d="m 328,238 c -7.73199,0 -14,6.26801 -14,14 0,7.73199 6.26801,14 14,14 7.73199,0 14,-6.26801 14,-14 0,-7.73199 -6.26801,-14 -14,-14 z m 0,9.90625 c 2.20914,0 4,1.79086 4,4 0,2.20914 -1.79086,4 -4,4 -2.20914,0 -4,-1.79086 -4,-4 0,-2.20914 1.79086,-4 4,-4 z m 0,1 c -1.65685,0 -3,1.34315 -3,3 0,1.65685 1.34315,3 3,3 1.65685,0 3,-1.34315 3,-3 0,-1.65685 -1.34315,-3 -3,-3 z m 0,1 c 1.10457,0 2,0.89543 2,2 0,1.10457 -0.89543,2 -2,2 -1.10457,0 -2,-0.89543 -2,-2 0,-1.10457 0.89543,-2 2,-2 z" color="#bebebe" opacity=".2"/></clipPath><clipPath id="clipPath231" clipPathUnits="userSpaceOnUse"><path id="path233" fill="url(#linearGradient4338)" d="m 328,242.09376 c -7.73199,0 -14,6.26801 -14,14 0,7.73199 6.26801,14 14,14 7.73199,0 14,-6.26801 14,-14 0,-7.73199 -6.26801,-14 -14,-14 z m 0,9.90625 c 2.20914,0 4,1.79086 4,4 0,2.20914 -1.79086,4 -4,4 -2.20914,0 -4,-1.79086 -4,-4 0,-2.20914 1.79086,-4 4,-4 z m 0,1 c -1.65685,0 -3,1.34315 -3,3 0,1.65685 1.34315,3 3,3 1.65685,0 3,-1.34315 3,-3 0,-1.65685 -1.34315,-3 -3,-3 z m 0,1 c 1.10457,0 2,0.89543 2,2 0,1.10457 -0.89543,2 -2,2 -1.10457,0 -2,-0.89543 -2,-2 0,-1.10457 0.89543,-2 2,-2 z" color="#bebebe"/></clipPath><clipPath id="clipPath235" clipPathUnits="userSpaceOnUse"><path id="path237" d="m 328,238 c -7.73199,0 -14,6.26801 -14,14 0,7.73199 6.26801,14 14,14 7.73199,0 14,-6.26801 14,-14 0,-7.73199 -6.26801,-14 -14,-14 z m 0,8.75 c 2.89949,0 5.25,2.35051 5.25,5.25 0,2.89949 -2.35051,5.25 -5.25,5.25 -2.89949,0 -5.25,-2.35051 -5.25,-5.25 0,-2.89949 2.35051,-5.25 5.25,-5.25 z m 0,1.75 c -1.933,0 -3.5,1.567 -3.5,3.5 0,1.933 1.567,3.5 3.5,3.5 1.933,0 3.5,-1.567 3.5,-3.5 0,-1.933 -1.567,-3.5 -3.5,-3.5 z m 0,1.75 c 0.96649,0 1.75,0.78351 1.75,1.75 0,0.96649 -0.78351,1.75 -1.75,1.75 -0.96649,0 -1.75,-0.78351 -1.75,-1.75 0,-0.96649 0.78351,-1.75 1.75,-1.75 z" color="#bebebe" opacity=".2"/></clipPath><clipPath id="clipPath239" clipPathUnits="userSpaceOnUse"><path id="path241" fill="#fff" d="m 144,48 -23.59375,55.0625 -55.59375,-22.25 22.25,55.59375 L 32,160 l 55.0625,23.59375 -22.25,55.59375 55.59375,-22.25 L 144,272 l 23.59375,-55.0625 55.59375,22.25 -22.25,-55.59375 L 256,160 200.9375,136.40625 223.1875,80.8125 167.59375,103.0625 144,48 z m -23.1875,56 46.375,0 32.8125,32.8125 0,46.375 L 167.1875,216 120.8125,216 88,183.1875 88,136.8125 120.8125,104 z" opacity=".5"/></clipPath><clipPath id="clipPath243" clipPathUnits="userSpaceOnUse"><path id="path245" fill="url(#radialGradient4279)" d="m 451.38843,133.3713 6.42857,4.71429 0,-11.57143 -6.42857,0 z" clip-path="none"/></clipPath><clipPath id="clipPath247" clipPathUnits="userSpaceOnUse"><path id="path249" fill="url(#linearGradient4377)" d="m 444,88 c -4.41828,0 -8,3.58172 -8,8 0,4.41828 3.58172,8 8,8 4.41828,0 8,-3.58172 8,-8 0,-4.41828 -3.58172,-8 -8,-8 z m 0,5 c 1.65685,0 3,1.34315 3,3 0,1.65685 -1.34315,3 -3,3 -1.65685,0 -3,-1.34315 -3,-3 0,-1.65685 1.34315,-3 3,-3 z m 0,1 c -1.10457,0 -2,0.89543 -2,2 0,1.10457 0.89543,2 2,2 1.10457,0 2,-0.89543 2,-2 0,-1.10457 -0.89543,-2 -2,-2 z m 0,1 c 0.55228,0 1,0.44772 1,1 0,0.55228 -0.44772,1 -1,1 -0.55228,0 -1,-0.44772 -1,-1 0,-0.55228 0.44772,-1 1,-1 z" color="#bebebe"/></clipPath><clipPath id="clipPath251" clipPathUnits="userSpaceOnUse"><path id="path253" fill="url(#linearGradient4344)" d="m 144.00001,75.999997 c -44.1828,0 -80,35.817203 -80,80.000003 0,44.1828 35.8172,80 80,80 44.1828,0 80,-35.8172 80,-80 0,-44.1828 -35.8172,-80.000003 -80,-80.000003 z m 0,56.607143 c 12.62366,0 22.85714,10.23349 22.85714,22.85714 0,12.62366 -10.23348,22.85714 -22.85714,22.85714 -12.62366,0 -22.85714,-10.23348 -22.85714,-22.85714 0,-12.62365 10.23348,-22.85714 22.85714,-22.85714 z m 0,5.71429 c -9.46771,0 -17.14286,7.67514 -17.14286,17.14285 0,9.46772 7.67515,17.14286 17.14286,17.14286 9.46771,0 17.14286,-7.67514 17.14286,-17.14286 0,-9.46771 -7.67515,-17.14285 -17.14286,-17.14285 z m 0,5.71428 c 6.31183,0 11.42857,5.11674 11.42857,11.42857 0,6.31183 -5.11674,11.42857 -11.42857,11.42857 -6.31183,0 -11.42857,-5.11674 -11.42857,-11.42857 0,-6.31183 5.11674,-11.42857 11.42857,-11.42857 z" color="#bebebe"/></clipPath><clipPath id="clipPath255" clipPathUnits="userSpaceOnUse"><path id="path257" fill="url(#linearGradient4338)" d="m 328,242.09376 c -7.73199,0 -14,6.26801 -14,14 0,7.73199 6.26801,14 14,14 7.73199,0 14,-6.26801 14,-14 0,-7.73199 -6.26801,-14 -14,-14 z m 0,9.90625 c 2.20914,0 4,1.79086 4,4 0,2.20914 -1.79086,4 -4,4 -2.20914,0 -4,-1.79086 -4,-4 0,-2.20914 1.79086,-4 4,-4 z m 0,1 c -1.65685,0 -3,1.34315 -3,3 0,1.65685 1.34315,3 3,3 1.65685,0 3,-1.34315 3,-3 0,-1.65685 -1.34315,-3 -3,-3 z m 0,1 c 1.10457,0 2,0.89543 2,2 0,1.10457 -0.89543,2 -2,2 -1.10457,0 -2,-0.89543 -2,-2 0,-1.10457 0.89543,-2 2,-2 z" color="#bebebe"/></clipPath><clipPath id="clipPath259" clipPathUnits="userSpaceOnUse"><path id="path261" fill="url(#linearGradient4306)" d="m 440,126 c -3.31371,0 -6,2.68629 -6,6 0,3.31371 2.68629,6 6,6 3.31371,0 6,-2.68629 6,-6 0,-3.31371 -2.68629,-6 -6,-6 z m 0,3 c 1.65685,0 3,1.34315 3,3 0,1.65685 -1.34315,3 -3,3 -1.65685,0 -3,-1.34315 -3,-3 0,-1.65685 1.34315,-3 3,-3 z m 0,1 c -1.10457,0 -2,0.89543 -2,2 0,1.10457 0.89543,2 2,2 1.10457,0 2,-0.89543 2,-2 0,-1.10457 -0.89543,-2 -2,-2 z m 0,1 c 0.55228,0 1,0.44772 1,1 0,0.55228 -0.44772,1 -1,1 -0.55228,0 -1,-0.44772 -1,-1 0,-0.55228 0.44772,-1 1,-1 z" color="#bebebe"/></clipPath><clipPath id="clipPath263" clipPathUnits="userSpaceOnUse"><path id="path265" fill="url(#linearGradient4296)" d="m 451.38843,127.3713 c -3.31371,0 -6,2.68629 -6,6 0,3.31371 2.68629,6 6,6 3.31371,0 6,-2.68629 6,-6 0,-3.31371 -2.68629,-6 -6,-6 z m 0,3 c 1.65685,0 3,1.34315 3,3 0,1.65685 -1.34315,3 -3,3 -1.65685,0 -3,-1.34315 -3,-3 0,-1.65685 1.34315,-3 3,-3 z m 0,1 c -1.10457,0 -2,0.89543 -2,2 0,1.10457 0.89543,2 2,2 1.10457,0 2,-0.89543 2,-2 0,-1.10457 -0.89543,-2 -2,-2 z m 0,1 c 0.55228,0 1,0.44772 1,1 0,0.55228 -0.44772,1 -1,1 -0.55228,0 -1,-0.44772 -1,-1 0,-0.55228 0.44772,-1 1,-1 z" color="#bebebe"/></clipPath><clipPath id="clipPath267" clipPathUnits="userSpaceOnUse"><rect id="rect269" width="30" height="30" x="433" y="29" fill="#6d6d6d" color="#bebebe" opacity=".2" rx="4"/></clipPath><clipPath id="clipPath271" clipPathUnits="userSpaceOnUse"><rect id="rect273" width="240" height="240" x="24" y="36" fill="#986767" color="#bebebe" rx="50"/></clipPath><clipPath id="clipPath275" clipPathUnits="userSpaceOnUse"><rect id="rect277" width="42" height="42" x="307" y="223" fill="url(#linearGradient4895)" color="#bebebe" rx="9" transform="rotate(90)"/></clipPath><clipPath id="clipPath279" clipPathUnits="userSpaceOnUse"><rect id="rect281" width="16" height="16" x="432" y="116" color="#bebebe" rx="3"/></clipPath><clipPath id="clipPath283" clipPathUnits="userSpaceOnUse"><rect id="rect285" width="16" height="16" x="432" y="116" color="#bebebe" rx="3"/></clipPath><clipPath id="clipPath287" clipPathUnits="userSpaceOnUse"><path id="path289" fill="url(#linearGradient4338)" d="m 328,242.09376 c -7.73199,0 -14,6.26801 -14,14 0,7.73199 6.26801,14 14,14 7.73199,0 14,-6.26801 14,-14 0,-7.73199 -6.26801,-14 -14,-14 z m 0,9.90625 c 2.20914,0 4,1.79086 4,4 0,2.20914 -1.79086,4 -4,4 -2.20914,0 -4,-1.79086 -4,-4 0,-2.20914 1.79086,-4 4,-4 z m 0,1 c -1.65685,0 -3,1.34315 -3,3 0,1.65685 1.34315,3 3,3 1.65685,0 3,-1.34315 3,-3 0,-1.65685 -1.34315,-3 -3,-3 z m 0,1 c 1.10457,0 2,0.89543 2,2 0,1.10457 -0.89543,2 -2,2 -1.10457,0 -2,-0.89543 -2,-2 0,-1.10457 0.89543,-2 2,-2 z" color="#bebebe"/></clipPath><clipPath id="clipPath291" clipPathUnits="userSpaceOnUse"><rect id="rect293" width="240" height="240" x="24" y="36" fill="#986767" color="#bebebe" rx="50"/></clipPath><clipPath id="clipPath295" clipPathUnits="userSpaceOnUse"><rect id="rect297" width="22" height="22" x="433" y="77" color="#bebebe" rx="4"/></clipPath><clipPath id="clipPath299" clipPathUnits="userSpaceOnUse"><rect id="rect301" width="20" height="20" x="434" y="78" color="#bebebe" rx="4"/></clipPath><clipPath id="clipPath303" clipPathUnits="userSpaceOnUse"><rect id="rect305" width="30" height="30" x="433" y="29" color="#bebebe" rx="6"/></clipPath><linearGradient id="linearGradient4306" x2="0" y1="140" y2="124" gradientUnits="userSpaceOnUse" xlink:href="#linearGradient4174"/><linearGradient id="linearGradient4825-8" x2="0" y1="230" y2="90" gradientTransform="matrix(.375 0 0 .375 298 16)" gradientUnits="userSpaceOnUse" xlink:href="#outerBackgroundGradient-7"/><linearGradient id="linearGradient4895-0" x2="0" y1="280" y2="40" gradientTransform="matrix(.175 0 0 .175 302.79999 215.99997)" gradientUnits="userSpaceOnUse" xlink:href="#outerBackgroundGradient-7"/><linearGradient id="linearGradient4227-3" x2="0" y1="140" y2="124" gradientUnits="userSpaceOnUse" xlink:href="#linearGradient4174-3"/><linearGradient id="linearGradient4863-9" x2="0" y1="230" y2="90" gradientTransform="matrix(.25 0 0 .25 299.99999 131.99999)" gradientUnits="userSpaceOnUse" xlink:href="#outerBackgroundGradient-7"/><linearGradient id="linearGradient4203-4" x2="0" y1="107" y2="85" gradientUnits="userSpaceOnUse" xlink:href="#linearGradient4174-3"/><linearGradient id="linearGradient4296" x2="0" y1="140" y2="124" gradientTransform="translate(11.38843 1.3713)" gradientUnits="userSpaceOnUse" xlink:href="#linearGradient4174"/><linearGradient id="linearGradient4338" x2="0" y1="273" y2="231" gradientTransform="translate(0 4.09376)" gradientUnits="userSpaceOnUse" xlink:href="#linearGradient4174"/><linearGradient id="linearGradient4296-69" x2="0" y1="140" y2="124" gradientTransform="translate(11.38843 1.3713)" gradientUnits="userSpaceOnUse" xlink:href="#linearGradient4174-6"/><linearGradient id="linearGradient4377" x2="0" y1="107" y2="85" gradientUnits="userSpaceOnUse" xlink:href="#linearGradient4174"/><linearGradient id="linearGradient5390-7-4" x2="0" y1="279.088" y2="268.363" gradientTransform="matrix(1.10525,0,0,1.10525,-134.26995,-295.77197)" gradientUnits="userSpaceOnUse" xlink:href="#linearGradient4126-5-5"/><linearGradient id="linearGradient4895" x2="0" y1="280" y2="40" gradientTransform="matrix(.175 0 0 .175 302.79999 215.99997)" gradientUnits="userSpaceOnUse" xlink:href="#outerBackgroundGradient"/><linearGradient id="outerBackgroundGradient-7"><stop id="stop320" offset="0" stop-color="#f0f0f0"/><stop id="stop322" offset="1" stop-color="#f8f8f8"/></linearGradient><linearGradient id="linearGradient4344-1" x2="0" y1="273" y2="231" gradientTransform="matrix(5.71429 0 0 5.71429 -1730.2857 -1284)" gradientUnits="userSpaceOnUse" xlink:href="#linearGradient4174-6"/><linearGradient id="linearGradient4126-5-6"><stop id="stop326" offset="0" stop-color="#eaba31"/><stop id="stop328" offset="1" stop-color="#ff9200"/></linearGradient><linearGradient id="linearGradient4174-3"><stop id="stop331" offset="0" stop-color="#818181"/><stop id="stop333" offset="1" stop-color="#c5c5c5"/></linearGradient><linearGradient id="linearGradient4895-2" x2="0" y1="280" y2="40" gradientTransform="matrix(.175 0 0 .175 302.79999 215.99997)" gradientUnits="userSpaceOnUse" xlink:href="#outerBackgroundGradient-77"/><linearGradient id="linearGradient4344" x2="0" y1="273" y2="231" gradientTransform="matrix(5.71429 0 0 5.71429 -1730.2857 -1284)" gradientUnits="userSpaceOnUse" xlink:href="#linearGradient4174"/><linearGradient id="outerBackgroundGradient-77"><stop id="stop338" offset="0" stop-color="#f0f0f0"/><stop id="stop340" offset="1" stop-color="#f8f8f8"/></linearGradient><linearGradient id="linearGradient6881"><stop id="stop343" offset="0" stop-color="#2d2d2d"/><stop id="stop345" offset="1" stop-color="#4b4a4c"/></linearGradient><linearGradient id="linearGradient4203-6" x2="0" y1="107" y2="85" gradientUnits="userSpaceOnUse" xlink:href="#linearGradient4174-6"/><linearGradient id="linearGradient4344-8" x2="0" y1="273" y2="231" gradientTransform="matrix(5.71429 0 0 5.71429 -1730.2857 -1284)" gradientUnits="userSpaceOnUse" xlink:href="#linearGradient4174-3"/><linearGradient id="linearGradient4174-6"><stop id="stop350" offset="0" stop-color="#818181"/><stop id="stop352" offset="1" stop-color="#c5c5c5"/></linearGradient><linearGradient id="linearGradient4863" x2="0" y1="230" y2="90" gradientTransform="matrix(.25 0 0 .25 299.99999 131.99999)" gradientUnits="userSpaceOnUse" xlink:href="#outerBackgroundGradient"/><linearGradient id="linearGradient4227-4" x2="0" y1="140" y2="124" gradientUnits="userSpaceOnUse" xlink:href="#linearGradient4174-6"/><linearGradient id="linearGradient4296-6" x2="0" y1="140" y2="124" gradientTransform="translate(11.38843 1.3713)" gradientUnits="userSpaceOnUse" xlink:href="#linearGradient4174-3"/><linearGradient id="linearGradient4863-4" x2="0" y1="230" y2="90" gradientTransform="matrix(.25 0 0 .25 299.99999 131.99999)" gradientUnits="userSpaceOnUse" xlink:href="#outerBackgroundGradient-77"/><linearGradient id="linearGradient4825" x2="0" y1="230" y2="90" gradientTransform="matrix(.375 0 0 .375 298 16)" gradientUnits="userSpaceOnUse" xlink:href="#outerBackgroundGradient"/><linearGradient id="linearGradient4126-5-5"><stop id="stop360" offset="0" stop-color="#eaba31"/><stop id="stop362" offset="1" stop-color="#ff9200"/></linearGradient><linearGradient id="linearGradient4174"><stop id="stop365" offset="0" stop-color="#818181"/><stop id="stop367" offset="1" stop-color="#c5c5c5"/></linearGradient><linearGradient id="linearGradient4825-6" x2="0" y1="230" y2="90" gradientTransform="matrix(.375 0 0 .375 298 16)" gradientUnits="userSpaceOnUse" xlink:href="#outerBackgroundGradient-77"/><linearGradient id="linearGradient4326-1" x2="0" y1="273" y2="231" gradientTransform="translate(0 4.09376)" gradientUnits="userSpaceOnUse" xlink:href="#linearGradient4174-3"/><linearGradient id="outerBackgroundGradient"><stop id="stop372" offset="0" stop-color="#f0f0f0"/><stop id="stop374" offset="1" stop-color="#f8f8f8"/></linearGradient><linearGradient id="linearGradient4126-5"><stop id="stop377" offset="0" stop-color="#eaba31"/><stop id="stop379" offset="1" stop-color="#ff9200"/></linearGradient><linearGradient id="linearGradient4326-13" x2="0" y1="273" y2="231" gradientTransform="translate(0 4.09376)" gradientUnits="userSpaceOnUse" xlink:href="#linearGradient4174-6"/><radialGradient id="radialGradient4279" cx="328" cy="255.416" r="7" gradientTransform="matrix(1.22449 0 0 1.22449 49.7555 -179.34296)" gradientUnits="userSpaceOnUse" xlink:href="#linearGradient4126-5"/><radialGradient id="radialGradient4229-9" cx="328" cy="255.416" r="7" gradientTransform="matrix(1.22449 0 0 1.22449 49.7555 -179.34296)" gradientUnits="userSpaceOnUse" xlink:href="#linearGradient4126-5-5"/><radialGradient id="radialGradient4225-6" cx="328" cy="255.416" r="7" gradientTransform="matrix(2.85714 0 0 2.85714 -609.14349 -473.66662)" gradientUnits="userSpaceOnUse" xlink:href="#linearGradient4126-5-6"/><radialGradient id="radialGradient4250" cx="328" cy="255.416" r="7" gradientTransform="matrix(2.85714 0 0 2.85714 -609.14349 -473.66662)" gradientUnits="userSpaceOnUse" xlink:href="#linearGradient4126-5"/><radialGradient id="radialGradient4229-8" cx="328" cy="255.416" r="7" gradientTransform="matrix(1.22449 0 0 1.22449 49.7555 -179.34296)" gradientUnits="userSpaceOnUse" xlink:href="#linearGradient4126-5-6"/><radialGradient id="radialGradient4225-7" cx="328" cy="255.416" r="7" gradientTransform="matrix(2.85714 0 0 2.85714 -609.14349 -473.66662)" gradientUnits="userSpaceOnUse" xlink:href="#linearGradient4126-5-5"/><linearGradient id="linearGradient3073" x2="0" y1="1053.158" y2="1028.182" gradientTransform="translate(0,-4e-5)" gradientUnits="userSpaceOnUse" xlink:href="#linearGradient3810"/><linearGradient id="linearGradient3810"><stop id="stop7" offset="0" stop-color="#2b2b2b"/><stop id="stop9" offset="1" stop-color="#424242"/></linearGradient><linearGradient id="linearGradient4048" x1="36" x2="12" y1="23" y2="23" gradientUnits="userSpaceOnUse" xlink:href="#linearGradient4026"/><linearGradient id="linearGradient4026"><stop id="stop4028" offset="0" stop-color="#0f0" stop-opacity="1"/><stop id="stop4030" offset="1" stop-color="#14aa19" stop-opacity="1"/></linearGradient><linearGradient id="linearGradient4085" x1="36" x2="12" y1="23" y2="23" gradientTransform="matrix(3.543307,0,0,3.543307,-12.1875,-12)" gradientUnits="userSpaceOnUse" xlink:href="#linearGradient4026"/><linearGradient id="linearGradient4121" x1="36" x2="12" y1="23" y2="23" gradientTransform="translate(7.711473,0.90243159)" gradientUnits="userSpaceOnUse" xlink:href="#linearGradient4026"/><linearGradient id="linearGradient4187" x1="24" x2="32.651" y1="24" y2="13" gradientTransform="matrix(0.28222,0,0,0.28222,0.01435,-0.0287)" gradientUnits="userSpaceOnUse" xlink:href="#linearGradient4126-5-53"/><linearGradient id="linearGradient4126-5-53"><stop id="stop375" offset="0" stop-color="#eaba31"/><stop id="stop4029" offset=".723" stop-color="#f4a618" stop-opacity="1"/><stop id="stop377-2" offset="1" stop-color="#ff9200"/></linearGradient><linearGradient id="linearGradient3391" x1="24" x2="32.651" y1="24" y2="13" gradientTransform="matrix(0.28222,0,0,0.28222,-22.563428,1.3824112)" gradientUnits="userSpaceOnUse" xlink:href="#linearGradient4126-5-53"/><radialGradient id="radialGradient3995" cx="6.774" cy="6.774" r="5.926" fx="6.774" fy="6.774" gradientUnits="userSpaceOnUse" xlink:href="#linearGradient4126-5-5"/><linearGradient id="linearGradient3013" x2="0" y1="1050.36" y2="1006.36" gradientTransform="translate(0,-1004.3622)" gradientUnits="userSpaceOnUse" xlink:href="#1"/><linearGradient id="1"><stop id="stop8" stop-color="#dbdbdb"/><stop id="stop10" offset="1" stop-color="#f9f9f9"/></linearGradient><linearGradient id="linearGradient3355" x2="0" y1="1050.36" y2="1006.36" gradientTransform="translate(0,-1004.3622)" gradientUnits="userSpaceOnUse" xlink:href="#1"/><radialGradient id="radialGradient4027" cx="6.773" cy="6.773" r="6.209" fx="6.773" fy="6.773" gradientUnits="userSpaceOnUse" xlink:href="#linearGradient4126-5-53"/><radialGradient id="radialGradient3012" cx="148.004" cy="160" r="128" gradientTransform="matrix(0.05167489,0,0,0.05167489,-0.87511191,-1.4947565)" gradientUnits="userSpaceOnUse" xlink:href="#radial0"/><radialGradient id="radial0" cx="148.004" cy="160" r="128" gradientTransform="matrix(0.1831,0,0,0.1831,-3.10029,-5.29688)" gradientUnits="userSpaceOnUse"><stop id="stop7-2" offset="0" stop-color="#eed5b5"/><stop id="stop9-5" offset="1" stop-color="#fd8514" stop-opacity="1"/></radialGradient><radialGradient id="radialGradient3018" cx="148.004" cy="160" r="128" gradientTransform="matrix(0.05167489,0,0,0.05167489,-0.87511211,-1.4947564)" gradientUnits="userSpaceOnUse" xlink:href="#radial0"/></defs><path id="path11" fill="url(#radialGradient3018)" d="m 13.387776,3.2589259 0,7.0290971 c 0,2.892778 0,3.100035 -3.100035,3.100035 l -7.0279951,0 c -3.10113701,0 -3.10113701,-0.207257 -3.10113701,-3.100035 l 0,-7.0290971 c 0,-2.89277731 0,-3.10003431 3.10113701,-3.10003431 l 7.0279951,0 c 3.100035,0 3.100035,0.207257 3.100035,3.10003431 z"/><path id="path15" fill="#fff" fill-opacity=".051" d="m 10.799269,13.388058 c 0.717682,-0.0033 1.235825,-0.02315 1.611753,-0.124574 l -1.193932,-2.046112 -1.2655901,2.170686 0.3362411,0 c 0.180799,0 0.350573,0 0.511528,0 z M 11.21709,11.217372 9.7707009,8.7369034 8.3232099,11.217372 z m 0,0 2.159662,0 c 0.0088,-0.274505 0.01102,-0.582083 0.01102,-0.930451 l 0,-0.3097833 -0.723193,-1.2402343 z M 12.664581,8.7369034 11.21709,6.2564347 9.7707009,8.7369034 z m 0,0 0.723195,0 0,-1.2402343 z m -2.8938801,0 -1.447491,-2.4804687 -1.446389,2.4804687 z m -2.89388,0 -1.447492,2.4804686 2.893881,0 z m 0,0 -1.447492,-2.4804687 -1.446388,2.4804687 z m -2.89388,0 -1.447492,2.4804686 2.89388,0 z m 0,0 -1.447492,-2.4804687 -1.446389,2.4804687 z m -2.893881,0 -0.93045101,1.5941146 c 0,0.329627 0.0033,0.623976 0.01102,0.886354 l 2.36581601,0 z m 0,0 -0.93045101,-1.5941145 0,1.5941145 z m 1.446389,2.4804686 -1.217083,2.086901 c 0.450894,0.08268 1.07487,0.08378 1.94138,0.08378 l 0.542396,0 z m 0,-4.9609373 -1.446389,-2.4804689 -0.93045101,1.5941147 0,0.8863542 z m 0,0 2.89388,0 -1.446388,-2.4804689 z M 3.9829409,3.7759658 2.5354489,1.2954976 1.0890599,3.7759658 z m 0,0 2.89388,0 -1.447492,-2.4804682 z m 1.446388,-2.4804682 -0.663663,-1.13660601 -1.507022,0 c -0.02095,0 -0.03859,0 -0.05953,0 L 2.5354499,1.2954976 z m 0,0 2.893881,0 -0.663663,-1.13660601 -1.566554,0 z m 2.893881,0 2.8938801,0 -0.663663,-1.13660601 c -0.08819,0 -0.171979,0 -0.266788,0 l -1.2997661,0 z m 0,0 -1.446389,2.4804682 2.89388,0 z m 1.447491,2.4804682 2.8938801,0 -1.447491,-2.4804682 z m 0,0 -1.447491,2.4804689 2.8938801,0 z m 1.4463891,2.4804689 2.170686,0 0,-1.2402343 -0.723195,-1.2402346 z m 1.447491,-2.4804689 0.723195,0 0,-0.5170399 c 0,-0.2579689 -0.0022,-0.4938889 -0.0066,-0.7121703 z M 8.3232099,6.2564347 6.8768209,3.7759658 5.4293289,6.2564347 z m 2.8938801,-4.9609371 2.062648,0 C 13.123193,0.51718059 12.747264,0.27133959 11.859807,0.19416859 z m -8.6816411,0 -0.650434,-1.11566001 c -1.03297701,0.05843 -1.45079901,0.281119 -1.61836801,1.11566001 z M 1.0890599,3.7759658 0.17514589,2.2083096 c -0.01213,0.303169 -0.01653,0.6515363 -0.01653,1.0506163 l 0,0.5170399 z m 4.340269,7.4414062 -1.26559,2.170686 2.532283,0 z m 2.893881,0 -1.265591,2.170686 2.532284,0 z m -7.59133701,1.86862 -0.451996,-0.775009 c 0.08268,0.37152 0.221588,0.615157 0.451996,0.775009 z"/><path id="path392" fill="none" d="m 7.474695,6.81793 c 0.050729,-0.028513 0.1093602,-0.044753 0.1719239,-0.044753 l 0,0 0,0 0.5156182,0 c 0.194027,0 0.3502293,0.1562031 0.3502293,0.3502286 l 0,0.590207 c 0,0.1940256 -0.1562023,0.3502286 -0.3502293,0.3502286 l -0.5156182,0 c -0.062564,0 -0.1211945,-0.016241 -0.1719239,-0.044754"/><path id="rect20" fill="#f9f9f9" fill-opacity="1" fill-rule="evenodd" d="M 12 12 L 12 18 L 15 18 L 15 36 L 33 36 L 33 18 L 36 18 L 36 12 L 12 12 z" transform="scale(0.28222223,0.28222223)"/></svg>