<?xml version="1.0" encoding="UTF-8" standalone="no"?>
<svg
   xmlns:dc="http://purl.org/dc/elements/1.1/"
   xmlns:cc="http://creativecommons.org/ns#"
   xmlns:rdf="http://www.w3.org/1999/02/22-rdf-syntax-ns#"
   xmlns:svg="http://www.w3.org/2000/svg"
   xmlns="http://www.w3.org/2000/svg"
   xmlns:sodipodi="http://sodipodi.sourceforge.net/DTD/sodipodi-0.dtd"
   xmlns:inkscape="http://www.inkscape.org/namespaces/inkscape"
   width="48"
   height="48"
   viewBox="0 0 48 48"
   id="svg2"
   version="1.1"
   inkscape:version="0.48.4 r9939"
   sodipodi:docname="10B4_steam.0.svg">
  <defs
     id="defs7" />
  <metadata
     id="metadata35">
    <rdf:RDF>
      <cc:Work
         rdf:about="">
        <dc:format>image/svg+xml</dc:format>
        <dc:type
           rdf:resource="http://purl.org/dc/dcmitype/StillImage" />
        <dc:title></dc:title>
      </cc:Work>
    </rdf:RDF>
  </metadata>
  <sodipodi:namedview
     pagecolor="#ffffff"
     bordercolor="#666666"
     borderopacity="1"
     objecttolerance="10"
     gridtolerance="10"
     guidetolerance="10"
     inkscape:pageopacity="0"
     inkscape:pageshadow="2"
     inkscape:window-width="1024"
     inkscape:window-height="697"
     id="namedview33"
     showgrid="false"
     inkscape:zoom="8.1611675"
     inkscape:cx="27.115121"
     inkscape:cy="21.016628"
     inkscape:window-x="0"
     inkscape:window-y="24"
     inkscape:window-maximized="1"
     inkscape:current-layer="svg2" />
  <path
     inkscape:connector-curvature="0"
     d="m 47.437,11.547375 0,24.90625 c 0,10.25 0,10.984375 -10.984375,10.984375 l -24.902344,0 C 0.562,47.438 0.562,46.703625 0.562,36.453625 l 0,-24.90625 c 0,-10.2499996 0,-10.9843746 10.988281,-10.9843746 l 24.902344,0 C 47.437,0.5630004 47.437,1.2973754 47.437,11.547375 z"
     id="path11-8"
     style="fill:#000000;fill-opacity:1" />
  <path
     inkscape:connector-curvature="0"
     d="m 47.437,11.547375 0,20.906625 c 0,10.25 0,10.984 -10.984375,10.984 l -24.902344,0 C 0.562,43.438 0.562,42.704 0.562,32.454 l 0,-20.906625 c 0,-10.2500001 0,-10.9843751 10.988281,-10.9843751 l 24.902344,0 C 47.437,0.5629999 47.437,1.2973749 47.437,11.547375 z"
     id="path11"
     style="fill:#1d1d1d;fill-opacity:1"
     sodipodi:nodetypes="sssssssss" />
  <path
     inkscape:connector-curvature="0"
     id="path15"
     d="m 38.265125,47.438 c 2.542969,-0.01172 4.378906,-0.08203 5.710937,-0.441406 l -4.230468,-7.25 -4.484375,7.691406 1.191406,0 c 0.640625,0 1.242187,0 1.8125,0 z m 1.480469,-7.691406 -5.125,-8.789063 -5.128906,8.789063 z m 0,0 7.652344,0 c 0.03125,-0.972656 0.03906,-2.0625 0.03906,-3.296875 l 0,-1.097657 -2.5625,-4.394531 z m 5.128906,-8.789063 -5.128906,-8.789062 -5.125,8.789062 z m 0,0 2.5625,0 0,-4.394531 z m -10.253906,0 -5.128906,-8.789062 -5.125,8.789062 z m -10.253906,0 -5.128907,8.789063 10.253907,0 z m 0,0 -5.128907,-8.789062 -5.125,8.789062 z m -10.253907,0 -5.128906,8.789063 10.253906,0 z m 0,0 -5.128906,-8.789062 -5.125,8.789062 z m -10.253906,0 L 0.562,36.605969 c 0,1.167969 0.011719,2.210937 0.039062,3.140625 l 8.382813,0 z m 0,0 -3.296875,-5.648437 0,5.648437 z m 5.125,8.789063 -4.3125,7.394531 C 6.269031,47.434094 8.479969,47.438 11.550281,47.438 l 1.921875,0 z m 0,-17.578125 -5.125,-8.789063 -3.296875,5.648438 0,3.140625 z m 0,0 10.253906,0 -5.125,-8.789063 z m 5.128906,-8.789063 -5.128906,-8.7890622 -5.125,8.7890622 z m 0,0 10.253907,0 -5.128907,-8.7890622 z m 5.125,-8.7890622 -2.351562,-4.027344 -5.335938,0 c -0.07813,0 -0.140625,0 -0.214843,0 l -2.351563,4.027344 z m 0,0 10.253907,0 -2.351563,-4.027344 -5.550781,0 z m 10.253907,0 10.253906,0 -2.351563,-4.027344 c -0.3125,0 -0.609375,0 -0.941406,0 l -4.609375,0 z m 0,0 -5.125,8.7890622 10.253906,0 z m 5.128906,8.7890622 10.253906,0 -5.128906,-8.7890622 z m 0,0 -5.128906,8.789063 10.253906,0 z m 5.125,8.789063 7.691406,0 0,-4.394531 -2.5625,-4.394532 z m 5.128906,-8.789063 2.5625,0 0,-1.832031 c 0,-0.914063 -0.0078,-1.75 -0.02344,-2.523437 z m -15.382812,8.789063 -5.125,-8.789063 -5.128907,8.789063 z m 10.253906,-17.5781252 7.308594,0 C 46.4995,1.8325308 45.167469,0.9614378 42.022938,0.6879998 z m -30.761719,0 -2.304687,-3.953125 C 3.019031,0.8442498 1.538562,1.6333118 0.944812,4.5903438 z M 3.858875,13.379406 0.620594,7.8247188 C 0.577625,8.898938 0.562,10.133312 0.562,11.547375 l 0,1.832031 z m 15.378906,26.367188 -4.484375,7.691406 8.972656,0 z m 10.253907,0 -4.484376,7.691406 8.972657,0 z M 2.59325,46.367688 0.991688,43.621594 C 1.284656,44.938 1.776844,45.801281 2.59325,46.367688 z"
     style="fill:#ffffff;fill-opacity:0.03529412" />
  <g
     style="line-height:normal;fill:#f9f9f9"
     id="g5847"
     transform="matrix(3.543307,0,0,3.543307,2.9948148e-4,2.841461e-5)">
    <g
       transform="matrix(0.13,0,0,0.125,0.05726,5.11587)"
       id="g5849">
      <path
         style="color:#000000"
         d="m 67.533036,-11.575717 c -6.786951,0 -12.350206,5.5954284 -12.350206,12.42128066 0,6.82603064 5.563255,12.42128434 12.350206,12.42128434 6.786951,0 12.350205,-5.5952537 12.350205,-12.42146214 0,-6.82584946 -5.563254,-12.42128086 -12.350205,-12.42128086 z m 0,4.1694667 c 4.565201,0 8.204683,3.6603715 8.204683,8.25181396 0,4.59161454 -3.639482,8.25198944 -8.204683,8.25198944 -4.565202,0 -8.204683,-3.6603749 -8.204683,-8.25198944 0,-4.59144246 3.639481,-8.25181396 8.204683,-8.25181396 z"
         id="path5851"
         inkscape:connector-curvature="0" />
      <path
         d="m 72.823443,0.8314162 a 5.2929475,5.3234085 0 0 1 -10.585895,0 5.2929475,5.3234085 0 1 1 10.585895,0 z"
         id="path5853"
         inkscape:connector-curvature="0" />
      <path
         d="m 56.944585,6.1547762 0,15.9702198 8.821576,1.77447 7.537651,-13.248361 -7.872412,0 z"
         id="path5855"
         inkscape:connector-curvature="0" />
    </g>
    <g
       style="color:#000000"
       transform="matrix(0.03669,0,0,0.03528,2.07704,9.59553)"
       id="g5857">
      <path
         d="m 152.97281,-54.874888 c -17.17733,0 -31.25755,14.16131 -31.25755,31.43745 C 121.71526,-6.160682 135.79548,8 152.97281,8 c 17.17728,0 31.25755,-14.160682 31.25755,-31.437438 0,-17.27614 -14.08027,-31.43745 -31.25755,-31.43745 z m 0,10.55229 c 11.55423,0 20.76552,9.26462 20.76552,20.88516 0,11.621161 -9.21129,20.884516 -20.76552,20.884516 -11.55422,0 -20.76551,-9.263355 -20.76551,-20.884516 0,-11.62054 9.21129,-20.88516 20.76551,-20.88516 z"
         id="path5859"
         inkscape:connector-curvature="0" />
      <path
         d="m 59.25755,-98.887308 c -17.17734,0 -31.25755,14.16131 -31.25755,31.43744 0,17.27677 14.08021,31.43745 31.25755,31.43745 17.17728,0 31.25755,-14.16068 31.25755,-31.43745 0,-17.27613 -14.08027,-31.43744 -31.25755,-31.43744 z m -0.0563,12.57498 c 12.50302,0 18.75453,6.28749 18.75453,18.86246 0,12.57498 -6.25151,18.86247 -18.75453,18.86247 -12.50302,0 -18.75453,-6.28749 -18.75453,-18.86247 0,-12.57497 6.25151,-18.86246 18.75453,-18.86246 z"
         id="path5861"
         inkscape:connector-curvature="0" />
    </g>
    <g
       transform="matrix(0.03669,0,0,0.03528,2.07704,9.59553)"
       id="g5863">
      <path
         d="m 66.11389,-78.688118 c -7.09133,-3.02491 -15.27825,0.3018 -18.28598,7.43684 -3.00772,7.13189 0.30258,15.36599 7.39404,18.3909 l 92.8795,41.992881 c 7.09127,3.024283 15.27819,-0.301798 18.28592,-7.43684 3.00772,-7.131901 -0.30258,-15.366621 -7.39398,-18.390911 z"
         id="path5865"
         inkscape:connector-curvature="0" />
    </g>
  </g>
</svg>
