<svg xmlns="http://www.w3.org/2000/svg" xmlns:svg="http://www.w3.org/2000/svg" xmlns:xlink="http://www.w3.org/1999/xlink" id="svg2" width="48" height="48" version="1.1" viewBox="0 0 13.547 13.547"><metadata id="metadata286"/><defs id="defs4"><clipPath id="clipPath6"><rect id="rect8" width="60" height="60" x="306" y="142" fill="url(#A)" color="#bebebe" rx="12.5" transform="matrix(0 -1 1 0 0 0)"/></clipPath><clipPath id="clipPath10"><path id="path12" d="m 328,238 c -7.73199,0 -14,6.26801 -14,14 0,7.73199 6.26801,14 14,14 7.73199,0 14,-6.26801 14,-14 0,-7.73199 -6.26801,-14 -14,-14 z m 0,8.75 c 2.89949,0 5.25,2.35051 5.25,5.25 0,2.89949 -2.35051,5.25 -5.25,5.25 -2.89949,0 -5.25,-2.35051 -5.25,-5.25 0,-2.89949 2.35051,-5.25 5.25,-5.25 z m 0,1.75 c -1.933,0 -3.5,1.567 -3.5,3.5 0,1.933 1.567,3.5 3.5,3.5 1.933,0 3.5,-1.567 3.5,-3.5 0,-1.933 -1.567,-3.5 -3.5,-3.5 z m 0,1.75 c 0.96649,0 1.75,0.78351 1.75,1.75 0,0.96649 -0.78351,1.75 -1.75,1.75 -0.96649,0 -1.75,-0.78351 -1.75,-1.75 0,-0.96649 0.78351,-1.75 1.75,-1.75 z"/></clipPath><clipPath id="clipPath14"><path id="path16" d="m 328,238 c -7.73199,0 -14,6.26801 -14,14 0,7.73199 6.26801,14 14,14 7.73199,0 14,-6.26801 14,-14 0,-7.73199 -6.26801,-14 -14,-14 z m 0,9.90625 c 2.20914,0 4,1.79086 4,4 0,2.20914 -1.79086,4 -4,4 -2.20914,0 -4,-1.79086 -4,-4 0,-2.20914 1.79086,-4 4,-4 z m 0,1 c -1.65685,0 -3,1.34315 -3,3 0,1.65685 1.34315,3 3,3 1.65685,0 3,-1.34315 3,-3 0,-1.65685 -1.34315,-3 -3,-3 z m 0,1 c 1.10457,0 2,0.89543 2,2 0,1.10457 -0.89543,2 -2,2 -1.10457,0 -2,-0.89543 -2,-2 0,-1.10457 0.89543,-2 2,-2 z"/></clipPath><clipPath id="clipPath18"><rect id="rect20" width="90" height="90" x="307" y="31" fill="url(#B)" color="#bebebe" rx="18.75"/></clipPath><clipPath id="clipPath22"><path id="path24" d="m 328,256 15,11 0,-27 -15,0 z"/></clipPath><clipPath id="clipPath26"><rect id="rect28" width="42" height="42" x="307" y="223" fill="url(#C)" color="#bebebe" rx="9" transform="rotate(90)"/></clipPath><clipPath id="clipPath30"><rect id="rect32" width="42" height="42" x="307" y="223" fill="url(#0)" color="#bebebe" rx="9" transform="rotate(90)"/></clipPath><clipPath id="clipPath34"><rect id="rect36" width="30" height="30" x="433" y="29" fill="#6d6d6d" color="#bebebe" opacity=".2" rx="4"/></clipPath><clipPath id="clipPath38"><rect id="rect40" width="60" height="60" x="306" y="142" fill="url(#1)" color="#bebebe" rx="12.5" transform="matrix(0 -1 1 0 0 0)"/></clipPath><clipPath id="clipPath42"><rect id="rect44" width="22" height="22" x="433" y="77" color="#bebebe" rx="5"/></clipPath><clipPath id="clipPath46"><rect id="rect48" width="16" height="16" x="432" y="116" color="#bebebe" rx="3"/></clipPath><clipPath id="clipPath50"><path id="path52" d="m 328,242.09376 c -7.73199,0 -14,6.26801 -14,14 0,7.73199 6.26801,14 14,14 7.73199,0 14,-6.26801 14,-14 0,-7.73199 -6.26801,-14 -14,-14 z m 0,9.90625 c 2.20914,0 4,1.79086 4,4 0,2.20914 -1.79086,4 -4,4 -2.20914,0 -4,-1.79086 -4,-4 0,-2.20914 1.79086,-4 4,-4 z m 0,1 c -1.65685,0 -3,1.34315 -3,3 0,1.65685 1.34315,3 3,3 1.65685,0 3,-1.34315 3,-3 0,-1.65685 -1.34315,-3 -3,-3 z m 0,1 c 1.10457,0 2,0.89543 2,2 0,1.10457 -0.89543,2 -2,2 -1.10457,0 -2,-0.89543 -2,-2 0,-1.10457 0.89543,-2 2,-2 z"/></clipPath><clipPath id="clipPath54"><rect id="rect56" width="22" height="22" x="433" y="77" fill="#6d6d6d" color="#bebebe" opacity=".2" rx="3"/></clipPath><clipPath id="clipPath58"><rect id="rect60" width="16" height="16" x="432" y="116" fill="#6d6d6d" color="#bebebe" opacity=".2" rx="2"/></clipPath><clipPath id="clipPath62"><rect id="rect64" width="240" height="240" x="24" y="36" fill="#986767" color="#bebebe" rx="50"/></clipPath><clipPath id="clipPath66"><rect id="rect68" width="22" height="22" x="433" y="77" color="#bebebe" rx="4"/></clipPath><clipPath id="clipPath70"><rect id="rect72" width="30" height="30" x="433" y="29" fill="#6d6d6d" color="#bebebe" opacity=".2" rx="4"/></clipPath><clipPath id="clipPath74"><rect id="rect76" width="16" height="16" x="432" y="116" fill="#6d6d6d" color="#bebebe" opacity=".2" rx="2"/></clipPath><clipPath id="clipPath78"><path id="path80" d="m 444,88 c -4.41828,0 -8,3.58172 -8,8 0,4.41828 3.58172,8 8,8 4.41828,0 8,-3.58172 8,-8 0,-4.41828 -3.58172,-8 -8,-8 z m 0,5 c 1.65685,0 3,1.34315 3,3 0,1.65685 -1.34315,3 -3,3 -1.65685,0 -3,-1.34315 -3,-3 0,-1.65685 1.34315,-3 3,-3 z m 0,1 c -1.10457,0 -2,0.89543 -2,2 0,1.10457 0.89543,2 2,2 1.10457,0 2,-0.89543 2,-2 0,-1.10457 -0.89543,-2 -2,-2 z m 0,1 c 0.55228,0 1,0.44772 1,1 0,0.55228 -0.44772,1 -1,1 -0.55228,0 -1,-0.44772 -1,-1 0,-0.55228 0.44772,-1 1,-1 z"/></clipPath><clipPath id="clipPath82"><rect id="rect84" width="22" height="22" x="433" y="77" color="#bebebe" rx="5"/></clipPath><clipPath id="clipPath86"><rect id="rect88" width="30" height="30" x="433" y="29" color="#bebebe" rx="6"/></clipPath><clipPath id="clipPath90"><path id="path92" d="m 328,242.09375 c -7.73199,0 -14,6.26801 -14,14 0,7.73199 6.26801,14 14,14 7.73199,0 14,-6.26801 14,-14 0,-7.73199 -6.26801,-14 -14,-14 z M 328,252 c 2.20914,0 4,1.79086 4,4 0,2.20914 -1.79086,4 -4,4 -2.20914,0 -4,-1.79086 -4,-4 0,-2.20914 1.79086,-4 4,-4 z m 0,1 c -1.65685,0 -3,1.34315 -3,3 0,1.65685 1.34315,3 3,3 1.65685,0 3,-1.34315 3,-3 0,-1.65685 -1.34315,-3 -3,-3 z m 0,1 c 1.10457,0 2,0.89543 2,2 0,1.10457 -0.89543,2 -2,2 -1.10457,0 -2,-0.89543 -2,-2 0,-1.10457 0.89543,-2 2,-2 z"/></clipPath><clipPath id="clipPath94"><rect id="rect96" width="240" height="240" x="24" y="36" fill="#986767" color="#bebebe" rx="50"/></clipPath><clipPath id="clipPath98"><rect id="rect100" width="30" height="30" x="433" y="29" color="#bebebe" rx="6"/></clipPath><clipPath id="clipPath102"><rect id="rect104" width="22" height="22" x="433" y="77" color="#bebebe" rx="4"/></clipPath><clipPath id="clipPath106"><path id="path108" d="m 451.38843,127.3713 c -3.31371,0 -6,2.68629 -6,6 0,3.31371 2.68629,6 6,6 3.31371,0 6,-2.68629 6,-6 0,-3.31371 -2.68629,-6 -6,-6 z m 0,3 c 1.65685,0 3,1.34315 3,3 0,1.65685 -1.34315,3 -3,3 -1.65685,0 -3,-1.34315 -3,-3 0,-1.65685 1.34315,-3 3,-3 z m 0,1 c -1.10457,0 -2,0.89543 -2,2 0,1.10457 0.89543,2 2,2 1.10457,0 2,-0.89543 2,-2 0,-1.10457 -0.89543,-2 -2,-2 z m 0,1 c 0.55228,0 1,0.44772 1,1 0,0.55228 -0.44772,1 -1,1 -0.55228,0 -1,-0.44772 -1,-1 0,-0.55228 0.44772,-1 1,-1 z"/></clipPath><clipPath id="clipPath110"><path id="path112" d="m 144.00001,75.999997 c -44.1828,0 -80,35.817203 -80,80.000003 0,44.1828 35.8172,80 80,80 44.1828,0 80,-35.8172 80,-80 0,-44.1828 -35.8172,-80.000003 -80,-80.000003 z m 0,56.607143 c 12.62366,0 22.85714,10.23349 22.85714,22.85714 0,12.62366 -10.23348,22.85714 -22.85714,22.85714 -12.62366,0 -22.85714,-10.23348 -22.85714,-22.85714 0,-12.62365 10.23348,-22.85714 22.85714,-22.85714 z m 0,5.71429 c -9.46771,0 -17.14286,7.67514 -17.14286,17.14285 0,9.46772 7.67515,17.14286 17.14286,17.14286 9.46771,0 17.14286,-7.67514 17.14286,-17.14286 0,-9.46771 -7.67515,-17.14285 -17.14286,-17.14285 z m 0,5.71428 c 6.31183,0 11.42857,5.11674 11.42857,11.42857 0,6.31183 -5.11674,11.42857 -11.42857,11.42857 -6.31183,0 -11.42857,-5.11674 -11.42857,-11.42857 0,-6.31183 5.11674,-11.42857 11.42857,-11.42857 z"/></clipPath><clipPath id="clipPath114"><rect id="rect116" width="20" height="20" x="434" y="78" color="#bebebe" rx="4"/></clipPath><clipPath id="clipPath118"><rect id="rect120" width="16" height="16" x="432" y="116" color="#bebebe" rx="3"/></clipPath><clipPath id="clipPath122"><path id="path124" d="m 451.38843,133.3713 6.42857,4.71429 0,-11.57143 -6.42857,0 z"/></clipPath><clipPath id="clipPath126"><rect id="rect128" width="20" height="20" x="434" y="78" color="#bebebe" rx="4"/></clipPath><clipPath id="clipPath130"><path id="path132" d="m 440,126 c -3.31371,0 -6,2.68629 -6,6 0,3.31371 2.68629,6 6,6 3.31371,0 6,-2.68629 6,-6 0,-3.31371 -2.68629,-6 -6,-6 z m 0,3 c 1.65685,0 3,1.34315 3,3 0,1.65685 -1.34315,3 -3,3 -1.65685,0 -3,-1.34315 -3,-3 0,-1.65685 1.34315,-3 3,-3 z m 0,1 c -1.10457,0 -2,0.89543 -2,2 0,1.10457 0.89543,2 2,2 1.10457,0 2,-0.89543 2,-2 0,-1.10457 -0.89543,-2 -2,-2 z m 0,1 c 0.55228,0 1,0.44772 1,1 0,0.55228 -0.44772,1 -1,1 -0.55228,0 -1,-0.44772 -1,-1 0,-0.55228 0.44772,-1 1,-1 z"/></clipPath><clipPath id="clipPath134"><rect id="rect136" width="16" height="16" x="432" y="116" fill="#6d6d6d" color="#bebebe" opacity=".2" rx="2"/></clipPath><clipPath id="clipPath138"><rect id="rect140" width="90" height="90" x="307" y="31" fill="url(#7)" color="#bebebe" rx="18.75"/></clipPath><clipPath id="clipPath142"><rect id="rect144" width="22" height="22" x="433" y="77" fill="#6d6d6d" color="#bebebe" opacity=".2" rx="3"/></clipPath><clipPath id="clipPath146"><rect id="rect148" width="20" height="20" x="434" y="78" color="#bebebe" rx="4"/></clipPath><clipPath id="clipPath150"><rect id="rect152" width="240" height="240" x="24" y="36" fill="#986767" color="#bebebe" rx="50"/></clipPath><clipPath id="clipPath154"><rect id="rect156" width="90" height="90" x="307" y="31" fill="url(#3)" color="#bebebe" rx="18.75"/></clipPath><clipPath id="clipPath158"><rect id="rect160" width="22" height="22" x="433" y="77" color="#bebebe" rx="4"/></clipPath><clipPath id="clipPath162"><rect id="rect164" width="30" height="30" x="433" y="29" color="#bebebe" rx="6"/></clipPath><clipPath id="clipPath166"><rect id="rect168" width="22" height="22" x="433" y="77" color="#bebebe" rx="5"/></clipPath><clipPath id="clipPath170"><rect id="rect172" width="16" height="16" x="432" y="116" color="#bebebe" rx="3"/></clipPath><clipPath id="clipPath174"><rect id="rect176" width="22" height="22" x="433" y="77" fill="#6d6d6d" color="#bebebe" opacity=".2" rx="3"/></clipPath><clipPath id="clipPath178"><rect id="rect180" width="30" height="30" x="433" y="29" fill="#6d6d6d" color="#bebebe" opacity=".2" rx="4"/></clipPath><clipPath id="clipPath182"><rect id="rect184" width="60" height="60" x="306" y="142" fill="url(#9)" color="#bebebe" rx="12.5" transform="matrix(0 -1 1 0 0 0)"/></clipPath><clipPath id="clipPath186"><rect id="rect188" width="42" height="42" x="307" y="223" fill="url(#8)" color="#bebebe" rx="9" transform="rotate(90)"/></clipPath><linearGradient id="0" x2="0" y1="280" y2="40" gradientTransform="matrix(.175 0 0 .175 302.79999 215.99997)" gradientUnits="userSpaceOnUse" xlink:href="#2"/><linearGradient id="1" x2="0" y1="230" y2="90" gradientTransform="matrix(.25 0 0 .25 299.99999 131.99999)" gradientUnits="userSpaceOnUse" xlink:href="#2"/><linearGradient id="2"><stop id="stop193" stop-color="#f0f0f0"/><stop id="stop195" offset="1" stop-color="#f8f8f8"/></linearGradient><linearGradient id="linearGradient197" x2="0" y1="140" y2="124" gradientTransform="translate(11.38843 1.3713)" gradientUnits="userSpaceOnUse" xlink:href="#5"/><linearGradient id="linearGradient199" x2="0" y1="273" y2="231" gradientTransform="translate(0 4.09376)" gradientUnits="userSpaceOnUse" xlink:href="#5"/><linearGradient id="linearGradient201" x2="0" y1="273" y2="231" gradientTransform="matrix(5.71429 0 0 5.71429 -1730.2857 -1284)" gradientUnits="userSpaceOnUse" xlink:href="#5"/><linearGradient id="linearGradient203" x2="0" y1="273" y2="231" gradientTransform="matrix(5.71429 0 0 5.71429 -1730.2857 -1284)" gradientUnits="userSpaceOnUse" xlink:href="#5"/><linearGradient id="3" x2="0" y1="230" y2="90" gradientTransform="matrix(.375 0 0 .375 298 16)" gradientUnits="userSpaceOnUse" xlink:href="#2"/><linearGradient id="4"><stop id="stop207" stop-color="#eaba31"/><stop id="stop209" offset="1" stop-color="#ff9200"/></linearGradient><linearGradient id="5"><stop id="stop212" stop-color="#818181"/><stop id="stop214" offset="1" stop-color="#c5c5c5"/></linearGradient><linearGradient id="6"><stop id="stop217" stop-color="#333"/><stop id="stop219" offset="1" stop-color="#555"/></linearGradient><linearGradient id="linearGradient221" x2="0" y1="140" y2="124" gradientUnits="userSpaceOnUse" xlink:href="#5"/><linearGradient id="linearGradient223" x2="0" y1="107" y2="85" gradientUnits="userSpaceOnUse" xlink:href="#5"/><linearGradient id="linearGradient225" x2="0" y1="107" y2="85" gradientUnits="userSpaceOnUse" xlink:href="#5"/><linearGradient id="7" x2="0" y1="230" y2="90" gradientTransform="matrix(.375 0 0 .375 298 16)" gradientUnits="userSpaceOnUse" xlink:href="#2"/><linearGradient id="8" x2="0" y1="280" y2="40" gradientTransform="matrix(.175 0 0 .175 302.79999 215.99997)" gradientUnits="userSpaceOnUse" xlink:href="#2"/><linearGradient id="linearGradient229" x2="0" y1="140" y2="124" gradientUnits="userSpaceOnUse" xlink:href="#5"/><linearGradient id="linearGradient231" x2="0" y1="140" y2="124" gradientTransform="translate(11.38843 1.3713)" gradientUnits="userSpaceOnUse" xlink:href="#5"/><linearGradient id="linearGradient233" x2="0" y1="273" y2="231" gradientTransform="translate(0 4.09376)" gradientUnits="userSpaceOnUse" xlink:href="#5"/><linearGradient id="linearGradient235" x2="0" y1="140" y2="124" gradientUnits="userSpaceOnUse" xlink:href="#5"/><linearGradient id="linearGradient237" x2="0" y1="140" y2="124" gradientTransform="translate(11.38843 1.3713)" gradientUnits="userSpaceOnUse" xlink:href="#5"/><linearGradient id="linearGradient239" x2="0" y1="273" y2="231" gradientTransform="translate(0 4.09376)" gradientUnits="userSpaceOnUse" xlink:href="#5"/><linearGradient id="linearGradient241" x2="0" y1="273" y2="231" gradientTransform="matrix(5.71429 0 0 5.71429 -1730.2857 -1284)" gradientUnits="userSpaceOnUse" xlink:href="#5"/><linearGradient id="9" x2="0" y1="230" y2="90" gradientTransform="matrix(.25 0 0 .25 299.99999 131.99999)" gradientUnits="userSpaceOnUse" xlink:href="#2"/><linearGradient id="A" x2="0" y1="230" y2="90" gradientTransform="matrix(.25 0 0 .25 299.99999 131.99999)" gradientUnits="userSpaceOnUse" xlink:href="#2"/><linearGradient id="B" x2="0" y1="230" y2="90" gradientTransform="matrix(.375 0 0 .375 298 16)" gradientUnits="userSpaceOnUse" xlink:href="#2"/><linearGradient id="C" x2="0" y1="280" y2="40" gradientTransform="matrix(.175 0 0 .175 302.79999 215.99997)" gradientUnits="userSpaceOnUse" xlink:href="#2"/><linearGradient id="linearGradient247" x2="0" y1="107" y2="85" gradientUnits="userSpaceOnUse" xlink:href="#5"/><radialGradient id="radialGradient249" cx="328" cy="255.42" r="7" gradientTransform="matrix(2.85714 0 0 2.85714 -609.14349 -473.66662)" gradientUnits="userSpaceOnUse" xlink:href="#4"/><radialGradient id="radialGradient251" cx="328" cy="255.42" r="7" gradientTransform="matrix(1.22449 0 0 1.22449 49.7555 -179.34296)" gradientUnits="userSpaceOnUse" xlink:href="#4"/><radialGradient id="radialGradient253" cx="328" cy="255.42" r="7" gradientTransform="matrix(2.85714 0 0 2.85714 -609.14349 -473.66662)" gradientUnits="userSpaceOnUse" xlink:href="#4"/><radialGradient id="radialGradient255" cx="328" cy="255.42" r="7" gradientTransform="matrix(2.85714 0 0 2.85714 -609.14349 -473.66662)" gradientUnits="userSpaceOnUse" xlink:href="#4"/><radialGradient id="radialGradient257" cx="328" cy="255.42" r="7" gradientTransform="matrix(1.22449 0 0 1.22449 49.7555 -179.34296)" gradientUnits="userSpaceOnUse" xlink:href="#4"/><radialGradient id="radialGradient259" cx="328" cy="255.42" r="7" gradientTransform="matrix(1.22449 0 0 1.22449 49.7555 -179.34296)" gradientUnits="userSpaceOnUse" xlink:href="#4"/><linearGradient id="D" x2="0" y1="1050.36" y2="1006.36" gradientTransform="matrix(0.28222223,0,0,0.28222223,0,-283.45334)" gradientUnits="userSpaceOnUse" xlink:href="#6"/><radialGradient id="radialGradient3025" cx="148.004" cy="160" r="128" gradientTransform="matrix(0.05167489,0,0,0.05167489,-0.87511191,-1.4947616)" gradientUnits="userSpaceOnUse" spreadMethod="pad" xlink:href="#linearGradient4460-0"/><linearGradient id="linearGradient4460-0"><stop id="stop8-7-0" offset="0" stop-color="#747474" stop-opacity="1"/><stop id="stop10-4-4" offset="1" stop-color="#2d2d2d" stop-opacity="1"/></linearGradient><radialGradient id="radialGradient3030" cx="148.004" cy="160" r="128" gradientTransform="matrix(0.05167489,0,0,0.05167489,-0.87511191,-1.4947613)" gradientUnits="userSpaceOnUse" spreadMethod="pad" xlink:href="#linearGradient4460-0"/></defs><path id="path11" fill="url(#radialGradient3030)" fill-opacity="1" d="m 13.387776,3.2589204 0,7.0290976 c 0,2.892778 0,3.100035 -3.100035,3.100035 l -7.0279949,0 c -3.10113721,0 -3.10113721,-0.207257 -3.10113721,-3.100035 l 0,-7.0290976 c 0,-2.8927775 0,-3.1000345 3.10113721,-3.1000345 l 7.0279949,0 c 3.100035,0 3.100035,0.207257 3.100035,3.1000345 z"/><path id="path15" fill="#fff" fill-opacity=".051" d="m 10.799269,13.388053 c 0.717682,-0.0033 1.235825,-0.02315 1.611753,-0.124575 l -1.193932,-2.04611 -1.2655902,2.170685 0.3362412,0 c 0.180799,0 0.350573,0 0.511528,0 z M 11.21709,11.217368 9.7707012,8.7368979 8.3232099,11.217368 z m 0,0 2.159662,0 c 0.0088,-0.274506 0.01102,-0.582084 0.01102,-0.930452 l 0,-0.3097838 L 12.66458,8.7368979 z M 12.664582,8.7368979 11.21709,6.2564292 9.7707012,8.7368979 z m 0,0 0.723194,0 0,-1.2402343 z m -2.8938808,0 L 8.3232099,6.2564292 6.876821,8.7368979 z m -2.8938802,0 -1.4474916,2.4804701 2.8938805,0 z m 0,0 L 5.4293294,6.2564292 3.9829405,8.7368979 z m -2.8938805,0 -1.447491,2.4804701 2.8938799,0 z m 0,0 -1.447491,-2.4804687 -1.4463892,2.4804687 z m -2.8938802,0 -0.93045141,1.5941151 c 0,0.329627 0.00331,0.623976 0.011024,0.886355 l 2.36581621,0 z m 0,0 -0.93045141,-1.5941145 0,1.5941145 z m 1.4463892,2.4804701 -1.2170833,2.0869 c 0.4508937,0.08268 1.0748698,0.08379 1.9413799,0.08379 l 0.5423958,0 z m 0,-4.9609388 -1.4463892,-2.4804689 -0.93045141,1.5941148 0,0.8863541 z m 0,0 2.8938799,0 L 3.9829405,3.7759603 z M 3.9829405,3.7759603 2.5354495,1.2954919 1.0890603,3.7759603 z m 0,0 2.8938805,0 -1.4474916,-2.4804684 z m 1.4463889,-2.4804684 -0.663663,-1.136606 -1.5059203,0 c -0.02205,0 -0.039688,0 -0.060634,0 l -0.6636626,1.136606 z m 0,0 2.8938805,0 -0.6636633,-1.136606 -1.5665538,0 z m 2.8938805,0 2.8938801,0 -0.663663,-1.136606 c -0.0882,0 -0.171979,0 -0.265686,0 l -1.300868,0 z m 0,0 -1.4463889,2.4804684 2.8938802,0 z m 1.4474913,2.4804684 2.8938808,0 -1.447492,-2.4804684 z m 0,0 -1.4474913,2.4804689 2.8938801,0 z m 1.4463888,2.4804689 2.170686,0 0,-1.2402343 -0.723194,-1.2402346 z m 1.447492,-2.4804689 0.723194,0 0,-0.5170399 c 0,-0.2579689 -0.0022,-0.4938886 -0.0066,-0.7121697 z M 8.3232099,6.2564292 6.876821,3.7759603 5.4293294,6.2564292 z m 2.8938801,-4.9609373 2.062648,0 C 13.123193,0.5171758 12.747264,0.271334 11.859807,0.1941637 z m -8.6816405,0 L 1.8850153,0.1798322 C 0.85203759,0.2382612 0.43421639,0.46095179 0.26664689,1.2954919 z M 1.0890603,3.7759603 0.17514539,2.2083045 c -0.012127,0.3031684 -0.016535,0.6515362 -0.016535,1.0506159 l 0,0.5170399 z m 4.3402691,7.4414077 -1.2655903,2.170685 2.532283,0 z m 2.8938805,0 -1.2655906,2.170685 2.5322833,0 z m -7.59133711,1.868619 -0.4519964,-0.775009 c 0.082682,0.371519 0.2215887,0.615157 0.4519964,0.775009 z"/><path id="path278" fill="#f9f9f9" fill-opacity="1" d="M 24 11 C 22.847352 11.701611 22.004093 12.841644 21.25 13.9375 C 19.576678 16.514356 18.536757 19.585413 18.6875 22.6875 C 18.679503 22.813561 18.734632 22.956844 18.59375 23.03125 C 18.088054 23.438556 17.590171 23.862542 17.09375 24.28125 C 16.236247 25.030502 15.832173 26.257412 16.0625 27.375 C 16.345918 28.696108 16.645447 29.993426 16.9375 31.3125 C 17.065696 31.924716 17.807844 32.306862 18.375 32.0625 C 18.740826 31.892169 19.00339 31.561947 19.3125 31.3125 C 19.952042 30.773512 20.532926 30.159481 21.1875 29.65625 C 21.990953 30.410266 23.110505 30.890974 24.21875 30.8125 C 25.181475 30.758917 26.090962 30.292084 26.78125 29.625 C 27.693603 30.390953 28.587381 31.20376 29.5 31.96875 C 30.049832 32.412242 30.96706 32.06917 31.125 31.375 C 31.409111 30.025736 31.669061 28.696708 31.9375 27.34375 C 32.130141 26.272732 31.768898 25.113546 30.96875 24.375 C 30.411349 23.888953 29.815823 23.413806 29.25 22.9375 C 29.465935 19.722359 28.407129 16.538306 26.65625 13.875 C 25.912924 12.798576 25.136603 11.684214 24 11 z M 24 16 C 25.656854 16 27 17.343146 27 19 C 27 20.656854 25.656854 22 24 22 C 22.343146 22 21 20.656854 21 19 C 21 17.343146 22.343146 16 24 16 z" transform="scale(0.28222223,0.28222223)"/><path id="path280" fill="#f9f9f9" fill-opacity="1" d="m 5.9266668,9.1525402 c -0.0032,-0.109769 0.1169899,-0.1795161 0.2089363,-0.1214289 0.389178,0.201228 0.872935,0.1954089 1.2620979,-0.00583 0.089314,-0.055066 0.2190047,0.011074 0.2222992,0.1178816 0.00131,0.2331345 0.00122,0.4665106 0,0.6997206 C 7.6217904,9.9566819 7.4751304,10.029257 7.3871404,9.9580868 7.3201663,9.8987759 7.2597662,9.8320776 7.1953345,9.7698359 7.0933991,9.9692662 6.9973156,10.171718 6.8945377,10.37068 6.8451797,10.46548 6.6909527,10.46613 6.6406469,10.37228 6.5372973,10.172926 6.4418758,9.9692662 6.3379546,9.7701229 6.2744556,9.8329236 6.213875,9.8992594 6.1469911,9.9584796 6.0593772,10.029997 5.9254483,9.9908554 5.9266668,9.877778 c -0.00187,-0.2300677 -2.859e-4,-0.4950644 0,-0.7252378 z"/><circle id="circle282" cx="254.83" cy="164.51" r="20.812" fill="#f9f9f9" fill-opacity="1" transform="matrix(0.02712111,0,0,0.02712111,-0.13796578,0.90055632)"/></svg>