<svg xmlns="http://www.w3.org/2000/svg" xmlns:svg="http://www.w3.org/2000/svg" xmlns:xlink="http://www.w3.org/1999/xlink" id="svg2" width="48" height="48" version="1.1"><metadata id="metadata52"/><defs id="defs4"><linearGradient id="0" x2="0" y1="1050.36" y2="1006.36" gradientUnits="userSpaceOnUse" xlink:href="#1"/><linearGradient id="1"><stop id="stop8" stop-color="#1d1d1d"/><stop id="stop10" offset="1" stop-color="#333"/></linearGradient><radialGradient id="radialGradient3010" cx="148.004" cy="160" r="128" gradientTransform="matrix(0.1831,0,0,0.1831,-3.10079,-5.295397)" gradientUnits="userSpaceOnUse" spreadMethod="pad" xlink:href="#linearGradient4460"/><linearGradient id="linearGradient4460"><stop id="stop8-7" offset="0" stop-color="#747474" stop-opacity="1"/><stop id="stop10-4" offset="1" stop-color="#2d2d2d" stop-opacity="1"/></linearGradient><radialGradient id="radialGradient3008" cx="148.004" cy="160" r="128" gradientTransform="matrix(0.1831,0,0,0.1831,-39.10029,-1.4324722)" gradientUnits="userSpaceOnUse" spreadMethod="pad" xlink:href="#linearGradient4460"/><radialGradient id="radialGradient3010-2" cx="148.004" cy="160" r="128" gradientTransform="matrix(0.1831,0,0,0.1831,-3.10079,-5.295397)" gradientUnits="userSpaceOnUse" spreadMethod="pad" xlink:href="#linearGradient4460-0"/><linearGradient id="linearGradient4460-0"><stop id="stop8-7-0" offset="0" stop-color="#747474" stop-opacity="1"/><stop id="stop10-4-4" offset="1" stop-color="#2d2d2d" stop-opacity="1"/></linearGradient><radialGradient id="radialGradient3026" cx="148.004" cy="160" r="128" gradientTransform="matrix(0.1831,0,0,0.1831,-3.10079,-5.296397)" gradientUnits="userSpaceOnUse" spreadMethod="pad" xlink:href="#linearGradient4460-0"/><linearGradient id="linearGradient3065" x2="0" y1="1050.36" y2="1006.36" gradientUnits="userSpaceOnUse" xlink:href="#1"/><linearGradient id="linearGradient3078" x2="0" y1="1050.36" y2="1006.36" gradientTransform="translate(0,-1004.3622)" gradientUnits="userSpaceOnUse" xlink:href="#1"/></defs><path id="path11" fill="url(#radialGradient3026)" fill-opacity="1" d="m 47.437,11.547357 0,24.906249 c 0,10.250001 0,10.984376 -10.984375,10.984376 l -24.902344,0 C 0.562,47.437982 0.562,46.703607 0.562,36.453606 l 0,-24.906249 c 0,-10.2499992 0,-10.9843742 10.988281,-10.9843742 l 24.902344,0 C 47.437,0.5629828 47.437,1.2973578 47.437,11.547357 z"/><path id="path15" fill="#fff" fill-opacity=".051" d="m 38.265125,47.437982 c 2.542968,-0.01169 4.378908,-0.08203 5.710936,-0.441407 l -4.230467,-7.25 -4.484375,7.691407 1.191406,0 c 0.640626,0 1.242187,0 1.8125,0 z m 1.480469,-7.691407 -5.125,-8.789062 -5.128906,8.789062 z m 0,0 7.652345,0 c 0.03118,-0.972655 0.03905,-2.062498 0.03905,-3.296873 l 0,-1.097658 -2.562498,-4.394531 z m 5.128908,-8.789062 -5.128908,-8.789062 -5.125,8.789062 z m 0,0 2.562498,0 0,-4.394531 z m -10.253908,0 -5.128906,-8.789062 -5.125,8.789062 z m -10.253906,0 -5.128907,8.789062 10.253907,0 z m 0,0 -5.128907,-8.789062 -5.125,8.789062 z m -10.253907,0 -5.128905,8.789062 10.253905,0 z m 0,0 -5.128905,-8.789062 -5.125001,8.789062 z m -10.253906,0 L 0.562,36.605951 c 0,1.16797 0.01173,2.210938 0.03906,3.140624 l 8.382813,0 z m 0,0 -3.296875,-5.648437 0,5.648437 z m 5.125001,8.789062 -4.3125,7.394531 C 6.269031,47.434067 8.47997,47.438 11.550281,47.438 l 1.921875,0 z m 0,-17.578124 -5.125001,-8.789063 -3.296875,5.648438 0,3.140625 z m 0,0 10.253905,0 -5.125,-8.789063 z M 14.112781,13.379388 8.983876,4.5903269 3.858875,13.379388 z m 0,0 10.253907,0 -5.128907,-8.7890611 z m 5.125,-8.7890611 -2.351562,-4.0273441 -5.335938,0 c -0.07813,0 -0.140627,0 -0.214845,0 l -2.35156,4.0273441 z m 0,0 10.253907,0 -2.351563,-4.0273441 -5.550781,0 z m 10.253907,0 10.253906,0 -2.351562,-4.0273441 c -0.31252,0 -0.609375,0 -0.941407,0 l -4.609375,0 z m 0,0 -5.125,8.7890611 10.253906,0 z m 5.128906,8.7890611 10.253908,0 -5.128908,-8.7890611 z m 0,0 -5.128906,8.789063 10.253906,0 z m 5.125,8.789063 7.691406,0 0,-4.394531 -2.562498,-4.394532 z m 5.128908,-8.789063 2.562498,0 0,-1.832031 c 0,-0.914063 -0.0078,-1.7499991 -0.02338,-2.5234361 z m -15.382814,8.789063 -5.125,-8.789063 -5.128907,8.789063 z m 10.253906,-17.5781241 7.308595,0 C 46.499502,1.8325138 45.16747,0.9614208 42.022937,0.6879828 z m -30.761718,0 L 6.679188,0.6372018 C 3.019031,0.8442328 1.538562,1.6332948 0.944812,4.5903269 z M 3.858875,13.379388 0.620594,7.8247019 c -0.04297,1.074219 -0.05859,2.3085931 -0.05859,3.7226551 l 0,1.832031 z m 15.378906,26.367187 -4.484375,7.691407 8.972656,0 z m 10.253907,0 -4.484376,7.691407 8.972657,0 z M 2.59325,46.36767 0.991688,43.621575 c 0.292968,1.316406 0.785157,2.17969 1.601562,2.746095 z"/><g id="g30" fill="#f9f9f9" transform="matrix(3.543307,0,0,3.543307,2.9948148e-4,0)"><g id="g32" transform="matrix(0.13,0,0,0.125,0.05726,5.11587)"><path id="path34" d="m 67.533036,-11.575717 c -6.786951,0 -12.350206,5.5954284 -12.350206,12.42128066 0,6.82603064 5.563255,12.42128434 12.350206,12.42128434 6.786951,0 12.350205,-5.5952537 12.350205,-12.42146214 0,-6.82584946 -5.563254,-12.42128086 -12.350205,-12.42128086 z m 0,4.1694667 c 4.565201,0 8.204683,3.6603715 8.204683,8.25181396 0,4.59161454 -3.639482,8.25198944 -8.204683,8.25198944 -4.565202,0 -8.204683,-3.6603749 -8.204683,-8.25198944 0,-4.59144246 3.639481,-8.25181396 8.204683,-8.25181396 z" color="#000"/><path id="path36" d="m 72.823443,0.8314162 a 5.2929475,5.3234085 0 0 1 -10.585895,0 5.2929475,5.3234085 0 1 1 10.585895,0 z"/><path id="path38" d="m 56.944585,6.1547762 0,15.9702198 8.821576,1.77447 7.537651,-13.248361 -7.872412,0 z"/></g><g id="g40" color="#000" transform="matrix(0.03669,0,0,0.03528,2.07704,9.59553)"><path id="path42" d="m 152.97281,-54.874888 c -17.17733,0 -31.25755,14.16131 -31.25755,31.43745 C 121.71526,-6.160682 135.79548,8 152.97281,8 c 17.17728,0 31.25755,-14.160682 31.25755,-31.437438 0,-17.27614 -14.08027,-31.43745 -31.25755,-31.43745 z m 0,10.55229 c 11.55423,0 20.76552,9.26462 20.76552,20.88516 0,11.621161 -9.21129,20.884516 -20.76552,20.884516 -11.55422,0 -20.76551,-9.263355 -20.76551,-20.884516 0,-11.62054 9.21129,-20.88516 20.76551,-20.88516 z"/><path id="path44" d="m 59.25755,-98.887308 c -17.17734,0 -31.25755,14.16131 -31.25755,31.43744 0,17.27677 14.08021,31.43745 31.25755,31.43745 17.17728,0 31.25755,-14.16068 31.25755,-31.43745 0,-17.27613 -14.08027,-31.43744 -31.25755,-31.43744 z m -0.0563,12.57498 c 12.50302,0 18.75453,6.28749 18.75453,18.86246 0,12.57498 -6.25151,18.86247 -18.75453,18.86247 -12.50302,0 -18.75453,-6.28749 -18.75453,-18.86247 0,-12.57497 6.25151,-18.86246 18.75453,-18.86246 z"/></g><g id="g46" transform="matrix(0.03669,0,0,0.03528,2.07704,9.59553)"><path id="path48" d="m 66.11389,-78.688118 c -7.09133,-3.02491 -15.27825,0.3018 -18.28598,7.43684 -3.00772,7.13189 0.30258,15.36599 7.39404,18.3909 l 92.8795,41.992881 c 7.09127,3.024283 15.27819,-0.301798 18.28592,-7.43684 3.00772,-7.131901 -0.30258,-15.366621 -7.39398,-18.390911 z"/></g></g></svg>