<svg xmlns="http://www.w3.org/2000/svg" xmlns:svg="http://www.w3.org/2000/svg" xmlns:xlink="http://www.w3.org/1999/xlink" id="svg2" width="48" height="48" version="1.1"><metadata id="metadata36"/><defs id="defs4"><linearGradient id="0" x2="0" y1="1050.36" y2="1006.36" gradientUnits="userSpaceOnUse" xlink:href="#1"/><linearGradient id="1"><stop id="stop8" stop-color="#252525"/><stop id="stop10" offset="1" stop-color="#3e3e3e"/></linearGradient><radialGradient id="radialGradient3009" cx="148.004" cy="160" r="128" gradientTransform="matrix(0.05167489,0,0,0.05167489,-0.87510811,-1.4947613)" gradientUnits="userSpaceOnUse" xlink:href="#radial0"/><radialGradient id="radial0" cx="148.004" cy="160" r="128" gradientTransform="matrix(0.1831,0,0,0.1831,-3.10029,-5.29688)" gradientUnits="userSpaceOnUse"><stop id="stop7-2" offset="0" stop-color="#edaca8"/><stop id="stop9-9" offset="1" stop-color="#9e0508"/></radialGradient><radialGradient id="radialGradient3013" cx="148.004" cy="160" r="128" gradientTransform="matrix(0.1831,0,0,0.1831,-3.100773,-5.296398)" gradientUnits="userSpaceOnUse" xlink:href="#radial0"/><linearGradient id="linearGradient3032" x2="0" y1="1050.36" y2="1006.36" gradientUnits="userSpaceOnUse" xlink:href="#1"/><linearGradient id="linearGradient3037" x2="0" y1="1050.36" y2="1006.36" gradientTransform="translate(0,-1004.3622)" gradientUnits="userSpaceOnUse" xlink:href="#1"/></defs><path id="path11" fill="url(#radialGradient3013)" d="m 47.437019,11.547357 0,24.906249 c 0,10.250001 0,10.984376 -10.984376,10.984376 l -24.902344,0 c -10.988281,0 -10.988281,-0.734375 -10.988281,-10.984376 l 0,-24.906249 c 0,-10.25 0,-10.984375 10.988281,-10.984375 l 24.902344,0 c 10.984376,0 10.984376,0.734375 10.984376,10.984375 z"/><path id="path15" fill="#fff" fill-opacity=".051" d="m 38.265144,47.437982 c 2.542967,-0.01169 4.378907,-0.08203 5.710935,-0.441408 l -4.230467,-7.249999 -4.484375,7.691407 1.191406,0 c 0.640626,0 1.242188,0 1.812501,0 z m 1.480468,-7.691407 -5.125001,-8.789062 -5.128905,8.789062 z m 0,0 7.652345,0 c 0.03118,-0.972655 0.03905,-2.062499 0.03905,-3.296874 l 0,-1.097657 -2.562494,-4.394531 z m 5.128908,-8.789062 -5.128908,-8.789062 -5.125001,8.789062 z m 0,0 2.562499,0 0,-4.394531 z m -10.253909,0 -5.128905,-8.789062 -5.125,8.789062 z m -10.253905,0 -5.128909,8.789062 10.253909,0 z m 0,0 -5.128909,-8.789062 -5.124996,8.789062 z m -10.253905,0 -5.128909,8.789062 10.253905,0 z m 0,0 -5.128909,-8.789062 -5.125,8.789062 z m -10.253909,0 -3.296874,5.648438 c 0,1.167969 0.01169,2.210938 0.03905,3.140624 l 8.382809,0 z m 0,0 -3.296874,-5.648437 0,5.648437 z m 5.125,8.789062 -4.312499,7.394531 C 6.269049,47.434067 8.479988,47.438 11.550299,47.438 l 1.921875,0 z m 0,-17.578124 -5.125,-8.789063 -3.296874,5.648438 0,3.140625 z m 0,0 10.253905,0 -5.124996,-8.789063 z m 5.128909,-8.789063 -5.128909,-8.789062 -5.125,8.789062 z m 0,0 10.253905,0 -5.128909,-8.789062 z m 5.124996,-8.789062 -2.351561,-4.027344 -5.339842,0 c -0.07423,0 -0.136701,0 -0.210933,0 L 8.983896,4.590326 z m 0,0 10.253909,0 -2.351562,-4.027344 -5.550781,0 z m 10.253909,0 10.253906,0 -2.351562,-4.027344 c -0.31252,0 -0.609374,0 -0.945312,0 l -4.60547,0 z m 0,0 -5.125,8.789062 10.253905,0 z m 5.128905,8.789062 10.253909,0 -5.128908,-8.789062 z m 0,0 -5.128905,8.789063 10.253906,0 z m 5.125001,8.789063 7.691407,0 0,-4.394531 -2.562499,-4.394532 z m 5.128908,-8.789063 2.562499,0 0,-1.832031 c 0,-0.914063 -0.0078,-1.7499998 -0.02339,-2.523437 z m -15.382814,8.789063 -5.125,-8.789063 -5.128909,8.789063 z m 10.253906,-17.578125 7.308595,0 C 46.49952,1.832513 45.167488,0.96142 42.022955,0.687982 z m -30.76172,0 L 6.679205,0.637201 C 3.019046,0.844232 1.538578,1.633294 0.94483,4.590326 z m -5.125,8.789062 L 0.62061,7.824701 C 0.57763,8.89892 0.562,10.133294 0.562,11.547357 l 0,1.832031 z m 15.378905,26.367187 -4.484374,7.691407 8.972656,0 z m 10.253909,0 -4.484377,7.691407 8.972659,0 z M 2.593268,46.367669 0.991704,43.621575 c 0.292961,1.316405 0.785158,2.17969 1.601564,2.746094 z"/><path id="path32" fill="#f9f9f9" fill-opacity="1" d="m 25.892661,12.001678 -4.11893,0.07 -0.837749,0.629979 0.06981,0.07 -2.722683,0.07 0.209437,-0.279991 -6.213299,-0.139996 -0.06981,0.419987 -0.06981,0.629979 0.418875,0.769975 -0.209437,1.609944 L 12,17.251504 l 0.209438,1.329957 0.06981,1.049966 0.418873,1.399954 -0.139624,0.699977 0.06981,0.769975 0.488687,0.559982 0.139624,0.90997 -0.90756,0.34999 0.139625,2.799906 0.558499,0.419987 -0.349063,2.44992 -0.279249,0.139995 -0.209436,4.689847 0.246524,-0.03281 0.593405,0.122497 c 0,0 0.715834,0.247994 0.863928,0.29749 0.148094,0.0495 0.368696,-0.223116 0.368696,-0.223116 l 0.593405,0 0.49305,-0.09844 0.272705,0.124683 0.246525,-0.02625 0.617402,-0.04812 0.294521,-0.124684 0.124354,0.297492 0.09817,-0.07437 0.272704,-0.124684 0.567225,-0.04812 0.122172,0.172807 c 0,0 0.69128,0.07437 0.938104,0.07437 0.246825,0 0.198528,-0.199057 0.198528,-0.199057 0,0 0.07294,-0.02312 0.196349,0.100622 0.123411,0.123741 0.296702,-0.05031 0.296702,-0.05031 l 0.246526,-0.124685 0.174529,0.174995 0.172349,0.122496 0.469053,-0.09843 0.763572,0 0.174532,-0.05031 0.715576,1.014966 0.048,-0.518421 1.16063,0 c 0.09873,0 0.05018,0.345614 0.05018,0.345614 l 0.763573,-0.247179 0.394876,0.395924 0.815931,-0.520608 0.442873,-0.07437 0.863929,-0.04812 1.234806,0 1.407155,0.09843 0.370878,-0.148745 0.270523,-0.247179 0.741756,0.419986 0.541046,-0.223119 c 0,0 0.592848,0.224621 0.691579,0.249368 0.09873,0.02475 1.012278,-0.100622 1.012278,-0.100622 l 0.567225,-0.148746 -0.368695,-0.271239 0.246525,-0.09843 1.036276,0.04812 1.380976,0.347803 -0.024,-9.034081 0,-0.56873 -0.344698,0.05031 -0.445055,0.07437 0,-0.273427 0.246525,-0.223119 0.19853,-0.295302 0.048,-1.065278 -0.07418,-0.767787 -0.3207,-0.940594 -0.294521,-0.395925 -0.05018,-0.369676 0.07418,-0.247178 0.024,-0.07437 0.3207,-0.124683 0.05018,-0.124684 -0.246525,-0.419986 0.222527,-0.126871 0.349062,-0.209992 0.139625,-1.25996 0.06981,-0.839972 0,-2.939905 -0.209437,-0.839971 0.139625,-0.90997 0.06981,-0.349988 -0.628311,-0.279992 -2.373621,-0.419986 -0.349061,0.489984 -0.139625,-0.559982 -4.537804,-0.07 -0.139625,0.769975 -1.116996,0.139996 -0.139625,-0.489984 -0.977374,-0.139996 0.349063,-0.419986 z m -8.870534,3.952682 16.242281,11.037764 -1.284983,4.602349 -3.060836,0.100622 -14.167546,-15.145754 2.271084,-0.594979 z m 12.884744,0.199055 1.778033,0.938407 -0.495231,3.464887 -0.344698,0.100622 -4.738515,-3.613633 3.800411,-0.890283 z m -13.327616,9.948426 4.836687,4.849527 -2.912484,1.03903 -1.529327,-0.09843 -1.876207,-1.583698 1.481331,-4.206424 z"/></svg>