<svg xmlns="http://www.w3.org/2000/svg" xmlns:svg="http://www.w3.org/2000/svg" xmlns:xlink="http://www.w3.org/1999/xlink" id="svg2" width="48" height="48" version="1.1"><metadata id="metadata34"/><defs id="defs4"><linearGradient id="0" x2="0" y1="1050.36" y2="1006.36" gradientUnits="userSpaceOnUse" xlink:href="#1"/><linearGradient id="1"><stop id="stop8" stop-color="#520000"/><stop id="stop10" offset="1" stop-color="#c22"/></linearGradient><radialGradient id="radialGradient3009" cx="148.004" cy="160" r="128" gradientTransform="matrix(0.05167489,0,0,0.05167489,-0.87510811,-1.4947613)" gradientUnits="userSpaceOnUse" xlink:href="#radial0"/><radialGradient id="radial0" cx="148.004" cy="160" r="128" gradientTransform="matrix(0.1831,0,0,0.1831,-3.10029,-5.29688)" gradientUnits="userSpaceOnUse"><stop id="stop7-2" offset="0" stop-color="#edaca8"/><stop id="stop9-9" offset="1" stop-color="#9e0508"/></radialGradient><radialGradient id="radialGradient3049" cx="148.004" cy="160" r="128" gradientTransform="matrix(0.1831,0,0,0.1831,-3.100773,-5.296399)" gradientUnits="userSpaceOnUse" xlink:href="#radial0"/><linearGradient id="linearGradient3030" x2="0" y1="1050.36" y2="1006.36" gradientUnits="userSpaceOnUse" xlink:href="#1"/><linearGradient id="linearGradient3034" x2="0" y1="1050.36" y2="1006.36" gradientTransform="translate(0,-1004.3622)" gradientUnits="userSpaceOnUse" xlink:href="#1"/></defs><path id="path11" fill="url(#radialGradient3049)" d="m 47.437018,11.547357 0,24.906249 c 0,10.250001 0,10.984376 -10.984376,10.984376 l -24.902344,0 c -10.98828,0 -10.98828,-0.734375 -10.98828,-10.984376 l 0,-24.906249 c 0,-10.2500006 0,-10.9843754 10.98828,-10.9843754 l 24.902344,0 c 10.984376,0 10.984376,0.7343748 10.984376,10.9843754 z"/><path id="path15" fill="#fff" fill-opacity=".051" d="m 38.265143,47.437982 c 2.542967,-0.01169 4.378907,-0.08203 5.710935,-0.441408 l -4.230467,-7.249999 -4.484375,7.691407 1.191406,0 c 0.640626,0 1.242188,0 1.812501,0 z m 1.480468,-7.691407 -5.125001,-8.789062 -5.128905,8.789062 z m 0,0 7.652345,0 c 0.03118,-0.972655 0.03905,-2.062499 0.03905,-3.296874 l 0,-1.097657 -2.562494,-4.394531 z m 5.128908,-8.789062 -5.128908,-8.789062 -5.125001,8.789062 z m 0,0 2.562499,0 0,-4.394531 z m -10.253909,0 -5.128905,-8.789062 -5.125,8.789062 z m -10.253905,0 -5.128909,8.789062 10.253909,0 z m 0,0 -5.128909,-8.789062 -5.124996,8.789062 z m -10.253905,0 -5.128909,8.789062 10.253905,0 z m 0,0 -5.128909,-8.789062 -5.125,8.789062 z m -10.253909,0 -3.296873,5.648438 c 0,1.167969 0.01169,2.210938 0.03905,3.140624 l 8.382809,0 z m 0,0 -3.296873,-5.648437 0,5.648437 z m 5.125,8.789062 -4.312498,7.394531 C 6.269049,47.434067 8.479987,47.438 11.550298,47.438 l 1.921875,0 z m 0,-17.578124 -5.125,-8.789063 -3.296873,5.648438 0,3.140625 z m 0,0 10.253905,0 L 14.1128,13.379388 z M 14.1128,13.379388 8.983891,4.5903255 l -5.125,8.7890625 z m 0,0 10.253905,0 -5.128909,-8.7890625 z m 5.124996,-8.7890625 -2.351561,-4.0273439 -5.339842,0 c -0.07423,0 -0.136701,0 -0.210933,0 L 8.983895,4.5903255 z m 0,0 10.253909,0 -2.351562,-4.0273439 -5.550781,0 z m 10.253909,0 10.253906,0 -2.351562,-4.0273439 c -0.31252,0 -0.609374,0 -0.945312,0 l -4.60547,0 z m 0,0 -5.125,8.7890625 10.253905,0 z m 5.128905,8.7890625 10.253909,0 -5.128908,-8.7890625 z m 0,0 -5.128905,8.789063 10.253906,0 z m 5.125001,8.789063 7.691407,0 0,-4.394531 -2.562499,-4.394532 z m 5.128908,-8.789063 2.562499,0 0,-1.832031 c 0,-0.914063 -0.0078,-1.7500005 -0.02339,-2.5234374 z m -15.382814,8.789063 -5.125,-8.789063 -5.128909,8.789063 z m 10.253906,-17.5781255 7.308595,0 C 46.499519,1.8325127 45.167487,0.9614197 42.022954,0.6879817 z m -30.76172,0 L 6.679204,0.6372004 C 3.019046,0.8442316 1.538578,1.6332935 0.944829,4.5903255 z M 3.858891,13.379388 0.62061,7.8247004 C 0.57763,8.8989195 0.562,10.133294 0.562,11.547357 l 0,1.832031 z m 15.378905,26.367187 -4.484374,7.691407 8.972656,0 z m 10.253909,0 -4.484377,7.691407 8.972659,0 z M 2.593268,46.367669 0.991704,43.621575 c 0.29296,1.316405 0.785158,2.17969 1.601564,2.746094 z"/><path id="path30" fill="#f9f9f9" d="m 20.214564,30.7825 -7.177295,5.2099 c -1.149332,0.1574 -1.303403,-2.1931 -0.66018,-2.6451 l 5.943874,-3.9592 -0.06748,-1.2335 1.189488,0.457 c 4.225315,-3.2733 11.092678,-10.2602 16.037263,-16.5684 0.19637,-0.2925 0.613495,0.9775 0.50074,1.4048 -5.085258,6.5876 -9.521231,11.0355 -15.02408,16.6772 l 0.445799,1.1353 z"/></svg>