<svg xmlns="http://www.w3.org/2000/svg" xmlns:svg="http://www.w3.org/2000/svg" xmlns:xlink="http://www.w3.org/1999/xlink" id="svg2" width="48" height="48" version="1.1" viewBox="0 0 13.547 13.547"><metadata id="metadata150"/><defs id="defs4"><clipPath id="clipPath6"><rect id="rect8" width="16" height="16" x="432" y="116" color="#bebebe" rx="3"/></clipPath><clipPath id="clipPath10"><rect id="rect12" width="22" height="22" x="433" y="77" color="#bebebe" rx="5"/></clipPath><clipPath id="clipPath14"><rect id="rect16" width="20" height="20" x="434" y="78" color="#bebebe" rx="4"/></clipPath><clipPath id="clipPath18"><rect id="rect20" width="60" height="60" x="306" y="142" fill="url(#3)" color="#bebebe" rx="12.5" transform="matrix(0 -1 1 0 0 0)"/></clipPath><clipPath id="clipPath22"><rect id="rect24" width="22" height="22" x="433" y="77" color="#bebebe" rx="4"/></clipPath><clipPath id="clipPath26"><rect id="rect28" width="30" height="30" x="433" y="29" color="#bebebe" rx="6"/></clipPath><clipPath id="clipPath30"><rect id="rect32" width="42" height="42" x="307" y="223" fill="url(#6)" color="#bebebe" rx="9" transform="rotate(90)"/></clipPath><clipPath id="clipPath34"><rect id="rect36" width="22" height="22" x="433" y="77" color="#bebebe" rx="5"/></clipPath><clipPath id="clipPath38"><rect id="rect40" width="90" height="90" x="307" y="31" fill="url(#0)" color="#bebebe" rx="18.75"/></clipPath><clipPath id="clipPath42"><rect id="rect44" width="22" height="22" x="433" y="77" fill="#6d6d6d" color="#bebebe" opacity=".2" rx="3"/></clipPath><clipPath id="clipPath46"><rect id="rect48" width="16" height="16" x="432" y="116" fill="#6d6d6d" color="#bebebe" opacity=".2" rx="2"/></clipPath><clipPath id="clipPath50"><rect id="rect52" width="30" height="30" x="433" y="29" fill="#6d6d6d" color="#bebebe" opacity=".2" rx="4"/></clipPath><clipPath id="clipPath54"><rect id="rect56" width="30" height="30" x="433" y="29" color="#bebebe" rx="6"/></clipPath><clipPath id="clipPath58"><rect id="rect60" width="16" height="16" x="432" y="116" fill="#6d6d6d" color="#bebebe" opacity=".2" rx="2"/></clipPath><clipPath id="clipPath62"><rect id="rect64" width="90" height="90" x="307" y="31" fill="url(#5)" color="#bebebe" rx="18.75"/></clipPath><clipPath id="clipPath66"><path id="path68" d="m 104,100 0,40 -40,0 0,40 40,0 0,40 40,0 80,0 0,-120 -80,0 -40,0 z"/></clipPath><clipPath id="clipPath70"><rect id="rect72" width="240" height="240" x="24" y="36" fill="#986767" color="#bebebe" rx="50"/></clipPath><clipPath id="clipPath74"><rect id="rect76" width="240" height="240" x="24" y="36" fill="#986767" color="#bebebe" rx="50"/></clipPath><clipPath id="clipPath78"><rect id="rect80" width="22" height="22" x="433" y="77" fill="#6d6d6d" color="#bebebe" opacity=".2" rx="3"/></clipPath><clipPath id="clipPath82"><rect id="rect84" width="22" height="22" x="433" y="77" color="#bebebe" rx="4"/></clipPath><clipPath id="clipPath86"><rect id="rect88" width="30" height="30" x="433" y="29" fill="#6d6d6d" color="#bebebe" opacity=".2" rx="4"/></clipPath><clipPath id="clipPath90"><rect id="rect92" width="60" height="60" x="306" y="142" fill="url(#4)" color="#bebebe" rx="12.5" transform="matrix(0 -1 1 0 0 0)"/></clipPath><clipPath id="clipPath94"><rect id="rect96" width="16" height="16" x="432" y="116" color="#bebebe" rx="3"/></clipPath><clipPath id="clipPath98"><rect id="rect100" width="20" height="20" x="434" y="78" color="#bebebe" rx="4"/></clipPath><clipPath id="clipPath102"><rect id="rect104" width="42" height="42" x="307" y="223" fill="url(#2)" color="#bebebe" rx="9" transform="rotate(90)"/></clipPath><linearGradient id="0" x2="0" y1="230" y2="90" gradientTransform="matrix(.375 0 0 .375 298 16)" gradientUnits="userSpaceOnUse" xlink:href="#7"/><linearGradient id="1"><stop id="stop108" stop-color="#333"/><stop id="stop110" offset="1" stop-color="#666"/></linearGradient><linearGradient id="2" x2="0" y1="280" y2="40" gradientTransform="matrix(.175 0 0 .175 302.79999 215.99997)" gradientUnits="userSpaceOnUse" xlink:href="#8"/><linearGradient id="3" x2="0" y1="230" y2="90" gradientTransform="matrix(.25 0 0 .25 299.99999 131.99999)" gradientUnits="userSpaceOnUse" xlink:href="#7"/><linearGradient id="4" x2="0" y1="230" y2="90" gradientTransform="matrix(.25 0 0 .25 299.99999 131.99999)" gradientUnits="userSpaceOnUse" xlink:href="#8"/><linearGradient id="5" x2="0" y1="230" y2="90" gradientTransform="matrix(.375 0 0 .375 298 16)" gradientUnits="userSpaceOnUse" xlink:href="#8"/><linearGradient id="6" x2="0" y1="280" y2="40" gradientTransform="matrix(.175 0 0 .175 302.79999 215.99997)" gradientUnits="userSpaceOnUse" xlink:href="#7"/><linearGradient id="7"><stop id="stop118" stop-color="#323232"/><stop id="stop120" offset="1" stop-color="#767676"/></linearGradient><linearGradient id="8"><stop id="stop123" stop-color="#f3f3f3"/><stop id="stop125" offset="1" stop-color="#fff"/></linearGradient><linearGradient id="9" x2="0" y1="1050.36" y2="1006.36" gradientTransform="matrix(0.28222223,0,0,0.28222223,0,-283.45334)" gradientUnits="userSpaceOnUse" xlink:href="#1"/><radialGradient id="radialGradient3027" cx="148.004" cy="160" r="128" gradientTransform="matrix(0.05167489,0,0,0.05167489,-0.87510811,-1.4947562)" gradientUnits="userSpaceOnUse" xlink:href="#radial0"/><radialGradient id="radial0" cx="148.004" cy="160" r="128" gradientTransform="matrix(0.1831,0,0,0.1831,-3.10029,-5.29688)" gradientUnits="userSpaceOnUse"><stop id="stop7-9" offset="0" stop-color="#ccfcff" stop-opacity="1"/><stop id="stop9-9" offset="1" stop-color="#66c3ce" stop-opacity="1"/></radialGradient><radialGradient id="radialGradient3009" cx="148.004" cy="160" r="128" gradientTransform="matrix(0.05167489,0,0,0.05167489,-0.87510811,-1.4947562)" gradientUnits="userSpaceOnUse" xlink:href="#radial0"/></defs><path id="path11" fill="url(#radialGradient3009)" d="m 13.387777,3.2589259 0,7.0290971 c 0,2.892778 0,3.100035 -3.100035,3.100035 l -7.0279915,0 c -3.10113861,0 -3.10113861,-0.207257 -3.10113861,-3.100035 l 0,-7.0290971 c 0,-2.89277789 0,-3.10003479 3.10113861,-3.10003479 l 7.0279915,0 c 3.100035,0 3.100035,0.2072569 3.100035,3.10003479 z"/><path id="path15" fill="#fff" fill-opacity=".051" d="m 10.79927,13.388058 c 0.717682,-0.0033 1.235825,-0.02315 1.611753,-0.124574 l -1.193932,-2.046112 -1.2655875,2.170686 0.3362385,0 c 0.180799,0 0.350573,0 0.511528,0 z M 11.217091,11.217372 9.7707045,8.7369034 8.3232135,11.217372 z m 0,0 2.159662,0 c 0.0088,-0.274505 0.01102,-0.582083 0.01102,-0.930451 l 0,-0.3097833 L 12.66458,8.7369034 z M 12.664582,8.7369034 11.217091,6.2564347 9.7707045,8.7369034 z m 0,0 0.723195,0 0,-1.2402343 z m -2.8938775,0 -1.447491,-2.4804687 -1.446389,2.4804687 z m -2.89388,0 -1.447491,2.4804686 2.89388,0 z m 0,0 -1.447491,-2.4804687 -1.446389,2.4804687 z m -2.89388,0 -1.447491,2.4804686 2.89388,0 z m 0,0 -1.447491,-2.4804687 -1.446389,2.4804687 z m -2.89388,0 -0.93045261,1.5941146 c 0,0.329627 0.0033,0.623976 0.01103,0.886354 l 2.36581661,0 z m 0,0 -0.93045261,-1.5941145 0,1.5941145 z m 1.446389,2.4804686 -1.217084,2.086901 c 0.450894,0.08268 1.07487,0.08378 1.941381,0.08378 l 0.542395,0 z m 0,-4.9609373 -1.446389,-2.4804689 -0.93045261,1.5941147 0,0.8863542 z m 0,0 2.89388,0 -1.446389,-2.4804689 z M 3.9829445,3.7759658 2.5354535,1.295497 1.0890645,3.7759658 z m 0,0 2.89388,0 -1.447491,-2.4804688 z m 1.446389,-2.4804688 -0.663663,-1.13660589 -1.507023,0 c -0.02095,0 -0.03858,0 -0.05953,0 L 2.5354545,1.295497 z m 0,0 2.89388,0 -0.663663,-1.13660589 -1.566554,0 z m 2.89388,0 2.8938775,0 -0.663663,-1.13660589 c -0.08819,0 -0.171979,0 -0.266788,0 l -1.2997635,0 z m 0,0 -1.446389,2.4804688 2.89388,0 z m 1.447491,2.4804688 2.8938775,0 -1.447491,-2.4804688 z m 0,0 -1.447491,2.4804689 2.8938775,0 z m 1.4463865,2.4804689 2.170686,0 0,-1.2402343 -0.723195,-1.2402346 z m 1.447491,-2.4804689 0.723195,0 0,-0.5170399 c 0,-0.2579689 -0.0022,-0.493889 -0.0066,-0.7121701 z M 8.3232135,6.2564347 6.8768245,3.7759658 5.4293335,6.2564347 z m 2.8938775,-4.9609377 2.062648,0 C 13.123194,0.51718081 12.747265,0.27133881 11.859808,0.19416861 z m -8.6816375,0 -0.650434,-1.11565999 C 0.85204149,0.23826601 0.43421989,0.46095681 0.26665089,1.295497 z M 1.0890645,3.7759658 0.17514889,2.2083095 c -0.01213,0.3031685 -0.01654,0.6515364 -0.01654,1.0506164 l 0,0.5170399 z m 4.340269,7.4414062 -1.26559,2.170686 2.532282,0 z m 2.89388,0 -1.26559,2.170686 2.532283,0 z m -7.59133701,1.86862 -0.4519966,-0.775009 c 0.08268,0.37152 0.221588,0.615157 0.4519966,0.775009 z"/><path id="path146" fill="#f9f9f9" fill-opacity="1" d="m 6.7736315,2.5396669 c -2.3379867,0 -4.2333,1.8953134 -4.2333,4.2333 0,2.3379867 1.8953133,4.2333001 4.2333,4.2333001 2.3379867,0 4.2333005,-1.8953134 4.2333005,-4.2333001 0,-2.3379866 -1.8953138,-4.2333 -4.2333005,-4.2333 z m 0,0.84666 c 1.8703905,0 3.3866405,1.5162496 3.3866405,3.38664 0,1.8703905 -1.51625,3.3866401 -3.3866405,3.3866401 -1.8703905,0 -3.38664,-1.5162496 -3.38664,-3.3866401 0,-1.8703904 1.5162495,-3.38664 3.38664,-3.38664 z m -1.0054087,1.1641575 0,0.6779884 0.5771173,0 C 6.4006693,5.4238255 6.5020907,5.5717681 6.5454312,5.779132 6.0508435,6.6232803 5.4834317,7.5432441 4.9910143,8.3604544 4.9273003,8.4661882 4.8326776,8.5936613 4.8405346,8.7126791 l 0.8516214,0 C 6.1261765,8.0938102 6.5010437,7.4143627 6.9472645,6.8076941 7.195113,7.5124511 7.4904872,8.1693153 7.7244702,8.8879631 8.199026,8.7692896 8.6774143,8.6548804 9.0771422,8.4613255 8.9643981,8.2732231 8.9473859,7.9906475 8.8274452,7.8097952 8.6383099,7.8880351 8.4423081,7.9592928 8.2255208,8.0098836 7.8203432,6.8273959 7.3276632,5.7329213 6.9224574,4.5504844 l -1.1542346,0 z"/></svg>