<svg xmlns="http://www.w3.org/2000/svg" xmlns:svg="http://www.w3.org/2000/svg" xmlns:xlink="http://www.w3.org/1999/xlink" id="svg2" width="48" height="48" version="1.1" viewBox="0 0 13.547 13.547"><metadata id="metadata22"/><defs id="defs4"><linearGradient id="linearGradient4460"><stop id="stop7" offset="0" stop-color="#58246d" stop-opacity="1"/><stop id="stop9" offset="1" stop-color="#8e6394" stop-opacity="1"/></linearGradient><linearGradient id="linearGradient3001" x2="0" y1="279.096" y2="268.33" gradientTransform="matrix(1.10526,0,0,1.10526,-134.28025,-295.76491)" gradientUnits="userSpaceOnUse" xlink:href="#linearGradient4460"/><linearGradient id="linearGradient3000" x2="0" y1="279.096" y2="268.33" gradientTransform="matrix(1.10526,0,0,1.10526,-134.28025,-295.76491)" gradientUnits="userSpaceOnUse" xlink:href="#linearGradient4460"/><linearGradient id="linearGradient3013" x2="0" y1="1050.36" y2="1006.36" gradientTransform="translate(0,-1004.3622)" gradientUnits="userSpaceOnUse" xlink:href="#1"/><linearGradient id="1"><stop id="stop8" stop-color="#dbdbdb"/><stop id="stop10" offset="1" stop-color="#f9f9f9"/></linearGradient><linearGradient id="linearGradient3330" x2="0" y1="1050.36" y2="1006.36" gradientTransform="translate(0,-1004.3622)" gradientUnits="userSpaceOnUse" xlink:href="#1"/><linearGradient id="linearGradient3034" x2="0" y1="1050.36" y2="1006.36" gradientTransform="matrix(0.28222223,0,0,0.28222223,0,-283.45334)" gradientUnits="userSpaceOnUse" xlink:href="#linearGradient4460"/><radialGradient id="radialGradient3021" cx="148.004" cy="160" r="128" gradientTransform="matrix(0.1831,0,0,0.1831,-3.10079,-5.29638)" gradientUnits="userSpaceOnUse" xlink:href="#radial0"/><radialGradient id="radial0" cx="148.004" cy="160" r="128" gradientTransform="matrix(0.1831,0,0,0.1831,-3.10029,-5.29688)" gradientUnits="userSpaceOnUse"><stop id="stop7-8" offset="0" stop-color="#e4c9ff"/><stop id="stop9-1" offset="1" stop-color="#5c2892"/></radialGradient><radialGradient id="radialGradient3018" cx="148.004" cy="160" r="128" gradientTransform="matrix(0.05167489,0,0,0.05167489,-0.87510911,-1.4947612)" gradientUnits="userSpaceOnUse" xlink:href="#radial0"/></defs><path id="path11" fill="url(#radialGradient3018)" d="m 13.387779,3.2589209 0,7.0290971 c 0,2.892778 0,3.100035 -3.100035,3.100035 l -7.0279951,0 c -3.10113701,0 -3.10113701,-0.207257 -3.10113701,-3.100035 l 0,-7.0290971 c 0,-2.89277779 0,-3.10003479 3.10113701,-3.10003479 l 7.0279951,0 c 3.100035,0 3.100035,0.207257 3.100035,3.10003479 z"/><path id="path15" fill="#fff" fill-opacity=".051" d="m 10.799272,13.388053 c 0.717682,-0.0033 1.235825,-0.02315 1.611753,-0.124575 l -1.193932,-2.046111 -1.2655901,2.170686 0.3362411,0 c 0.180799,0 0.350573,0 0.511528,0 z M 11.217093,11.217367 9.7707039,8.7368984 8.3232129,11.217367 z m 0,0 2.159662,0 c 0.0088,-0.274505 0.01102,-0.582083 0.01102,-0.930451 l 0,-0.3097833 -0.723194,-1.2402343 z M 12.664585,8.7368984 11.217093,6.2564297 9.7707039,8.7368984 z m 0,0 0.723194,0 0,-1.2402343 z m -2.8938811,0 -1.447491,-2.4804687 -1.446389,2.4804687 z m -2.89388,0 -1.447491,2.4804686 2.89388,0 z m 0,0 -1.447491,-2.4804687 -1.446389,2.4804687 z m -2.89388,0 -1.447492,2.4804686 2.893881,0 z m 0,0 -1.447492,-2.4804687 -1.446388,2.4804687 z m -2.89388,0 -0.93045201,1.5941146 c 0,0.329627 0.0033,0.623976 0.01102,0.886354 l 2.36581601,0 z m 0,0 -0.93045201,-1.5941145 0,1.5941145 z m 1.446388,2.4804686 -1.217083,2.086901 c 0.450894,0.08268 1.07487,0.08379 1.940278,0.08379 l 0.543498,0 z m 0,-4.9609373 -1.446388,-2.4804689 -0.93045201,1.5941147 0,0.8863542 z m 0,0 2.893881,0 -1.446389,-2.4804689 z M 3.9829439,3.7759608 2.5354519,1.2954921 1.0890639,3.7759608 z m 0,0 2.89388,0 -1.447491,-2.4804687 z m 1.446389,-2.4804687 -0.663663,-1.13660599 -1.507023,0 c -0.02095,0 -0.03858,0 -0.05953,0 L 2.5354529,1.2954921 z m 0,0 2.89388,0 -0.663663,-1.13660599 -1.566554,0 z m 2.89388,0 2.8938801,0 -0.663663,-1.13660599 c -0.0882,0 -0.171979,0 -0.266788,0 l -1.2997661,0 z m 0,0 -1.446389,2.4804687 2.89388,0 z m 1.447491,2.4804687 2.8938811,0 -1.447492,-2.4804687 z m 0,0 -1.447491,2.4804689 2.8938801,0 z m 1.4463891,2.4804689 2.170686,0 0,-1.2402343 -0.723194,-1.2402346 z m 1.447492,-2.4804689 0.723194,0 0,-0.5170399 c 0,-0.2579689 -0.0022,-0.4938889 -0.0066,-0.71217 z M 8.3232129,6.2564297 6.8768239,3.7759608 5.4293329,6.2564297 z m 2.8938801,-4.9609376 2.062648,0 C 13.123196,0.51717601 12.747267,0.27133421 11.85981,0.19416391 z m -8.6816411,0 -0.650433,-1.11565969 C 0.85204089,0.23826141 0.43421989,0.46095191 0.26664989,1.2954921 z M 1.0890639,3.7759608 0.17514889,2.2083046 c -0.01213,0.3031685 -0.01654,0.6515363 -0.01654,1.0506163 l 0,0.5170399 z m 4.340269,7.4414062 -1.265591,2.170686 2.532283,0 z m 2.89388,0 -1.26559,2.170686 2.532283,0 z m -7.59133701,1.86862 -0.451996,-0.775009 c 0.08268,0.371519 0.221588,0.615157 0.451996,0.775009 z"/><path id="rect3000-2" fill="#f9f9f9" fill-opacity="1" stroke-dasharray="none" stroke-miterlimit="4" stroke-width="0" d="M 24 12 L 24 17 L 16 17 L 16 21 L 12 21 L 12 23 L 12 27 L 14 27 L 14 23 L 16 23 L 16 32 L 20 32 L 20 34 L 16 34 L 16 36 L 22 36 L 22 34 L 22 32 L 32 32 L 32 31 L 34 31 L 34 35 L 36 35 L 36 29 L 32 29 L 32 26 L 36 26 L 36 24 L 36 20 L 34 20 L 34 24 L 32 24 L 32 20 L 32 17 L 32 12 L 24 12 z" transform="scale(0.28222223,0.28222223)"/></svg>