<svg xmlns="http://www.w3.org/2000/svg" xmlns:svg="http://www.w3.org/2000/svg" xmlns:xlink="http://www.w3.org/1999/xlink" id="svg2" width="48" height="48" version="1.1"><metadata id="metadata58"/><defs id="defs4"><linearGradient id="0" x2="0" y1="1050.36" y2="1006.36" gradientUnits="userSpaceOnUse" xlink:href="#1"/><linearGradient id="1"><stop id="stop8" stop-color="#c8c8c8"/><stop id="stop10" offset="1" stop-color="#eee"/></linearGradient><radialGradient id="radial0" cx="148.004" cy="160" r="128" gradientTransform="matrix(0.1831,0,0,0.1831,-3.10029,-5.29688)" gradientUnits="userSpaceOnUse"><stop id="stop7" offset="0" stop-color="#e4c9ff"/><stop id="stop9" offset="1" stop-color="#5c2892"/></radialGradient><radialGradient id="radialGradient3021" cx="148.004" cy="160" r="128" gradientTransform="matrix(0.1831,0,0,0.1831,-3.10079,-5.29638)" gradientUnits="userSpaceOnUse" xlink:href="#radial0"/><linearGradient id="linearGradient3074" x2="0" y1="1050.36" y2="1006.36" gradientTransform="translate(0,-1004.3622)" gradientUnits="userSpaceOnUse" xlink:href="#1"/></defs><path id="path11" fill="url(#radialGradient3021)" d="m 47.437,11.547375 0,24.90625 c 0,10.25 0,10.984375 -10.984375,10.984375 l -24.902344,0 C 0.562,47.438 0.562,46.703625 0.562,36.453625 l 0,-24.90625 c 0,-10.2500001 0,-10.9843751 10.988281,-10.9843751 l 24.902344,0 C 47.437,0.5629999 47.437,1.2973749 47.437,11.547375 z"/><path id="path15" fill="#fff" fill-opacity=".051" d="m 38.265125,47.438 c 2.542969,-0.01172 4.378906,-0.08203 5.710937,-0.441406 l -4.230468,-7.25 -4.484375,7.691406 1.191406,0 c 0.640625,0 1.242187,0 1.8125,0 z m 1.480469,-7.691406 -5.125,-8.789063 -5.128906,8.789063 z m 0,0 7.652344,0 c 0.03125,-0.972656 0.03906,-2.0625 0.03906,-3.296875 l 0,-1.097657 -2.5625,-4.394531 z m 5.128906,-8.789063 -5.128906,-8.789062 -5.125,8.789062 z m 0,0 2.5625,0 0,-4.394531 z m -10.253906,0 -5.128906,-8.789062 -5.125,8.789062 z m -10.253906,0 -5.128907,8.789063 10.253907,0 z m 0,0 -5.128907,-8.789062 -5.125,8.789062 z m -10.253907,0 -5.128906,8.789063 10.253906,0 z m 0,0 -5.128906,-8.789062 -5.125,8.789062 z m -10.253906,0 L 0.562,36.605969 c 0,1.167969 0.011719,2.210937 0.039062,3.140625 l 8.382813,0 z m 0,0 -3.296875,-5.648437 0,5.648437 z m 5.125,8.789063 -4.3125,7.394531 c 1.597656,0.292969 3.808594,0.296875 6.875,0.296875 l 1.925781,0 z m 0,-17.578125 -5.125,-8.789063 -3.296875,5.648438 0,3.140625 z m 0,0 10.253906,0 -5.125,-8.789063 z m 5.128906,-8.789063 -5.128906,-8.7890621 -5.125,8.7890621 z m 0,0 10.253907,0 -5.128907,-8.7890621 z m 5.125,-8.7890621 -2.351562,-4.027344 -5.339844,0 c -0.07422,0 -0.136719,0 -0.210937,0 l -2.351563,4.027344 z m 0,0 10.253907,0 -2.351563,-4.027344 -5.550781,0 z m 10.253907,0 10.253906,0 -2.351563,-4.027344 c -0.3125,0 -0.609375,0 -0.945312,0 l -4.605469,0 z m 0,0 -5.125,8.7890621 10.253906,0 z m 5.128906,8.7890621 10.253906,0 -5.128906,-8.7890621 z m 0,0 -5.128906,8.789063 10.253906,0 z m 5.125,8.789063 7.691406,0 0,-4.394531 -2.5625,-4.394532 z m 5.128906,-8.789063 2.5625,0 0,-1.832031 c 0,-0.914063 -0.0078,-1.7500001 -0.02344,-2.5234371 z m -15.382812,8.789063 -5.125,-8.789063 -5.128907,8.789063 z m 10.253906,-17.5781251 7.308594,0 C 46.4995,1.8325309 45.167469,0.9614379 42.022938,0.6879999 z m -30.761719,0 -2.304687,-3.953125 C 3.019031,0.8442499 1.538562,1.6333119 0.944812,4.5903439 z M 3.858875,13.379406 0.620594,7.8247189 C 0.577625,8.8989379 0.562,10.133312 0.562,11.547375 l 0,1.832031 z m 15.378906,26.367188 -4.484375,7.691406 8.972656,0 z m 10.253907,0 -4.484376,7.691406 8.972657,0 z M 2.59325,46.367688 0.991688,43.621594 C 1.284656,44.938 1.776844,45.801281 2.59325,46.367688 z"/><path id="path30" fill="#f9f9f9" fill-opacity="1" d="M 24.34375 12 A 12 12 0 0 0 16.15625 14.9375 A 9 9 0 0 1 30.75 22 A 9 9 0 0 1 26.34375 29.6875 L 27 31 L 25 32 L 24.3125 30.59375 A 9 9 0 0 1 22 30.96875 L 22 32 L 19 32 L 19 30.5625 A 9 9 0 0 1 12.75 22 A 9 9 0 0 1 13.84375 17.6875 A 12 12 0 0 0 12 24 A 12 12 0 0 0 36 24 A 12 12 0 0 0 24.34375 12 z"/><path id="path34" fill="#f9f9f9" fill-opacity="1" d="m 28.306085,13.0016 2.395091,-2.6768 4.904521,4.6768 -2.604909,2 z"/><path id="path36" fill="#f9f9f9" fill-opacity="1" d="m 35.000788,22.0016 0,5 4,0 0,-5 z"/><path id="path38" fill="#f9f9f9" fill-opacity="1" d="m 25.000788,34.0016 2,4 5,-3 -2,-3 -5,2 z"/><path id="path40" fill="#f9f9f9" fill-opacity="1" d="m 14.000788,28.0016 -3,2 3,4 2,-2 z"/><path id="path42" fill="#f9f9f9" fill-opacity="1" d="m 21.000788,24.5016 c 0,0.8284 -0.89543,1.5 -2,1.5 -1.104569,0 -2,-0.6716 -2,-1.5 0,-0.8284 -0.16381,-1.2157 0.940759,-1.2157 1.104569,0 3.059241,0.3873 3.059241,1.2157 z"/><path id="path44" fill="#f9f9f9" fill-opacity="1" d="m 26.669001,23.7172 c -1.104569,0 -1.668212,-0.3872 -1.668212,-1.2156 0.378542,-1.5807 3.111875,-2.2566 4.539802,-1.6412 -0.01975,1.431 -1.832209,2.8276 -2.87159,2.8568 z"/><path id="path46" fill="#f9f9f9" fill-opacity="1" d="m 20.503237,13.9074 c 0.868276,-0.2767 1.720917,0.013 2.589193,0.593 0.344488,0.5634 -0.0023,0.8288 -0.222665,1.0659 -0.220411,0.2372 -0.205047,0.222 -0.559023,0.4353 l -1.948211,-0.066 c -1.157991,-0.4417 -0.567247,-1.6018 0.140706,-2.0283 z"/><path id="path48" fill="#f9f9f9" fill-opacity="1" d="m 20.045834,17.0016 1.532347,0 c 1.753029,0.052 2.994267,1.5224 2.153054,2 -1.228467,-0.1251 -2.456934,-0.1251 -3.685401,0 -1.572784,-0.2399 -1.201705,-1.7101 0,-2 z"/><path id="path50" fill="#f9f9f9" fill-opacity="1" d="m 21.494405,20.0016 1.002942,0.2617 c 0.824842,0.3566 0.498066,0.7373 0,0.7383 l -1.002942,-0.092 c -0.659045,-0.2648 -0.657265,-0.7678 0,-0.9076 z"/></svg>