<svg xmlns="http://www.w3.org/2000/svg" xmlns:svg="http://www.w3.org/2000/svg" xmlns:xlink="http://www.w3.org/1999/xlink" id="svg2" width="48" height="48" version="1.1" viewBox="0 0 13.547 13.547"><metadata id="metadata284"/><defs id="defs4"><clipPath id="clipPath6"><rect id="rect8" width="60" height="60" x="306" y="142" fill="url(#9)" color="#bebebe" rx="12.5" transform="matrix(0 -1 1 0 0 0)"/></clipPath><clipPath id="clipPath10"><path id="path12" d="m 328,238 c -7.73199,0 -14,6.26801 -14,14 0,7.73199 6.26801,14 14,14 7.73199,0 14,-6.26801 14,-14 0,-7.73199 -6.26801,-14 -14,-14 z m 0,8.75 c 2.89949,0 5.25,2.35051 5.25,5.25 0,2.89949 -2.35051,5.25 -5.25,5.25 -2.89949,0 -5.25,-2.35051 -5.25,-5.25 0,-2.89949 2.35051,-5.25 5.25,-5.25 z m 0,1.75 c -1.933,0 -3.5,1.567 -3.5,3.5 0,1.933 1.567,3.5 3.5,3.5 1.933,0 3.5,-1.567 3.5,-3.5 0,-1.933 -1.567,-3.5 -3.5,-3.5 z m 0,1.75 c 0.96649,0 1.75,0.78351 1.75,1.75 0,0.96649 -0.78351,1.75 -1.75,1.75 -0.96649,0 -1.75,-0.78351 -1.75,-1.75 0,-0.96649 0.78351,-1.75 1.75,-1.75 z"/></clipPath><clipPath id="clipPath14"><path id="path16" d="m 328,238 c -7.73199,0 -14,6.26801 -14,14 0,7.73199 6.26801,14 14,14 7.73199,0 14,-6.26801 14,-14 0,-7.73199 -6.26801,-14 -14,-14 z m 0,9.90625 c 2.20914,0 4,1.79086 4,4 0,2.20914 -1.79086,4 -4,4 -2.20914,0 -4,-1.79086 -4,-4 0,-2.20914 1.79086,-4 4,-4 z m 0,1 c -1.65685,0 -3,1.34315 -3,3 0,1.65685 1.34315,3 3,3 1.65685,0 3,-1.34315 3,-3 0,-1.65685 -1.34315,-3 -3,-3 z m 0,1 c 1.10457,0 2,0.89543 2,2 0,1.10457 -0.89543,2 -2,2 -1.10457,0 -2,-0.89543 -2,-2 0,-1.10457 0.89543,-2 2,-2 z"/></clipPath><clipPath id="clipPath18"><rect id="rect20" width="90" height="90" x="307" y="31" fill="url(#A)" color="#bebebe" rx="18.75"/></clipPath><clipPath id="clipPath22"><path id="path24" d="m 328,256 15,11 0,-27 -15,0 z"/></clipPath><clipPath id="clipPath26"><rect id="rect28" width="42" height="42" x="307" y="223" fill="url(#B)" color="#bebebe" rx="9" transform="rotate(90)"/></clipPath><clipPath id="clipPath30"><rect id="rect32" width="42" height="42" x="307" y="223" fill="url(#0)" color="#bebebe" rx="9" transform="rotate(90)"/></clipPath><clipPath id="clipPath34"><rect id="rect36" width="30" height="30" x="433" y="29" fill="#6d6d6d" color="#bebebe" opacity=".2" rx="4"/></clipPath><clipPath id="clipPath38"><rect id="rect40" width="60" height="60" x="306" y="142" fill="url(#1)" color="#bebebe" rx="12.5" transform="matrix(0 -1 1 0 0 0)"/></clipPath><clipPath id="clipPath42"><rect id="rect44" width="22" height="22" x="433" y="77" color="#bebebe" rx="5"/></clipPath><clipPath id="clipPath46"><rect id="rect48" width="16" height="16" x="432" y="116" color="#bebebe" rx="3"/></clipPath><clipPath id="clipPath50"><path id="path52" d="m 328,242.09376 c -7.73199,0 -14,6.26801 -14,14 0,7.73199 6.26801,14 14,14 7.73199,0 14,-6.26801 14,-14 0,-7.73199 -6.26801,-14 -14,-14 z m 0,9.90625 c 2.20914,0 4,1.79086 4,4 0,2.20914 -1.79086,4 -4,4 -2.20914,0 -4,-1.79086 -4,-4 0,-2.20914 1.79086,-4 4,-4 z m 0,1 c -1.65685,0 -3,1.34315 -3,3 0,1.65685 1.34315,3 3,3 1.65685,0 3,-1.34315 3,-3 0,-1.65685 -1.34315,-3 -3,-3 z m 0,1 c 1.10457,0 2,0.89543 2,2 0,1.10457 -0.89543,2 -2,2 -1.10457,0 -2,-0.89543 -2,-2 0,-1.10457 0.89543,-2 2,-2 z"/></clipPath><clipPath id="clipPath54"><rect id="rect56" width="22" height="22" x="433" y="77" fill="#6d6d6d" color="#bebebe" opacity=".2" rx="3"/></clipPath><clipPath id="clipPath58"><rect id="rect60" width="16" height="16" x="432" y="116" fill="#6d6d6d" color="#bebebe" opacity=".2" rx="2"/></clipPath><clipPath id="clipPath62"><rect id="rect64" width="240" height="240" x="24" y="36" fill="#986767" color="#bebebe" rx="50"/></clipPath><clipPath id="clipPath66"><rect id="rect68" width="22" height="22" x="433" y="77" color="#bebebe" rx="4"/></clipPath><clipPath id="clipPath70"><rect id="rect72" width="30" height="30" x="433" y="29" fill="#6d6d6d" color="#bebebe" opacity=".2" rx="4"/></clipPath><clipPath id="clipPath74"><rect id="rect76" width="16" height="16" x="432" y="116" fill="#6d6d6d" color="#bebebe" opacity=".2" rx="2"/></clipPath><clipPath id="clipPath78"><path id="path80" d="m 444,88 c -4.41828,0 -8,3.58172 -8,8 0,4.41828 3.58172,8 8,8 4.41828,0 8,-3.58172 8,-8 0,-4.41828 -3.58172,-8 -8,-8 z m 0,5 c 1.65685,0 3,1.34315 3,3 0,1.65685 -1.34315,3 -3,3 -1.65685,0 -3,-1.34315 -3,-3 0,-1.65685 1.34315,-3 3,-3 z m 0,1 c -1.10457,0 -2,0.89543 -2,2 0,1.10457 0.89543,2 2,2 1.10457,0 2,-0.89543 2,-2 0,-1.10457 -0.89543,-2 -2,-2 z m 0,1 c 0.55228,0 1,0.44772 1,1 0,0.55228 -0.44772,1 -1,1 -0.55228,0 -1,-0.44772 -1,-1 0,-0.55228 0.44772,-1 1,-1 z"/></clipPath><clipPath id="clipPath82"><rect id="rect84" width="22" height="22" x="433" y="77" color="#bebebe" rx="5"/></clipPath><clipPath id="clipPath86"><rect id="rect88" width="30" height="30" x="433" y="29" color="#bebebe" rx="6"/></clipPath><clipPath id="clipPath90"><path id="path92" d="m 328,242.09375 c -7.73199,0 -14,6.26801 -14,14 0,7.73199 6.26801,14 14,14 7.73199,0 14,-6.26801 14,-14 0,-7.73199 -6.26801,-14 -14,-14 z M 328,252 c 2.20914,0 4,1.79086 4,4 0,2.20914 -1.79086,4 -4,4 -2.20914,0 -4,-1.79086 -4,-4 0,-2.20914 1.79086,-4 4,-4 z m 0,1 c -1.65685,0 -3,1.34315 -3,3 0,1.65685 1.34315,3 3,3 1.65685,0 3,-1.34315 3,-3 0,-1.65685 -1.34315,-3 -3,-3 z m 0,1 c 1.10457,0 2,0.89543 2,2 0,1.10457 -0.89543,2 -2,2 -1.10457,0 -2,-0.89543 -2,-2 0,-1.10457 0.89543,-2 2,-2 z"/></clipPath><clipPath id="clipPath94"><rect id="rect96" width="240" height="240" x="24" y="36" fill="#986767" color="#bebebe" rx="50"/></clipPath><clipPath id="clipPath98"><rect id="rect100" width="30" height="30" x="433" y="29" color="#bebebe" rx="6"/></clipPath><clipPath id="clipPath102"><rect id="rect104" width="22" height="22" x="433" y="77" color="#bebebe" rx="4"/></clipPath><clipPath id="clipPath106"><path id="path108" d="m 451.38843,127.3713 c -3.31371,0 -6,2.68629 -6,6 0,3.31371 2.68629,6 6,6 3.31371,0 6,-2.68629 6,-6 0,-3.31371 -2.68629,-6 -6,-6 z m 0,3 c 1.65685,0 3,1.34315 3,3 0,1.65685 -1.34315,3 -3,3 -1.65685,0 -3,-1.34315 -3,-3 0,-1.65685 1.34315,-3 3,-3 z m 0,1 c -1.10457,0 -2,0.89543 -2,2 0,1.10457 0.89543,2 2,2 1.10457,0 2,-0.89543 2,-2 0,-1.10457 -0.89543,-2 -2,-2 z m 0,1 c 0.55228,0 1,0.44772 1,1 0,0.55228 -0.44772,1 -1,1 -0.55228,0 -1,-0.44772 -1,-1 0,-0.55228 0.44772,-1 1,-1 z"/></clipPath><clipPath id="clipPath110"><path id="path112" d="m 144.00001,75.999997 c -44.1828,0 -80,35.817203 -80,80.000003 0,44.1828 35.8172,80 80,80 44.1828,0 80,-35.8172 80,-80 0,-44.1828 -35.8172,-80.000003 -80,-80.000003 z m 0,56.607143 c 12.62366,0 22.85714,10.23349 22.85714,22.85714 0,12.62366 -10.23348,22.85714 -22.85714,22.85714 -12.62366,0 -22.85714,-10.23348 -22.85714,-22.85714 0,-12.62365 10.23348,-22.85714 22.85714,-22.85714 z m 0,5.71429 c -9.46771,0 -17.14286,7.67514 -17.14286,17.14285 0,9.46772 7.67515,17.14286 17.14286,17.14286 9.46771,0 17.14286,-7.67514 17.14286,-17.14286 0,-9.46771 -7.67515,-17.14285 -17.14286,-17.14285 z m 0,5.71428 c 6.31183,0 11.42857,5.11674 11.42857,11.42857 0,6.31183 -5.11674,11.42857 -11.42857,11.42857 -6.31183,0 -11.42857,-5.11674 -11.42857,-11.42857 0,-6.31183 5.11674,-11.42857 11.42857,-11.42857 z"/></clipPath><clipPath id="clipPath114"><rect id="rect116" width="20" height="20" x="434" y="78" color="#bebebe" rx="4"/></clipPath><clipPath id="clipPath118"><rect id="rect120" width="16" height="16" x="432" y="116" color="#bebebe" rx="3"/></clipPath><clipPath id="clipPath122"><path id="path124" d="m 451.38843,133.3713 6.42857,4.71429 0,-11.57143 -6.42857,0 z"/></clipPath><clipPath id="clipPath126"><rect id="rect128" width="20" height="20" x="434" y="78" color="#bebebe" rx="4"/></clipPath><clipPath id="clipPath130"><path id="path132" d="m 440,126 c -3.31371,0 -6,2.68629 -6,6 0,3.31371 2.68629,6 6,6 3.31371,0 6,-2.68629 6,-6 0,-3.31371 -2.68629,-6 -6,-6 z m 0,3 c 1.65685,0 3,1.34315 3,3 0,1.65685 -1.34315,3 -3,3 -1.65685,0 -3,-1.34315 -3,-3 0,-1.65685 1.34315,-3 3,-3 z m 0,1 c -1.10457,0 -2,0.89543 -2,2 0,1.10457 0.89543,2 2,2 1.10457,0 2,-0.89543 2,-2 0,-1.10457 -0.89543,-2 -2,-2 z m 0,1 c 0.55228,0 1,0.44772 1,1 0,0.55228 -0.44772,1 -1,1 -0.55228,0 -1,-0.44772 -1,-1 0,-0.55228 0.44772,-1 1,-1 z"/></clipPath><clipPath id="clipPath134"><rect id="rect136" width="16" height="16" x="432" y="116" fill="#6d6d6d" color="#bebebe" opacity=".2" rx="2"/></clipPath><clipPath id="clipPath138"><rect id="rect140" width="90" height="90" x="307" y="31" fill="url(#6)" color="#bebebe" rx="18.75"/></clipPath><clipPath id="clipPath142"><rect id="rect144" width="22" height="22" x="433" y="77" fill="#6d6d6d" color="#bebebe" opacity=".2" rx="3"/></clipPath><clipPath id="clipPath146"><rect id="rect148" width="20" height="20" x="434" y="78" color="#bebebe" rx="4"/></clipPath><clipPath id="clipPath150"><rect id="rect152" width="240" height="240" x="24" y="36" fill="#986767" color="#bebebe" rx="50"/></clipPath><clipPath id="clipPath154"><rect id="rect156" width="90" height="90" x="307" y="31" fill="url(#3)" color="#bebebe" rx="18.75"/></clipPath><clipPath id="clipPath158"><rect id="rect160" width="22" height="22" x="433" y="77" color="#bebebe" rx="4"/></clipPath><clipPath id="clipPath162"><rect id="rect164" width="30" height="30" x="433" y="29" color="#bebebe" rx="6"/></clipPath><clipPath id="clipPath166"><rect id="rect168" width="22" height="22" x="433" y="77" color="#bebebe" rx="5"/></clipPath><clipPath id="clipPath170"><rect id="rect172" width="16" height="16" x="432" y="116" color="#bebebe" rx="3"/></clipPath><clipPath id="clipPath174"><rect id="rect176" width="22" height="22" x="433" y="77" fill="#6d6d6d" color="#bebebe" opacity=".2" rx="3"/></clipPath><clipPath id="clipPath178"><rect id="rect180" width="30" height="30" x="433" y="29" fill="#6d6d6d" color="#bebebe" opacity=".2" rx="4"/></clipPath><clipPath id="clipPath182"><rect id="rect184" width="60" height="60" x="306" y="142" fill="url(#8)" color="#bebebe" rx="12.5" transform="matrix(0 -1 1 0 0 0)"/></clipPath><clipPath id="clipPath186"><rect id="rect188" width="42" height="42" x="307" y="223" fill="url(#7)" color="#bebebe" rx="9" transform="rotate(90)"/></clipPath><linearGradient id="0" x2="0" y1="280" y2="40" gradientTransform="matrix(.175 0 0 .175 302.79999 215.99997)" gradientUnits="userSpaceOnUse" xlink:href="#2"/><linearGradient id="1" x2="0" y1="230" y2="90" gradientTransform="matrix(.25 0 0 .25 299.99999 131.99999)" gradientUnits="userSpaceOnUse" xlink:href="#2"/><linearGradient id="2"><stop id="stop193" stop-color="#f0f0f0"/><stop id="stop195" offset="1" stop-color="#f8f8f8"/></linearGradient><linearGradient id="linearGradient197" x2="0" y1="140" y2="124" gradientTransform="translate(11.38843 1.3713)" gradientUnits="userSpaceOnUse" xlink:href="#5"/><linearGradient id="linearGradient199" x2="0" y1="273" y2="231" gradientTransform="translate(0 4.09376)" gradientUnits="userSpaceOnUse" xlink:href="#5"/><linearGradient id="linearGradient201" x2="0" y1="273" y2="231" gradientTransform="matrix(5.71429 0 0 5.71429 -1730.2857 -1284)" gradientUnits="userSpaceOnUse" xlink:href="#5"/><linearGradient id="linearGradient203" x2="0" y1="273" y2="231" gradientTransform="matrix(5.71429 0 0 5.71429 -1730.2857 -1284)" gradientUnits="userSpaceOnUse" xlink:href="#5"/><linearGradient id="3" x2="0" y1="230" y2="90" gradientTransform="matrix(.375 0 0 .375 298 16)" gradientUnits="userSpaceOnUse" xlink:href="#2"/><linearGradient id="4"><stop id="stop207" stop-color="#eaba31"/><stop id="stop209" offset="1" stop-color="#ff9200"/></linearGradient><linearGradient id="5"><stop id="stop212" stop-color="#818181"/><stop id="stop214" offset="1" stop-color="#c5c5c5"/></linearGradient><linearGradient id="linearGradient216" x2="0" y1="140" y2="124" gradientUnits="userSpaceOnUse" xlink:href="#5"/><linearGradient id="linearGradient218" x2="0" y1="107" y2="85" gradientUnits="userSpaceOnUse" xlink:href="#5"/><linearGradient id="linearGradient220" x2="0" y1="107" y2="85" gradientUnits="userSpaceOnUse" xlink:href="#5"/><linearGradient id="6" x2="0" y1="230" y2="90" gradientTransform="matrix(.375 0 0 .375 298 16)" gradientUnits="userSpaceOnUse" xlink:href="#2"/><linearGradient id="7" x2="0" y1="280" y2="40" gradientTransform="matrix(.175 0 0 .175 302.79999 215.99997)" gradientUnits="userSpaceOnUse" xlink:href="#2"/><linearGradient id="linearGradient224" x2="0" y1="140" y2="124" gradientUnits="userSpaceOnUse" xlink:href="#5"/><linearGradient id="linearGradient226" x2="0" y1="140" y2="124" gradientTransform="translate(11.38843 1.3713)" gradientUnits="userSpaceOnUse" xlink:href="#5"/><linearGradient id="linearGradient228" x2="0" y1="273" y2="231" gradientTransform="translate(0 4.09376)" gradientUnits="userSpaceOnUse" xlink:href="#5"/><linearGradient id="linearGradient230" x2="0" y1="140" y2="124" gradientUnits="userSpaceOnUse" xlink:href="#5"/><linearGradient id="linearGradient232" x2="0" y1="140" y2="124" gradientTransform="translate(11.38843 1.3713)" gradientUnits="userSpaceOnUse" xlink:href="#5"/><linearGradient id="linearGradient234" x2="0" y1="273" y2="231" gradientTransform="translate(0 4.09376)" gradientUnits="userSpaceOnUse" xlink:href="#5"/><linearGradient id="linearGradient236" x2="0" y1="273" y2="231" gradientTransform="matrix(5.71429 0 0 5.71429 -1730.2857 -1284)" gradientUnits="userSpaceOnUse" xlink:href="#5"/><linearGradient id="8" x2="0" y1="230" y2="90" gradientTransform="matrix(.25 0 0 .25 299.99999 131.99999)" gradientUnits="userSpaceOnUse" xlink:href="#2"/><linearGradient id="9" x2="0" y1="230" y2="90" gradientTransform="matrix(.25 0 0 .25 299.99999 131.99999)" gradientUnits="userSpaceOnUse" xlink:href="#2"/><linearGradient id="A" x2="0" y1="230" y2="90" gradientTransform="matrix(.375 0 0 .375 298 16)" gradientUnits="userSpaceOnUse" xlink:href="#2"/><linearGradient id="B" x2="0" y1="280" y2="40" gradientTransform="matrix(.175 0 0 .175 302.79999 215.99997)" gradientUnits="userSpaceOnUse" xlink:href="#2"/><linearGradient id="linearGradient242" x2="0" y1="107" y2="85" gradientUnits="userSpaceOnUse" xlink:href="#5"/><radialGradient id="radialGradient244" cx="328" cy="255.42" r="7" gradientTransform="matrix(2.85714 0 0 2.85714 -609.14349 -473.66662)" gradientUnits="userSpaceOnUse" xlink:href="#4"/><radialGradient id="radialGradient246" cx="328" cy="255.42" r="7" gradientTransform="matrix(1.22449 0 0 1.22449 49.7555 -179.34296)" gradientUnits="userSpaceOnUse" xlink:href="#4"/><radialGradient id="radialGradient248" cx="328" cy="255.42" r="7" gradientTransform="matrix(2.85714 0 0 2.85714 -609.14349 -473.66662)" gradientUnits="userSpaceOnUse" xlink:href="#4"/><radialGradient id="radialGradient250" cx="328" cy="255.42" r="7" gradientTransform="matrix(2.85714 0 0 2.85714 -609.14349 -473.66662)" gradientUnits="userSpaceOnUse" xlink:href="#4"/><radialGradient id="radialGradient252" cx="328" cy="255.42" r="7" gradientTransform="matrix(1.22449 0 0 1.22449 49.7555 -179.34296)" gradientUnits="userSpaceOnUse" xlink:href="#4"/><radialGradient id="radialGradient254" cx="328" cy="255.42" r="7" gradientTransform="matrix(1.22449 0 0 1.22449 49.7555 -179.34296)" gradientUnits="userSpaceOnUse" xlink:href="#4"/><linearGradient id="C"><stop id="stop257" stop-color="#a655ff"/><stop id="stop259" offset="1" stop-color="#6f407c"/></linearGradient><linearGradient id="D" x2="0" y1="1050.36" y2="1006.36" gradientTransform="matrix(0.28222223,0,0,0.28222223,-13.546667,-296.99999)" gradientUnits="userSpaceOnUse" xlink:href="#C"/><radialGradient id="radial0" cx="148.004" cy="160" r="128" gradientTransform="matrix(0.1831,0,0,0.1831,-3.10029,-5.29688)" gradientUnits="userSpaceOnUse"><stop id="stop7" offset="0" stop-color="#daa1f4" stop-opacity="1"/><stop id="stop9" offset="1" stop-color="#4b0972" stop-opacity="1"/></radialGradient><radialGradient id="radialGradient3003" cx="148.004" cy="160" r="128" gradientTransform="matrix(0.05167489,0,0,0.05167489,-0.87511191,-1.4947612)" gradientUnits="userSpaceOnUse" xlink:href="#radial0"/></defs><path id="path11" fill="url(#radialGradient3003)" d="m 13.387776,3.2589209 0,7.0290971 c 0,2.892778 0,3.100035 -3.100035,3.100035 l -7.0279949,0 c -3.10113721,0 -3.10113721,-0.207257 -3.10113721,-3.100035 l 0,-7.0290971 c 0,-2.89277789 0,-3.10003479 3.10113721,-3.10003479 l 7.0279949,0 c 3.100035,0 3.100035,0.2072569 3.100035,3.10003479 z"/><path id="path13" fill="#fff" fill-opacity=".051" d="m 10.799269,13.388053 c 0.717682,-0.0033 1.235825,-0.02315 1.611753,-0.124575 l -1.193932,-2.046111 -1.2655902,2.170686 0.3362412,0 c 0.180799,0 0.350573,0 0.511528,0 z M 11.21709,11.217367 9.7707012,8.7368984 8.3232099,11.217367 z m 0,0 2.159662,0 c 0.0088,-0.274505 0.01102,-0.582083 0.01102,-0.930451 l 0,-0.3097833 -0.723194,-1.2402343 z M 12.664582,8.7368984 11.21709,6.2564297 9.7707012,8.7368984 z m 0,0 0.723194,0 0,-1.2402343 z m -2.8938808,0 L 8.3232099,6.2564297 6.876821,8.7368984 z m -2.8938802,0 -1.4474916,2.4804686 2.8938805,0 z m 0,0 L 5.4293294,6.2564297 3.9829405,8.7368984 z m -2.8938805,0 -1.4474913,2.4804686 2.8938802,0 z m 0,0 L 2.5354492,6.2564297 1.0890603,8.7368984 z m -2.8938802,0 -0.93045141,1.5941146 c 0,0.329627 0.003307,0.623976 0.0110242,0.886354 l 2.36581611,0 z m 0,0 -0.93045141,-1.5941145 0,1.5941145 z m 1.4463889,2.4804686 -1.2170833,2.086901 c 0.450894,0.08268 1.0748699,0.08379 1.9413802,0.08379 l 0.5423958,0 z m 0,-4.9609373 -1.4463889,-2.4804689 -0.93045141,1.5941147 0,0.8863542 z m 0,0 2.8938802,0 L 3.9829405,3.7759608 z M 3.9829405,3.7759608 2.5354492,1.2954921 1.0890603,3.7759608 z m 0,0 2.8938805,0 -1.4474916,-2.4804687 z m 1.4463889,-2.4804687 -0.663663,-1.13660599 -1.5070227,0 c -0.020946,0 -0.038585,0 -0.059531,0 L 2.5354493,1.2954921 z m 0,0 2.8938805,0 -0.6636633,-1.13660599 -1.5665538,0 z m 2.8938805,0 2.8938801,0 -0.663663,-1.13660599 c -0.0882,0 -0.171979,0 -0.266788,0 l -1.299766,0 z m 0,0 -1.4463889,2.4804687 2.8938802,0 z m 1.4474913,2.4804687 2.8938808,0 -1.447492,-2.4804687 z m 0,0 -1.4474913,2.4804689 2.8938801,0 z m 1.4463888,2.4804689 2.170686,0 0,-1.2402343 -0.723194,-1.2402346 z m 1.447492,-2.4804689 0.723194,0 0,-0.5170399 c 0,-0.2579689 -0.0022,-0.4938889 -0.0066,-0.71217 z M 8.3232099,6.2564297 6.876821,3.7759608 5.4293294,6.2564297 z m 2.8938801,-4.9609376 2.062648,0 C 13.123193,0.51717601 12.747264,0.27133421 11.859807,0.19416391 z m -8.6816408,0 L 1.8850153,0.17983231 C 0.85203766,0.23826131 0.43421639,0.46095191 0.26664695,1.2954921 z M 1.0890603,3.7759608 0.17514542,2.2083046 c -0.0121268,0.3031685 -0.0165365,0.6515363 -0.0165365,1.0506163 l 0,0.5170399 z m 4.3402691,7.4414062 -1.2655903,2.170686 2.532283,0 z m 2.8938805,0 -1.2655906,2.170686 2.5322833,0 z M 0.73187279,13.085987 0.2798764,12.310978 c 0.0826821,0.371519 0.22158847,0.615157 0.45199639,0.775009 z"/><g id="g278" transform="matrix(0.01674127,0,0,0.01674127,1.8686688,1.7067806)"><path id="path280" fill="#fff" d="m 90.674,247.414 c 0,-20.311 3.818,-39.404 11.462,-57.275 7.644,-17.871 18.178,-33.495 31.6,-46.875 13.421,-13.376 29.049,-23.877 46.884,-31.494 17.835,-7.617 37.038,-11.426 57.614,-11.426 27.512,0 52.538,6.935 75.078,20.801 22.536,13.87 40.247,31.934 53.128,54.199 3.122,-0.389 6.193,-0.778 9.219,-1.172 3.021,-0.389 6.098,-0.586 9.219,-0.586 15.225,0 29.521,2.884 42.893,8.643 13.371,5.763 25.085,13.673 35.138,23.73 10.052,10.062 17.958,21.78 23.716,35.156 5.759,13.38 8.638,27.686 8.638,42.92 0,15.234 -2.879,29.544 -8.638,42.92 -5.758,13.38 -13.664,25.049 -23.716,35.01 -10.053,9.961 -21.767,17.871 -35.134,23.73 -13.371,5.859 -27.667,8.789 -42.892,8.789 l -9.371,0 32.785,-41.148 c 14.438,-4.898 26.34,-13.614 35.706,-26.157 9.366,-12.538 14.053,-27.035 14.053,-43.497 0,-9.988 -1.904,-19.492 -5.708,-28.505 -3.809,-9.013 -8.977,-16.85 -15.513,-23.515 -6.537,-6.661 -14.347,-11.902 -23.419,-15.724 -9.073,-3.818 -18.585,-5.731 -28.537,-5.731 -14.442,0 -27.612,3.809 -39.514,11.426 -2.733,-11.879 -7.416,-23.002 -14.049,-33.366 -6.637,-10.364 -14.735,-19.327 -24.298,-26.885 -9.563,-7.558 -20.151,-13.518 -31.76,-17.875 -11.609,-4.357 -23.95,-6.542 -37.024,-6.542 -15.225,0 -29.567,2.93 -43.03,8.789 -13.467,5.859 -25.172,13.77 -35.124,23.73 -9.952,9.961 -17.807,21.634 -23.566,35.01 -5.758,13.38 -8.633,27.686 -8.633,42.92 0,12.305 2,24.17 6.001,35.596 4,11.426 9.462,21.73 16.392,30.908 6.926,9.183 15.221,17.189 24.88,24.023 9.659,6.839 20.242,11.819 31.759,14.941 l -12.588,34.863 c -14.923,-4.88 -28.711,-11.814 -41.373,-20.801 -12.662,-8.981 -23.607,-19.528 -32.835,-31.641 -9.229,-12.108 -16.443,-25.681 -21.643,-40.723 -5.2,-15.036 -7.8,-30.76 -7.8,-47.166 z m 138.482,147.07 46.95462,-125.56125 84.28937,0 -50.57362,84.28938 67.4315,0 L 256.672,504.933 289.745,394.484 z"/></g></svg>