<svg xmlns="http://www.w3.org/2000/svg" xmlns:svg="http://www.w3.org/2000/svg" xmlns:xlink="http://www.w3.org/1999/xlink" id="svg2" width="48" height="48" version="1.1" viewBox="0 0 13.547 13.547"><metadata id="metadata26"/><defs id="defs4"><linearGradient id="linearGradient4015"><stop id="stop4017" offset="0" stop-color="#0064c8" stop-opacity="1"/><stop id="stop4019" offset="1" stop-color="#007bc8" stop-opacity="0"/></linearGradient><linearGradient id="linearGradient4460"><stop id="stop7" offset="0" stop-color="#1d2745" stop-opacity="1"/><stop id="stop9" offset="1" stop-color="#7a4a49" stop-opacity="1"/></linearGradient><linearGradient id="linearGradient3002" x2="0" y1="279.096" y2="268.33" gradientTransform="matrix(1.10525,0,0,1.10525,-134.27874,-295.76183)" gradientUnits="userSpaceOnUse" xlink:href="#linearGradient4460"/><linearGradient id="linearGradient3784-0-9-8"><stop id="stop3038" offset="0" stop-color="#ffd1cd" stop-opacity="1"/><stop id="stop3040" offset="1" stop-color="#a5180d" stop-opacity="1"/></linearGradient><radialGradient id="radialGradient4432" cx="148.004" cy="160" r="128" gradientTransform="matrix(0.97656,0,0,0.97656,-16.5349,-236.25)" gradientUnits="userSpaceOnUse" xlink:href="#linearGradient3784-0-9-8"/><linearGradient id="linearGradient3156" x1="36.5" x2="-.098" y1="36" y2="36" gradientTransform="matrix(0.72415,0,0,0.73599,74.074876,5.5950852)" gradientUnits="userSpaceOnUse"><stop id="stop3916" offset="0" stop-color="#c02cbb" stop-opacity="1"/><stop id="stop3918" offset=".797" stop-color="#b329ae" stop-opacity=".498"/><stop id="stop3920" offset="1" stop-color="#982394" stop-opacity="0"/></linearGradient><linearGradient id="linearGradient3154" x1="23.997" x2="-.073" y1="15.5" y2="15.5" gradientTransform="matrix(0.72415,0,0,0.73599,74.074876,5.5950852)" gradientUnits="userSpaceOnUse"><stop id="stop3700" offset="0" stop-color="#ce7ecc" stop-opacity="1"/><stop id="stop3702" offset=".763" stop-color="#c056bc" stop-opacity=".816"/><stop id="stop3704" offset="1" stop-color="#f8c9f7" stop-opacity="0"/></linearGradient><linearGradient id="linearGradient3151" x1="20.484" x2="20.484" y1="12.82" y2="-.438" gradientTransform="matrix(0,-0.86253,0.84866,0,75.365876,45.413085)" gradientUnits="userSpaceOnUse"><stop id="stop2189" offset="0" stop-color="#fff" stop-opacity=".643"/><stop id="stop2191" offset="1" stop-color="#fff" stop-opacity="0"/></linearGradient><linearGradient id="linearGradient5060"><stop id="stop5062" offset="0" stop-color="#000" stop-opacity="1"/><stop id="stop5064" offset="1" stop-color="#000" stop-opacity="0"/></linearGradient><linearGradient id="linearGradient3104"><stop id="stop3106" offset="0" stop-color="#aaa" stop-opacity="1"/><stop id="stop3108" offset="1" stop-color="#c8c8c8" stop-opacity="1"/></linearGradient><filter id="filter3248" width="1.297" height="1.329" x="-.148" y="-.164" color-interpolation-filters="sRGB"><feGaussianBlur id="feGaussianBlur3250" stdDeviation=".774"/></filter><linearGradient id="linearGradient2432" x1="32.892" x2="36.358" y1="8.059" y2="5.457" gradientTransform="matrix(0.9977,0,0,1.0407,57.259676,-6.7147148)" gradientUnits="userSpaceOnUse"><stop id="stop8591" offset="0" stop-color="#fefefe" stop-opacity="1"/><stop id="stop8593" offset="1" stop-color="#cbcbcb" stop-opacity="1"/></linearGradient><linearGradient id="linearGradient2439" x1="22.004" x2="22.004" y1="47.813" y2="3.364" gradientTransform="translate(55.113776,-8.6560148)" gradientUnits="userSpaceOnUse" xlink:href="#linearGradient3104"/><linearGradient id="linearGradient2442" x1="24" x2="24" y1="2" y2="46.017" gradientTransform="matrix(1,0,0,0.97778,57.095876,-6.5755848)" gradientUnits="userSpaceOnUse"><stop id="stop3213" offset="0" stop-color="#fff" stop-opacity="1"/><stop id="stop3215" offset="1" stop-color="#fff" stop-opacity="0"/></linearGradient><radialGradient id="radialGradient2445" cx="102" cy="112.3" r="139.56" gradientTransform="matrix(0.3617,0,0,-0.39078,57.946936,41.908085)" gradientUnits="userSpaceOnUse"><stop id="stop41" offset="0" stop-color="#b7b8b9" stop-opacity="1"/><stop id="stop47" offset=".189" stop-color="#ececec" stop-opacity="1"/><stop id="stop49" offset=".257" stop-color="#fafafa" stop-opacity="0"/><stop id="stop51" offset=".301" stop-color="#fff" stop-opacity="0"/><stop id="stop53" offset=".531" stop-color="#fafafa" stop-opacity="0"/><stop id="stop55" offset=".845" stop-color="#ebecec" stop-opacity="0"/><stop id="stop57" offset="1" stop-color="#e1e2e3" stop-opacity="0"/></radialGradient><linearGradient id="linearGradient2448" x1="25.132" x2="25.132" y1=".985" y2="47.013" gradientTransform="matrix(1,0,0,0.95617,57.095876,-7.5238148)" gradientUnits="userSpaceOnUse"><stop id="stop3602" offset="0" stop-color="#f4f4f4" stop-opacity="1"/><stop id="stop3604" offset="1" stop-color="#dbdbdb" stop-opacity="1"/></linearGradient><linearGradient id="linearGradient2450" x1="-51.786" x2="-51.786" y1="50.786" y2="2.906" gradientTransform="matrix(0.8075,0,0,0.89483,116.50588,-8.5895148)" gradientUnits="userSpaceOnUse" xlink:href="#linearGradient3104"/><radialGradient id="radialGradient2453" cx="605.71" cy="486.65" r="117.14" gradientTransform="matrix(0.02304,0,0,0.0147,83.456876,31.431085)" gradientUnits="userSpaceOnUse" xlink:href="#linearGradient5060"/><radialGradient id="radialGradient2456" cx="605.71" cy="486.65" r="117.14" gradientTransform="matrix(-0.02304,0,0,0.0147,78.718876,31.431085)" gradientUnits="userSpaceOnUse" xlink:href="#linearGradient5060"/><linearGradient id="linearGradient2459" x1="302.86" x2="302.86" y1="366.65" y2="609.51" gradientTransform="matrix(0.067325,0,0,0.0147,56.754736,31.431085)" gradientUnits="userSpaceOnUse"><stop id="stop5050" offset="0" stop-color="#000" stop-opacity="0"/><stop id="stop5056" offset=".5" stop-color="#000" stop-opacity="1"/><stop id="stop5052" offset="1" stop-color="#000" stop-opacity="0"/></linearGradient><linearGradient id="linearGradient3001" x2="0" y1="279.096" y2="268.33" gradientTransform="matrix(1.10526,0,0,1.10526,-134.28025,-295.76491)" gradientUnits="userSpaceOnUse" xlink:href="#linearGradient4460-7"/><linearGradient id="linearGradient4460-7"><stop id="stop7-4" offset="0" stop-color="#e2e2e2" stop-opacity="1"/><stop id="stop9-2" offset="1" stop-color="#ececec" stop-opacity="1"/></linearGradient><linearGradient id="linearGradient3046" x2="0" y1="279.096" y2="268.33" gradientTransform="matrix(1.10525,0,0,1.10525,-134.27888,-295.76214)" gradientUnits="userSpaceOnUse" xlink:href="#linearGradient4460-5"/><linearGradient id="linearGradient3963"><stop id="stop3004" offset="0" stop-color="#888a85" stop-opacity="1"/><stop id="stop3006" offset="1" stop-color="#a7a9a3" stop-opacity="1"/></linearGradient><linearGradient id="linearGradient3969" x2="0" y1="1052.362" y2="1003.362" gradientUnits="userSpaceOnUse" xlink:href="#linearGradient3963"/><linearGradient id="linearGradient3018" x2="0" y1="279.096" y2="268.33" gradientTransform="matrix(1.10525,0,0,1.10525,-134.27888,-295.76214)" gradientUnits="userSpaceOnUse" xlink:href="#linearGradient4460-5"/><linearGradient id="linearGradient4460-5"><stop id="stop7-1" offset="0" stop-color="#003168" stop-opacity="1"/><stop id="stop9-27" offset="1" stop-color="#0050a8" stop-opacity="1"/></linearGradient><linearGradient id="linearGradient3997" x2="0" y1="279.096" y2="268.33" gradientTransform="matrix(1.10525,0,0,1.10525,-134.27904,-295.76231)" gradientUnits="userSpaceOnUse" xlink:href="#linearGradient4460-5"/><linearGradient id="linearGradient4021" x1="2.819" x2="12.22" y1="6.486" y2="6.429" gradientTransform="translate(0,0.28700565)" gradientUnits="userSpaceOnUse" xlink:href="#linearGradient4015"/><linearGradient id="linearGradient4035" x2="0" y1="279.096" y2="268.33" gradientTransform="matrix(1.10525,0,0,1.10525,-134.27904,-295.76231)" gradientUnits="userSpaceOnUse" xlink:href="#linearGradient4460-5"/><linearGradient id="linearGradient4037" x1="2.819" x2="12.22" y1="6.486" y2="6.429" gradientTransform="translate(0,0.28700565)" gradientUnits="userSpaceOnUse" xlink:href="#linearGradient4015"/><linearGradient id="linearGradient4041" x1="2.819" x2="12.22" y1="6.486" y2="6.429" gradientTransform="translate(0,0.28700565)" gradientUnits="userSpaceOnUse" xlink:href="#linearGradient4015"/><linearGradient id="linearGradient4044" x2="0" y1="279.096" y2="268.33" gradientTransform="matrix(1.10525,0,0,1.10525,-134.27904,-295.76231)" gradientUnits="userSpaceOnUse" xlink:href="#linearGradient4460-5"/><linearGradient id="linearGradient4051" x1="2.819" x2="12.22" y1="6.486" y2="6.429" gradientTransform="translate(0,0.28700565)" gradientUnits="userSpaceOnUse" xlink:href="#linearGradient4015"/><linearGradient id="linearGradient4064" x2="0" y1="279.096" y2="268.33" gradientTransform="matrix(1.10525,0,0,1.10525,-134.27904,-295.76231)" gradientUnits="userSpaceOnUse" xlink:href="#linearGradient4460-5"/><linearGradient id="linearGradient4066" x1="2.819" x2="12.22" y1="6.486" y2="6.429" gradientTransform="translate(0,0.28700565)" gradientUnits="userSpaceOnUse" xlink:href="#linearGradient4015"/><linearGradient id="linearGradient3069" x2="0" y1="279.096" y2="268.33" gradientTransform="matrix(1.10525,0,0,1.10525,-134.27915,-295.76219)" gradientUnits="userSpaceOnUse" xlink:href="#linearGradient4460-5"/><linearGradient id="linearGradient3812" x2="0" y1="279.096" y2="268.33" gradientTransform="matrix(1.10525,0,0,1.10525,-134.27874,-295.76183)" gradientUnits="userSpaceOnUse" xlink:href="#linearGradient4460-9"/><linearGradient id="linearGradient3002-6" x2="0" y1="279.096" y2="268.33" gradientTransform="matrix(1.10525,0,0,1.10525,-134.27874,-295.76183)" gradientUnits="userSpaceOnUse" xlink:href="#linearGradient4460-9"/><linearGradient id="linearGradient4460-9"><stop id="stop7-7" offset="0" stop-color="#9f4c19" stop-opacity="1"/><stop id="stop9-9" offset="1" stop-color="#e89543" stop-opacity="1"/></linearGradient><linearGradient id="linearGradient3096" x1="2.819" x2="12.22" y1="6.486" y2="6.429" gradientTransform="translate(0,0.28700565)" gradientUnits="userSpaceOnUse" xlink:href="#linearGradient4015"/><linearGradient id="linearGradient3100" x2="0" y1="279.096" y2="268.33" gradientTransform="matrix(1.10525,0,0,1.10525,-120.27039,-295.76138)" gradientUnits="userSpaceOnUse" xlink:href="#linearGradient4460-9"/><linearGradient id="1" x2="0" y1="1050.36" y2="1006.36" gradientTransform="matrix(0.28222223,0,0,0.28222223,0,-283.45334)" gradientUnits="userSpaceOnUse" xlink:href="#linearGradient4460-5"/><linearGradient id="0"><stop id="stop7-75" stop-color="#9f4c19"/><stop id="stop9-5" offset="1" stop-color="#e89543"/></linearGradient><radialGradient id="radial0" cx="148.004" cy="160" r="128" gradientTransform="matrix(0.1831,0,0,0.1831,-3.10029,-5.29688)" gradientUnits="userSpaceOnUse"><stop id="stop7-3" offset="0" stop-color="#6cb3c9" stop-opacity="1"/><stop id="stop9-91" offset="1" stop-color="#003d5e" stop-opacity="1"/></radialGradient><radialGradient id="radialGradient3001" cx="148.004" cy="160" r="128" gradientTransform="matrix(0.05167489,0,0,0.05167489,-0.87510811,-1.4947612)" gradientUnits="userSpaceOnUse" xlink:href="#radial0"/></defs><g id="g12" transform="matrix(0.28222223,0,0,0.28222223,0,-283.45334)"><path id="path14" d="M 5.1875,1 C 2.8707723,1 1,2.8707723 1,5.1875 l 0,37.625 C 1,45.129228 2.8707723,47 5.1875,47 l 37.625,0 C 45.129228,47 47,45.129228 47,42.8125 L 47,5.1875 C 47,2.8707723 45.129228,1 42.8125,1 L 5.1875,1 z m 0.1875,0.25 37.25,0 c 2.291546,0 4.125,1.8334541 4.125,4.125 l 0,37.25 c 0,2.291546 -1.833454,4.125 -4.125,4.125 l -37.25,0 C 3.0834541,46.75 1.25,44.916546 1.25,42.625 l 0,-37.25 C 1.25,3.0834541 3.0834541,1.25 5.375,1.25 z" opacity=".05" transform="translate(0,1004.3622)"/><path id="path16" d="M 5.375,1.25 C 3.0834541,1.25 1.25,3.0834541 1.25,5.375 l 0,37.25 c 0,2.291546 1.8334541,4.125 4.125,4.125 l 37.25,0 c 2.291546,0 4.125,-1.833454 4.125,-4.125 l 0,-37.25 C 46.75,3.0834541 44.916546,1.25 42.625,1.25 l -37.25,0 z m 0.21875,0.25 36.8125,0 C 44.672614,1.5 46.5,3.3273859 46.5,5.59375 l 0,36.8125 C 46.5,44.672614 44.672614,46.5 42.40625,46.5 l -36.8125,0 C 3.3273859,46.5 1.5,44.672614 1.5,42.40625 l 0,-36.8125 C 1.5,3.3273859 3.3273859,1.5 5.59375,1.5 z" opacity=".1" transform="translate(0,1004.3622)"/><path id="path18" d="M 5.59375,1.5 C 3.3273859,1.5 1.5,3.3273859 1.5,5.59375 l 0,36.8125 C 1.5,44.672614 3.3273859,46.5 5.59375,46.5 l 36.8125,0 C 44.672614,46.5 46.5,44.672614 46.5,42.40625 l 0,-36.8125 C 46.5,3.3273859 44.672614,1.5 42.40625,1.5 l -36.8125,0 z m 0.09375,0.125 36.625,0 c 2.253773,0 4.0625,1.8087269 4.0625,4.0625 l 0,36.625 c 0,2.253773 -1.808727,4.0625 -4.0625,4.0625 l -36.625,0 c -2.2537731,0 -4.0625,-1.808727 -4.0625,-4.0625 l 0,-36.625 C 1.625,3.4337269 3.4337269,1.625 5.6875,1.625 z" opacity=".2" transform="translate(0,1004.3622)"/><path id="path20" d="M 5.6875,1.625 C 3.4337269,1.625 1.625,3.4337269 1.625,5.6875 l 0,36.625 c 0,2.253773 1.8087269,4.0625 4.0625,4.0625 l 36.625,0 c 2.253773,0 4.0625,-1.808727 4.0625,-4.0625 l 0,-36.625 c 0,-2.2537731 -1.808727,-4.0625 -4.0625,-4.0625 l -36.625,0 z m 0.09375,0.125 36.4375,0 c 2.241182,0 4.03125,1.7900679 4.03125,4.03125 l 0,36.4375 c 0,2.241182 -1.790068,4.03125 -4.03125,4.03125 l -36.4375,0 C 3.5400679,46.25 1.75,44.459932 1.75,42.21875 l 0,-36.4375 C 1.75,3.5400679 3.5400679,1.75 5.78125,1.75 z" opacity=".3" transform="translate(0,1004.3622)"/><path id="path22" d="M 5.78125,1.75 C 3.5400679,1.75 1.75,3.5400679 1.75,5.78125 l 0,36.4375 c 0,2.241182 1.7900679,4.03125 4.03125,4.03125 l 36.4375,0 c 2.241182,0 4.03125,-1.790068 4.03125,-4.03125 l 0,-36.4375 C 46.25,3.5400679 44.459932,1.75 42.21875,1.75 l -36.4375,0 z m 0.125,0.125 36.1875,0 c 2.228591,0 4.03125,1.802659 4.03125,4.03125 l 0,36.1875 c 0,2.228591 -1.802659,4.03125 -4.03125,4.03125 l -36.1875,0 C 3.677659,46.125 1.875,44.322341 1.875,42.09375 l 0,-36.1875 C 1.875,3.677659 3.677659,1.875 5.90625,1.875 z" opacity=".4" transform="translate(0,1004.3622)"/><rect id="rect24" width="44.25" height="44.25" x="1.875" y="1006.24" opacity=".5" rx="4.02"/></g><rect id="rect26" width="12.418" height="12.418" x=".564" y=".564" fill="url(#1)" fill-opacity="1" rx="1.129"/><path id="path11" fill="url(#radialGradient3001)" d="m 13.38778,3.2589209 0,7.0290971 c 0,2.892778 0,3.100035 -3.100035,3.100035 l -7.0279951,0 c -3.10113701,0 -3.10113701,-0.207257 -3.10113701,-3.100035 l 0,-7.0290971 c 0,-2.89277779 0,-3.10003479 3.10113701,-3.10003479 l 7.0279951,0 c 3.100035,0 3.100035,0.207257 3.100035,3.10003479 z"/><path id="path15" fill="#fff" fill-opacity=".051" d="m 10.799273,13.388053 c 0.717682,-0.0033 1.235825,-0.02315 1.611753,-0.124575 l -1.193932,-2.046111 -1.2655902,2.170686 0.3362412,0 c 0.180799,0 0.350573,0 0.511528,0 z M 11.217094,11.217367 9.7707052,8.7368984 8.3232139,11.217367 z m 0,0 2.159662,0 c 0.0088,-0.274505 0.01102,-0.582083 0.01102,-0.930451 l 0,-0.3097833 -0.723194,-1.2402343 z M 12.664586,8.7368984 11.217094,6.2564297 9.7707052,8.7368984 z m 0,0 0.723194,0 0,-1.2402343 z m -2.8938808,0 L 8.3232139,6.2564297 6.876825,8.7368984 z m -2.8938802,0 -1.4474916,2.4804686 2.8938805,0 z m 0,0 L 5.4293334,6.2564297 3.9829445,8.7368984 z m -2.8938805,0 -1.4474916,2.4804686 2.8938805,0 z m 0,0 -1.4474916,-2.4804687 -1.446389,2.4804687 z m -2.8938806,0 -0.93045101,1.5941146 c 0,0.329627 0.0033,0.623976 0.01102,0.886354 l 2.36581601,0 z m 0,0 -0.93045101,-1.5941145 0,1.5941145 z m 1.446389,2.4804686 -1.217083,2.086901 c 0.450894,0.08268 1.07487,0.08379 1.94138,0.08379 l 0.542396,0 z m 0,-4.9609373 -1.446389,-2.4804689 -0.93045101,1.5941147 0,0.8863542 z m 0,0 2.8938805,0 L 3.9829445,3.7759608 z M 3.9829445,3.7759608 2.5354529,1.2954921 1.0890639,3.7759608 z m 0,0 2.8938805,0 -1.4474916,-2.4804687 z m 1.4463889,-2.4804687 -0.663663,-1.13660599 -1.5059205,0 c -0.02205,0 -0.03969,0 -0.06063,0 L 2.5354569,1.2954921 z m 0,0 2.8938805,0 -0.6636633,-1.13660599 -1.5665538,0 z m 2.8938805,0 2.8938801,0 -0.663663,-1.13660599 c -0.0882,0 -0.171979,0 -0.265686,0 l -1.300868,0 z m 0,0 -1.4463889,2.4804687 2.8938802,0 z m 1.4474913,2.4804687 2.8938808,0 -1.447492,-2.4804687 z m 0,0 -1.4474913,2.4804689 2.8938801,0 z m 1.4463888,2.4804689 2.170686,0 0,-1.2402343 -0.723194,-1.2402346 z m 1.447492,-2.4804689 0.723194,0 0,-0.5170399 c 0,-0.2579689 -0.0022,-0.4938889 -0.0066,-0.71217 z M 8.3232139,6.2564297 6.876825,3.7759608 5.4293334,6.2564297 z m 2.8938801,-4.9609376 2.062648,0 C 13.123197,0.51717601 12.747268,0.27133421 11.859811,0.19416391 z m -8.6816411,0 -0.650434,-1.11565969 C 0.85204189,0.23826141 0.43421989,0.46095201 0.26665089,1.2954921 z M 1.0890639,3.7759608 0.17514889,2.2083046 c -0.01213,0.3031685 -0.01654,0.6515363 -0.01654,1.0506163 l 0,0.5170399 z m 4.3402695,7.4414062 -1.2655903,2.170686 2.532283,0 z m 2.8938805,0 -1.2655906,2.170686 2.5322833,0 z m -7.59133701,1.86862 -0.451997,-0.775009 c 0.08268,0.371519 0.221589,0.615157 0.451997,0.775009 z"/><path id="path3755" fill="#f9f9f9" fill-opacity="1" stroke="none" d="m 6.7738519,3.2876555 c -1.6396325,0 -2.9691075,4.1575603 -2.9691075,6.001378 0,0.1033946 0.00413,0.2065289 0.012333,0.3075259 0.3329815,-0.1970156 0.7121634,-0.3098388 1.114444,-0.3098388 0.7407202,0 1.4026528,0.3786548 1.8423263,0.9722914 0.4396705,-0.5939378 1.1024161,-0.9722914 1.843354,-0.9722914 0.4017897,0 0.7798321,0.1121166 1.1123872,0.3086827 0.00812,-0.100624 0.012333,-0.2033656 0.012333,-0.3063698 0,-1.8438177 -1.3284459,-6.001378 -2.9680791,-6.001378 z" opacity="1"/></svg>