<svg xmlns="http://www.w3.org/2000/svg" xmlns:svg="http://www.w3.org/2000/svg" xmlns:xlink="http://www.w3.org/1999/xlink" id="svg2" width="48" height="48" version="1.1" viewBox="0 0 13.547 13.547"><metadata id="metadata34"/><defs id="defs4"><linearGradient id="0" x2="0" y1="279.1" y2="268.33" gradientTransform="matrix(1.10525,0,0,1.10525,-134.27874,-295.76183)" gradientUnits="userSpaceOnUse"><stop id="stop7" stop-color="#3b5892"/><stop id="stop9" offset="1" stop-color="#458de1"/></linearGradient><linearGradient id="1" x2="0" y1="1050.36" y2="1006.36" gradientTransform="matrix(0.28222223,0,0,0.28222223,0,-283.45334)" gradientUnits="userSpaceOnUse" xlink:href="#0"/><radialGradient id="radial0" cx="148.004" cy="160" r="128" gradientTransform="matrix(0.1831,0,0,0.1831,-3.10029,-5.29688)" gradientUnits="userSpaceOnUse"><stop id="stop7-3" offset="0" stop-color="#b5d9e4"/><stop id="stop9-7" offset="1" stop-color="#006faa" stop-opacity="1"/></radialGradient><radialGradient id="radialGradient3001" cx="148.004" cy="160" r="128" gradientTransform="matrix(0.05167489,0,0,0.05167489,-0.87510811,-1.4947613)" gradientUnits="userSpaceOnUse" xlink:href="#radial0"/></defs><path id="path11" fill="url(#radialGradient3001)" d="m 13.38778,3.2589208 0,7.0290972 c 0,2.892778 0,3.100035 -3.100035,3.100035 l -7.0279951,0 c -3.10113701,0 -3.10113701,-0.207257 -3.10113701,-3.100035 l 0,-7.0290972 c 0,-2.89277787 0,-3.10003482 3.10113701,-3.10003482 l 7.0279951,0 c 3.100035,0 3.100035,0.20725695 3.100035,3.10003482 z"/><path id="path15" fill="#fff" fill-opacity=".051" d="m 10.799273,13.388053 c 0.717682,-0.0033 1.235825,-0.02315 1.611753,-0.124575 l -1.193932,-2.046111 -1.2655901,2.170686 0.3362411,0 c 0.180799,0 0.350573,0 0.511528,0 z M 11.217094,11.217367 9.7707049,8.7368983 8.3232139,11.217367 z m 0,0 2.159662,0 c 0.0088,-0.274505 0.01102,-0.582083 0.01102,-0.930451 l 0,-0.3097834 -0.723194,-1.2402343 z M 12.664586,8.7368983 11.217094,6.2564296 9.7707049,8.7368983 z m 0,0 0.723194,0 0,-1.2402343 z m -2.8938811,0 -1.447491,-2.4804687 -1.446389,2.4804687 z m -2.89388,0 -1.447492,2.4804687 2.893881,0 z m 0,0 -1.447492,-2.4804687 -1.446389,2.4804687 z m -2.893881,0 -1.447491,2.4804687 2.89388,0 z m 0,0 -1.447491,-2.4804687 -1.446389,2.4804687 z m -2.89388,0 -0.93045101,1.5941147 c 0,0.329627 0.0033,0.623976 0.01102,0.886354 l 2.36581601,0 z m 0,0 -0.93045101,-1.5941145 0,1.5941145 z m 1.446389,2.4804687 -1.217083,2.086901 c 0.450894,0.08268 1.07487,0.08379 1.94138,0.08379 l 0.542396,0 z m 0,-4.9609374 -1.446389,-2.4804689 -0.93045101,1.5941147 0,0.8863542 z m 0,0 2.89388,0 -1.446389,-2.4804689 z M 3.9829439,3.7759607 2.5354529,1.295492 1.0890639,3.7759607 z m 0,0 2.893881,0 -1.447492,-2.4804687 z m 1.446389,-2.4804687 -0.663663,-1.13660602 -1.50592,0 c -0.02205,0 -0.03969,0 -0.06063,0 L 2.5354569,1.295492 z m 0,0 2.893881,0 -0.663664,-1.13660602 -1.566553,0 z m 2.893881,0 2.8938801,0 -0.663663,-1.13660602 c -0.0882,0 -0.171979,0 -0.265686,0 l -1.3008681,0 z m 0,0 -1.446389,2.4804687 2.89388,0 z m 1.447491,2.4804687 2.8938811,0 -1.447492,-2.4804687 z m 0,0 -1.447491,2.4804689 2.8938801,0 z m 1.4463891,2.4804689 2.170686,0 0,-1.2402343 -0.723194,-1.2402346 z m 1.447492,-2.4804689 0.723194,0 0,-0.5170399 c 0,-0.2579689 -0.0022,-0.4938889 -0.0066,-0.71217 z M 8.3232139,6.2564296 6.8768249,3.7759607 5.4293329,6.2564296 z m 2.8938801,-4.9609376 2.062648,0 C 13.123197,0.51717585 12.747268,0.27133404 11.859811,0.19416376 z m -8.6816411,0 -0.650434,-1.11565977 C 0.85204189,0.23826093 0.43421989,0.46095182 0.26665089,1.295492 z M 1.0890639,3.7759607 0.17514889,2.2083045 c -0.01213,0.3031685 -0.01654,0.6515363 -0.01654,1.0506163 l 0,0.5170399 z m 4.340269,7.4414063 -1.26559,2.170686 2.532283,0 z m 2.893881,0 -1.265591,2.170686 2.532283,0 z m -7.59133701,1.86862 -0.451997,-0.775009 c 0.08268,0.371519 0.221589,0.615157 0.451997,0.775009 z"/><path id="path28" fill="#f2f2f2" d="M33,12.625v1.46875l-17-0.03125-2,2v4.03125,3.96875c0,2,2,2,2,2h14c1,0,1,1,1,1v1.9375c0,1-1,1-1,1l-14,0.0625v-1.46875l-4.4375,3.46875,4.4375,3.46875v-1.46875l17-0.0625,2-2v-2.9375-5c0-2-2-2-2-2h-14l-1-1v-0.96875-1.09375c0-1,1-1,1-1l14,0.0625v1.4375l4.5625-3.46875-4.5625-3.40625z" transform="scale(0.28222223,0.28222223)"/></svg>