<?xml version="1.0" encoding="UTF-8" standalone="no"?>
<svg
   xmlns:dc="http://purl.org/dc/elements/1.1/"
   xmlns:cc="http://creativecommons.org/ns#"
   xmlns:rdf="http://www.w3.org/1999/02/22-rdf-syntax-ns#"
   xmlns:svg="http://www.w3.org/2000/svg"
   xmlns="http://www.w3.org/2000/svg"
   xmlns:xlink="http://www.w3.org/1999/xlink"
   xmlns:sodipodi="http://sodipodi.sourceforge.net/DTD/sodipodi-0.dtd"
   xmlns:inkscape="http://www.inkscape.org/namespaces/inkscape"
   width="48"
   height="48"
   viewBox="0 0 48 48"
   id="svg2"
   version="1.1"
   inkscape:version="0.48.4 r9939"
   sodipodi:docname="firefox.svg">
  <defs
     id="defs3019" />
  <metadata
     id="metadata35">
    <rdf:RDF>
      <cc:Work
         rdf:about="">
        <dc:format>image/svg+xml</dc:format>
        <dc:type
           rdf:resource="http://purl.org/dc/dcmitype/StillImage" />
        <dc:title></dc:title>
      </cc:Work>
    </rdf:RDF>
  </metadata>
  <sodipodi:namedview
     pagecolor="#ffffff"
     bordercolor="#666666"
     borderopacity="1"
     objecttolerance="10"
     gridtolerance="10"
     guidetolerance="10"
     inkscape:pageopacity="0"
     inkscape:pageshadow="2"
     inkscape:window-width="1024"
     inkscape:window-height="692"
     id="namedview33"
     showgrid="false"
     inkscape:zoom="6.9532167"
     inkscape:cx="13.091479"
     inkscape:cy="29.749414"
     inkscape:window-x="0"
     inkscape:window-y="24"
     inkscape:window-maximized="1"
     inkscape:current-layer="svg2" />
  <path
     fill="#808080"
     d="M 47.4375 11.546875 L 47.4375 36.453125 C 47.4375 46.703125 47.4375 47.4375 36.453125 47.4375 L 11.550781 47.4375 C 0.5625 47.4375 0.5625 46.703125 0.5625 36.453125 L 0.5625 11.546875 C 0.5625 1.296875 0.5625 0.5625 11.550781 0.5625 L 36.453125 0.5625 C 47.4375 0.5625 47.4375 1.296875 47.4375 11.546875 Z "
     id="path11"
     style="fill:#4ba49f;fill-opacity:1" />
  <path
     inkscape:connector-curvature="0"
     id="path15"
     d="m 38.265625,47.4375 c 2.542969,-0.01172 4.378906,-0.08203 5.710937,-0.441406 l -4.230468,-7.25 -4.484375,7.691406 1.191406,0 c 0.640625,0 1.242187,0 1.8125,0 z m 1.480469,-7.691406 -5.125,-8.789063 -5.128906,8.789063 z m 0,0 7.652344,0 c 0.03125,-0.972656 0.03906,-2.0625 0.03906,-3.296875 l 0,-1.097657 -2.5625,-4.394531 z m 5.128906,-8.789063 -5.128906,-8.789062 -5.125,8.789062 z m 0,0 2.5625,0 0,-4.394531 z m -10.253906,0 -5.128906,-8.789062 -5.125,8.789062 z m -10.253906,0 -5.128907,8.789063 10.253907,0 z m 0,0 -5.128907,-8.789062 -5.125,8.789062 z m -10.253907,0 -5.128906,8.789063 10.253906,0 z m 0,0 -5.128906,-8.789062 -5.125,8.789062 z m -10.253906,0 -3.296875,5.648438 c 0,1.167969 0.011719,2.210937 0.039062,3.140625 l 8.382813,0 z m 0,0 -3.296875,-5.648437 0,5.648437 z m 5.125,8.789063 -4.3125,7.394531 c 1.597656,0.292969 3.808594,0.296875 6.878906,0.296875 l 1.921875,0 z m 0,-17.578125 -5.125,-8.789063 -3.296875,5.648438 0,3.140625 z m 0,0 10.253906,0 -5.125,-8.789063 z m 5.128906,-8.789063 -5.128906,-8.789062 -5.125,8.789062 z m 0,0 10.253907,0 -5.128907,-8.789062 z m 5.125,-8.789062 -2.351562,-4.027344 -5.335938,0 c -0.07813,0 -0.140625,0 -0.214843,0 L 8.984375,4.589844 z m 0,0 10.253907,0 -2.351563,-4.027344 -5.550781,0 z m 10.253907,0 10.253906,0 L 37.394531,0.5625 c -0.3125,0 -0.609375,0 -0.941406,0 l -4.609375,0 z m 0,0 -5.125,8.789062 10.253906,0 z m 5.128906,8.789062 10.253906,0 -5.128906,-8.789062 z m 0,0 -5.128906,8.789063 10.253906,0 z m 5.125,8.789063 7.691406,0 0,-4.394531 -2.5625,-4.394532 z m 5.128906,-8.789063 2.5625,0 0,-1.832031 c 0,-0.914063 -0.0078,-1.75 -0.02344,-2.523437 z m -15.382812,8.789063 -5.125,-8.789063 -5.128907,8.789063 z m 10.253906,-17.578125 7.308594,0 C 46.5,1.832031 45.167969,0.960938 42.023438,0.6875 z m -30.761719,0 L 6.679688,0.636719 C 3.019531,0.84375 1.539062,1.632812 0.945312,4.589844 z m -5.125,8.789062 L 0.621094,7.824219 C 0.578125,8.898438 0.5625,10.132812 0.5625,11.546875 l 0,1.832031 z m 15.378906,26.367188 -4.484375,7.691406 8.972656,0 z m 10.253907,0 -4.484376,7.691406 8.972657,0 z M 2.59375,46.367188 0.992188,43.621094 c 0.292968,1.316406 0.785156,2.179687 1.601562,2.746094 z"
     style="fill:#ffffff;fill-opacity:0.08627451" />
  <g
     style="fill:#f9f9f9;fill-opacity:1"
     transform="matrix(3.543307,0,0,3.543307,4.76e-5,-4e-7)"
     id="g25">
    <use
       height="1052.3622"
       width="744.09448"
       y="0"
       x="0"
       transform="matrix(0.14111,0,0,0.19349,3.66889,3.10559)"
       xlink:href="#2"
       id="use27"
       style="fill:#f9f9f9;fill-opacity:1" />
    <use
       height="1052.3622"
       width="744.09448"
       y="0"
       x="0"
       transform="matrix(0.21167,0,0,0.29024,1.27,-0.98607)"
       xlink:href="#2"
       id="use29"
       style="fill:#f9f9f9;fill-opacity:1" />
    <use
       height="1052.3622"
       width="744.09448"
       y="0"
       x="0"
       transform="matrix(0.28222,0,0,0.38698,-0.28222,-5.35994)"
       xlink:href="#2"
       id="use31"
       style="fill:#f9f9f9;fill-opacity:1" />
    <use
       height="1052.3622"
       width="744.09448"
       y="0"
       x="0"
       transform="matrix(0.42333,0,0,0.58047,-4.23333,-14.38991)"
       xlink:href="#2"
       id="use33"
       style="fill:#f9f9f9;fill-opacity:1" />
    <use
       height="1052.3622"
       width="744.09448"
       y="0"
       x="0"
       transform="matrix(0.35278,0,0,0.48373,-2.96333,-9.73381)"
       xlink:href="#2"
       id="use35"
       style="fill:#f9f9f9;fill-opacity:1" />
  </g>
  <path
     style="fill:#f3f3f3"
     inkscape:connector-curvature="0"
     d="m 21.058572,9.0000778 c -0.448232,3.7118872 -2.588697,4.5856732 -5.519518,2.2734342 1.00637,3.600869 -0.637881,5.22168 -4.230453,4.207025 2.307751,2.941649 1.410526,5.058686 -2.2968712,5.496086 3.2578042,1.83459 3.2460832,4.141951 -0.011693,5.964842 3.7118862,0.448236 4.5856662,2.588696 2.2734352,5.519543 3.600868,-1.006388 5.221658,0.637837 4.207018,4.230441 2.941653,-2.307783 5.058662,-1.410561 5.49609,2.29687 1.834572,-3.257918 4.141924,-3.246066 5.964832,0.01169 0.44815,-3.711895 2.588623,-4.585643 5.519469,-2.273396 -1.006412,-3.600895 0.637849,-5.221678 4.230457,-4.207045 -2.307777,-2.941784 -1.410523,-5.058732 2.296895,-5.496169 -3.257861,-1.834636 -3.246094,-4.141951 0.01173,-5.964861 -3.711973,-0.448222 -4.585685,-2.588663 -2.273461,-5.51952 -3.600921,1.006397 -5.221651,-0.637851 -4.207018,-4.230462 -2.941686,2.307803 -5.058648,1.410552 -5.49608,-2.2968716 -1.834587,3.2577996 -4.141963,3.2460886 -5.964832,-0.011693 z"
     id="path4343" />
  <path
     style="fill:#4ba49f;fill-opacity:1"
     inkscape:connector-curvature="0"
     d="m 21.000036,14.000012 6,0 0,13 5,0 -8,7 -8,-7 5,0 z"
     id="path4345" />
</svg>
