<svg xmlns="http://www.w3.org/2000/svg" xmlns:svg="http://www.w3.org/2000/svg" xmlns:xlink="http://www.w3.org/1999/xlink" id="svg2" width="48" height="48" version="1.1"><metadata id="metadata158"/><defs id="defs4"><clipPath id="clipPath6"><rect id="rect8" width="42" height="42" x="307" y="223" fill="url(#3)" color="#bebebe" rx="9" transform="rotate(90)"/></clipPath><clipPath id="clipPath10"><rect id="rect12" width="240" height="240" x="24" y="36" fill="#986767" color="#bebebe" rx="50"/></clipPath><clipPath id="clipPath14"><rect id="rect16" width="16" height="16" x="432" y="116" fill="#6d6d6d" color="#bebebe" opacity=".2" rx="2"/></clipPath><clipPath id="clipPath18"><path id="path20" d="m 98.03125,23.191212 c -41.492132,1.05238 -74.84375,35.06824 -74.84375,76.812498 0,42.40687 34.405632,76.8125 76.8125,76.8125 42.40687,0 76.8125,-34.40563 76.8125,-76.8125 0,-42.406866 -34.40563,-76.812498 -76.8125,-76.812498 -0.662607,0 -1.310145,-0.0167 -1.96875,0 z M 100,50.659962 c 27.24464,0 49.34375,22.099114 49.34375,49.343748 -1e-5,27.24464 -22.09911,49.34375 -49.34375,49.34375 -27.244636,-1e-5 -49.34375,-22.09911 -49.34375,-49.34375 0,-27.244634 22.099114,-49.343748 49.34375,-49.343748 z"/></clipPath><clipPath id="clipPath22"><path id="path24" d="m 152,204 a 8,8 0 1 1 -16,0 8,8 0 1 1 16,0 z"/></clipPath><clipPath id="clipPath26"><path id="path28" d="m 145,215 c 33.13708,0 60,-26.86292 60,-60 0,-33.13708 -26.86292,-60 -60,-60 -33.13708,0 -60,26.86292 -60,60 0,12.50698 3.8285,24.10633 10.375,33.71875 L 89,211 111.28125,204.625 C 120.89367,211.1715 132.49302,215 145,215 z"/></clipPath><clipPath id="clipPath30"><rect id="rect32" width="16" height="16" x="432" y="116" color="#bebebe" rx="3"/></clipPath><clipPath id="clipPath34"><path id="path36" d="m 144,70 c -49.705627,0 -90,40.29437 -90,90 0,49.70563 40.294373,90 90,90 49.70563,0 90,-40.29437 90,-90 0,-49.70563 -40.29437,-90 -90,-90 z m 0,32.1875 c 32.03251,0 58,25.96748 58,58 0,32.03252 -25.96749,58 -58,58 -32.03251,0 -58,-25.96748 -58,-58 0,-32.03252 25.96749,-58 58,-58 z"/></clipPath><clipPath id="clipPath38"><rect id="rect40" width="22" height="22" x="433" y="77" fill="#6d6d6d" color="#bebebe" opacity=".2" rx="3"/></clipPath><clipPath id="clipPath42"><rect id="rect44" width="30" height="30" x="433" y="29" fill="#6d6d6d" color="#bebebe" opacity=".2" rx="4"/></clipPath><clipPath id="clipPath46"><rect id="rect48" width="90" height="90" x="307" y="31" fill="url(#1)" color="#bebebe" rx="18.75"/></clipPath><clipPath id="clipPath50"><rect id="rect52" width="60" height="60" x="306" y="142" fill="url(#0)" color="#bebebe" rx="12.5" transform="matrix(0 -1 1 0 0 0)"/></clipPath><clipPath id="clipPath54"><rect id="rect56" width="30" height="30" x="433" y="29" color="#bebebe" rx="6"/></clipPath><clipPath id="clipPath58"><rect id="rect60" width="22" height="22" x="433" y="77" color="#bebebe" rx="5"/></clipPath><clipPath id="clipPath62"><rect id="rect64" width="22" height="22" x="433" y="77" color="#bebebe" rx="4"/></clipPath><clipPath id="clipPath66"><rect id="rect68" width="20" height="20" x="434" y="78" color="#bebebe" rx="4"/></clipPath><linearGradient id="linearGradient70" x1="265" x2="264" y1="40" y2="276" gradientTransform="matrix(-1 0 0 -1 289 315)" gradientUnits="userSpaceOnUse" xlink:href="#2"/><linearGradient id="0" x2="0" y1="230" y2="90" gradientTransform="matrix(.25 0 0 .25 299.99999 131.99999)" gradientUnits="userSpaceOnUse" xlink:href="#2"/><linearGradient id="1" x2="0" y1="230" y2="90" gradientTransform="matrix(.375 0 0 .375 298 16)" gradientUnits="userSpaceOnUse" xlink:href="#2"/><linearGradient id="2"><stop id="stop75" stop-color="#151515"/><stop id="stop77" offset="1" stop-color="#222"/></linearGradient><linearGradient id="3" x2="0" y1="280" y2="40" gradientTransform="matrix(.175 0 0 .175 302.79999 215.99997)" gradientUnits="userSpaceOnUse" xlink:href="#2"/><linearGradient id="4"><stop id="stop81" stop-color="#54aae4"/><stop id="stop83" offset="1" stop-color="#7ec1ee"/></linearGradient><linearGradient id="5" x2="0" y1="1050.36" y2="1006.36" gradientTransform="translate(-1.7382813e-5,-1.7382813e-5)" gradientUnits="userSpaceOnUse" xlink:href="#4"/><path id="6" d="m 21.928063,32.48035 -9.067008,-10.526399 -1.087034,-10.7686 13.081239,-3.461017 8.623253,2.536251 3.043502,6.492803 -2.371316,4.376711 -10.542025,11.455108 z"/><rect id="7" width="19.18" height="23.557" x="13.403" y="5.129" rx="9.592" ry="9.609"/><path id="8" d="m 13.271172,23 0,-7.200752 c 0.76273,-3.147045 3.919194,-6.3279994 5.491065,-6.2874328 2.686026,0.3271524 4.56291,2.6211278 6.170071,4.8472818 2.019942,1.661627 7.074199,1.76336 8.386131,0 0,2.686626 0,5.373252 0,8.059878 C 34.813919,21.858989 36.684528,19.705199 37,17.856605 36.620868,-4.4757682 10.710464,-4.0602031 10,15.799248 10.221642,18.297312 11.76819,21.818726 13.271172,23 z"/><rect id="9" width="9.428" height="4.714" x="29.934" y="6.835"/><radialGradient id="radialGradient3002" cx="148.004" cy="160" r="128" gradientTransform="matrix(0.05167489,0,0,0.05167489,-0.87511191,-1.4947613)" gradientUnits="userSpaceOnUse" xlink:href="#radial0"/><radialGradient id="radial0" cx="148.004" cy="160" r="128" gradientTransform="matrix(0.1831,0,0,0.1831,-3.10029,-5.29688)" gradientUnits="userSpaceOnUse"><stop id="stop7-8" offset="0" stop-color="#b5d9e4"/><stop id="stop9-6" offset="1" stop-color="#1c677c"/></radialGradient><radialGradient id="radialGradient3048" cx="148.004" cy="160" r="128" gradientTransform="matrix(0.1831,0,0,0.1831,-3.10079,-5.296398)" gradientUnits="userSpaceOnUse" xlink:href="#radial0"/></defs><path id="path11" fill="url(#radialGradient3048)" d="m 47.437,11.547357 0,24.906249 c 0,10.250001 0,10.984376 -10.984375,10.984376 l -24.902344,0 c -10.9882809,0 -10.9882809,-0.734375 -10.9882809,-10.984376 l 0,-24.906249 c 0,-10.2500006 0,-10.9843754 10.9882809,-10.9843754 l 24.902344,0 C 47.437,0.5629816 47.437,1.2973564 47.437,11.547357 z"/><path id="path15" fill="#fff" fill-opacity=".051" d="m 38.265125,47.437982 c 2.542968,-0.01169 4.378908,-0.08203 5.710936,-0.441407 l -4.230467,-7.25 -4.484376,7.691407 1.191407,0 c 0.640626,0 1.242187,0 1.8125,0 z m 1.480469,-7.691407 -5.124999,-8.789062 -5.128908,8.789062 z m 0,0 7.652345,0 c 0.03118,-0.972655 0.03905,-2.062499 0.03905,-3.296873 l 0,-1.09766 -2.562498,-4.394529 z m 5.128908,-8.789062 -5.128908,-8.789062 -5.124999,8.789062 z m 0,0 2.562498,0 0,-4.394531 z m -10.253907,0 -5.128908,-8.789062 -5.125,8.789062 z m -10.253908,0 -5.128905,8.789062 10.253905,0 z m 0,0 -5.128905,-8.789062 -5.125001,8.789062 z m -10.253906,0 -5.1289062,8.789062 10.2539072,0 z m 0,0 -5.1289062,-8.789062 -5.1249997,8.789062 z m -10.2539059,0 -3.296875,5.648438 c 0,1.167969 0.011728,2.210938 0.039061,3.140624 l 8.3828123,0 z m 0,0 -3.296875,-5.648437 0,5.648437 z m 5.1249997,8.789062 -4.3124996,7.394531 C 6.2690311,47.434067 8.4799688,47.438 11.550281,47.438 l 1.921874,0 z m 0,-17.578124 -5.1249997,-8.789063 -3.296875,5.648438 0,3.140625 z m 0,0 10.2539072,0 -5.125001,-8.789063 z M 14.112781,13.379388 8.9838748,4.5903256 3.8588751,13.379388 z m 0,0 10.253906,0 -5.128905,-8.7890624 z m 5.125001,-8.7890624 -2.351562,-4.027344 -5.335939,0 c -0.07813,0 -0.140627,0 -0.214845,0 l -2.3515612,4.027344 z m 0,0 10.253905,0 -2.351562,-4.027344 -5.550782,0 z m 10.253905,0 10.253907,0 -2.351562,-4.027344 c -0.31252,0 -0.609375,0 -0.941407,0 l -4.609376,0 z m 0,0 -5.125,8.7890624 10.253908,0 z m 5.128908,8.7890624 10.253907,0 -5.128908,-8.7890624 z m 0,0 -5.128908,8.789063 10.253907,0 z m 5.124999,8.789063 7.691406,0 0,-4.394531 -2.562498,-4.394532 z m 5.128908,-8.789063 2.562498,0 0,-1.832031 c 0,-0.914063 -0.0078,-1.7500004 -0.02338,-2.5234374 z m -15.382815,8.789063 -5.125,-8.789063 -5.128905,8.789063 z m 10.253907,-17.5781254 7.308595,0 C 46.499502,1.8325124 45.16747,0.9614194 42.022937,0.6879813 z m -30.7617192,0 L 6.679188,0.6372004 C 3.0190312,0.8442316 1.5385621,1.6332935 0.9448122,4.5903256 z M 3.8588751,13.379388 0.620594,7.8247005 C 0.577625,8.8989195 0.562,10.133294 0.562,11.547357 l 0,1.832031 z m 15.3789069,26.367187 -4.484374,7.691407 8.972656,0 z m 10.253905,0 -4.484374,7.691407 8.972656,0 z M 2.5932501,46.367669 0.9916881,43.621575 c 0.2929677,1.316405 0.7851561,2.17969 1.601562,2.746094 z"/><path id="path104" fill="#f9f9f9" fill-opacity="1" d="M 23.78125,9.9999997 C 20.173722,9.8840035 16.568763,12.762543 16.375,18.375 c 0.117118,1.367827 0.892578,3.274902 1.6875,4 l 0.03125,0.03125 c 0.01538,0.01344 0.04713,0.01873 0.0625,0.03125 L 19.8125,24.125 18,26 18.03125,26.03125 C 14.84101,27.572556 11.655815,30.61995 11,34 l 0,2 26,0 0,-2 C 36.338072,31.082327 33.024754,27.754641 28.84375,25.9375 L 27.125,24.15625 c 0.485842,-0.473208 1.557439,-1.400092 1.96875,-2.125 l 0,0.0625 c 0.815716,-0.316514 1.827924,-1.517642 2,-2.5625 -0.1034,-6.311327 -3.704972,-9.415254 -7.3125,-9.5312503 z m 3.25,14.1562503 0.03125,0 -0.0625,0.0625 0.03125,-0.0625 z m -3.65625,3.65625 0.15625,0 -0.0625,0.09375 L 23.375,27.8125 z"/></svg>