<svg xmlns="http://www.w3.org/2000/svg" xmlns:svg="http://www.w3.org/2000/svg" xmlns:xlink="http://www.w3.org/1999/xlink" id="svg2" width="48" height="48" version="1.1" viewBox="0 0 13.547 13.547"><metadata id="metadata36"/><defs id="defs4"><linearGradient id="0" x2="0" y1="1053.16" y2="1004.85" gradientTransform="matrix(2.66667,0,0,2.66667,0,-2678.2992)" gradientUnits="userSpaceOnUse"><stop id="stop7" stop-color="#254820"/><stop id="stop9" offset="1" stop-color="#4f8947"/></linearGradient><linearGradient id="1" x2="0" y1="1050.36" y2="1006.36" gradientTransform="matrix(0.28222223,0,0,0.28222223,0,-283.45334)" gradientUnits="userSpaceOnUse" xlink:href="#0"/><radialGradient id="radialGradient3009" cx="148.004" cy="160" r="128" gradientTransform="matrix(0.05167489,0,0,0.05167489,-0.87511041,-1.4947552)" gradientUnits="userSpaceOnUse" xlink:href="#radial0"/><radialGradient id="radial0" cx="148.004" cy="160" r="128" gradientTransform="matrix(0.1831,0,0,0.1831,-3.10029,-5.29688)" gradientUnits="userSpaceOnUse"><stop id="stop7-6" offset="0" stop-color="#8cd598" stop-opacity="1"/><stop id="stop9-7" offset="1" stop-color="#177012" stop-opacity="1"/></radialGradient><radialGradient id="radialGradient3012" cx="148.004" cy="160" r="128" gradientTransform="matrix(0.05167489,0,0,0.05167489,-0.87511041,-1.4947553)" gradientUnits="userSpaceOnUse" xlink:href="#radial0"/></defs><path id="path11" fill="url(#radialGradient3012)" d="m 13.387776,3.2589268 0,7.0290972 c 0,2.892779 0,3.100034 -3.100034,3.100034 l -7.0279942,0 c -3.10113741,0 -3.10113741,-0.207255 -3.10113741,-3.100034 l 0,-7.0290972 c 0,-2.89277789 0,-3.10003479 3.10113741,-3.10003479 l 7.0279942,0 c 3.100034,0 3.100034,0.2072569 3.100034,3.10003479 z"/><path id="path15" fill="#fff" fill-opacity=".051" d="m 10.799269,13.388058 c 0.717682,-0.0033 1.235826,-0.02315 1.611754,-0.124572 l -1.193932,-2.046112 -1.265589,2.170684 0.33624,0 c 0.180799,0 0.350572,0 0.511527,0 z M 11.217091,11.217374 9.770703,8.7369043 8.323212,11.217374 z m 0,0 2.159662,0 c 0.0088,-0.274506 0.01102,-0.582084 0.01102,-0.930452 l 0,-0.3097839 L 12.66458,8.7369043 z M 12.664582,8.7369043 11.217091,6.2564356 9.770703,8.7369043 z m 0,0 0.723194,0 0,-1.2402343 z m -2.893879,0 -1.447491,-2.4804687 -1.44639,2.4804687 z m -2.893881,0 -1.447491,2.4804697 2.893881,0 z m 0,0 L 5.429331,6.2564356 3.982942,8.7369043 z m -2.89388,0 -1.4474913,2.4804697 2.8938803,0 z m 0,0 L 2.5354507,6.2564356 1.0890618,8.7369043 z m -2.8938802,0 -0.93045141,1.5941157 c 0,0.329626 0.00331,0.623975 0.011024,0.886354 l 2.36581591,0 z m 0,0 -0.93045141,-1.5941145 0,1.5941145 z m 1.4463889,2.4804697 -1.2170833,2.086901 c 0.450894,0.08268 1.0748699,0.08378 1.9413804,0.08378 l 0.5423955,0 z m 0,-4.9609384 -1.4463889,-2.4804689 -0.93045141,1.5941147 0,0.8863542 z m 0,0 2.8938803,0 L 3.982942,3.7759667 z M 3.982942,3.7759667 2.5354507,1.295498 1.0890618,3.7759667 z m 0,0 2.89388,0 L 5.429331,1.295498 z M 5.429331,1.295498 4.765669,0.15889201 l -1.5070239,0 c -0.020946,0 -0.038585,0 -0.059531,0 L 2.5354506,1.295498 z m 0,0 2.893881,0 -0.663663,-1.13660599 -1.566554,0 z m 2.893881,0 2.893879,0 -0.663663,-1.13660599 c -0.08819,0 -0.17198,0 -0.266788,0 l -1.299766,0 z m 0,0 -1.44639,2.4804687 2.893881,0 z m 1.447491,2.4804687 2.893879,0 -1.447491,-2.4804687 z m 0,0 -1.447491,2.4804689 2.893879,0 z m 1.446388,2.4804689 2.170685,0 0,-1.2402343 -0.723194,-1.2402346 z m 1.447491,-2.4804689 0.723194,0 0,-0.5170399 c 0,-0.2579689 -0.0022,-0.4938889 -0.0066,-0.71217 z M 8.323212,6.2564356 6.876822,3.7759667 5.429331,6.2564356 z m 2.893879,-4.9609376 2.062648,0 C 13.123194,0.51718191 12.747265,0.27134001 11.859807,0.19416981 z m -8.6816403,0 L 1.8850168,0.17983821 C 0.85203909,0.23826721 0.43421789,0.46095781 0.26664839,1.295498 z M 1.0890618,3.7759667 0.17514689,2.2083102 c -0.012127,0.3031685 -0.016538,0.6515366 -0.016538,1.0506166 l 0,0.5170399 z m 4.3402692,7.4414073 -1.26559,2.170684 2.532283,0 z m 2.893881,0 -1.265591,2.170684 2.532283,0 z m -7.59133771,1.868619 -0.4519964,-0.775009 c 0.082682,0.371521 0.2215884,0.615157 0.4519964,0.775009 z"/><path id="path30" fill="#f9f9f9" d="M 10.159998,9.5955601 V 8.4666709 H 6.773331 v 1.1288892 h 3.386667 z"/><path id="path32" fill="#f9f9f9" d="M 4.160772,8.4666669 3.3866645,7.6457045 5.128371,6.2088891 3.3866645,4.7721544 4.160772,3.951111 6.773331,6.2088891 4.160772,8.4666669 z"/></svg>