<?xml version="1.0" encoding="UTF-8" standalone="no"?>
<svg
   xmlns:dc="http://purl.org/dc/elements/1.1/"
   xmlns:cc="http://creativecommons.org/ns#"
   xmlns:rdf="http://www.w3.org/1999/02/22-rdf-syntax-ns#"
   xmlns:svg="http://www.w3.org/2000/svg"
   xmlns="http://www.w3.org/2000/svg"
   xmlns:sodipodi="http://sodipodi.sourceforge.net/DTD/sodipodi-0.dtd"
   xmlns:inkscape="http://www.inkscape.org/namespaces/inkscape"
   width="48"
   height="48"
   viewBox="0 0 48 48"
   id="svg2"
   version="1.1"
   inkscape:version="0.48.4 r9939"
   sodipodi:docname="docky.svg">
  <defs
     id="defs3019" />
  <metadata
     id="metadata35">
    <rdf:RDF>
      <cc:Work
         rdf:about="">
        <dc:format>image/svg+xml</dc:format>
        <dc:type
           rdf:resource="http://purl.org/dc/dcmitype/StillImage" />
        <dc:title></dc:title>
      </cc:Work>
    </rdf:RDF>
  </metadata>
  <sodipodi:namedview
     pagecolor="#ffffff"
     bordercolor="#666666"
     borderopacity="1"
     objecttolerance="10"
     gridtolerance="10"
     guidetolerance="10"
     inkscape:pageopacity="0"
     inkscape:pageshadow="2"
     inkscape:window-width="1024"
     inkscape:window-height="692"
     id="namedview33"
     showgrid="false"
     inkscape:zoom="4.9166667"
     inkscape:cx="24.108986"
     inkscape:cy="20.716854"
     inkscape:window-x="0"
     inkscape:window-y="24"
     inkscape:window-maximized="1"
     inkscape:current-layer="svg2" />
  <path
     fill="#808080"
     d="M 47.4375 11.546875 L 47.4375 36.453125 C 47.4375 46.703125 47.4375 47.4375 36.453125 47.4375 L 11.550781 47.4375 C 0.5625 47.4375 0.5625 46.703125 0.5625 36.453125 L 0.5625 11.546875 C 0.5625 1.296875 0.5625 0.5625 11.550781 0.5625 L 36.453125 0.5625 C 47.4375 0.5625 47.4375 1.296875 47.4375 11.546875 Z "
     id="path11"
     style="fill:#ae2434;fill-opacity:1" />
  <path
     inkscape:connector-curvature="0"
     id="path15"
     d="m 38.265625,47.4375 c 2.542969,-0.01172 4.378906,-0.08203 5.710937,-0.441406 l -4.230468,-7.25 -4.484375,7.691406 1.191406,0 c 0.640625,0 1.242187,0 1.8125,0 z m 1.480469,-7.691406 -5.125,-8.789063 -5.128906,8.789063 z m 0,0 7.652344,0 c 0.03125,-0.972656 0.03906,-2.0625 0.03906,-3.296875 l 0,-1.097657 -2.5625,-4.394531 z m 5.128906,-8.789063 -5.128906,-8.789062 -5.125,8.789062 z m 0,0 2.5625,0 0,-4.394531 z m -10.253906,0 -5.128906,-8.789062 -5.125,8.789062 z m -10.253906,0 -5.128907,8.789063 10.253907,0 z m 0,0 -5.128907,-8.789062 -5.125,8.789062 z m -10.253907,0 -5.128906,8.789063 10.253906,0 z m 0,0 -5.128906,-8.789062 -5.125,8.789062 z m -10.253906,0 -3.296875,5.648438 c 0,1.167969 0.011719,2.210937 0.039062,3.140625 l 8.382813,0 z m 0,0 -3.296875,-5.648437 0,5.648437 z m 5.125,8.789063 -4.3125,7.394531 c 1.597656,0.292969 3.808594,0.296875 6.878906,0.296875 l 1.921875,0 z m 0,-17.578125 -5.125,-8.789063 -3.296875,5.648438 0,3.140625 z m 0,0 10.253906,0 -5.125,-8.789063 z m 5.128906,-8.789063 -5.128906,-8.789062 -5.125,8.789062 z m 0,0 10.253907,0 -5.128907,-8.789062 z m 5.125,-8.789062 -2.351562,-4.027344 -5.335938,0 c -0.07813,0 -0.140625,0 -0.214843,0 L 8.984375,4.589844 z m 0,0 10.253907,0 -2.351563,-4.027344 -5.550781,0 z m 10.253907,0 10.253906,0 L 37.394531,0.5625 c -0.3125,0 -0.609375,0 -0.941406,0 l -4.609375,0 z m 0,0 -5.125,8.789062 10.253906,0 z m 5.128906,8.789062 10.253906,0 -5.128906,-8.789062 z m 0,0 -5.128906,8.789063 10.253906,0 z m 5.125,8.789063 7.691406,0 0,-4.394531 -2.5625,-4.394532 z m 5.128906,-8.789063 2.5625,0 0,-1.832031 c 0,-0.914063 -0.0078,-1.75 -0.02344,-2.523437 z m -15.382812,8.789063 -5.125,-8.789063 -5.128907,8.789063 z m 10.253906,-17.578125 7.308594,0 C 46.5,1.832031 45.167969,0.960938 42.023438,0.6875 z m -30.761719,0 L 6.679688,0.636719 C 3.019531,0.84375 1.539062,1.632812 0.945312,4.589844 z m -5.125,8.789062 L 0.621094,7.824219 C 0.578125,8.898438 0.5625,10.132812 0.5625,11.546875 l 0,1.832031 z m 15.378906,26.367188 -4.484375,7.691406 8.972656,0 z m 10.253907,0 -4.484376,7.691406 8.972657,0 z M 2.59375,46.367188 0.992188,43.621094 c 0.292968,1.316406 0.785156,2.179687 1.601562,2.746094 z"
     style="fill:#ffffff;fill-opacity:0.05882353" />
  <path
     inkscape:connector-curvature="0"
     style="color:#000000;fill:#f9f9f9;fill-opacity:1"
     d="m 12.812509,15.001019 c -0.441496,0.04394 -0.814606,0.436181 -0.81248,0.859961 v 16.279015 c 4.8e-5,0.450355 0.428776,0.859925 0.9,0.859961 H 35.09991 c 0.471331,0 0.900071,-0.409961 0.900071,-0.859961 V 17.880311 c 0,-0.450355 -0.42874,-0.859961 -0.9,-0.859961 h -9.126496 v -1.15937 c 0,-0.450354 -0.42874,-0.859961 -0.899645,-0.859961 H 12.9001 c -0.02923,-0.0013 -0.05836,-0.0013 -0.08748,0 z"
     id="path19" />
  <path
     inkscape:connector-curvature="0"
     style="text-indent:0;text-align:start;text-transform:none;direction:ltr;block-progression:tb;baseline-shift:baseline;color:#000000;fill:#ae2434;enable-background:accumulate;fill-opacity:1"
     d="m 20.520974,19.096019 c -0.514382,0 -1.015512,0.06938 -1.492441,0.191597 2.9e-5,-0.0069 -5.4e-5,-0.01336 0,-0.02016 -0.533091,0.13876 -0.930969,0.317339 -1.00839,0.352942 6.77e-4,0.01 -5.81e-4,0.02023 0,0.03026 -0.0067,0.0037 -0.01343,0.0064 -0.02016,0.0101 0.05472,0.429945 0.134461,0.856665 0.171429,1.048748 0.426826,1.774524 1.643598,3.242445 3.257149,4.013504 -0.0072,0.120058 -0.02016,0.241175 -0.02016,0.363012 0,1.637397 0.665504,3.120803 1.734449,4.205196 -0.0068,0.0035 0.0068,0.0067 0,0.0101 0.30662,0.289155 0.733819,0.62185 0.816803,0.685701 0.02229,0.01566 0.04808,0.02498 0.07058,0.04034 0.350079,-0.309685 0.671811,-0.649842 0.756496,-0.736299 1.066536,-1.084606 1.724528,-2.567835 1.724528,-4.205197 0,-0.11183 -0.0141,-0.222441 -0.02016,-0.332773 1.637469,-0.754795 2.876634,-2.218571 3.317634,-4.003228 -0.0066,-0.0037 0.0066,-0.0066 0,-0.0101 0.11317,-0.475866 0.186924,-0.993721 0.191597,-1.048748 -0.0095,-0.0046 -0.02073,-0.0056 -0.03026,-0.0101 0.0014,-0.02328 -0.0016,0.0032 0,-0.02016 -0.224291,-0.104173 -0.74374,-0.280984 -1.008779,-0.363543 1.71e-4,0.01704 0,-0.007 0,0.0101 -0.494929,-0.132584 -1.016433,-0.211766 -1.552925,-0.211766 -1.283705,0 -2.471421,0.410386 -3.448736,1.099169 -0.37428,0.282512 -0.643784,0.524232 -0.816804,0.685701 -0.01839,0.0186 -0.03228,0.04166 -0.05042,0.0605 -0.56126,0.582874 -1.000984,1.277716 -1.290827,2.046968 0.313583,0.188504 0.627874,0.340158 0.907441,0.474095 0.237047,-0.677126 0.624685,-1.287284 1.109409,-1.79504 0.0083,-0.01144 0.02013,-0.02838 0.03026,-0.04034 0.02441,-0.02877 0.04517,-0.05893 0.08067,-0.09076 0.01,-0.0089 0.02037,-0.0113 0.03026,-0.02016 0.345728,-0.306666 0.620717,-0.504106 0.826902,-0.635244 0.101728,-0.06332 0.206411,-0.12528 0.312604,-0.181513 0.690272,-0.365492 1.471465,-0.574795 2.309244,-0.574795 0.500599,0 0.987024,0.07496 1.44202,0.211762 -0.303307,1.456654 -1.237323,2.66811 -2.510787,3.347717 -0.201969,-0.841181 -0.575788,-1.61752 -1.089213,-2.279055 -0.428386,0.301889 -0.796535,0.600236 -0.826653,0.625393 0.422929,0.536528 0.735767,1.161957 0.907547,1.84539 0,0 0.01998,0.07179 0.05042,0.201682 0.01495,0.06388 0.0265,0.108581 0.05042,0.23193 0.06007,0.309923 0.05412,0.670465 0.05042,0.80674 -7.67e-4,0.02824 0,0.110924 0,0.110924 l -0.0101,0.0101 c -0.04075,1.345394 -0.610866,2.550118 -1.512283,3.418583 -0.932953,-0.898937 -1.520079,-2.159292 -1.522914,-3.559607 0.498189,0.13466 1.02313,0.211763 1.563024,0.211763 0.294622,0 0.583512,-0.02753 0.867224,-0.07059 0.01361,-0.104492 0.0236,-0.220061 0.03026,-0.393272 0.0124,-0.311102 -0.03012,-0.525827 -0.05988,-0.64559 -0.27248,0.04535 -0.552047,0.07051 -0.837283,0.07051 -0.504213,0 -0.993543,-0.07299 -1.452047,-0.21189 -0.35999,-0.07583 -0.703691,-0.252641 -0.957746,-0.403232 -0.142796,-0.08468 -0.234567,-0.147756 -0.282402,-0.181417 -1.098779,-0.707244 -1.904882,-1.822677 -2.178425,-3.146457 0.44185,-0.127559 0.908504,-0.201614 1.391811,-0.201614 0.705437,0 1.371791,0.147894 1.976457,0.413433 0.2987,-0.282401 0.655511,-0.56126 0.857126,-0.716102 -0.843662,-0.45815 -1.807441,-0.726024 -2.833583,-0.726024 z"
     id="path21" />
</svg>
