<svg xmlns="http://www.w3.org/2000/svg" xmlns:svg="http://www.w3.org/2000/svg" xmlns:xlink="http://www.w3.org/1999/xlink" id="svg2" width="48" height="48" version="1.1" viewBox="0 0 13.547 13.547"><metadata id="metadata44"/><defs id="defs4"><linearGradient id="0"><stop id="stop7" stop-color="#e31300"/><stop id="stop9" offset="1" stop-color="#faa300"/></linearGradient><linearGradient id="1"><stop id="stop12" stop-color="#19c9e5"/><stop id="stop14" offset="1" stop-color="#a6d8de"/></linearGradient><linearGradient id="2" x1="-26.468" x2="-176.39" y1="66.3" y2="2.033" gradientTransform="matrix(0.18948748,0,0,0.18660986,38.746625,18.717954)" gradientUnits="userSpaceOnUse" xlink:href="#0"/><linearGradient id="3" x2="0" y1="1050.36" y2="1006.36" gradientTransform="matrix(0.28222223,0,0,0.28222223,0,-283.45334)" gradientUnits="userSpaceOnUse" xlink:href="#1"/><radialGradient id="radialGradient3013" cx="148.004" cy="160" r="128" gradientTransform="matrix(0.05167489,0,0,0.05167489,-0.87510911,-1.4947611)" gradientUnits="userSpaceOnUse" xlink:href="#radial0"/><radialGradient id="radial0" cx="148.004" cy="160" r="128" gradientTransform="matrix(0.1831,0,0,0.1831,-3.10029,-5.29688)" gradientUnits="userSpaceOnUse"><stop id="stop7-4" offset="0" stop-color="#ffa686" stop-opacity="1"/><stop id="stop9-5" offset="1" stop-color="#d75050" stop-opacity="1"/></radialGradient><radialGradient id="radialGradient3038" cx="148.004" cy="160" r="128" gradientTransform="matrix(0.05167489,0,0,0.05167489,-0.87510911,-1.4947608)" gradientUnits="userSpaceOnUse" xlink:href="#radial0"/><linearGradient id="linearGradient3063" x1="-26.468" x2="-176.39" y1="66.3" y2="2.033" gradientTransform="matrix(0.18948748,0,0,0.18660986,38.746625,18.717954)" gradientUnits="userSpaceOnUse" xlink:href="#0"/><linearGradient id="linearGradient3066" x1="-26.468" x2="-176.39" y1="66.3" y2="2.033" gradientTransform="matrix(0.18948748,0,0,0.18660986,38.746625,18.717954)" gradientUnits="userSpaceOnUse" xlink:href="#0"/></defs><path id="path11" fill="url(#radialGradient3038)" fill-opacity="1" d="m 13.387779,3.2589213 0,7.0290977 c 0,2.892777 0,3.100034 -3.100035,3.100034 l -7.0279951,0 c -3.10113701,0 -3.10113701,-0.207257 -3.10113701,-3.100034 l 0,-7.0290977 c 0,-2.89277789 0,-3.10003479 3.10113701,-3.10003479 l 7.0279951,0 c 3.100035,0 3.100035,0.2072569 3.100035,3.10003479 z"/><path id="path15" fill="#fff" fill-opacity=".051" d="m 10.799272,13.388053 c 0.717682,-0.0033 1.235825,-0.02315 1.611753,-0.124575 l -1.193932,-2.04611 -1.2655901,2.170685 0.3362411,0 c 0.180799,0 0.350573,0 0.511528,0 z M 11.217093,11.217368 9.7707049,8.7368988 8.3232139,11.217368 z m 0,0 2.159662,0 c 0.0088,-0.274505 0.01102,-0.582083 0.01102,-0.930451 l 0,-0.3097839 -0.723193,-1.2402343 z M 12.664585,8.7368988 11.217093,6.2564301 9.7707049,8.7368988 z m 0,0 0.723194,0 0,-1.2402343 z m -2.8938801,0 -1.447491,-2.4804687 -1.4463901,2.4804687 z m -2.8938811,0 -1.447491,2.4804692 2.8938811,0 z m 0,0 -1.447491,-2.4804687 -1.4463889,2.4804687 z m -2.8938799,0 -1.447491,2.4804692 2.8938799,0 z m 0,0 -1.447491,-2.4804687 -1.446389,2.4804687 z m -2.89388,0 -0.93045201,1.5941152 c 0,0.329627 0.0033,0.623976 0.01102,0.886354 l 2.36581601,0 z m 0,0 -0.93045201,-1.5941145 0,1.5941145 z m 1.446389,2.4804692 -1.217084,2.0869 c 0.450894,0.08268 1.07487,0.08379 1.94138,0.08379 l 0.5423961,0 z m 0,-4.9609379 -1.446389,-2.4804689 -0.93045201,1.5941147 0,0.8863542 z m 0,0 2.8938799,0 L 3.9829439,3.7759612 z M 3.9829439,3.7759612 2.5354529,1.2954925 1.0890639,3.7759612 z m 0,0 2.8938799,0 -1.447491,-2.4804687 z M 5.4293328,1.2954925 4.76567,0.15888651 l -1.5059211,0 c -0.02205,0 -0.03969,0 -0.06063,0 L 2.5354569,1.2954925 z m 0,0 2.8938811,0 -0.6636639,-1.13660599 -1.5665541,0 z m 2.8938811,0 2.8938791,0 -0.663663,-1.13660599 c -0.0882,0 -0.171979,0 -0.265686,0 l -1.3008682,0 z m 0,0 -1.4463901,2.4804687 2.8938811,0 z m 1.447491,2.4804687 2.8938801,0 -1.447492,-2.4804687 z m 0,0 -1.447491,2.4804689 2.8938791,0 z m 1.4463881,2.4804689 2.170686,0 0,-1.2402343 -0.723194,-1.2402346 z m 1.447492,-2.4804689 0.723194,0 0,-0.5170399 c 0,-0.2579689 -0.0022,-0.4938889 -0.0066,-0.71217 z M 8.3232139,6.2564301 6.8768238,3.7759612 5.4293328,6.2564301 z m 2.8938791,-4.9609376 2.062648,0 C 13.123196,0.51717641 12.747267,0.27133451 11.85981,0.19416431 z m -8.6816401,0 -0.650434,-1.11565979 C 0.85204089,0.23826171 0.43421989,0.46095231 0.26664989,1.2954925 z M 1.0890639,3.7759612 0.17514889,2.208305 c -0.01213,0.3031685 -0.01654,0.6515363 -0.01654,1.0506163 l 0,0.5170399 z m 4.3402689,7.4414068 -1.2655908,2.170685 2.5322829,0 z m 2.8938811,0 -1.265592,2.170685 2.5322849,0 z m -7.59133801,1.868619 -0.451996,-0.775009 c 0.08268,0.371519 0.221588,0.615157 0.451996,0.775009 z"/><path id="path34" fill="#f9f9f9" fill-opacity="1" d="M 20.59375 12 L 21.0625 15.15625 C 20.330244 14.13148 19.350982 13.395229 18.15625 12.75 C 18.99128 14.116367 19.483657 15.421589 19.625 16.75 C 18.738582 15.851743 18.363476 15.009726 16.9375 14.71875 C 16.706263 13.997616 16.379073 13.363846 14.375 13.25 C 13.963906 12.693481 13.513148 12.55427 12.5625 12.71875 L 12 14.09375 L 13.8125 14.125 C 14.416294 14.415983 14.956622 14.891968 15.40625 15.5625 C 17.885647 16.068562 17.868422 16.913485 18.34375 17.875 L 16.15625 16.40625 C 16.374624 17.102085 16.443238 17.804169 16.46875 18.5 C 15.102029 17.674675 15.303752 16.211142 14.6875 16.0625 C 14.316098 15.972925 14.76604 18.069015 15.4375 19.375 C 15.4375 19.526817 13.46875 18.9375 13.46875 18.9375 C 14.081289 19.878658 15.077554 20.601668 16.53125 20.53125 C 7.575403 32.314855 24.722908 42.760041 34.15625 30.46875 C 38.931925 21.649509 33.661706 14.158108 26.96875 14.125 C 25.661597 14.118534 24.288937 14.395237 22.9375 15 C 22.895593 14.065631 22.185718 13.139981 20.59375 12 z M 23.875 16.375 C 27.663145 16.352687 28.631558 17.950882 30.53125 19.3125 C 28.349882 18.32306 25.770949 18.000272 23.1875 18.0625 A 2.6207085 2.5429544 0 0 1 23.5 19.25 A 2.6207085 2.5429544 0 0 1 19.53125 21.4375 C 19.338726 23.535316 19.376205 25.41319 19.4375 27.5 C 18.720229 25.3928 18.185101 23.720099 18.5 20.34375 A 2.6207085 2.5429544 0 0 1 18.4375 20.21875 C 17.819419 22.622157 16.941718 24.901477 16.6875 27.25 C 16.436155 24.957681 16.298461 22.555556 17.5 20.34375 C 18.295127 20.145578 19.200081 19.761978 20.21875 19.09375 C 21.272892 18.068704 22.044648 17.217004 22.5 16.4375 C 22.994271 16.398196 23.456089 16.377468 23.875 16.375 z" transform="scale(0.28222223,0.28222223)"/></svg>