<svg xmlns="http://www.w3.org/2000/svg" xmlns:svg="http://www.w3.org/2000/svg" xmlns:xlink="http://www.w3.org/1999/xlink" id="svg2" width="48" height="48" version="1.1" viewBox="0 0 13.547 13.547"><metadata id="metadata39"/><defs id="defs4"><linearGradient id="0"><stop id="stop7" stop-color="#f0f0f0"/><stop id="stop9" offset="1" stop-color="#f4f4f4"/></linearGradient><linearGradient id="1" x2="0" y1="279.1" y2="268.33" gradientTransform="matrix(1.1052482,0,0,1.1052482,-134.27874,-295.76214)" gradientUnits="userSpaceOnUse" xlink:href="#0"/><linearGradient id="2" x2="0" y1="1050.36" y2="1006.36" gradientTransform="matrix(0.28222223,0,0,0.28222223,0,-283.45334)" gradientUnits="userSpaceOnUse" xlink:href="#0"/><radialGradient id="radialGradient3051" cx="148.004" cy="160" r="128" gradientTransform="matrix(0.05167489,0,0,0.05167489,-0.87511111,-1.4947564)" gradientUnits="userSpaceOnUse" xlink:href="#radial0"/><radialGradient id="radial0" cx="148.004" cy="160" r="128" gradientTransform="matrix(0.1831,0,0,0.1831,-3.10029,-5.29688)" gradientUnits="userSpaceOnUse"><stop id="stop7-6" offset="0" stop-color="#d68ed6"/><stop id="stop9-8" offset="1" stop-color="#7d197e"/></radialGradient><radialGradient id="radialGradient3022" cx="148.004" cy="160" r="128" gradientTransform="matrix(0.05167489,0,0,0.05167489,-0.87511111,-1.4947562)" gradientUnits="userSpaceOnUse" xlink:href="#radial0"/></defs><path id="path11" fill="url(#radialGradient3022)" d="m 13.387776,3.2589258 0,7.0290972 c 0,2.892778 0,3.100035 -3.100035,3.100035 l -7.0279944,0 c -3.10113771,0 -3.10113771,-0.207257 -3.10113771,-3.100035 l 0,-7.0290972 c 0,-2.89277773 0,-3.10003473 3.10113771,-3.10003473 l 7.0279944,0 c 3.100035,0 3.100035,0.207257 3.100035,3.10003473 z"/><g id="g15" fill="#fff" transform="matrix(0.28222223,0,0,0.28222223,-1.4110721e-4,1.4107158e-4)"><path id="path17-5" fill-opacity=".051" d="m 38.265625,47.4375 c 2.542969,-0.01172 4.378906,-0.08203 5.710937,-0.441406 l -4.230468,-7.25 -4.484375,7.691406 1.191406,0 c 0.640625,0 1.242187,0 1.8125,0 z m 1.480469,-7.691406 -5.125,-8.789063 -5.128906,8.789063 z m 0,0 7.652344,0 c 0.03125,-0.972656 0.03906,-2.0625 0.03906,-3.296875 l 0,-1.097657 -2.5625,-4.394531 z m 5.128906,-8.789063 -5.128906,-8.789062 -5.125,8.789062 z m 0,0 2.5625,0 0,-4.394531 z m -10.253906,0 -5.128906,-8.789062 -5.125,8.789062 z m -10.253906,0 -5.128907,8.789063 10.253907,0 z m 0,0 -5.128907,-8.789062 -5.125,8.789062 z m -10.253907,0 -5.128906,8.789063 10.253906,0 z m 0,0 -5.128906,-8.789062 -5.125,8.789062 z m -10.253906,0 -3.296875,5.648438 c 0,1.167969 0.011719,2.210937 0.039062,3.140625 l 8.382813,0 z m 0,0 -3.296875,-5.648437 0,5.648437 z m 5.125,8.789063 -4.3125,7.394531 c 1.597656,0.292969 3.808594,0.296875 6.875,0.296875 l 1.925781,0 z m 0,-17.578125 -5.125,-8.789063 -3.296875,5.648438 0,3.140625 z m 0,0 10.253906,0 -5.125,-8.789063 z m 5.128906,-8.789063 -5.128906,-8.789062 -5.125,8.789062 z m 0,0 10.253907,0 -5.128907,-8.789062 z m 5.125,-8.789062 -2.351562,-4.027344 -5.339844,0 c -0.07422,0 -0.136719,0 -0.210937,0 L 8.984375,4.589844 z m 0,0 10.253907,0 -2.351563,-4.027344 -5.550781,0 z m 10.253907,0 10.253906,0 L 37.394531,0.5625 c -0.3125,0 -0.609375,0 -0.945312,0 l -4.605469,0 z m 0,0 -5.125,8.789062 10.253906,0 z m 5.128906,8.789062 10.253906,0 -5.128906,-8.789062 z m 0,0 -5.128906,8.789063 10.253906,0 z m 5.125,8.789063 7.691406,0 0,-4.394531 -2.5625,-4.394532 z m 5.128906,-8.789063 2.5625,0 0,-1.832031 c 0,-0.914063 -0.0078,-1.75 -0.02344,-2.523437 z m -15.382812,8.789063 -5.125,-8.789063 -5.128907,8.789063 z m 10.253906,-17.578125 7.308594,0 C 46.5,1.832031 45.167969,0.960938 42.023438,0.6875 z m -30.761719,0 L 6.679688,0.636719 C 3.019531,0.84375 1.539062,1.632812 0.945312,4.589844 z m -5.125,8.789062 L 0.621094,7.824219 C 0.578125,8.898438 0.5625,10.132812 0.5625,11.546875 l 0,1.832031 z m 15.378906,26.367188 -4.484375,7.691406 8.972656,0 z m 10.253907,0 -4.484376,7.691406 8.972657,0 z M 2.59375,46.367188 0.992188,43.621094 c 0.292968,1.316406 0.785156,2.179687 1.601562,2.746094 z"/></g><path id="path31" fill="#f9f9f9" fill-opacity="1" d="M 24.03125 13 C 22.962633 13 21.908048 13.132326 20.90625 13.40625 L 27.21875 17.34375 C 27.281664 17.371541 27.344226 17.408097 27.40625 17.4375 C 27.927952 17.684817 28.426392 17.989172 28.875 18.34375 C 28.927823 18.385501 28.97958 18.425606 29.03125 18.46875 L 35.875 22.6875 L 37 18.6875 L 34.5625 19.625 C 32.734375 15.60026 28.641462 13 24.03125 13 z M 17 15.3125 C 15.366622 16.517485 14.048873 18.13032 13.28125 20.03125 L 16.875 21.375 C 16.909498 21.289315 16.962302 21.208927 17 21.125 L 17 15.3125 z" transform="scale(0.28222223,0.28222223)"/><path id="path33" fill="#f9f9f9" fill-opacity="1" d="M 13.03125 22.4375 L 11 29.21875 L 13.46875 28.3125 C 14.24674 30.055306 15.482225 31.529204 17 32.65625 L 17 24.59375 L 13.03125 22.4375 z M 32.78125 27.3125 L 21.21875 34.65625 C 22.12406 34.877432 23.073349 35 24.03125 35 C 28.764788 35 32.96317 32.269857 34.71875 28.0625 L 32.78125 27.3125 z" transform="scale(0.28222223,0.28222223)"/><path id="path35" fill="#f9f9f9" fill-opacity="1" d="m 5.3622224,3.9511112 0,5.6444446 4.2333316,-2.8222162 z"/></svg>