<svg xmlns="http://www.w3.org/2000/svg" xmlns:svg="http://www.w3.org/2000/svg" xmlns:xlink="http://www.w3.org/1999/xlink" id="svg2" width="48" height="48" version="1.1" viewBox="0 0 13.547 13.547"><metadata id="metadata409"/><defs id="defs4"><clipPath id="clipPath6"><rect id="rect8" width="42" height="42" x="307" y="223" fill="url(#1)" color="#bebebe" rx="9" transform="rotate(90)"/></clipPath><clipPath id="clipPath10"><rect id="rect12" width="22" height="22" x="433" y="77" color="#bebebe" rx="5"/></clipPath><clipPath id="clipPath14"><rect id="rect16" width="20" height="20" x="434" y="78" color="#bebebe" rx="4"/></clipPath><clipPath id="clipPath18"><rect id="rect20" width="30" height="30" x="433" y="29" color="#bebebe" rx="6"/></clipPath><clipPath id="clipPath22"><rect id="rect24" width="90" height="90" x="307" y="31" fill="url(#0)" color="#bebebe" rx="18.75"/></clipPath><clipPath id="clipPath26"><rect id="rect28" width="22" height="22" x="433" y="77" color="#bebebe" rx="4"/></clipPath><clipPath id="clipPath30"><rect id="rect32" width="16" height="16" x="432" y="116" color="#bebebe" rx="3"/></clipPath><clipPath id="clipPath34"><rect id="rect36" width="60" height="60" x="306" y="142" fill="url(#3)" color="#bebebe" rx="12.5" transform="matrix(0 -1 1 0 0 0)"/></clipPath><clipPath id="clipPath38"><rect id="rect40" width="240" height="240" x="24" y="36" fill="#986767" color="#bebebe" rx="50"/></clipPath><clipPath id="clipPath42"><rect id="rect44" width="30" height="30" x="433" y="29" fill="#6d6d6d" color="#bebebe" opacity=".2" rx="4"/></clipPath><clipPath id="clipPath46"><g id="g48"><path id="path50" fill="#fff" d="m 386.99999,114 a 5.0034642,5.000154 0 1 1 -10.00693,0 5.0034642,5.000154 0 1 1 10.00693,0 z" color="#000" opacity=".5"/><path id="path52" fill="#fff" d="m 377.00002,114 a 5.0034642,5.000154 0 1 1 -10.00693,0 5.0034642,5.000154 0 1 1 10.00693,0 z" color="#000" opacity=".5"/><path id="path54" fill="#fff" d="m 367.00002,114 a 5.0034642,5.000154 0 1 1 -10.00693,0 5.0034642,5.000154 0 1 1 10.00693,0 z" color="#000" opacity=".5"/><path id="path56" fill="#fff" d="m 357.00002,114 a 5.0034642,5.000154 0 1 1 -10.00693,0 5.0034642,5.000154 0 1 1 10.00693,0 z" color="#000"/><path id="path58" fill="#fff" d="m 347.00002,114 a 5.0034642,5.000154 0 1 1 -10.00693,0 5.0034642,5.000154 0 1 1 10.00693,0 z" color="#000"/><path id="path60" fill="#fff" d="m 337.00002,114 a 5.0034642,5.000154 0 1 1 -10.00693,0 5.0034642,5.000154 0 1 1 10.00693,0 z" color="#000" opacity=".5"/><path id="path62" fill="#fff" d="m 327.00002,114 a 5.0034642,5.000154 0 1 1 -10.00693,0 5.0034642,5.000154 0 1 1 10.00693,0 z" color="#000" opacity=".5"/><path id="path64" fill="#fff" d="m 386.99999,104 a 5.0034642,5.000154 0 1 1 -10.00693,0 5.0034642,5.000154 0 1 1 10.00693,0 z" color="#000" opacity=".5"/><path id="path66" fill="#fff" d="m 377.00002,104 a 5.0034642,5.000154 0 1 1 -10.00693,0 5.0034642,5.000154 0 1 1 10.00693,0 z" color="#000" opacity=".5"/><path id="path68" fill="#fff" d="m 367.00002,104 a 5.0034642,5.000154 0 1 1 -10.00693,0 5.0034642,5.000154 0 1 1 10.00693,0 z" color="#000" opacity=".5"/><path id="path70" fill="#fff" d="m 357.00002,104 a 5.0034642,5.000154 0 1 1 -10.00693,0 5.0034642,5.000154 0 1 1 10.00693,0 z" color="#000"/><path id="path72" fill="#fff" d="m 347.00002,104 a 5.0034642,5.000154 0 1 1 -10.00693,0 5.0034642,5.000154 0 1 1 10.00693,0 z" color="#000" opacity=".5"/><path id="path74" fill="#fff" d="m 337.00002,104 a 5.0034642,5.000154 0 1 1 -10.00693,0 5.0034642,5.000154 0 1 1 10.00693,0 z" color="#000" opacity=".5"/><path id="path76" fill="#fff" d="m 327.00002,104 a 5.0034642,5.000154 0 1 1 -10.00693,0 5.0034642,5.000154 0 1 1 10.00693,0 z" color="#000" opacity=".5"/><path id="path78" fill="#fff" d="m 387.00002,94 a 5.0034642,5.000154 0 1 1 -10.00693,0 5.0034642,5.000154 0 1 1 10.00693,0 z" color="#000" opacity=".5"/><path id="path80" fill="#fff" d="m 377.00005,94 a 5.0034642,5.000154 0 1 1 -10.00693,0 5.0034642,5.000154 0 1 1 10.00693,0 z" color="#000" opacity=".5"/><path id="path82" fill="#fff" d="m 367.00005,94 a 5.0034642,5.000154 0 1 1 -10.00693,0 5.0034642,5.000154 0 1 1 10.00693,0 z" color="#000" opacity=".5"/><path id="path84" fill="#fff" d="m 357.00005,94 a 5.0034642,5.000154 0 1 1 -10.00693,0 5.0034642,5.000154 0 1 1 10.00693,0 z" color="#000"/><path id="path86" fill="#fff" d="m 347.00005,94 a 5.0034642,5.000154 0 1 1 -10.00693,0 5.0034642,5.000154 0 1 1 10.00693,0 z" color="#000" opacity=".5"/><path id="path88" fill="#fff" d="m 337.00005,94 a 5.0034642,5.000154 0 1 1 -10.00693,0 5.0034642,5.000154 0 1 1 10.00693,0 z" color="#000" opacity=".5"/><path id="path90" fill="#fff" d="m 327.00005,94 a 5.0034642,5.000154 0 1 1 -10.00693,0 5.0034642,5.000154 0 1 1 10.00693,0 z" color="#000" opacity=".5"/><path id="path92" fill="#fff" d="m 386.99999,84 a 5.0034642,5.000154 0 1 1 -10.00693,0 5.0034642,5.000154 0 1 1 10.00693,0 z" color="#000" opacity=".5"/><path id="path94" fill="#fff" d="m 377.00002,84 a 5.0034642,5.000154 0 1 1 -10.00693,0 5.0034642,5.000154 0 1 1 10.00693,0 z" color="#000" opacity=".5"/><path id="path96" fill="#fff" d="m 367.00002,84 a 5.0034642,5.000154 0 1 1 -10.00693,0 5.0034642,5.000154 0 1 1 10.00693,0 z" color="#000" opacity=".5"/><path id="path98" fill="#fff" d="m 357.00002,84 a 5.0034642,5.000154 0 1 1 -10.00693,0 5.0034642,5.000154 0 1 1 10.00693,0 z" color="#000"/><path id="path100" fill="#fff" d="m 347.00002,84 a 5.0034642,5.000154 0 1 1 -10.00693,0 5.0034642,5.000154 0 1 1 10.00693,0 z" color="#000" opacity=".5"/><path id="path102" fill="#fff" d="m 337.00002,84 a 5.0034642,5.000154 0 1 1 -10.00693,0 5.0034642,5.000154 0 1 1 10.00693,0 z" color="#000" opacity=".5"/><path id="path104" fill="#fff" d="m 327.00002,84 a 5.0034642,5.000154 0 1 1 -10.00693,0 5.0034642,5.000154 0 1 1 10.00693,0 z" color="#000" opacity=".5"/><path id="path106" fill="#fff" d="m 386.99999,74 a 5.0034642,5.000154 0 1 1 -10.00693,0 5.0034642,5.000154 0 1 1 10.00693,0 z" color="#000" opacity=".5"/><path id="path108" fill="#fff" d="m 377.00002,74 a 5.0034642,5.000154 0 1 1 -10.00693,0 5.0034642,5.000154 0 1 1 10.00693,0 z" color="#000" opacity=".5"/><path id="path110" fill="#fff" d="m 367.00002,74 a 5.0034642,5.000154 0 1 1 -10.00693,0 5.0034642,5.000154 0 1 1 10.00693,0 z" color="#000"/><path id="path112" fill="#fff" d="m 357.00002,74 a 5.0034642,5.000154 0 1 1 -10.00693,0 5.0034642,5.000154 0 1 1 10.00693,0 z" color="#000"/><path id="path114" fill="#fff" d="m 347.00002,74 a 5.0034642,5.000154 0 1 1 -10.00693,0 5.0034642,5.000154 0 1 1 10.00693,0 z" color="#000"/><path id="path116" fill="#fff" d="m 337.00002,74 a 5.0034642,5.000154 0 1 1 -10.00693,0 5.0034642,5.000154 0 1 1 10.00693,0 z" color="#000" opacity=".5"/><path id="path118" fill="#fff" d="m 327.00002,74 a 5.0034642,5.000154 0 1 1 -10.00693,0 5.0034642,5.000154 0 1 1 10.00693,0 z" color="#000" opacity=".5"/><path id="path120" fill="#fff" d="m 387.00002,64 a 5.0034642,5.000154 0 1 1 -10.00693,0 5.0034642,5.000154 0 1 1 10.00693,0 z" color="#000" opacity=".5"/><path id="path122" fill="#fff" d="m 377.00005,64 a 5.0034642,5.000154 0 1 1 -10.00693,0 5.0034642,5.000154 0 1 1 10.00693,0 z" color="#000"/><path id="path124" fill="#fff" d="m 367.00005,64 a 5.0034642,5.000154 0 1 1 -10.00693,0 5.0034642,5.000154 0 1 1 10.00693,0 z" color="#000" opacity=".5"/><path id="path126" fill="#fff" d="m 357.00005,64 a 5.0034642,5.000154 0 1 1 -10.00693,0 5.0034642,5.000154 0 1 1 10.00693,0 z" color="#000" opacity=".5"/><path id="path128" fill="#fff" d="m 347.00005,64 a 5.0034642,5.000154 0 1 1 -10.00693,0 5.0034642,5.000154 0 1 1 10.00693,0 z" color="#000" opacity=".5"/><path id="path130" fill="#fff" d="m 337.00005,64 a 5.0034642,5.000154 0 1 1 -10.00693,0 5.0034642,5.000154 0 1 1 10.00693,0 z" color="#000"/><path id="path132" fill="#fff" d="m 327.00005,64 a 5.0034642,5.000154 0 1 1 -10.00693,0 5.0034642,5.000154 0 1 1 10.00693,0 z" color="#000" opacity=".5"/><path id="path134" fill="#fff" d="m 387.00002,54 a 5.0034642,5.000154 0 1 1 -10.00693,0 5.0034642,5.000154 0 1 1 10.00693,0 z" color="#000" opacity=".5"/><path id="path136" fill="#fff" d="m 377.00005,54 a 5.0034642,5.000154 0 1 1 -10.00693,0 5.0034642,5.000154 0 1 1 10.00693,0 z" color="#000" opacity=".5"/><path id="path138" fill="#fff" d="m 367.00005,54 a 5.0034642,5.000154 0 1 1 -10.00693,0 5.0034642,5.000154 0 1 1 10.00693,0 z" color="#000"/><path id="path140" fill="#fff" d="m 357.00005,54 a 5.0034642,5.000154 0 1 1 -10.00693,0 5.0034642,5.000154 0 1 1 10.00693,0 z" color="#000"/><path id="path142" fill="#fff" d="m 347.00005,54 a 5.0034642,5.000154 0 1 1 -10.00693,0 5.0034642,5.000154 0 1 1 10.00693,0 z" color="#000"/><path id="path144" fill="#fff" d="m 337.00005,54 a 5.0034642,5.000154 0 1 1 -10.00693,0 5.0034642,5.000154 0 1 1 10.00693,0 z" color="#000" opacity=".5"/><path id="path146" fill="#fff" d="m 327.00005,54 a 5.0034642,5.000154 0 1 1 -10.00693,0 5.0034642,5.000154 0 1 1 10.00693,0 z" color="#000" opacity=".5"/></g></clipPath><clipPath id="clipPath148"><rect id="rect150" width="16" height="16" x="432" y="116" fill="#6d6d6d" color="#bebebe" opacity=".2" rx="2"/></clipPath><clipPath id="clipPath152"><rect id="rect154" width="22" height="22" x="433" y="77" fill="#6d6d6d" color="#bebebe" opacity=".2" rx="3"/></clipPath><clipPath id="clipPath156"><g id="g158"><path id="path160" fill="#fff" d="m 386.99999,114 c 0,2.61807 -2.38408,5.00016 -5.00225,5 -2.61818,-1.6e-4 -4.99775,-2.38222 -4.99775,-5 0,-2.61778 2.37957,-4.99984 4.99775,-5 2.61817,-1.6e-4 5.00225,2.38193 5.00225,5 z" color="#000" opacity=".5"/><path id="path162" fill="#fff" d="m 377.00002,114 c 0,2.61807 -2.38408,5.00016 -5.00225,5 -2.61818,-1.6e-4 -4.99775,-2.38222 -4.99775,-5 0,-2.61778 2.37957,-4.99984 4.99775,-5 2.61817,-1.6e-4 5.00225,2.38193 5.00225,5 z" color="#000" opacity=".5"/><path id="path164" fill="#fff" d="m 367.00002,114 c 0,2.61807 -2.38408,5.00016 -5.00225,5 -2.61818,-1.6e-4 -4.99775,-2.38222 -4.99775,-5 0,-2.61778 2.37957,-4.99984 4.99775,-5 2.61817,-1.6e-4 5.00225,2.38193 5.00225,5 z" color="#000" opacity=".5"/><path id="path166" fill="#fff" d="m 357.00002,114 c 0,2.61807 -2.38408,5.00016 -5.00225,5 -2.61818,-1.6e-4 -4.99775,-2.38222 -4.99775,-5 0,-2.61778 2.37957,-4.99984 4.99775,-5 2.61817,-1.6e-4 5.00225,2.38193 5.00225,5 z" color="#000"/><path id="path168" fill="#fff" d="m 347.00002,114 c 0,2.61807 -2.38408,5.00016 -5.00225,5 -2.61818,-1.6e-4 -4.99775,-2.38222 -4.99775,-5 0,-2.61778 2.37957,-4.99984 4.99775,-5 2.61817,-1.6e-4 5.00225,2.38193 5.00225,5 z" color="#000"/><path id="path170" fill="#fff" d="m 337.00002,114 c 0,2.61807 -2.38408,5.00016 -5.00225,5 -2.61818,-1.6e-4 -4.99775,-2.38222 -4.99775,-5 0,-2.61778 2.37957,-4.99984 4.99775,-5 2.61817,-1.6e-4 5.00225,2.38193 5.00225,5 z" color="#000" opacity=".5"/><path id="path172" fill="#fff" d="m 327.00002,114 c 0,2.61807 -2.38408,5.00016 -5.00225,5 -2.61818,-1.6e-4 -4.99775,-2.38222 -4.99775,-5 0,-2.61778 2.37957,-4.99984 4.99775,-5 2.61817,-1.6e-4 5.00225,2.38193 5.00225,5 z" color="#000" opacity=".5"/><path id="path174" fill="#fff" d="m 386.99999,104 c 0,2.61807 -2.38408,5.00016 -5.00225,5 -2.61818,-1.6e-4 -4.99775,-2.38222 -4.99775,-5 0,-2.61778 2.37957,-4.999845 4.99775,-5 2.61817,-1.55e-4 5.00225,2.38193 5.00225,5 z" color="#000" opacity=".5"/><path id="path176" fill="#fff" d="m 377.00002,104 c 0,2.61807 -2.38408,5.00016 -5.00225,5 -2.61818,-1.6e-4 -4.99775,-2.38222 -4.99775,-5 0,-2.61778 2.37957,-4.999845 4.99775,-5 2.61817,-1.55e-4 5.00225,2.38193 5.00225,5 z" color="#000" opacity=".5"/><path id="path178" fill="#fff" d="m 367.00002,104 c 0,2.61807 -2.38408,5.00016 -5.00225,5 -2.61818,-1.6e-4 -4.99775,-2.38222 -4.99775,-5 0,-2.61778 2.37957,-4.999845 4.99775,-5 2.61817,-1.55e-4 5.00225,2.38193 5.00225,5 z" color="#000" opacity=".5"/><path id="path180" fill="#fff" d="m 357.00002,104 c 0,2.61807 -2.38408,5.00016 -5.00225,5 -2.61818,-1.6e-4 -4.99775,-2.38222 -4.99775,-5 0,-2.61778 2.37957,-4.999845 4.99775,-5 2.61817,-1.55e-4 5.00225,2.38193 5.00225,5 z" color="#000"/><path id="path182" fill="#fff" d="m 347.00002,104 c 0,2.61807 -2.38408,5.00016 -5.00225,5 -2.61818,-1.6e-4 -4.99775,-2.38222 -4.99775,-5 0,-2.61778 2.37957,-4.999845 4.99775,-5 2.61817,-1.55e-4 5.00225,2.38193 5.00225,5 z" color="#000" opacity=".5"/><path id="path184" fill="#fff" d="m 337.00002,104 c 0,2.61807 -2.38408,5.00016 -5.00225,5 -2.61818,-1.6e-4 -4.99775,-2.38222 -4.99775,-5 0,-2.61778 2.37957,-4.999845 4.99775,-5 2.61817,-1.55e-4 5.00225,2.38193 5.00225,5 z" color="#000" opacity=".5"/><path id="path186" fill="#fff" d="m 327.00002,104 c 0,2.61807 -2.38408,5.00016 -5.00225,5 -2.61818,-1.6e-4 -4.99775,-2.38222 -4.99775,-5 0,-2.61778 2.37957,-4.999845 4.99775,-5 2.61817,-1.55e-4 5.00225,2.38193 5.00225,5 z" color="#000" opacity=".5"/><path id="path188" fill="#fff" d="m 387.00002,94 c 0,2.618075 -2.38408,5.000155 -5.00225,5 -2.61818,-1.55e-4 -4.99775,-2.382217 -4.99775,-5 0,-2.617783 2.37957,-4.999845 4.99775,-5 2.61817,-1.55e-4 5.00225,2.381925 5.00225,5 z" color="#000" opacity=".5"/><path id="path190" fill="#fff" d="m 377.00005,94 c 0,2.618075 -2.38408,5.000155 -5.00225,5 -2.61818,-1.55e-4 -4.99775,-2.382217 -4.99775,-5 0,-2.617783 2.37957,-4.999845 4.99775,-5 2.61817,-1.55e-4 5.00225,2.381925 5.00225,5 z" color="#000" opacity=".5"/><path id="path192" fill="#fff" d="m 367.00005,94 c 0,2.618075 -2.38408,5.000155 -5.00225,5 -2.61818,-1.55e-4 -4.99775,-2.382217 -4.99775,-5 0,-2.617783 2.37957,-4.999845 4.99775,-5 2.61817,-1.55e-4 5.00225,2.381925 5.00225,5 z" color="#000" opacity=".5"/><path id="path194" fill="#fff" d="m 357.00005,94 c 0,2.618075 -2.38408,5.000155 -5.00225,5 -2.61818,-1.55e-4 -4.99775,-2.382217 -4.99775,-5 0,-2.617783 2.37957,-4.999845 4.99775,-5 2.61817,-1.55e-4 5.00225,2.381925 5.00225,5 z" color="#000"/><path id="path196" fill="#fff" d="m 347.00005,94 c 0,2.618075 -2.38408,5.000155 -5.00225,5 -2.61818,-1.55e-4 -4.99775,-2.382217 -4.99775,-5 0,-2.617783 2.37957,-4.999845 4.99775,-5 2.61817,-1.55e-4 5.00225,2.381925 5.00225,5 z" color="#000" opacity=".5"/><path id="path198" fill="#fff" d="m 337.00005,94 c 0,2.618075 -2.38408,5.000155 -5.00225,5 -2.61818,-1.55e-4 -4.99775,-2.382217 -4.99775,-5 0,-2.617783 2.37957,-4.999845 4.99775,-5 2.61817,-1.55e-4 5.00225,2.381925 5.00225,5 z" color="#000" opacity=".5"/><path id="path200" fill="#fff" d="m 327.00005,94 c 0,2.618075 -2.38408,5.000155 -5.00225,5 -2.61818,-1.55e-4 -4.99775,-2.382217 -4.99775,-5 0,-2.617783 2.37957,-4.999845 4.99775,-5 2.61817,-1.55e-4 5.00225,2.381925 5.00225,5 z" color="#000" opacity=".5"/><path id="path202" fill="#fff" d="m 386.99999,84 c 0,2.618075 -2.38408,5.000155 -5.00225,5 -2.61818,-1.55e-4 -4.99775,-2.382217 -4.99775,-5 0,-2.617783 2.37957,-4.999845 4.99775,-5 2.61817,-1.55e-4 5.00225,2.381925 5.00225,5 z" color="#000" opacity=".5"/><path id="path204" fill="#fff" d="m 377.00002,84 c 0,2.618075 -2.38408,5.000155 -5.00225,5 -2.61818,-1.55e-4 -4.99775,-2.382217 -4.99775,-5 0,-2.617783 2.37957,-4.999845 4.99775,-5 2.61817,-1.55e-4 5.00225,2.381925 5.00225,5 z" color="#000" opacity=".5"/><path id="path206" fill="#fff" d="m 367.00002,84 c 0,2.618075 -2.38408,5.000155 -5.00225,5 -2.61818,-1.55e-4 -4.99775,-2.382217 -4.99775,-5 0,-2.617783 2.37957,-4.999845 4.99775,-5 2.61817,-1.55e-4 5.00225,2.381925 5.00225,5 z" color="#000" opacity=".5"/><path id="path208" fill="#fff" d="m 357.00002,84 c 0,2.618075 -2.38408,5.000155 -5.00225,5 -2.61818,-1.55e-4 -4.99775,-2.382217 -4.99775,-5 0,-2.617783 2.37957,-4.999845 4.99775,-5 2.61817,-1.55e-4 5.00225,2.381925 5.00225,5 z" color="#000"/><path id="path210" fill="#fff" d="m 347.00002,84 c 0,2.618075 -2.38408,5.000155 -5.00225,5 -2.61818,-1.55e-4 -4.99775,-2.382217 -4.99775,-5 0,-2.617783 2.37957,-4.999845 4.99775,-5 2.61817,-1.55e-4 5.00225,2.381925 5.00225,5 z" color="#000" opacity=".5"/><path id="path212" fill="#fff" d="m 337.00002,84 c 0,2.618075 -2.38408,5.000155 -5.00225,5 -2.61818,-1.55e-4 -4.99775,-2.382217 -4.99775,-5 0,-2.617783 2.37957,-4.999845 4.99775,-5 2.61817,-1.55e-4 5.00225,2.381925 5.00225,5 z" color="#000" opacity=".5"/><path id="path214" fill="#fff" d="m 327.00002,84 c 0,2.618075 -2.38408,5.000155 -5.00225,5 -2.61818,-1.55e-4 -4.99775,-2.382217 -4.99775,-5 0,-2.617783 2.37957,-4.999845 4.99775,-5 2.61817,-1.55e-4 5.00225,2.381925 5.00225,5 z" color="#000" opacity=".5"/><path id="path216" fill="#fff" d="m 386.99999,74 c 0,2.618075 -2.38408,5.000155 -5.00225,5 -2.61818,-1.55e-4 -4.99775,-2.382217 -4.99775,-5 0,-2.617783 2.37957,-4.999845 4.99775,-5 2.61817,-1.55e-4 5.00225,2.381925 5.00225,5 z" color="#000" opacity=".5"/><path id="path218" fill="#fff" d="m 377.00002,74 c 0,2.618075 -2.38408,5.000155 -5.00225,5 -2.61818,-1.55e-4 -4.99775,-2.382217 -4.99775,-5 0,-2.617783 2.37957,-4.999845 4.99775,-5 2.61817,-1.55e-4 5.00225,2.381925 5.00225,5 z" color="#000" opacity=".5"/><path id="path220" fill="#fff" d="m 367.00002,74 c 0,2.618075 -2.38408,5.000155 -5.00225,5 -2.61818,-1.55e-4 -4.99775,-2.382217 -4.99775,-5 0,-2.617783 2.37957,-4.999845 4.99775,-5 2.61817,-1.55e-4 5.00225,2.381925 5.00225,5 z" color="#000"/><path id="path222" fill="#fff" d="m 357.00002,74 c 0,2.618075 -2.38408,5.000155 -5.00225,5 -2.61818,-1.55e-4 -4.99775,-2.382217 -4.99775,-5 0,-2.617783 2.37957,-4.999845 4.99775,-5 2.61817,-1.55e-4 5.00225,2.381925 5.00225,5 z" color="#000"/><path id="path224" fill="#fff" d="m 347.00002,74 c 0,2.618075 -2.38408,5.000155 -5.00225,5 -2.61818,-1.55e-4 -4.99775,-2.382217 -4.99775,-5 0,-2.617783 2.37957,-4.999845 4.99775,-5 2.61817,-1.55e-4 5.00225,2.381925 5.00225,5 z" color="#000"/><path id="path226" fill="#fff" d="m 337.00002,74 c 0,2.618075 -2.38408,5.000155 -5.00225,5 -2.61818,-1.55e-4 -4.99775,-2.382217 -4.99775,-5 0,-2.617783 2.37957,-4.999845 4.99775,-5 2.61817,-1.55e-4 5.00225,2.381925 5.00225,5 z" color="#000" opacity=".5"/><path id="path228" fill="#fff" d="m 327.00002,74 c 0,2.618075 -2.38408,5.000155 -5.00225,5 -2.61818,-1.55e-4 -4.99775,-2.382217 -4.99775,-5 0,-2.617783 2.37957,-4.999845 4.99775,-5 2.61817,-1.55e-4 5.00225,2.381925 5.00225,5 z" color="#000" opacity=".5"/><path id="path230" fill="#fff" d="m 387.00002,64 c 0,2.618075 -2.38408,5.000155 -5.00225,5 -2.61818,-1.55e-4 -4.99775,-2.382217 -4.99775,-5 0,-2.617783 2.37957,-4.999845 4.99775,-5 2.61817,-1.55e-4 5.00225,2.381925 5.00225,5 z" color="#000" opacity=".5"/><path id="path232" fill="#fff" d="m 377.00005,64 c 0,2.618075 -2.38408,5.000155 -5.00225,5 -2.61818,-1.55e-4 -4.99775,-2.382217 -4.99775,-5 0,-2.617783 2.37957,-4.999845 4.99775,-5 2.61817,-1.55e-4 5.00225,2.381925 5.00225,5 z" color="#000"/><path id="path234" fill="#fff" d="m 367.00005,64 c 0,2.618075 -2.38408,5.000155 -5.00225,5 -2.61818,-1.55e-4 -4.99775,-2.382217 -4.99775,-5 0,-2.617783 2.37957,-4.999845 4.99775,-5 2.61817,-1.55e-4 5.00225,2.381925 5.00225,5 z" color="#000" opacity=".5"/><path id="path236" fill="#fff" d="m 357.00005,64 c 0,2.618075 -2.38408,5.000155 -5.00225,5 -2.61818,-1.55e-4 -4.99775,-2.382217 -4.99775,-5 0,-2.617783 2.37957,-4.999845 4.99775,-5 2.61817,-1.55e-4 5.00225,2.381925 5.00225,5 z" color="#000" opacity=".5"/><path id="path238" fill="#fff" d="m 347.00005,64 c 0,2.618075 -2.38408,5.000155 -5.00225,5 -2.61818,-1.55e-4 -4.99775,-2.382217 -4.99775,-5 0,-2.617783 2.37957,-4.999845 4.99775,-5 2.61817,-1.55e-4 5.00225,2.381925 5.00225,5 z" color="#000" opacity=".5"/><path id="path240" fill="#fff" d="m 337.00005,64 c 0,2.618075 -2.38408,5.000155 -5.00225,5 -2.61818,-1.55e-4 -4.99775,-2.382217 -4.99775,-5 0,-2.617783 2.37957,-4.999845 4.99775,-5 2.61817,-1.55e-4 5.00225,2.381925 5.00225,5 z" color="#000"/><path id="path242" fill="#fff" d="m 327.00005,64 c 0,2.618075 -2.38408,5.000155 -5.00225,5 -2.61818,-1.55e-4 -4.99775,-2.382217 -4.99775,-5 0,-2.617783 2.37957,-4.999845 4.99775,-5 2.61817,-1.55e-4 5.00225,2.381925 5.00225,5 z" color="#000" opacity=".5"/><path id="path244" fill="#fff" d="m 387.00002,54 c 0,2.618075 -2.38408,5.000155 -5.00225,5 -2.61818,-1.55e-4 -4.99775,-2.382217 -4.99775,-5 0,-2.617783 2.37957,-4.999845 4.99775,-5 2.61817,-1.55e-4 5.00225,2.381925 5.00225,5 z" color="#000" opacity=".5"/><path id="path246" fill="#fff" d="m 377.00005,54 c 0,2.618075 -2.38408,5.000155 -5.00225,5 -2.61818,-1.55e-4 -4.99775,-2.382217 -4.99775,-5 0,-2.617783 2.37957,-4.999845 4.99775,-5 2.61817,-1.55e-4 5.00225,2.381925 5.00225,5 z" color="#000" opacity=".5"/><path id="path248" fill="#fff" d="m 367.00005,54 c 0,2.618075 -2.38408,5.000155 -5.00225,5 -2.61818,-1.55e-4 -4.99775,-2.382217 -4.99775,-5 0,-2.617783 2.37957,-4.999845 4.99775,-5 2.61817,-1.55e-4 5.00225,2.381925 5.00225,5 z" color="#000"/><path id="path250" fill="#fff" d="m 357.00005,54 c 0,2.618075 -2.38408,5.000155 -5.00225,5 -2.61818,-1.55e-4 -4.99775,-2.382217 -4.99775,-5 0,-2.617783 2.37957,-4.999845 4.99775,-5 2.61817,-1.55e-4 5.00225,2.381925 5.00225,5 z" color="#000"/><path id="path252" fill="#fff" d="m 347.00005,54 c 0,2.618075 -2.38408,5.000155 -5.00225,5 -2.61818,-1.55e-4 -4.99775,-2.382217 -4.99775,-5 0,-2.617783 2.37957,-4.999845 4.99775,-5 2.61817,-1.55e-4 5.00225,2.381925 5.00225,5 z" color="#000"/><path id="path254" fill="#fff" d="m 337.00005,54 c 0,2.618075 -2.38408,5.000155 -5.00225,5 -2.61818,-1.55e-4 -4.99775,-2.382217 -4.99775,-5 0,-2.617783 2.37957,-4.999845 4.99775,-5 2.61817,-1.55e-4 5.00225,2.381925 5.00225,5 z" color="#000" opacity=".5"/><path id="path256" fill="#fff" d="m 327.00005,54 c 0,2.618075 -2.38408,5.000155 -5.00225,5 -2.61818,-1.55e-4 -4.99775,-2.382217 -4.99775,-5 0,-2.617783 2.37957,-4.999845 4.99775,-5 2.61817,-1.55e-4 5.00225,2.381925 5.00225,5 z" color="#000" opacity=".5"/></g></clipPath><linearGradient id="0" x2="0" y1="230" y2="90" gradientTransform="matrix(.375 0 0 .375 298 16)" gradientUnits="userSpaceOnUse" xlink:href="#2"/><linearGradient id="1" x2="0" y1="280" y2="40" gradientTransform="matrix(.175 0 0 .175 302.79999 215.99997)" gradientUnits="userSpaceOnUse" xlink:href="#2"/><linearGradient id="2"><stop id="stop261" stop-color="#373bb0"/><stop id="stop263" offset="1" stop-color="#666ad4"/></linearGradient><linearGradient id="3" x2="0" y1="230" y2="90" gradientTransform="matrix(.25 0 0 .25 299.99999 131.99999)" gradientUnits="userSpaceOnUse" xlink:href="#2"/><linearGradient id="4" x2="0" y1="1050.36" y2="1006.36" gradientTransform="matrix(0.28222223,0,0,0.28222223,0,-283.45334)" gradientUnits="userSpaceOnUse" xlink:href="#2"/><radialGradient id="radialGradient3015" cx="148.004" cy="160" r="128" gradientTransform="matrix(0.05167489,0,0,0.05167489,-0.87511211,-1.4947563)" gradientUnits="userSpaceOnUse" xlink:href="#radial0"/><radialGradient id="radial0" cx="148.004" cy="160" r="128" gradientTransform="matrix(0.1831,0,0,0.1831,-3.10029,-5.29688)" gradientUnits="userSpaceOnUse"><stop id="stop7-2" offset="0" stop-color="#c3acd9"/><stop id="stop9-0" offset="1" stop-color="#62378c"/></radialGradient><radialGradient id="radialGradient3009" cx="148.004" cy="160" r="128" gradientTransform="matrix(0.05167489,0,0,0.05167489,-0.87511171,-1.4947563)" gradientUnits="userSpaceOnUse" xlink:href="#radial0"/></defs><path id="path11" fill="url(#radialGradient3009)" d="m 13.387777,3.2589258 0,7.0290972 c 0,2.892778 0,3.100035 -3.100035,3.100035 l -7.0279952,0 c -3.10113751,0 -3.10113751,-0.207257 -3.10113751,-3.100035 l 0,-7.0290972 c 0,-2.89277789 0,-3.10003479 3.10113751,-3.10003479 l 7.0279952,0 c 3.100035,0 3.100035,0.2072569 3.100035,3.10003479 z"/><path id="path15-0" fill="#fff" fill-opacity=".051" d="m 10.79927,13.388058 c 0.717682,-0.0033 1.235825,-0.02315 1.611753,-0.124575 l -1.193932,-2.046111 -1.2655912,2.170686 0.3362422,0 c 0.180799,0 0.350573,0 0.511528,0 z M 11.217091,11.217372 9.7707018,8.7369031 8.3232108,11.217372 z m 0,0 2.159662,0 c 0.0088,-0.274505 0.01102,-0.582083 0.01102,-0.930451 l 0,-0.3097839 -0.723193,-1.240234 z M 12.664582,8.7369031 11.217091,6.2564346 9.7707018,8.7369031 z m 0,0 0.723195,0 0,-1.240234 z m -2.8938802,0 -1.447491,-2.4804685 -1.446389,2.4804685 z m -2.89388,0 -1.447492,2.4804689 2.893881,0 z m 0,0 -1.447492,-2.4804685 -1.446389,2.4804685 z m -2.893881,0 -1.447491,2.4804689 2.89388,0 z m 0,0 -1.447491,-2.4804685 -1.446389,2.4804685 z m -2.89388,0 -0.93045151,1.5941149 c 0,0.329627 0.00331,0.623976 0.011024,0.886354 l 2.36581621,0 z m 0,0 -0.93045151,-1.594114 0,1.594114 z m 1.446389,2.4804689 -1.217083,2.086901 c 0.450894,0.08268 1.074869,0.08378 1.940277,0.08378 l 0.543499,0 z m 0,-4.9609374 -1.446389,-2.4804689 -0.93045151,1.5941147 0,0.8863542 z m 0,0 2.89388,0 -1.446389,-2.4804689 z M 3.9829408,3.7759657 2.5354498,1.295497 1.0890608,3.7759657 z m 0,0 2.893881,0 -1.447492,-2.4804687 z m 1.446389,-2.4804687 -0.663663,-1.13660599 -1.507023,0 c -0.02095,0 -0.03859,0 -0.05953,0 L 2.5354508,1.295497 z m 0,0 2.893881,0 -0.663664,-1.13660599 -1.566554,0 z m 2.893881,0 2.8938802,0 -0.663663,-1.13660599 c -0.08819,0 -0.171979,0 -0.266788,0 l -1.2997662,0 z m 0,0 -1.446389,2.4804687 2.89388,0 z m 1.447491,2.4804687 2.8938802,0 -1.447491,-2.4804687 z m 0,0 -1.447491,2.4804689 2.8938802,0 z m 1.4463892,2.4804689 2.170686,0 0,-1.2402343 -0.723195,-1.2402346 z m 1.447491,-2.4804689 0.723195,0 0,-0.5170399 c 0,-0.2579689 -0.0022,-0.4938889 -0.0066,-0.71217 z M 8.3232108,6.2564346 6.8768218,3.7759657 5.4293298,6.2564346 z m 2.8938802,-4.9609376 2.062648,0 C 13.123194,0.51718091 12.747265,0.27133901 11.859808,0.19416881 z m -8.6816412,0 -0.650434,-1.11565979 C 0.85203779,0.23826601 0.43421689,0.46095681 0.26664739,1.295497 z M 1.0890608,3.7759657 0.17514589,2.2083095 c -0.012127,0.3031685 -0.016537,0.6515363 -0.016537,1.0506163 l 0,0.5170399 z m 4.340269,7.4414063 -1.26559,2.170686 2.532283,0 z m 2.893881,0 -1.265591,2.170686 2.532283,0 z m -7.59133801,1.86862 -0.4519959,-0.775009 c 0.082682,0.371519 0.2215884,0.615157 0.4519959,0.775009 z"/><g id="g293" fill="#f9f9f9" color="#000" transform="matrix(0.28222,0,0,0.28222,21.92321,-34.3613)"><path id="path295" d="m 357.00002,114 a 5.003465,5.0001548 0 1 1 -10.00693,0 5.003465,5.0001548 0 1 1 10.00693,0 z" transform="matrix(0.34282,0,0,0.34286,-174.35324,116.95277)"/><path id="path297" d="m 347.00002,114 a 5.003465,5.0001548 0 1 1 -10.00693,0 5.003465,5.0001548 0 1 1 10.00693,0 z" transform="matrix(0.34282,0,0,0.34286,-174.35324,116.95277)"/></g><path id="path311" fill="#f9f9f9" d="m 7.2572266,8.7083535 a 0.48408854,0.48382473 0 0 1 -0.9681771,0 0.48408854,0.48382473 0 1 1 0.9681771,0 z" color="#000"/><path id="path327" fill="#f9f9f9" d="m 7.2572295,7.740734 a 0.48408854,0.48382473 0 0 1 -0.9681771,0 0.48408854,0.48382473 0 1 1 0.9681771,0 z" color="#000"/><path id="path343" fill="#f9f9f9" d="m 7.2572266,6.7731145 a 0.48408854,0.48382473 0 0 1 -0.9681771,0 0.48408854,0.48382473 0 1 1 0.9681771,0 z" color="#000"/><g id="g357" fill="#f9f9f9" color="#000" transform="matrix(0.28222,0,0,0.28222,21.92321,-34.3613)"><path id="path359" d="m 367.00002,74 a 5.003465,5.0001548 0 1 1 -10.00693,0 5.003465,5.0001548 0 1 1 10.00693,0 z" transform="matrix(0.34282,0,0,0.34286,-174.35324,116.95277)"/><path id="path361" d="m 357.00002,74 a 5.003465,5.0001548 0 1 1 -10.00693,0 5.003465,5.0001548 0 1 1 10.00693,0 z" transform="matrix(0.34282,0,0,0.34286,-174.35324,116.95277)"/><path id="path363" d="m 347.00002,74 a 5.003465,5.0001548 0 1 1 -10.00693,0 5.003465,5.0001548 0 1 1 10.00693,0 z" transform="matrix(0.34282,0,0,0.34286,-174.35324,116.95277)"/></g><path id="path373" fill="#f9f9f9" d="m 9.1922427,4.8378755 a 0.48408854,0.48382473 0 0 1 -0.9681771,0 0.48408854,0.48382473 0 1 1 0.9681771,0 z" color="#000"/><path id="path383" fill="#f9f9f9" d="m 5.3222163,4.8378755 a 0.48408854,0.48382473 0 0 1 -0.9681771,0 0.48408854,0.48382473 0 1 1 0.9681771,0 z" color="#000"/><g id="g393" fill="#f9f9f9" color="#000" transform="matrix(0.28222,0,0,0.28222,21.92321,-34.3613)"><path id="path395" d="m 367.00005,54 a 5.003465,5.0001548 0 1 1 -10.00693,0 5.003465,5.0001548 0 1 1 10.00693,0 z" transform="matrix(0.34282,0,0,0.34286,-174.35324,116.95277)"/><path id="path397" d="m 357.00005,54 a 5.003465,5.0001548 0 1 1 -10.00693,0 5.003465,5.0001548 0 1 1 10.00693,0 z" transform="matrix(0.34282,0,0,0.34286,-174.35324,116.95277)"/><path id="path399" d="m 347.00005,54 a 5.003465,5.0001548 0 1 1 -10.00693,0 5.003465,5.0001548 0 1 1 10.00693,0 z" transform="matrix(0.34282,0,0,0.34286,-174.35324,116.95277)"/></g></svg>