<svg xmlns="http://www.w3.org/2000/svg" xmlns:svg="http://www.w3.org/2000/svg" xmlns:xlink="http://www.w3.org/1999/xlink" id="svg2" width="48" height="48" version="1.1" viewBox="0 0 13.547 13.547"><metadata id="metadata149"/><defs id="defs4"><linearGradient id="0"><stop id="stop7" stop-color="#2d2d2d"/><stop id="stop9" offset="1" stop-color="#494949"/></linearGradient><clipPath id="clipPath11"><rect id="rect13" width="477.14" height="208.57" x="-830" y="1580.93" fill="#ff0"/></clipPath><clipPath id="clipPath15"><rect id="rect17" width="477.14" height="208.57" x="-830" y="1580.93" fill="#ff0"/></clipPath><clipPath id="clipPath19"><rect id="rect21" width="477.14" height="208.57" x="-830" y="1580.93" fill="#ff0"/></clipPath><clipPath id="clipPath23"><rect id="rect25" width="477.14" height="208.57" x="-830" y="1580.93" fill="#ff0"/></clipPath><clipPath id="clipPath27"><rect id="rect29" width="357.87" height="240.87" x="294.93" y="780.64" fill="red" transform="matrix(.99975 -.02255 .02255 .99975 0 0)"/></clipPath><clipPath id="clipPath31"><rect id="rect33" width="301.43" height="195" y="857.54" fill="#fff"/></clipPath><clipPath id="clipPath35"><rect id="rect37" width="477.14" height="208.57" x="-830" y="1580.93" fill="#ff0"/></clipPath><clipPath id="clipPath39"><rect id="rect41" width="79.48" height="30.01" x="276.37" y="977.09" fill="#e20a17"/></clipPath><clipPath id="clipPath43"><rect id="rect45" width="506.46" height="37.48" x="8.208" y=".064" fill="#162d50" transform="rotate(20.37582)"/></clipPath><clipPath id="clipPath47"><rect id="rect49" width="357.38" height="318.4" x="218.9" y="758.67" fill="#fff" transform="rotate(.22918)"/></clipPath><clipPath id="clipPath51"><rect id="rect53" width="357.38" height="318.4" x="218.9" y="758.67" fill="#fff" transform="rotate(.22918)"/></clipPath><clipPath id="clipPath55"><rect id="rect57" width="506.46" height="37.48" x="8.208" y=".064" fill="#162d50" transform="rotate(20.37582)"/></clipPath><clipPath id="clipPath59"><rect id="rect61" width="477.14" height="208.57" x="-830" y="1580.93" fill="#ff0"/></clipPath><clipPath id="clipPath63"><rect id="rect65" width="350.46" height="235.88" x="221.39" y="804.24" transform="rotate(.6171)"/></clipPath><clipPath id="clipPath67"><rect id="rect69" width="287.43" height="279.03" x="257.32" y="793.52" fill="#fff" transform="rotate(.16206)"/></clipPath><clipPath id="clipPath71"><rect id="rect73" width="301.43" height="195" y=".06" fill="#fff"/></clipPath><clipPath id="clipPath75"><rect id="rect77" width="301.43" height="195" y="857.54" fill="#fff"/></clipPath><path id="1" fill="#4a0" d="m 699.2857,672.93231 a 40.714287,40.714287 0 1 1 -81.42858,0 40.714287,40.714287 0 1 1 81.42858,0 z" clip-path="url(#3)"/><clipPath id="clipPath80"><use id="use82" transform="matrix(4.3233 0 0 4.3233 -2450.68 -2667.55)" xlink:href="#1"/></clipPath><clipPath id="clipPath84"><rect id="rect86" width="63.987" height="41.39" x="448.12" y="815.74" fill="#fff" transform="rotate(27.44968)"/></clipPath><clipPath id="clipPath88"><rect id="rect90" width="301.43" height="195" y="857.54" fill="#fff"/></clipPath><clipPath id="clipPath92"><rect id="rect94" width="477.14" height="208.57" x="-830" y="1580.93" fill="#ff0"/></clipPath><clipPath id="clipPath96"><rect id="rect98" width="477.14" height="208.57" x="-830" y="1580.93" fill="#ff0"/></clipPath><clipPath id="clipPath100"><rect id="rect102" width="477.14" height="208.57" x="-830" y="1580.93" fill="#ff0"/></clipPath><clipPath id="clipPath104"><rect id="rect106" width="477.14" height="208.57" x="-830" y="1580.93" fill="#ff0"/></clipPath><clipPath id="clipPath108"><rect id="rect110" width="477.14" height="208.57" x="-830" y="1580.93" fill="#ff0"/></clipPath><clipPath id="clipPath112"><use id="use114" xlink:href="#1"/></clipPath><clipPath id="clipPath116"><rect id="rect118" width="477.14" height="208.57" x="-830" y="1580.93" fill="#ff0"/></clipPath><path id="2" fill="#4a0" d="m 699.2857,672.93231 a 40.714287,40.714287 0 1 1 -81.42858,0 40.714287,40.714287 0 1 1 81.42858,0 z"/><clipPath id="3"><use id="use122" xlink:href="#2"/></clipPath><clipPath id="clipPath124"><use id="use126" transform="matrix(4.3233 0 0 4.3233 -2450.68 -2667.55)" xlink:href="#2"/></clipPath><linearGradient id="4" x2="0" y1="1050.36" y2="1006.36" gradientTransform="matrix(0.28222223,0,0,0.28222223,0,-283.45334)" gradientUnits="userSpaceOnUse" xlink:href="#0"/><radialGradient id="radialGradient3036" cx="148.004" cy="160" r="128" gradientTransform="matrix(0.05167489,0,0,0.05167489,-0.87511211,-1.4947611)" gradientUnits="userSpaceOnUse" spreadMethod="pad" xlink:href="#linearGradient4460"/><linearGradient id="linearGradient4460"><stop id="stop8-6" offset="0" stop-color="#747474" stop-opacity="1"/><stop id="stop10-2" offset="1" stop-color="#2d2d2d" stop-opacity="1"/></linearGradient><radialGradient id="radialGradient3011" cx="148.004" cy="160" r="128" gradientTransform="matrix(0.05167489,0,0,0.05167489,-0.87511211,-1.4947611)" gradientUnits="userSpaceOnUse" spreadMethod="pad" xlink:href="#linearGradient4460"/></defs><path id="path11" fill="url(#radialGradient3011)" fill-opacity="1" d="m 13.387775,3.2589209 0,7.0290971 c 0,2.892778 0,3.100035 -3.100035,3.100035 l -7.0279941,0 c -3.10113701,0 -3.10113701,-0.207257 -3.10113701,-3.100035 l 0,-7.0290971 c 0,-2.89277789 0,-3.10003479 3.10113701,-3.10003479 l 7.0279941,0 c 3.100035,0 3.100035,0.2072569 3.100035,3.10003479 z"/><path id="path15" fill="#fff" fill-opacity=".051" d="m 10.799268,13.388053 c 0.717682,-0.0033 1.235825,-0.02315 1.611753,-0.124575 l -1.193932,-2.046111 -1.2655891,2.170686 0.3362401,0 c 0.180799,0 0.350573,0 0.511528,0 z M 11.217089,11.217367 9.7707009,8.7368984 8.3232099,11.217367 z m 0,0 2.159662,0 c 0.0088,-0.274505 0.01102,-0.582083 0.01102,-0.930451 l 0,-0.3097833 -0.723192,-1.2402343 z M 12.664581,8.7368984 11.217089,6.2564297 9.7707009,8.7368984 z m 0,0 0.723194,0 0,-1.2402343 z m -2.8938801,0 -1.447491,-2.4804687 -1.446389,2.4804687 z m -2.89388,0 -1.447492,2.4804686 2.893881,0 z m 0,0 -1.447492,-2.4804687 -1.446389,2.4804687 z m -2.893881,0 -1.447491,2.4804686 2.89388,0 z m 0,0 -1.447491,-2.4804687 -1.446389,2.4804687 z m -2.89388,0 -0.93045101,1.5941146 c 0,0.329627 0.0033,0.623976 0.01102,0.886354 l 2.36581701,0 z m 0,0 -0.93045101,-1.5941145 0,1.5941145 z m 1.446389,2.4804686 -1.217083,2.086901 c 0.450894,0.08268 1.07487,0.08379 1.94138,0.08379 l 0.542396,0 z m 0,-4.9609373 -1.446389,-2.4804689 -0.93045101,1.5941147 0,0.8863542 z m 0,0 2.89388,0 -1.446389,-2.4804689 z M 3.9829399,3.7759608 2.5354489,1.2954921 1.0890599,3.7759608 z m 0,0 2.893881,0 -1.447492,-2.4804687 z m 1.446389,-2.4804687 -0.663663,-1.13660599 -1.50592,0 c -0.02205,0 -0.03969,0 -0.06063,0 L 2.5354529,1.2954921 z m 0,0 2.893881,0 -0.663663,-1.13660599 -1.566554,0 z m 2.893881,0 2.8938791,0 -0.663663,-1.13660599 c -0.0882,0 -0.171979,0 -0.265686,0 l -1.3008671,0 z m 0,0 -1.446389,2.4804687 2.89388,0 z m 1.447491,2.4804687 2.8938801,0 -1.447492,-2.4804687 z m 0,0 -1.447491,2.4804689 2.8938791,0 z m 1.4463881,2.4804689 2.170686,0 0,-1.2402343 -0.723194,-1.2402346 z m 1.447492,-2.4804689 0.723194,0 0,-0.5170399 c 0,-0.2579689 -0.0022,-0.4938888 -0.0066,-0.71217 z M 8.3232099,6.2564297 6.8768209,3.7759608 5.4293289,6.2564297 z m 2.8938791,-4.9609376 2.062648,0 C 13.123192,0.51717601 12.747263,0.27133411 11.859806,0.19416391 z m -8.6816401,0 -0.650434,-1.11565979 C 0.85203689,0.23826131 0.43421589,0.46095191 0.26664689,1.2954921 z M 1.0890599,3.7759608 0.17514489,2.2083047 c -0.01213,0.3031684 -0.01653,0.6515362 -0.01653,1.0506162 l 0,0.5170399 z m 4.340269,7.4414062 -1.26559,2.170686 2.532283,0 z m 2.893881,0 -1.265591,2.170686 2.532284,0 z m -7.59133701,1.86862 -0.451997,-0.775009 c 0.08268,0.371519 0.221589,0.615157 0.451997,0.775009 z"/><path id="path145" fill="#e5e5e5" d="m 21.1875,15 c -0.566696,0.0166 -1.147864,0.110805 -1.71875,0.3125 -2.442425,0.862786 -4.298631,3.36376 -4.84375,6.46875 -1.60388,0.402135 -2.995478,1.856156 -3.46875,3.96875 -0.671777,2.998992 0.736839,6.125148 3.125,6.96875 0.03889,0.01183 0.05463,0.02062 0.09375,0.03125 0.32985,0.148018 0.722397,0.25 1.09375,0.25 l 17.3125,0 c 0.619741,0 1.171602,-0.236818 1.65625,-0.625 1.935582,-1.160561 3.006858,-3.943792 2.40625,-6.625 -0.443743,-1.980906 -1.682027,-3.403541 -3.15625,-3.90625 -0.01267,-0.06628 -0.01693,-0.121197 -0.03125,-0.1875 C 33.978464,17.170606 29.587441,16.206183 26.844,18 25.527271,15.778812 23.420301,14.937197 21.1875,15 z m 3.78125,4 2.875,0 L 29,31 26.6875,31 26.5,28.15625 l -3.6875,0 L 21.5,31 19,31 z m 1.125,1.8125 C 25.865647,21.46646 25.586957,22.144764 25.25,22.875 l -1.4375,3.15625 2.5625,0 -0.1875,-2.875 c -0.05185,-0.713888 -0.09376,-1.397641 -0.09375,-2.0625 z" transform="scale(0.28222223,0.28222223)"/></svg>