<svg xmlns="http://www.w3.org/2000/svg" xmlns:svg="http://www.w3.org/2000/svg" xmlns:xlink="http://www.w3.org/1999/xlink" id="svg2" width="48" height="48" version="1.1" viewBox="0 0 13.547 13.547"><metadata id="metadata22"/><defs id="defs4"><linearGradient id="linearGradient4460"><stop id="stop7" offset="0" stop-color="#497d93" stop-opacity="1"/><stop id="stop9" offset="1" stop-color="#659bb2" stop-opacity="1"/></linearGradient><linearGradient id="linearGradient3001" x2="0" y1="279.096" y2="268.33" gradientTransform="matrix(1.10525,0,0,1.10525,-134.25208,-295.76214)" gradientUnits="userSpaceOnUse" xlink:href="#linearGradient4460"/><linearGradient id="linearGradient3960" x1="600.787" x2="600.32" y1="816.856" y2="860.736" gradientTransform="matrix(1,0,0,1.0071961,-515.1306,148.05272)" gradientUnits="userSpaceOnUse" xlink:href="#linearGradient3954"/><linearGradient id="linearGradient3948" x1="561.417" x2="567.397" y1="294.641" y2="294.456" gradientUnits="userSpaceOnUse" xlink:href="#linearGradient3938"/><linearGradient id="linearGradient3944" x1="553.294" x2="567.397" y1="294.296" y2="294.456" gradientUnits="userSpaceOnUse" xlink:href="#linearGradient3938"/><linearGradient id="linearGradient3936" x1="572.696" x2="595.685" y1="278.359" y2="278.787" gradientTransform="translate(-515.1306,706.26118)" gradientUnits="userSpaceOnUse" xlink:href="#linearGradient3930"/><linearGradient id="linearGradient3901" x1="543.61" x2="643.499" y1="170.524" y2="240.347" gradientTransform="translate(-515.1306,706.26118)" gradientUnits="userSpaceOnUse" xlink:href="#linearGradient3895"/><linearGradient id="linearGradient3889" x1="527.614" x2="584.857" y1="231.379" y2="231.379" gradientUnits="userSpaceOnUse" xlink:href="#linearGradient3865"/><linearGradient id="linearGradient3849" x1="575.466" x2="564.447" y1="184.019" y2="184.514" gradientTransform="matrix(-1,0,0,1,689.113,706.26118)" gradientUnits="userSpaceOnUse" xlink:href="#linearGradient3837"/><linearGradient id="linearGradient3843" x1="547.244" x2="563.126" y1="178.903" y2="193.757" gradientTransform="translate(-515.1306,706.26118)" gradientUnits="userSpaceOnUse" xlink:href="#linearGradient3837"/><linearGradient id="linearGradient3833" x1="563.799" x2="577.781" y1="208.172" y2="208.172" gradientUnits="userSpaceOnUse" xlink:href="#linearGradient3809"/><linearGradient id="linearGradient3815" x1="563.799" x2="577.781" y1="208.172" y2="208.172" gradientUnits="userSpaceOnUse" xlink:href="#linearGradient3809"/><linearGradient id="linearGradient3809"><stop id="stop3811" offset="0" stop-color="#c6d4e3" stop-opacity="1"/><stop id="stop3813" offset="1" stop-color="#c6d4e3" stop-opacity="0"/></linearGradient><linearGradient id="linearGradient3837"><stop id="stop3839" offset="0" stop-color="#935f0d" stop-opacity="1"/><stop id="stop3841" offset="1" stop-color="#b27310" stop-opacity="1"/></linearGradient><linearGradient id="linearGradient3865"><stop id="stop3867" offset="0" stop-color="#eacf96" stop-opacity="1"/><stop id="stop3873" offset=".5" stop-color="#ecd797" stop-opacity="1"/><stop id="stop3869" offset="1" stop-color="#eacf96" stop-opacity="1"/></linearGradient><linearGradient id="linearGradient3895"><stop id="stop3897" offset="0" stop-color="#e9b96e" stop-opacity="1"/><stop id="stop3903" offset=".573" stop-color="#e4b56c" stop-opacity="1"/><stop id="stop3899" offset="1" stop-color="#caa05f" stop-opacity="1"/></linearGradient><linearGradient id="linearGradient3930"><stop id="stop3932" offset="0" stop-color="#d7ab65" stop-opacity="1"/><stop id="stop3934" offset="1" stop-color="#d5a964" stop-opacity="1"/></linearGradient><linearGradient id="linearGradient3938"><stop id="stop3940" offset="0" stop-color="#eddc98" stop-opacity="1"/><stop id="stop3942" offset="1" stop-color="#e7c394" stop-opacity="1"/></linearGradient><linearGradient id="linearGradient3954"><stop id="stop3956" offset="0" stop-color="#e4b66c" stop-opacity="1"/><stop id="stop3958" offset="1" stop-color="#ead192" stop-opacity="1"/></linearGradient><linearGradient id="linearGradient3133" x1="572.696" x2="595.685" y1="278.359" y2="278.787" gradientTransform="matrix(0.28222223,0,0,0.28222223,-138.34541,-72.937285)" gradientUnits="userSpaceOnUse" xlink:href="#linearGradient3930"/><linearGradient id="linearGradient3145" x1="575.466" x2="564.447" y1="184.019" y2="184.514" gradientTransform="matrix(-0.06263208,0,0,0.06451401,44.551845,-6.9382624)" gradientUnits="userSpaceOnUse" xlink:href="#linearGradient3837"/><linearGradient id="linearGradient3148" x1="547.244" x2="563.126" y1="178.903" y2="193.757" gradientTransform="matrix(0.06263208,0,0,0.06451401,-30.872435,-6.9382624)" gradientUnits="userSpaceOnUse" xlink:href="#linearGradient3837"/><linearGradient id="linearGradient3166" x1="600.787" x2="600.32" y1="816.856" y2="860.736" gradientTransform="matrix(0.28222223,0,0,0.28425313,-138.34541,-230.47612)" gradientUnits="userSpaceOnUse" xlink:href="#linearGradient3954"/><linearGradient id="linearGradient3169" x1="527.614" x2="584.857" y1="231.379" y2="231.379" gradientUnits="userSpaceOnUse" xlink:href="#linearGradient3865"/><linearGradient id="linearGradient3171" x1="563.799" x2="577.781" y1="208.172" y2="208.172" gradientUnits="userSpaceOnUse" xlink:href="#linearGradient3809"/><linearGradient id="linearGradient3173" x1="563.799" x2="577.781" y1="208.172" y2="208.172" gradientUnits="userSpaceOnUse" xlink:href="#linearGradient3809"/><linearGradient id="linearGradient3176" x2="0" y1="279.096" y2="268.33" gradientTransform="matrix(1.10525,0,0,1.10525,-134.25208,-295.76214)" gradientUnits="userSpaceOnUse" xlink:href="#linearGradient4460"/><linearGradient id="B" x2="0" y1="1050.36" y2="1006.36" gradientTransform="translate(-78.066775,-887.05181)" gradientUnits="userSpaceOnUse" xlink:href="#0"/><linearGradient id="0"><stop id="stop7-7" stop-color="#c34141"/><stop id="stop9-7" offset="1" stop-color="#d76464"/></linearGradient><linearGradient id="linearGradient3083" x2="0" y1="1050.36" y2="1006.36" gradientTransform="matrix(0.28222223,0,0,0.28222223,6.7059175e-7,-283.45335)" gradientUnits="userSpaceOnUse" xlink:href="#linearGradient4460"/><radialGradient id="radial0" cx="148.004" cy="160" r="128" gradientTransform="matrix(0.1831,0,0,0.1831,-3.10029,-5.29688)" gradientUnits="userSpaceOnUse"><stop id="stop7-5" offset="0" stop-color="#ede08f"/><stop id="stop9-6" offset="1" stop-color="#8f7f22"/></radialGradient><radialGradient id="radialGradient3029" cx="148.004" cy="160" r="128" gradientTransform="matrix(0.05167489,0,0,0.05167489,-0.87510811,-1.4947611)" gradientUnits="userSpaceOnUse" xlink:href="#radial0"/></defs><path id="path11" fill="url(#radialGradient3029)" d="m 13.38778,3.258921 0,7.029097 c 0,2.892778 0,3.100035 -3.100035,3.100035 l -7.0279951,0 c -3.10113701,0 -3.10113701,-0.207257 -3.10113701,-3.100035 l 0,-7.029097 c 0,-2.89277789 0,-3.10003479 3.10113701,-3.10003479 l 7.0279951,0 c 3.100035,0 3.100035,0.2072569 3.100035,3.10003479 z"/><path id="path13" fill="#fff" fill-opacity=".051" d="m 10.799273,13.388053 c 0.717682,-0.0033 1.235825,-0.02315 1.611753,-0.124575 l -1.193932,-2.046111 -1.2655901,2.170686 0.3362411,0 c 0.180799,0 0.350573,0 0.511528,0 z M 11.217094,11.217367 9.7707049,8.7368985 8.3232139,11.217367 z m 0,0 2.159662,0 c 0.0088,-0.274505 0.01102,-0.582083 0.01102,-0.930451 l 0,-0.3097832 -0.723194,-1.2402343 z M 12.664586,8.7368985 11.217094,6.2564298 9.7707049,8.7368985 z m 0,0 0.723194,0 0,-1.2402343 z m -2.8938811,0 -1.447491,-2.4804687 -1.446389,2.4804687 z m -2.89388,0 -1.447492,2.4804685 2.893881,0 z m 0,0 -1.447492,-2.4804687 -1.446389,2.4804687 z m -2.893881,0 -1.447491,2.4804685 2.89388,0 z m 0,0 -1.447491,-2.4804687 -1.446389,2.4804687 z m -2.89388,0 -0.93045101,1.5941145 c 0,0.329627 0.0033,0.623976 0.01102,0.886354 l 2.36581601,0 z m 0,0 -0.93045101,-1.5941145 0,1.5941145 z m 1.446389,2.4804685 -1.217083,2.086901 c 0.450894,0.08268 1.07487,0.08379 1.94138,0.08379 l 0.542396,0 z m 0,-4.9609372 -1.446389,-2.4804689 -0.93045101,1.5941147 0,0.8863542 z m 0,0 2.89388,0 -1.446389,-2.4804689 z M 3.9829439,3.7759609 2.5354529,1.2954922 1.0890639,3.7759609 z m 0,0 2.893881,0 -1.447492,-2.4804687 z m 1.446389,-2.4804687 -0.663663,-1.13660599 -1.507022,0 c -0.02095,0 -0.03859,0 -0.05953,0 L 2.5354549,1.2954922 z m 0,0 2.893881,0 -0.663664,-1.13660599 -1.566553,0 z m 2.893881,0 2.8938801,0 -0.663663,-1.13660599 c -0.0882,0 -0.171979,0 -0.266788,0 l -1.2997661,0 z m 0,0 -1.446389,2.4804687 2.89388,0 z m 1.447491,2.4804687 2.8938811,0 -1.447492,-2.4804687 z m 0,0 -1.447491,2.4804689 2.8938801,0 z m 1.4463891,2.4804689 2.170686,0 0,-1.2402343 -0.723194,-1.2402346 z m 1.447492,-2.4804689 0.723194,0 0,-0.5170399 c 0,-0.2579689 -0.0022,-0.4938889 -0.0066,-0.71217 z M 8.3232139,6.2564298 6.8768249,3.7759609 5.4293329,6.2564298 z m 2.8938801,-4.9609376 2.062648,0 C 13.123197,0.51717601 12.747268,0.27133421 11.859811,0.19416401 z m -8.6816411,0 -0.650434,-1.11565979 C 0.85204189,0.23826141 0.43421989,0.46095201 0.26665089,1.2954922 z M 1.0890639,3.7759609 0.17514889,2.2083047 c -0.01213,0.3031685 -0.01654,0.6515363 -0.01654,1.0506163 l 0,0.5170399 z m 4.340269,7.4414061 -1.26559,2.170686 2.532283,0 z m 2.893881,0 -1.265591,2.170686 2.532283,0 z m -7.59133701,1.86862 -0.451997,-0.775009 c 0.08268,0.371519 0.221589,0.615157 0.451997,0.775009 z"/><path id="path3893" fill="#f9f9f9" fill-opacity="1" stroke="none" d="M 4.2506525,7.6933454 C 3.5820305,7.1381599 3.1078555,5.7185705 3.1044445,3.9721945 c 1.610149,-0.130012 3.210064,0.6781699 3.203242,0.9065687 l 0.163744,0 0.133042,-0.5586996 0,0.4954508 0.685678,-0.8644032 -0.440062,0.8854865 0.07164,0.063249 0.194446,-0.2424549 0.05117,0.2740795 C 7.9928875,4.1162619 9.0845135,4.0178748 10.442225,3.972195 10.367175,5.2371753 10.425165,6.6813611 9.4495265,7.6406379 10.324327,9.1729035 9.0981221,9.9321748 8.1901491,10.100938 7.318577,10.189978 6.4470048,10.174078 5.5754327,10.081858 4.1998177,9.9335019 3.5565345,8.5638586 4.2506525,7.6933454 z"/></svg>