<svg xmlns="http://www.w3.org/2000/svg" xmlns:svg="http://www.w3.org/2000/svg" xmlns:xlink="http://www.w3.org/1999/xlink" id="svg2" width="48" height="48" version="1.1" viewBox="0 0 13.547 13.547"><metadata id="metadata28"/><defs id="defs4"><linearGradient id="linearGradient4460"><stop id="stop7" offset="0" stop-color="#ca514c" stop-opacity="1"/><stop id="stop9" offset="1" stop-color="#e6645f" stop-opacity="1"/></linearGradient><linearGradient id="linearGradient5224" x2="0" y1="279.096" y2="268.33" gradientTransform="matrix(1.10525,0,0,1.10525,-134.27873,-295.7618)" gradientUnits="userSpaceOnUse" xlink:href="#linearGradient4460"/><linearGradient id="linearGradient3006" x2="0" y1="279.096" y2="268.33" gradientTransform="matrix(1.10525,0,0,1.10525,-134.27873,-295.7618)" gradientUnits="userSpaceOnUse" xlink:href="#linearGradient4460"/><linearGradient id="linearGradient5390-7-4" x2="0" y1="279.088" y2="268.363" gradientTransform="matrix(1.10525,0,0,1.10525,-134.26995,-295.77197)" gradientUnits="userSpaceOnUse" xlink:href="#linearGradient3810"/><linearGradient id="linearGradient3810"><stop id="stop7-4" offset="0" stop-color="#2b2b2b"/><stop id="stop9-2" offset="1" stop-color="#424242"/></linearGradient><linearGradient id="linearGradient3219" x2="0" y1="279.088" y2="268.363" gradientTransform="matrix(1.10525,0,0,1.10525,-134.27028,-295.77198)" gradientUnits="userSpaceOnUse" xlink:href="#linearGradient3810"/><linearGradient id="linearGradient3018" x2="0" y1="279.096" y2="268.33" gradientTransform="matrix(1.10528,0,0,1.10528,-134.28288,-295.77052)" gradientUnits="userSpaceOnUse" xlink:href="#linearGradient4460-2"/><linearGradient id="linearGradient4460-2"><stop id="stop7-9" offset="0" stop-color="#aaa"/><stop id="stop9-7" offset="1" stop-color="#c8c8c8"/></linearGradient><linearGradient id="linearGradient3036" x2="0" y1="279.096" y2="268.33" gradientTransform="matrix(3.9163464,0,0,3.9163464,-478.80665,-1051.0069)" gradientUnits="userSpaceOnUse" xlink:href="#linearGradient4460-2"/><linearGradient id="linearGradient3844" x2="0" y1="279.096" y2="268.33" gradientTransform="matrix(1.10528,0,0,1.10528,-121.68871,-295.06512)" gradientUnits="userSpaceOnUse" xlink:href="#linearGradient4460-2"/><linearGradient id="linearGradient3013" x2="0" y1="1050.36" y2="1006.36" gradientTransform="translate(0,-1004.3622)" gradientUnits="userSpaceOnUse" xlink:href="#1"/><linearGradient id="1"><stop id="stop8" stop-color="#dbdbdb"/><stop id="stop10" offset="1" stop-color="#f9f9f9"/></linearGradient><linearGradient id="linearGradient3380" x2="0" y1="1050.36" y2="1006.36" gradientTransform="translate(0,-1004.3622)" gradientUnits="userSpaceOnUse" xlink:href="#1"/><linearGradient id="linearGradient3046" x2="0" y1="1050.36" y2="1006.36" gradientTransform="matrix(0.28222223,0,0,0.28222223,0,-283.45334)" gradientUnits="userSpaceOnUse" xlink:href="#linearGradient3810"/><radialGradient id="radialGradient3033" cx="148.004" cy="160" r="128" gradientTransform="matrix(0.05167489,0,0,0.05167489,-0.87511191,-1.4947562)" gradientUnits="userSpaceOnUse" xlink:href="#radial0"/><radialGradient id="radial0" cx="148.004" cy="160" r="128" gradientTransform="matrix(0.1831,0,0,0.1831,-3.10029,-5.29688)" gradientUnits="userSpaceOnUse"><stop id="stop7-0" offset="0" stop-color="#eeb2f4"/><stop id="stop9-0" offset="1" stop-color="#7f2588"/></radialGradient><radialGradient id="radialGradient3009" cx="148.004" cy="160" r="128" gradientTransform="matrix(0.05167489,0,0,0.05167489,-0.87510851,-1.4947558)" gradientUnits="userSpaceOnUse" xlink:href="#radial0"/></defs><path id="path11" fill="url(#radialGradient3009)" d="m 13.387779,3.2589263 0,7.0290977 c 0,2.892778 0,3.100034 -3.100035,3.100034 l -7.0279941,0 c -3.10113801,0 -3.10113801,-0.207256 -3.10113801,-3.100034 l 0,-7.0290977 c 0,-2.89277779 0,-3.10003479 3.10113801,-3.10003479 l 7.0279941,0 c 3.100035,0 3.100035,0.207257 3.100035,3.10003479 z"/><path id="path15" fill="#fff" fill-opacity=".051" d="m 10.799272,13.388058 c 0.717682,-0.0033 1.235825,-0.02315 1.611753,-0.124574 l -1.193932,-2.046111 -1.2655901,2.170685 0.3362411,0 c 0.180799,0 0.350573,0 0.511528,0 z M 11.217093,11.217373 9.7707049,8.7369038 8.3232129,11.217373 z m 0,0 2.159662,0 c 0.0088,-0.274505 0.01102,-0.582083 0.01102,-0.930451 l 0,-0.3097839 -0.723193,-1.2402343 z M 12.664584,8.7369038 11.217093,6.2564351 9.7707049,8.7369038 z m 0,0 0.723195,0 0,-1.2402343 z m -2.8938791,0 -1.447492,-2.4804687 -1.446389,2.4804687 z m -2.893881,0 -1.447491,2.4804692 2.89388,0 z m 0,0 -1.447491,-2.4804687 -1.446389,2.4804687 z m -2.89388,0 -1.447491,2.4804692 2.89388,0 z m 0,0 -1.447491,-2.4804687 -1.446389,2.4804687 z m -2.89388,0 -0.93045201,1.5941152 c 0,0.329627 0.0033,0.623976 0.01103,0.886354 l 2.36581601,0 z m 0,0 -0.93045201,-1.5941145 0,1.5941145 z m 1.446389,2.4804692 -1.217084,2.0869 c 0.450894,0.08268 1.07487,0.08378 1.941381,0.08378 l 0.542395,0 z m 0,-4.9609379 -1.446389,-2.4804689 -0.93045201,1.5941147 0,0.8863542 z m 0,0 2.89388,0 -1.446389,-2.4804689 z M 3.9829439,3.7759662 2.5354529,1.2954975 1.0890639,3.7759662 z m 0,0 2.89388,0 -1.447491,-2.4804687 z m 1.446389,-2.4804687 -0.663663,-1.13660599 -1.507023,0 c -0.02095,0 -0.03858,0 -0.05953,0 L 2.5354539,1.2954975 z m 0,0 2.89388,0 -0.663663,-1.13660599 -1.566554,0 z m 2.89388,0 2.8938801,0 -0.663663,-1.13660599 c -0.08819,0 -0.171979,0 -0.266788,0 l -1.2997661,0 z m 0,0 -1.446389,2.4804687 2.893881,0 z m 1.447492,2.4804687 2.8938791,0 -1.447491,-2.4804687 z m 0,0 -1.447492,2.4804689 2.8938801,0 z m 1.4463881,2.4804689 2.170686,0 0,-1.2402343 -0.723195,-1.2402346 z m 1.447491,-2.4804689 0.723195,0 0,-0.5170399 c 0,-0.2579689 -0.0022,-0.4938889 -0.0066,-0.71217 z M 8.3232129,6.2564351 6.8768239,3.7759662 5.4293329,6.2564351 z m 2.8938801,-4.9609376 2.062648,0 C 13.123196,0.51718131 12.747267,0.27133951 11.85981,0.19416921 z m -8.6816401,0 -0.650434,-1.11565979 C 0.85204089,0.23826671 0.43421989,0.46095731 0.26664989,1.2954975 z M 1.0890639,3.7759662 0.17514889,2.20831 c -0.01213,0.3031685 -0.01654,0.6515363 -0.01654,1.0506163 l 0,0.5170399 z m 4.340269,7.4414068 -1.26559,2.170685 2.532283,0 z m 2.89388,0 -1.26559,2.170685 2.532283,0 z m -7.59133701,1.86862 -0.451996,-0.775009 c 0.08268,0.37152 0.221588,0.615157 0.451996,0.775009 z"/><path id="rect3028" fill="#f9f9f9" fill-opacity="1" stroke-dasharray="none" stroke-miterlimit="4" stroke-width="0" d="M 18.15625 12 C 17.509917 12 17 12.509917 17 13.15625 L 17 34.84375 C 17 35.490083 17.509917 36 18.15625 36 L 29.84375 36 C 30.490083 36 31 35.490083 31 34.84375 L 31 13.15625 C 31 12.509917 30.490083 12 29.84375 12 L 18.15625 12 z M 19 14 L 29 14 L 29 21 L 19 21 L 19 14 z M 23 26 L 25 26 L 25 27 L 23 27 L 23 26 z M 20 28 L 21 28 L 21 29 L 22 29 L 22 30 L 21 30 L 21 31 L 20 31 L 20 30 L 19 30 L 19 29 L 20 29 L 20 28 z M 27.5 28 C 27.776142 28 28 28.223858 28 28.5 C 28 28.776142 27.776142 29 27.5 29 C 27.223858 29 27 28.776142 27 28.5 C 27 28.223858 27.223858 28 27.5 28 z M 26.5 29 C 26.776142 29 27 29.223858 27 29.5 C 27 29.776142 26.776142 30 26.5 30 C 26.223858 30 26 29.776142 26 29.5 C 26 29.223858 26.223858 29 26.5 29 z M 28.5 29 C 28.776142 29 29 29.223858 29 29.5 C 29 29.776142 28.776142 30 28.5 30 C 28.223858 30 28 29.776142 28 29.5 C 28 29.223858 28.223858 29 28.5 29 z M 27.5 30 C 27.776142 30 28 30.223858 28 30.5 C 28 30.776142 27.776142 31 27.5 31 C 27.223858 31 27 30.776142 27 30.5 C 27 30.223858 27.223858 30 27.5 30 z M 22.5 33.0625 C 22.776142 33.0625 23 33.286358 23 33.5625 C 23 33.838642 22.776142 34.0625 22.5 34.0625 C 22.223858 34.0625 22 33.838642 22 33.5625 C 22 33.286358 22.223858 33.0625 22.5 33.0625 z M 25.5 33.0625 C 25.776142 33.0625 26 33.286358 26 33.5625 C 26 33.838642 25.776142 34.0625 25.5 34.0625 C 25.223858 34.0625 25 33.838642 25 33.5625 C 25 33.286358 25.223858 33.0625 25.5 33.0625 z" transform="scale(0.28222223,0.28222223)"/></svg>