<svg xmlns="http://www.w3.org/2000/svg" xmlns:svg="http://www.w3.org/2000/svg" xmlns:xlink="http://www.w3.org/1999/xlink" id="svg3011" width="48" height="48" version="1.1" viewBox="0 0 13.547 13.547"><metadata id="metadata3158"/><defs id="defs3013"><linearGradient id="0"><stop id="stop3016" stop-color="#66a202"/><stop id="stop3018" offset="1" stop-color="#a9cc6f"/></linearGradient><clipPath id="clipPath3020"><rect id="rect3022" width="477.14" height="208.57" x="-830" y="1580.93" fill="#ff0"/></clipPath><clipPath id="clipPath3024"><rect id="rect3026" width="477.14" height="208.57" x="-830" y="1580.93" fill="#ff0"/></clipPath><clipPath id="clipPath3028"><rect id="rect3030" width="477.14" height="208.57" x="-830" y="1580.93" fill="#ff0"/></clipPath><clipPath id="clipPath3032"><rect id="rect3034" width="477.14" height="208.57" x="-830" y="1580.93" fill="#ff0"/></clipPath><clipPath id="clipPath3036"><rect id="rect3038" width="357.87" height="240.87" x="294.93" y="780.64" fill="red" transform="matrix(.99975 -.02255 .02255 .99975 0 0)"/></clipPath><clipPath id="clipPath3040"><rect id="rect3042" width="301.43" height="195" y="857.54" fill="#fff"/></clipPath><clipPath id="clipPath3044"><rect id="rect3046" width="477.14" height="208.57" x="-830" y="1580.93" fill="#ff0"/></clipPath><clipPath id="clipPath3048"><rect id="rect3050" width="79.48" height="30.01" x="276.37" y="977.09" fill="#e20a17"/></clipPath><clipPath id="clipPath3052"><rect id="rect3054" width="506.46" height="37.48" x="8.208" y=".064" fill="#162d50" transform="rotate(20.37582)"/></clipPath><clipPath id="clipPath3056"><rect id="rect3058" width="357.38" height="318.4" x="218.9" y="758.67" fill="#fff" transform="rotate(.22918)"/></clipPath><clipPath id="clipPath3060"><rect id="rect3062" width="357.38" height="318.4" x="218.9" y="758.67" fill="#fff" transform="rotate(.22918)"/></clipPath><clipPath id="clipPath3064"><rect id="rect3066" width="506.46" height="37.48" x="8.208" y=".064" fill="#162d50" transform="rotate(20.37582)"/></clipPath><clipPath id="clipPath3068"><rect id="rect3070" width="477.14" height="208.57" x="-830" y="1580.93" fill="#ff0"/></clipPath><clipPath id="clipPath3072"><rect id="rect3074" width="350.46" height="235.88" x="221.39" y="804.24" transform="rotate(.6171)"/></clipPath><clipPath id="clipPath3076"><rect id="rect3078" width="287.43" height="279.03" x="257.32" y="793.52" fill="#fff" transform="rotate(.16206)"/></clipPath><clipPath id="clipPath3080"><rect id="rect3082" width="301.43" height="195" y=".06" fill="#fff"/></clipPath><clipPath id="clipPath3084"><rect id="rect3086" width="301.43" height="195" y="857.54" fill="#fff"/></clipPath><path id="1" fill="#4a0" d="m 699.2857,672.93231 a 40.714287,40.714287 0 1 1 -81.42858,0 40.714287,40.714287 0 1 1 81.42858,0 z" clip-path="url(#3)"/><clipPath id="clipPath3089"><use id="use3091" transform="matrix(4.3233 0 0 4.3233 -2450.68 -2667.55)" xlink:href="#1"/></clipPath><clipPath id="clipPath3093"><rect id="rect3095" width="63.987" height="41.39" x="448.12" y="815.74" fill="#fff" transform="rotate(27.44968)"/></clipPath><clipPath id="clipPath3097"><rect id="rect3099" width="301.43" height="195" y="857.54" fill="#fff"/></clipPath><clipPath id="clipPath3101"><rect id="rect3103" width="477.14" height="208.57" x="-830" y="1580.93" fill="#ff0"/></clipPath><clipPath id="clipPath3105"><rect id="rect3107" width="477.14" height="208.57" x="-830" y="1580.93" fill="#ff0"/></clipPath><clipPath id="clipPath3109"><rect id="rect3111" width="477.14" height="208.57" x="-830" y="1580.93" fill="#ff0"/></clipPath><clipPath id="clipPath3113"><rect id="rect3115" width="477.14" height="208.57" x="-830" y="1580.93" fill="#ff0"/></clipPath><clipPath id="clipPath3117"><rect id="rect3119" width="477.14" height="208.57" x="-830" y="1580.93" fill="#ff0"/></clipPath><clipPath id="clipPath3121"><use id="use3123" xlink:href="#1"/></clipPath><clipPath id="clipPath3125"><rect id="rect3127" width="477.14" height="208.57" x="-830" y="1580.93" fill="#ff0"/></clipPath><path id="2" fill="#4a0" d="m 699.2857,672.93231 a 40.714287,40.714287 0 1 1 -81.42858,0 40.714287,40.714287 0 1 1 81.42858,0 z"/><clipPath id="3"><use id="use3131" xlink:href="#2"/></clipPath><clipPath id="clipPath3133"><use id="use3135" transform="matrix(4.3233 0 0 4.3233 -2450.68 -2667.55)" xlink:href="#2"/></clipPath><linearGradient id="4" x2="0" y1="1050.36" y2="1006.36" gradientTransform="matrix(0.28222223,0,0,0.28222223,0,-283.45334)" gradientUnits="userSpaceOnUse" xlink:href="#0"/><radialGradient id="radial0" cx="148.004" cy="160" r="128" gradientTransform="matrix(0.1831,0,0,0.1831,-3.10029,-5.29688)" gradientUnits="userSpaceOnUse"><stop id="stop7" offset="0" stop-color="#d4fbf2"/><stop id="stop9" offset="1" stop-color="#008766"/></radialGradient><radialGradient id="radialGradient3021" cx="148.004" cy="160" r="128" gradientTransform="matrix(0.05167489,0,0,0.05167489,-0.87511111,-1.4947566)" gradientUnits="userSpaceOnUse" xlink:href="#radial0"/></defs><path id="path11" fill="url(#radialGradient3021)" d="m 13.387776,3.2589255 0,7.0290975 c 0,2.892778 0,3.100035 -3.100035,3.100035 l -7.0279941,0 c -3.10113801,0 -3.10113801,-0.207257 -3.10113801,-3.100035 l 0,-7.0290975 c 0,-2.8927778 0,-3.10003475 3.10113801,-3.10003475 l 7.0279941,0 c 3.100035,0 3.100035,0.20725695 3.100035,3.10003475 z"/><path id="path15" fill="#fff" fill-opacity=".051" d="m 10.799269,13.388058 c 0.717682,-0.0033 1.235825,-0.02315 1.611753,-0.124575 l -1.193932,-2.046111 -1.2655901,2.170686 0.3362411,0 c 0.180799,0 0.350573,0 0.511528,0 z M 11.21709,11.217372 9.7707012,8.7369031 8.32321,11.217372 z m 0,0 2.159662,0 c 0.0088,-0.274505 0.01102,-0.582083 0.01102,-0.930451 l 0,-0.3097836 -0.723194,-1.2402343 z M 12.664581,8.7369031 11.21709,6.2564344 9.7707012,8.7369031 z m 0,0 0.723195,0 0,-1.2402344 z m -2.8938798,0 L 8.32321,6.2564344 6.876821,8.7369031 z m -2.8938802,0 -1.4474915,2.4804689 2.8938805,0 z m 0,0 -1.4474915,-2.4804687 -1.446389,2.4804687 z m -2.8938805,0 -1.4474913,2.4804689 2.8938803,0 z m 0,0 L 2.5354492,6.2564344 1.0890603,8.7369031 z m -2.8938802,0 -0.9304514,1.5941149 c 0,0.329627 0.003307,0.623975 0.0110242,0.886354 l 2.36581614,0 z m 0,0 -0.9304514,-1.5941145 0,1.5941145 z m 1.4463889,2.4804689 -1.2170833,2.086901 c 0.450894,0.08268 1.0748699,0.08378 1.9413802,0.08378 l 0.5423958,0 z m 0,-4.9609376 -1.4463889,-2.480469 -0.9304514,1.5941148 0,0.8863542 z m 0,0 2.8938803,0 -1.446389,-2.480469 z M 3.9829405,3.7759654 2.5354492,1.2954968 1.0890603,3.7759654 z m 0,0 2.8938805,0 -1.4474915,-2.4804686 z m 1.446389,-2.4804686 -0.6636631,-1.13660605 -1.5059203,0 c -0.02205,0 -0.039687,0 -0.060634,0 L 2.5354492,1.2954968 z m 0,0 2.8938805,0 -0.6636634,-1.13660605 -1.5665538,0 z m 2.8938805,0 2.89388,0 -0.663663,-1.13660605 c -0.08819,0 -0.171979,0 -0.265686,0 l -1.300868,0 z m 0,0 -1.446389,2.4804686 2.8938802,0 z m 1.4474912,2.4804686 2.8938798,0 -1.447491,-2.4804686 z m 0,0 -1.4474912,2.480469 2.89388,0 z m 1.4463888,2.480469 2.170686,0 0,-1.2402343 -0.723195,-1.2402347 z m 1.447491,-2.480469 0.723195,0 0,-0.5170398 c 0,-0.2579689 -0.0022,-0.4938889 -0.0066,-0.7121701 z M 8.32321,6.2564344 6.876821,3.7759654 5.4293295,6.2564344 z m 2.89388,-4.9609376 2.062648,0 C 13.123193,0.51718062 12.747264,0.27133881 11.859807,0.19416853 z m -8.6816408,0 L 1.8850153,0.179837 C 0.85203767,0.23826575 0.4342164,0.46095659 0.26664695,1.2954968 z M 1.0890603,3.7759654 0.17514543,2.2083093 C 0.16301862,2.5114778 0.1586089,2.8598455 0.1586089,3.2589256 l 0,0.5170398 z m 4.3402692,7.4414066 -1.2655904,2.170686 2.532283,0 z m 2.8938805,0 -1.2655906,2.170686 2.5322832,0 z m -7.5913372,1.86862 -0.4519964,-0.775009 c 0.0826821,0.371519 0.22158848,0.615156 0.4519964,0.775009 z"/><path id="path3154" fill="#f9f9f9" fill-opacity="1" d="m 3.9511112,3.3866667 0.8466667,0 0.8466667,5.6444446 3.1044445,-5.6444445 0.8466667,0 L 6.208889,10.16 l -1.4111111,0 z"/></svg>