<svg xmlns="http://www.w3.org/2000/svg" xmlns:svg="http://www.w3.org/2000/svg" xmlns:xlink="http://www.w3.org/1999/xlink" id="svg2" width="48" height="48" version="1.1" viewBox="0 0 13.547 13.547"><metadata id="metadata32"/><defs id="defs4"><linearGradient id="0"><stop id="stop7" stop-color="#ffc200"/><stop id="stop9" offset="1" stop-color="#f8dc62"/></linearGradient><linearGradient id="1" x2="0" y1="1050.36" y2="1006.36" gradientTransform="matrix(0.28222223,0,0,0.28222223,0,-283.45334)" gradientUnits="userSpaceOnUse" xlink:href="#0"/><radialGradient id="radialGradient3009" cx="148.004" cy="160" r="128" gradientTransform="matrix(0.05167489,0,0,0.05167489,-0.87510811,-1.4947562)" gradientUnits="userSpaceOnUse" xlink:href="#radial0"/><radialGradient id="radial0" cx="148.004" cy="160" r="128" gradientTransform="matrix(0.1831,0,0,0.1831,-3.10029,-5.29688)" gradientUnits="userSpaceOnUse"><stop id="stop7-0" offset="0" stop-color="#f5ce7a" stop-opacity="1"/><stop id="stop9-2" offset="1" stop-color="#e5a211" stop-opacity="1"/></radialGradient><radialGradient id="radialGradient3019" cx="148.004" cy="160" r="128" gradientTransform="matrix(0.05167489,0,0,0.05167489,-0.87510811,-1.4947558)" gradientUnits="userSpaceOnUse" xlink:href="#radial0"/></defs><path id="path11" fill="url(#radialGradient3019)" d="m 13.38778,3.2589263 0,7.0290977 c 0,2.892777 0,3.100034 -3.100035,3.100034 l -7.0279948,0 c -3.10113731,0 -3.10113731,-0.207257 -3.10113731,-3.100034 l 0,-7.0290977 c 0,-2.89277777 0,-3.10003477 3.10113731,-3.10003477 l 7.0279948,0 c 3.100035,0 3.100035,0.207257 3.100035,3.10003477 z"/><path id="path15-0" fill="#fff" fill-opacity=".051" d="m 10.799273,13.388058 c 0.717682,-0.0033 1.235825,-0.02315 1.611753,-0.124574 l -1.193932,-2.046112 -1.26559,2.170686 0.336241,0 c 0.180799,0 0.350573,0 0.511528,0 z M 11.217094,11.217372 9.7707051,8.7369038 8.3232141,11.217372 z m 0,0 2.159662,0 c 0.0088,-0.274505 0.01102,-0.582082 0.01102,-0.93045 l 0,-0.3097839 -0.723193,-1.2402343 z M 12.664585,8.7369038 11.217094,6.2564351 9.7707051,8.7369038 z m 0,0 0.723195,0 0,-1.2402343 z m -2.8938799,0 -1.447491,-2.4804687 -1.4463889,2.4804687 z m -2.8938799,0 -1.4474922,2.4804682 2.8938811,0 z m 0,0 L 5.429333,6.2564351 3.9829441,8.7369038 z m -2.8938811,0 -1.447491,2.4804682 2.8938799,0 z m 0,0 -1.447491,-2.4804687 -1.4463892,2.4804687 z m -2.8938802,0 -0.93045101,1.5941152 c 0,0.329627 0.0033,0.623975 0.01102,0.886353 l 2.36581621,0 z m 0,0 -0.93045101,-1.5941145 0,1.5941145 z m 1.4463892,2.4804682 -1.2170832,2.086901 c 0.4508942,0.08268 1.0748702,0.08378 1.9413803,0.08378 l 0.5423959,0 z m 0,-4.9609369 -1.4463892,-2.4804689 -0.93045101,1.5941147 0,0.8863542 z m 0,0 2.8938799,0 L 3.9829441,3.7759662 z M 3.9829441,3.7759662 2.5354531,1.2954975 1.0890639,3.7759662 z m 0,0 2.8938811,0 L 5.429333,1.2954975 z M 5.429333,1.2954975 4.7656702,0.15889153 l -1.5070221,0 c -0.020949,0 -0.03858,0 -0.05953,0 L 2.5354541,1.2954975 z m 0,0 2.8938811,0 -0.6636639,-1.13660597 -1.566553,0 z m 2.8938811,0 2.8938799,0 -0.663663,-1.13660597 c -0.08819,0 -0.171979,0 -0.266788,0 l -1.2997658,0 z m 0,0 -1.4463889,2.4804687 2.8938799,0 z m 1.447491,2.4804687 2.8938799,0 -1.447491,-2.4804687 z m 0,0 -1.447491,2.4804689 2.8938799,0 z m 1.4463889,2.4804689 2.170686,0 0,-1.2402343 -0.723195,-1.2402346 z m 1.447491,-2.4804689 0.723195,0 0,-0.5170399 c 0,-0.2579689 -0.0022,-0.4938889 -0.0066,-0.71217 z M 8.3232141,6.2564351 6.8768252,3.7759662 5.429333,6.2564351 z m 2.8938799,-4.9609376 2.062648,0 C 13.123197,0.51718143 12.747268,0.27133963 11.859811,0.19416933 z m -8.6816409,0 -0.650434,-1.11565967 C 0.85204189,0.23826683 0.43421989,0.46095734 0.26665089,1.2954975 z M 1.0890639,3.7759662 0.17514889,2.20831 c -0.01213,0.3031685 -0.01654,0.6515363 -0.01654,1.0506163 l 0,0.5170399 z m 4.3402691,7.4414058 -1.26559,2.170686 2.532283,0 z m 2.8938811,0 -1.2655909,2.170686 2.532283,0 z m -7.59133721,1.86862 -0.451997,-0.775009 c 0.08268,0.37152 0.221589,0.615157 0.451997,0.775009 z"/><path id="path28" fill="#f9f9f9" fill-opacity="1" d="m 3.1044445,3.386667 2.971418,7.337778 1.3948421,0 C 7.2012738,10.335135 7.3860851,9.933642 7.7426089,9.6938109 7.5434656,9.5708218 7.4177594,9.4009184 7.4177594,9.2087414 c 0,-0.2276297 0.173525,-0.4321928 0.4395023,-0.555625 C 7.8026185,8.5203935 7.7944629,8.3894413 7.8477073,8.2650608 7.9433293,8.0416862 8.2061844,7.9070899 8.5260696,7.8946442 8.3710493,7.5641123 8.5681932,7.3189277 8.8084205,7.4259726 l 1.6338025,-4.0393056 -1.2707353,0 C 8.1988337,5.8861586 7.5705719,7.509621 7.2892711,8.2550004 7.0127299,8.9959213 6.8448855,9.482471 6.7924424,9.7190283 l -0.057327,0 C 6.6683622,9.4155205 6.4477356,8.7523034 6.0663081,7.7346532 L 4.3751795,3.386667 z"/></svg>