<svg xmlns="http://www.w3.org/2000/svg" xmlns:svg="http://www.w3.org/2000/svg" xmlns:xlink="http://www.w3.org/1999/xlink" id="svg2" width="48" height="48" version="1.1" viewBox="0 0 13.547 13.547"><metadata id="metadata36"/><defs id="defs4"><linearGradient id="0"><stop id="stop7" stop-color="#dcdcdc"/><stop id="stop9" offset="1" stop-color="#f5f5f5"/></linearGradient><linearGradient id="1" x2="0" y1="1050.36" y2="1006.36" gradientTransform="matrix(0.28222223,0,0,0.28222223,0,-283.45334)" gradientUnits="userSpaceOnUse" xlink:href="#0"/><radialGradient id="radialGradient3012" cx="148.004" cy="160" r="128" gradientTransform="matrix(0.05167489,0,0,0.05167489,-0.87510911,-1.4947611)" gradientUnits="userSpaceOnUse" spreadMethod="pad" xlink:href="#linearGradient4460"/><linearGradient id="linearGradient4460"><stop id="stop8-6" offset="0" stop-color="#747474" stop-opacity=".75"/><stop id="stop10-2" offset="1" stop-color="#2d2d2d" stop-opacity=".76"/></linearGradient><radialGradient id="radialGradient3009" cx="148.004" cy="160" r="128" gradientTransform="matrix(0.05167489,0,0,0.05167489,-0.87510911,-1.4947613)" gradientUnits="userSpaceOnUse" spreadMethod="pad" xlink:href="#linearGradient4460"/></defs><path id="path11" fill="url(#radialGradient3009)" fill-opacity="1" d="m 13.387778,3.2589207 0,7.0290973 c 0,2.892778 0,3.100035 -3.100035,3.100035 l -7.0279941,0 c -3.10113701,0 -3.10113701,-0.207257 -3.10113701,-3.100035 l 0,-7.0290973 c 0,-2.89277779 0,-3.10003479 3.10113701,-3.10003479 l 7.0279941,0 c 3.100035,0 3.100035,0.207257 3.100035,3.10003479 z"/><path id="path15" fill="#fff" fill-opacity=".051" d="m 10.799271,13.388053 c 0.717682,-0.0033 1.235825,-0.02315 1.611753,-0.124575 l -1.193932,-2.04611 -1.2655901,2.170685 0.3362411,0 c 0.180799,0 0.350573,0 0.511528,0 z M 11.217092,11.217368 9.7707039,8.7368981 8.3232129,11.217368 z m 0,0 2.159662,0 c 0.0088,-0.274506 0.01102,-0.582084 0.01102,-0.930452 l 0,-0.3097839 -0.723193,-1.240234 z M 12.664584,8.7368981 11.217092,6.2564295 9.7707039,8.7368981 z m 0,0 0.723194,0 0,-1.2402342 z m -2.8938801,0 -1.447491,-2.4804686 -1.446389,2.4804686 z m -2.89388,0 -1.447491,2.4804699 2.89388,0 z m 0,0 -1.447491,-2.4804686 -1.44639,2.4804686 z m -2.893881,0 -1.447491,2.4804699 2.893881,0 z m 0,0 -1.447491,-2.4804686 -1.4463885,2.4804686 z m -2.8938795,0 -0.93045151,1.5941149 c 0,0.329627 0.0033,0.623976 0.01102,0.886355 l 2.36581501,0 z m 0,0 -0.93045151,-1.5941144 0,1.5941144 z m 1.4463885,2.4804699 -1.217084,2.0869 c 0.450894,0.08268 1.07487,0.08379 1.941381,0.08379 l 0.542396,0 z m 0,-4.9609385 -1.4463885,-2.4804689 -0.93045151,1.5941147 0,0.8863542 z m 0,0 2.893881,0 -1.44639,-2.4804689 z M 3.9829429,3.7759606 2.5354519,1.2954919 1.0890634,3.7759606 z m 0,0 2.893881,0 -1.447491,-2.4804687 z m 1.44639,-2.4804687 -0.663663,-1.13660599 -1.505921,0 c -0.02205,0 -0.03969,0 -0.06063,0 L 2.5354559,1.2954919 z m 0,0 2.89388,0 -0.663664,-1.13660599 -1.566554,0 z m 2.89388,0 2.8938791,0 -0.663663,-1.13660599 c -0.0882,0 -0.171979,0 -0.265686,0 l -1.3008671,0 z m 0,0 -1.446389,2.4804687 2.89388,0 z m 1.447491,2.4804687 2.8938801,0 -1.447492,-2.4804687 z m 0,0 -1.447491,2.4804689 2.8938791,0 z m 1.4463881,2.4804689 2.170686,0 0,-1.2402343 -0.723194,-1.2402346 z m 1.447492,-2.4804689 0.723194,0 0,-0.5170399 c 0,-0.2579689 -0.0022,-0.4938888 -0.0066,-0.71217 z M 8.3232129,6.2564295 6.8768239,3.7759606 5.4293329,6.2564295 z m 2.8938791,-4.9609376 2.062648,0 C 13.123195,0.51717581 12.747266,0.27133401 11.859809,0.19416371 z m -8.6816401,0 -0.650434,-1.11565969 C 0.85204089,0.23826121 0.43421989,0.46095171 0.26664989,1.2954919 z M 1.0890634,3.7759606 0.17514889,2.2083045 c -0.01213,0.3031684 -0.01654,0.6515363 -0.01654,1.0506162 l 0,0.5170399 z m 4.3402695,7.4414074 -1.26559,2.170685 2.532283,0 z m 2.89388,0 -1.265591,2.170685 2.532283,0 z m -7.59133701,1.868619 -0.451996,-0.775009 c 0.08268,0.371519 0.221588,0.615157 0.451996,0.775009 z"/><path id="path28" fill="#f9f9f9" fill-opacity="1" d="m 3.3866667,5.3622224 0.5644445,0 0.7055556,1.9755556 0.2822222,0 0.7055556,-1.9755556 0.5644444,0 -1.1288889,2.8222222 -0.5644444,0 z"/><path id="path30" fill="#f9f9f9" fill-opacity="1" d="m 5.0800001,8.1844446 0.5644445,0 0.7055556,-1.9755556 0.2822222,0 0.7055556,1.9755556 0.5644444,0 -1.1288889,-2.8222222 -0.5815498,-1e-7 z"/><path id="path32" fill="#f9f9f9" fill-opacity="1" d="m 7.337778,8.1844446 0.5644444,0 0.7055556,-1.9755556 0.2822222,0 0.7055556,1.9755556 0.5644452,0 -1.1288897,-2.8222222 -0.5644444,0 z"/></svg>