<svg xmlns="http://www.w3.org/2000/svg" xmlns:svg="http://www.w3.org/2000/svg" xmlns:xlink="http://www.w3.org/1999/xlink" id="svg2" width="48" height="48" version="1.1" viewBox="0 0 13.547 13.547"><metadata id="metadata53"/><defs id="defs4"><linearGradient id="0"><stop id="stop7" stop-color="#dbdbdb"/><stop id="stop9" offset="1" stop-color="#f9f9f9"/></linearGradient><linearGradient id="1" x2="0" y1="1050.36" y2="1006.36" gradientTransform="matrix(0.28222223,0,0,0.28222223,0,-283.45334)" gradientUnits="userSpaceOnUse" xlink:href="#0"/><path id="2" d="m 26.847457,16.474577 c 0,3.145215 -2.003336,5.694915 -4.474576,5.694915 -2.47124,0 -4.474577,-2.5497 -4.474577,-5.694915 0,-3.145215 2.003337,-5.694915 4.474577,-5.694915 2.47124,0 4.474576,2.5497 4.474576,5.694915 z"/><radialGradient id="radialGradient3008" cx="148.004" cy="160" r="128" gradientTransform="matrix(0.05167489,0,0,0.05167489,-0.87510811,-1.4947562)" gradientUnits="userSpaceOnUse" xlink:href="#radial0"/><radialGradient id="radial0" cx="148.004" cy="160" r="128" gradientTransform="matrix(0.1831,0,0,0.1831,-3.10029,-5.29688)" gradientUnits="userSpaceOnUse"><stop id="stop7-0" offset="0" stop-color="#f5ce7a" stop-opacity="1"/><stop id="stop9-2" offset="1" stop-color="#e5a211" stop-opacity="1"/></radialGradient><radialGradient id="radialGradient3009" cx="148.004" cy="160" r="128" gradientTransform="matrix(0.05167489,0,0,0.05167489,-0.87510811,-1.4947562)" gradientUnits="userSpaceOnUse" xlink:href="#radial0"/></defs><path id="path11" fill="url(#radialGradient3009)" d="m 13.38778,3.2589259 0,7.0290971 c 0,2.892778 0,3.100035 -3.100035,3.100035 l -7.0279951,0 c -3.10113701,0 -3.10113701,-0.207257 -3.10113701,-3.100035 l 0,-7.0290971 c 0,-2.89277779 0,-3.10003479 3.10113701,-3.10003479 l 7.0279951,0 c 3.100035,0 3.100035,0.207257 3.100035,3.10003479 z"/><path id="path15-0" fill="#fff" fill-opacity=".051" d="m 10.799273,13.388058 c 0.717682,-0.0033 1.235825,-0.02315 1.611753,-0.124574 l -1.193932,-2.046112 -1.2655901,2.170686 0.3362411,0 c 0.180799,0 0.350573,0 0.511528,0 z M 11.217094,11.217372 9.7707049,8.7369034 8.3232139,11.217372 z m 0,0 2.159662,0 c 0.0088,-0.274505 0.01102,-0.582083 0.01102,-0.930451 l 0,-0.3097833 -0.723193,-1.2402343 z M 12.664585,8.7369034 11.217094,6.2564347 9.7707049,8.7369034 z m 0,0 0.723195,0 0,-1.2402343 z m -2.8938801,0 -1.447491,-2.4804687 -1.446389,2.4804687 z m -2.89388,0 -1.447492,2.4804686 2.893881,0 z m 0,0 -1.447492,-2.4804687 -1.446389,2.4804687 z m -2.893881,0 -1.447491,2.4804686 2.89388,0 z m 0,0 -1.447491,-2.4804687 -1.446389,2.4804687 z m -2.89388,0 -0.93045101,1.5941146 c 0,0.329627 0.0033,0.623976 0.01102,0.886354 l 2.36581601,0 z m 0,0 -0.93045101,-1.5941145 0,1.5941145 z m 1.446389,2.4804686 -1.217083,2.086901 c 0.450894,0.08268 1.07487,0.08378 1.94138,0.08378 l 0.542396,0 z m 0,-4.9609373 -1.446389,-2.4804689 -0.93045101,1.5941147 0,0.8863542 z m 0,0 2.89388,0 -1.446389,-2.4804689 z M 3.9829439,3.7759658 2.5354529,1.2954971 1.0890639,3.7759658 z m 0,0 2.893881,0 -1.447492,-2.4804687 z m 1.446389,-2.4804687 -0.663663,-1.13660599 -1.507022,0 c -0.02095,0 -0.03858,0 -0.05953,0 L 2.5354539,1.2954971 z m 0,0 2.893881,0 -0.663664,-1.13660599 -1.566553,0 z m 2.893881,0 2.8938801,0 -0.663663,-1.13660599 c -0.08819,0 -0.171979,0 -0.266788,0 l -1.2997661,0 z m 0,0 -1.446389,2.4804687 2.89388,0 z m 1.447491,2.4804687 2.8938801,0 -1.447491,-2.4804687 z m 0,0 -1.447491,2.4804689 2.8938801,0 z m 1.4463891,2.4804689 2.170686,0 0,-1.2402343 -0.723195,-1.2402346 z m 1.447491,-2.4804689 0.723195,0 0,-0.5170399 c 0,-0.2579689 -0.0022,-0.4938889 -0.0066,-0.71217 z M 8.3232139,6.2564347 6.8768249,3.7759658 5.4293329,6.2564347 z m 2.8938801,-4.9609376 2.062648,0 C 13.123197,0.51718101 12.747268,0.27133921 11.859811,0.19416891 z m -8.6816411,0 -0.650434,-1.11565969 C 0.85204189,0.23826641 0.43421989,0.46095691 0.26665089,1.2954971 z M 1.0890639,3.7759658 0.17514889,2.2083096 c -0.01213,0.3031685 -0.01654,0.6515363 -0.01654,1.0506163 l 0,0.5170399 z m 4.340269,7.4414062 -1.26559,2.170686 2.532283,0 z m 2.893881,0 -1.265591,2.170686 2.532283,0 z m -7.59133701,1.86862 -0.451997,-0.775009 c 0.08268,0.37152 0.221589,0.615157 0.451997,0.775009 z"/><use id="use31" width="13.547" height="13.547" x="0" y="0" fill="#f9f9f9" fill-opacity="1" transform="matrix(0.13761403,0,0,0.10901525,2.7291628,1.9292944)" xlink:href="#2"/><use id="use33" width="13.547" height="13.547" x="0" y="0" fill="#f9f9f9" fill-opacity="1" transform="matrix(0.11467593,0,0,0.09084482,4.3642185,3.9525844)" xlink:href="#2"/><use id="use35" width="13.547" height="13.547" x="0" y="0" fill="#f9f9f9" fill-opacity="1" transform="matrix(0.22935187,0,0,0.18168964,4.0024162,2.8961256)" xlink:href="#2"/><use id="use37" width="13.547" height="13.547" x="0" y="0" fill="#f9f9f9" fill-opacity="1" transform="matrix(0.41283482,0,0,0.32704575,-4.0023974,2.1570334)" xlink:href="#2"/><use id="use39" width="13.547" height="13.547" x="0" y="0" fill="#f9f9f9" fill-opacity="1" transform="matrix(0.09173784,0,0,0.07267439,4.823424,8.831015)" xlink:href="#2"/><g id="g41" fill="#f9f9f9" fill-opacity="1" color="#000" transform="matrix(0.72727,0,0,0.73327,1.53244,1.80315)"><path id="path43" fill="#f9f9f9" fill-opacity="1" d="M 5.5393587,3.0238737 5.1424836,5.8372765 5.4247059,5.8725543 5.8215809,3.0591515 5.5393587,3.0238737 z"/><path id="path45" fill="#f9f9f9" fill-opacity="1" d="m 6.9802613,5.1753319 -0.40625,1.09375 0.28125,0.09375 0.40625,-1.09375 -0.28125,-0.09375 z"/><path id="path47" fill="#f9f9f9" fill-opacity="1" d="m 9.5115113,5.8628319 -2.46875,2.03125 0.1875,0.21875 2.46875,-2.03125 -0.1875,-0.21875 z"/><path id="path49" fill="#f9f9f9" fill-opacity="1" d="m 6.7927613,8.8003319 -0.25,0.0625 0.5,1.9687501 0.25,-0.0625 -0.5,-1.9687501 z"/></g></svg>