<svg xmlns="http://www.w3.org/2000/svg" xmlns:svg="http://www.w3.org/2000/svg" xmlns:xlink="http://www.w3.org/1999/xlink" id="svg2" width="48" height="48" version="1.1" viewBox="0 0 13.547 13.547"><metadata id="metadata74"/><defs id="defs4"><clipPath id="clipPath6"><rect id="rect8" width="96" height="96" x="-100" fill="#fff"/></clipPath><clipPath id="clipPath10"><rect id="rect12" width="20" height="20" x="1" y="1" fill="#fff" fill-rule="evenodd" rx="2"/></clipPath><clipPath id="clipPath14"><path id="path16" d="M 95.311,352.545 L 476.403,352.545 L 476.403,71.4229 L 95.311,71.4229 L 95.311,352.545 z"/></clipPath><clipPath id="clipPath18"><path id="path20" d="M 92.311,355.545 L 479.511,355.545 L 479.511,68.1846 L 92.311,68.1846 L 92.311,355.545 z"/></clipPath><clipPath id="clipPath22"><path id="path24" d="M 93.311,69.185 L 478.511,69.185 L 478.511,354.545 L 93.311,354.545 L 93.311,69.185 z"/></clipPath><clipPath id="clipPath26"><rect id="rect28" width="84" height="84" x="6" y="6" fill="#fff" rx="6"/></clipPath><clipPath id="clipPath30"><path id="path32" d="M 54.1,12.5 12.9,54.7 C -2.7,70.3 23,69 32.3,74.9 36.6,77.7 18.5,81.3 22.2,85 c 3.6,3.7 21.7,7.1 25.3,10.7 3.6,3.7 -7.3,7.6 -3.7,11.3 3.5,3.7 11.9,0.2 13.4,8.6 1.1,6.2 15.4,3.1 21.8,-2.2 4,-3.4 -6.9,-3.4 -3.3,-7.1 9,-9.1 17,-4.1 20.3,-12.5 1.8,-4.5 -13.6,-7.7 -9.5,-10.6 9.8,-6.9 45.8,-10.4 29.2,-27 L 73,12.5 c -5.3,-5 -14,-5 -18.9,0 z m -9.9,64.7 c 0.9,0 30.8,4 19.3,7.1 -4.4,1.2 -24.6,-7.1 -19.3,-7.1 z m 57.2,16.6 c 0,2.1 16.3,3.3 15.4,-0.5 -1.3,-6.4 -13.6,-5.9 -15.4,0.5 z m -69.5,11.1 c 3.7,3.2 9.3,-0.7 11.1,-5.2 -3.6,-4.7 -16.9,0.3 -11.1,5.2 z m 67.5,-6.7 c -4.6,4.2 0.8,8.6 5.3,5.7 1.2,-0.8 -0.1,-4.7 -5.3,-5.7 z"/></clipPath><clipPath id="clipPath34"><path id="path36" d="M 93.311,354.545 L 478.511,354.545 L 478.511,69.1846 L 93.311,69.1846 L 93.311,354.545 z"/></clipPath><linearGradient id="0"><stop id="stop39" stop-color="#dedede"/><stop id="stop41" offset=".5" stop-color="#f9f9f9"/><stop id="stop43" offset="1" stop-color="#dedede"/></linearGradient><linearGradient id="1"><stop id="stop46" stop-color="#ffb00a"/><stop id="stop48" offset="1" stop-color="#ff8e02"/></linearGradient><linearGradient id="2" x2="0" y1="1050.36" y2="1006.36" gradientTransform="matrix(0.28222223,0,0,0.28222223,-13.546667,-296.99999)" gradientUnits="userSpaceOnUse" xlink:href="#1"/><linearGradient id="3" x1="7.781" x2="43.44" gradientTransform="scale(0.9999921,0.9999921)" gradientUnits="userSpaceOnUse" xlink:href="#0"/><radialGradient id="radial0" cx="148.004" cy="160" r="128" gradientTransform="matrix(0.1831,0,0,0.1831,-3.10029,-5.29688)" gradientUnits="userSpaceOnUse"><stop id="stop7" offset="0" stop-color="#f2c6b1"/><stop id="stop9" offset="1" stop-color="#cf5118"/></radialGradient><radialGradient id="radialGradient3018" cx="148.004" cy="160" r="128" gradientTransform="matrix(0.05167489,0,0,0.05167489,-0.87511191,-1.4947562)" gradientUnits="userSpaceOnUse" xlink:href="#radial0"/></defs><path id="path11" fill="url(#radialGradient3018)" d="m 13.387776,3.2589259 0,7.0290971 c 0,2.892778 0,3.100035 -3.100035,3.100035 l -7.0279949,0 c -3.10113721,0 -3.10113721,-0.207257 -3.10113721,-3.100035 l 0,-7.0290971 c 0,-2.89277783 0,-3.10003483 3.10113721,-3.10003483 l 7.0279949,0 c 3.100035,0 3.100035,0.207257 3.100035,3.10003483 z"/><path id="path15" fill="#fff" fill-opacity=".051" d="m 10.799269,13.388058 c 0.717682,-0.0033 1.235825,-0.02315 1.611753,-0.124574 l -1.193932,-2.046112 -1.2655901,2.170686 0.3362411,0 c 0.180799,0 0.350573,0 0.511528,0 z M 11.21709,11.217372 9.7707012,8.7369034 8.32321,11.217372 z m 0,0 2.159662,0 c 0.0088,-0.274505 0.01102,-0.582083 0.01102,-0.930451 l 0,-0.3097833 -0.723194,-1.2402343 z M 12.664581,8.7369034 11.21709,6.2564347 9.7707012,8.7369034 z m 0,0 0.723195,0 0,-1.2402343 z m -2.8938798,0 L 8.32321,6.2564347 6.876821,8.7369034 z m -2.8938802,0 -1.4474915,2.4804686 2.8938805,0 z m 0,0 -1.4474915,-2.4804687 -1.446389,2.4804687 z m -2.8938805,0 -1.4474913,2.4804686 2.8938803,0 z m 0,0 L 2.5354492,6.2564347 1.0890603,8.7369034 z m -2.8938802,0 -0.9304514,1.5941146 c 0,0.329627 0.003307,0.623976 0.0110242,0.886354 l 2.36581614,0 z m 0,0 -0.9304514,-1.5941145 0,1.5941145 z m 1.4463889,2.4804686 -1.2170833,2.086901 c 0.450894,0.08268 1.0748699,0.08378 1.9413802,0.08378 l 0.5423958,0 z m 0,-4.9609373 -1.4463889,-2.4804689 -0.9304514,1.5941147 0,0.8863542 z m 0,0 2.8938803,0 -1.446389,-2.4804689 z M 3.9829405,3.7759658 2.5354492,1.2954971 1.0890603,3.7759658 z m 0,0 2.8938805,0 -1.4474915,-2.4804687 z m 1.446389,-2.4804687 -0.6636631,-1.13660602 -1.5070227,0 c -0.020946,0 -0.038585,0 -0.059531,0 L 2.5354492,1.2954971 z m 0,0 2.8938805,0 -0.6636634,-1.13660602 -1.5665538,0 z m 2.8938805,0 2.89388,0 -0.663663,-1.13660602 c -0.08819,0 -0.171979,0 -0.266788,0 l -1.299766,0 z m 0,0 -1.446389,2.4804687 2.8938802,0 z m 1.4474912,2.4804687 2.8938798,0 -1.447491,-2.4804687 z m 0,0 -1.4474912,2.4804689 2.89388,0 z m 1.4463888,2.4804689 2.170686,0 0,-1.2402343 -0.723195,-1.2402346 z m 1.447491,-2.4804689 0.723195,0 0,-0.5170399 c 0,-0.2579689 -0.0022,-0.4938889 -0.0066,-0.71217 z M 8.32321,6.2564347 6.876821,3.7759658 5.4293295,6.2564347 z m 2.89388,-4.9609376 2.062648,0 C 13.123193,0.51718095 12.747264,0.27133914 11.859807,0.19416885 z m -8.6816408,0 L 1.8850153,0.17983733 C 0.85203767,0.23826608 0.4342164,0.46095692 0.26664695,1.2954971 z M 1.0890603,3.7759658 0.17514543,2.2083096 C 0.16301862,2.5114781 0.1586089,2.8598459 0.1586089,3.2589259 l 0,0.5170399 z m 4.3402692,7.4414062 -1.2655904,2.170686 2.532283,0 z m 2.8938805,0 -1.2655906,2.170686 2.5322832,0 z m -7.5913372,1.86862 -0.4519964,-0.775009 c 0.0826821,0.37152 0.22158848,0.615157 0.4519964,0.775009 z"/><path id="path17" fill="#fff" stroke="#fff" stroke-width=".441" d="m 3.6069689,9.9396981 6.3327291,0 -0.6414252,-1.1488467 -4.9875818,0 c 0,0 -0.2814889,0.4854289 -0.7037221,1.1488467 z"/><path id="path19" fill="#fff" d="M 6.7564133,3.3962728 C 6.6387418,3.3969763 6.5272231,3.4673282 6.2934181,3.6066249 L 5.8035046,5.3443152 7.7416243,5.3436128 7.2509415,3.606626 C 6.9948329,3.4652175 6.8733157,3.3955693 6.7564133,3.3962728 z m -1.1744082,2.7303549 -0.1822754,0.64583 2.7456695,0 -0.1815064,-0.6437194 z m 2.5633941,0.64583 0.2245757,0.7949757 z M 8.3699749,7.5674334 5.175923,7.5653194 4.8905886,8.5755712 c 1.3597602,0.7112569 2.2695998,0.7548759 3.7654897,0.00419 z"/></svg>