<svg xmlns="http://www.w3.org/2000/svg" xmlns:svg="http://www.w3.org/2000/svg" xmlns:xlink="http://www.w3.org/1999/xlink" id="svg2" width="48" height="48" version="1.1" viewBox="0 0 13.547 13.547"><metadata id="metadata26"/><defs id="defs4"><linearGradient id="linearGradient4460"><stop id="stop7" offset="0" stop-color="#dedede"/><stop id="stop9" offset="1" stop-color="#f9f9f9"/></linearGradient><linearGradient id="linearGradient3002" x2="0" y1="279.096" y2="268.33" gradientTransform="matrix(1.10525 0 0 1.10525 -134.27874 -295.76183)" gradientUnits="userSpaceOnUse" xlink:href="#linearGradient4460"/><linearGradient id="linearGradient3005" x2="0" y1="279.096" y2="268.33" gradientTransform="matrix(1.10528,0,0,1.10528,-134.28288,-295.77052)" gradientUnits="userSpaceOnUse" xlink:href="#linearGradient4460-6"/><linearGradient id="linearGradient4460-6"><stop id="stop2995" offset="0" stop-color="#aaa"/><stop id="stop2997" offset="1" stop-color="#c8c8c8"/></linearGradient><linearGradient id="1" x2="0" y1="1050.36" y2="1006.36" gradientTransform="matrix(0.28222223,0,0,0.28222223,0,-283.45334)" gradientUnits="userSpaceOnUse" xlink:href="#0"/><linearGradient id="0"><stop id="stop7-0" stop-color="#dedede"/><stop id="stop9-7" offset="1" stop-color="#f9f9f9"/></linearGradient><radialGradient id="radialGradient3012" cx="148.004" cy="160" r="128" gradientTransform="matrix(0.05167489,0,0,0.05167489,-0.87510911,-1.4947602)" gradientUnits="userSpaceOnUse" xlink:href="#radial0"/><radialGradient id="radial0" cx="148.004" cy="160" r="128" gradientTransform="matrix(0.1831,0,0,0.1831,-3.10029,-5.29688)" gradientUnits="userSpaceOnUse"><stop id="stop7-3-7" offset="0" stop-color="#c77b9c" stop-opacity="1"/><stop id="stop9-4" offset="1" stop-color="#74314e" stop-opacity="1"/></radialGradient><radialGradient id="radialGradient3016" cx="148.004" cy="160" r="128" gradientTransform="matrix(0.05167489,0,0,0.05167489,-0.87510911,-1.4947605)" gradientUnits="userSpaceOnUse" xlink:href="#radial0"/></defs><path id="path11" fill="url(#radialGradient3016)" d="m 13.387779,3.2589216 0,7.0290974 c 0,2.892777 0,3.100034 -3.100035,3.100034 l -7.0279944,0 c -3.10113771,0 -3.10113771,-0.207257 -3.10113771,-3.100034 l 0,-7.0290974 c 0,-2.89277789 0,-3.10003476 3.10113771,-3.10003476 l 7.0279944,0 c 3.100035,0 3.100035,0.20725687 3.100035,3.10003476 z"/><path id="path15" fill="#fff" fill-opacity=".051" d="m 10.799272,13.388053 c 0.717682,-0.0033 1.235825,-0.02315 1.611753,-0.124574 l -1.193932,-2.04611 -1.2655901,2.170684 0.3362411,0 c 0.180799,0 0.350573,0 0.511528,0 z M 11.217093,11.217369 9.7707038,8.7368991 8.3232128,11.217369 z m 0,0 2.159662,0 c 0.0088,-0.274506 0.01102,-0.582084 0.01102,-0.930452 l 0,-0.3097839 -0.723194,-1.240234 z M 12.664585,8.7368991 11.217093,6.2564304 9.7707038,8.7368991 z m 0,0 0.723194,0 0,-1.2402343 z m -2.8938812,0 -1.447491,-2.4804687 -1.446389,2.4804687 z m -2.89388,0 -1.447491,2.4804699 2.89388,0 z m 0,0 -1.447491,-2.4804687 -1.446389,2.4804687 z m -2.89388,0 -1.4474921,2.4804699 2.8938811,0 z m 0,0 L 2.5354517,6.2564304 1.089064,8.7368991 z m -2.8938798,0 -0.93045211,1.5941159 c 0,0.329626 0.0033,0.623975 0.01102,0.886354 l 2.36581581,0 z m 0,0 -0.93045211,-1.5941145 0,1.5941145 z m 1.4463877,2.4804699 -1.2170828,2.086899 c 0.4508939,0.08268 1.0748698,0.08379 1.9402778,0.08379 l 0.5434979,0 z m 0,-4.9609386 -1.4463877,-2.4804689 -0.93045211,1.5941147 0,0.8863542 z m 0,0 2.8938811,0 -1.446389,-2.4804689 z M 3.9829438,3.7759615 2.5354517,1.2954928 1.089064,3.7759615 z m 0,0 2.89388,0 -1.447491,-2.4804687 z m 1.446389,-2.4804687 -0.663663,-1.13660596 -1.5070231,0 c -0.020949,0 -0.03858,0 -0.05953,0 L 2.5354527,1.2954928 z m 0,0 2.89388,0 -0.6636631,-1.13660596 -1.5665538,0 z m 2.89388,0 2.8938802,0 -0.663663,-1.13660596 c -0.0882,0 -0.171979,0 -0.266788,0 l -1.2997662,0 z m 0,0 -1.446389,2.4804687 2.89388,0 z m 1.447491,2.4804687 2.8938812,0 -1.447492,-2.4804687 z m 0,0 -1.447491,2.4804689 2.8938802,0 z m 1.4463892,2.4804689 2.170686,0 0,-1.2402343 -0.723194,-1.2402346 z m 1.447492,-2.4804689 0.723194,0 0,-0.5170399 c 0,-0.2579689 -0.0022,-0.4938889 -0.0066,-0.71217 z M 8.3232128,6.2564304 6.8768238,3.7759615 5.4293328,6.2564304 z m 2.8938802,-4.9609376 2.062648,0 C 13.123196,0.51717661 12.747267,0.27133481 11.85981,0.19416464 z m -8.6816413,0 L 1.8850188,0.17983304 C 0.85204099,0.23826204 0.43421989,0.46095261 0.26664989,1.2954928 z M 1.089064,3.7759615 0.17514889,2.2083053 c -0.01213,0.3031685 -0.01654,0.6515364 -0.01654,1.0506163 l 0,0.5170399 z m 4.3402688,7.4414075 -1.2655912,2.170684 2.5322833,0 z m 2.89388,0 -1.2655901,2.170684 2.532283,0 z m -7.59133691,1.868619 -0.451996,-0.775009 c 0.08268,0.371519 0.221588,0.615157 0.451996,0.775009 z"/><path id="path30" fill="#f9f9f9" fill-opacity="1" d="m 3.2543772,3.6688895 c -0.08263,0.0088 -0.1503744,0.084436 -0.1499305,0.1675694 l 0,3.0515279 c 9e-6,0.08873 0.078905,0.1675553 0.1675694,0.1675694 l 1.5257641,0 0,0.5644445 -1.1288891,0 0,0.5644444 2.0549308,0 0,-1.6933333 -1.9314585,0 C 3.7332533,6.4910976 3.6777165,6.4356138 3.6777106,6.376459 l 0,-2.0284723 c -9.313e-4,-0.05272 0.036444,-0.1048238 0.088194,-0.1146528 0.007,-0.00141 0.019417,-0.00141 0.026458,0 l 3.1397224,0 c 0.05911,1.41e-5 0.1146477,0.055498 0.1146528,0.1146528 l 0,0.8113889 0.5732639,0 0,-1.3229167 c -8.8e-6,-0.08871 -0.078906,-0.1675415 -0.1675693,-0.1675694 l -4.1804168,0 z" color="#000"/><path id="path32" fill="#f9f9f9" fill-opacity="1" d="m 6.0783661,5.3622231 c -0.08263,0.0088 -0.152139,0.08633 -0.151695,0.1694629 l 0,3.0503499 c 9e-6,0.08873 0.08067,0.169449 0.1693341,0.1694628 l 1.5239989,0 -1.1e-6,0.8438404 1.1288892,0 0,-0.8438404 1.5239998,0 c 0.08866,-1.38e-5 0.169323,-0.08074 0.169332,-0.1694628 l 0,-3.0503499 c -9e-6,-0.08871 -0.08067,-0.1694349 -0.169332,-0.1694629 l -4.1768868,0 z M 6.590064,5.9270997 c 0.007,-0.00141 0.014131,-0.00141 0.02117,0 l 3.146056,0 c 0.05911,1.41e-5 0.1128829,0.05382 0.112888,0.1129749 l 0,2.0333872 c -5.1e-6,0.05916 -0.05378,0.1129609 -0.112888,0.112975 l -3.146056,0 c -0.05911,-1.41e-5 -0.1128829,-0.05382 -0.1128889,-0.112975 l 0,-2.0333872 c -9.313e-4,-0.05272 0.03997,-0.103146 0.09172,-0.1129749 z m -0.09895,3.3858024 0,0.564876 3.386667,0 0,-0.564876 z" color="#000"/></svg>