<svg xmlns="http://www.w3.org/2000/svg" xmlns:svg="http://www.w3.org/2000/svg" xmlns:xlink="http://www.w3.org/1999/xlink" id="svg2" width="48" height="48" version="1.1" viewBox="0 0 13.547 13.547"><metadata id="metadata296"/><defs id="defs4"><clipPath id="clipPath6"><rect id="rect8" width="60" height="60" x="306" y="142" fill="url(#A)" color="#bebebe" rx="12.5" transform="matrix(0 -1 1 0 0 0)"/></clipPath><clipPath id="clipPath10"><path id="path12" d="m 328,238 c -7.73199,0 -14,6.26801 -14,14 0,7.73199 6.26801,14 14,14 7.73199,0 14,-6.26801 14,-14 0,-7.73199 -6.26801,-14 -14,-14 z m 0,8.75 c 2.89949,0 5.25,2.35051 5.25,5.25 0,2.89949 -2.35051,5.25 -5.25,5.25 -2.89949,0 -5.25,-2.35051 -5.25,-5.25 0,-2.89949 2.35051,-5.25 5.25,-5.25 z m 0,1.75 c -1.933,0 -3.5,1.567 -3.5,3.5 0,1.933 1.567,3.5 3.5,3.5 1.933,0 3.5,-1.567 3.5,-3.5 0,-1.933 -1.567,-3.5 -3.5,-3.5 z m 0,1.75 c 0.96649,0 1.75,0.78351 1.75,1.75 0,0.96649 -0.78351,1.75 -1.75,1.75 -0.96649,0 -1.75,-0.78351 -1.75,-1.75 0,-0.96649 0.78351,-1.75 1.75,-1.75 z"/></clipPath><clipPath id="clipPath14"><path id="path16" d="m 328,238 c -7.73199,0 -14,6.26801 -14,14 0,7.73199 6.26801,14 14,14 7.73199,0 14,-6.26801 14,-14 0,-7.73199 -6.26801,-14 -14,-14 z m 0,9.90625 c 2.20914,0 4,1.79086 4,4 0,2.20914 -1.79086,4 -4,4 -2.20914,0 -4,-1.79086 -4,-4 0,-2.20914 1.79086,-4 4,-4 z m 0,1 c -1.65685,0 -3,1.34315 -3,3 0,1.65685 1.34315,3 3,3 1.65685,0 3,-1.34315 3,-3 0,-1.65685 -1.34315,-3 -3,-3 z m 0,1 c 1.10457,0 2,0.89543 2,2 0,1.10457 -0.89543,2 -2,2 -1.10457,0 -2,-0.89543 -2,-2 0,-1.10457 0.89543,-2 2,-2 z"/></clipPath><clipPath id="clipPath18"><rect id="rect20" width="90" height="90" x="307" y="31" fill="url(#B)" color="#bebebe" rx="18.75"/></clipPath><clipPath id="clipPath22"><path id="path24" d="m 328,256 15,11 0,-27 -15,0 z"/></clipPath><clipPath id="clipPath26"><rect id="rect28" width="42" height="42" x="307" y="223" fill="url(#C)" color="#bebebe" rx="9" transform="rotate(90)"/></clipPath><clipPath id="clipPath30"><rect id="rect32" width="42" height="42" x="307" y="223" fill="url(#0)" color="#bebebe" rx="9" transform="rotate(90)"/></clipPath><clipPath id="clipPath34"><rect id="rect36" width="30" height="30" x="433" y="29" fill="#6d6d6d" color="#bebebe" opacity=".2" rx="4"/></clipPath><clipPath id="clipPath38"><rect id="rect40" width="60" height="60" x="306" y="142" fill="url(#1)" color="#bebebe" rx="12.5" transform="matrix(0 -1 1 0 0 0)"/></clipPath><clipPath id="clipPath42"><rect id="rect44" width="22" height="22" x="433" y="77" color="#bebebe" rx="5"/></clipPath><clipPath id="clipPath46"><rect id="rect48" width="16" height="16" x="432" y="116" color="#bebebe" rx="3"/></clipPath><clipPath id="clipPath50"><path id="path52" d="m 328,242.09376 c -7.73199,0 -14,6.26801 -14,14 0,7.73199 6.26801,14 14,14 7.73199,0 14,-6.26801 14,-14 0,-7.73199 -6.26801,-14 -14,-14 z m 0,9.90625 c 2.20914,0 4,1.79086 4,4 0,2.20914 -1.79086,4 -4,4 -2.20914,0 -4,-1.79086 -4,-4 0,-2.20914 1.79086,-4 4,-4 z m 0,1 c -1.65685,0 -3,1.34315 -3,3 0,1.65685 1.34315,3 3,3 1.65685,0 3,-1.34315 3,-3 0,-1.65685 -1.34315,-3 -3,-3 z m 0,1 c 1.10457,0 2,0.89543 2,2 0,1.10457 -0.89543,2 -2,2 -1.10457,0 -2,-0.89543 -2,-2 0,-1.10457 0.89543,-2 2,-2 z"/></clipPath><clipPath id="clipPath54"><rect id="rect56" width="22" height="22" x="433" y="77" fill="#6d6d6d" color="#bebebe" opacity=".2" rx="3"/></clipPath><clipPath id="clipPath58"><rect id="rect60" width="16" height="16" x="432" y="116" fill="#6d6d6d" color="#bebebe" opacity=".2" rx="2"/></clipPath><clipPath id="clipPath62"><rect id="rect64" width="240" height="240" x="24" y="36" fill="#986767" color="#bebebe" rx="50"/></clipPath><clipPath id="clipPath66"><rect id="rect68" width="22" height="22" x="433" y="77" color="#bebebe" rx="4"/></clipPath><clipPath id="clipPath70"><rect id="rect72" width="30" height="30" x="433" y="29" fill="#6d6d6d" color="#bebebe" opacity=".2" rx="4"/></clipPath><clipPath id="clipPath74"><rect id="rect76" width="16" height="16" x="432" y="116" fill="#6d6d6d" color="#bebebe" opacity=".2" rx="2"/></clipPath><clipPath id="clipPath78"><path id="path80" d="m 444,88 c -4.41828,0 -8,3.58172 -8,8 0,4.41828 3.58172,8 8,8 4.41828,0 8,-3.58172 8,-8 0,-4.41828 -3.58172,-8 -8,-8 z m 0,5 c 1.65685,0 3,1.34315 3,3 0,1.65685 -1.34315,3 -3,3 -1.65685,0 -3,-1.34315 -3,-3 0,-1.65685 1.34315,-3 3,-3 z m 0,1 c -1.10457,0 -2,0.89543 -2,2 0,1.10457 0.89543,2 2,2 1.10457,0 2,-0.89543 2,-2 0,-1.10457 -0.89543,-2 -2,-2 z m 0,1 c 0.55228,0 1,0.44772 1,1 0,0.55228 -0.44772,1 -1,1 -0.55228,0 -1,-0.44772 -1,-1 0,-0.55228 0.44772,-1 1,-1 z"/></clipPath><clipPath id="clipPath82"><rect id="rect84" width="22" height="22" x="433" y="77" color="#bebebe" rx="5"/></clipPath><clipPath id="clipPath86"><rect id="rect88" width="30" height="30" x="433" y="29" color="#bebebe" rx="6"/></clipPath><clipPath id="clipPath90"><path id="path92" d="m 328,242.09375 c -7.73199,0 -14,6.26801 -14,14 0,7.73199 6.26801,14 14,14 7.73199,0 14,-6.26801 14,-14 0,-7.73199 -6.26801,-14 -14,-14 z M 328,252 c 2.20914,0 4,1.79086 4,4 0,2.20914 -1.79086,4 -4,4 -2.20914,0 -4,-1.79086 -4,-4 0,-2.20914 1.79086,-4 4,-4 z m 0,1 c -1.65685,0 -3,1.34315 -3,3 0,1.65685 1.34315,3 3,3 1.65685,0 3,-1.34315 3,-3 0,-1.65685 -1.34315,-3 -3,-3 z m 0,1 c 1.10457,0 2,0.89543 2,2 0,1.10457 -0.89543,2 -2,2 -1.10457,0 -2,-0.89543 -2,-2 0,-1.10457 0.89543,-2 2,-2 z"/></clipPath><clipPath id="clipPath94"><rect id="rect96" width="240" height="240" x="24" y="36" fill="#986767" color="#bebebe" rx="50"/></clipPath><clipPath id="clipPath98"><rect id="rect100" width="30" height="30" x="433" y="29" color="#bebebe" rx="6"/></clipPath><clipPath id="clipPath102"><rect id="rect104" width="22" height="22" x="433" y="77" color="#bebebe" rx="4"/></clipPath><clipPath id="clipPath106"><path id="path108" d="m 451.38843,127.3713 c -3.31371,0 -6,2.68629 -6,6 0,3.31371 2.68629,6 6,6 3.31371,0 6,-2.68629 6,-6 0,-3.31371 -2.68629,-6 -6,-6 z m 0,3 c 1.65685,0 3,1.34315 3,3 0,1.65685 -1.34315,3 -3,3 -1.65685,0 -3,-1.34315 -3,-3 0,-1.65685 1.34315,-3 3,-3 z m 0,1 c -1.10457,0 -2,0.89543 -2,2 0,1.10457 0.89543,2 2,2 1.10457,0 2,-0.89543 2,-2 0,-1.10457 -0.89543,-2 -2,-2 z m 0,1 c 0.55228,0 1,0.44772 1,1 0,0.55228 -0.44772,1 -1,1 -0.55228,0 -1,-0.44772 -1,-1 0,-0.55228 0.44772,-1 1,-1 z"/></clipPath><clipPath id="clipPath110"><path id="path112" d="m 144.00001,75.999997 c -44.1828,0 -80,35.817203 -80,80.000003 0,44.1828 35.8172,80 80,80 44.1828,0 80,-35.8172 80,-80 0,-44.1828 -35.8172,-80.000003 -80,-80.000003 z m 0,56.607143 c 12.62366,0 22.85714,10.23349 22.85714,22.85714 0,12.62366 -10.23348,22.85714 -22.85714,22.85714 -12.62366,0 -22.85714,-10.23348 -22.85714,-22.85714 0,-12.62365 10.23348,-22.85714 22.85714,-22.85714 z m 0,5.71429 c -9.46771,0 -17.14286,7.67514 -17.14286,17.14285 0,9.46772 7.67515,17.14286 17.14286,17.14286 9.46771,0 17.14286,-7.67514 17.14286,-17.14286 0,-9.46771 -7.67515,-17.14285 -17.14286,-17.14285 z m 0,5.71428 c 6.31183,0 11.42857,5.11674 11.42857,11.42857 0,6.31183 -5.11674,11.42857 -11.42857,11.42857 -6.31183,0 -11.42857,-5.11674 -11.42857,-11.42857 0,-6.31183 5.11674,-11.42857 11.42857,-11.42857 z"/></clipPath><clipPath id="clipPath114"><rect id="rect116" width="20" height="20" x="434" y="78" color="#bebebe" rx="4"/></clipPath><clipPath id="clipPath118"><rect id="rect120" width="16" height="16" x="432" y="116" color="#bebebe" rx="3"/></clipPath><clipPath id="clipPath122"><path id="path124" d="m 451.38843,133.3713 6.42857,4.71429 0,-11.57143 -6.42857,0 z"/></clipPath><clipPath id="clipPath126"><rect id="rect128" width="20" height="20" x="434" y="78" color="#bebebe" rx="4"/></clipPath><clipPath id="clipPath130"><path id="path132" d="m 440,126 c -3.31371,0 -6,2.68629 -6,6 0,3.31371 2.68629,6 6,6 3.31371,0 6,-2.68629 6,-6 0,-3.31371 -2.68629,-6 -6,-6 z m 0,3 c 1.65685,0 3,1.34315 3,3 0,1.65685 -1.34315,3 -3,3 -1.65685,0 -3,-1.34315 -3,-3 0,-1.65685 1.34315,-3 3,-3 z m 0,1 c -1.10457,0 -2,0.89543 -2,2 0,1.10457 0.89543,2 2,2 1.10457,0 2,-0.89543 2,-2 0,-1.10457 -0.89543,-2 -2,-2 z m 0,1 c 0.55228,0 1,0.44772 1,1 0,0.55228 -0.44772,1 -1,1 -0.55228,0 -1,-0.44772 -1,-1 0,-0.55228 0.44772,-1 1,-1 z"/></clipPath><clipPath id="clipPath134"><rect id="rect136" width="16" height="16" x="432" y="116" fill="#6d6d6d" color="#bebebe" opacity=".2" rx="2"/></clipPath><clipPath id="clipPath138"><rect id="rect140" width="90" height="90" x="307" y="31" fill="url(#7)" color="#bebebe" rx="18.75"/></clipPath><clipPath id="clipPath142"><rect id="rect144" width="22" height="22" x="433" y="77" fill="#6d6d6d" color="#bebebe" opacity=".2" rx="3"/></clipPath><clipPath id="clipPath146"><rect id="rect148" width="20" height="20" x="434" y="78" color="#bebebe" rx="4"/></clipPath><clipPath id="clipPath150"><rect id="rect152" width="240" height="240" x="24" y="36" fill="#986767" color="#bebebe" rx="50"/></clipPath><clipPath id="clipPath154"><rect id="rect156" width="90" height="90" x="307" y="31" fill="url(#3)" color="#bebebe" rx="18.75"/></clipPath><clipPath id="clipPath158"><rect id="rect160" width="22" height="22" x="433" y="77" color="#bebebe" rx="4"/></clipPath><clipPath id="clipPath162"><rect id="rect164" width="30" height="30" x="433" y="29" color="#bebebe" rx="6"/></clipPath><clipPath id="clipPath166"><rect id="rect168" width="22" height="22" x="433" y="77" color="#bebebe" rx="5"/></clipPath><clipPath id="clipPath170"><rect id="rect172" width="16" height="16" x="432" y="116" color="#bebebe" rx="3"/></clipPath><clipPath id="clipPath174"><rect id="rect176" width="22" height="22" x="433" y="77" fill="#6d6d6d" color="#bebebe" opacity=".2" rx="3"/></clipPath><clipPath id="clipPath178"><rect id="rect180" width="30" height="30" x="433" y="29" fill="#6d6d6d" color="#bebebe" opacity=".2" rx="4"/></clipPath><clipPath id="clipPath182"><rect id="rect184" width="60" height="60" x="306" y="142" fill="url(#9)" color="#bebebe" rx="12.5" transform="matrix(0 -1 1 0 0 0)"/></clipPath><clipPath id="clipPath186"><rect id="rect188" width="42" height="42" x="307" y="223" fill="url(#8)" color="#bebebe" rx="9" transform="rotate(90)"/></clipPath><linearGradient id="0" x2="0" y1="280" y2="40" gradientTransform="matrix(.175 0 0 .175 302.79999 215.99997)" gradientUnits="userSpaceOnUse" xlink:href="#2"/><linearGradient id="1" x2="0" y1="230" y2="90" gradientTransform="matrix(.25 0 0 .25 299.99999 131.99999)" gradientUnits="userSpaceOnUse" xlink:href="#2"/><linearGradient id="2"><stop id="stop193" stop-color="#f0f0f0"/><stop id="stop195" offset="1" stop-color="#f8f8f8"/></linearGradient><linearGradient id="linearGradient197" x2="0" y1="140" y2="124" gradientTransform="translate(11.38843 1.3713)" gradientUnits="userSpaceOnUse" xlink:href="#5"/><linearGradient id="linearGradient199" x2="0" y1="273" y2="231" gradientTransform="translate(0 4.09376)" gradientUnits="userSpaceOnUse" xlink:href="#5"/><linearGradient id="linearGradient201" x2="0" y1="273" y2="231" gradientTransform="matrix(5.71429 0 0 5.71429 -1730.2857 -1284)" gradientUnits="userSpaceOnUse" xlink:href="#5"/><linearGradient id="linearGradient203" x2="0" y1="273" y2="231" gradientTransform="matrix(5.71429 0 0 5.71429 -1730.2857 -1284)" gradientUnits="userSpaceOnUse" xlink:href="#5"/><linearGradient id="3" x2="0" y1="230" y2="90" gradientTransform="matrix(.375 0 0 .375 298 16)" gradientUnits="userSpaceOnUse" xlink:href="#2"/><linearGradient id="4"><stop id="stop207" stop-color="#eaba31"/><stop id="stop209" offset="1" stop-color="#ff9200"/></linearGradient><linearGradient id="5"><stop id="stop212" stop-color="#818181"/><stop id="stop214" offset="1" stop-color="#c5c5c5"/></linearGradient><linearGradient id="6"><stop id="stop217" stop-color="#333"/><stop id="stop219" offset="1" stop-color="#555"/></linearGradient><linearGradient id="linearGradient221" x2="0" y1="140" y2="124" gradientUnits="userSpaceOnUse" xlink:href="#5"/><linearGradient id="linearGradient223" x2="0" y1="107" y2="85" gradientUnits="userSpaceOnUse" xlink:href="#5"/><linearGradient id="linearGradient225" x2="0" y1="107" y2="85" gradientUnits="userSpaceOnUse" xlink:href="#5"/><linearGradient id="7" x2="0" y1="230" y2="90" gradientTransform="matrix(.375 0 0 .375 298 16)" gradientUnits="userSpaceOnUse" xlink:href="#2"/><linearGradient id="8" x2="0" y1="280" y2="40" gradientTransform="matrix(.175 0 0 .175 302.79999 215.99997)" gradientUnits="userSpaceOnUse" xlink:href="#2"/><linearGradient id="linearGradient229" x2="0" y1="140" y2="124" gradientUnits="userSpaceOnUse" xlink:href="#5"/><linearGradient id="linearGradient231" x2="0" y1="140" y2="124" gradientTransform="translate(11.38843 1.3713)" gradientUnits="userSpaceOnUse" xlink:href="#5"/><linearGradient id="linearGradient233" x2="0" y1="273" y2="231" gradientTransform="translate(0 4.09376)" gradientUnits="userSpaceOnUse" xlink:href="#5"/><linearGradient id="linearGradient235" x2="0" y1="140" y2="124" gradientUnits="userSpaceOnUse" xlink:href="#5"/><linearGradient id="linearGradient237" x2="0" y1="140" y2="124" gradientTransform="translate(11.38843 1.3713)" gradientUnits="userSpaceOnUse" xlink:href="#5"/><linearGradient id="linearGradient239" x2="0" y1="273" y2="231" gradientTransform="translate(0 4.09376)" gradientUnits="userSpaceOnUse" xlink:href="#5"/><linearGradient id="linearGradient241" x2="0" y1="273" y2="231" gradientTransform="matrix(5.71429 0 0 5.71429 -1730.2857 -1284)" gradientUnits="userSpaceOnUse" xlink:href="#5"/><linearGradient id="9" x2="0" y1="230" y2="90" gradientTransform="matrix(.25 0 0 .25 299.99999 131.99999)" gradientUnits="userSpaceOnUse" xlink:href="#2"/><linearGradient id="A" x2="0" y1="230" y2="90" gradientTransform="matrix(.25 0 0 .25 299.99999 131.99999)" gradientUnits="userSpaceOnUse" xlink:href="#2"/><linearGradient id="B" x2="0" y1="230" y2="90" gradientTransform="matrix(.375 0 0 .375 298 16)" gradientUnits="userSpaceOnUse" xlink:href="#2"/><linearGradient id="C" x2="0" y1="280" y2="40" gradientTransform="matrix(.175 0 0 .175 302.79999 215.99997)" gradientUnits="userSpaceOnUse" xlink:href="#2"/><linearGradient id="linearGradient247" x2="0" y1="107" y2="85" gradientUnits="userSpaceOnUse" xlink:href="#5"/><radialGradient id="radialGradient249" cx="328" cy="255.42" r="7" gradientTransform="matrix(2.85714 0 0 2.85714 -609.14349 -473.66662)" gradientUnits="userSpaceOnUse" xlink:href="#4"/><radialGradient id="radialGradient251" cx="328" cy="255.42" r="7" gradientTransform="matrix(1.22449 0 0 1.22449 49.7555 -179.34296)" gradientUnits="userSpaceOnUse" xlink:href="#4"/><radialGradient id="radialGradient253" cx="328" cy="255.42" r="7" gradientTransform="matrix(2.85714 0 0 2.85714 -609.14349 -473.66662)" gradientUnits="userSpaceOnUse" xlink:href="#4"/><radialGradient id="radialGradient255" cx="328" cy="255.42" r="7" gradientTransform="matrix(2.85714 0 0 2.85714 -609.14349 -473.66662)" gradientUnits="userSpaceOnUse" xlink:href="#4"/><radialGradient id="radialGradient257" cx="328" cy="255.42" r="7" gradientTransform="matrix(1.22449 0 0 1.22449 49.7555 -179.34296)" gradientUnits="userSpaceOnUse" xlink:href="#4"/><radialGradient id="radialGradient259" cx="328" cy="255.42" r="7" gradientTransform="matrix(1.22449 0 0 1.22449 49.7555 -179.34296)" gradientUnits="userSpaceOnUse" xlink:href="#4"/><linearGradient id="D" x2="0" y1="1050.36" y2="1006.36" gradientTransform="matrix(0.28222223,0,0,0.28222223,0,-283.45334)" gradientUnits="userSpaceOnUse" xlink:href="#6"/><radialGradient id="radialGradient3010" cx="148.004" cy="160" r="128" gradientTransform="matrix(0.05167489,0,0,0.05167489,-0.87510911,-1.4947611)" gradientUnits="userSpaceOnUse" xlink:href="#radial0"/><radialGradient id="radial0" cx="148.004" cy="160" r="128" gradientTransform="matrix(0.1831,0,0,0.1831,-3.10029,-5.29688)" gradientUnits="userSpaceOnUse"><stop id="stop7-5" offset="0" stop-color="#f4a4de"/><stop id="stop9-3" offset="1" stop-color="#a50f7d"/></radialGradient><radialGradient id="radialGradient3012" cx="148.004" cy="160" r="128" gradientTransform="matrix(0.05167489,0,0,0.05167489,-0.87510911,-1.494761)" gradientUnits="userSpaceOnUse" xlink:href="#radial0"/></defs><path id="path11" fill="url(#radialGradient3012)" d="m 13.387778,3.2589211 0,7.0290969 c 0,2.892778 0,3.100035 -3.100035,3.100035 l -7.027994,0 c -3.10113711,0 -3.10113711,-0.207257 -3.10113711,-3.100035 l 0,-7.0290969 c 0,-2.8927779 0,-3.1000348 3.10113711,-3.1000348 l 7.027994,0 c 3.100035,0 3.100035,0.2072569 3.100035,3.1000348 z"/><path id="path13" fill="#fff" fill-opacity=".051" d="m 10.799271,13.388053 c 0.717682,-0.0033 1.235825,-0.02315 1.611753,-0.124575 l -1.193932,-2.046111 -1.265588,2.170686 0.336239,0 c 0.180799,0 0.350573,0 0.511528,0 z M 11.217092,11.217367 9.770704,8.7368986 8.323213,11.217367 z m 0,0 2.159662,0 c 0.0088,-0.274505 0.01102,-0.582083 0.01102,-0.930451 l 0,-0.3097831 L 12.66458,8.7368986 z M 12.664584,8.7368986 11.217092,6.2564299 9.770704,8.7368986 z m 0,0 0.723194,0 0,-1.2402343 z m -2.89388,0 L 8.323213,6.2564299 6.876824,8.7368986 z m -2.89388,0 -1.447491,2.4804684 2.89388,0 z m 0,0 L 5.429333,6.2564299 3.982944,8.7368986 z m -2.89388,0 -1.447491,2.4804684 2.89388,0 z m 0,0 L 2.535453,6.2564299 1.0890639,8.7368986 z m -2.8938801,0 -0.93045201,1.5941144 c 0,0.329627 0.0033,0.623976 0.01102,0.886354 l 2.36581711,0 z m 0,0 -0.93045201,-1.5941145 0,1.5941145 z M 2.535453,11.217367 1.3183689,13.304268 c 0.4508941,0.08268 1.0748701,0.08379 1.9413801,0.08379 l 0.542396,0 z m 0,-4.9609371 -1.4463891,-2.4804689 -0.93045201,1.5941147 0,0.8863542 z m 0,0 2.89388,0 L 3.982944,3.775961 z M 3.982944,3.775961 2.535453,1.2954923 1.0890639,3.775961 z m 0,0 2.89388,0 L 5.429333,1.2954923 z M 5.429333,1.2954923 4.76567,0.1588863 l -1.507023,0 c -0.02095,0 -0.03858,0 -0.05953,0 l -0.663663,1.136606 z m 0,0 2.89388,0 -0.663664,-1.136606 -1.566552,0 z m 2.89388,0 2.893879,0 -0.663663,-1.136606 c -0.0882,0 -0.171979,0 -0.266788,0 l -1.299765,0 z m 0,0 -1.446389,2.4804687 2.89388,0 z m 1.447491,2.4804687 2.89388,0 -1.447492,-2.4804687 z m 0,0 -1.447491,2.4804689 2.893879,0 z m 1.446388,2.4804689 2.170686,0 0,-1.2402343 -0.723194,-1.2402346 z m 1.447492,-2.4804689 0.723194,0 0,-0.5170399 c 0,-0.2579689 -0.0022,-0.4938889 -0.0066,-0.71217 z M 8.323213,6.2564299 6.876824,3.775961 5.429333,6.2564299 z m 2.893879,-4.9609376 2.062648,0 C 13.123195,0.51717611 12.747266,0.2713343 11.859809,0.194164 z m -8.681639,0 L 1.885019,0.1798325 C 0.85204089,0.2382615 0.43421989,0.46095211 0.26664989,1.2954923 z M 1.0890639,3.775961 0.17514889,2.2083048 c -0.01213,0.3031685 -0.01654,0.6515363 -0.01654,1.0506163 l 0,0.5170399 z m 4.3402691,7.441406 -1.26559,2.170686 2.532283,0 z m 2.89388,0 -1.265591,2.170686 2.532283,0 z m -7.59133711,1.86862 -0.451996,-0.775009 c 0.08268,0.371519 0.221588,0.615157 0.451996,0.775009 z"/><path id="path280" fill="#dedede" d="M 21.125 14.15625 C 17.015078 14.54444 14 15.714036 14 17.125 L 14 19.625 C 14 20.739226 15.878368 21.696709 18.6875 22.25 C 18.649598 19.380664 19.60724 16.567838 21.125 14.15625 z M 26.8125 14.15625 C 28.342698 16.578242 29.318055 19.399719 29.28125 22.28125 C 32.109507 21.729184 34 20.743761 34 19.625 L 34 17.125 C 34 15.707031 30.953915 14.538325 26.8125 14.15625 z M 23.625 17.125 C 23.046455 17.218159 22.504499 17.523574 22.15625 18 C 21.494 18.85615 21.575691 20.204135 22.34375 20.96875 C 23.156904 21.868527 24.68073 21.894788 25.53125 21.03125 C 26.187796 20.428883 26.438375 19.424795 26.125 18.59375 C 25.837851 17.792574 25.06426 17.199727 24.21875 17.125 C 24.02355 17.102437 23.817848 17.093947 23.625 17.125 z M 14.4375 21.8125 C 14.140064 22.108451 14 22.423426 14 22.75 L 14 25.25 C 14 25.952772 14.778077 26.602972 16.03125 27.125 C 15.900916 26.076578 16.297344 24.977118 17.09375 24.28125 C 17.443686 23.986095 17.801033 23.694946 18.15625 23.40625 C 16.418718 23.016066 15.093461 22.465183 14.4375 21.8125 z M 33.53125 21.8125 C 32.878935 22.461576 31.543833 23.016354 29.8125 23.40625 C 30.197662 23.721978 30.593499 24.047785 30.96875 24.375 C 31.715131 25.063919 32.078048 26.117874 31.96875 27.125 C 33.221943 26.602972 34 25.952772 34 25.25 L 34 22.75 C 34 22.423424 33.828685 22.108452 33.53125 21.8125 z M 14.4375 27.4375 C 14.140064 27.733413 14 28.048426 14 28.375 L 14 30.875 C 14 32.271922 16.953 33.443645 21 33.84375 C 20.999553 34.239275 20.99701 34.632166 21 35 C 20.995682 35.400668 21.470807 35.534658 21.78125 35.28125 C 22.01824 35.071415 22.243754 34.847522 22.46875 34.625 C 22.836975 35.330626 23.165051 36.043628 23.53125 36.75 C 23.709499 37.082539 24.262609 37.085906 24.4375 36.75 C 24.801674 36.045017 25.138812 35.331643 25.5 34.625 C 25.728301 34.845541 25.95019 35.071093 26.1875 35.28125 C 26.499276 35.533428 27.006343 35.278223 27 34.875 C 27.001806 34.529822 26.999661 34.189028 27 33.84375 C 31.046956 33.443645 34 32.271922 34 30.875 L 34 28.375 C 34 28.048424 33.828685 27.733413 33.53125 27.4375 C 33.147829 27.819006 32.510728 28.165849 31.71875 28.46875 C 31.527273 29.445336 31.329933 30.401757 31.125 31.375 C 30.96706 32.06917 30.049832 32.412242 29.5 31.96875 C 28.587381 31.20376 27.693603 30.390953 26.78125 29.625 C 26.090962 30.292084 25.181475 30.758917 24.21875 30.8125 C 23.110505 30.890974 21.990953 30.410266 21.1875 29.65625 C 20.532926 30.159481 19.952042 30.773512 19.3125 31.3125 C 19.00339 31.561947 18.740826 31.892169 18.375 32.0625 C 17.807844 32.306862 17.065696 31.924716 16.9375 31.3125 C 16.728891 30.370305 16.52177 29.44225 16.3125 28.5 C 15.493355 28.191539 14.831297 27.829317 14.4375 27.4375 z" transform="scale(0.28222223,0.28222223)"/></svg>