<svg xmlns="http://www.w3.org/2000/svg" xmlns:svg="http://www.w3.org/2000/svg" xmlns:xlink="http://www.w3.org/1999/xlink" id="svg2" width="48" height="48" version="1.1" viewBox="0 0 13.547 13.547"><metadata id="metadata304"/><defs id="defs4"><radialGradient id="radialGradient6" cx="328" cy="255.42" r="7" gradientTransform="matrix(1.22449 0 0 1.22449 49.7555 -179.34296)" gradientUnits="userSpaceOnUse" xlink:href="#6"/><radialGradient id="radialGradient8" cx="328" cy="255.42" r="7" gradientTransform="matrix(2.85714 0 0 2.85714 -609.14349 -473.66662)" gradientUnits="userSpaceOnUse" xlink:href="#6"/><radialGradient id="radialGradient10" cx="328" cy="255.42" r="7" gradientTransform="matrix(1.22449 0 0 1.22449 49.7555 -179.34296)" gradientUnits="userSpaceOnUse" xlink:href="#6"/><radialGradient id="radialGradient12" cx="328" cy="255.42" r="7" gradientTransform="matrix(2.85714 0 0 2.85714 -609.14349 -473.66662)" gradientUnits="userSpaceOnUse" xlink:href="#6"/><radialGradient id="radialGradient14" cx="328" cy="255.42" r="7" gradientTransform="matrix(2.85714 0 0 2.85714 -609.14349 -473.66662)" gradientUnits="userSpaceOnUse" xlink:href="#6"/><radialGradient id="radialGradient16" cx="328" cy="255.42" r="7" gradientTransform="matrix(1.22449 0 0 1.22449 49.7555 -179.34296)" gradientUnits="userSpaceOnUse" xlink:href="#6"/><linearGradient id="0" x2="0" y1="230" y2="90" gradientTransform="matrix(.25 0 0 .25 299.99999 131.99999)" gradientUnits="userSpaceOnUse" xlink:href="#3"/><linearGradient id="1" x2="0" y1="230" y2="90" gradientTransform="matrix(.25 0 0 .25 299.99999 131.99999)" gradientUnits="userSpaceOnUse" xlink:href="#3"/><linearGradient id="2" x2="0" y1="280" y2="40" gradientTransform="matrix(.175 0 0 .175 302.79999 215.99997)" gradientUnits="userSpaceOnUse" xlink:href="#3"/><linearGradient id="3"><stop id="stop22" stop-color="#f0f0f0"/><stop id="stop24" offset="1" stop-color="#f8f8f8"/></linearGradient><linearGradient id="4" x2="0" y1="230" y2="90" gradientTransform="matrix(.375 0 0 .375 298 16)" gradientUnits="userSpaceOnUse" xlink:href="#3"/><linearGradient id="linearGradient27" x2="0" y1="140" y2="124" gradientUnits="userSpaceOnUse" xlink:href="#5"/><linearGradient id="5"><stop id="stop30" stop-color="#818181"/><stop id="stop32" offset="1" stop-color="#c5c5c5"/></linearGradient><linearGradient id="linearGradient34" x2="0" y1="273" y2="231" gradientTransform="translate(0 4.09376)" gradientUnits="userSpaceOnUse" xlink:href="#5"/><linearGradient id="6"><stop id="stop37" stop-color="#eaba31"/><stop id="stop39" offset="1" stop-color="#ff9200"/></linearGradient><linearGradient id="linearGradient41" x2="0" y1="273" y2="231" gradientTransform="translate(0 4.09376)" gradientUnits="userSpaceOnUse" xlink:href="#5"/><linearGradient id="linearGradient43" x2="0" y1="140" y2="124" gradientTransform="translate(11.38843 1.3713)" gradientUnits="userSpaceOnUse" xlink:href="#5"/><linearGradient id="linearGradient45" x2="0" y1="107" y2="85" gradientUnits="userSpaceOnUse" xlink:href="#5"/><linearGradient id="7" x2="0" y1="280" y2="40" gradientTransform="matrix(.175 0 0 .175 302.79999 215.99997)" gradientUnits="userSpaceOnUse" xlink:href="#3"/><linearGradient id="linearGradient48" x2="0" y1="273" y2="231" gradientTransform="matrix(5.71429 0 0 5.71429 -1730.2857 -1284)" gradientUnits="userSpaceOnUse" xlink:href="#5"/><linearGradient id="linearGradient50" x2="0" y1="140" y2="124" gradientUnits="userSpaceOnUse" xlink:href="#5"/><linearGradient id="linearGradient52" x2="0" y1="273" y2="231" gradientTransform="matrix(5.71429 0 0 5.71429 -1730.2857 -1284)" gradientUnits="userSpaceOnUse" xlink:href="#5"/><linearGradient id="linearGradient54" x2="0" y1="107" y2="85" gradientUnits="userSpaceOnUse" xlink:href="#5"/><linearGradient id="8" x2="0" y1="230" y2="90" gradientTransform="matrix(.375 0 0 .375 298 16)" gradientUnits="userSpaceOnUse" xlink:href="#3"/><linearGradient id="linearGradient57" x2="0" y1="107" y2="85" gradientUnits="userSpaceOnUse" xlink:href="#5"/><linearGradient id="linearGradient59" x2="0" y1="140" y2="124" gradientTransform="translate(11.38843 1.3713)" gradientUnits="userSpaceOnUse" xlink:href="#5"/><linearGradient id="linearGradient61" x2="0" y1="140" y2="124" gradientUnits="userSpaceOnUse" xlink:href="#5"/><linearGradient id="9" x2="0" y1="230" y2="90" gradientTransform="matrix(.375 0 0 .375 298 16)" gradientUnits="userSpaceOnUse" xlink:href="#3"/><linearGradient id="A" x2="0" y1="280" y2="40" gradientTransform="matrix(.175 0 0 .175 302.79999 215.99997)" gradientUnits="userSpaceOnUse" xlink:href="#3"/><linearGradient id="linearGradient65" x2="0" y1="273" y2="231" gradientTransform="matrix(5.71429 0 0 5.71429 -1730.2857 -1284)" gradientUnits="userSpaceOnUse" xlink:href="#5"/><linearGradient id="linearGradient67" x2="0" y1="140" y2="124" gradientTransform="translate(11.38843 1.3713)" gradientUnits="userSpaceOnUse" xlink:href="#5"/><linearGradient id="B" x2="0" y1="230" y2="90" gradientTransform="matrix(.25 0 0 .25 299.99999 131.99999)" gradientUnits="userSpaceOnUse" xlink:href="#3"/><linearGradient id="linearGradient70" x2="0" y1="273" y2="231" gradientTransform="translate(0 4.09376)" gradientUnits="userSpaceOnUse" xlink:href="#5"/><clipPath id="clipPath72"><rect id="rect74" width="30" height="30" x="433" y="29" fill="#6d6d6d" color="#bebebe" opacity=".2" rx="4"/></clipPath><clipPath id="clipPath76"><path id="path78" d="m 440,126 c -3.31371,0 -6,2.68629 -6,6 0,3.31371 2.68629,6 6,6 3.31371,0 6,-2.68629 6,-6 0,-3.31371 -2.68629,-6 -6,-6 z m 0,3 c 1.65685,0 3,1.34315 3,3 0,1.65685 -1.34315,3 -3,3 -1.65685,0 -3,-1.34315 -3,-3 0,-1.65685 1.34315,-3 3,-3 z m 0,1 c -1.10457,0 -2,0.89543 -2,2 0,1.10457 0.89543,2 2,2 1.10457,0 2,-0.89543 2,-2 0,-1.10457 -0.89543,-2 -2,-2 z m 0,1 c 0.55228,0 1,0.44772 1,1 0,0.55228 -0.44772,1 -1,1 -0.55228,0 -1,-0.44772 -1,-1 0,-0.55228 0.44772,-1 1,-1 z"/></clipPath><clipPath id="clipPath80"><rect id="rect82" width="42" height="42" x="307" y="223" fill="url(#7)" color="#bebebe" rx="9" transform="rotate(90)"/></clipPath><clipPath id="clipPath84"><rect id="rect86" width="60" height="60" x="306" y="142" fill="url(#0)" color="#bebebe" rx="12.5" transform="matrix(0 -1 1 0 0 0)"/></clipPath><clipPath id="clipPath88"><rect id="rect90" width="22" height="22" x="433" y="77" fill="#6d6d6d" color="#bebebe" opacity=".2" rx="3"/></clipPath><clipPath id="clipPath92"><path id="path94" d="m 328,242.09376 c -7.73199,0 -14,6.26801 -14,14 0,7.73199 6.26801,14 14,14 7.73199,0 14,-6.26801 14,-14 0,-7.73199 -6.26801,-14 -14,-14 z m 0,9.90625 c 2.20914,0 4,1.79086 4,4 0,2.20914 -1.79086,4 -4,4 -2.20914,0 -4,-1.79086 -4,-4 0,-2.20914 1.79086,-4 4,-4 z m 0,1 c -1.65685,0 -3,1.34315 -3,3 0,1.65685 1.34315,3 3,3 1.65685,0 3,-1.34315 3,-3 0,-1.65685 -1.34315,-3 -3,-3 z m 0,1 c 1.10457,0 2,0.89543 2,2 0,1.10457 -0.89543,2 -2,2 -1.10457,0 -2,-0.89543 -2,-2 0,-1.10457 0.89543,-2 2,-2 z"/></clipPath><clipPath id="clipPath96"><rect id="rect98" width="30" height="30" x="433" y="29" color="#bebebe" rx="6"/></clipPath><clipPath id="clipPath100"><path id="path102" d="m 328,238 c -7.73199,0 -14,6.26801 -14,14 0,7.73199 6.26801,14 14,14 7.73199,0 14,-6.26801 14,-14 0,-7.73199 -6.26801,-14 -14,-14 z m 0,8.75 c 2.89949,0 5.25,2.35051 5.25,5.25 0,2.89949 -2.35051,5.25 -5.25,5.25 -2.89949,0 -5.25,-2.35051 -5.25,-5.25 0,-2.89949 2.35051,-5.25 5.25,-5.25 z m 0,1.75 c -1.933,0 -3.5,1.567 -3.5,3.5 0,1.933 1.567,3.5 3.5,3.5 1.933,0 3.5,-1.567 3.5,-3.5 0,-1.933 -1.567,-3.5 -3.5,-3.5 z m 0,1.75 c 0.96649,0 1.75,0.78351 1.75,1.75 0,0.96649 -0.78351,1.75 -1.75,1.75 -0.96649,0 -1.75,-0.78351 -1.75,-1.75 0,-0.96649 0.78351,-1.75 1.75,-1.75 z"/></clipPath><clipPath id="clipPath104"><path id="path106" d="m 451.38843,133.3713 6.42857,4.71429 0,-11.57143 -6.42857,0 z"/></clipPath><clipPath id="clipPath108"><rect id="rect110" width="90" height="90" x="307" y="31" fill="url(#8)" color="#bebebe" rx="18.75"/></clipPath><clipPath id="clipPath112"><rect id="rect114" width="20" height="20" x="434" y="78" color="#bebebe" rx="4"/></clipPath><clipPath id="clipPath116"><rect id="rect118" width="22" height="22" x="433" y="77" color="#bebebe" rx="4"/></clipPath><clipPath id="clipPath120"><path id="path122" d="m 328,242.09375 c -7.73199,0 -14,6.26801 -14,14 0,7.73199 6.26801,14 14,14 7.73199,0 14,-6.26801 14,-14 0,-7.73199 -6.26801,-14 -14,-14 z M 328,252 c 2.20914,0 4,1.79086 4,4 0,2.20914 -1.79086,4 -4,4 -2.20914,0 -4,-1.79086 -4,-4 0,-2.20914 1.79086,-4 4,-4 z m 0,1 c -1.65685,0 -3,1.34315 -3,3 0,1.65685 1.34315,3 3,3 1.65685,0 3,-1.34315 3,-3 0,-1.65685 -1.34315,-3 -3,-3 z m 0,1 c 1.10457,0 2,0.89543 2,2 0,1.10457 -0.89543,2 -2,2 -1.10457,0 -2,-0.89543 -2,-2 0,-1.10457 0.89543,-2 2,-2 z"/></clipPath><clipPath id="clipPath124"><rect id="rect126" width="22" height="22" x="433" y="77" color="#bebebe" rx="5"/></clipPath><clipPath id="clipPath128"><rect id="rect130" width="240" height="240" x="24" y="36" fill="#986767" color="#bebebe" rx="50"/></clipPath><clipPath id="clipPath132"><path id="path134" d="m 144.00001,75.999997 c -44.1828,0 -80,35.817203 -80,80.000003 0,44.1828 35.8172,80 80,80 44.1828,0 80,-35.8172 80,-80 0,-44.1828 -35.8172,-80.000003 -80,-80.000003 z m 0,56.607143 c 12.62366,0 22.85714,10.23349 22.85714,22.85714 0,12.62366 -10.23348,22.85714 -22.85714,22.85714 -12.62366,0 -22.85714,-10.23348 -22.85714,-22.85714 0,-12.62365 10.23348,-22.85714 22.85714,-22.85714 z m 0,5.71429 c -9.46771,0 -17.14286,7.67514 -17.14286,17.14285 0,9.46772 7.67515,17.14286 17.14286,17.14286 9.46771,0 17.14286,-7.67514 17.14286,-17.14286 0,-9.46771 -7.67515,-17.14285 -17.14286,-17.14285 z m 0,5.71428 c 6.31183,0 11.42857,5.11674 11.42857,11.42857 0,6.31183 -5.11674,11.42857 -11.42857,11.42857 -6.31183,0 -11.42857,-5.11674 -11.42857,-11.42857 0,-6.31183 5.11674,-11.42857 11.42857,-11.42857 z"/></clipPath><clipPath id="clipPath136"><path id="path138" d="m 451.38843,127.3713 c -3.31371,0 -6,2.68629 -6,6 0,3.31371 2.68629,6 6,6 3.31371,0 6,-2.68629 6,-6 0,-3.31371 -2.68629,-6 -6,-6 z m 0,3 c 1.65685,0 3,1.34315 3,3 0,1.65685 -1.34315,3 -3,3 -1.65685,0 -3,-1.34315 -3,-3 0,-1.65685 1.34315,-3 3,-3 z m 0,1 c -1.10457,0 -2,0.89543 -2,2 0,1.10457 0.89543,2 2,2 1.10457,0 2,-0.89543 2,-2 0,-1.10457 -0.89543,-2 -2,-2 z m 0,1 c 0.55228,0 1,0.44772 1,1 0,0.55228 -0.44772,1 -1,1 -0.55228,0 -1,-0.44772 -1,-1 0,-0.55228 0.44772,-1 1,-1 z"/></clipPath><clipPath id="clipPath140"><rect id="rect142" width="16" height="16" x="432" y="116" color="#bebebe" rx="3"/></clipPath><clipPath id="clipPath144"><path id="path146" d="m 444,88 c -4.41828,0 -8,3.58172 -8,8 0,4.41828 3.58172,8 8,8 4.41828,0 8,-3.58172 8,-8 0,-4.41828 -3.58172,-8 -8,-8 z m 0,5 c 1.65685,0 3,1.34315 3,3 0,1.65685 -1.34315,3 -3,3 -1.65685,0 -3,-1.34315 -3,-3 0,-1.65685 1.34315,-3 3,-3 z m 0,1 c -1.10457,0 -2,0.89543 -2,2 0,1.10457 0.89543,2 2,2 1.10457,0 2,-0.89543 2,-2 0,-1.10457 -0.89543,-2 -2,-2 z m 0,1 c 0.55228,0 1,0.44772 1,1 0,0.55228 -0.44772,1 -1,1 -0.55228,0 -1,-0.44772 -1,-1 0,-0.55228 0.44772,-1 1,-1 z"/></clipPath><clipPath id="clipPath148"><rect id="rect150" width="30" height="30" x="433" y="29" fill="#6d6d6d" color="#bebebe" opacity=".2" rx="4"/></clipPath><clipPath id="clipPath152"><path id="path154" d="m 328,256 15,11 0,-27 -15,0 z"/></clipPath><clipPath id="clipPath156"><path id="path158" d="m 328,238 c -7.73199,0 -14,6.26801 -14,14 0,7.73199 6.26801,14 14,14 7.73199,0 14,-6.26801 14,-14 0,-7.73199 -6.26801,-14 -14,-14 z m 0,9.90625 c 2.20914,0 4,1.79086 4,4 0,2.20914 -1.79086,4 -4,4 -2.20914,0 -4,-1.79086 -4,-4 0,-2.20914 1.79086,-4 4,-4 z m 0,1 c -1.65685,0 -3,1.34315 -3,3 0,1.65685 1.34315,3 3,3 1.65685,0 3,-1.34315 3,-3 0,-1.65685 -1.34315,-3 -3,-3 z m 0,1 c 1.10457,0 2,0.89543 2,2 0,1.10457 -0.89543,2 -2,2 -1.10457,0 -2,-0.89543 -2,-2 0,-1.10457 0.89543,-2 2,-2 z"/></clipPath><clipPath id="clipPath160"><rect id="rect162" width="16" height="16" x="432" y="116" fill="#6d6d6d" color="#bebebe" opacity=".2" rx="2"/></clipPath><clipPath id="clipPath164"><rect id="rect166" width="22" height="22" x="433" y="77" color="#bebebe" rx="5"/></clipPath><clipPath id="clipPath168"><rect id="rect170" width="90" height="90" x="307" y="31" fill="url(#9)" color="#bebebe" rx="18.75"/></clipPath><clipPath id="clipPath172"><rect id="rect174" width="16" height="16" x="432" y="116" color="#bebebe" rx="3"/></clipPath><clipPath id="clipPath176"><rect id="rect178" width="22" height="22" x="433" y="77" color="#bebebe" rx="4"/></clipPath><clipPath id="clipPath180"><rect id="rect182" width="30" height="30" x="433" y="29" color="#bebebe" rx="6"/></clipPath><clipPath id="clipPath184"><rect id="rect186" width="240" height="240" x="24" y="36" fill="#986767" color="#bebebe" rx="50"/></clipPath><clipPath id="clipPath188"><rect id="rect190" width="20" height="20" x="434" y="78" color="#bebebe" rx="4"/></clipPath><clipPath id="clipPath192"><rect id="rect194" width="60" height="60" x="306" y="142" fill="url(#B)" color="#bebebe" rx="12.5" transform="matrix(0 -1 1 0 0 0)"/></clipPath><clipPath id="clipPath196"><rect id="rect198" width="240" height="240" x="24" y="36" fill="#986767" color="#bebebe" rx="50"/></clipPath><clipPath id="clipPath200"><rect id="rect202" width="16" height="16" x="432" y="116" color="#bebebe" rx="3"/></clipPath><clipPath id="clipPath204"><rect id="rect206" width="22" height="22" x="433" y="77" color="#bebebe" rx="4"/></clipPath><clipPath id="clipPath208"><rect id="rect210" width="30" height="30" x="433" y="29" fill="#6d6d6d" color="#bebebe" opacity=".2" rx="4"/></clipPath><clipPath id="clipPath212"><rect id="rect214" width="16" height="16" x="432" y="116" fill="#6d6d6d" color="#bebebe" opacity=".2" rx="2"/></clipPath><clipPath id="clipPath216"><rect id="rect218" width="22" height="22" x="433" y="77" fill="#6d6d6d" color="#bebebe" opacity=".2" rx="3"/></clipPath><clipPath id="clipPath220"><rect id="rect222" width="20" height="20" x="434" y="78" color="#bebebe" rx="4"/></clipPath><clipPath id="clipPath224"><rect id="rect226" width="30" height="30" x="433" y="29" color="#bebebe" rx="6"/></clipPath><clipPath id="clipPath228"><rect id="rect230" width="22" height="22" x="433" y="77" color="#bebebe" rx="5"/></clipPath><clipPath id="clipPath232"><rect id="rect234" width="22" height="22" x="433" y="77" fill="#6d6d6d" color="#bebebe" opacity=".2" rx="3"/></clipPath><clipPath id="clipPath236"><rect id="rect238" width="42" height="42" x="307" y="223" fill="url(#2)" color="#bebebe" rx="9" transform="rotate(90)"/></clipPath><clipPath id="clipPath240"><rect id="rect242" width="16" height="16" x="432" y="116" fill="#6d6d6d" color="#bebebe" opacity=".2" rx="2"/></clipPath><clipPath id="clipPath244"><rect id="rect246" width="60" height="60" x="306" y="142" fill="url(#1)" color="#bebebe" rx="12.5" transform="matrix(0 -1 1 0 0 0)"/></clipPath><clipPath id="clipPath248"><rect id="rect250" width="42" height="42" x="307" y="223" fill="url(#A)" color="#bebebe" rx="9" transform="rotate(90)"/></clipPath><clipPath id="clipPath252"><rect id="rect254" width="90" height="90" x="307" y="31" fill="url(#4)" color="#bebebe" rx="18.75"/></clipPath><linearGradient id="C"><stop id="stop257" stop-color="#96d4c4"/><stop id="stop259" offset="1" stop-color="#dbf3ed"/></linearGradient><clipPath id="D"><rect id="rect262" width="12.418" height="12.418" x=".564" y=".564" fill="url(#E)" rx="1.129"/></clipPath><linearGradient id="E" x2="0" y1="1050.36" y2="1006.36" gradientTransform="matrix(0.28222223,0,0,0.28222223,0,-283.45334)" gradientUnits="userSpaceOnUse" xlink:href="#C"/><clipPath id="F"><rect id="rect266" width="12.418" height="12.418" x=".564" y=".564" fill="url(#E)" rx="1.129"/></clipPath><radialGradient id="radialGradient3086" cx="148.004" cy="160" r="128" gradientTransform="matrix(0.1831,0,0,0.1831,-3.10079,-5.2963795)" gradientUnits="userSpaceOnUse" xlink:href="#radial0"/><radialGradient id="radial0" cx="148.004" cy="160" r="128" gradientTransform="matrix(0.1831,0,0,0.1831,-3.10029,-5.29688)" gradientUnits="userSpaceOnUse"><stop id="stop7-6" offset="0" stop-color="#fdb5b8" stop-opacity="1"/><stop id="stop9-3" offset="1" stop-color="#fa4b52" stop-opacity="1"/></radialGradient><radialGradient id="radialGradient3013" cx="148.004" cy="160" r="128" gradientTransform="matrix(0.05167489,0,0,0.05167489,-0.87511191,-1.4947609)" gradientUnits="userSpaceOnUse" xlink:href="#radial0"/></defs><path id="path11" fill="url(#radialGradient3013)" d="m 13.387776,3.258921 0,7.029097 c 0,2.892778 0,3.100035 -3.100035,3.100035 l -7.0279949,0 c -3.10113721,0 -3.10113721,-0.207257 -3.10113721,-3.100035 l 0,-7.029097 c 0,-2.89277783 0,-3.10003478 3.10113721,-3.10003478 l 7.0279949,0 c 3.100035,0 3.100035,0.20725695 3.100035,3.10003478 z"/><path id="path15" fill="#fff" fill-opacity=".051" d="m 10.799269,13.388053 c 0.717682,-0.0033 1.235825,-0.02315 1.611753,-0.124575 l -1.193932,-2.046111 -1.2655899,2.170686 0.3362409,0 c 0.180799,0 0.350573,0 0.511528,0 z M 11.21709,11.217367 9.7707011,8.7368985 8.3232101,11.217367 z m 0,0 2.159662,0 c 0.0088,-0.274505 0.01102,-0.582083 0.01102,-0.930451 l 0,-0.3097832 -0.723194,-1.2402343 z M 12.664582,8.7368985 11.21709,6.2564298 9.7707011,8.7368985 z m 0,0 0.723194,0 0,-1.2402343 z m -2.8938809,0 -1.447491,-2.4804687 -1.446389,2.4804687 z m -2.89388,0 -1.447492,2.4804685 2.893881,0 z m 0,0 -1.447492,-2.4804687 -1.4463886,2.4804687 z m -2.8938806,0 -1.4474913,2.4804685 2.8938799,0 z m 0,0 L 2.5354492,6.2564298 1.0890603,8.7368985 z m -2.8938802,0 -0.93045141,1.5941145 c 0,0.329627 0.00331,0.623976 0.011024,0.886354 l 2.36581621,0 z m 0,0 -0.93045141,-1.5941145 0,1.5941145 z m 1.4463889,2.4804685 -1.2170833,2.086901 c 0.450894,0.08268 1.0748699,0.08379 1.9413802,0.08379 l 0.5423958,0 z m 0,-4.9609372 -1.4463889,-2.4804689 -0.93045141,1.5941147 0,0.8863542 z m 0,0 2.8938799,0 L 3.9829405,3.7759609 z M 3.9829405,3.7759609 2.5354492,1.2954922 1.0890603,3.7759609 z m 0,0 2.8938806,0 -1.447492,-2.4804687 z M 5.4293291,1.2954922 4.7656664,0.15888622 l -1.5059203,0 c -0.02205,0 -0.039688,0 -0.060634,0 L 2.5354492,1.2954922 z m 0,0 2.893881,0 -0.663663,-1.13660598 -1.566554,0 z m 2.893881,0 2.8938799,0 -0.663663,-1.13660598 c -0.0882,0 -0.171979,0 -0.265686,0 l -1.3008679,0 z m 0,0 -1.446389,2.4804687 2.89388,0 z m 1.447491,2.4804687 2.8938809,0 -1.447492,-2.4804687 z m 0,0 -1.447491,2.4804689 2.8938799,0 z m 1.4463889,2.4804689 2.170686,0 0,-1.2402343 -0.723194,-1.2402346 z m 1.447492,-2.4804689 0.723194,0 0,-0.5170399 c 0,-0.2579689 -0.0022,-0.4938889 -0.0066,-0.71217 z M 8.3232101,6.2564298 6.8768211,3.7759609 5.4293291,6.2564298 z m 2.8938799,-4.9609376 2.062648,0 C 13.123193,0.51717609 12.747264,0.27133428 11.859807,0.194164 z m -8.6816408,0 L 1.8850153,0.17983247 C 0.85203769,0.23826122 0.43421639,0.46095206 0.26664699,1.2954922 z M 1.0890603,3.7759609 0.17514549,2.2083047 C 0.16301839,2.5114732 0.15861009,2.859841 0.15861009,3.258921 l 0,0.5170399 z m 4.3402688,7.4414061 -1.26559,2.170686 2.532283,0 z m 2.893881,0 -1.265591,2.170686 2.532284,0 z m -7.59133731,1.86862 -0.4519964,-0.775009 c 0.082682,0.371519 0.2215885,0.615157 0.4519964,0.775009 z"/><path id="path286" fill="#f9f9f9" d="m 7.5136571,3.1044687 c -0.047949,0 -0.1003945,0.01241 -0.1453475,0.04 -0.044952,0.02759 -0.083911,0.07448 -0.082413,0.135175 0.00599,0.02207 0.00299,0.04276 0.0015,0.0662 0,0.06758 0.059938,0.122761 0.1348579,0.122761 0.073423,0 0.1333595,-0.05517 0.1333595,-0.122761 0,-0.06758 -0.058438,-0.12276 -0.1318612,-0.12414 0.025474,-0.01517 0.062934,-0.02345 0.089906,-0.02483 0.1063878,0 0.1843058,0.05517 0.241246,0.137934 0.05694,0.08276 0.08541,0.193106 0.083912,0.282763 -0.0045,0.223451 -0.1243692,0.412419 -0.3026815,0.55587 -0.1768139,0.14483 -0.4120664,0.242763 -0.6353314,0.281384 l 0.01798,0.09103 c 0.2412458,-0.04138 0.4914826,-0.144829 0.6847791,-0.302073 0.1932968,-0.157244 0.3311518,-0.37104 0.3371455,-0.624837 0.0015,-0.108967 -0.029964,-0.233108 -0.1003903,-0.333798 -0.068933,-0.102058 -0.181314,-0.18068 -0.3266609,-0.18068 z"/><path id="path288" fill="#f9f9f9" d="m 6.0332145,3.1044687 c 0.047949,0 0.1003945,0.01241 0.1453473,0.04 0.044952,0.02759 0.083911,0.07448 0.082413,0.135175 -0.00599,0.02207 -0.00299,0.04276 -0.0015,0.0662 0,0.06758 -0.059938,0.122761 -0.1348579,0.122761 -0.073422,0 -0.1333596,-0.05517 -0.1333596,-0.122761 0,-0.06758 0.058438,-0.12276 0.1318613,-0.12414 -0.025476,-0.01517 -0.062937,-0.02345 -0.089908,-0.02483 -0.1063878,0 -0.1843057,0.05517 -0.2412459,0.137934 -0.05694,0.08276 -0.08541,0.193106 -0.083911,0.282763 0.00449,0.223451 0.1243692,0.412419 0.3026816,0.55587 0.1768138,0.14483 0.4120665,0.242763 0.6353314,0.281384 l -0.01798,0.09103 C 6.3868406,4.5044747 6.1366038,4.4010257 5.9433073,4.2437817 5.7500105,4.0865377 5.6121555,3.8727417 5.6061618,3.6189447 c -0.0015,-0.108967 0.02997,-0.233108 0.1003944,-0.333798 0.068928,-0.102071 0.1813091,-0.180693 0.3266561,-0.180693 z"/><path id="path290" fill="#f9f9f9" d="M 23.65625 14.15625 C 21.622761 14.239341 19.655165 15.176406 18.34375 16.59375 C 17.66415 17.273101 17.010766 18.038219 16.71875 18.9375 C 16.724065 19.079232 16.770012 19.206893 16.8125 19.34375 C 16.377132 19.373159 15.865134 19.304329 15.5625 19.65625 C 15.015634 20.213417 14.864527 21.003266 14.59375 21.6875 C 13.367285 25.592533 14.01279 30.056456 16.625 33.375 C 18.042603 35.158899 20.146735 36.544585 22.5625 36.90625 C 22.966012 36.940266 23.440844 37.03927 23.8125 36.84375 C 23.950544 36.736211 24.133193 36.794033 24.25 36.90625 C 24.754391 37.145707 25.323431 36.907423 25.84375 36.84375 C 28.312608 36.345235 30.422656 34.788937 31.75 32.84375 C 34.208237 29.349426 34.617539 24.775139 33.09375 20.875 C 32.891994 20.410696 32.710703 19.888029 32.3125 19.53125 C 32.047032 19.360179 31.693561 19.300809 31.375 19.28125 C 31.582064 18.890257 31.464192 18.437796 31.15625 18.125 C 30.046584 16.453512 28.383155 15.004436 26.3125 14.4375 C 25.441762 14.212677 24.553535 14.15136 23.65625 14.15625 z M 17.21875 20.21875 L 17.5 21.28125 L 18.59375 21.65625 L 17.59375 22.21875 L 17.53125 23.3125 L 16.65625 22.59375 L 15.5 22.90625 L 15.96875 21.875 L 15.375 21.0625 C 15.38338 21.04112 15.39775 21.0213 15.40625 21 L 16.46875 21.0625 L 17.21875 20.21875 z M 20.875 21.25 L 23 23.46875 L 23.6875 23.40625 L 26.15625 23.125 L 24.53125 25.625 L 25.84375 28.28125 L 23.6875 27.84375 L 22.75 27.65625 L 20.40625 29.625 L 20.125 26.71875 L 17.34375 25.28125 L 20.25 24.125 L 20.875 21.25 z M 30.4375 22.59375 L 30.71875 23.625 L 31.8125 24 L 30.8125 24.5625 L 30.75 25.65625 L 29.875 24.96875 L 28.75 25.25 L 29.1875 24.25 L 28.53125 23.34375 L 29.71875 23.40625 L 30.4375 22.59375 z M 16.3125 27.75 L 17.1875 29.40625 L 19.1875 29.65625 L 17.75 30.9375 L 18.09375 32.75 L 16.3125 31.90625 L 15.90625 32.0625 C 15.436859 31.292673 15.100512 30.587312 14.8125 29.6875 L 15.4375 29.40625 L 16.3125 27.75 z M 30.90625 27.90625 L 31.40625 30.28125 L 32.625 30.75 C 32.060126 32.007839 31.260457 33.215524 30.34375 34.125 L 29.34375 33.25 L 26.75 33.78125 L 27.84375 31.5625 L 26.5 29.4375 L 29.125 29.71875 L 30.90625 27.90625 z M 22.125 32.875 L 22.40625 33.90625 L 23.5 34.3125 L 22.5 34.875 L 22.46875 35.9375 L 21.5625 35.25 L 20.4375 35.53125 L 20.875 34.53125 L 20.21875 33.625 L 21.40625 33.71875 L 22.125 32.875 z" transform="scale(0.28222223,0.28222223)"/><path id="path292" fill="#f9f9f9" d="m 6.7479626,4.1279327 c -0.00299,0 -0.00749,0 -0.011987,0.0014 -0.2007889,0.01379 -0.4060728,0.03172 -0.5978709,0.0938 -0.5484231,0.176554 -0.9664829,0.587595 -1.2526818,1.042775 -0.043454,0.07035 -0.013488,0.168278 0.074921,0.175175 0.6143533,0.0014 1.2287066,0 1.8430603,0.0014 0,0 0,0 0.0015,0 0.6143537,-0.0014 1.228707,0 1.8430607,-0.0014 0.088407,-0.0069 0.1183751,-0.104829 0.074921,-0.175175 -0.2876973,-0.45518 -0.705757,-0.866221 -1.2541802,-1.042775 -0.1917981,-0.06207 -0.3970819,-0.08 -0.5978708,-0.0938 -0.050945,-0.0041 -0.041956,0.01103 -0.065931,0.01103 -0.023975,-0.0014 -0.014983,-0.01379 -0.05694,-0.01241 z"/><g id="g294" fill="#f9f9f9" fill-rule="evenodd" transform="matrix(0.38359632,0,0,0.35310894,-0.51489419,0.06442154)"><path id="path296" d="m 22.785156,14.40625 c 0,1.65625 -1.671875,3 -3.734375,3 -2.0625,0 -3.734375,-1.34375 -3.734375,-3 0,-1.65625 1.671875,-2.996094 3.734375,-2.996094 2.0625,0 3.734375,1.339844 3.734375,2.996094 z"/><path id="path298" d="m 17.523438,9.195312 c 0,0.117188 -0.09375,0.214844 -0.207032,0.214844 -0.113281,0 -0.203125,-0.097656 -0.203125,-0.214844 0,-0.117187 0.08984,-0.214843 0.203125,-0.214843 0.113282,0 0.207032,0.097656 0.207032,0.214843 z"/><path id="path300" d="m 20.886719,9.195312 c 0,0.117188 -0.08984,0.214844 -0.203125,0.214844 -0.113282,0 -0.207032,-0.097656 -0.207032,-0.214844 0,-0.117187 0.09375,-0.214843 0.207032,-0.214843 0.113281,0 0.203125,0.097656 0.203125,0.214843 z"/></g></svg>