<svg xmlns="http://www.w3.org/2000/svg" xmlns:svg="http://www.w3.org/2000/svg" xmlns:xlink="http://www.w3.org/1999/xlink" id="svg2" width="48" height="48" version="1.1" viewBox="0 0 13.547 13.547"><metadata id="metadata44"/><defs id="defs4"><linearGradient id="0"><stop id="stop7" stop-color="#efefef"/><stop id="stop9" offset="1" stop-color="#f3f3f3"/></linearGradient><linearGradient id="1" x2="0" y1="1050.36" y2="1006.36" gradientTransform="matrix(0.28222223,0,0,0.28222223,1.8104861e-7,-2.9850873e-5)" gradientUnits="userSpaceOnUse" xlink:href="#0"/><radialGradient id="radialGradient3005" cx="148.004" cy="160" r="128" gradientTransform="matrix(0.1831,0,0,0.1831,-3.10079,-5.29638)" gradientUnits="userSpaceOnUse" xlink:href="#radial0"/><radialGradient id="radial0" cx="148.004" cy="160" r="128" gradientTransform="matrix(0.1831,0,0,0.1831,-3.10029,-5.29688)" gradientUnits="userSpaceOnUse"><stop id="stop7-4" offset="0" stop-color="#ebc8a8"/><stop id="stop9-2" offset="1" stop-color="#96693c"/></radialGradient><radialGradient id="radialGradient3009" cx="148.004" cy="160" r="128" gradientTransform="matrix(0.05167489,0,0,0.05167489,-0.87511151,-1.4947612)" gradientUnits="userSpaceOnUse" xlink:href="#radial0"/><linearGradient id="linearGradient3040" x2="0" y1="1050.36" y2="1006.36" gradientTransform="matrix(0.28222223,0,0,0.28222223,1.8104861e-7,-2.9850873e-5)" gradientUnits="userSpaceOnUse" xlink:href="#0"/><linearGradient id="linearGradient3049" x2="0" y1="1050.36" y2="1006.36" gradientTransform="matrix(0.28222223,0,0,0.28222223,0,-283.45334)" gradientUnits="userSpaceOnUse" xlink:href="#0"/></defs><path id="path11" fill="url(#radialGradient3009)" d="m 13.387776,3.2589209 0,7.0290971 c 0,2.892778 0,3.100035 -3.100035,3.100035 l -7.0279945,0 c -3.10113721,0 -3.10113721,-0.207257 -3.10113721,-3.100035 l 0,-7.0290971 c 0,-2.89277779 0,-3.10003479 3.10113721,-3.10003479 l 7.0279945,0 c 3.100035,0 3.100035,0.207257 3.100035,3.10003479 z"/><path id="path13" fill="#fff" fill-opacity=".051" d="m 10.799269,13.388053 c 0.717682,-0.0033 1.235825,-0.02315 1.611753,-0.124575 l -1.193932,-2.046111 -1.2655898,2.170686 0.3362408,0 c 0.180799,0 0.350573,0 0.511528,0 z M 11.21709,11.217367 9.7707016,8.7368984 8.3232103,11.217367 z m 0,0 2.159662,0 c 0.0088,-0.274505 0.01102,-0.582083 0.01102,-0.930451 l 0,-0.3097833 -0.723194,-1.2402343 z M 12.664582,8.7368984 11.21709,6.2564297 9.7707016,8.7368984 z m 0,0 0.723194,0 0,-1.2402343 z m -2.8938804,0 L 8.3232103,6.2564297 6.8768214,8.7368984 z m -2.8938802,0 -1.4474916,2.4804686 2.8938805,0 z m 0,0 L 5.4293298,6.2564297 3.9829409,8.7368984 z m -2.8938805,0 -1.4474913,2.4804686 2.8938802,0 z m 0,0 L 2.5354496,6.2564297 1.0890607,8.7368984 z m -2.8938802,0 -0.93045141,1.5941146 c 0,0.329627 0.00331,0.623976 0.011024,0.886354 l 2.36581611,0 z m 0,0 -0.93045141,-1.5941145 0,1.5941145 z m 1.4463889,2.4804686 -1.2170833,2.086901 c 0.450894,0.08268 1.0748699,0.08379 1.9413802,0.08379 l 0.5423958,0 z m 0,-4.9609373 -1.4463889,-2.4804689 -0.93045141,1.5941147 0,0.8863542 z m 0,0 2.8938802,0 L 3.9829409,3.7759608 z M 3.9829409,3.7759608 2.5354496,1.2954921 1.0890607,3.7759608 z m 0,0 2.8938805,0 -1.4474916,-2.4804687 z m 1.4463889,-2.4804687 -0.663663,-1.13660599 -1.5059203,0 c -0.02205,0 -0.039688,0 -0.060634,0 L 2.5354496,1.2954921 z m 0,0 2.8938805,0 -0.6636633,-1.13660599 -1.5665538,0 z m 2.8938805,0 2.8938797,0 -0.663663,-1.13660599 c -0.0882,0 -0.171979,0 -0.265686,0 l -1.3008676,0 z m 0,0 -1.4463889,2.4804687 2.8938802,0 z m 1.4474913,2.4804687 2.8938804,0 -1.447492,-2.4804687 z m 0,0 -1.4474913,2.4804689 2.8938797,0 z m 1.4463884,2.4804689 2.170686,0 0,-1.2402343 -0.723194,-1.2402346 z m 1.447492,-2.4804689 0.723194,0 0,-0.5170399 c 0,-0.2579689 -0.0022,-0.4938889 -0.0066,-0.71217 z M 8.3232103,6.2564297 6.8768214,3.7759608 5.4293298,6.2564297 z m 2.8938797,-4.9609376 2.062648,0 C 13.123193,0.51717601 12.747264,0.27133421 11.859807,0.19416391 z m -8.6816404,0 L 1.8850157,0.17983241 C 0.85203809,0.23826141 0.43421679,0.46095201 0.26664739,1.2954921 z M 1.0890607,3.7759608 0.17514589,2.2083046 c -0.012127,0.3031685 -0.016537,0.6515363 -0.016537,1.0506163 l 0,0.5170399 z m 4.3402691,7.4414062 -1.2655903,2.170686 2.532283,0 z m 2.8938805,0 -1.2655906,2.170686 2.5322833,0 z m -7.59133711,1.86862 -0.4519964,-0.775009 c 0.082682,0.371519 0.2215885,0.615157 0.4519964,0.775009 z"/><path id="path30" fill="#f9f9f9" fill-opacity="1" fill-rule="evenodd" d="M 27.125 12 C 26.728326 12.017468 26.354513 12.121411 26.0625 12.28125 C 26.086917 12.297904 26.101331 12.294783 26.125 12.3125 L 33.9375 18.375 C 34.263484 17.084669 33.224549 15.108122 31.3125 13.625 C 29.877137 12.511489 28.315021 11.947596 27.125 12 z M 25.75 13.125 C 25.437283 13.1645 25.146854 13.323871 24.9375 13.59375 L 16.75 24.125 C 16.331292 24.664758 16.428978 25.456311 16.96875 25.875 L 17.46875 26.25 C 18.008522 26.668689 18.768792 26.571008 19.1875 26.03125 L 27.375 15.46875 C 27.793708 14.928992 27.696022 14.168689 27.15625 13.75 L 26.65625 13.375 C 26.386364 13.165655 26.062717 13.0855 25.75 13.125 z M 28.5625 15.28125 C 28.249783 15.32075 27.928104 15.480121 27.71875 15.75 L 19.53125 26.3125 C 19.112542 26.852258 19.210228 27.612561 19.75 28.03125 L 20.25 28.40625 C 20.789772 28.824939 21.581292 28.727258 22 28.1875 L 30.1875 17.65625 C 30.606208 17.116492 30.508522 16.324939 29.96875 15.90625 L 29.46875 15.53125 C 29.198864 15.321905 28.875217 15.24175 28.5625 15.28125 z M 31.3125 17.4375 C 30.999783 17.477 30.709354 17.636371 30.5 17.90625 L 22.3125 28.46875 C 21.893792 29.008508 21.991478 29.768811 22.53125 30.1875 L 23.03125 30.5625 C 23.571022 30.981189 24.331292 30.883508 24.75 30.34375 L 32.9375 19.8125 C 33.356208 19.272742 33.258522 18.481189 32.71875 18.0625 L 32.21875 17.6875 C 31.948864 17.478155 31.625217 17.398 31.3125 17.4375 z M 15.6875 25.625 C 15.561021 25.680135 14.829456 29.982366 14.375 33.03125 C 14.333726 33.308151 14.318752 33.494007 14.28125 33.75 C 14.255426 33.929642 14.210074 34.180341 14.1875 34.34375 C 14.153346 34.583928 14.119504 34.898376 14.09375 35.09375 C 14.077113 35.230645 14.042287 35.424372 14.03125 35.53125 C 14.015969 35.696132 13.985952 35.989103 14 36 C 14.028402 36.022031 14.424118 35.889172 14.9375 35.6875 C 15.101229 35.621828 15.368024 35.517608 15.5625 35.4375 C 18.283452 34.323648 23.599944 31.967949 23.625 31.8125 C 23.658407 31.605234 15.879956 25.541105 15.6875 25.625 z" transform="scale(0.28222223,0.28222223)"/></svg>