<svg xmlns="http://www.w3.org/2000/svg" xmlns:svg="http://www.w3.org/2000/svg" xmlns:xlink="http://www.w3.org/1999/xlink" id="svg2" width="48" height="48" version="1.1" viewBox="0 0 13.547 13.547"><metadata id="metadata40"/><defs id="defs4"><linearGradient id="0"><stop id="stop7" stop-color="#6eb1ed"/><stop id="stop9" offset="1" stop-color="#84d3f0"/></linearGradient><linearGradient id="1" x2="0" y1="1050.36" y2="1006.36" gradientTransform="matrix(0.28222223,0,0,0.28222223,0,-283.45334)" gradientUnits="userSpaceOnUse" xlink:href="#0"/><radialGradient id="radialGradient3012" cx="148.004" cy="160" r="128" gradientTransform="matrix(0.05167489,0,0,0.05167489,-0.87510899,-1.4947552)" gradientUnits="userSpaceOnUse" xlink:href="#radial0"/><radialGradient id="radial0" cx="148.004" cy="160" r="128" gradientTransform="matrix(0.1831,0,0,0.1831,-3.10029,-5.29688)" gradientUnits="userSpaceOnUse"><stop id="stop7-8-5" offset="0" stop-color="#abe4f8" stop-opacity="1"/><stop id="stop9-4" offset="1" stop-color="#31a8c8" stop-opacity="1"/></radialGradient><radialGradient id="radialGradient3009" cx="148.004" cy="160" r="128" gradientTransform="matrix(0.05167489,0,0,0.05167489,-0.87510911,-1.4947552)" gradientUnits="userSpaceOnUse" xlink:href="#radial0"/></defs><path id="path11" fill="url(#radialGradient3009)" d="m 13.387777,3.258934 0,7.029083 c 0,2.892777 0,3.100041 -3.100035,3.100041 l -7.0279921,0 c -3.10113801,0 -3.10113801,-0.207264 -3.10113801,-3.100041 l 0,-7.029083 c 0,-2.89277789 0,-3.10004189 3.10113801,-3.10004189 l 7.0279921,0 c 3.100035,0 3.100035,0.207264 3.100035,3.10004189 z"/><path id="path13-0" fill="#fff" fill-opacity=".051" d="m 10.79927,13.388058 c 0.717682,-0.0034 1.235825,-0.02314 1.611753,-0.124572 l -1.193932,-2.046112 -1.2655881,2.170684 0.3362391,0 c 0.180799,0 0.350573,0 0.511528,0 z M 11.217091,11.217374 9.7707049,8.7368956 8.3232139,11.217374 z m 0,0 2.159662,0 c 0.0088,-0.274517 0.01102,-0.582082 0.01102,-0.930458 l 0,-0.3097663 -0.723194,-1.2402541 z M 12.664583,8.7368956 11.217091,6.2564448 9.7707049,8.7368956 z m 0,0 0.723194,0 0,-1.2402258 z m -2.8938781,0 -1.447491,-2.4804508 -1.446388,2.4804508 z m -2.893879,0 -1.447493,2.4804784 2.893881,0 z m 0,0 -1.447493,-2.4804508 -1.44639,2.4804508 z m -2.893883,0 -1.447491,2.4804784 2.893881,0 z m 0,0 -1.447491,-2.4804508 -1.446389,2.4804508 z m -2.89388,0 -0.93045101,1.5941324 c 0,0.329607 0.0033,0.623964 0.01102,0.886346 l 2.36581701,0 z m 0,0 -0.93045101,-1.594104 0,1.594104 z m 1.446389,2.4804784 -1.217083,2.086892 c 0.450894,0.08269 1.07487,0.08379 1.941381,0.08379 l 0.542395,0 z m 0,-4.9609292 -1.446389,-2.4804797 -0.93045101,1.594104 0,0.8863757 z m 0,0 2.893881,0 -1.44639,-2.4804797 z M 3.9829429,3.7759651 2.5354519,1.2954857 1.0890629,3.7759651 z m 0,0 2.893883,0 -1.447493,-2.4804794 z m 1.44639,-2.4804794 -0.663664,-1.13659359 -1.505919,0 c -0.02205,0 -0.03969,0 -0.06063,0 L 2.5354559,1.2954857 z m 0,0 2.893881,0 -0.663663,-1.13659359 -1.566555,0 z m 2.893881,0 2.8938771,0 -0.663663,-1.13659359 c -0.0882,0 -0.171979,0 -0.265686,0 l -1.3008641,0 z m 0,0 -1.446388,2.4804794 2.893879,0 z m 1.447491,2.4804794 2.8938781,0 -1.447492,-2.4804794 z m 0,0 -1.447491,2.4804797 2.8938771,0 z m 1.4463861,2.4804797 2.170686,0 0,-1.2402541 -0.723194,-1.2402256 z m 1.447492,-2.4804797 0.723194,0 0,-0.5170311 c 0,-0.2579794 -0.0022,-0.4938889 -0.0066,-0.7121878 z M 8.3232139,6.2564448 6.8768259,3.7759651 5.4293329,6.2564448 z m 2.8938771,-4.9609591 2.062648,0 C 13.123194,0.51717321 12.747265,0.27132951 11.859808,0.19416991 z m -8.6816391,0 -0.650434,-1.11565269 C 0.85204089,0.23828101 0.43421889,0.46095461 0.26664989,1.2954857 z M 1.0890629,3.7759651 0.17514889,2.2083053 c -0.01213,0.3031631 -0.01654,0.6515382 -0.01654,1.0506287 l 0,0.5170311 z m 4.34027,7.4414089 -1.26559,2.170684 2.532282,0 z m 2.893881,0 -1.26559,2.170684 2.532283,0 z m -7.59133801,1.868623 -0.451997,-0.775011 c 0.08268,0.371517 0.221589,0.61516 0.451997,0.775011 z"/><rect id="rect28" width="2.258" height="2.258" x="2.822" y="5.644" fill="#f9f9f9" rx=".5"/><rect id="rect30" width="2.258" height="2.258" x="5.644" y="5.644" fill="#f9f9f9" rx=".5"/><rect id="rect32" width="2.258" height="2.258" x="8.467" y="5.644" fill="#f9f9f9" rx=".5"/><path id="path36" fill="#f9f9f9" d="m 6.4911113,9.5955558 0.5644444,0 0,0.8466662 0.8466667,0 0,0.564445 -0.8466667,0 0,0.846667 -0.5644444,0 0,-0.846667 -0.8466667,0 0,-0.564445 0.8466667,0 z"/></svg>