<svg xmlns="http://www.w3.org/2000/svg" xmlns:svg="http://www.w3.org/2000/svg" xmlns:xlink="http://www.w3.org/1999/xlink" id="svg2" width="48" height="48" version="1.1" viewBox="0 0 13.547 13.547"><metadata id="metadata40"/><defs id="defs4"><linearGradient id="0"><stop id="stop7" stop-color="#274fc3"/><stop id="stop9" offset="1" stop-color="#4b70db"/></linearGradient><linearGradient id="1" x2="0" y1="1050.36" y2="1006.36" gradientTransform="matrix(0.28222223,0,0,0.28222223,0,-283.45334)" gradientUnits="userSpaceOnUse" xlink:href="#0"/><radialGradient id="radialGradient3109" cx="148.004" cy="160" r="128" gradientTransform="matrix(0.05167489,0,0,0.05167489,-0.87511191,-1.4947612)" gradientUnits="userSpaceOnUse" xlink:href="#radial0"/><radialGradient id="radial0" cx="148.004" cy="160" r="128" gradientTransform="matrix(0.1831,0,0,0.1831,-3.10029,-5.29688)" gradientUnits="userSpaceOnUse"><stop id="stop7-0" offset="0" stop-color="#b0cee7"/><stop id="stop9-6" offset="1" stop-color="#205582"/></radialGradient><radialGradient id="radialGradient3013" cx="148.004" cy="160" r="128" gradientTransform="matrix(0.05167489,0,0,0.05167489,-0.87511191,-1.4947612)" gradientUnits="userSpaceOnUse" xlink:href="#radial0"/></defs><path id="path11" fill="url(#radialGradient3013)" d="m 13.387776,3.2589209 0,7.0290971 c 0,2.892778 0,3.100035 -3.100035,3.100035 l -7.0279947,0 c -3.10113741,0 -3.10113741,-0.207257 -3.10113741,-3.100035 l 0,-7.0290971 c 0,-2.89277779 0,-3.10003479 3.10113741,-3.10003479 l 7.0279947,0 c 3.100035,0 3.100035,0.207257 3.100035,3.10003479 z"/><path id="path13" fill="#fff" fill-opacity=".051" d="m 10.799269,13.388053 c 0.717682,-0.0033 1.235825,-0.02315 1.611753,-0.124575 l -1.193932,-2.046111 -1.2655899,2.170686 0.3362409,0 c 0.180799,0 0.350573,0 0.511528,0 z M 11.21709,11.217367 9.7707012,8.7368984 8.3232102,11.217367 z m 0,0 2.159662,0 c 0.0088,-0.274505 0.01102,-0.582083 0.01102,-0.930451 l 0,-0.3097833 -0.723193,-1.2402343 z M 12.664582,8.7368984 11.21709,6.2564297 9.7707012,8.7368984 z m 0,0 0.723194,0 0,-1.2402343 z m -2.8938808,0 -1.447491,-2.4804687 -1.4463889,2.4804687 z m -2.8938799,0 -1.4474921,2.4804686 2.893881,0 z m 0,0 -1.4474921,-2.4804687 -1.446389,2.4804687 z m -2.8938811,0 -1.447491,2.4804686 2.89388,0 z m 0,0 -1.447491,-2.4804687 -1.4463889,2.4804687 z m -2.8938799,0 -0.93045141,1.5941146 c 0,0.329627 0.00331,0.623976 0.011024,0.886354 l 2.36581621,0 z m 0,0 -0.93045141,-1.5941145 0,1.5941145 z m 1.4463889,2.4804686 -1.2170833,2.086901 c 0.450894,0.08268 1.0748703,0.08379 1.9413804,0.08379 l 0.5423959,0 z m 0,-4.9609373 -1.4463889,-2.4804689 -0.93045141,1.5941147 0,0.8863542 z m 0,0 2.89388,0 -1.446389,-2.4804689 z M 3.9829402,3.7759608 2.5354492,1.2954921 1.0890603,3.7759608 z m 0,0 2.8938811,0 -1.4474921,-2.4804687 z m 1.446389,-2.4804687 -0.6636631,-1.13660599 -1.507023,0 c -0.02095,0 -0.03858,0 -0.05953,0 L 2.5354501,1.2954921 z m 0,0 2.893881,0 -0.6636639,-1.13660599 -1.5665532,0 z m 2.893881,0 2.8938798,0 -0.663663,-1.13660599 c -0.0882,0 -0.171979,0 -0.266788,0 l -1.2997657,0 z m 0,0 -1.4463889,2.4804687 2.8938799,0 z m 1.447491,2.4804687 2.8938808,0 -1.447492,-2.4804687 z m 0,0 -1.447491,2.4804689 2.8938798,0 z m 1.4463888,2.4804689 2.170686,0 0,-1.2402343 -0.723194,-1.2402346 z m 1.447492,-2.4804689 0.723194,0 0,-0.5170399 c 0,-0.2579689 -0.0022,-0.4938889 -0.0066,-0.71217 z M 8.3232102,6.2564297 6.8768213,3.7759608 5.4293292,6.2564297 z m 2.8938798,-4.9609376 2.062648,0 C 13.123193,0.51717601 12.747264,0.27133421 11.859807,0.19416391 z m -8.6816408,0 -0.650434,-1.11565969 C 0.85203759,0.23826141 0.43421639,0.46095201 0.26664689,1.2954921 z M 1.0890603,3.7759608 0.17514539,2.2083046 c -0.012127,0.3031685 -0.016536,0.6515363 -0.016536,1.0506163 l 0,0.5170399 z m 4.3402689,7.4414062 -1.2655901,2.170686 2.532283,0 z m 2.893881,0 -1.2655909,2.170686 2.532283,0 z m -7.59133741,1.86862 -0.4519964,-0.775009 c 0.082682,0.371519 0.2215884,0.615157 0.4519964,0.775009 z"/><g id="g28" fill="#f9f9f9" fill-opacity="1" transform="matrix(.9084 0 0 .90208 .62387 .6624)"><path id="path30" fill="#f9f9f9" fill-opacity="1" d="M 3.3520545,9.87781 4.8211397,9.90281 6.8638944,7.87213 8.7234136,9.90281 10.180022,9.87781 6.8434301,6.29862 z"/></g><rect id="rect34" width="1.329" height="5.644" x="3.674" y="3.951" fill="#f9f9f9" fill-opacity="1"/><rect id="rect36" width="1.329" height="5.644" x="8.549" y="3.951" fill="#f9f9f9" fill-opacity="1"/></svg>