<svg xmlns="http://www.w3.org/2000/svg" xmlns:svg="http://www.w3.org/2000/svg" xmlns:xlink="http://www.w3.org/1999/xlink" id="svg2" width="48" height="48" version="1.1" viewBox="0 0 13.547 13.547"><metadata id="metadata38"/><defs id="defs4"><linearGradient id="0"><stop id="stop7" stop-color="#39761e"/><stop id="stop9" offset="1" stop-color="#50a52a"/></linearGradient><linearGradient id="1" x2="0" y1="1050.36" y2="1006.36" gradientTransform="matrix(0.28222223,0,0,0.28222223,0,-283.45334)" gradientUnits="userSpaceOnUse" xlink:href="#0"/><radialGradient id="radial0" cx="148.004" cy="160" r="128" gradientTransform="matrix(0.1831,0,0,0.1831,-3.10029,-5.29688)" gradientUnits="userSpaceOnUse"><stop id="stop7-2" offset="0" stop-color="#68cf8f"/><stop id="stop9-2" offset="1" stop-color="#13522c"/></radialGradient><radialGradient id="radialGradient3015" cx="148.004" cy="160" r="128" gradientTransform="matrix(0.05167489,0,0,0.05167489,-0.87510831,-1.4947612)" gradientUnits="userSpaceOnUse" xlink:href="#radial0"/></defs><path id="path11" fill="url(#radialGradient3015)" d="m 13.38778,3.2589209 0,7.0290971 c 0,2.892778 0,3.100035 -3.100035,3.100035 l -7.0279951,0 c -3.10113701,0 -3.10113701,-0.207257 -3.10113701,-3.100035 l 0,-7.0290971 c 0,-2.89277779 0,-3.10003479 3.10113701,-3.10003479 l 7.0279951,0 c 3.100035,0 3.100035,0.207257 3.100035,3.10003479 z"/><path id="path13" fill="#fff" fill-opacity=".051" d="m 10.799273,13.388053 c 0.717682,-0.0033 1.235825,-0.02315 1.611753,-0.124575 l -1.193932,-2.046111 -1.2655911,2.170686 0.3362421,0 c 0.180799,0 0.350573,0 0.511528,0 z M 11.217094,11.217367 9.7707049,8.7368984 8.3232139,11.217367 z m 0,0 2.159662,0 c 0.0088,-0.274505 0.01102,-0.582083 0.01102,-0.930451 l 0,-0.3097833 -0.723194,-1.2402343 z M 12.664586,8.7368984 11.217094,6.2564297 9.7707049,8.7368984 z m 0,0 0.723194,0 0,-1.2402343 z m -2.8938811,0 -1.447491,-2.4804687 -1.446389,2.4804687 z m -2.89388,0 -1.447492,2.4804686 2.893881,0 z m 0,0 -1.447492,-2.4804687 -1.446389,2.4804687 z m -2.893881,0 -1.447491,2.4804686 2.89388,0 z m 0,0 -1.447491,-2.4804687 -1.446389,2.4804687 z m -2.89388,0 -0.93045101,1.5941146 c 0,0.329627 0.0033,0.623976 0.01102,0.886354 l 2.36581601,0 z m 0,0 -0.93045101,-1.5941145 0,1.5941145 z m 1.446389,2.4804686 -1.217083,2.086901 c 0.450894,0.08268 1.074869,0.08379 1.94138,0.08379 l 0.542396,0 z m 0,-4.9609373 -1.446389,-2.4804689 -0.93045101,1.5941147 0,0.8863542 z m 0,0 2.89388,0 -1.446389,-2.4804689 z M 3.9829439,3.7759608 2.5354529,1.2954921 1.0890639,3.7759608 z m 0,0 2.893881,0 -1.447492,-2.4804687 z m 1.446389,-2.4804687 -0.663663,-1.13660599 -1.507023,0 c -0.02095,0 -0.03858,0 -0.05953,0 L 2.5354539,1.2954921 z m 0,0 2.893881,0 -0.663664,-1.13660599 -1.566554,0 z m 2.893881,0 2.8938801,0 -0.663663,-1.13660599 c -0.0882,0 -0.171979,0 -0.266788,0 l -1.2997661,0 z m 0,0 -1.446389,2.4804687 2.89388,0 z m 1.447491,2.4804687 2.8938811,0 -1.447492,-2.4804687 z m 0,0 -1.447491,2.4804689 2.8938801,0 z m 1.4463891,2.4804689 2.170686,0 0,-1.2402343 -0.723194,-1.2402346 z m 1.447492,-2.4804689 0.723194,0 0,-0.5170399 c 0,-0.2579689 -0.0022,-0.4938889 -0.0066,-0.71217 z M 8.3232139,6.2564297 6.8768249,3.7759608 5.4293329,6.2564297 z m 2.8938801,-4.9609376 2.062648,0 C 13.123197,0.51717601 12.747268,0.27133421 11.859811,0.19416391 z m -8.6816411,0 -0.650434,-1.11565969 C 0.85204089,0.23826141 0.43421989,0.46095201 0.26665089,1.2954921 z M 1.0890639,3.7759608 0.17514889,2.2083046 c -0.01213,0.3031685 -0.01654,0.6515363 -0.01654,1.0506163 l 0,0.5170399 z m 4.340269,7.4414062 -1.26559,2.170686 2.532283,0 z m 2.893881,0 -1.265591,2.170686 2.532283,0 z m -7.59133801,1.86862 -0.451996,-0.775009 c 0.08268,0.371519 0.221589,0.615157 0.451996,0.775009 z"/><g id="g28" transform="matrix(.90736 0 0 .90306 .62699 .66086)"><path id="path30" fill="#e8f3e2" d="m 4.3097799,7.58737 5.1557863,-0.003 0,-1.4702 -5.1557863,0 z"/><path id="path32" fill="#fbfbf9" d="m 9.8842292,10.20628 0,-4.0925 -1.473323,0 0,2.67586 -4.7473793,0 0,1.41664 6.2207023,0 z"/><path id="path34" fill="#fff" d="m 3.663583,3.33092 0,4.25627 1.4733238,0 0,-2.78294 4.7473787,0 0,-1.47333 -6.2207025,0 z"/></g></svg>