<svg xmlns="http://www.w3.org/2000/svg" xmlns:svg="http://www.w3.org/2000/svg" xmlns:xlink="http://www.w3.org/1999/xlink" id="svg2" width="48" height="48" version="1.1" viewBox="0 0 13.547 13.547"><metadata id="metadata34"/><defs id="defs4"><linearGradient id="0"><stop id="stop7" stop-color="#2d2d2d"/><stop id="stop9" offset="1" stop-color="#4b4b4b"/></linearGradient><linearGradient id="1" x2="0" y1="1050.36" y2="1006.36" gradientTransform="matrix(0.28222223,0,0,0.28222223,0,-283.45334)" gradientUnits="userSpaceOnUse" xlink:href="#0"/><radialGradient id="radialGradient3010" cx="148.004" cy="160" r="128" gradientTransform="matrix(0.1831,0,0,0.1831,-3.10079,-5.296398)" gradientUnits="userSpaceOnUse" spreadMethod="pad" xlink:href="#linearGradient4460"/><linearGradient id="linearGradient4460"><stop id="stop8-6" offset="0" stop-color="#747474" stop-opacity="1"/><stop id="stop10-2" offset="1" stop-color="#2d2d2d" stop-opacity="1"/></linearGradient><radialGradient id="radialGradient3015" cx="148.004" cy="160" r="128" gradientTransform="matrix(0.05167489,0,0,0.05167489,-0.87511191,-1.4947612)" gradientUnits="userSpaceOnUse" spreadMethod="pad" xlink:href="#linearGradient4460"/></defs><path id="path11" fill="url(#radialGradient3015)" fill-opacity="1" d="m 13.387776,3.2589209 0,7.0290971 c 0,2.892778 0,3.100035 -3.100035,3.100035 l -7.0279949,0 c -3.10113721,0 -3.10113721,-0.207257 -3.10113721,-3.100035 l 0,-7.0290971 c 0,-2.89277789 0,-3.10003479 3.10113721,-3.10003479 l 7.0279949,0 c 3.100035,0 3.100035,0.2072569 3.100035,3.10003479 z"/><path id="path15" fill="#fff" fill-opacity=".051" d="m 10.799269,13.388053 c 0.717682,-0.0033 1.235825,-0.02315 1.611753,-0.124575 l -1.193932,-2.046111 -1.2655901,2.170686 0.3362411,0 c 0.180799,0 0.350573,0 0.511528,0 z M 11.21709,11.217367 9.7707009,8.7368984 8.3232099,11.217367 z m 0,0 2.159662,0 c 0.0088,-0.274505 0.01102,-0.582083 0.01102,-0.930451 l 0,-0.3097833 -0.723193,-1.2402343 z M 12.664582,8.7368984 11.21709,6.2564297 9.7707009,8.7368984 z m 0,0 0.723194,0 0,-1.2402343 z m -2.8938811,0 -1.447491,-2.4804687 -1.446389,2.4804687 z m -2.89388,0 -1.4474915,2.4804686 2.8938805,0 z m 0,0 L 5.4293294,6.2564297 3.9829405,8.7368984 z m -2.8938804,0 -1.4474913,2.4804686 2.8938802,0 z m 0,0 L 2.5354492,6.2564297 1.0890603,8.7368984 z m -2.8938802,0 -0.93045141,1.5941146 c 0,0.329627 0.00331,0.623976 0.011024,0.886354 l 2.36581621,0 z m 0,0 -0.93045141,-1.5941145 0,1.5941145 z m 1.4463889,2.4804686 -1.2170833,2.086901 c 0.450894,0.08268 1.0748699,0.08379 1.9413802,0.08379 l 0.5423958,0 z m 0,-4.9609373 -1.4463889,-2.4804689 -0.93045141,1.5941147 0,0.8863542 z m 0,0 2.8938802,0 L 3.9829405,3.7759608 z M 3.9829405,3.7759608 2.5354492,1.2954922 1.0890603,3.7759608 z m 0,0 2.8938804,0 -1.4474915,-2.4804686 z m 1.4463889,-2.4804686 -0.663663,-1.13660609 -1.5059203,0 c -0.02205,0 -0.039688,0 -0.060634,0 L 2.5354492,1.2954922 z m 0,0 2.8938805,0 -0.663663,-1.13660609 -1.566554,0 z m 2.8938805,0 2.8938801,0 -0.663663,-1.13660609 c -0.0882,0 -0.171979,0 -0.265686,0 l -1.3008681,0 z m 0,0 -1.446389,2.4804686 2.89388,0 z m 1.447491,2.4804686 2.8938811,0 -1.447492,-2.4804686 z m 0,0 -1.447491,2.4804689 2.8938801,0 z m 1.4463891,2.4804689 2.170686,0 0,-1.2402343 -0.723194,-1.2402346 z m 1.447492,-2.4804689 0.723194,0 0,-0.5170399 c 0,-0.2579689 -0.0022,-0.4938888 -0.0066,-0.7121699 z M 8.3232099,6.2564297 6.8768209,3.7759608 5.4293294,6.2564297 z m 2.8938801,-4.9609375 2.062648,0 C 13.123193,0.51717591 12.747264,0.27133411 11.859807,0.19416391 z m -8.6816408,0 L 1.8850153,0.17983231 C 0.85203769,0.23826131 0.43421639,0.46095191 0.26664689,1.2954922 z M 1.0890603,3.7759608 0.17514539,2.2083047 c -0.012127,0.3031685 -0.016535,0.6515362 -0.016535,1.0506162 l 0,0.5170399 z m 4.3402691,7.4414062 -1.2655903,2.170686 2.5322828,0 z m 2.8938805,0 -1.265591,2.170686 2.532284,0 z m -7.59133711,1.86862 -0.4519964,-0.775009 c 0.082682,0.371519 0.2215885,0.615157 0.4519964,0.775009 z"/><g id="g30" fill="#dcdcdc" transform="translate(0.28222219,0)"><path id="path32" d="M 9.8777778,9.59556 V 8.4666711 H 6.4911113 V 9.59556 h 3.3866665 z"/><path id="path34" d="M 3.8785521,8.4666669 3.1044445,7.6457045 4.8461507,6.2088892 3.1044445,4.7721544 3.8785521,3.9511112 6.4911112,6.2088892 3.8785521,8.4666669 z"/></g></svg>