<svg xmlns="http://www.w3.org/2000/svg" xmlns:svg="http://www.w3.org/2000/svg" xmlns:xlink="http://www.w3.org/1999/xlink" id="svg2" width="48" height="48" version="1.1" viewBox="0 0 13.547 13.547"><metadata id="metadata34"/><defs id="defs4"><linearGradient id="0"><stop id="stop7" stop-color="#6a223d"/><stop id="stop9" offset="1" stop-color="#bf585f"/></linearGradient><linearGradient id="1" x2="0" y1="1050.36" y2="1006.36" gradientTransform="matrix(0.28222223,0,0,0.28222223,0,-283.45334)" gradientUnits="userSpaceOnUse" xlink:href="#0"/><radialGradient id="radialGradient3040" cx="148.004" cy="160" r="128" gradientTransform="matrix(0.05167489,0,0,0.05167489,-0.87511111,-1.4947551)" gradientUnits="userSpaceOnUse" xlink:href="#radial0"/><radialGradient id="radial0" cx="148.004" cy="160" r="128" gradientTransform="matrix(0.1831,0,0,0.1831,-3.10029,-5.29688)" gradientUnits="userSpaceOnUse"><stop id="stop7-4" offset="0" stop-color="#ffa686" stop-opacity="1"/><stop id="stop9-5" offset="1" stop-color="#d75050" stop-opacity="1"/></radialGradient><radialGradient id="radialGradient3073" cx="148.004" cy="160" r="128" gradientTransform="matrix(0.05167489,0,0,0.05167489,-0.87511111,-1.4947551)" gradientUnits="userSpaceOnUse" xlink:href="#radial0"/></defs><path id="path11" fill="url(#radialGradient3073)" fill-opacity="1" d="m 13.387775,3.2589271 0,7.0290969 c 0,2.892777 0,3.100034 -3.100035,3.100034 l -7.0279932,0 c -3.10113791,0 -3.10113791,-0.207257 -3.10113791,-3.100034 l 0,-7.0290969 c 0,-2.892778 0,-3.1000349 3.10113791,-3.1000349 l 7.0279932,0 c 3.100035,0 3.100035,0.2072569 3.100035,3.1000349 z"/><path id="use3909" fill="#fff" fill-opacity=".051" d="m 10.799271,13.388053 c 0.717682,-0.0033 1.235825,-0.02315 1.611753,-0.124574 l -1.193932,-2.04611 -1.2655883,2.170684 0.3362393,0 c 0.180799,0 0.350573,0 0.511528,0 z M 11.217092,11.217369 9.7707048,8.7368992 8.3232138,11.217369 z m 0,0 2.159662,0 c 0.0088,-0.274506 0.01102,-0.582084 0.01102,-0.930452 l 0,-0.3097839 -0.723192,-1.2402339 z M 12.664584,8.7368992 11.217092,6.25643 9.7707048,8.7368992 z m 0,0 0.723194,0 0,-1.2402341 z m -2.8938792,0 L 8.3232138,6.25643 6.8768249,8.7368992 z m -2.8938799,0 -1.4474922,2.4804698 2.8938811,0 z m 0,0 L 5.4293327,6.25643 3.9829438,8.7368992 z m -2.8938811,0 -1.447491,2.4804698 2.8938799,0 z m 0,0 L 2.5354528,6.25643 1.0890638,8.7368992 z m -2.89388,0 -0.93045191,1.5941158 c 0,0.329626 0.0033,0.623975 0.01102,0.886354 l 2.36581591,0 z m 0,0 -0.93045191,-1.5941142 0,1.5941142 z m 1.446389,2.4804698 -1.217084,2.086899 c 0.450894,0.08268 1.07487,0.08379 1.94138,0.08379 l 0.5423961,0 z m 0,-4.960939 -1.446389,-2.4804684 -0.93045191,1.5941145 0,0.8863539 z m 0,0 2.8938799,0 L 3.9829438,3.7759616 z M 3.9829438,3.7759616 2.5354528,1.2954929 1.0890638,3.7759616 z m 0,0 2.8938811,0 -1.4474922,-2.4804687 z m 1.4463889,-2.4804687 -0.6636628,-1.136606 -1.5059211,0 c -0.02205,0 -0.03969,0 -0.06063,0 l -0.663662,1.136606 z m 0,0 2.8938811,0 -0.6636631,-1.136606 -1.5665549,0 z m 2.8938811,0 2.8938782,0 -0.663663,-1.136606 c -0.0882,0 -0.171979,0 -0.265686,0 l -1.3008661,0 z m 0,0 -1.4463889,2.4804687 2.8938799,0 z m 1.447491,2.4804687 2.8938792,0 -1.447492,-2.4804687 z m 0,0 -1.447491,2.4804684 2.8938782,0 z m 1.4463872,2.4804684 2.170686,0 0,-1.2402338 -0.723194,-1.2402346 z m 1.447492,-2.4804684 0.723194,0 0,-0.5170399 c 0,-0.2579689 -0.0022,-0.4938889 -0.0066,-0.71217 z M 8.3232138,6.25643 6.8768249,3.7759616 5.4293327,6.25643 z m 2.8938782,-4.9609371 2.062648,0 C 13.123195,0.5171768 12.747266,0.2713349 11.859809,0.1941647 z m -8.6816392,0 -0.650434,-1.1156598 C 0.85204089,0.2382621 0.43421989,0.46095271 0.26664989,1.2954929 z M 1.0890638,3.7759616 0.17514889,2.2083054 c -0.01213,0.3031685 -0.01654,0.6515363 -0.01654,1.0506163 l 0,0.5170399 z m 4.3402689,7.4414074 -1.26559,2.170684 2.532283,0 z m 2.8938811,0 -1.2655909,2.170684 2.5322838,0 z m -7.59133791,1.868619 -0.451996,-0.775009 c 0.08268,0.371519 0.221588,0.615157 0.451996,0.775009 z"/><g id="g28" fill="#eaeaea" transform="scale(1.04453 .95737)"><path id="path30" d="m 8.9162836,10.612434 -4.8634274,0 0,-0.8843941 3.7826724,-5.3062036 -3.782669,0 0,-0.884358 4.8634315,0 0,0.884358 -3.7826689,5.3062036 3.7826614,0 0,0.8843941"/></g></svg>