<svg xmlns="http://www.w3.org/2000/svg" xmlns:svg="http://www.w3.org/2000/svg" xmlns:xlink="http://www.w3.org/1999/xlink" id="svg2" width="48" height="48" version="1.1" viewBox="0 0 48 48"><metadata id="metadata40"/><defs id="defs4"><linearGradient id="0"><stop id="stop7" stop-color="#c3c3ba"/><stop id="stop9" offset="1" stop-color="#77756b"/></linearGradient><linearGradient id="1" x2="0" y1="1050.36" y2="1006.36" gradientTransform="translate(-48,-1052.3622)" gradientUnits="userSpaceOnUse" xlink:href="#0"/><radialGradient id="radialGradient3012" cx="148.004" cy="160" r="128" gradientTransform="matrix(0.05167489,0,0,0.05167489,-0.87510911,-1.4947611)" gradientUnits="userSpaceOnUse" spreadMethod="pad" xlink:href="#linearGradient4460"/><linearGradient id="linearGradient4460"><stop id="stop8-6" offset="0" stop-color="#747474" stop-opacity=".75"/><stop id="stop10-2" offset="1" stop-color="#2d2d2d" stop-opacity=".76"/></linearGradient><radialGradient id="radialGradient3009" cx="148.004" cy="160" r="128" gradientTransform="matrix(0.1831,0,0,0.1831,-3.100776,-5.296397)" gradientUnits="userSpaceOnUse" spreadMethod="pad" xlink:href="#linearGradient4460"/></defs><path id="path11" fill="url(#radialGradient3009)" fill-opacity="1" d="m 47.437012,11.547358 0,24.906249 c 0,10.25 0,10.984376 -10.984376,10.984376 l -24.902339,0 c -10.988282,0 -10.988282,-0.734376 -10.988282,-10.984376 l 0,-24.906249 c 0,-10.25 0,-10.984375 10.988282,-10.984375 l 24.902339,0 c 10.984376,0 10.984376,0.734375 10.984376,10.984375 z"/><path id="path15" fill="#fff" fill-opacity=".051" d="m 38.265137,47.437983 c 2.542967,-0.01169 4.378907,-0.08203 5.710935,-0.441408 l -4.230467,-7.249996 -4.484373,7.691404 1.191404,0 c 0.640626,0 1.242188,0 1.812501,0 z m 1.480468,-7.691404 -5.124996,-8.789065 -5.128905,8.789065 z m 0,0 7.652345,0 C 47.42913,38.77392 47.437,37.684077 47.437,36.449702 l 0,-1.097657 -2.562494,-4.394531 z m 5.128908,-8.789065 -5.128908,-8.789062 -5.124996,8.789062 z m 0,0 2.562499,0 0,-4.394531 z m -10.253904,0 -5.128905,-8.789062 -5.125,8.789062 z m -10.253905,0 -5.128908,8.789065 10.253908,0 z m 0,0 -5.128908,-8.789062 -5.125001,8.789062 z m -10.253909,0 -5.128905,8.789065 10.253906,0 z m 0,0 -5.128905,-8.789062 -5.125,8.789062 z m -10.253905,0 -3.296875,5.648437 c 0,1.16797 0.01169,2.210939 0.03905,3.140628 l 8.38281,0 z m 0,0 -3.296875,-5.648437 0,5.648437 z m 5.125,8.789065 -4.312502,7.394528 C 6.269044,47.434067 8.479982,47.438 11.550297,47.438 l 1.921875,0 z m 0,-17.578127 -5.125,-8.789063 -3.296875,5.648438 0,3.140625 z m 0,0 10.253906,0 -5.125001,-8.789063 z m 5.128905,-8.789063 -5.128905,-8.789062 -5.125,8.789062 z m 0,0 10.253909,0 -5.128908,-8.789062 z m 5.125001,-8.789062 -2.351562,-4.027344 -5.335937,0 c -0.07813,0 -0.140634,0 -0.214831,0 L 8.983904,4.590327 z m 0,0 10.253908,0 -2.351565,-4.027344 -5.550782,0 z m 10.253908,0 10.253901,0 -2.351562,-4.027344 c -0.31252,0 -0.609375,0 -0.941407,0 l -4.60937,0 z m 0,0 -5.125,8.789062 10.253905,0 z m 5.128905,8.789062 10.253904,0 -5.128908,-8.789062 z m 0,0 -5.128905,8.789063 10.253901,0 z m 5.124996,8.789063 7.691407,0 0,-4.394531 -2.562499,-4.394532 z m 5.128908,-8.789063 2.562499,0 0,-1.832031 c 0,-0.914063 -0.0078,-1.75 -0.02339,-2.523437 z m -15.382809,8.789063 -5.125,-8.789063 -5.128908,8.789063 z m 10.253901,-17.578125 7.308595,0 C 46.499513,1.832514 45.167481,0.961421 42.022948,0.687983 z m -30.761715,0 L 6.679203,0.637202 C 3.019046,0.844234 1.538578,1.633295 0.944826,4.590327 z M 3.85889,13.379389 0.62061,7.824702 C 0.57763,8.89892 0.562,10.133295 0.562,11.547358 l 0,1.832031 z m 15.378906,26.36719 -4.484374,7.691404 8.972656,0 z m 10.253908,0 -4.484377,7.691404 8.972656,0 z M 2.593265,46.36767 0.991704,43.621575 c 0.292961,1.316406 0.785155,2.17969 1.601561,2.746095 z"/><g id="g28" fill="#fff" transform="matrix(0.41892136,-0.41809011,0.41892136,0.41809011,-419.75633,-394.65657)"><path id="path30" d="m 20,11 c -3.878,0 -7,3.122 -7,7 0,3.878 3.122,7 7,7 l 18,0 c 3.878,0 7,-3.122 7,-7 0,-3.878 -3.122,-7 -7,-7 l -18,0 z m 0,1 c 3.313709,0 6,2.686291 6,6 0,3.313709 -2.686291,6 -6,6 -3.313709,0 -6,-2.686291 -6,-6 0,-3.313709 2.686291,-6 6,-6 z m 18,0 c 3.313709,0 6,2.686291 6,6 0,3.313709 -2.686291,6 -6,6 -3.313709,0 -6,-2.686291 -6,-6 0,-3.313709 2.686291,-6 6,-6 z" transform="translate(0,1004.3622)"/><path id="path32" d="m 20,1031.3622 c -3.878,0 -7,3.122 -7,7 0,3.878 3.122,7 7,7 l 18,0 c 3.878,0 7,-3.122 7,-7 0,-3.878 -3.122,-7 -7,-7 l -18,0 z m 0,1 c 3.313709,0 6,2.6863 6,6 0,3.3137 -2.686291,6 -6,6 -3.313709,0 -6,-2.6863 -6,-6 0,-3.3137 2.686291,-6 6,-6 z m 18,0 c 3.313709,0 6,2.6863 6,6 0,3.3137 -2.686291,6 -6,6 -3.313709,0 -6,-2.6863 -6,-6 0,-3.3137 2.686291,-6 6,-6 z"/></g><g id="g34" transform="matrix(0.93936981,0,0,0.93750586,1.4840152,-940.09652)"><path id="path36" fill="none" stroke="#fff" stroke-width="3.333" d="M 55,33 A 25,25 0 1 1 5,33 25,25 0 1 1 55,33 z" transform="matrix(0.6,0,0,0.6,6,1008.5622)"/></g></svg>