<svg xmlns="http://www.w3.org/2000/svg" xmlns:svg="http://www.w3.org/2000/svg" id="svg2" width="22" height="22" version="1.1" viewBox="0 0 6.209 6.209"><metadata id="metadata12"/><path id="path2984" fill="#000" fill-opacity="1" d="m 2.8222223,2.54 c -0.1516865,0 -0.2822222,0.1440592 -0.2822222,0.2819014 l 0,1.4095069 c 0,0.1453306 0.08804,0.2819014 0.2822222,0.2819014 l 0.8466659,0 8e-7,0.6729101 0.5644441,0 -1e-7,-0.6729101 0.8466672,0 c 0.1814704,0 0.2822222,-0.1225803 0.2822222,-0.2819014 l 0,-1.4095069 C 5.3622224,2.6825757 5.2514668,2.54 5.0800002,2.54 z m 0.5644444,0.5638029 1.1288889,0 c 0.1549948,0 0.2822223,0.1090621 0.2822223,0.2819013 l 1e-7,0.2819014 c 0,0.1428587 -0.1092193,0.2819013 -0.2822223,0.2819013 l -1.1288889,0 c -0.1750039,0 -0.2822223,-0.1170577 -0.2822223,-0.2819013 l -10e-8,-0.2819014 c 0,-0.156827 0.1178211,-0.2819013 0.2822223,-0.2819013 z m -0.5644444,1.9768389 0,0.5638028 2.2577779,0 0,-0.5638028 z" color="#000" opacity=".3"/><path id="path2986" fill="#000" fill-opacity="1" d="m 1.1288889,1.1253555 c -0.2822222,0 -0.2822222,0.2822222 -0.2822222,0.2822222 l 0,1.6933334 c 0,0 0,0.2822222 0.2822222,0.2822222 l 0.8466667,0 0,0.5581242 -0.8466667,0 0,0.5644444 1.1288889,0 0,-1.687013 -0.5644444,0 c -0.1553898,0 -0.2822222,-0.1302842 -0.2822222,-0.2822222 l 0,-0.5644445 C 1.4111112,1.8119149 1.5373179,1.6898 1.6933334,1.6898 l 1.1288889,0 c 0.169325,0 0.2822222,0.1198318 0.2822222,0.2822222 l 0,0.2822222 0.5644445,0 0,-0.8466667 c 0,-0.2822222 -0.2822222,-0.2822222 -0.2822222,-0.2822222 z" color="#000" opacity=".3"/><path id="path4" fill="#dedede" fill-opacity="1" d="m 2.8222223,2.2577778 c -0.1516865,0 -0.2822222,0.1440592 -0.2822222,0.2819014 l 0,1.4095069 c 0,0.1453306 0.08804,0.2819014 0.2822222,0.2819014 l 0.8466659,0 8e-7,0.6729101 0.5644441,0 -1e-7,-0.6729101 0.8466672,0 c 0.1814704,0 0.2822222,-0.1225803 0.2822222,-0.2819014 l 0,-1.4095069 c 0,-0.1393257 -0.1107556,-0.2819014 -0.2822222,-0.2819014 z m 0.5644444,0.5638029 1.1288889,0 c 0.1549948,0 0.2822223,0.1090621 0.2822223,0.2819013 l 1e-7,0.2819014 c 0,0.1428587 -0.1092193,0.2819013 -0.2822223,0.2819013 l -1.1288889,0 c -0.1750039,0 -0.2822223,-0.1170577 -0.2822223,-0.2819013 l -10e-8,-0.2819014 c 0,-0.156827 0.1178211,-0.2819013 0.2822223,-0.2819013 z m -0.5644444,1.9768389 0,0.5638028 2.2577779,0 0,-0.5638028 z" color="#000"/><path id="path6" fill="#dedede" fill-opacity="1" d="m 1.1288889,0.8431333 c -0.2822222,0 -0.2822222,0.2822222 -0.2822222,0.2822222 l 0,1.6933334 c 0,0 0,0.2822222 0.2822222,0.2822222 l 0.8466667,0 0,0.5581242 -0.8466667,0 0,0.5644444 1.1288889,0 0,-1.687013 -0.5644444,0 c -0.1553898,0 -0.2822222,-0.1302842 -0.2822222,-0.2822222 l 0,-0.5644445 c 0,-0.1601073 0.1262067,-0.2822222 0.2822222,-0.2822222 l 1.1288889,0 c 0.169325,0 0.2822222,0.1198318 0.2822222,0.2822222 l 0,0.2822222 0.5644445,0 0,-0.8466667 c 0,-0.2822222 -0.2822222,-0.2822222 -0.2822222,-0.2822222 z" color="#000"/></svg>