<svg xmlns="http://www.w3.org/2000/svg" xmlns:svg="http://www.w3.org/2000/svg" xmlns:xlink="http://www.w3.org/1999/xlink" id="svg2" width="22" height="22" version="1.1" viewBox="0 0 6.209 6.209"><metadata id="metadata32"/><defs id="defs4"><linearGradient id="linearGradient4460"><stop id="stop7" offset="0" stop-color="#f0f0f0"/><stop id="stop9" offset="1" stop-color="#f4f4f4"/></linearGradient><linearGradient id="linearGradient3824"><stop id="stop12" offset="0" stop-color="#2a94c8"/><stop id="stop14" offset=".519" stop-color="#e35472"/><stop id="stop16" offset="1" stop-color="#e68031"/></linearGradient><linearGradient id="linearGradient3835" x2="0" y1="279.096" y2="268.33" gradientTransform="matrix(1.09524,0,0,1.09524,-133.00183,-293.02198)" gradientUnits="userSpaceOnUse" xlink:href="#linearGradient4460"/><linearGradient id="linearGradient3830" x1=".847" x2="12.7" gradientTransform="matrix(0.38095236,0,0,0.38095236,0.524127,0.52413018)" gradientUnits="userSpaceOnUse" xlink:href="#linearGradient3824"/></defs><path style="line-height:normal" id="path3009" fill="#000" fill-opacity="1" d="m 3.1120464,1.1288889 c -1.2409622,0 -2.26537974,1.0094459 -2.26537974,2.2501758 0,1.2407056 1.02441444,2.2653798 2.26537974,2.2653798 1.2409653,0 2.2501759,-1.0246742 2.2501759,-2.2653798 0,-1.2407299 -1.009214,-2.2501758 -2.2501759,-2.2501758 z m 0,0.4409128 c 1.0021607,0 1.8092628,0.8073192 1.8092628,1.809263 0,1.0019096 -0.8071052,1.8244667 -1.8092628,1.8244667 -1.0021578,0 -1.8244669,-0.8225571 -1.8244669,-1.8244667 0,-1.0019438 0.8223059,-1.809263 1.8244669,-1.809263 z" color="#000" opacity=".3"/><path id="path26" fill="#dedede" fill-opacity="1" d="m 3.1120464,0.84667134 c -1.2409622,0 -2.26537974,1.00944596 -2.26537974,2.25017586 0,1.2407056 1.02441444,2.2653798 2.26537974,2.2653798 1.2409653,0 2.2501759,-1.0246742 2.2501759,-2.2653798 0,-1.2407299 -1.009214,-2.25017586 -2.2501759,-2.25017586 z m 0,0.44091286 c 1.0021607,0 1.8092628,0.8073192 1.8092628,1.809263 0,1.0019096 -0.8071052,1.8244667 -1.8092628,1.8244667 -1.0021578,0 -1.8244669,-0.8225571 -1.8244669,-1.8244667 0,-1.0019438 0.8223059,-1.809263 1.8244669,-1.809263 z" color="#000" style="line-height:normal"/><path id="path3011" fill="#000" fill-opacity="1" d="m 2.54,2.257772 0,2.2577789 1.6933334,-1.128887 z" opacity=".3"/><path id="path28" fill="#dedede" fill-opacity="1" d="m 2.54,1.9755545 0,2.2577789 1.6933334,-1.128887 z"/></svg>