<svg xmlns="http://www.w3.org/2000/svg" xmlns:svg="http://www.w3.org/2000/svg" xmlns:xlink="http://www.w3.org/1999/xlink" id="svg2" width="22" height="22" version="1.1" viewBox="0 0 22 22"><metadata id="metadata12"/><defs id="defs4"><linearGradient id="linearGradient3015" x2="0" y1="279.096" y2="268.33" gradientTransform="matrix(1.10525,0,0,1.10525,-134.27874,-295.76183)" gradientUnits="userSpaceOnUse" xlink:href="#linearGradient4460"/><linearGradient id="linearGradient4460"><stop id="stop7" offset="0" stop-color="#ffce7b" stop-opacity="1"/><stop id="stop9" offset="1" stop-color="#ffce7b" stop-opacity="1"/></linearGradient><linearGradient id="linearGradient3789" x2="0" y1="16" y2="3" gradientUnits="userSpaceOnUse" xlink:href="#linearGradient3776"/><linearGradient id="linearGradient3776"><stop id="stop3826" offset="0" stop-color="#e2a209"/><stop id="stop3828" offset="1" stop-color="#f0b70b"/></linearGradient><linearGradient id="linearGradient4486" x1="312" x2="305.777" y1="250.228" y2="241.037" gradientUnits="userSpaceOnUse" xlink:href="#linearGradient3888"/><linearGradient id="linearGradient4347" x1="312" x2="305.777" y1="250.228" y2="241.037" gradientUnits="userSpaceOnUse" xlink:href="#linearGradient3888"/><linearGradient id="linearGradient4345" x1="312" x2="305.777" y1="250.228" y2="241.037" gradientUnits="userSpaceOnUse" xlink:href="#linearGradient3888"/><linearGradient id="linearGradient4343" x1="312" x2="305.777" y1="250.228" y2="241.037" gradientUnits="userSpaceOnUse" xlink:href="#linearGradient3888"/><linearGradient id="linearGradient4341" x1="312" x2="305.777" y1="250.228" y2="241.037" gradientUnits="userSpaceOnUse" xlink:href="#linearGradient3888"/><linearGradient id="linearGradient4339" x1="312" x2="305.777" y1="250.228" y2="241.037" gradientUnits="userSpaceOnUse" xlink:href="#linearGradient3888"/><linearGradient id="linearGradient4337" x1="312" x2="305.777" y1="250.228" y2="241.037" gradientUnits="userSpaceOnUse" xlink:href="#linearGradient3888"/><linearGradient id="linearGradient4335" x1="312" x2="305.777" y1="250.228" y2="241.037" gradientUnits="userSpaceOnUse" xlink:href="#linearGradient3888"/><linearGradient id="linearGradient4333" x1="352" x2="352" y1="204" y2="140" gradientUnits="userSpaceOnUse" xlink:href="#outerBackgroundGradient"/><linearGradient id="linearGradient4331" x1="384" x2="384" y1="124" y2="28" gradientUnits="userSpaceOnUse" xlink:href="#outerBackgroundGradient"/><linearGradient id="linearGradient4329" x1="281.143" x2="281.143" y1="297.143" y2="22.857" gradientTransform="matrix(0.175,0,0,-0.175,286.79999,-215.99997)" gradientUnits="userSpaceOnUse" xlink:href="#outerBackgroundGradient"/><linearGradient id="linearGradient4327" x1="283.81" x2="283.81" y1="299.81" y2="31.619" gradientTransform="matrix(0.11931818,0,0,0.11931818,414.13636,48.22727)" gradientUnits="userSpaceOnUse" xlink:href="#outerBackgroundGradient"/><linearGradient id="linearGradient4325" x1="286.857" x2="286.857" y1="302.857" y2="28.571" gradientTransform="matrix(0.0875,0,0,0.0875,414.9,97.5)" gradientUnits="userSpaceOnUse" xlink:href="#outerBackgroundGradient"/><linearGradient id="linearGradient4323" x1="264" x2="264" y1="280" y2="40" gradientTransform="matrix(0.06666667,0,0,0.06666667,414.4,137.33333)" gradientUnits="userSpaceOnUse" xlink:href="#outerBackgroundGradient"/><linearGradient id="linearGradient4321" x1="272" x2="272" y1="288" y2="32" gradientTransform="translate(0,-4)" gradientUnits="userSpaceOnUse" xlink:href="#outerBackgroundGradient"/><linearGradient id="linearGradient3888"><stop id="stop3890" offset="0" stop-color="#f4a773" stop-opacity="1"/><stop id="stop3892" offset="1" stop-color="#fff" stop-opacity="1"/></linearGradient><linearGradient id="outerBackgroundGradient"><stop id="stop3864-8-6" offset="0" stop-color="#2f7474" stop-opacity="1"/><stop id="stop3866-9-1" offset="1" stop-color="#75b4b4" stop-opacity="1"/></linearGradient><linearGradient id="linearGradient4097" x1="264" x2="264" y1="280" y2="40" gradientTransform="matrix(0.06666667,0,0,0.06666667,414.4,137.33333)" gradientUnits="userSpaceOnUse" xlink:href="#outerBackgroundGradient"/><linearGradient id="linearGradient4101" x1="286.857" x2="286.857" y1="302.857" y2="28.571" gradientTransform="matrix(0.0875,0,0,0.0875,414.9,97.5)" gradientUnits="userSpaceOnUse" xlink:href="#outerBackgroundGradient"/><linearGradient id="linearGradient4153" x1="283.81" x2="283.81" y1="299.81" y2="31.619" gradientTransform="matrix(0.11931818,0,0,0.11931818,414.13636,48.22727)" gradientUnits="userSpaceOnUse" xlink:href="#outerBackgroundGradient"/><linearGradient id="linearGradient4869" x1="281.143" x2="281.143" y1="297.143" y2="22.857" gradientTransform="matrix(0.175,0,0,-0.175,286.79999,-215.99997)" gradientUnits="userSpaceOnUse" xlink:href="#outerBackgroundGradient"/><clipPath id="clipPath4891" clipPathUnits="userSpaceOnUse"><rect id="rect4893" width="42" height="42" x="307" y="223" fill="url(#linearGradient4895)" fill-opacity="1" fill-rule="nonzero" stroke="none" stroke-width="0" color="#bebebe" display="inline" enable-background="accumulate" overflow="visible" ry="9" transform="matrix(0,1,-1,0,0,0)" visibility="visible" style="marker:none"/></clipPath><linearGradient id="linearGradient4895" x1="144" x2="144" y1="280" y2="40" gradientTransform="matrix(0.175,0,0,0.175,302.79999,215.99997)" gradientUnits="userSpaceOnUse" xlink:href="#outerBackgroundGradient"/><clipPath id="clipPath4044" clipPathUnits="userSpaceOnUse"><rect id="rect4046" width="22" height="22" x="433" y="85" fill="url(#linearGradient4048)" fill-opacity="1" fill-rule="nonzero" stroke="none" stroke-width="0" color="#bebebe" display="inline" enable-background="accumulate" overflow="visible" ry="4" visibility="visible" style="marker:none"/></clipPath><linearGradient id="linearGradient4048" x1="149.714" x2="149.714" y1="291.429" y2="40" gradientTransform="matrix(0.0875,0,0,0.0875,430.9,81.499996)" gradientUnits="userSpaceOnUse" xlink:href="#outerBackgroundGradient"/><clipPath id="clipPath4089" clipPathUnits="userSpaceOnUse"><rect id="rect4091" width="30" height="30" x="433" y="37" fill="url(#linearGradient4093)" fill-opacity="1" fill-rule="nonzero" stroke="none" stroke-width="0" color="#bebebe" display="inline" enable-background="accumulate" overflow="visible" ry="6" visibility="visible" style="marker:none"/></clipPath><linearGradient id="linearGradient4093" x1="149.714" x2="149.714" y1="291.429" y2="40" gradientTransform="matrix(0.11931818,0,0,0.11931818,430.13636,32.227267)" gradientUnits="userSpaceOnUse" xlink:href="#outerBackgroundGradient"/><clipPath id="clipPath3855" clipPathUnits="userSpaceOnUse"><rect id="rect3857" width="16" height="16" x="304" y="212" fill="url(#linearGradient3859)" fill-opacity="1" fill-rule="nonzero" stroke="none" stroke-width="0" color="#bebebe" display="inline" enable-background="accumulate" overflow="visible" ry="3" transform="matrix(0,1,-1,0,0,0)" visibility="visible" style="marker:none"/></clipPath><linearGradient id="linearGradient3859" x1="144" x2="144" y1="280" y2="40" gradientTransform="matrix(0.06666667,0,0,0.06666667,302.4,209.33333)" gradientUnits="userSpaceOnUse" xlink:href="#outerBackgroundGradient"/><clipPath id="clipPath3862" clipPathUnits="userSpaceOnUse"><rect id="rect3864" width="220" height="220" x="34" y="46" fill="url(#linearGradient3866)" fill-opacity="1" fill-rule="nonzero" stroke="none" stroke-width="0" color="#bebebe" display="inline" enable-background="accumulate" overflow="visible" ry="50" visibility="visible" style="marker:none"/></clipPath><linearGradient id="linearGradient3866" x1="144" x2="144" y1="280" y2="40" gradientTransform="translate(0,-4)" gradientUnits="userSpaceOnUse" xlink:href="#outerBackgroundGradient"/><linearGradient id="linearGradient3876" x1="272" x2="272" y1="288" y2="32" gradientTransform="translate(0,-4)" gradientUnits="userSpaceOnUse" xlink:href="#outerBackgroundGradient"/><clipPath id="clipPath4187" clipPathUnits="userSpaceOnUse"><rect id="rect4189" width="60" height="60" x="290" y="142" fill="url(#linearGradient4191)" fill-opacity="1" fill-rule="nonzero" stroke="none" stroke-width="0" color="#bebebe" display="inline" enable-background="accumulate" overflow="visible" ry="12.5" visibility="visible" style="marker:none"/></clipPath><linearGradient id="linearGradient4191" x1="352" x2="352" y1="204" y2="140" gradientUnits="userSpaceOnUse" xlink:href="#outerBackgroundGradient"/><linearGradient id="linearGradient4197" x1="384" x2="384" y1="124" y2="28" gradientUnits="userSpaceOnUse" xlink:href="#outerBackgroundGradient"/><linearGradient id="linearGradient4199" x1="352" x2="352" y1="204" y2="140" gradientUnits="userSpaceOnUse" xlink:href="#outerBackgroundGradient"/><clipPath id="clipPath4346" clipPathUnits="userSpaceOnUse"><rect id="rect4348" width="88" height="88" x="292" y="32" fill="url(#linearGradient4350)" fill-opacity="1" fill-rule="nonzero" stroke="none" stroke-width="0" color="#bebebe" display="inline" enable-background="accumulate" overflow="visible" ry="18" visibility="visible" style="marker:none"/></clipPath><linearGradient id="linearGradient4350" x1="384" x2="384" y1="124" y2="28" gradientUnits="userSpaceOnUse" xlink:href="#outerBackgroundGradient"/><clipPath id="clipPath3871" clipPathUnits="userSpaceOnUse"><rect id="rect3873" width="22" height="22" x="417" y="101" fill="url(#linearGradient3875)" fill-opacity="1" fill-rule="nonzero" stroke="none" stroke-width="0" color="#bebebe" display="inline" enable-background="accumulate" overflow="visible" ry="5" visibility="visible" style="marker:none"/></clipPath><linearGradient id="linearGradient3875" x1="286.857" x2="286.857" y1="302.857" y2="28.571" gradientTransform="matrix(0.0875,0,0,0.0875,414.9,97.5)" gradientUnits="userSpaceOnUse" xlink:href="#outerBackgroundGradient"/><clipPath id="clipPath3881" clipPathUnits="userSpaceOnUse"><rect id="rect3883" width="30" height="30" x="417" y="53" fill="url(#linearGradient3885)" fill-opacity="1" fill-rule="nonzero" stroke="none" stroke-width="0" color="#bebebe" display="inline" enable-background="accumulate" overflow="visible" ry="7" visibility="visible" style="marker:none"/></clipPath><linearGradient id="linearGradient3885" x1="283.81" x2="283.81" y1="299.81" y2="31.619" gradientTransform="matrix(0.11931818,0,0,0.11931818,414.13636,48.22727)" gradientUnits="userSpaceOnUse" xlink:href="#outerBackgroundGradient"/><radialGradient id="radialGradient3585" cx="6.501" cy="-41.631" r="20" fx="6.501" fy="-41.631" gradientTransform="matrix(0,5.7730127,-6.1071589,-1.5713252e-7,-190.00656,-96.373743)" gradientUnits="userSpaceOnUse" xlink:href="#linearGradient2867-449-88-871-390-598-476-591-434-148-57-177-3-8-8-5-3"/><linearGradient id="linearGradient3894" x1="312" x2="305.777" y1="250.228" y2="241.037" gradientUnits="userSpaceOnUse" xlink:href="#linearGradient3888"/><linearGradient id="linearGradient3938" x1="312" x2="305.777" y1="250.228" y2="241.037" gradientUnits="userSpaceOnUse" xlink:href="#linearGradient3888"/><linearGradient id="linearGradient3966" x1="312" x2="305.777" y1="250.228" y2="241.037" gradientUnits="userSpaceOnUse" xlink:href="#linearGradient3888"/><linearGradient id="linearGradient3994" x1="312" x2="305.777" y1="250.228" y2="241.037" gradientUnits="userSpaceOnUse" xlink:href="#linearGradient3888"/><linearGradient id="linearGradient4022" x1="312" x2="305.777" y1="250.228" y2="241.037" gradientUnits="userSpaceOnUse" xlink:href="#linearGradient3888"/><linearGradient id="linearGradient4050" x1="312" x2="305.777" y1="250.228" y2="241.037" gradientUnits="userSpaceOnUse" xlink:href="#linearGradient3888"/><linearGradient id="linearGradient4078" x1="312" x2="305.777" y1="250.228" y2="241.037" gradientUnits="userSpaceOnUse" xlink:href="#linearGradient3888"/><linearGradient id="linearGradient3802" x2="0" y1="279.096" y2="268.33" gradientTransform="matrix(1.10525,0,0,1.10525,-134.27874,-295.76183)" gradientUnits="userSpaceOnUse" xlink:href="#linearGradient4460-6"/><linearGradient id="linearGradient3002" x2="0" y1="279.096" y2="268.33" gradientTransform="matrix(1.10525,0,0,1.10525,-134.27874,-295.76183)" gradientUnits="userSpaceOnUse" xlink:href="#linearGradient4460-6"/><linearGradient id="linearGradient4460-6"><stop id="stop7-2" offset="0" stop-color="#502c5a" stop-opacity="1"/><stop id="stop9-4" offset="1" stop-color="#7f5c86" stop-opacity="1"/></linearGradient></defs><rect id="rect4128" width="16" height="16" x="3" y="4" fill="#000" fill-opacity="1" fill-rule="evenodd" opacity=".3" rx="7.999"/><rect id="rect16" width="16" height="16" x="3" y="3" fill="#dcdcdc" fill-opacity="1" fill-rule="evenodd" rx="7.999"/><path id="path3001" fill="#999" fill-opacity="1" stroke="none" d="m -40.474576,16.474577 a 3.6610169,10.169492 0 1 1 -7.322034,0 3.6610169,10.169492 0 1 1 7.322034,0 z" transform="matrix(0.33050925,-0.12608792,0.05500698,0.16230546,21.442595,-0.09632735)"/><path id="path3774" fill="#2d2d2d" fill-opacity="1" stroke="none" d="m 6.5002387,8.4166446 c 0.01566,0.06293 0.03005,0.124678 0.05135,0.187517 0.308944,0.911581 1.101128,1.4438944 1.769393,1.188954 0.668264,-0.25494 0.95955,-1.200592 0.650606,-2.112174 -0.0213,-0.06284 -0.04727,-0.120172 -0.07296,-0.179274 0.211586,0.849908 -0.07976,1.68729 -0.701958,1.924657 -0.622198,0.237365 -1.349442,-0.211429 -1.696435,-1.00968 z" opacity="1"/><path id="path3778" fill="#f9f9f9" fill-opacity="1" stroke="none" d="m 18.617491,16.540194 a 0.67358655,0.62941694 0 1 1 -1.347173,0 0.67358655,0.62941694 0 1 1 1.347173,0 z" transform="matrix(1.0644278,-0.38273973,0.40959866,1.1391245,-17.922554,-3.6406684)"/><path id="path3782" fill="#2d2d2d" fill-opacity="1" stroke="none" d="m 18.617491,16.540194 a 0.67358655,0.62941694 0 1 1 -1.347173,0 0.67358655,0.62941694 0 1 1 1.347173,0 z" transform="matrix(0.53221392,-0.19136987,0.20479934,0.56956225,-4.9851373,2.3460786)"/><path id="path3784" fill="#dcdcdc" fill-opacity="1" stroke="none" d="m 18.617491,16.540194 a 0.67358655,0.62941694 0 1 1 -1.347173,0 0.67358655,0.62941694 0 1 1 1.347173,0 z" transform="matrix(0.26610695,-0.09568494,0.10239966,0.28478112,1.6440037,5.4216006)"/><path id="path3786" fill="#999" fill-opacity="1" stroke="none" d="m -40.474576,16.474577 a 3.6610169,10.169492 0 1 1 -7.322034,0 3.6610169,10.169492 0 1 1 7.322034,0 z" transform="matrix(0.27271467,-0.11590739,0.05449804,0.12426038,25.186831,0.97977365)"/><path id="path3792" fill="#2d2d2d" fill-opacity="1" stroke="none" d="m 12.918007,7.7020636 c -0.0375,0.269764 0.0029,0.57716 0.13087,0.869072 0.306085,0.697903 1.007123,1.067713 1.558531,0.833357 0.422784,-0.179689 0.631484,-0.670784 0.571065,-1.202415 -0.05216,0.37519 -0.250294,0.685119 -0.571065,0.821452 -0.551408,0.234356 -1.252446,-0.135454 -1.558532,-0.833357 -0.0714,-0.162797 -0.112487,-0.32637 -0.130869,-0.488109 z" opacity="1"/><path id="path3795" fill="#f9f9f9" fill-opacity="1" stroke="none" d="m 18.617491,16.540194 a 0.67358655,0.62941694 0 1 1 -1.347173,0 0.67358655,0.62941694 0 1 1 1.347173,0 z" transform="matrix(0.84779766,0,0,0.90789528,-1.1645603,-7.0646933)"/><path id="path3797" fill="#2d2d2d" fill-opacity="1" stroke="none" d="m 18.617491,16.540194 a 0.67358655,0.62941694 0 1 1 -1.347173,0 0.67358655,0.62941694 0 1 1 1.347173,0 z" transform="matrix(0.42389883,0,0,0.45394764,6.4418397,0.44368865)"/><path id="path3799" fill="#dcdcdc" fill-opacity="1" stroke="none" d="m 18.617491,16.540194 a 0.67358655,0.62941694 0 1 1 -1.347173,0 0.67358655,0.62941694 0 1 1 1.347173,0 z" transform="matrix(0.21194942,0,0,0.22697382,10.337359,4.2965696)"/><g id="layer6" fill="#2d2d2d" fill-opacity="1" display="inline" transform="matrix(0.38096311,0,0,0.38096311,13.326952,-72.988769)"><path id="path3972" fill="#2d2d2d" fill-opacity="1" stroke="none" d="m -1.9149243,222.66303 c -0.94645,3.50487 -1.65315,4.80069 -4.19376,4.80069 -2.7008198,0 -3.9544497,-1.46917 -4.1940897,-4.80081 3.0075197,-0.87465 5.3182197,-0.90935 8.3878497,1.2e-4 z" display="inline" enable-background="new"/><path id="path3986" fill="#2d2d2d" fill-opacity="1" stroke="none" d="m -11.108664,222.4518 c 0,0 0.11567,-1.64438 2.0673999,-3.41378 1.9517298,-1.7694 2.7598198,-1.59066 3.1000598,-1.54598 0.0228,2.01728 -0.13483,7.86834 -0.16748,9.97168 -1.60681,-0.8358 -3.2385898,-4.12418 -4.9999797,-5.01192 z" display="inline" enable-background="new"/><path id="path3988" fill="#2d2d2d" fill-opacity="1" stroke="none" d="m -5.9252543,217.46411 c 0.46231,0.0138 1.28475,0.24801 2.74854,1.57505 1.95173,1.76939 2.06805,3.41264 2.06805,3.41264 -1.63368,0.82018 -3.3932,4.17612 -5.00002,5.01192 -0.0435,-2.11839 -0.0451,-7.86413 -0.0451,-9.98287 0.0654,-0.007 0.13766,-0.0195 0.2286,-0.0167 z" display="inline" enable-background="new"/></g></svg>