<svg xmlns="http://www.w3.org/2000/svg" xmlns:svg="http://www.w3.org/2000/svg" xmlns:xlink="http://www.w3.org/1999/xlink" id="svg2" width="22" height="22" version="1.1" viewBox="0 0 6.209 6.209"><metadata id="metadata12"/><defs id="defs4"><linearGradient id="linearGradient3846" x2="0" y1="279.096" y2="268.33" gradientTransform="matrix(1.09524,0,0,1.09524,-133.00183,-293.02198)" gradientUnits="userSpaceOnUse"><stop id="stop9" offset="0" stop-color="#dcdcdc"/><stop id="stop11" offset="1" stop-color="#f8f8f8"/></linearGradient><linearGradient id="linearGradient3012" x2="0" y1="279.096" y2="268.33" gradientTransform="matrix(1.09524,0,0,1.09524,-122.93044,-296.61781)" gradientUnits="userSpaceOnUse" xlink:href="#linearGradient3846"/></defs><g id="g3789" fill="#000" fill-opacity="1" opacity=".3" transform="translate(0,0.28222232)"><path id="path3785" fill="#000" fill-opacity="1" stroke="none" d="M 2.8222223,0.84666668 C 2.6307023,0.84666668 2.54,0.8928494 2.54,1.0728383 l 0,3.1604951 c 0,0.1799892 0.2935508,0.3762965 0.4850708,0.3762965 l 0.15875,0 c 0.191518,0 0.4850681,-0.1376035 0.4850682,-0.3175925 l 0,-0.9053707 -0.5644445,0 1.3e-6,-0.2822222 0.5644445,0 0,-0.2822222 -0.5644445,0 0.00193,-0.2822223 0.5644444,0 -0.00193,-0.2822222 -0.5644445,0 0,-0.2822222 0.5644445,0 0.00193,-0.2822222 -0.5663748,0 0,-0.2822223 0.5644458,0 -2.2e-6,-0.2622844 C 3.6688874,0.9688378 3.5781847,0.84666668 3.3866667,0.84666668 z"/><path id="path3787" fill="#000" fill-opacity="1" stroke="none" d="m 27.299434,28.429379 c 0,1.273063 -1.497443,2.305084 -3.344632,2.305084 -1.84719,0 -3.344633,-1.032021 -3.344633,-2.305084 0,-1.273064 1.497443,-2.305085 3.344633,-2.305085 1.847189,0 3.344632,1.032021 3.344632,2.305085 z" transform="matrix(0.25314189,0,0,0.36730393,-2.9595192,-5.9266669)"/></g><path id="rect3010" fill="#dcdcdc" fill-opacity="1" stroke="none" d="M 2.8222223,0.84666668 C 2.6307023,0.84666668 2.54,0.8928494 2.54,1.0728383 l 0,3.1604951 c 0,0.1799892 0.2935508,0.3762965 0.4850708,0.3762965 l 0.15875,0 c 0.191518,0 0.4850681,-0.1376035 0.4850682,-0.3175925 l 0,-0.9053707 -0.5644445,0 1.3e-6,-0.2822222 0.5644445,0 0,-0.2822222 -0.5644445,0 0.00193,-0.2822223 0.5644444,0 -0.00193,-0.2822222 -0.5644445,0 0,-0.2822222 0.5644445,0 0.00193,-0.2822222 -0.5663748,0 0,-0.2822223 0.5644458,0 -2.2e-6,-0.2622844 C 3.6688874,0.9688378 3.5781847,0.84666668 3.3866667,0.84666668 z"/><path id="path3008" fill="#dcdcdc" fill-opacity="1" stroke="none" d="m 27.299434,28.429379 a 3.3446329,2.3050847 0 1 1 -6.689265,0 3.3446329,2.3050847 0 1 1 6.689265,0 z" transform="matrix(0.25314189,0,0,0.36730393,-2.9595192,-5.9266669)"/></svg>