<svg xmlns="http://www.w3.org/2000/svg" xmlns:svg="http://www.w3.org/2000/svg" xmlns:xlink="http://www.w3.org/1999/xlink" id="svg2" width="22" height="22" version="1.1" viewBox="0 0 6.209 6.209"><metadata id="metadata12"/><defs id="defs4"><linearGradient id="linearGradient3942-9"><stop id="stop3944-9" offset="0" stop-color="#ff6f00" stop-opacity="1"/><stop id="stop3946-1" offset="1" stop-color="#ff6f0b" stop-opacity="1"/></linearGradient><linearGradient id="linearGradient3179" x1="3.275" x2="10.262" y1="289.649" y2="289.649" gradientUnits="userSpaceOnUse" xlink:href="#linearGradient3942-9"/><linearGradient id="linearGradient3196"><stop id="stop3198" offset="0" stop-color="#ff6f00" stop-opacity="1"/><stop id="stop3200" offset="1" stop-color="#ff6f0b" stop-opacity="1"/></linearGradient><linearGradient id="linearGradient3203"><stop id="stop3205" offset="0" stop-color="#ff6f00" stop-opacity="1"/><stop id="stop3207" offset="1" stop-color="#ff6f0b" stop-opacity="1"/></linearGradient><linearGradient id="linearGradient3210"><stop id="stop3212" offset="0" stop-color="#ff6f00" stop-opacity="1"/><stop id="stop3214" offset="1" stop-color="#ff6f0b" stop-opacity="1"/></linearGradient><radialGradient id="radialGradient4229-8" cx="328" cy="255.416" r="7" gradientTransform="matrix(1.22449 0 0 1.22449 49.7555 -179.34296)" gradientUnits="userSpaceOnUse" xlink:href="#linearGradient4126-5-6"/><radialGradient id="radialGradient4225-7" cx="328" cy="255.416" r="7" gradientTransform="matrix(2.85714 0 0 2.85714 -609.14349 -473.66662)" gradientUnits="userSpaceOnUse" xlink:href="#linearGradient4126-5-5"/><radialGradient id="radialGradient4229-9" cx="328" cy="255.416" r="7" gradientTransform="matrix(1.22449 0 0 1.22449 49.7555 -179.34296)" gradientUnits="userSpaceOnUse" xlink:href="#linearGradient4126-5-5"/><radialGradient id="radialGradient4250" cx="328" cy="255.416" r="7" gradientTransform="matrix(2.85714 0 0 2.85714 -609.14349 -473.66662)" gradientUnits="userSpaceOnUse" xlink:href="#linearGradient4126-5"/><radialGradient id="radialGradient4225-6" cx="328" cy="255.416" r="7" gradientTransform="matrix(2.85714 0 0 2.85714 -609.14349 -473.66662)" gradientUnits="userSpaceOnUse" xlink:href="#linearGradient4126-5-6"/><radialGradient id="radialGradient4279" cx="328" cy="255.416" r="7" gradientTransform="matrix(1.22449 0 0 1.22449 49.7555 -179.34296)" gradientUnits="userSpaceOnUse" xlink:href="#linearGradient4126-5"/><linearGradient id="linearGradient4126-5"><stop id="stop3374" offset="0" stop-color="#eaba31"/><stop id="stop3376" offset="1" stop-color="#ff9200"/></linearGradient><linearGradient id="linearGradient4174-3"><stop id="stop3369" offset="0" stop-color="#818181"/><stop id="stop3371" offset="1" stop-color="#c5c5c5"/></linearGradient><linearGradient id="linearGradient4227-3" x2="0" y1="140" y2="124" gradientUnits="userSpaceOnUse" xlink:href="#linearGradient4174-3"/><linearGradient id="outerBackgroundGradient"><stop id="stop3363" offset="0" stop-color="#f0f0f0"/><stop id="stop3365" offset="1" stop-color="#f8f8f8"/></linearGradient><linearGradient id="linearGradient4377" x2="0" y1="107" y2="85" gradientUnits="userSpaceOnUse" xlink:href="#linearGradient4174"/><linearGradient id="linearGradient4203-4" x2="0" y1="107" y2="85" gradientUnits="userSpaceOnUse" xlink:href="#linearGradient4174-3"/><linearGradient id="linearGradient4174"><stop id="stop3356" offset="0" stop-color="#818181"/><stop id="stop3358" offset="1" stop-color="#c5c5c5"/></linearGradient><linearGradient id="linearGradient4825" x2="0" y1="230" y2="90" gradientTransform="matrix(.375 0 0 .375 298 16)" gradientUnits="userSpaceOnUse" xlink:href="#outerBackgroundGradient"/><linearGradient id="linearGradient4296-69" x2="0" y1="140" y2="124" gradientTransform="translate(11.38843 1.3713)" gradientUnits="userSpaceOnUse" xlink:href="#linearGradient4174-6"/><linearGradient id="linearGradient4863-4" x2="0" y1="230" y2="90" gradientTransform="matrix(.25 0 0 .25 299.99999 131.99999)" gradientUnits="userSpaceOnUse" xlink:href="#outerBackgroundGradient-77"/><linearGradient id="linearGradient4895-2" x2="0" y1="280" y2="40" gradientTransform="matrix(.175 0 0 .175 302.79999 215.99997)" gradientUnits="userSpaceOnUse" xlink:href="#outerBackgroundGradient-77"/><linearGradient id="linearGradient4624" x1=".838" x2="12.691" gradientTransform="translate(-13.53783,-0.01017)" gradientUnits="userSpaceOnUse" xlink:href="#linearGradient4159"/><linearGradient id="outerBackgroundGradient-77"><stop id="stop3346" offset="0" stop-color="#f0f0f0"/><stop id="stop3348" offset="1" stop-color="#f8f8f8"/></linearGradient><linearGradient id="linearGradient4344" x2="0" y1="273" y2="231" gradientTransform="matrix(5.71429 0 0 5.71429 -1730.2857 -1284)" gradientUnits="userSpaceOnUse" xlink:href="#linearGradient4174"/><linearGradient id="linearGradient4344-1" x2="0" y1="273" y2="231" gradientTransform="matrix(5.71429 0 0 5.71429 -1730.2857 -1284)" gradientUnits="userSpaceOnUse" xlink:href="#linearGradient4174-6"/><linearGradient id="linearGradient4825-6" x2="0" y1="230" y2="90" gradientTransform="matrix(.375 0 0 .375 298 16)" gradientUnits="userSpaceOnUse" xlink:href="#outerBackgroundGradient-77"/><linearGradient id="linearGradient4326-13" x2="0" y1="273" y2="231" gradientTransform="translate(0 4.09376)" gradientUnits="userSpaceOnUse" xlink:href="#linearGradient4174-6"/><linearGradient id="linearGradient4159"><stop id="stop3337" offset="0" stop-color="#0f498f"/><stop id="stop3339" offset="1" stop-color="#1564c5"/></linearGradient><linearGradient id="linearGradient4227-4" x2="0" y1="140" y2="124" gradientUnits="userSpaceOnUse" xlink:href="#linearGradient4174-6"/><linearGradient id="linearGradient4863" x2="0" y1="230" y2="90" gradientTransform="matrix(.25 0 0 .25 299.99999 131.99999)" gradientUnits="userSpaceOnUse" xlink:href="#outerBackgroundGradient"/><linearGradient id="linearGradient4174-6"><stop id="stop3330" offset="0" stop-color="#818181"/><stop id="stop3332" offset="1" stop-color="#c5c5c5"/></linearGradient><linearGradient id="outerBackgroundGradient-7"><stop id="stop3325" offset="0" stop-color="#f0f0f0"/><stop id="stop3327" offset="1" stop-color="#f8f8f8"/></linearGradient><linearGradient id="linearGradient4825-8" x2="0" y1="230" y2="90" gradientTransform="matrix(.375 0 0 .375 298 16)" gradientUnits="userSpaceOnUse" xlink:href="#outerBackgroundGradient-7"/><linearGradient id="linearGradient4203-6" x2="0" y1="107" y2="85" gradientUnits="userSpaceOnUse" xlink:href="#linearGradient4174-6"/><linearGradient id="linearGradient4895-0" x2="0" y1="280" y2="40" gradientTransform="matrix(.175 0 0 .175 302.79999 215.99997)" gradientUnits="userSpaceOnUse" xlink:href="#outerBackgroundGradient-7"/><linearGradient id="linearGradient4863-9" x2="0" y1="230" y2="90" gradientTransform="matrix(.25 0 0 .25 299.99999 131.99999)" gradientUnits="userSpaceOnUse" xlink:href="#outerBackgroundGradient-7"/><linearGradient id="linearGradient4344-8" x2="0" y1="273" y2="231" gradientTransform="matrix(5.71429 0 0 5.71429 -1730.2857 -1284)" gradientUnits="userSpaceOnUse" xlink:href="#linearGradient4174-3"/><linearGradient id="linearGradient4296" x2="0" y1="140" y2="124" gradientTransform="translate(11.38843 1.3713)" gradientUnits="userSpaceOnUse" xlink:href="#linearGradient4174"/><linearGradient id="linearGradient4895" x2="0" y1="280" y2="40" gradientTransform="matrix(.175 0 0 .175 302.79999 215.99997)" gradientUnits="userSpaceOnUse" xlink:href="#outerBackgroundGradient"/><linearGradient id="linearGradient4126-5-6"><stop id="stop3313" offset="0" stop-color="#eaba31"/><stop id="stop3315" offset="1" stop-color="#ff9200"/></linearGradient><linearGradient id="linearGradient4338" x2="0" y1="273" y2="231" gradientTransform="translate(0 4.09376)" gradientUnits="userSpaceOnUse" xlink:href="#linearGradient4174"/><linearGradient id="linearGradient4306" x2="0" y1="140" y2="124" gradientUnits="userSpaceOnUse" xlink:href="#linearGradient4174"/><linearGradient id="linearGradient4296-6" x2="0" y1="140" y2="124" gradientTransform="translate(11.38843 1.3713)" gradientUnits="userSpaceOnUse" xlink:href="#linearGradient4174-3"/><linearGradient id="linearGradient4326-1" x2="0" y1="273" y2="231" gradientTransform="translate(0 4.09376)" gradientUnits="userSpaceOnUse" xlink:href="#linearGradient4174-3"/><linearGradient id="linearGradient4126-5-5"><stop id="stop3304" offset="0" stop-color="#eaba31"/><stop id="stop3306" offset="1" stop-color="#ff9200"/></linearGradient><clipPath id="clipPath3299" clipPathUnits="userSpaceOnUse"><rect id="rect3301" width="30" height="30" x="433" y="29" color="#bebebe" rx="6"/></clipPath><clipPath id="clipPath3295" clipPathUnits="userSpaceOnUse"><rect id="rect3297" width="22" height="22" x="433" y="77" color="#bebebe" rx="4"/></clipPath><clipPath id="clipPath3291" clipPathUnits="userSpaceOnUse"><path id="path3293" d="m 328,238 c -7.73199,0 -14,6.26801 -14,14 0,7.73199 6.26801,14 14,14 7.73199,0 14,-6.26801 14,-14 0,-7.73199 -6.26801,-14 -14,-14 z m 0,8.75 c 2.89949,0 5.25,2.35051 5.25,5.25 0,2.89949 -2.35051,5.25 -5.25,5.25 -2.89949,0 -5.25,-2.35051 -5.25,-5.25 0,-2.89949 2.35051,-5.25 5.25,-5.25 z m 0,1.75 c -1.933,0 -3.5,1.567 -3.5,3.5 0,1.933 1.567,3.5 3.5,3.5 1.933,0 3.5,-1.567 3.5,-3.5 0,-1.933 -1.567,-3.5 -3.5,-3.5 z m 0,1.75 c 0.96649,0 1.75,0.78351 1.75,1.75 0,0.96649 -0.78351,1.75 -1.75,1.75 -0.96649,0 -1.75,-0.78351 -1.75,-1.75 0,-0.96649 0.78351,-1.75 1.75,-1.75 z" color="#bebebe" opacity=".2"/></clipPath><clipPath id="clipPath3287" clipPathUnits="userSpaceOnUse"><rect id="rect3289" width="240" height="240" x="24" y="36" fill="#986767" color="#bebebe" rx="50"/></clipPath><clipPath id="clipPath4112-5" clipPathUnits="userSpaceOnUse"><path id="path3285" d="m 328,242.09375 c -7.73199,0 -14,6.26801 -14,14 0,7.73199 6.26801,14 14,14 7.73199,0 14,-6.26801 14,-14 0,-7.73199 -6.26801,-14 -14,-14 z M 328,252 c 2.20914,0 4,1.79086 4,4 0,2.20914 -1.79086,4 -4,4 -2.20914,0 -4,-1.79086 -4,-4 0,-2.20914 1.79086,-4 4,-4 z m 0,1 c -1.65685,0 -3,1.34315 -3,3 0,1.65685 1.34315,3 3,3 1.65685,0 3,-1.34315 3,-3 0,-1.65685 -1.34315,-3 -3,-3 z m 0,1 c 1.10457,0 2,0.89543 2,2 0,1.10457 -0.89543,2 -2,2 -1.10457,0 -2,-0.89543 -2,-2 0,-1.10457 0.89543,-2 2,-2 z" color="#bebebe" opacity=".2"/></clipPath><clipPath id="clipPath3280" clipPathUnits="userSpaceOnUse"><rect id="rect3282" width="22" height="22" x="433" y="77" color="#bebebe" rx="5"/></clipPath><clipPath id="clipPath3276" clipPathUnits="userSpaceOnUse"><path id="path3278" fill="url(#linearGradient4203-4)" d="m 444,88 c -4.41828,0 -8,3.58172 -8,8 0,4.41828 3.58172,8 8,8 4.41828,0 8,-3.58172 8,-8 0,-4.41828 -3.58172,-8 -8,-8 z m 0,5 c 1.65685,0 3,1.34315 3,3 0,1.65685 -1.34315,3 -3,3 -1.65685,0 -3,-1.34315 -3,-3 0,-1.65685 1.34315,-3 3,-3 z m 0,1 c -1.10457,0 -2,0.89543 -2,2 0,1.10457 0.89543,2 2,2 1.10457,0 2,-0.89543 2,-2 0,-1.10457 -0.89543,-2 -2,-2 z m 0,1 c 0.55228,0 1,0.44772 1,1 0,0.55228 -0.44772,1 -1,1 -0.55228,0 -1,-0.44772 -1,-1 0,-0.55228 0.44772,-1 1,-1 z" color="#bebebe"/></clipPath><clipPath id="clipPath3272" clipPathUnits="userSpaceOnUse"><path id="path3274" fill="#b74049" d="m 328,256 15,11 0,-27 -15,0 z" clip-path="url(#clipPath4112-5)" opacity=".1"/></clipPath><clipPath id="clipPath3268" clipPathUnits="userSpaceOnUse"><path id="path3270" fill="url(#linearGradient4296-6)" d="m 451.38843,127.3713 c -3.31371,0 -6,2.68629 -6,6 0,3.31371 2.68629,6 6,6 3.31371,0 6,-2.68629 6,-6 0,-3.31371 -2.68629,-6 -6,-6 z m 0,3 c 1.65685,0 3,1.34315 3,3 0,1.65685 -1.34315,3 -3,3 -1.65685,0 -3,-1.34315 -3,-3 0,-1.65685 1.34315,-3 3,-3 z m 0,1 c -1.10457,0 -2,0.89543 -2,2 0,1.10457 0.89543,2 2,2 1.10457,0 2,-0.89543 2,-2 0,-1.10457 -0.89543,-2 -2,-2 z m 0,1 c 0.55228,0 1,0.44772 1,1 0,0.55228 -0.44772,1 -1,1 -0.55228,0 -1,-0.44772 -1,-1 0,-0.55228 0.44772,-1 1,-1 z" color="#bebebe"/></clipPath><clipPath id="clipPath3264" clipPathUnits="userSpaceOnUse"><rect id="rect3266" width="20" height="20" x="434" y="78" color="#bebebe" rx="4"/></clipPath><clipPath id="clipPath3260" clipPathUnits="userSpaceOnUse"><path id="path3262" d="m 328,238 c -7.73199,0 -14,6.26801 -14,14 0,7.73199 6.26801,14 14,14 7.73199,0 14,-6.26801 14,-14 0,-7.73199 -6.26801,-14 -14,-14 z m 0,9.90625 c 2.20914,0 4,1.79086 4,4 0,2.20914 -1.79086,4 -4,4 -2.20914,0 -4,-1.79086 -4,-4 0,-2.20914 1.79086,-4 4,-4 z m 0,1 c -1.65685,0 -3,1.34315 -3,3 0,1.65685 1.34315,3 3,3 1.65685,0 3,-1.34315 3,-3 0,-1.65685 -1.34315,-3 -3,-3 z m 0,1 c 1.10457,0 2,0.89543 2,2 0,1.10457 -0.89543,2 -2,2 -1.10457,0 -2,-0.89543 -2,-2 0,-1.10457 0.89543,-2 2,-2 z" color="#bebebe" opacity=".2"/></clipPath><clipPath id="clipPath3256" clipPathUnits="userSpaceOnUse"><path id="path3258" fill="url(#linearGradient4227-3)" d="m 440,126 c -3.31371,0 -6,2.68629 -6,6 0,3.31371 2.68629,6 6,6 3.31371,0 6,-2.68629 6,-6 0,-3.31371 -2.68629,-6 -6,-6 z m 0,3 c 1.65685,0 3,1.34315 3,3 0,1.65685 -1.34315,3 -3,3 -1.65685,0 -3,-1.34315 -3,-3 0,-1.65685 1.34315,-3 3,-3 z m 0,1 c -1.10457,0 -2,0.89543 -2,2 0,1.10457 0.89543,2 2,2 1.10457,0 2,-0.89543 2,-2 0,-1.10457 -0.89543,-2 -2,-2 z m 0,1 c 0.55228,0 1,0.44772 1,1 0,0.55228 -0.44772,1 -1,1 -0.55228,0 -1,-0.44772 -1,-1 0,-0.55228 0.44772,-1 1,-1 z" color="#bebebe"/></clipPath><clipPath id="clipPath3252" clipPathUnits="userSpaceOnUse"><path id="path3254" fill="url(#radialGradient4225-6)" d="m 328,256 15,11 0,-27 -15,0 z" clip-path="none"/></clipPath><clipPath id="clipPath3248" clipPathUnits="userSpaceOnUse"><path id="path3250" fill="url(#radialGradient4229-8)" d="m 451.38843,133.3713 6.42857,4.71429 0,-11.57143 -6.42857,0 z" clip-path="none"/></clipPath><clipPath id="clipPath3244" clipPathUnits="userSpaceOnUse"><path id="path3246" fill="url(#linearGradient4344-8)" d="m 144.00001,75.999997 c -44.1828,0 -80,35.817203 -80,80.000003 0,44.1828 35.8172,80 80,80 44.1828,0 80,-35.8172 80,-80 0,-44.1828 -35.8172,-80.000003 -80,-80.000003 z m 0,56.607143 c 12.62366,0 22.85714,10.23349 22.85714,22.85714 0,12.62366 -10.23348,22.85714 -22.85714,22.85714 -12.62366,0 -22.85714,-10.23348 -22.85714,-22.85714 0,-12.62365 10.23348,-22.85714 22.85714,-22.85714 z m 0,5.71429 c -9.46771,0 -17.14286,7.67514 -17.14286,17.14285 0,9.46772 7.67515,17.14286 17.14286,17.14286 9.46771,0 17.14286,-7.67514 17.14286,-17.14286 0,-9.46771 -7.67515,-17.14285 -17.14286,-17.14285 z m 0,5.71428 c 6.31183,0 11.42857,5.11674 11.42857,11.42857 0,6.31183 -5.11674,11.42857 -11.42857,11.42857 -6.31183,0 -11.42857,-5.11674 -11.42857,-11.42857 0,-6.31183 5.11674,-11.42857 11.42857,-11.42857 z" color="#bebebe"/></clipPath><clipPath id="clipPath3240" clipPathUnits="userSpaceOnUse"><rect id="rect3242" width="16" height="16" x="432" y="116" color="#bebebe" rx="3"/></clipPath><clipPath id="clipPath3236" clipPathUnits="userSpaceOnUse"><path id="path3238" fill="url(#linearGradient4326-1)" d="m 328,242.09376 c -7.73199,0 -14,6.26801 -14,14 0,7.73199 6.26801,14 14,14 7.73199,0 14,-6.26801 14,-14 0,-7.73199 -6.26801,-14 -14,-14 z m 0,9.90625 c 2.20914,0 4,1.79086 4,4 0,2.20914 -1.79086,4 -4,4 -2.20914,0 -4,-1.79086 -4,-4 0,-2.20914 1.79086,-4 4,-4 z m 0,1 c -1.65685,0 -3,1.34315 -3,3 0,1.65685 1.34315,3 3,3 1.65685,0 3,-1.34315 3,-3 0,-1.65685 -1.34315,-3 -3,-3 z m 0,1 c 1.10457,0 2,0.89543 2,2 0,1.10457 -0.89543,2 -2,2 -1.10457,0 -2,-0.89543 -2,-2 0,-1.10457 0.89543,-2 2,-2 z" color="#bebebe"/></clipPath><clipPath id="clipPath3232" clipPathUnits="userSpaceOnUse"><rect id="rect3234" width="20" height="20" x="434" y="78" color="#bebebe" rx="4"/></clipPath><clipPath id="clipPath3228" clipPathUnits="userSpaceOnUse"><rect id="rect3230" width="30" height="30" x="433" y="29" color="#bebebe" rx="6"/></clipPath><clipPath id="clipPath3224" clipPathUnits="userSpaceOnUse"><rect id="rect3226" width="16" height="16" x="432" y="116" fill="#6d6d6d" color="#bebebe" opacity=".2" rx="2"/></clipPath><clipPath id="clipPath3220" clipPathUnits="userSpaceOnUse"><rect id="rect3222" width="42" height="42" x="307" y="223" fill="url(#linearGradient4895-0)" color="#bebebe" rx="9" transform="rotate(90)"/></clipPath><clipPath id="clipPath3216" clipPathUnits="userSpaceOnUse"><rect id="rect3218" width="30" height="30" x="433" y="29" fill="#6d6d6d" color="#bebebe" opacity=".2" rx="4"/></clipPath><clipPath id="clipPath3212" clipPathUnits="userSpaceOnUse"><rect id="rect3214" width="42" height="42" x="307" y="223" fill="url(#linearGradient4895-2)" color="#bebebe" rx="9" transform="rotate(90)"/></clipPath><clipPath id="clipPath3208" clipPathUnits="userSpaceOnUse"><path id="path3210" fill="url(#radialGradient4225-7)" d="m 328,256 15,11 0,-27 -15,0 z" clip-path="none"/></clipPath><clipPath id="clipPath3204" clipPathUnits="userSpaceOnUse"><rect id="rect3206" width="90" height="90" x="307" y="31" fill="url(#linearGradient4825-8)" color="#bebebe" rx="18.75"/></clipPath><clipPath id="clipPath3200" clipPathUnits="userSpaceOnUse"><path id="path3202" d="m 328,238 c -7.73199,0 -14,6.26801 -14,14 0,7.73199 6.26801,14 14,14 7.73199,0 14,-6.26801 14,-14 0,-7.73199 -6.26801,-14 -14,-14 z m 0,8.75 c 2.89949,0 5.25,2.35051 5.25,5.25 0,2.89949 -2.35051,5.25 -5.25,5.25 -2.89949,0 -5.25,-2.35051 -5.25,-5.25 0,-2.89949 2.35051,-5.25 5.25,-5.25 z m 0,1.75 c -1.933,0 -3.5,1.567 -3.5,3.5 0,1.933 1.567,3.5 3.5,3.5 1.933,0 3.5,-1.567 3.5,-3.5 0,-1.933 -1.567,-3.5 -3.5,-3.5 z m 0,1.75 c 0.96649,0 1.75,0.78351 1.75,1.75 0,0.96649 -0.78351,1.75 -1.75,1.75 -0.96649,0 -1.75,-0.78351 -1.75,-1.75 0,-0.96649 0.78351,-1.75 1.75,-1.75 z" color="#bebebe" opacity=".2"/></clipPath><clipPath id="clipPath3196" clipPathUnits="userSpaceOnUse"><rect id="rect3198" width="60" height="60" x="306" y="142" fill="url(#linearGradient4863-9)" color="#bebebe" rx="12.5" transform="matrix(0 -1 1 0 0 0)"/></clipPath><clipPath id="clipPath3192" clipPathUnits="userSpaceOnUse"><rect id="rect3194" width="60" height="60" x="306" y="142" fill="url(#linearGradient4863-4)" color="#bebebe" rx="12.5" transform="matrix(0 -1 1 0 0 0)"/></clipPath><clipPath id="clipPath3188" clipPathUnits="userSpaceOnUse"><rect id="rect3190" width="22" height="22" x="433" y="77" color="#bebebe" rx="5"/></clipPath><clipPath id="clipPath3184" clipPathUnits="userSpaceOnUse"><rect id="rect3186" width="240" height="240" x="24" y="36" fill="#986767" color="#bebebe" rx="50"/></clipPath><clipPath id="clipPath3180" clipPathUnits="userSpaceOnUse"><rect id="rect3182" width="30" height="30" x="433" y="29" fill="#6d6d6d" color="#bebebe" opacity=".2" rx="4"/></clipPath><clipPath id="clipPath3176" clipPathUnits="userSpaceOnUse"><rect id="rect3178" width="22" height="22" x="433" y="77" color="#bebebe" rx="4"/></clipPath><clipPath id="clipPath3172" clipPathUnits="userSpaceOnUse"><rect id="rect3174" width="16" height="16" x="432" y="116" fill="#6d6d6d" color="#bebebe" opacity=".2" rx="2"/></clipPath><clipPath id="clipPath3168" clipPathUnits="userSpaceOnUse"><path id="path3170" fill="#b74049" d="m 328,256 15,11 0,-27 -15,0 z" clip-path="url(#clipPath4112-2)" opacity=".1"/></clipPath><clipPath id="clipPath3164" clipPathUnits="userSpaceOnUse"><rect id="rect3166" width="16" height="16" x="432" y="116" color="#bebebe" rx="3"/></clipPath><clipPath id="clipPath3160" clipPathUnits="userSpaceOnUse"><rect id="rect3162" width="22" height="22" x="433" y="77" fill="#6d6d6d" color="#bebebe" opacity=".2" rx="3"/></clipPath><clipPath id="clipPath3156" clipPathUnits="userSpaceOnUse"><path id="path3158" fill="url(#linearGradient4326-1)" d="m 328,242.09376 c -7.73199,0 -14,6.26801 -14,14 0,7.73199 6.26801,14 14,14 7.73199,0 14,-6.26801 14,-14 0,-7.73199 -6.26801,-14 -14,-14 z m 0,9.90625 c 2.20914,0 4,1.79086 4,4 0,2.20914 -1.79086,4 -4,4 -2.20914,0 -4,-1.79086 -4,-4 0,-2.20914 1.79086,-4 4,-4 z m 0,1 c -1.65685,0 -3,1.34315 -3,3 0,1.65685 1.34315,3 3,3 1.65685,0 3,-1.34315 3,-3 0,-1.65685 -1.34315,-3 -3,-3 z m 0,1 c 1.10457,0 2,0.89543 2,2 0,1.10457 -0.89543,2 -2,2 -1.10457,0 -2,-0.89543 -2,-2 0,-1.10457 0.89543,-2 2,-2 z" color="#bebebe"/></clipPath><clipPath id="clipPath3152" clipPathUnits="userSpaceOnUse"><path id="path3154" d="m 328,238 c -7.73199,0 -14,6.26801 -14,14 0,7.73199 6.26801,14 14,14 7.73199,0 14,-6.26801 14,-14 0,-7.73199 -6.26801,-14 -14,-14 z m 0,9.90625 c 2.20914,0 4,1.79086 4,4 0,2.20914 -1.79086,4 -4,4 -2.20914,0 -4,-1.79086 -4,-4 0,-2.20914 1.79086,-4 4,-4 z m 0,1 c -1.65685,0 -3,1.34315 -3,3 0,1.65685 1.34315,3 3,3 1.65685,0 3,-1.34315 3,-3 0,-1.65685 -1.34315,-3 -3,-3 z m 0,1 c 1.10457,0 2,0.89543 2,2 0,1.10457 -0.89543,2 -2,2 -1.10457,0 -2,-0.89543 -2,-2 0,-1.10457 0.89543,-2 2,-2 z" color="#bebebe" opacity=".2"/></clipPath><clipPath id="clipPath3148" clipPathUnits="userSpaceOnUse"><rect id="rect3150" width="20" height="20" x="434" y="78" color="#bebebe" rx="4"/></clipPath><clipPath id="clipPath3144" clipPathUnits="userSpaceOnUse"><rect id="rect3146" width="30" height="30" x="433" y="29" color="#bebebe" rx="6"/></clipPath><clipPath id="clipPath3140" clipPathUnits="userSpaceOnUse"><rect id="rect3142" width="16" height="16" x="432" y="116" color="#bebebe" rx="3"/></clipPath><clipPath id="clipPath3136" clipPathUnits="userSpaceOnUse"><rect id="rect3138" width="22" height="22" x="433" y="77" color="#bebebe" rx="5"/></clipPath><clipPath id="clipPath3132" clipPathUnits="userSpaceOnUse"><rect id="rect3134" width="22" height="22" x="433" y="77" color="#bebebe" rx="4"/></clipPath><clipPath id="clipPath4112" clipPathUnits="userSpaceOnUse"><path id="path3130" d="m 328,242.09375 c -7.73199,0 -14,6.26801 -14,14 0,7.73199 6.26801,14 14,14 7.73199,0 14,-6.26801 14,-14 0,-7.73199 -6.26801,-14 -14,-14 z M 328,252 c 2.20914,0 4,1.79086 4,4 0,2.20914 -1.79086,4 -4,4 -2.20914,0 -4,-1.79086 -4,-4 0,-2.20914 1.79086,-4 4,-4 z m 0,1 c -1.65685,0 -3,1.34315 -3,3 0,1.65685 1.34315,3 3,3 1.65685,0 3,-1.34315 3,-3 0,-1.65685 -1.34315,-3 -3,-3 z m 0,1 c 1.10457,0 2,0.89543 2,2 0,1.10457 -0.89543,2 -2,2 -1.10457,0 -2,-0.89543 -2,-2 0,-1.10457 0.89543,-2 2,-2 z" color="#bebebe" opacity=".2"/></clipPath><clipPath id="clipPath3125" clipPathUnits="userSpaceOnUse"><path id="path3127" fill="url(#linearGradient4338)" d="m 328,242.09376 c -7.73199,0 -14,6.26801 -14,14 0,7.73199 6.26801,14 14,14 7.73199,0 14,-6.26801 14,-14 0,-7.73199 -6.26801,-14 -14,-14 z m 0,9.90625 c 2.20914,0 4,1.79086 4,4 0,2.20914 -1.79086,4 -4,4 -2.20914,0 -4,-1.79086 -4,-4 0,-2.20914 1.79086,-4 4,-4 z m 0,1 c -1.65685,0 -3,1.34315 -3,3 0,1.65685 1.34315,3 3,3 1.65685,0 3,-1.34315 3,-3 0,-1.65685 -1.34315,-3 -3,-3 z m 0,1 c 1.10457,0 2,0.89543 2,2 0,1.10457 -0.89543,2 -2,2 -1.10457,0 -2,-0.89543 -2,-2 0,-1.10457 0.89543,-2 2,-2 z" color="#bebebe"/></clipPath><clipPath id="clipPath3121" clipPathUnits="userSpaceOnUse"><rect id="rect3123" width="90" height="90" x="307" y="31" fill="url(#linearGradient4825)" color="#bebebe" rx="18.75"/></clipPath><clipPath id="clipPath3117" clipPathUnits="userSpaceOnUse"><path id="path3119" fill="url(#radialGradient4229-9)" d="m 451.38843,133.3713 6.42857,4.71429 0,-11.57143 -6.42857,0 z" clip-path="none"/></clipPath><clipPath id="clipPath3113" clipPathUnits="userSpaceOnUse"><rect id="rect3115" width="240" height="240" x="24" y="36" fill="#986767" color="#bebebe" rx="50"/></clipPath><clipPath id="clipPath3109" clipPathUnits="userSpaceOnUse"><path id="path3111" fill="url(#linearGradient4227-4)" d="m 440,126 c -3.31371,0 -6,2.68629 -6,6 0,3.31371 2.68629,6 6,6 3.31371,0 6,-2.68629 6,-6 0,-3.31371 -2.68629,-6 -6,-6 z m 0,3 c 1.65685,0 3,1.34315 3,3 0,1.65685 -1.34315,3 -3,3 -1.65685,0 -3,-1.34315 -3,-3 0,-1.65685 1.34315,-3 3,-3 z m 0,1 c -1.10457,0 -2,0.89543 -2,2 0,1.10457 0.89543,2 2,2 1.10457,0 2,-0.89543 2,-2 0,-1.10457 -0.89543,-2 -2,-2 z m 0,1 c 0.55228,0 1,0.44772 1,1 0,0.55228 -0.44772,1 -1,1 -0.55228,0 -1,-0.44772 -1,-1 0,-0.55228 0.44772,-1 1,-1 z" color="#bebebe"/></clipPath><clipPath id="clipPath3105" clipPathUnits="userSpaceOnUse"><path id="path3107" fill="url(#linearGradient4326-13)" d="m 328,242.09376 c -7.73199,0 -14,6.26801 -14,14 0,7.73199 6.26801,14 14,14 7.73199,0 14,-6.26801 14,-14 0,-7.73199 -6.26801,-14 -14,-14 z m 0,9.90625 c 2.20914,0 4,1.79086 4,4 0,2.20914 -1.79086,4 -4,4 -2.20914,0 -4,-1.79086 -4,-4 0,-2.20914 1.79086,-4 4,-4 z m 0,1 c -1.65685,0 -3,1.34315 -3,3 0,1.65685 1.34315,3 3,3 1.65685,0 3,-1.34315 3,-3 0,-1.65685 -1.34315,-3 -3,-3 z m 0,1 c 1.10457,0 2,0.89543 2,2 0,1.10457 -0.89543,2 -2,2 -1.10457,0 -2,-0.89543 -2,-2 0,-1.10457 0.89543,-2 2,-2 z" color="#bebebe"/></clipPath><clipPath id="clipPath3101" clipPathUnits="userSpaceOnUse"><rect id="rect3103" width="60" height="60" x="306" y="142" fill="url(#linearGradient4863)" color="#bebebe" rx="12.5" transform="matrix(0 -1 1 0 0 0)"/></clipPath><clipPath id="clipPath3097" clipPathUnits="userSpaceOnUse"><rect id="rect3099" width="42" height="42" x="307" y="223" fill="url(#linearGradient4895)" color="#bebebe" rx="9" transform="rotate(90)"/></clipPath><clipPath id="clipPath3093" clipPathUnits="userSpaceOnUse"><rect id="rect3095" width="30" height="30" x="433" y="29" fill="#6d6d6d" color="#bebebe" opacity=".2" rx="4"/></clipPath><clipPath id="clipPath3089" clipPathUnits="userSpaceOnUse"><path id="path3091" fill="url(#linearGradient4338)" d="m 328,242.09376 c -7.73199,0 -14,6.26801 -14,14 0,7.73199 6.26801,14 14,14 7.73199,0 14,-6.26801 14,-14 0,-7.73199 -6.26801,-14 -14,-14 z m 0,9.90625 c 2.20914,0 4,1.79086 4,4 0,2.20914 -1.79086,4 -4,4 -2.20914,0 -4,-1.79086 -4,-4 0,-2.20914 1.79086,-4 4,-4 z m 0,1 c -1.65685,0 -3,1.34315 -3,3 0,1.65685 1.34315,3 3,3 1.65685,0 3,-1.34315 3,-3 0,-1.65685 -1.34315,-3 -3,-3 z m 0,1 c 1.10457,0 2,0.89543 2,2 0,1.10457 -0.89543,2 -2,2 -1.10457,0 -2,-0.89543 -2,-2 0,-1.10457 0.89543,-2 2,-2 z" color="#bebebe"/></clipPath><clipPath id="clipPath3085" clipPathUnits="userSpaceOnUse"><rect id="rect3087" width="22" height="22" x="433" y="77" fill="#6d6d6d" color="#bebebe" opacity=".2" rx="3"/></clipPath><clipPath id="clipPath3081" clipPathUnits="userSpaceOnUse"><path id="path3083" fill="url(#linearGradient4296-69)" d="m 451.38843,127.3713 c -3.31371,0 -6,2.68629 -6,6 0,3.31371 2.68629,6 6,6 3.31371,0 6,-2.68629 6,-6 0,-3.31371 -2.68629,-6 -6,-6 z m 0,3 c 1.65685,0 3,1.34315 3,3 0,1.65685 -1.34315,3 -3,3 -1.65685,0 -3,-1.34315 -3,-3 0,-1.65685 1.34315,-3 3,-3 z m 0,1 c -1.10457,0 -2,0.89543 -2,2 0,1.10457 0.89543,2 2,2 1.10457,0 2,-0.89543 2,-2 0,-1.10457 -0.89543,-2 -2,-2 z m 0,1 c 0.55228,0 1,0.44772 1,1 0,0.55228 -0.44772,1 -1,1 -0.55228,0 -1,-0.44772 -1,-1 0,-0.55228 0.44772,-1 1,-1 z" color="#bebebe"/></clipPath><clipPath id="clipPath3077" clipPathUnits="userSpaceOnUse"><path id="path3079" fill="url(#linearGradient4344)" d="m 144.00001,75.999997 c -44.1828,0 -80,35.817203 -80,80.000003 0,44.1828 35.8172,80 80,80 44.1828,0 80,-35.8172 80,-80 0,-44.1828 -35.8172,-80.000003 -80,-80.000003 z m 0,56.607143 c 12.62366,0 22.85714,10.23349 22.85714,22.85714 0,12.62366 -10.23348,22.85714 -22.85714,22.85714 -12.62366,0 -22.85714,-10.23348 -22.85714,-22.85714 0,-12.62365 10.23348,-22.85714 22.85714,-22.85714 z m 0,5.71429 c -9.46771,0 -17.14286,7.67514 -17.14286,17.14285 0,9.46772 7.67515,17.14286 17.14286,17.14286 9.46771,0 17.14286,-7.67514 17.14286,-17.14286 0,-9.46771 -7.67515,-17.14285 -17.14286,-17.14285 z m 0,5.71428 c 6.31183,0 11.42857,5.11674 11.42857,11.42857 0,6.31183 -5.11674,11.42857 -11.42857,11.42857 -6.31183,0 -11.42857,-5.11674 -11.42857,-11.42857 0,-6.31183 5.11674,-11.42857 11.42857,-11.42857 z" color="#bebebe"/></clipPath><clipPath id="clipPath3073" clipPathUnits="userSpaceOnUse"><path id="path3075" fill="url(#linearGradient4326-13)" d="m 328,242.09376 c -7.73199,0 -14,6.26801 -14,14 0,7.73199 6.26801,14 14,14 7.73199,0 14,-6.26801 14,-14 0,-7.73199 -6.26801,-14 -14,-14 z m 0,9.90625 c 2.20914,0 4,1.79086 4,4 0,2.20914 -1.79086,4 -4,4 -2.20914,0 -4,-1.79086 -4,-4 0,-2.20914 1.79086,-4 4,-4 z m 0,1 c -1.65685,0 -3,1.34315 -3,3 0,1.65685 1.34315,3 3,3 1.65685,0 3,-1.34315 3,-3 0,-1.65685 -1.34315,-3 -3,-3 z m 0,1 c 1.10457,0 2,0.89543 2,2 0,1.10457 -0.89543,2 -2,2 -1.10457,0 -2,-0.89543 -2,-2 0,-1.10457 0.89543,-2 2,-2 z" color="#bebebe"/></clipPath><clipPath id="clipPath3069" clipPathUnits="userSpaceOnUse"><path id="path3071" fill="url(#linearGradient4326-13)" d="m 328,242.09376 c -7.73199,0 -14,6.26801 -14,14 0,7.73199 6.26801,14 14,14 7.73199,0 14,-6.26801 14,-14 0,-7.73199 -6.26801,-14 -14,-14 z m 0,9.90625 c 2.20914,0 4,1.79086 4,4 0,2.20914 -1.79086,4 -4,4 -2.20914,0 -4,-1.79086 -4,-4 0,-2.20914 1.79086,-4 4,-4 z m 0,1 c -1.65685,0 -3,1.34315 -3,3 0,1.65685 1.34315,3 3,3 1.65685,0 3,-1.34315 3,-3 0,-1.65685 -1.34315,-3 -3,-3 z m 0,1 c 1.10457,0 2,0.89543 2,2 0,1.10457 -0.89543,2 -2,2 -1.10457,0 -2,-0.89543 -2,-2 0,-1.10457 0.89543,-2 2,-2 z" color="#bebebe"/></clipPath><clipPath id="clipPath3065" clipPathUnits="userSpaceOnUse"><path id="path3067" d="m 328,238 c -7.73199,0 -14,6.26801 -14,14 0,7.73199 6.26801,14 14,14 7.73199,0 14,-6.26801 14,-14 0,-7.73199 -6.26801,-14 -14,-14 z m 0,9.90625 c 2.20914,0 4,1.79086 4,4 0,2.20914 -1.79086,4 -4,4 -2.20914,0 -4,-1.79086 -4,-4 0,-2.20914 1.79086,-4 4,-4 z m 0,1 c -1.65685,0 -3,1.34315 -3,3 0,1.65685 1.34315,3 3,3 1.65685,0 3,-1.34315 3,-3 0,-1.65685 -1.34315,-3 -3,-3 z m 0,1 c 1.10457,0 2,0.89543 2,2 0,1.10457 -0.89543,2 -2,2 -1.10457,0 -2,-0.89543 -2,-2 0,-1.10457 0.89543,-2 2,-2 z" color="#bebebe" opacity=".2"/></clipPath><clipPath id="clipPath3061" clipPathUnits="userSpaceOnUse"><path id="path3063" fill="url(#linearGradient4296)" d="m 451.38843,127.3713 c -3.31371,0 -6,2.68629 -6,6 0,3.31371 2.68629,6 6,6 3.31371,0 6,-2.68629 6,-6 0,-3.31371 -2.68629,-6 -6,-6 z m 0,3 c 1.65685,0 3,1.34315 3,3 0,1.65685 -1.34315,3 -3,3 -1.65685,0 -3,-1.34315 -3,-3 0,-1.65685 1.34315,-3 3,-3 z m 0,1 c -1.10457,0 -2,0.89543 -2,2 0,1.10457 0.89543,2 2,2 1.10457,0 2,-0.89543 2,-2 0,-1.10457 -0.89543,-2 -2,-2 z m 0,1 c 0.55228,0 1,0.44772 1,1 0,0.55228 -0.44772,1 -1,1 -0.55228,0 -1,-0.44772 -1,-1 0,-0.55228 0.44772,-1 1,-1 z" color="#bebebe"/></clipPath><clipPath id="clipPath3057" clipPathUnits="userSpaceOnUse"><path id="path3059" fill="url(#radialGradient4279)" d="m 451.38843,133.3713 6.42857,4.71429 0,-11.57143 -6.42857,0 z" clip-path="none"/></clipPath><clipPath id="clipPath4112-2" clipPathUnits="userSpaceOnUse"><path id="path3055" d="m 328,242.09375 c -7.73199,0 -14,6.26801 -14,14 0,7.73199 6.26801,14 14,14 7.73199,0 14,-6.26801 14,-14 0,-7.73199 -6.26801,-14 -14,-14 z M 328,252 c 2.20914,0 4,1.79086 4,4 0,2.20914 -1.79086,4 -4,4 -2.20914,0 -4,-1.79086 -4,-4 0,-2.20914 1.79086,-4 4,-4 z m 0,1 c -1.65685,0 -3,1.34315 -3,3 0,1.65685 1.34315,3 3,3 1.65685,0 3,-1.34315 3,-3 0,-1.65685 -1.34315,-3 -3,-3 z m 0,1 c 1.10457,0 2,0.89543 2,2 0,1.10457 -0.89543,2 -2,2 -1.10457,0 -2,-0.89543 -2,-2 0,-1.10457 0.89543,-2 2,-2 z" color="#bebebe" opacity=".2"/></clipPath><clipPath id="clipPath3050" clipPathUnits="userSpaceOnUse"><rect id="rect3052" width="90" height="90" x="307" y="31" fill="url(#linearGradient4825-6)" color="#bebebe" rx="18.75"/></clipPath><clipPath id="clipPath3046" clipPathUnits="userSpaceOnUse"><rect id="rect3048" width="16" height="16" x="432" y="116" fill="#6d6d6d" color="#bebebe" opacity=".2" rx="2"/></clipPath><clipPath id="clipPath3042" clipPathUnits="userSpaceOnUse"><path id="path3044" fill="url(#radialGradient4250)" d="m 328,256 15,11 0,-27 -15,0 z" clip-path="none"/></clipPath><clipPath id="clipPath3038" clipPathUnits="userSpaceOnUse"><path id="path3040" fill="#b74049" d="m 328,256 15,11 0,-27 -15,0 z" clip-path="url(#clipPath4112)" opacity=".1"/></clipPath><clipPath id="clipPath3034" clipPathUnits="userSpaceOnUse"><path id="path3036" fill="url(#linearGradient4203-6)" d="m 444,88 c -4.41828,0 -8,3.58172 -8,8 0,4.41828 3.58172,8 8,8 4.41828,0 8,-3.58172 8,-8 0,-4.41828 -3.58172,-8 -8,-8 z m 0,5 c 1.65685,0 3,1.34315 3,3 0,1.65685 -1.34315,3 -3,3 -1.65685,0 -3,-1.34315 -3,-3 0,-1.65685 1.34315,-3 3,-3 z m 0,1 c -1.10457,0 -2,0.89543 -2,2 0,1.10457 0.89543,2 2,2 1.10457,0 2,-0.89543 2,-2 0,-1.10457 -0.89543,-2 -2,-2 z m 0,1 c 0.55228,0 1,0.44772 1,1 0,0.55228 -0.44772,1 -1,1 -0.55228,0 -1,-0.44772 -1,-1 0,-0.55228 0.44772,-1 1,-1 z" color="#bebebe"/></clipPath><clipPath id="clipPath3030" clipPathUnits="userSpaceOnUse"><path id="path3032" fill="url(#linearGradient4377)" d="m 444,88 c -4.41828,0 -8,3.58172 -8,8 0,4.41828 3.58172,8 8,8 4.41828,0 8,-3.58172 8,-8 0,-4.41828 -3.58172,-8 -8,-8 z m 0,5 c 1.65685,0 3,1.34315 3,3 0,1.65685 -1.34315,3 -3,3 -1.65685,0 -3,-1.34315 -3,-3 0,-1.65685 1.34315,-3 3,-3 z m 0,1 c -1.10457,0 -2,0.89543 -2,2 0,1.10457 0.89543,2 2,2 1.10457,0 2,-0.89543 2,-2 0,-1.10457 -0.89543,-2 -2,-2 z m 0,1 c 0.55228,0 1,0.44772 1,1 0,0.55228 -0.44772,1 -1,1 -0.55228,0 -1,-0.44772 -1,-1 0,-0.55228 0.44772,-1 1,-1 z" color="#bebebe"/></clipPath><clipPath id="clipPath3026" clipPathUnits="userSpaceOnUse"><path id="path3028" fill="url(#linearGradient4338)" d="m 328,242.09376 c -7.73199,0 -14,6.26801 -14,14 0,7.73199 6.26801,14 14,14 7.73199,0 14,-6.26801 14,-14 0,-7.73199 -6.26801,-14 -14,-14 z m 0,9.90625 c 2.20914,0 4,1.79086 4,4 0,2.20914 -1.79086,4 -4,4 -2.20914,0 -4,-1.79086 -4,-4 0,-2.20914 1.79086,-4 4,-4 z m 0,1 c -1.65685,0 -3,1.34315 -3,3 0,1.65685 1.34315,3 3,3 1.65685,0 3,-1.34315 3,-3 0,-1.65685 -1.34315,-3 -3,-3 z m 0,1 c 1.10457,0 2,0.89543 2,2 0,1.10457 -0.89543,2 -2,2 -1.10457,0 -2,-0.89543 -2,-2 0,-1.10457 0.89543,-2 2,-2 z" color="#bebebe"/></clipPath><clipPath id="clipPath3022" clipPathUnits="userSpaceOnUse"><rect id="rect3024" width="22" height="22" x="433" y="77" fill="#6d6d6d" color="#bebebe" opacity=".2" rx="3"/></clipPath><clipPath id="clipPath3018" clipPathUnits="userSpaceOnUse"><path id="path3020" d="m 328,238 c -7.73199,0 -14,6.26801 -14,14 0,7.73199 6.26801,14 14,14 7.73199,0 14,-6.26801 14,-14 0,-7.73199 -6.26801,-14 -14,-14 z m 0,8.75 c 2.89949,0 5.25,2.35051 5.25,5.25 0,2.89949 -2.35051,5.25 -5.25,5.25 -2.89949,0 -5.25,-2.35051 -5.25,-5.25 0,-2.89949 2.35051,-5.25 5.25,-5.25 z m 0,1.75 c -1.933,0 -3.5,1.567 -3.5,3.5 0,1.933 1.567,3.5 3.5,3.5 1.933,0 3.5,-1.567 3.5,-3.5 0,-1.933 -1.567,-3.5 -3.5,-3.5 z m 0,1.75 c 0.96649,0 1.75,0.78351 1.75,1.75 0,0.96649 -0.78351,1.75 -1.75,1.75 -0.96649,0 -1.75,-0.78351 -1.75,-1.75 0,-0.96649 0.78351,-1.75 1.75,-1.75 z" color="#bebebe" opacity=".2"/></clipPath><clipPath id="clipPath3014" clipPathUnits="userSpaceOnUse"><path id="path3016" fill="url(#linearGradient4326-1)" d="m 328,242.09376 c -7.73199,0 -14,6.26801 -14,14 0,7.73199 6.26801,14 14,14 7.73199,0 14,-6.26801 14,-14 0,-7.73199 -6.26801,-14 -14,-14 z m 0,9.90625 c 2.20914,0 4,1.79086 4,4 0,2.20914 -1.79086,4 -4,4 -2.20914,0 -4,-1.79086 -4,-4 0,-2.20914 1.79086,-4 4,-4 z m 0,1 c -1.65685,0 -3,1.34315 -3,3 0,1.65685 1.34315,3 3,3 1.65685,0 3,-1.34315 3,-3 0,-1.65685 -1.34315,-3 -3,-3 z m 0,1 c 1.10457,0 2,0.89543 2,2 0,1.10457 -0.89543,2 -2,2 -1.10457,0 -2,-0.89543 -2,-2 0,-1.10457 0.89543,-2 2,-2 z" color="#bebebe"/></clipPath><clipPath id="clipPath3010" clipPathUnits="userSpaceOnUse"><path id="path3012" fill="url(#linearGradient4306)" d="m 440,126 c -3.31371,0 -6,2.68629 -6,6 0,3.31371 2.68629,6 6,6 3.31371,0 6,-2.68629 6,-6 0,-3.31371 -2.68629,-6 -6,-6 z m 0,3 c 1.65685,0 3,1.34315 3,3 0,1.65685 -1.34315,3 -3,3 -1.65685,0 -3,-1.34315 -3,-3 0,-1.65685 1.34315,-3 3,-3 z m 0,1 c -1.10457,0 -2,0.89543 -2,2 0,1.10457 0.89543,2 2,2 1.10457,0 2,-0.89543 2,-2 0,-1.10457 -0.89543,-2 -2,-2 z m 0,1 c 0.55228,0 1,0.44772 1,1 0,0.55228 -0.44772,1 -1,1 -0.55228,0 -1,-0.44772 -1,-1 0,-0.55228 0.44772,-1 1,-1 z" color="#bebebe"/></clipPath><clipPath id="clipPath3006" clipPathUnits="userSpaceOnUse"><path id="path3008" fill="url(#linearGradient4344-1)" d="m 144.00001,75.999997 c -44.1828,0 -80,35.817203 -80,80.000003 0,44.1828 35.8172,80 80,80 44.1828,0 80,-35.8172 80,-80 0,-44.1828 -35.8172,-80.000003 -80,-80.000003 z m 0,56.607143 c 12.62366,0 22.85714,10.23349 22.85714,22.85714 0,12.62366 -10.23348,22.85714 -22.85714,22.85714 -12.62366,0 -22.85714,-10.23348 -22.85714,-22.85714 0,-12.62365 10.23348,-22.85714 22.85714,-22.85714 z m 0,5.71429 c -9.46771,0 -17.14286,7.67514 -17.14286,17.14285 0,9.46772 7.67515,17.14286 17.14286,17.14286 9.46771,0 17.14286,-7.67514 17.14286,-17.14286 0,-9.46771 -7.67515,-17.14285 -17.14286,-17.14285 z m 0,5.71428 c 6.31183,0 11.42857,5.11674 11.42857,11.42857 0,6.31183 -5.11674,11.42857 -11.42857,11.42857 -6.31183,0 -11.42857,-5.11674 -11.42857,-11.42857 0,-6.31183 5.11674,-11.42857 11.42857,-11.42857 z" color="#bebebe"/></clipPath><linearGradient id="linearGradient3626" x1=".838" x2="12.691" gradientTransform="translate(-13.53783,-0.01017)" gradientUnits="userSpaceOnUse" xlink:href="#linearGradient4159"/></defs><g id="g4396" fill="#000" fill-opacity="1" color="#bebebe" opacity=".3" transform="matrix(0.17072645,0,0,0.16912832,-0.82226378,-0.48888895)"><path id="path4398" fill="#000" fill-opacity="1" d="m 13.401547,16.086829 c -3.8335484,0 -6.9322154,3.098667 -6.9322154,6.932216 0,3.833548 3.098667,6.932215 6.9322154,6.932215 2.031597,0 3.920896,-0.305495 5.19028,-1.696579 l -10e-7,6.407759 c 0,0.961364 0.691702,1.601939 1.653066,1.601939 0.961364,0 1.653064,-0.640575 1.653064,-1.601939 l 0,-17.087355 c 0,-0.961364 -0.679008,-1.488256 -1.640372,-1.488256 -0.961364,0 -1.604755,0.528711 -1.665757,1.488256 l -0.04825,0.759001 0.04825,2.444878 2.204087,0 c -1.193064,1.648717 -2.036544,2.678633 -3.30613,4.271838 -1.310973,-1.609966 -1.999899,-2.65826 -3.306129,-4.271838 l 2.204086,2.4e-5 0,-4.271839 c -0.69769,-0.230836 -2.212091,-0.420296 -2.986194,-0.420296 z"/><path id="path4400" fill="#000" fill-opacity="1" d="m 25.704326,9.565387 c -0.961364,0 -1.602283,0.640576 -1.602283,1.60194 l 0,17.087354 c 0,0.961365 0.640919,1.696579 1.602283,1.696579 0.961364,0 1.619912,-0.738662 1.703846,-1.696579 l 0.04825,-0.550677 -0.04825,-2.653202 -2.204086,0 c 1.244187,-1.541935 2.059437,-2.731806 3.30613,-4.271838 1.304455,1.61493 1.996932,2.660519 3.306129,4.271838 l -2.204086,0 0,4.271839 c 0.69769,0.230836 2.212089,0.628619 2.986194,0.628619 3.833548,0 6.932215,-3.098667 6.932215,-6.932215 0,-3.833549 -3.098667,-6.932216 -6.932215,-6.932216 -2.031599,0 -3.920897,1.16513 -5.190281,2.556215 l 0,-7.475717 c 0,-0.961364 -0.742484,-1.60194 -1.703846,-1.60194 z"/></g><g id="g3392" fill="#dcdcdc" fill-opacity="1" color="#bebebe" transform="matrix(0.17072645,0,0,0.16912832,-0.82226378,-0.77111118)"><path id="path3394" fill="#dcdcdc" fill-opacity="1" d="m 13.401547,16.086829 c -3.8335484,0 -6.9322154,3.098667 -6.9322154,6.932216 0,3.833548 3.098667,6.932215 6.9322154,6.932215 2.031597,0 3.920896,-0.305495 5.19028,-1.696579 l -10e-7,6.407759 c 0,0.961364 0.691702,1.601939 1.653066,1.601939 0.961364,0 1.653064,-0.640575 1.653064,-1.601939 l 0,-17.087355 c 0,-0.961364 -0.679008,-1.488256 -1.640372,-1.488256 -0.961364,0 -1.604755,0.528711 -1.665757,1.488256 l -0.04825,0.759001 0.04825,2.444878 2.204087,0 c -1.193064,1.648717 -2.036544,2.678633 -3.30613,4.271838 -1.310973,-1.609966 -1.999899,-2.65826 -3.306129,-4.271838 l 2.204086,2.4e-5 0,-4.271839 c -0.69769,-0.230836 -2.212091,-0.420296 -2.986194,-0.420296 z"/><path id="path3396" fill="#dcdcdc" fill-opacity="1" d="m 25.704326,9.565387 c -0.961364,0 -1.602283,0.640576 -1.602283,1.60194 l 0,17.087354 c 0,0.961365 0.640919,1.696579 1.602283,1.696579 0.961364,0 1.619912,-0.738662 1.703846,-1.696579 l 0.04825,-0.550677 -0.04825,-2.653202 -2.204086,0 c 1.244187,-1.541935 2.059437,-2.731806 3.30613,-4.271838 1.304455,1.61493 1.996932,2.660519 3.306129,4.271838 l -2.204086,0 0,4.271839 c 0.69769,0.230836 2.212089,0.628619 2.986194,0.628619 3.833548,0 6.932215,-3.098667 6.932215,-6.932215 0,-3.833549 -3.098667,-6.932216 -6.932215,-6.932216 -2.031599,0 -3.920897,1.16513 -5.190281,2.556215 l 0,-7.475717 c 0,-0.961364 -0.742484,-1.60194 -1.703846,-1.60194 z"/></g></svg>