<svg xmlns="http://www.w3.org/2000/svg" xmlns:svg="http://www.w3.org/2000/svg" id="svg2" width="22" height="22" version="1.1" viewBox="0 0 22 22"><metadata id="metadata14"/><g id="g3787" fill="#000" fill-opacity="1" stroke="none" stroke-opacity="1" opacity=".3" transform="matrix(0.99966826,0,0,0.99950852,-37.982168,-757.62428)"><path id="path3789" fill="#000" fill-opacity="1" stroke="none" stroke-opacity="1" d="m 45,764 h 1 c 0.01037,-1.2e-4 0.02079,-4.6e-4 0.03125,0 0.25495,0.0112 0.50987,0.12858 0.6875,0.3125 l 2.281,2.28 2.312,-2.28 c 0.266,-0.23 0.447,-0.3 0.688,-0.31 h 1 v 1 c 0,0.28647 -0.03434,0.55065 -0.25,0.75 l -2.2812,2.2812 2.25,2.25 c 0.188,0.19 0.281,0.45 0.281,0.72 v 1 h -1 c -0.2653,-10e-6 -0.53059,-0.0931 -0.71875,-0.28125 l -2.281,-2.28 -2.281,2.28 c -0.188,0.19 -0.454,0.28 -0.719,0.28 h -1 v -1 c -3e-6,-0.26529 0.09306,-0.53058 0.28125,-0.71875 l 2.2812,-2.25 -2.281,-2.28 c -0.21,-0.19 -0.303,-0.47 -0.281,-0.75 v -1 z" color="#bebebe" enable-background="new" style="text-indent:0;text-transform:none;block-progression:tb"/></g><rect id="rect3767" width="15" height="15" x="3.5" y="4.5" fill="none" stroke="#000" stroke-opacity="1" opacity=".3" rx="2" ry="2"/><rect id="rect2993" width="15" height="15" x="3.5" y="3.5" fill="none" stroke="#dcdcdc" stroke-opacity="1" rx="2" ry="2"/><rect id="rect3763" width="16" height="1" x="3" y="14" fill="#dcdcdc" fill-opacity="1" stroke="none"/><rect id="rect3765" width="5" height="2" x="14" y="-12" fill="#dcdcdc" fill-opacity="1" stroke="none" transform="matrix(0,1,-1,0,0,0)"/><g id="layer4-4-1" fill="#ef555c" fill-opacity="1" transform="matrix(0.99966826,0,0,0.99950852,-37.982168,-758.62428)"><path style="text-indent:0;text-transform:none;block-progression:tb" id="path10839-9" fill="#ef555c" fill-opacity="1" d="m 45,764 h 1 c 0.01037,-1.2e-4 0.02079,-4.6e-4 0.03125,0 0.25495,0.0112 0.50987,0.12858 0.6875,0.3125 l 2.281,2.28 2.312,-2.28 c 0.266,-0.23 0.447,-0.3 0.688,-0.31 h 1 v 1 c 0,0.28647 -0.03434,0.55065 -0.25,0.75 l -2.2812,2.2812 2.25,2.25 c 0.188,0.19 0.281,0.45 0.281,0.72 v 1 h -1 c -0.2653,-10e-6 -0.53059,-0.0931 -0.71875,-0.28125 l -2.281,-2.28 -2.281,2.28 c -0.188,0.19 -0.454,0.28 -0.719,0.28 h -1 v -1 c -3e-6,-0.26529 0.09306,-0.53058 0.28125,-0.71875 l 2.2812,-2.25 -2.281,-2.28 c -0.21,-0.19 -0.303,-0.47 -0.281,-0.75 v -1 z" color="#bebebe" enable-background="new"/></g></svg>