<svg xmlns="http://www.w3.org/2000/svg" xmlns:svg="http://www.w3.org/2000/svg" id="svg2" width="22" height="22" version="1.1" viewBox="0 0 22 22"><metadata id="metadata12"/><path id="path3760" fill="#000" fill-opacity="1" stroke="none" d="m 6,4 0,2 4,0 0,8 2,0 0,-8 4,0 0,-2 z m -1,6 -3,10 18,0 -3,-10 -3,0 0,5 -6,0 0,-5 z" opacity=".3"/><path id="path2996" fill="#dedede" fill-opacity="1" stroke="none" d="m 6,3 0,2 4,0 0,8 2,0 0,-8 4,0 0,-2 z M 5,9 2,19 20,19 17,9 14,9 14,14 8,14 8,9 z" opacity="1"/></svg>