<svg xmlns="http://www.w3.org/2000/svg" xmlns:svg="http://www.w3.org/2000/svg" xmlns:xlink="http://www.w3.org/1999/xlink" id="svg2" width="22" height="22" version="1.1" viewBox="0 0 6.209 6.209"><metadata id="metadata12"/><defs id="defs4"><linearGradient id="linearGradient3942-9"><stop id="stop3944-9" offset="0" stop-color="#ff6f00" stop-opacity="1"/><stop id="stop3946-1" offset="1" stop-color="#ff6f0b" stop-opacity="1"/></linearGradient><linearGradient id="linearGradient3179" x1="3.275" x2="10.262" y1="289.649" y2="289.649" gradientUnits="userSpaceOnUse" xlink:href="#linearGradient3942-9"/><linearGradient id="linearGradient3196"><stop id="stop3198" offset="0" stop-color="#ff6f00" stop-opacity="1"/><stop id="stop3200" offset="1" stop-color="#ff6f0b" stop-opacity="1"/></linearGradient><linearGradient id="linearGradient3203"><stop id="stop3205" offset="0" stop-color="#ff6f00" stop-opacity="1"/><stop id="stop3207" offset="1" stop-color="#ff6f0b" stop-opacity="1"/></linearGradient><linearGradient id="linearGradient3210"><stop id="stop3212" offset="0" stop-color="#ff6f00" stop-opacity="1"/><stop id="stop3214" offset="1" stop-color="#ff6f0b" stop-opacity="1"/></linearGradient></defs><g id="g3804" fill="#000" fill-opacity="1" opacity=".3" transform="matrix(0.64627555,0,0,0.62259834,-1.2696432,-176.94804)"><g id="g3806" fill="#000" fill-opacity="1" transform="matrix(0.66941738,0,0,0.66941738,-7.8335199,95.420254)"><path font-size="medium" style="text-indent:0;text-align:start;line-height:normal;text-transform:none;block-progression:tb;marker:none;-inkscape-font-specification:Sans" id="path3808" fill="#000" fill-opacity="1" fill-rule="nonzero" stroke="none" stroke-width=".676" d="m 18,293.03125 -0.09375,0.1875 c 0,0 -0.415299,0.78575 -1.03125,1.84375 l -0.28125,0.5 0.5625,0 9.3125,0 0.5625,0 -0.28125,-0.5 -0.9375,-1.84375 -0.09375,-0.1875 -0.1875,0 -7.34375,0 z m 6.269801,1.98756 0.750848,-0.55878 0.885601,0.41497 -0.608873,-1.16638 c 0.304536,-0.54062 -1.077004,1.40276 -1.027576,1.31019 z" baseline-shift="baseline" color="#000" direction="ltr" display="inline" enable-background="accumulate" font-family="Sans" font-stretch="normal" font-style="normal" font-variant="normal" font-weight="normal" letter-spacing="normal" overflow="visible" text-anchor="start" text-decoration="none" visibility="visible" word-spacing="normal" writing-mode="lr-tb"/><path id="path3810" fill="#000" fill-opacity="1" d="m 21.791591,284.72838 c -0.171705,8.4e-4 -0.336228,0.11444 -0.679036,0.33697 l -0.719677,2.78892 2.84484,-0.002 -0.719676,-2.78722 c -0.376073,-0.2259 -0.554745,-0.33782 -0.726451,-0.33698 z m -1.723837,4.38065 -0.26755,1.03632 4.030189,0 -0.265857,-1.03293 z m 3.762639,1.03632 0.330205,1.27678 0,0 -0.330205,-1.27678 z m 0.330205,1.27678 -4.688906,-0.003 -0.418259,1.62052 c 1.996001,1.14096 3.33156,1.2112 5.527118,0.007 z"/></g></g><g id="g3921" fill="#dcdcdc" fill-opacity="1" transform="matrix(0.64627555,0,0,0.62259834,-1.2696432,-177.23026)"><g id="g3170" fill="#dcdcdc" fill-opacity="1" transform="matrix(0.66941738,0,0,0.66941738,-7.8335199,95.420254)"><path font-size="medium" style="text-indent:0;text-align:start;line-height:normal;text-transform:none;block-progression:tb;marker:none;-inkscape-font-specification:Sans" id="path3137" fill="#dcdcdc" fill-opacity="1" fill-rule="nonzero" stroke="none" stroke-width=".676" d="m 18,293.03125 -0.09375,0.1875 c 0,0 -0.415299,0.78575 -1.03125,1.84375 l -0.28125,0.5 0.5625,0 9.3125,0 0.5625,0 -0.28125,-0.5 -0.9375,-1.84375 -0.09375,-0.1875 -0.1875,0 -7.34375,0 z m 6.269801,1.98756 0.750848,-0.55878 0.885601,0.41497 -0.608873,-1.16638 c 0.304536,-0.54062 -1.077004,1.40276 -1.027576,1.31019 z" baseline-shift="baseline" color="#000" direction="ltr" display="inline" enable-background="accumulate" font-family="Sans" font-stretch="normal" font-style="normal" font-variant="normal" font-weight="normal" letter-spacing="normal" overflow="visible" text-anchor="start" text-decoration="none" visibility="visible" word-spacing="normal" writing-mode="lr-tb"/><path id="path3139" fill="#dcdcdc" fill-opacity="1" d="m 21.791591,284.72838 c -0.171705,8.4e-4 -0.336228,0.11444 -0.679036,0.33697 l -0.719677,2.78892 2.84484,-0.002 -0.719676,-2.78722 c -0.376073,-0.2259 -0.554745,-0.33782 -0.726451,-0.33698 z m -1.723837,4.38065 -0.26755,1.03632 4.030189,0 -0.265857,-1.03293 z m 3.762639,1.03632 0.330205,1.27678 0,0 -0.330205,-1.27678 z m 0.330205,1.27678 -4.688906,-0.003 -0.418259,1.62052 c 1.996001,1.14096 3.33156,1.2112 5.527118,0.007 z"/></g></g></svg>