<svg xmlns="http://www.w3.org/2000/svg" xmlns:svg="http://www.w3.org/2000/svg" xmlns:xlink="http://www.w3.org/1999/xlink" id="svg2" width="22" height="22" version="1.1" viewBox="0 0 22 22"><metadata id="metadata12"/><defs id="defs4"><linearGradient id="linearGradient3015" x2="0" y1="279.096" y2="268.33" gradientTransform="matrix(1.10525,0,0,1.10525,-134.27874,-295.76183)" gradientUnits="userSpaceOnUse" xlink:href="#linearGradient4460"/><linearGradient id="linearGradient4460"><stop id="stop7" offset="0" stop-color="#ffce7b" stop-opacity="1"/><stop id="stop9" offset="1" stop-color="#ffce7b" stop-opacity="1"/></linearGradient><linearGradient id="linearGradient3789" x2="0" y1="16" y2="3" gradientUnits="userSpaceOnUse" xlink:href="#linearGradient3776"/><linearGradient id="linearGradient3776"><stop id="stop3826" offset="0" stop-color="#e2a209"/><stop id="stop3828" offset="1" stop-color="#f0b70b"/></linearGradient></defs><g id="g3889" fill="#000" fill-opacity="1" fill-rule="evenodd" opacity=".3" transform="matrix(3.1213876,0,0,2.8346479,-7.5176213,-20.409538)"><path id="path3891" fill="#000" fill-opacity="1" d="m 7.1359456,8.8555675 c 0.4618442,0.26665 0.7488397,0.66318 0.7162629,0.95468 l -1.8843661,-1.08794 c -0.00573,-0.003 -0.011585,-0.006 -0.017443,-0.009 0.2359092,-0.17454 0.7232724,-0.12443 1.1855459,0.14246 z"/><rect id="rect3893" width=".681" height="3.487" x="-11.725" y="4.683" fill="#000" fill-opacity="1" rx=".272" transform="matrix(-0.86603,-0.5,-0.5,0.86603,0,0)"/><rect id="rect3895" width=".681" height="3.487" x="-10.949" y="4.683" fill="#000" fill-opacity="1" rx=".272" transform="matrix(-0.86603,-0.5,-0.5,0.86603,0,0)"/><rect id="rect3897" width=".681" height="3.487" x="-10.173" y="4.683" fill="#000" fill-opacity="1" rx=".272" transform="matrix(-0.86603,-0.5,-0.5,0.86603,0,0)"/><path id="path3899" fill="#000" fill-opacity="1" d="m -119.50798,657.3724 c 4.83364,-8.37211 478.53026,-8.37212 483.3639,-10e-6 4.83364,8.3721 -232.01466,418.60541 -241.68194,418.60541 -9.66728,0 -246.5156,-410.2333 -241.68196,-418.6054 z" transform="matrix(-0.00397,-0.00229,-0.00243,0.0042,7.12271,10.01594)"/></g><g id="g3843" fill="#dcdcdc" fill-opacity="1" fill-rule="evenodd" opacity="1" transform="matrix(3.1213876,0,0,2.8346479,-7.5176213,-21.409538)"><path id="path3845" fill="#dcdcdc" fill-opacity="1" d="m 7.1359456,8.8555675 c 0.4618442,0.26665 0.7488397,0.66318 0.7162629,0.95468 l -1.8843661,-1.08794 c -0.00573,-0.003 -0.011585,-0.006 -0.017443,-0.009 0.2359092,-0.17454 0.7232724,-0.12443 1.1855459,0.14246 z"/><rect id="rect3847" width=".681" height="3.487" x="-11.725" y="4.683" fill="#dcdcdc" fill-opacity="1" rx=".272" transform="matrix(-0.86603,-0.5,-0.5,0.86603,0,0)"/><rect id="rect3849" width=".681" height="3.487" x="-10.949" y="4.683" fill="#dcdcdc" fill-opacity="1" rx=".272" transform="matrix(-0.86603,-0.5,-0.5,0.86603,0,0)"/><rect id="rect3851" width=".681" height="3.487" x="-10.173" y="4.683" fill="#dcdcdc" fill-opacity="1" rx=".272" transform="matrix(-0.86603,-0.5,-0.5,0.86603,0,0)"/><path id="path3853" fill="#dcdcdc" fill-opacity="1" d="m -119.50798,657.3724 c 4.83364,-8.37211 478.53026,-8.37212 483.3639,-10e-6 4.83364,8.3721 -232.01466,418.60541 -241.68194,418.60541 -9.66728,0 -246.5156,-410.2333 -241.68196,-418.6054 z" transform="matrix(-0.00397,-0.00229,-0.00243,0.0042,7.12271,10.01594)"/></g></svg>